<?xml version="1.0" encoding="UTF-8"?>
<svg xmlns="http://www.w3.org/2000/svg" viewBox="0 0 824.81 824.81">
  <defs>
    <style>
      .cls-1, .cls-2, .cls-3 {
        fill: none;
      }

      .cls-4 {
        fill: #0a3a58;
      }

      .cls-2 {
        stroke-linecap: square;
      }

      .cls-2, .cls-3 {
        stroke: #0a3a58;
        stroke-miterlimit: 133.33;
        stroke-width: 13.73px;
      }

      .cls-5 {
        isolation: isolate;
      }

      .cls-6 {
        mix-blend-mode: multiply;
      }

      .cls-7 {
        fill: #0e7490;
      }

      .cls-8 {
        fill: #fff;
      }

      .cls-3 {
        stroke-linecap: round;
      }

      .cls-9 {
        fill: #0c4a6e;
      }
    </style>
  </defs>
  <g class="cls-5">
    <g id="Layer_2" data-name="Layer 2">
      <g id="Layer_1-2" data-name="Layer 1">
        <g>
          <g>
            <circle class="cls-2" cx="409.84" cy="408.25" r="108.12"/>
            <path class="cls-3" d="M412.56,513.81c27.01-25.98,40.52-61.17,40.52-105.57s-13.53-79.65-40.59-105.64c-.87-.84-4.17-1.08-4.92-.37-27.32,26.02-40.98,61.36-40.98,106.01s13.14,78.62,39.42,104.5c1.25,1.23,5.66,1.93,6.55,1.07Z"/>
            <path class="cls-3" d="M512.54,440.68h-205.42M512.54,375.81h-205.42"/>
          </g>
          <g class="cls-6">
            <path class="cls-7" d="M543.85,586.92c-3.49,10.86-7.32,21.34-11.45,31.43-.18.42-.34.85-.52,1.26-.33.8-.66,1.59-.99,2.37-1.4,3.35-2.84,6.66-4.34,9.91-1.3,2.9-2.64,5.75-4.02,8.57-.7,1.48-1.43,2.95-2.16,4.41-.64,1.29-1.32,2.58-1.98,3.86,7.47,1.96,14.7,3.54,21.71,4.73,2.11-4.24,4.17-8.58,6.18-13,1.28-2.83,2.53-5.68,3.76-8.57.47-1.11.93-2.22,1.4-3.35,4.86-11.69,9.31-23.9,13.34-36.55,1.13-3.51,2.21-7.06,3.27-10.62-7.52,1.91-15.17,3.66-22.92,5.27-.43.1-.86.19-1.29.27Z"/>
            <path class="cls-7" d="M492.57,689.83c-5.38,6.97-10.91,13.3-16.59,18.91-8.36,8.3-17.02,15.13-25.91,20.4-14.7,8.73-30,13.25-45.58,13.25-31.38,0-61.72-18.34-88.09-52.56-7.56,2.32-15,4.35-22.3,6.04,31.71,44.22,69.9,68.04,110.4,68.04,19.89,0,39.24-5.75,57.54-16.86,7.4-4.49,14.63-9.85,21.66-16.07,1.77-1.56,3.53-3.18,5.27-4.86.89-.86,1.78-1.73,2.68-2.62,4.36-4.36,8.65-9.07,12.82-14.1,1.88-2.26,3.73-4.58,5.56-6.97.87-1.11,1.72-2.24,2.57-3.39.77-1.04,1.54-2.1,2.31-3.17-4.74-1.1-9.53-2.33-14.37-3.71-2.64-.74-5.27-1.52-7.93-2.33Z"/>
            <g>
              <g>
                <path class="cls-9" d="M485.27,794.45c-39.07,0-70.86-31.79-70.86-70.86s31.79-70.86,70.86-70.86,70.86,31.79,70.86,70.86-31.79,70.86-70.86,70.86Z"/>
                <path class="cls-8" d="M485.27,657.54c36.42,0,66.05,29.63,66.05,66.05s-29.63,66.05-66.05,66.05-66.05-29.63-66.05-66.05,29.63-66.05,66.05-66.05M485.27,647.93c-41.79,0-75.66,33.87-75.66,75.66s33.88,75.66,75.66,75.66,75.66-33.88,75.66-75.66-33.87-75.66-75.66-75.66h0Z"/>
              </g>
              <path class="cls-8" d="M490.49,680.28h-8.56v13.55h-31.38v8.56h49.19c-.04,9.48-1,26.82-12.59,38.48-.06.06-.14.1-.2.15-7.55-6.36-12.25-14.06-14.05-20.32l-8.24,2.35c2.04,7.17,7.3,15.87,15.5,23.26-7.64,4.61-17.57,6.94-29.62,6.94v8.56c15.09,0,27.28-3.52,36.64-10.14,8.98,5.92,20.43,10.14,34.67,10.14v-8.56c-11.23,0-20.49-2.94-27.89-7.25,13.19-14.04,14.3-33.22,14.32-43.62h13.57v-8.56h-31.38v-13.55Z"/>
            </g>
            <path class="cls-7" d="M557.37,263.8c.49,2.22.96,4.46,1.39,6.68,9.36,9.81,18.36,19.81,26.97,29.94-1.45-10.21-3.16-20.23-5.08-30.11h0c-7.6-2.35-15.36-4.5-23.28-6.51Z"/>
            <path class="cls-7" d="M251.57,263.82c-7.92,1.99-15.69,4.16-23.28,6.49-1.92,9.88-3.62,19.9-5.08,30.11,8.61-10.12,17.6-20.09,26.96-29.89.45-2.25.89-4.47,1.4-6.71Z"/>
            <path class="cls-7" d="M247.66,526.68c-8.46-8.95-16.62-18.05-24.45-27.26,1.45,10.21,3.16,20.23,5.08,30.11,6.77,2.09,13.67,4.04,20.71,5.83.85.22,1.7.44,2.57.66-.48-2.21-.95-4.45-1.39-6.68-.84-.88-1.67-1.76-2.51-2.65h-.01Z"/>
            <path class="cls-7" d="M580.64,529.53c1.92-9.88,3.62-19.93,5.08-30.13-8.61,10.13-17.61,20.12-26.97,29.94-.43,2.24-.89,4.47-1.39,6.7,7.92-2,15.67-4.16,23.28-6.49h0Z"/>
            <path class="cls-7" d="M592.59,413.62c.11-4.56.15-9.13.15-13.7s-.04-9.17-.15-13.73c-7.14-10.58-14.76-21.12-22.84-31.56.99,14.88,1.47,30,1.47,45.28s-.48,30.4-1.47,45.28c8.08-10.46,15.7-20.99,22.84-31.58Z"/>
            <path class="cls-7" d="M288.58,154.97c.64-1.29,1.3-2.58,1.96-3.86-7.44-1.98-14.69-3.55-21.71-4.75-10.94,21.93-20.3,46.15-27.95,72.1,7.95-2.02,16.02-3.86,24.21-5.55,6.67-20.71,14.54-40.13,23.48-57.95Z"/>
            <path class="cls-7" d="M216.35,386.23c-.11,4.56-.15,9.11-.15,13.68s.04,9.13.15,13.67c7.12,10.6,14.74,21.14,22.84,31.6-.97-14.89-1.47-30-1.47-45.27s.49-30.38,1.47-45.27c-8.1,10.43-15.72,21-22.84,31.58Z"/>
            <path class="cls-7" d="M240.88,581.37c7.64,25.94,17.01,50.15,27.95,72.09,7.01-1.21,14.26-2.79,21.71-4.73-.66-1.28-1.32-2.57-1.96-3.86-8.95-17.82-16.81-37.24-23.48-57.95-8.19-1.69-16.26-3.53-24.21-5.55Z"/>
            <path class="cls-7" d="M366.95,66.34c12.21-5.89,24.79-8.92,37.53-8.92,31.39,0,61.74,18.35,88.09,52.58,1.35,1.74,2.68,3.51,4.01,5.33,1.29,1.78,2.57,3.6,3.8,5.44,4.09,5.94,8.03,12.28,11.86,19.01,1.07,1.85,2.11,3.73,3.14,5.66,1.03,1.87,2.03,3.76,3.02,5.68.66,1.28,1.33,2.57,1.98,3.86,8.95,17.82,16.8,37.24,23.47,57.95,8.19,1.69,16.28,3.53,24.21,5.54-7.64-25.95-17.01-50.16-27.94-72.1,0,0,0,0,0,0,0,0,0,0,0,0-.15-.36-.34-.71-.52-1.06-.8-1.62-1.62-3.21-2.46-4.79-1.02-1.98-2.05-3.91-3.07-5.81-3.75-6.88-7.63-13.4-11.63-19.59-1.22-1.91-2.46-3.77-3.69-5.61-1.29-1.88-2.58-3.73-3.87-5.54,0,0,0,0,0,0-31.69-44.22-69.92-68.07-110.4-68.07-17.71,0-34.99,4.56-51.47,13.4-21.19,11.36-41.08,29.79-58.92,54.66,7.3,1.69,14.74,3.71,22.3,6.04,15.66-20.32,32.71-35.05,50.56-43.66Z"/>
            <path class="cls-7" d="M745.28,332.86c-7.62-10.53-17.06-20.66-28.25-30.29-2.28-1.98-4.65-3.93-7.08-5.85-3.06-2.43-6.23-4.82-9.53-7.18-.67,2.92-1.41,5.87-2.18,8.85-.73,2.72-1.48,5.45-2.29,8.21-.51,1.73-1.03,3.47-1.56,5.23,12.78,9.86,23.35,20.25,31.57,31.05,13.79,18.12,21,37.37,21,57.04,0,31.39-18.34,61.72-52.57,88.09,2.33,7.56,4.35,14.99,6.04,22.29,44.22-31.69,68.05-69.9,68.05-110.38,0-23.38-7.95-46.01-23.2-67.06Z"/>
            <path class="cls-7" d="M359.18,565.18c10.46,8.1,20.99,15.72,31.58,22.85,4.56.11,9.13.15,13.71.15s9.15-.04,13.71-.15c10.6-7.14,21.12-14.76,31.58-22.85-14.89.99-30,1.48-45.29,1.48s-30.39-.49-45.29-1.48Z"/>
            <path class="cls-7" d="M625.54,273.08c8.25,3.45,16.22,7.1,23.88,10.95,1.32.66,2.61,1.3,3.87,1.99,1.39-5.3,2.59-10.49,3.6-15.55.41-2.09.8-4.16,1.14-6.2-.38-.19-.75-.37-1.14-.56-9.15-4.52-18.69-8.77-28.59-12.74-13.49-5.41-27.64-10.29-42.36-14.63-2.32-.7-4.65-1.36-6.99-1.99-2.31-.67-4.64-1.3-6.99-1.92-7.84-2.09-15.8-4.01-23.91-5.79-2.31-.52-4.63-1-6.97-1.48-2.32-.48-4.65-.95-6.97-1.4h-.03c-9.86-1.92-19.9-3.62-30.09-5.08,10.12,8.61,20.11,17.61,29.91,26.97,2.25.44,4.49.91,6.7,1.39,2.29.48,4.57.99,6.82,1.51,2.31.49,4.58,1.04,6.84,1.59,7.99,1.91,15.83,3.98,23.5,6.22,2.29.67,4.58,1.35,6.86,2.05,2.31.7,4.6,1.43,6.85,2.15,11.79,3.8,23.17,7.97,34.07,12.53Z"/>
            <path class="cls-7" d="M230,565.49c2.32.66,4.65,1.3,6.97,1.92,2.48.66,5,1.3,7.51,1.92,5.41,1.36,10.88,2.65,16.42,3.84,2.32.53,4.64,1.03,6.99,1.51,2.31.48,4.64.95,6.97,1.4h.01c9.87,1.92,19.92,3.62,30.1,5.08-10.12-8.61-20.11-17.61-29.92-26.97-2.24-.44-4.46-.91-6.68-1.39-2.29-.47-4.57-.98-6.84-1.51-2.29-.49-4.57-1.04-6.85-1.59-1.85-.44-3.71-.89-5.55-1.37-6.07-1.51-12.05-3.13-17.95-4.86-2.29-.66-4.58-1.35-6.85-2.03-2.3-.7-4.58-1.43-6.86-2.15,1.66,8.08,3.49,16.04,5.46,23.87.03.11.05.21.08.32,2.31.7,4.64,1.39,6.99,2.02Z"/>
            <path class="cls-7" d="M578.96,565.49c2.33-.63,4.67-1.29,6.99-1.99,25.94-7.64,50.15-16.99,72.09-27.95-1.18-7.01-2.77-14.26-4.74-21.74-1.26.69-2.55,1.33-3.87,1.99-17.8,8.95-37.22,16.81-57.95,23.48-2.25.73-4.54,1.45-6.85,2.15-2.28.69-4.57,1.37-6.86,2.03-7.67,2.25-15.51,4.32-23.5,6.23-2.25.55-4.53,1.1-6.84,1.59-2.25.52-4.53,1.03-6.82,1.51-2.22.48-4.47.95-6.71,1.39-9.81,9.36-19.78,18.36-29.92,26.97,10.2-1.45,20.23-3.16,30.11-5.08h.03c2.32-.45,4.65-.92,6.97-1.4,2.33-.48,4.67-.98,6.96-1.48,8.1-1.78,16.09-3.71,23.92-5.79,2.35-.62,4.68-1.25,6.99-1.92Z"/>
            <path class="cls-7" d="M690.6,524.49c-.41-2.2-.86-4.39-1.35-6.62-1.54-7.19-3.42-14.55-5.63-22.04-.62-2.09-1.24-4.19-1.92-6.29-.52-1.7-1.07-3.42-1.65-5.15-.12-.36-.23-.73-.38-1.08-7.75-23.25-18.27-47-31.2-70.76-4.21,7.03-8.61,14.04-13.22,21.04,9.91,19.38,18.12,38.66,24.38,57.57.47,1.39.91,2.76,1.32,4.15.67,2.06,1.29,4.1,1.91,6.15.6,2.09,1.19,4.15,1.76,6.2,2.05,7.47,3.73,14.74,5.05,21.82.44,2.2.81,4.38,1.15,6.53.36,2.22.69,4.43.93,6.62,5.57,42.85-2.91,77.26-25.1,99.44-9.7,9.7-21.74,16.79-35.8,21.21-6.99,2.21-14.48,3.76-22.43,4.65-5.39.62-10.99.92-16.8.92-5.37,0-10.91-.26-16.63-.8-.38-.04-.77-.07-1.15-.12-2.18-.19-4.41-.45-6.64-.74-.7-.1-1.4-.18-2.11-.29-.15-.01-.3-.03-.45-.05-1.33-.18-2.68-.37-4.05-.59-2.16-.34-4.32-.73-6.52-1.15-3.14-.59-6.34-1.25-9.58-2-.29-.05-.58-.12-.87-.19-2.72-.62-5.46-1.29-8.24-2.02-.11-.03-.22-.05-.33-.08-.93-.25-1.87-.49-2.81-.76-2.07-.56-4.13-1.15-6.22-1.77-2.05-.6-4.09-1.24-6.15-1.89-1.37-.41-2.76-.86-4.15-1.33-10.23-3.38-20.56-7.33-30.95-11.8-.88-.38-1.77-.77-2.65-1.17-7.96-3.49-15.95-7.29-23.96-11.39-6.99,4.6-14,9-21.03,13.22,11.53,6.29,23.05,12,34.51,17.07,2.66,1.19,5.33,2.35,7.97,3.46,8.07,3.4,16.09,6.48,24.06,9.24,1.4.48,2.8.96,4.2,1.43.27.12.58.21.86.3.08.03.15.05.23.08,1.7.56,3.4,1.11,5.11,1.65,2.11.66,4.21,1.3,6.31,1.92,7.49,2.22,14.85,4.08,22.04,5.64,1.73.37,3.44.73,5.15,1.06h.01c.48.11.96.19,1.44.29,1.06.21,2.13.4,3.18.59,1.17.21,2.32.4,3.47.59,1.66.27,3.31.53,4.95.77,6.2.91,12.24,1.54,18.16,1.91h.01c4.35.29,8.61.43,12.79.43h.01c7.63,0,14.99-.47,22.04-1.39,4.45-.58,8.77-1.35,12.97-2.28,21.92-4.9,40.57-14.71,55.23-29.36,28.62-28.63,38.79-72.5,29.91-126.17-.33-2.21-.73-4.42-1.18-6.66Z"/>
            <path class="cls-7" d="M118.34,275.36c.4,2.18.84,4.38,1.35,6.59,0,0,0,0,0,0,1.54,7.19,3.43,14.56,5.63,22.06,0,0,0,0,0,0t0,0c.62,2.09,1.25,4.19,1.92,6.27.52,1.72,1.08,3.43,1.65,5.15.14.38.26.74.38,1.11h0c7.78,23.25,18.3,46.98,31.23,70.74,1.14,2.11,2.33,4.23,3.51,6.37,1.18,2.07,2.39,4.17,3.58,6.27,4.08,7.01,8.36,14.03,12.82,21,1.29,2,2.58,3.99,3.9,5.98,1.29,1.98,2.59,3.95,3.93,5.93,5.63,8.33,11.53,16.63,17.71,24.88,0,0,0,0,0,.01,2.31,3.13,4.69,6.24,7.12,9.35h0c2.35,3.05,4.75,6.09,7.21,9.11,8.18,10.18,16.77,20.27,25.75,30.2,2.57,2.86,5.17,5.71,7.81,8.52,2.61,2.8,5.26,5.59,7.92,8.36,3.16,3.28,6.35,6.55,9.59,9.79,3.22,3.23,6.49,6.42,9.76,9.55,2.79,2.72,5.57,5.37,8.4,7.97,2.81,2.64,5.63,5.22,8.46,7.78,9.94,8.96,20.01,17.57,30.21,25.75,3.02,2.44,6.05,4.84,9.13,7.21,3.1,2.43,6.22,4.8,9.36,7.12,8.25,6.19,16.57,12.11,24.91,17.72,7.01-3.73,14.01-7.67,21.03-11.87-1.89-1.24-3.82-2.5-5.74-3.76-3.23-2.14-6.45-4.32-9.66-6.57-3.16-2.18-6.31-4.41-9.46-6.7-10.42-7.52-20.74-15.48-30.98-23.87-2.88-2.37-5.76-4.78-8.62-7.22-2.84-2.4-5.7-4.86-8.54-7.37-11.2-9.83-22.25-20.18-33.05-30.97-10.79-10.8-21.12-21.82-30.97-33.04-2.5-2.84-4.95-5.68-7.36-8.54-2.46-2.87-4.86-5.74-7.23-8.63-8.39-10.21-16.35-20.56-23.87-30.97-2.29-3.14-4.52-6.3-6.7-9.46-2.25-3.21-4.43-6.43-6.57-9.65h0s0-.01,0-.02c-1.26-1.92-2.52-3.81-3.76-5.72,0,0,0,0,0,0-1.28-1.98-2.52-3.94-3.76-5.91-1.28-1.99-2.5-3.98-3.72-5.97-4.28-7-8.37-14.01-12.22-21.01,0,0,0,0,0,0,0,0,0,0,0,0-1.17-2.1-2.29-4.19-3.39-6.29-1.14-2.11-2.24-4.24-3.33-6.37,0,0,0,0,0,0-9.91-19.38-18.1-38.66-24.36-57.58-.45-1.39-.91-2.76-1.33-4.13,0,0,0,0,0,0h0c-.66-2.06-1.29-4.1-1.91-6.15-.6-2.07-1.19-4.16-1.76-6.22-2.06-7.48-3.75-14.77-5.05-21.82-.42-2.21-.81-4.38-1.15-6.53-.36-2.24-.67-4.45-.93-6.62-1.65-12.7-2.06-24.65-1.24-35.77h0c1.44-19.94,6.82-37.17,16.1-51.13,1.58-2.39,3.27-4.68,5.08-6.86,1.62-1.99,3.35-3.88,5.17-5.71,4.06-4.06,8.55-7.64,13.41-10.78.43-.28.84-.57,1.28-.85,2.21-1.37,4.5-2.65,6.86-3.83,14.08-7.08,30.83-10.86,49.81-11.28,1.21-.03,2.43-.04,3.65-.04,7.81,0,15.96.56,24.44,1.67,0,0,0,0,0,0,2.17.27,4.38.58,6.6.93,0,0,0,0,0,0,2.15.34,4.34.74,6.54,1.15,0,0,0,0,0,0,7.07,1.32,14.34,3.01,21.81,5.05,0,0,0,0,0,0,0,0,0,0,0,0,2.06.56,4.14,1.15,6.22,1.77,0,0,0,0,0,0,2.04.6,4.09,1.22,6.15,1.89,0,0,0,0,0,0,1.39.43,2.77.85,4.15,1.32,18.93,6.26,38.2,14.45,57.57,24.38,2.14,1.1,4.26,2.21,6.4,3.32,2.1,1.13,4.17,2.25,6.27,3.4,7.01,3.86,14.03,7.92,21.01,12.22,1.99,1.22,3.98,2.46,5.97,3.71,1.98,1.24,3.95,2.5,5.93,3.77,1.89,1.24,3.82,2.48,5.74,3.77,0,0,0,0,0,0,3.22,2.14,6.45,4.32,9.66,6.57,0,0,0,0,0,0,3.16,2.18,6.31,4.42,9.47,6.7,0,0,0,0,0,0,0,0,0,0,0,0,10.4,7.52,20.73,15.48,30.94,23.87,0,0,0,0,0,0,2.9,2.37,5.78,4.77,8.64,7.22h0c2.84,2.42,5.68,4.87,8.51,7.37h0c11.21,9.83,22.23,20.18,33.03,30.97,10.8,10.8,21.15,21.85,30.99,33.04,0,0,0,0,0,0,2.5,2.84,4.95,5.68,7.35,8.53,0,0,0,0,0,0,2.43,2.85,4.83,5.72,7.2,8.6,0,0,0,0,0,0,8.39,10.23,16.36,20.57,23.87,30.98,0,0,0,0,0,0,0,0,0,0,0,0,2.29,3.14,4.51,6.3,6.71,9.45,0,0,0,0,0,0,2.22,3.2,4.42,6.43,6.56,9.66,0,0,0,0,0,0,1.28,1.92,2.52,3.83,3.76,5.74,4.18-7.03,8.15-14.04,11.87-21.06-5.63-8.35-11.53-16.65-17.72-24.9-2.33-3.12-4.69-6.22-7.1-9.32-2.37-3.05-4.78-6.11-7.23-9.13-8.17-10.2-16.76-20.27-25.75-30.18-2.55-2.85-5.15-5.7-7.78-8.51-2.62-2.8-5.26-5.6-7.93-8.36-3.16-3.28-6.34-6.55-9.59-9.79-3.22-3.23-6.49-6.44-9.77-9.58-2.77-2.69-5.56-5.33-8.37-7.95-2.81-2.64-5.63-5.22-8.48-7.78-9.92-8.96-20-17.56-30.18-25.75-3.03-2.44-6.08-4.85-9.13-7.21-3.12-2.43-6.22-4.79-9.36-7.12-8.25-6.19-16.57-12.11-24.91-17.73h0c-1.98-1.33-3.94-2.64-5.92-3.94-1.99-1.3-4.01-2.59-6-3.88-6.97-4.46-13.99-8.76-21-12.82-2.1-1.21-4.17-2.4-6.27-3.6-2.14-1.18-4.26-2.36-6.38-3.51,0,0,0,0,0,0-23.75-12.94-47.48-23.46-70.71-31.23-.38-.12-.74-.25-1.11-.37-1.73-.58-3.43-1.13-5.13-1.65-2.1-.67-4.2-1.32-6.27-1.91-7.52-2.22-14.89-4.1-22.08-5.64-2.22-.49-4.41-.93-6.6-1.35-2.24-.44-4.46-.82-6.64-1.19-12.54-2.07-24.51-3.1-35.92-3.1-4.31,0-8.52.15-12.65.45h-.01c-14.82,1.04-28.49,3.99-40.82,8.81-2.33.91-4.63,1.88-6.86,2.94-3.53,1.64-6.93,3.45-10.2,5.43-5.46,3.3-10.57,7.06-15.31,11.27-1.5,1.33-2.95,2.7-4.38,4.13-1.21,1.21-2.39,2.46-3.53,3.72-4.78,5.27-8.98,11.02-12.6,17.2-.07.11-.14.22-.19.33-7.93,13.63-13.05,29.36-15.35,46.9h0c-2.29,17.64-1.73,37.09,1.73,58.02.34,2.21.73,4.43,1.18,6.67Z"/>
            <path class="cls-7" d="M418.19,211.81c-4.56-.11-9.13-.15-13.71-.15s-9.15.04-13.71.15c-3.86.05-7.71.16-11.56.3-3.83.12-7.67.29-11.49.48-13.37.69-26.59,1.73-39.57,3.14-3.86.41-7.69.86-11.52,1.35h-.01c-3.91.49-7.78,1.02-11.65,1.59-10.18,1.45-20.23,3.16-30.1,5.08h-.01c-2.33.45-4.67.92-6.97,1.4-2.35.48-4.68.96-7,1.51-8.1,1.76-16.07,3.69-23.91,5.76-2.32.62-4.65,1.26-6.97,1.92-2.35.63-4.68,1.32-6.99,2.02-25.94,7.62-50.15,16.96-72.09,27.9,1.19,7.01,2.76,14.25,4.74,21.73,1.28-.66,2.57-1.32,3.86-1.96,17.82-8.95,37.24-16.79,57.95-23.48,2.28-.73,4.56-1.45,6.86-2.15,2.26-.7,4.56-1.37,6.85-2.05,7.69-2.24,15.52-4.31,23.5-6.22,2.28-.55,4.56-1.1,6.85-1.59,2.26-.54,4.54-1.04,6.84-1.51,2.22-.51,4.45-.95,6.68-1.39,3.83-.78,7.66-1.52,11.54-2.22,3.76-.67,7.56-1.32,11.38-1.94,12.68-2.06,25.63-3.73,38.8-5.02,3.72-.37,7.45-.7,11.2-1,3.73-.3,7.47-.58,11.21-.81,14.91-.97,30.02-1.47,45.29-1.47s30.4.49,45.29,1.47c-10.46-8.08-20.99-15.7-31.58-22.84Z"/>
            <path class="cls-7" d="M392.59,195.55c-7.01-4.19-14.03-8.15-21.04-11.87-8.33,5.63-16.66,11.54-24.91,17.73,13.25-1.08,26.67-1.76,40.22-2.09,1.92-1.29,3.84-2.54,5.74-3.77Z"/>
            <path class="cls-7" d="M417.14,155.92c7,4.2,14.04,8.61,21.03,13.2,19.37-9.92,38.65-18.12,57.57-24.38,1.38-.44,2.77-.89,4.13-1.32-3.9-6.67-7.89-12.92-12-18.73-23.25,7.77-46.97,18.28-70.72,31.22Z"/>
            <path class="cls-7" d="M142.34,449.48c-4.58,10.47-8.66,20.89-12.19,31.21-.3.88-.6,1.74-.89,2.62,5.81,4.09,12.05,8.1,18.72,12,.41-1.39.87-2.76,1.33-4.15,1.72-5.2,3.58-10.43,5.6-15.67.86-2.28,1.77-4.56,2.7-6.85,4.68-11.61,10.05-23.32,16.06-35.07-4.6-6.97-9-13.99-13.19-21.01-6.73,12.34-12.79,24.66-18.14,36.92Z"/>
            <path class="cls-7" d="M314.86,677.16c1.7-.53,3.4-1.1,5.13-1.66.36-.14.73-.23,1.08-.38,23.25-7.74,46.98-18.26,70.74-31.2,2.11-1.15,4.24-2.33,6.37-3.54,2.1-1.17,4.19-2.36,6.29-3.58,7.01-4.08,14.03-8.35,21-12.82,1.99-1.26,3.98-2.55,5.97-3.88,1.98-1.29,3.95-2.59,5.93-3.94,8.33-5.61,16.65-11.53,24.91-17.72,3.13-2.32,6.26-4.69,9.36-7.12,3.05-2.35,6.08-4.75,9.1-7.21,10.2-8.18,20.27-16.77,30.21-25.75,2.83-2.55,5.67-5.15,8.48-7.78,2.81-2.62,5.59-5.26,8.37-7.95,3.28-3.14,6.55-6.35,9.77-9.58,3.25-3.24,6.48-6.53,9.61-9.83,2.69-2.76,5.34-5.55,7.93-8.35,2.62-2.79,5.22-5.63,7.78-8.46,8.96-9.92,17.56-20.03,25.75-30.21,2.46-3.02,4.86-6.08,7.23-9.13,2.4-3.1,4.76-6.22,7.1-9.33,6.19-8.26,12.09-16.55,17.72-24.91,1.33-1.98,2.66-3.95,3.95-5.94,1.3-1.99,2.59-3.97,3.87-5.97,4.49-6.97,8.76-13.99,12.82-21,1.22-2.1,2.43-4.2,3.6-6.27,1.19-2.14,2.36-4.25,3.53-6.37,8.48-15.59,15.94-31.18,22.24-46.63,3.31-8.08,6.3-16.14,8.96-24.13.14-.36.26-.73.38-1.1.58-1.72,1.13-3.43,1.65-5.15.52-1.56.99-3.16,1.47-4.72.15-.52.3-1.03.45-1.55.62-2.11,1.22-4.21,1.78-6.31,1.45-5.33,2.75-10.58,3.84-15.74.48-2.22.95-4.41,1.35-6.6.18-.88.34-1.76.49-2.62.26-1.36.48-2.69.69-4.04.54-3.24,1-6.44,1.39-9.61v-.05c.38-2.99.7-5.93.96-8.85v-.03c.16-1.89.3-3.79.4-5.66.21-3.32.32-6.59.34-9.81.12-10.66-.66-20.81-2.33-30.36-.45-2.69-1-5.33-1.61-7.92-.03-.12-.05-.23-.08-.36-5.02-21.18-14.71-39.24-28.98-53.52-6.7-6.68-14.22-12.37-22.51-17.03-18.89-10.64-41.73-16-67.74-16-11.41,0-23.4,1.03-35.93,3.1,3.95,6.37,7.8,13.04,11.5,20.04,8.48-1.11,16.65-1.67,24.43-1.67,22.57,0,42.12,4.6,57.94,13.71,6.3,3.64,12.01,7.99,17.09,13.07,3.83,3.83,7.25,8.02,10.24,12.55,5.39,8.1,9.46,17.29,12.2,27.48.41,1.5.8,3.02,1.14,4.56,2.55,11.3,3.58,23.73,3.03,37.16-.21,5.72-.71,11.65-1.51,17.73-.25,2.18-.58,4.39-.93,6.62-.34,2.15-.71,4.34-1.15,6.53-.84,4.53-1.84,9.14-2.98,13.83-.65,2.64-1.33,5.3-2.07,7.99-.27,1.02-.56,2.03-.85,3.05h0c-.3,1.06-.6,2.1-.91,3.16-.62,2.04-1.24,4.09-1.91,6.15-.41,1.39-.85,2.76-1.32,4.15-2.24,6.75-4.72,13.53-7.44,20.37-4.9,12.31-10.57,24.73-16.94,37.2-1.1,2.11-2.18,4.26-3.32,6.37-1.11,2.1-2.24,4.17-3.4,6.27-3.84,7.01-7.93,14.03-12.22,21.04-1.22,1.99-2.46,3.98-3.69,5.97-1.25,1.98-2.51,3.93-3.76,5.9-1.26,1.89-2.51,3.82-3.79,5.74-2.14,3.22-4.34,6.45-6.56,9.66-2.2,3.16-4.42,6.31-6.71,9.46-7.51,10.4-15.48,20.75-23.87,30.97-2.37,2.9-4.78,5.77-7.21,8.62-2.4,2.84-4.86,5.7-7.36,8.54-9.84,11.2-20.19,22.25-30.99,33.05-10.8,10.79-21.82,21.14-33.04,30.97-2.83,2.5-5.68,4.97-8.54,7.37-2.87,2.44-5.74,4.84-8.62,7.22-10.23,8.39-20.56,16.35-30.98,23.87-3.13,2.29-6.29,4.52-9.44,6.7-3.21,2.25-6.44,4.43-9.68,6.57-1.91,1.26-3.83,2.53-5.74,3.77-1.96,1.26-3.93,2.53-5.9,3.77-1.99,1.25-3.98,2.47-5.97,3.69-6.99,4.28-14,8.37-21.01,12.22-2.1,1.17-4.2,2.29-6.3,3.4-2.13,1.13-4.24,2.24-6.38,3.32-19.37,9.92-38.62,18.1-57.55,24.36-1.37.47-2.76.92-4.15,1.33-2.06.66-4.12,1.29-6.15,1.89-2.1.62-4.16,1.21-6.22,1.77-7.48,2.06-14.77,3.72-21.82,5.05-2.21.43-4.38.81-6.53,1.15-2.22.36-4.43.66-6.6.93-8.5,1.11-16.64,1.66-24.45,1.66-31.54,0-57.21-8.99-75.01-26.78-8.43-8.41-14.86-18.58-19.31-30.32-6.92-18.17-9.03-40.08-6.3-64.95.15-1.39.32-2.77.49-4.17-6.99-3.69-13.66-7.54-20.03-11.49-1.84,11.13-2.87,21.84-3.06,32.08-.19,9.77.34,19.12,1.63,28,0,0-.01.01,0,.01,3.84,26.66,14.34,49.05,31.36,66.07,21.93,21.93,52.83,33.02,90.25,33.02,11.38,0,23.38-1.02,35.92-3.1,2.2-.36,4.42-.76,6.64-1.18,2.2-.41,4.38-.86,6.6-1.35,7.19-1.56,14.55-3.44,22.06-5.64,2.09-.62,4.19-1.25,6.3-1.91Z"/>
            <path class="cls-7" d="M248.24,323.59c2.4-2.86,4.86-5.71,7.36-8.54,9.84-11.21,20.18-22.24,30.97-33.04,10.8-10.79,21.85-21.14,33.05-30.97-13.11,1.66-25.97,3.72-38.5,6.18-3.27,3.14-6.53,6.34-9.76,9.57-3.24,3.24-6.44,6.51-9.59,9.79-2.66,2.76-5.31,5.56-7.92,8.36-2.64,2.81-5.24,5.67-7.81,8.52-8.98,9.91-17.57,20-25.75,30.18-2.44,3.03-4.84,6.07-7.21,9.11h0c-2.43,3.12-4.82,6.23-7.12,9.36-6.19,8.25-12.09,16.53-17.72,24.87,3.73,7.01,7.7,14.03,11.87,21.04,1.24-1.91,2.5-3.8,3.76-5.72,2.14-3.23,4.32-6.46,6.57-9.66,2.18-3.16,4.41-6.31,6.7-9.46,7.52-10.4,15.48-20.75,23.87-30.98,2.37-2.88,4.78-5.75,7.23-8.62Z"/>
            <path class="cls-7" d="M139.27,529.49c1.92,1.04,3.84,2.06,5.81,3.09,0,0,0,0,0,0h0c.23.12.46.24.69.36,1.35.7,2.71,1.41,4.09,2.1.34.18.7.36,1.06.52,2.28,1.14,4.59,2.24,6.92,3.35.87.41,1.74.82,2.62,1.23,2.24,1.04,4.49,2.07,6.77,3.08.55.24,1.11.48,1.66.72,2.39,1.04,4.8,2.08,7.23,3.08.18.08.37.15.55.23,2.58,1.06,5.19,2.1,7.82,3.13.53.21,1.06.42,1.59.62,2.4.92,4.82,1.83,7.26,2.72.77.28,1.54.57,2.31.84,2.59.93,5.2,1.85,7.84,2.75.2.07.4.14.59.2,2.75.93,5.54,1.84,8.34,2.73.77.24,1.55.49,2.32.73,2.5.78,5.01,1.55,7.55,2.3.24.07.47.14.71.21-.03-.1-.05-.21-.08-.32-.99-3.86-1.92-7.75-2.82-11.67-.92-4.04-1.8-8.1-2.65-12.2-1.29-.41-2.57-.84-3.84-1.26-.64-.22-1.3-.44-1.96-.66-.44-.15-.88-.3-1.32-.45-.53-.18-1.05-.36-1.57-.54-1.95-.67-3.88-1.35-5.81-2.04-.48-.17-.95-.34-1.43-.52-2.1-.76-4.18-1.54-6.25-2.33-.25-.1-.51-.19-.76-.29-2.32-.89-4.62-1.79-6.9-2.71-.06-.02-.12-.05-.18-.08-.23-.09-.45-.19-.67-.28-1.65-.67-3.28-1.34-4.91-2.03-.3-.12-.59-.26-.89-.38-.62-.27-1.25-.53-1.87-.8-.52-.22-1.04-.44-1.56-.67-1.07-.47-2.14-.93-3.2-1.41-.11-.05-.23-.1-.34-.15-.75-.34-1.49-.68-2.23-1.01-.2-.09-.4-.18-.6-.27-1.13-.51-2.25-1.03-3.35-1.55-.15-.07-.31-.15-.46-.22-.81-.38-1.62-.77-2.43-1.16-.06-.03-.12-.06-.18-.09-.08-.03-.16-.07-.25-.11-1.69-.81-3.35-1.63-5-2.46-.86-.43-1.72-.86-2.57-1.3-.44-.22-.87-.44-1.29-.66-.19-.1-.4-.21-.59-.3-.77-.4-1.52-.8-2.26-1.19-.95-.51-1.89-1.02-2.83-1.52,0,0,0,0,0,0-1.92-1.04-3.8-2.08-5.65-3.15-6.73-3.82-13.07-7.78-19.01-11.84,0,0,0,0,0,0h0c-1.84-1.25-3.65-2.51-5.41-3.79-.49-.37-1-.73-1.48-1.11-1-.73-1.96-1.47-2.93-2.21-.3-.23-.61-.45-.91-.68-1.08,3.47-2.07,6.9-3.01,10.3.07-.24.13-.47.19-.71.36-1.3.74-2.62,1.11-3.94.55-1.88,1.11-3.76,1.7-5.66-10.83-8.35-20.08-17.09-27.66-26.13-1.08-1.3-2.14-2.61-3.14-3.93-9.24-11.87-15.62-24.24-18.98-36.91-1.85-6.97-2.8-14.03-2.8-21.14,0-31.39,18.34-61.75,52.58-88.12-2.35-7.56-4.36-14.99-6.05-22.26-44.22,31.68-68.05,69.9-68.05,110.38,0,9.8,1.4,19.48,4.15,28.95h0c4.69,16.2,13.31,31.82,25.65,46.57,1.69,2.03,3.46,4.05,5.3,6.05,6.42,7,13.73,13.81,21.84,20.36,2.8,2.26,5.71,4.5,8.7,6.7.8.59,1.61,1.17,2.42,1.76.11-.47.22-.93.33-1.4.11-.44.22-.88.33-1.33.12-.49.25-1,.37-1.5-.35,1.41-.7,2.83-1.02,4.23h0s.08.06.13.09c1.77,1.28,3.57,2.54,5.41,3.78,1.83,1.24,3.71,2.48,5.61,3.69,6.19,4,12.71,7.87,19.58,11.62ZM110.04,504.13c.08-.31.15-.62.23-.92.03-.12.07-.25.1-.37.04-.12.07-.25.11-.38.09-.34.18-.68.27-1.02-.24.9-.48,1.8-.7,2.7Z"/>
            <g>
              <g>
                <path class="cls-4" d="M160.36,220.65c-39.07,0-70.86-31.79-70.86-70.86s31.79-70.86,70.86-70.86,70.86,31.79,70.86,70.86-31.79,70.86-70.86,70.86Z"/>
                <path class="cls-8" d="M160.36,83.74c36.42,0,66.05,29.63,66.05,66.05s-29.63,66.05-66.05,66.05-66.05-29.63-66.05-66.05,29.63-66.05,66.05-66.05M160.36,74.13c-41.79,0-75.66,33.87-75.66,75.66s33.88,75.66,75.66,75.66,75.66-33.88,75.66-75.66-33.87-75.66-75.66-75.66h0Z"/>
              </g>
              <path class="cls-8" d="M183.85,163.44v-53.64c0-1.67-1.19-3.06-2.79-3.36h-.01c-.19-.04-.41-.05-.62-.05h-31.97c-1.89,0-3.43,1.52-3.43,3.42v19.02c0,2.46-.08,4.86-.23,7.18-.25,3.67-.66,7.11-1.24,10.24-1.88,10.28-5.38,17.2-9.37,17.2h-3.42v17.71h6.85v-10.84h45.47v10.84h6.85v-17.69h-6.09ZM176.99,163.44h-32.34c3.87-6.07,6.01-15.41,6.82-25.05.25-2.84.38-5.7.4-8.51.01-.36.01-.7.01-1.06v-15.59h25.1v50.21Z"/>
            </g>
            <g>
              <g>
                <path class="cls-9" d="M173.68,613.45c-39.07,0-70.86-31.79-70.86-70.86s31.79-70.86,70.86-70.86,70.86,31.79,70.86,70.86-31.79,70.86-70.86,70.86Z"/>
                <path class="cls-8" d="M173.68,476.54c36.42,0,66.05,29.63,66.05,66.05s-29.63,66.05-66.05,66.05-66.05-29.63-66.05-66.05,29.63-66.05,66.05-66.05M173.68,466.93c-41.79,0-75.66,33.87-75.66,75.66s33.87,75.66,75.66,75.66,75.66-33.87,75.66-75.66-33.88-75.66-75.66-75.66h0Z"/>
              </g>
              <path class="cls-8" d="M207.92,571.98l-.81-1.76-1.98-4.23-.84-1.81-2.36-5.05h-.01s-1.14-2.46-1.14-2.46l-.18-.37-12.98-27.82c-.07-.03-.15-.05-.22-.1-1.87-.76-3.71-1.51-5.55-2.29-1.44-.6-2.88-1.22-4.31-1.85h0s11.83,25.38,11.83,25.38h-23.13c5.85,2.57,11.83,5.01,17.94,7.36h8.62l1.81,3.87.54,1.14,3.05,6.55.14.29,2.11,4.53h.01s.16.38.16.38h8.11l-.82-1.76ZM207.92,571.98l-.81-1.76-1.98-4.23-.84-1.81-2.36-5.05h-.01s-1.14-2.46-1.14-2.46l-.18-.37-12.98-27.82h0s-3.91-8.4-3.91-8.4l-4.01-8.59-.85-1.83-1.83-3.93h-6.67l-.54,1.15-2.66,5.7-2.65,5.67-2.31,4.96-2.94,6.27-2.9,6.2-.96,2.06-2.65,5.68-2.66,5.7-1.33,2.84-7,15-3.16,6.77h8.13l1.37-2.94,6.45-13.82h38.25l1.81,3.87.54,1.14,3.05,6.55.14.29,2.11,4.53h.01s.16.38.16.38h8.11l-.82-1.76ZM157.99,549.62l1.43-3.05,2.36-5.07.29-.63h.01l2.55-5.48,2.87-6.14,3.68-7.88,2.51-5.39,3.86,8.25h0s11.83,25.38,11.83,25.38h-31.39ZM207.92,571.98l-.81-1.76-1.98-4.23-.84-1.81-2.36-5.05h-.01s-1.14-2.46-1.14-2.46l-.18-.37-12.98-27.82c-.07-.03-.15-.05-.22-.1-1.87-.76-3.71-1.51-5.55-2.29-1.44-.6-2.88-1.22-4.31-1.85h0s11.83,25.38,11.83,25.38h-23.13c5.85,2.57,11.83,5.01,17.94,7.36h8.62l1.81,3.87.54,1.14,3.05,6.55.14.29,2.11,4.53h.01s.16.38.16.38h8.11l-.82-1.76Z"/>
            </g>
            <g>
              <g>
                <path class="cls-9" d="M701.17,239.98c-39.07,0-70.86-31.79-70.86-70.86s31.79-70.86,70.86-70.86,70.86,31.79,70.86,70.86-31.79,70.86-70.86,70.86Z"/>
                <path class="cls-8" d="M701.17,103.07c36.42,0,66.05,29.63,66.05,66.05s-29.63,66.05-66.05,66.05-66.05-29.63-66.05-66.05,29.63-66.05,66.05-66.05M701.17,93.46c-41.79,0-75.66,33.88-75.66,75.66s33.88,75.66,75.66,75.66,75.66-33.88,75.66-75.66-33.87-75.66-75.66-75.66h0Z"/>
              </g>
              <path class="cls-8" d="M732.85,167.78c.01-.52.03-1.06.03-1.59,0-26.05-8.1-38.17-25.43-38.17h-.03c-2.24,0-4.32.34-6.26.99-2.32.76-4.42,1.92-6.29,3.42-5.46,4.36-8.88,11.43-9.72,18.78-.15,1.21-.22,2.43-.22,3.64,0,3.18.44,5.9,1.22,8.19,1.1,3.21,2.84,5.63,4.94,7.44,1.73,1.51,3.71,2.59,5.77,3.39.05.03.12.04.18.07,1.95.73,3.97,1.21,5.9,1.5,1.02.16,2.02.27,2.96.34,2.28.19,4.31.19,5.83.19h12.24c-.74,4.46-2.02,7.95-3.73,10.66-1.18,1.92-2.59,3.46-4.17,4.68-1.83,1.43-3.88,2.44-6.12,3.16-1.98.64-4.09,1.06-6.29,1.3-1.76.22-3.57.32-5.42.37-.32.01-.63.01-.95.01-.74.03-1.48.03-2.22.03-1.14,0-2.25-.03-3.32-.08-.3-.01-.6-.03-.91-.05-1.92-.1-3.73-.3-5.44-.6-9.81-1.65-16-6.12-18.72-13.51-1.07-2.9-1.61-6.26-1.61-10.06v-17.03h-8.19v17.03c0,5.12.81,9.69,2.4,13.66.25.63.52,1.26.82,1.87.99,2.03,2.2,3.9,3.65,5.57h0c1.52,1.81,3.31,3.4,5.33,4.79,3.83,2.62,8.55,4.49,14.08,5.55,1.13.22,2.28.41,3.47.56.92.11,1.87.21,2.83.27,1,.08,2.02.14,3.06.18.82.03,1.66.04,2.53.04.3,0,.59,0,.89-.01.99-.01,1.96-.03,2.95-.07,2.11-.08,4.23-.23,6.29-.52,4.2-.56,8.22-1.61,11.85-3.45,1.92-.96,3.75-2.15,5.41-3.62,1.52-1.33,2.91-2.9,4.15-4.71,2.72-3.98,4.69-9.2,5.63-16.02h13.97v-8.18h-13.34ZM724.67,167.78h-12.94c-2.83,0-5.27-.14-7.37-.42-2.48-.34-4.47-.92-6.07-1.76-3.24-1.69-4.78-4.49-5.12-8.77v-.05c-.04-.62-.07-1.26-.07-1.94,0-2.33.36-4.71,1.03-6.92v-.03c1.26-4.13,3.62-7.75,6.9-9.83,1.84-1.17,3.95-1.85,6.33-1.87h.07c5.61,0,17.24,0,17.25,29.99,0,.54,0,1.07-.01,1.59Z"/>
            </g>
          </g>
          <rect class="cls-1" width="824.81" height="824.81"/>
        </g>
      </g>
    </g>
  </g>
</svg>