<svg width="230" height="230" viewBox="0 0 230 230" fill="none" xmlns="http://www.w3.org/2000/svg">
<path d="M114.985 223.105C174.698 223.105 223.105 174.698 223.105 114.985C223.105 55.272 174.698 6.86499 114.985 6.86499C55.272 6.86499 6.86499 55.272 6.86499 114.985C6.86499 174.698 55.272 223.105 114.985 223.105Z" stroke="white" stroke-width="13.73" stroke-miterlimit="133.33" stroke-linecap="square"/>
<path d="M117.715 220.555C144.725 194.575 158.235 159.385 158.235 114.985C158.235 70.585 144.705 35.335 117.645 9.34497C116.775 8.50497 113.475 8.26494 112.725 8.97494C85.405 34.9949 71.745 70.335 71.745 114.985C71.745 159.635 84.885 193.605 111.165 219.485C112.415 220.715 116.825 221.415 117.715 220.555Z" stroke="white" stroke-width="13.73" stroke-miterlimit="133.33" stroke-linecap="round"/>
<path d="M217.695 147.425H12.275M217.695 82.5549H12.275" stroke="white" stroke-width="13.73" stroke-miterlimit="133.33" stroke-linecap="round"/>
</svg>
