<svg width="671" height="704" viewBox="0 0 671 704" fill="none" xmlns="http://www.w3.org/2000/svg">
<path fill-rule="evenodd" clip-rule="evenodd" d="M389.96 574.061C425.689 574.061 454.76 603.131 454.76 638.861C454.759 674.59 425.689 703.66 389.96 703.66C354.23 703.66 325.16 674.59 325.16 638.861C325.16 603.131 354.23 574.061 389.96 574.061ZM386.61 595.55V609.101H355.229V617.66H404.42C404.38 627.14 403.42 644.481 391.83 656.141C391.77 656.201 391.69 656.24 391.63 656.29C384.08 649.93 379.38 642.23 377.58 635.97L369.34 638.321C371.38 645.491 376.64 654.19 384.84 661.58C377.2 666.19 367.27 668.521 355.22 668.521V677.08C370.31 677.08 382.5 673.561 391.86 666.941C400.84 672.861 412.29 677.08 426.53 677.08V668.521C415.3 668.521 406.039 665.581 398.639 661.271C411.829 647.231 412.94 628.051 412.96 617.651H426.53V609.09H395.149V595.55H386.61ZM395.149 595.55H395.17L395.149 595.54V595.55Z" fill="white"/>
<path d="M65.0498 0C100.917 9.1041e-05 130.1 29.1831 130.1 65.0508C130.099 100.918 100.917 130.1 65.0498 130.101C29.1822 130.101 0.000206939 100.918 0 65.0508C0 29.1831 29.1821 0 65.0498 0ZM53.1494 21.6602C51.2596 21.6603 49.7199 23.1803 49.7197 25.0801V44.1006C49.7197 46.5605 49.6392 48.9604 49.4893 51.2803C49.2393 54.9503 48.83 58.3905 48.25 61.5205C46.37 71.8003 42.8698 78.7204 38.8799 78.7207H35.46V96.4307H42.3096V85.5908H87.7793V96.4307H94.6299V78.7402H88.54V25.0703C88.54 23.4004 87.3499 22.0101 85.75 21.71H85.7393C85.5495 21.6701 85.3298 21.6602 85.1201 21.6602H53.1494ZM81.6699 78.71H49.3398C53.2097 72.64 55.3502 63.2999 56.1602 53.6602C56.4101 50.8203 56.5396 47.9603 56.5596 45.1504C56.5696 44.7905 56.5693 44.4507 56.5693 44.0908V28.5H81.6699V78.71ZM9.41992 29.4766C9.27661 29.6999 9.13484 29.9243 8.99414 30.1494L8.57617 30.8271C8.85226 30.3731 9.13322 29.9224 9.41992 29.4756V29.4766Z" fill="white"/>
<path d="M82.2399 439.5L82.2477 439.519L82.2302 439.511L94.0544 464.88H62.6843L64.11 461.84L66.4694 456.771L66.7595 456.141H66.7692L69.32 450.66L75.8698 436.641L78.3796 431.25L82.2399 439.5Z" fill="white"/>
<path fill-rule="evenodd" clip-rule="evenodd" d="M78.3698 392.811C114.237 392.811 143.42 421.993 143.42 457.861C143.42 493.728 114.237 522.91 78.3698 522.91C42.5022 522.91 13.3201 493.728 13.32 457.861C13.32 421.993 42.5021 392.811 78.3698 392.811ZM74.4997 422.151L69.1901 433.521L66.8796 438.481L61.0397 450.95L54.7692 464.391L53.4401 467.231L43.28 489H51.4099L59.2292 472.24H88.8444C88.8529 472.244 88.8614 472.247 88.8698 472.25H97.485L99.2897 476.111L99.8298 477.25L102.88 483.8L103.019 484.09L105.13 488.62H105.134L105.139 488.63H105.143L105.299 489H105.304L105.309 489.011H113.42L112.599 487.25H112.61L111.799 485.49L109.82 481.261L108.98 479.45L106.62 474.401H106.61L105.469 471.941L105.29 471.571L88.4001 435.351L84.3893 426.761L83.5397 424.931L81.7097 421H75.0397L74.4997 422.151Z" fill="white"/>
<path d="M605.86 19.33C641.727 19.3301 670.91 48.5131 670.91 84.3808C670.909 120.248 641.727 149.431 605.86 149.431C569.992 149.431 540.81 120.248 540.81 84.3808C540.81 48.5131 569.992 19.33 605.86 19.33ZM612.1 43.2802C609.86 43.2802 607.779 43.6204 605.839 44.2704C603.519 45.0304 601.419 46.1904 599.549 47.6904C594.089 52.0504 590.67 59.1208 589.83 66.4706C589.68 67.6805 589.61 68.9004 589.61 70.1103C589.61 73.2903 590.05 76.0107 590.83 78.3007C591.93 81.5106 593.67 83.9302 595.77 85.7402C597.5 87.2501 599.48 88.3308 601.539 89.1308C601.589 89.1608 601.66 89.1701 601.72 89.2001C603.67 89.93 605.69 90.4101 607.62 90.7001C608.64 90.8601 609.64 90.97 610.58 91.04C612.859 91.23 614.89 91.2304 616.41 91.2304H628.65C627.91 95.6904 626.629 99.1806 624.919 101.891C623.739 103.81 622.329 105.35 620.749 106.57C618.919 108 616.869 109.01 614.629 109.73C612.649 110.37 610.539 110.79 608.339 111.03C606.579 111.25 604.769 111.35 602.919 111.4C602.6 111.41 602.29 111.41 601.97 111.41C601.23 111.44 600.489 111.44 599.749 111.44C598.61 111.44 597.5 111.41 596.43 111.36C596.13 111.35 595.83 111.33 595.52 111.31C593.6 111.21 591.79 111.011 590.08 110.711C580.27 109.061 574.08 104.59 571.36 97.2001C570.29 94.3002 569.749 90.9404 569.749 87.1406V70.1103H561.56V87.1406C561.56 92.2605 562.369 96.8308 563.959 100.801C564.209 101.431 564.48 102.061 564.78 102.671C565.77 104.701 566.98 106.57 568.43 108.24C569.95 110.05 571.739 111.64 573.759 113.03C577.589 115.65 582.309 117.52 587.839 118.58C588.969 118.8 590.12 118.991 591.31 119.141C592.23 119.251 593.18 119.35 594.14 119.41C595.14 119.49 596.16 119.551 597.2 119.591C598.02 119.621 598.86 119.631 599.73 119.631C600.03 119.631 600.32 119.63 600.62 119.62C601.61 119.61 602.58 119.591 603.57 119.551C605.68 119.471 607.8 119.32 609.86 119.03C614.06 118.47 618.079 117.42 621.709 115.58C623.629 114.62 625.46 113.431 627.12 111.961C628.64 110.631 630.03 109.06 631.27 107.25C633.99 103.27 635.96 98.0502 636.9 91.2304H650.87V83.0507H637.53V83.04C637.54 82.5201 637.56 81.98 637.56 81.4501C637.56 55.4003 629.459 43.2802 612.129 43.2802H612.1ZM670.876 96.0576C670.862 96.1394 670.845 96.2209 670.831 96.3027C670.851 96.1933 670.872 96.0841 670.891 95.9745L670.876 96.0576ZM612.11 51.4501C617.72 51.4501 629.35 51.4506 629.36 81.4404C629.36 81.9803 629.36 82.5103 629.35 83.0302V83.04H616.41C613.58 83.04 611.139 82.9001 609.039 82.6201C606.56 82.2801 604.57 81.7002 602.97 80.8603C599.73 79.1703 598.19 76.3705 597.85 72.0908V72.04C597.81 71.4201 597.78 70.7803 597.78 70.1005C597.78 67.7706 598.14 65.3906 598.81 63.1806V63.1503C600.07 59.0204 602.43 55.4002 605.709 53.3203C607.549 52.1503 609.66 51.4702 612.039 51.4501H612.11ZM550.23 48.8066C550.087 49.0299 549.945 49.2543 549.804 49.4794L549.386 50.1572C549.662 49.7031 549.943 49.2524 550.23 48.8056V48.8066Z" fill="white"/>
</svg>
