<svg width="729" height="729" viewBox="0 0 729 729" fill="none" xmlns="http://www.w3.org/2000/svg">
<path d="M503.39 551.01C499.9 561.87 496.07 572.35 491.94 582.44C491.76 582.86 491.6 583.29 491.42 583.7C491.09 584.5 490.76 585.29 490.43 586.07C489.03 589.42 487.59 592.73 486.09 595.98C484.79 598.88 483.45 601.73 482.07 604.55C481.37 606.03 480.64 607.5 479.91 608.96C479.27 610.25 478.59 611.54 477.93 612.82C485.4 614.78 492.63 616.36 499.64 617.55C501.75 613.31 503.81 608.97 505.82 604.55C507.1 601.72 508.35 598.87 509.58 595.98C510.05 594.87 510.51 593.76 510.98 592.63C515.84 580.94 520.29 568.73 524.32 556.08C525.45 552.57 526.53 549.02 527.59 545.46C520.07 547.37 512.42 549.12 504.67 550.73C504.24 550.83 503.81 550.92 503.38 551L503.39 551.01Z" fill="#6D55CE"/>
<path d="M275.94 653.93C302.31 688.15 332.65 706.49 364.03 706.49C366.08 706.49 368.126 706.41 370.165 706.254C371.995 713.635 374.891 720.595 378.679 726.962C373.837 727.659 368.955 728.01 364.039 728.01C323.54 728.01 285.35 704.19 253.64 659.97C260.94 658.28 268.38 656.25 275.94 653.93Z" fill="#6D55CE"/>
<path d="M516.91 227.9C517.4 230.12 517.87 232.36 518.3 234.58C527.66 244.39 536.66 254.39 545.27 264.52C543.82 254.31 542.11 244.29 540.19 234.41C532.59 232.06 524.83 229.91 516.91 227.9Z" fill="#6D55CE"/>
<path d="M211.12 227.91C203.2 229.9 195.43 232.07 187.84 234.4C185.92 244.28 184.22 254.3 182.76 264.51C191.37 254.39 200.36 244.42 209.72 234.62C210.17 232.37 210.61 230.15 211.12 227.91Z" fill="#6D55CE"/>
<path d="M540.19 493.63C542.11 483.75 543.81 473.7 545.27 463.5C536.66 473.63 527.66 483.62 518.3 493.44C517.87 495.68 517.41 497.91 516.91 500.14C524.83 498.14 532.58 495.98 540.19 493.65V493.63Z" fill="#6D55CE"/>
<path d="M552.13 377.71C552.24 373.15 552.28 368.58 552.28 364.01C552.28 359.44 552.24 354.84 552.13 350.28C544.99 339.7 537.37 329.16 529.29 318.72C530.28 333.6 530.76 348.72 530.76 364C530.76 379.28 530.28 394.4 529.29 409.28C537.37 398.82 544.99 388.29 552.13 377.7V377.71Z" fill="#6D55CE"/>
<path d="M248.12 119.07C248.76 117.78 249.42 116.49 250.08 115.21C242.64 113.23 235.39 111.66 228.37 110.46C217.43 132.39 208.07 156.61 200.42 182.56C208.37 180.54 216.44 178.7 224.63 177.01C231.3 156.3 239.17 136.88 248.11 119.06L248.12 119.07Z" fill="#6D55CE"/>
<path d="M175.9 350.33C175.79 354.89 175.75 359.44 175.75 364.01C175.75 368.58 175.79 373.14 175.9 377.68C183.02 388.28 190.64 398.82 198.74 409.28C197.77 394.39 197.27 379.28 197.27 364.01C197.27 348.74 197.76 333.63 198.74 318.74C190.64 329.17 183.02 339.74 175.9 350.32V350.33Z" fill="#6D55CE"/>
<path d="M200.43 545.47C208.07 571.41 217.44 595.62 228.38 617.56C235.39 616.35 242.64 614.77 250.09 612.83C249.43 611.55 248.77 610.26 248.13 608.97C239.18 591.15 231.32 571.73 224.65 551.02C216.46 549.33 208.39 547.49 200.44 545.47H200.43Z" fill="#6D55CE"/>
<path d="M326.49 30.44C338.7 24.55 351.28 21.52 364.02 21.52C395.41 21.52 425.76 39.87 452.11 74.1C453.46 75.84 454.79 77.61 456.12 79.43C457.41 81.21 458.69 83.03 459.92 84.87C464.01 90.81 467.95 97.15 471.78 103.88C472.85 105.73 473.89 107.61 474.92 109.54C475.95 111.41 476.95 113.3 477.94 115.22C478.6 116.5 479.27 117.79 479.92 119.08C488.87 136.9 496.72 156.32 503.39 177.03C511.58 178.72 519.67 180.56 527.6 182.57C519.96 156.62 510.59 132.41 499.66 110.47C499.51 110.11 499.32 109.76 499.14 109.41C498.34 107.79 497.52 106.2 496.68 104.62C495.66 102.64 494.63 100.71 493.61 98.81C489.86 91.93 485.98 85.41 481.98 79.22C480.76 77.31 479.52 75.45 478.29 73.61C477 71.73 475.71 69.88 474.42 68.07C442.73 23.85 404.5 0 364.02 0C346.31 0 329.03 4.55999 312.55 13.4C291.36 24.76 271.47 43.19 253.63 68.06C260.93 69.75 268.37 71.77 275.93 74.1C291.59 53.78 308.64 39.05 326.49 30.44Z" fill="#6D55CE"/>
<path d="M704.83 296.95C697.21 286.42 687.77 276.29 676.58 266.66C674.3 264.68 671.93 262.73 669.5 260.81C666.44 258.38 663.27 255.99 659.97 253.63C659.3 256.55 658.56 259.5 657.79 262.48C657.06 265.2 656.31 267.93 655.5 270.69C654.99 272.42 654.47 274.16 653.94 275.92C666.72 285.78 677.29 296.17 685.51 306.97C699.3 325.09 706.51 344.34 706.51 364.01C706.51 395.4 688.17 425.73 653.94 452.1C656.27 459.66 658.29 467.09 659.98 474.39C704.2 442.7 728.03 404.49 728.03 364.01C728.03 340.63 720.08 318 704.83 296.95Z" fill="#6D55CE"/>
<path d="M376.68 120.01C383.68 124.21 390.72 128.62 397.71 133.21C417.08 123.29 436.36 115.09 455.28 108.83C456.66 108.39 458.05 107.94 459.41 107.51C455.51 100.84 451.52 94.59 447.41 88.78C424.16 96.55 400.44 107.06 376.69 120L376.68 120.01Z" fill="#6D55CE"/>
<path d="M207.78 287.69C210.18 284.83 212.64 281.98 215.14 279.15C224.98 267.94 235.32 256.91 246.11 246.11C256.91 235.32 267.96 224.97 279.16 215.14C266.05 216.8 253.19 218.86 240.66 221.32C237.39 224.46 234.13 227.66 230.9 230.89C227.66 234.13 224.46 237.4 221.31 240.68C218.65 243.44 216 246.24 213.39 249.04C210.75 251.85 208.15 254.71 205.58 257.56C196.6 267.47 188.01 277.56 179.83 287.74C177.39 290.77 174.99 293.81 172.62 296.85C170.19 299.97 167.8 303.08 165.5 306.21C159.31 314.46 153.41 322.74 147.78 331.08C151.51 338.09 155.48 345.11 159.65 352.12C160.89 350.21 162.15 348.32 163.41 346.4C165.55 343.17 167.73 339.94 169.98 336.74C172.16 333.58 174.39 330.43 176.68 327.28C184.2 316.88 192.16 306.53 200.55 296.3C202.92 293.42 205.33 290.55 207.78 287.68V287.69Z" fill="#6D55CE"/>
<path d="M352.14 159.64C345.13 155.45 338.11 151.49 331.1 147.77C322.77 153.4 314.44 159.31 306.19 165.5C319.44 164.42 332.86 163.74 346.41 163.41C348.33 162.12 350.25 160.87 352.15 159.64H352.14Z" fill="#6D55CE"/>
<path d="M318.73 529.27C329.19 537.37 339.72 544.99 350.31 552.12C354.87 552.23 359.44 552.27 364.02 552.27C368.6 552.27 373.17 552.23 377.73 552.12C388.33 544.98 398.85 537.36 409.31 529.27C394.42 530.26 379.31 530.75 364.02 530.75C348.73 530.75 333.63 530.26 318.73 529.27Z" fill="#6D55CE"/>
<path d="M585.09 237.18C593.34 240.63 601.31 244.28 608.97 248.13C610.29 248.79 611.58 249.43 612.84 250.12C614.23 244.82 615.43 239.63 616.44 234.57C616.85 232.48 617.24 230.41 617.58 228.37C617.2 228.18 616.83 228 616.44 227.81C607.29 223.29 597.75 219.04 587.85 215.07C574.36 209.66 560.21 204.78 545.49 200.44C543.17 199.74 540.84 199.08 538.5 198.45C536.19 197.78 533.86 197.15 531.51 196.53C523.67 194.44 515.71 192.52 507.6 190.74C505.29 190.22 502.97 189.74 500.63 189.26C498.31 188.78 495.98 188.31 493.66 187.86H493.63C483.77 185.94 473.73 184.24 463.54 182.78C473.66 191.39 483.65 200.39 493.45 209.75C495.7 210.19 497.94 210.66 500.15 211.14C502.44 211.62 504.72 212.13 506.97 212.65C509.28 213.14 511.55 213.69 513.81 214.24C521.8 216.15 529.64 218.22 537.31 220.46C539.6 221.13 541.89 221.81 544.17 222.51C546.48 223.21 548.77 223.94 551.02 224.66C562.81 228.46 574.19 232.63 585.09 237.19V237.18Z" fill="#6D55CE"/>
<path d="M538.5 529.59C540.83 528.96 543.17 528.3 545.49 527.6C571.43 519.96 595.64 510.61 617.58 499.65C616.4 492.64 614.81 485.39 612.84 477.91C611.58 478.6 610.29 479.24 608.97 479.9C591.17 488.85 571.75 496.71 551.02 503.38C548.77 504.11 546.48 504.83 544.17 505.53C541.89 506.22 539.6 506.9 537.31 507.56C529.64 509.81 521.8 511.88 513.81 513.79C511.56 514.34 509.28 514.89 506.97 515.38C504.72 515.9 502.44 516.41 500.15 516.89C497.93 517.37 495.68 517.84 493.44 518.28C483.63 527.64 473.66 536.64 463.52 545.25C473.72 543.8 483.75 542.09 493.63 540.17H493.66C495.98 539.72 498.31 539.25 500.63 538.77C502.96 538.29 505.3 537.79 507.59 537.29C515.69 535.51 523.68 533.58 531.51 531.5C533.86 530.88 536.19 530.25 538.5 529.58V529.59Z" fill="#6D55CE"/>
<path d="M74.8353 175.908C81.0557 180.436 87.9835 184.051 95.4213 186.556C94.7015 197.378 95.1374 208.977 96.7357 221.28C96.9957 223.45 97.3054 225.66 97.6654 227.9C98.0054 230.05 98.3958 232.22 98.8158 234.43C100.116 241.48 101.806 248.771 103.866 256.25C104.436 258.31 105.026 260.4 105.626 262.47C106.246 264.52 106.876 266.56 107.536 268.62C107.956 269.99 108.416 271.36 108.866 272.75C115.126 291.67 123.316 310.95 133.226 330.33C134.316 332.46 135.416 334.59 136.556 336.7C137.656 338.8 138.776 340.89 139.946 342.99C143.796 349.99 147.885 357 152.165 364C153.385 365.99 154.606 367.98 155.886 369.97C157.126 371.94 158.366 373.9 159.646 375.88C160.886 377.79 162.146 379.68 163.406 381.6V381.62C165.546 384.84 167.726 388.06 169.976 391.27C172.156 394.43 174.386 397.59 176.676 400.73C184.196 411.14 192.156 421.49 200.546 431.7C202.916 434.59 205.316 437.46 207.776 440.33C210.186 443.19 212.636 446.03 215.136 448.87C224.986 460.09 235.316 471.11 246.106 481.91C256.906 492.7 267.956 503.05 279.156 512.88C281.996 515.39 284.856 517.851 287.696 520.25C290.556 522.69 293.436 525.1 296.316 527.47C306.556 535.86 316.876 543.82 327.296 551.34C330.446 553.63 333.596 555.86 336.756 558.04C339.966 560.289 343.186 562.47 346.415 564.61C348.335 565.87 350.266 567.13 352.156 568.37C345.136 572.57 338.135 576.51 331.125 580.24C322.786 574.63 314.466 568.71 306.216 562.52C303.076 560.2 299.956 557.83 296.856 555.4C293.776 553.03 290.746 550.63 287.726 548.19C277.526 540.01 267.456 531.4 257.516 522.44C254.686 519.88 251.866 517.3 249.056 514.66C246.226 512.06 243.446 509.41 240.656 506.69C237.386 503.56 234.116 500.37 230.896 497.14C227.656 493.9 224.466 490.63 221.306 487.35C218.646 484.58 215.996 481.79 213.386 478.99C210.746 476.18 208.146 473.33 205.576 470.47C196.596 460.54 188.006 450.45 179.826 440.27C177.366 437.25 174.966 434.21 172.616 431.16C170.186 428.05 167.805 424.94 165.495 421.81V421.8C159.316 413.55 153.415 405.25 147.786 396.92C146.446 394.94 145.146 392.97 143.856 390.99C142.536 389 141.245 387.01 139.955 385.01C135.495 378.04 131.216 371.02 127.136 364.01C125.946 361.91 124.736 359.81 123.556 357.74C122.376 355.6 121.186 353.48 120.046 351.37C107.116 327.61 96.5958 303.88 88.8158 280.63C88.6958 280.26 88.5759 279.9 88.4359 279.52C87.8659 277.8 87.3055 276.09 86.7855 274.37C86.1156 272.29 85.4855 270.19 84.8656 268.1C82.6656 260.6 80.7757 253.23 79.2357 246.04C78.7258 243.83 78.2861 241.63 77.8861 239.45L77.8959 239.39C77.4459 237.15 77.0562 234.93 76.7162 232.72C73.3349 212.267 72.7243 193.227 74.8353 175.908Z" fill="#6D55CE"/>
<path d="M196.886 73.52C208.296 73.52 220.266 74.5496 232.806 76.6196C234.986 76.9896 237.206 77.3701 239.446 77.8101C241.636 78.2301 243.826 78.6697 246.046 79.1597C253.236 80.6997 260.606 82.5803 268.126 84.8003C270.196 85.3903 272.296 86.0405 274.396 86.7104C276.096 87.2304 277.796 87.7799 279.526 88.3599C279.896 88.4799 280.256 88.61 280.636 88.73C303.866 96.5 327.596 107.02 351.346 119.96C353.466 121.11 355.586 122.29 357.726 123.47C359.826 124.67 361.896 125.86 363.995 127.07C371.005 131.13 378.026 135.43 384.995 139.89C386.985 141.18 389.006 142.47 390.995 143.77C392.975 145.07 394.935 146.38 396.915 147.71C405.255 153.33 413.576 159.25 421.826 165.44C424.966 167.77 428.066 170.13 431.186 172.56C434.236 174.92 437.286 177.33 440.316 179.77C450.496 187.96 460.576 196.56 470.495 205.52C473.345 208.08 476.166 210.66 478.976 213.3C481.786 215.92 484.576 218.561 487.346 221.25C490.626 224.39 493.896 227.6 497.116 230.83C500.365 234.069 503.546 237.34 506.705 240.62C509.375 243.38 512.016 246.18 514.636 248.98C517.266 251.79 519.866 254.64 522.415 257.49C531.405 267.4 539.995 277.47 548.165 287.67C550.615 290.69 553.026 293.75 555.396 296.8C557.806 299.9 560.166 303 562.495 306.12C568.685 314.37 574.586 322.67 580.216 331.02C576.496 338.04 572.526 345.05 568.346 352.08C567.106 350.17 565.866 348.26 564.586 346.34C562.446 343.11 560.246 339.88 558.026 336.68C555.826 333.53 553.606 330.37 551.316 327.23C543.806 316.82 535.836 306.48 527.446 296.25C525.076 293.37 522.675 290.5 520.245 287.65C517.846 284.8 515.396 281.96 512.896 279.12C503.056 267.93 492.706 256.88 481.906 246.08C471.106 235.29 460.085 224.94 448.875 215.11C446.045 212.61 443.205 210.16 440.366 207.74C437.506 205.29 434.626 202.89 431.726 200.52C421.516 192.13 411.186 184.17 400.786 176.65C397.626 174.37 394.476 172.13 391.316 169.95C388.106 167.7 384.876 165.52 381.656 163.38C379.736 162.09 377.805 160.85 375.915 159.61C373.936 158.34 371.966 157.08 369.986 155.84C367.996 154.59 366.006 153.35 364.016 152.13C357.036 147.83 350.016 143.77 343.006 139.91C340.906 138.76 338.836 137.64 336.736 136.51C334.596 135.4 332.476 134.29 330.336 133.19C310.966 123.26 291.696 115.07 272.766 108.81C271.386 108.34 270.006 107.92 268.616 107.49C266.556 106.82 264.506 106.2 262.466 105.6C260.386 104.98 258.305 104.39 256.245 103.83C248.776 101.79 241.506 100.1 234.436 98.7798C232.236 98.3698 230.046 97.9704 227.896 97.6304C225.676 97.2804 223.466 96.9697 221.296 96.6997C212.816 95.5897 204.666 95.0298 196.856 95.0298C195.98 95.0298 195.104 95.0373 194.232 95.0513C192.321 87.4897 189.287 80.3754 185.317 73.896C189.1 73.646 192.951 73.52 196.886 73.52Z" fill="#6D55CE"/>
<path d="M377.73 175.91C373.17 175.8 368.6 175.76 364.02 175.76C359.44 175.76 354.87 175.8 350.31 175.91C346.45 175.96 342.6 176.07 338.75 176.21C334.92 176.33 331.08 176.5 327.26 176.69C313.89 177.38 300.67 178.42 287.69 179.83C283.83 180.24 280 180.69 276.17 181.18H276.16C272.25 181.67 268.38 182.2 264.51 182.77C254.33 184.22 244.28 185.93 234.41 187.85H234.4C232.07 188.3 229.73 188.77 227.43 189.25C225.08 189.73 222.75 190.21 220.43 190.76C212.33 192.52 204.36 194.45 196.52 196.52C194.2 197.14 191.87 197.78 189.55 198.44C187.2 199.07 184.87 199.76 182.56 200.46C156.62 208.08 132.41 217.42 110.47 228.36C111.66 235.37 113.23 242.61 115.21 250.09C116.49 249.43 117.78 248.77 119.07 248.13C136.89 239.18 156.31 231.34 177.02 224.65C179.3 223.92 181.58 223.2 183.88 222.5C186.14 221.8 188.44 221.13 190.73 220.45C198.42 218.21 206.25 216.14 214.23 214.23C216.51 213.68 218.79 213.13 221.08 212.64C223.34 212.1 225.62 211.6 227.92 211.13C230.14 210.62 232.37 210.18 234.6 209.74C238.43 208.96 242.26 208.22 246.14 207.52C249.9 206.85 253.7 206.2 257.52 205.58C270.2 203.52 283.15 201.85 296.32 200.56C300.04 200.19 303.77 199.86 307.52 199.56C311.25 199.26 314.99 198.98 318.73 198.75C333.64 197.78 348.75 197.28 364.02 197.28C379.29 197.28 394.42 197.77 409.31 198.75C398.85 190.67 388.32 183.05 377.73 175.91Z" fill="#6D55CE"/>
<path d="M608.021 376.65C620.951 400.41 631.471 424.16 639.221 447.41C639.371 447.76 639.481 448.13 639.601 448.49C640.181 450.22 640.73 451.941 641.25 453.641C641.93 455.74 642.55 457.841 643.17 459.931C645.38 467.42 647.26 474.781 648.8 481.971C649.29 484.2 649.741 486.39 650.151 488.59L650.111 488.6C650.561 490.84 650.96 493.051 651.29 495.261C660.17 548.93 650 592.801 621.38 621.431C606.72 636.08 588.07 645.89 566.151 650.79C561.951 651.72 557.631 652.49 553.181 653.07C546.131 653.99 538.771 654.46 531.141 654.46H531.13C526.95 654.46 522.69 654.32 518.34 654.03H518.33C516.838 653.937 515.338 653.827 513.829 653.7C509.248 644.417 502.85 636.19 495.097 629.487C496.791 629.802 498.466 630.097 500.141 630.36C501.511 630.58 502.861 630.77 504.191 630.95C504.341 630.97 504.491 630.99 504.641 631C505.351 631.11 506.05 631.19 506.75 631.29C508.98 631.58 511.211 631.84 513.391 632.03C513.771 632.08 514.16 632.11 514.54 632.15C520.26 632.69 525.8 632.95 531.17 632.95C536.98 632.95 542.581 632.65 547.971 632.03C555.921 631.14 563.411 629.59 570.401 627.38C584.461 622.96 596.501 615.87 606.2 606.17C628.39 583.99 636.87 549.58 631.3 506.73C631.06 504.54 630.73 502.33 630.37 500.11C630.03 497.96 629.661 495.78 629.221 493.58C627.901 486.5 626.22 479.23 624.17 471.761C623.6 469.711 623.01 467.65 622.41 465.56C621.79 463.51 621.17 461.47 620.5 459.41C620.09 458.02 619.651 456.65 619.181 455.261C612.921 436.351 604.71 417.07 594.8 397.69C599.41 390.69 603.811 383.68 608.021 376.65Z" fill="#6D55CE"/>
<path d="M397.71 594.81C405.72 598.91 413.71 602.71 421.67 606.2C422.55 606.6 423.441 606.99 424.321 607.37C427.644 608.8 430.962 610.176 434.272 611.498C423.513 612.973 413.464 616.673 404.604 622.119C395.32 617.823 386.003 613.116 376.68 608.03C383.71 603.81 390.72 599.41 397.71 594.81Z" fill="#6D55CE"/>
<path d="M632.951 204.612C639.631 207.232 646.767 208.941 654.207 209.588C654.114 211.134 653.997 212.695 653.865 214.25V214.28C653.605 217.2 653.285 220.14 652.905 223.13V223.18C652.515 226.349 652.056 229.55 651.516 232.79C651.306 234.14 651.085 235.47 650.825 236.83C650.675 237.69 650.516 238.57 650.336 239.45C649.936 241.64 649.465 243.83 648.985 246.05C647.895 251.21 646.596 256.46 645.146 261.79C644.586 263.89 643.985 265.99 643.365 268.099C643.215 268.619 643.065 269.13 642.915 269.65C642.435 271.21 641.965 272.81 641.445 274.37C640.925 276.09 640.376 277.8 639.796 279.519C639.676 279.889 639.555 280.26 639.415 280.62C636.755 288.61 633.765 296.67 630.455 304.75C624.155 320.2 616.696 335.79 608.216 351.38C607.046 353.5 605.876 355.61 604.686 357.75C603.516 359.82 602.306 361.92 601.086 364.019C597.026 371.029 592.756 378.049 588.266 385.019C586.986 387.019 585.696 389 584.396 390.99C583.106 392.98 581.775 394.95 580.445 396.93C574.815 405.289 568.916 413.58 562.726 421.84C560.386 424.95 558.025 428.07 555.625 431.17C553.255 434.22 550.855 437.28 548.396 440.3C540.206 450.48 531.605 460.59 522.646 470.51C520.086 473.34 517.485 476.18 514.865 478.97C512.275 481.77 509.626 484.56 506.936 487.32C503.806 490.62 500.575 493.91 497.325 497.15C494.105 500.38 490.835 503.59 487.556 506.729C484.776 509.419 481.995 512.06 479.186 514.68C476.376 517.309 473.535 519.91 470.705 522.46C460.765 531.44 450.695 540.03 440.495 548.21C437.475 550.67 434.445 553.07 431.396 555.42C428.296 557.85 425.165 560.22 422.035 562.54C413.775 568.73 405.455 574.65 397.125 580.26C395.145 581.61 393.175 582.91 391.195 584.2C389.205 585.53 387.216 586.82 385.226 588.08C378.256 592.55 371.236 596.82 364.226 600.9C362.126 602.12 360.035 603.31 357.936 604.48C355.806 605.69 353.675 606.87 351.565 608.02C327.806 620.96 304.075 631.48 280.825 639.22C280.475 639.369 280.105 639.459 279.745 639.599C278.015 640.159 276.315 640.73 274.615 641.26H274.575C272.465 641.92 270.365 642.55 268.275 643.17C260.766 645.37 253.406 647.249 246.216 648.809C243.996 649.299 241.815 649.75 239.615 650.16C237.395 650.58 235.175 650.98 232.976 651.34C220.436 653.42 208.436 654.44 197.056 654.44C159.636 654.44 128.736 643.35 106.806 621.42C90.2298 604.844 79.839 583.174 75.7607 557.428C83.2789 565.937 92.6574 572.764 103.261 577.271C107.685 588.421 113.933 598.117 122.025 606.19C139.825 623.98 165.495 632.969 197.035 632.97C204.845 632.97 212.985 632.419 221.485 631.309C223.655 631.039 225.866 630.74 228.086 630.38C230.236 630.04 232.406 629.66 234.615 629.23C241.665 627.9 248.956 626.239 256.436 624.18C258.495 623.62 260.555 623.03 262.655 622.41C264.685 621.81 266.746 621.18 268.806 620.52C270.195 620.11 271.585 619.66 272.955 619.19C291.885 612.93 311.136 604.75 330.506 594.83C332.646 593.75 334.756 592.64 336.886 591.51C338.986 590.4 341.086 589.28 343.186 588.11C350.196 584.26 357.205 580.169 364.195 575.889C366.185 574.67 368.175 573.45 370.165 572.2C372.135 570.96 374.105 569.689 376.065 568.43C377.975 567.19 379.896 565.92 381.806 564.66C385.046 562.52 388.275 560.34 391.485 558.09C394.635 555.91 397.796 553.679 400.926 551.389C411.346 543.87 421.675 535.909 431.905 527.519C434.785 525.139 437.655 522.74 440.525 520.3C443.385 517.9 446.235 515.429 449.065 512.93C460.285 503.1 471.306 492.75 482.105 481.96C492.905 471.16 503.256 460.11 513.096 448.91C515.596 446.07 518.055 443.21 520.455 440.37C522.885 437.52 525.295 434.65 527.665 431.75C536.055 421.53 544.025 411.18 551.535 400.78C553.825 397.63 556.045 394.48 558.245 391.32C560.465 388.11 562.666 384.88 564.806 381.66C566.086 379.74 567.336 377.81 568.596 375.92C569.846 373.95 571.106 371.999 572.355 370.019C573.585 368.029 574.826 366.04 576.046 364.05C580.336 357.04 584.426 350.019 588.266 343.01C589.426 340.91 590.555 338.84 591.665 336.74C592.805 334.63 593.885 332.48 594.985 330.37C601.355 317.9 607.026 305.48 611.926 293.17C614.646 286.33 617.125 279.55 619.365 272.8C619.835 271.41 620.276 270.04 620.686 268.65C621.356 266.59 621.976 264.54 622.596 262.5C622.906 261.44 623.206 260.4 623.506 259.34C623.796 258.32 624.085 257.31 624.355 256.29C625.095 253.6 625.776 250.94 626.426 248.3C627.566 243.61 628.565 238.999 629.405 234.47C629.845 232.28 630.216 230.09 630.556 227.94C630.906 225.71 631.235 223.5 631.485 221.32C632.238 215.602 632.721 210.015 632.951 204.612Z" fill="#6D55CE"/>
<path d="M209.658 512.683C211.175 513.069 212.701 513.438 214.221 513.8C216.501 514.35 218.78 514.9 221.07 515.39C223.34 515.92 225.62 516.43 227.91 516.9C230.13 517.38 232.351 517.85 234.591 518.29C244.401 527.65 254.391 536.651 264.511 545.261C254.331 543.801 244.28 542.1 234.41 540.18H234.4C232.07 539.731 229.741 539.26 227.431 538.78C225.081 538.3 222.76 537.8 220.44 537.27C215.237 536.153 210.095 534.945 205.006 533.676C207.492 527.064 209.091 520.019 209.658 512.683Z" fill="#6D55CE"/>
<path d="M68.0508 253.67C69.7408 260.94 71.7506 268.37 74.1006 275.93C39.8608 302.3 21.5207 332.66 21.5205 364.05C21.5205 371.16 22.4703 378.22 24.3203 385.19C27.6803 397.86 34.0608 410.23 43.3008 422.1C44.3007 423.42 45.3605 424.73 46.4404 426.03C54.0204 435.07 63.2706 443.81 74.1006 452.16C73.5106 454.06 72.9504 455.94 72.4004 457.82C72.0687 459.003 71.7294 460.187 71.4033 461.355C68.927 464.727 66.7207 468.309 64.8145 472.069C62.1143 470.066 59.4818 468.032 56.9404 465.98C48.8305 459.43 41.5206 452.62 35.1006 445.62C33.2607 443.62 31.4907 441.6 29.8008 439.57C17.4608 424.82 8.84039 409.2 4.15039 393C1.40043 383.53 0 373.85 0 364.05C0.000179666 323.57 23.8309 285.35 68.0508 253.67Z" fill="#6D55CE"/>
<path d="M75.0205 452.85C75.7205 453.384 76.4157 453.918 77.124 454.448C75.0919 456.63 73.1861 458.93 71.417 461.338C72.263 458.309 73.1502 455.255 74.1104 452.17C74.4104 452.4 74.7205 452.62 75.0205 452.85Z" fill="#6D55CE"/>
<path d="M120.03 376.66C124.22 383.68 128.621 390.7 133.221 397.67C127.404 409.043 122.187 420.378 117.614 431.622C107.647 433.684 98.3876 437.68 90.2471 443.202C93.6495 433.401 97.5454 423.513 101.891 413.58C107.241 401.32 113.3 389 120.03 376.66Z" fill="#6D55CE"/>
<path d="M531.355 73.5897C556.967 73.5897 579.505 78.7867 598.225 89.1043C594.107 94.9453 590.787 101.387 588.418 108.272C572.755 99.4929 553.51 95.0594 531.355 95.0594C523.576 95.0594 515.406 95.6193 506.926 96.7293C503.226 89.7296 499.376 83.06 495.426 76.6902C507.956 74.6203 519.946 73.5897 531.355 73.5897Z" fill="#6D55CE"/>
</svg>
