<svg xmlns="http://www.w3.org/2000/svg" xmlns:xlink="http://www.w3.org/1999/xlink" width="500" zoomAndPan="magnify" viewBox="0 0 375 374.999991" height="500" preserveAspectRatio="xMidYMid meet" version="1.2"><defs><clipPath id="95e4b72b9c"><path d="M 197.910156 171.269531 L 237.464844 171.269531 L 237.464844 240 L 197.910156 240 Z M 197.910156 171.269531 "/></clipPath><clipPath id="15d3157beb"><path d="M 197.945312 221.546875 C 204.363281 202.761719 205.402344 200.402344 207.101562 197.148438 C 209.226562 193.136719 212.71875 187.425781 215.125 183.980469 C 216.824219 181.574219 218.289062 179.828125 219.84375 178.175781 C 221.117188 176.804688 222.15625 175.769531 223.667969 174.683594 C 225.460938 173.457031 228.339844 171.851562 229.992188 171.472656 C 230.984375 171.238281 231.738281 171.285156 232.539062 171.566406 C 233.296875 171.851562 234.003906 172.558594 234.617188 173.171875 C 235.183594 173.738281 235.703125 174.257812 236.078125 175.058594 C 236.644531 176.238281 237.070312 178.222656 237.257812 179.828125 C 237.402344 181.476562 237.257812 183.175781 237.117188 184.875 C 236.929688 186.667969 236.597656 188.320312 236.125 190.257812 C 235.609375 192.523438 234.804688 195.023438 233.910156 197.523438 C 232.917969 200.402344 231.925781 203.234375 230.273438 206.585938 C 228.054688 211.070312 223.902344 217.816406 221.261719 221.734375 C 219.46875 224.378906 218.097656 225.652344 216.351562 228.105469 C 214.085938 231.269531 210.546875 237.875 208.894531 239.292969 C 208.375 239.761719 208.046875 239.90625 207.574219 239.953125 C 207.101562 240.046875 206.488281 239.953125 206.109375 239.667969 C 205.59375 239.339844 204.929688 238.488281 204.882812 237.828125 C 204.835938 237.167969 205.308594 236.222656 205.78125 235.796875 C 206.109375 235.46875 206.675781 235.28125 207.195312 235.28125 C 207.667969 235.28125 208.234375 235.421875 208.613281 235.703125 C 208.988281 235.988281 209.367188 236.460938 209.507812 236.929688 C 209.652344 237.402344 209.652344 237.96875 209.460938 238.441406 C 209.226562 239.007812 208.472656 239.761719 207.808594 239.90625 C 207.195312 240.09375 206.160156 239.761719 205.6875 239.386719 C 205.261719 239.101562 205.027344 238.535156 204.929688 238.0625 C 204.835938 237.640625 204.882812 237.308594 205.121094 236.601562 C 205.96875 234.335938 211.207031 226.972656 213.710938 223.527344 C 215.410156 221.121094 216.636719 220.128906 218.289062 217.628906 C 220.929688 213.710938 224.941406 207.152344 227.253906 201.960938 C 229.332031 197.289062 230.984375 191.90625 231.832031 187.898438 C 232.445312 185.066406 232.730469 182.28125 232.632812 180.394531 C 232.585938 179.261719 232.539062 178.363281 232.113281 177.703125 C 231.644531 177.042969 230.792969 176.429688 230.085938 176.382812 C 229.378906 176.332031 228.667969 176.851562 227.867188 177.371094 C 226.6875 178.128906 225.273438 179.402344 223.949219 180.722656 C 222.394531 182.28125 220.929688 184.074219 219.371094 186.246094 C 217.296875 189.078125 214.699219 193.183594 212.8125 196.53125 C 211.113281 199.554688 209.839844 201.820312 208.375 205.359375 C 206.347656 210.171875 203.894531 220.789062 202.382812 223.152344 C 201.910156 223.8125 201.628906 224.046875 201.109375 224.234375 C 200.636719 224.425781 199.929688 224.472656 199.457031 224.285156 C 198.984375 224.09375 198.417969 223.621094 198.183594 223.199219 C 197.945312 222.726562 197.945312 221.5 197.945312 221.5 "/></clipPath><clipPath id="6e4cfadfec"><path d="M 188.140625 235.148438 L 209.632812 235.148438 L 209.632812 312.921875 L 188.140625 312.921875 Z M 188.140625 235.148438 "/></clipPath><clipPath id="c99d17d153"><path d="M 209.085938 239.101562 C 204.175781 246.699219 202.570312 249.722656 201.203125 253.117188 C 199.550781 257.226562 197.757812 262.886719 196.625 267.183594 C 195.726562 270.722656 195.257812 273.414062 194.691406 277.046875 C 194.027344 281.484375 193.273438 286.722656 193.085938 292.007812 C 192.847656 297.8125 193.933594 307.816406 193.558594 310.507812 C 193.414062 311.261719 193.367188 311.546875 193.085938 311.921875 C 192.800781 312.300781 192.332031 312.679688 191.8125 312.773438 C 191.246094 312.914062 190.160156 312.726562 189.6875 312.300781 C 189.167969 311.875 188.789062 310.886719 188.839844 310.269531 C 188.933594 309.609375 189.5 308.714844 190.066406 308.429688 C 190.679688 308.101562 191.714844 308.101562 192.28125 308.429688 C 192.847656 308.714844 193.464844 309.609375 193.558594 310.222656 C 193.605469 310.886719 193.179688 311.875 192.707031 312.300781 C 192.378906 312.632812 191.8125 312.820312 191.339844 312.867188 C 190.867188 312.867188 190.253906 312.726562 189.875 312.441406 C 189.5 312.207031 189.167969 311.828125 188.980469 311.261719 C 188.601562 310.320312 188.601562 308.949219 188.460938 307.15625 C 188.273438 303.757812 188.082031 297.71875 188.367188 292.433594 C 188.695312 286.15625 189.875 277.09375 190.726562 272.042969 C 191.246094 269.023438 191.667969 267.511719 192.425781 264.824219 C 193.367188 261.285156 194.738281 256.660156 196.292969 252.789062 C 197.851562 248.964844 199.785156 244.765625 201.628906 241.699219 C 203.136719 239.242188 204.976562 236.175781 206.300781 235.46875 C 206.914062 235.136719 207.480469 235.234375 207.953125 235.375 C 208.472656 235.5625 208.988281 235.988281 209.273438 236.414062 C 209.554688 236.882812 209.601562 237.59375 209.554688 238.0625 C 209.507812 238.441406 209.085938 239.101562 209.085938 239.101562 "/></clipPath><clipPath id="cf9d1bdc95"><path d="M 197.371094 209.925781 L 225.722656 209.925781 L 225.722656 226.570312 L 197.371094 226.570312 Z M 197.371094 209.925781 "/></clipPath><clipPath id="76aba7b219"><path d="M 223.335938 214.703125 C 217.011719 216.070312 211.820312 218.289062 208.566406 220.320312 C 205.59375 222.066406 202.429688 225.699219 200.730469 226.359375 C 200.023438 226.597656 199.550781 226.597656 199.078125 226.453125 C 198.558594 226.265625 198.039062 225.839844 197.757812 225.414062 C 197.472656 224.945312 197.378906 224.234375 197.472656 223.765625 C 197.523438 223.386719 197.570312 223.007812 197.898438 222.726562 C 198.464844 222.300781 200.304688 221.921875 201.015625 222.207031 C 201.484375 222.347656 201.816406 222.867188 201.957031 223.339844 C 202.148438 223.953125 202.097656 225.039062 201.722656 225.558594 C 201.34375 226.078125 200.402344 226.546875 199.738281 226.546875 C 199.078125 226.546875 198.183594 225.980469 197.804688 225.464844 C 197.472656 225.085938 197.378906 224.519531 197.425781 224.046875 C 197.472656 223.527344 197.617188 223.007812 197.992188 222.632812 C 198.417969 222.207031 199.410156 221.78125 200.070312 221.828125 C 200.730469 221.921875 201.582031 222.539062 201.863281 223.101562 C 202.195312 223.71875 202.097656 224.753906 201.816406 225.320312 C 201.628906 225.792969 201.15625 226.171875 200.730469 226.359375 C 200.304688 226.546875 199.21875 226.546875 199.21875 226.5 C 199.21875 226.40625 201.582031 225.558594 201.628906 225.652344 C 201.675781 225.699219 201.0625 226.21875 200.730469 226.359375 C 200.402344 226.5 199.976562 226.546875 199.644531 226.546875 C 199.269531 226.5 198.890625 226.453125 198.558594 226.21875 C 198.136719 225.933594 197.664062 225.414062 197.523438 224.898438 C 197.378906 224.285156 197.472656 223.527344 197.898438 222.726562 C 198.796875 221.214844 202.242188 218.808594 204.175781 217.488281 C 205.640625 216.449219 206.582031 215.976562 208.328125 215.082031 C 211.160156 213.710938 217.203125 210.972656 219.65625 210.3125 C 220.742188 210.03125 221.355469 209.984375 222.15625 209.984375 C 222.914062 209.984375 223.761719 209.890625 224.328125 210.21875 C 224.894531 210.550781 225.507812 211.398438 225.601562 212.011719 C 225.742188 212.53125 225.554688 213.191406 225.226562 213.617188 C 224.847656 214.136719 223.335938 214.703125 223.335938 214.703125 "/></clipPath><clipPath id="e99cb99f47"><path d="M 158.316406 221.75 L 202.367188 221.75 L 202.367188 300.597656 L 158.316406 300.597656 Z M 158.316406 221.75 "/></clipPath><clipPath id="433f6a171a"><path d="M 201.203125 226.171875 C 196.71875 229.617188 193.886719 232.496094 191.667969 235.183594 C 189.167969 238.160156 186.621094 241.699219 184.449219 245.191406 C 182.230469 248.730469 180.578125 252.035156 178.503906 256.328125 C 175.671875 262.132812 171.328125 271.902344 169.347656 277 C 168.261719 279.878906 167.742188 281.292969 167.035156 283.9375 C 166.089844 287.429688 165.523438 293.375 164.4375 296.253906 C 163.777344 297.953125 163.164062 299.511719 162.265625 300.125 C 161.652344 300.597656 160.710938 300.691406 160.097656 300.503906 C 159.484375 300.3125 158.773438 299.464844 158.539062 298.898438 C 158.398438 298.425781 158.445312 297.859375 158.632812 297.386719 C 158.824219 296.960938 159.152344 296.492188 159.578125 296.253906 C 160.144531 295.972656 161.230469 295.925781 161.796875 296.113281 C 162.265625 296.300781 162.691406 296.726562 162.929688 297.152344 C 163.117188 297.574219 163.257812 298.140625 163.164062 298.613281 C 163.023438 299.226562 162.410156 300.125 161.84375 300.40625 C 161.230469 300.691406 160.191406 300.550781 159.625 300.3125 C 159.152344 300.078125 158.824219 299.605469 158.632812 299.132812 C 158.445312 298.707031 158.445312 298.238281 158.539062 297.671875 C 158.726562 296.679688 159.625 295.59375 160.097656 294.035156 C 160.898438 291.628906 161.230469 287.476562 162.078125 284.265625 C 162.882812 281.105469 163.683594 278.558594 165.097656 274.875 C 167.269531 269.257812 171.375 260.105469 174.394531 254.015625 C 176.804688 249.109375 178.832031 245.046875 181.570312 240.894531 C 184.261719 236.789062 187.894531 232.304688 190.585938 229.285156 C 192.519531 227.164062 194.3125 225.414062 195.871094 224.140625 C 197.050781 223.199219 198.136719 222.253906 199.03125 221.972656 C 199.644531 221.78125 200.210938 221.78125 200.730469 222.019531 C 201.203125 222.207031 201.722656 222.632812 201.957031 223.101562 C 202.195312 223.574219 202.289062 224.285156 202.148438 224.800781 C 202.003906 225.273438 201.203125 226.171875 201.203125 226.171875 "/></clipPath><clipPath id="cbbf0206ec"><path d="M 204.386719 232.800781 L 247.953125 232.800781 L 247.953125 255.777344 L 204.386719 255.777344 Z M 204.386719 232.800781 "/></clipPath><clipPath id="673d84b00d"><path d="M 205.449219 237.921875 C 209.792969 234.808594 211.113281 233.863281 213 233.390625 C 215.550781 232.730469 219.984375 232.824219 222.675781 232.921875 C 224.609375 232.96875 226.074219 233.015625 227.679688 233.484375 C 229.285156 234.003906 230.605469 234.808594 232.210938 235.988281 C 234.476562 237.59375 237.164062 240.1875 239.617188 242.785156 C 242.402344 245.757812 247.265625 250.996094 247.832031 252.929688 C 248.019531 253.589844 247.832031 254.015625 247.59375 254.441406 C 247.40625 254.867188 246.980469 255.289062 246.554688 255.480469 C 246.132812 255.714844 245.519531 255.808594 245.046875 255.714844 C 244.480469 255.527344 243.628906 254.867188 243.347656 254.300781 C 243.113281 253.875 243.113281 253.261719 243.207031 252.789062 C 243.300781 252.363281 243.582031 251.84375 244.007812 251.5625 C 244.527344 251.183594 245.566406 250.949219 246.179688 251.136719 C 246.792969 251.324219 247.546875 252.128906 247.738281 252.695312 C 247.925781 253.167969 247.878906 253.734375 247.6875 254.203125 C 247.546875 254.628906 247.171875 255.101562 246.792969 255.382812 C 246.367188 255.621094 245.800781 255.761719 245.328125 255.714844 C 244.808594 255.714844 244.527344 255.574219 243.914062 255.148438 C 242.214844 253.875 238.15625 248.023438 235.609375 245.378906 C 233.71875 243.398438 232.113281 241.699219 230.367188 240.425781 C 228.859375 239.292969 227.632812 238.394531 225.886719 237.875 C 223.855469 237.308594 220.882812 237.546875 218.664062 237.640625 C 216.777344 237.6875 215.125 237.640625 213.425781 238.253906 C 211.585938 238.914062 209.460938 241.132812 208.1875 241.699219 C 207.527344 242.027344 207.054688 242.171875 206.582031 242.171875 C 206.207031 242.121094 205.828125 242.027344 205.496094 241.792969 C 205.121094 241.507812 204.695312 240.894531 204.554688 240.425781 C 204.410156 240.046875 204.410156 239.667969 204.507812 239.292969 C 204.648438 238.820312 205.449219 237.921875 205.449219 237.921875 "/></clipPath><clipPath id="258f1811d5"><path d="M 243.085938 251.007812 L 312.671875 251.007812 L 312.671875 280.773438 L 243.085938 280.773438 Z M 243.085938 251.007812 "/></clipPath><clipPath id="ffe02df19b"><path d="M 247.453125 252.035156 C 252.503906 257.742188 260.527344 265.53125 264.539062 268.503906 C 266.992188 270.296875 268.691406 271.195312 270.910156 272.234375 C 273.269531 273.269531 276.054688 274.167969 278.316406 274.78125 C 280.113281 275.207031 281.246094 275.441406 283.273438 275.628906 C 286.484375 275.914062 291.957031 276.101562 295.78125 275.582031 C 299.179688 275.113281 302.527344 273.835938 305.171875 272.941406 C 307.203125 272.28125 309.183594 270.863281 310.363281 270.863281 C 310.976562 270.863281 311.402344 271.148438 311.777344 271.429688 C 312.15625 271.761719 312.488281 272.234375 312.535156 272.75 C 312.628906 273.367188 312.34375 274.402344 311.96875 274.875 C 311.636719 275.253906 311.117188 275.535156 310.597656 275.582031 C 310.03125 275.628906 308.996094 275.253906 308.523438 274.875 C 308.144531 274.5 307.957031 273.980469 307.910156 273.507812 C 307.863281 273.035156 307.957031 272.421875 308.238281 271.996094 C 308.570312 271.523438 309.464844 270.910156 310.128906 270.863281 C 310.789062 270.863281 311.730469 271.289062 312.109375 271.808594 C 312.535156 272.328125 312.628906 273.414062 312.488281 273.980469 C 312.34375 274.5 312.015625 274.828125 311.542969 275.207031 C 310.882812 275.773438 309.796875 276.195312 308.382812 276.761719 C 305.644531 277.800781 300.640625 279.640625 296.347656 280.253906 C 291.628906 280.917969 284.925781 280.679688 281.246094 280.253906 C 279.074219 280.019531 277.988281 279.59375 276.195312 279.074219 C 273.976562 278.414062 271.097656 277.425781 269.066406 276.574219 C 267.417969 275.867188 266.140625 275.207031 264.726562 274.355469 C 263.261719 273.460938 261.941406 272.515625 260.480469 271.335938 C 258.636719 269.871094 256.796875 268.078125 254.722656 266.144531 C 252.03125 263.644531 247.738281 259.773438 245.753906 257.507812 C 244.621094 256.234375 243.628906 255.195312 243.300781 254.203125 C 243.0625 253.589844 243.113281 253.023438 243.300781 252.550781 C 243.488281 252.035156 243.960938 251.515625 244.386719 251.277344 C 244.859375 251.042969 245.566406 250.949219 246.085938 251.089844 C 246.554688 251.230469 247.453125 252.035156 247.453125 252.035156 "/></clipPath><clipPath id="a45aac61d9"><path d="M 307.503906 221.695312 L 335.625 221.695312 L 335.625 275.832031 L 307.503906 275.832031 Z M 307.503906 221.695312 "/></clipPath><clipPath id="7ad514b1a4"><path d="M 308.332031 271.621094 C 313.902344 265.71875 315.269531 263.785156 316.828125 261.425781 C 318.859375 258.308594 321.453125 254.347656 323.339844 250.335938 C 325.417969 245.945312 327.402344 239.574219 328.53125 236.082031 C 329.195312 234.050781 329.617188 232.824219 329.949219 231.222656 C 330.230469 229.664062 330.089844 228.058594 330.46875 226.5 C 330.84375 224.992188 331.222656 222.585938 332.121094 222.019531 C 332.6875 221.59375 333.773438 221.828125 334.289062 222.066406 C 334.761719 222.300781 335.140625 222.773438 335.328125 223.199219 C 335.519531 223.667969 335.613281 224.234375 335.421875 224.707031 C 335.234375 225.273438 334.574219 226.125 333.960938 226.359375 C 333.347656 226.597656 332.261719 226.40625 331.742188 226.03125 C 331.222656 225.652344 330.75 224.707031 330.796875 224.046875 C 330.796875 223.386719 331.316406 222.488281 331.882812 222.160156 C 332.402344 221.78125 333.488281 221.6875 334.101562 221.972656 C 334.667969 222.207031 335.28125 223.101562 335.46875 223.71875 C 335.613281 224.1875 335.46875 224.753906 335.234375 225.179688 C 335.046875 225.605469 334.148438 226.171875 334.195312 226.265625 C 334.242188 226.3125 335.046875 225.605469 335.28125 225.792969 C 335.707031 226.125 335.140625 228.625 334.761719 230.65625 C 334.054688 234.195312 331.976562 241.132812 330.5625 245.046875 C 329.617188 247.878906 328.910156 249.625 327.683594 252.175781 C 326.078125 255.480469 323.8125 259.632812 321.5 263.078125 C 319.234375 266.523438 315.933594 270.769531 313.902344 272.941406 C 312.769531 274.167969 311.828125 275.113281 310.929688 275.535156 C 310.363281 275.773438 309.75 275.773438 309.277344 275.726562 C 308.898438 275.628906 308.570312 275.441406 308.285156 275.160156 C 307.957031 274.828125 307.53125 274.214844 307.53125 273.695312 C 307.484375 273.035156 308.332031 271.621094 308.332031 271.621094 "/></clipPath><clipPath id="12b5c2e29b"><path d="M 312.105469 196.539062 L 335.699219 196.539062 L 335.699219 227.332031 L 312.105469 227.332031 Z M 312.105469 196.539062 "/></clipPath><clipPath id="5e4bbb0944"><path d="M 331.175781 225.984375 C 319.09375 206.726562 318.480469 205.878906 317.253906 204.601562 C 315.933594 203.140625 313.335938 201.675781 312.675781 200.355469 C 312.25 199.601562 312.203125 198.796875 312.34375 198.183594 C 312.488281 197.714844 312.910156 197.289062 313.289062 197.003906 C 313.714844 196.769531 314.234375 196.582031 314.753906 196.628906 C 315.367188 196.722656 316.261719 197.335938 316.640625 197.808594 C 316.921875 198.230469 317.019531 198.796875 316.921875 199.316406 C 316.78125 199.882812 316.167969 200.78125 315.648438 201.109375 C 315.222656 201.347656 314.609375 201.441406 314.140625 201.300781 C 313.574219 201.160156 312.722656 200.449219 312.394531 199.929688 C 312.15625 199.507812 312.15625 198.894531 312.296875 198.421875 C 312.394531 197.949219 312.722656 197.476562 313.101562 197.148438 C 313.476562 196.863281 314.042969 196.628906 314.515625 196.628906 C 314.988281 196.628906 315.367188 196.722656 315.933594 197.050781 C 317.300781 197.855469 320.085938 200.6875 321.644531 202.433594 C 322.871094 203.847656 323.4375 204.652344 324.757812 206.539062 C 327.304688 210.3125 334.574219 221.214844 335.46875 224.046875 C 335.707031 224.851562 335.753906 225.179688 335.566406 225.699219 C 335.421875 226.171875 335.046875 226.785156 334.574219 227.019531 C 334.007812 227.304688 332.96875 227.398438 332.355469 227.164062 C 331.835938 226.972656 331.175781 225.984375 331.175781 225.984375 "/></clipPath><clipPath id="059f6dc7cc"><path d="M 231.707031 173.738281 L 251.152344 173.738281 L 251.152344 187.210938 L 231.707031 187.210938 Z M 231.707031 173.738281 "/></clipPath><clipPath id="abff73e62b"><path d="M 234.945312 173.878906 C 245.328125 179.164062 249.484375 181.855469 250.566406 183.269531 C 250.992188 183.789062 251.085938 184.167969 251.085938 184.6875 C 251.132812 185.160156 250.945312 185.726562 250.664062 186.101562 C 250.425781 186.480469 249.90625 186.859375 249.484375 187 C 249.011719 187.140625 248.445312 187.1875 247.972656 187 C 247.40625 186.765625 246.652344 185.960938 246.460938 185.347656 C 246.273438 184.875 246.367188 184.308594 246.554688 183.886719 C 246.746094 183.414062 247.074219 182.941406 247.546875 182.703125 C 248.113281 182.46875 249.199219 182.421875 249.765625 182.65625 C 250.238281 182.800781 250.617188 183.269531 250.851562 183.695312 C 251.039062 184.121094 251.179688 184.6875 251.085938 185.160156 C 250.898438 185.773438 250.238281 186.621094 249.71875 186.90625 C 249.246094 187.140625 248.867188 187.234375 248.207031 187.046875 C 246.367188 186.574219 241.742188 182.46875 238.863281 180.769531 C 236.550781 179.449219 233.296875 178.695312 232.351562 177.609375 C 231.878906 177.089844 231.738281 176.570312 231.738281 176.050781 C 231.738281 175.53125 232.066406 174.871094 232.351562 174.492188 C 232.585938 174.164062 232.917969 173.972656 233.296875 173.832031 C 233.765625 173.691406 234.945312 173.878906 234.945312 173.878906 "/></clipPath><clipPath id="ecfd139a05"><path d="M 246.417969 158.082031 L 317 158.082031 L 317 200.683594 L 246.417969 200.683594 Z M 246.417969 158.082031 "/></clipPath><clipPath id="5e67a3a057"><path d="M 246.507812 183.980469 C 253.304688 169.394531 255.144531 167.648438 256.703125 166.046875 C 257.929688 164.820312 259.25 163.6875 260.335938 162.882812 C 261.09375 162.363281 261.46875 162.082031 262.414062 161.65625 C 264.066406 160.902344 267.464844 159.675781 269.683594 159.109375 C 271.570312 158.683594 273.175781 158.496094 274.921875 158.351562 C 276.570312 158.257812 278.082031 158.117188 279.828125 158.398438 C 281.953125 158.777344 284.5 159.769531 286.71875 160.710938 C 288.9375 161.65625 291.0625 162.789062 293.089844 164.109375 C 295.214844 165.480469 297.289062 167.035156 299.179688 168.6875 C 301.019531 170.339844 302.859375 172.226562 304.273438 173.925781 C 305.503906 175.34375 306.351562 176.523438 307.34375 178.128906 C 308.617188 180.109375 309.9375 182.515625 311.117188 185.066406 C 312.535156 187.945312 313.949219 192.472656 315.082031 194.691406 C 315.742188 195.917969 316.59375 196.722656 316.828125 197.476562 C 316.96875 197.902344 317.019531 198.183594 316.921875 198.609375 C 316.828125 199.082031 316.453125 199.695312 316.074219 200.027344 C 315.789062 200.308594 315.460938 200.449219 315.082031 200.496094 C 314.609375 200.589844 313.855469 200.542969 313.429688 200.261719 C 312.863281 199.882812 312.296875 198.796875 312.25 198.183594 C 312.203125 197.664062 312.441406 197.148438 312.722656 196.769531 C 313.054688 196.390625 313.476562 196.015625 313.996094 195.917969 C 314.609375 195.824219 315.648438 196.0625 316.167969 196.4375 C 316.546875 196.722656 316.828125 197.242188 316.921875 197.714844 C 317.019531 198.183594 316.96875 198.796875 316.734375 199.222656 C 316.453125 199.742188 315.554688 200.402344 314.988281 200.542969 C 314.46875 200.640625 313.902344 200.496094 313.476562 200.261719 C 313.054688 200.074219 312.628906 199.648438 312.441406 199.175781 C 312.25 198.609375 312.25 197.523438 312.582031 196.957031 C 312.957031 196.390625 313.855469 195.871094 314.515625 195.824219 C 315.175781 195.824219 316.214844 196.390625 316.59375 196.957031 C 316.96875 197.476562 316.921875 198.609375 316.78125 199.128906 C 316.640625 199.507812 316.402344 199.789062 316.074219 200.027344 C 315.695312 200.308594 314.988281 200.542969 314.515625 200.542969 C 314.089844 200.589844 313.808594 200.496094 313.429688 200.261719 C 312.816406 199.882812 312.109375 199.269531 311.496094 198.277344 C 310.269531 196.390625 309.230469 191.859375 307.816406 188.839844 C 306.398438 185.773438 304.890625 182.707031 302.90625 179.921875 C 300.972656 177.183594 298.46875 174.492188 296.15625 172.371094 C 294.082031 170.480469 292.195312 169.019531 289.738281 167.601562 C 287.003906 165.949219 283.320312 163.96875 280.300781 163.308594 C 277.65625 162.789062 274.875 163.074219 272.65625 163.355469 C 270.863281 163.589844 269.398438 164.109375 267.839844 164.628906 C 266.332031 165.148438 264.726562 165.667969 263.359375 166.566406 C 261.988281 167.414062 260.902344 168.5 259.675781 169.773438 C 258.167969 171.332031 256.515625 173.078125 255.144531 175.390625 C 253.351562 178.363281 251.558594 185.160156 250.378906 186.480469 C 250 186.90625 249.765625 186.953125 249.386719 187.046875 C 248.917969 187.140625 248.160156 187.09375 247.6875 186.90625 C 247.21875 186.667969 246.746094 186.148438 246.554688 185.679688 C 246.367188 185.207031 246.507812 183.980469 246.507812 183.980469 "/></clipPath><clipPath id="7409c59e08"><path d="M 254.6875 168.121094 L 303.386719 168.121094 L 303.386719 192.414062 L 254.6875 192.414062 Z M 254.6875 168.121094 "/></clipPath><clipPath id="6882c874e8"><path d="M 254.722656 186.199219 C 256.84375 181.054688 258.683594 178.222656 260.101562 176.429688 C 261.28125 174.917969 262.367188 173.691406 263.6875 172.558594 C 264.960938 171.472656 266.707031 170.292969 267.9375 169.632812 C 268.738281 169.207031 269.164062 169.019531 270.152344 168.78125 C 271.851562 168.40625 275.15625 168.074219 277.328125 168.265625 C 279.074219 168.40625 280.441406 168.6875 282.140625 169.347656 C 284.125 170.199219 286.625 171.898438 288.417969 173.125 C 289.882812 174.117188 290.777344 174.777344 292.242188 176.097656 C 294.648438 178.269531 299.035156 182.894531 300.925781 185.394531 C 302.011719 186.8125 302.859375 188.085938 303.191406 189.078125 C 303.378906 189.691406 303.472656 190.113281 303.285156 190.585938 C 303.09375 191.152344 302.433594 192.003906 301.773438 192.238281 C 301.160156 192.425781 300.121094 192.285156 299.601562 191.90625 C 299.082031 191.484375 298.660156 190.492188 298.660156 189.878906 C 298.660156 189.40625 298.847656 188.839844 299.179688 188.511719 C 299.601562 188.039062 300.640625 187.613281 301.253906 187.660156 C 301.726562 187.660156 302.292969 187.898438 302.625 188.273438 C 303.046875 188.699219 303.378906 189.738281 303.332031 190.351562 C 303.332031 190.871094 303 191.339844 302.671875 191.671875 C 302.339844 192.003906 301.773438 192.285156 301.300781 192.332031 C 300.828125 192.378906 300.3125 192.332031 299.839844 192.050781 C 298.988281 191.484375 298.375 189.738281 297.289062 188.367188 C 295.6875 186.292969 293.042969 183.222656 290.824219 181.148438 C 288.890625 179.308594 287.003906 177.84375 284.925781 176.476562 C 282.894531 175.152344 280.820312 173.644531 278.554688 173.125 C 276.289062 172.558594 273.363281 172.699219 271.285156 173.3125 C 269.585938 173.832031 268.265625 174.964844 266.992188 176.050781 C 265.71875 177.089844 264.820312 178.175781 263.6875 179.730469 C 261.988281 181.996094 259.628906 187.660156 258.402344 188.699219 C 257.976562 189.078125 257.742188 189.078125 257.316406 189.125 C 256.84375 189.125 256.136719 189.027344 255.710938 188.699219 C 255.289062 188.414062 254.910156 187.800781 254.769531 187.332031 C 254.625 186.953125 254.722656 186.199219 254.722656 186.199219 "/></clipPath><clipPath id="582c514b93"><path d="M 255.84375 182.828125 L 303.417969 182.828125 L 303.417969 192.289062 L 255.84375 192.289062 Z M 255.84375 182.828125 "/></clipPath><clipPath id="ae23ce226d"><path d="M 300.40625 192.285156 C 289.410156 188.886719 286.386719 188.320312 282.566406 187.945312 C 277.5625 187.519531 268.972656 187.707031 265.007812 187.847656 C 263.027344 187.945312 261.375 187.707031 260.574219 188.226562 C 260.054688 188.511719 260.195312 189.21875 259.769531 189.5 C 259.300781 189.878906 258.214844 190.113281 257.648438 190.019531 C 257.128906 189.925781 256.65625 189.546875 256.371094 189.171875 C 256.089844 188.792969 255.855469 188.226562 255.902344 187.707031 C 255.949219 187.140625 256.371094 186.148438 256.9375 185.773438 C 257.457031 185.394531 258.542969 185.347656 259.109375 185.535156 C 259.582031 185.679688 260.007812 186.101562 260.289062 186.480469 C 260.527344 186.90625 260.667969 187.519531 260.621094 187.992188 C 260.527344 188.460938 260.289062 188.980469 259.960938 189.359375 C 259.628906 189.691406 259.109375 189.972656 258.636719 190.066406 C 258.167969 190.113281 257.554688 190.019531 257.128906 189.832031 C 256.75 189.59375 256.324219 189.171875 256.089844 188.699219 C 255.902344 188.273438 255.757812 187.753906 255.949219 187.234375 C 256.277344 186.292969 257.695312 184.875 259.15625 184.167969 C 260.996094 183.222656 263.59375 183.269531 266.613281 183.035156 C 271.144531 182.753906 278.933594 182.753906 283.839844 183.269531 C 287.617188 183.601562 290.542969 184.261719 293.65625 185.066406 C 296.582031 185.867188 300.6875 186.953125 302.152344 187.898438 C 302.765625 188.320312 303.046875 188.699219 303.238281 189.171875 C 303.425781 189.691406 303.425781 190.351562 303.191406 190.871094 C 303 191.339844 302.527344 191.859375 302.105469 192.097656 C 301.632812 192.332031 300.40625 192.285156 300.40625 192.285156 "/></clipPath><clipPath id="55519510be"><path d="M 79.089844 75.046875 L 118.644531 75.046875 L 118.644531 143.886719 L 79.089844 143.886719 Z M 79.089844 75.046875 "/></clipPath><clipPath id="e6a52f19a6"><path d="M 79.128906 125.324219 C 85.546875 106.542969 86.585938 104.183594 88.285156 100.925781 C 90.40625 96.914062 93.898438 91.203125 96.304688 87.757812 C 98.003906 85.351562 99.46875 83.605469 101.027344 81.953125 C 102.300781 80.585938 103.339844 79.546875 104.847656 78.460938 C 106.640625 77.234375 109.519531 75.628906 111.171875 75.253906 C 112.164062 75.015625 112.917969 75.0625 113.722656 75.347656 C 114.476562 75.628906 115.183594 76.339844 115.796875 76.953125 C 116.363281 77.519531 116.882812 78.039062 117.261719 78.839844 C 117.828125 80.019531 118.25 82 118.441406 83.605469 C 118.582031 85.257812 118.441406 86.957031 118.300781 88.65625 C 118.109375 90.449219 117.78125 92.101562 117.308594 94.035156 C 116.789062 96.300781 115.988281 98.800781 115.089844 101.304688 C 114.097656 104.183594 113.109375 107.015625 111.457031 110.367188 C 109.238281 114.847656 105.085938 121.597656 102.441406 125.515625 C 100.648438 128.15625 99.28125 129.433594 97.535156 131.886719 C 95.269531 135.046875 91.726562 141.65625 90.078125 143.070312 C 89.558594 143.542969 89.226562 143.683594 88.753906 143.730469 C 88.285156 143.824219 87.667969 143.730469 87.292969 143.449219 C 86.773438 143.117188 86.113281 142.269531 86.066406 141.609375 C 86.019531 140.945312 86.488281 140.003906 86.960938 139.578125 C 87.292969 139.25 87.859375 139.058594 88.378906 139.058594 C 88.847656 139.058594 89.414062 139.199219 89.792969 139.484375 C 90.171875 139.765625 90.546875 140.238281 90.691406 140.710938 C 90.832031 141.183594 90.832031 141.75 90.644531 142.222656 C 90.40625 142.789062 89.652344 143.542969 88.992188 143.683594 C 88.378906 143.875 87.339844 143.542969 86.867188 143.164062 C 86.441406 142.882812 86.207031 142.316406 86.113281 141.84375 C 86.019531 141.417969 86.066406 141.089844 86.300781 140.382812 C 87.152344 138.117188 92.390625 130.753906 94.890625 127.308594 C 96.589844 124.902344 97.816406 123.910156 99.46875 121.410156 C 102.109375 117.492188 106.121094 110.933594 108.433594 105.742188 C 110.511719 101.066406 112.164062 95.6875 113.011719 91.675781 C 113.625 88.84375 113.910156 86.058594 113.816406 84.171875 C 113.769531 83.039062 113.722656 82.144531 113.296875 81.480469 C 112.824219 80.820312 111.976562 80.207031 111.265625 80.160156 C 110.558594 80.113281 109.851562 80.632812 109.046875 81.152344 C 107.867188 81.90625 106.453125 83.179688 105.132812 84.503906 C 103.574219 86.058594 102.109375 87.855469 100.554688 90.023438 C 98.476562 92.855469 95.882812 96.960938 93.992188 100.3125 C 92.292969 103.332031 91.019531 105.597656 89.558594 109.136719 C 87.527344 113.953125 85.074219 124.570312 83.5625 126.929688 C 83.09375 127.589844 82.808594 127.828125 82.289062 128.015625 C 81.816406 128.203125 81.109375 128.253906 80.636719 128.0625 C 80.164062 127.875 79.597656 127.402344 79.363281 126.976562 C 79.128906 126.503906 79.128906 125.277344 79.128906 125.277344 "/></clipPath><clipPath id="b64203341c"><path d="M 69.320312 139 L 90.816406 139 L 90.816406 216.703125 L 69.320312 216.703125 Z M 69.320312 139 "/></clipPath><clipPath id="254fb8659b"><path d="M 90.265625 142.882812 C 85.355469 150.480469 83.753906 153.5 82.382812 156.898438 C 80.730469 161.003906 78.9375 166.667969 77.804688 170.964844 C 76.910156 174.503906 76.4375 177.191406 75.871094 180.828125 C 75.210938 185.261719 74.457031 190.5 74.265625 195.789062 C 74.03125 201.59375 75.117188 211.597656 74.738281 214.289062 C 74.597656 215.042969 74.550781 215.324219 74.265625 215.703125 C 73.984375 216.082031 73.511719 216.457031 72.992188 216.550781 C 72.425781 216.695312 71.339844 216.503906 70.867188 216.082031 C 70.347656 215.65625 69.972656 214.664062 70.019531 214.050781 C 70.113281 213.390625 70.679688 212.492188 71.246094 212.210938 C 71.859375 211.878906 72.898438 211.878906 73.464844 212.210938 C 74.03125 212.492188 74.644531 213.390625 74.738281 214.003906 C 74.785156 214.664062 74.359375 215.65625 73.890625 216.082031 C 73.558594 216.410156 72.992188 216.601562 72.519531 216.648438 C 72.046875 216.648438 71.433594 216.503906 71.058594 216.222656 C 70.679688 215.988281 70.347656 215.609375 70.160156 215.042969 C 69.78125 214.097656 69.78125 212.730469 69.640625 210.9375 C 69.453125 207.539062 69.265625 201.496094 69.546875 196.210938 C 69.878906 189.933594 71.058594 180.875 71.90625 175.824219 C 72.425781 172.804688 72.851562 171.292969 73.605469 168.601562 C 74.550781 165.0625 75.917969 160.4375 77.476562 156.570312 C 79.03125 152.746094 80.96875 148.546875 82.808594 145.476562 C 84.320312 143.023438 86.160156 139.957031 87.480469 139.25 C 88.09375 138.917969 88.660156 139.011719 89.132812 139.152344 C 89.652344 139.34375 90.171875 139.765625 90.453125 140.191406 C 90.738281 140.664062 90.785156 141.371094 90.738281 141.84375 C 90.691406 142.222656 90.265625 142.882812 90.265625 142.882812 "/></clipPath><clipPath id="27238f02a8"><path d="M 78.550781 113.707031 L 106.90625 113.707031 L 106.90625 130.351562 L 78.550781 130.351562 Z M 78.550781 113.707031 "/></clipPath><clipPath id="7b2f3c6260"><path d="M 104.519531 118.484375 C 98.195312 119.851562 93.003906 122.070312 89.746094 124.097656 C 86.773438 125.84375 83.609375 129.480469 81.910156 130.140625 C 81.203125 130.375 80.730469 130.375 80.261719 130.234375 C 79.742188 130.046875 79.222656 129.621094 78.9375 129.195312 C 78.65625 128.722656 78.5625 128.015625 78.65625 127.542969 C 78.703125 127.167969 78.75 126.789062 79.082031 126.507812 C 79.648438 126.082031 81.488281 125.703125 82.195312 125.988281 C 82.667969 126.128906 82.996094 126.648438 83.140625 127.121094 C 83.328125 127.734375 83.28125 128.820312 82.902344 129.335938 C 82.527344 129.855469 81.582031 130.328125 80.921875 130.328125 C 80.261719 130.328125 79.363281 129.761719 78.984375 129.242188 C 78.65625 128.867188 78.5625 128.300781 78.609375 127.828125 C 78.65625 127.308594 78.796875 126.789062 79.175781 126.410156 C 79.597656 125.988281 80.589844 125.5625 81.25 125.609375 C 81.910156 125.703125 82.761719 126.316406 83.042969 126.882812 C 83.375 127.496094 83.28125 128.535156 82.996094 129.101562 C 82.808594 129.574219 82.335938 129.949219 81.910156 130.140625 C 81.488281 130.328125 80.402344 130.328125 80.402344 130.28125 C 80.402344 130.1875 82.761719 129.335938 82.808594 129.433594 C 82.855469 129.480469 82.242188 130 81.910156 130.140625 C 81.582031 130.28125 81.15625 130.328125 80.828125 130.328125 C 80.449219 130.28125 80.070312 130.234375 79.742188 130 C 79.316406 129.714844 78.84375 129.195312 78.703125 128.675781 C 78.5625 128.0625 78.65625 127.308594 79.082031 126.507812 C 79.976562 124.996094 83.421875 122.589844 85.355469 121.265625 C 86.820312 120.230469 87.765625 119.757812 89.511719 118.859375 C 92.34375 117.492188 98.382812 114.753906 100.835938 114.09375 C 101.921875 113.8125 102.535156 113.761719 103.339844 113.761719 C 104.09375 113.761719 104.941406 113.667969 105.507812 114 C 106.074219 114.328125 106.6875 115.179688 106.785156 115.792969 C 106.925781 116.3125 106.734375 116.972656 106.40625 117.398438 C 106.027344 117.917969 104.519531 118.484375 104.519531 118.484375 "/></clipPath><clipPath id="473a75a150"><path d="M 39.5 125.527344 L 83.550781 125.527344 L 83.550781 204.378906 L 39.5 204.378906 Z M 39.5 125.527344 "/></clipPath><clipPath id="90cc28b956"><path d="M 82.382812 129.949219 C 77.902344 133.394531 75.070312 136.273438 72.851562 138.964844 C 70.347656 141.9375 67.800781 145.476562 65.628906 148.96875 C 63.410156 152.511719 61.761719 155.8125 59.683594 160.109375 C 56.851562 165.914062 52.511719 175.683594 50.527344 180.78125 C 49.441406 183.65625 48.921875 185.074219 48.214844 187.71875 C 47.269531 191.210938 46.707031 197.15625 45.621094 200.035156 C 44.957031 201.734375 44.34375 203.289062 43.449219 203.90625 C 42.835938 204.375 41.890625 204.472656 41.277344 204.28125 C 40.664062 204.09375 39.957031 203.242188 39.71875 202.675781 C 39.578125 202.207031 39.625 201.640625 39.816406 201.167969 C 40.003906 200.742188 40.332031 200.269531 40.757812 200.035156 C 41.324219 199.75 42.410156 199.703125 42.976562 199.894531 C 43.449219 200.082031 43.875 200.507812 44.109375 200.929688 C 44.296875 201.355469 44.441406 201.921875 44.34375 202.394531 C 44.203125 203.007812 43.589844 203.90625 43.023438 204.1875 C 42.410156 204.472656 41.371094 204.328125 40.804688 204.09375 C 40.332031 203.855469 40.003906 203.386719 39.816406 202.914062 C 39.625 202.488281 39.625 202.015625 39.71875 201.449219 C 39.910156 200.460938 40.804688 199.375 41.277344 197.816406 C 42.078125 195.410156 42.410156 191.257812 43.261719 188.046875 C 44.0625 184.886719 44.863281 182.335938 46.28125 178.65625 C 48.453125 173.039062 52.558594 163.882812 55.578125 157.796875 C 57.984375 152.886719 60.015625 148.828125 62.75 144.675781 C 65.441406 140.570312 69.074219 136.085938 71.765625 133.066406 C 73.699219 130.941406 75.492188 129.195312 77.050781 127.921875 C 78.230469 126.976562 79.316406 126.035156 80.214844 125.75 C 80.828125 125.5625 81.394531 125.5625 81.910156 125.796875 C 82.382812 125.988281 82.902344 126.410156 83.140625 126.882812 C 83.375 127.355469 83.46875 128.0625 83.328125 128.582031 C 83.1875 129.054688 82.382812 129.949219 82.382812 129.949219 "/></clipPath><clipPath id="594e82f464"><path d="M 85.566406 136.578125 L 129.132812 136.578125 L 129.132812 159.558594 L 85.566406 159.558594 Z M 85.566406 136.578125 "/></clipPath><clipPath id="2ddc101ad3"><path d="M 86.632812 141.703125 C 90.972656 138.585938 92.292969 137.644531 94.183594 137.171875 C 96.730469 136.511719 101.167969 136.605469 103.855469 136.699219 C 105.792969 136.746094 107.253906 136.792969 108.859375 137.265625 C 110.464844 137.785156 111.785156 138.585938 113.390625 139.765625 C 115.65625 141.371094 118.347656 143.96875 120.800781 146.5625 C 123.585938 149.535156 128.445312 154.773438 129.011719 156.710938 C 129.199219 157.371094 129.011719 157.796875 128.777344 158.21875 C 128.585938 158.644531 128.164062 159.070312 127.738281 159.257812 C 127.3125 159.496094 126.699219 159.589844 126.226562 159.496094 C 125.660156 159.304688 124.8125 158.644531 124.527344 158.078125 C 124.292969 157.652344 124.292969 157.039062 124.386719 156.570312 C 124.480469 156.144531 124.765625 155.625 125.1875 155.339844 C 125.707031 154.964844 126.746094 154.726562 127.359375 154.917969 C 127.972656 155.105469 128.730469 155.90625 128.917969 156.472656 C 129.105469 156.945312 129.058594 157.511719 128.871094 157.984375 C 128.730469 158.410156 128.351562 158.882812 127.972656 159.164062 C 127.550781 159.398438 126.984375 159.542969 126.511719 159.496094 C 125.992188 159.496094 125.707031 159.351562 125.09375 158.929688 C 123.394531 157.652344 119.335938 151.800781 116.789062 149.160156 C 114.902344 147.175781 113.296875 145.476562 111.550781 144.203125 C 110.039062 143.070312 108.8125 142.175781 107.066406 141.65625 C 105.039062 141.089844 102.0625 141.324219 99.847656 141.417969 C 97.957031 141.464844 96.304688 141.417969 94.605469 142.03125 C 92.765625 142.695312 90.644531 144.910156 89.367188 145.476562 C 88.707031 145.808594 88.234375 145.949219 87.765625 145.949219 C 87.386719 145.902344 87.007812 145.808594 86.679688 145.574219 C 86.300781 145.289062 85.875 144.675781 85.734375 144.203125 C 85.59375 143.828125 85.59375 143.449219 85.6875 143.070312 C 85.828125 142.597656 86.632812 141.703125 86.632812 141.703125 "/></clipPath><clipPath id="78fd82666e"><path d="M 124.269531 154.785156 L 193.855469 154.785156 L 193.855469 184.554688 L 124.269531 184.554688 Z M 124.269531 154.785156 "/></clipPath><clipPath id="1d136aa663"><path d="M 128.632812 155.8125 C 133.683594 161.523438 141.707031 169.3125 145.71875 172.285156 C 148.171875 174.078125 149.871094 174.972656 152.089844 176.011719 C 154.449219 177.050781 157.234375 177.949219 159.5 178.5625 C 161.292969 178.984375 162.425781 179.222656 164.453125 179.410156 C 167.664062 179.695312 173.136719 179.882812 176.960938 179.363281 C 180.359375 178.890625 183.710938 177.617188 186.351562 176.71875 C 188.382812 176.058594 190.363281 174.644531 191.542969 174.644531 C 192.15625 174.644531 192.582031 174.925781 192.960938 175.210938 C 193.335938 175.539062 193.667969 176.011719 193.714844 176.53125 C 193.808594 177.144531 193.527344 178.183594 193.148438 178.65625 C 192.820312 179.03125 192.300781 179.316406 191.78125 179.363281 C 191.214844 179.410156 190.175781 179.03125 189.703125 178.65625 C 189.328125 178.277344 189.136719 177.757812 189.089844 177.285156 C 189.042969 176.816406 189.136719 176.203125 189.421875 175.777344 C 189.75 175.304688 190.648438 174.691406 191.308594 174.644531 C 191.96875 174.644531 192.914062 175.070312 193.289062 175.589844 C 193.714844 176.105469 193.808594 177.191406 193.667969 177.757812 C 193.527344 178.277344 193.195312 178.609375 192.722656 178.984375 C 192.0625 179.550781 190.976562 179.976562 189.5625 180.542969 C 186.824219 181.582031 181.824219 183.421875 177.527344 184.035156 C 172.808594 184.695312 166.105469 184.460938 162.425781 184.035156 C 160.253906 183.800781 159.167969 183.375 157.375 182.855469 C 155.15625 182.195312 152.277344 181.203125 150.25 180.355469 C 148.597656 179.648438 147.324219 178.984375 145.90625 178.136719 C 144.445312 177.238281 143.125 176.296875 141.660156 175.117188 C 139.820312 173.652344 137.980469 171.859375 135.902344 169.925781 C 133.210938 167.421875 128.917969 163.554688 126.933594 161.289062 C 125.804688 160.015625 124.8125 158.976562 124.480469 157.984375 C 124.246094 157.371094 124.292969 156.804688 124.480469 156.332031 C 124.671875 155.8125 125.140625 155.292969 125.566406 155.058594 C 126.039062 154.824219 126.746094 154.726562 127.265625 154.871094 C 127.738281 155.011719 128.632812 155.8125 128.632812 155.8125 "/></clipPath><clipPath id="a299eeabc4"><path d="M 188.683594 125.472656 L 216.804688 125.472656 L 216.804688 179.609375 L 188.683594 179.609375 Z M 188.683594 125.472656 "/></clipPath><clipPath id="f9ae2f71b6"><path d="M 189.515625 175.398438 C 195.085938 169.5 196.453125 167.566406 198.011719 165.207031 C 200.039062 162.089844 202.636719 158.125 204.523438 154.113281 C 206.597656 149.726562 208.582031 143.355469 209.714844 139.863281 C 210.375 137.832031 210.800781 136.605469 211.128906 135 C 211.414062 133.445312 211.273438 131.839844 211.648438 130.28125 C 212.027344 128.769531 212.40625 126.363281 213.300781 125.796875 C 213.867188 125.375 214.953125 125.609375 215.472656 125.84375 C 215.945312 126.082031 216.320312 126.554688 216.511719 126.976562 C 216.699219 127.449219 216.792969 128.015625 216.605469 128.488281 C 216.414062 129.054688 215.753906 129.902344 215.140625 130.140625 C 214.527344 130.375 213.441406 130.1875 212.921875 129.808594 C 212.40625 129.433594 211.933594 128.488281 211.980469 127.828125 C 211.980469 127.167969 212.5 126.269531 213.066406 125.941406 C 213.585938 125.5625 214.667969 125.46875 215.28125 125.75 C 215.847656 125.988281 216.464844 126.882812 216.652344 127.496094 C 216.792969 127.96875 216.652344 128.535156 216.414062 128.960938 C 216.226562 129.382812 215.332031 129.949219 215.378906 130.046875 C 215.425781 130.09375 216.226562 129.382812 216.464844 129.574219 C 216.886719 129.902344 216.320312 132.40625 215.945312 134.433594 C 215.234375 137.972656 213.160156 144.910156 211.742188 148.828125 C 210.800781 151.660156 210.089844 153.40625 208.863281 155.957031 C 207.261719 159.257812 204.996094 163.410156 202.683594 166.855469 C 200.417969 170.300781 197.113281 174.550781 195.085938 176.71875 C 193.953125 177.949219 193.007812 178.890625 192.109375 179.316406 C 191.542969 179.550781 190.929688 179.550781 190.457031 179.503906 C 190.082031 179.410156 189.75 179.222656 189.46875 178.9375 C 189.136719 178.609375 188.710938 177.996094 188.710938 177.476562 C 188.664062 176.816406 189.515625 175.398438 189.515625 175.398438 "/></clipPath><clipPath id="2192d0af7b"><path d="M 193.285156 100.320312 L 216.882812 100.320312 L 216.882812 131.113281 L 193.285156 131.113281 Z M 193.285156 100.320312 "/></clipPath><clipPath id="c3000c9678"><path d="M 212.355469 129.761719 C 200.273438 110.507812 199.660156 109.65625 198.433594 108.382812 C 197.113281 106.921875 194.519531 105.457031 193.855469 104.136719 C 193.433594 103.378906 193.386719 102.578125 193.527344 101.964844 C 193.667969 101.492188 194.09375 101.066406 194.46875 100.785156 C 194.894531 100.550781 195.414062 100.359375 195.933594 100.40625 C 196.546875 100.5 197.445312 101.117188 197.820312 101.585938 C 198.105469 102.011719 198.199219 102.578125 198.105469 103.097656 C 197.960938 103.664062 197.347656 104.5625 196.832031 104.890625 C 196.40625 105.128906 195.792969 105.222656 195.320312 105.078125 C 194.753906 104.9375 193.902344 104.230469 193.574219 103.710938 C 193.335938 103.285156 193.335938 102.671875 193.480469 102.199219 C 193.574219 101.730469 193.902344 101.257812 194.28125 100.925781 C 194.660156 100.644531 195.226562 100.40625 195.699219 100.40625 C 196.167969 100.40625 196.546875 100.5 197.113281 100.832031 C 198.480469 101.632812 201.265625 104.464844 202.824219 106.210938 C 204.050781 107.628906 204.617188 108.429688 205.9375 110.316406 C 208.488281 114.09375 215.753906 124.996094 216.652344 127.828125 C 216.886719 128.628906 216.933594 128.960938 216.746094 129.480469 C 216.605469 129.953125 216.226562 130.566406 215.753906 130.800781 C 215.1875 131.082031 214.152344 131.179688 213.535156 130.941406 C 213.019531 130.753906 212.355469 129.761719 212.355469 129.761719 "/></clipPath><clipPath id="c91177fecd"><path d="M 112.890625 77.515625 L 132.335938 77.515625 L 132.335938 90.988281 L 112.890625 90.988281 Z M 112.890625 77.515625 "/></clipPath><clipPath id="1ec3359b96"><path d="M 116.128906 77.660156 C 126.511719 82.945312 130.664062 85.636719 131.75 87.050781 C 132.175781 87.570312 132.269531 87.949219 132.269531 88.46875 C 132.316406 88.9375 132.125 89.503906 131.84375 89.882812 C 131.609375 90.261719 131.089844 90.636719 130.664062 90.78125 C 130.191406 90.921875 129.625 90.96875 129.152344 90.78125 C 128.585938 90.542969 127.832031 89.742188 127.644531 89.128906 C 127.453125 88.65625 127.550781 88.089844 127.738281 87.664062 C 127.925781 87.191406 128.257812 86.722656 128.730469 86.484375 C 129.296875 86.25 130.378906 86.203125 130.945312 86.4375 C 131.417969 86.578125 131.796875 87.050781 132.03125 87.476562 C 132.222656 87.902344 132.363281 88.46875 132.269531 88.9375 C 132.078125 89.554688 131.417969 90.402344 130.898438 90.683594 C 130.429688 90.921875 130.050781 91.015625 129.390625 90.828125 C 127.550781 90.355469 122.925781 86.25 120.046875 84.550781 C 117.734375 83.230469 114.476562 82.472656 113.53125 81.386719 C 113.058594 80.867188 112.917969 80.351562 112.917969 79.832031 C 112.917969 79.3125 113.25 78.652344 113.53125 78.273438 C 113.769531 77.941406 114.097656 77.753906 114.476562 77.613281 C 114.949219 77.472656 116.128906 77.660156 116.128906 77.660156 "/></clipPath><clipPath id="2c7c1315fc"><path d="M 127.601562 62 L 198.238281 62 L 198.238281 104.460938 L 127.601562 104.460938 Z M 127.601562 62 "/></clipPath><clipPath id="8dc473fc23"><path d="M 127.691406 87.757812 C 134.488281 73.175781 136.328125 71.429688 137.882812 69.824219 C 139.113281 68.597656 140.433594 67.464844 141.519531 66.664062 C 142.273438 66.144531 142.652344 65.859375 143.59375 65.4375 C 145.246094 64.679688 148.644531 63.453125 150.863281 62.886719 C 152.75 62.464844 154.355469 62.273438 156.101562 62.132812 C 157.753906 62.039062 159.261719 61.898438 161.007812 62.179688 C 163.132812 62.558594 165.683594 63.546875 167.898438 64.492188 C 170.117188 65.4375 172.242188 66.570312 174.269531 67.890625 C 176.394531 69.257812 178.472656 70.816406 180.359375 72.46875 C 182.199219 74.121094 184.039062 76.007812 185.457031 77.707031 C 186.683594 79.121094 187.53125 80.304688 188.523438 81.90625 C 189.796875 83.890625 191.121094 86.296875 192.300781 88.84375 C 193.714844 91.722656 195.132812 96.253906 196.265625 98.472656 C 196.925781 99.699219 197.773438 100.5 198.011719 101.257812 C 198.152344 101.683594 198.199219 101.964844 198.105469 102.390625 C 198.011719 102.863281 197.632812 103.476562 197.253906 103.804688 C 196.972656 104.089844 196.640625 104.230469 196.265625 104.277344 C 195.792969 104.371094 195.035156 104.324219 194.613281 104.042969 C 194.046875 103.664062 193.480469 102.578125 193.433594 101.964844 C 193.386719 101.445312 193.621094 100.925781 193.902344 100.550781 C 194.234375 100.171875 194.660156 99.792969 195.179688 99.699219 C 195.792969 99.605469 196.832031 99.839844 197.347656 100.21875 C 197.726562 100.5 198.011719 101.019531 198.105469 101.492188 C 198.199219 101.964844 198.152344 102.578125 197.914062 103.003906 C 197.632812 103.523438 196.734375 104.183594 196.167969 104.324219 C 195.648438 104.417969 195.085938 104.277344 194.660156 104.042969 C 194.234375 103.851562 193.808594 103.429688 193.621094 102.957031 C 193.433594 102.390625 193.433594 101.304688 193.761719 100.738281 C 194.140625 100.171875 195.035156 99.652344 195.699219 99.605469 C 196.359375 99.605469 197.398438 100.171875 197.773438 100.738281 C 198.152344 101.257812 198.105469 102.390625 197.960938 102.910156 C 197.820312 103.285156 197.585938 103.570312 197.253906 103.804688 C 196.878906 104.089844 196.167969 104.324219 195.699219 104.324219 C 195.273438 104.371094 194.988281 104.277344 194.613281 104.042969 C 194 103.664062 193.289062 103.050781 192.675781 102.058594 C 191.449219 100.171875 190.410156 95.640625 188.996094 92.621094 C 187.582031 89.554688 186.070312 86.484375 184.085938 83.699219 C 182.152344 80.964844 179.652344 78.273438 177.339844 76.148438 C 175.261719 74.261719 173.375 72.800781 170.921875 71.382812 C 168.183594 69.730469 164.503906 67.75 161.480469 67.089844 C 158.839844 66.570312 156.054688 66.851562 153.835938 67.136719 C 152.042969 67.371094 150.578125 67.890625 149.023438 68.410156 C 147.511719 68.929688 145.90625 69.449219 144.539062 70.34375 C 143.171875 71.195312 142.085938 72.28125 140.859375 73.554688 C 139.347656 75.113281 137.695312 76.859375 136.328125 79.171875 C 134.535156 82.144531 132.742188 88.9375 131.558594 90.261719 C 131.183594 90.683594 130.945312 90.734375 130.570312 90.828125 C 130.097656 90.921875 129.34375 90.875 128.871094 90.683594 C 128.398438 90.449219 127.925781 89.929688 127.738281 89.457031 C 127.550781 88.988281 127.691406 87.757812 127.691406 87.757812 "/></clipPath><clipPath id="fd5cf1be32"><path d="M 135.867188 71.898438 L 184.570312 71.898438 L 184.570312 96.195312 L 135.867188 96.195312 Z M 135.867188 71.898438 "/></clipPath><clipPath id="064a86a267"><path d="M 135.902344 89.976562 C 138.027344 84.832031 139.867188 82 141.28125 80.207031 C 142.460938 78.699219 143.546875 77.472656 144.871094 76.339844 C 146.144531 75.253906 147.890625 74.074219 149.117188 73.414062 C 149.917969 72.988281 150.34375 72.796875 151.335938 72.5625 C 153.035156 72.183594 156.335938 71.855469 158.507812 72.042969 C 160.253906 72.183594 161.625 72.46875 163.320312 73.128906 C 165.304688 73.980469 167.804688 75.675781 169.597656 76.90625 C 171.0625 77.894531 171.957031 78.554688 173.421875 79.878906 C 175.828125 82.050781 180.21875 86.675781 182.105469 89.175781 C 183.191406 90.589844 184.039062 91.867188 184.371094 92.855469 C 184.558594 93.46875 184.652344 93.894531 184.464844 94.367188 C 184.277344 94.933594 183.617188 95.78125 182.953125 96.019531 C 182.339844 96.207031 181.304688 96.066406 180.785156 95.6875 C 180.265625 95.261719 179.839844 94.273438 179.839844 93.660156 C 179.839844 93.1875 180.027344 92.621094 180.359375 92.289062 C 180.785156 91.816406 181.824219 91.394531 182.4375 91.441406 C 182.90625 91.441406 183.472656 91.675781 183.804688 92.054688 C 184.230469 92.480469 184.558594 93.515625 184.511719 94.128906 C 184.511719 94.648438 184.183594 95.121094 183.851562 95.453125 C 183.519531 95.78125 182.953125 96.066406 182.484375 96.113281 C 182.011719 96.160156 181.492188 96.113281 181.019531 95.828125 C 180.171875 95.261719 179.558594 93.515625 178.472656 92.148438 C 176.867188 90.070312 174.222656 87.003906 172.007812 84.929688 C 170.070312 83.085938 168.183594 81.625 166.105469 80.253906 C 164.078125 78.933594 162 77.425781 159.734375 76.90625 C 157.46875 76.339844 154.542969 76.480469 152.46875 77.09375 C 150.769531 77.613281 149.445312 78.746094 148.171875 79.832031 C 146.898438 80.867188 146 81.953125 144.871094 83.511719 C 143.171875 85.777344 140.808594 91.441406 139.582031 92.480469 C 139.160156 92.855469 138.921875 92.855469 138.496094 92.902344 C 138.027344 92.902344 137.316406 92.808594 136.894531 92.480469 C 136.46875 92.195312 136.089844 91.582031 135.949219 91.109375 C 135.808594 90.734375 135.902344 89.976562 135.902344 89.976562 "/></clipPath><clipPath id="7b58d7f5ca"><path d="M 137.027344 86.605469 L 184.601562 86.605469 L 184.601562 96.070312 L 137.027344 96.070312 Z M 137.027344 86.605469 "/></clipPath><clipPath id="6fa8575ea3"><path d="M 181.585938 96.066406 C 170.589844 92.667969 167.570312 92.101562 163.746094 91.722656 C 158.746094 91.300781 150.15625 91.488281 146.191406 91.628906 C 144.207031 91.722656 142.558594 91.488281 141.753906 92.007812 C 141.234375 92.289062 141.375 92.996094 140.953125 93.28125 C 140.480469 93.660156 139.394531 93.894531 138.828125 93.800781 C 138.308594 93.707031 137.835938 93.328125 137.554688 92.949219 C 137.269531 92.574219 137.035156 92.007812 137.082031 91.488281 C 137.128906 90.921875 137.554688 89.929688 138.121094 89.554688 C 138.640625 89.175781 139.726562 89.128906 140.292969 89.316406 C 140.761719 89.457031 141.1875 89.882812 141.472656 90.261719 C 141.707031 90.683594 141.847656 91.300781 141.800781 91.769531 C 141.707031 92.242188 141.472656 92.761719 141.140625 93.140625 C 140.808594 93.46875 140.292969 93.753906 139.820312 93.847656 C 139.347656 93.894531 138.734375 93.800781 138.308594 93.613281 C 137.933594 93.375 137.507812 92.949219 137.269531 92.480469 C 137.082031 92.054688 136.941406 91.535156 137.128906 91.015625 C 137.460938 90.070312 138.875 88.65625 140.339844 87.949219 C 142.179688 87.003906 144.773438 87.050781 147.796875 86.816406 C 152.324219 86.53125 160.113281 86.53125 165.019531 87.050781 C 168.796875 87.382812 171.722656 88.042969 174.835938 88.84375 C 177.765625 89.648438 181.871094 90.734375 183.332031 91.675781 C 183.945312 92.101562 184.230469 92.480469 184.417969 92.949219 C 184.605469 93.46875 184.605469 94.128906 184.371094 94.648438 C 184.183594 95.121094 183.710938 95.640625 183.285156 95.875 C 182.8125 96.113281 181.585938 96.066406 181.585938 96.066406 "/></clipPath></defs><g id="b22bf02624"><g clip-rule="nonzero" clip-path="url(#95e4b72b9c)"><g clip-rule="nonzero" clip-path="url(#15d3157beb)"><path style=" stroke:none;fill-rule:nonzero;fill:currentColor;fill-opacity:1;" d="M 196.058594 169.585938 L 239.148438 169.585938 L 239.148438 241.960938 L 196.058594 241.960938 Z M 196.058594 169.585938 "/></g></g><g clip-rule="nonzero" clip-path="url(#6e4cfadfec)"><g clip-rule="nonzero" clip-path="url(#c99d17d153)"><path style=" stroke:none;fill-rule:nonzero;fill:currentColor;fill-opacity:1;" d="M 186.476562 233.484375 L 211.492188 233.484375 L 211.492188 314.777344 L 186.476562 314.777344 Z M 186.476562 233.484375 "/></g></g><g clip-rule="nonzero" clip-path="url(#cf9d1bdc95)"><g clip-rule="nonzero" clip-path="url(#76aba7b219)"><path style=" stroke:none;fill-rule:nonzero;fill:currentColor;fill-opacity:1;" d="M 195.539062 208.09375 L 227.554688 208.09375 L 227.554688 228.484375 L 195.539062 228.484375 Z M 195.539062 208.09375 "/></g></g><g clip-rule="nonzero" clip-path="url(#e99cb99f47)"><g clip-rule="nonzero" clip-path="url(#433f6a171a)"><path style=" stroke:none;fill-rule:nonzero;fill:currentColor;fill-opacity:1;" d="M 156.652344 220.082031 L 204.035156 220.082031 L 204.035156 302.449219 L 156.652344 302.449219 Z M 156.652344 220.082031 "/></g></g><g clip-rule="nonzero" clip-path="url(#cbbf0206ec)"><g clip-rule="nonzero" clip-path="url(#673d84b00d)"><path style=" stroke:none;fill-rule:nonzero;fill:currentColor;fill-opacity:1;" d="M 202.617188 231.03125 L 249.71875 231.03125 L 249.71875 257.648438 L 202.617188 257.648438 Z M 202.617188 231.03125 "/></g></g><g clip-rule="nonzero" clip-path="url(#258f1811d5)"><g clip-rule="nonzero" clip-path="url(#ffe02df19b)"><path style=" stroke:none;fill-rule:nonzero;fill:currentColor;fill-opacity:1;" d="M 241.414062 249.203125 L 314.476562 249.203125 L 314.476562 282.191406 L 241.414062 282.191406 Z M 241.414062 249.203125 "/></g></g><g clip-rule="nonzero" clip-path="url(#a45aac61d9)"><g clip-rule="nonzero" clip-path="url(#7ad514b1a4)"><path style=" stroke:none;fill-rule:nonzero;fill:currentColor;fill-opacity:1;" d="M 305.644531 220.082031 L 337.359375 220.082031 L 337.359375 277.566406 L 305.644531 277.566406 Z M 305.644531 220.082031 "/></g></g><g clip-rule="nonzero" clip-path="url(#12b5c2e29b)"><g clip-rule="nonzero" clip-path="url(#5e4bbb0944)"><path style=" stroke:none;fill-rule:nonzero;fill:currentColor;fill-opacity:1;" d="M 310.410156 194.738281 L 337.5 194.738281 L 337.5 229.023438 L 310.410156 229.023438 Z M 310.410156 194.738281 "/></g></g><g clip-rule="nonzero" clip-path="url(#059f6dc7cc)"><g clip-rule="nonzero" clip-path="url(#abff73e62b)"><path style=" stroke:none;fill-rule:nonzero;fill:currentColor;fill-opacity:1;" d="M 229.851562 171.945312 L 252.945312 171.945312 L 252.945312 188.933594 L 229.851562 188.933594 Z M 229.851562 171.945312 "/></g></g><g clip-rule="nonzero" clip-path="url(#ecfd139a05)"><g clip-rule="nonzero" clip-path="url(#5e67a3a057)"><path style=" stroke:none;fill-rule:nonzero;fill:currentColor;fill-opacity:1;" d="M 244.621094 156.464844 L 318.855469 156.464844 L 318.855469 202.480469 L 244.621094 202.480469 Z M 244.621094 156.464844 "/></g></g><g clip-rule="nonzero" clip-path="url(#7409c59e08)"><g clip-rule="nonzero" clip-path="url(#6882c874e8)"><path style=" stroke:none;fill-rule:nonzero;fill:currentColor;fill-opacity:1;" d="M 252.832031 166.375 L 305.238281 166.375 L 305.238281 194.269531 L 252.832031 194.269531 Z M 252.832031 166.375 "/></g></g><g clip-rule="nonzero" clip-path="url(#582c514b93)"><g clip-rule="nonzero" clip-path="url(#ae23ce226d)"><path style=" stroke:none;fill-rule:nonzero;fill:currentColor;fill-opacity:1;" d="M 254.011719 181.148438 L 305.148438 181.148438 L 305.148438 194.171875 L 254.011719 194.171875 Z M 254.011719 181.148438 "/></g></g><g clip-rule="nonzero" clip-path="url(#55519510be)"><g clip-rule="nonzero" clip-path="url(#e6a52f19a6)"><path style=" stroke:none;fill-rule:nonzero;fill:currentColor;fill-opacity:1;" d="M 77.238281 73.363281 L 120.328125 73.363281 L 120.328125 145.738281 L 77.238281 145.738281 Z M 77.238281 73.363281 "/></g></g><g clip-rule="nonzero" clip-path="url(#b64203341c)"><g clip-rule="nonzero" clip-path="url(#254fb8659b)"><path style=" stroke:none;fill-rule:nonzero;fill:currentColor;fill-opacity:1;" d="M 67.660156 137.265625 L 92.671875 137.265625 L 92.671875 218.558594 L 67.660156 218.558594 Z M 67.660156 137.265625 "/></g></g><g clip-rule="nonzero" clip-path="url(#27238f02a8)"><g clip-rule="nonzero" clip-path="url(#7b2f3c6260)"><path style=" stroke:none;fill-rule:nonzero;fill:currentColor;fill-opacity:1;" d="M 76.71875 111.875 L 108.734375 111.875 L 108.734375 132.261719 L 76.71875 132.261719 Z M 76.71875 111.875 "/></g></g><g clip-rule="nonzero" clip-path="url(#473a75a150)"><g clip-rule="nonzero" clip-path="url(#90cc28b956)"><path style=" stroke:none;fill-rule:nonzero;fill:currentColor;fill-opacity:1;" d="M 37.832031 123.863281 L 85.214844 123.863281 L 85.214844 206.226562 L 37.832031 206.226562 Z M 37.832031 123.863281 "/></g></g><g clip-rule="nonzero" clip-path="url(#594e82f464)"><g clip-rule="nonzero" clip-path="url(#2ddc101ad3)"><path style=" stroke:none;fill-rule:nonzero;fill:currentColor;fill-opacity:1;" d="M 83.800781 134.8125 L 130.902344 134.8125 L 130.902344 161.429688 L 83.800781 161.429688 Z M 83.800781 134.8125 "/></g></g><g clip-rule="nonzero" clip-path="url(#78fd82666e)"><g clip-rule="nonzero" clip-path="url(#1d136aa663)"><path style=" stroke:none;fill-rule:nonzero;fill:currentColor;fill-opacity:1;" d="M 122.59375 152.980469 L 195.660156 152.980469 L 195.660156 185.96875 L 122.59375 185.96875 Z M 122.59375 152.980469 "/></g></g><g clip-rule="nonzero" clip-path="url(#a299eeabc4)"><g clip-rule="nonzero" clip-path="url(#f9ae2f71b6)"><path style=" stroke:none;fill-rule:nonzero;fill:currentColor;fill-opacity:1;" d="M 186.824219 123.863281 L 218.539062 123.863281 L 218.539062 181.34375 L 186.824219 181.34375 Z M 186.824219 123.863281 "/></g></g><g clip-rule="nonzero" clip-path="url(#2192d0af7b)"><g clip-rule="nonzero" clip-path="url(#c3000c9678)"><path style=" stroke:none;fill-rule:nonzero;fill:currentColor;fill-opacity:1;" d="M 191.589844 98.519531 L 218.679688 98.519531 L 218.679688 132.804688 L 191.589844 132.804688 Z M 191.589844 98.519531 "/></g></g><g clip-rule="nonzero" clip-path="url(#c91177fecd)"><g clip-rule="nonzero" clip-path="url(#1ec3359b96)"><path style=" stroke:none;fill-rule:nonzero;fill:currentColor;fill-opacity:1;" d="M 111.03125 75.726562 L 134.125 75.726562 L 134.125 92.714844 L 111.03125 92.714844 Z M 111.03125 75.726562 "/></g></g><g clip-rule="nonzero" clip-path="url(#2c7c1315fc)"><g clip-rule="nonzero" clip-path="url(#8dc473fc23)"><path style=" stroke:none;fill-rule:nonzero;fill:currentColor;fill-opacity:1;" d="M 125.804688 60.246094 L 200.035156 60.246094 L 200.035156 106.257812 L 125.804688 106.257812 Z M 125.804688 60.246094 "/></g></g><g clip-rule="nonzero" clip-path="url(#fd5cf1be32)"><g clip-rule="nonzero" clip-path="url(#064a86a267)"><path style=" stroke:none;fill-rule:nonzero;fill:currentColor;fill-opacity:1;" d="M 134.015625 70.15625 L 186.421875 70.15625 L 186.421875 98.046875 L 134.015625 98.046875 Z M 134.015625 70.15625 "/></g></g><g clip-rule="nonzero" clip-path="url(#7b58d7f5ca)"><g clip-rule="nonzero" clip-path="url(#6fa8575ea3)"><path style=" stroke:none;fill-rule:nonzero;fill:currentColor;fill-opacity:1;" d="M 135.195312 84.929688 L 186.332031 84.929688 L 186.332031 97.953125 L 135.195312 97.953125 Z M 135.195312 84.929688 "/></g></g></g></svg>