<svg xmlns="http://www.w3.org/2000/svg" xmlns:xlink="http://www.w3.org/1999/xlink" width="500" zoomAndPan="magnify" viewBox="0 0 375 374.999991" height="500" preserveAspectRatio="xMidYMid meet" version="1.2"><defs><clipPath id="c82ae6db5f"><path d="M 49.824219 154.65625 L 66.449219 154.65625 L 66.449219 244.304688 L 49.824219 244.304688 Z M 49.824219 154.65625 "/></clipPath><clipPath id="0b77311409"><path d="M 59.054688 240.910156 C 50.097656 167.074219 49.222656 160.011719 50.097656 157.246094 C 50.386719 156.226562 50.898438 155.789062 51.480469 155.351562 C 52.0625 154.914062 53.007812 154.695312 53.738281 154.695312 C 54.464844 154.769531 55.339844 154.988281 55.921875 155.570312 C 56.578125 156.226562 57.304688 157.753906 57.160156 158.703125 C 57.085938 159.722656 56.066406 161.03125 55.265625 161.542969 C 54.613281 161.976562 53.738281 162.050781 53.007812 161.976562 C 52.28125 161.832031 51.40625 161.394531 50.898438 160.886719 C 50.460938 160.375 50.023438 159.503906 49.953125 158.773438 C 49.878906 158.046875 49.953125 157.171875 50.386719 156.515625 C 50.972656 155.714844 52.425781 154.84375 53.300781 154.695312 C 54.101562 154.625 54.976562 154.84375 55.558594 155.351562 C 56.285156 155.933594 56.796875 156.808594 57.234375 158.335938 C 58.179688 161.832031 57.742188 170.0625 58.324219 176.832031 C 58.980469 185.207031 60.144531 194.964844 61.382812 204.867188 C 62.839844 216.007812 66.773438 235.449219 66.335938 240.402344 C 66.261719 241.710938 66.1875 242.222656 65.605469 242.875 C 64.953125 243.605469 63.496094 244.257812 62.546875 244.257812 C 61.675781 244.257812 60.726562 243.824219 60.144531 243.242188 C 59.5625 242.65625 59.054688 240.910156 59.054688 240.910156 "/></clipPath><clipPath id="ff4faa97ec"><path d="M 50 154.570312 L 109.207031 154.570312 L 109.207031 218.613281 L 50 218.613281 Z M 50 154.570312 "/></clipPath><clipPath id="ef7428c934"><path d="M 55.921875 155.425781 C 69.027344 167.804688 82.5 182.148438 89.855469 190.8125 C 95.386719 197.292969 100.265625 204.792969 103.761719 208.507812 C 105.507812 210.402344 107.332031 211.273438 108.203125 212.511719 C 108.785156 213.386719 109.078125 214.1875 109.078125 214.988281 C 109.078125 215.789062 108.640625 216.734375 108.132812 217.390625 C 107.546875 217.972656 106.601562 218.410156 105.800781 218.554688 C 105 218.628906 103.324219 217.828125 103.324219 217.902344 C 103.324219 217.902344 104.855469 218.554688 104.925781 218.484375 C 105 218.410156 102.667969 217.316406 102.160156 216.515625 C 101.796875 215.789062 101.652344 214.914062 101.867188 214.1875 C 102.160156 213.3125 103.105469 211.929688 104.054688 211.566406 C 104.925781 211.128906 106.601562 211.273438 107.402344 211.855469 C 108.277344 212.367188 109.078125 213.824219 109.078125 214.84375 C 109.078125 215.863281 108.347656 217.316406 107.546875 217.902344 C 106.746094 218.484375 105.074219 218.628906 104.125 218.335938 C 103.179688 217.972656 102.160156 216.734375 101.867188 215.789062 C 101.652344 214.769531 102.160156 213.167969 102.742188 212.4375 C 103.253906 211.855469 103.980469 211.417969 104.78125 211.347656 C 105.726562 211.273438 107.476562 211.785156 108.203125 212.511719 C 108.859375 213.3125 109.152344 214.914062 108.933594 215.863281 C 108.785156 216.664062 108.058594 217.464844 107.476562 217.902344 C 106.964844 218.265625 106.457031 218.484375 105.800781 218.554688 C 105.074219 218.554688 104.199219 218.335938 103.324219 217.902344 C 102.085938 217.171875 100.996094 216.082031 99.394531 214.40625 C 95.972656 210.765625 90.726562 202.902344 84.902344 196.128906 C 77.039062 187.027344 61.601562 170.425781 55.921875 164.890625 C 53.664062 162.777344 51.917969 162.050781 50.972656 160.742188 C 50.386719 159.867188 50.097656 159.066406 50.097656 158.265625 C 50.167969 157.464844 50.535156 156.445312 51.117188 155.863281 C 51.625 155.277344 52.644531 154.84375 53.445312 154.695312 C 54.246094 154.625 55.921875 155.425781 55.921875 155.425781 "/></clipPath><clipPath id="04550ec65f"><path d="M 101.847656 132.535156 L 153.230469 132.535156 L 153.230469 218.617188 L 101.847656 218.617188 Z M 101.847656 132.535156 "/></clipPath><clipPath id="d828ef46d1"><path d="M 102.304688 213.023438 C 111.042969 199.625 116.285156 189.9375 120.726562 181.347656 C 125.824219 171.515625 131.214844 157.972656 136.164062 149.453125 C 139.660156 143.265625 144.246094 136.417969 146.433594 134.164062 C 147.234375 133.363281 147.523438 132.996094 148.324219 132.777344 C 149.199219 132.632812 150.875 132.925781 151.675781 133.433594 C 152.328125 133.871094 152.695312 134.671875 152.914062 135.402344 C 153.058594 136.128906 152.984375 137.074219 152.695312 137.730469 C 152.402344 138.386719 151.894531 139.113281 151.164062 139.476562 C 150.292969 139.84375 148.617188 139.914062 147.742188 139.550781 C 147.015625 139.257812 146.433594 138.605469 146.140625 137.875 C 145.777344 137.003906 145.777344 135.328125 146.214844 134.453125 C 146.503906 133.796875 147.234375 133.214844 147.960938 132.925781 C 148.617188 132.632812 149.492188 132.488281 150.21875 132.777344 C 151.164062 133.070312 152.402344 134.164062 152.765625 135.035156 C 153.132812 135.765625 153.132812 136.273438 152.839844 137.367188 C 151.964844 140.425781 145.847656 147.050781 142.207031 153.457031 C 137.257812 162.195312 131.867188 175.742188 126.84375 185.570312 C 122.402344 194.164062 117.234375 203.554688 113.664062 209.308594 C 111.480469 212.804688 109.441406 216.152344 108.058594 217.464844 C 107.476562 217.972656 107.113281 218.191406 106.527344 218.335938 C 105.800781 218.554688 104.636719 218.484375 103.980469 218.265625 C 103.398438 218.046875 102.960938 217.609375 102.597656 217.171875 C 102.234375 216.734375 101.941406 216.226562 101.867188 215.570312 C 101.796875 214.84375 102.304688 213.023438 102.304688 213.023438 "/></clipPath><clipPath id="ed3928cb40"><path d="M 145.566406 132.570312 L 197.832031 132.570312 L 197.832031 215.695312 L 145.566406 215.695312 Z M 145.566406 132.570312 "/></clipPath><clipPath id="b98e879c1f"><path d="M 152.113281 134.089844 C 159.394531 145.230469 160.484375 149.164062 162.234375 152.65625 C 163.90625 156.152344 165.21875 158.265625 167.984375 162.925781 C 173.882812 172.902344 194.855469 203.992188 197.113281 209.964844 C 197.621094 211.273438 197.765625 211.710938 197.621094 212.511719 C 197.476562 213.3125 196.964844 214.257812 196.238281 214.695312 C 195.4375 215.277344 193.835938 215.570312 192.886719 215.351562 C 192.085938 215.132812 190.921875 213.75 190.921875 213.75 C 190.921875 213.75 192.886719 215.277344 192.886719 215.351562 C 192.886719 215.351562 191.433594 214.550781 190.996094 213.96875 C 190.632812 213.3125 190.265625 212.4375 190.339844 211.710938 C 190.484375 210.765625 191.359375 209.308594 192.085938 208.726562 C 192.742188 208.289062 193.617188 208.070312 194.34375 208.214844 C 195.292969 208.363281 196.746094 209.234375 197.183594 210.109375 C 197.695312 210.984375 197.695312 212.585938 197.257812 213.53125 C 196.820312 214.40625 195.4375 215.351562 194.417969 215.496094 C 193.472656 215.570312 191.941406 214.988281 191.285156 214.257812 C 190.632812 213.457031 190.339844 211.855469 190.484375 210.910156 C 190.632812 210.183594 191.214844 209.453125 191.796875 209.015625 C 192.378906 208.507812 193.179688 208.144531 193.980469 208.214844 C 194.925781 208.289062 196.527344 209.164062 197.113281 209.964844 C 197.621094 210.691406 197.765625 211.710938 197.621094 212.511719 C 197.328125 213.457031 196.3125 214.769531 195.507812 215.207031 C 194.78125 215.570312 193.761719 215.570312 192.886719 215.351562 C 191.941406 214.988281 191.066406 214.113281 190.121094 212.875 C 188.375 210.765625 187.136719 207.195312 184.585938 202.828125 C 179.707031 194.453125 166.746094 175.085938 161.722656 166.710938 C 159.175781 162.34375 157.9375 160.375 156.117188 156.664062 C 154.003906 152.511719 152.039062 146.25 150 142.902344 C 148.617188 140.714844 146.578125 139.40625 145.996094 137.949219 C 145.632812 137.003906 145.558594 136.128906 145.777344 135.328125 C 145.996094 134.597656 146.652344 133.726562 147.304688 133.289062 C 148.035156 132.851562 149.054688 132.632812 149.855469 132.777344 C 150.65625 132.925781 152.113281 134.089844 152.113281 134.089844 "/></clipPath><clipPath id="5388b48454"><path d="M 190.210938 137.382812 L 235.542969 137.382812 L 235.542969 215.71875 L 190.210938 215.71875 Z M 190.210938 137.382812 "/></clipPath><clipPath id="bd0c71c6a2"><path d="M 191.140625 209.597656 C 204.320312 191.25 210.507812 170.863281 215.535156 160.523438 C 218.882812 153.53125 222.378906 147.125 225.074219 143.265625 C 226.675781 141.082031 228.058594 139.476562 229.222656 138.53125 C 230.023438 137.949219 230.535156 137.511719 231.335938 137.511719 C 232.28125 137.4375 233.882812 137.875 234.539062 138.605469 C 235.195312 139.40625 235.632812 140.933594 235.414062 141.953125 C 235.195312 142.902344 234.027344 144.066406 233.15625 144.503906 C 232.425781 144.867188 231.554688 144.792969 230.824219 144.574219 C 230.097656 144.355469 229.367188 143.917969 228.933594 143.265625 C 228.421875 142.464844 228.058594 140.863281 228.421875 139.914062 C 228.785156 138.96875 230.023438 137.875 230.972656 137.585938 C 231.699219 137.292969 232.574219 137.367188 233.226562 137.730469 C 234.101562 138.167969 235.195312 139.476562 235.414062 140.351562 C 235.632812 141.152344 235.558594 141.734375 235.121094 142.683594 C 234.246094 144.792969 230.167969 148.652344 228.058594 151.855469 C 226.09375 154.988281 225 157.246094 222.886719 161.757812 C 218.59375 170.933594 210.875 195.183594 205.046875 204.429688 C 201.84375 209.527344 197.546875 214.042969 195.507812 215.207031 C 194.78125 215.570312 194.34375 215.570312 193.761719 215.496094 C 193.035156 215.351562 192.015625 214.988281 191.433594 214.40625 C 190.847656 213.824219 190.414062 212.875 190.339844 212.074219 C 190.339844 211.203125 191.140625 209.597656 191.140625 209.597656 "/></clipPath><clipPath id="9f1459b899"><path d="M 228.085938 137.464844 L 274.925781 137.464844 L 274.925781 213.632812 L 228.085938 213.632812 Z M 228.085938 137.464844 "/></clipPath><clipPath id="8097c78049"><path d="M 235.121094 139.550781 C 274.804688 210.035156 274.734375 210.765625 274.296875 211.636719 C 273.785156 212.511719 272.257812 213.3125 271.382812 213.457031 C 270.800781 213.605469 270.21875 213.457031 269.707031 213.167969 C 269.054688 212.875 268.324219 212.367188 267.960938 211.636719 C 267.523438 210.835938 267.378906 209.164062 267.816406 208.289062 C 268.253906 207.34375 269.5625 206.394531 270.582031 206.25 C 271.601562 206.105469 273.132812 206.613281 273.785156 207.414062 C 274.441406 208.144531 274.878906 209.671875 274.660156 210.691406 C 274.441406 211.636719 273.277344 212.804688 272.402344 213.242188 C 271.675781 213.605469 270.800781 213.53125 270.074219 213.3125 C 269.34375 213.09375 268.617188 212.65625 268.179688 212.003906 C 267.667969 211.203125 267.453125 209.527344 267.667969 208.652344 C 267.886719 207.851562 268.472656 207.195312 269.125 206.757812 C 269.707031 206.394531 270.582031 206.105469 271.382812 206.175781 C 272.332031 206.394531 273.859375 207.414062 274.367188 208.289062 C 274.804688 209.015625 274.804688 210.035156 274.585938 210.835938 C 274.367188 211.636719 273.714844 212.511719 273.058594 212.875 C 272.402344 213.3125 271.3125 213.53125 270.507812 213.457031 C 269.707031 213.3125 269.273438 213.167969 268.324219 212.148438 C 262.792969 206.613281 230.898438 150.253906 228.566406 142.683594 C 228.132812 141.296875 228.132812 140.863281 228.347656 140.0625 C 228.566406 139.332031 229.152344 138.386719 229.953125 138.023438 C 230.753906 137.585938 232.355469 137.4375 233.300781 137.730469 C 234.101562 138.023438 235.121094 139.550781 235.121094 139.550781 "/></clipPath><clipPath id="6048fc168c"><path d="M 267.199219 154.425781 L 322.894531 154.425781 L 322.894531 213.242188 L 267.199219 213.242188 Z M 267.199219 154.425781 "/></clipPath><clipPath id="382109eb97"><path d="M 269.273438 206.324219 C 282.667969 195.546875 293.519531 179.671875 301.09375 171.371094 C 306.917969 164.964844 314.417969 156.589844 317.546875 155.0625 C 318.566406 154.550781 319.152344 154.550781 319.804688 154.695312 C 320.535156 154.84375 321.40625 155.277344 321.84375 155.789062 C 322.355469 156.371094 322.792969 157.171875 322.792969 157.902344 C 322.863281 158.628906 322.644531 159.574219 322.28125 160.15625 C 321.917969 160.8125 321.261719 161.46875 320.535156 161.6875 C 319.585938 161.90625 317.914062 161.757812 317.113281 161.25 C 316.457031 160.886719 315.945312 160.15625 315.726562 159.355469 C 315.507812 158.484375 315.800781 156.808594 316.3125 156.007812 C 316.746094 155.351562 317.476562 154.914062 318.277344 154.769531 C 319.222656 154.550781 320.824219 154.988281 321.625 155.496094 C 322.207031 156.007812 322.644531 156.808594 322.792969 157.535156 C 322.9375 158.265625 322.9375 158.847656 322.5 159.867188 C 321.042969 162.777344 313.617188 168.3125 308.226562 174.285156 C 300.292969 183.023438 287.039062 202.027344 280.265625 207.996094 C 277.136719 210.691406 274.441406 212.222656 272.476562 212.875 C 271.457031 213.242188 270.726562 213.3125 269.925781 213.09375 C 269.125 212.875 268.253906 212.222656 267.816406 211.636719 C 267.453125 211.128906 267.304688 210.546875 267.234375 209.964844 C 267.160156 209.382812 267.234375 208.796875 267.523438 208.214844 C 267.816406 207.5625 269.273438 206.324219 269.273438 206.324219 "/></clipPath><clipPath id="6e4c541f16"><path d="M 296.949219 154.578125 L 322.808594 154.578125 L 322.808594 241.3125 L 296.949219 241.3125 Z M 296.949219 154.578125 "/></clipPath><clipPath id="32dc9f638a"><path d="M 322.792969 158.773438 C 303.640625 239.597656 303.640625 239.890625 302.984375 240.402344 C 302.257812 240.910156 300.582031 241.347656 299.636719 241.128906 C 298.90625 241.054688 298.179688 240.546875 297.742188 239.890625 C 297.160156 239.089844 296.796875 237.488281 297.085938 236.542969 C 297.378906 235.59375 298.6875 234.503906 299.5625 234.136719 C 300.292969 233.847656 301.164062 233.992188 301.894531 234.210938 C 302.546875 234.503906 303.277344 235.011719 303.640625 235.667969 C 304.078125 236.542969 304.222656 238.214844 303.933594 239.089844 C 303.640625 239.816406 302.984375 240.472656 302.332031 240.835938 C 301.675781 241.203125 300.800781 241.347656 300.074219 241.203125 C 299.34375 241.128906 298.472656 240.765625 297.960938 240.183594 C 297.378906 239.453125 297.085938 238.726562 297.015625 236.90625 C 296.722656 227.949219 312.085938 164.015625 315.800781 156.953125 C 316.457031 155.714844 316.820312 155.425781 317.546875 155.0625 C 318.277344 154.695312 319.296875 154.550781 320.097656 154.769531 C 320.898438 154.914062 321.773438 155.570312 322.207031 156.226562 C 322.644531 156.882812 322.792969 158.773438 322.792969 158.773438 "/></clipPath><clipPath id="163e3ce9e6"><path d="M 40.300781 134 L 63.5 134 L 63.5 158.746094 L 40.300781 158.746094 Z M 40.300781 134 "/></clipPath><clipPath id="db948c6ef1"><path d="M 53.8125 158.703125 C 43.835938 155.496094 42.960938 154.550781 42.234375 153.457031 C 41.503906 152.4375 40.996094 150.984375 40.703125 149.746094 C 40.414062 148.507812 40.339844 147.34375 40.414062 146.03125 C 40.484375 144.722656 40.558594 143.335938 41.140625 141.882812 C 42.015625 139.84375 43.980469 136.636719 46.09375 135.328125 C 48.058594 134.164062 51.1875 134.015625 53.226562 134.089844 C 54.613281 134.089844 55.703125 134.234375 56.796875 134.746094 C 57.960938 135.328125 59.054688 136.054688 60 137.292969 C 61.3125 138.96875 62.839844 142.464844 63.277344 144.722656 C 63.566406 146.324219 63.347656 147.777344 63.058594 149.164062 C 62.839844 150.472656 62.476562 151.710938 61.820312 152.804688 C 61.238281 153.894531 60.507812 154.914062 59.34375 155.714844 C 57.886719 156.882812 55.046875 158.554688 53.445312 158.410156 C 52.355469 158.335938 51.1875 157.246094 50.679688 156.445312 C 50.242188 155.789062 50.097656 154.914062 50.316406 154.1875 C 50.535156 153.242188 51.480469 151.855469 52.425781 151.492188 C 53.300781 151.054688 54.976562 151.203125 55.777344 151.710938 C 56.652344 152.222656 57.453125 153.675781 57.523438 154.625 C 57.597656 155.425781 57.304688 156.296875 56.867188 156.882812 C 56.433594 157.464844 55.703125 158.046875 55.046875 158.265625 C 54.320312 158.484375 53.375 158.484375 52.71875 158.265625 C 51.992188 157.972656 51.261719 157.390625 50.824219 156.808594 C 50.460938 156.226562 50.242188 155.277344 50.242188 154.550781 C 50.316406 153.824219 50.605469 153.023438 51.117188 152.4375 C 51.773438 151.710938 53.300781 151.566406 54.101562 150.835938 C 54.902344 150.035156 55.632812 148.796875 55.996094 147.707031 C 56.359375 146.542969 56.578125 145.011719 56.140625 143.992188 C 55.558594 142.902344 53.882812 141.445312 52.71875 141.371094 C 51.699219 141.226562 50.386719 142.246094 49.515625 143.046875 C 48.640625 143.847656 47.695312 145.011719 47.546875 146.175781 C 47.402344 147.34375 48.058594 149.089844 49.078125 150.035156 C 50.386719 151.203125 54.101562 150.984375 55.484375 151.855469 C 56.359375 152.367188 56.941406 153.023438 57.234375 153.824219 C 57.523438 154.695312 57.378906 156.296875 56.796875 157.171875 C 56.214844 157.972656 53.8125 158.703125 53.8125 158.703125 "/></clipPath><clipPath id="8220da5ce0"><path d="M 137.625 115.125 L 160.769531 115.125 L 160.769531 138.609375 L 137.625 138.609375 Z M 137.625 115.125 "/></clipPath><clipPath id="3718250abe"><path d="M 149.199219 138.53125 C 139.804688 135.035156 139.003906 134.164062 138.496094 133.144531 C 137.984375 132.050781 137.914062 130.667969 137.839844 129.429688 C 137.695312 128.265625 137.621094 127.027344 137.839844 125.714844 C 137.984375 124.40625 138.347656 123.023438 139.152344 121.710938 C 140.242188 119.890625 142.71875 117.125 144.464844 116.105469 C 145.632812 115.449219 146.796875 115.304688 148.035156 115.230469 C 149.273438 115.15625 150.65625 115.375 151.894531 115.667969 C 153.203125 116.03125 154.515625 116.6875 155.605469 117.414062 C 156.625 118.144531 157.644531 119.089844 158.445312 120.109375 C 159.246094 121.128906 159.902344 122.4375 160.265625 123.675781 C 160.632812 124.84375 160.703125 126.152344 160.703125 127.390625 C 160.703125 128.628906 160.632812 130.011719 160.195312 131.175781 C 159.832031 132.34375 159.246094 133.582031 158.445312 134.453125 C 157.574219 135.402344 156.554688 136.054688 155.316406 136.492188 C 153.566406 137.148438 150.21875 137.585938 148.761719 137.148438 C 147.886719 136.929688 147.304688 136.417969 146.941406 135.691406 C 146.503906 134.890625 146.359375 133.214844 146.722656 132.269531 C 147.160156 131.394531 148.472656 130.449219 149.417969 130.15625 C 150.144531 130.011719 151.019531 130.085938 151.675781 130.523438 C 152.546875 131.03125 153.566406 132.34375 153.640625 133.289062 C 153.785156 134.308594 153.132812 135.835938 152.476562 136.492188 C 151.894531 137.074219 151.019531 137.367188 150.292969 137.367188 C 149.5625 137.4375 148.6875 137.292969 148.035156 136.785156 C 147.304688 136.273438 146.433594 134.816406 146.433594 133.796875 C 146.433594 132.851562 147.160156 131.394531 147.960938 130.8125 C 148.761719 130.230469 150.4375 130.957031 151.382812 130.375 C 152.332031 129.722656 153.421875 127.902344 153.496094 126.664062 C 153.496094 125.570312 152.765625 124.042969 151.820312 123.386719 C 150.875 122.730469 148.761719 122.367188 147.597656 122.804688 C 146.503906 123.242188 145.558594 124.769531 145.121094 125.933594 C 144.613281 127.027344 144.101562 128.703125 144.757812 129.648438 C 145.558594 130.886719 149.707031 130.667969 151.09375 131.757812 C 152.113281 132.488281 152.839844 133.582031 152.914062 134.527344 C 153.058594 135.546875 152.332031 137.003906 151.675781 137.65625 C 151.019531 138.242188 149.199219 138.53125 149.199219 138.53125 "/></clipPath><clipPath id="d471ab2070"><path d="M 223.859375 120.644531 L 245.289062 120.644531 L 245.289062 142.605469 L 223.859375 142.605469 Z M 223.859375 120.644531 "/></clipPath><clipPath id="8866cb86c2"><path d="M 223.90625 129.066406 C 226.09375 124.1875 227.113281 123.09375 228.203125 122.367188 C 229.296875 121.636719 230.753906 121.273438 231.992188 120.984375 C 233.226562 120.765625 234.464844 120.691406 235.777344 120.691406 C 237.015625 120.691406 238.472656 120.546875 239.636719 120.984375 C 240.726562 121.492188 241.820312 122.367188 242.621094 123.386719 C 243.421875 124.332031 244.003906 125.644531 244.441406 126.882812 C 244.878906 128.046875 245.023438 129.285156 245.167969 130.523438 C 245.242188 131.832031 245.386719 133.289062 245.023438 134.527344 C 244.734375 135.691406 244.003906 136.929688 243.203125 137.875 C 242.402344 138.824219 241.238281 139.550781 240.144531 140.207031 C 239.054688 140.933594 237.378906 141.808594 236.503906 141.953125 C 235.996094 142.027344 235.703125 141.808594 235.414062 141.808594 C 235.121094 141.882812 234.902344 142.097656 234.683594 142.246094 C 234.394531 142.316406 234.101562 142.464844 233.8125 142.464844 C 233.519531 142.535156 233.226562 142.535156 232.9375 142.535156 C 232.644531 142.464844 232.136719 142.316406 232.136719 142.316406 C 232.136719 142.316406 231.261719 142.171875 230.753906 141.882812 C 229.878906 141.371094 228.496094 140.425781 227.546875 139.476562 C 226.527344 138.53125 225.507812 137.511719 224.925781 136.347656 C 224.34375 135.253906 224.199219 133.945312 223.980469 132.707031 C 223.835938 131.542969 223.90625 129.066406 223.90625 129.066406 M 230.824219 132.125 C 232.863281 134.671875 232.863281 134.597656 232.863281 134.597656 C 232.863281 134.597656 232.863281 134.597656 232.9375 134.597656 C 232.9375 134.597656 233.082031 134.597656 233.082031 134.597656 C 233.15625 134.597656 233.226562 134.527344 233.300781 134.527344 C 233.375 134.527344 233.445312 134.597656 233.59375 134.597656 C 234.027344 134.597656 235.265625 134.816406 235.996094 134.382812 C 236.867188 133.871094 238.035156 132.195312 238.035156 131.105469 C 237.960938 130.085938 236.796875 128.410156 235.777344 127.972656 C 234.832031 127.609375 233.007812 127.902344 232.136719 128.628906 C 231.335938 129.285156 230.824219 132.125 230.824219 132.125 "/></clipPath><clipPath id="687882d8c8"><path d="M 311.039062 138.070312 L 334.691406 138.070312 L 334.691406 161.386719 L 311.039062 161.386719 Z M 311.039062 138.070312 "/></clipPath><clipPath id="3b25513ee8"><path d="M 316.09375 160.449219 C 312.234375 155.933594 311.796875 154.988281 311.503906 153.53125 C 311.066406 151.492188 310.921875 147.851562 311.359375 145.8125 C 311.652344 144.503906 312.304688 143.554688 313.035156 142.535156 C 313.835938 141.515625 314.78125 140.644531 316.164062 139.914062 C 317.984375 138.96875 321.261719 138.242188 323.300781 138.167969 C 324.832031 138.09375 326.066406 138.386719 327.234375 138.894531 C 328.398438 139.332031 329.34375 139.988281 330.292969 141.007812 C 331.675781 142.464844 333.566406 145.523438 334.222656 147.414062 C 334.660156 148.726562 334.660156 149.816406 334.585938 151.054688 C 334.441406 152.292969 334.003906 153.605469 333.421875 154.769531 C 332.765625 155.933594 331.894531 157.097656 330.875 157.902344 C 330 158.773438 329.054688 159.285156 327.742188 159.792969 C 325.777344 160.523438 322.28125 161.6875 319.953125 161.175781 C 317.765625 160.667969 314.855469 158.265625 313.980469 157.246094 C 313.6875 156.808594 313.617188 156.589844 313.617188 156.152344 C 313.542969 155.496094 313.472656 154.476562 313.835938 153.824219 C 314.34375 153.023438 315.65625 151.929688 316.601562 151.785156 C 317.621094 151.636719 319.152344 152.222656 319.804688 152.949219 C 320.535156 153.675781 320.898438 155.277344 320.679688 156.226562 C 320.460938 157.246094 319.367188 158.410156 318.421875 158.773438 C 317.546875 159.136719 315.875 158.992188 315.074219 158.410156 C 314.273438 157.828125 313.472656 156.371094 313.542969 155.351562 C 313.542969 154.332031 314.34375 152.875 315.144531 152.367188 C 316.019531 151.785156 317.546875 151.785156 318.566406 152.003906 C 319.585938 152.292969 320.242188 153.75 321.261719 153.96875 C 322.28125 154.1875 323.882812 153.75 324.832031 153.09375 C 325.847656 152.511719 327.160156 151.273438 327.304688 150.183594 C 327.453125 149.164062 326.722656 147.632812 325.921875 146.832031 C 325.046875 146.03125 323.59375 145.375 322.5 145.375 C 321.335938 145.375 319.804688 145.957031 319.078125 146.757812 C 318.421875 147.632812 318.277344 149.234375 318.347656 150.472656 C 318.421875 151.636719 319.003906 152.949219 319.585938 153.96875 C 320.097656 154.988281 321.480469 155.714844 321.773438 156.664062 C 321.992188 157.464844 321.84375 158.484375 321.40625 159.210938 C 320.898438 160.011719 319.585938 160.957031 318.640625 161.105469 C 317.765625 161.25 316.09375 160.449219 316.09375 160.449219 "/></clipPath><clipPath id="1105416454"><path d="M 252.488281 152.476562 L 291.734375 152.476562 L 291.734375 192.425781 L 252.488281 192.425781 Z M 252.488281 152.476562 "/></clipPath><clipPath id="3fbd37062a"><path d="M 253.542969 180.183594 C 265.632812 165.691406 269.925781 157.027344 272.695312 154.476562 C 273.933594 153.3125 274.804688 152.585938 275.898438 152.585938 C 277.0625 152.585938 278.226562 153.386719 279.246094 154.550781 C 281.066406 156.589844 282.234375 160.8125 283.90625 165.035156 C 286.238281 171.296875 291.480469 184.769531 291.554688 188.484375 C 291.625 189.648438 291.480469 190.15625 290.972656 190.742188 C 290.386719 191.46875 288.859375 192.269531 287.914062 192.34375 C 287.183594 192.414062 286.3125 192.050781 285.726562 191.613281 C 285.144531 191.175781 284.5625 190.449219 284.417969 189.648438 C 284.273438 188.773438 284.492188 187.097656 285.144531 186.371094 C 285.800781 185.570312 287.328125 184.988281 288.347656 185.0625 C 289.367188 185.207031 290.679688 186.226562 291.1875 187.027344 C 291.554688 187.683594 291.625 188.554688 291.554688 189.285156 C 291.40625 190.011719 291.042969 190.886719 290.460938 191.324219 C 289.734375 191.90625 288.132812 192.488281 287.183594 192.269531 C 286.164062 192.050781 285.363281 191.25 284.5625 190.011719 C 282.886719 187.464844 281.941406 180.617188 280.121094 175.59375 C 278.082031 169.988281 271.601562 159.210938 272.839844 157.902344 C 273.496094 157.246094 277.355469 158.410156 277.792969 159.792969 C 278.664062 162.632812 268.6875 173.773438 265.046875 178.363281 C 262.71875 181.273438 260.535156 183.894531 258.859375 185.132812 C 257.984375 185.789062 257.328125 186.226562 256.527344 186.296875 C 255.726562 186.371094 254.707031 186.007812 254.054688 185.644531 C 253.542969 185.277344 253.179688 184.769531 252.960938 184.257812 C 252.667969 183.75 252.523438 183.167969 252.597656 182.585938 C 252.597656 181.855469 253.542969 180.183594 253.542969 180.183594 "/></clipPath><clipPath id="0971c663ce"><path d="M 174.117188 154.132812 L 211.417969 154.132812 L 211.417969 189.046875 L 174.117188 189.046875 Z M 174.117188 154.132812 "/></clipPath><clipPath id="99326053b0"><path d="M 174.175781 181.203125 C 176.578125 171.808594 182.402344 159.285156 185.242188 156.152344 C 186.40625 154.914062 187.355469 154.257812 188.445312 154.1875 C 189.539062 154.113281 190.703125 154.769531 191.867188 155.644531 C 193.472656 156.808594 194.925781 158.703125 196.820312 161.175781 C 200.242188 165.617188 207.378906 176.394531 209.5625 180.546875 C 210.507812 182.367188 211.09375 183.53125 211.238281 184.769531 C 211.3125 185.570312 211.238281 186.371094 210.875 187.027344 C 210.363281 187.828125 209.054688 188.847656 208.035156 188.917969 C 207.015625 189.066406 205.484375 188.484375 204.832031 187.683594 C 204.175781 186.953125 203.8125 185.351562 204.101562 184.40625 C 204.394531 183.386719 205.484375 182.222656 206.433594 181.855469 C 207.378906 181.566406 209.054688 181.855469 209.855469 182.4375 C 210.65625 183.023438 211.3125 184.550781 211.238281 185.496094 C 211.238281 186.515625 210.292969 187.902344 209.492188 188.484375 C 208.90625 188.917969 207.960938 189.066406 207.234375 188.992188 C 206.503906 188.847656 205.921875 188.703125 205.121094 187.972656 C 202.863281 185.933594 199.152344 176.976562 195.800781 172.246094 C 192.886719 167.949219 186.117188 160.8125 186.480469 160.449219 C 186.625 160.304688 189.613281 161.613281 189.902344 162.996094 C 190.558594 165.546875 184.367188 172.902344 182.839844 176.613281 C 181.820312 179.164062 181.894531 181.710938 180.945312 183.09375 C 180.4375 183.96875 179.707031 184.476562 178.980469 184.769531 C 178.253906 185.0625 177.085938 184.914062 176.433594 184.695312 C 175.847656 184.476562 175.339844 184.113281 174.976562 183.675781 C 174.539062 183.09375 174.175781 181.203125 174.175781 181.203125 "/></clipPath><clipPath id="f0b1fd482a"><path d="M 82.683594 157.777344 L 121.847656 157.777344 L 121.847656 193.265625 L 82.683594 193.265625 Z M 82.683594 157.777344 "/></clipPath><clipPath id="3782b393c7"><path d="M 83.007812 187.753906 C 91.019531 175.230469 94.878906 162.125 98.082031 159.285156 C 99.464844 158.117188 100.921875 157.753906 102.085938 157.972656 C 103.253906 158.191406 103.90625 159.355469 105 160.523438 C 106.964844 162.5625 109.660156 166.203125 112.0625 169.84375 C 115.121094 174.574219 120.800781 183.605469 121.527344 186.734375 C 121.820312 187.828125 121.675781 188.335938 121.457031 189.066406 C 121.164062 189.722656 120.65625 190.523438 120 190.886719 C 119.125 191.324219 117.453125 191.394531 116.578125 191.105469 C 115.847656 190.886719 115.195312 190.304688 114.832031 189.574219 C 114.464844 188.703125 114.320312 187.027344 114.757812 186.152344 C 115.265625 185.277344 116.652344 184.40625 117.597656 184.1875 C 118.324219 184.042969 119.199219 184.257812 119.855469 184.625 C 120.507812 184.988281 121.164062 185.644531 121.382812 186.371094 C 121.675781 187.246094 121.675781 188.917969 121.09375 189.792969 C 120.582031 190.59375 119.125 191.394531 118.105469 191.394531 C 117.085938 191.46875 116.214844 190.957031 115.046875 189.867188 C 112.425781 187.390625 108.640625 177.851562 105.582031 173.191406 C 103.179688 169.625 98.226562 164.453125 98.59375 164.089844 C 98.882812 163.796875 102.015625 164.964844 102.453125 166.347656 C 103.324219 169.257812 97.574219 178.726562 94.804688 183.386719 C 92.546875 187.171875 89.34375 191.832031 87.597656 192.851562 C 86.941406 193.214844 86.503906 193.144531 85.847656 193.070312 C 85.121094 192.925781 84.101562 192.414062 83.59375 191.832031 C 83.15625 191.46875 82.863281 190.957031 82.71875 190.304688 C 82.644531 189.574219 83.007812 187.753906 83.007812 187.753906 "/></clipPath><clipPath id="8249db0060"><path d="M 59 238.792969 L 140.054688 238.792969 L 140.054688 259.046875 L 59 259.046875 Z M 59 238.792969 "/></clipPath><clipPath id="c3edea8458"><path d="M 63.203125 238.871094 C 110.898438 249.722656 132.960938 250.011719 137.546875 251.832031 C 138.640625 252.269531 139.003906 252.632812 139.367188 253.214844 C 139.804688 253.871094 140.097656 254.746094 140.023438 255.472656 C 139.953125 256.203125 139.734375 257.074219 139.152344 257.65625 C 138.496094 258.3125 136.964844 259.042969 136.019531 258.894531 C 135 258.824219 133.617188 257.875 133.179688 257.003906 C 132.667969 256.128906 132.816406 254.453125 133.179688 253.582031 C 133.472656 252.851562 134.125 252.269531 134.855469 251.976562 C 135.726562 251.6875 137.402344 251.757812 138.277344 252.195312 C 138.933594 252.488281 139.515625 253.289062 139.804688 253.945312 C 140.023438 254.597656 140.097656 255.546875 139.878906 256.273438 C 139.734375 257.003906 139.152344 257.730469 138.566406 258.167969 C 137.984375 258.605469 137.621094 258.824219 136.382812 258.96875 C 131.359375 259.476562 107.984375 256.417969 96.773438 254.597656 C 88.253906 253.144531 80.972656 251.394531 74.5625 249.722656 C 69.464844 248.484375 63.496094 247.171875 61.164062 245.789062 C 60.144531 245.207031 59.636719 244.769531 59.273438 244.042969 C 58.980469 243.242188 58.90625 242.222656 59.125 241.417969 C 59.34375 240.691406 60 239.816406 60.65625 239.382812 C 61.382812 238.945312 63.203125 238.871094 63.203125 238.871094 "/></clipPath><clipPath id="cea2853f6f"><path d="M 130.421875 251.425781 L 194.984375 251.425781 L 194.984375 260.199219 L 130.421875 260.199219 Z M 130.421875 251.425781 "/></clipPath><clipPath id="c972de1049"><path d="M 134.199219 251.46875 C 165.363281 252.707031 187.425781 250.957031 192.160156 252.414062 C 193.398438 252.851562 193.835938 253.289062 194.273438 253.945312 C 194.707031 254.597656 195 255.617188 194.925781 256.417969 C 194.78125 257.222656 194.273438 258.167969 193.6875 258.675781 C 193.105469 259.257812 192.160156 259.695312 191.285156 259.625 C 190.265625 259.550781 188.664062 258.53125 188.082031 257.730469 C 187.644531 257.074219 187.5 256.203125 187.71875 255.402344 C 187.9375 254.527344 188.8125 253.144531 189.757812 252.707031 C 190.632812 252.269531 192.304688 252.34375 193.179688 252.851562 C 194.054688 253.363281 194.855469 254.746094 194.925781 255.765625 C 195 256.785156 194.273438 258.242188 193.472656 258.894531 C 192.667969 259.476562 191.066406 259.769531 190.121094 259.40625 C 189.175781 259.113281 188.082031 257.949219 187.792969 257.003906 C 187.5 255.984375 187.9375 254.382812 188.519531 253.652344 C 188.957031 252.996094 189.757812 252.5625 190.484375 252.414062 C 191.214844 252.269531 192.816406 252.707031 192.816406 252.707031 C 192.816406 252.632812 191.285156 252.269531 191.285156 252.34375 C 191.285156 252.414062 193.105469 252.632812 193.6875 253.289062 C 194.34375 253.945312 194.925781 255.472656 194.925781 256.417969 C 194.855469 257.292969 194.199219 258.167969 193.6875 258.675781 C 193.253906 259.113281 193.035156 259.332031 192.160156 259.550781 C 187.9375 260.570312 165.21875 260.0625 154.296875 259.695312 C 145.996094 259.476562 135.363281 259.84375 132.304688 258.3125 C 131.285156 257.730469 130.921875 257.074219 130.632812 256.347656 C 130.414062 255.546875 130.414062 254.453125 130.703125 253.726562 C 130.996094 252.996094 131.867188 252.195312 132.453125 251.832031 C 133.035156 251.542969 134.199219 251.46875 134.199219 251.46875 "/></clipPath><clipPath id="426fe67e39"><path d="M 59.789062 225.480469 L 121.132812 225.480469 L 121.132812 242.574219 L 59.789062 242.574219 Z M 59.789062 225.480469 "/></clipPath><clipPath id="846e6e18a6"><path d="M 63.640625 225.546875 C 97.207031 232.535156 114.246094 233.046875 118.617188 235.304688 C 120 236.105469 120.582031 236.90625 120.945312 237.777344 C 121.238281 238.582031 121.09375 239.453125 120.800781 240.109375 C 120.507812 240.835938 120 241.566406 119.34375 241.929688 C 118.472656 242.292969 116.796875 242.4375 115.921875 242.074219 C 115.195312 241.855469 114.539062 241.128906 114.246094 240.472656 C 113.882812 239.816406 113.664062 238.945312 113.8125 238.214844 C 114.101562 237.269531 115.046875 235.957031 115.921875 235.449219 C 116.578125 235.085938 117.523438 235.085938 118.179688 235.230469 C 118.90625 235.375 119.707031 235.886719 120.21875 236.394531 C 120.65625 236.976562 121.019531 237.851562 121.09375 238.582031 C 121.09375 239.308594 120.945312 240.253906 120.4375 240.835938 C 119.855469 241.566406 119.054688 242.148438 117.453125 242.4375 C 112.28125 243.3125 93.421875 239.308594 83.445312 237.488281 C 75.582031 236.03125 65.679688 234.210938 62.402344 232.609375 C 61.3125 232.097656 60.800781 231.734375 60.363281 231.082031 C 59.925781 230.351562 59.707031 229.332031 59.855469 228.53125 C 60 227.730469 60.582031 226.785156 61.164062 226.273438 C 61.820312 225.835938 63.640625 225.546875 63.640625 225.546875 "/></clipPath><clipPath id="57f8aea675"><path d="M 107.394531 234.191406 L 188.277344 234.191406 L 188.277344 245.492188 L 107.394531 245.492188 Z M 107.394531 234.191406 "/></clipPath><clipPath id="9ddc8342e6"><path d="M 111.40625 234.210938 C 149.273438 237.925781 178.90625 236.832031 184.585938 237.777344 C 185.824219 237.996094 186.1875 237.996094 186.773438 238.507812 C 187.5 239.164062 188.15625 240.691406 188.226562 241.636719 C 188.226562 242.367188 187.863281 243.242188 187.355469 243.75 C 186.699219 244.40625 185.167969 245.132812 184.152344 245.0625 C 183.203125 244.914062 181.820312 243.96875 181.3125 243.09375 C 180.875 242.222656 180.945312 240.546875 181.3125 239.671875 C 181.675781 239.015625 182.332031 238.363281 183.058594 238.144531 C 183.933594 237.777344 185.605469 237.851562 186.40625 238.289062 C 187.136719 238.652344 187.644531 239.382812 187.9375 240.035156 C 188.226562 240.765625 188.300781 241.710938 188.082031 242.367188 C 187.863281 243.09375 187.355469 243.894531 186.773438 244.332031 C 186.1875 244.769531 185.753906 244.84375 184.585938 245.0625 C 180.726562 245.714844 167.695312 245.351562 158.738281 245.207031 C 148.980469 245.0625 137.113281 244.769531 128.082031 243.894531 C 121.019531 243.167969 111.917969 242.585938 109.152344 240.910156 C 108.132812 240.328125 107.839844 239.597656 107.621094 238.871094 C 107.402344 238.289062 107.402344 237.707031 107.546875 237.125 C 107.695312 236.394531 108.277344 235.449219 108.933594 234.9375 C 109.585938 234.503906 111.40625 234.210938 111.40625 234.210938 "/></clipPath><clipPath id="f0af9ee7da"><path d="M 182.296875 248.886719 L 237.785156 248.886719 L 237.785156 259.640625 L 182.296875 259.640625 Z M 182.296875 248.886719 "/></clipPath><clipPath id="3daa6c6a50"><path d="M 185.898438 252.125 C 210 251.175781 221.285156 249.648438 225.65625 249.355469 C 227.476562 249.210938 228.566406 248.917969 229.515625 249.210938 C 230.242188 249.429688 230.460938 250.375 231.117188 250.449219 C 231.917969 250.523438 233.082031 248.847656 234.101562 248.917969 C 235.121094 248.917969 236.503906 249.792969 237.085938 250.523438 C 237.597656 251.105469 237.816406 251.976562 237.742188 252.777344 C 237.597656 253.652344 236.722656 255.109375 235.921875 255.691406 C 235.265625 256.128906 234.394531 256.203125 233.664062 256.128906 C 232.9375 256.054688 232.0625 255.691406 231.554688 255.183594 C 231.042969 254.671875 230.535156 253.871094 230.460938 253.070312 C 230.386719 252.125 230.898438 250.523438 231.625 249.867188 C 232.355469 249.210938 233.957031 248.847656 234.902344 248.992188 C 235.632812 249.066406 236.433594 249.648438 236.867188 250.15625 C 237.378906 250.742188 237.667969 251.613281 237.742188 252.34375 C 237.742188 253.070312 237.667969 254.015625 237.085938 254.597656 C 235.921875 255.691406 232.863281 255.910156 229.585938 256.492188 C 223.398438 257.511719 210.65625 258.53125 202.71875 258.96875 C 196.457031 259.332031 188.957031 259.914062 185.898438 259.40625 C 184.734375 259.1875 184.078125 259.042969 183.496094 258.457031 C 182.839844 257.804688 182.257812 256.273438 182.332031 255.328125 C 182.332031 254.453125 182.914062 253.578125 183.496094 252.996094 C 184.078125 252.488281 185.898438 252.125 185.898438 252.125 "/></clipPath><clipPath id="9e67a1a768"><path d="M 223.289062 234.757812 L 303.921875 234.757812 L 303.921875 256.855469 L 223.289062 256.855469 Z M 223.289062 234.757812 "/></clipPath><clipPath id="40ea77507b"><path d="M 227.039062 249.355469 C 247.28125 248.410156 258.203125 247.246094 266.578125 245.714844 C 274.367188 244.332031 282.886719 242.511719 288.859375 240.328125 C 293.15625 238.726562 297.160156 235.304688 299.5625 234.9375 C 300.65625 234.792969 301.382812 234.9375 302.113281 235.375 C 302.765625 235.8125 303.421875 236.613281 303.714844 237.414062 C 303.933594 238.144531 303.933594 239.234375 303.566406 239.964844 C 303.277344 240.691406 302.546875 241.492188 301.746094 241.785156 C 300.945312 242.148438 299.78125 242.292969 298.90625 241.929688 C 298.035156 241.492188 297.015625 240.253906 296.722656 239.308594 C 296.433594 238.582031 296.578125 237.707031 296.941406 237.050781 C 297.378906 236.175781 298.617188 235.085938 299.636719 234.9375 C 300.582031 234.722656 302.113281 235.375 302.839844 235.957031 C 303.421875 236.46875 303.859375 237.269531 303.859375 238.070312 C 303.859375 239.015625 303.277344 240.617188 302.621094 241.273438 C 302.113281 241.785156 301.238281 242.074219 300.507812 242.148438 C 299.707031 242.222656 298.835938 242.003906 298.253906 241.566406 C 297.453125 240.984375 296.652344 239.453125 296.578125 238.582031 C 296.503906 237.777344 296.796875 236.90625 297.304688 236.324219 C 297.960938 235.59375 300.4375 235.011719 300.363281 234.867188 C 300.363281 234.792969 298.6875 235.15625 298.6875 235.230469 C 298.6875 235.304688 301.238281 234.9375 302.113281 235.375 C 302.839844 235.742188 303.421875 236.6875 303.714844 237.414062 C 303.933594 237.996094 303.933594 238.507812 303.859375 239.164062 C 303.640625 239.816406 303.132812 240.691406 302.476562 241.347656 C 301.746094 242.222656 300.800781 242.875 299.199219 243.75 C 296.140625 245.425781 289.660156 247.683594 284.707031 249.210938 C 279.832031 250.59375 275.679688 251.46875 269.855469 252.488281 C 261.699219 253.945312 248.226562 255.617188 240.292969 256.203125 C 234.976562 256.636719 229.660156 257.074219 227.039062 256.636719 C 225.875 256.417969 225.21875 256.347656 224.5625 255.691406 C 223.90625 255.035156 223.324219 253.507812 223.398438 252.5625 C 223.472656 251.6875 223.980469 250.8125 224.5625 250.304688 C 225.21875 249.722656 227.039062 249.355469 227.039062 249.355469 "/></clipPath><clipPath id="ef75116ec2"><path d="M 175.964844 235.125 L 239.699219 235.125 L 239.699219 245.089844 L 175.964844 245.089844 Z M 175.964844 235.125 "/></clipPath><clipPath id="1abbf7e699"><path d="M 179.636719 237.414062 C 237.667969 235.523438 238.324219 235.957031 238.980469 236.6875 C 239.492188 237.269531 239.707031 238.144531 239.636719 238.945312 C 239.5625 239.890625 238.6875 241.347656 237.960938 241.855469 C 237.304688 242.367188 236.433594 242.511719 235.703125 242.4375 C 234.976562 242.367188 234.101562 242.003906 233.59375 241.492188 C 233.007812 240.984375 232.574219 240.183594 232.425781 239.453125 C 232.28125 238.726562 232.355469 237.851562 232.71875 237.195312 C 233.226562 236.394531 234.613281 235.375 235.558594 235.230469 C 236.285156 235.011719 237.160156 235.230469 237.816406 235.667969 C 238.617188 236.175781 239.492188 237.5625 239.636719 238.507812 C 239.78125 239.308594 239.5625 240.183594 239.054688 240.765625 C 238.472656 241.566406 237.816406 241.929688 236.066406 242.4375 C 229.152344 244.40625 186.042969 245.714844 179.636719 244.695312 C 178.253906 244.476562 177.816406 244.332031 177.234375 243.75 C 176.503906 243.09375 175.921875 241.566406 175.996094 240.617188 C 176.066406 239.746094 176.578125 238.871094 177.234375 238.289062 C 177.816406 237.777344 179.636719 237.414062 179.636719 237.414062 "/></clipPath><clipPath id="39b65b468f"><path d="M 225.582031 230.425781 L 276.117188 230.425781 L 276.117188 243.3125 L 225.582031 243.3125 Z M 225.582031 230.425781 "/></clipPath><clipPath id="cbab603a04"><path d="M 229.222656 235.957031 C 273.640625 230.644531 274.441406 230.933594 275.167969 231.589844 C 275.679688 232.097656 276.042969 232.972656 276.117188 233.703125 C 276.117188 234.648438 275.460938 236.25 274.734375 236.90625 C 274.222656 237.414062 273.347656 237.632812 272.621094 237.707031 C 271.820312 237.707031 270.945312 237.5625 270.363281 237.050781 C 269.636719 236.394531 268.90625 234.9375 268.835938 233.992188 C 268.761719 233.191406 269.125 232.390625 269.5625 231.808594 C 270.074219 231.226562 270.800781 230.644531 271.527344 230.496094 C 272.476562 230.351562 274.078125 230.789062 274.878906 231.296875 C 275.460938 231.808594 275.898438 232.609375 276.042969 233.335938 C 276.1875 234.066406 276.117188 234.9375 275.753906 235.667969 C 275.242188 236.46875 274.585938 237.050781 272.984375 237.632812 C 267.234375 239.964844 234.757812 243.894531 229.222656 243.242188 C 227.914062 243.09375 227.402344 242.949219 226.820312 242.367188 C 226.09375 241.636719 225.582031 240.109375 225.582031 239.164062 C 225.65625 238.363281 226.238281 237.414062 226.820312 236.90625 C 227.402344 236.324219 229.222656 235.957031 229.222656 235.957031 "/></clipPath><clipPath id="3e3e4d27ee"><path d="M 263.546875 223.753906 L 304.484375 223.753906 L 304.484375 238.566406 L 263.546875 238.566406 Z M 263.546875 223.753906 "/></clipPath><clipPath id="0600327508"><path d="M 267.234375 231.078125 C 289.515625 227.222656 297.304688 223.945312 300.292969 223.796875 C 301.382812 223.726562 301.964844 223.796875 302.621094 224.234375 C 303.347656 224.746094 304.296875 226.128906 304.441406 227.074219 C 304.585938 227.875 304.296875 228.75 303.859375 229.332031 C 303.496094 229.988281 302.839844 230.570312 302.113281 230.789062 C 301.164062 231.078125 299.5625 230.933594 298.6875 230.351562 C 297.886719 229.769531 297.234375 228.242188 297.160156 227.292969 C 297.160156 226.566406 297.453125 225.691406 297.960938 225.109375 C 298.617188 224.453125 300.144531 223.796875 301.09375 223.796875 C 301.894531 223.726562 302.695312 224.164062 303.203125 224.671875 C 303.785156 225.183594 304.222656 225.984375 304.367188 226.710938 C 304.515625 227.4375 304.441406 228.3125 304.078125 228.96875 C 303.785156 229.625 303.421875 230.0625 302.476562 230.644531 C 299.707031 232.246094 289.585938 234.648438 284.125 235.957031 C 279.902344 236.976562 275.972656 237.925781 272.695312 238.214844 C 270.292969 238.433594 267.816406 238.726562 266.359375 238.289062 C 265.414062 237.996094 264.683594 237.488281 264.246094 236.757812 C 263.738281 236.105469 263.519531 235.085938 263.59375 234.285156 C 263.664062 233.484375 264.175781 232.535156 264.832031 232.027344 C 265.414062 231.445312 267.234375 231.078125 267.234375 231.078125 "/></clipPath></defs><g id="c8862069ec"><g clip-rule="nonzero" clip-path="url(#c82ae6db5f)"><g clip-rule="nonzero" clip-path="url(#0b77311409)"><path style=" stroke:none;fill-rule:nonzero;fill:currentColor;fill-opacity:1;" d="M 47.039062 151.785156 L 69.320312 151.785156 L 69.320312 247.265625 L 47.039062 247.265625 Z M 47.039062 151.785156 "/></g></g><g clip-rule="nonzero" clip-path="url(#ff4faa97ec)"><g clip-rule="nonzero" clip-path="url(#ef7428c934)"><path style=" stroke:none;fill-rule:nonzero;fill:currentColor;fill-opacity:1;" d="M 47.183594 151.785156 L 111.992188 151.785156 L 111.992188 221.398438 L 47.183594 221.398438 Z M 47.183594 151.785156 "/></g></g><g clip-rule="nonzero" clip-path="url(#04550ec65f)"><g clip-rule="nonzero" clip-path="url(#d828ef46d1)"><path style=" stroke:none;fill-rule:nonzero;fill:currentColor;fill-opacity:1;" d="M 98.957031 129.867188 L 155.898438 129.867188 L 155.898438 221.285156 L 98.957031 221.285156 Z M 98.957031 129.867188 "/></g></g><g clip-rule="nonzero" clip-path="url(#ed3928cb40)"><g clip-rule="nonzero" clip-path="url(#b98e879c1f)"><path style=" stroke:none;fill-rule:nonzero;fill:currentColor;fill-opacity:1;" d="M 142.863281 129.867188 L 200.535156 129.867188 L 200.535156 218.398438 L 142.863281 218.398438 Z M 142.863281 129.867188 "/></g></g><g clip-rule="nonzero" clip-path="url(#5388b48454)"><g clip-rule="nonzero" clip-path="url(#bd0c71c6a2)"><path style=" stroke:none;fill-rule:nonzero;fill:currentColor;fill-opacity:1;" d="M 187.425781 134.597656 L 238.324219 134.597656 L 238.324219 218.5 L 187.425781 218.5 Z M 187.425781 134.597656 "/></g></g><g clip-rule="nonzero" clip-path="url(#9f1459b899)"><g clip-rule="nonzero" clip-path="url(#8097c78049)"><path style=" stroke:none;fill-rule:nonzero;fill:currentColor;fill-opacity:1;" d="M 225.4375 134.816406 L 277.574219 134.816406 L 277.574219 216.28125 L 225.4375 216.28125 Z M 225.4375 134.816406 "/></g></g><g clip-rule="nonzero" clip-path="url(#6048fc168c)"><g clip-rule="nonzero" clip-path="url(#382109eb97)"><path style=" stroke:none;fill-rule:nonzero;fill:currentColor;fill-opacity:1;" d="M 264.320312 151.785156 L 325.777344 151.785156 L 325.777344 216.121094 L 264.320312 216.121094 Z M 264.320312 151.785156 "/></g></g><g clip-rule="nonzero" clip-path="url(#6e4c541f16)"><g clip-rule="nonzero" clip-path="url(#32dc9f638a)"><path style=" stroke:none;fill-rule:nonzero;fill:currentColor;fill-opacity:1;" d="M 294.101562 151.855469 L 325.777344 151.855469 L 325.777344 244.160156 L 294.101562 244.160156 Z M 294.101562 151.855469 "/></g></g><g clip-rule="nonzero" clip-path="url(#163e3ce9e6)"><g clip-rule="nonzero" clip-path="url(#db948c6ef1)"><path style=" stroke:none;fill-rule:nonzero;fill:currentColor;fill-opacity:1;" d="M 37.5 131.175781 L 66.1875 131.175781 L 66.1875 161.660156 L 37.5 161.660156 Z M 37.5 131.175781 "/></g></g><g clip-rule="nonzero" clip-path="url(#8220da5ce0)"><g clip-rule="nonzero" clip-path="url(#3718250abe)"><path style=" stroke:none;fill-rule:nonzero;fill:currentColor;fill-opacity:1;" d="M 134.925781 112.316406 L 163.6875 112.316406 L 163.6875 141.417969 L 134.925781 141.417969 Z M 134.925781 112.316406 "/></g></g><g clip-rule="nonzero" clip-path="url(#d471ab2070)"><g clip-rule="nonzero" clip-path="url(#8866cb86c2)"><path style=" stroke:none;fill-rule:nonzero;fill:currentColor;fill-opacity:1;" d="M 220.996094 117.777344 L 248.15625 117.777344 L 248.15625 145.46875 L 220.996094 145.46875 Z M 220.996094 117.777344 "/></g></g><g clip-rule="nonzero" clip-path="url(#687882d8c8)"><g clip-rule="nonzero" clip-path="url(#3b25513ee8)"><path style=" stroke:none;fill-rule:nonzero;fill:currentColor;fill-opacity:1;" d="M 308.445312 135.253906 L 337.507812 135.253906 L 337.507812 164.089844 L 308.445312 164.089844 Z M 308.445312 135.253906 "/></g></g><g clip-rule="nonzero" clip-path="url(#1105416454)"><g clip-rule="nonzero" clip-path="url(#3fbd37062a)"><path style=" stroke:none;fill-rule:nonzero;fill:currentColor;fill-opacity:1;" d="M 249.683594 149.671875 L 294.539062 149.671875 L 294.539062 195.226562 L 249.683594 195.226562 Z M 249.683594 149.671875 "/></g></g><g clip-rule="nonzero" clip-path="url(#0971c663ce)"><g clip-rule="nonzero" clip-path="url(#99326053b0)"><path style=" stroke:none;fill-rule:nonzero;fill:currentColor;fill-opacity:1;" d="M 171.261719 151.273438 L 214.273438 151.273438 L 214.273438 191.90625 L 171.261719 191.90625 Z M 171.261719 151.273438 "/></g></g><g clip-rule="nonzero" clip-path="url(#f0b1fd482a)"><g clip-rule="nonzero" clip-path="url(#3782b393c7)"><path style=" stroke:none;fill-rule:nonzero;fill:currentColor;fill-opacity:1;" d="M 79.804688 155.0625 L 124.40625 155.0625 L 124.40625 195.984375 L 79.804688 195.984375 Z M 79.804688 155.0625 "/></g></g><g clip-rule="nonzero" clip-path="url(#8249db0060)"><g clip-rule="nonzero" clip-path="url(#c3edea8458)"><path style=" stroke:none;fill-rule:nonzero;fill:currentColor;fill-opacity:1;" d="M 56.214844 235.957031 L 142.992188 235.957031 L 142.992188 261.882812 L 56.214844 261.882812 Z M 56.214844 235.957031 "/></g></g><g clip-rule="nonzero" clip-path="url(#cea2853f6f)"><g clip-rule="nonzero" clip-path="url(#c972de1049)"><path style=" stroke:none;fill-rule:nonzero;fill:currentColor;fill-opacity:1;" d="M 127.71875 248.554688 L 197.851562 248.554688 L 197.851562 262.683594 L 127.71875 262.683594 Z M 127.71875 248.554688 "/></g></g><g clip-rule="nonzero" clip-path="url(#426fe67e39)"><g clip-rule="nonzero" clip-path="url(#846e6e18a6)"><path style=" stroke:none;fill-rule:nonzero;fill:currentColor;fill-opacity:1;" d="M 56.941406 222.632812 L 123.980469 222.632812 L 123.980469 245.425781 L 56.941406 245.425781 Z M 56.941406 222.632812 "/></g></g><g clip-rule="nonzero" clip-path="url(#57f8aea675)"><g clip-rule="nonzero" clip-path="url(#9ddc8342e6)"><path style=" stroke:none;fill-rule:nonzero;fill:currentColor;fill-opacity:1;" d="M 104.636719 231.296875 L 191.167969 231.296875 L 191.167969 248.117188 L 104.636719 248.117188 Z M 104.636719 231.296875 "/></g></g><g clip-rule="nonzero" clip-path="url(#f0af9ee7da)"><g clip-rule="nonzero" clip-path="url(#3daa6c6a50)"><path style=" stroke:none;fill-rule:nonzero;fill:currentColor;fill-opacity:1;" d="M 179.417969 246.007812 L 240.726562 246.007812 L 240.726562 262.390625 L 179.417969 262.390625 Z M 179.417969 246.007812 "/></g></g><g clip-rule="nonzero" clip-path="url(#9e67a1a768)"><g clip-rule="nonzero" clip-path="url(#40ea77507b)"><path style=" stroke:none;fill-rule:nonzero;fill:currentColor;fill-opacity:1;" d="M 220.484375 231.953125 L 306.835938 231.953125 L 306.835938 259.550781 L 220.484375 259.550781 Z M 220.484375 231.953125 "/></g></g><g clip-rule="nonzero" clip-path="url(#ef75116ec2)"><g clip-rule="nonzero" clip-path="url(#1abbf7e699)"><path style=" stroke:none;fill-rule:nonzero;fill:currentColor;fill-opacity:1;" d="M 173.082031 232.246094 L 242.519531 232.246094 L 242.519531 247.609375 L 173.082031 247.609375 Z M 173.082031 232.246094 "/></g></g><g clip-rule="nonzero" clip-path="url(#39b65b468f)"><g clip-rule="nonzero" clip-path="url(#cbab603a04)"><path style=" stroke:none;fill-rule:nonzero;fill:currentColor;fill-opacity:1;" d="M 222.667969 227.511719 L 279.027344 227.511719 L 279.027344 246.152344 L 222.667969 246.152344 Z M 222.667969 227.511719 "/></g></g><g clip-rule="nonzero" clip-path="url(#3e3e4d27ee)"><g clip-rule="nonzero" clip-path="url(#0600327508)"><path style=" stroke:none;fill-rule:nonzero;fill:currentColor;fill-opacity:1;" d="M 260.679688 220.886719 L 307.351562 220.886719 L 307.351562 241.273438 L 260.679688 241.273438 Z M 260.679688 220.886719 "/></g></g></g></svg>