<svg xmlns="http://www.w3.org/2000/svg" xmlns:xlink="http://www.w3.org/1999/xlink" width="500" zoomAndPan="magnify" viewBox="0 0 375 374.999991" height="500" preserveAspectRatio="xMidYMid meet" version="1.2"><defs><clipPath id="3cefbfb8d3"><path d="M 78.070312 231.007812 L 132.714844 231.007812 L 132.714844 329.855469 L 78.070312 329.855469 Z M 78.070312 231.007812 "/></clipPath><clipPath id="c6a44d8a2e"><path d="M 125.625 329.515625 C 108.058594 320.132812 100.273438 312.75 96.882812 309.457031 C 95.285156 307.859375 94.785156 307.460938 93.488281 305.5625 C 90.792969 301.769531 85.804688 292.890625 83.40625 286.703125 C 81.3125 281.210938 80.3125 276.820312 79.417969 270.535156 C 78.320312 261.949219 77.917969 245.984375 78.417969 239.695312 C 78.71875 236.800781 78.71875 235.003906 79.714844 233.507812 C 80.613281 232.308594 82.308594 231.210938 83.707031 231.113281 C 85.105469 231.011719 87.101562 232.109375 88 233.109375 C 88.699219 233.90625 88.996094 235.105469 88.996094 236.101562 C 88.996094 237.101562 88.699219 238.398438 88 239.097656 C 87.101562 240.09375 85.003906 241.09375 83.707031 241.09375 C 82.609375 241.09375 81.511719 240.59375 80.714844 239.894531 C 80.015625 239.296875 79.316406 238.199219 79.117188 237.199219 C 78.917969 236.203125 79.015625 234.90625 79.515625 234.007812 C 79.914062 233.109375 80.714844 232.109375 81.710938 231.710938 C 82.808594 231.210938 85.105469 231.011719 86.300781 231.710938 C 87.601562 232.308594 88.296875 233.507812 88.996094 235.605469 C 90.59375 240.894531 88.199219 258.457031 89.097656 267.039062 C 89.796875 273.027344 90.492188 277.019531 92.289062 282.109375 C 94.484375 288.097656 97.78125 294.886719 101.871094 300.273438 C 106.0625 305.664062 112.050781 310.652344 117.339844 314.445312 C 121.929688 317.640625 129.617188 319.835938 131.511719 321.929688 C 132.308594 322.730469 132.410156 323.226562 132.511719 324.027344 C 132.710938 325.125 132.511719 326.621094 131.910156 327.519531 C 131.3125 328.519531 130.214844 329.417969 129.117188 329.714844 C 128.117188 330.113281 125.625 329.515625 125.625 329.515625 "/></clipPath><clipPath id="d8c3d437b4"><path d="M 79 103.390625 L 122.609375 103.390625 L 122.609375 241.921875 L 79 241.921875 Z M 79 103.390625 "/></clipPath><clipPath id="e6ac2ad5ba"><path d="M 79.015625 236.800781 C 80.214844 221.53125 84.304688 208.160156 87.199219 197.878906 C 90.09375 187.5 93.1875 176.820312 96.582031 166.542969 C 99.976562 156.5625 105.164062 145.382812 107.757812 136.902344 C 109.65625 130.8125 110.953125 126.121094 111.75 120.933594 C 112.550781 116.144531 111.351562 109.855469 112.648438 106.960938 C 113.449219 105.363281 114.84375 104.265625 116.042969 103.765625 C 117.039062 103.367188 118.339844 103.566406 119.238281 103.96875 C 120.132812 104.367188 121.132812 105.164062 121.632812 105.964844 C 122.230469 106.859375 122.429688 108.160156 122.332031 109.15625 C 122.230469 110.15625 121.832031 111.253906 121.03125 112.050781 C 120.035156 112.847656 117.839844 113.648438 116.542969 113.546875 C 115.542969 113.449219 114.445312 112.75 113.746094 112.050781 C 113.050781 111.253906 112.449219 110.15625 112.449219 109.15625 C 112.351562 107.859375 113.148438 105.664062 114.148438 104.765625 C 115.246094 103.867188 117.441406 103.566406 118.738281 103.765625 C 119.734375 103.96875 120.734375 104.765625 121.332031 105.5625 C 121.929688 106.363281 122.128906 107.160156 122.332031 108.558594 C 122.730469 111.253906 122.429688 117.140625 121.832031 121.03125 C 121.433594 124.625 120.433594 127.421875 119.535156 131.113281 C 118.339844 135.703125 117.140625 140.695312 115.246094 146.382812 C 112.847656 153.667969 108.65625 162.449219 105.5625 171.234375 C 102.269531 180.914062 99.078125 192.289062 96.28125 202.171875 C 93.789062 211.253906 90.394531 221.53125 89.394531 228.21875 C 88.699219 232.210938 89.597656 235.804688 88.796875 238 C 88.398438 239.394531 87.699219 240.292969 86.800781 240.992188 C 85.902344 241.589844 84.507812 241.890625 83.40625 241.792969 C 82.308594 241.691406 81.011719 240.992188 80.214844 240.195312 C 79.515625 239.296875 79.015625 236.800781 79.015625 236.800781 "/></clipPath><clipPath id="cbbf8b239b"><path d="M 87.546875 43.433594 L 122.75 43.433594 L 122.75 113.679688 L 87.546875 113.679688 Z M 87.546875 43.433594 "/></clipPath><clipPath id="26a9a28996"><path d="M 112.351562 108.558594 C 110.355469 89.894531 107.960938 81.414062 105.464844 75.324219 C 103.367188 70.035156 100.875 65.246094 97.78125 61.152344 C 95.085938 57.359375 89.894531 53.867188 88.496094 51.371094 C 87.800781 50.175781 87.5 49.375 87.699219 48.378906 C 87.800781 47.082031 88.996094 45.085938 89.996094 44.285156 C 90.894531 43.6875 92.191406 43.488281 93.1875 43.585938 C 94.1875 43.6875 95.285156 44.285156 96.082031 44.984375 C 96.78125 45.683594 97.378906 46.78125 97.578125 47.78125 C 97.679688 48.777344 97.578125 49.976562 97.082031 50.875 C 96.382812 51.972656 94.484375 53.269531 93.1875 53.566406 C 92.191406 53.765625 90.992188 53.367188 90.09375 52.871094 C 89.195312 52.371094 88.398438 51.371094 88 50.472656 C 87.601562 49.574219 87.601562 48.277344 87.800781 47.28125 C 88.097656 46.28125 88.699219 45.183594 89.597656 44.6875 C 90.695312 43.886719 92.691406 43.488281 94.1875 43.886719 C 96.082031 44.285156 97.980469 46.28125 99.777344 47.980469 C 102.070312 50.175781 104.367188 52.96875 106.5625 56.261719 C 109.257812 60.355469 112.152344 65.144531 114.445312 70.832031 C 117.339844 77.917969 120.433594 88.898438 121.632812 95.882812 C 122.429688 100.773438 123.027344 105.5625 122.332031 108.558594 C 122.03125 110.355469 121.234375 111.851562 120.234375 112.648438 C 119.335938 113.347656 117.839844 113.648438 116.742188 113.546875 C 115.644531 113.449219 114.347656 112.75 113.648438 111.851562 C 112.949219 111.054688 112.351562 108.558594 112.351562 108.558594 "/></clipPath><clipPath id="b060d0cb3b"><path d="M 44.246094 42.546875 L 121 42.546875 L 121 111.785156 L 44.246094 111.785156 Z M 44.246094 42.546875 "/></clipPath><clipPath id="d5fbc2af26"><path d="M 92.589844 53.566406 C 65.644531 54.066406 62.550781 56.761719 60.554688 58.757812 C 59.15625 60.253906 58.558594 61.351562 57.660156 63.25 C 56.460938 65.84375 54.964844 69.933594 54.664062 73.328125 C 54.464844 76.820312 55.066406 80.914062 56.0625 83.808594 C 56.761719 86.003906 58.058594 87.601562 59.15625 89.296875 C 60.15625 90.792969 60.851562 92.191406 62.351562 93.488281 C 64.445312 95.285156 67.9375 97.28125 71.132812 98.476562 C 74.328125 99.675781 76.921875 100.175781 81.511719 100.671875 C 89.894531 101.570312 112.550781 99.277344 117.539062 100.972656 C 118.9375 101.472656 119.4375 102.070312 120.035156 102.96875 C 120.632812 103.765625 121.03125 104.964844 120.933594 105.964844 C 120.734375 107.261719 119.535156 109.257812 118.539062 110.054688 C 117.640625 110.652344 116.441406 110.851562 115.34375 110.652344 C 114.148438 110.453125 112.152344 109.257812 111.550781 108.058594 C 110.851562 106.859375 110.851562 104.566406 111.550781 103.367188 C 112.152344 102.171875 114.046875 100.875 115.34375 100.773438 C 116.742188 100.574219 118.835938 101.472656 119.734375 102.46875 C 120.632812 103.566406 121.132812 105.761719 120.734375 107.0625 C 120.335938 108.359375 119.4375 109.65625 117.539062 110.453125 C 112.75 112.550781 95.183594 110.953125 87.800781 110.753906 C 83.40625 110.652344 80.8125 110.554688 77.421875 110.054688 C 73.925781 109.554688 70.433594 108.957031 67.242188 107.660156 C 63.847656 106.363281 60.15625 104.066406 57.757812 102.269531 C 56.0625 101.074219 55.164062 100.273438 53.765625 98.675781 C 51.769531 96.28125 48.878906 91.589844 47.480469 88.796875 C 46.480469 86.800781 45.785156 85.605469 45.382812 83.40625 C 44.6875 80.515625 44.285156 76.621094 44.6875 72.730469 C 45.285156 68.039062 47.578125 60.753906 49.175781 57.261719 C 50.074219 55.265625 50.574219 54.367188 52.070312 52.871094 C 54.765625 50.175781 61.75 45.582031 65.144531 44.085938 C 67.140625 43.1875 67.9375 43.1875 70.234375 42.988281 C 75.125 42.488281 89.796875 42.390625 93.789062 43.789062 C 95.382812 44.285156 96.082031 44.886719 96.78125 45.785156 C 97.378906 46.679688 97.679688 48.078125 97.578125 49.175781 C 97.480469 50.273438 96.78125 51.570312 95.984375 52.371094 C 95.085938 53.070312 92.589844 53.566406 92.589844 53.566406 "/></clipPath><clipPath id="229794359e"><path d="M 63.140625 66.277344 L 99.683594 66.277344 L 99.683594 108.453125 L 63.140625 108.453125 Z M 63.140625 66.277344 "/></clipPath><clipPath id="cdd1b0d563"><path d="M 68.140625 66.34375 C 83.207031 68.339844 86.601562 70.335938 88.996094 71.730469 C 90.894531 72.730469 92.191406 73.230469 93.585938 74.726562 C 95.582031 76.722656 97.878906 80.515625 98.777344 83.808594 C 99.675781 87 99.976562 90.792969 99.175781 93.988281 C 98.476562 97.179688 96.582031 100.671875 94.386719 102.96875 C 92.390625 105.164062 88.796875 107.160156 86.703125 107.960938 C 85.503906 108.359375 84.605469 108.558594 83.609375 108.257812 C 82.308594 107.960938 80.515625 106.5625 80.015625 105.265625 C 79.515625 103.96875 79.816406 101.769531 80.515625 100.671875 C 81.011719 99.675781 82.011719 98.976562 83.007812 98.675781 C 84.007812 98.378906 85.203125 98.277344 86.203125 98.675781 C 87.398438 99.175781 88.996094 100.773438 89.394531 102.070312 C 89.796875 103.367188 89.296875 105.5625 88.398438 106.660156 C 87.5 107.660156 85.503906 108.558594 84.105469 108.359375 C 82.710938 108.257812 80.914062 106.859375 80.214844 105.761719 C 79.617188 104.867188 79.515625 103.667969 79.714844 102.667969 C 79.816406 101.671875 80.3125 100.773438 81.210938 99.777344 C 82.609375 98.179688 87.199219 96.683594 88.496094 94.585938 C 89.597656 92.988281 89.796875 90.894531 89.695312 89.097656 C 89.695312 87.398438 89.394531 85.703125 88.296875 84.105469 C 86.800781 81.910156 83.207031 79.617188 79.816406 78.117188 C 75.625 76.324219 67.140625 76.523438 64.84375 75.023438 C 63.945312 74.425781 63.746094 73.925781 63.546875 73.128906 C 63.25 72.128906 63.148438 70.535156 63.546875 69.535156 C 63.945312 68.539062 65.042969 67.441406 65.84375 66.941406 C 66.542969 66.441406 68.140625 66.34375 68.140625 66.34375 "/></clipPath><clipPath id="c04e928ff7"><path d="M 88.042969 41 L 264.558594 41 L 264.558594 54.363281 L 88.042969 54.363281 Z M 88.042969 41 "/></clipPath><clipPath id="1270d65c7e"><path d="M 93.089844 43.988281 C 196.382812 41.09375 248.878906 39.796875 259.457031 42.488281 C 261.851562 43.089844 262.847656 43.585938 263.648438 44.6875 C 264.347656 45.484375 264.644531 46.679688 264.445312 47.679688 C 264.347656 48.976562 263.148438 50.972656 262.050781 51.671875 C 261.253906 52.371094 259.957031 52.46875 258.957031 52.371094 C 257.960938 52.269531 256.761719 51.769531 256.0625 51.074219 C 255.363281 50.375 254.664062 49.277344 254.566406 48.277344 C 254.464844 46.980469 255.066406 44.785156 256.0625 43.789062 C 257.0625 42.890625 259.257812 42.390625 260.554688 42.589844 C 261.652344 42.691406 262.648438 43.488281 263.347656 44.1875 C 263.945312 44.984375 264.445312 46.183594 264.445312 47.179688 C 264.546875 48.179688 264.347656 49.375 263.648438 50.273438 C 262.847656 51.273438 261.851562 51.871094 259.457031 52.46875 C 248.976562 54.964844 197.578125 51.074219 168.636719 51.472656 C 142.289062 51.769531 101.769531 55.363281 93.089844 53.96875 C 91.191406 53.667969 90.59375 53.46875 89.796875 52.667969 C 88.996094 51.972656 88.296875 50.671875 88.097656 49.574219 C 88 48.476562 88.296875 47.082031 88.996094 46.082031 C 89.796875 45.085938 93.089844 43.988281 93.089844 43.988281 "/></clipPath><clipPath id="c38eecc7c1"><path d="M 254.378906 42.417969 L 300 42.417969 L 300 153.984375 L 254.378906 153.984375 Z M 254.378906 42.417969 "/></clipPath><clipPath id="c2095b6ad9"><path d="M 259.65625 42.488281 C 276.324219 49.675781 281.613281 54.265625 284.804688 57.960938 C 287.300781 60.851562 288.496094 63.050781 290.394531 66.542969 C 293.089844 71.730469 297.082031 79.214844 298.675781 86.402344 C 300.375 94.1875 300.074219 105.164062 299.675781 111.75 C 299.375 115.941406 299.078125 117.839844 298.078125 122.128906 C 296.28125 129.617188 290.894531 148.675781 287.898438 152.371094 C 286.902344 153.566406 286.003906 153.765625 285.105469 153.867188 C 284.105469 154.066406 282.808594 153.867188 281.910156 153.46875 C 281.011719 152.96875 280.015625 152.171875 279.714844 151.171875 C 279.214844 149.976562 279.316406 147.679688 279.816406 146.480469 C 280.3125 145.484375 281.3125 144.785156 282.210938 144.386719 C 283.207031 143.988281 284.40625 143.789062 285.402344 144.1875 C 286.601562 144.585938 288.398438 145.984375 288.898438 147.28125 C 289.296875 148.578125 288.996094 150.875 288.199219 151.972656 C 287.398438 153.070312 285.304688 153.96875 284.007812 153.96875 C 282.910156 154.066406 281.8125 153.566406 281.011719 152.871094 C 280.113281 151.972656 279.316406 150.574219 279.214844 148.578125 C 279.015625 143.386719 286.503906 128.320312 288.097656 121.234375 C 289.097656 116.839844 289.496094 114.746094 289.695312 110.554688 C 289.996094 104.566406 289.996094 94.386719 288.898438 88.699219 C 288.097656 84.707031 286.800781 82.410156 285.203125 79.015625 C 283.207031 74.625 280.414062 68.539062 277.519531 64.746094 C 275.222656 61.652344 273.128906 59.753906 270.035156 57.460938 C 266.144531 54.765625 257.160156 52.871094 255.265625 50.074219 C 254.265625 48.675781 254.566406 46.683594 254.867188 45.484375 C 255.164062 44.6875 255.664062 44.085938 256.363281 43.585938 C 257.160156 42.988281 259.65625 42.488281 259.65625 42.488281 "/></clipPath><clipPath id="de952049e5"><path d="M 267 144.015625 L 289.136719 144.015625 L 289.136719 256.558594 L 267 256.558594 Z M 267 144.015625 "/></clipPath><clipPath id="37e79f382e"><path d="M 289.097656 149.875 C 279.714844 186.101562 278.519531 194.285156 277.820312 203.367188 C 277.121094 213.25 277.21875 225.425781 277.519531 234.507812 C 277.71875 241.691406 279.816406 250.773438 278.917969 253.667969 C 278.519531 254.664062 278.019531 255.066406 277.320312 255.464844 C 276.523438 256.0625 275.023438 256.660156 273.925781 256.460938 C 272.628906 256.261719 270.632812 255.164062 270.035156 253.867188 C 269.335938 252.570312 269.535156 249.675781 270.433594 248.476562 C 271.234375 247.28125 273.328125 246.382812 274.726562 246.480469 C 276.023438 246.582031 278.019531 247.679688 278.71875 248.878906 C 279.417969 250.074219 279.515625 252.269531 278.917969 253.566406 C 278.320312 254.765625 276.421875 256.0625 275.222656 256.363281 C 274.125 256.660156 272.929688 256.363281 272.03125 255.863281 C 271.132812 255.363281 270.234375 254.566406 269.835938 253.566406 C 269.4375 252.371094 269.4375 250.074219 270.132812 248.878906 C 270.832031 247.679688 272.730469 246.582031 274.125 246.480469 C 275.523438 246.382812 277.621094 247.28125 278.417969 248.476562 C 279.214844 249.675781 279.417969 252.371094 278.917969 253.667969 C 278.417969 254.765625 277.21875 255.664062 276.324219 256.0625 C 275.523438 256.460938 274.726562 256.660156 273.925781 256.460938 C 272.730469 256.164062 271.03125 255.464844 270.035156 253.867188 C 268.140625 250.875 268.039062 243.585938 267.539062 237.199219 C 266.839844 228.519531 266.839844 216.144531 267.539062 206.460938 C 268.140625 197.480469 269.136719 189.996094 270.933594 180.914062 C 272.929688 170.335938 276.921875 151.769531 279.617188 146.980469 C 280.414062 145.484375 281.113281 144.886719 282.109375 144.484375 C 283.109375 143.988281 284.507812 143.886719 285.605469 144.1875 C 286.703125 144.484375 287.800781 145.382812 288.398438 146.382812 C 288.996094 147.28125 289.097656 149.875 289.097656 149.875 "/></clipPath><clipPath id="679518604f"><path d="M 268.800781 246.277344 L 329.421875 246.277344 L 329.421875 327.902344 L 268.800781 327.902344 Z M 268.800781 246.277344 "/></clipPath><clipPath id="f7b1c887a6"><path d="M 279.214844 251.273438 C 280.015625 261.351562 280.613281 264.644531 282.011719 268.4375 C 284.007812 273.925781 288.496094 282.609375 291.691406 287.601562 C 293.886719 291.09375 295.683594 293.1875 298.277344 296.082031 C 301.472656 299.476562 305.863281 303.46875 309.257812 306.5625 C 312.152344 309.058594 314.347656 311.054688 317.242188 313.050781 C 320.335938 315.144531 325.425781 316.742188 327.320312 318.835938 C 328.617188 320.234375 329.316406 321.832031 329.417969 323.027344 C 329.417969 324.125 329.015625 325.324219 328.21875 326.023438 C 327.320312 327.019531 325.324219 328.019531 323.925781 327.820312 C 322.53125 327.71875 320.632812 326.523438 320.035156 325.222656 C 319.335938 324.027344 319.335938 321.832031 319.933594 320.632812 C 320.535156 319.335938 322.53125 318.140625 323.828125 317.9375 C 324.824219 317.738281 326.023438 318.039062 326.921875 318.539062 C 327.820312 319.035156 328.617188 320.035156 329.015625 320.933594 C 329.417969 321.929688 329.515625 323.128906 329.214844 324.125 C 328.917969 325.125 328.21875 326.222656 327.421875 326.820312 C 326.621094 327.421875 325.824219 328.019531 324.425781 327.820312 C 321.433594 327.621094 314.644531 323.328125 309.855469 319.933594 C 304.464844 316.144531 298.476562 310.453125 293.886719 305.664062 C 289.894531 301.570312 286.703125 297.980469 283.507812 293.289062 C 279.914062 287.800781 275.921875 280.613281 273.527344 274.425781 C 271.433594 268.835938 269.933594 262.550781 269.335938 258.058594 C 268.9375 254.964844 268.738281 252.070312 269.335938 250.074219 C 269.734375 248.777344 270.433594 247.78125 271.332031 247.179688 C 272.332031 246.582031 273.828125 246.28125 274.824219 246.28125 C 275.625 246.382812 276.421875 246.582031 277.019531 247.179688 C 277.917969 247.980469 279.214844 251.273438 279.214844 251.273438 "/></clipPath><clipPath id="f881ed3849"><path d="M 123.300781 319.0625 L 330.417969 319.0625 L 330.417969 333.621094 L 123.300781 333.621094 Z M 123.300781 319.0625 "/></clipPath><clipPath id="0479391b6c"><path d="M 325.324219 329.417969 C 191.390625 333.707031 185.105469 333.808594 173.328125 333.507812 C 159.355469 333.109375 132.910156 333.007812 127.019531 331.113281 C 125.425781 330.613281 124.925781 330.113281 124.328125 329.316406 C 123.726562 328.519531 123.328125 327.320312 123.328125 326.324219 C 123.328125 325.324219 123.726562 324.125 124.328125 323.328125 C 124.925781 322.53125 125.921875 321.730469 126.921875 321.53125 C 128.21875 321.234375 130.414062 321.730469 131.511719 322.429688 C 132.410156 323.027344 132.910156 324.226562 133.207031 325.222656 C 133.40625 326.121094 133.40625 327.421875 132.808594 328.320312 C 132.210938 329.515625 130.515625 331.011719 129.117188 331.210938 C 127.820312 331.414062 125.625 330.613281 124.726562 329.714844 C 123.925781 329.015625 123.429688 327.820312 123.328125 326.820312 C 123.230469 325.824219 123.429688 324.625 124.027344 323.726562 C 124.726562 322.730469 125.824219 321.832031 128.019531 321.332031 C 134.90625 319.535156 160.355469 323.128906 174.328125 323.527344 C 185.902344 323.726562 192.089844 323.726562 206.0625 323.429688 C 233.109375 323.027344 314.046875 317.640625 325.324219 319.4375 C 327.320312 319.835938 327.820312 320.035156 328.617188 320.734375 C 329.515625 321.433594 330.214844 322.730469 330.3125 323.828125 C 330.414062 324.925781 330.113281 326.421875 329.417969 327.320312 C 328.617188 328.320312 325.324219 329.417969 325.324219 329.417969 "/></clipPath><clipPath id="5a33b84921"><path d="M 146.804688 72.578125 L 169.589844 72.578125 L 169.589844 107.289062 L 146.804688 107.289062 Z M 146.804688 72.578125 "/></clipPath><clipPath id="a538b4686e"><path d="M 159.15625 82.609375 C 156.164062 83.707031 156.261719 90.292969 157.160156 92.789062 C 157.757812 94.585938 158.957031 96.082031 160.453125 96.882812 C 161.949219 97.679688 164.644531 96.683594 166.242188 97.378906 C 167.539062 98.078125 169.035156 99.476562 169.4375 100.773438 C 169.734375 102.070312 169.335938 104.265625 168.4375 105.363281 C 167.539062 106.363281 165.445312 107.261719 164.046875 107.0625 C 162.648438 106.960938 160.851562 105.664062 160.15625 104.464844 C 159.554688 103.269531 159.554688 100.972656 160.15625 99.777344 C 160.851562 98.578125 162.648438 97.28125 164.046875 97.179688 C 165.445312 96.980469 167.539062 97.878906 168.4375 98.878906 C 169.335938 99.976562 169.636719 102.171875 169.4375 103.46875 C 169.238281 104.464844 168.4375 105.464844 167.640625 106.0625 C 166.839844 106.660156 165.84375 106.960938 164.644531 107.160156 C 162.75 107.359375 159.355469 106.960938 157.261719 106.261719 C 155.363281 105.5625 153.867188 104.367188 152.46875 103.167969 C 151.074219 101.871094 149.675781 100.773438 148.777344 98.878906 C 147.578125 96.28125 147.082031 91.890625 146.980469 88.398438 C 146.78125 85.003906 146.679688 80.8125 147.878906 78.21875 C 148.777344 76.121094 150.273438 74.328125 152.171875 73.429688 C 154.566406 72.332031 159.554688 72.332031 161.453125 73.230469 C 162.648438 73.726562 163.449219 74.824219 163.847656 75.921875 C 164.246094 76.921875 164.246094 78.417969 163.847656 79.417969 C 163.449219 80.414062 162.351562 81.511719 161.453125 82.109375 C 160.753906 82.511719 159.15625 82.609375 159.15625 82.609375 "/></clipPath><clipPath id="8fdb655210"><path d="M 159.609375 96.113281 L 256 96.113281 L 256 108.25 L 159.609375 108.25 Z M 159.609375 96.113281 "/></clipPath><clipPath id="01e4f87826"><path d="M 164.644531 97.179688 C 253.269531 96.679688 254.265625 97.28125 255.066406 98.277344 C 255.761719 99.078125 256.0625 100.273438 255.964844 101.371094 C 255.761719 102.667969 254.566406 104.566406 253.46875 105.363281 C 252.667969 105.964844 251.371094 106.164062 250.375 106.0625 C 249.375 105.964844 248.277344 105.363281 247.480469 104.664062 C 246.78125 103.96875 246.082031 102.96875 245.984375 101.871094 C 245.882812 100.574219 246.480469 98.378906 247.480469 97.480469 C 248.476562 96.480469 250.773438 95.984375 251.972656 96.183594 C 253.070312 96.382812 254.066406 97.082031 254.765625 97.878906 C 255.363281 98.578125 255.863281 99.777344 255.964844 100.773438 C 255.964844 101.769531 255.761719 103.070312 255.066406 103.867188 C 254.265625 104.867188 253.269531 105.464844 250.972656 106.0625 C 240.695312 108.65625 174.027344 108.757812 164.644531 107.160156 C 162.75 106.761719 162.152344 106.5625 161.253906 105.863281 C 160.453125 105.164062 159.753906 103.867188 159.65625 102.769531 C 159.554688 101.671875 159.753906 100.175781 160.453125 99.277344 C 161.351562 98.277344 164.644531 97.179688 164.644531 97.179688 "/></clipPath><clipPath id="31ec9dd8e5"><path d="M 239.324219 72.554688 L 263.097656 72.554688 L 263.097656 105.941406 L 239.324219 105.941406 Z M 239.324219 72.554688 "/></clipPath><clipPath id="e1beb2033e"><path d="M 249.476562 96.28125 C 252.070312 94.886719 252.269531 92.390625 252.269531 90.695312 C 252.269531 88.996094 252.570312 87 251.472656 85.605469 C 249.777344 83.609375 243.089844 83.40625 241.191406 81.511719 C 239.996094 80.214844 239.394531 78.417969 239.496094 77.121094 C 239.496094 76.023438 240.195312 74.925781 240.894531 74.226562 C 241.59375 73.527344 242.691406 72.929688 243.6875 72.730469 C 244.6875 72.628906 245.984375 72.828125 246.78125 73.328125 C 247.679688 73.828125 248.578125 74.726562 248.976562 75.625 C 249.375 76.523438 249.675781 77.820312 249.277344 78.816406 C 248.878906 80.015625 247.378906 81.8125 246.28125 82.308594 C 245.285156 82.808594 244.085938 82.910156 243.089844 82.511719 C 241.890625 82.011719 240.195312 80.414062 239.695312 79.214844 C 239.296875 78.21875 239.296875 77.019531 239.695312 76.023438 C 240.292969 74.824219 241.492188 73.429688 243.1875 72.828125 C 245.785156 72.03125 252.171875 73.128906 254.964844 74.425781 C 256.761719 75.324219 257.757812 76.621094 258.757812 78.019531 C 259.753906 79.417969 260.253906 80.914062 260.953125 82.808594 C 261.75 85.605469 262.847656 90.195312 263.050781 92.988281 C 263.148438 94.984375 263.148438 96.480469 262.449219 98.078125 C 261.75 99.777344 260.355469 101.472656 258.757812 102.769531 C 257.0625 104.167969 254.367188 105.5625 252.371094 105.863281 C 250.773438 106.0625 248.878906 105.761719 247.78125 104.964844 C 246.882812 104.265625 246.28125 102.871094 245.984375 101.871094 C 245.785156 101.074219 245.785156 100.273438 246.183594 99.476562 C 246.679688 98.378906 249.476562 96.28125 249.476562 96.28125 "/></clipPath><clipPath id="eb0ff3664b"><path d="M 152.335938 72.394531 L 253.421875 72.394531 L 253.421875 84.652344 L 152.335938 84.652344 Z M 152.335938 72.394531 "/></clipPath><clipPath id="ea21a8c652"><path d="M 158.160156 72.429688 C 190.195312 74.226562 220.035156 72.230469 233.007812 72.730469 C 239.796875 73.027344 244.984375 73.230469 248.378906 74.328125 C 250.273438 74.824219 251.769531 75.425781 252.570312 76.523438 C 253.269531 77.320312 253.46875 78.519531 253.367188 79.515625 C 253.367188 80.515625 252.96875 81.710938 252.171875 82.511719 C 251.273438 83.40625 249.277344 84.40625 247.878906 84.207031 C 246.480469 84.105469 244.6875 82.710938 243.988281 81.613281 C 243.386719 80.714844 243.1875 79.515625 243.488281 78.417969 C 243.789062 77.21875 245.183594 75.425781 246.28125 74.726562 C 247.28125 74.226562 248.476562 74.226562 249.476562 74.425781 C 250.472656 74.625 251.570312 75.324219 252.269531 76.023438 C 252.871094 76.820312 253.367188 78.019531 253.367188 79.015625 C 253.46875 80.015625 253.167969 81.210938 252.570312 82.109375 C 251.769531 83.109375 250.574219 83.808594 248.378906 84.304688 C 242.789062 85.503906 224.027344 82.308594 216.042969 82.511719 C 211.453125 82.710938 209.855469 83.507812 205.164062 83.707031 C 196.582031 84.207031 177.820312 84.007812 168.9375 83.609375 C 163.746094 83.308594 159.257812 83.109375 156.5625 82.308594 C 155.066406 81.8125 154.167969 81.3125 153.46875 80.515625 C 152.769531 79.617188 152.371094 78.117188 152.371094 77.121094 C 152.371094 76.324219 152.570312 75.523438 153.070312 74.824219 C 153.566406 74.027344 154.867188 73.027344 155.761719 72.628906 C 156.5625 72.332031 158.160156 72.429688 158.160156 72.429688 "/></clipPath><clipPath id="6900c20b0a"><path d="M 134.46875 119.742188 L 275.253906 119.742188 L 275.253906 131.753906 L 134.46875 131.753906 Z M 134.46875 119.742188 "/></clipPath><clipPath id="ab214f9e8d"><path d="M 139.597656 120.632812 C 215.742188 121.332031 253.96875 119.136719 265.644531 119.933594 C 269.535156 120.234375 271.730469 119.933594 273.230469 121.132812 C 274.527344 122.128906 275.222656 124.125 275.222656 125.425781 C 275.222656 126.421875 274.726562 127.621094 274.027344 128.316406 C 273.429688 129.117188 272.429688 129.816406 271.332031 130.015625 C 270.035156 130.214844 267.839844 129.714844 266.839844 128.71875 C 265.84375 127.820312 265.144531 125.722656 265.34375 124.328125 C 265.542969 122.929688 267.039062 121.234375 268.140625 120.632812 C 269.136719 120.035156 270.335938 120.035156 271.332031 120.234375 C 272.332031 120.433594 273.429688 121.03125 274.027344 121.929688 C 274.824219 122.929688 275.324219 125.222656 275.023438 126.421875 C 274.824219 127.519531 274.027344 128.519531 273.230469 129.117188 C 272.429688 129.714844 272.03125 129.816406 270.234375 130.113281 C 259.457031 131.910156 171.132812 131.910156 151.769531 131.414062 C 145.484375 131.210938 142.089844 131.210938 139.296875 130.613281 C 137.898438 130.214844 136.902344 130.015625 136.101562 129.214844 C 135.304688 128.519531 134.605469 127.121094 134.507812 126.121094 C 134.40625 125.222656 134.507812 124.425781 134.804688 123.726562 C 135.304688 122.828125 136.402344 121.632812 137.199219 121.132812 C 138 120.734375 139.597656 120.632812 139.597656 120.632812 "/></clipPath><clipPath id="8463b2a59d"><path d="M 134.78125 140.992188 L 271.757812 140.992188 L 271.757812 153.792969 L 134.78125 153.792969 Z M 134.78125 140.992188 "/></clipPath><clipPath id="441306f5ef"><path d="M 139.796875 142.289062 C 190.492188 143.789062 258.257812 138.398438 268.339844 142.691406 C 270.535156 143.585938 271.132812 144.785156 271.53125 146.082031 C 271.929688 147.082031 271.730469 148.277344 271.433594 149.277344 C 271.03125 150.175781 270.234375 151.171875 269.335938 151.671875 C 268.4375 152.171875 267.242188 152.46875 266.242188 152.371094 C 265.246094 152.269531 264.046875 151.769531 263.347656 150.972656 C 262.449219 150.074219 261.75 147.878906 261.851562 146.582031 C 261.949219 145.484375 262.648438 144.484375 263.347656 143.789062 C 264.046875 143.089844 265.144531 142.488281 266.242188 142.390625 C 267.539062 142.390625 269.636719 143.089844 270.535156 144.1875 C 271.433594 145.183594 271.832031 147.480469 271.53125 148.675781 C 271.332031 149.777344 270.535156 150.773438 269.734375 151.371094 C 268.9375 151.972656 268.539062 152.070312 266.742188 152.371094 C 256.960938 154.066406 191.09375 153.96875 167.539062 153.367188 C 154.664062 153.070312 141.691406 153.765625 137.5 151.671875 C 136.003906 150.972656 135.503906 150.074219 135.105469 149.078125 C 134.707031 147.980469 134.707031 146.480469 135.105469 145.484375 C 135.503906 144.484375 136.601562 143.386719 137.5 142.890625 C 138.199219 142.390625 139.796875 142.289062 139.796875 142.289062 "/></clipPath><clipPath id="42cb701664"><path d="M 134 162.808594 L 216.382812 162.808594 L 216.382812 174.066406 L 134 174.066406 Z M 134 162.808594 "/></clipPath><clipPath id="5fed38b143"><path d="M 138.996094 163.050781 C 201.074219 163.648438 207.859375 162.449219 211.351562 162.949219 C 212.75 163.148438 213.546875 163.148438 214.347656 163.847656 C 215.34375 164.746094 216.441406 166.742188 216.34375 168.140625 C 216.34375 169.535156 215.042969 171.332031 213.945312 172.128906 C 213.148438 172.828125 211.949219 173.027344 210.851562 172.828125 C 209.65625 172.628906 207.660156 171.332031 206.960938 170.335938 C 206.363281 169.4375 206.164062 168.238281 206.460938 167.140625 C 206.761719 165.941406 207.960938 163.945312 209.257812 163.449219 C 210.453125 162.847656 212.75 163.050781 213.847656 163.546875 C 214.84375 164.046875 215.644531 165.042969 215.941406 166.042969 C 216.34375 166.941406 216.542969 168.140625 216.144531 169.136719 C 215.742188 170.433594 214.746094 171.730469 213.050781 172.628906 C 209.257812 174.425781 199.875 173.628906 191.992188 173.828125 C 181.710938 174.125 166.640625 174.125 156.460938 173.828125 C 148.878906 173.527344 139.894531 174.125 136.703125 172.429688 C 135.304688 171.832031 134.707031 170.832031 134.304688 169.835938 C 133.90625 168.835938 133.90625 167.339844 134.304688 166.242188 C 134.707031 165.246094 135.804688 164.148438 136.703125 163.648438 C 137.398438 163.25 138.996094 163.050781 138.996094 163.050781 "/></clipPath><clipPath id="1256207313"><path d="M 110.714844 183.964844 L 265.644531 183.964844 L 265.644531 196.125 L 110.714844 196.125 Z M 110.714844 183.964844 "/></clipPath><clipPath id="415e4e5a97"><path d="M 115.742188 185.402344 C 161.054688 185.503906 164.148438 184.804688 170.132812 184.507812 C 178.71875 184.105469 189.097656 184.304688 201.171875 184.304688 C 218.140625 184.40625 255.363281 183.007812 262.152344 185.304688 C 263.746094 185.902344 264.148438 186.402344 264.746094 187.300781 C 265.246094 188.097656 265.742188 189.296875 265.542969 190.292969 C 265.34375 191.59375 264.347656 193.585938 263.148438 194.386719 C 261.949219 195.085938 259.65625 195.085938 258.457031 194.585938 C 257.460938 194.1875 256.660156 193.289062 256.164062 192.390625 C 255.664062 191.492188 255.464844 190.292969 255.664062 189.296875 C 255.863281 188.296875 256.460938 187.101562 257.160156 186.402344 C 257.859375 185.804688 258.957031 185.105469 260.054688 185.105469 C 261.351562 185.105469 263.449219 185.804688 264.347656 186.800781 C 265.246094 187.898438 265.644531 190.09375 265.34375 191.390625 C 265.144531 192.488281 264.347656 193.386719 263.546875 194.085938 C 262.75 194.6875 262.25 194.785156 260.554688 195.085938 C 252.96875 196.28125 216.542969 194.1875 196.28125 194.285156 C 178.117188 194.484375 159.457031 195.683594 144.585938 195.785156 C 133.207031 195.785156 119.238281 196.683594 114.546875 195.183594 C 112.949219 194.6875 112.25 194.085938 111.652344 193.1875 C 110.953125 192.289062 110.652344 190.894531 110.753906 189.796875 C 110.953125 188.699219 111.550781 187.398438 112.449219 186.601562 C 113.25 185.902344 115.742188 185.402344 115.742188 185.402344 "/></clipPath><clipPath id="8af14046e2"><path d="M 108.03125 203.023438 L 259.835938 203.023438 L 259.835938 217.925781 L 108.03125 217.925781 Z M 108.03125 203.023438 "/></clipPath><clipPath id="27a944861b"><path d="M 113.050781 207.558594 C 238 203.367188 249.375 202.269531 254.765625 203.566406 C 256.859375 204.066406 258.058594 204.765625 258.855469 205.761719 C 259.554688 206.660156 259.855469 207.757812 259.753906 208.855469 C 259.554688 210.15625 258.359375 212.152344 257.261719 212.847656 C 256.460938 213.449219 255.164062 213.648438 254.167969 213.546875 C 253.167969 213.449219 252.070312 212.847656 251.273438 212.25 C 250.574219 211.550781 249.875 210.453125 249.777344 209.355469 C 249.675781 208.058594 250.273438 205.863281 251.273438 204.964844 C 252.269531 203.96875 254.566406 203.566406 255.761719 203.667969 C 256.859375 203.867188 257.859375 204.566406 258.558594 205.363281 C 259.15625 206.164062 259.65625 207.261719 259.753906 208.359375 C 259.753906 209.355469 259.554688 210.554688 258.855469 211.351562 C 258.058594 212.351562 256.859375 213.050781 254.765625 213.546875 C 249.277344 214.945312 237.5 213.347656 224.027344 213.546875 C 198.578125 214.046875 123.925781 219.335938 113.050781 217.539062 C 111.152344 217.242188 110.554688 217.039062 109.753906 216.34375 C 108.957031 215.542969 108.257812 214.246094 108.058594 213.148438 C 107.960938 212.050781 108.257812 210.652344 108.957031 209.753906 C 109.753906 208.757812 113.050781 207.558594 113.050781 207.558594 "/></clipPath><clipPath id="2f174fab51"><path d="M 111.769531 223.445312 L 257.265625 223.445312 L 257.265625 237.808594 L 111.769531 237.808594 Z M 111.769531 223.445312 "/></clipPath><clipPath id="ae6ee7b9b0"><path d="M 116.839844 227.21875 C 163.546875 226.820312 176.921875 225.222656 191.792969 224.625 C 209.257812 223.925781 239.695312 223.328125 248.675781 223.527344 C 251.371094 223.628906 252.570312 223.226562 253.96875 223.925781 C 255.363281 224.527344 256.761719 226.023438 257.160156 227.421875 C 257.460938 228.71875 256.859375 230.914062 255.964844 231.910156 C 255.066406 232.910156 252.871094 233.609375 251.570312 233.507812 C 250.574219 233.507812 249.476562 232.808594 248.777344 232.109375 C 248.078125 231.414062 247.378906 230.3125 247.28125 229.316406 C 247.28125 228.019531 248.078125 225.824219 248.976562 224.925781 C 249.675781 224.125 250.875 223.726562 251.871094 223.628906 C 252.871094 223.527344 254.066406 223.726562 254.964844 224.425781 C 255.964844 225.125 257.261719 227.121094 257.261719 228.417969 C 257.261719 229.816406 256.164062 231.8125 255.164062 232.609375 C 254.367188 233.308594 253.867188 233.308594 252.171875 233.609375 C 244.886719 234.707031 210.851562 233.90625 192.789062 234.605469 C 177.421875 235.203125 163.746094 236.800781 150.472656 237.199219 C 138.597656 237.601562 122.128906 238.199219 116.839844 237.199219 C 115.042969 236.902344 114.347656 236.703125 113.546875 235.902344 C 112.648438 235.203125 111.949219 233.90625 111.851562 232.808594 C 111.75 231.710938 111.949219 230.3125 112.75 229.417969 C 113.546875 228.316406 116.839844 227.21875 116.839844 227.21875 "/></clipPath><clipPath id="8b924efc4b"><path d="M 109.542969 246.367188 L 254.601562 246.367188 L 254.601562 259.109375 L 109.542969 259.109375 Z M 109.542969 246.367188 "/></clipPath><clipPath id="2b3dc5393d"><path d="M 114.546875 248.675781 C 219.335938 246.480469 242.289062 245.582031 249.574219 247.480469 C 251.769531 248.078125 252.871094 248.675781 253.667969 249.675781 C 254.367188 250.472656 254.664062 251.671875 254.566406 252.667969 C 254.367188 253.96875 253.167969 255.964844 252.171875 256.761719 C 251.273438 257.359375 250.074219 257.558594 249.078125 257.359375 C 248.078125 257.261719 246.882812 256.761719 246.183594 256.0625 C 245.382812 255.363281 244.785156 254.367188 244.6875 253.269531 C 244.585938 251.972656 245.183594 249.777344 246.183594 248.777344 C 247.179688 247.878906 249.375 247.378906 250.671875 247.578125 C 251.671875 247.679688 252.769531 248.476562 253.367188 249.175781 C 254.066406 249.976562 254.464844 251.171875 254.566406 252.171875 C 254.566406 253.167969 254.367188 254.464844 253.667969 255.265625 C 252.871094 256.261719 251.769531 256.859375 249.574219 257.460938 C 242.390625 259.15625 219.835938 256.460938 201.472656 256.460938 C 176.820312 256.5625 124.027344 260.253906 114.546875 258.65625 C 112.648438 258.359375 112.050781 258.160156 111.253906 257.359375 C 110.453125 256.660156 109.753906 255.363281 109.65625 254.265625 C 109.457031 253.167969 109.753906 251.769531 110.453125 250.875 C 111.253906 249.777344 114.546875 248.675781 114.546875 248.675781 "/></clipPath><clipPath id="793c5e24ff"><path d="M 111.324219 268.128906 L 267.257812 268.128906 L 267.257812 280.59375 L 111.324219 280.59375 Z M 111.324219 268.128906 "/></clipPath><clipPath id="205415048b"><path d="M 116.34375 268.738281 C 264.046875 268.339844 264.445312 268.339844 265.246094 269.136719 C 266.242188 269.933594 267.140625 272.03125 267.242188 273.328125 C 267.242188 274.425781 266.839844 275.523438 266.042969 276.324219 C 265.144531 277.21875 263.050781 278.21875 261.652344 278.019531 C 260.355469 277.917969 258.558594 276.523438 257.859375 275.425781 C 257.261719 274.527344 257.160156 273.226562 257.359375 272.230469 C 257.460938 271.234375 257.960938 270.132812 258.855469 269.4375 C 259.855469 268.636719 262.050781 268.039062 263.347656 268.238281 C 264.347656 268.339844 265.34375 269.035156 266.042969 269.835938 C 266.742188 270.632812 267.140625 271.832031 267.242188 272.828125 C 267.242188 273.828125 267.039062 275.023438 266.34375 275.921875 C 265.542969 276.921875 264.746094 277.421875 262.25 278.019531 C 248.378906 281.511719 129.015625 281.011719 116.34375 278.71875 C 114.445312 278.316406 113.945312 278.21875 113.050781 277.421875 C 112.25 276.722656 111.550781 275.425781 111.453125 274.328125 C 111.253906 273.226562 111.550781 271.832031 112.25 270.933594 C 113.050781 269.835938 116.34375 268.738281 116.34375 268.738281 "/></clipPath><clipPath id="59357d9846"><path d="M 112.453125 289.09375 L 268.789062 289.09375 L 268.789062 301.625 L 112.453125 301.625 Z M 112.453125 289.09375 "/></clipPath><clipPath id="106ffd2b89"><path d="M 117.441406 290.992188 C 198.675781 289.296875 253.167969 288 263.746094 290.792969 C 266.144531 291.390625 267.039062 291.890625 267.839844 292.890625 C 268.539062 293.789062 268.835938 294.984375 268.738281 295.984375 C 268.539062 297.28125 267.339844 299.277344 266.34375 299.976562 C 265.445312 300.671875 264.246094 300.773438 263.148438 300.671875 C 262.152344 300.574219 261.054688 300.074219 260.355469 299.375 C 259.554688 298.675781 258.855469 297.578125 258.855469 296.582031 C 258.65625 295.285156 259.257812 293.089844 260.355469 292.089844 C 261.351562 291.191406 263.546875 290.695312 264.84375 290.894531 C 265.84375 290.992188 266.839844 291.691406 267.539062 292.488281 C 268.238281 293.289062 268.636719 294.484375 268.738281 295.484375 C 268.738281 296.480469 268.539062 297.679688 267.839844 298.578125 C 267.039062 299.574219 266.144531 300.175781 263.746094 300.773438 C 253.167969 303.269531 199.375 299.277344 172.730469 299.476562 C 152.070312 299.574219 124.625 302.269531 117.441406 300.972656 C 115.644531 300.671875 114.945312 300.472656 114.148438 299.777344 C 113.347656 298.976562 112.648438 297.679688 112.550781 296.582031 C 112.351562 295.484375 112.648438 294.085938 113.347656 293.1875 C 114.148438 292.191406 117.441406 290.992188 117.441406 290.992188 "/></clipPath></defs><g id="305a1cb031"><g clip-rule="nonzero" clip-path="url(#3cefbfb8d3)"><g clip-rule="nonzero" clip-path="url(#c6a44d8a2e)"><path style=" stroke:none;fill-rule:nonzero;fill:currentColor;fill-opacity:1;" d="M 74.425781 227.121094 L 136.601562 227.121094 L 136.601562 333.742188 L 74.425781 333.742188 Z M 74.425781 227.121094 "/></g></g><g clip-rule="nonzero" clip-path="url(#d8c3d437b4)"><g clip-rule="nonzero" clip-path="url(#e6ac2ad5ba)"><path style=" stroke:none;fill-rule:nonzero;fill:currentColor;fill-opacity:1;" d="M 75.023438 99.777344 L 126.421875 99.777344 L 126.421875 245.9375 L 75.023438 245.9375 Z M 75.023438 99.777344 "/></g></g><g clip-rule="nonzero" clip-path="url(#cbbf8b239b)"><g clip-rule="nonzero" clip-path="url(#26a9a28996)"><path style=" stroke:none;fill-rule:nonzero;fill:currentColor;fill-opacity:1;" d="M 83.707031 39.597656 L 126.421875 39.597656 L 126.421875 117.515625 L 83.707031 117.515625 Z M 83.707031 39.597656 "/></g></g><g clip-rule="nonzero" clip-path="url(#b060d0cb3b)"><g clip-rule="nonzero" clip-path="url(#d5fbc2af26)"><path style=" stroke:none;fill-rule:nonzero;fill:currentColor;fill-opacity:1;" d="M 40.695312 38.996094 L 125.023438 38.996094 L 125.023438 114.746094 L 40.695312 114.746094 Z M 40.695312 38.996094 "/></g></g><g clip-rule="nonzero" clip-path="url(#229794359e)"><g clip-rule="nonzero" clip-path="url(#cdd1b0d563)"><path style=" stroke:none;fill-rule:nonzero;fill:currentColor;fill-opacity:1;" d="M 59.554688 62.351562 L 103.269531 62.351562 L 103.269531 112.378906 L 59.554688 112.378906 Z M 59.554688 62.351562 "/></g></g><g clip-rule="nonzero" clip-path="url(#c04e928ff7)"><g clip-rule="nonzero" clip-path="url(#1270d65c7e)"><path style=" stroke:none;fill-rule:nonzero;fill:currentColor;fill-opacity:1;" d="M 84.105469 37.5 L 268.574219 37.5 L 268.574219 58.058594 L 84.105469 58.058594 Z M 84.105469 37.5 "/></g></g><g clip-rule="nonzero" clip-path="url(#c38eecc7c1)"><g clip-rule="nonzero" clip-path="url(#c2095b6ad9)"><path style=" stroke:none;fill-rule:nonzero;fill:currentColor;fill-opacity:1;" d="M 250.875 38.496094 L 303.667969 38.496094 L 303.667969 158.109375 L 250.875 158.109375 Z M 250.875 38.496094 "/></g></g><g clip-rule="nonzero" clip-path="url(#de952049e5)"><g clip-rule="nonzero" clip-path="url(#37e79f382e)"><path style=" stroke:none;fill-rule:nonzero;fill:currentColor;fill-opacity:1;" d="M 263.546875 140.195312 L 293.1875 140.195312 L 293.1875 260.496094 L 263.546875 260.496094 Z M 263.546875 140.195312 "/></g></g><g clip-rule="nonzero" clip-path="url(#679518604f)"><g clip-rule="nonzero" clip-path="url(#f7b1c887a6)"><path style=" stroke:none;fill-rule:nonzero;fill:currentColor;fill-opacity:1;" d="M 265.34375 242.289062 L 333.40625 242.289062 L 333.40625 331.890625 L 265.34375 331.890625 Z M 265.34375 242.289062 "/></g></g><g clip-rule="nonzero" clip-path="url(#f881ed3849)"><g clip-rule="nonzero" clip-path="url(#0479391b6c)"><path style=" stroke:none;fill-rule:nonzero;fill:currentColor;fill-opacity:1;" d="M 119.335938 315.445312 L 334.296875 315.445312 L 334.296875 337.5 L 119.335938 337.5 Z M 119.335938 315.445312 "/></g></g><g clip-rule="nonzero" clip-path="url(#5a33b84921)"><g clip-rule="nonzero" clip-path="url(#a538b4686e)"><path style=" stroke:none;fill-rule:nonzero;fill:currentColor;fill-opacity:1;" d="M 142.988281 69.238281 L 173.527344 69.238281 L 173.527344 111.109375 L 142.988281 111.109375 Z M 142.988281 69.238281 "/></g></g><g clip-rule="nonzero" clip-path="url(#8fdb655210)"><g clip-rule="nonzero" clip-path="url(#01e4f87826)"><path style=" stroke:none;fill-rule:nonzero;fill:currentColor;fill-opacity:1;" d="M 155.664062 92.089844 L 259.984375 92.089844 L 259.984375 111.152344 L 155.664062 111.152344 Z M 155.664062 92.089844 "/></g></g><g clip-rule="nonzero" clip-path="url(#31ec9dd8e5)"><g clip-rule="nonzero" clip-path="url(#e1beb2033e)"><path style=" stroke:none;fill-rule:nonzero;fill:currentColor;fill-opacity:1;" d="M 235.503906 68.738281 L 267.039062 68.738281 L 267.039062 109.882812 L 235.503906 109.882812 Z M 235.503906 68.738281 "/></g></g><g clip-rule="nonzero" clip-path="url(#eb0ff3664b)"><g clip-rule="nonzero" clip-path="url(#ea21a8c652)"><path style=" stroke:none;fill-rule:nonzero;fill:currentColor;fill-opacity:1;" d="M 148.378906 68.4375 L 257.453125 68.4375 L 257.453125 88.296875 L 148.378906 88.296875 Z M 148.378906 68.4375 "/></g></g><g clip-rule="nonzero" clip-path="url(#6900c20b0a)"><g clip-rule="nonzero" clip-path="url(#ab214f9e8d)"><path style=" stroke:none;fill-rule:nonzero;fill:currentColor;fill-opacity:1;" d="M 130.515625 115.941406 L 279.285156 115.941406 L 279.285156 135.402344 L 130.515625 135.402344 Z M 130.515625 115.941406 "/></g></g><g clip-rule="nonzero" clip-path="url(#8463b2a59d)"><g clip-rule="nonzero" clip-path="url(#441306f5ef)"><path style=" stroke:none;fill-rule:nonzero;fill:currentColor;fill-opacity:1;" d="M 131.113281 138.296875 L 275.648438 138.296875 L 275.648438 157.460938 L 131.113281 157.460938 Z M 131.113281 138.296875 "/></g></g><g clip-rule="nonzero" clip-path="url(#42cb701664)"><g clip-rule="nonzero" clip-path="url(#5fed38b143)"><path style=" stroke:none;fill-rule:nonzero;fill:currentColor;fill-opacity:1;" d="M 130.3125 158.957031 L 220.457031 158.957031 L 220.457031 177.917969 L 130.3125 177.917969 Z M 130.3125 158.957031 "/></g></g><g clip-rule="nonzero" clip-path="url(#1256207313)"><g clip-rule="nonzero" clip-path="url(#415e4e5a97)"><path style=" stroke:none;fill-rule:nonzero;fill:currentColor;fill-opacity:1;" d="M 106.761719 180.3125 L 269.519531 180.3125 L 269.519531 199.777344 L 106.761719 199.777344 Z M 106.761719 180.3125 "/></g></g><g clip-rule="nonzero" clip-path="url(#8af14046e2)"><g clip-rule="nonzero" clip-path="url(#27a944861b)"><path style=" stroke:none;fill-rule:nonzero;fill:currentColor;fill-opacity:1;" d="M 104.066406 199.574219 L 263.714844 199.574219 L 263.714844 221.632812 L 104.066406 221.632812 Z M 104.066406 199.574219 "/></g></g><g clip-rule="nonzero" clip-path="url(#2f174fab51)"><g clip-rule="nonzero" clip-path="url(#ae6ee7b9b0)"><path style=" stroke:none;fill-rule:nonzero;fill:currentColor;fill-opacity:1;" d="M 107.859375 219.535156 L 261.257812 219.535156 L 261.257812 241.292969 L 107.859375 241.292969 Z M 107.859375 219.535156 "/></g></g><g clip-rule="nonzero" clip-path="url(#8b924efc4b)"><g clip-rule="nonzero" clip-path="url(#2b3dc5393d)"><path style=" stroke:none;fill-rule:nonzero;fill:currentColor;fill-opacity:1;" d="M 105.664062 242.488281 L 258.636719 242.488281 L 258.636719 262.75 L 105.664062 262.75 Z M 105.664062 242.488281 "/></g></g><g clip-rule="nonzero" clip-path="url(#793c5e24ff)"><g clip-rule="nonzero" clip-path="url(#205415048b)"><path style=" stroke:none;fill-rule:nonzero;fill:currentColor;fill-opacity:1;" d="M 107.460938 264.046875 L 271.339844 264.046875 L 271.339844 282.710938 L 107.460938 282.710938 Z M 107.460938 264.046875 "/></g></g><g clip-rule="nonzero" clip-path="url(#59357d9846)"><g clip-rule="nonzero" clip-path="url(#106ffd2b89)"><path style=" stroke:none;fill-rule:nonzero;fill:currentColor;fill-opacity:1;" d="M 108.558594 285.503906 L 272.839844 285.503906 L 272.839844 305.066406 L 108.558594 305.066406 Z M 108.558594 285.503906 "/></g></g></g></svg>