<svg xmlns="http://www.w3.org/2000/svg" xmlns:xlink="http://www.w3.org/1999/xlink" width="500" zoomAndPan="magnify" viewBox="0 0 375 374.999991" height="500" preserveAspectRatio="xMidYMid meet" version="1.2"><defs><clipPath id="109fd93918"><path d="M 56.59375 153.789062 L 84.511719 153.789062 L 84.511719 204.289062 L 56.59375 204.289062 Z M 56.59375 153.789062 "/></clipPath><clipPath id="64d45ed5e0"><path d="M 80.890625 204.117188 C 71.914062 199.324219 67.9375 195.550781 66.203125 193.867188 C 65.390625 193.050781 65.132812 192.847656 64.472656 191.878906 C 63.09375 189.941406 60.546875 185.40625 59.320312 182.242188 C 58.25 179.4375 57.742188 177.195312 57.28125 173.984375 C 56.722656 169.597656 56.519531 161.441406 56.773438 158.230469 C 56.925781 156.75 56.925781 155.832031 57.433594 155.066406 C 57.894531 154.457031 58.761719 153.894531 59.476562 153.84375 C 60.1875 153.792969 61.207031 154.355469 61.667969 154.863281 C 62.023438 155.273438 62.175781 155.882812 62.175781 156.394531 C 62.175781 156.902344 62.023438 157.566406 61.667969 157.921875 C 61.207031 158.433594 60.136719 158.941406 59.476562 158.941406 C 58.914062 158.941406 58.351562 158.6875 57.945312 158.332031 C 57.589844 158.023438 57.230469 157.464844 57.128906 156.953125 C 57.027344 156.445312 57.078125 155.78125 57.332031 155.324219 C 57.539062 154.863281 57.945312 154.355469 58.457031 154.148438 C 59.015625 153.894531 60.1875 153.792969 60.800781 154.148438 C 61.464844 154.457031 61.820312 155.066406 62.175781 156.140625 C 62.992188 158.839844 61.769531 167.8125 62.226562 172.199219 C 62.585938 175.257812 62.941406 177.296875 63.859375 179.898438 C 64.980469 182.957031 66.664062 186.425781 68.753906 189.175781 C 70.894531 191.929688 73.953125 194.480469 76.65625 196.417969 C 79.003906 198.050781 82.929688 199.171875 83.898438 200.242188 C 84.304688 200.648438 84.355469 200.902344 84.40625 201.3125 C 84.507812 201.871094 84.40625 202.636719 84.101562 203.097656 C 83.796875 203.605469 83.234375 204.066406 82.671875 204.21875 C 82.164062 204.421875 80.890625 204.117188 80.890625 204.117188 "/></clipPath><clipPath id="18815d4d95"><path d="M 57 88.59375 L 79.347656 88.59375 L 79.347656 159.367188 L 57 159.367188 Z M 57 88.59375 "/></clipPath><clipPath id="01f6a1eda5"><path d="M 57.078125 156.75 C 57.691406 148.949219 59.78125 142.117188 61.257812 136.867188 C 62.738281 131.5625 64.320312 126.109375 66.050781 120.855469 C 67.785156 115.757812 70.4375 110.046875 71.761719 105.714844 C 72.730469 102.605469 73.394531 100.207031 73.800781 97.554688 C 74.210938 95.109375 73.597656 91.898438 74.261719 90.417969 C 74.667969 89.601562 75.382812 89.042969 75.996094 88.785156 C 76.503906 88.582031 77.167969 88.683594 77.625 88.886719 C 78.085938 89.09375 78.59375 89.5 78.847656 89.910156 C 79.15625 90.367188 79.257812 91.03125 79.207031 91.539062 C 79.15625 92.050781 78.953125 92.609375 78.542969 93.019531 C 78.035156 93.425781 76.910156 93.835938 76.25 93.78125 C 75.738281 93.730469 75.179688 93.375 74.820312 93.019531 C 74.464844 92.609375 74.160156 92.050781 74.160156 91.539062 C 74.109375 90.875 74.515625 89.753906 75.027344 89.296875 C 75.585938 88.835938 76.707031 88.683594 77.371094 88.785156 C 77.878906 88.886719 78.390625 89.296875 78.695312 89.703125 C 79.003906 90.113281 79.105469 90.519531 79.207031 91.234375 C 79.410156 92.609375 79.257812 95.617188 78.953125 97.605469 C 78.746094 99.441406 78.238281 100.871094 77.777344 102.757812 C 77.167969 105.101562 76.554688 107.652344 75.585938 110.558594 C 74.363281 114.28125 72.222656 118.765625 70.640625 123.253906 C 68.957031 128.199219 67.328125 134.011719 65.898438 139.058594 C 64.625 143.699219 62.890625 148.949219 62.382812 152.367188 C 62.023438 154.40625 62.484375 156.242188 62.074219 157.363281 C 61.871094 158.074219 61.515625 158.535156 61.054688 158.890625 C 60.597656 159.199219 59.882812 159.351562 59.320312 159.300781 C 58.761719 159.25 58.097656 158.890625 57.691406 158.484375 C 57.332031 158.023438 57.078125 156.75 57.078125 156.75 "/></clipPath><clipPath id="56b53418cd"><path d="M 61.433594 58 L 79.421875 58 L 79.421875 93.851562 L 61.433594 93.851562 Z M 61.433594 58 "/></clipPath><clipPath id="4e93f0aabc"><path d="M 74.109375 91.234375 C 73.089844 81.699219 71.863281 77.367188 70.589844 74.253906 C 69.519531 71.554688 68.246094 69.105469 66.664062 67.015625 C 65.289062 65.078125 62.636719 63.292969 61.921875 62.019531 C 61.566406 61.40625 61.414062 61 61.515625 60.488281 C 61.566406 59.828125 62.175781 58.808594 62.6875 58.398438 C 63.144531 58.09375 63.808594 57.992188 64.320312 58.042969 C 64.828125 58.09375 65.390625 58.398438 65.796875 58.757812 C 66.152344 59.113281 66.460938 59.671875 66.5625 60.183594 C 66.613281 60.695312 66.5625 61.304688 66.308594 61.765625 C 65.949219 62.324219 64.980469 62.988281 64.320312 63.140625 C 63.808594 63.242188 63.195312 63.039062 62.738281 62.785156 C 62.277344 62.527344 61.871094 62.019531 61.667969 61.558594 C 61.464844 61.101562 61.464844 60.4375 61.566406 59.929688 C 61.71875 59.417969 62.023438 58.859375 62.484375 58.601562 C 63.042969 58.195312 64.0625 57.992188 64.828125 58.195312 C 65.796875 58.398438 66.765625 59.417969 67.683594 60.285156 C 68.855469 61.40625 70.027344 62.835938 71.152344 64.515625 C 72.527344 66.609375 74.003906 69.054688 75.179688 71.960938 C 76.65625 75.582031 78.238281 81.191406 78.847656 84.757812 C 79.257812 87.257812 79.5625 89.703125 79.207031 91.234375 C 79.054688 92.152344 78.644531 92.917969 78.136719 93.324219 C 77.675781 93.679688 76.910156 93.835938 76.351562 93.78125 C 75.789062 93.730469 75.128906 93.375 74.769531 92.917969 C 74.414062 92.507812 74.109375 91.234375 74.109375 91.234375 "/></clipPath><clipPath id="d0a9aeadf0"><path d="M 39.3125 57.511719 L 78.617188 57.511719 L 78.617188 92.882812 L 39.3125 92.882812 Z M 39.3125 57.511719 "/></clipPath><clipPath id="ca8a9d4f9d"><path d="M 64.011719 63.140625 C 50.246094 63.394531 48.664062 64.773438 47.644531 65.792969 C 46.933594 66.558594 46.625 67.117188 46.167969 68.085938 C 45.554688 69.410156 44.789062 71.503906 44.636719 73.234375 C 44.535156 75.019531 44.84375 77.109375 45.351562 78.589844 C 45.707031 79.710938 46.371094 80.527344 46.933594 81.394531 C 47.441406 82.160156 47.800781 82.871094 48.5625 83.535156 C 49.632812 84.453125 51.417969 85.472656 53.050781 86.085938 C 54.683594 86.695312 56.007812 86.949219 58.351562 87.207031 C 62.636719 87.664062 74.210938 86.492188 76.757812 87.359375 C 77.472656 87.613281 77.726562 87.917969 78.035156 88.378906 C 78.339844 88.785156 78.542969 89.398438 78.492188 89.90625 C 78.390625 90.570312 77.777344 91.589844 77.269531 92 C 76.808594 92.304688 76.199219 92.40625 75.636719 92.304688 C 75.027344 92.203125 74.003906 91.589844 73.699219 90.980469 C 73.34375 90.367188 73.34375 89.195312 73.699219 88.582031 C 74.003906 87.972656 74.972656 87.308594 75.636719 87.257812 C 76.351562 87.15625 77.421875 87.613281 77.878906 88.125 C 78.339844 88.683594 78.59375 89.804688 78.390625 90.46875 C 78.1875 91.132812 77.726562 91.792969 76.757812 92.203125 C 74.3125 93.273438 65.339844 92.457031 61.566406 92.355469 C 59.320312 92.304688 57.996094 92.253906 56.261719 92 C 54.476562 91.742188 52.695312 91.4375 51.0625 90.773438 C 49.328125 90.113281 47.441406 88.9375 46.21875 88.023438 C 45.351562 87.410156 44.894531 87.003906 44.179688 86.1875 C 43.160156 84.960938 41.679688 82.566406 40.96875 81.136719 C 40.457031 80.117188 40.101562 79.507812 39.894531 78.386719 C 39.539062 76.90625 39.335938 74.917969 39.539062 72.929688 C 39.84375 70.535156 41.019531 66.8125 41.832031 65.027344 C 42.292969 64.007812 42.546875 63.546875 43.3125 62.785156 C 44.6875 61.40625 48.257812 59.0625 49.992188 58.296875 C 51.011719 57.839844 51.417969 57.839844 52.589844 57.734375 C 55.089844 57.480469 62.585938 57.429688 64.625 58.144531 C 65.441406 58.398438 65.796875 58.703125 66.152344 59.164062 C 66.460938 59.621094 66.613281 60.335938 66.5625 60.898438 C 66.511719 61.457031 66.152344 62.121094 65.746094 62.527344 C 65.289062 62.886719 64.011719 63.140625 64.011719 63.140625 "/></clipPath><clipPath id="ef498cb1c7"><path d="M 49 69.632812 L 67.636719 69.632812 L 67.636719 91.179688 L 49 91.179688 Z M 49 69.632812 "/></clipPath><clipPath id="bbdfa0077b"><path d="M 51.519531 69.667969 C 59.21875 70.6875 60.953125 71.707031 62.175781 72.421875 C 63.144531 72.929688 63.808594 73.183594 64.523438 73.949219 C 65.542969 74.96875 66.714844 76.90625 67.171875 78.589844 C 67.632812 80.222656 67.785156 82.160156 67.378906 83.789062 C 67.019531 85.421875 66.050781 87.207031 64.929688 88.378906 C 63.910156 89.5 62.074219 90.519531 61.003906 90.929688 C 60.394531 91.132812 59.933594 91.234375 59.425781 91.082031 C 58.761719 90.929688 57.84375 90.214844 57.589844 89.550781 C 57.332031 88.886719 57.488281 87.765625 57.84375 87.207031 C 58.097656 86.695312 58.609375 86.339844 59.117188 86.1875 C 59.628906 86.035156 60.238281 85.980469 60.75 86.1875 C 61.359375 86.441406 62.175781 87.257812 62.382812 87.917969 C 62.585938 88.582031 62.328125 89.703125 61.871094 90.265625 C 61.414062 90.773438 60.394531 91.234375 59.679688 91.132812 C 58.964844 91.082031 58.046875 90.367188 57.691406 89.804688 C 57.382812 89.347656 57.332031 88.734375 57.433594 88.226562 C 57.488281 87.714844 57.742188 87.257812 58.199219 86.746094 C 58.914062 85.929688 61.257812 85.167969 61.921875 84.097656 C 62.484375 83.28125 62.585938 82.210938 62.535156 81.292969 C 62.535156 80.425781 62.382812 79.558594 61.820312 78.742188 C 61.054688 77.621094 59.21875 76.449219 57.488281 75.683594 C 55.34375 74.765625 51.011719 74.867188 49.839844 74.101562 C 49.378906 73.796875 49.277344 73.542969 49.175781 73.132812 C 49.023438 72.625 48.972656 71.808594 49.175781 71.296875 C 49.378906 70.789062 49.941406 70.226562 50.347656 69.972656 C 50.707031 69.71875 51.519531 69.667969 51.519531 69.667969 "/></clipPath><clipPath id="e51934cdac"><path d="M 61.6875 56.695312 L 151.867188 56.695312 L 151.867188 63.546875 L 61.6875 63.546875 Z M 61.6875 56.695312 "/></clipPath><clipPath id="867801c7e2"><path d="M 64.265625 58.246094 C 117.039062 56.765625 143.855469 56.105469 149.261719 57.480469 C 150.484375 57.789062 150.996094 58.042969 151.402344 58.601562 C 151.757812 59.011719 151.910156 59.621094 151.808594 60.132812 C 151.757812 60.796875 151.148438 61.816406 150.585938 62.171875 C 150.179688 62.527344 149.515625 62.578125 149.003906 62.527344 C 148.496094 62.476562 147.882812 62.222656 147.527344 61.867188 C 147.171875 61.507812 146.8125 60.949219 146.761719 60.4375 C 146.710938 59.777344 147.015625 58.652344 147.527344 58.144531 C 148.035156 57.683594 149.160156 57.429688 149.820312 57.53125 C 150.382812 57.582031 150.890625 57.992188 151.25 58.347656 C 151.554688 58.757812 151.808594 59.367188 151.808594 59.878906 C 151.859375 60.386719 151.757812 61 151.402344 61.457031 C 150.996094 61.96875 150.484375 62.273438 149.261719 62.578125 C 143.90625 63.855469 117.648438 61.867188 102.863281 62.070312 C 89.402344 62.222656 68.703125 64.058594 64.265625 63.34375 C 63.296875 63.191406 62.992188 63.089844 62.585938 62.683594 C 62.175781 62.324219 61.820312 61.660156 61.71875 61.101562 C 61.667969 60.539062 61.820312 59.828125 62.175781 59.316406 C 62.585938 58.808594 64.265625 58.246094 64.265625 58.246094 "/></clipPath><clipPath id="fafd311e29"><path d="M 146.667969 57.445312 L 170 57.445312 L 170 114.441406 L 146.667969 114.441406 Z M 146.667969 57.445312 "/></clipPath><clipPath id="9fa701b315"><path d="M 149.363281 57.480469 C 157.878906 61.152344 160.578125 63.496094 162.210938 65.382812 C 163.484375 66.863281 164.097656 67.984375 165.066406 69.769531 C 166.441406 72.421875 168.480469 76.242188 169.296875 79.914062 C 170.164062 83.890625 170.011719 89.5 169.808594 92.867188 C 169.65625 95.007812 169.503906 95.976562 168.992188 98.167969 C 168.074219 101.992188 165.320312 111.730469 163.792969 113.617188 C 163.28125 114.226562 162.824219 114.332031 162.363281 114.382812 C 161.855469 114.484375 161.191406 114.382812 160.734375 114.175781 C 160.273438 113.921875 159.765625 113.515625 159.609375 113.003906 C 159.355469 112.394531 159.40625 111.21875 159.660156 110.609375 C 159.917969 110.097656 160.425781 109.742188 160.886719 109.539062 C 161.394531 109.332031 162.007812 109.230469 162.515625 109.4375 C 163.128906 109.640625 164.046875 110.351562 164.300781 111.015625 C 164.503906 111.679688 164.351562 112.851562 163.945312 113.414062 C 163.535156 113.972656 162.464844 114.433594 161.804688 114.433594 C 161.242188 114.484375 160.679688 114.226562 160.273438 113.871094 C 159.816406 113.414062 159.40625 112.699219 159.355469 111.679688 C 159.253906 109.027344 163.078125 101.328125 163.894531 97.710938 C 164.402344 95.464844 164.605469 94.394531 164.710938 92.253906 C 164.863281 89.195312 164.863281 83.992188 164.300781 81.085938 C 163.894531 79.046875 163.230469 77.875 162.414062 76.140625 C 161.394531 73.898438 159.96875 70.789062 158.488281 68.851562 C 157.316406 67.269531 156.246094 66.300781 154.664062 65.128906 C 152.675781 63.753906 148.089844 62.785156 147.121094 61.355469 C 146.609375 60.640625 146.761719 59.621094 146.914062 59.011719 C 147.066406 58.601562 147.324219 58.296875 147.679688 58.042969 C 148.089844 57.734375 149.363281 57.480469 149.363281 57.480469 "/></clipPath><clipPath id="edc345d37f"><path d="M 153.066406 109.347656 L 164.421875 109.347656 L 164.421875 166.84375 L 153.066406 166.84375 Z M 153.066406 109.347656 "/></clipPath><clipPath id="14312e7c8f"><path d="M 164.402344 112.34375 C 159.609375 130.851562 159 135.03125 158.640625 139.671875 C 158.285156 144.71875 158.335938 150.9375 158.488281 155.578125 C 158.589844 159.25 159.660156 163.886719 159.203125 165.367188 C 159 165.875 158.742188 166.082031 158.386719 166.285156 C 157.980469 166.589844 157.214844 166.898438 156.652344 166.792969 C 155.992188 166.691406 154.972656 166.132812 154.664062 165.46875 C 154.308594 164.804688 154.410156 163.328125 154.867188 162.714844 C 155.277344 162.105469 156.347656 161.644531 157.0625 161.695312 C 157.722656 161.746094 158.742188 162.308594 159.101562 162.917969 C 159.457031 163.53125 159.507812 164.652344 159.203125 165.316406 C 158.898438 165.929688 157.929688 166.589844 157.316406 166.742188 C 156.753906 166.898438 156.144531 166.742188 155.683594 166.488281 C 155.226562 166.234375 154.765625 165.824219 154.5625 165.316406 C 154.359375 164.703125 154.359375 163.53125 154.714844 162.917969 C 155.074219 162.308594 156.042969 161.746094 156.753906 161.695312 C 157.46875 161.644531 158.539062 162.105469 158.949219 162.714844 C 159.355469 163.328125 159.457031 164.703125 159.203125 165.367188 C 158.949219 165.929688 158.335938 166.386719 157.878906 166.589844 C 157.46875 166.792969 157.0625 166.898438 156.652344 166.792969 C 156.042969 166.640625 155.175781 166.285156 154.664062 165.46875 C 153.695312 163.9375 153.644531 160.21875 153.390625 156.953125 C 153.035156 152.519531 153.035156 146.195312 153.390625 141.25 C 153.695312 136.660156 154.207031 132.839844 155.125 128.199219 C 156.144531 122.792969 158.183594 113.3125 159.558594 110.863281 C 159.96875 110.097656 160.324219 109.792969 160.835938 109.589844 C 161.34375 109.332031 162.058594 109.28125 162.617188 109.4375 C 163.179688 109.589844 163.742188 110.046875 164.046875 110.558594 C 164.351562 111.015625 164.402344 112.34375 164.402344 112.34375 "/></clipPath><clipPath id="d210c71ff3"><path d="M 154.035156 161.59375 L 185 161.59375 L 185 203.292969 L 154.035156 203.292969 Z M 154.035156 161.59375 "/></clipPath><clipPath id="5a6ae09bd3"><path d="M 159.355469 164.144531 C 159.765625 169.292969 160.070312 170.976562 160.785156 172.914062 C 161.804688 175.71875 164.097656 180.152344 165.730469 182.703125 C 166.851562 184.488281 167.769531 185.558594 169.09375 187.035156 C 170.726562 188.769531 172.96875 190.808594 174.703125 192.390625 C 176.179688 193.664062 177.304688 194.683594 178.78125 195.703125 C 180.363281 196.773438 182.960938 197.589844 183.929688 198.660156 C 184.59375 199.375 184.949219 200.191406 185 200.800781 C 185 201.363281 184.796875 201.976562 184.390625 202.332031 C 183.929688 202.839844 182.910156 203.351562 182.199219 203.25 C 181.484375 203.199219 180.515625 202.585938 180.210938 201.925781 C 179.851562 201.3125 179.851562 200.191406 180.15625 199.578125 C 180.464844 198.914062 181.484375 198.304688 182.148438 198.203125 C 182.65625 198.101562 183.269531 198.253906 183.726562 198.507812 C 184.1875 198.761719 184.59375 199.273438 184.796875 199.730469 C 185 200.242188 185.050781 200.851562 184.898438 201.363281 C 184.746094 201.871094 184.390625 202.433594 183.980469 202.738281 C 183.574219 203.046875 183.167969 203.351562 182.453125 203.25 C 180.921875 203.148438 177.457031 200.957031 175.007812 199.222656 C 172.253906 197.285156 169.195312 194.378906 166.851562 191.929688 C 164.8125 189.839844 163.179688 188.003906 161.546875 185.609375 C 159.710938 182.804688 157.671875 179.132812 156.449219 175.972656 C 155.378906 173.117188 154.613281 169.90625 154.308594 167.609375 C 154.105469 166.03125 154.003906 164.550781 154.308594 163.53125 C 154.511719 162.867188 154.867188 162.359375 155.328125 162.054688 C 155.835938 161.746094 156.601562 161.59375 157.113281 161.59375 C 157.519531 161.644531 157.929688 161.746094 158.234375 162.054688 C 158.691406 162.460938 159.355469 164.144531 159.355469 164.144531 "/></clipPath><clipPath id="71e3988d9f"><path d="M 79.703125 198.777344 L 185.511719 198.777344 L 185.511719 206.214844 L 79.703125 206.214844 Z M 79.703125 198.777344 "/></clipPath><clipPath id="f90a1aac21"><path d="M 182.910156 204.066406 C 114.488281 206.257812 111.277344 206.308594 105.261719 206.15625 C 98.121094 205.953125 84.609375 205.902344 81.601562 204.933594 C 80.785156 204.675781 80.53125 204.421875 80.226562 204.015625 C 79.921875 203.605469 79.714844 202.996094 79.714844 202.484375 C 79.714844 201.976562 79.921875 201.363281 80.226562 200.953125 C 80.53125 200.546875 81.042969 200.140625 81.550781 200.039062 C 82.214844 199.882812 83.335938 200.140625 83.898438 200.496094 C 84.355469 200.800781 84.609375 201.414062 84.765625 201.921875 C 84.867188 202.382812 84.867188 203.046875 84.558594 203.503906 C 84.253906 204.117188 83.386719 204.882812 82.671875 204.984375 C 82.011719 205.085938 80.890625 204.675781 80.429688 204.21875 C 80.023438 203.859375 79.765625 203.25 79.714844 202.738281 C 79.664062 202.230469 79.765625 201.617188 80.074219 201.160156 C 80.429688 200.648438 80.992188 200.191406 82.113281 199.933594 C 85.628906 199.015625 98.632812 200.851562 105.769531 201.058594 C 111.683594 201.160156 114.84375 201.160156 121.984375 201.007812 C 135.800781 200.800781 177.148438 198.046875 182.910156 198.964844 C 183.929688 199.171875 184.1875 199.273438 184.59375 199.628906 C 185.050781 199.984375 185.410156 200.648438 185.460938 201.210938 C 185.511719 201.769531 185.359375 202.535156 185 202.996094 C 184.59375 203.503906 182.910156 204.066406 182.910156 204.066406 "/></clipPath><clipPath id="83b68f9761"><path d="M 91.710938 72.851562 L 103.351562 72.851562 L 103.351562 90.585938 L 91.710938 90.585938 Z M 91.710938 72.851562 "/></clipPath><clipPath id="9d6a600e16"><path d="M 98.019531 77.976562 C 96.492188 78.539062 96.542969 81.902344 97 83.179688 C 97.304688 84.097656 97.917969 84.859375 98.683594 85.269531 C 99.449219 85.675781 100.824219 85.167969 101.640625 85.523438 C 102.304688 85.878906 103.066406 86.59375 103.273438 87.257812 C 103.425781 87.917969 103.21875 89.042969 102.761719 89.601562 C 102.304688 90.113281 101.230469 90.570312 100.519531 90.46875 C 99.804688 90.417969 98.886719 89.753906 98.53125 89.144531 C 98.222656 88.53125 98.222656 87.359375 98.53125 86.746094 C 98.886719 86.136719 99.804688 85.472656 100.519531 85.421875 C 101.230469 85.320312 102.304688 85.777344 102.761719 86.289062 C 103.21875 86.847656 103.375 87.972656 103.273438 88.632812 C 103.167969 89.144531 102.761719 89.652344 102.355469 89.960938 C 101.945312 90.265625 101.4375 90.417969 100.824219 90.519531 C 99.855469 90.621094 98.121094 90.417969 97.050781 90.0625 C 96.082031 89.703125 95.316406 89.09375 94.605469 88.480469 C 93.890625 87.816406 93.175781 87.257812 92.71875 86.289062 C 92.105469 84.960938 91.851562 82.71875 91.800781 80.933594 C 91.699219 79.203125 91.648438 77.058594 92.257812 75.734375 C 92.71875 74.664062 93.480469 73.746094 94.449219 73.285156 C 95.675781 72.726562 98.222656 72.726562 99.191406 73.183594 C 99.804688 73.441406 100.210938 74 100.417969 74.5625 C 100.621094 75.070312 100.621094 75.835938 100.417969 76.347656 C 100.210938 76.855469 99.652344 77.417969 99.191406 77.722656 C 98.835938 77.925781 98.019531 77.976562 98.019531 77.976562 "/></clipPath><clipPath id="7828ccf214"><path d="M 98.25 84.875 L 147.511719 84.875 L 147.511719 91.074219 L 98.25 91.074219 Z M 98.25 84.875 "/></clipPath><clipPath id="c86adb5abc"><path d="M 100.824219 85.421875 C 146.097656 85.167969 146.609375 85.472656 147.015625 85.980469 C 147.375 86.390625 147.527344 87.003906 147.476562 87.5625 C 147.375 88.226562 146.761719 89.195312 146.203125 89.601562 C 145.792969 89.910156 145.128906 90.011719 144.621094 89.960938 C 144.109375 89.910156 143.550781 89.601562 143.140625 89.246094 C 142.785156 88.886719 142.429688 88.378906 142.378906 87.816406 C 142.328125 87.15625 142.632812 86.035156 143.140625 85.574219 C 143.652344 85.066406 144.824219 84.808594 145.4375 84.910156 C 145.996094 85.011719 146.507812 85.371094 146.863281 85.777344 C 147.171875 86.136719 147.425781 86.746094 147.476562 87.257812 C 147.476562 87.765625 147.375 88.429688 147.015625 88.835938 C 146.609375 89.347656 146.097656 89.652344 144.925781 89.960938 C 139.675781 91.285156 105.617188 91.335938 100.824219 90.519531 C 99.855469 90.316406 99.550781 90.214844 99.089844 89.855469 C 98.683594 89.5 98.324219 88.835938 98.273438 88.277344 C 98.222656 87.714844 98.324219 86.949219 98.683594 86.492188 C 99.140625 85.980469 100.824219 85.421875 100.824219 85.421875 "/></clipPath><clipPath id="5536140f72"><path d="M 139 72.839844 L 151.121094 72.839844 L 151.121094 89.898438 L 139 89.898438 Z M 139 72.839844 "/></clipPath><clipPath id="316b13bf77"><path d="M 144.164062 84.960938 C 145.488281 84.25 145.589844 82.972656 145.589844 82.109375 C 145.589844 81.242188 145.742188 80.222656 145.183594 79.507812 C 144.316406 78.488281 140.898438 78.386719 139.929688 77.417969 C 139.320312 76.753906 139.011719 75.835938 139.0625 75.171875 C 139.0625 74.613281 139.421875 74.050781 139.777344 73.695312 C 140.132812 73.339844 140.695312 73.03125 141.203125 72.929688 C 141.714844 72.878906 142.378906 72.980469 142.785156 73.234375 C 143.246094 73.492188 143.703125 73.949219 143.90625 74.410156 C 144.109375 74.867188 144.265625 75.53125 144.058594 76.039062 C 143.855469 76.652344 143.089844 77.570312 142.53125 77.824219 C 142.019531 78.078125 141.410156 78.128906 140.898438 77.925781 C 140.289062 77.671875 139.421875 76.855469 139.164062 76.242188 C 138.960938 75.734375 138.960938 75.121094 139.164062 74.613281 C 139.472656 74 140.082031 73.285156 140.949219 72.980469 C 142.277344 72.574219 145.539062 73.132812 146.964844 73.796875 C 147.882812 74.253906 148.394531 74.917969 148.902344 75.632812 C 149.414062 76.347656 149.667969 77.109375 150.027344 78.078125 C 150.433594 79.507812 150.996094 81.851562 151.097656 83.28125 C 151.148438 84.300781 151.148438 85.066406 150.789062 85.878906 C 150.433594 86.746094 149.71875 87.613281 148.902344 88.277344 C 148.035156 88.992188 146.660156 89.703125 145.640625 89.855469 C 144.824219 89.960938 143.855469 89.804688 143.296875 89.398438 C 142.835938 89.042969 142.53125 88.328125 142.378906 87.816406 C 142.277344 87.410156 142.277344 87.003906 142.480469 86.59375 C 142.734375 86.035156 144.164062 84.960938 144.164062 84.960938 "/></clipPath><clipPath id="24caf3664b"><path d="M 94.535156 72.757812 L 146.175781 72.757812 L 146.175781 79 L 94.535156 79 Z M 94.535156 72.757812 "/></clipPath><clipPath id="dc753169c2"><path d="M 97.511719 72.777344 C 113.875 73.695312 129.121094 72.675781 135.75 72.929688 C 139.214844 73.082031 141.867188 73.183594 143.601562 73.746094 C 144.570312 74 145.335938 74.304688 145.742188 74.867188 C 146.097656 75.273438 146.203125 75.886719 146.152344 76.398438 C 146.152344 76.90625 145.945312 77.519531 145.539062 77.925781 C 145.078125 78.386719 144.058594 78.894531 143.347656 78.792969 C 142.632812 78.742188 141.714844 78.027344 141.359375 77.46875 C 141.050781 77.007812 140.949219 76.398438 141.101562 75.835938 C 141.257812 75.222656 141.96875 74.304688 142.53125 73.949219 C 143.039062 73.695312 143.652344 73.695312 144.164062 73.796875 C 144.671875 73.898438 145.234375 74.253906 145.589844 74.613281 C 145.894531 75.019531 146.152344 75.632812 146.152344 76.140625 C 146.203125 76.652344 146.046875 77.265625 145.742188 77.722656 C 145.335938 78.234375 144.722656 78.589844 143.601562 78.84375 C 140.746094 79.457031 131.160156 77.824219 127.082031 77.925781 C 124.738281 78.027344 123.921875 78.4375 121.523438 78.539062 C 117.140625 78.792969 107.554688 78.691406 103.015625 78.488281 C 100.367188 78.335938 98.070312 78.234375 96.695312 77.824219 C 95.929688 77.570312 95.472656 77.316406 95.113281 76.90625 C 94.757812 76.449219 94.554688 75.683594 94.554688 75.171875 C 94.554688 74.765625 94.65625 74.359375 94.910156 74 C 95.164062 73.59375 95.828125 73.082031 96.285156 72.878906 C 96.695312 72.726562 97.511719 72.777344 97.511719 72.777344 "/></clipPath><clipPath id="304573d903"><path d="M 85.40625 96.949219 L 157.332031 96.949219 L 157.332031 103.085938 L 85.40625 103.085938 Z M 85.40625 96.949219 "/></clipPath><clipPath id="7370d0049c"><path d="M 88.027344 97.402344 C 126.929688 97.761719 146.457031 96.636719 152.421875 97.046875 C 154.410156 97.199219 155.53125 97.046875 156.296875 97.65625 C 156.960938 98.167969 157.316406 99.1875 157.316406 99.851562 C 157.316406 100.359375 157.0625 100.972656 156.703125 101.328125 C 156.398438 101.738281 155.890625 102.09375 155.328125 102.195312 C 154.664062 102.296875 153.542969 102.042969 153.035156 101.53125 C 152.523438 101.074219 152.167969 100.003906 152.269531 99.289062 C 152.371094 98.574219 153.136719 97.707031 153.695312 97.402344 C 154.207031 97.097656 154.816406 97.097656 155.328125 97.199219 C 155.835938 97.300781 156.398438 97.605469 156.703125 98.066406 C 157.113281 98.574219 157.367188 99.75 157.214844 100.359375 C 157.113281 100.921875 156.703125 101.429688 156.296875 101.738281 C 155.890625 102.042969 155.683594 102.09375 154.765625 102.246094 C 149.261719 103.164062 104.136719 103.164062 94.246094 102.910156 C 91.035156 102.808594 89.300781 102.808594 87.875 102.5 C 87.160156 102.296875 86.648438 102.195312 86.242188 101.789062 C 85.835938 101.429688 85.476562 100.71875 85.425781 100.207031 C 85.375 99.75 85.425781 99.339844 85.578125 98.984375 C 85.835938 98.523438 86.394531 97.914062 86.804688 97.65625 C 87.210938 97.453125 88.027344 97.402344 88.027344 97.402344 "/></clipPath><clipPath id="bca87cb5c4"><path d="M 85.566406 107.804688 L 155.542969 107.804688 L 155.542969 114.34375 L 85.566406 114.34375 Z M 85.566406 107.804688 "/></clipPath><clipPath id="06e2a0804c"><path d="M 88.128906 108.46875 C 114.03125 109.230469 148.648438 106.480469 153.796875 108.671875 C 154.921875 109.128906 155.226562 109.742188 155.429688 110.40625 C 155.632812 110.914062 155.53125 111.527344 155.378906 112.035156 C 155.175781 112.496094 154.765625 113.003906 154.308594 113.257812 C 153.847656 113.515625 153.238281 113.667969 152.726562 113.617188 C 152.21875 113.566406 151.605469 113.3125 151.25 112.902344 C 150.789062 112.445312 150.433594 111.320312 150.484375 110.660156 C 150.535156 110.097656 150.890625 109.589844 151.25 109.230469 C 151.605469 108.875 152.167969 108.570312 152.726562 108.519531 C 153.390625 108.519531 154.460938 108.875 154.921875 109.4375 C 155.378906 109.945312 155.582031 111.117188 155.429688 111.730469 C 155.328125 112.289062 154.921875 112.800781 154.511719 113.105469 C 154.105469 113.414062 153.902344 113.464844 152.984375 113.617188 C 147.984375 114.484375 114.335938 114.433594 102.304688 114.125 C 95.726562 113.972656 89.097656 114.332031 86.957031 113.257812 C 86.191406 112.902344 85.9375 112.445312 85.734375 111.933594 C 85.527344 111.375 85.527344 110.609375 85.734375 110.097656 C 85.9375 109.589844 86.496094 109.027344 86.957031 108.773438 C 87.3125 108.519531 88.128906 108.46875 88.128906 108.46875 "/></clipPath><clipPath id="8e88878714"><path d="M 85.140625 118.949219 L 127.257812 118.949219 L 127.257812 124.699219 L 85.140625 124.699219 Z M 85.140625 118.949219 "/></clipPath><clipPath id="15332f6420"><path d="M 87.722656 119.070312 C 119.433594 119.378906 122.902344 118.765625 124.6875 119.019531 C 125.398438 119.121094 125.808594 119.121094 126.214844 119.480469 C 126.726562 119.9375 127.285156 120.957031 127.234375 121.671875 C 127.234375 122.386719 126.570312 123.304688 126.011719 123.710938 C 125.601562 124.070312 124.992188 124.171875 124.429688 124.070312 C 123.820312 123.964844 122.800781 123.304688 122.441406 122.792969 C 122.136719 122.335938 122.035156 121.722656 122.1875 121.164062 C 122.339844 120.550781 122.953125 119.53125 123.613281 119.277344 C 124.226562 118.96875 125.398438 119.070312 125.960938 119.328125 C 126.46875 119.582031 126.878906 120.089844 127.03125 120.601562 C 127.234375 121.058594 127.335938 121.671875 127.132812 122.183594 C 126.929688 122.84375 126.417969 123.507812 125.550781 123.964844 C 123.613281 124.882812 118.820312 124.476562 114.792969 124.578125 C 109.542969 124.730469 101.84375 124.730469 96.644531 124.578125 C 92.769531 124.425781 88.179688 124.730469 86.546875 123.863281 C 85.835938 123.558594 85.527344 123.050781 85.324219 122.539062 C 85.121094 122.027344 85.121094 121.265625 85.324219 120.703125 C 85.527344 120.195312 86.089844 119.632812 86.546875 119.378906 C 86.90625 119.175781 87.722656 119.070312 87.722656 119.070312 "/></clipPath><clipPath id="938c51a09e"><path d="M 73.273438 129.757812 L 152.421875 129.757812 L 152.421875 135.96875 L 73.273438 135.96875 Z M 73.273438 129.757812 "/></clipPath><clipPath id="0d1788775f"><path d="M 75.839844 130.492188 C 98.988281 130.542969 100.570312 130.1875 103.628906 130.035156 C 108.011719 129.828125 113.316406 129.933594 119.484375 129.933594 C 128.152344 129.984375 147.171875 129.269531 150.636719 130.441406 C 151.453125 130.746094 151.65625 131.003906 151.964844 131.460938 C 152.21875 131.871094 152.472656 132.480469 152.371094 132.992188 C 152.269531 133.652344 151.757812 134.671875 151.148438 135.082031 C 150.535156 135.4375 149.363281 135.4375 148.75 135.183594 C 148.242188 134.980469 147.832031 134.519531 147.578125 134.0625 C 147.324219 133.601562 147.222656 132.992188 147.324219 132.480469 C 147.425781 131.972656 147.730469 131.359375 148.089844 131.003906 C 148.445312 130.695312 149.003906 130.339844 149.566406 130.339844 C 150.230469 130.339844 151.300781 130.695312 151.757812 131.207031 C 152.21875 131.765625 152.421875 132.890625 152.269531 133.550781 C 152.167969 134.113281 151.757812 134.570312 151.351562 134.929688 C 150.941406 135.234375 150.6875 135.285156 149.820312 135.4375 C 145.945312 136.050781 127.335938 134.980469 116.988281 135.03125 C 107.707031 135.132812 98.171875 135.746094 90.574219 135.796875 C 84.765625 135.796875 77.625 136.253906 75.230469 135.488281 C 74.414062 135.234375 74.058594 134.929688 73.75 134.46875 C 73.394531 134.011719 73.242188 133.296875 73.292969 132.734375 C 73.394531 132.175781 73.699219 131.511719 74.160156 131.105469 C 74.566406 130.746094 75.839844 130.492188 75.839844 130.492188 "/></clipPath><clipPath id="6f24c3bec5"><path d="M 71.902344 139.492188 L 149.453125 139.492188 L 149.453125 147.109375 L 71.902344 147.109375 Z M 71.902344 139.492188 "/></clipPath><clipPath id="2b45f97f57"><path d="M 74.464844 141.8125 C 138.296875 139.671875 144.109375 139.109375 146.863281 139.773438 C 147.933594 140.027344 148.546875 140.382812 148.953125 140.894531 C 149.3125 141.351562 149.464844 141.914062 149.414062 142.472656 C 149.3125 143.136719 148.699219 144.15625 148.140625 144.515625 C 147.730469 144.820312 147.066406 144.921875 146.558594 144.871094 C 146.046875 144.820312 145.488281 144.515625 145.078125 144.207031 C 144.722656 143.851562 144.367188 143.289062 144.316406 142.730469 C 144.265625 142.066406 144.570312 140.945312 145.078125 140.484375 C 145.589844 139.976562 146.761719 139.773438 147.375 139.824219 C 147.933594 139.925781 148.445312 140.28125 148.800781 140.691406 C 149.109375 141.097656 149.363281 141.660156 149.414062 142.21875 C 149.414062 142.730469 149.3125 143.339844 148.953125 143.75 C 148.546875 144.257812 147.933594 144.617188 146.863281 144.871094 C 144.058594 145.585938 138.042969 144.769531 131.160156 144.871094 C 118.160156 145.125 80.023438 147.828125 74.464844 146.910156 C 73.496094 146.757812 73.191406 146.65625 72.78125 146.296875 C 72.375 145.890625 72.015625 145.226562 71.914062 144.667969 C 71.863281 144.105469 72.015625 143.390625 72.375 142.933594 C 72.78125 142.421875 74.464844 141.8125 74.464844 141.8125 "/></clipPath><clipPath id="fa714d6e7a"><path d="M 73.8125 149.925781 L 148.140625 149.925781 L 148.140625 157.265625 L 73.8125 157.265625 Z M 73.8125 149.925781 "/></clipPath><clipPath id="8ff2e04581"><path d="M 76.402344 151.855469 C 100.261719 151.652344 107.09375 150.835938 114.691406 150.53125 C 123.613281 150.171875 139.164062 149.867188 143.753906 149.96875 C 145.128906 150.019531 145.742188 149.816406 146.457031 150.171875 C 147.171875 150.480469 147.882812 151.242188 148.089844 151.957031 C 148.242188 152.621094 147.933594 153.742188 147.476562 154.253906 C 147.015625 154.761719 145.894531 155.117188 145.234375 155.066406 C 144.722656 155.066406 144.164062 154.710938 143.804688 154.355469 C 143.449219 153.996094 143.089844 153.4375 143.039062 152.925781 C 143.039062 152.265625 143.449219 151.140625 143.90625 150.683594 C 144.265625 150.273438 144.875 150.070312 145.386719 150.019531 C 145.894531 149.96875 146.507812 150.070312 146.964844 150.429688 C 147.476562 150.785156 148.140625 151.804688 148.140625 152.46875 C 148.140625 153.179688 147.578125 154.203125 147.066406 154.609375 C 146.660156 154.964844 146.40625 154.964844 145.539062 155.117188 C 141.816406 155.679688 124.429688 155.273438 115.203125 155.628906 C 107.351562 155.933594 100.367188 156.75 93.585938 156.953125 C 87.515625 157.160156 79.105469 157.464844 76.402344 156.953125 C 75.484375 156.800781 75.128906 156.699219 74.71875 156.292969 C 74.261719 155.933594 73.902344 155.273438 73.851562 154.710938 C 73.800781 154.148438 73.902344 153.4375 74.3125 152.976562 C 74.71875 152.417969 76.402344 151.855469 76.402344 151.855469 "/></clipPath><clipPath id="44b57fd489"><path d="M 72.671875 161.636719 L 146.78125 161.636719 L 146.78125 168.148438 L 72.671875 168.148438 Z M 72.671875 161.636719 "/></clipPath><clipPath id="bc83688c57"><path d="M 75.230469 162.816406 C 128.765625 161.695312 140.492188 161.238281 144.214844 162.207031 C 145.335938 162.511719 145.894531 162.816406 146.304688 163.328125 C 146.660156 163.734375 146.8125 164.347656 146.761719 164.855469 C 146.660156 165.519531 146.046875 166.539062 145.539062 166.949219 C 145.078125 167.253906 144.46875 167.355469 143.957031 167.253906 C 143.449219 167.203125 142.835938 166.949219 142.480469 166.589844 C 142.070312 166.234375 141.765625 165.722656 141.714844 165.164062 C 141.664062 164.5 141.96875 163.378906 142.480469 162.867188 C 142.988281 162.410156 144.109375 162.15625 144.773438 162.257812 C 145.285156 162.308594 145.84375 162.714844 146.152344 163.074219 C 146.507812 163.480469 146.710938 164.09375 146.761719 164.601562 C 146.761719 165.113281 146.660156 165.773438 146.304688 166.183594 C 145.894531 166.691406 145.335938 167 144.214844 167.304688 C 140.542969 168.171875 129.019531 166.792969 119.636719 166.792969 C 107.042969 166.84375 80.074219 168.730469 75.230469 167.917969 C 74.261719 167.761719 73.953125 167.660156 73.546875 167.253906 C 73.140625 166.898438 72.78125 166.234375 72.730469 165.671875 C 72.628906 165.113281 72.78125 164.398438 73.140625 163.9375 C 73.546875 163.378906 75.230469 162.816406 75.230469 162.816406 "/></clipPath><clipPath id="d71af67046"><path d="M 73.582031 172.753906 L 153.246094 172.753906 L 153.246094 179.125 L 73.582031 179.125 Z M 73.582031 172.753906 "/></clipPath><clipPath id="44ff84fe5a"><path d="M 76.148438 173.066406 C 151.605469 172.863281 151.808594 172.863281 152.21875 173.269531 C 152.726562 173.675781 153.1875 174.75 153.238281 175.410156 C 153.238281 175.972656 153.035156 176.53125 152.625 176.941406 C 152.167969 177.398438 151.097656 177.910156 150.382812 177.808594 C 149.71875 177.757812 148.800781 177.042969 148.445312 176.480469 C 148.140625 176.023438 148.089844 175.359375 148.191406 174.851562 C 148.242188 174.339844 148.496094 173.78125 148.953125 173.421875 C 149.464844 173.015625 150.585938 172.707031 151.25 172.8125 C 151.757812 172.863281 152.269531 173.21875 152.625 173.625 C 152.984375 174.035156 153.1875 174.644531 153.238281 175.15625 C 153.238281 175.667969 153.136719 176.277344 152.777344 176.738281 C 152.371094 177.246094 151.964844 177.5 150.6875 177.808594 C 143.601562 179.59375 82.621094 179.335938 76.148438 178.164062 C 75.179688 177.960938 74.921875 177.910156 74.464844 177.5 C 74.058594 177.144531 73.699219 176.480469 73.648438 175.921875 C 73.546875 175.359375 73.699219 174.644531 74.058594 174.1875 C 74.464844 173.625 76.148438 173.066406 76.148438 173.066406 "/></clipPath><clipPath id="4c7b975c07"><path d="M 74.160156 183.464844 L 154.027344 183.464844 L 154.027344 189.867188 L 74.160156 189.867188 Z M 74.160156 183.464844 "/></clipPath><clipPath id="e1ba02ee9f"><path d="M 76.707031 184.4375 C 118.210938 183.570312 146.046875 182.90625 151.453125 184.332031 C 152.675781 184.640625 153.136719 184.894531 153.542969 185.40625 C 153.902344 185.863281 154.054688 186.476562 154.003906 186.984375 C 153.902344 187.648438 153.289062 188.667969 152.777344 189.023438 C 152.320312 189.382812 151.707031 189.433594 151.148438 189.382812 C 150.636719 189.332031 150.078125 189.074219 149.71875 188.71875 C 149.3125 188.363281 148.953125 187.800781 148.953125 187.289062 C 148.851562 186.628906 149.160156 185.507812 149.71875 184.996094 C 150.230469 184.539062 151.351562 184.28125 152.015625 184.382812 C 152.523438 184.4375 153.035156 184.792969 153.390625 185.199219 C 153.746094 185.609375 153.953125 186.21875 154.003906 186.730469 C 154.003906 187.238281 153.902344 187.851562 153.542969 188.3125 C 153.136719 188.820312 152.675781 189.125 151.453125 189.433594 C 146.046875 190.707031 118.566406 188.667969 104.953125 188.769531 C 94.398438 188.820312 80.378906 190.195312 76.707031 189.535156 C 75.789062 189.382812 75.433594 189.28125 75.027344 188.921875 C 74.617188 188.515625 74.261719 187.851562 74.210938 187.289062 C 74.109375 186.730469 74.261719 186.015625 74.617188 185.558594 C 75.027344 185.046875 76.707031 184.4375 76.707031 184.4375 "/></clipPath><clipPath id="d8a13f00b7"><path d="M 206.59375 265.664062 L 234.511719 265.664062 L 234.511719 316.164062 L 206.59375 316.164062 Z M 206.59375 265.664062 "/></clipPath><clipPath id="1863be1841"><path d="M 230.890625 315.988281 C 221.914062 311.195312 217.9375 307.421875 216.203125 305.742188 C 215.390625 304.925781 215.132812 304.722656 214.472656 303.753906 C 213.09375 301.816406 210.546875 297.277344 209.320312 294.117188 C 208.25 291.3125 207.742188 289.070312 207.28125 285.855469 C 206.722656 281.472656 206.519531 273.3125 206.773438 270.101562 C 206.925781 268.625 206.925781 267.707031 207.433594 266.941406 C 207.894531 266.328125 208.761719 265.769531 209.476562 265.71875 C 210.1875 265.667969 211.207031 266.226562 211.667969 266.738281 C 212.023438 267.144531 212.175781 267.757812 212.175781 268.265625 C 212.175781 268.777344 212.023438 269.4375 211.667969 269.796875 C 211.207031 270.304688 210.136719 270.816406 209.476562 270.816406 C 208.914062 270.816406 208.351562 270.5625 207.945312 270.203125 C 207.589844 269.898438 207.230469 269.335938 207.128906 268.828125 C 207.027344 268.316406 207.078125 267.65625 207.332031 267.195312 C 207.539062 266.738281 207.945312 266.226562 208.457031 266.023438 C 209.015625 265.769531 210.1875 265.667969 210.800781 266.023438 C 211.464844 266.328125 211.820312 266.941406 212.175781 268.011719 C 212.992188 270.714844 211.769531 279.6875 212.226562 284.070312 C 212.585938 287.132812 212.941406 289.171875 213.859375 291.769531 C 214.980469 294.828125 216.664062 298.296875 218.753906 301.050781 C 220.894531 303.804688 223.953125 306.351562 226.65625 308.289062 C 229.003906 309.921875 232.929688 311.042969 233.898438 312.113281 C 234.304688 312.523438 234.355469 312.777344 234.40625 313.183594 C 234.507812 313.746094 234.40625 314.511719 234.101562 314.96875 C 233.796875 315.480469 233.234375 315.9375 232.671875 316.089844 C 232.164062 316.296875 230.890625 315.988281 230.890625 315.988281 "/></clipPath><clipPath id="c23e138b96"><path d="M 207 200.464844 L 229.347656 200.464844 L 229.347656 271.238281 L 207 271.238281 Z M 207 200.464844 "/></clipPath><clipPath id="b133dfacb2"><path d="M 207.078125 268.625 C 207.691406 260.824219 209.78125 253.992188 211.257812 248.738281 C 212.738281 243.4375 214.320312 237.980469 216.050781 232.730469 C 217.785156 227.632812 220.4375 221.921875 221.761719 217.585938 C 222.730469 214.476562 223.394531 212.082031 223.800781 209.429688 C 224.210938 206.980469 223.597656 203.769531 224.261719 202.289062 C 224.667969 201.476562 225.382812 200.914062 225.996094 200.660156 C 226.503906 200.457031 227.167969 200.558594 227.625 200.761719 C 228.085938 200.964844 228.59375 201.375 228.847656 201.78125 C 229.15625 202.238281 229.257812 202.902344 229.207031 203.414062 C 229.15625 203.921875 228.953125 204.484375 228.542969 204.890625 C 228.035156 205.300781 226.910156 205.707031 226.25 205.65625 C 225.738281 205.605469 225.179688 205.25 224.820312 204.890625 C 224.464844 204.484375 224.160156 203.921875 224.160156 203.414062 C 224.109375 202.75 224.515625 201.628906 225.027344 201.167969 C 225.585938 200.710938 226.707031 200.558594 227.371094 200.660156 C 227.878906 200.761719 228.390625 201.167969 228.695312 201.578125 C 229.003906 201.984375 229.105469 202.394531 229.207031 203.105469 C 229.410156 204.484375 229.257812 207.492188 228.953125 209.480469 C 228.746094 211.316406 228.238281 212.742188 227.777344 214.628906 C 227.167969 216.976562 226.554688 219.523438 225.585938 222.429688 C 224.363281 226.152344 222.222656 230.640625 220.640625 235.125 C 218.957031 240.070312 217.328125 245.882812 215.898438 250.929688 C 214.625 255.570312 212.890625 260.824219 212.382812 264.238281 C 212.023438 266.277344 212.484375 268.113281 212.074219 269.234375 C 211.871094 269.949219 211.515625 270.40625 211.054688 270.765625 C 210.597656 271.070312 209.882812 271.222656 209.320312 271.171875 C 208.761719 271.121094 208.097656 270.765625 207.691406 270.355469 C 207.332031 269.898438 207.078125 268.625 207.078125 268.625 "/></clipPath><clipPath id="c9a3ce0aab"><path d="M 211.433594 169.835938 L 229.421875 169.835938 L 229.421875 205.722656 L 211.433594 205.722656 Z M 211.433594 169.835938 "/></clipPath><clipPath id="4efbdc6b36"><path d="M 224.109375 203.105469 C 223.089844 193.574219 221.863281 189.238281 220.589844 186.128906 C 219.519531 183.425781 218.246094 180.980469 216.664062 178.886719 C 215.289062 176.949219 212.636719 175.167969 211.921875 173.890625 C 211.566406 173.28125 211.414062 172.871094 211.515625 172.363281 C 211.566406 171.699219 212.175781 170.679688 212.6875 170.273438 C 213.144531 169.964844 213.808594 169.863281 214.320312 169.914062 C 214.828125 169.964844 215.390625 170.273438 215.796875 170.628906 C 216.152344 170.984375 216.460938 171.546875 216.5625 172.054688 C 216.613281 172.566406 216.5625 173.179688 216.308594 173.636719 C 215.949219 174.199219 214.980469 174.859375 214.320312 175.011719 C 213.808594 175.117188 213.195312 174.910156 212.738281 174.65625 C 212.277344 174.402344 211.871094 173.890625 211.667969 173.433594 C 211.464844 172.972656 211.464844 172.3125 211.566406 171.800781 C 211.71875 171.292969 212.023438 170.730469 212.484375 170.476562 C 213.042969 170.066406 214.0625 169.863281 214.828125 170.066406 C 215.796875 170.273438 216.765625 171.292969 217.683594 172.160156 C 218.855469 173.28125 220.027344 174.707031 221.152344 176.390625 C 222.527344 178.480469 224.003906 180.929688 225.179688 183.835938 C 226.65625 187.453125 228.238281 193.0625 228.847656 196.632812 C 229.257812 199.128906 229.5625 201.578125 229.207031 203.105469 C 229.054688 204.023438 228.644531 204.789062 228.136719 205.195312 C 227.675781 205.554688 226.910156 205.707031 226.351562 205.65625 C 225.789062 205.605469 225.128906 205.25 224.769531 204.789062 C 224.414062 204.382812 224.109375 203.105469 224.109375 203.105469 "/></clipPath><clipPath id="48b910c849"><path d="M 189.3125 169.382812 L 228.617188 169.382812 L 228.617188 204.757812 L 189.3125 204.757812 Z M 189.3125 169.382812 "/></clipPath><clipPath id="d26a2d8b50"><path d="M 214.011719 175.011719 C 200.246094 175.269531 198.664062 176.644531 197.644531 177.664062 C 196.933594 178.429688 196.625 178.992188 196.167969 179.960938 C 195.554688 181.285156 194.789062 183.375 194.636719 185.109375 C 194.535156 186.894531 194.84375 188.984375 195.351562 190.460938 C 195.707031 191.582031 196.371094 192.398438 196.933594 193.265625 C 197.441406 194.03125 197.800781 194.746094 198.5625 195.40625 C 199.632812 196.324219 201.417969 197.34375 203.050781 197.957031 C 204.683594 198.570312 206.007812 198.824219 208.351562 199.078125 C 212.636719 199.539062 224.210938 198.363281 226.757812 199.230469 C 227.472656 199.488281 227.726562 199.792969 228.035156 200.25 C 228.339844 200.660156 228.542969 201.269531 228.492188 201.78125 C 228.390625 202.445312 227.777344 203.464844 227.269531 203.871094 C 226.808594 204.175781 226.199219 204.28125 225.636719 204.175781 C 225.027344 204.074219 224.003906 203.464844 223.699219 202.851562 C 223.34375 202.238281 223.34375 201.066406 223.699219 200.457031 C 224.003906 199.84375 224.972656 199.179688 225.636719 199.128906 C 226.351562 199.027344 227.421875 199.488281 227.878906 199.996094 C 228.339844 200.558594 228.59375 201.679688 228.390625 202.34375 C 228.1875 203.003906 227.726562 203.667969 226.757812 204.074219 C 224.3125 205.144531 215.339844 204.332031 211.566406 204.226562 C 209.320312 204.175781 207.996094 204.125 206.261719 203.871094 C 204.476562 203.617188 202.695312 203.3125 201.0625 202.648438 C 199.328125 201.984375 197.441406 200.8125 196.21875 199.894531 C 195.351562 199.28125 194.894531 198.875 194.179688 198.058594 C 193.160156 196.835938 191.679688 194.4375 190.96875 193.011719 C 190.457031 191.992188 190.101562 191.378906 189.894531 190.257812 C 189.539062 188.78125 189.335938 186.792969 189.539062 184.804688 C 189.84375 182.40625 191.019531 178.683594 191.832031 176.898438 C 192.292969 175.878906 192.546875 175.421875 193.3125 174.65625 C 194.6875 173.28125 198.257812 170.933594 199.992188 170.171875 C 201.011719 169.710938 201.417969 169.710938 202.589844 169.609375 C 205.089844 169.355469 212.585938 169.304688 214.625 170.015625 C 215.441406 170.273438 215.796875 170.578125 216.152344 171.035156 C 216.460938 171.496094 216.613281 172.210938 216.5625 172.769531 C 216.511719 173.332031 216.152344 173.992188 215.746094 174.402344 C 215.289062 174.757812 214.011719 175.011719 214.011719 175.011719 "/></clipPath><clipPath id="6e1ad883f6"><path d="M 199 181.507812 L 217.636719 181.507812 L 217.636719 203.054688 L 199 203.054688 Z M 199 181.507812 "/></clipPath><clipPath id="3bea2b46f6"><path d="M 201.519531 181.539062 C 209.21875 182.558594 210.953125 183.578125 212.175781 184.292969 C 213.144531 184.804688 213.808594 185.058594 214.523438 185.824219 C 215.542969 186.84375 216.714844 188.78125 217.171875 190.460938 C 217.632812 192.09375 217.785156 194.03125 217.378906 195.664062 C 217.019531 197.292969 216.050781 199.078125 214.929688 200.25 C 213.910156 201.375 212.074219 202.394531 211.003906 202.800781 C 210.394531 203.003906 209.933594 203.105469 209.425781 202.953125 C 208.761719 202.800781 207.84375 202.085938 207.589844 201.425781 C 207.332031 200.761719 207.488281 199.640625 207.84375 199.078125 C 208.097656 198.570312 208.609375 198.210938 209.117188 198.058594 C 209.628906 197.90625 210.238281 197.855469 210.75 198.058594 C 211.359375 198.3125 212.175781 199.128906 212.382812 199.792969 C 212.585938 200.457031 212.328125 201.578125 211.871094 202.136719 C 211.414062 202.648438 210.394531 203.105469 209.679688 203.003906 C 208.964844 202.953125 208.046875 202.238281 207.691406 201.679688 C 207.382812 201.21875 207.332031 200.609375 207.433594 200.097656 C 207.488281 199.589844 207.742188 199.128906 208.199219 198.621094 C 208.914062 197.804688 211.257812 197.039062 211.921875 195.96875 C 212.484375 195.152344 212.585938 194.082031 212.535156 193.164062 C 212.535156 192.296875 212.382812 191.429688 211.820312 190.617188 C 211.054688 189.492188 209.21875 188.320312 207.488281 187.554688 C 205.34375 186.636719 201.011719 186.742188 199.839844 185.976562 C 199.378906 185.667969 199.277344 185.414062 199.175781 185.007812 C 199.023438 184.496094 198.972656 183.679688 199.175781 183.171875 C 199.378906 182.660156 199.941406 182.101562 200.347656 181.847656 C 200.707031 181.589844 201.519531 181.539062 201.519531 181.539062 "/></clipPath><clipPath id="379df67715"><path d="M 211.6875 168.570312 L 301.867188 168.570312 L 301.867188 175.421875 L 211.6875 175.421875 Z M 211.6875 168.570312 "/></clipPath><clipPath id="a1bcc68b68"><path d="M 214.265625 170.117188 C 267.039062 168.640625 293.855469 167.976562 299.261719 169.355469 C 300.484375 169.660156 300.996094 169.914062 301.402344 170.476562 C 301.757812 170.882812 301.910156 171.496094 301.808594 172.003906 C 301.757812 172.667969 301.148438 173.6875 300.585938 174.042969 C 300.179688 174.402344 299.515625 174.453125 299.003906 174.402344 C 298.496094 174.351562 297.882812 174.097656 297.527344 173.738281 C 297.171875 173.382812 296.8125 172.820312 296.761719 172.3125 C 296.710938 171.648438 297.015625 170.527344 297.527344 170.015625 C 298.035156 169.558594 299.160156 169.304688 299.820312 169.40625 C 300.382812 169.457031 300.890625 169.863281 301.25 170.222656 C 301.554688 170.628906 301.808594 171.242188 301.808594 171.75 C 301.859375 172.261719 301.757812 172.871094 301.402344 173.332031 C 300.996094 173.839844 300.484375 174.148438 299.261719 174.453125 C 293.90625 175.726562 267.648438 173.738281 252.863281 173.941406 C 239.402344 174.097656 218.703125 175.929688 214.265625 175.21875 C 213.296875 175.066406 212.992188 174.960938 212.585938 174.554688 C 212.175781 174.199219 211.820312 173.535156 211.71875 172.972656 C 211.667969 172.414062 211.820312 171.699219 212.175781 171.191406 C 212.585938 170.679688 214.265625 170.117188 214.265625 170.117188 "/></clipPath><clipPath id="5b40d42c19"><path d="M 296.667969 169.316406 L 320 169.316406 L 320 226.316406 L 296.667969 226.316406 Z M 296.667969 169.316406 "/></clipPath><clipPath id="7bfd9f3a13"><path d="M 299.363281 169.355469 C 307.878906 173.023438 310.578125 175.371094 312.210938 177.257812 C 313.484375 178.734375 314.097656 179.855469 315.066406 181.640625 C 316.441406 184.292969 318.480469 188.117188 319.296875 191.789062 C 320.164062 195.765625 320.011719 201.375 319.808594 204.738281 C 319.65625 206.878906 319.503906 207.847656 318.992188 210.039062 C 318.074219 213.863281 315.320312 223.601562 313.792969 225.488281 C 313.28125 226.101562 312.824219 226.203125 312.363281 226.253906 C 311.855469 226.355469 311.191406 226.253906 310.734375 226.050781 C 310.273438 225.796875 309.765625 225.386719 309.609375 224.878906 C 309.355469 224.265625 309.40625 223.09375 309.660156 222.480469 C 309.917969 221.972656 310.425781 221.613281 310.886719 221.410156 C 311.394531 221.207031 312.007812 221.105469 312.515625 221.308594 C 313.128906 221.511719 314.046875 222.226562 314.300781 222.890625 C 314.503906 223.550781 314.351562 224.726562 313.945312 225.285156 C 313.535156 225.847656 312.464844 226.304688 311.804688 226.304688 C 311.242188 226.355469 310.679688 226.101562 310.273438 225.746094 C 309.816406 225.285156 309.40625 224.570312 309.355469 223.550781 C 309.253906 220.902344 313.078125 213.203125 313.894531 209.582031 C 314.402344 207.339844 314.605469 206.269531 314.710938 204.125 C 314.863281 201.066406 314.863281 195.867188 314.300781 192.960938 C 313.894531 190.921875 313.230469 189.75 312.414062 188.015625 C 311.394531 185.773438 309.96875 182.660156 308.488281 180.722656 C 307.316406 179.144531 306.246094 178.175781 304.664062 177.003906 C 302.675781 175.625 298.089844 174.65625 297.121094 173.230469 C 296.609375 172.515625 296.761719 171.496094 296.914062 170.882812 C 297.066406 170.476562 297.324219 170.171875 297.679688 169.914062 C 298.089844 169.609375 299.363281 169.355469 299.363281 169.355469 "/></clipPath><clipPath id="858004fc26"><path d="M 303.066406 221.222656 L 314.421875 221.222656 L 314.421875 278.714844 L 303.066406 278.714844 Z M 303.066406 221.222656 "/></clipPath><clipPath id="33bf2d0ed1"><path d="M 314.402344 224.214844 C 309.609375 242.722656 309 246.902344 308.640625 251.542969 C 308.285156 256.589844 308.335938 262.8125 308.488281 267.449219 C 308.589844 271.121094 309.660156 275.761719 309.203125 277.238281 C 309 277.75 308.742188 277.953125 308.386719 278.15625 C 307.980469 278.464844 307.214844 278.769531 306.652344 278.667969 C 305.992188 278.566406 304.972656 278.003906 304.664062 277.34375 C 304.308594 276.679688 304.410156 275.199219 304.871094 274.589844 C 305.277344 273.976562 306.347656 273.519531 307.0625 273.570312 C 307.722656 273.621094 308.742188 274.179688 309.101562 274.792969 C 309.457031 275.40625 309.507812 276.527344 309.203125 277.1875 C 308.898438 277.800781 307.929688 278.464844 307.316406 278.617188 C 306.753906 278.769531 306.144531 278.617188 305.683594 278.363281 C 305.226562 278.105469 304.765625 277.699219 304.5625 277.1875 C 304.359375 276.578125 304.359375 275.40625 304.714844 274.792969 C 305.074219 274.179688 306.042969 273.621094 306.753906 273.570312 C 307.46875 273.519531 308.539062 273.976562 308.949219 274.589844 C 309.355469 275.199219 309.457031 276.578125 309.203125 277.238281 C 308.949219 277.800781 308.335938 278.261719 307.878906 278.464844 C 307.46875 278.667969 307.0625 278.769531 306.652344 278.667969 C 306.042969 278.515625 305.175781 278.15625 304.664062 277.34375 C 303.695312 275.8125 303.644531 272.089844 303.390625 268.828125 C 303.035156 264.390625 303.035156 258.070312 303.390625 253.125 C 303.695312 248.535156 304.207031 244.710938 305.125 240.070312 C 306.144531 234.667969 308.183594 225.183594 309.558594 222.734375 C 309.96875 221.972656 310.324219 221.664062 310.835938 221.460938 C 311.34375 221.207031 312.058594 221.15625 312.617188 221.308594 C 313.179688 221.460938 313.742188 221.921875 314.046875 222.429688 C 314.351562 222.890625 314.402344 224.214844 314.402344 224.214844 "/></clipPath><clipPath id="0ebda65d14"><path d="M 304.035156 273.464844 L 335 273.464844 L 335 315.164062 L 304.035156 315.164062 Z M 304.035156 273.464844 "/></clipPath><clipPath id="d40ff8d4ec"><path d="M 309.355469 276.015625 C 309.765625 281.164062 310.070312 282.847656 310.785156 284.785156 C 311.804688 287.589844 314.097656 292.027344 315.730469 294.574219 C 316.851562 296.359375 317.769531 297.429688 319.09375 298.910156 C 320.726562 300.640625 322.96875 302.683594 324.703125 304.261719 C 326.179688 305.539062 327.304688 306.558594 328.78125 307.578125 C 330.363281 308.648438 332.960938 309.464844 333.929688 310.535156 C 334.59375 311.246094 334.949219 312.0625 335 312.675781 C 335 313.234375 334.796875 313.847656 334.390625 314.203125 C 333.929688 314.714844 332.910156 315.222656 332.199219 315.121094 C 331.484375 315.070312 330.515625 314.460938 330.210938 313.796875 C 329.851562 313.183594 329.851562 312.0625 330.15625 311.453125 C 330.464844 310.789062 331.484375 310.175781 332.144531 310.074219 C 332.65625 309.972656 333.269531 310.125 333.726562 310.378906 C 334.1875 310.636719 334.59375 311.144531 334.796875 311.605469 C 335 312.113281 335.050781 312.726562 334.898438 313.234375 C 334.746094 313.746094 334.390625 314.308594 333.980469 314.613281 C 333.574219 314.917969 333.167969 315.222656 332.453125 315.121094 C 330.921875 315.019531 327.457031 312.828125 325.007812 311.09375 C 322.253906 309.15625 319.195312 306.25 316.851562 303.804688 C 314.8125 301.714844 313.179688 299.878906 311.546875 297.480469 C 309.710938 294.675781 307.671875 291.007812 306.449219 287.84375 C 305.378906 284.988281 304.613281 281.777344 304.308594 279.484375 C 304.105469 277.902344 304.003906 276.425781 304.308594 275.40625 C 304.511719 274.742188 304.867188 274.230469 305.328125 273.925781 C 305.835938 273.621094 306.601562 273.46875 307.113281 273.46875 C 307.519531 273.519531 307.929688 273.621094 308.234375 273.925781 C 308.691406 274.332031 309.355469 276.015625 309.355469 276.015625 "/></clipPath><clipPath id="8a08a1f3b7"><path d="M 229.703125 310.648438 L 335.511719 310.648438 L 335.511719 318.085938 L 229.703125 318.085938 Z M 229.703125 310.648438 "/></clipPath><clipPath id="53b1d8cd93"><path d="M 332.910156 315.9375 C 264.488281 318.128906 261.277344 318.179688 255.261719 318.027344 C 248.121094 317.824219 234.609375 317.773438 231.601562 316.804688 C 230.785156 316.550781 230.53125 316.296875 230.226562 315.886719 C 229.921875 315.480469 229.714844 314.867188 229.714844 314.359375 C 229.714844 313.847656 229.921875 313.234375 230.226562 312.828125 C 230.53125 312.421875 231.042969 312.011719 231.550781 311.910156 C 232.214844 311.757812 233.335938 312.011719 233.898438 312.371094 C 234.355469 312.675781 234.609375 313.285156 234.765625 313.796875 C 234.867188 314.253906 234.867188 314.917969 234.558594 315.378906 C 234.253906 315.988281 233.386719 316.753906 232.671875 316.855469 C 232.011719 316.957031 230.890625 316.550781 230.429688 316.089844 C 230.023438 315.734375 229.765625 315.121094 229.714844 314.613281 C 229.664062 314.101562 229.765625 313.492188 230.074219 313.03125 C 230.429688 312.523438 230.992188 312.0625 232.113281 311.808594 C 235.628906 310.890625 248.632812 312.726562 255.769531 312.929688 C 261.683594 313.03125 264.84375 313.03125 271.984375 312.878906 C 285.800781 312.675781 327.148438 309.921875 332.910156 310.839844 C 333.929688 311.042969 334.1875 311.144531 334.59375 311.503906 C 335.050781 311.859375 335.410156 312.523438 335.460938 313.082031 C 335.511719 313.644531 335.359375 314.410156 335 314.867188 C 334.59375 315.378906 332.910156 315.9375 332.910156 315.9375 "/></clipPath><clipPath id="5abbbce689"><path d="M 241.710938 184.726562 L 253.351562 184.726562 L 253.351562 202.460938 L 241.710938 202.460938 Z M 241.710938 184.726562 "/></clipPath><clipPath id="3b2d0a33ac"><path d="M 248.019531 189.851562 C 246.492188 190.410156 246.542969 193.777344 247 195.050781 C 247.304688 195.96875 247.917969 196.734375 248.683594 197.140625 C 249.449219 197.550781 250.824219 197.039062 251.640625 197.394531 C 252.304688 197.753906 253.066406 198.46875 253.273438 199.128906 C 253.425781 199.792969 253.21875 200.914062 252.761719 201.476562 C 252.304688 201.984375 251.230469 202.445312 250.519531 202.34375 C 249.804688 202.289062 248.886719 201.628906 248.53125 201.015625 C 248.222656 200.40625 248.222656 199.230469 248.53125 198.621094 C 248.886719 198.007812 249.804688 197.34375 250.519531 197.292969 C 251.230469 197.191406 252.304688 197.652344 252.761719 198.160156 C 253.21875 198.722656 253.375 199.84375 253.273438 200.507812 C 253.167969 201.015625 252.761719 201.527344 252.355469 201.832031 C 251.945312 202.136719 251.4375 202.289062 250.824219 202.394531 C 249.855469 202.496094 248.121094 202.289062 247.050781 201.933594 C 246.082031 201.578125 245.316406 200.964844 244.605469 200.355469 C 243.890625 199.691406 243.175781 199.128906 242.71875 198.160156 C 242.105469 196.835938 241.851562 194.59375 241.800781 192.808594 C 241.699219 191.074219 241.648438 188.933594 242.257812 187.605469 C 242.71875 186.535156 243.480469 185.617188 244.449219 185.160156 C 245.675781 184.597656 248.222656 184.597656 249.191406 185.058594 C 249.804688 185.3125 250.210938 185.875 250.417969 186.433594 C 250.621094 186.945312 250.621094 187.710938 250.417969 188.21875 C 250.210938 188.730469 249.652344 189.289062 249.191406 189.59375 C 248.835938 189.800781 248.019531 189.851562 248.019531 189.851562 "/></clipPath><clipPath id="18da4db7a3"><path d="M 248.25 196.75 L 297.511719 196.75 L 297.511719 202.949219 L 248.25 202.949219 Z M 248.25 196.75 "/></clipPath><clipPath id="dfe62e45a5"><path d="M 250.824219 197.292969 C 296.097656 197.039062 296.609375 197.34375 297.015625 197.855469 C 297.375 198.261719 297.527344 198.875 297.476562 199.4375 C 297.375 200.097656 296.761719 201.066406 296.203125 201.476562 C 295.792969 201.78125 295.128906 201.882812 294.621094 201.832031 C 294.109375 201.78125 293.550781 201.476562 293.140625 201.117188 C 292.785156 200.761719 292.429688 200.25 292.378906 199.691406 C 292.328125 199.027344 292.632812 197.90625 293.140625 197.449219 C 293.652344 196.9375 294.824219 196.683594 295.4375 196.785156 C 295.996094 196.886719 296.507812 197.242188 296.863281 197.652344 C 297.171875 198.007812 297.425781 198.621094 297.476562 199.128906 C 297.476562 199.640625 297.375 200.300781 297.015625 200.710938 C 296.609375 201.21875 296.097656 201.527344 294.925781 201.832031 C 289.675781 203.15625 255.617188 203.207031 250.824219 202.394531 C 249.855469 202.1875 249.550781 202.085938 249.089844 201.730469 C 248.683594 201.375 248.324219 200.710938 248.273438 200.148438 C 248.222656 199.589844 248.324219 198.824219 248.683594 198.363281 C 249.140625 197.855469 250.824219 197.292969 250.824219 197.292969 "/></clipPath><clipPath id="c11e01512f"><path d="M 289 184.714844 L 301.121094 184.714844 L 301.121094 201.769531 L 289 201.769531 Z M 289 184.714844 "/></clipPath><clipPath id="548127cf4d"><path d="M 294.164062 196.835938 C 295.488281 196.121094 295.589844 194.847656 295.589844 193.980469 C 295.589844 193.113281 295.742188 192.09375 295.183594 191.378906 C 294.316406 190.359375 290.898438 190.257812 289.929688 189.289062 C 289.320312 188.625 289.011719 187.710938 289.0625 187.046875 C 289.0625 186.484375 289.421875 185.925781 289.777344 185.566406 C 290.132812 185.210938 290.695312 184.90625 291.203125 184.804688 C 291.714844 184.75 292.378906 184.855469 292.785156 185.109375 C 293.246094 185.363281 293.703125 185.824219 293.90625 186.28125 C 294.109375 186.742188 294.265625 187.402344 294.058594 187.914062 C 293.855469 188.523438 293.089844 189.441406 292.53125 189.699219 C 292.019531 189.953125 291.410156 190.003906 290.898438 189.800781 C 290.289062 189.542969 289.421875 188.730469 289.164062 188.117188 C 288.960938 187.605469 288.960938 186.996094 289.164062 186.484375 C 289.472656 185.875 290.082031 185.160156 290.949219 184.855469 C 292.277344 184.445312 295.539062 185.007812 296.964844 185.667969 C 297.882812 186.128906 298.394531 186.792969 298.902344 187.503906 C 299.414062 188.21875 299.667969 188.984375 300.027344 189.953125 C 300.433594 191.378906 300.996094 193.726562 301.097656 195.152344 C 301.148438 196.171875 301.148438 196.9375 300.789062 197.753906 C 300.433594 198.621094 299.71875 199.488281 298.902344 200.148438 C 298.035156 200.863281 296.660156 201.578125 295.640625 201.730469 C 294.824219 201.832031 293.855469 201.679688 293.296875 201.269531 C 292.835938 200.914062 292.53125 200.199219 292.378906 199.691406 C 292.277344 199.28125 292.277344 198.875 292.480469 198.46875 C 292.734375 197.90625 294.164062 196.835938 294.164062 196.835938 "/></clipPath><clipPath id="dc92a4cfd2"><path d="M 244.535156 184.632812 L 296.175781 184.632812 L 296.175781 190.894531 L 244.535156 190.894531 Z M 244.535156 184.632812 "/></clipPath><clipPath id="22df0a2e65"><path d="M 247.511719 184.648438 C 263.875 185.566406 279.121094 184.546875 285.75 184.804688 C 289.214844 184.957031 291.867188 185.058594 293.601562 185.617188 C 294.570312 185.875 295.335938 186.179688 295.742188 186.742188 C 296.097656 187.148438 296.203125 187.761719 296.152344 188.269531 C 296.152344 188.78125 295.945312 189.390625 295.539062 189.800781 C 295.078125 190.257812 294.058594 190.769531 293.347656 190.667969 C 292.632812 190.617188 291.714844 189.902344 291.359375 189.339844 C 291.050781 188.882812 290.949219 188.269531 291.101562 187.710938 C 291.257812 187.097656 291.96875 186.179688 292.53125 185.824219 C 293.039062 185.566406 293.652344 185.566406 294.164062 185.667969 C 294.671875 185.773438 295.234375 186.128906 295.589844 186.484375 C 295.894531 186.894531 296.152344 187.503906 296.152344 188.015625 C 296.203125 188.523438 296.046875 189.136719 295.742188 189.59375 C 295.335938 190.105469 294.722656 190.460938 293.601562 190.71875 C 290.746094 191.328125 281.160156 189.699219 277.082031 189.800781 C 274.738281 189.902344 273.921875 190.308594 271.523438 190.410156 C 267.140625 190.667969 257.554688 190.5625 253.015625 190.359375 C 250.367188 190.207031 248.070312 190.105469 246.695312 189.699219 C 245.929688 189.441406 245.472656 189.1875 245.113281 188.78125 C 244.757812 188.320312 244.554688 187.554688 244.554688 187.046875 C 244.554688 186.636719 244.65625 186.230469 244.910156 185.875 C 245.164062 185.464844 245.828125 184.957031 246.285156 184.753906 C 246.695312 184.597656 247.511719 184.648438 247.511719 184.648438 "/></clipPath><clipPath id="bb0bd7a0bc"><path d="M 235.40625 208.820312 L 307.332031 208.820312 L 307.332031 214.957031 L 235.40625 214.957031 Z M 235.40625 208.820312 "/></clipPath><clipPath id="f3e1af3887"><path d="M 238.027344 209.277344 C 276.929688 209.632812 296.457031 208.511719 302.421875 208.917969 C 304.410156 209.070312 305.53125 208.917969 306.296875 209.53125 C 306.960938 210.039062 307.316406 211.058594 307.316406 211.722656 C 307.316406 212.234375 307.0625 212.84375 306.703125 213.203125 C 306.398438 213.609375 305.890625 213.964844 305.328125 214.070312 C 304.664062 214.171875 303.542969 213.914062 303.035156 213.40625 C 302.523438 212.945312 302.167969 211.875 302.269531 211.164062 C 302.371094 210.449219 303.136719 209.582031 303.695312 209.277344 C 304.207031 208.96875 304.816406 208.96875 305.328125 209.070312 C 305.835938 209.175781 306.398438 209.480469 306.703125 209.9375 C 307.113281 210.449219 307.367188 211.621094 307.214844 212.234375 C 307.113281 212.792969 306.703125 213.304688 306.296875 213.609375 C 305.890625 213.914062 305.683594 213.964844 304.765625 214.121094 C 299.261719 215.039062 254.136719 215.039062 244.246094 214.78125 C 241.035156 214.679688 239.300781 214.679688 237.875 214.375 C 237.160156 214.171875 236.648438 214.070312 236.242188 213.660156 C 235.835938 213.304688 235.476562 212.589844 235.425781 212.082031 C 235.375 211.621094 235.425781 211.214844 235.578125 210.855469 C 235.835938 210.398438 236.394531 209.785156 236.804688 209.53125 C 237.210938 209.328125 238.027344 209.277344 238.027344 209.277344 "/></clipPath><clipPath id="7018c0d9df"><path d="M 235.566406 219.675781 L 305.542969 219.675781 L 305.542969 226.214844 L 235.566406 226.214844 Z M 235.566406 219.675781 "/></clipPath><clipPath id="5c1fcd3fd3"><path d="M 238.128906 220.339844 C 264.03125 221.105469 298.648438 218.351562 303.796875 220.542969 C 304.921875 221.003906 305.226562 221.613281 305.429688 222.277344 C 305.632812 222.789062 305.53125 223.398438 305.378906 223.910156 C 305.175781 224.367188 304.765625 224.878906 304.308594 225.132812 C 303.847656 225.386719 303.238281 225.539062 302.726562 225.488281 C 302.21875 225.4375 301.605469 225.183594 301.25 224.777344 C 300.789062 224.316406 300.433594 223.195312 300.484375 222.53125 C 300.535156 221.972656 300.890625 221.460938 301.25 221.105469 C 301.605469 220.746094 302.167969 220.441406 302.726562 220.390625 C 303.390625 220.390625 304.460938 220.746094 304.921875 221.308594 C 305.378906 221.820312 305.582031 222.992188 305.429688 223.601562 C 305.328125 224.164062 304.921875 224.671875 304.511719 224.980469 C 304.105469 225.285156 303.902344 225.335938 302.984375 225.488281 C 297.984375 226.355469 264.335938 226.304688 252.304688 226 C 245.726562 225.847656 239.097656 226.203125 236.957031 225.132812 C 236.191406 224.777344 235.9375 224.316406 235.734375 223.808594 C 235.527344 223.246094 235.527344 222.480469 235.734375 221.972656 C 235.9375 221.460938 236.496094 220.902344 236.957031 220.644531 C 237.3125 220.390625 238.128906 220.339844 238.128906 220.339844 "/></clipPath><clipPath id="7bd6865672"><path d="M 235.140625 230.820312 L 277.257812 230.820312 L 277.257812 236.574219 L 235.140625 236.574219 Z M 235.140625 230.820312 "/></clipPath><clipPath id="fc3b9df0e4"><path d="M 237.722656 230.945312 C 269.433594 231.25 272.902344 230.640625 274.6875 230.894531 C 275.398438 230.996094 275.808594 230.996094 276.214844 231.351562 C 276.726562 231.8125 277.285156 232.832031 277.234375 233.546875 C 277.234375 234.257812 276.570312 235.175781 276.011719 235.585938 C 275.601562 235.941406 274.992188 236.042969 274.429688 235.941406 C 273.820312 235.839844 272.800781 235.175781 272.441406 234.667969 C 272.136719 234.207031 272.035156 233.597656 272.1875 233.035156 C 272.339844 232.421875 272.953125 231.402344 273.613281 231.148438 C 274.226562 230.84375 275.398438 230.945312 275.960938 231.199219 C 276.46875 231.453125 276.878906 231.964844 277.03125 232.472656 C 277.234375 232.933594 277.335938 233.546875 277.132812 234.054688 C 276.929688 234.71875 276.417969 235.378906 275.550781 235.839844 C 273.613281 236.757812 268.820312 236.347656 264.792969 236.453125 C 259.542969 236.605469 251.84375 236.605469 246.644531 236.453125 C 242.769531 236.296875 238.179688 236.605469 236.546875 235.738281 C 235.835938 235.433594 235.527344 234.921875 235.324219 234.410156 C 235.121094 233.902344 235.121094 233.136719 235.324219 232.578125 C 235.527344 232.066406 236.089844 231.503906 236.546875 231.25 C 236.90625 231.046875 237.722656 230.945312 237.722656 230.945312 "/></clipPath><clipPath id="89cd3ff2c5"><path d="M 223.273438 241.628906 L 302.421875 241.628906 L 302.421875 247.84375 L 223.273438 247.84375 Z M 223.273438 241.628906 "/></clipPath><clipPath id="fb6d137f2c"><path d="M 225.839844 242.367188 C 248.988281 242.417969 250.570312 242.058594 253.628906 241.90625 C 258.011719 241.703125 263.316406 241.804688 269.484375 241.804688 C 278.152344 241.855469 297.171875 241.140625 300.636719 242.316406 C 301.453125 242.621094 301.65625 242.875 301.964844 243.335938 C 302.21875 243.742188 302.472656 244.355469 302.371094 244.863281 C 302.269531 245.527344 301.757812 246.546875 301.148438 246.953125 C 300.535156 247.3125 299.363281 247.3125 298.75 247.054688 C 298.242188 246.851562 297.832031 246.394531 297.578125 245.933594 C 297.324219 245.476562 297.222656 244.863281 297.324219 244.355469 C 297.425781 243.84375 297.730469 243.230469 298.089844 242.875 C 298.445312 242.570312 299.003906 242.210938 299.566406 242.210938 C 300.230469 242.210938 301.300781 242.570312 301.757812 243.078125 C 302.21875 243.640625 302.421875 244.761719 302.269531 245.425781 C 302.167969 245.984375 301.757812 246.445312 301.351562 246.800781 C 300.941406 247.105469 300.6875 247.160156 299.820312 247.3125 C 295.945312 247.921875 277.335938 246.851562 266.988281 246.902344 C 257.707031 247.003906 248.171875 247.617188 240.574219 247.667969 C 234.765625 247.667969 227.625 248.128906 225.230469 247.363281 C 224.414062 247.105469 224.058594 246.800781 223.75 246.34375 C 223.394531 245.882812 223.242188 245.167969 223.292969 244.609375 C 223.394531 244.046875 223.699219 243.386719 224.160156 242.976562 C 224.566406 242.621094 225.839844 242.367188 225.839844 242.367188 "/></clipPath><clipPath id="52b03d99d8"><path d="M 221.902344 251.367188 L 299.453125 251.367188 L 299.453125 258.980469 L 221.902344 258.980469 Z M 221.902344 251.367188 "/></clipPath><clipPath id="4f3fc99a53"><path d="M 224.464844 253.683594 C 288.296875 251.542969 294.109375 250.980469 296.863281 251.644531 C 297.933594 251.898438 298.546875 252.257812 298.953125 252.765625 C 299.3125 253.226562 299.464844 253.785156 299.414062 254.347656 C 299.3125 255.011719 298.699219 256.03125 298.140625 256.386719 C 297.730469 256.691406 297.066406 256.792969 296.558594 256.742188 C 296.046875 256.691406 295.488281 256.386719 295.078125 256.082031 C 294.722656 255.722656 294.367188 255.164062 294.316406 254.601562 C 294.265625 253.941406 294.570312 252.816406 295.078125 252.359375 C 295.589844 251.847656 296.761719 251.644531 297.375 251.695312 C 297.933594 251.796875 298.445312 252.15625 298.800781 252.5625 C 299.109375 252.972656 299.363281 253.53125 299.414062 254.09375 C 299.414062 254.601562 299.3125 255.214844 298.953125 255.621094 C 298.546875 256.132812 297.933594 256.488281 296.863281 256.742188 C 294.058594 257.457031 288.042969 256.640625 281.160156 256.742188 C 268.160156 257 230.023438 259.699219 224.464844 258.78125 C 223.496094 258.628906 223.191406 258.527344 222.78125 258.171875 C 222.375 257.761719 222.015625 257.101562 221.914062 256.539062 C 221.863281 255.980469 222.015625 255.265625 222.375 254.804688 C 222.78125 254.296875 224.464844 253.683594 224.464844 253.683594 "/></clipPath><clipPath id="c7266adbb1"><path d="M 223.8125 261.800781 L 298.140625 261.800781 L 298.140625 269.136719 L 223.8125 269.136719 Z M 223.8125 261.800781 "/></clipPath><clipPath id="c4639fda5f"><path d="M 226.402344 263.730469 C 250.261719 263.523438 257.09375 262.710938 264.691406 262.402344 C 273.613281 262.046875 289.164062 261.742188 293.753906 261.84375 C 295.128906 261.894531 295.742188 261.6875 296.457031 262.046875 C 297.171875 262.351562 297.882812 263.117188 298.089844 263.832031 C 298.242188 264.492188 297.933594 265.613281 297.476562 266.125 C 297.015625 266.636719 295.894531 266.992188 295.234375 266.941406 C 294.722656 266.941406 294.164062 266.582031 293.804688 266.226562 C 293.449219 265.871094 293.089844 265.308594 293.039062 264.800781 C 293.039062 264.136719 293.449219 263.015625 293.90625 262.554688 C 294.265625 262.148438 294.875 261.945312 295.386719 261.894531 C 295.894531 261.84375 296.507812 261.945312 296.964844 262.300781 C 297.476562 262.65625 298.140625 263.675781 298.140625 264.339844 C 298.140625 265.054688 297.578125 266.074219 297.066406 266.480469 C 296.660156 266.839844 296.40625 266.839844 295.539062 266.992188 C 291.816406 267.550781 274.429688 267.144531 265.203125 267.5 C 257.351562 267.808594 250.367188 268.625 243.585938 268.828125 C 237.515625 269.03125 229.105469 269.335938 226.402344 268.828125 C 225.484375 268.675781 225.128906 268.574219 224.71875 268.164062 C 224.261719 267.808594 223.902344 267.144531 223.851562 266.582031 C 223.800781 266.023438 223.902344 265.308594 224.3125 264.851562 C 224.71875 264.289062 226.402344 263.730469 226.402344 263.730469 "/></clipPath><clipPath id="9080e9bda4"><path d="M 222.671875 273.511719 L 296.78125 273.511719 L 296.78125 280 L 222.671875 280 Z M 222.671875 273.511719 "/></clipPath><clipPath id="18b136cc1f"><path d="M 225.230469 274.691406 C 278.765625 273.570312 290.492188 273.109375 294.214844 274.078125 C 295.335938 274.382812 295.894531 274.691406 296.304688 275.199219 C 296.660156 275.609375 296.8125 276.21875 296.761719 276.730469 C 296.660156 277.394531 296.046875 278.414062 295.539062 278.820312 C 295.078125 279.125 294.46875 279.226562 293.957031 279.125 C 293.449219 279.074219 292.835938 278.820312 292.480469 278.464844 C 292.070312 278.105469 291.765625 277.597656 291.714844 277.035156 C 291.664062 276.375 291.96875 275.25 292.480469 274.742188 C 292.988281 274.28125 294.109375 274.027344 294.773438 274.128906 C 295.285156 274.179688 295.84375 274.589844 296.152344 274.945312 C 296.507812 275.351562 296.710938 275.964844 296.761719 276.476562 C 296.761719 276.984375 296.660156 277.648438 296.304688 278.054688 C 295.894531 278.566406 295.335938 278.871094 294.214844 279.175781 C 290.542969 280.042969 279.019531 278.667969 269.636719 278.667969 C 257.042969 278.71875 230.074219 280.605469 225.230469 279.789062 C 224.261719 279.636719 223.953125 279.535156 223.546875 279.125 C 223.140625 278.769531 222.78125 278.105469 222.730469 277.546875 C 222.628906 276.984375 222.78125 276.269531 223.140625 275.8125 C 223.546875 275.25 225.230469 274.691406 225.230469 274.691406 "/></clipPath><clipPath id="361d9e23a0"><path d="M 223.582031 284.628906 L 303.246094 284.628906 L 303.246094 290.996094 L 223.582031 290.996094 Z M 223.582031 284.628906 "/></clipPath><clipPath id="7372885801"><path d="M 226.148438 284.9375 C 301.605469 284.734375 301.808594 284.734375 302.21875 285.144531 C 302.726562 285.550781 303.1875 286.621094 303.238281 287.285156 C 303.238281 287.84375 303.035156 288.40625 302.625 288.8125 C 302.167969 289.273438 301.097656 289.78125 300.382812 289.679688 C 299.71875 289.628906 298.800781 288.914062 298.445312 288.355469 C 298.140625 287.894531 298.089844 287.234375 298.191406 286.722656 C 298.242188 286.214844 298.496094 285.652344 298.953125 285.296875 C 299.464844 284.886719 300.585938 284.582031 301.25 284.683594 C 301.757812 284.734375 302.269531 285.09375 302.625 285.5 C 302.984375 285.90625 303.1875 286.519531 303.238281 287.03125 C 303.238281 287.539062 303.136719 288.152344 302.777344 288.609375 C 302.371094 289.121094 301.964844 289.375 300.6875 289.679688 C 293.601562 291.464844 232.621094 291.210938 226.148438 290.039062 C 225.179688 289.832031 224.921875 289.78125 224.464844 289.375 C 224.058594 289.019531 223.699219 288.355469 223.648438 287.792969 C 223.546875 287.234375 223.699219 286.519531 224.058594 286.0625 C 224.464844 285.5 226.148438 284.9375 226.148438 284.9375 "/></clipPath><clipPath id="c062efeddf"><path d="M 224.160156 295.339844 L 304.027344 295.339844 L 304.027344 301.742188 L 224.160156 301.742188 Z M 224.160156 295.339844 "/></clipPath><clipPath id="7f4e2554b8"><path d="M 226.707031 296.308594 C 268.210938 295.441406 296.046875 294.777344 301.453125 296.207031 C 302.675781 296.511719 303.136719 296.765625 303.542969 297.277344 C 303.902344 297.734375 304.054688 298.347656 304.003906 298.859375 C 303.902344 299.519531 303.289062 300.539062 302.777344 300.898438 C 302.320312 301.253906 301.707031 301.304688 301.148438 301.253906 C 300.636719 301.203125 300.078125 300.949219 299.71875 300.589844 C 299.3125 300.234375 298.953125 299.671875 298.953125 299.164062 C 298.851562 298.5 299.160156 297.378906 299.71875 296.871094 C 300.230469 296.410156 301.351562 296.15625 302.015625 296.257812 C 302.523438 296.308594 303.035156 296.664062 303.390625 297.074219 C 303.746094 297.480469 303.953125 298.09375 304.003906 298.601562 C 304.003906 299.113281 303.902344 299.726562 303.542969 300.183594 C 303.136719 300.695312 302.675781 301 301.453125 301.304688 C 296.046875 302.578125 268.566406 300.539062 254.953125 300.640625 C 244.398438 300.695312 230.378906 302.070312 226.707031 301.40625 C 225.789062 301.253906 225.433594 301.152344 225.027344 300.796875 C 224.617188 300.386719 224.261719 299.726562 224.210938 299.164062 C 224.109375 298.601562 224.261719 297.890625 224.617188 297.429688 C 225.027344 296.921875 226.707031 296.308594 226.707031 296.308594 "/></clipPath></defs><g id="2641f950c4"><g clip-rule="nonzero" clip-path="url(#109fd93918)"><g clip-rule="nonzero" clip-path="url(#64d45ed5e0)"><path style=" stroke:none;fill-rule:nonzero;fill:currentColor;fill-opacity:1;" d="M 54.734375 151.804688 L 86.496094 151.804688 L 86.496094 206.273438 L 54.734375 206.273438 Z M 54.734375 151.804688 "/></g></g><g clip-rule="nonzero" clip-path="url(#18815d4d95)"><g clip-rule="nonzero" clip-path="url(#01f6a1eda5)"><path style=" stroke:none;fill-rule:nonzero;fill:currentColor;fill-opacity:1;" d="M 55.039062 86.746094 L 81.296875 86.746094 L 81.296875 161.417969 L 55.039062 161.417969 Z M 55.039062 86.746094 "/></g></g><g clip-rule="nonzero" clip-path="url(#56b53418cd)"><g clip-rule="nonzero" clip-path="url(#4e93f0aabc)"><path style=" stroke:none;fill-rule:nonzero;fill:currentColor;fill-opacity:1;" d="M 59.476562 56.003906 L 81.296875 56.003906 L 81.296875 95.8125 L 59.476562 95.8125 Z M 59.476562 56.003906 "/></g></g><g clip-rule="nonzero" clip-path="url(#d0a9aeadf0)"><g clip-rule="nonzero" clip-path="url(#ca8a9d4f9d)"><path style=" stroke:none;fill-rule:nonzero;fill:currentColor;fill-opacity:1;" d="M 37.5 55.695312 L 80.582031 55.695312 L 80.582031 94.394531 L 37.5 94.394531 Z M 37.5 55.695312 "/></g></g><g clip-rule="nonzero" clip-path="url(#ef498cb1c7)"><g clip-rule="nonzero" clip-path="url(#bbdfa0077b)"><path style=" stroke:none;fill-rule:nonzero;fill:currentColor;fill-opacity:1;" d="M 47.136719 67.628906 L 69.46875 67.628906 L 69.46875 93.1875 L 47.136719 93.1875 Z M 47.136719 67.628906 "/></g></g><g clip-rule="nonzero" clip-path="url(#e51934cdac)"><g clip-rule="nonzero" clip-path="url(#867801c7e2)"><path style=" stroke:none;fill-rule:nonzero;fill:currentColor;fill-opacity:1;" d="M 59.679688 54.933594 L 153.917969 54.933594 L 153.917969 65.433594 L 59.679688 65.433594 Z M 59.679688 54.933594 "/></g></g><g clip-rule="nonzero" clip-path="url(#fafd311e29)"><g clip-rule="nonzero" clip-path="url(#9fa701b315)"><path style=" stroke:none;fill-rule:nonzero;fill:currentColor;fill-opacity:1;" d="M 144.875 55.441406 L 171.847656 55.441406 L 171.847656 116.550781 L 144.875 116.550781 Z M 144.875 55.441406 "/></g></g><g clip-rule="nonzero" clip-path="url(#edc345d37f)"><g clip-rule="nonzero" clip-path="url(#14312e7c8f)"><path style=" stroke:none;fill-rule:nonzero;fill:currentColor;fill-opacity:1;" d="M 151.351562 107.394531 L 166.492188 107.394531 L 166.492188 168.855469 L 151.351562 168.855469 Z M 151.351562 107.394531 "/></g></g><g clip-rule="nonzero" clip-path="url(#d210c71ff3)"><g clip-rule="nonzero" clip-path="url(#5a6ae09bd3)"><path style=" stroke:none;fill-rule:nonzero;fill:currentColor;fill-opacity:1;" d="M 152.269531 159.554688 L 187.042969 159.554688 L 187.042969 205.328125 L 152.269531 205.328125 Z M 152.269531 159.554688 "/></g></g><g clip-rule="nonzero" clip-path="url(#71e3988d9f)"><g clip-rule="nonzero" clip-path="url(#f90a1aac21)"><path style=" stroke:none;fill-rule:nonzero;fill:currentColor;fill-opacity:1;" d="M 77.675781 196.925781 L 187.496094 196.925781 L 187.496094 208.195312 L 77.675781 208.195312 Z M 77.675781 196.925781 "/></g></g><g clip-rule="nonzero" clip-path="url(#83b68f9761)"><g clip-rule="nonzero" clip-path="url(#9d6a600e16)"><path style=" stroke:none;fill-rule:nonzero;fill:currentColor;fill-opacity:1;" d="M 89.761719 71.144531 L 105.363281 71.144531 L 105.363281 92.535156 L 89.761719 92.535156 Z M 89.761719 71.144531 "/></g></g><g clip-rule="nonzero" clip-path="url(#7828ccf214)"><g clip-rule="nonzero" clip-path="url(#c86adb5abc)"><path style=" stroke:none;fill-rule:nonzero;fill:currentColor;fill-opacity:1;" d="M 96.234375 82.820312 L 149.53125 82.820312 L 149.53125 92.558594 L 96.234375 92.558594 Z M 96.234375 82.820312 "/></g></g><g clip-rule="nonzero" clip-path="url(#5536140f72)"><g clip-rule="nonzero" clip-path="url(#316b13bf77)"><path style=" stroke:none;fill-rule:nonzero;fill:currentColor;fill-opacity:1;" d="M 137.023438 70.890625 L 153.136719 70.890625 L 153.136719 91.910156 L 137.023438 91.910156 Z M 137.023438 70.890625 "/></g></g><g clip-rule="nonzero" clip-path="url(#24caf3664b)"><g clip-rule="nonzero" clip-path="url(#dc753169c2)"><path style=" stroke:none;fill-rule:nonzero;fill:currentColor;fill-opacity:1;" d="M 92.511719 70.738281 L 148.238281 70.738281 L 148.238281 80.882812 L 92.511719 80.882812 Z M 92.511719 70.738281 "/></g></g><g clip-rule="nonzero" clip-path="url(#304573d903)"><g clip-rule="nonzero" clip-path="url(#7370d0049c)"><path style=" stroke:none;fill-rule:nonzero;fill:currentColor;fill-opacity:1;" d="M 83.386719 95.007812 L 159.390625 95.007812 L 159.390625 104.949219 L 83.386719 104.949219 Z M 83.386719 95.007812 "/></g></g><g clip-rule="nonzero" clip-path="url(#bca87cb5c4)"><g clip-rule="nonzero" clip-path="url(#06e2a0804c)"><path style=" stroke:none;fill-rule:nonzero;fill:currentColor;fill-opacity:1;" d="M 83.691406 106.425781 L 157.53125 106.425781 L 157.53125 116.21875 L 83.691406 116.21875 Z M 83.691406 106.425781 "/></g></g><g clip-rule="nonzero" clip-path="url(#8e88878714)"><g clip-rule="nonzero" clip-path="url(#15332f6420)"><path style=" stroke:none;fill-rule:nonzero;fill:currentColor;fill-opacity:1;" d="M 83.285156 116.980469 L 129.335938 116.980469 L 129.335938 126.667969 L 83.285156 126.667969 Z M 83.285156 116.980469 "/></g></g><g clip-rule="nonzero" clip-path="url(#938c51a09e)"><g clip-rule="nonzero" clip-path="url(#0d1788775f)"><path style=" stroke:none;fill-rule:nonzero;fill:currentColor;fill-opacity:1;" d="M 71.253906 127.890625 L 154.402344 127.890625 L 154.402344 137.835938 L 71.253906 137.835938 Z M 71.253906 127.890625 "/></g></g><g clip-rule="nonzero" clip-path="url(#6f24c3bec5)"><g clip-rule="nonzero" clip-path="url(#2b45f97f57)"><path style=" stroke:none;fill-rule:nonzero;fill:currentColor;fill-opacity:1;" d="M 69.875 137.734375 L 151.4375 137.734375 L 151.4375 149 L 69.875 149 Z M 69.875 137.734375 "/></g></g><g clip-rule="nonzero" clip-path="url(#fa714d6e7a)"><g clip-rule="nonzero" clip-path="url(#8ff2e04581)"><path style=" stroke:none;fill-rule:nonzero;fill:currentColor;fill-opacity:1;" d="M 71.8125 147.929688 L 150.183594 147.929688 L 150.183594 159.042969 L 71.8125 159.042969 Z M 71.8125 147.929688 "/></g></g><g clip-rule="nonzero" clip-path="url(#44b57fd489)"><g clip-rule="nonzero" clip-path="url(#bc83688c57)"><path style=" stroke:none;fill-rule:nonzero;fill:currentColor;fill-opacity:1;" d="M 70.691406 159.65625 L 148.84375 159.65625 L 148.84375 170.007812 L 70.691406 170.007812 Z M 70.691406 159.65625 "/></g></g><g clip-rule="nonzero" clip-path="url(#d71af67046)"><g clip-rule="nonzero" clip-path="url(#44ff84fe5a)"><path style=" stroke:none;fill-rule:nonzero;fill:currentColor;fill-opacity:1;" d="M 71.609375 170.667969 L 155.332031 170.667969 L 155.332031 180.203125 L 71.609375 180.203125 Z M 71.609375 170.667969 "/></g></g><g clip-rule="nonzero" clip-path="url(#4c7b975c07)"><g clip-rule="nonzero" clip-path="url(#e1ba02ee9f)"><path style=" stroke:none;fill-rule:nonzero;fill:currentColor;fill-opacity:1;" d="M 72.171875 181.632812 L 156.097656 181.632812 L 156.097656 191.625 L 72.171875 191.625 Z M 72.171875 181.632812 "/></g></g><g clip-rule="nonzero" clip-path="url(#d8a13f00b7)"><g clip-rule="nonzero" clip-path="url(#1863be1841)"><path style=" stroke:none;fill-rule:nonzero;fill:currentColor;fill-opacity:1;" d="M 204.734375 263.675781 L 236.496094 263.675781 L 236.496094 318.148438 L 204.734375 318.148438 Z M 204.734375 263.675781 "/></g></g><g clip-rule="nonzero" clip-path="url(#c23e138b96)"><g clip-rule="nonzero" clip-path="url(#b133dfacb2)"><path style=" stroke:none;fill-rule:nonzero;fill:currentColor;fill-opacity:1;" d="M 205.039062 198.621094 L 231.296875 198.621094 L 231.296875 273.289062 L 205.039062 273.289062 Z M 205.039062 198.621094 "/></g></g><g clip-rule="nonzero" clip-path="url(#c9a3ce0aab)"><g clip-rule="nonzero" clip-path="url(#4efbdc6b36)"><path style=" stroke:none;fill-rule:nonzero;fill:currentColor;fill-opacity:1;" d="M 209.476562 167.875 L 231.296875 167.875 L 231.296875 207.683594 L 209.476562 207.683594 Z M 209.476562 167.875 "/></g></g><g clip-rule="nonzero" clip-path="url(#48b910c849)"><g clip-rule="nonzero" clip-path="url(#d26a2d8b50)"><path style=" stroke:none;fill-rule:nonzero;fill:currentColor;fill-opacity:1;" d="M 187.5 167.570312 L 230.582031 167.570312 L 230.582031 206.269531 L 187.5 206.269531 Z M 187.5 167.570312 "/></g></g><g clip-rule="nonzero" clip-path="url(#6e1ad883f6)"><g clip-rule="nonzero" clip-path="url(#3bea2b46f6)"><path style=" stroke:none;fill-rule:nonzero;fill:currentColor;fill-opacity:1;" d="M 197.136719 179.5 L 219.46875 179.5 L 219.46875 205.058594 L 197.136719 205.058594 Z M 197.136719 179.5 "/></g></g><g clip-rule="nonzero" clip-path="url(#379df67715)"><g clip-rule="nonzero" clip-path="url(#a1bcc68b68)"><path style=" stroke:none;fill-rule:nonzero;fill:currentColor;fill-opacity:1;" d="M 209.679688 166.804688 L 303.917969 166.804688 L 303.917969 177.308594 L 209.679688 177.308594 Z M 209.679688 166.804688 "/></g></g><g clip-rule="nonzero" clip-path="url(#5b40d42c19)"><g clip-rule="nonzero" clip-path="url(#7bfd9f3a13)"><path style=" stroke:none;fill-rule:nonzero;fill:currentColor;fill-opacity:1;" d="M 294.875 167.316406 L 321.847656 167.316406 L 321.847656 228.421875 L 294.875 228.421875 Z M 294.875 167.316406 "/></g></g><g clip-rule="nonzero" clip-path="url(#858004fc26)"><g clip-rule="nonzero" clip-path="url(#33bf2d0ed1)"><path style=" stroke:none;fill-rule:nonzero;fill:currentColor;fill-opacity:1;" d="M 301.351562 219.269531 L 316.492188 219.269531 L 316.492188 280.726562 L 301.351562 280.726562 Z M 301.351562 219.269531 "/></g></g><g clip-rule="nonzero" clip-path="url(#0ebda65d14)"><g clip-rule="nonzero" clip-path="url(#d40ff8d4ec)"><path style=" stroke:none;fill-rule:nonzero;fill:currentColor;fill-opacity:1;" d="M 302.269531 271.425781 L 337.042969 271.425781 L 337.042969 317.203125 L 302.269531 317.203125 Z M 302.269531 271.425781 "/></g></g><g clip-rule="nonzero" clip-path="url(#8a08a1f3b7)"><g clip-rule="nonzero" clip-path="url(#53b1d8cd93)"><path style=" stroke:none;fill-rule:nonzero;fill:currentColor;fill-opacity:1;" d="M 227.675781 308.800781 L 337.496094 308.800781 L 337.496094 320.066406 L 227.675781 320.066406 Z M 227.675781 308.800781 "/></g></g><g clip-rule="nonzero" clip-path="url(#5abbbce689)"><g clip-rule="nonzero" clip-path="url(#3b2d0a33ac)"><path style=" stroke:none;fill-rule:nonzero;fill:currentColor;fill-opacity:1;" d="M 239.761719 183.019531 L 255.363281 183.019531 L 255.363281 204.410156 L 239.761719 204.410156 Z M 239.761719 183.019531 "/></g></g><g clip-rule="nonzero" clip-path="url(#18da4db7a3)"><g clip-rule="nonzero" clip-path="url(#dfe62e45a5)"><path style=" stroke:none;fill-rule:nonzero;fill:currentColor;fill-opacity:1;" d="M 246.234375 194.695312 L 299.53125 194.695312 L 299.53125 204.433594 L 246.234375 204.433594 Z M 246.234375 194.695312 "/></g></g><g clip-rule="nonzero" clip-path="url(#c11e01512f)"><g clip-rule="nonzero" clip-path="url(#548127cf4d)"><path style=" stroke:none;fill-rule:nonzero;fill:currentColor;fill-opacity:1;" d="M 287.023438 182.761719 L 303.136719 182.761719 L 303.136719 203.785156 L 287.023438 203.785156 Z M 287.023438 182.761719 "/></g></g><g clip-rule="nonzero" clip-path="url(#dc92a4cfd2)"><g clip-rule="nonzero" clip-path="url(#22df0a2e65)"><path style=" stroke:none;fill-rule:nonzero;fill:currentColor;fill-opacity:1;" d="M 242.511719 182.609375 L 298.238281 182.609375 L 298.238281 192.757812 L 242.511719 192.757812 Z M 242.511719 182.609375 "/></g></g><g clip-rule="nonzero" clip-path="url(#bb0bd7a0bc)"><g clip-rule="nonzero" clip-path="url(#f3e1af3887)"><path style=" stroke:none;fill-rule:nonzero;fill:currentColor;fill-opacity:1;" d="M 233.386719 206.878906 L 309.390625 206.878906 L 309.390625 216.820312 L 233.386719 216.820312 Z M 233.386719 206.878906 "/></g></g><g clip-rule="nonzero" clip-path="url(#7018c0d9df)"><g clip-rule="nonzero" clip-path="url(#5c1fcd3fd3)"><path style=" stroke:none;fill-rule:nonzero;fill:currentColor;fill-opacity:1;" d="M 233.691406 218.300781 L 307.53125 218.300781 L 307.53125 228.089844 L 233.691406 228.089844 Z M 233.691406 218.300781 "/></g></g><g clip-rule="nonzero" clip-path="url(#7bd6865672)"><g clip-rule="nonzero" clip-path="url(#fc3b9df0e4)"><path style=" stroke:none;fill-rule:nonzero;fill:currentColor;fill-opacity:1;" d="M 233.285156 228.855469 L 279.335938 228.855469 L 279.335938 238.542969 L 233.285156 238.542969 Z M 233.285156 228.855469 "/></g></g><g clip-rule="nonzero" clip-path="url(#89cd3ff2c5)"><g clip-rule="nonzero" clip-path="url(#fb6d137f2c)"><path style=" stroke:none;fill-rule:nonzero;fill:currentColor;fill-opacity:1;" d="M 221.253906 239.765625 L 304.402344 239.765625 L 304.402344 249.707031 L 221.253906 249.707031 Z M 221.253906 239.765625 "/></g></g><g clip-rule="nonzero" clip-path="url(#52b03d99d8)"><g clip-rule="nonzero" clip-path="url(#4f3fc99a53)"><path style=" stroke:none;fill-rule:nonzero;fill:currentColor;fill-opacity:1;" d="M 219.875 249.605469 L 301.4375 249.605469 L 301.4375 260.875 L 219.875 260.875 Z M 219.875 249.605469 "/></g></g><g clip-rule="nonzero" clip-path="url(#c7266adbb1)"><g clip-rule="nonzero" clip-path="url(#c4639fda5f)"><path style=" stroke:none;fill-rule:nonzero;fill:currentColor;fill-opacity:1;" d="M 221.8125 259.804688 L 300.183594 259.804688 L 300.183594 270.917969 L 221.8125 270.917969 Z M 221.8125 259.804688 "/></g></g><g clip-rule="nonzero" clip-path="url(#9080e9bda4)"><g clip-rule="nonzero" clip-path="url(#18b136cc1f)"><path style=" stroke:none;fill-rule:nonzero;fill:currentColor;fill-opacity:1;" d="M 220.691406 271.53125 L 298.84375 271.53125 L 298.84375 281.878906 L 220.691406 281.878906 Z M 220.691406 271.53125 "/></g></g><g clip-rule="nonzero" clip-path="url(#361d9e23a0)"><g clip-rule="nonzero" clip-path="url(#7372885801)"><path style=" stroke:none;fill-rule:nonzero;fill:currentColor;fill-opacity:1;" d="M 221.609375 282.542969 L 305.332031 282.542969 L 305.332031 292.078125 L 221.609375 292.078125 Z M 221.609375 282.542969 "/></g></g><g clip-rule="nonzero" clip-path="url(#c062efeddf)"><g clip-rule="nonzero" clip-path="url(#7f4e2554b8)"><path style=" stroke:none;fill-rule:nonzero;fill:currentColor;fill-opacity:1;" d="M 222.171875 293.503906 L 306.097656 293.503906 L 306.097656 303.496094 L 222.171875 303.496094 Z M 222.171875 293.503906 "/></g></g></g></svg>