<svg xmlns="http://www.w3.org/2000/svg" xmlns:xlink="http://www.w3.org/1999/xlink" width="500" zoomAndPan="magnify" viewBox="0 0 375 374.999991" height="500" preserveAspectRatio="xMidYMid meet" version="1.2"><defs><clipPath id="640ee638e0"><path d="M 306.207031 256.90625 L 313.230469 256.90625 L 313.230469 274.253906 L 306.207031 274.253906 Z M 306.207031 256.90625 "/></clipPath><clipPath id="741d500b49"><path d="M 312.9375 260.125 C 312.875 272.671875 312.550781 273.058594 312.039062 273.511719 C 311.523438 273.894531 310.75 274.21875 310.105469 274.21875 C 309.269531 274.152344 307.917969 273.511719 307.402344 272.867188 C 306.953125 272.289062 306.761719 271.515625 306.824219 270.871094 C 306.824219 270.226562 307.019531 269.457031 307.53125 268.941406 C 308.113281 268.363281 309.464844 267.78125 310.300781 267.78125 C 310.941406 267.78125 311.714844 268.167969 312.167969 268.621094 C 312.679688 269.003906 313.066406 269.714844 313.195312 270.355469 C 313.261719 271 313.195312 271.835938 312.875 272.417969 C 312.617188 272.996094 312.039062 273.574219 311.394531 273.894531 C 310.816406 274.152344 310.042969 274.28125 309.398438 274.152344 C 308.753906 274.023438 308.046875 273.574219 307.597656 273.125 C 307.144531 272.609375 307.019531 272.160156 306.824219 271.195312 C 306.308594 269.070312 305.921875 262.503906 306.503906 260.125 C 306.761719 258.902344 307.210938 258 307.855469 257.484375 C 308.433594 257.035156 309.398438 256.84375 310.105469 256.972656 C 310.816406 257.035156 311.652344 257.484375 312.101562 258 C 312.550781 258.515625 312.9375 260.125 312.9375 260.125 "/></clipPath><clipPath id="b103aae622"><path d="M 285.492188 232.261719 L 292.699219 232.261719 L 292.699219 257.558594 L 285.492188 257.558594 Z M 285.492188 232.261719 "/></clipPath><clipPath id="9e1566e07e"><path d="M 292.410156 235.476562 C 292.023438 256.519531 291.121094 257.097656 290.351562 257.421875 C 289.707031 257.613281 288.933594 257.550781 288.289062 257.292969 C 287.710938 257.035156 287.066406 256.519531 286.746094 255.941406 C 286.425781 255.425781 286.167969 254.652344 286.296875 253.945312 C 286.425781 253.109375 287.261719 251.886719 287.96875 251.4375 C 288.546875 251.113281 289.382812 251.050781 290.027344 251.113281 C 290.671875 251.242188 291.378906 251.566406 291.828125 252.078125 C 292.34375 252.722656 292.730469 254.140625 292.667969 254.976562 C 292.539062 255.683594 292.085938 256.328125 291.574219 256.777344 C 291.058594 257.164062 290.351562 257.484375 289.640625 257.484375 C 289 257.550781 288.226562 257.355469 287.710938 256.972656 C 287.132812 256.585938 286.746094 256.261719 286.425781 255.363281 C 285.457031 252.464844 285.136719 239.015625 285.972656 235.476562 C 286.230469 234.125 286.679688 233.351562 287.324219 232.835938 C 287.90625 232.386719 288.871094 232.195312 289.578125 232.324219 C 290.285156 232.386719 291.121094 232.835938 291.574219 233.351562 C 292.023438 233.867188 292.410156 235.476562 292.410156 235.476562 "/></clipPath><clipPath id="fa4b28fb6a"><path d="M 42.628906 270.652344 L 332.222656 270.652344 L 332.222656 278.089844 L 42.628906 278.089844 Z M 42.628906 270.652344 "/></clipPath><clipPath id="7422bd8f74"><path d="M 49.113281 270.9375 C 306.183594 270.421875 321.839844 270.613281 327.714844 271.707031 C 329.671875 272.09375 330.324219 272.417969 331.105469 272.996094 C 331.757812 273.511719 332.410156 274.28125 332.148438 274.925781 C 331.890625 275.761719 330.582031 277.050781 329.019531 277.5625 C 327.453125 278.015625 324.449219 278.015625 322.886719 277.691406 C 321.578125 277.4375 320.535156 276.855469 319.882812 276.277344 C 319.230469 275.699219 318.96875 274.925781 319.230469 274.28125 C 319.363281 273.640625 320.144531 272.867188 321.1875 272.417969 C 322.101562 272.03125 323.539062 271.578125 324.972656 271.578125 C 326.667969 271.578125 329.410156 272.03125 330.582031 272.671875 C 331.757812 273.382812 332.28125 274.796875 331.890625 275.632812 C 331.628906 276.339844 330.582031 276.921875 329.539062 277.371094 C 328.496094 277.757812 327.714844 277.886719 325.625 278.015625 C 318.96875 278.402344 302.660156 276.726562 282.5625 276.40625 C 235.847656 275.632812 67.773438 279.042969 49.113281 277.371094 C 46.503906 277.179688 45.851562 277.050781 44.808594 276.597656 C 43.761719 276.085938 42.851562 275.246094 42.71875 274.539062 C 42.457031 273.832031 42.851562 272.929688 43.761719 272.351562 C 44.808594 271.644531 49.113281 270.9375 49.113281 270.9375 "/></clipPath><clipPath id="ccc828a4f6"><path d="M 58.660156 254.5 L 313.175781 254.5 L 313.175781 261.9375 L 58.660156 261.9375 Z M 58.660156 254.5 "/></clipPath><clipPath id="2c5459aee5"><path d="M 64.351562 254.78125 C 290.261719 254.269531 304.023438 254.460938 309.183594 255.554688 C 310.90625 255.941406 311.476562 256.261719 312.167969 256.84375 C 312.738281 257.355469 313.3125 258.128906 313.082031 258.773438 C 312.855469 259.609375 311.707031 260.898438 310.332031 261.410156 C 308.957031 261.863281 306.316406 261.863281 304.941406 261.539062 C 303.796875 261.28125 302.878906 260.703125 302.304688 260.125 C 301.730469 259.546875 301.5 258.773438 301.730469 258.128906 C 301.84375 257.484375 302.535156 256.714844 303.449219 256.261719 C 304.253906 255.875 305.515625 255.425781 306.777344 255.425781 C 308.265625 255.425781 310.675781 255.875 311.707031 256.519531 C 312.738281 257.226562 313.199219 258.644531 312.855469 259.480469 C 312.625 260.1875 311.707031 260.769531 310.789062 261.21875 C 309.871094 261.605469 309.183594 261.734375 307.351562 261.863281 C 301.5 262.25 287.167969 260.574219 269.507812 260.253906 C 228.453125 259.480469 80.753906 262.890625 64.351562 261.21875 C 62.058594 261.023438 61.488281 260.898438 60.570312 260.445312 C 59.652344 259.929688 58.847656 259.09375 58.734375 258.386719 C 58.503906 257.679688 58.847656 256.777344 59.652344 256.199219 C 60.570312 255.492188 64.351562 254.78125 64.351562 254.78125 "/></clipPath><clipPath id="0f02f3a027"><path d="M 82.679688 230.050781 L 293.042969 230.050781 L 293.042969 237.488281 L 82.679688 237.488281 Z M 82.679688 230.050781 "/></clipPath><clipPath id="30f41a8bf4"><path d="M 87.421875 230.332031 C 274.121094 229.820312 285.496094 230.011719 289.761719 231.105469 C 291.179688 231.492188 291.65625 231.8125 292.222656 232.394531 C 292.699219 232.90625 293.171875 233.679688 292.980469 234.324219 C 292.792969 235.160156 291.84375 236.449219 290.707031 236.960938 C 289.570312 237.414062 287.390625 237.414062 286.253906 237.089844 C 285.304688 236.832031 284.546875 236.253906 284.074219 235.675781 C 283.601562 235.097656 283.410156 234.324219 283.601562 233.679688 C 283.695312 233.035156 284.261719 232.265625 285.019531 231.8125 C 285.683594 231.429688 286.726562 230.976562 287.769531 230.976562 C 289 230.976562 290.992188 231.429688 291.84375 232.070312 C 292.699219 232.777344 293.078125 234.195312 292.792969 235.03125 C 292.601562 235.738281 291.84375 236.320312 291.085938 236.769531 C 290.328125 237.15625 289.761719 237.285156 288.242188 237.414062 C 283.410156 237.800781 271.5625 236.125 256.96875 235.804688 C 223.042969 235.03125 100.976562 238.441406 87.421875 236.769531 C 85.527344 236.574219 85.054688 236.449219 84.296875 235.996094 C 83.539062 235.480469 82.875 234.644531 82.78125 233.9375 C 82.589844 233.230469 82.875 232.328125 83.539062 231.75 C 84.296875 231.042969 87.421875 230.332031 87.421875 230.332031 "/></clipPath><clipPath id="2a1a822dc3"><path d="M 58.105469 256.914062 L 65.277344 256.914062 L 65.277344 273.6875 L 58.105469 273.6875 Z M 58.105469 256.914062 "/></clipPath><clipPath id="49c961552d"><path d="M 64.785156 260.1875 C 65.171875 271.386719 65.042969 271.902344 64.65625 272.417969 C 64.273438 272.929688 63.5625 273.382812 62.921875 273.574219 C 62.277344 273.703125 61.503906 273.703125 60.859375 273.445312 C 60.28125 273.1875 59.636719 272.671875 59.316406 272.09375 C 58.996094 271.578125 58.738281 270.808594 58.867188 270.097656 C 59.058594 269.261719 59.832031 268.039062 60.539062 267.589844 C 61.117188 267.203125 61.953125 267.140625 62.597656 267.269531 C 63.242188 267.398438 63.949219 267.71875 64.398438 268.234375 C 64.914062 268.875 65.300781 270.292969 65.238281 271.128906 C 65.109375 271.835938 64.65625 272.480469 64.144531 272.929688 C 63.628906 273.316406 62.921875 273.640625 62.210938 273.640625 C 61.570312 273.703125 60.796875 273.445312 60.28125 273.125 C 59.703125 272.738281 59.316406 272.351562 58.996094 271.449219 C 58.285156 269.457031 57.835938 262.570312 58.351562 260.1875 C 58.609375 258.964844 59.058594 258.066406 59.703125 257.550781 C 60.28125 257.101562 61.246094 256.90625 61.953125 256.972656 C 62.664062 257.101562 63.5 257.484375 63.949219 258.066406 C 64.398438 258.578125 64.785156 260.1875 64.785156 260.1875 "/></clipPath><clipPath id="ee15e4d278"><path d="M 82.582031 231.132812 L 89.65625 231.132812 L 89.65625 256.992188 L 82.582031 256.992188 Z M 82.582031 231.132812 "/></clipPath><clipPath id="9bbfeeeb38"><path d="M 89.628906 234.382812 C 89.242188 254.78125 89.175781 255.167969 88.726562 255.683594 C 88.210938 256.328125 86.859375 257.035156 86.023438 256.972656 C 85.121094 256.90625 83.898438 256.070312 83.449219 255.425781 C 83 254.847656 82.933594 254.074219 83 253.429688 C 83.0625 252.789062 83.320312 252.015625 83.835938 251.566406 C 84.480469 250.984375 85.832031 250.40625 86.730469 250.601562 C 87.566406 250.730469 88.726562 251.566406 89.113281 252.402344 C 89.5 253.238281 89.304688 254.652344 88.917969 255.425781 C 88.660156 256.003906 87.953125 256.519531 87.375 256.714844 C 86.796875 256.972656 85.960938 257.101562 85.316406 256.84375 C 84.542969 256.585938 83.640625 255.941406 83.128906 254.78125 C 82.097656 252.464844 82.933594 245.902344 82.933594 242.167969 C 83 239.273438 82.871094 236.121094 83.191406 234.382812 C 83.386719 233.417969 83.511719 232.773438 84.027344 232.257812 C 84.480469 231.679688 85.378906 231.292969 86.023438 231.164062 C 86.539062 231.101562 87.117188 231.164062 87.566406 231.359375 C 88.019531 231.550781 88.46875 231.808594 88.855469 232.257812 C 89.242188 232.773438 89.628906 234.382812 89.628906 234.382812 "/></clipPath><clipPath id="b20c357960"><path d="M 104.300781 157.671875 L 113.246094 157.671875 L 113.246094 233.058594 L 104.300781 233.058594 Z M 104.300781 157.671875 "/></clipPath><clipPath id="ba15801b87"><path d="M 105.585938 230.007812 C 104.171875 212.308594 104.300781 209.992188 104.363281 206.003906 C 104.429688 199.824219 104.492188 190.300781 104.878906 182.511719 C 105.328125 174.917969 105.652344 163.011719 106.875 159.859375 C 107.261719 158.957031 107.582031 158.636719 108.160156 158.25 C 108.675781 157.863281 109.511719 157.671875 110.15625 157.734375 C 110.800781 157.734375 111.574219 157.992188 112.023438 158.507812 C 112.601562 159.085938 113.179688 160.4375 113.117188 161.277344 C 113.117188 161.984375 112.796875 162.691406 112.28125 163.140625 C 111.636719 163.722656 110.222656 164.171875 109.382812 164.105469 C 108.742188 164.042969 108.03125 163.65625 107.582031 163.140625 C 107.066406 162.5 106.617188 161.082031 106.808594 160.246094 C 107.003906 159.34375 108.03125 158.316406 108.742188 157.929688 C 109.382812 157.605469 110.222656 157.671875 110.800781 157.800781 C 111.445312 157.992188 112.152344 158.445312 112.539062 158.957031 C 112.921875 159.472656 113.050781 159.925781 113.179688 160.953125 C 113.566406 164.492188 111.574219 177.234375 111.1875 184.957031 C 110.863281 192.035156 110.671875 198.214844 110.800781 205.359375 C 110.863281 213.273438 112.859375 226.789062 111.957031 230.390625 C 111.699219 231.488281 111.316406 231.871094 110.734375 232.324219 C 110.222656 232.773438 109.320312 233.03125 108.613281 233.03125 C 107.902344 232.964844 107.003906 232.582031 106.488281 232.066406 C 105.972656 231.550781 105.585938 230.007812 105.585938 230.007812 "/></clipPath><clipPath id="d688117927"><path d="M 135.863281 165.902344 L 143.898438 165.902344 L 143.898438 234.167969 L 135.863281 234.167969 Z M 135.863281 165.902344 "/></clipPath><clipPath id="52ab1f6f1c"><path d="M 142.785156 169.0625 C 142.65625 197.957031 143.683594 204.394531 143.75 211.148438 C 143.878906 218.101562 144.199219 229.296875 143.042969 232.195312 C 142.65625 233.09375 142.207031 233.417969 141.691406 233.738281 C 141.109375 234.0625 140.273438 234.1875 139.632812 234.125 C 138.988281 233.996094 138.28125 233.675781 137.828125 233.160156 C 137.378906 232.710938 136.929688 232 136.929688 231.359375 C 136.863281 230.519531 137.378906 229.105469 137.957031 228.527344 C 138.410156 228.011719 139.179688 227.691406 139.824219 227.691406 C 140.660156 227.691406 142.078125 228.332031 142.589844 228.914062 C 143.105469 229.425781 143.300781 230.199219 143.300781 230.84375 C 143.300781 231.488281 143.105469 232.257812 142.71875 232.839844 C 142.332031 233.351562 141.691406 233.867188 141.046875 233.996094 C 140.210938 234.1875 138.730469 233.867188 138.085938 233.417969 C 137.507812 233.03125 137.25 232.644531 136.992188 231.679688 C 136.089844 228.65625 137.441406 218.292969 137.3125 210.894531 C 137.183594 202.527344 136.027344 191.84375 135.960938 183.992188 C 135.960938 177.878906 135.511719 170.09375 136.734375 167.582031 C 137.183594 166.679688 137.765625 166.359375 138.410156 166.101562 C 139.117188 165.84375 140.082031 165.910156 140.726562 166.101562 C 141.238281 166.230469 141.625 166.550781 141.949219 166.9375 C 142.398438 167.453125 142.785156 169.0625 142.785156 169.0625 "/></clipPath><clipPath id="7fdaa6a39e"><path d="M 166.953125 186.265625 L 174.738281 186.265625 L 174.738281 233 L 166.953125 233 Z M 166.953125 186.265625 "/></clipPath><clipPath id="fc5436dd62"><path d="M 167.5625 229.878906 C 167.046875 188.433594 167.046875 188.046875 167.5625 187.53125 C 168.074219 186.953125 169.363281 186.246094 170.265625 186.308594 C 171.164062 186.375 172.386719 187.144531 172.839844 187.855469 C 173.222656 188.433594 173.351562 189.207031 173.289062 189.847656 C 173.222656 190.492188 172.964844 191.265625 172.453125 191.714844 C 171.808594 192.292969 170.390625 192.746094 169.554688 192.679688 C 168.914062 192.617188 168.203125 192.230469 167.753906 191.714844 C 167.238281 191.070312 166.851562 189.65625 166.980469 188.820312 C 167.046875 188.109375 167.496094 187.46875 168.011719 187.082031 C 168.527344 186.632812 169.296875 186.308594 169.941406 186.308594 C 170.585938 186.246094 171.359375 186.4375 171.871094 186.824219 C 172.582031 187.339844 172.902344 188.046875 173.289062 189.527344 C 174.703125 194.996094 175.347656 225.695312 173.933594 230.519531 C 173.609375 231.613281 173.289062 232 172.710938 232.386719 C 172.128906 232.835938 171.230469 233.09375 170.519531 232.964844 C 169.8125 232.902344 168.914062 232.515625 168.460938 232 C 167.945312 231.488281 167.5625 229.878906 167.5625 229.878906 "/></clipPath><clipPath id="4b48dbfc53"><path d="M 166.902344 173.074219 L 206.707031 173.074219 L 206.707031 192.691406 L 166.902344 192.691406 Z M 166.902344 173.074219 "/></clipPath><clipPath id="7690be8636"><path d="M 166.917969 189.269531 C 168.460938 182.320312 170.328125 179.746094 171.617188 178.328125 C 172.453125 177.363281 172.964844 176.847656 174.191406 176.207031 C 176.3125 175.113281 180.5625 173.761719 183.777344 173.375 C 186.996094 172.988281 190.730469 173.117188 193.558594 173.890625 C 195.878906 174.46875 197.808594 175.496094 199.609375 176.785156 C 201.410156 178.070312 203.277344 180.003906 204.371094 181.546875 C 205.144531 182.707031 205.53125 183.734375 205.917969 184.894531 C 206.300781 186.246094 206.816406 187.917969 206.625 189.140625 C 206.496094 190.171875 205.980469 191.328125 205.273438 191.78125 C 204.5 192.292969 203.085938 192.488281 202.25 192.164062 C 201.410156 191.84375 200.574219 190.621094 200.316406 189.847656 C 200.125 189.207031 200.1875 188.433594 200.511719 187.789062 C 200.898438 187.082031 202.121094 186.179688 202.890625 185.988281 C 203.601562 185.792969 204.371094 185.921875 204.949219 186.308594 C 205.660156 186.761719 206.496094 187.984375 206.625 188.820312 C 206.753906 189.460938 206.558594 190.234375 206.171875 190.8125 C 205.851562 191.328125 205.207031 191.90625 204.628906 192.101562 C 204.050781 192.359375 203.214844 192.421875 202.570312 192.230469 C 201.992188 192.101562 201.347656 191.78125 200.898438 191.070312 C 200.058594 189.976562 199.929688 186.761719 199.09375 185.28125 C 198.515625 184.121094 197.871094 183.414062 196.84375 182.640625 C 195.363281 181.484375 192.789062 180.261719 190.664062 179.808594 C 188.605469 179.292969 186.417969 179.359375 184.164062 179.679688 C 181.785156 180.003906 178.628906 181.097656 176.957031 182.0625 C 175.796875 182.769531 175.15625 183.285156 174.511719 184.378906 C 173.675781 185.859375 173.804688 189.140625 173.160156 190.558594 C 172.773438 191.328125 172.386719 191.972656 171.679688 192.292969 C 170.972656 192.679688 169.492188 192.746094 168.71875 192.421875 C 168.011719 192.164062 167.433594 191.328125 167.109375 190.75 C 166.917969 190.300781 166.917969 189.269531 166.917969 189.269531 "/></clipPath><clipPath id="54b0fbbdd6"><path d="M 199.269531 185.910156 L 206.636719 185.910156 L 206.636719 233.082031 L 199.269531 233.082031 Z M 199.269531 185.910156 "/></clipPath><clipPath id="411a22e0d2"><path d="M 206.625 189.140625 C 206.109375 231.742188 205.722656 232.066406 205.144531 232.453125 C 204.566406 232.902344 203.601562 233.09375 202.890625 233.03125 C 202.183594 232.902344 201.347656 232.515625 200.898438 231.9375 C 200.445312 231.421875 200.058594 230.585938 200.058594 229.8125 C 200.125 228.976562 200.832031 227.691406 201.476562 227.175781 C 202.054688 226.722656 202.828125 226.53125 203.472656 226.59375 C 204.308594 226.722656 205.59375 227.496094 206.046875 228.140625 C 206.496094 228.71875 206.625 229.492188 206.496094 230.199219 C 206.367188 230.972656 205.53125 232.195312 204.824219 232.644531 C 204.242188 233.03125 203.40625 233.09375 202.761719 233.03125 C 202.121094 232.902344 201.410156 232.582031 200.960938 232.066406 C 200.445312 231.359375 200.058594 229.941406 200.1875 229.105469 C 200.253906 228.460938 200.703125 227.816406 201.21875 227.367188 C 201.734375 226.980469 202.503906 226.660156 203.148438 226.59375 C 203.792969 226.59375 204.566406 226.789062 205.144531 227.175781 C 205.660156 227.496094 206.171875 228.140625 206.367188 228.785156 C 206.558594 229.621094 206.238281 231.230469 205.722656 231.9375 C 205.273438 232.582031 204.371094 232.902344 203.726562 233.03125 C 203.148438 233.09375 202.632812 233.03125 202.183594 232.839844 C 201.734375 232.644531 201.21875 232.386719 200.898438 231.9375 C 200.511719 231.421875 200.316406 231.035156 200.058594 229.8125 C 199.160156 224.730469 198.835938 193.195312 200.316406 188.367188 C 200.640625 187.273438 201.027344 186.890625 201.605469 186.503906 C 202.183594 186.117188 203.148438 185.859375 203.855469 185.921875 C 204.5 186.050781 205.402344 186.503906 205.851562 187.015625 C 206.300781 187.53125 206.625 189.140625 206.625 189.140625 "/></clipPath><clipPath id="58b7671e1c"><path d="M 230.667969 166.414062 L 238.648438 166.414062 L 238.648438 232.125 L 230.667969 232.125 Z M 230.667969 166.414062 "/></clipPath><clipPath id="b0d6a02784"><path d="M 231.207031 228.847656 C 230.820312 168.546875 230.820312 168.226562 231.273438 167.710938 C 231.851562 167.066406 233.136719 166.359375 234.039062 166.421875 C 234.875 166.488281 236.097656 167.324219 236.613281 167.96875 C 237 168.546875 237.191406 169.320312 237.0625 169.964844 C 236.871094 170.800781 236.035156 172.023438 235.328125 172.472656 C 234.746094 172.859375 233.976562 172.921875 233.332031 172.792969 C 232.6875 172.730469 231.914062 172.410156 231.53125 171.828125 C 230.949219 171.1875 230.5625 169.769531 230.691406 168.933594 C 230.757812 168.289062 231.273438 167.582031 231.785156 167.195312 C 232.238281 166.746094 233.007812 166.488281 233.652344 166.421875 C 234.296875 166.421875 235.132812 166.550781 235.648438 167.003906 C 236.292969 167.519531 236.679688 168.097656 237.0625 169.640625 C 238.800781 176.464844 239.253906 222.027344 237.644531 228.847656 C 237.257812 230.390625 236.933594 230.972656 236.226562 231.488281 C 235.648438 231.9375 234.746094 232.128906 234.039062 232.066406 C 233.332031 231.9375 232.496094 231.488281 231.980469 230.972656 C 231.53125 230.457031 231.207031 228.847656 231.207031 228.847656 "/></clipPath><clipPath id="8e0acfddbf"><path d="M 262.394531 157.492188 L 271.207031 157.492188 L 271.207031 233.042969 L 262.394531 233.042969 Z M 262.394531 157.492188 "/></clipPath><clipPath id="dc7da5f27d"><path d="M 269.242188 160.761719 C 269.433594 180.96875 270.269531 185.859375 270.59375 192.421875 C 270.980469 201.753906 271.621094 219.710938 270.785156 226.210938 C 270.464844 228.914062 270.140625 230.777344 269.371094 231.871094 C 268.917969 232.515625 268.277344 232.839844 267.632812 232.964844 C 266.796875 233.09375 265.378906 232.710938 264.671875 232.195312 C 264.15625 231.808594 263.835938 231.035156 263.707031 230.390625 C 263.578125 229.75 263.644531 228.976562 263.964844 228.398438 C 264.414062 227.691406 265.574219 226.722656 266.410156 226.660156 C 267.3125 226.53125 268.664062 227.046875 269.242188 227.691406 C 269.886719 228.332031 270.140625 229.8125 270.015625 230.585938 C 269.886719 231.292969 269.371094 231.9375 268.855469 232.324219 C 268.339844 232.773438 267.566406 233.03125 266.925781 233.03125 C 266.28125 233.03125 265.507812 232.902344 264.992188 232.453125 C 264.351562 231.871094 263.707031 230.585938 263.644531 229.75 C 263.644531 229.042969 264.15625 228.847656 264.351562 227.816406 C 265.121094 223.378906 264.609375 201.882812 264.15625 192.230469 C 263.835938 185.601562 263 180.902344 262.804688 175.496094 C 262.546875 170.476562 262.097656 163.65625 262.804688 160.761719 C 263.128906 159.472656 263.515625 158.636719 264.15625 158.121094 C 264.738281 157.671875 265.703125 157.480469 266.410156 157.542969 C 267.117188 157.671875 267.953125 158.058594 268.40625 158.636719 C 268.855469 159.152344 269.242188 160.761719 269.242188 160.761719 "/></clipPath><clipPath id="363477fde1"><path d="M 100.453125 154.390625 L 187.496094 154.390625 L 187.496094 163.050781 L 100.453125 163.050781 Z M 100.453125 154.390625 "/></clipPath><clipPath id="d6a452900c"><path d="M 103.59375 156.511719 C 136.476562 154.519531 170.007812 153.875 179.789062 154.90625 C 183.199219 155.226562 185.515625 155.226562 186.609375 156.320312 C 187.382812 157.027344 187.511719 158.378906 187.382812 159.214844 C 187.253906 159.925781 186.738281 160.566406 186.289062 160.953125 C 185.773438 161.402344 185 161.660156 184.359375 161.660156 C 183.648438 161.726562 182.878906 161.53125 182.363281 161.082031 C 181.71875 160.566406 181.074219 159.214844 181.011719 158.378906 C 180.945312 157.734375 181.269531 156.964844 181.71875 156.449219 C 182.296875 155.871094 183.648438 155.289062 184.484375 155.289062 C 185.195312 155.289062 185.902344 155.546875 186.351562 156.0625 C 186.933594 156.640625 187.445312 158.058594 187.445312 158.894531 C 187.382812 159.601562 186.996094 160.246094 186.546875 160.761719 C 186.03125 161.210938 185.386719 161.597656 184.679688 161.660156 C 183.84375 161.726562 182.296875 160.4375 181.847656 160.632812 C 181.589844 160.761719 181.847656 161.210938 181.460938 161.46875 C 178.5 163.398438 137.183594 160.953125 122.964844 161.46875 C 114.855469 161.789062 107.066406 163.335938 103.851562 162.949219 C 102.753906 162.753906 102.242188 162.625 101.660156 162.175781 C 101.148438 161.726562 100.632812 160.953125 100.503906 160.246094 C 100.4375 159.410156 100.890625 157.992188 101.46875 157.414062 C 101.984375 156.835938 103.59375 156.511719 103.59375 156.511719 "/></clipPath><clipPath id="93ae92e3f7"><path d="M 181 155.175781 L 274.859375 155.175781 L 274.859375 162.804688 L 181 162.804688 Z M 181 155.175781 "/></clipPath><clipPath id="bc4a3435e8"><path d="M 184.230469 155.226562 C 245.945312 155.804688 247.554688 156.253906 251.671875 156.320312 C 257.335938 156.382812 268.148438 154.839844 271.621094 155.613281 C 272.972656 155.933594 273.746094 156.382812 274.324219 157.027344 C 274.710938 157.605469 274.90625 158.378906 274.839844 159.023438 C 274.777344 159.667969 274.582031 160.4375 274.066406 160.953125 C 273.488281 161.53125 272.136719 162.046875 271.300781 162.046875 C 270.59375 162.046875 269.886719 161.660156 269.433594 161.210938 C 268.917969 160.761719 268.535156 160.054688 268.46875 159.34375 C 268.40625 158.507812 268.855469 157.15625 269.433594 156.511719 C 269.886719 156 270.65625 155.742188 271.300781 155.675781 C 271.945312 155.613281 272.714844 155.675781 273.296875 156.128906 C 273.9375 156.578125 274.710938 157.863281 274.839844 158.703125 C 274.90625 159.34375 274.648438 160.117188 274.261719 160.632812 C 273.9375 161.210938 273.554688 161.597656 272.652344 161.917969 C 269.820312 162.949219 259.074219 162.820312 253.796875 162.753906 C 249.933594 162.691406 248.519531 162.242188 243.820312 162.046875 C 232.300781 161.660156 190.535156 162.882812 184.230469 161.660156 C 183.007812 161.46875 182.621094 161.339844 182.105469 160.890625 C 181.589844 160.4375 181.140625 159.539062 181.011719 158.828125 C 180.945312 158.121094 181.140625 157.222656 181.589844 156.640625 C 182.105469 156 184.230469 155.226562 184.230469 155.226562 "/></clipPath><clipPath id="c648f3ba70"><path d="M 172.882812 155.398438 L 192.542969 155.398438 L 192.542969 162.4375 L 172.882812 162.4375 Z M 172.882812 155.398438 "/></clipPath><clipPath id="0e167c2175"><path d="M 176.121094 155.417969 C 190.277344 156.0625 190.730469 156.191406 191.242188 156.578125 C 191.757812 156.964844 192.207031 157.671875 192.402344 158.25 C 192.59375 158.894531 192.53125 159.730469 192.273438 160.308594 C 192.082031 160.953125 191.5 161.53125 190.984375 161.917969 C 190.40625 162.242188 189.632812 162.433594 188.925781 162.304688 C 188.15625 162.175781 186.933594 161.339844 186.480469 160.632812 C 186.09375 160.050781 185.964844 159.28125 186.160156 158.636719 C 186.351562 157.800781 187.125 156.578125 187.960938 156.191406 C 188.734375 155.871094 190.214844 156 190.984375 156.382812 C 191.566406 156.707031 192.082031 157.285156 192.273438 157.929688 C 192.53125 158.765625 192.402344 160.179688 191.953125 160.953125 C 191.628906 161.53125 190.984375 161.917969 190.34375 162.175781 C 189.441406 162.5 188.476562 162.371094 186.996094 162.371094 C 184.164062 162.304688 176.636719 162.5 174.574219 161.46875 C 173.738281 161.019531 173.351562 160.4375 173.09375 159.796875 C 172.839844 159.085938 172.839844 158.121094 173.09375 157.476562 C 173.351562 156.835938 174.0625 156.128906 174.574219 155.804688 C 175.027344 155.484375 176.121094 155.417969 176.121094 155.417969 "/></clipPath><clipPath id="40aaa741ff"><path d="M 267.9375 136.5625 L 275.515625 136.5625 L 275.515625 161.710938 L 267.9375 161.710938 Z M 267.9375 136.5625 "/></clipPath><clipPath id="2b5d83fe5d"><path d="M 268.984375 158.636719 C 268.789062 137.269531 269.757812 136.757812 270.59375 136.628906 C 271.492188 136.5 272.84375 136.949219 273.488281 137.59375 C 274.066406 138.171875 274.519531 139.585938 274.324219 140.488281 C 274.132812 141.324219 273.230469 142.417969 272.394531 142.804688 C 271.558594 143.128906 270.140625 142.933594 269.371094 142.484375 C 268.664062 141.96875 268.019531 140.683594 267.953125 139.84375 C 267.890625 139.136719 268.210938 138.363281 268.597656 137.851562 C 268.984375 137.335938 269.628906 136.820312 270.269531 136.691406 C 271.109375 136.5625 272.523438 136.820312 273.230469 137.335938 C 273.8125 137.722656 274.003906 138.300781 274.324219 139.074219 C 274.710938 140.230469 274.839844 141.710938 275.035156 143.707031 C 275.355469 147.503906 275.871094 157.542969 275.097656 159.796875 C 274.839844 160.503906 274.582031 160.695312 274.132812 161.019531 C 273.617188 161.402344 272.652344 161.726562 271.945312 161.660156 C 271.238281 161.597656 270.398438 161.210938 269.886719 160.761719 C 269.371094 160.246094 268.984375 158.636719 268.984375 158.636719 "/></clipPath><clipPath id="0484feb1a5"><path d="M 99.773438 133.160156 L 107.578125 133.160156 L 107.578125 162.625 L 99.773438 162.625 Z M 99.773438 133.160156 "/></clipPath><clipPath id="cecf56c565"><path d="M 99.796875 159.410156 C 100.117188 144.09375 99.988281 137.65625 101.148438 135.339844 C 101.726562 134.183594 102.628906 133.601562 103.398438 133.28125 C 104.042969 133.089844 104.878906 133.214844 105.457031 133.472656 C 106.039062 133.730469 106.679688 134.183594 107.003906 134.824219 C 107.324219 135.597656 107.390625 137.078125 107.066406 137.851562 C 106.808594 138.492188 106.230469 139.007812 105.652344 139.265625 C 105.074219 139.589844 104.234375 139.714844 103.59375 139.589844 C 102.949219 139.460938 102.242188 139.074219 101.789062 138.558594 C 101.402344 138.109375 101.019531 137.398438 101.019531 136.691406 C 101.019531 135.855469 101.46875 134.503906 102.175781 133.925781 C 102.820312 133.34375 104.300781 133.152344 105.136719 133.34375 C 105.78125 133.472656 106.425781 133.988281 106.808594 134.503906 C 107.195312 135.019531 107.261719 135.46875 107.390625 136.5 C 107.839844 139.972656 107.261719 156.769531 106.101562 160.179688 C 105.78125 161.210938 105.394531 161.660156 104.816406 162.046875 C 104.234375 162.433594 103.335938 162.691406 102.628906 162.5625 C 101.917969 162.5 101.082031 162.046875 100.566406 161.53125 C 100.117188 161.019531 99.796875 159.410156 99.796875 159.410156 "/></clipPath><clipPath id="0013009606"><path d="M 78 97.464844 L 190.179688 97.464844 L 190.179688 148.761719 L 78 148.761719 Z M 78 97.464844 "/></clipPath><clipPath id="82ba7b78ee"><path d="M 79.394531 142.871094 C 93.683594 134.375 96.382812 132.960938 102.691406 130.191406 C 118.265625 123.304688 176.570312 99.367188 185.453125 97.949219 C 187.058594 97.691406 187.703125 97.691406 188.476562 98.078125 C 189.054688 98.402344 189.570312 99.042969 189.761719 99.625 C 190.019531 100.265625 190.085938 101.105469 189.890625 101.683594 C 189.699219 102.328125 189.3125 103.035156 188.734375 103.421875 C 188.027344 103.871094 186.609375 104.128906 185.773438 103.871094 C 185.128906 103.742188 184.484375 103.226562 184.164062 102.648438 C 183.777344 102.132812 183.519531 101.359375 183.585938 100.71875 C 183.714844 99.882812 184.421875 98.59375 185.128906 98.078125 C 185.710938 97.691406 186.480469 97.5 187.125 97.628906 C 187.960938 97.820312 189.183594 98.660156 189.632812 99.300781 C 190.019531 99.882812 190.148438 100.71875 189.957031 101.359375 C 189.761719 102.199219 189.441406 102.777344 188.15625 103.742188 C 181.074219 109.082031 120.839844 129.226562 105.585938 135.917969 C 99.601562 138.558594 97.222656 139.78125 93.296875 141.90625 C 89.5 144.027344 84.671875 147.890625 82.355469 148.535156 C 81.324219 148.855469 80.683594 148.789062 80.039062 148.535156 C 79.394531 148.277344 78.6875 147.632812 78.367188 146.988281 C 78.042969 146.410156 77.914062 145.445312 78.109375 144.734375 C 78.300781 144.027344 79.394531 142.871094 79.394531 142.871094 "/></clipPath><clipPath id="554f55b3b4"><path d="M 86.140625 136.273438 L 188.246094 136.273438 L 188.246094 144.734375 L 86.140625 144.734375 Z M 86.140625 136.273438 "/></clipPath><clipPath id="2ad4670d32"><path d="M 89.242188 138.238281 C 107.839844 136.691406 115.242188 136.757812 124.957031 136.691406 C 140.402344 136.628906 178.113281 135.535156 185 137.269531 C 186.546875 137.65625 187.125 137.914062 187.640625 138.6875 C 188.15625 139.394531 188.28125 140.875 187.960938 141.648438 C 187.640625 142.484375 186.546875 143.449219 185.710938 143.640625 C 184.808594 143.835938 183.390625 143.449219 182.75 142.804688 C 182.105469 142.226562 181.65625 140.8125 181.847656 139.972656 C 181.976562 139.074219 182.8125 137.914062 183.648438 137.59375 C 184.421875 137.207031 185.902344 137.269531 186.675781 137.722656 C 187.382812 138.171875 188.089844 139.460938 188.21875 140.296875 C 188.28125 141.003906 188.089844 141.777344 187.640625 142.289062 C 187.125 142.933594 186.546875 143.320312 185 143.707031 C 178.113281 145.378906 140.46875 143.0625 124.957031 143.128906 C 115.175781 143.191406 107.519531 143.257812 101.019531 143.640625 C 96.449219 143.898438 91.816406 144.929688 89.5 144.671875 C 88.46875 144.542969 87.890625 144.480469 87.375 143.964844 C 86.730469 143.386719 86.152344 142.097656 86.152344 141.195312 C 86.152344 140.488281 86.601562 139.652344 87.117188 139.136719 C 87.632812 138.6875 89.242188 138.238281 89.242188 138.238281 "/></clipPath><clipPath id="cdf08a39cb"><path d="M 175.488281 136.300781 L 273.640625 136.300781 L 273.640625 144.308594 L 175.488281 144.308594 Z M 175.488281 136.300781 "/></clipPath><clipPath id="d10cac6fb3"><path d="M 178.757812 137.269531 C 234.039062 136.5 264.15625 135.597656 270.464844 137.335938 C 272.007812 137.785156 272.652344 138.109375 273.101562 138.878906 C 273.554688 139.585938 273.683594 141.066406 273.296875 141.90625 C 272.972656 142.675781 271.816406 143.578125 270.980469 143.769531 C 270.078125 143.898438 268.726562 143.449219 268.082031 142.804688 C 267.441406 142.226562 267.054688 140.808594 267.183594 139.972656 C 267.375 139.074219 268.277344 137.980469 269.113281 137.59375 C 269.949219 137.269531 271.363281 137.398438 272.136719 137.851562 C 272.84375 138.363281 273.488281 139.714844 273.617188 140.488281 C 273.683594 141.195312 273.425781 141.96875 272.972656 142.484375 C 272.394531 143.128906 271.816406 143.449219 270.269531 143.769531 C 263.769531 145.25 233.523438 142.933594 217.308594 142.933594 C 203.40625 143 183.585938 144.542969 178.757812 143.707031 C 177.535156 143.511719 177.148438 143.382812 176.636719 142.871094 C 176.054688 142.417969 175.605469 141.582031 175.539062 140.875 C 175.476562 140.167969 175.605469 139.265625 176.121094 138.6875 C 176.636719 137.980469 178.757812 137.269531 178.757812 137.269531 "/></clipPath><clipPath id="72e497bcd5"><path d="M 218.59375 111.335938 L 296.621094 111.335938 L 296.621094 148.148438 L 218.59375 148.148438 Z M 218.59375 111.335938 "/></clipPath><clipPath id="1af05270c1"><path d="M 292.601562 148.019531 C 277.222656 142.226562 262.292969 134.183594 251.414062 129.484375 C 241.054688 125.109375 224.773438 120.539062 220.71875 117.707031 C 219.496094 116.871094 218.980469 116.226562 218.722656 115.453125 C 218.53125 114.746094 218.660156 113.976562 218.917969 113.394531 C 219.238281 112.816406 219.753906 112.171875 220.332031 111.851562 C 220.910156 111.59375 221.746094 111.402344 222.390625 111.527344 C 223.035156 111.59375 223.742188 111.914062 224.191406 112.429688 C 224.707031 113.074219 225.222656 114.488281 225.03125 115.324219 C 224.835938 116.226562 223.871094 117.320312 223.097656 117.644531 C 222.519531 117.964844 221.683594 117.964844 221.039062 117.835938 C 220.394531 117.644531 219.6875 117.257812 219.367188 116.675781 C 218.851562 115.96875 218.660156 114.488281 218.851562 113.71875 C 218.980469 113.007812 219.496094 112.429688 220.074219 112.042969 C 220.589844 111.65625 220.976562 111.464844 222.003906 111.464844 C 226.253906 111.65625 244.078125 119.378906 254.054688 123.691406 C 263.128906 127.554688 272.007812 132.574219 279.410156 135.855469 C 285.136719 138.363281 292.34375 140.359375 294.726562 142.035156 C 295.625 142.613281 296.011719 143 296.269531 143.707031 C 296.527344 144.351562 296.527344 145.316406 296.335938 145.957031 C 296.078125 146.667969 295.433594 147.375 294.855469 147.695312 C 294.210938 148.019531 292.601562 148.019531 292.601562 148.019531 "/></clipPath><clipPath id="03d47f095f"><path d="M 268 137.765625 L 284.824219 137.765625 L 284.824219 144.804688 L 268 144.804688 Z M 268 137.765625 "/></clipPath><clipPath id="1428f94ff4"><path d="M 271.171875 137.785156 C 281.019531 138.042969 282.628906 138.300781 283.527344 138.945312 C 284.171875 139.394531 284.558594 140.039062 284.6875 140.617188 C 284.878906 141.261719 284.878906 142.097656 284.621094 142.675781 C 284.363281 143.320312 283.851562 143.964844 283.269531 144.285156 C 282.757812 144.609375 281.984375 144.863281 281.277344 144.734375 C 280.503906 144.609375 279.214844 143.835938 278.765625 143.0625 C 278.378906 142.289062 278.378906 140.808594 278.765625 140.039062 C 279.152344 139.265625 280.4375 138.492188 281.277344 138.300781 C 281.917969 138.171875 282.691406 138.429688 283.269531 138.75 C 283.785156 139.074219 284.363281 139.714844 284.621094 140.296875 C 284.816406 140.9375 284.878906 141.710938 284.75 142.355469 C 284.558594 143 284.105469 143.707031 283.59375 144.09375 C 283.078125 144.480469 282.304688 144.734375 281.660156 144.734375 C 281.019531 144.734375 280.632812 144.285156 279.667969 144.09375 C 277.671875 143.769531 271.492188 144.671875 269.691406 143.898438 C 268.855469 143.449219 268.46875 142.804688 268.210938 142.160156 C 267.953125 141.519531 267.953125 140.554688 268.210938 139.910156 C 268.46875 139.203125 269.175781 138.492188 269.691406 138.171875 C 270.140625 137.914062 271.171875 137.785156 271.171875 137.785156 "/></clipPath><clipPath id="2c356fc2cc"><path d="M 185.601562 96.917969 L 226.730469 96.917969 L 226.730469 118.097656 L 185.601562 118.097656 Z M 185.601562 96.917969 "/></clipPath><clipPath id="f85e250eb0"><path d="M 189.25 96.921875 C 201.027344 100.460938 207.269531 103.097656 212.160156 105.351562 C 216.664062 107.476562 223.164062 110.628906 225.09375 111.980469 C 225.738281 112.429688 225.929688 112.625 226.1875 113.074219 C 226.511719 113.652344 226.832031 114.554688 226.636719 115.328125 C 226.511719 116.097656 225.671875 117.320312 224.902344 117.707031 C 224.0625 118.09375 222.585938 118.09375 221.875 117.578125 C 221.039062 116.933594 220.332031 114.617188 220.460938 113.652344 C 220.589844 112.945312 221.234375 112.429688 221.746094 112.042969 C 222.328125 111.722656 223.097656 111.464844 223.808594 111.59375 C 224.578125 111.722656 225.867188 112.558594 226.316406 113.203125 C 226.703125 113.78125 226.765625 114.617188 226.703125 115.261719 C 226.574219 115.90625 226.253906 116.613281 225.738281 117.0625 C 225.09375 117.644531 223.742188 118.09375 222.839844 117.964844 C 222.003906 117.773438 220.910156 116.804688 220.523438 116.035156 C 220.203125 115.453125 220.203125 114.617188 220.394531 113.976562 C 220.523438 113.394531 220.976562 112.6875 221.492188 112.300781 C 222.003906 111.851562 222.714844 111.53125 223.421875 111.59375 C 224.257812 111.65625 225.609375 112.300781 226.125 112.945312 C 226.574219 113.460938 226.765625 114.875 226.703125 114.875 C 226.636719 114.941406 225.09375 112.042969 225.09375 111.980469 C 225.09375 111.980469 226.636719 113.652344 226.703125 114.554688 C 226.765625 115.390625 226.1875 116.675781 225.542969 117.257812 C 224.964844 117.773438 224.191406 118.027344 223.355469 118.027344 C 222.390625 118.027344 221.363281 117.515625 220.011719 116.933594 C 217.691406 115.96875 214.796875 113.847656 211.257812 112.109375 C 206.300781 109.726562 197.101562 105.867188 192.660156 104.320312 C 190.214844 103.484375 188.027344 103.421875 186.933594 102.710938 C 186.417969 102.328125 186.160156 102.003906 185.964844 101.554688 C 185.710938 100.910156 185.515625 99.945312 185.710938 99.238281 C 185.902344 98.59375 186.417969 97.820312 186.996094 97.4375 C 187.640625 96.984375 189.25 96.921875 189.25 96.921875 "/></clipPath></defs><g id="47382c0874"><g clip-rule="nonzero" clip-path="url(#640ee638e0)"><g clip-rule="nonzero" clip-path="url(#741d500b49)"><path style=" stroke:none;fill-rule:nonzero;fill:currentColor;fill-opacity:1;" d="M 303.929688 254.398438 L 315.835938 254.398438 L 315.835938 276.859375 L 303.929688 276.859375 Z M 303.929688 254.398438 "/></g></g><g clip-rule="nonzero" clip-path="url(#b103aae622)"><g clip-rule="nonzero" clip-path="url(#9e1566e07e)"><path style=" stroke:none;fill-rule:nonzero;fill:currentColor;fill-opacity:1;" d="M 283.398438 229.75 L 295.304688 229.75 L 295.304688 260.117188 L 283.398438 260.117188 Z M 283.398438 229.75 "/></g></g><g clip-rule="nonzero" clip-path="url(#fa4b28fb6a)"><g clip-rule="nonzero" clip-path="url(#7422bd8f74)"><path style=" stroke:none;fill-rule:nonzero;fill:currentColor;fill-opacity:1;" d="M 37.5 267.523438 L 337.503906 267.523438 L 337.503906 280.652344 L 37.5 280.652344 Z M 37.5 267.523438 "/></g></g><g clip-rule="nonzero" clip-path="url(#ccc828a4f6)"><g clip-rule="nonzero" clip-path="url(#2c5459aee5)"><path style=" stroke:none;fill-rule:nonzero;fill:currentColor;fill-opacity:1;" d="M 54.148438 251.371094 L 317.792969 251.371094 L 317.792969 264.5 L 54.148438 264.5 Z M 54.148438 251.371094 "/></g></g><g clip-rule="nonzero" clip-path="url(#0f02f3a027)"><g clip-rule="nonzero" clip-path="url(#30f41a8bf4)"><path style=" stroke:none;fill-rule:nonzero;fill:currentColor;fill-opacity:1;" d="M 78.988281 226.921875 L 296.890625 226.921875 L 296.890625 240.050781 L 78.988281 240.050781 Z M 78.988281 226.921875 "/></g></g><g clip-rule="nonzero" clip-path="url(#2a1a822dc3)"><g clip-rule="nonzero" clip-path="url(#49c961552d)"><path style=" stroke:none;fill-rule:nonzero;fill:currentColor;fill-opacity:1;" d="M 55.777344 254.398438 L 67.941406 254.398438 L 67.941406 276.300781 L 55.777344 276.300781 Z M 55.777344 254.398438 "/></g></g><g clip-rule="nonzero" clip-path="url(#ee15e4d278)"><g clip-rule="nonzero" clip-path="url(#9bbfeeeb38)"><path style=" stroke:none;fill-rule:nonzero;fill:currentColor;fill-opacity:1;" d="M 80.359375 228.589844 L 92.203125 228.589844 L 92.203125 259.535156 L 80.359375 259.535156 Z M 80.359375 228.589844 "/></g></g><g clip-rule="nonzero" clip-path="url(#b20c357960)"><g clip-rule="nonzero" clip-path="url(#ba15801b87)"><path style=" stroke:none;fill-rule:nonzero;fill:currentColor;fill-opacity:1;" d="M 101.789062 155.160156 L 115.753906 155.160156 L 115.753906 235.679688 L 101.789062 235.679688 Z M 101.789062 155.160156 "/></g></g><g clip-rule="nonzero" clip-path="url(#d688117927)"><g clip-rule="nonzero" clip-path="url(#52ab1f6f1c)"><path style=" stroke:none;fill-rule:nonzero;fill:currentColor;fill-opacity:1;" d="M 133.386719 163.527344 L 146.324219 163.527344 L 146.324219 236.742188 L 133.386719 236.742188 Z M 133.386719 163.527344 "/></g></g><g clip-rule="nonzero" clip-path="url(#7fdaa6a39e)"><g clip-rule="nonzero" clip-path="url(#fc5436dd62)"><path style=" stroke:none;fill-rule:nonzero;fill:currentColor;fill-opacity:1;" d="M 164.277344 183.734375 L 176.507812 183.734375 L 176.507812 235.605469 L 164.277344 235.605469 Z M 164.277344 183.734375 "/></g></g><g clip-rule="nonzero" clip-path="url(#4b48dbfc53)"><g clip-rule="nonzero" clip-path="url(#7690be8636)"><path style=" stroke:none;fill-rule:nonzero;fill:currentColor;fill-opacity:1;" d="M 164.34375 170.800781 L 209.265625 170.800781 L 209.265625 195.0625 L 164.34375 195.0625 Z M 164.34375 170.800781 "/></g></g><g clip-rule="nonzero" clip-path="url(#54b0fbbdd6)"><g clip-rule="nonzero" clip-path="url(#411a22e0d2)"><path style=" stroke:none;fill-rule:nonzero;fill:currentColor;fill-opacity:1;" d="M 197.484375 183.347656 L 209.199219 183.347656 L 209.199219 235.597656 L 197.484375 235.597656 Z M 197.484375 183.347656 "/></g></g><g clip-rule="nonzero" clip-path="url(#58b7671e1c)"><g clip-rule="nonzero" clip-path="url(#b0d6a02784)"><path style=" stroke:none;fill-rule:nonzero;fill:currentColor;fill-opacity:1;" d="M 228.054688 163.847656 L 240.21875 163.847656 L 240.21875 234.640625 L 228.054688 234.640625 Z M 228.054688 163.847656 "/></g></g><g clip-rule="nonzero" clip-path="url(#8e0acfddbf)"><g clip-rule="nonzero" clip-path="url(#dc7da5f27d)"><path style=" stroke:none;fill-rule:nonzero;fill:currentColor;fill-opacity:1;" d="M 260.230469 154.96875 L 273.425781 154.96875 L 273.425781 235.621094 L 260.230469 235.621094 Z M 260.230469 154.96875 "/></g></g><g clip-rule="nonzero" clip-path="url(#363477fde1)"><g clip-rule="nonzero" clip-path="url(#d6a452900c)"><path style=" stroke:none;fill-rule:nonzero;fill:currentColor;fill-opacity:1;" d="M 97.929688 152.332031 L 190.019531 152.332031 L 190.019531 165.523438 L 97.929688 165.523438 Z M 97.929688 152.332031 "/></g></g><g clip-rule="nonzero" clip-path="url(#93ae92e3f7)"><g clip-rule="nonzero" clip-path="url(#bc4a3435e8)"><path style=" stroke:none;fill-rule:nonzero;fill:currentColor;fill-opacity:1;" d="M 178.4375 152.652344 L 277.433594 152.652344 L 277.433594 165.328125 L 178.4375 165.328125 Z M 178.4375 152.652344 "/></g></g><g clip-rule="nonzero" clip-path="url(#c648f3ba70)"><g clip-rule="nonzero" clip-path="url(#0e167c2175)"><path style=" stroke:none;fill-rule:nonzero;fill:currentColor;fill-opacity:1;" d="M 170.519531 152.84375 L 195.050781 152.84375 L 195.050781 164.945312 L 170.519531 164.945312 Z M 170.519531 152.84375 "/></g></g><g clip-rule="nonzero" clip-path="url(#40aaa741ff)"><g clip-rule="nonzero" clip-path="url(#2b5d83fe5d)"><path style=" stroke:none;fill-rule:nonzero;fill:currentColor;fill-opacity:1;" d="M 265.378906 134.054688 L 277.734375 134.054688 L 277.734375 164.316406 L 265.378906 164.316406 Z M 265.378906 134.054688 "/></g></g><g clip-rule="nonzero" clip-path="url(#0484feb1a5)"><g clip-rule="nonzero" clip-path="url(#cecf56c565)"><path style=" stroke:none;fill-rule:nonzero;fill:currentColor;fill-opacity:1;" d="M 97.222656 130.707031 L 110.027344 130.707031 L 110.027344 165.125 L 97.222656 165.125 Z M 97.222656 130.707031 "/></g></g><g clip-rule="nonzero" clip-path="url(#0013009606)"><g clip-rule="nonzero" clip-path="url(#82ba7b78ee)"><path style=" stroke:none;fill-rule:nonzero;fill:currentColor;fill-opacity:1;" d="M 75.535156 95.054688 L 192.589844 95.054688 L 192.589844 151.171875 L 75.535156 151.171875 Z M 75.535156 95.054688 "/></g></g><g clip-rule="nonzero" clip-path="url(#554f55b3b4)"><g clip-rule="nonzero" clip-path="url(#2ad4670d32)"><path style=" stroke:none;fill-rule:nonzero;fill:currentColor;fill-opacity:1;" d="M 83.578125 134.117188 L 190.808594 134.117188 L 190.808594 147.246094 L 83.578125 147.246094 Z M 83.578125 134.117188 "/></g></g><g clip-rule="nonzero" clip-path="url(#cdf08a39cb)"><g clip-rule="nonzero" clip-path="url(#d10cac6fb3)"><path style=" stroke:none;fill-rule:nonzero;fill:currentColor;fill-opacity:1;" d="M 172.964844 133.925781 L 276.210938 133.925781 L 276.210938 146.34375 L 172.964844 146.34375 Z M 172.964844 133.925781 "/></g></g><g clip-rule="nonzero" clip-path="url(#72e497bcd5)"><g clip-rule="nonzero" clip-path="url(#1af05270c1)"><path style=" stroke:none;fill-rule:nonzero;fill:currentColor;fill-opacity:1;" d="M 216.148438 108.890625 L 298.902344 108.890625 L 298.902344 150.59375 L 216.148438 150.59375 Z M 216.148438 108.890625 "/></g></g><g clip-rule="nonzero" clip-path="url(#03d47f095f)"><g clip-rule="nonzero" clip-path="url(#1428f94ff4)"><path style=" stroke:none;fill-rule:nonzero;fill:currentColor;fill-opacity:1;" d="M 265.636719 135.210938 L 287.332031 135.210938 L 287.332031 147.308594 L 265.636719 147.308594 Z M 265.636719 135.210938 "/></g></g><g clip-rule="nonzero" clip-path="url(#2c356fc2cc)"><g clip-rule="nonzero" clip-path="url(#f85e250eb0)"><path style=" stroke:none;fill-rule:nonzero;fill:currentColor;fill-opacity:1;" d="M 183.136719 94.347656 L 229.300781 94.347656 L 229.300781 120.667969 L 183.136719 120.667969 Z M 183.136719 94.347656 "/></g></g></g></svg>