<svg xmlns="http://www.w3.org/2000/svg" xmlns:xlink="http://www.w3.org/1999/xlink" width="500" zoomAndPan="magnify" viewBox="0 0 375 374.999991" height="500" preserveAspectRatio="xMidYMid meet" version="1.2"><defs><clipPath id="c6a1a90837"><path d="M 129.074219 61.359375 L 150.519531 61.359375 L 150.519531 113.128906 L 129.074219 113.128906 Z M 129.074219 61.359375 "/></clipPath><clipPath id="b6d3e8bda3"><path d="M 129.21875 108.910156 C 128.691406 70.757812 129.925781 68.203125 131.246094 66.089844 C 132.214844 64.503906 132.832031 63.355469 134.507812 62.652344 C 137.238281 61.332031 144.816406 61.152344 147.28125 61.859375 C 148.425781 62.210938 149.042969 62.738281 149.574219 63.445312 C 150.101562 64.238281 150.453125 65.296875 150.453125 66.175781 C 150.453125 67.058594 150.1875 68.113281 149.484375 68.820312 C 148.691406 69.699219 146.839844 70.492188 145.695312 70.492188 C 144.816406 70.492188 143.84375 69.964844 143.140625 69.4375 C 142.4375 68.820312 141.820312 67.9375 141.730469 66.96875 C 141.644531 65.824219 142.171875 63.886719 142.875 63.003906 C 143.492188 62.300781 144.550781 61.859375 145.429688 61.769531 C 146.3125 61.59375 147.371094 61.683594 148.164062 62.210938 C 149.132812 62.828125 150.367188 64.503906 150.453125 65.734375 C 150.542969 66.882812 149.484375 68.820312 148.867188 69.523438 C 148.425781 69.964844 148.25 70.054688 147.632812 70.230469 C 146.136719 70.582031 141.113281 68.820312 139.351562 69.789062 C 138.03125 70.492188 137.5 71.726562 136.972656 73.839844 C 135.476562 79.746094 139.265625 104.414062 137.941406 109.4375 C 137.589844 110.933594 137.0625 111.550781 136.355469 112.082031 C 135.5625 112.695312 134.328125 113.136719 133.359375 113.050781 C 132.390625 112.960938 131.15625 112.433594 130.453125 111.726562 C 129.835938 111.023438 129.21875 108.910156 129.21875 108.910156 "/></clipPath><clipPath id="56ebab2895"><path d="M 138.660156 61.132812 L 245.6875 61.132812 L 245.6875 113.476562 L 138.660156 113.476562 Z M 138.660156 61.132812 "/></clipPath><clipPath id="3140398e7f"><path d="M 143.316406 61.683594 C 203.054688 60.714844 228.253906 61.152344 235.390625 63.269531 C 237.589844 63.972656 238.296875 64.679688 239.441406 65.734375 C 240.675781 66.703125 241.820312 68.203125 242.613281 69.613281 C 243.40625 70.933594 243.847656 71.726562 244.289062 73.929688 C 245.433594 80.007812 246.050781 103.796875 245.34375 108.820312 C 245.167969 110.230469 245.082031 110.757812 244.464844 111.464844 C 243.671875 112.34375 241.910156 113.3125 240.761719 113.226562 C 239.53125 113.226562 237.855469 112.082031 237.152344 111.109375 C 236.621094 110.40625 236.445312 109.261719 236.535156 108.378906 C 236.621094 107.5 237.0625 106.53125 237.679688 105.824219 C 238.296875 105.207031 239.265625 104.679688 240.148438 104.503906 C 241.027344 104.328125 242.171875 104.414062 242.964844 104.945312 C 243.933594 105.558594 245.082031 107.234375 245.257812 108.292969 C 245.519531 109.261719 245.257812 110.316406 244.726562 111.109375 C 244.023438 111.992188 242.347656 113.050781 241.203125 113.226562 C 240.234375 113.402344 239.265625 113.050781 238.472656 112.519531 C 237.769531 111.992188 237.238281 111.640625 236.796875 110.316406 C 235.035156 105.648438 237.769531 79.480469 235.125 74.371094 C 234.242188 72.519531 233.449219 72.167969 231.511719 71.550781 C 227.28125 69.964844 215.476562 71.375 207.988281 70.933594 C 201.203125 70.582031 196.535156 69.523438 188.691406 69.261719 C 176.710938 68.90625 149.394531 71.550781 143.316406 70.492188 C 141.644531 70.230469 141.113281 70.054688 140.320312 69.347656 C 139.617188 68.730469 139 67.585938 138.910156 66.617188 C 138.824219 65.648438 139 64.414062 139.617188 63.621094 C 140.320312 62.652344 143.316406 61.683594 143.316406 61.683594 "/></clipPath><clipPath id="8457d1ce85"><path d="M 78.914062 109.824219 L 190.21875 109.824219 L 190.21875 120.496094 L 78.914062 120.496094 Z M 78.914062 109.824219 "/></clipPath><clipPath id="291fc6dcf5"><path d="M 83.402344 109.878906 C 124.460938 109.964844 125.167969 110.671875 129.570312 111.023438 C 140.320312 111.816406 178.207031 109.523438 185.785156 111.375 C 187.8125 111.902344 188.691406 112.433594 189.398438 113.3125 C 190.015625 114.019531 190.277344 115.074219 190.191406 116.046875 C 190.015625 117.191406 188.957031 118.863281 188.074219 119.570312 C 187.28125 120.097656 186.226562 120.363281 185.257812 120.1875 C 184.199219 119.921875 182.523438 118.777344 181.90625 117.808594 C 181.378906 117.015625 181.203125 115.957031 181.378906 115.074219 C 181.730469 113.929688 182.964844 112.34375 183.933594 111.816406 C 184.726562 111.289062 185.871094 111.289062 186.753906 111.464844 C 187.546875 111.640625 188.515625 112.257812 189.132812 112.960938 C 189.660156 113.578125 190.101562 114.636719 190.191406 115.515625 C 190.191406 116.398438 189.925781 117.542969 189.398438 118.246094 C 188.957031 119.039062 188.339844 119.570312 187.195312 119.921875 C 184.199219 120.980469 177.0625 120.1875 170.191406 120.1875 C 159.351562 120.1875 137.589844 120.449219 128.601562 119.832031 C 124.375 119.480469 123.316406 118.777344 119.175781 118.511719 C 111.070312 117.984375 88.691406 119.65625 83.402344 118.6875 C 81.816406 118.425781 81.203125 118.246094 80.496094 117.632812 C 79.792969 116.925781 79.175781 115.78125 79 114.8125 C 78.910156 113.84375 79.175781 112.609375 79.792969 111.816406 C 80.496094 110.933594 83.402344 109.878906 83.402344 109.878906 "/></clipPath><clipPath id="87f73ef5bf"><path d="M 180.894531 111.257812 L 191.933594 111.257812 L 191.933594 165.84375 L 180.894531 165.84375 Z M 180.894531 111.257812 "/></clipPath><clipPath id="0fdea28c1d"><path d="M 190.367188 115.691406 C 191.6875 162.828125 191.6875 163.359375 190.984375 164.0625 C 190.277344 164.855469 188.429688 165.738281 187.28125 165.738281 C 186.3125 165.824219 185.34375 165.386719 184.640625 164.679688 C 183.847656 163.886719 182.964844 162.125 183.140625 160.890625 C 183.230469 159.65625 184.464844 158.070312 185.433594 157.457031 C 186.226562 156.925781 187.371094 156.839844 188.25 157.015625 C 189.132812 157.191406 190.101562 157.71875 190.71875 158.335938 C 191.335938 158.953125 191.777344 160.011719 191.863281 160.890625 C 191.953125 161.773438 191.863281 162.828125 191.246094 163.621094 C 190.628906 164.59375 188.867188 165.648438 187.722656 165.738281 C 186.84375 165.914062 185.785156 165.5625 185.078125 165.03125 C 184.109375 164.328125 183.671875 163.359375 183.140625 161.332031 C 181.378906 154.722656 180.058594 122.300781 181.554688 115.691406 C 181.996094 113.753906 182.523438 112.785156 183.492188 112.082031 C 184.285156 111.464844 185.519531 111.199219 186.488281 111.375 C 187.457031 111.464844 188.605469 112.082031 189.308594 112.785156 C 189.925781 113.488281 190.367188 115.691406 190.367188 115.691406 "/></clipPath><clipPath id="8a512fc92e"><path d="M 74.621094 110.261719 L 84.78125 110.261719 L 84.78125 166.328125 L 74.621094 166.328125 Z M 74.621094 110.261719 "/></clipPath><clipPath id="01257b0001"><path d="M 84.726562 114.722656 C 84.460938 163.445312 84.285156 164.0625 83.582031 164.769531 C 82.964844 165.5625 81.90625 166.179688 80.847656 166.265625 C 79.703125 166.355469 77.851562 165.738281 77.058594 164.769531 C 76.179688 163.800781 75.738281 161.683594 76.179688 160.449219 C 76.53125 159.304688 77.941406 157.984375 79.175781 157.632812 C 80.320312 157.277344 82.257812 157.71875 83.140625 158.511719 C 84.109375 159.304688 84.8125 161.15625 84.726562 162.390625 C 84.550781 163.535156 83.492188 165.207031 82.347656 165.738281 C 81.289062 166.355469 79.351562 166.355469 78.292969 165.738281 C 77.148438 165.207031 76.179688 163.445312 75.914062 162.390625 C 75.738281 161.421875 76.003906 160.363281 76.53125 159.570312 C 77.238281 158.6875 79 157.632812 80.054688 157.457031 C 81.023438 157.367188 82.082031 157.632812 82.789062 158.25 C 83.667969 158.953125 84.636719 160.714844 84.726562 161.859375 C 84.8125 162.917969 84.285156 164.0625 83.582031 164.769531 C 82.964844 165.5625 81.816406 166.089844 80.847656 166.265625 C 79.878906 166.355469 78.644531 166.089844 77.851562 165.472656 C 77.058594 164.945312 76.53125 164.414062 76.089844 162.917969 C 74.152344 157.015625 74.242188 121.507812 75.914062 114.722656 C 76.445312 112.695312 76.882812 111.816406 77.851562 111.023438 C 78.644531 110.40625 79.878906 110.230469 80.847656 110.316406 C 81.816406 110.40625 82.964844 111.023438 83.582031 111.726562 C 84.285156 112.519531 84.726562 114.722656 84.726562 114.722656 "/></clipPath><clipPath id="ed34773788"><path d="M 75.859375 156.898438 L 192.796875 156.898438 L 192.796875 167.800781 L 75.859375 167.800781 Z M 75.859375 156.898438 "/></clipPath><clipPath id="f3565361dc"><path d="M 80.320312 157.457031 C 113.976562 158.863281 138.472656 159.21875 147.988281 158.601562 C 152.214844 158.25 153.539062 157.542969 157.0625 157.277344 C 162.171875 156.839844 169.835938 156.839844 175.5625 157.015625 C 180.585938 157.191406 187.105469 157.101562 189.75 158.070312 C 190.894531 158.601562 191.511719 159.128906 191.953125 159.835938 C 192.480469 160.539062 192.746094 161.683594 192.746094 162.566406 C 192.65625 163.445312 192.214844 164.503906 191.6875 165.121094 C 191.070312 165.824219 190.191406 166.441406 189.222656 166.617188 C 188.074219 166.707031 186.136719 166.179688 185.257812 165.472656 C 184.550781 164.855469 184.109375 163.886719 183.933594 163.007812 C 183.847656 162.125 183.933594 160.980469 184.464844 160.1875 C 185.078125 159.21875 186.664062 158.070312 187.8125 157.894531 C 189.042969 157.808594 190.894531 158.601562 191.6875 159.480469 C 192.304688 160.097656 192.65625 161.15625 192.746094 162.035156 C 192.746094 162.917969 192.570312 164.0625 191.953125 164.769531 C 191.246094 165.648438 190.191406 166.265625 188.339844 166.707031 C 183.671875 167.765625 169.75 165.5625 162.4375 165.824219 C 156.886719 166 154.066406 167.058594 147.988281 167.410156 C 137.589844 167.941406 118.558594 167.765625 105.960938 167.410156 C 95.828125 167.058594 82.171875 167.675781 78.292969 165.738281 C 76.972656 165.121094 76.53125 164.328125 76.179688 163.445312 C 75.828125 162.566406 75.828125 161.242188 76.179688 160.273438 C 76.53125 159.394531 77.5 158.425781 78.292969 157.984375 C 78.910156 157.632812 80.320312 157.457031 80.320312 157.457031 "/></clipPath><clipPath id="a968f0e85a"><path d="M 183.859375 157.84375 L 298.148438 157.84375 L 298.148438 167.664062 L 183.859375 167.664062 Z M 183.859375 157.84375 "/></clipPath><clipPath id="3469a30f05"><path d="M 188.339844 158.070312 C 296.625 158.601562 296.886719 158.953125 297.417969 159.835938 C 297.945312 160.804688 298.121094 162.828125 297.769531 163.886719 C 297.503906 164.855469 296.710938 165.648438 295.917969 166.089844 C 295.214844 166.53125 294.15625 166.792969 293.1875 166.617188 C 292.128906 166.441406 290.457031 165.296875 289.839844 164.328125 C 289.3125 163.535156 289.132812 162.476562 289.398438 161.507812 C 289.664062 160.449219 290.898438 158.777344 291.867188 158.25 C 292.746094 157.808594 293.804688 157.808594 294.683594 157.984375 C 295.566406 158.160156 296.535156 158.777344 297.0625 159.480469 C 297.679688 160.097656 298.121094 161.15625 298.121094 162.035156 C 298.121094 163.183594 297.679688 164.855469 296.359375 165.824219 C 293.714844 167.675781 285.785156 167.324219 279.796875 167.585938 C 272.746094 167.765625 266.316406 166.792969 256.445312 166.617188 C 239.707031 166.265625 196.09375 168.292969 188.339844 166.882812 C 186.664062 166.53125 186.136719 166.355469 185.433594 165.738281 C 184.640625 165.121094 184.023438 163.976562 183.933594 163.007812 C 183.847656 162.035156 184.023438 160.714844 184.726562 159.921875 C 185.433594 159.042969 188.339844 158.070312 188.339844 158.070312 "/></clipPath><clipPath id="2aad3ebb67"><path d="M 288.144531 110.648438 L 299.246094 110.648438 L 299.246094 166.816406 L 288.144531 166.816406 Z M 288.144531 110.648438 "/></clipPath><clipPath id="faa9a77283"><path d="M 289.132812 162.390625 C 289.398438 117.542969 290.015625 118.777344 290.015625 118.6875 C 290.105469 118.6875 288.253906 116.222656 288.164062 115.074219 C 288.078125 114.105469 288.429688 113.050781 289.046875 112.433594 C 289.839844 111.550781 291.691406 110.757812 292.835938 110.671875 C 293.804688 110.671875 294.773438 111.109375 295.476562 111.816406 C 296.269531 112.609375 297.0625 114.460938 296.886719 115.605469 C 296.800781 116.839844 295.566406 118.425781 294.597656 119.039062 C 293.804688 119.480469 292.660156 119.570312 291.777344 119.480469 C 290.898438 119.304688 289.925781 118.863281 289.3125 118.070312 C 288.605469 117.191406 288.078125 115.253906 288.253906 114.105469 C 288.429688 113.136719 289.046875 112.257812 289.75 111.726562 C 290.457031 111.109375 291.511719 110.757812 292.394531 110.671875 C 293.277344 110.671875 294.246094 110.847656 295.039062 111.464844 C 296.269531 112.519531 297.242188 114.460938 297.945312 117.542969 C 299.707031 125.5625 299.53125 155.871094 297.945312 162.390625 C 297.503906 164.414062 296.976562 165.386719 296.09375 166.089844 C 295.214844 166.707031 293.980469 166.882812 293.011719 166.792969 C 292.042969 166.707031 290.898438 166.089844 290.28125 165.386719 C 289.574219 164.59375 289.132812 162.390625 289.132812 162.390625 "/></clipPath><clipPath id="13f8c79055"><path d="M 181.21875 107.515625 L 296.761719 107.515625 L 296.761719 119.742188 L 181.21875 119.742188 Z M 181.21875 107.515625 "/></clipPath><clipPath id="8923f940b0"><path d="M 185.609375 110.847656 C 211.601562 107.851562 224.464844 107.410156 234.773438 107.585938 C 244.289062 107.761719 253.097656 109.085938 262.261719 109.4375 C 271.335938 109.789062 283.496094 108.378906 289.488281 109.613281 C 292.570312 110.230469 295.300781 111.023438 296.269531 112.433594 C 296.976562 113.578125 296.710938 115.515625 296.183594 116.574219 C 295.566406 117.632812 293.804688 118.601562 292.660156 118.777344 C 291.777344 118.953125 290.71875 118.6875 289.925781 118.160156 C 289.046875 117.453125 288.078125 115.691406 287.902344 114.546875 C 287.8125 113.578125 288.164062 112.519531 288.78125 111.816406 C 289.488281 110.933594 291.25 109.964844 292.484375 109.964844 C 293.628906 110.054688 295.390625 111.109375 296.007812 112.082031 C 296.625 112.785156 296.800781 113.929688 296.710938 114.8125 C 296.625 115.691406 296.183594 116.660156 295.566406 117.367188 C 295.039062 117.984375 293.980469 118.601562 293.097656 118.777344 C 292.304688 118.863281 291.160156 118.777344 290.367188 118.335938 C 289.574219 117.984375 288.519531 116.308594 288.339844 116.398438 C 288.253906 116.398438 289.75 117.894531 289.488281 118.425781 C 288.339844 120.273438 270.894531 118.601562 262.171875 118.246094 C 254.15625 117.894531 247.546875 116.660156 238.824219 116.398438 C 227.8125 116.132812 210.894531 116.660156 201.113281 117.542969 C 194.859375 118.070312 188.867188 120.011719 185.785156 119.65625 C 184.375 119.570312 183.582031 119.304688 182.789062 118.6875 C 182.085938 117.984375 181.46875 116.839844 181.292969 115.957031 C 181.203125 114.988281 181.378906 113.667969 181.996094 112.875 C 182.699219 111.902344 185.609375 110.847656 185.609375 110.847656 "/></clipPath><clipPath id="7e522f49cb"><path d="M 233.949219 160.734375 L 244.578125 160.734375 L 244.578125 213.472656 L 233.949219 213.472656 Z M 233.949219 160.734375 "/></clipPath><clipPath id="bef25622f0"><path d="M 243.496094 165.207031 C 243.847656 211.640625 242.964844 212.433594 241.996094 213.050781 C 241.203125 213.492188 240.058594 213.492188 239.175781 213.316406 C 238.382812 213.140625 237.414062 212.609375 236.796875 211.90625 C 236.183594 211.199219 235.742188 210.230469 235.742188 209.261719 C 235.742188 208.207031 236.621094 206.355469 237.414062 205.5625 C 238.121094 204.945312 239.175781 204.59375 240.058594 204.59375 C 241.027344 204.59375 242.085938 204.855469 242.789062 205.472656 C 243.671875 206.265625 244.550781 208.027344 244.550781 209.261719 C 244.464844 210.496094 243.320312 212.082031 242.4375 212.785156 C 241.644531 213.316406 240.585938 213.578125 239.707031 213.402344 C 238.5625 213.226562 236.976562 212.257812 236.269531 211.113281 C 235.390625 209.792969 235.476562 208.292969 235.125 205.648438 C 234.417969 198.335938 233.1875 171.289062 234.683594 165.207031 C 235.125 163.269531 235.652344 162.300781 236.535156 161.597656 C 237.328125 160.890625 238.648438 160.714844 239.617188 160.804688 C 240.585938 160.890625 241.734375 161.507812 242.347656 162.300781 C 242.964844 163.007812 243.496094 165.207031 243.496094 165.207031 "/></clipPath><clipPath id="16de718df2"><path d="M 235.691406 204.542969 L 330.382812 204.542969 L 330.382812 215.597656 L 235.691406 215.597656 Z M 235.691406 204.542969 "/></clipPath><clipPath id="a16ee9718c"><path d="M 240.148438 204.59375 C 298.738281 206.796875 309.132812 206.972656 316.007812 206.53125 C 320.058594 206.355469 323.230469 205.121094 325.699219 205.472656 C 327.285156 205.738281 328.695312 206.355469 329.488281 207.234375 C 330.105469 207.941406 330.457031 209 330.367188 209.878906 C 330.28125 211.023438 329.3125 212.875 328.429688 213.578125 C 327.636719 214.109375 326.578125 214.371094 325.699219 214.285156 C 324.816406 214.195312 323.761719 213.933594 323.054688 213.226562 C 322.261719 212.433594 321.382812 210.585938 321.558594 209.351562 C 321.644531 208.207031 322.878906 206.621094 323.847656 206.003906 C 324.640625 205.472656 325.785156 205.386719 326.667969 205.5625 C 327.550781 205.648438 328.519531 206.265625 329.136719 206.882812 C 329.75 207.5 330.191406 208.558594 330.28125 209.4375 C 330.367188 210.320312 330.191406 211.378906 329.664062 212.171875 C 329.222656 212.964844 328.519531 213.492188 327.550781 214.019531 C 325.964844 214.726562 323.761719 214.902344 320.589844 215.164062 C 314.421875 215.78125 303.496094 215.519531 292.660156 215.34375 C 277.679688 215.164062 245.433594 215.429688 239.089844 213.316406 C 237.589844 212.785156 237.0625 212.347656 236.535156 211.554688 C 235.917969 210.761719 235.652344 209.4375 235.742188 208.46875 C 235.917969 207.5 236.445312 206.355469 237.238281 205.738281 C 237.945312 205.121094 240.148438 204.59375 240.148438 204.59375 "/></clipPath><clipPath id="079a3fc652"><path d="M 320.695312 158.597656 L 331.523438 158.597656 L 331.523438 214.0625 L 320.695312 214.0625 Z M 320.695312 158.597656 "/></clipPath><clipPath id="9ec012dcde"><path d="M 321.910156 209.613281 C 321.46875 164.414062 320.765625 164.152344 320.765625 163.269531 C 320.675781 162.390625 320.941406 161.242188 321.558594 160.539062 C 322.261719 159.65625 324.023438 158.6875 325.171875 158.601562 C 326.140625 158.601562 327.109375 159.042969 327.8125 159.570312 C 328.519531 160.097656 329.222656 160.980469 329.398438 161.859375 C 329.664062 163.007812 329.3125 165.03125 328.519531 165.914062 C 327.726562 166.882812 325.785156 167.5 324.640625 167.410156 C 323.761719 167.410156 322.792969 166.882812 322.085938 166.265625 C 321.46875 165.648438 320.851562 164.679688 320.851562 163.710938 C 320.765625 162.566406 321.292969 160.628906 322.175781 159.835938 C 323.054688 159.042969 324.992188 158.601562 326.140625 158.777344 C 327.109375 158.863281 327.902344 159.394531 328.519531 160.1875 C 329.3125 161.242188 329.574219 162.476562 330.015625 164.945312 C 331.160156 172.167969 332.21875 203.09375 330.722656 209.613281 C 330.191406 211.640625 329.664062 212.609375 328.78125 213.316406 C 327.988281 213.933594 326.667969 214.109375 325.785156 214.019531 C 324.816406 213.933594 323.585938 213.316406 322.96875 212.609375 C 322.351562 211.816406 321.910156 209.613281 321.910156 209.613281 "/></clipPath><clipPath id="6535327089"><path d="M 288.800781 157.738281 L 329.71875 157.738281 L 329.71875 168.234375 L 288.800781 168.234375 Z M 288.800781 157.738281 "/></clipPath><clipPath id="4dbb324f31"><path d="M 293.1875 158.953125 C 319.265625 158.6875 322.96875 157.542969 325.171875 157.808594 C 326.402344 157.894531 327.109375 157.984375 327.902344 158.601562 C 328.695312 159.394531 329.664062 161.15625 329.664062 162.300781 C 329.75 163.269531 329.222656 164.238281 328.695312 164.945312 C 328.164062 165.648438 327.285156 166.355469 326.316406 166.441406 C 325.171875 166.617188 323.230469 166.179688 322.351562 165.472656 C 321.558594 164.855469 321.117188 163.886719 320.941406 163.007812 C 320.765625 162.125 320.851562 160.980469 321.382812 160.1875 C 321.910156 159.21875 323.496094 157.984375 324.730469 157.808594 C 325.875 157.632812 327.726562 158.425781 328.605469 159.21875 C 329.222656 159.921875 329.574219 160.980469 329.664062 161.859375 C 329.75 162.742188 329.488281 163.800781 328.957031 164.59375 C 328.519531 165.296875 327.902344 165.824219 326.757812 166.355469 C 324.554688 167.234375 319.707031 167.5 315.300781 167.765625 C 309.132812 168.117188 297.0625 168.46875 293.1875 167.765625 C 291.777344 167.5 290.984375 167.234375 290.28125 166.617188 C 289.574219 166 288.957031 164.855469 288.871094 163.886719 C 288.695312 162.917969 288.957031 161.597656 289.574219 160.804688 C 290.28125 159.921875 293.1875 158.953125 293.1875 158.953125 "/></clipPath><clipPath id="bece6e201c"><path d="M 127.757812 161.050781 L 137.28125 161.050781 L 137.28125 215.546875 L 127.757812 215.546875 Z M 127.757812 161.050781 "/></clipPath><clipPath id="5480cd34f4"><path d="M 137.238281 165.472656 C 136.53125 213.578125 135.914062 214.109375 135.210938 214.636719 C 134.59375 215.164062 133.976562 215.429688 133.273438 215.429688 C 132.214844 215.429688 130.1875 214.902344 129.394531 213.933594 C 128.601562 213.050781 128.164062 210.847656 128.515625 209.613281 C 128.867188 208.46875 130.453125 207.234375 131.511719 206.796875 C 132.390625 206.441406 133.535156 206.621094 134.328125 206.972656 C 135.210938 207.324219 136.09375 207.941406 136.53125 208.820312 C 136.972656 209.792969 137.238281 211.816406 136.707031 212.875 C 136.179688 214.019531 134.507812 215.164062 133.449219 215.429688 C 132.480469 215.605469 131.421875 215.34375 130.628906 214.902344 C 129.835938 214.550781 129.042969 213.757812 128.691406 212.875 C 128.339844 211.816406 128.339844 209.792969 128.957031 208.820312 C 129.570312 207.765625 131.246094 206.707031 132.480469 206.621094 C 133.714844 206.621094 135.476562 207.5 136.179688 208.382812 C 136.886719 209.085938 137.0625 210.230469 137.148438 211.023438 C 137.148438 211.816406 137.0625 212.433594 136.621094 213.140625 C 136.003906 214.019531 134.417969 215.253906 133.273438 215.429688 C 132.214844 215.605469 130.980469 215.164062 130.1875 214.636719 C 129.570312 214.285156 129.132812 214.019531 128.777344 213.140625 C 127.898438 210.761719 128.425781 204.328125 128.339844 198.425781 C 128.164062 189.4375 127.015625 169.171875 128.601562 164.414062 C 129.042969 162.917969 129.570312 162.390625 130.363281 161.859375 C 131.15625 161.242188 132.390625 160.980469 133.359375 161.066406 C 134.328125 161.15625 135.476562 161.773438 136.179688 162.566406 C 136.796875 163.269531 137.238281 165.472656 137.238281 165.472656 "/></clipPath><clipPath id="251693154d"><path d="M 128.210938 205.40625 L 257.136719 205.40625 L 257.136719 216.949219 L 128.210938 216.949219 Z M 128.210938 205.40625 "/></clipPath><clipPath id="75f01d5261"><path d="M 132.65625 207.058594 C 185.871094 207.234375 191.246094 206.441406 200.5 206.179688 C 213.273438 205.828125 236.621094 204.679688 246.402344 206.179688 C 251.160156 206.882812 255.476562 207.589844 256.710938 209.351562 C 257.414062 210.40625 257.0625 212.433594 256.359375 213.402344 C 255.742188 214.460938 253.980469 215.34375 252.835938 215.519531 C 251.863281 215.605469 250.808594 215.34375 250.101562 214.726562 C 249.222656 213.933594 248.253906 212.257812 248.253906 211.023438 C 248.253906 209.792969 249.222656 208.027344 250.277344 207.414062 C 251.25 206.707031 253.273438 206.707031 254.332031 207.058594 C 255.214844 207.324219 256.007812 208.117188 256.445312 208.910156 C 256.886719 209.703125 257.152344 210.761719 256.976562 211.640625 C 256.886719 212.523438 256.445312 213.578125 255.828125 214.195312 C 255.125 214.8125 254.15625 215.34375 253.273438 215.429688 C 252.394531 215.605469 251.25 215.34375 250.542969 214.988281 C 249.75 214.550781 249.308594 212.875 248.605469 212.875 C 247.8125 212.785156 247.722656 214.371094 246.050781 214.988281 C 237.414062 218.160156 173.714844 216.574219 153.273438 216.3125 C 143.140625 216.136719 133.976562 217.015625 130.628906 215.34375 C 129.308594 214.8125 128.867188 213.933594 128.515625 213.050781 C 128.164062 212.171875 128.164062 210.847656 128.515625 209.878906 C 128.867188 209 129.835938 208.027344 130.628906 207.589844 C 131.246094 207.234375 132.65625 207.058594 132.65625 207.058594 "/></clipPath><clipPath id="cd2fd82339"><path d="M 43 157.46875 L 85.160156 157.46875 L 85.160156 168 L 43 168 Z M 43 157.46875 "/></clipPath><clipPath id="07276130f9"><path d="M 80.761719 166.882812 C 46.398438 167.851562 45.871094 167.851562 45.078125 167.234375 C 44.195312 166.53125 43.226562 164.769531 43.050781 163.621094 C 42.960938 162.742188 43.402344 161.683594 43.933594 160.980469 C 44.460938 160.273438 45.253906 159.570312 46.222656 159.394531 C 47.367188 159.128906 49.304688 159.394531 50.277344 160.1875 C 51.246094 160.890625 51.863281 162.828125 51.863281 163.976562 C 51.863281 164.855469 51.332031 165.914062 50.714844 166.53125 C 50.1875 167.148438 49.128906 167.765625 48.25 167.941406 C 47.457031 168.027344 46.3125 167.941406 45.519531 167.5 C 44.726562 167.148438 43.933594 166.265625 43.492188 165.472656 C 43.140625 164.679688 42.875 163.621094 43.140625 162.742188 C 43.492188 161.597656 44.109375 160.363281 45.78125 159.480469 C 50.628906 157.101562 75.5625 157.191406 80.761719 158.070312 C 82.257812 158.335938 82.875 158.511719 83.667969 159.128906 C 84.375 159.835938 84.988281 160.980469 85.078125 161.949219 C 85.167969 162.917969 84.988281 164.152344 84.375 164.945312 C 83.667969 165.914062 80.761719 166.882812 80.761719 166.882812 "/></clipPath><clipPath id="c57f4ffc82"><path d="M 40.3125 158.96875 L 52.902344 158.96875 L 52.902344 216.371094 L 40.3125 216.371094 Z M 40.3125 158.96875 "/></clipPath><clipPath id="65e4eeeec7"><path d="M 51.773438 163.710938 C 50.097656 182.832031 48.425781 202.566406 50.1875 207.414062 C 50.714844 209.085938 52.125 209.351562 52.476562 210.320312 C 52.832031 211.023438 52.917969 211.640625 52.742188 212.433594 C 52.476562 213.402344 51.507812 215.164062 50.453125 215.78125 C 49.394531 216.3125 47.191406 216.046875 46.398438 215.78125 C 45.957031 215.695312 45.695312 215.605469 45.519531 215.164062 C 44.902344 214.285156 44.285156 210.496094 44.902344 209.175781 C 45.339844 208.382812 46.398438 207.851562 47.191406 207.675781 C 48.074219 207.414062 49.21875 207.5 50.011719 207.851562 C 50.890625 208.117188 51.683594 208.910156 52.214844 209.613281 C 52.65625 210.40625 52.832031 211.554688 52.742188 212.433594 C 52.65625 213.316406 52.214844 214.285156 51.597656 214.902344 C 50.980469 215.605469 49.921875 216.136719 49.042969 216.222656 C 48.160156 216.398438 47.105469 216.3125 46.3125 215.78125 C 45.339844 215.164062 44.109375 213.578125 44.019531 212.347656 C 43.84375 211.113281 44.726562 209.351562 45.519531 208.558594 C 46.222656 207.851562 47.28125 207.5 48.160156 207.5 C 49.042969 207.414062 50.1875 207.675781 50.890625 208.292969 C 51.773438 209 52.65625 210.9375 52.832031 211.90625 C 52.917969 212.523438 52.65625 213.316406 52.566406 213.316406 C 52.300781 213.316406 51.15625 208.558594 51.246094 208.558594 C 51.332031 208.558594 52.917969 211.199219 52.742188 212.433594 C 52.65625 213.578125 51.507812 215.164062 50.453125 215.78125 C 49.394531 216.3125 47.632812 216.398438 46.398438 215.78125 C 44.636719 215.078125 42.609375 213.578125 41.464844 210.671875 C 38.734375 203.710938 41.730469 177.632812 42.257812 169.4375 C 42.523438 165.914062 42.433594 163.710938 43.140625 161.949219 C 43.667969 160.890625 44.285156 160.011719 45.164062 159.570312 C 45.957031 159.042969 47.367188 158.863281 48.25 159.042969 C 48.953125 159.128906 49.570312 159.394531 50.097656 159.921875 C 50.890625 160.714844 51.773438 163.710938 51.773438 163.710938 "/></clipPath><clipPath id="0be812b222"><path d="M 44.242188 206.714844 L 142.125 206.714844 L 142.125 217.625 L 44.242188 217.625 Z M 44.242188 206.714844 "/></clipPath><clipPath id="484e40b195"><path d="M 48.691406 207.851562 C 120.585938 208.207031 131.949219 205.472656 133.800781 207.5 C 134.507812 208.382812 132.921875 211.199219 133.097656 211.378906 C 133.359375 211.464844 134.507812 208.558594 135.476562 207.941406 C 136.269531 207.414062 137.324219 207.324219 138.207031 207.5 C 139.085938 207.589844 140.058594 208.117188 140.671875 208.820312 C 141.289062 209.4375 141.820312 210.40625 141.90625 211.378906 C 141.996094 212.257812 141.820312 213.316406 141.289062 214.109375 C 140.671875 214.988281 139 216.136719 137.765625 216.222656 C 136.53125 216.3125 134.769531 215.34375 133.976562 214.460938 C 133.359375 213.757812 133.097656 212.699219 133.097656 211.816406 C 133.097656 210.9375 133.359375 209.878906 133.976562 209.175781 C 134.769531 208.292969 136.53125 207.324219 137.765625 207.414062 C 139 207.5 140.585938 208.644531 141.289062 209.527344 C 141.820312 210.320312 142.347656 211.464844 141.90625 212.257812 C 141.113281 213.84375 137.5 215.34375 133.449219 216.3125 C 124.375 218.515625 102.257812 217.191406 87.546875 217.191406 C 73.800781 217.191406 52.917969 218.25 47.632812 216.488281 C 46.132812 216.046875 45.605469 215.519531 45.078125 214.726562 C 44.460938 213.933594 44.195312 212.699219 44.285156 211.730469 C 44.460938 210.761719 44.988281 209.613281 45.78125 208.910156 C 46.488281 208.292969 48.691406 207.851562 48.691406 207.851562 "/></clipPath><clipPath id="e40b2134df"><path d="M 74.253906 210.371094 L 84.410156 210.371094 L 84.410156 261.765625 L 74.253906 261.765625 Z M 74.253906 210.371094 "/></clipPath><clipPath id="9a2e66058d"><path d="M 84.285156 214.8125 C 84.019531 258.867188 83.84375 259.484375 83.226562 260.277344 C 82.609375 260.980469 81.464844 261.597656 80.496094 261.6875 C 79.261719 261.773438 77.414062 261.15625 76.621094 260.277344 C 75.828125 259.308594 75.386719 257.105469 75.738281 255.871094 C 76.179688 254.726562 77.589844 253.402344 78.734375 253.050781 C 79.96875 252.789062 81.90625 253.226562 82.789062 254.019531 C 83.757812 254.8125 84.460938 256.574219 84.285156 257.808594 C 84.195312 259.042969 83.050781 260.628906 81.996094 261.246094 C 80.847656 261.773438 78.910156 261.773438 77.851562 261.246094 C 76.796875 260.628906 75.738281 258.867188 75.5625 257.808594 C 75.386719 256.839844 75.652344 255.78125 76.179688 254.988281 C 76.796875 254.109375 78.558594 253.050781 79.703125 252.964844 C 80.671875 252.789062 81.730469 253.140625 82.433594 253.667969 C 83.316406 254.375 84.285156 256.136719 84.375 257.28125 C 84.375 258.339844 83.84375 259.484375 83.226562 260.277344 C 82.609375 260.980469 81.464844 261.597656 80.496094 261.6875 C 79.527344 261.773438 78.207031 261.511719 77.414062 260.980469 C 76.621094 260.363281 76.089844 259.835938 75.652344 258.339844 C 73.886719 252.789062 73.886719 221.246094 75.472656 214.8125 C 76.003906 212.785156 76.445312 211.90625 77.414062 211.199219 C 78.207031 210.585938 79.4375 210.320312 80.410156 210.40625 C 81.378906 210.496094 82.523438 211.113281 83.226562 211.90625 C 83.84375 212.609375 84.285156 214.8125 84.285156 214.8125 "/></clipPath><clipPath id="9bafcf5906"><path d="M 180.078125 209.742188 L 190.375 209.742188 L 190.375 261.292969 L 180.078125 261.292969 Z M 180.078125 209.742188 "/></clipPath><clipPath id="02e5eb9087"><path d="M 189.835938 214.195312 C 189.835938 259.394531 189.308594 259.925781 188.515625 260.453125 C 187.722656 260.980469 186.402344 261.332031 185.433594 261.246094 C 184.464844 261.070312 183.316406 260.453125 182.699219 259.746094 C 182.085938 259.042969 181.46875 257.898438 181.554688 256.839844 C 181.730469 255.605469 182.878906 253.667969 183.847656 252.964844 C 184.640625 252.433594 185.785156 252.347656 186.664062 252.433594 C 187.546875 252.609375 188.515625 253.050781 189.132812 253.757812 C 189.835938 254.636719 190.453125 256.574219 190.277344 257.722656 C 190.191406 258.601562 189.574219 259.570312 188.867188 260.101562 C 188.25 260.71875 187.28125 261.246094 186.3125 261.246094 C 185.167969 261.246094 183.316406 260.363281 182.523438 259.570312 C 181.90625 258.867188 181.644531 257.808594 181.554688 256.929688 C 181.554688 256.046875 181.820312 254.988281 182.4375 254.195312 C 183.230469 253.402344 184.992188 252.523438 186.136719 252.433594 C 187.105469 252.347656 188.074219 252.875 188.78125 253.402344 C 189.484375 254.019531 190.101562 254.902344 190.277344 255.78125 C 190.453125 256.929688 189.222656 259.746094 189.222656 259.835938 C 189.308594 259.835938 190.367188 256.839844 190.367188 256.839844 C 190.367188 256.839844 189.925781 259.042969 189.308594 259.746094 C 188.691406 260.453125 187.457031 261.070312 186.488281 261.246094 C 185.519531 261.332031 184.285156 260.980469 183.492188 260.453125 C 182.699219 259.925781 182.171875 259.394531 181.730469 257.898438 C 179.96875 252.257812 179.527344 220.628906 181.027344 214.195312 C 181.46875 212.171875 181.996094 211.289062 182.964844 210.585938 C 183.757812 209.878906 184.992188 209.703125 185.960938 209.792969 C 186.929688 209.878906 188.074219 210.496094 188.691406 211.289062 C 189.398438 211.992188 189.835938 214.195312 189.835938 214.195312 "/></clipPath><clipPath id="6086dc9940"><path d="M 232.316406 207 L 300.550781 207 L 300.550781 217.367188 L 232.316406 217.367188 Z M 232.316406 207 "/></clipPath><clipPath id="0ff4f1bad4"><path d="M 236.796875 207.675781 C 298.121094 207.414062 299.003906 208.027344 299.707031 208.910156 C 300.324219 209.613281 300.589844 210.671875 300.5 211.554688 C 300.324219 212.699219 299.265625 214.460938 298.386719 215.164062 C 297.59375 215.695312 296.535156 215.871094 295.566406 215.695312 C 294.683594 215.605469 293.714844 215.164062 293.097656 214.550781 C 292.394531 213.933594 291.777344 213.050781 291.777344 212.082031 C 291.691406 210.9375 292.21875 209 293.097656 208.117188 C 293.980469 207.324219 295.917969 206.882812 297.0625 207.058594 C 297.945312 207.148438 298.828125 207.851562 299.441406 208.46875 C 300.058594 209.175781 300.410156 210.230469 300.5 211.113281 C 300.5 211.992188 300.324219 213.050781 299.707031 213.84375 C 299.003906 214.726562 298.121094 215.253906 296.09375 215.78125 C 288.339844 217.722656 243.933594 217.722656 236.796875 216.488281 C 235.125 216.222656 234.597656 216.046875 233.890625 215.34375 C 233.1875 214.726562 232.570312 213.578125 232.394531 212.609375 C 232.304688 211.640625 232.570312 210.320312 233.1875 209.527344 C 233.890625 208.644531 236.796875 207.675781 236.796875 207.675781 "/></clipPath><clipPath id="40c348e84a"><path d="M 288.015625 206.890625 L 298.226562 206.890625 L 298.226562 262.203125 L 288.015625 262.203125 Z M 288.015625 206.890625 "/></clipPath><clipPath id="34dcac055b"><path d="M 298.210938 211.378906 C 297.417969 260.277344 296.976562 260.804688 296.183594 261.421875 C 295.300781 261.949219 294.070312 262.214844 293.097656 262.125 C 292.128906 262.039062 290.984375 261.421875 290.367188 260.71875 C 289.664062 259.925781 289.132812 258.777344 289.222656 257.722656 C 289.3125 256.574219 290.28125 254.8125 291.160156 254.109375 C 291.867188 253.492188 292.921875 253.226562 293.890625 253.316406 C 295.039062 253.492188 296.800781 254.460938 297.417969 255.519531 C 298.035156 256.488281 298.121094 258.515625 297.679688 259.570312 C 297.152344 260.71875 295.566406 261.863281 294.332031 262.125 C 293.1875 262.304688 291.25 261.6875 290.457031 260.804688 C 289.574219 259.925781 289.046875 257.984375 289.3125 256.839844 C 289.574219 255.605469 290.898438 254.109375 292.042969 253.667969 C 293.097656 253.226562 295.125 253.582031 296.09375 254.109375 C 296.976562 254.550781 297.503906 255.519531 297.855469 256.3125 C 298.121094 257.105469 298.121094 257.984375 297.945312 258.777344 C 297.679688 259.660156 296.976562 260.804688 296.183594 261.421875 C 295.300781 261.949219 293.980469 262.214844 293.097656 262.125 C 292.394531 262.125 291.691406 261.863281 291.160156 261.421875 C 290.457031 260.804688 289.839844 260.277344 289.398438 258.777344 C 287.546875 252.964844 287.726562 218.074219 289.398438 211.378906 C 289.839844 209.351562 290.367188 208.46875 291.25 207.675781 C 292.042969 207.058594 293.363281 206.882812 294.332031 206.972656 C 295.300781 207.058594 296.449219 207.675781 297.0625 208.382812 C 297.679688 209.175781 298.210938 211.378906 298.210938 211.378906 "/></clipPath><clipPath id="42e42db3d2"><path d="M 183.09375 254.707031 L 298.460938 254.707031 L 298.460938 265.613281 L 183.09375 265.613281 Z M 183.09375 254.707031 "/></clipPath><clipPath id="02ebd315a1"><path d="M 187.546875 255.167969 C 268.339844 256.488281 287.8125 253.667969 293.980469 255.167969 C 295.917969 255.605469 296.886719 256.136719 297.59375 257.015625 C 298.210938 257.808594 298.472656 258.867188 298.386719 259.746094 C 298.210938 260.894531 297.152344 262.65625 296.183594 263.273438 C 295.476562 263.890625 294.421875 264.066406 293.453125 263.890625 C 292.394531 263.710938 290.632812 262.566406 290.015625 261.597656 C 289.574219 260.804688 289.398438 259.746094 289.574219 258.777344 C 289.839844 257.722656 291.074219 256.136719 292.128906 255.519531 C 292.921875 255.078125 294.070312 255.078125 294.863281 255.253906 C 295.742188 255.429688 296.710938 255.960938 297.328125 256.664062 C 297.855469 257.367188 298.296875 258.425781 298.386719 259.308594 C 298.386719 260.1875 298.121094 261.246094 297.59375 262.039062 C 297.0625 262.742188 296.710938 263.183594 295.390625 263.710938 C 289.839844 265.652344 265.167969 265.386719 248.429688 265.476562 C 229.222656 265.5625 193.363281 266.089844 186.488281 263.800781 C 184.902344 263.273438 184.464844 262.832031 183.933594 262.039062 C 183.316406 261.246094 183.054688 259.925781 183.140625 259.042969 C 183.316406 258.074219 183.847656 256.839844 184.640625 256.222656 C 185.34375 255.605469 187.546875 255.167969 187.546875 255.167969 "/></clipPath><clipPath id="1bce1ca653"><path d="M 287.125 254.851562 L 333.089844 254.851562 L 333.089844 265.214844 L 287.125 265.214844 Z M 287.125 254.851562 "/></clipPath><clipPath id="c9674486a3"><path d="M 328.605469 265.210938 C 301.46875 264.683594 297.328125 263.273438 294.507812 263.449219 C 292.835938 263.625 291.691406 264.859375 290.542969 264.503906 C 289.3125 264.242188 287.8125 263.007812 287.371094 261.863281 C 286.933594 260.71875 287.195312 258.777344 287.902344 257.722656 C 288.605469 256.753906 290.367188 255.871094 291.601562 255.871094 C 292.746094 255.871094 294.507812 256.839844 295.214844 257.808594 C 295.832031 258.867188 296.007812 260.804688 295.566406 261.949219 C 295.125 263.097656 293.628906 264.328125 292.394531 264.59375 C 291.25 264.859375 289.3125 264.152344 288.429688 263.449219 C 287.726562 262.832031 287.285156 261.773438 287.195312 260.894531 C 287.019531 260.011719 287.371094 258.867188 287.636719 258.160156 C 287.902344 257.632812 287.988281 257.367188 288.519531 257.015625 C 289.839844 256.222656 292.921875 255.605469 296.535156 255.253906 C 303.761719 254.550781 324.992188 254.902344 329.664062 256.488281 C 331.160156 256.929688 331.691406 257.457031 332.308594 258.25 C 332.835938 259.042969 333.101562 260.363281 333.011719 261.332031 C 332.921875 262.304688 332.308594 263.449219 331.601562 264.066406 C 330.808594 264.683594 328.605469 265.210938 328.605469 265.210938 "/></clipPath><clipPath id="8a20ac0a1c"><path d="M 321.101562 255.605469 L 333.203125 255.605469 L 333.203125 312.441406 L 321.101562 312.441406 Z M 321.101562 255.605469 "/></clipPath><clipPath id="1f78ef4614"><path d="M 333.1875 260.011719 C 332.921875 296.578125 332.921875 301.421875 331.867188 305.035156 C 331.074219 307.503906 329.929688 309.792969 328.695312 311.027344 C 327.8125 311.820312 326.84375 312.347656 325.875 312.347656 C 324.730469 312.347656 322.878906 311.46875 322.085938 310.761719 C 321.558594 310.234375 321.292969 309.527344 321.207031 308.824219 C 321.027344 307.941406 321.117188 306.621094 321.644531 305.828125 C 322.261719 304.859375 323.9375 303.625 325.082031 303.539062 C 326.316406 303.449219 328.164062 304.242188 328.957031 305.125 C 329.664062 306.09375 330.105469 308.03125 329.75 309.175781 C 329.398438 310.410156 327.902344 311.730469 326.84375 312.171875 C 325.964844 312.523438 324.816406 312.347656 324.023438 312.082031 C 323.144531 311.820312 322.261719 311.203125 321.820312 310.320312 C 321.292969 309.351562 320.941406 307.324219 321.46875 306.179688 C 321.910156 305.125 323.496094 303.890625 324.640625 303.625 C 325.875 303.359375 327.726562 303.890625 328.605469 304.769531 C 329.488281 305.738281 330.105469 307.941406 329.75 309.175781 C 329.398438 310.320312 328.078125 311.730469 326.933594 312.082031 C 325.785156 312.523438 323.847656 312.171875 322.878906 311.46875 C 321.910156 310.761719 321.117188 308.910156 321.117188 307.765625 C 321.117188 306.621094 322.351562 306.003906 322.792969 304.59375 C 323.496094 302.390625 323.761719 299.574219 324.023438 295.519531 C 324.640625 287.414062 322.878906 263.976562 324.464844 258.953125 C 324.90625 257.546875 325.433594 256.929688 326.226562 256.398438 C 327.019531 255.871094 328.34375 255.519531 329.3125 255.695312 C 330.28125 255.78125 331.425781 256.398438 332.042969 257.105469 C 332.660156 257.808594 333.1875 260.011719 333.1875 260.011719 "/></clipPath><clipPath id="de045a119a"><path d="M 234.132812 303.691406 L 330.851562 303.691406 L 330.851562 313.496094 L 234.132812 313.496094 Z M 234.132812 303.691406 "/></clipPath><clipPath id="4886f7ae84"><path d="M 238.5625 303.714844 C 328.519531 304.683594 329.3125 305.125 330.015625 306.09375 C 330.632812 306.796875 330.898438 307.855469 330.808594 308.734375 C 330.632812 309.882812 329.574219 311.644531 328.695312 312.261719 C 327.902344 312.875 326.84375 313.054688 325.875 312.875 C 324.816406 312.699219 323.144531 311.554688 322.527344 310.585938 C 322 309.792969 321.820312 308.734375 322 307.855469 C 322.351562 306.710938 323.496094 305.125 324.554688 304.507812 C 325.347656 304.066406 326.492188 304.066406 327.285156 304.242188 C 328.164062 304.417969 329.136719 305.035156 329.75 305.652344 C 330.28125 306.355469 330.722656 307.414062 330.808594 308.296875 C 330.808594 309.175781 330.542969 310.234375 330.015625 311.027344 C 329.488281 311.730469 329.046875 312.261719 327.8125 312.699219 C 323.320312 314.199219 307.460938 312.964844 294.949219 312.964844 C 278.472656 312.875 244.113281 314.460938 237.503906 312.4375 C 235.917969 311.90625 235.476562 311.378906 234.949219 310.585938 C 234.332031 309.792969 234.066406 308.558594 234.15625 307.589844 C 234.332031 306.621094 234.859375 305.476562 235.652344 304.859375 C 236.359375 304.152344 238.5625 303.714844 238.5625 303.714844 "/></clipPath><clipPath id="39e644146b"><path d="M 233.925781 257.140625 L 243.941406 257.140625 L 243.941406 313.160156 L 233.925781 313.160156 Z M 233.925781 257.140625 "/></clipPath><clipPath id="f217f3c01a"><path d="M 243.933594 261.511719 C 242.878906 311.289062 242.4375 311.820312 241.554688 312.347656 C 240.761719 312.875 239.53125 313.230469 238.5625 313.140625 C 237.589844 312.964844 236.445312 312.347656 235.828125 311.644531 C 235.125 310.9375 234.507812 309.792969 234.683594 308.734375 C 234.949219 307.414062 237.238281 304.945312 238.207031 304.417969 C 238.738281 304.152344 239.089844 304.242188 239.707031 304.417969 C 240.585938 304.683594 242.527344 305.652344 243.054688 306.796875 C 243.582031 307.855469 243.496094 309.792969 242.964844 310.9375 C 242.347656 311.996094 240.675781 313.054688 239.441406 313.140625 C 238.296875 313.230469 236.445312 312.4375 235.652344 311.554688 C 234.949219 310.585938 234.507812 308.648438 234.859375 307.503906 C 235.210938 306.269531 236.621094 304.859375 237.769531 304.507812 C 238.914062 304.152344 240.851562 304.683594 241.820312 305.300781 C 242.613281 305.828125 243.140625 306.796875 243.40625 307.679688 C 243.582031 308.558594 243.496094 309.617188 243.140625 310.496094 C 242.789062 311.289062 241.292969 312.613281 241.292969 312.613281 C 241.203125 312.523438 243.40625 309.792969 243.40625 309.792969 C 243.320312 309.792969 241.820312 312.4375 240.675781 312.875 C 239.53125 313.316406 237.589844 312.964844 236.621094 312.347656 C 235.742188 311.820312 235.210938 310.851562 234.859375 309.792969 C 234.242188 308.296875 234.066406 306.445312 233.980469 304.066406 C 233.804688 300.453125 234.949219 295.519531 235.125 289.96875 C 235.476562 281.949219 233.890625 264.859375 235.300781 260.453125 C 235.742188 259.042969 236.269531 258.425781 237.0625 257.898438 C 237.855469 257.367188 239.089844 257.015625 240.058594 257.191406 C 241.027344 257.28125 242.171875 257.898438 242.878906 258.601562 C 243.496094 259.308594 243.933594 261.511719 243.933594 261.511719 "/></clipPath><clipPath id="87461d7688"><path d="M 75.550781 255.507812 L 198.703125 255.507812 L 198.703125 265.710938 L 75.550781 265.710938 Z M 75.550781 255.507812 "/></clipPath><clipPath id="39965dce35"><path d="M 79.96875 255.78125 C 139 255.519531 154.683594 256.574219 167.28125 256.664062 C 177.328125 256.664062 189.484375 254.8125 194.242188 255.871094 C 196.09375 256.3125 197.148438 256.929688 197.941406 257.808594 C 198.472656 258.601562 198.734375 259.660156 198.648438 260.539062 C 198.648438 261.421875 198.207031 262.480469 197.589844 263.183594 C 197.0625 263.890625 196.09375 264.417969 195.210938 264.59375 C 194.332031 264.769531 193.273438 264.769531 192.394531 264.328125 C 191.421875 263.710938 190.191406 262.125 189.925781 261.070312 C 189.660156 260.101562 189.925781 259.042969 190.367188 258.25 C 190.808594 257.457031 191.511719 256.664062 192.394531 256.3125 C 193.449219 255.960938 195.476562 256.046875 196.535156 256.574219 C 197.414062 256.929688 198.03125 257.898438 198.382812 258.691406 C 198.648438 259.484375 198.824219 260.628906 198.472656 261.511719 C 198.121094 262.566406 197.328125 263.710938 195.652344 264.503906 C 191.601562 266.355469 180.058594 265.386719 170.628906 265.476562 C 158.382812 265.476562 143.050781 264.328125 128.515625 264.152344 C 112.917969 263.976562 86.3125 265.738281 79.96875 264.59375 C 78.382812 264.328125 77.765625 264.152344 77.058594 263.535156 C 76.355469 262.832031 75.738281 261.6875 75.652344 260.71875 C 75.472656 259.746094 75.738281 258.515625 76.355469 257.722656 C 77.058594 256.839844 79.96875 255.78125 79.96875 255.78125 "/></clipPath><clipPath id="d66e7f7758"><path d="M 127.476562 257.796875 L 138.417969 257.796875 L 138.417969 312.359375 L 127.476562 312.359375 Z M 127.476562 257.796875 "/></clipPath><clipPath id="129835fa11"><path d="M 137.0625 262.214844 C 137.765625 310.496094 137.238281 311.027344 136.445312 311.554688 C 135.652344 312.082031 134.417969 312.4375 133.449219 312.261719 C 132.480469 312.171875 131.335938 311.554688 130.628906 310.851562 C 130.011719 310.144531 129.484375 308.910156 129.570312 307.941406 C 129.660156 306.710938 130.804688 304.769531 131.773438 304.066406 C 132.480469 303.539062 133.625 303.449219 134.507812 303.539062 C 135.386719 303.625 136.445312 304.066406 137.0625 304.769531 C 137.765625 305.652344 138.382812 307.589844 138.292969 308.734375 C 138.207031 309.617188 137.589844 310.585938 136.886719 311.203125 C 136.269531 311.730469 135.210938 312.261719 134.328125 312.347656 C 133.449219 312.347656 132.390625 312.082031 131.597656 311.644531 C 130.894531 311.203125 130.101562 310.410156 129.835938 309.441406 C 129.484375 308.382812 129.75 306.355469 130.363281 305.386719 C 130.804688 304.59375 131.773438 303.976562 132.65625 303.714844 C 133.449219 303.449219 134.59375 303.449219 135.476562 303.800781 C 136.269531 304.066406 137.148438 304.769531 137.679688 305.476562 C 138.117188 306.179688 138.382812 307.0625 138.382812 307.941406 C 138.292969 308.824219 137.855469 310.144531 137.238281 310.851562 C 136.621094 311.554688 135.476562 312.171875 134.507812 312.261719 C 133.535156 312.4375 132.214844 312.082031 131.421875 311.554688 C 130.628906 311.027344 130.1875 310.496094 129.660156 309 C 127.722656 303.097656 126.753906 269 128.25 262.214844 C 128.777344 260.277344 129.308594 259.308594 130.1875 258.601562 C 130.980469 257.984375 132.214844 257.722656 133.183594 257.898438 C 134.152344 257.984375 135.300781 258.601562 136.003906 259.308594 C 136.621094 260.101562 137.0625 262.214844 137.0625 262.214844 "/></clipPath><clipPath id="3653505dd3"><path d="M 129.082031 302.78125 L 255.335938 302.78125 L 255.335938 313.695312 L 129.082031 313.695312 Z M 129.082031 302.78125 "/></clipPath><clipPath id="51ad373475"><path d="M 133.535156 303.449219 C 213.007812 302.65625 243.320312 302.304688 250.894531 304.417969 C 253.011719 304.945312 253.890625 305.300781 254.597656 306.355469 C 255.214844 307.324219 255.476562 309.351562 254.949219 310.410156 C 254.507812 311.554688 253.011719 312.875 251.863281 313.054688 C 250.632812 313.316406 248.691406 312.789062 247.898438 311.996094 C 247.019531 311.113281 246.402344 309.265625 246.578125 308.03125 C 246.753906 306.886719 247.988281 305.300781 249.046875 304.769531 C 250.191406 304.242188 252.128906 304.417969 253.1875 305.035156 C 254.242188 305.652344 255.125 307.414062 255.300781 308.558594 C 255.390625 309.527344 255.125 310.585938 254.507812 311.289062 C 253.804688 312.171875 252.921875 312.699219 250.894531 313.230469 C 243.230469 314.902344 212.921875 311.46875 193.625 311.289062 C 173.890625 311.113281 140.761719 313.492188 133.535156 312.261719 C 131.863281 311.996094 131.335938 311.820312 130.628906 311.203125 C 129.925781 310.496094 129.308594 309.351562 129.132812 308.382812 C 129.042969 307.414062 129.308594 306.179688 129.925781 305.386719 C 130.628906 304.417969 133.535156 303.449219 133.535156 303.449219 "/></clipPath><clipPath id="71637635e7"><path d="M 42.289062 255.109375 L 88.628906 255.109375 L 88.628906 264.898438 L 42.289062 264.898438 Z M 42.289062 255.109375 "/></clipPath><clipPath id="0f9b2a41c3"><path d="M 46.664062 255.167969 C 86.929688 255.78125 87.367188 256.3125 87.808594 257.105469 C 88.339844 257.808594 88.691406 258.867188 88.601562 259.746094 C 88.425781 260.894531 87.367188 262.65625 86.488281 263.273438 C 85.695312 263.890625 84.636719 263.976562 83.757812 263.890625 C 82.875 263.800781 81.816406 263.359375 81.203125 262.742188 C 80.496094 262.125 79.96875 261.15625 79.878906 260.277344 C 79.792969 259.132812 80.320312 257.191406 81.203125 256.3125 C 82.082031 255.519531 84.019531 255.078125 85.167969 255.253906 C 86.046875 255.34375 87.015625 256.046875 87.546875 256.664062 C 88.160156 257.367188 88.515625 258.425781 88.601562 259.308594 C 88.691406 260.1875 88.425781 261.246094 87.808594 262.039062 C 87.105469 262.917969 86.136719 263.449219 84.195312 263.976562 C 78.382812 265.386719 52.125 264.945312 46.664062 263.976562 C 45.164062 263.625 44.546875 263.449219 43.753906 262.832031 C 43.050781 262.214844 42.433594 261.070312 42.347656 260.101562 C 42.167969 259.132812 42.433594 257.808594 43.050781 257.015625 C 43.753906 256.136719 46.664062 255.167969 46.664062 255.167969 "/></clipPath><clipPath id="8230000ead"><path d="M 40.566406 255.496094 L 52.605469 255.496094 L 52.605469 314.523438 L 40.566406 314.523438 Z M 40.566406 255.496094 "/></clipPath><clipPath id="1542afd09e"><path d="M 50.011719 260.011719 C 50.363281 302.039062 52.832031 308.382812 52.476562 310.9375 C 52.390625 311.90625 52.125 312.347656 51.597656 312.875 C 50.980469 313.492188 49.835938 314.285156 48.867188 314.460938 C 47.898438 314.550781 46.664062 314.285156 45.78125 313.757812 C 44.988281 313.316406 44.195312 312.261719 43.933594 311.289062 C 43.667969 310.320312 43.753906 308.824219 44.371094 307.855469 C 44.988281 306.886719 46.664062 305.738281 47.898438 305.652344 C 49.128906 305.5625 50.890625 306.53125 51.683594 307.324219 C 52.300781 308.03125 52.566406 309.089844 52.566406 309.96875 C 52.566406 310.9375 52.390625 311.996094 51.773438 312.699219 C 50.980469 313.582031 49.128906 314.460938 47.984375 314.460938 C 47.105469 314.550781 46.046875 314.023438 45.429688 313.492188 C 44.726562 312.964844 44.019531 311.996094 43.933594 311.113281 C 43.753906 309.96875 44.195312 308.03125 44.902344 307.148438 C 45.519531 306.355469 46.488281 305.917969 47.367188 305.738281 C 48.25 305.5625 49.394531 305.652344 50.1875 306.179688 C 51.15625 306.796875 52.390625 308.296875 52.566406 309.527344 C 52.65625 310.761719 51.597656 312.789062 50.804688 313.582031 C 50.277344 314.199219 49.570312 314.375 48.867188 314.460938 C 47.984375 314.550781 46.664062 314.285156 45.78125 313.757812 C 44.988281 313.316406 44.546875 312.4375 43.933594 311.289062 C 43.140625 309.617188 42.347656 306.796875 41.90625 304.242188 C 41.289062 301.335938 41.199219 298.867188 41.023438 294.726562 C 40.761719 286.707031 40.144531 264.945312 41.199219 259.835938 C 41.464844 258.25 41.640625 257.632812 42.347656 256.929688 C 43.140625 256.136719 45.078125 255.429688 46.222656 255.519531 C 47.191406 255.605469 48.335938 256.3125 48.953125 257.015625 C 49.570312 257.808594 50.011719 260.011719 50.011719 260.011719 "/></clipPath><clipPath id="f0381be589"><path d="M 43.390625 303.839844 L 147.289062 303.839844 L 147.289062 315.140625 L 43.390625 315.140625 Z M 43.390625 303.839844 "/></clipPath><clipPath id="22b322173a"><path d="M 47.808594 305.386719 C 144.992188 304.332031 145.785156 304.859375 146.488281 305.738281 C 147.105469 306.445312 147.371094 307.503906 147.195312 308.382812 C 147.105469 309.527344 146.046875 311.289062 145.078125 311.996094 C 144.375 312.523438 143.230469 312.613281 142.347656 312.523438 C 141.464844 312.4375 140.410156 311.996094 139.792969 311.378906 C 139.175781 310.761719 138.558594 309.792969 138.472656 308.910156 C 138.382812 307.765625 138.910156 305.828125 139.792969 304.945312 C 140.671875 304.152344 142.613281 303.714844 143.757812 303.890625 C 144.726562 303.976562 145.609375 304.683594 146.222656 305.300781 C 146.753906 306.003906 147.195312 307.0625 147.195312 307.941406 C 147.28125 308.824219 147.105469 309.882812 146.488281 310.675781 C 145.785156 311.554688 144.992188 311.996094 142.789062 312.613281 C 132.566406 315.253906 57.234375 315.785156 47.808594 314.199219 C 46.132812 313.847656 45.605469 313.667969 44.902344 313.054688 C 44.195312 312.4375 43.578125 311.289062 43.492188 310.320312 C 43.316406 309.351562 43.578125 308.03125 44.195312 307.238281 C 44.902344 306.355469 47.808594 305.386719 47.808594 305.386719 "/></clipPath></defs><g id="67f736412a"><g clip-rule="nonzero" clip-path="url(#c6a1a90837)"><g clip-rule="nonzero" clip-path="url(#b6d3e8bda3)"><path style=" stroke:none;fill-rule:nonzero;fill:currentColor;fill-opacity:1;" d="M 124.460938 58.246094 L 153.976562 58.246094 L 153.976562 116.703125 L 124.460938 116.703125 Z M 124.460938 58.246094 "/></g></g><g clip-rule="nonzero" clip-path="url(#56ebab2895)"><g clip-rule="nonzero" clip-path="url(#3140398e7f)"><path style=" stroke:none;fill-rule:nonzero;fill:currentColor;fill-opacity:1;" d="M 135.386719 56.925781 L 248.960938 56.925781 L 248.960938 116.75 L 135.386719 116.75 Z M 135.386719 56.925781 "/></g></g><g clip-rule="nonzero" clip-path="url(#8457d1ce85)"><g clip-rule="nonzero" clip-path="url(#291fc6dcf5)"><path style=" stroke:none;fill-rule:nonzero;fill:currentColor;fill-opacity:1;" d="M 75.472656 106.175781 L 193.730469 106.175781 L 193.730469 123.796875 L 75.472656 123.796875 Z M 75.472656 106.175781 "/></g></g><g clip-rule="nonzero" clip-path="url(#87f73ef5bf)"><g clip-rule="nonzero" clip-path="url(#0fdea28c1d)"><path style=" stroke:none;fill-rule:nonzero;fill:currentColor;fill-opacity:1;" d="M 178.03125 107.851562 L 195.476562 107.851562 L 195.476562 169.316406 L 178.03125 169.316406 Z M 178.03125 107.851562 "/></g></g><g clip-rule="nonzero" clip-path="url(#8a512fc92e)"><g clip-rule="nonzero" clip-path="url(#01257b0001)"><path style=" stroke:none;fill-rule:nonzero;fill:currentColor;fill-opacity:1;" d="M 72.390625 106.792969 L 88.25 106.792969 L 88.25 169.796875 L 72.390625 169.796875 Z M 72.390625 106.792969 "/></g></g><g clip-rule="nonzero" clip-path="url(#ed34773788)"><g clip-rule="nonzero" clip-path="url(#f3565361dc)"><path style=" stroke:none;fill-rule:nonzero;fill:currentColor;fill-opacity:1;" d="M 72.65625 153.492188 L 196.269531 153.492188 L 196.269531 170.9375 L 72.65625 170.9375 Z M 72.65625 153.492188 "/></g></g><g clip-rule="nonzero" clip-path="url(#a968f0e85a)"><g clip-rule="nonzero" clip-path="url(#3469a30f05)"><path style=" stroke:none;fill-rule:nonzero;fill:currentColor;fill-opacity:1;" d="M 180.410156 154.460938 L 301.660156 154.460938 L 301.660156 171.113281 L 180.410156 171.113281 Z M 180.410156 154.460938 "/></g></g><g clip-rule="nonzero" clip-path="url(#2aad3ebb67)"><g clip-rule="nonzero" clip-path="url(#faa9a77283)"><path style=" stroke:none;fill-rule:nonzero;fill:currentColor;fill-opacity:1;" d="M 284.640625 107.144531 L 301.558594 107.144531 L 301.558594 170.320312 L 284.640625 170.320312 Z M 284.640625 107.144531 "/></g></g><g clip-rule="nonzero" clip-path="url(#13f8c79055)"><g clip-rule="nonzero" clip-path="url(#8923f940b0)"><path style=" stroke:none;fill-rule:nonzero;fill:currentColor;fill-opacity:1;" d="M 177.765625 104.0625 L 300.214844 104.0625 L 300.214844 123.269531 L 177.765625 123.269531 Z M 177.765625 104.0625 "/></g></g><g clip-rule="nonzero" clip-path="url(#7e522f49cb)"><g clip-rule="nonzero" clip-path="url(#bef25622f0)"><path style=" stroke:none;fill-rule:nonzero;fill:currentColor;fill-opacity:1;" d="M 231.160156 157.277344 L 248.164062 157.277344 L 248.164062 216.996094 L 231.160156 216.996094 Z M 231.160156 157.277344 "/></g></g><g clip-rule="nonzero" clip-path="url(#16de718df2)"><g clip-rule="nonzero" clip-path="url(#a16ee9718c)"><path style=" stroke:none;fill-rule:nonzero;fill:currentColor;fill-opacity:1;" d="M 232.21875 201.070312 L 333.859375 201.070312 L 333.859375 218.867188 L 232.21875 218.867188 Z M 232.21875 201.070312 "/></g></g><g clip-rule="nonzero" clip-path="url(#079a3fc652)"><g clip-rule="nonzero" clip-path="url(#9ec012dcde)"><path style=" stroke:none;fill-rule:nonzero;fill:currentColor;fill-opacity:1;" d="M 317.242188 155.078125 L 334.246094 155.078125 L 334.246094 217.515625 L 317.242188 217.515625 Z M 317.242188 155.078125 "/></g></g><g clip-rule="nonzero" clip-path="url(#6535327089)"><g clip-rule="nonzero" clip-path="url(#4dbb324f31)"><path style=" stroke:none;fill-rule:nonzero;fill:currentColor;fill-opacity:1;" d="M 285.347656 154.285156 L 333.304688 154.285156 L 333.304688 171.289062 L 285.347656 171.289062 Z M 285.347656 154.285156 "/></g></g><g clip-rule="nonzero" clip-path="url(#bece6e201c)"><g clip-rule="nonzero" clip-path="url(#5480cd34f4)"><path style=" stroke:none;fill-rule:nonzero;fill:currentColor;fill-opacity:1;" d="M 124.8125 157.542969 L 140.851562 157.542969 L 140.851562 218.929688 L 124.8125 218.929688 Z M 124.8125 157.542969 "/></g></g><g clip-rule="nonzero" clip-path="url(#251693154d)"><g clip-rule="nonzero" clip-path="url(#75f01d5261)"><path style=" stroke:none;fill-rule:nonzero;fill:currentColor;fill-opacity:1;" d="M 124.992188 202.65625 L 260.558594 202.65625 L 260.558594 219.835938 L 124.992188 219.835938 Z M 124.992188 202.65625 "/></g></g><g clip-rule="nonzero" clip-path="url(#cd2fd82339)"><g clip-rule="nonzero" clip-path="url(#07276130f9)"><path style=" stroke:none;fill-rule:nonzero;fill:currentColor;fill-opacity:1;" d="M 39.527344 154.546875 L 88.613281 154.546875 L 88.613281 171.550781 L 39.527344 171.550781 Z M 39.527344 154.546875 "/></g></g><g clip-rule="nonzero" clip-path="url(#c57f4ffc82)"><g clip-rule="nonzero" clip-path="url(#65e4eeeec7)"><path style=" stroke:none;fill-rule:nonzero;fill:currentColor;fill-opacity:1;" d="M 37.941406 155.515625 L 56.355469 155.515625 L 56.355469 219.824219 L 37.941406 219.824219 Z M 37.941406 155.515625 "/></g></g><g clip-rule="nonzero" clip-path="url(#0be812b222)"><g clip-rule="nonzero" clip-path="url(#484e40b195)"><path style=" stroke:none;fill-rule:nonzero;fill:currentColor;fill-opacity:1;" d="M 40.761719 203.886719 L 145.414062 203.886719 L 145.414062 220.714844 L 40.761719 220.714844 Z M 40.761719 203.886719 "/></g></g><g clip-rule="nonzero" clip-path="url(#e40b2134df)"><g clip-rule="nonzero" clip-path="url(#9a2e66058d)"><path style=" stroke:none;fill-rule:nonzero;fill:currentColor;fill-opacity:1;" d="M 71.949219 206.882812 L 87.898438 206.882812 L 87.898438 265.191406 L 71.949219 265.191406 Z M 71.949219 206.882812 "/></g></g><g clip-rule="nonzero" clip-path="url(#9bafcf5906)"><g clip-rule="nonzero" clip-path="url(#02e5eb9087)"><path style=" stroke:none;fill-rule:nonzero;fill:currentColor;fill-opacity:1;" d="M 177.503906 206.265625 L 193.980469 206.265625 L 193.980469 264.769531 L 177.503906 264.769531 Z M 177.503906 206.265625 "/></g></g><g clip-rule="nonzero" clip-path="url(#6086dc9940)"><g clip-rule="nonzero" clip-path="url(#0ff4f1bad4)"><path style=" stroke:none;fill-rule:nonzero;fill:currentColor;fill-opacity:1;" d="M 228.867188 203.449219 L 304 203.449219 L 304 220.101562 L 228.867188 220.101562 Z M 228.867188 203.449219 "/></g></g><g clip-rule="nonzero" clip-path="url(#40c348e84a)"><g clip-rule="nonzero" clip-path="url(#34dcac055b)"><path style=" stroke:none;fill-rule:nonzero;fill:currentColor;fill-opacity:1;" d="M 285.699219 203.449219 L 301.734375 203.449219 L 301.734375 265.710938 L 285.699219 265.710938 Z M 285.699219 203.449219 "/></g></g><g clip-rule="nonzero" clip-path="url(#42e42db3d2)"><g clip-rule="nonzero" clip-path="url(#02ebd315a1)"><path style=" stroke:none;fill-rule:nonzero;fill:currentColor;fill-opacity:1;" d="M 179.617188 251.640625 L 301.9375 251.640625 L 301.9375 269.085938 L 179.617188 269.085938 Z M 179.617188 251.640625 "/></g></g><g clip-rule="nonzero" clip-path="url(#1bce1ca653)"><g clip-rule="nonzero" clip-path="url(#c9674486a3)"><path style=" stroke:none;fill-rule:nonzero;fill:currentColor;fill-opacity:1;" d="M 283.671875 251.730469 L 336.613281 251.730469 L 336.613281 268.734375 L 283.671875 268.734375 Z M 283.671875 251.730469 "/></g></g><g clip-rule="nonzero" clip-path="url(#8a20ac0a1c)"><g clip-rule="nonzero" clip-path="url(#1f78ef4614)"><path style=" stroke:none;fill-rule:nonzero;fill:currentColor;fill-opacity:1;" d="M 317.59375 252.171875 L 336.710938 252.171875 L 336.710938 315.953125 L 317.59375 315.953125 Z M 317.59375 252.171875 "/></g></g><g clip-rule="nonzero" clip-path="url(#de045a119a)"><g clip-rule="nonzero" clip-path="url(#4886f7ae84)"><path style=" stroke:none;fill-rule:nonzero;fill:currentColor;fill-opacity:1;" d="M 230.632812 300.1875 L 334.351562 300.1875 L 334.351562 316.488281 L 230.632812 316.488281 Z M 230.632812 300.1875 "/></g></g><g clip-rule="nonzero" clip-path="url(#39e644146b)"><g clip-rule="nonzero" clip-path="url(#f217f3c01a)"><path style=" stroke:none;fill-rule:nonzero;fill:currentColor;fill-opacity:1;" d="M 230.453125 253.667969 L 247.546875 253.667969 L 247.546875 316.765625 L 230.453125 316.765625 Z M 230.453125 253.667969 "/></g></g><g clip-rule="nonzero" clip-path="url(#87461d7688)"><g clip-rule="nonzero" clip-path="url(#39965dce35)"><path style=" stroke:none;fill-rule:nonzero;fill:currentColor;fill-opacity:1;" d="M 72.125 251.816406 L 202.257812 251.816406 L 202.257812 269 L 72.125 269 Z M 72.125 251.816406 "/></g></g><g clip-rule="nonzero" clip-path="url(#d66e7f7758)"><g clip-rule="nonzero" clip-path="url(#129835fa11)"><path style=" stroke:none;fill-rule:nonzero;fill:currentColor;fill-opacity:1;" d="M 124.726562 254.375 L 141.90625 254.375 L 141.90625 315.847656 L 124.726562 315.847656 Z M 124.726562 254.375 "/></g></g><g clip-rule="nonzero" clip-path="url(#3653505dd3)"><g clip-rule="nonzero" clip-path="url(#51ad373475)"><path style=" stroke:none;fill-rule:nonzero;fill:currentColor;fill-opacity:1;" d="M 125.605469 298.957031 L 258.8125 298.957031 L 258.8125 316.753906 L 125.605469 316.753906 Z M 125.605469 298.957031 "/></g></g><g clip-rule="nonzero" clip-path="url(#71637635e7)"><g clip-rule="nonzero" clip-path="url(#0f9b2a41c3)"><path style=" stroke:none;fill-rule:nonzero;fill:currentColor;fill-opacity:1;" d="M 38.820312 251.640625 L 92.222656 251.640625 L 92.222656 267.5 L 38.820312 267.5 Z M 38.820312 251.640625 "/></g></g><g clip-rule="nonzero" clip-path="url(#8230000ead)"><g clip-rule="nonzero" clip-path="url(#1542afd09e)"><path style=" stroke:none;fill-rule:nonzero;fill:currentColor;fill-opacity:1;" d="M 37.5 251.996094 L 56.179688 251.996094 L 56.179688 318.101562 L 37.5 318.101562 Z M 37.5 251.996094 "/></g></g><g clip-rule="nonzero" clip-path="url(#f0381be589)"><g clip-rule="nonzero" clip-path="url(#22b322173a)"><path style=" stroke:none;fill-rule:nonzero;fill:currentColor;fill-opacity:1;" d="M 39.96875 300.277344 L 150.785156 300.277344 L 150.785156 317.8125 L 39.96875 317.8125 Z M 39.96875 300.277344 "/></g></g></g></svg>