<svg xmlns="http://www.w3.org/2000/svg" xmlns:xlink="http://www.w3.org/1999/xlink" width="500" zoomAndPan="magnify" viewBox="0 0 375 374.999991" height="500" preserveAspectRatio="xMidYMid meet" version="1.2"><defs><clipPath id="fcf2233d69"><path d="M 93.546875 311 L 114.875 311 L 114.875 334.515625 L 93.546875 334.515625 Z M 93.546875 311 "/></clipPath><clipPath id="48f109dfce"><path d="M 93.5625 323.023438 C 94.761719 317.625 95.738281 316.648438 96.5625 315.601562 C 97.386719 314.550781 98.0625 313.351562 99.039062 312.675781 C 100.085938 311.925781 101.363281 311.550781 102.5625 311.324219 C 103.835938 311.023438 105.113281 310.949219 106.386719 311.175781 C 107.738281 311.324219 109.3125 311.851562 110.363281 312.675781 C 111.414062 313.5 112.164062 314.773438 112.761719 315.976562 C 113.363281 317.175781 113.886719 318.449219 114.1875 319.648438 C 114.488281 320.699219 114.636719 322.199219 114.710938 322.800781 C 114.789062 323.023438 114.863281 323.175781 114.863281 323.25 C 114.863281 323.324219 114.863281 323.398438 114.863281 323.476562 C 114.863281 323.550781 114.863281 323.625 114.863281 323.699219 C 114.863281 323.773438 114.863281 323.925781 114.789062 324.074219 C 114.789062 324.226562 114.863281 324.375 114.789062 324.449219 C 114.789062 324.523438 114.710938 324.601562 114.710938 324.675781 C 114.710938 324.75 114.710938 324.824219 114.710938 324.898438 C 114.636719 325.050781 114.863281 326.699219 114.710938 327.675781 C 114.488281 328.949219 114.039062 330.675781 113.210938 331.648438 C 112.386719 332.625 111.039062 333.148438 109.835938 333.601562 C 108.636719 333.976562 107.289062 334.125 105.9375 334.273438 C 104.664062 334.425781 103.238281 334.574219 101.960938 334.425781 C 100.761719 334.273438 99.414062 334.125 98.363281 333.449219 C 97.3125 332.851562 96.414062 331.648438 95.738281 330.601562 C 94.988281 329.476562 94.386719 328.199219 94.085938 326.925781 C 93.710938 325.648438 93.5625 323.023438 93.5625 323.023438 M 101.0625 324.074219 C 104.511719 327.523438 106.539062 328.199219 107.210938 327.675781 C 107.960938 327.074219 107.136719 323.476562 107.210938 322.800781 C 107.210938 322.648438 107.210938 322.648438 107.210938 322.5 C 107.136719 321.898438 106.539062 318.976562 105.710938 318.675781 C 104.886719 318.375 103.164062 319.574219 102.335938 320.476562 C 101.585938 321.375 101.0625 324.074219 101.0625 324.074219 "/></clipPath><clipPath id="a0700360a7"><path d="M 100.707031 258.453125 L 136.832031 258.453125 L 136.832031 315.34375 L 100.707031 315.34375 Z M 100.707031 258.453125 "/></clipPath><clipPath id="a0f2a8401f"><path d="M 100.761719 310.574219 C 108.9375 294.074219 111.789062 292.351562 114.636719 288.148438 C 119.136719 281.476562 126.863281 263.851562 129.710938 260.398438 C 130.460938 259.425781 130.835938 259.125 131.511719 258.824219 C 132.261719 258.601562 133.164062 258.449219 133.914062 258.75 C 134.8125 259.050781 136.085938 260.25 136.460938 261.148438 C 136.761719 261.898438 136.761719 262.800781 136.460938 263.550781 C 136.085938 264.449219 134.8125 265.648438 133.914062 265.949219 C 133.164062 266.25 132.261719 266.175781 131.511719 265.800781 C 130.6875 265.425781 129.488281 264.148438 129.261719 263.175781 C 129.039062 262.125 129.5625 260.550781 130.238281 259.726562 C 130.6875 259.125 131.585938 258.75 132.335938 258.675781 C 133.085938 258.523438 133.988281 258.675781 134.664062 259.050781 C 135.335938 259.351562 136.011719 260.101562 136.3125 260.773438 C 136.613281 261.449219 136.835938 261.976562 136.613281 263.175781 C 135.789062 267.148438 127.761719 281.398438 123.414062 288.226562 C 120.113281 293.324219 116.363281 296.398438 113.585938 300.824219 C 110.960938 305.101562 109.011719 312.226562 107.0625 314.175781 C 106.238281 315 105.488281 315.226562 104.664062 315.300781 C 103.835938 315.375 102.789062 315 102.113281 314.625 C 101.585938 314.25 101.210938 313.800781 100.988281 313.199219 C 100.6875 312.523438 100.761719 310.574219 100.761719 310.574219 "/></clipPath><clipPath id="644df7bd25"><path d="M 108.265625 266.402344 L 145.367188 266.402344 L 145.367188 323.648438 L 108.265625 323.648438 Z M 108.265625 266.402344 "/></clipPath><clipPath id="7aeb935b11"><path d="M 108.9375 317.699219 C 129.039062 287.925781 135.414062 270 139.460938 267.226562 C 140.738281 266.324219 142.011719 266.550781 142.914062 266.773438 C 143.738281 267 144.414062 267.675781 144.789062 268.351562 C 145.164062 268.949219 145.460938 269.851562 145.3125 270.675781 C 145.164062 271.574219 144.1875 273.074219 143.4375 273.601562 C 142.761719 274.050781 141.789062 274.125 141.039062 273.976562 C 140.289062 273.898438 139.460938 273.523438 138.9375 272.925781 C 138.261719 272.175781 137.8125 270.523438 137.960938 269.550781 C 138.039062 268.726562 138.5625 267.976562 139.164062 267.449219 C 139.6875 267 140.511719 266.550781 141.335938 266.550781 C 142.3125 266.550781 143.886719 267.148438 144.5625 267.976562 C 145.164062 268.800781 145.3125 270.074219 145.164062 271.425781 C 144.9375 273.523438 143.664062 275.925781 142.085938 279.148438 C 139.164062 285.148438 132.789062 296.324219 127.914062 303.824219 C 123.636719 310.648438 117.5625 320.175781 114.636719 322.5 C 113.664062 323.324219 112.988281 323.476562 112.164062 323.476562 C 111.335938 323.550781 110.289062 323.175781 109.6875 322.648438 C 109.011719 322.050781 108.488281 321.074219 108.414062 320.324219 C 108.261719 319.5 108.9375 317.699219 108.9375 317.699219 "/></clipPath><clipPath id="10a2b5b1f7"><path d="M 139.175781 173.1875 L 184.597656 173.1875 L 184.597656 250.285156 L 139.175781 250.285156 Z M 139.175781 173.1875 "/></clipPath><clipPath id="75da933b46"><path d="M 139.386719 245.324219 C 165.335938 194.398438 173.136719 181.574219 176.363281 177.074219 C 177.488281 175.425781 177.9375 174.523438 178.914062 173.925781 C 179.664062 173.476562 180.488281 173.25 181.238281 173.398438 C 182.210938 173.625 183.636719 174.449219 184.164062 175.351562 C 184.613281 176.324219 184.6875 177.976562 184.164062 178.875 C 183.710938 179.773438 182.289062 180.75 181.3125 180.898438 C 180.261719 180.976562 178.6875 180.300781 178.011719 179.625 C 177.414062 179.023438 177.1875 178.125 177.113281 177.375 C 177.039062 176.625 177.261719 175.648438 177.710938 175.050781 C 178.3125 174.300781 179.8125 173.398438 180.863281 173.398438 C 181.835938 173.398438 183.335938 174.148438 183.9375 175.050781 C 184.539062 175.875 184.6875 176.851562 184.3125 178.5 C 183.1875 183.75 172.011719 197.925781 165.9375 208.875 C 159.1875 221.101562 149.738281 244.199219 146.0625 248.550781 C 145.164062 249.601562 144.710938 249.898438 143.960938 250.125 C 143.136719 250.351562 142.011719 250.273438 141.261719 249.898438 C 140.511719 249.523438 139.761719 248.699219 139.460938 247.949219 C 139.164062 247.199219 139.386719 245.324219 139.386719 245.324219 "/></clipPath><clipPath id="001671139c"><path d="M 149.46875 180.257812 L 194.226562 180.257812 L 194.226562 258.335938 L 149.46875 258.335938 Z M 149.46875 180.257812 "/></clipPath><clipPath id="6df67d2f08"><path d="M 149.511719 253.949219 C 153.335938 243.148438 157.238281 236.175781 160.761719 229.574219 C 165.261719 221.324219 172.164062 210.449219 176.511719 202.199219 C 179.960938 195.675781 183.039062 187.726562 185.210938 184.273438 C 186.1875 182.773438 186.710938 181.875 187.6875 181.273438 C 188.664062 180.601562 190.085938 180.148438 191.136719 180.375 C 192.113281 180.601562 193.3125 181.800781 193.761719 182.625 C 194.136719 183.375 194.0625 184.351562 193.835938 185.023438 C 193.6875 185.773438 193.164062 186.601562 192.488281 186.976562 C 191.664062 187.5 190.011719 187.875 189.039062 187.574219 C 188.0625 187.199219 186.9375 186 186.636719 184.949219 C 186.335938 183.976562 186.789062 182.324219 187.460938 181.574219 C 188.136719 180.75 189.710938 180.148438 190.6875 180.300781 C 191.738281 180.375 193.085938 181.425781 193.613281 182.25 C 193.988281 183 194.136719 183.449219 193.988281 184.648438 C 193.085938 189.675781 179.886719 212.398438 174.636719 221.550781 C 171.414062 227.25 169.164062 230.175781 166.386719 235.050781 C 163.3125 240.523438 158.738281 249.300781 157.3125 253.125 C 156.636719 254.773438 156.863281 255.976562 156.1875 256.800781 C 155.664062 257.550781 154.761719 258.074219 153.9375 258.226562 C 153.113281 258.375 152.0625 258.226562 151.3125 257.773438 C 150.636719 257.324219 149.960938 256.425781 149.664062 255.675781 C 149.4375 255.148438 149.511719 253.949219 149.511719 253.949219 "/></clipPath><clipPath id="3035c87103"><path d="M 174.050781 159.941406 L 205.644531 159.941406 L 205.644531 185.414062 L 174.050781 185.414062 Z M 174.050781 159.941406 "/></clipPath><clipPath id="7f3ad3e849"><path d="M 200.136719 185.398438 C 188.363281 183.75 185.511719 182.101562 183.488281 181.050781 C 182.136719 180.300781 181.238281 180 180.113281 179.023438 C 178.386719 177.675781 175.835938 174.898438 174.9375 172.949219 C 174.261719 171.601562 174.1875 170.398438 174.113281 169.050781 C 174.113281 167.773438 174.1875 166.125 174.863281 165 C 175.460938 163.949219 176.4375 163.273438 177.710938 162.523438 C 179.585938 161.476562 183.1875 160.425781 185.289062 160.125 C 186.789062 159.898438 187.6875 159.898438 189.113281 160.273438 C 191.210938 160.800781 193.914062 162.226562 196.238281 163.949219 C 198.9375 165.976562 202.613281 169.648438 204.039062 172.050781 C 204.9375 173.476562 205.164062 174.523438 205.386719 176.023438 C 205.6875 177.824219 205.613281 180.824219 205.085938 182.324219 C 204.789062 183.300781 204.261719 184.050781 203.585938 184.5 C 202.914062 184.949219 201.863281 185.324219 201.039062 185.175781 C 200.0625 184.949219 198.636719 184.050781 198.1875 183.148438 C 197.664062 182.324219 197.585938 180.824219 198.039062 179.925781 C 198.488281 179.023438 199.761719 177.898438 200.738281 177.75 C 201.789062 177.523438 203.363281 178.050781 204.113281 178.800781 C 204.863281 179.476562 205.238281 181.125 205.164062 182.101562 C 205.085938 182.925781 204.5625 183.675781 203.960938 184.199219 C 203.4375 184.726562 202.613281 185.175781 201.789062 185.175781 C 200.8125 185.175781 199.238281 184.574219 198.5625 183.75 C 197.886719 183 197.585938 181.273438 197.886719 180.300781 C 198.1875 179.324219 199.386719 178.125 200.363281 177.824219 C 201.335938 177.523438 202.988281 177.898438 203.8125 178.5 C 204.636719 179.101562 205.164062 180.523438 205.238281 181.425781 C 205.3125 182.023438 205.085938 182.625 204.789062 183.148438 C 204.414062 183.824219 203.585938 184.648438 202.835938 184.949219 C 202.011719 185.25 200.960938 185.25 200.136719 184.949219 C 199.238281 184.5 198.261719 183.449219 197.8125 182.324219 C 197.289062 180.75 198.636719 178.050781 197.886719 176.175781 C 196.988281 174 193.988281 171.601562 192.261719 170.25 C 191.0625 169.351562 190.011719 168.824219 188.8125 168.375 C 187.613281 167.925781 186.335938 167.550781 185.0625 167.699219 C 183.863281 167.773438 181.835938 168.375 181.613281 169.125 C 181.386719 169.949219 182.664062 171.375 183.710938 172.351562 C 185.363281 173.851562 188.960938 175.425781 191.0625 176.398438 C 192.5625 177.074219 193.539062 177.601562 194.960938 177.898438 C 196.761719 178.273438 199.6875 177.675781 200.960938 178.050781 C 201.710938 178.199219 202.164062 178.425781 202.613281 178.875 C 203.136719 179.398438 203.664062 180.449219 203.8125 181.199219 C 203.960938 181.875 203.8125 182.476562 203.585938 183 C 203.4375 183.523438 203.0625 184.125 202.613281 184.5 C 202.011719 184.949219 200.136719 185.398438 200.136719 185.398438 "/></clipPath><clipPath id="fc53603bb4"><path d="M 127.46875 246.078125 L 156.296875 246.078125 L 156.296875 270.101562 L 127.46875 270.101562 Z M 127.46875 246.078125 "/></clipPath><clipPath id="862e09f821"><path d="M 147.5625 270 C 139.914062 269.699219 136.761719 268.648438 134.8125 267.75 C 133.386719 267.074219 132.335938 266.476562 131.363281 265.574219 C 130.460938 264.675781 129.710938 263.773438 129.113281 262.425781 C 128.210938 260.476562 127.460938 257.023438 127.539062 254.851562 C 127.539062 253.351562 127.835938 252 128.511719 250.875 C 129.113281 249.75 129.9375 248.925781 131.210938 248.25 C 132.9375 247.199219 136.386719 246.300781 138.488281 246.148438 C 139.914062 246 140.960938 246.300781 142.238281 246.675781 C 143.4375 247.050781 144.488281 247.574219 145.761719 248.324219 C 147.636719 249.375 150.636719 251.101562 152.136719 252.601562 C 153.261719 253.726562 153.863281 254.851562 154.460938 255.976562 C 155.136719 257.175781 155.585938 258.375 155.886719 259.648438 C 156.113281 261 156.414062 262.648438 155.960938 263.925781 C 155.585938 265.125 154.835938 266.101562 153.636719 266.925781 C 151.914062 268.273438 147.789062 270.148438 145.835938 270.074219 C 144.488281 270 143.289062 269.398438 142.6875 268.5 C 142.085938 267.675781 141.863281 266.023438 142.164062 265.050781 C 142.539062 264.074219 143.886719 263.023438 144.789062 262.726562 C 145.539062 262.425781 146.511719 262.574219 147.1875 262.875 C 147.863281 263.175781 148.613281 263.773438 148.988281 264.523438 C 149.363281 265.351562 149.511719 267.074219 149.0625 267.976562 C 148.613281 268.949219 147.261719 269.925781 146.210938 270.074219 C 145.164062 270.226562 143.585938 269.625 142.914062 268.875 C 142.238281 268.050781 141.9375 266.398438 142.085938 265.425781 C 142.164062 264.601562 142.6875 264.074219 143.363281 263.398438 C 144.414062 262.351562 148.164062 261.449219 148.386719 260.324219 C 148.539062 259.351562 146.738281 258 145.761719 257.101562 C 144.710938 256.199219 143.363281 255.449219 142.164062 254.851562 C 140.960938 254.324219 139.761719 253.574219 138.5625 253.648438 C 137.363281 253.648438 135.5625 254.175781 135.039062 255.074219 C 134.511719 255.898438 134.8125 257.925781 135.414062 258.976562 C 136.011719 259.949219 137.363281 260.550781 138.488281 261.148438 C 139.6875 261.75 140.738281 262.273438 142.164062 262.5 C 143.960938 262.875 146.960938 262.125 148.460938 262.648438 C 149.4375 262.949219 150.1875 263.398438 150.636719 264.148438 C 151.164062 264.976562 151.3125 266.699219 151.085938 267.601562 C 150.9375 268.273438 150.5625 268.726562 150.039062 269.101562 C 149.4375 269.550781 147.5625 270 147.5625 270 "/></clipPath><clipPath id="4cdffefca5"><path d="M 184.625 132.878906 L 208.109375 132.878906 L 208.109375 164.496094 L 184.625 164.496094 Z M 184.625 132.878906 "/></clipPath><clipPath id="62c28dde67"><path d="M 185.210938 158.773438 C 203.4375 132.75 204.636719 132.824219 205.539062 133.050781 C 206.363281 133.273438 207.039062 133.949219 207.488281 134.550781 C 207.863281 135.148438 208.085938 136.125 208.085938 136.875 C 208.011719 137.625 207.710938 138.523438 207.113281 139.050781 C 206.4375 139.726562 204.863281 140.398438 203.886719 140.324219 C 203.0625 140.324219 202.238281 139.875 201.710938 139.273438 C 201.039062 138.601562 200.511719 136.949219 200.664062 135.976562 C 200.738281 135.148438 201.261719 134.398438 201.789062 133.875 C 202.3125 133.351562 203.210938 132.976562 203.960938 132.898438 C 204.710938 132.824219 205.6875 133.050781 206.289062 133.425781 C 206.960938 133.800781 207.636719 134.476562 207.863281 135.300781 C 208.085938 136.199219 208.011719 137.175781 207.414062 138.75 C 205.6875 143.324219 194.4375 160.425781 191.136719 163.273438 C 190.164062 164.101562 189.5625 164.324219 188.738281 164.398438 C 187.914062 164.476562 186.863281 164.175781 186.1875 163.648438 C 185.511719 163.125 184.914062 162.226562 184.761719 161.398438 C 184.613281 160.574219 185.210938 158.773438 185.210938 158.773438 "/></clipPath><clipPath id="08277e3a37"><path d="M 196.207031 138.082031 L 219.328125 138.082031 L 219.328125 172.9375 L 196.207031 172.9375 Z M 196.207031 138.082031 "/></clipPath><clipPath id="f897fa49cb"><path d="M 196.386719 167.851562 C 205.3125 150.449219 210.414062 141.601562 212.738281 139.351562 C 213.5625 138.523438 214.085938 138.300781 214.835938 138.148438 C 215.585938 138 216.488281 138.148438 217.164062 138.449219 C 217.914062 138.824219 218.585938 139.425781 218.886719 140.175781 C 219.261719 141.074219 219.1875 142.800781 218.8125 143.699219 C 218.4375 144.375 217.761719 145.050781 217.011719 145.273438 C 216.113281 145.574219 214.386719 145.425781 213.5625 144.976562 C 212.8125 144.601562 212.210938 143.925781 211.988281 143.175781 C 211.761719 142.199219 211.988281 140.476562 212.511719 139.648438 C 212.886719 138.976562 213.710938 138.449219 214.460938 138.226562 C 215.136719 138 216.113281 138.074219 216.863281 138.300781 C 217.539062 138.601562 218.289062 139.199219 218.664062 139.800781 C 219.113281 140.476562 219.414062 141.074219 219.261719 142.125 C 218.8125 145.199219 212.363281 153.226562 209.511719 158.398438 C 207.039062 162.898438 204.863281 169.199219 203.0625 171.300781 C 202.238281 172.199219 201.636719 172.574219 200.886719 172.800781 C 200.0625 173.023438 198.9375 172.875 198.1875 172.5 C 197.511719 172.125 196.761719 171.300781 196.460938 170.550781 C 196.164062 169.800781 196.386719 167.851562 196.386719 167.851562 "/></clipPath><clipPath id="38258b27dd"><path d="M 191.273438 98.835938 L 250.230469 98.835938 L 250.230469 141.539062 L 191.273438 141.539062 Z M 191.273438 98.835938 "/></clipPath><clipPath id="e2707b44e9"><path d="M 248.136719 134.625 C 235.6875 140.25 228.1875 141.148438 223.761719 141.375 C 220.761719 141.523438 218.886719 141.523438 216.1875 140.851562 C 212.886719 140.175781 208.6875 138.675781 205.539062 136.648438 C 202.3125 134.550781 199.238281 131.25 197.136719 128.476562 C 195.335938 126.226562 194.136719 124.199219 193.164062 121.5 C 192.039062 118.199219 191.585938 113.398438 191.4375 109.726562 C 191.289062 106.5 191.210938 102.300781 192.113281 100.574219 C 192.5625 99.75 193.238281 99.375 193.988281 99.148438 C 194.664062 98.925781 195.636719 98.851562 196.386719 99.074219 C 197.136719 99.375 197.886719 99.898438 198.335938 100.5 C 198.710938 101.175781 199.085938 102 198.9375 102.824219 C 198.863281 103.800781 198.113281 105.300781 197.210938 105.898438 C 196.3125 106.425781 194.664062 106.5 193.6875 106.125 C 192.789062 105.675781 191.8125 104.25 191.511719 103.351562 C 191.363281 102.523438 191.511719 101.625 191.886719 100.949219 C 192.261719 100.273438 192.9375 99.601562 193.613281 99.300781 C 194.289062 99 195.1875 98.773438 196.011719 99 C 196.914062 99.300781 198.261719 100.273438 198.710938 101.25 C 199.085938 102.226562 198.335938 103.199219 198.335938 104.773438 C 198.414062 107.773438 198.863281 114.375 200.0625 117.976562 C 200.960938 120.75 202.3125 122.851562 203.960938 124.875 C 205.460938 126.898438 207.335938 128.851562 209.4375 130.273438 C 211.613281 131.699219 214.238281 132.75 216.789062 133.351562 C 219.335938 133.949219 221.8125 133.949219 224.585938 133.875 C 228.039062 133.726562 232.3125 133.351562 235.914062 132.375 C 239.585938 131.324219 244.386719 127.726562 246.414062 127.574219 C 247.238281 127.5 247.613281 127.648438 248.210938 128.023438 C 248.8125 128.398438 249.636719 129.226562 249.9375 130.050781 C 250.238281 130.800781 250.164062 131.925781 249.863281 132.675781 C 249.5625 133.425781 248.136719 134.625 248.136719 134.625 "/></clipPath><clipPath id="63164290a3"><path d="M 190 94.261719 L 255.203125 94.261719 L 255.203125 132.3125 L 190 132.3125 Z M 190 94.261719 "/></clipPath><clipPath id="0f35f22897"><path d="M 194.960938 94.351562 C 233.289062 113.324219 245.960938 120.824219 250.914062 124.351562 C 252.9375 125.773438 254.511719 126.824219 255.039062 127.726562 C 255.261719 128.175781 255.1875 128.476562 255.113281 128.925781 C 254.886719 129.75 253.988281 131.398438 253.085938 131.851562 C 252.1875 132.375 250.460938 132.300781 249.5625 131.851562 C 248.664062 131.324219 247.835938 129.898438 247.613281 128.925781 C 247.460938 128.175781 247.761719 127.273438 248.136719 126.601562 C 248.511719 125.925781 249.1875 125.25 250.011719 125.023438 C 250.914062 124.800781 252.636719 124.949219 253.460938 125.476562 C 254.136719 125.851562 254.738281 126.601562 254.886719 127.351562 C 255.113281 128.324219 254.886719 129.976562 254.363281 130.800781 C 253.914062 131.476562 253.085938 131.925781 252.335938 132.148438 C 251.585938 132.375 250.6875 132.375 249.9375 132 C 249.113281 131.550781 247.835938 129.226562 247.6875 129.300781 C 247.539062 129.375 248.8125 131.175781 248.511719 131.398438 C 247.386719 132.375 230.8125 120.523438 221.511719 115.5 C 211.914062 110.398438 195.335938 104.023438 191.738281 101.023438 C 190.6875 100.199219 190.386719 99.675781 190.164062 98.925781 C 189.9375 98.101562 190.011719 96.976562 190.386719 96.226562 C 190.761719 95.476562 191.511719 94.726562 192.335938 94.425781 C 193.085938 94.125 194.960938 94.351562 194.960938 94.351562 "/></clipPath><clipPath id="d101781e28"><path d="M 198.664062 80.429688 L 263.488281 80.429688 L 263.488281 119.671875 L 198.664062 119.671875 Z M 198.664062 80.429688 "/></clipPath><clipPath id="a143691d05"><path d="M 203.511719 80.625 C 212.886719 84.976562 219.710938 90.523438 225.039062 93.449219 C 229.914062 96.148438 234.414062 97.425781 239.585938 100.050781 C 245.8125 103.199219 255.863281 108.523438 259.6875 111.226562 C 261.335938 112.425781 262.386719 113.175781 262.914062 114.226562 C 263.289062 114.976562 263.4375 115.875 263.210938 116.625 C 262.914062 117.523438 261.789062 118.875 260.960938 119.324219 C 260.210938 119.699219 259.3125 119.773438 258.5625 119.476562 C 257.664062 119.175781 256.386719 117.976562 256.011719 117.074219 C 255.636719 116.324219 255.710938 115.425781 255.9375 114.675781 C 256.164062 114 256.6875 113.175781 257.363281 112.800781 C 258.1875 112.273438 259.914062 112.050781 260.886719 112.351562 C 261.636719 112.574219 262.3125 113.175781 262.6875 113.851562 C 263.136719 114.75 263.289062 116.476562 262.914062 117.375 C 262.6875 118.125 262.011719 118.800781 261.335938 119.175781 C 260.4375 119.550781 259.386719 119.625 257.8125 119.175781 C 253.238281 117.976562 240.789062 109.050781 233.738281 105.449219 C 228.414062 102.75 223.914062 101.476562 219.335938 98.925781 C 214.761719 96.300781 209.8125 91.949219 206.210938 90 C 203.960938 88.726562 201.710938 88.425781 200.511719 87.449219 C 199.6875 86.773438 199.085938 86.175781 198.863281 85.351562 C 198.5625 84.601562 198.636719 83.476562 199.011719 82.726562 C 199.3125 81.976562 200.136719 81.148438 200.886719 80.851562 C 201.636719 80.476562 203.511719 80.625 203.511719 80.625 "/></clipPath><clipPath id="e8bd380aa2"><path d="M 246.972656 114.019531 L 263.242188 114.019531 L 263.242188 131.683594 L 246.972656 131.683594 Z M 246.972656 114.019531 "/></clipPath><clipPath id="04a19e792d"><path d="M 250.085938 124.199219 C 255.5625 119.773438 255.5625 116.699219 256.539062 115.5 C 257.0625 114.75 257.664062 114.300781 258.488281 114.148438 C 259.460938 114 261.113281 114.226562 261.9375 114.898438 C 262.6875 115.574219 263.363281 117.148438 263.210938 118.199219 C 263.136719 119.175781 262.164062 120.601562 261.261719 121.050781 C 260.363281 121.574219 258.636719 121.574219 257.738281 121.050781 C 256.835938 120.601562 255.863281 119.175781 255.789062 118.199219 C 255.636719 117.148438 256.238281 115.574219 257.0625 114.898438 C 257.8125 114.226562 259.539062 114 260.511719 114.148438 C 261.261719 114.300781 262.011719 114.898438 262.460938 115.5 C 262.914062 116.101562 263.210938 116.773438 263.210938 117.75 C 263.289062 119.398438 262.238281 122.625 261.335938 124.351562 C 260.738281 125.699219 259.914062 126.523438 259.085938 127.5 C 258.1875 128.398438 257.289062 129.300781 256.238281 129.976562 C 255.113281 130.648438 253.6875 131.175781 252.5625 131.398438 C 251.511719 131.625 250.460938 131.773438 249.5625 131.476562 C 248.738281 131.25 247.914062 130.5 247.460938 129.824219 C 247.164062 129.300781 246.9375 128.773438 247.011719 128.101562 C 247.011719 127.351562 247.3125 126.226562 247.761719 125.550781 C 248.289062 124.949219 250.085938 124.199219 250.085938 124.199219 "/></clipPath><clipPath id="f678d77a27"><path d="M 189.472656 81.816406 L 204.191406 81.816406 L 204.191406 100.496094 L 189.472656 100.496094 Z M 189.472656 81.816406 "/></clipPath><clipPath id="58e1f78842"><path d="M 189.5625 96.074219 C 191.960938 89.175781 193.539062 86.25 195.335938 84.675781 C 196.988281 83.25 199.613281 81.824219 201.039062 81.824219 C 201.863281 81.898438 202.613281 82.351562 203.136719 82.949219 C 203.738281 83.699219 204.335938 85.351562 204.113281 86.324219 C 203.886719 87.375 202.835938 88.648438 201.863281 89.023438 C 200.886719 89.398438 199.238281 89.25 198.414062 88.726562 C 197.511719 88.125 196.6875 86.625 196.6875 85.574219 C 196.6875 84.601562 197.585938 83.101562 198.335938 82.5 C 198.9375 81.976562 199.835938 81.824219 200.585938 81.824219 C 201.335938 81.824219 202.238281 82.125 202.835938 82.648438 C 203.511719 83.398438 204.1875 84.976562 204.1875 85.949219 C 204.1875 86.773438 203.738281 87.601562 203.210938 88.125 C 202.6875 88.648438 201.710938 88.648438 201.113281 89.25 C 200.210938 90.074219 199.539062 91.351562 198.863281 92.699219 C 197.886719 94.425781 197.289062 97.800781 196.164062 99.074219 C 195.488281 99.898438 194.738281 100.273438 193.914062 100.425781 C 193.085938 100.574219 191.960938 100.425781 191.289062 99.976562 C 190.539062 99.523438 189.9375 98.550781 189.636719 97.875 C 189.414062 97.273438 189.5625 96.074219 189.5625 96.074219 "/></clipPath><clipPath id="c7fbf59385"><path d="M 196.554688 49.515625 L 225.632812 49.515625 L 225.632812 87.199219 L 196.554688 87.199219 Z M 196.554688 49.515625 "/></clipPath><clipPath id="0913d72fa4"><path d="M 196.6875 83.476562 C 197.289062 63.074219 198.1875 61.050781 199.460938 58.800781 C 200.738281 56.476562 202.386719 53.925781 204.5625 52.425781 C 206.585938 50.925781 209.886719 50.101562 211.988281 49.726562 C 213.488281 49.425781 214.613281 49.574219 215.886719 49.648438 C 217.164062 49.800781 218.289062 49.726562 219.636719 50.25 C 221.363281 50.851562 224.585938 52.726562 225.335938 53.699219 C 225.636719 54.148438 225.5625 54.449219 225.5625 54.898438 C 225.5625 55.5 225.414062 56.550781 224.960938 57.226562 C 224.585938 57.824219 223.914062 58.5 223.085938 58.648438 C 222.1875 58.949219 220.460938 58.648438 219.636719 58.199219 C 218.960938 57.75 218.511719 56.925781 218.289062 56.25 C 218.0625 55.5 217.988281 54.523438 218.363281 53.851562 C 218.738281 52.949219 220.085938 51.824219 220.988281 51.523438 C 221.738281 51.226562 222.636719 51.375 223.386719 51.75 C 224.0625 52.050781 224.8125 52.574219 225.113281 53.324219 C 225.5625 54.226562 225.5625 55.949219 225.1875 56.851562 C 224.886719 57.601562 224.136719 58.199219 223.460938 58.5 C 222.789062 58.875 221.886719 59.023438 221.136719 58.800781 C 220.164062 58.574219 218.585938 56.476562 218.363281 56.625 C 218.289062 56.699219 219.039062 57.523438 218.8125 57.824219 C 218.363281 58.5 213.1875 56.925781 211.238281 57.449219 C 209.886719 57.824219 208.988281 58.425781 207.9375 59.476562 C 206.585938 60.976562 205.238281 63.375 204.488281 66.375 C 203.289062 71.023438 205.085938 82.351562 203.738281 85.199219 C 203.210938 86.25 202.539062 86.625 201.710938 86.925781 C 200.960938 87.226562 199.835938 87.226562 199.085938 86.925781 C 198.335938 86.625 197.511719 85.875 197.0625 85.199219 C 196.761719 84.675781 196.6875 83.476562 196.6875 83.476562 "/></clipPath><clipPath id="fb5184c828"><path d="M 212.460938 53.871094 L 245.414062 53.871094 L 245.414062 91.058594 L 212.460938 91.058594 Z M 212.460938 53.871094 "/></clipPath><clipPath id="d39cf26ccb"><path d="M 212.585938 87.300781 C 213.488281 74.925781 214.011719 72.523438 214.761719 70.050781 C 215.4375 67.5 216.335938 64.875 217.539062 62.550781 C 218.664062 60.300781 220.238281 57.601562 221.664062 56.25 C 222.710938 55.273438 223.761719 54.75 224.960938 54.375 C 226.238281 54 227.738281 53.851562 229.085938 54 C 230.4375 54.074219 231.5625 54.375 232.988281 54.976562 C 234.9375 55.726562 237.789062 57.601562 239.4375 58.875 C 240.710938 59.773438 241.460938 60.449219 242.363281 61.648438 C 243.488281 63.148438 245.289062 65.625 245.289062 67.273438 C 245.289062 68.476562 244.460938 69.75 243.710938 70.425781 C 243.113281 70.949219 242.210938 71.101562 241.460938 71.101562 C 240.710938 71.101562 239.738281 70.875 239.210938 70.273438 C 238.460938 69.601562 237.710938 68.101562 237.789062 67.050781 C 237.863281 66 238.761719 64.648438 239.664062 64.125 C 240.5625 63.601562 242.289062 63.523438 243.1875 63.976562 C 244.085938 64.425781 245.0625 65.851562 245.210938 66.824219 C 245.363281 67.875 244.835938 69.449219 244.011719 70.125 C 243.261719 70.800781 241.914062 71.324219 240.636719 71.023438 C 238.460938 70.425781 235.164062 65.023438 233.0625 63.449219 C 231.789062 62.550781 230.8125 61.800781 229.613281 61.648438 C 228.414062 61.574219 227.0625 61.875 226.011719 62.925781 C 224.0625 64.648438 222.5625 69.824219 221.511719 73.800781 C 220.3125 78.375 220.988281 86.550781 219.636719 89.101562 C 219.113281 90.148438 218.4375 90.523438 217.6875 90.824219 C 216.863281 91.125 215.8125 91.125 214.988281 90.824219 C 214.238281 90.523438 213.414062 89.699219 213.039062 89.101562 C 212.664062 88.574219 212.585938 87.300781 212.585938 87.300781 "/></clipPath><clipPath id="b9e0ce9933"><path d="M 228.035156 63.109375 L 250.277344 63.109375 L 250.277344 99.59375 L 228.035156 99.59375 Z M 228.035156 63.109375 "/></clipPath><clipPath id="641292887e"><path d="M 228.710938 93.601562 C 240.335938 74.851562 241.761719 66.675781 243.5625 64.5 C 244.3125 63.601562 244.835938 63.375 245.664062 63.226562 C 246.636719 63.148438 248.289062 63.601562 249.039062 64.199219 C 249.636719 64.726562 250.011719 65.550781 250.164062 66.300781 C 250.238281 67.050781 250.164062 68.023438 249.789062 68.699219 C 249.261719 69.523438 247.761719 70.425781 246.863281 70.648438 C 246.039062 70.800781 245.136719 70.5 244.539062 70.125 C 243.863281 69.75 243.1875 69.074219 242.960938 68.25 C 242.664062 67.351562 242.738281 65.625 243.335938 64.800781 C 243.9375 63.976562 245.511719 63.226562 246.488281 63.148438 C 247.238281 63.074219 248.136719 63.375 248.738281 63.898438 C 249.414062 64.574219 250.085938 65.699219 250.164062 67.125 C 250.386719 69.976562 247.914062 76.050781 245.960938 80.324219 C 243.9375 84.898438 240.335938 90.300781 238.085938 93.601562 C 236.585938 95.773438 235.460938 97.800781 234.113281 98.699219 C 233.289062 99.300781 232.386719 99.523438 231.636719 99.523438 C 230.960938 99.601562 230.4375 99.375 229.914062 99.074219 C 229.238281 98.625 228.414062 97.875 228.1875 97.050781 C 227.960938 96.074219 228.710938 93.601562 228.710938 93.601562 "/></clipPath><clipPath id="8ade53b6ce"><path d="M 243.652344 69.390625 L 269.125 69.390625 L 269.125 108.210938 L 243.652344 108.210938 Z M 243.652344 69.390625 "/></clipPath><clipPath id="f69caa59f2"><path d="M 245.960938 101.398438 C 252.488281 95.699219 256.085938 91.875 258.039062 89.023438 C 259.613281 86.699219 261.5625 84 261.414062 82.125 C 261.335938 80.851562 260.136719 79.726562 259.238281 78.976562 C 258.261719 78.226562 256.914062 77.851562 255.636719 77.550781 C 254.363281 77.175781 252.5625 77.398438 251.585938 77.023438 C 250.914062 76.726562 250.6875 75.976562 250.085938 75.898438 C 249.488281 75.898438 248.738281 76.875 247.988281 77.023438 C 247.238281 77.101562 246.261719 77.023438 245.585938 76.574219 C 244.835938 76.050781 243.789062 74.699219 243.710938 73.648438 C 243.5625 72.675781 244.238281 71.101562 244.988281 70.425781 C 245.8125 69.75 247.460938 69.449219 248.4375 69.675781 C 249.488281 69.976562 250.6875 71.175781 250.988281 72.148438 C 251.289062 73.125 250.988281 74.773438 250.386719 75.601562 C 249.710938 76.425781 248.210938 77.101562 247.164062 77.023438 C 246.113281 76.949219 244.761719 75.976562 244.164062 75.226562 C 243.710938 74.550781 243.5625 73.648438 243.710938 72.824219 C 243.789062 72.074219 244.011719 71.25 244.6875 70.726562 C 245.886719 69.824219 248.738281 69.449219 250.914062 69.449219 C 253.3125 69.375 256.539062 70.050781 258.5625 70.574219 C 259.988281 71.023438 260.8125 71.324219 262.085938 72.074219 C 263.886719 73.199219 267.039062 75.074219 268.085938 76.800781 C 268.988281 78.148438 268.988281 79.800781 268.988281 81.226562 C 269.0625 82.574219 268.914062 83.699219 268.460938 85.199219 C 267.863281 87.226562 266.8125 89.625 265.085938 92.101562 C 262.6875 95.773438 257.4375 101.476562 254.4375 104.25 C 252.5625 105.976562 250.914062 107.476562 249.414062 108 C 248.4375 108.300781 247.460938 108.226562 246.710938 108 C 246.113281 107.773438 245.664062 107.476562 245.289062 106.949219 C 244.761719 106.351562 244.238281 105.375 244.3125 104.476562 C 244.386719 103.5 245.960938 101.398438 245.960938 101.398438 "/></clipPath><clipPath id="935bf4ec54"><path d="M 256.773438 75.011719 L 281.574219 75.011719 L 281.574219 116.863281 L 256.773438 116.863281 Z M 256.773438 75.011719 "/></clipPath><clipPath id="369c8bdf72"><path d="M 258.9375 109.726562 C 265.914062 105.449219 268.085938 103.125 269.585938 101.625 C 270.636719 100.5 271.539062 99.75 272.289062 98.699219 C 272.960938 97.648438 273.636719 96.449219 273.9375 95.25 C 274.164062 94.050781 274.085938 92.625 273.789062 91.425781 C 273.488281 90.226562 272.886719 89.101562 272.210938 88.050781 C 271.460938 87 270.789062 86.101562 269.585938 85.125 C 268.011719 83.773438 264.039062 82.273438 263.0625 80.925781 C 262.539062 80.101562 262.386719 79.351562 262.460938 78.601562 C 262.613281 77.625 263.511719 76.125 264.414062 75.601562 C 265.3125 75.074219 266.960938 75.074219 267.863281 75.523438 C 268.835938 75.976562 269.738281 77.398438 269.960938 78.375 C 270.113281 79.125 269.886719 80.101562 269.511719 80.699219 C 269.136719 81.375 268.460938 82.050781 267.710938 82.351562 C 266.8125 82.648438 265.085938 82.5 264.1875 82.050781 C 263.511719 81.675781 262.988281 80.851562 262.6875 80.175781 C 262.460938 79.425781 262.386719 78.523438 262.613281 77.773438 C 262.835938 77.023438 263.4375 76.273438 264.039062 75.824219 C 264.636719 75.375 265.3125 75 266.363281 75.148438 C 268.539062 75.375 273.710938 78.523438 276.1875 80.773438 C 278.136719 82.726562 279.5625 84.898438 280.386719 87.300781 C 281.289062 89.699219 281.664062 92.699219 281.363281 95.25 C 281.136719 97.800781 280.3125 100.125 278.664062 102.601562 C 276.335938 106.199219 270.636719 111.226562 267.335938 113.625 C 265.164062 115.199219 263.136719 116.476562 261.488281 116.773438 C 260.511719 116.925781 259.613281 116.851562 258.863281 116.398438 C 258.039062 115.875 257.136719 114.375 256.914062 113.476562 C 256.761719 112.875 256.914062 112.273438 257.210938 111.75 C 257.511719 111 258.9375 109.726562 258.9375 109.726562 "/></clipPath><clipPath id="2382fbfaf1"><path d="M 237 52.871094 L 261.882812 52.871094 L 261.882812 73.625 L 237 73.625 Z M 237 52.871094 "/></clipPath><clipPath id="873b9cfa3e"><path d="M 238.164062 58.273438 C 243.261719 54 244.6875 53.550781 246.039062 53.25 C 247.3125 53.023438 248.585938 52.875 249.9375 52.949219 C 251.289062 53.101562 252.789062 53.476562 254.136719 54 C 255.414062 54.449219 256.6875 55.125 257.664062 55.949219 C 258.710938 56.699219 259.613281 57.675781 260.210938 58.726562 C 260.886719 59.773438 261.335938 61.199219 261.636719 62.476562 C 261.863281 63.75 261.9375 64.875 261.710938 66.226562 C 261.414062 68.175781 260.289062 71.851562 259.460938 72.824219 C 259.164062 73.273438 258.9375 73.351562 258.414062 73.425781 C 257.585938 73.574219 255.789062 73.574219 254.960938 72.976562 C 254.136719 72.375 253.386719 70.875 253.386719 69.824219 C 253.386719 68.773438 254.210938 67.351562 255.113281 66.75 C 255.9375 66.226562 257.664062 66.074219 258.5625 66.449219 C 259.539062 66.898438 260.585938 68.175781 260.8125 69.226562 C 261.039062 70.199219 260.511719 71.851562 259.761719 72.601562 C 259.085938 73.273438 257.363281 73.726562 256.460938 73.574219 C 255.636719 73.5 254.8125 72.976562 254.363281 72.449219 C 253.835938 71.851562 253.386719 71.023438 253.386719 70.273438 C 253.386719 69.300781 254.886719 67.050781 254.738281 66.976562 C 254.738281 66.976562 254.289062 67.800781 254.210938 67.726562 C 253.914062 67.648438 254.738281 65.023438 254.289062 63.898438 C 253.914062 62.699219 252.710938 61.5 251.585938 60.976562 C 250.460938 60.449219 248.960938 60.226562 247.613281 60.601562 C 246.039062 61.050781 244.164062 63.523438 242.738281 64.125 C 241.761719 64.5 240.9375 64.800781 240.113281 64.574219 C 239.136719 64.351562 237.863281 63.226562 237.335938 62.476562 C 237.039062 61.875 236.960938 61.273438 237.039062 60.675781 C 237.113281 59.925781 238.164062 58.273438 238.164062 58.273438 "/></clipPath><clipPath id="5e8bc28243"><path d="M 245.066406 43.503906 L 256.988281 43.503906 L 256.988281 57.167969 L 245.066406 57.167969 Z M 245.066406 43.503906 "/></clipPath><clipPath id="6db5da9c88"><path d="M 249.414062 53.398438 C 248.289062 50.324219 246.335938 50.324219 245.738281 49.425781 C 245.210938 48.601562 245.136719 46.875 245.4375 45.976562 C 245.664062 45.148438 246.335938 44.476562 246.9375 44.101562 C 247.613281 43.726562 248.511719 43.425781 249.261719 43.574219 C 250.238281 43.800781 251.664062 44.773438 252.1875 45.601562 C 252.636719 46.273438 252.789062 47.175781 252.5625 47.925781 C 252.335938 48.898438 251.363281 50.324219 250.460938 50.773438 C 249.488281 51.148438 247.835938 51.074219 246.9375 50.550781 C 246.039062 50.023438 245.289062 48.523438 245.136719 47.550781 C 245.0625 46.726562 245.289062 45.824219 245.8125 45.226562 C 246.414062 44.476562 247.6875 43.648438 248.886719 43.574219 C 250.460938 43.425781 253.164062 44.476562 254.4375 45.449219 C 255.488281 46.273438 256.085938 47.398438 256.460938 48.675781 C 256.988281 50.023438 257.0625 52.125 256.914062 53.398438 C 256.761719 54.449219 256.613281 55.351562 255.9375 55.949219 C 255.261719 56.625 253.6875 57.226562 252.710938 57.148438 C 251.886719 57.074219 250.914062 56.550781 250.386719 55.949219 C 249.789062 55.273438 249.414062 53.398438 249.414062 53.398438 "/></clipPath><clipPath id="25d56f9e2e"><path d="M 250.605469 40.789062 L 264.421875 40.789062 L 264.421875 57.980469 L 250.605469 57.980469 Z M 250.605469 40.789062 "/></clipPath><clipPath id="dc07170c7b"><path d="M 251.210938 52.125 C 258.113281 41.773438 258.636719 41.25 259.386719 41.023438 C 260.210938 40.726562 261.335938 40.875 262.085938 41.101562 C 262.613281 41.324219 263.136719 41.699219 263.511719 42.226562 C 263.886719 42.824219 264.261719 43.949219 264.335938 44.773438 C 264.335938 45.375 263.8125 46.425781 263.8125 46.5 C 263.8125 46.5 264.335938 45.226562 264.261719 45.226562 C 264.113281 45.148438 263.0625 47.550781 262.085938 48 C 261.1875 48.375 259.460938 48.226562 258.636719 47.773438 C 257.886719 47.398438 257.289062 46.726562 257.0625 45.898438 C 256.761719 45 256.988281 43.273438 257.4375 42.449219 C 257.886719 41.773438 258.636719 41.25 259.386719 41.023438 C 260.136719 40.800781 261.039062 40.800781 261.789062 41.023438 C 262.460938 41.25 263.289062 41.851562 263.664062 42.449219 C 264.113281 43.125 264.414062 44.023438 264.335938 44.773438 C 264.1875 45.75 263.363281 47.25 262.460938 47.773438 C 261.5625 48.300781 259.914062 48.375 258.9375 47.925781 C 258.039062 47.550781 257.0625 46.125 256.835938 45.148438 C 256.6875 44.324219 256.914062 43.351562 257.289062 42.675781 C 257.738281 42 258.636719 41.25 259.386719 41.023438 C 260.210938 40.726562 261.261719 40.800781 262.085938 41.101562 C 262.835938 41.476562 263.585938 42.300781 263.960938 42.976562 C 264.261719 43.5 264.488281 43.949219 264.335938 44.773438 C 263.886719 47.101562 258.5625 55.949219 256.238281 57.375 C 255.335938 58.050781 254.4375 57.976562 253.613281 57.824219 C 252.863281 57.675781 251.886719 57 251.4375 56.398438 C 250.988281 55.949219 250.761719 55.425781 250.6875 54.75 C 250.613281 54 251.210938 52.125 251.210938 52.125 "/></clipPath><clipPath id="b5e681bb3a"><path d="M 251.570312 49.546875 L 270.386719 49.546875 L 270.386719 59.855469 L 251.570312 59.855469 Z M 251.570312 49.546875 "/></clipPath><clipPath id="6822c49cc1"><path d="M 252.863281 53.25 C 259.164062 49.648438 262.539062 49.050781 264.710938 49.875 C 266.960938 50.699219 269.960938 53.851562 270.261719 55.574219 C 270.5625 56.773438 269.8125 58.199219 268.988281 58.875 C 268.238281 59.550781 266.585938 59.925781 265.613281 59.625 C 264.5625 59.398438 263.363281 58.199219 263.0625 57.226562 C 262.6875 56.25 262.988281 54.601562 263.585938 53.773438 C 264.1875 52.949219 265.761719 52.351562 266.738281 52.273438 C 267.5625 52.273438 268.386719 52.648438 268.988281 53.175781 C 269.585938 53.625 270.039062 54.449219 270.261719 55.199219 C 270.414062 55.949219 270.335938 56.925781 269.960938 57.601562 C 269.664062 58.273438 269.0625 59.023438 268.386719 59.324219 C 267.488281 59.699219 265.761719 59.851562 264.863281 59.324219 C 263.886719 58.875 263.8125 56.699219 262.835938 56.476562 C 261.488281 56.101562 258.636719 58.949219 256.988281 59.476562 C 256.011719 59.773438 255.1875 59.925781 254.363281 59.699219 C 253.539062 59.476562 252.636719 58.800781 252.1875 58.199219 C 251.8125 57.675781 251.585938 57.148438 251.585938 56.476562 C 251.585938 55.574219 252.863281 53.25 252.863281 53.25 "/></clipPath><clipPath id="cac93ad693"><path d="M 212.410156 50.347656 L 227.078125 50.347656 L 227.078125 60.503906 L 212.410156 60.503906 Z M 212.410156 50.347656 "/></clipPath><clipPath id="730e0cb0f1"><path d="M 216.1875 50.398438 C 223.386719 51.824219 225.863281 53.699219 226.6875 55.050781 C 227.136719 55.800781 227.136719 56.625 226.988281 57.375 C 226.835938 58.125 226.460938 59.023438 225.863281 59.476562 C 225.039062 60.074219 223.460938 60.601562 222.414062 60.375 C 221.4375 60.074219 220.164062 58.949219 219.789062 58.050781 C 219.414062 57.074219 219.636719 55.351562 220.238281 54.523438 C 220.835938 53.699219 222.335938 52.949219 223.386719 52.949219 C 224.4375 52.949219 225.863281 53.773438 226.460938 54.675781 C 226.988281 55.574219 227.0625 57.226562 226.761719 58.199219 C 226.539062 58.949219 225.863281 59.550781 225.1875 59.925781 C 224.511719 60.300781 223.761719 60.523438 222.789062 60.449219 C 221.363281 60.226562 219.039062 58.425781 217.460938 57.898438 C 216.261719 57.523438 215.0625 57.824219 214.238281 57.375 C 213.636719 57.148438 213.261719 56.773438 212.960938 56.175781 C 212.511719 55.351562 212.289062 53.625 212.585938 52.726562 C 212.886719 51.898438 213.789062 51.148438 214.460938 50.773438 C 214.988281 50.476562 216.1875 50.398438 216.1875 50.398438 "/></clipPath></defs><g id="d8cf46ff7b"><g clip-rule="nonzero" clip-path="url(#fcf2233d69)"><g clip-rule="nonzero" clip-path="url(#48f109dfce)"><path style=" stroke:none;fill-rule:nonzero;fill:currentColor;fill-opacity:1;" d="M 90.5625 308.175781 L 117.863281 308.175781 L 117.863281 337.5 L 90.5625 337.5 Z M 90.5625 308.175781 "/></g></g><g clip-rule="nonzero" clip-path="url(#a0700360a7)"><g clip-rule="nonzero" clip-path="url(#a0f2a8401f)"><path style=" stroke:none;fill-rule:nonzero;fill:currentColor;fill-opacity:1;" d="M 97.761719 255.675781 L 139.613281 255.675781 L 139.613281 318.449219 L 97.761719 318.449219 Z M 97.761719 255.675781 "/></g></g><g clip-rule="nonzero" clip-path="url(#644df7bd25)"><g clip-rule="nonzero" clip-path="url(#7aeb935b11)"><path style=" stroke:none;fill-rule:nonzero;fill:currentColor;fill-opacity:1;" d="M 105.414062 263.550781 L 148.386719 263.550781 L 148.386719 326.5 L 105.414062 326.5 Z M 105.414062 263.550781 "/></g></g><g clip-rule="nonzero" clip-path="url(#10a2b5b1f7)"><g clip-rule="nonzero" clip-path="url(#75da933b46)"><path style=" stroke:none;fill-rule:nonzero;fill:currentColor;fill-opacity:1;" d="M 136.386719 170.398438 L 187.386719 170.398438 L 187.386719 253.273438 L 136.386719 253.273438 Z M 136.386719 170.398438 "/></g></g><g clip-rule="nonzero" clip-path="url(#001671139c)"><g clip-rule="nonzero" clip-path="url(#6df67d2f08)"><path style=" stroke:none;fill-rule:nonzero;fill:currentColor;fill-opacity:1;" d="M 146.511719 177.300781 L 196.988281 177.300781 L 196.988281 261.292969 L 146.511719 261.292969 Z M 146.511719 177.300781 "/></g></g><g clip-rule="nonzero" clip-path="url(#3035c87103)"><g clip-rule="nonzero" clip-path="url(#7f3ad3e849)"><path style=" stroke:none;fill-rule:nonzero;fill:currentColor;fill-opacity:1;" d="M 171.113281 157.125 L 208.339844 157.125 L 208.339844 188.476562 L 171.113281 188.476562 Z M 171.113281 157.125 "/></g></g><g clip-rule="nonzero" clip-path="url(#fc53603bb4)"><g clip-rule="nonzero" clip-path="url(#862e09f821)"><path style=" stroke:none;fill-rule:nonzero;fill:currentColor;fill-opacity:1;" d="M 124.539062 243.148438 L 158.992188 243.148438 L 158.992188 273.148438 L 124.539062 273.148438 Z M 124.539062 243.148438 "/></g></g><g clip-rule="nonzero" clip-path="url(#4cdffefca5)"><g clip-rule="nonzero" clip-path="url(#62c28dde67)"><path style=" stroke:none;fill-rule:nonzero;fill:currentColor;fill-opacity:1;" d="M 181.761719 129.898438 L 211.085938 129.898438 L 211.085938 167.472656 L 181.761719 167.472656 Z M 181.761719 129.898438 "/></g></g><g clip-rule="nonzero" clip-path="url(#08277e3a37)"><g clip-rule="nonzero" clip-path="url(#f897fa49cb)"><path style=" stroke:none;fill-rule:nonzero;fill:currentColor;fill-opacity:1;" d="M 193.386719 135.148438 L 222.261719 135.148438 L 222.261719 175.867188 L 193.386719 175.867188 Z M 193.386719 135.148438 "/></g></g><g clip-rule="nonzero" clip-path="url(#38258b27dd)"><g clip-rule="nonzero" clip-path="url(#e2707b44e9)"><path style=" stroke:none;fill-rule:nonzero;fill:currentColor;fill-opacity:1;" d="M 188.4375 96 L 252.875 96 L 252.875 144.375 L 188.4375 144.375 Z M 188.4375 96 "/></g></g><g clip-rule="nonzero" clip-path="url(#63164290a3)"><g clip-rule="nonzero" clip-path="url(#0f35f22897)"><path style=" stroke:none;fill-rule:nonzero;fill:currentColor;fill-opacity:1;" d="M 187.164062 91.351562 L 258.117188 91.351562 L 258.117188 135.226562 L 187.164062 135.226562 Z M 187.164062 91.351562 "/></g></g><g clip-rule="nonzero" clip-path="url(#d101781e28)"><g clip-rule="nonzero" clip-path="url(#a143691d05)"><path style=" stroke:none;fill-rule:nonzero;fill:currentColor;fill-opacity:1;" d="M 195.863281 77.625 L 266.289062 77.625 L 266.289062 122.476562 L 195.863281 122.476562 Z M 195.863281 77.625 "/></g></g><g clip-rule="nonzero" clip-path="url(#e8bd380aa2)"><g clip-rule="nonzero" clip-path="url(#04a19e792d)"><path style=" stroke:none;fill-rule:nonzero;fill:currentColor;fill-opacity:1;" d="M 244.011719 111.148438 L 266.289062 111.148438 L 266.289062 134.554688 L 244.011719 134.554688 Z M 244.011719 111.148438 "/></g></g><g clip-rule="nonzero" clip-path="url(#f678d77a27)"><g clip-rule="nonzero" clip-path="url(#58e1f78842)"><path style=" stroke:none;fill-rule:nonzero;fill:currentColor;fill-opacity:1;" d="M 186.5625 78.824219 L 207.261719 78.824219 L 207.261719 103.488281 L 186.5625 103.488281 Z M 186.5625 78.824219 "/></g></g><g clip-rule="nonzero" clip-path="url(#c7fbf59385)"><g clip-rule="nonzero" clip-path="url(#0913d72fa4)"><path style=" stroke:none;fill-rule:nonzero;fill:currentColor;fill-opacity:1;" d="M 193.6875 46.648438 L 228.636719 46.648438 L 228.636719 89.929688 L 193.6875 89.929688 Z M 193.6875 46.648438 "/></g></g><g clip-rule="nonzero" clip-path="url(#fb5184c828)"><g clip-rule="nonzero" clip-path="url(#d39cf26ccb)"><path style=" stroke:none;fill-rule:nonzero;fill:currentColor;fill-opacity:1;" d="M 209.585938 51 L 248.289062 51 L 248.289062 93.933594 L 209.585938 93.933594 Z M 209.585938 51 "/></g></g><g clip-rule="nonzero" clip-path="url(#b9e0ce9933)"><g clip-rule="nonzero" clip-path="url(#641292887e)"><path style=" stroke:none;fill-rule:nonzero;fill:currentColor;fill-opacity:1;" d="M 225.1875 60.148438 L 253.238281 60.148438 L 253.238281 102.554688 L 225.1875 102.554688 Z M 225.1875 60.148438 "/></g></g><g clip-rule="nonzero" clip-path="url(#8ade53b6ce)"><g clip-rule="nonzero" clip-path="url(#f69caa59f2)"><path style=" stroke:none;fill-rule:nonzero;fill:currentColor;fill-opacity:1;" d="M 240.710938 66.449219 L 272.0625 66.449219 L 272.0625 111.027344 L 240.710938 111.027344 Z M 240.710938 66.449219 "/></g></g><g clip-rule="nonzero" clip-path="url(#935bf4ec54)"><g clip-rule="nonzero" clip-path="url(#369c8bdf72)"><path style=" stroke:none;fill-rule:nonzero;fill:currentColor;fill-opacity:1;" d="M 253.914062 72.148438 L 284.4375 72.148438 L 284.4375 119.84375 L 253.914062 119.84375 Z M 253.914062 72.148438 "/></g></g><g clip-rule="nonzero" clip-path="url(#2382fbfaf1)"><g clip-rule="nonzero" clip-path="url(#873b9cfa3e)"><path style=" stroke:none;fill-rule:nonzero;fill:currentColor;fill-opacity:1;" d="M 234.039062 49.949219 L 264.699219 49.949219 L 264.699219 76.648438 L 234.039062 76.648438 Z M 234.039062 49.949219 "/></g></g><g clip-rule="nonzero" clip-path="url(#5e8bc28243)"><g clip-rule="nonzero" clip-path="url(#6db5da9c88)"><path style=" stroke:none;fill-rule:nonzero;fill:currentColor;fill-opacity:1;" d="M 242.136719 40.574219 L 259.988281 40.574219 L 259.988281 60.167969 L 242.136719 60.167969 Z M 242.136719 40.574219 "/></g></g><g clip-rule="nonzero" clip-path="url(#25d56f9e2e)"><g clip-rule="nonzero" clip-path="url(#dc07170c7b)"><path style=" stroke:none;fill-rule:nonzero;fill:currentColor;fill-opacity:1;" d="M 247.6875 38.023438 L 267.335938 38.023438 L 267.335938 60.898438 L 247.6875 60.898438 Z M 247.6875 38.023438 "/></g></g><g clip-rule="nonzero" clip-path="url(#b5e681bb3a)"><g clip-rule="nonzero" clip-path="url(#6822c49cc1)"><path style=" stroke:none;fill-rule:nonzero;fill:currentColor;fill-opacity:1;" d="M 248.585938 46.875 L 273.308594 46.875 L 273.308594 62.773438 L 248.585938 62.773438 Z M 248.585938 46.875 "/></g></g><g clip-rule="nonzero" clip-path="url(#cac93ad693)"><g clip-rule="nonzero" clip-path="url(#730e0cb0f1)"><path style=" stroke:none;fill-rule:nonzero;fill:currentColor;fill-opacity:1;" d="M 209.585938 47.398438 L 229.964844 47.398438 L 229.964844 63.449219 L 209.585938 63.449219 Z M 209.585938 47.398438 "/></g></g></g></svg>