<svg xmlns="http://www.w3.org/2000/svg" xmlns:xlink="http://www.w3.org/1999/xlink" width="500" zoomAndPan="magnify" viewBox="0 0 375 374.999991" height="500" preserveAspectRatio="xMidYMid meet" version="1.2"><defs><clipPath id="e4f5fb1869"><path d="M 40.339844 133.679688 L 79.929688 133.679688 L 79.929688 200.433594 L 40.339844 200.433594 Z M 40.339844 133.679688 "/></clipPath><clipPath id="f186c2b496"><path d="M 75.199219 200.214844 C 63.535156 195.023438 59.695312 192.464844 56.613281 189.757812 C 53.527344 187.125 50.441406 183.886719 48.335938 180.953125 C 46.605469 178.546875 45.550781 176.589844 44.421875 173.804688 C 43.066406 170.269531 41.863281 165.90625 41.1875 161.539062 C 40.433594 156.648438 40.132812 150.480469 40.511719 145.890625 C 40.8125 142.203125 41.636719 137.988281 42.617188 136.109375 C 43.066406 135.203125 43.519531 134.679688 44.195312 134.300781 C 44.875 133.925781 45.777344 133.773438 46.53125 133.851562 C 47.28125 133.925781 48.183594 134.378906 48.710938 134.902344 C 49.238281 135.429688 49.691406 136.332031 49.839844 137.085938 C 49.914062 137.839844 49.765625 138.742188 49.386719 139.417969 C 49.011719 140.097656 48.261719 140.699219 47.582031 141 C 46.90625 141.375 46.003906 141.527344 45.175781 141.222656 C 44.273438 140.921875 42.917969 139.871094 42.542969 138.890625 C 42.164062 137.914062 42.542969 136.257812 42.992188 135.429688 C 43.445312 134.753906 44.195312 134.226562 44.949219 134 C 45.703125 133.773438 46.605469 133.699219 47.355469 134.078125 C 48.261719 134.453125 49.238281 135.28125 49.691406 136.632812 C 50.667969 139.570312 48.035156 147.246094 48.035156 152.058594 C 48.035156 156.347656 48.484375 160.789062 49.238281 164.324219 C 49.839844 167.109375 50.742188 169.289062 51.796875 171.625 C 52.925781 173.957031 53.902344 176.136719 55.710938 178.394531 C 57.890625 181.179688 61.203125 184.265625 64.738281 186.824219 C 68.878906 189.683594 77.453125 192.164062 79.261719 194.421875 C 79.9375 195.324219 79.9375 196.226562 79.863281 196.980469 C 79.863281 197.65625 79.636719 198.183594 79.261719 198.710938 C 78.734375 199.3125 77.753906 199.992188 77.003906 200.214844 C 76.402344 200.367188 75.199219 200.214844 75.199219 200.214844 "/></clipPath><clipPath id="6a4db7b202"><path d="M 41.464844 107.753906 L 104.699219 107.753906 L 104.699219 146.136719 L 41.464844 146.136719 Z M 41.464844 107.753906 "/></clipPath><clipPath id="d3625552f0"><path d="M 41.5625 142.203125 C 43.59375 133.851562 45.925781 129.261719 47.960938 126.324219 C 49.613281 123.917969 51.496094 122.039062 53.601562 120.304688 C 55.632812 118.574219 57.515625 117.449219 60.222656 116.019531 C 63.984375 113.984375 69.703125 111.429688 74.371094 110.148438 C 78.660156 108.945312 82.722656 108.492188 87.160156 108.191406 C 91.902344 107.890625 99.277344 107.441406 101.910156 108.265625 C 102.886719 108.570312 103.414062 109.019531 103.867188 109.621094 C 104.316406 110.222656 104.695312 111.125 104.617188 111.953125 C 104.542969 112.933594 103.714844 114.4375 102.960938 115.039062 C 102.285156 115.492188 101.382812 115.714844 100.628906 115.640625 C 99.878906 115.566406 98.976562 115.265625 98.371094 114.738281 C 97.847656 114.210938 97.320312 113.382812 97.167969 112.707031 C 97.019531 111.953125 97.019531 110.976562 97.46875 110.300781 C 97.921875 109.472656 99.351562 108.417969 100.253906 108.191406 C 101.082031 107.964844 101.984375 108.117188 102.660156 108.570312 C 103.488281 109.09375 104.390625 110.523438 104.617188 111.503906 C 104.769531 112.332031 104.46875 113.234375 104.089844 113.835938 C 103.640625 114.511719 103.1875 115.039062 102.210938 115.414062 C 100.101562 116.167969 94.460938 115.191406 90.621094 115.414062 C 86.785156 115.640625 83.171875 115.867188 79.183594 116.84375 C 74.445312 117.972656 67.972656 120.457031 64.0625 122.488281 C 61.203125 123.917969 58.871094 125.574219 57.214844 127.078125 C 56.011719 128.132812 55.410156 128.882812 54.503906 130.164062 C 53.226562 131.96875 51.722656 134.828125 50.667969 137.238281 C 49.613281 139.644531 49.3125 143.40625 48.109375 144.761719 C 47.433594 145.589844 46.453125 145.890625 45.703125 145.964844 C 45.101562 146.117188 44.496094 145.964844 43.972656 145.738281 C 43.367188 145.511719 42.84375 145.210938 42.464844 144.6875 C 42.015625 144.082031 41.5625 142.203125 41.5625 142.203125 "/></clipPath><clipPath id="ab92f50320"><path d="M 98.894531 68.757812 L 148.910156 68.757812 L 148.910156 116.472656 L 98.894531 116.472656 Z M 98.894531 68.757812 "/></clipPath><clipPath id="f058988edc"><path d="M 99.125 111.503906 C 108.53125 92.316406 109.734375 90.585938 111.464844 88.628906 C 113.195312 86.597656 115 84.941406 117.257812 83.058594 C 120.042969 80.726562 123.804688 78.019531 127.265625 75.988281 C 130.726562 74.03125 134.792969 72.148438 138.027344 70.871094 C 140.585938 69.96875 143.066406 68.6875 144.949219 68.839844 C 146.226562 68.914062 147.507812 69.515625 148.109375 70.34375 C 148.710938 71.171875 148.863281 72.902344 148.636719 73.878906 C 148.410156 74.632812 147.882812 75.386719 147.132812 75.761719 C 146.304688 76.214844 144.574219 76.4375 143.59375 76.0625 C 142.691406 75.6875 141.5625 74.40625 141.414062 73.355469 C 141.1875 72.300781 141.789062 70.71875 142.390625 69.96875 C 142.917969 69.367188 143.746094 68.914062 144.496094 68.914062 C 145.476562 68.839844 147.132812 69.367188 147.882812 70.042969 C 148.410156 70.570312 148.785156 71.472656 148.785156 72.226562 C 148.863281 73.203125 148.5625 74.40625 147.433594 75.535156 C 145.101562 77.867188 136.144531 79.597656 131.179688 82.382812 C 126.589844 85.09375 121.699219 88.929688 118.613281 91.9375 C 116.507812 94.046875 115.527344 95.402344 113.949219 98.035156 C 111.390625 102.097656 107.550781 112.332031 105.898438 114.664062 C 105.371094 115.414062 105.144531 115.640625 104.617188 115.941406 C 103.867188 116.242188 102.738281 116.46875 101.984375 116.320312 C 101.308594 116.242188 100.78125 116.019531 100.328125 115.566406 C 99.726562 115.039062 99.199219 113.984375 98.976562 113.234375 C 98.824219 112.632812 99.125 111.429688 99.125 111.429688 "/></clipPath><clipPath id="3e229c172c"><path d="M 137.535156 66.429688 L 190.785156 66.429688 L 190.785156 83 L 137.535156 83 Z M 137.535156 66.429688 "/></clipPath><clipPath id="62be2ad3d5"><path d="M 139.457031 70.796875 C 146.679688 67.710938 149.3125 67.183594 152.171875 66.808594 C 155.632812 66.429688 161.203125 66.429688 163.984375 66.734375 C 165.640625 66.882812 166.019531 66.957031 167.75 67.484375 C 171.960938 68.765625 186.332031 73.429688 189.191406 76.214844 C 190.320312 77.265625 190.773438 78.394531 190.699219 79.449219 C 190.621094 80.425781 189.71875 81.933594 188.890625 82.457031 C 187.988281 82.984375 186.257812 83.058594 185.355469 82.609375 C 184.378906 82.15625 183.398438 80.804688 183.25 79.824219 C 183.023438 78.773438 183.625 77.191406 184.378906 76.4375 C 185.128906 75.761719 186.710938 75.308594 187.761719 75.535156 C 188.742188 75.761719 190.019531 76.964844 190.472656 77.792969 C 190.773438 78.546875 190.773438 79.523438 190.546875 80.203125 C 190.320312 80.953125 189.796875 81.78125 189.191406 82.234375 C 188.589844 82.683594 188.0625 82.984375 186.9375 82.984375 C 183.171875 82.910156 169.855469 75.234375 163.234375 74.183594 C 158.792969 73.429688 155.40625 74.03125 151.644531 74.632812 C 147.808594 75.234375 142.691406 78.167969 140.433594 77.792969 C 139.382812 77.644531 138.703125 76.890625 138.175781 76.289062 C 137.800781 75.835938 137.574219 75.234375 137.574219 74.632812 C 137.5 73.878906 137.800781 72.675781 138.175781 72 C 138.476562 71.472656 139.457031 70.796875 139.457031 70.796875 "/></clipPath><clipPath id="4ce7b1e41f"><path d="M 182.449219 61.6875 L 240.433594 61.6875 L 240.433594 82.957031 L 182.449219 82.957031 Z M 182.449219 61.6875 "/></clipPath><clipPath id="41134b43a8"><path d="M 183.699219 76.363281 C 191.222656 70.195312 195.511719 67.410156 198.75 65.753906 C 201.53125 64.398438 204.015625 63.496094 206.726562 62.820312 C 209.359375 62.140625 212.066406 61.992188 214.777344 61.839844 C 217.410156 61.691406 219.894531 61.539062 222.675781 61.992188 C 226.289062 62.667969 231.179688 64.175781 234.265625 65.980469 C 236.746094 67.410156 239.683594 69.441406 240.207031 71.171875 C 240.585938 72.375 240.058594 73.804688 239.382812 74.632812 C 238.703125 75.386719 237.125 75.988281 236.070312 75.835938 C 235.09375 75.761719 233.664062 74.785156 233.210938 73.878906 C 232.757812 72.902344 232.835938 71.246094 233.285156 70.34375 C 233.585938 69.589844 234.339844 68.988281 235.015625 68.6875 C 235.695312 68.386719 236.671875 68.3125 237.425781 68.464844 C 238.175781 68.6875 239.003906 69.066406 239.457031 69.742188 C 239.984375 70.570312 240.359375 72.226562 240.132812 73.203125 C 239.984375 73.957031 239.382812 74.707031 238.777344 75.160156 C 238.175781 75.609375 237.273438 75.914062 236.523438 75.914062 C 235.769531 75.914062 234.792969 75.535156 234.265625 75.085938 C 233.664062 74.632812 233.738281 73.730469 232.910156 73.054688 C 231.253906 71.847656 226.664062 70.496094 223.277344 69.96875 C 219.515625 69.289062 215.152344 69.140625 211.316406 69.742188 C 207.476562 70.34375 203.867188 71.625 200.253906 73.503906 C 196.117188 75.609375 190.320312 81.253906 188.0625 82.382812 C 187.238281 82.757812 186.9375 82.910156 186.332031 82.835938 C 185.582031 82.835938 184.378906 82.457031 183.777344 81.933594 C 183.324219 81.554688 182.949219 81.027344 182.722656 80.503906 C 182.496094 79.976562 182.421875 79.375 182.496094 78.695312 C 182.648438 77.945312 183.699219 76.363281 183.699219 76.363281 "/></clipPath><clipPath id="22a09f4dd1"><path d="M 230.273438 66.203125 L 250.570312 66.203125 L 250.570312 102.207031 L 230.273438 102.207031 Z M 230.273438 66.203125 "/></clipPath><clipPath id="20e024a822"><path d="M 236.597656 67.183594 C 246.679688 81.480469 247.882812 85.46875 248.785156 89.230469 C 249.691406 92.691406 251.042969 97.582031 250.214844 99.765625 C 249.765625 100.96875 248.636719 101.871094 247.582031 102.097656 C 246.605469 102.324219 244.949219 101.871094 244.195312 101.195312 C 243.445312 100.515625 242.84375 98.9375 242.992188 97.882812 C 243.144531 96.832031 244.121094 95.476562 245.101562 95.023438 C 246.003906 94.574219 247.65625 94.648438 248.5625 95.175781 C 249.464844 95.703125 250.292969 97.207031 250.441406 98.109375 C 250.59375 98.9375 250.292969 99.839844 249.839844 100.441406 C 249.464844 101.121094 248.710938 101.722656 247.957031 101.945312 C 247.28125 102.246094 246.304688 102.246094 245.625 102.023438 C 244.875 101.796875 244.273438 101.496094 243.671875 100.59375 C 242.015625 98.183594 241.636719 89.304688 239.457031 84.265625 C 237.199219 79.222656 230.953125 72.976562 230.425781 70.496094 C 230.203125 69.667969 230.351562 69.214844 230.578125 68.6875 C 230.953125 67.9375 231.632812 67.035156 232.382812 66.65625 C 233.136719 66.28125 234.265625 66.207031 235.015625 66.355469 C 235.617188 66.429688 236.597656 67.183594 236.597656 67.183594 "/></clipPath><clipPath id="993df8fd89"><path d="M 242.847656 94.503906 L 300.742188 94.503906 L 300.742188 141.144531 L 242.847656 141.144531 Z M 242.847656 94.503906 "/></clipPath><clipPath id="252883975a"><path d="M 246.753906 94.648438 C 262.855469 95.175781 264.964844 95.777344 267.75 96.753906 C 271.058594 97.957031 275.273438 99.914062 278.28125 101.722656 C 280.839844 103.300781 282.796875 104.804688 284.980469 106.914062 C 287.539062 109.320312 290.320312 112.480469 292.503906 115.640625 C 294.6875 118.875 296.640625 122.488281 297.996094 126.101562 C 299.351562 129.710938 300.78125 134.980469 300.707031 137.238281 C 300.628906 138.289062 300.480469 138.890625 299.953125 139.492188 C 299.277344 140.246094 297.769531 141.074219 296.71875 141 C 295.738281 140.921875 294.234375 140.097656 293.707031 139.191406 C 293.179688 138.289062 293.105469 136.632812 293.558594 135.65625 C 293.933594 134.753906 295.363281 133.773438 296.339844 133.550781 C 297.09375 133.324219 298.070312 133.550781 298.671875 133.925781 C 299.351562 134.300781 300.027344 134.980469 300.328125 135.65625 C 300.707031 136.332031 300.78125 137.3125 300.628906 138.0625 C 300.480469 138.816406 300.027344 139.644531 299.351562 140.097656 C 298.597656 140.699219 296.867188 141.074219 295.964844 140.847656 C 295.136719 140.699219 294.609375 140.398438 293.933594 139.492188 C 292.429688 137.460938 291.527344 129.9375 289.945312 126.324219 C 288.816406 123.691406 287.839844 122.039062 286.183594 119.78125 C 284.078125 116.921875 280.839844 113.007812 278.132812 110.75 C 275.949219 108.871094 273.769531 107.816406 271.433594 106.613281 C 269.179688 105.40625 266.320312 104.203125 264.210938 103.453125 C 262.632812 102.925781 261.953125 102.699219 260.148438 102.398438 C 256.6875 101.871094 247.207031 102.699219 244.949219 101.722656 C 244.195312 101.421875 243.972656 101.121094 243.59375 100.59375 C 243.21875 99.914062 242.917969 98.785156 242.992188 97.957031 C 243.066406 97.132812 243.59375 96.152344 244.195312 95.625 C 244.875 95.023438 246.753906 94.648438 246.753906 94.648438 "/></clipPath><clipPath id="2cfc8edf74"><path d="M 293.003906 133.464844 L 334.335938 133.464844 L 334.335938 170.296875 L 293.003906 170.296875 Z M 293.003906 133.464844 "/></clipPath><clipPath id="101a521ac1"><path d="M 297.320312 133.472656 C 306.046875 135.203125 310.636719 136.632812 314.476562 138.589844 C 318.839844 140.847656 324.707031 144.308594 327.566406 147.46875 C 329.675781 149.800781 330.503906 152.210938 331.554688 154.617188 C 332.535156 157.027344 333.363281 159.660156 333.738281 161.917969 C 334.113281 163.875 334.488281 165.90625 333.964844 167.335938 C 333.585938 168.464844 332.535156 169.515625 331.632812 169.894531 C 330.878906 170.269531 329.75 170.117188 328.996094 169.894531 C 328.394531 169.742188 327.867188 169.441406 327.492188 168.914062 C 326.964844 168.085938 326.4375 166.054688 326.816406 165 C 327.191406 164.023438 328.546875 163.046875 329.523438 162.746094 C 330.277344 162.519531 331.179688 162.667969 331.855469 162.96875 C 332.609375 163.269531 333.285156 163.875 333.664062 164.625 C 334.039062 165.527344 334.039062 167.257812 333.664062 168.164062 C 333.363281 168.914062 332.609375 169.515625 331.933594 169.816406 C 331.253906 170.117188 330.351562 170.34375 329.523438 170.117188 C 328.621094 169.816406 327.265625 168.765625 326.816406 167.785156 C 326.4375 166.882812 326.738281 165.152344 327.191406 164.324219 C 327.566406 163.570312 328.394531 163.121094 329.148438 162.820312 C 329.824219 162.59375 330.804688 162.519531 331.480469 162.820312 C 332.382812 163.195312 333.664062 164.398438 333.964844 165.378906 C 334.265625 166.355469 333.8125 168.085938 333.136719 168.914062 C 332.457031 169.667969 330.878906 170.269531 329.898438 170.117188 C 328.847656 170.042969 327.792969 169.289062 326.964844 168.164062 C 325.535156 166.054688 325.914062 159.808594 324.484375 156.726562 C 323.277344 154.242188 321.925781 152.585938 319.894531 150.707031 C 317.257812 148.371094 313.195312 146.339844 309.285156 144.535156 C 304.769531 142.578125 296.265625 141.675781 294.160156 139.796875 C 293.332031 139.042969 293.257812 138.0625 293.179688 137.3125 C 293.105469 136.710938 293.332031 136.109375 293.558594 135.582031 C 293.859375 135.054688 294.234375 134.527344 294.761719 134.226562 C 295.363281 133.777344 297.320312 133.472656 297.320312 133.472656 "/></clipPath><clipPath id="42a8430a66"><path d="M 293.019531 158.867188 L 334.339844 158.867188 L 334.339844 200 L 293.019531 200 Z M 293.019531 158.867188 "/></clipPath><clipPath id="9ffef3f780"><path d="M 334.113281 162.667969 C 334.339844 173.355469 334.265625 174.105469 333.738281 175.613281 C 332.757812 178.246094 330.578125 182.910156 328.019531 185.84375 C 325.460938 188.777344 321.773438 191.035156 318.3125 193.144531 C 314.925781 195.25 311.316406 197.28125 307.628906 198.335938 C 303.941406 199.464844 298.449219 200.214844 296.191406 199.839844 C 295.210938 199.613281 294.609375 199.238281 294.082031 198.710938 C 293.558594 198.109375 293.105469 197.28125 293.105469 196.53125 C 293.03125 195.550781 293.707031 193.894531 294.386719 193.21875 C 294.988281 192.691406 295.890625 192.390625 296.640625 192.316406 C 297.394531 192.316406 298.296875 192.464844 298.976562 192.992188 C 299.726562 193.59375 300.554688 195.101562 300.554688 196.078125 C 300.554688 197.132812 299.726562 198.636719 298.898438 199.238281 C 298.296875 199.691406 297.394531 199.992188 296.640625 199.839844 C 295.664062 199.691406 294.160156 198.785156 293.632812 198.035156 C 293.105469 197.355469 293.03125 196.453125 293.105469 195.703125 C 293.179688 194.949219 293.332031 194.121094 294.082031 193.519531 C 295.964844 191.9375 303.941406 191.636719 307.628906 190.207031 C 310.410156 189.15625 312.445312 188.027344 314.625 186.597656 C 316.808594 185.316406 319.066406 183.511719 320.71875 182.15625 C 321.925781 181.105469 322.828125 180.578125 323.730469 179.296875 C 324.933594 177.417969 326.289062 174.484375 326.890625 171.625 C 327.566406 168.386719 326.0625 162.894531 326.964844 160.863281 C 327.417969 159.886719 328.246094 159.433594 328.996094 159.132812 C 329.75 158.832031 330.878906 158.832031 331.632812 159.132812 C 332.457031 159.433594 333.285156 160.261719 333.664062 160.863281 C 333.964844 161.464844 334.113281 162.667969 334.113281 162.667969 "/></clipPath><clipPath id="0eaaad8ca6"><path d="M 71.457031 192.3125 L 160.480469 192.3125 L 160.480469 202.578125 L 71.457031 202.578125 Z M 71.457031 192.3125 "/></clipPath><clipPath id="fa8ada4b46"><path d="M 75.648438 192.316406 C 103.039062 195.550781 119.894531 195.175781 131.40625 194.796875 C 140.660156 194.496094 152.625 192.84375 156.535156 193.292969 C 157.742188 193.445312 158.191406 193.445312 158.792969 193.972656 C 159.546875 194.574219 160.375 196.078125 160.449219 197.054688 C 160.523438 197.882812 160.222656 198.785156 159.621094 199.386719 C 159.019531 200.066406 157.441406 200.816406 156.460938 200.816406 C 155.632812 200.816406 154.804688 200.441406 154.203125 199.914062 C 153.527344 199.164062 152.925781 197.582031 152.925781 196.605469 C 153 195.777344 153.375 194.949219 153.980469 194.421875 C 154.730469 193.820312 156.386719 193.21875 157.363281 193.367188 C 158.117188 193.445312 158.945312 193.820312 159.472656 194.496094 C 160.074219 195.25 160.601562 196.90625 160.375 197.882812 C 160.148438 198.9375 159.019531 199.992188 158.042969 200.59375 C 156.988281 201.195312 155.933594 201.042969 154.128906 201.269531 C 149.539062 201.796875 139.230469 202.097656 130.652344 202.324219 C 120.195312 202.550781 105.070312 202.699219 95.816406 202.324219 C 89.492188 202.097656 84.152344 201.722656 80.164062 201.042969 C 77.605469 200.667969 75.347656 200.367188 73.917969 199.613281 C 72.941406 199.164062 72.261719 198.5625 71.886719 197.882812 C 71.511719 197.132812 71.359375 196.003906 71.585938 195.175781 C 71.734375 194.421875 72.339844 193.445312 73.089844 192.992188 C 73.769531 192.542969 75.648438 192.316406 75.648438 192.316406 "/></clipPath><clipPath id="8b9355b29b"><path d="M 149.242188 192.394531 L 223.84375 192.394531 L 223.84375 202.128906 L 149.242188 202.128906 Z M 149.242188 192.394531 "/></clipPath><clipPath id="b8cbc163d5"><path d="M 153 193.59375 C 221.398438 192.617188 221.773438 192.691406 222.375 193.21875 C 223.054688 193.820312 223.804688 195.402344 223.804688 196.378906 C 223.804688 197.207031 223.503906 198.035156 222.902344 198.636719 C 222.226562 199.3125 220.71875 200.066406 219.667969 199.914062 C 218.613281 199.839844 217.257812 198.785156 216.734375 197.960938 C 216.28125 197.28125 216.207031 196.304688 216.355469 195.550781 C 216.507812 194.875 216.957031 193.972656 217.484375 193.445312 C 218.011719 192.917969 218.914062 192.542969 219.667969 192.464844 C 220.417969 192.390625 221.324219 192.464844 222 192.992188 C 222.828125 193.519531 223.65625 195.023438 223.804688 196.003906 C 223.957031 196.832031 223.65625 197.65625 223.203125 198.335938 C 222.601562 199.085938 221.847656 199.464844 220.042969 199.992188 C 212.21875 201.945312 160.824219 203 153 201.121094 C 151.269531 200.667969 150.515625 200.292969 149.914062 199.464844 C 149.386719 198.785156 149.164062 197.734375 149.3125 196.90625 C 149.386719 196.078125 149.914062 195.101562 150.515625 194.574219 C 151.195312 193.972656 153 193.59375 153 193.59375 "/></clipPath><clipPath id="bbb5855e0a"><path d="M 212.292969 192.015625 L 304.167969 192.015625 L 304.167969 200.648438 L 212.292969 200.648438 Z M 212.292969 192.015625 "/></clipPath><clipPath id="70fbd86434"><path d="M 216.054688 192.464844 C 297.320312 191.863281 299.953125 191.9375 301.757812 192.691406 C 302.660156 193.144531 303.265625 193.519531 303.640625 194.195312 C 304.089844 195.101562 304.242188 196.832031 303.941406 197.734375 C 303.640625 198.484375 302.960938 199.164062 302.285156 199.539062 C 301.683594 199.914062 300.78125 200.140625 299.953125 199.992188 C 298.976562 199.765625 297.546875 198.863281 297.09375 197.957031 C 296.640625 196.980469 296.640625 195.324219 297.167969 194.421875 C 297.695312 193.519531 299.125 192.617188 300.179688 192.464844 C 301.15625 192.390625 302.738281 193.066406 303.414062 193.894531 C 304.015625 194.722656 304.242188 196.378906 304.089844 197.355469 C 303.867188 198.109375 303.265625 198.863281 302.660156 199.3125 C 302.058594 199.765625 301.382812 199.914062 300.40625 199.992188 C 298.597656 200.140625 296.792969 199.386719 293.03125 199.164062 C 280.992188 198.5625 224.558594 202.023438 216.054688 199.992188 C 214.25 199.539062 213.570312 199.085938 212.96875 198.335938 C 212.445312 197.65625 212.21875 196.605469 212.367188 195.777344 C 212.445312 194.949219 212.96875 193.894531 213.570312 193.367188 C 214.175781 192.84375 216.054688 192.464844 216.054688 192.464844 "/></clipPath><clipPath id="6689df18b9"><path d="M 91.210938 213.714844 L 112.609375 213.714844 L 112.609375 261.644531 L 91.210938 261.644531 Z M 91.210938 213.714844 "/></clipPath><clipPath id="201e4dc5ba"><path d="M 91.222656 257.628906 C 93.480469 247.996094 95.664062 244.460938 97.46875 239.945312 C 99.953125 233.550781 102.886719 219.703125 105.371094 216.09375 C 106.273438 214.738281 107.175781 214.136719 108.078125 213.910156 C 108.679688 213.683594 109.285156 213.761719 109.886719 213.910156 C 110.5625 214.210938 111.617188 214.8125 111.992188 215.566406 C 112.445312 216.394531 112.59375 218.125 112.292969 219.027344 C 111.992188 219.855469 111.164062 220.609375 110.410156 220.984375 C 109.734375 221.285156 108.757812 221.433594 108.003906 221.210938 C 107.101562 220.984375 105.746094 219.855469 105.296875 218.953125 C 104.996094 218.273438 104.996094 217.296875 105.21875 216.542969 C 105.371094 215.867188 105.898438 215.039062 106.5 214.589844 C 107.101562 214.136719 108.078125 213.835938 108.832031 213.835938 C 109.585938 213.761719 110.488281 213.984375 111.089844 214.589844 C 111.839844 215.191406 112.519531 216.769531 112.59375 217.75 C 112.59375 218.574219 112.21875 219.402344 111.691406 220.003906 C 111.015625 220.683594 109.433594 221.433594 108.378906 221.285156 C 107.402344 221.210938 106.046875 220.15625 105.519531 219.328125 C 105.070312 218.652344 104.996094 217.671875 105.070312 216.996094 C 105.21875 216.242188 106.273438 214.890625 106.199219 214.8125 C 106.199219 214.8125 105.296875 216.019531 105.371094 216.09375 C 105.371094 216.09375 106.425781 214.511719 107.175781 214.136719 C 107.929688 213.835938 109.058594 213.683594 109.886719 213.910156 C 110.636719 214.210938 111.539062 214.8125 111.992188 215.566406 C 112.445312 216.242188 112.59375 216.84375 112.519531 218.199219 C 112.292969 222.113281 107.175781 235.808594 104.769531 242.050781 C 103.113281 246.265625 101.230469 249.199219 100.101562 252.4375 C 99.125 255.070312 99.199219 258.378906 98.222656 259.808594 C 97.621094 260.714844 96.867188 261.238281 96.117188 261.464844 C 95.289062 261.691406 94.160156 261.617188 93.40625 261.316406 C 92.878906 261.089844 92.351562 260.714844 92.050781 260.1875 C 91.601562 259.585938 91.222656 257.628906 91.222656 257.628906 "/></clipPath><clipPath id="12e1376610"><path d="M 104.382812 210.285156 L 139.238281 210.285156 L 139.238281 247.355469 L 104.382812 247.355469 Z M 104.382812 210.285156 "/></clipPath><clipPath id="0bdb5c677e"><path d="M 106.726562 213.460938 C 120.269531 210.375 128.019531 210.148438 131.554688 210.601562 C 133.4375 210.902344 134.566406 211.125 135.769531 211.878906 C 136.898438 212.632812 138.027344 213.761719 138.628906 214.964844 C 139.15625 216.167969 139.15625 217.597656 139.003906 218.878906 C 138.855469 220.230469 138.402344 220.984375 137.652344 222.789062 C 135.769531 227.304688 129.148438 242.503906 126.738281 245.511719 C 125.988281 246.492188 125.6875 246.867188 124.933594 247.09375 C 123.957031 247.394531 122.300781 247.320312 121.398438 246.71875 C 120.570312 246.117188 119.742188 244.609375 119.742188 243.632812 C 119.742188 242.578125 120.644531 241.074219 121.398438 240.472656 C 122.074219 240.019531 122.976562 239.796875 123.730469 239.871094 C 124.484375 239.871094 125.386719 240.171875 125.988281 240.773438 C 126.664062 241.449219 127.417969 242.957031 127.265625 244.007812 C 127.191406 245.0625 126.214844 246.417969 125.308594 246.941406 C 124.332031 247.394531 122.675781 247.320312 121.773438 246.941406 C 121.019531 246.640625 120.417969 245.890625 120.117188 245.210938 C 119.816406 244.460938 119.667969 243.933594 119.894531 242.804688 C 120.417969 239.269531 127.867188 226.101562 129.296875 221.886719 C 129.824219 220.15625 130.804688 218.953125 130.125 218.125 C 128.773438 216.542969 118.914062 218.050781 114.777344 218.652344 C 111.765625 219.027344 108.832031 220.910156 107.175781 220.53125 C 106.121094 220.308594 105.445312 219.480469 105.070312 218.878906 C 104.695312 218.351562 104.542969 217.75 104.542969 217.144531 C 104.46875 216.542969 104.542969 215.941406 104.84375 215.339844 C 105.21875 214.664062 106.726562 213.460938 106.726562 213.460938 "/></clipPath><clipPath id="09a4c656d0"><path d="M 120.070312 240.125 L 139.648438 240.125 L 139.648438 248.21875 L 120.070312 248.21875 Z M 120.070312 240.125 "/></clipPath><clipPath id="083a7f34bf"><path d="M 123.878906 240.171875 C 136.898438 240.398438 137.5 240.472656 138.101562 241 C 138.703125 241.449219 139.304688 242.203125 139.457031 242.957031 C 139.683594 243.707031 139.605469 244.609375 139.304688 245.363281 C 139.082031 246.039062 138.402344 246.792969 137.800781 247.167969 C 137.125 247.546875 136.222656 247.847656 135.46875 247.695312 C 134.488281 247.546875 133.0625 246.566406 132.535156 245.738281 C 132.082031 245.0625 132.007812 244.082031 132.15625 243.332031 C 132.234375 242.578125 132.683594 241.75 133.285156 241.222656 C 133.8125 240.699219 134.714844 240.320312 135.46875 240.246094 C 136.222656 240.171875 137.125 240.246094 137.800781 240.773438 C 138.554688 241.300781 139.457031 242.804688 139.605469 243.78125 C 139.683594 244.535156 139.382812 245.4375 138.929688 246.039062 C 138.554688 246.71875 138.027344 247.167969 137.046875 247.546875 C 134.714844 248.371094 126.664062 248.371094 123.878906 247.695312 C 122.449219 247.394531 121.398438 246.867188 120.796875 246.117188 C 120.269531 245.4375 120.042969 244.308594 120.117188 243.480469 C 120.269531 242.652344 120.796875 241.675781 121.398438 241.148438 C 122 240.621094 123.878906 240.171875 123.878906 240.171875 "/></clipPath><clipPath id="19bae3d134"><path d="M 96.179688 241.289062 L 139 241.289062 L 139 295.972656 L 96.179688 295.972656 Z M 96.179688 241.289062 "/></clipPath><clipPath id="8f81afccd7"><path d="M 96.941406 290.058594 C 117.183594 266.128906 128.019531 246.039062 132.535156 242.578125 C 133.886719 241.527344 134.792969 241.300781 135.84375 241.449219 C 136.898438 241.601562 138.253906 242.652344 138.703125 243.558594 C 139.082031 244.535156 138.929688 246.191406 138.476562 247.09375 C 138.175781 247.847656 137.347656 248.371094 136.671875 248.671875 C 135.996094 248.976562 135.015625 248.976562 134.265625 248.824219 C 133.511719 248.597656 132.757812 248.070312 132.308594 247.46875 C 131.78125 246.867188 131.40625 245.964844 131.480469 245.210938 C 131.554688 244.234375 132.308594 242.652344 133.136719 242.050781 C 133.964844 241.449219 135.695312 241.300781 136.671875 241.675781 C 137.574219 242.050781 138.703125 243.105469 138.929688 244.308594 C 139.230469 246.191406 137.574219 248.976562 135.769531 252.210938 C 132.308594 258.605469 122.976562 271.171875 116.882812 278.773438 C 111.992188 284.867188 105.671875 292.617188 102.660156 294.796875 C 101.683594 295.550781 101.082031 295.777344 100.253906 295.777344 C 99.425781 295.851562 98.371094 295.476562 97.695312 294.949219 C 97.09375 294.421875 96.492188 293.445312 96.339844 292.691406 C 96.265625 291.863281 96.941406 290.058594 96.941406 290.058594 "/></clipPath><clipPath id="74f3198d98"><path d="M 92.003906 254.042969 L 113.273438 254.042969 L 113.273438 262.140625 L 92.003906 262.140625 Z M 92.003906 254.042969 "/></clipPath><clipPath id="ffae4415c9"><path d="M 95.738281 254.089844 C 110.5625 254.316406 111.164062 254.390625 111.765625 254.917969 C 112.367188 255.371094 112.894531 256.121094 113.046875 256.875 C 113.269531 257.628906 113.195312 258.605469 112.96875 259.285156 C 112.667969 259.960938 112.066406 260.710938 111.390625 261.089844 C 110.714844 261.464844 109.808594 261.765625 109.058594 261.617188 C 108.078125 261.464844 106.648438 260.488281 106.121094 259.660156 C 105.671875 258.980469 105.597656 258.003906 105.746094 257.25 C 105.898438 256.5 106.347656 255.671875 106.875 255.144531 C 107.402344 254.617188 108.304688 254.242188 109.058594 254.167969 C 109.808594 254.089844 110.714844 254.167969 111.390625 254.691406 C 112.21875 255.21875 113.046875 256.726562 113.195312 257.703125 C 113.347656 258.457031 112.96875 259.359375 112.59375 259.960938 C 112.144531 260.636719 111.691406 261.089844 110.636719 261.464844 C 108.078125 262.292969 98.824219 262.367188 95.738281 261.617188 C 94.308594 261.316406 93.257812 260.789062 92.652344 260.035156 C 92.128906 259.359375 91.902344 258.230469 92.050781 257.402344 C 92.128906 256.574219 92.652344 255.597656 93.257812 255.070312 C 93.859375 254.542969 95.738281 254.089844 95.738281 254.089844 "/></clipPath><clipPath id="8c4b8c2218"><path d="M 96.300781 255.542969 L 112.625 255.542969 L 112.625 294.390625 L 96.300781 294.390625 Z M 96.300781 255.542969 "/></clipPath><clipPath id="c8608a2c2d"><path d="M 112.59375 259.734375 C 110.1875 271.699219 105.519531 288.476562 103.566406 292.015625 C 102.960938 293.066406 102.660156 293.445312 101.984375 293.820312 C 101.308594 294.195312 100.40625 294.496094 99.652344 294.347656 C 98.671875 294.121094 97.246094 293.144531 96.71875 292.316406 C 96.339844 291.636719 96.265625 290.734375 96.339844 289.984375 C 96.492188 289.230469 96.867188 288.328125 97.546875 287.875 C 98.296875 287.273438 99.953125 286.824219 100.929688 286.898438 C 101.683594 287.046875 102.511719 287.574219 102.960938 288.175781 C 103.488281 288.777344 103.867188 289.605469 103.867188 290.433594 C 103.789062 291.414062 103.1875 292.992188 102.285156 293.59375 C 101.457031 294.273438 99.800781 294.421875 98.824219 294.121094 C 98.070312 293.972656 97.394531 293.292969 96.941406 292.691406 C 96.492188 292.015625 96.339844 291.5625 96.339844 290.359375 C 96.339844 285.769531 103.039062 261.089844 105.746094 257.25 C 106.5 256.199219 107.101562 255.898438 107.929688 255.671875 C 108.757812 255.519531 109.808594 255.597656 110.5625 255.972656 C 111.316406 256.347656 112.066406 257.25 112.367188 257.929688 C 112.667969 258.53125 112.59375 259.734375 112.59375 259.734375 "/></clipPath><clipPath id="7795557932"><path d="M 199.328125 197.710938 L 223.785156 197.710938 L 223.785156 231 L 199.328125 231 Z M 199.328125 197.710938 "/></clipPath><clipPath id="f77ed333c7"><path d="M 212.140625 202.023438 C 207.703125 224.820312 208.832031 222.789062 210.261719 222.414062 C 212.59375 221.734375 217.859375 222.039062 219.96875 222.414062 C 221.019531 222.5625 221.625 222.640625 222.226562 223.164062 C 222.976562 223.84375 223.730469 225.347656 223.730469 226.328125 C 223.730469 227.152344 223.355469 227.980469 222.828125 228.582031 C 222.375 229.183594 221.546875 229.710938 220.796875 229.863281 C 219.816406 229.9375 218.164062 229.636719 217.410156 228.882812 C 216.65625 228.207031 216.207031 226.550781 216.28125 225.574219 C 216.355469 224.746094 216.808594 223.917969 217.410156 223.390625 C 217.9375 222.863281 218.839844 222.488281 219.589844 222.414062 C 220.34375 222.339844 221.246094 222.5625 221.925781 222.941406 C 222.601562 223.316406 223.203125 223.992188 223.503906 224.746094 C 223.730469 225.722656 223.578125 227.378906 223.054688 228.28125 C 222.675781 228.960938 222.226562 229.335938 221.171875 229.710938 C 218.164062 230.765625 205.144531 231.742188 201.910156 230.089844 C 200.40625 229.335938 199.878906 228.433594 199.5 226.628906 C 198.523438 222.039062 203.039062 203.828125 204.996094 200.140625 C 205.519531 198.9375 206.046875 198.484375 206.726562 198.183594 C 207.476562 197.808594 208.605469 197.65625 209.433594 197.882812 C 210.1875 198.109375 211.089844 198.710938 211.617188 199.390625 C 212.066406 200.140625 212.140625 202.023438 212.140625 202.023438 "/></clipPath><clipPath id="75cb774bc8"><path d="M 203.292969 222.066406 L 222.921875 222.066406 L 222.921875 262.121094 L 203.292969 262.121094 Z M 203.292969 222.066406 "/></clipPath><clipPath id="a86f52883c"><path d="M 222.902344 226.402344 C 220.042969 235.957031 215.226562 244.6875 213.347656 249.878906 C 211.992188 253.640625 211.617188 257.855469 210.636719 259.734375 C 210.109375 260.714844 209.660156 261.164062 208.980469 261.539062 C 208.378906 261.917969 207.476562 262.21875 206.648438 261.992188 C 205.671875 261.839844 204.316406 260.789062 203.789062 259.960938 C 203.339844 259.285156 203.265625 258.378906 203.414062 257.628906 C 203.714844 256.648438 204.769531 255.296875 205.671875 254.84375 C 206.347656 254.46875 207.25 254.390625 208.003906 254.617188 C 208.980469 254.917969 210.335938 256.046875 210.636719 256.949219 C 211.015625 257.929688 210.789062 259.660156 210.1875 260.488281 C 209.585938 261.316406 208.003906 261.992188 207.101562 262.066406 C 206.273438 262.144531 205.371094 261.691406 204.769531 261.238281 C 204.242188 260.789062 203.640625 260.261719 203.488281 259.207031 C 203.113281 256.726562 205.21875 250.628906 206.875 245.664062 C 209.058594 239.117188 213.648438 226.628906 216.128906 223.691406 C 216.882812 222.714844 217.484375 222.414062 218.3125 222.1875 C 219.140625 222.039062 220.269531 222.1875 220.945312 222.5625 C 221.699219 222.941406 222.375 223.84375 222.675781 224.59375 C 222.976562 225.121094 222.902344 226.402344 222.902344 226.402344 "/></clipPath><clipPath id="504fa0b607"><path d="M 203.257812 207.582031 L 249.695312 207.582031 L 249.695312 262.171875 L 203.257812 262.171875 Z M 203.257812 207.582031 "/></clipPath><clipPath id="2c9609ead0"><path d="M 204.46875 255.671875 C 220.417969 241 227.039062 233.851562 231.78125 227.453125 C 236.222656 221.433594 240.433594 211.277344 242.992188 208.871094 C 243.820312 208.117188 244.347656 207.890625 245.101562 207.742188 C 245.851562 207.664062 246.753906 207.742188 247.433594 208.117188 C 248.261719 208.644531 249.238281 210.074219 249.464844 211.050781 C 249.613281 211.878906 249.386719 212.78125 248.9375 213.382812 C 248.335938 214.210938 246.980469 215.191406 245.925781 215.191406 C 244.875 215.265625 243.367188 214.589844 242.691406 213.761719 C 242.089844 212.933594 241.789062 211.277344 242.164062 210.300781 C 242.464844 209.320312 243.746094 208.191406 244.722656 207.816406 C 245.476562 207.589844 246.378906 207.664062 247.054688 207.964844 C 247.808594 208.265625 248.5625 208.792969 248.9375 209.546875 C 249.386719 210.375 249.464844 211.503906 249.164062 213.007812 C 248.261719 216.621094 243.671875 223.84375 239.605469 229.488281 C 234.566406 236.558594 226.289062 245.816406 220.417969 251.609375 C 216.054688 255.898438 210.636719 260.9375 208.304688 261.917969 C 207.476562 262.21875 207.101562 262.140625 206.5 261.992188 C 205.746094 261.839844 204.695312 261.316406 204.167969 260.636719 C 203.714844 259.960938 203.339844 258.90625 203.414062 258.078125 C 203.414062 257.25 204.46875 255.671875 204.46875 255.671875 "/></clipPath><clipPath id="d346140466"><path d="M 225 195.757812 L 249.550781 195.757812 L 249.550781 215.285156 L 225 215.285156 Z M 225 195.757812 "/></clipPath><clipPath id="be0dbf2bf7"><path d="M 245.703125 215.265625 C 226.816406 212.78125 225.6875 211.804688 225.160156 210.675781 C 224.785156 209.546875 225.234375 208.117188 225.761719 206.535156 C 226.664062 204.054688 229.375 199.386719 231.105469 197.65625 C 232.15625 196.605469 233.0625 195.851562 234.113281 195.777344 C 235.167969 195.703125 236.671875 196.378906 237.347656 197.207031 C 237.953125 198.035156 238.253906 199.691406 237.953125 200.667969 C 237.652344 201.644531 236.445312 202.851562 235.46875 203.152344 C 234.414062 203.453125 232.757812 203.074219 232.007812 202.398438 C 231.179688 201.796875 230.503906 200.214844 230.652344 199.164062 C 230.726562 198.109375 231.632812 196.753906 232.535156 196.226562 C 233.511719 195.703125 235.167969 195.777344 236.070312 196.152344 C 236.824219 196.453125 237.425781 197.207031 237.800781 197.882812 C 238.101562 198.5625 238.175781 199.386719 238.101562 200.292969 C 237.875 201.496094 237.125 202.925781 236.371094 204.429688 C 235.316406 206.386719 232.535156 210.976562 231.933594 210.75 C 231.554688 210.675781 231.179688 207.363281 232.15625 206.535156 C 233.886719 204.957031 243.972656 206.835938 246.605469 207.816406 C 247.734375 208.191406 248.335938 208.644531 248.785156 209.320312 C 249.3125 210 249.539062 211.125 249.464844 211.953125 C 249.3125 212.78125 248.863281 213.761719 248.183594 214.285156 C 247.582031 214.8125 245.703125 215.265625 245.703125 215.265625 "/></clipPath><clipPath id="50003ca38b"><path d="M 56.21875 225.03125 L 80.257812 225.03125 L 80.257812 256.417969 L 56.21875 256.417969 Z M 56.21875 225.03125 "/></clipPath><clipPath id="58c313cb3d"><path d="M 78.507812 231.96875 C 66.769531 243.257812 63.761719 246.265625 64.210938 247.46875 C 64.4375 248.296875 66.996094 249.199219 67.824219 248.671875 C 69.027344 247.996094 68.425781 243.632812 69.101562 240.621094 C 70.003906 236.710938 71.433594 229.710938 73.242188 227.378906 C 74.144531 226.25 75.199219 225.648438 76.25 225.574219 C 77.304688 225.5 78.808594 226.175781 79.488281 227.003906 C 80.089844 227.832031 80.3125 229.488281 80.089844 230.464844 C 79.863281 231.21875 79.261719 231.96875 78.660156 232.421875 C 77.980469 232.796875 77.152344 233.171875 76.328125 233.097656 C 75.347656 232.949219 73.84375 232.195312 73.316406 231.292969 C 72.714844 230.390625 72.714844 228.660156 73.015625 227.753906 C 73.316406 227.003906 73.992188 226.328125 74.671875 226.023438 C 75.347656 225.648438 76.25 225.421875 77.078125 225.574219 C 77.980469 225.800781 79.410156 226.851562 79.863281 227.679688 C 80.3125 228.359375 80.238281 228.882812 80.164062 230.089844 C 79.9375 233.324219 77.304688 243.78125 75.273438 248.296875 C 73.917969 251.308594 72.863281 253.867188 70.757812 255.144531 C 68.726562 256.425781 65.039062 256.425781 62.933594 256.199219 C 61.503906 256.046875 60.375 255.597656 59.394531 254.917969 C 58.34375 254.242188 57.289062 253.113281 56.835938 251.984375 C 56.3125 250.929688 56.234375 249.5 56.3125 248.296875 C 56.386719 247.019531 56.535156 245.890625 57.289062 244.460938 C 58.417969 241.902344 61.429688 237.988281 64.136719 234.980469 C 67.070312 231.742188 71.886719 226.929688 74.292969 225.722656 C 75.347656 225.121094 76.023438 224.972656 76.929688 225.121094 C 77.90625 225.273438 79.261719 226.328125 79.789062 227.152344 C 80.164062 227.90625 80.238281 229.035156 80.011719 229.789062 C 79.789062 230.613281 78.507812 231.96875 78.507812 231.96875 "/></clipPath><clipPath id="50f01adcf1"><path d="M 150.75 225.503906 L 172 225.503906 L 172 256.59375 L 150.75 256.59375 Z M 150.75 225.503906 "/></clipPath><clipPath id="6605e9351e"><path d="M 169.027344 232.269531 C 160.976562 241.300781 159.09375 244.007812 158.492188 246.039062 C 158.117188 247.46875 158.042969 249.726562 158.417969 249.878906 C 158.871094 250.027344 160.449219 247.847656 161.125 246.640625 C 161.804688 245.511719 162.03125 244.6875 162.480469 243.03125 C 163.382812 239.796875 163.460938 230.464844 165.191406 228.207031 C 166.09375 227.078125 167.371094 226.628906 168.425781 226.703125 C 169.480469 226.777344 170.910156 227.605469 171.433594 228.507812 C 171.960938 229.410156 172.039062 231.140625 171.660156 232.042969 C 171.210938 233.023438 169.855469 234 168.800781 234.152344 C 167.824219 234.378906 166.167969 233.777344 165.492188 233.023438 C 164.738281 232.269531 164.285156 230.691406 164.511719 229.636719 C 164.738281 228.660156 165.941406 227.378906 166.84375 227.003906 C 167.523438 226.628906 168.5 226.628906 169.253906 226.851562 C 169.929688 227.078125 170.757812 227.605469 171.210938 228.207031 C 171.660156 228.808594 171.886719 229.335938 171.960938 230.464844 C 172.1875 233.25 170.832031 241.601562 169.554688 245.664062 C 168.652344 248.597656 167.371094 251.082031 166.167969 252.960938 C 165.414062 254.242188 164.964844 255.296875 163.683594 255.898438 C 161.953125 256.726562 157.964844 256.574219 155.933594 256.125 C 154.503906 255.746094 153.300781 255.070312 152.472656 254.167969 C 151.644531 253.265625 151.121094 252.058594 150.894531 250.554688 C 150.59375 248.523438 150.816406 245.511719 151.722656 242.804688 C 152.851562 239.570312 155.632812 235.65625 157.964844 232.796875 C 160 230.238281 162.554688 227.152344 164.589844 226.175781 C 165.867188 225.574219 167.144531 225.421875 168.050781 225.648438 C 168.878906 225.949219 169.703125 226.703125 170.082031 227.378906 C 170.53125 228.132812 170.683594 229.261719 170.457031 230.089844 C 170.304688 230.839844 169.027344 232.269531 169.027344 232.269531 "/></clipPath><clipPath id="5b821062c8"><path d="M 122.316406 279.613281 L 145.460938 279.613281 L 145.460938 313.195312 L 122.316406 313.195312 Z M 122.316406 279.613281 "/></clipPath><clipPath id="50fc7fe0dd"><path d="M 143.746094 286.296875 C 132.609375 298.261719 130.125 300.894531 130.203125 302.625 C 130.277344 303.828125 131.78125 305.632812 132.535156 305.632812 C 133.363281 305.632812 134.339844 303.980469 135.015625 302.324219 C 136.371094 299.164062 136.371094 290.058594 137.347656 286.597656 C 137.800781 284.792969 138.175781 283.511719 138.929688 282.683594 C 139.457031 282.007812 140.207031 281.554688 141.035156 281.554688 C 142.015625 281.40625 143.671875 281.855469 144.347656 282.609375 C 145.101562 283.363281 145.550781 285.015625 145.324219 285.996094 C 145.101562 287.046875 143.972656 288.253906 143.066406 288.703125 C 142.316406 289.082031 141.414062 289.082031 140.660156 288.855469 C 139.90625 288.628906 139.082031 288.175781 138.703125 287.5 C 138.175781 286.671875 137.875 285.015625 138.101562 284.039062 C 138.253906 283.285156 138.929688 282.535156 139.53125 282.15625 C 140.132812 281.707031 141.113281 281.40625 141.863281 281.480469 C 142.617188 281.480469 143.519531 281.78125 144.121094 282.382812 C 144.796875 283.0625 145.25 284.039062 145.402344 285.617188 C 145.777344 289.382812 143.894531 300.367188 142.015625 305.03125 C 140.886719 307.890625 139.304688 310.222656 137.726562 311.578125 C 136.597656 312.480469 135.316406 312.933594 134.113281 313.082031 C 132.835938 313.308594 131.480469 313.082031 130.203125 312.707031 C 128.921875 312.40625 127.644531 311.878906 126.515625 311.203125 C 125.386719 310.523438 124.257812 309.773438 123.578125 308.644531 C 122.753906 307.441406 122.449219 305.410156 122.375 303.902344 C 122.375 302.550781 122.601562 301.570312 123.054688 300.140625 C 123.804688 298.109375 125.160156 295.703125 127.039062 293.144531 C 129.75 289.382812 136.222656 282.308594 138.855469 280.578125 C 139.90625 279.898438 140.511719 279.675781 141.335938 279.675781 C 142.242188 279.675781 143.21875 280.125 143.820312 280.652344 C 144.421875 281.253906 145.023438 282.234375 145.023438 283.0625 C 145.101562 284.039062 143.746094 286.296875 143.746094 286.296875 "/></clipPath><clipPath id="4f0b92233b"><path d="M 174.617188 261.640625 L 197.9375 261.640625 L 197.9375 293 L 174.617188 293 Z M 174.617188 261.640625 "/></clipPath><clipPath id="f91ea827c6"><path d="M 196.191406 268.164062 C 184.679688 279.898438 181.894531 283.285156 182.347656 284.414062 C 182.722656 285.167969 185.28125 285.542969 186.183594 285.09375 C 187.085938 284.566406 187.238281 282.984375 187.761719 281.179688 C 188.890625 277.417969 189.34375 265.605469 191 263.121094 C 191.601562 262.21875 192.203125 261.917969 193.03125 261.765625 C 194.007812 261.617188 195.664062 261.917969 196.417969 262.59375 C 197.246094 263.269531 197.769531 264.925781 197.695312 265.90625 C 197.695312 266.65625 197.246094 267.484375 196.71875 268.085938 C 196.117188 268.613281 195.363281 269.066406 194.535156 269.140625 C 193.558594 269.214844 191.902344 268.765625 191.222656 268.011719 C 190.546875 267.257812 190.171875 265.527344 190.320312 264.550781 C 190.398438 263.796875 191 263.046875 191.601562 262.519531 C 192.128906 262.066406 193.03125 261.691406 193.78125 261.691406 C 194.609375 261.617188 195.511719 261.839844 196.117188 262.367188 C 196.867188 262.96875 197.46875 263.949219 197.769531 265.453125 C 198.296875 268.988281 196.417969 279.296875 194.761719 283.886719 C 193.632812 286.898438 192.128906 289.382812 190.472656 290.8125 C 189.34375 291.863281 188.289062 292.242188 186.785156 292.617188 C 184.679688 293.066406 180.917969 293.144531 178.960938 292.464844 C 177.605469 292.015625 176.550781 291.1875 175.875 290.207031 C 175.121094 289.15625 174.820312 287.5 174.671875 286.144531 C 174.59375 284.867188 174.671875 283.886719 175.199219 282.382812 C 176.101562 279.75 178.660156 275.308594 181.292969 272.074219 C 184.078125 268.539062 189.269531 263.347656 191.75 262.140625 C 192.804688 261.617188 193.558594 261.539062 194.386719 261.765625 C 195.136719 261.917969 196.117188 262.519531 196.566406 263.195312 C 197.09375 263.875 197.394531 264.925781 197.320312 265.753906 C 197.246094 266.582031 196.191406 268.164062 196.191406 268.164062 "/></clipPath><clipPath id="da63867f76"><path d="M 228 267.007812 L 249.578125 267.007812 L 249.578125 296.617188 L 228 296.617188 Z M 228 267.007812 "/></clipPath><clipPath id="9a86bda92b"><path d="M 247.28125 273.878906 C 240.8125 279.675781 235.542969 284.1875 235.695312 286.222656 C 235.695312 287.425781 237.574219 289.078125 238.402344 288.855469 C 240.285156 288.253906 240.433594 271.847656 242.691406 269.066406 C 243.59375 267.9375 244.875 267.558594 245.925781 267.636719 C 246.90625 267.710938 248.410156 268.539062 248.9375 269.441406 C 249.464844 270.34375 249.539062 272.074219 249.085938 272.976562 C 248.636719 273.957031 247.28125 274.933594 246.304688 275.085938 C 245.25 275.234375 243.671875 274.707031 242.917969 273.957031 C 242.242188 273.203125 241.789062 271.546875 242.015625 270.570312 C 242.242188 269.515625 243.445312 268.3125 244.273438 267.859375 C 245.023438 267.558594 246.003906 267.558594 246.679688 267.785156 C 247.433594 268.011719 248.261719 268.539062 248.710938 269.140625 C 249.164062 269.742188 249.386719 270.269531 249.464844 271.398438 C 249.691406 274.332031 248.335938 283.285156 246.832031 287.425781 C 245.777344 290.359375 244.121094 292.917969 242.542969 294.421875 C 241.5625 295.402344 240.511719 295.925781 239.304688 296.304688 C 238.027344 296.605469 236.523438 296.605469 235.167969 296.378906 C 233.8125 296.078125 232.308594 295.550781 231.179688 294.722656 C 230.125 294.046875 229.222656 292.992188 228.695312 291.863281 C 228.09375 290.507812 227.945312 288.554688 228.019531 287.046875 C 228.019531 285.695312 228.320312 284.414062 228.773438 283.285156 C 229.222656 282.082031 229.75 281.253906 230.652344 279.976562 C 232.308594 277.71875 236.070312 273.503906 238.554688 271.246094 C 240.359375 269.589844 242.164062 267.859375 243.671875 267.335938 C 244.648438 267.035156 245.550781 267.035156 246.378906 267.335938 C 247.132812 267.558594 247.957031 268.3125 248.410156 268.988281 C 248.785156 269.742188 248.9375 270.871094 248.785156 271.699219 C 248.5625 272.449219 247.28125 273.878906 247.28125 273.878906 "/></clipPath><clipPath id="bf0e5326cc"><path d="M 263.429688 209.410156 L 285.265625 209.410156 L 285.265625 241.683594 L 263.429688 241.683594 Z M 263.429688 209.410156 "/></clipPath><clipPath id="9a2ff64e7f"><path d="M 282.871094 216.320312 C 277.378906 221.359375 275.421875 223.617188 274.144531 225.875 C 272.789062 228.207031 270.304688 232.042969 270.984375 233.324219 C 271.359375 234.226562 273.769531 234.753906 274.671875 234.300781 C 275.648438 233.851562 275.949219 232.347656 276.402344 230.613281 C 277.453125 226.851562 276.324219 214.8125 278.207031 212.105469 C 279.035156 210.976562 280.464844 210.675781 281.441406 210.675781 C 282.195312 210.601562 283.097656 211.050781 283.625 211.503906 C 284.226562 212.03125 284.753906 212.855469 284.902344 213.609375 C 285.054688 214.363281 285.054688 215.265625 284.601562 216.019531 C 284.152344 216.84375 282.796875 217.898438 281.820312 218.125 C 281.066406 218.273438 280.164062 218.050781 279.488281 217.75 C 278.808594 217.371094 278.058594 216.769531 277.832031 216.019531 C 277.453125 215.039062 277.453125 213.382812 277.980469 212.480469 C 278.507812 211.578125 280.089844 210.75 280.992188 210.675781 C 281.820312 210.523438 282.722656 210.75 283.324219 211.277344 C 284.078125 211.878906 284.679688 212.933594 284.980469 214.4375 C 285.65625 217.449219 284.828125 225.046875 284.152344 229.183594 C 283.699219 232.195312 283.25 235.054688 282.269531 236.859375 C 281.519531 238.214844 280.691406 238.96875 279.710938 239.796875 C 278.660156 240.546875 277.605469 241.300781 276.101562 241.527344 C 274.070312 241.828125 270.53125 241 268.5 240.171875 C 266.996094 239.570312 265.714844 238.742188 264.890625 237.613281 C 264.0625 236.484375 263.609375 234.753906 263.535156 233.398438 C 263.382812 232.121094 263.683594 231.066406 264.136719 229.636719 C 264.738281 227.53125 265.941406 224.519531 267.449219 221.960938 C 269.328125 219.027344 272.488281 215.191406 274.820312 213.007812 C 276.476562 211.503906 278.132812 210.074219 279.5625 209.621094 C 280.539062 209.320312 281.519531 209.472656 282.269531 209.695312 C 282.871094 209.921875 283.324219 210.222656 283.699219 210.75 C 284.152344 211.351562 284.679688 212.40625 284.601562 213.308594 C 284.527344 214.285156 282.871094 216.320312 282.871094 216.320312 "/></clipPath></defs><g id="57c6536c03"><g clip-rule="nonzero" clip-path="url(#e4f5fb1869)"><g clip-rule="nonzero" clip-path="url(#f186c2b496)"><path style=" stroke:none;fill-rule:nonzero;fill:currentColor;fill-opacity:1;" d="M 37.5 130.839844 L 82.949219 130.839844 L 82.949219 203.273438 L 37.5 203.273438 Z M 37.5 130.839844 "/></g></g><g clip-rule="nonzero" clip-path="url(#6a4db7b202)"><g clip-rule="nonzero" clip-path="url(#d3625552f0)"><path style=" stroke:none;fill-rule:nonzero;fill:currentColor;fill-opacity:1;" d="M 38.554688 105.183594 L 107.609375 105.183594 L 107.609375 149.050781 L 38.554688 149.050781 Z M 38.554688 105.183594 "/></g></g><g clip-rule="nonzero" clip-path="url(#ab92f50320)"><g clip-rule="nonzero" clip-path="url(#f058988edc)"><path style=" stroke:none;fill-rule:nonzero;fill:currentColor;fill-opacity:1;" d="M 95.964844 65.828125 L 151.839844 65.828125 L 151.839844 119.402344 L 95.964844 119.402344 Z M 95.964844 65.828125 "/></g></g><g clip-rule="nonzero" clip-path="url(#3e229c172c)"><g clip-rule="nonzero" clip-path="url(#62be2ad3d5)"><path style=" stroke:none;fill-rule:nonzero;fill:currentColor;fill-opacity:1;" d="M 134.566406 63.722656 L 193.75 63.722656 L 193.75 86.070312 L 134.566406 86.070312 Z M 134.566406 63.722656 "/></g></g><g clip-rule="nonzero" clip-path="url(#4ce7b1e41f)"><g clip-rule="nonzero" clip-path="url(#41134b43a8)"><path style=" stroke:none;fill-rule:nonzero;fill:currentColor;fill-opacity:1;" d="M 179.488281 58.832031 L 243.1875 58.832031 L 243.1875 85.917969 L 179.488281 85.917969 Z M 179.488281 58.832031 "/></g></g><g clip-rule="nonzero" clip-path="url(#22a09f4dd1)"><g clip-rule="nonzero" clip-path="url(#20e024a822)"><path style=" stroke:none;fill-rule:nonzero;fill:currentColor;fill-opacity:1;" d="M 227.417969 63.347656 L 253.527344 63.347656 L 253.527344 105.0625 L 227.417969 105.0625 Z M 227.417969 63.347656 "/></g></g><g clip-rule="nonzero" clip-path="url(#993df8fd89)"><g clip-rule="nonzero" clip-path="url(#252883975a)"><path style=" stroke:none;fill-rule:nonzero;fill:currentColor;fill-opacity:1;" d="M 239.984375 91.636719 L 303.808594 91.636719 L 303.808594 144.007812 L 239.984375 144.007812 Z M 239.984375 91.636719 "/></g></g><g clip-rule="nonzero" clip-path="url(#2cfc8edf74)"><g clip-rule="nonzero" clip-path="url(#101a521ac1)"><path style=" stroke:none;fill-rule:nonzero;fill:currentColor;fill-opacity:1;" d="M 290.171875 130.464844 L 337 130.464844 L 337 173.128906 L 290.171875 173.128906 Z M 290.171875 130.464844 "/></g></g><g clip-rule="nonzero" clip-path="url(#42a8430a66)"><g clip-rule="nonzero" clip-path="url(#9ffef3f780)"><path style=" stroke:none;fill-rule:nonzero;fill:currentColor;fill-opacity:1;" d="M 290.097656 156.121094 L 337.445312 156.121094 L 337.445312 202.925781 L 290.097656 202.925781 Z M 290.097656 156.121094 "/></g></g><g clip-rule="nonzero" clip-path="url(#0eaaad8ca6)"><g clip-rule="nonzero" clip-path="url(#fa8ada4b46)"><path style=" stroke:none;fill-rule:nonzero;fill:currentColor;fill-opacity:1;" d="M 68.574219 189.304688 L 163.550781 189.304688 L 163.550781 205.332031 L 68.574219 205.332031 Z M 68.574219 189.304688 "/></g></g><g clip-rule="nonzero" clip-path="url(#8b9355b29b)"><g clip-rule="nonzero" clip-path="url(#b8cbc163d5)"><path style=" stroke:none;fill-rule:nonzero;fill:currentColor;fill-opacity:1;" d="M 146.304688 189.457031 L 226.898438 189.457031 L 226.898438 204.203125 L 146.304688 204.203125 Z M 146.304688 189.457031 "/></g></g><g clip-rule="nonzero" clip-path="url(#bbb5855e0a)"><g clip-rule="nonzero" clip-path="url(#70fbd86434)"><path style=" stroke:none;fill-rule:nonzero;fill:currentColor;fill-opacity:1;" d="M 209.359375 188.628906 L 307.15625 188.628906 L 307.15625 203.074219 L 209.359375 203.074219 Z M 209.359375 188.628906 "/></g></g><g clip-rule="nonzero" clip-path="url(#6689df18b9)"><g clip-rule="nonzero" clip-path="url(#201e4dc5ba)"><path style=" stroke:none;fill-rule:nonzero;fill:currentColor;fill-opacity:1;" d="M 88.214844 210.824219 L 115.605469 210.824219 L 115.605469 264.535156 L 88.214844 264.535156 Z M 88.214844 210.824219 "/></g></g><g clip-rule="nonzero" clip-path="url(#12e1376610)"><g clip-rule="nonzero" clip-path="url(#0bdb5c677e)"><path style=" stroke:none;fill-rule:nonzero;fill:currentColor;fill-opacity:1;" d="M 101.53125 207.589844 L 142.089844 207.589844 L 142.089844 250.046875 L 101.53125 250.046875 Z M 101.53125 207.589844 "/></g></g><g clip-rule="nonzero" clip-path="url(#09a4c656d0)"><g clip-rule="nonzero" clip-path="url(#083a7f34bf)"><path style=" stroke:none;fill-rule:nonzero;fill:currentColor;fill-opacity:1;" d="M 117.109375 237.160156 L 142.609375 237.160156 L 142.609375 250.707031 L 117.109375 250.707031 Z M 117.109375 237.160156 "/></g></g><g clip-rule="nonzero" clip-path="url(#19bae3d134)"><g clip-rule="nonzero" clip-path="url(#8f81afccd7)"><path style=" stroke:none;fill-rule:nonzero;fill:currentColor;fill-opacity:1;" d="M 93.332031 238.441406 L 141.9375 238.441406 L 141.9375 298.820312 L 93.332031 298.820312 Z M 93.332031 238.441406 "/></g></g><g clip-rule="nonzero" clip-path="url(#74f3198d98)"><g clip-rule="nonzero" clip-path="url(#ffae4415c9)"><path style=" stroke:none;fill-rule:nonzero;fill:currentColor;fill-opacity:1;" d="M 89.042969 251.082031 L 116.289062 251.082031 L 116.289062 264.625 L 89.042969 264.625 Z M 89.042969 251.082031 "/></g></g><g clip-rule="nonzero" clip-path="url(#8c4b8c2218)"><g clip-rule="nonzero" clip-path="url(#c8608a2c2d)"><path style=" stroke:none;fill-rule:nonzero;fill:currentColor;fill-opacity:1;" d="M 93.332031 252.660156 L 115.679688 252.660156 L 115.679688 297.355469 L 93.332031 297.355469 Z M 93.332031 252.660156 "/></g></g><g clip-rule="nonzero" clip-path="url(#7795557932)"><g clip-rule="nonzero" clip-path="url(#f77ed333c7)"><path style=" stroke:none;fill-rule:nonzero;fill:currentColor;fill-opacity:1;" d="M 196.492188 194.875 L 226.738281 194.875 L 226.738281 233.15625 L 196.492188 233.15625 Z M 196.492188 194.875 "/></g></g><g clip-rule="nonzero" clip-path="url(#75cb774bc8)"><g clip-rule="nonzero" clip-path="url(#a86f52883c)"><path style=" stroke:none;fill-rule:nonzero;fill:currentColor;fill-opacity:1;" d="M 200.40625 219.179688 L 225.914062 219.179688 L 225.914062 265.113281 L 200.40625 265.113281 Z M 200.40625 219.179688 "/></g></g><g clip-rule="nonzero" clip-path="url(#504fa0b607)"><g clip-rule="nonzero" clip-path="url(#2c9609ead0)"><path style=" stroke:none;fill-rule:nonzero;fill:currentColor;fill-opacity:1;" d="M 200.40625 204.730469 L 252.550781 204.730469 L 252.550781 265.023438 L 200.40625 265.023438 Z M 200.40625 204.730469 "/></g></g><g clip-rule="nonzero" clip-path="url(#d346140466)"><g clip-rule="nonzero" clip-path="url(#be0dbf2bf7)"><path style=" stroke:none;fill-rule:nonzero;fill:currentColor;fill-opacity:1;" d="M 222.148438 192.765625 L 252.441406 192.765625 L 252.441406 218.273438 L 222.148438 218.273438 Z M 222.148438 192.765625 "/></g></g><g clip-rule="nonzero" clip-path="url(#50003ca38b)"><g clip-rule="nonzero" clip-path="url(#58c313cb3d)"><path style=" stroke:none;fill-rule:nonzero;fill:currentColor;fill-opacity:1;" d="M 53.300781 222.113281 L 83.171875 222.113281 L 83.171875 259.335938 L 53.300781 259.335938 Z M 53.300781 222.113281 "/></g></g><g clip-rule="nonzero" clip-path="url(#50f01adcf1)"><g clip-rule="nonzero" clip-path="url(#6605e9351e)"><path style=" stroke:none;fill-rule:nonzero;fill:currentColor;fill-opacity:1;" d="M 147.882812 222.640625 L 175.046875 222.640625 L 175.046875 259.140625 L 147.882812 259.140625 Z M 147.882812 222.640625 "/></g></g><g clip-rule="nonzero" clip-path="url(#5b821062c8)"><g clip-rule="nonzero" clip-path="url(#50fc7fe0dd)"><path style=" stroke:none;fill-rule:nonzero;fill:currentColor;fill-opacity:1;" d="M 119.367188 276.664062 L 148.410156 276.664062 L 148.410156 316.148438 L 119.367188 316.148438 Z M 119.367188 276.664062 "/></g></g><g clip-rule="nonzero" clip-path="url(#4f0b92233b)"><g clip-rule="nonzero" clip-path="url(#f91ea827c6)"><path style=" stroke:none;fill-rule:nonzero;fill:currentColor;fill-opacity:1;" d="M 171.660156 258.679688 L 200.78125 258.679688 L 200.78125 295.648438 L 171.660156 295.648438 Z M 171.660156 258.679688 "/></g></g><g clip-rule="nonzero" clip-path="url(#da63867f76)"><g clip-rule="nonzero" clip-path="url(#9a86bda92b)"><path style=" stroke:none;fill-rule:nonzero;fill:currentColor;fill-opacity:1;" d="M 225.007812 264.324219 L 252.472656 264.324219 L 252.472656 299.511719 L 225.007812 299.511719 Z M 225.007812 264.324219 "/></g></g><g clip-rule="nonzero" clip-path="url(#bf0e5326cc)"><g clip-rule="nonzero" clip-path="url(#9a2ff64e7f)"><path style=" stroke:none;fill-rule:nonzero;fill:currentColor;fill-opacity:1;" d="M 260.523438 206.613281 L 288.0625 206.613281 L 288.0625 244.585938 L 260.523438 244.585938 Z M 260.523438 206.613281 "/></g></g></g></svg>