<svg xmlns="http://www.w3.org/2000/svg" xmlns:xlink="http://www.w3.org/1999/xlink" width="500" zoomAndPan="magnify" viewBox="0 0 375 374.999991" height="500" preserveAspectRatio="xMidYMid meet" version="1.2"><defs><clipPath id="b79c76eb03"><path d="M 169.1875 206.433594 L 235.65625 206.433594 L 235.65625 334.585938 L 169.1875 334.585938 Z M 169.1875 206.433594 "/></clipPath><clipPath id="6af53b4988"><path d="M 169.363281 330.019531 C 174.222656 317.605469 187.460938 293.820312 193.222656 281.851562 C 197.261719 273.550781 199.804688 266.746094 203.019531 260.460938 C 205.636719 255.375 207.730469 252.683594 210.722656 246.925781 C 215.660156 237.351562 225.457031 212.144531 228.824219 208.105469 C 229.648438 207.207031 230.019531 206.910156 230.769531 206.757812 C 231.742188 206.535156 233.386719 206.910156 234.210938 207.433594 C 234.882812 207.882812 235.332031 208.777344 235.480469 209.453125 C 235.628906 210.199219 235.554688 211.171875 235.257812 211.84375 C 234.957031 212.519531 234.359375 213.265625 233.609375 213.640625 C 232.789062 214.015625 231.066406 214.089844 230.171875 213.714844 C 229.421875 213.417969 228.75 212.742188 228.449219 211.996094 C 228.152344 211.097656 228.074219 209.378906 228.597656 208.480469 C 229.121094 207.582031 230.617188 206.757812 231.589844 206.609375 C 232.339844 206.535156 233.238281 206.835938 233.910156 207.207031 C 234.507812 207.65625 235.105469 208.40625 235.332031 209.078125 C 235.628906 209.824219 235.628906 210.273438 235.40625 211.472656 C 234.285156 216.632812 222.542969 240.34375 217.679688 249.765625 C 214.6875 255.527344 212.59375 258.21875 209.976562 263.304688 C 206.757812 269.585938 204.140625 276.46875 200.175781 284.769531 C 194.417969 296.511719 181.777344 319.101562 178.488281 326.730469 C 177.289062 329.496094 177.289062 331.21875 176.394531 332.5625 C 175.792969 333.460938 175.195312 334.058594 174.449219 334.359375 C 173.625 334.65625 172.503906 334.65625 171.753906 334.359375 C 171.007812 334.132812 170.109375 333.386719 169.738281 332.636719 C 169.363281 331.964844 169.363281 330.019531 169.363281 330.019531 "/></clipPath><clipPath id="68e44dd9b2"><path d="M 228.074219 99.351562 L 293.300781 99.351562 L 293.300781 214.328125 L 228.074219 214.328125 Z M 228.074219 99.351562 "/></clipPath><clipPath id="aba31c28c3"><path d="M 228.375 208.929688 C 253.058594 162.78125 253.429688 160.3125 256.574219 154.03125 C 262.40625 142.363281 279.609375 111.996094 283.945312 104.816406 C 285.21875 102.796875 285.441406 101.824219 286.492188 100.925781 C 287.460938 100.175781 288.808594 99.578125 289.78125 99.578125 C 290.527344 99.578125 291.351562 100.101562 291.949219 100.550781 C 292.472656 101.074219 292.996094 101.898438 293.070312 102.644531 C 293.148438 103.617188 292.699219 105.261719 291.949219 106.011719 C 291.277344 106.757812 289.632812 107.207031 288.585938 106.984375 C 287.613281 106.757812 286.339844 105.710938 285.890625 104.738281 C 285.519531 103.769531 285.667969 102.121094 286.265625 101.226562 C 286.863281 100.402344 288.285156 99.578125 289.332031 99.578125 C 290.378906 99.578125 291.875 100.328125 292.472656 101.226562 C 293.070312 102.046875 293.222656 102.945312 292.847656 104.664062 C 291.578125 111.246094 274.671875 135.929688 267.640625 149.316406 C 262.03125 159.863281 258.59375 168.242188 253.429688 178.261719 C 247.746094 189.257812 238.398438 208.703125 234.882812 212.519531 C 233.910156 213.566406 233.460938 213.789062 232.636719 214.015625 C 231.816406 214.164062 230.769531 214.015625 230.019531 213.640625 C 229.273438 213.191406 228.597656 212.367188 228.300781 211.621094 C 228 210.796875 228.375 208.929688 228.375 208.929688 "/></clipPath><clipPath id="7bab8e3606"><path d="M 264.144531 99.519531 L 293.28125 99.519531 L 293.28125 211.300781 L 264.144531 211.300781 Z M 264.144531 99.519531 "/></clipPath><clipPath id="157e8fb45a"><path d="M 293.148438 103.617188 C 287.910156 137.050781 282.898438 160.089844 280.132812 171.382812 C 278.5625 177.890625 277.140625 181.179688 275.945312 186.566406 C 274.523438 192.546875 274.222656 201.375 272.28125 205.636719 C 271.15625 208.253906 269.363281 210.722656 268.015625 211.171875 C 267.269531 211.398438 266.371094 210.949219 265.773438 210.425781 C 265.023438 209.75 264.277344 208.179688 264.277344 207.207031 C 264.203125 206.460938 264.574219 205.5625 265.097656 205.039062 C 265.773438 204.292969 267.34375 203.542969 268.390625 203.691406 C 269.363281 203.769531 270.785156 204.816406 271.308594 205.636719 C 271.679688 206.3125 271.90625 207.207031 271.679688 207.957031 C 271.457031 208.929688 270.410156 210.273438 269.585938 210.796875 C 268.914062 211.171875 268.015625 211.320312 267.191406 211.023438 C 266.296875 210.796875 264.949219 209.675781 264.5 208.855469 C 264.203125 208.105469 264.203125 207.132812 264.351562 206.460938 C 264.574219 205.710938 265.097656 204.890625 265.699219 204.441406 C 266.296875 203.992188 267.941406 203.992188 267.941406 203.691406 C 268.015625 203.246094 265.921875 203.320312 265.398438 202.046875 C 262.554688 195.539062 279.386719 141.613281 282.675781 123.664062 C 284.394531 114.238281 284.394531 105.488281 285.816406 102.121094 C 286.339844 101 286.789062 100.476562 287.539062 100.101562 C 288.210938 99.652344 289.332031 99.503906 290.082031 99.652344 C 290.902344 99.804688 291.875 100.402344 292.398438 101.074219 C 292.847656 101.75 293.148438 103.617188 293.148438 103.617188 "/></clipPath><clipPath id="c11a146971"><path d="M 235.882812 197.066406 L 273.371094 197.066406 L 273.371094 332.667969 L 235.882812 332.667969 Z M 235.882812 197.066406 "/></clipPath><clipPath id="4e5dff7595"><path d="M 273.25 201.074219 C 261.285156 257.171875 251.5625 292.847656 248.570312 307.957031 C 247.222656 315.136719 247.074219 320.445312 246.25 323.8125 C 245.800781 325.53125 245.652344 326.28125 244.980469 327.476562 C 244.230469 328.972656 242.886719 331.441406 241.539062 332.113281 C 240.492188 332.636719 238.921875 332.636719 238.023438 332.113281 C 237.125 331.667969 236.152344 330.320312 236.003906 329.273438 C 235.929688 328.226562 236.601562 326.65625 237.277344 325.980469 C 237.875 325.382812 238.769531 325.160156 239.519531 325.085938 C 240.265625 325.007812 241.164062 325.234375 241.839844 325.683594 C 242.585938 326.28125 243.484375 327.777344 243.484375 328.824219 C 243.484375 329.796875 242.734375 331.292969 241.914062 331.890625 C 241.015625 332.488281 239.296875 332.5625 238.398438 332.339844 C 237.648438 332.113281 236.976562 331.441406 236.527344 330.769531 C 236.152344 330.171875 235.929688 329.421875 236.003906 328.449219 C 236.226562 326.730469 238.324219 324.335938 239.144531 321.417969 C 240.417969 317.082031 240.265625 311.996094 241.6875 304.515625 C 244.753906 288.957031 254.554688 252.984375 258.890625 233.683594 C 261.882812 220.296875 263.828125 204.140625 265.921875 199.730469 C 266.445312 198.53125 266.820312 198.082031 267.566406 197.632812 C 268.242188 197.261719 269.363281 197.035156 270.183594 197.1875 C 270.933594 197.335938 271.90625 197.859375 272.429688 198.53125 C 272.953125 199.207031 273.25 201.074219 273.25 201.074219 "/></clipPath><clipPath id="32dab3cdd6"><path d="M 170.289062 322.496094 L 245.386719 322.496094 L 245.386719 335.046875 L 170.289062 335.046875 Z M 170.289062 322.496094 "/></clipPath><clipPath id="8fca03af6b"><path d="M 174 327.027344 C 233.535156 326.207031 236.453125 326.355469 237.949219 325.382812 C 238.695312 324.933594 238.621094 323.886719 239.21875 323.363281 C 239.820312 322.914062 240.714844 322.617188 241.464844 322.542969 C 242.210938 322.542969 243.109375 322.765625 243.707031 323.289062 C 244.457031 323.886719 245.351562 325.382812 245.277344 326.429688 C 245.277344 327.402344 244.382812 328.898438 243.558594 329.421875 C 242.960938 329.945312 241.988281 330.09375 241.238281 330.019531 C 240.492188 329.945312 239.59375 329.648438 239.070312 329.121094 C 238.398438 328.375 237.722656 326.804688 237.875 325.832031 C 238.023438 324.785156 238.996094 323.4375 239.894531 322.988281 C 240.789062 322.464844 242.511719 322.617188 243.410156 323.066406 C 244.15625 323.363281 244.679688 324.113281 244.980469 324.785156 C 245.277344 325.53125 245.503906 326.355469 245.203125 327.179688 C 244.753906 328.597656 242.808594 330.992188 240.941406 332.039062 C 238.921875 333.238281 236.378906 333.160156 233.238281 333.535156 C 228.226562 334.132812 221.570312 334.285156 213.941406 334.507812 C 203.09375 334.808594 179.308594 335.480469 174 334.507812 C 172.652344 334.285156 172.128906 334.210938 171.53125 333.609375 C 170.859375 332.863281 170.261719 331.292969 170.335938 330.320312 C 170.335938 329.496094 170.933594 328.523438 171.53125 328 C 172.128906 327.402344 174 327.027344 174 327.027344 "/></clipPath><clipPath id="11781911d8"><path d="M 88.710938 268 L 176.675781 268 L 176.675781 334.457031 L 88.710938 334.457031 Z M 88.710938 268 "/></clipPath><clipPath id="367757e149"><path d="M 172.429688 334.210938 C 157.695312 331.890625 150.8125 329.871094 146.402344 328.449219 C 143.257812 327.402344 141.316406 326.578125 138.472656 325.308594 C 135.179688 323.738281 131.441406 322.015625 127.703125 319.773438 C 123.511719 317.230469 118.425781 313.714844 114.613281 310.5 C 111.320312 307.730469 108.628906 305.039062 106.085938 301.972656 C 103.542969 298.980469 101.597656 295.914062 99.28125 292.398438 C 96.664062 288.285156 93.070312 282.675781 91.277344 278.710938 C 90.082031 276.019531 88.734375 273.175781 88.882812 271.457031 C 88.957031 270.410156 89.480469 269.585938 90.082031 269.0625 C 90.679688 268.539062 91.800781 268.164062 92.546875 268.089844 C 93.148438 268.015625 93.746094 268.164062 94.269531 268.464844 C 94.941406 268.914062 95.839844 269.660156 96.0625 270.484375 C 96.363281 271.457031 96.140625 273.328125 95.539062 274.148438 C 94.867188 274.972656 93.296875 275.644531 92.324219 275.570312 C 91.277344 275.496094 89.855469 274.597656 89.332031 273.699219 C 88.808594 272.804688 88.808594 271.082031 89.257812 270.183594 C 89.707031 269.210938 91.050781 268.242188 92.101562 268.089844 C 93.148438 268.015625 94.644531 268.6875 95.390625 269.363281 C 95.988281 269.886719 96.289062 270.785156 96.363281 271.53125 C 96.363281 272.28125 96.214844 273.175781 95.765625 273.851562 C 95.167969 274.597656 93.746094 275.570312 92.699219 275.570312 C 91.652344 275.570312 90.15625 274.746094 89.558594 274 C 89.035156 273.328125 88.808594 272.28125 88.882812 271.457031 C 88.957031 270.632812 89.480469 269.585938 90.082031 269.0625 C 90.679688 268.539062 91.726562 268.089844 92.546875 268.089844 C 93.371094 268.089844 94.121094 268.164062 95.015625 268.988281 C 97.710938 271.308594 101.824219 282.453125 105.414062 288.0625 C 108.40625 292.847656 111.023438 297.035156 114.6875 300.777344 C 118.503906 304.738281 123.363281 308.105469 127.925781 311.097656 C 132.265625 313.941406 136.304688 316.257812 141.464844 318.503906 C 147.972656 321.269531 158.070312 324.1875 164.203125 325.683594 C 168.390625 326.65625 172.878906 326.207031 174.746094 327.328125 C 175.71875 327.925781 176.09375 328.675781 176.316406 329.496094 C 176.542969 330.246094 176.394531 331.367188 176.09375 332.113281 C 175.871094 332.714844 175.496094 333.160156 174.972656 333.460938 C 174.375 333.910156 172.429688 334.210938 172.429688 334.210938 "/></clipPath><clipPath id="bbd2fc5d97"><path d="M 80.8125 175.09375 L 108.453125 175.09375 L 108.453125 275.679688 L 80.8125 275.679688 Z M 80.8125 175.09375 "/></clipPath><clipPath id="dcbd215f5e"><path d="M 88.882812 271.832031 C 86.863281 261.582031 82.898438 253.355469 81.851562 246.402344 C 80.65625 238.996094 80.507812 230.171875 81.628906 222.839844 C 82.675781 215.960938 85.070312 210.125 87.6875 203.617188 C 90.527344 196.511719 95.390625 186.9375 98.382812 181.929688 C 100.101562 179.085938 101.226562 176.394531 102.871094 175.570312 C 103.992188 174.972656 105.488281 175.046875 106.386719 175.570312 C 107.28125 176.019531 108.253906 177.441406 108.332031 178.488281 C 108.480469 179.535156 107.808594 181.03125 107.058594 181.703125 C 106.234375 182.375 104.589844 182.75 103.617188 182.453125 C 102.644531 182.152344 101.449219 180.957031 101.074219 180.058594 C 100.777344 179.308594 100.777344 178.414062 101.074219 177.664062 C 101.449219 176.765625 102.71875 175.570312 103.617188 175.269531 C 104.367188 174.972656 105.339844 175.121094 106.011719 175.421875 C 106.683594 175.644531 107.433594 176.316406 107.808594 176.917969 C 108.253906 177.589844 108.480469 178.113281 108.332031 179.308594 C 107.808594 183.199219 98.757812 196.363281 95.464844 204.292969 C 92.625 211.097656 90.082031 218.128906 89.035156 223.886719 C 88.285156 228.226562 88.585938 231.664062 88.660156 235.554688 C 88.734375 239.445312 88.660156 242.808594 89.480469 247.074219 C 90.605469 252.683594 94.792969 261.582031 95.765625 266.144531 C 96.289062 268.539062 96.511719 270.335938 96.363281 271.832031 C 96.214844 272.878906 95.988281 273.699219 95.390625 274.296875 C 94.71875 274.972656 93.148438 275.570312 92.175781 275.570312 C 91.277344 275.496094 90.378906 274.898438 89.78125 274.296875 C 89.257812 273.699219 88.882812 271.832031 88.882812 271.832031 "/></clipPath><clipPath id="d7f407150d"><path d="M 99.761719 43.515625 L 127.578125 43.515625 L 127.578125 184.300781 L 99.761719 184.300781 Z M 99.761719 43.515625 "/></clipPath><clipPath id="306b40a0bf"><path d="M 99.953125 179.460938 C 106.609375 165.621094 109.453125 158.667969 111.546875 151.710938 C 113.941406 143.484375 116.257812 133.609375 117.605469 124.335938 C 119.027344 114.835938 119.472656 103.09375 119.773438 95.390625 C 120 90.230469 120.074219 87.6875 119.847656 82.453125 C 119.398438 74.148438 114.539062 51.933594 116.484375 50.289062 C 117.082031 49.839844 118.875 51.113281 118.875 51.039062 C 118.875 50.964844 117.230469 50.589844 116.707031 50.066406 C 116.035156 49.316406 115.511719 47.671875 115.585938 46.699219 C 115.660156 45.875 116.109375 45.128906 116.707031 44.605469 C 117.457031 44.007812 119.101562 43.558594 120.074219 43.632812 C 120.894531 43.78125 121.644531 44.304688 122.167969 44.90625 C 122.617188 45.503906 123.066406 46.324219 122.988281 47.148438 C 122.988281 48.121094 122.390625 49.691406 121.570312 50.289062 C 120.746094 50.886719 119.027344 51.1875 118.054688 50.886719 C 117.082031 50.515625 116.035156 49.242188 115.660156 48.34375 C 115.4375 47.523438 115.511719 46.625 115.808594 45.953125 C 116.109375 45.203125 116.707031 44.53125 117.378906 44.082031 C 117.980469 43.707031 118.875 43.332031 119.699219 43.632812 C 121.046875 44.082031 123.140625 47 123.886719 48.71875 C 124.484375 50.140625 124.261719 51.1875 124.410156 52.90625 C 124.636719 55.898438 124.484375 60.460938 124.933594 64.726562 C 125.382812 69.734375 126.953125 75.347656 127.328125 81.179688 C 127.703125 87.835938 127.253906 95.167969 126.878906 102.496094 C 126.429688 110.351562 126.132812 118.503906 124.859375 126.878906 C 123.4375 135.855469 121.046875 146.25 118.503906 154.554688 C 116.40625 161.507812 113.714844 168.164062 111.246094 173.402344 C 109.378906 177.441406 107.132812 182.375 105.5625 183.648438 C 104.890625 184.171875 104.441406 184.246094 103.84375 184.246094 C 103.09375 184.246094 101.972656 184.023438 101.300781 183.5 C 100.625 183.050781 100.027344 182.003906 99.878906 181.253906 C 99.730469 180.65625 99.953125 179.460938 99.953125 179.460938 "/></clipPath><clipPath id="e5c5dcea3d"><path d="M 189.234375 78.089844 L 293.492188 78.089844 L 293.492188 106.222656 L 189.234375 106.222656 Z M 189.234375 78.089844 "/></clipPath><clipPath id="ee371b4482"><path d="M 193.371094 78.1875 C 208.253906 82.226562 215.210938 85.890625 221.417969 88.210938 C 227.628906 90.453125 234.210938 92.699219 240.265625 94.121094 C 245.726562 95.464844 250.8125 96.0625 256.125 96.738281 C 261.507812 97.410156 266.820312 97.859375 272.429688 98.15625 C 278.335938 98.53125 287.910156 97.558594 290.828125 98.53125 C 291.875 98.90625 292.324219 99.355469 292.699219 100.027344 C 293.148438 100.625 293.371094 101.523438 293.371094 102.273438 C 293.296875 103.019531 292.996094 103.917969 292.472656 104.515625 C 291.949219 105.113281 291.128906 105.5625 290.453125 105.710938 C 289.707031 105.9375 288.734375 105.863281 288.0625 105.488281 C 287.238281 105.039062 286.117188 103.691406 285.964844 102.71875 C 285.742188 101.671875 286.414062 100.101562 287.089844 99.355469 C 287.613281 98.757812 288.433594 98.457031 289.257812 98.382812 C 290.003906 98.308594 290.902344 98.457031 291.578125 98.90625 C 292.324219 99.429688 293.222656 100.925781 293.371094 101.898438 C 293.445312 102.71875 293.222656 103.542969 292.699219 104.214844 C 292.101562 104.964844 291.128906 105.488281 289.632812 105.863281 C 286.265625 106.609375 278.488281 105.9375 272.652344 105.636719 C 266.222656 105.339844 259.265625 104.890625 252.683594 103.917969 C 245.953125 102.945312 239.820312 102.046875 232.488281 99.953125 C 223.363281 97.335938 209.824219 90.679688 202.273438 88.210938 C 197.933594 86.789062 193.820312 86.488281 191.726562 85.441406 C 190.679688 84.84375 190.082031 84.394531 189.707031 83.722656 C 189.332031 82.976562 189.183594 81.851562 189.332031 81.03125 C 189.480469 80.28125 190.15625 79.308594 190.753906 78.859375 C 191.425781 78.335938 193.371094 78.1875 193.371094 78.1875 "/></clipPath><clipPath id="bf1bd758be"><path d="M 121.832031 78.109375 L 206.960938 78.109375 L 206.960938 114.785156 L 121.832031 114.785156 Z M 121.832031 78.109375 "/></clipPath><clipPath id="99880ac7a0"><path d="M 125.609375 78.113281 C 132.789062 79.011719 133.460938 79.386719 135.03125 80.207031 C 138.246094 81.777344 143.78125 85.519531 149.316406 88.285156 C 156.421875 91.800781 165.699219 95.988281 174.296875 99.054688 C 183.050781 102.046875 196.140625 104.066406 201.523438 106.3125 C 203.917969 107.359375 205.789062 108.40625 206.460938 109.300781 C 206.757812 109.75 206.835938 109.976562 206.757812 110.5 C 206.757812 111.320312 206.160156 113.042969 205.488281 113.714844 C 204.964844 114.3125 204.066406 114.613281 203.320312 114.613281 C 202.347656 114.613281 200.703125 114.015625 200.101562 113.191406 C 199.503906 112.371094 199.28125 110.648438 199.503906 109.675781 C 199.730469 108.929688 200.253906 108.179688 201 107.808594 C 201.824219 107.359375 203.542969 107.132812 204.441406 107.433594 C 205.1875 107.65625 205.863281 108.332031 206.3125 108.929688 C 206.683594 109.601562 206.910156 110.574219 206.835938 111.320312 C 206.683594 112.070312 206.3125 112.894531 205.789062 113.492188 C 205.261719 114.015625 204.441406 114.464844 203.691406 114.613281 C 202.945312 114.6875 201.972656 114.539062 201.300781 114.238281 C 200.703125 113.863281 199.878906 112.371094 199.652344 112.445312 C 199.578125 112.519531 199.953125 113.265625 199.730469 113.492188 C 198.832031 114.238281 191.949219 111.996094 187.6875 110.875 C 182.675781 109.527344 177.289062 108.03125 171.605469 106.011719 C 164.800781 103.542969 156.648438 100.101562 149.839844 96.8125 C 143.410156 93.671875 136.527344 88.511719 131.667969 86.714844 C 128.597656 85.59375 125.457031 86.117188 123.886719 85.21875 C 122.988281 84.695312 122.464844 83.949219 122.167969 83.199219 C 121.867188 82.453125 121.867188 81.328125 122.167969 80.582031 C 122.464844 79.757812 123.214844 78.9375 123.886719 78.5625 C 124.410156 78.261719 125.609375 78.113281 125.609375 78.113281 "/></clipPath><clipPath id="7b268eca4b"><path d="M 196.785156 101.886719 L 290.097656 101.886719 L 290.097656 120.363281 L 196.785156 120.363281 Z M 196.785156 101.886719 "/></clipPath><clipPath id="7d1ded1053"><path d="M 201.226562 106.984375 C 232.636719 112.519531 246.699219 113.117188 254.703125 112.519531 C 259.640625 112.144531 262.78125 111.398438 266.667969 110.351562 C 270.484375 109.378906 274.597656 107.957031 277.8125 106.460938 C 280.433594 105.265625 282.898438 103.019531 284.621094 102.347656 C 285.59375 102.046875 286.265625 101.824219 287.015625 101.972656 C 287.910156 102.273438 289.332031 103.246094 289.78125 104.140625 C 290.230469 105.113281 290.082031 106.757812 289.558594 107.65625 C 289.035156 108.554688 287.539062 109.378906 286.566406 109.453125 C 285.519531 109.453125 283.945312 108.777344 283.347656 107.882812 C 282.75 107.058594 282.527344 105.414062 282.824219 104.441406 C 283.199219 103.46875 284.472656 102.421875 285.367188 102.046875 C 286.191406 101.824219 287.089844 101.972656 287.761719 102.195312 C 288.507812 102.496094 289.257812 103.09375 289.558594 103.769531 C 290.003906 104.664062 290.304688 106.160156 289.78125 107.28125 C 288.882812 109.078125 285.742188 110.875 282.824219 112.445312 C 278.9375 114.539062 272.578125 116.484375 267.792969 117.753906 C 263.527344 118.875 260.085938 119.625 255.527344 120 C 249.839844 120.523438 242.511719 120.222656 236.453125 120 C 230.917969 119.773438 226.207031 119.476562 220.597656 118.652344 C 214.089844 117.679688 203.09375 115.734375 199.730469 114.3125 C 198.53125 113.863281 198.007812 113.640625 197.484375 112.894531 C 196.960938 112.070312 196.664062 110.425781 196.960938 109.527344 C 197.1875 108.628906 197.859375 107.882812 198.605469 107.433594 C 199.355469 107.058594 201.226562 106.984375 201.226562 106.984375 "/></clipPath><clipPath id="d3aa8d3611"><path d="M 107.703125 257.8125 L 187.367188 257.8125 L 187.367188 312 L 107.703125 312 Z M 107.703125 257.8125 "/></clipPath><clipPath id="fcca2c3048"><path d="M 183.5 311.996094 C 163.304688 310.273438 157.46875 308.855469 152.382812 306.910156 C 147.523438 305.039062 142.734375 302.347656 138.621094 299.878906 C 134.957031 297.710938 131.742188 295.539062 128.597656 292.921875 C 125.382812 290.304688 122.464844 287.613281 119.699219 284.171875 C 116.558594 280.207031 113.191406 274.222656 111.171875 270.183594 C 109.601562 267.191406 107.882812 264.125 107.882812 262.03125 C 107.882812 260.761719 108.554688 259.488281 109.226562 258.816406 C 109.824219 258.292969 110.648438 257.917969 111.472656 257.992188 C 112.445312 257.992188 114.015625 258.667969 114.613281 259.488281 C 115.210938 260.3125 115.359375 262.03125 115.136719 262.929688 C 114.914062 263.753906 114.3125 264.425781 113.640625 264.875 C 113.042969 265.25 112.144531 265.546875 111.398438 265.472656 C 110.425781 265.324219 108.929688 264.425781 108.40625 263.601562 C 107.957031 262.929688 107.808594 262.03125 107.882812 261.285156 C 108.03125 260.535156 108.40625 259.640625 108.929688 259.117188 C 109.453125 258.59375 110.273438 258.070312 111.097656 257.992188 C 111.996094 257.917969 113.191406 258.144531 114.386719 259.191406 C 117.15625 261.582031 120.96875 272.878906 123.960938 277.289062 C 125.832031 280.058594 127.402344 281.777344 129.347656 283.722656 C 131.292969 285.59375 133.085938 287.015625 135.480469 288.734375 C 138.324219 290.828125 141.914062 293.296875 145.429688 295.242188 C 149.019531 297.1875 152.757812 298.90625 156.648438 300.328125 C 160.613281 301.75 164.5 302.871094 168.988281 303.617188 C 174 304.515625 182.675781 303.617188 185.292969 304.890625 C 186.339844 305.414062 186.714844 306.085938 187.015625 306.910156 C 187.3125 307.65625 187.3125 308.777344 187.015625 309.527344 C 186.714844 310.351562 185.890625 311.171875 185.292969 311.546875 C 184.695312 311.84375 183.5 311.996094 183.5 311.996094 "/></clipPath><clipPath id="c147e07a37"><path d="M 102.867188 165.316406 L 135.859375 165.316406 L 135.859375 269.226562 L 102.867188 269.226562 Z M 102.867188 165.316406 "/></clipPath><clipPath id="2e5132333b"><path d="M 109.976562 266.59375 C 104.964844 252.160156 103.84375 246.25 103.320312 240.34375 C 102.71875 233.683594 102.796875 224.410156 103.46875 218.949219 C 103.84375 215.511719 104.367188 213.714844 105.414062 210.574219 C 106.835938 206.3125 108.777344 201.300781 111.621094 195.691406 C 115.734375 187.6875 125.160156 171.382812 128.75 167.492188 C 129.945312 166.222656 130.617188 165.699219 131.589844 165.472656 C 132.339844 165.324219 133.3125 165.546875 133.910156 165.921875 C 134.582031 166.296875 135.257812 166.96875 135.554688 167.71875 C 135.855469 168.613281 135.78125 170.335938 135.257812 171.230469 C 134.65625 172.054688 133.238281 172.878906 132.191406 172.953125 C 131.140625 172.953125 129.648438 172.203125 129.046875 171.382812 C 128.449219 170.484375 128.226562 168.839844 128.597656 167.867188 C 128.898438 166.894531 130.246094 165.847656 131.21875 165.546875 C 131.964844 165.324219 132.863281 165.472656 133.535156 165.773438 C 134.285156 166.070312 135.03125 166.59375 135.332031 167.34375 C 135.78125 168.242188 135.855469 169.363281 135.40625 170.859375 C 134.507812 174.074219 129.347656 179.832031 126.355469 184.84375 C 122.988281 190.378906 118.800781 197.484375 116.257812 202.796875 C 114.386719 206.910156 113.117188 210.5 112.144531 213.941406 C 111.398438 216.707031 111.023438 218.652344 110.722656 221.792969 C 110.351562 226.207031 110.273438 232.714844 110.722656 238.171875 C 111.171875 243.78125 112.21875 250.140625 113.492188 255.152344 C 114.539062 259.191406 117.378906 263.601562 117.230469 265.921875 C 117.082031 266.96875 116.558594 267.640625 115.960938 268.242188 C 115.285156 268.765625 114.238281 269.136719 113.417969 269.136719 C 112.59375 269.0625 111.546875 268.613281 110.949219 268.089844 C 110.5 267.71875 109.976562 266.59375 109.976562 266.59375 "/></clipPath><clipPath id="32cc9b4d58"><path d="M 127 84.90625 L 148.875 84.90625 L 148.875 175.863281 L 127 175.863281 Z M 127 84.90625 "/></clipPath><clipPath id="70d7fcda55"><path d="M 127.027344 171.082031 C 135.03125 150.8125 138.472656 138.324219 139.894531 130.84375 C 140.789062 125.683594 140.941406 122.015625 141.164062 117.753906 C 141.390625 113.714844 141.464844 110.050781 141.164062 105.9375 C 140.789062 101.375 139.742188 94.042969 138.921875 91.351562 C 138.621094 90.304688 137.949219 90.003906 137.875 89.257812 C 137.722656 88.507812 137.875 87.539062 138.324219 86.9375 C 138.847656 86.117188 140.191406 85.070312 141.238281 84.996094 C 142.285156 84.917969 143.78125 85.667969 144.457031 86.414062 C 145.054688 86.9375 145.351562 87.835938 145.277344 88.585938 C 145.277344 89.558594 144.605469 91.128906 143.78125 91.800781 C 142.886719 92.398438 141.238281 92.625 140.265625 92.25 C 139.296875 91.875 138.246094 90.605469 137.949219 89.632812 C 137.648438 88.882812 137.800781 87.984375 138.097656 87.238281 C 138.398438 86.566406 139.070312 85.890625 139.742188 85.519531 C 140.34375 85.144531 141.316406 84.917969 142.0625 84.996094 C 142.808594 85.144531 143.558594 85.292969 144.230469 86.117188 C 145.800781 87.984375 147.371094 94.34375 148.121094 99.28125 C 149.09375 105.1875 148.867188 113.417969 148.570312 119.324219 C 148.421875 123.886719 147.972656 127.476562 147.371094 131.515625 C 146.699219 135.554688 145.800781 139.144531 144.679688 143.410156 C 143.332031 148.570312 141.539062 154.851562 139.667969 160.085938 C 137.949219 164.949219 135.628906 171.457031 133.984375 173.773438 C 133.3125 174.820312 132.789062 175.269531 131.964844 175.570312 C 131.21875 175.871094 130.09375 175.792969 129.347656 175.496094 C 128.523438 175.195312 127.703125 174.523438 127.328125 173.773438 C 126.953125 173.027344 127.027344 171.082031 127.027344 171.082031 "/></clipPath><clipPath id="ec204ce6ea"><path d="M 115.742188 40.417969 L 129.269531 40.417969 L 129.269531 55.019531 L 115.742188 55.019531 Z M 115.742188 40.417969 "/></clipPath><clipPath id="415504ea53"><path d="M 116.109375 51.261719 C 115.660156 44.753906 115.660156 43.332031 116.332031 42.4375 C 117.082031 41.464844 118.503906 40.566406 119.773438 40.492188 C 121.269531 40.34375 123.4375 41.539062 124.933594 42.511719 C 126.503906 43.632812 128.449219 45.800781 128.972656 46.847656 C 129.199219 47.296875 129.273438 47.523438 129.199219 48.046875 C 129.046875 48.792969 128.449219 50.515625 127.550781 51.113281 C 126.730469 51.710938 125.085938 51.933594 124.113281 51.5625 C 123.140625 51.1875 122.019531 49.914062 121.792969 48.945312 C 121.570312 47.894531 122.019531 46.324219 122.691406 45.503906 C 123.363281 44.753906 124.933594 44.230469 125.980469 44.382812 C 127.027344 44.53125 128.375 45.503906 128.824219 46.476562 C 129.273438 47.371094 129.121094 49.09375 128.675781 49.914062 C 128.300781 50.664062 127.550781 51.261719 126.878906 51.488281 C 126.207031 51.785156 125.234375 51.933594 124.484375 51.710938 C 123.589844 51.335938 122.691406 49.617188 121.941406 49.316406 C 121.417969 49.09375 121.121094 49.46875 120.671875 49.242188 C 119.847656 48.792969 117.902344 46.324219 118.203125 45.800781 C 118.503906 45.277344 121.941406 45.429688 122.839844 46.25 C 123.589844 47 123.511719 48.792969 123.589844 49.914062 C 123.589844 51.039062 123.589844 52.234375 123.140625 53.058594 C 122.691406 53.804688 121.941406 54.476562 121.121094 54.777344 C 120.371094 55.078125 119.25 55.078125 118.503906 54.777344 C 117.753906 54.476562 116.929688 53.65625 116.484375 53.058594 C 116.183594 52.535156 116.109375 51.261719 116.109375 51.261719 "/></clipPath><clipPath id="d86accbc14"><path d="M 118.679688 41.367188 L 186.644531 41.367188 L 186.644531 80.15625 L 118.679688 80.15625 Z M 118.679688 41.367188 "/></clipPath><clipPath id="941d25b5aa"><path d="M 123.140625 41.390625 C 131.589844 44.457031 135.78125 48.195312 140.941406 51.261719 C 148.34375 55.675781 160.613281 62.257812 168.765625 66.296875 C 174.898438 69.363281 183.125 71.605469 185.367188 73.699219 C 186.117188 74.449219 186.414062 74.972656 186.414062 75.792969 C 186.492188 76.765625 185.964844 78.414062 185.292969 79.085938 C 184.695312 79.683594 183.871094 79.984375 183.125 80.058594 C 182.375 80.132812 181.402344 79.910156 180.730469 79.535156 C 180.132812 79.160156 179.460938 78.488281 179.234375 77.664062 C 179.011719 76.765625 179.085938 75.046875 179.683594 74.222656 C 180.28125 73.402344 181.851562 72.652344 182.824219 72.652344 C 183.574219 72.578125 184.472656 72.953125 185.070312 73.402344 C 185.667969 73.851562 186.191406 74.671875 186.339844 75.421875 C 186.566406 76.167969 186.492188 77.066406 186.191406 77.8125 C 185.890625 78.488281 185.292969 79.234375 184.621094 79.609375 C 183.945312 79.984375 183.421875 80.207031 182.300781 80.058594 C 179.085938 79.757812 170.785156 75.570312 164.203125 72.429688 C 155.898438 68.390625 144.082031 61.734375 136.601562 57.394531 C 131.367188 54.253906 126.355469 50.363281 123.363281 48.945312 C 122.09375 48.34375 121.046875 48.644531 120.296875 48.046875 C 119.625 47.523438 119.101562 46.476562 118.875 45.800781 C 118.726562 45.203125 118.726562 44.605469 118.949219 44.007812 C 119.25 43.257812 119.847656 42.285156 120.597656 41.839844 C 121.269531 41.464844 123.140625 41.390625 123.140625 41.390625 "/></clipPath><clipPath id="9065d902c1"><path d="M 177.015625 72.078125 L 199.234375 72.078125 L 199.234375 86.09375 L 177.015625 86.09375 Z M 177.015625 72.078125 "/></clipPath><clipPath id="f2090c82cc"><path d="M 181.328125 72.128906 C 193.820312 76.542969 197.933594 79.234375 198.90625 80.957031 C 199.355469 81.777344 199.207031 82.601562 198.980469 83.347656 C 198.757812 84.023438 198.308594 84.84375 197.632812 85.292969 C 196.8125 85.816406 195.089844 86.117188 194.121094 85.816406 C 193.148438 85.441406 192.023438 84.246094 191.800781 83.199219 C 191.5 82.226562 191.875 80.582031 192.546875 79.832031 C 193.222656 79.011719 194.867188 78.488281 195.839844 78.5625 C 196.664062 78.5625 197.484375 79.085938 198.007812 79.609375 C 198.53125 80.132812 198.980469 80.957031 199.054688 81.703125 C 199.207031 82.453125 199.054688 83.421875 198.683594 84.097656 C 198.308594 84.695312 197.632812 85.367188 196.886719 85.667969 C 196.214844 85.964844 195.316406 86.191406 194.566406 85.890625 C 193.597656 85.59375 191.949219 83.574219 191.875 83.574219 C 191.875 83.648438 193.148438 84.769531 193.070312 84.917969 C 192.847656 85.144531 188.660156 82.226562 186.191406 81.179688 C 183.574219 79.984375 179.160156 79.308594 177.890625 78.1875 C 177.289062 77.664062 177.214844 77.214844 177.140625 76.542969 C 176.992188 75.792969 177.140625 74.671875 177.515625 73.925781 C 177.964844 73.25 178.859375 72.578125 179.535156 72.277344 C 180.132812 72.054688 181.328125 72.128906 181.328125 72.128906 "/></clipPath><clipPath id="1229ebe553"><path d="M 176.191406 71.777344 L 196 71.777344 L 196 85.195312 L 176.191406 85.195312 Z M 176.191406 71.777344 "/></clipPath><clipPath id="67fce37b24"><path d="M 190.527344 84.917969 C 175.945312 76.242188 176.167969 74.824219 176.542969 73.925781 C 176.839844 73.175781 177.441406 72.503906 178.1875 72.203125 C 179.085938 71.832031 180.804688 71.832031 181.703125 72.28125 C 182.601562 72.804688 183.5 74.222656 183.574219 75.269531 C 183.722656 76.242188 183.050781 77.8125 182.226562 78.488281 C 181.480469 79.160156 179.757812 79.460938 178.785156 79.160156 C 177.8125 78.859375 176.617188 77.664062 176.316406 76.691406 C 176.019531 75.71875 176.316406 74.074219 176.992188 73.25 C 177.589844 72.429688 179.011719 71.832031 180.132812 71.832031 C 181.554688 71.832031 183.050781 72.878906 184.84375 73.699219 C 187.3125 74.824219 191.949219 76.84375 193.746094 78.113281 C 194.71875 78.785156 195.242188 79.386719 195.613281 80.058594 C 195.914062 80.65625 195.988281 81.179688 195.914062 81.851562 C 195.765625 82.601562 195.242188 83.648438 194.71875 84.246094 C 194.34375 84.695312 193.820312 84.996094 193.222656 85.144531 C 192.472656 85.292969 190.527344 84.917969 190.527344 84.917969 "/></clipPath><clipPath id="d6c3e46a7d"><path d="M 263.683594 196.894531 L 272.402344 196.894531 L 272.402344 211.136719 L 263.683594 211.136719 Z M 263.683594 196.894531 "/></clipPath><clipPath id="adef47bd01"><path d="M 272.355469 200.550781 C 270.558594 209.75 270.109375 210.351562 269.4375 210.648438 C 268.539062 211.097656 266.820312 211.171875 265.921875 210.796875 C 265.175781 210.5 264.574219 209.824219 264.203125 209.152344 C 263.828125 208.480469 263.601562 207.582031 263.828125 206.757812 C 264.050781 205.863281 265.023438 204.441406 265.996094 204.066406 C 266.96875 203.617188 268.613281 203.691406 269.511719 204.292969 C 270.335938 204.816406 271.230469 206.234375 271.230469 207.28125 C 271.308594 208.332031 270.558594 209.824219 269.738281 210.425781 C 268.914062 211.097656 267.191406 211.246094 266.296875 210.949219 C 265.472656 210.796875 264.800781 210.125 264.425781 209.527344 C 263.976562 208.855469 263.828125 208.179688 263.828125 207.207031 C 263.679688 205.414062 264.351562 201.300781 265.023438 199.578125 C 265.472656 198.53125 265.847656 197.859375 266.59375 197.410156 C 267.417969 196.886719 269.136719 196.8125 270.035156 197.035156 C 270.632812 197.1875 271.082031 197.558594 271.457031 198.082031 C 271.980469 198.683594 272.355469 200.550781 272.355469 200.550781 "/></clipPath><clipPath id="3017179dcd"><path d="M 155.519531 103.171875 L 177.296875 103.171875 L 177.296875 160.632812 L 155.519531 160.632812 Z M 155.519531 103.171875 "/></clipPath><clipPath id="159a775ab0"><path d="M 177.214844 108.03125 C 168.242188 136.828125 165.023438 154.328125 162.78125 158.367188 C 162.105469 159.488281 161.660156 159.863281 160.910156 160.238281 C 160.164062 160.613281 159.039062 160.613281 158.292969 160.460938 C 157.695312 160.3125 157.171875 160.011719 156.722656 159.5625 C 156.199219 158.964844 155.601562 157.992188 155.601562 157.171875 C 155.601562 156.125 156.421875 154.476562 157.171875 153.804688 C 157.769531 153.28125 158.667969 153.132812 159.414062 153.132812 C 160.164062 153.132812 161.058594 153.355469 161.660156 153.953125 C 162.40625 154.628906 163.078125 156.199219 163.078125 157.171875 C 163.078125 157.917969 162.707031 158.816406 162.105469 159.339844 C 161.433594 160.011719 159.863281 160.6875 158.816406 160.535156 C 157.84375 160.460938 156.421875 159.414062 155.972656 158.515625 C 155.527344 157.621094 155.601562 155.898438 156.050781 155 C 156.574219 154.105469 157.992188 153.207031 159.039062 153.132812 C 160.011719 153.058594 161.582031 153.65625 162.257812 154.476562 C 162.929688 155.375 163.15625 157.320312 162.78125 158.367188 C 162.40625 159.339844 161.058594 160.3125 160.085938 160.535156 C 159.039062 160.761719 157.46875 160.238281 156.722656 159.5625 C 155.972656 158.816406 155.675781 157.917969 155.675781 156.199219 C 155.527344 151.1875 161.136719 134.433594 163.828125 125.308594 C 165.996094 117.980469 168.390625 108.703125 170.109375 105.5625 C 170.785156 104.441406 171.082031 103.917969 171.832031 103.542969 C 172.726562 103.09375 174.449219 103.09375 175.347656 103.46875 C 176.09375 103.769531 176.84375 104.664062 177.140625 105.414062 C 177.441406 106.160156 177.214844 108.03125 177.214844 108.03125 "/></clipPath><clipPath id="a2e472467d"><path d="M 144 143.1875 L 165.765625 143.1875 L 165.765625 200.648438 L 144 200.648438 Z M 144 143.1875 "/></clipPath><clipPath id="2fc51dcbf9"><path d="M 165.6875 148.046875 C 156.710938 176.839844 153.496094 194.34375 151.25 198.382812 C 150.578125 199.503906 150.128906 199.878906 149.382812 200.253906 C 148.632812 200.625 147.511719 200.625 146.761719 200.476562 C 146.164062 200.328125 145.640625 200.027344 145.191406 199.578125 C 144.667969 198.980469 144.070312 198.007812 144.070312 197.1875 C 144.070312 196.140625 144.894531 194.492188 145.640625 193.820312 C 146.238281 193.296875 147.136719 193.148438 147.886719 193.148438 C 148.632812 193.148438 149.53125 193.371094 150.128906 193.96875 C 150.878906 194.644531 151.550781 196.214844 151.550781 197.1875 C 151.550781 197.933594 151.175781 198.832031 150.578125 199.355469 C 149.90625 200.027344 148.332031 200.703125 147.285156 200.550781 C 146.316406 200.476562 144.894531 199.429688 144.445312 198.53125 C 143.996094 197.632812 144.070312 195.914062 144.519531 195.015625 C 145.042969 194.121094 146.464844 193.222656 147.511719 193.148438 C 148.484375 193.070312 150.054688 193.671875 150.726562 194.492188 C 151.402344 195.390625 151.625 197.335938 151.25 198.382812 C 150.878906 199.355469 149.53125 200.328125 148.558594 200.550781 C 147.511719 200.777344 145.941406 200.253906 145.191406 199.578125 C 144.445312 198.832031 144.144531 197.933594 144.144531 196.214844 C 143.996094 191.203125 149.605469 174.449219 152.296875 165.324219 C 154.46875 157.992188 156.859375 148.71875 158.582031 145.578125 C 159.253906 144.457031 159.554688 143.933594 160.300781 143.558594 C 161.199219 143.109375 162.917969 143.109375 163.816406 143.484375 C 164.5625 143.78125 165.3125 144.679688 165.613281 145.429688 C 165.910156 146.175781 165.6875 148.046875 165.6875 148.046875 "/></clipPath><clipPath id="97d3f0b2f7"><path d="M 133.230469 181.257812 L 155.007812 181.257812 L 155.007812 238.71875 L 133.230469 238.71875 Z M 133.230469 181.257812 "/></clipPath><clipPath id="eb0948366d"><path d="M 154.925781 186.117188 C 145.953125 214.914062 142.734375 232.414062 140.492188 236.453125 C 139.820312 237.574219 139.371094 237.949219 138.621094 238.324219 C 137.875 238.695312 136.753906 238.695312 136.003906 238.546875 C 135.40625 238.398438 134.882812 238.097656 134.433594 237.648438 C 133.910156 237.050781 133.3125 236.078125 133.3125 235.257812 C 133.3125 234.210938 134.132812 232.5625 134.882812 231.890625 C 135.480469 231.367188 136.378906 231.21875 137.125 231.21875 C 137.875 231.21875 138.773438 231.441406 139.371094 232.039062 C 140.117188 232.714844 140.789062 234.285156 140.789062 235.257812 C 140.789062 236.003906 140.417969 236.902344 139.820312 237.425781 C 139.144531 238.097656 137.574219 238.773438 136.527344 238.621094 C 135.554688 238.546875 134.132812 237.5 133.683594 236.601562 C 133.238281 235.703125 133.3125 233.984375 133.761719 233.085938 C 134.285156 232.191406 135.703125 231.292969 136.753906 231.21875 C 137.722656 231.140625 139.296875 231.742188 139.96875 232.5625 C 140.640625 233.460938 140.867188 235.40625 140.492188 236.453125 C 140.117188 237.425781 138.773438 238.398438 137.800781 238.621094 C 136.753906 238.847656 135.179688 238.324219 134.433594 237.648438 C 133.683594 236.902344 133.386719 236.003906 133.386719 234.285156 C 133.238281 229.273438 138.847656 212.519531 141.539062 203.394531 C 143.707031 196.0625 146.101562 186.789062 147.820312 183.648438 C 148.496094 182.527344 148.792969 182.003906 149.542969 181.628906 C 150.4375 181.179688 152.160156 181.179688 153.058594 181.554688 C 153.804688 181.851562 154.554688 182.75 154.851562 183.5 C 155.152344 184.246094 154.925781 186.117188 154.925781 186.117188 "/></clipPath><clipPath id="96f5c567a8"><path d="M 120.816406 226.132812 L 142.59375 226.132812 L 142.59375 283.597656 L 120.816406 283.597656 Z M 120.816406 226.132812 "/></clipPath><clipPath id="ae57becef5"><path d="M 142.511719 230.992188 C 133.535156 259.789062 130.320312 277.289062 128.078125 281.328125 C 127.402344 282.453125 126.953125 282.824219 126.207031 283.199219 C 125.457031 283.574219 124.335938 283.574219 123.589844 283.421875 C 122.992188 283.273438 122.464844 282.976562 122.019531 282.527344 C 121.496094 281.929688 120.894531 280.957031 120.894531 280.132812 C 120.894531 279.085938 121.71875 277.441406 122.464844 276.765625 C 123.066406 276.242188 123.960938 276.09375 124.710938 276.09375 C 125.457031 276.09375 126.355469 276.316406 126.953125 276.917969 C 127.703125 277.589844 128.375 279.160156 128.375 280.132812 C 128.375 280.878906 128 281.777344 127.402344 282.300781 C 126.730469 282.976562 125.160156 283.648438 124.113281 283.5 C 123.140625 283.421875 121.71875 282.375 121.269531 281.480469 C 120.820312 280.582031 120.894531 278.859375 121.34375 277.964844 C 121.867188 277.066406 123.289062 276.167969 124.335938 276.09375 C 125.308594 276.019531 126.878906 276.617188 127.554688 277.441406 C 128.226562 278.335938 128.449219 280.28125 128.078125 281.328125 C 127.703125 282.300781 126.355469 283.273438 125.382812 283.5 C 124.335938 283.722656 122.765625 283.199219 122.019531 282.527344 C 121.269531 281.777344 120.972656 280.878906 120.972656 279.160156 C 120.820312 274.148438 126.429688 257.394531 129.125 248.269531 C 131.292969 240.941406 133.6875 231.667969 135.40625 228.523438 C 136.078125 227.402344 136.378906 226.878906 137.125 226.503906 C 138.023438 226.054688 139.746094 226.054688 140.640625 226.429688 C 141.390625 226.730469 142.136719 227.628906 142.4375 228.375 C 142.734375 229.125 142.511719 230.992188 142.511719 230.992188 "/></clipPath><clipPath id="f2f10ba027"><path d="M 168.261719 143.859375 L 190.039062 143.859375 L 190.039062 201.324219 L 168.261719 201.324219 Z M 168.261719 143.859375 "/></clipPath><clipPath id="435673b2c8"><path d="M 189.957031 148.71875 C 180.980469 177.515625 177.765625 195.015625 175.519531 199.054688 C 174.847656 200.175781 174.398438 200.550781 173.652344 200.925781 C 172.902344 201.300781 171.78125 201.300781 171.035156 201.148438 C 170.433594 201 169.910156 200.699219 169.464844 200.253906 C 168.941406 199.652344 168.339844 198.683594 168.339844 197.859375 C 168.339844 196.8125 169.164062 195.167969 169.910156 194.492188 C 170.511719 193.96875 171.40625 193.820312 172.15625 193.820312 C 172.902344 193.820312 173.800781 194.042969 174.398438 194.644531 C 175.148438 195.316406 175.820312 196.886719 175.820312 197.859375 C 175.820312 198.605469 175.445312 199.503906 174.847656 200.027344 C 174.175781 200.699219 172.605469 201.375 171.558594 201.226562 C 170.585938 201.148438 169.164062 200.101562 168.714844 199.207031 C 168.265625 198.308594 168.339844 196.585938 168.789062 195.691406 C 169.3125 194.792969 170.734375 193.894531 171.78125 193.820312 C 172.753906 193.746094 174.324219 194.34375 174.996094 195.167969 C 175.671875 196.0625 175.894531 198.007812 175.519531 199.054688 C 175.148438 200.027344 173.800781 201 172.828125 201.226562 C 171.78125 201.449219 170.210938 200.925781 169.464844 200.253906 C 168.714844 199.503906 168.417969 198.605469 168.417969 196.886719 C 168.265625 191.875 173.875 175.121094 176.570312 165.996094 C 178.738281 158.667969 181.132812 149.390625 182.851562 146.25 C 183.523438 145.128906 183.824219 144.605469 184.570312 144.230469 C 185.46875 143.78125 187.1875 143.78125 188.085938 144.15625 C 188.835938 144.457031 189.582031 145.351562 189.882812 146.101562 C 190.179688 146.847656 189.957031 148.71875 189.957031 148.71875 "/></clipPath><clipPath id="ccb762f801"><path d="M 157.5 181.929688 L 179.277344 181.929688 L 179.277344 239.394531 L 157.5 239.394531 Z M 157.5 181.929688 "/></clipPath><clipPath id="ebff53374f"><path d="M 179.199219 186.789062 C 170.222656 215.585938 167.007812 233.085938 164.761719 237.125 C 164.089844 238.246094 163.640625 238.621094 162.890625 238.996094 C 162.144531 239.371094 161.023438 239.371094 160.273438 239.21875 C 159.675781 239.070312 159.152344 238.773438 158.703125 238.324219 C 158.179688 237.722656 157.582031 236.753906 157.582031 235.929688 C 157.582031 234.882812 158.40625 233.238281 159.152344 232.5625 C 159.75 232.039062 160.648438 231.890625 161.398438 231.890625 C 162.144531 231.890625 163.042969 232.113281 163.640625 232.714844 C 164.386719 233.386719 165.0625 234.957031 165.0625 235.929688 C 165.0625 236.675781 164.6875 237.574219 164.089844 238.097656 C 163.417969 238.773438 161.84375 239.445312 160.796875 239.296875 C 159.824219 239.21875 158.40625 238.171875 157.957031 237.277344 C 157.507812 236.378906 157.582031 234.65625 158.03125 233.761719 C 158.554688 232.863281 159.976562 231.964844 161.023438 231.890625 C 161.996094 231.816406 163.566406 232.414062 164.238281 233.238281 C 164.910156 234.132812 165.136719 236.078125 164.761719 237.125 C 164.386719 238.097656 163.042969 239.070312 162.070312 239.296875 C 161.023438 239.519531 159.453125 238.996094 158.703125 238.324219 C 157.957031 237.574219 157.65625 236.675781 157.65625 234.957031 C 157.507812 229.945312 163.117188 213.191406 165.808594 204.066406 C 167.976562 196.738281 170.371094 187.460938 172.09375 184.320312 C 172.765625 183.199219 173.066406 182.675781 173.8125 182.300781 C 174.710938 181.851562 176.429688 181.851562 177.328125 182.226562 C 178.074219 182.527344 178.824219 183.421875 179.121094 184.171875 C 179.421875 184.917969 179.199219 186.789062 179.199219 186.789062 "/></clipPath><clipPath id="f7344f1e63"><path d="M 145.085938 226.808594 L 166.863281 226.808594 L 166.863281 284.269531 L 145.085938 284.269531 Z M 145.085938 226.808594 "/></clipPath><clipPath id="04aa0e5d53"><path d="M 166.78125 231.664062 C 157.808594 260.460938 154.589844 277.964844 152.347656 282.003906 C 151.671875 283.125 151.226562 283.5 150.476562 283.871094 C 149.730469 284.246094 148.605469 284.246094 147.859375 284.097656 C 147.261719 283.945312 146.738281 283.648438 146.289062 283.199219 C 145.765625 282.601562 145.167969 281.628906 145.167969 280.804688 C 145.167969 279.757812 145.988281 278.113281 146.738281 277.441406 C 147.335938 276.917969 148.234375 276.765625 148.980469 276.765625 C 149.730469 276.765625 150.625 276.992188 151.226562 277.589844 C 151.972656 278.261719 152.644531 279.832031 152.644531 280.804688 C 152.644531 281.554688 152.273438 282.453125 151.671875 282.976562 C 151 283.648438 149.429688 284.320312 148.382812 284.171875 C 147.410156 284.097656 145.988281 283.050781 145.539062 282.152344 C 145.09375 281.253906 145.167969 279.535156 145.617188 278.636719 C 146.140625 277.738281 147.558594 276.839844 148.605469 276.765625 C 149.578125 276.691406 151.148438 277.289062 151.824219 278.113281 C 152.496094 279.011719 152.722656 280.957031 152.347656 282.003906 C 151.972656 282.976562 150.625 283.945312 149.652344 284.171875 C 148.605469 284.394531 147.035156 283.871094 146.289062 283.199219 C 145.539062 282.453125 145.242188 281.554688 145.242188 279.832031 C 145.09375 274.820312 150.703125 258.066406 153.394531 248.945312 C 155.5625 241.613281 157.957031 232.339844 159.675781 229.199219 C 160.351562 228.074219 160.648438 227.550781 161.398438 227.179688 C 162.292969 226.730469 164.015625 226.730469 164.914062 227.101562 C 165.660156 227.402344 166.40625 228.300781 166.707031 229.046875 C 167.007812 229.796875 166.78125 231.664062 166.78125 231.664062 "/></clipPath><clipPath id="952f623f09"><path d="M 200.847656 115.140625 L 222.625 115.140625 L 222.625 172.601562 L 200.847656 172.601562 Z M 200.847656 115.140625 "/></clipPath><clipPath id="fca65e85dc"><path d="M 222.542969 120 C 213.566406 148.792969 210.351562 166.296875 208.105469 170.335938 C 207.433594 171.457031 206.984375 171.832031 206.238281 172.203125 C 205.488281 172.578125 204.367188 172.578125 203.621094 172.429688 C 203.019531 172.28125 202.496094 171.980469 202.050781 171.53125 C 201.527344 170.933594 200.925781 169.960938 200.925781 169.136719 C 200.925781 168.089844 201.75 166.445312 202.496094 165.773438 C 203.097656 165.25 203.992188 165.097656 204.742188 165.097656 C 205.488281 165.097656 206.386719 165.324219 206.984375 165.921875 C 207.734375 166.59375 208.40625 168.164062 208.40625 169.136719 C 208.40625 169.886719 208.03125 170.785156 207.433594 171.308594 C 206.761719 171.980469 205.191406 172.652344 204.144531 172.503906 C 203.171875 172.429688 201.75 171.382812 201.300781 170.484375 C 200.851562 169.585938 200.925781 167.867188 201.375 166.96875 C 201.898438 166.070312 203.320312 165.175781 204.367188 165.097656 C 205.339844 165.023438 206.910156 165.621094 207.582031 166.445312 C 208.257812 167.34375 208.480469 169.289062 208.105469 170.335938 C 207.734375 171.308594 206.386719 172.28125 205.414062 172.503906 C 204.367188 172.726562 202.796875 172.203125 202.050781 171.53125 C 201.300781 170.785156 201 169.886719 201 168.164062 C 200.851562 163.15625 206.460938 146.402344 209.15625 137.277344 C 211.324219 129.945312 213.71875 120.671875 215.4375 117.53125 C 216.109375 116.40625 216.410156 115.882812 217.15625 115.511719 C 218.054688 115.0625 219.773438 115.0625 220.671875 115.4375 C 221.421875 115.734375 222.167969 116.632812 222.46875 117.378906 C 222.765625 118.128906 222.542969 120 222.542969 120 "/></clipPath><clipPath id="4721500f5f"><path d="M 189.316406 155.152344 L 211.09375 155.152344 L 211.09375 212.617188 L 189.316406 212.617188 Z M 189.316406 155.152344 "/></clipPath><clipPath id="d57d160d11"><path d="M 211.011719 160.011719 C 202.039062 188.808594 198.820312 206.3125 196.578125 210.351562 C 195.90625 211.472656 195.457031 211.84375 194.707031 212.21875 C 193.960938 212.59375 192.839844 212.59375 192.089844 212.445312 C 191.492188 212.292969 190.96875 211.996094 190.519531 211.546875 C 189.996094 210.949219 189.398438 209.976562 189.398438 209.152344 C 189.398438 208.105469 190.21875 206.460938 190.96875 205.789062 C 191.566406 205.261719 192.464844 205.113281 193.210938 205.113281 C 193.960938 205.113281 194.859375 205.339844 195.457031 205.9375 C 196.203125 206.609375 196.878906 208.179688 196.878906 209.152344 C 196.878906 209.902344 196.503906 210.796875 195.90625 211.320312 C 195.230469 211.996094 193.660156 212.667969 192.613281 212.519531 C 191.640625 212.445312 190.21875 211.398438 189.773438 210.5 C 189.324219 209.601562 189.398438 207.882812 189.847656 206.984375 C 190.371094 206.085938 191.789062 205.1875 192.839844 205.113281 C 193.808594 205.039062 195.382812 205.636719 196.054688 206.460938 C 196.726562 207.359375 196.953125 209.300781 196.578125 210.351562 C 196.203125 211.320312 194.859375 212.292969 193.886719 212.519531 C 192.839844 212.742188 191.265625 212.21875 190.519531 211.546875 C 189.773438 210.796875 189.472656 209.902344 189.472656 208.179688 C 189.324219 203.167969 194.933594 186.414062 197.625 177.289062 C 199.792969 169.960938 202.1875 160.6875 203.90625 157.542969 C 204.582031 156.421875 204.878906 155.898438 205.628906 155.523438 C 206.527344 155.078125 208.246094 155.078125 209.144531 155.449219 C 209.890625 155.75 210.640625 156.648438 210.9375 157.394531 C 211.238281 158.144531 211.011719 160.011719 211.011719 160.011719 "/></clipPath><clipPath id="f96552a21f"><path d="M 178.558594 193.222656 L 200.335938 193.222656 L 200.335938 250.6875 L 178.558594 250.6875 Z M 178.558594 193.222656 "/></clipPath><clipPath id="dc78df2d0d"><path d="M 200.253906 198.082031 C 191.277344 226.878906 188.0625 244.382812 185.820312 248.421875 C 185.144531 249.542969 184.695312 249.914062 183.949219 250.289062 C 183.199219 250.664062 182.078125 250.664062 181.332031 250.515625 C 180.734375 250.363281 180.210938 250.066406 179.761719 249.617188 C 179.238281 249.019531 178.636719 248.046875 178.636719 247.222656 C 178.636719 246.175781 179.460938 244.53125 180.210938 243.859375 C 180.808594 243.332031 181.703125 243.183594 182.453125 243.183594 C 183.199219 243.183594 184.097656 243.410156 184.695312 244.007812 C 185.445312 244.679688 186.117188 246.25 186.117188 247.222656 C 186.117188 247.972656 185.742188 248.867188 185.144531 249.390625 C 184.472656 250.066406 182.902344 250.738281 181.855469 250.589844 C 180.882812 250.515625 179.460938 249.46875 179.011719 248.570312 C 178.5625 247.671875 178.636719 245.953125 179.085938 245.054688 C 179.609375 244.15625 181.03125 243.257812 182.078125 243.183594 C 183.050781 243.109375 184.621094 243.707031 185.296875 244.53125 C 185.96875 245.429688 186.191406 247.371094 185.820312 248.421875 C 185.445312 249.390625 184.097656 250.363281 183.125 250.589844 C 182.078125 250.8125 180.507812 250.289062 179.761719 249.617188 C 179.011719 248.867188 178.714844 247.972656 178.714844 246.25 C 178.5625 241.238281 184.171875 224.484375 186.867188 215.359375 C 189.035156 208.03125 191.429688 198.757812 193.148438 195.613281 C 193.820312 194.492188 194.121094 193.96875 194.867188 193.597656 C 195.765625 193.148438 197.488281 193.148438 198.382812 193.519531 C 199.132812 193.820312 199.878906 194.71875 200.179688 195.464844 C 200.476562 196.214844 200.253906 198.082031 200.253906 198.082031 "/></clipPath><clipPath id="98504700cc"><path d="M 166.140625 238.101562 L 187.917969 238.101562 L 187.917969 295.5625 L 166.140625 295.5625 Z M 166.140625 238.101562 "/></clipPath><clipPath id="36318d9908"><path d="M 187.839844 242.960938 C 178.863281 271.753906 175.648438 289.257812 173.402344 293.296875 C 172.730469 294.417969 172.28125 294.792969 171.535156 295.167969 C 170.785156 295.539062 169.664062 295.539062 168.914062 295.390625 C 168.316406 295.242188 167.792969 294.941406 167.34375 294.492188 C 166.820312 293.894531 166.222656 292.921875 166.222656 292.101562 C 166.222656 291.054688 167.046875 289.40625 167.792969 288.734375 C 168.390625 288.210938 169.289062 288.0625 170.039062 288.0625 C 170.785156 288.0625 171.683594 288.285156 172.28125 288.882812 C 173.027344 289.558594 173.703125 291.128906 173.703125 292.101562 C 173.703125 292.847656 173.328125 293.746094 172.730469 294.269531 C 172.058594 294.941406 170.484375 295.613281 169.4375 295.464844 C 168.464844 295.390625 167.046875 294.34375 166.597656 293.445312 C 166.148438 292.546875 166.222656 290.828125 166.671875 289.929688 C 167.195312 289.035156 168.617188 288.136719 169.664062 288.0625 C 170.636719 287.984375 172.207031 288.585938 172.878906 289.40625 C 173.554688 290.304688 173.777344 292.25 173.402344 293.296875 C 173.027344 294.269531 171.683594 295.242188 170.710938 295.464844 C 169.664062 295.691406 168.09375 295.167969 167.34375 294.492188 C 166.597656 293.746094 166.296875 292.847656 166.296875 291.128906 C 166.148438 286.117188 171.757812 269.363281 174.449219 260.238281 C 176.621094 252.90625 179.011719 243.632812 180.734375 240.492188 C 181.40625 239.371094 181.707031 238.847656 182.453125 238.472656 C 183.351562 238.023438 185.070312 238.023438 185.96875 238.398438 C 186.714844 238.695312 187.464844 239.59375 187.765625 240.34375 C 188.0625 241.089844 187.839844 242.960938 187.839844 242.960938 "/></clipPath><clipPath id="0c3c0086db"><path d="M 221.785156 116.671875 L 243.566406 116.671875 L 243.566406 174.132812 L 221.785156 174.132812 Z M 221.785156 116.671875 "/></clipPath><clipPath id="dde6c2be92"><path d="M 243.484375 121.53125 C 234.507812 150.328125 231.292969 167.828125 229.046875 171.867188 C 228.375 172.988281 227.925781 173.363281 227.179688 173.738281 C 226.429688 174.113281 225.308594 174.113281 224.5625 173.960938 C 223.960938 173.8125 223.4375 173.511719 222.988281 173.066406 C 222.464844 172.464844 221.867188 171.492188 221.867188 170.671875 C 221.867188 169.625 222.691406 167.980469 223.4375 167.304688 C 224.035156 166.78125 224.933594 166.632812 225.683594 166.632812 C 226.429688 166.632812 227.328125 166.855469 227.925781 167.457031 C 228.675781 168.128906 229.347656 169.699219 229.347656 170.671875 C 229.347656 171.417969 228.972656 172.316406 228.375 172.839844 C 227.703125 173.511719 226.132812 174.1875 225.085938 174.035156 C 224.113281 173.960938 222.691406 172.914062 222.242188 172.015625 C 221.792969 171.121094 221.867188 169.398438 222.316406 168.503906 C 222.839844 167.605469 224.261719 166.707031 225.308594 166.632812 C 226.28125 166.558594 227.851562 167.15625 228.523438 167.980469 C 229.199219 168.875 229.421875 170.820312 229.046875 171.867188 C 228.675781 172.839844 227.328125 173.8125 226.355469 174.035156 C 225.308594 174.261719 223.738281 173.738281 222.988281 173.066406 C 222.242188 172.316406 221.941406 171.417969 221.941406 169.699219 C 221.792969 164.6875 227.402344 147.933594 230.09375 138.808594 C 232.265625 131.480469 234.65625 122.203125 236.378906 119.0625 C 237.050781 117.941406 237.351562 117.417969 238.097656 117.042969 C 238.996094 116.59375 240.714844 116.59375 241.613281 116.96875 C 242.363281 117.269531 243.109375 118.164062 243.410156 118.914062 C 243.707031 119.660156 243.484375 121.53125 243.484375 121.53125 "/></clipPath><clipPath id="f5b606be53"><path d="M 210.257812 156.6875 L 232.035156 156.6875 L 232.035156 214.148438 L 210.257812 214.148438 Z M 210.257812 156.6875 "/></clipPath><clipPath id="a0d3cb3a33"><path d="M 231.953125 161.546875 C 222.980469 190.34375 219.761719 207.84375 217.519531 211.882812 C 216.84375 213.003906 216.398438 213.378906 215.648438 213.753906 C 214.902344 214.125 213.777344 214.125 213.03125 213.976562 C 212.433594 213.828125 211.910156 213.527344 211.460938 213.078125 C 210.9375 212.480469 210.339844 211.507812 210.339844 210.6875 C 210.339844 209.640625 211.160156 207.992188 211.910156 207.320312 C 212.507812 206.796875 213.40625 206.648438 214.152344 206.648438 C 214.902344 206.648438 215.796875 206.871094 216.398438 207.46875 C 217.144531 208.144531 217.816406 209.714844 217.816406 210.6875 C 217.816406 211.433594 217.445312 212.332031 216.84375 212.855469 C 216.171875 213.527344 214.601562 214.203125 213.554688 214.050781 C 212.582031 213.976562 211.160156 212.929688 210.710938 212.03125 C 210.261719 211.136719 210.339844 209.414062 210.789062 208.515625 C 211.3125 207.621094 212.730469 206.722656 213.777344 206.648438 C 214.75 206.574219 216.320312 207.171875 216.996094 207.992188 C 217.667969 208.890625 217.894531 210.835938 217.519531 211.882812 C 217.144531 212.855469 215.796875 213.828125 214.824219 214.050781 C 213.777344 214.277344 212.207031 213.753906 211.460938 213.078125 C 210.710938 212.332031 210.414062 211.433594 210.414062 209.714844 C 210.261719 204.703125 215.875 187.949219 218.566406 178.824219 C 220.734375 171.492188 223.128906 162.21875 224.847656 159.078125 C 225.523438 157.957031 225.820312 157.433594 226.570312 157.058594 C 227.464844 156.609375 229.1875 156.609375 230.085938 156.984375 C 230.832031 157.28125 231.578125 158.179688 231.878906 158.929688 C 232.179688 159.675781 231.953125 161.546875 231.953125 161.546875 "/></clipPath><clipPath id="e0b9d729d6"><path d="M 199.5 194.757812 L 221.277344 194.757812 L 221.277344 252.21875 L 199.5 252.21875 Z M 199.5 194.757812 "/></clipPath><clipPath id="e3566b9cf0"><path d="M 221.195312 199.617188 C 212.21875 228.414062 209.003906 245.914062 206.757812 249.953125 C 206.085938 251.074219 205.636719 251.449219 204.890625 251.824219 C 204.140625 252.195312 203.019531 252.195312 202.273438 252.046875 C 201.671875 251.898438 201.148438 251.597656 200.703125 251.148438 C 200.175781 250.550781 199.578125 249.578125 199.578125 248.757812 C 199.578125 247.710938 200.402344 246.0625 201.148438 245.390625 C 201.75 244.867188 202.644531 244.71875 203.394531 244.71875 C 204.140625 244.71875 205.039062 244.941406 205.636719 245.539062 C 206.386719 246.214844 207.058594 247.785156 207.058594 248.757812 C 207.058594 249.503906 206.683594 250.402344 206.085938 250.925781 C 205.414062 251.597656 203.84375 252.273438 202.796875 252.121094 C 201.824219 252.046875 200.402344 251 199.953125 250.101562 C 199.503906 249.207031 199.578125 247.484375 200.027344 246.585938 C 200.550781 245.691406 201.972656 244.792969 203.019531 244.71875 C 203.992188 244.644531 205.5625 245.242188 206.234375 246.0625 C 206.910156 246.960938 207.132812 248.90625 206.757812 249.953125 C 206.386719 250.925781 205.039062 251.898438 204.066406 252.121094 C 203.019531 252.347656 201.449219 251.824219 200.703125 251.148438 C 199.953125 250.402344 199.652344 249.503906 199.652344 247.785156 C 199.503906 242.773438 205.113281 226.019531 207.808594 216.894531 C 209.976562 209.5625 212.367188 200.289062 214.089844 197.148438 C 214.761719 196.027344 215.0625 195.503906 215.808594 195.128906 C 216.707031 194.679688 218.425781 194.679688 219.324219 195.054688 C 220.074219 195.351562 220.820312 196.25 221.121094 197 C 221.417969 197.746094 221.195312 199.617188 221.195312 199.617188 "/></clipPath><clipPath id="46e73cbbdc"><path d="M 187.082031 239.632812 L 208.859375 239.632812 L 208.859375 297.097656 L 187.082031 297.097656 Z M 187.082031 239.632812 "/></clipPath><clipPath id="ab6856080c"><path d="M 208.78125 244.492188 C 199.804688 273.289062 196.589844 290.789062 194.34375 294.828125 C 193.671875 295.953125 193.222656 296.324219 192.472656 296.699219 C 191.726562 297.074219 190.605469 297.074219 189.855469 296.925781 C 189.257812 296.773438 188.734375 296.476562 188.285156 296.027344 C 187.761719 295.429688 187.164062 294.457031 187.164062 293.632812 C 187.164062 292.585938 187.988281 290.941406 188.734375 290.265625 C 189.332031 289.742188 190.230469 289.59375 190.976562 289.59375 C 191.726562 289.59375 192.625 289.820312 193.222656 290.417969 C 193.96875 291.089844 194.644531 292.660156 194.644531 293.632812 C 194.644531 294.382812 194.269531 295.277344 193.671875 295.800781 C 192.996094 296.476562 191.425781 297.148438 190.378906 297 C 189.40625 296.925781 187.988281 295.878906 187.539062 294.980469 C 187.089844 294.082031 187.164062 292.363281 187.613281 291.464844 C 188.136719 290.566406 189.558594 289.667969 190.605469 289.59375 C 191.578125 289.519531 193.148438 290.117188 193.820312 290.941406 C 194.492188 291.839844 194.71875 293.78125 194.34375 294.828125 C 193.96875 295.800781 192.625 296.773438 191.652344 297 C 190.605469 297.222656 189.035156 296.699219 188.285156 296.027344 C 187.539062 295.277344 187.238281 294.382812 187.238281 292.660156 C 187.089844 287.648438 192.699219 270.894531 195.390625 261.769531 C 197.558594 254.441406 199.953125 245.167969 201.675781 242.023438 C 202.347656 240.902344 202.644531 240.378906 203.394531 240.003906 C 204.292969 239.558594 206.011719 239.558594 206.910156 239.929688 C 207.65625 240.230469 208.40625 241.128906 208.703125 241.875 C 209.003906 242.625 208.78125 244.492188 208.78125 244.492188 "/></clipPath><clipPath id="8b8c678d3a"><path d="M 141.488281 274.703125 L 153.109375 274.703125 L 153.109375 297.742188 L 141.488281 297.742188 Z M 141.488281 274.703125 "/></clipPath><clipPath id="e6ba5acfb1"><path d="M 153.058594 279.011719 C 147.894531 296.8125 147.449219 297.1875 146.699219 297.410156 C 145.726562 297.710938 144.007812 297.558594 143.183594 297.109375 C 142.511719 296.738281 141.988281 295.914062 141.6875 295.242188 C 141.464844 294.492188 141.464844 293.519531 141.6875 292.847656 C 141.914062 292.101562 142.363281 291.277344 143.109375 290.902344 C 143.933594 290.453125 145.578125 290.082031 146.550781 290.453125 C 147.523438 290.828125 148.644531 292.101562 148.867188 293.070312 C 149.09375 294.121094 148.570312 295.765625 147.972656 296.511719 C 147.523438 297.109375 146.625 297.484375 145.878906 297.632812 C 145.128906 297.785156 144.230469 297.632812 143.558594 297.335938 C 142.886719 296.960938 142.210938 296.289062 141.839844 295.613281 C 141.539062 294.941406 141.464844 294.34375 141.539062 293.222656 C 141.839844 290.15625 144.90625 278.488281 146.324219 276.242188 C 146.847656 275.496094 147.148438 275.347656 147.746094 275.046875 C 148.421875 274.746094 149.542969 274.597656 150.363281 274.824219 C 151.1875 275.046875 152.011719 275.71875 152.535156 276.394531 C 152.980469 277.066406 153.058594 279.011719 153.058594 279.011719 "/></clipPath><clipPath id="f8fceb03d4"><path d="M 163.007812 281.1875 L 175.792969 281.1875 L 175.792969 307.1875 L 163.007812 307.1875 Z M 163.007812 281.1875 "/></clipPath><clipPath id="0ce5ee510d"><path d="M 175.71875 286.191406 C 168.988281 306.609375 168.316406 306.910156 167.492188 307.058594 C 166.667969 307.207031 165.546875 306.984375 164.875 306.609375 C 164.125 306.160156 163.453125 305.261719 163.230469 304.515625 C 163.003906 303.691406 163.003906 302.570312 163.378906 301.824219 C 163.828125 300.925781 165.175781 299.878906 166.144531 299.652344 C 167.191406 299.503906 168.765625 300.027344 169.511719 300.777344 C 170.183594 301.523438 170.632812 303.167969 170.410156 304.140625 C 170.183594 305.1875 169.0625 306.386719 168.164062 306.835938 C 167.492188 307.207031 166.519531 307.207031 165.773438 306.984375 C 165.097656 306.757812 164.277344 306.3125 163.828125 305.636719 C 163.304688 304.816406 162.929688 303.167969 163.230469 302.195312 C 163.527344 301.226562 164.800781 300.027344 165.773438 299.804688 C 166.746094 299.503906 168.390625 299.804688 169.210938 300.550781 C 170.035156 301.226562 170.632812 302.945312 170.484375 304.066406 C 170.335938 305.039062 169.289062 306.386719 168.316406 306.757812 C 167.417969 307.207031 165.773438 307.132812 164.875 306.609375 C 163.976562 306.085938 163.230469 305.039062 163.078125 303.617188 C 162.632812 300.625 165.773438 292.625 166.96875 288.808594 C 167.640625 286.414062 168.089844 284.320312 168.988281 283.125 C 169.585938 282.226562 170.410156 281.703125 171.082031 281.480469 C 171.679688 281.253906 172.28125 281.179688 172.878906 281.328125 C 173.625 281.554688 174.671875 282.003906 175.121094 282.75 C 175.71875 283.574219 175.71875 286.191406 175.71875 286.191406 "/></clipPath><clipPath id="95a4f89f9d"><path d="M 243.441406 113.679688 L 265.21875 113.679688 L 265.21875 171.144531 L 243.441406 171.144531 Z M 243.441406 113.679688 "/></clipPath><clipPath id="405c739661"><path d="M 265.136719 118.539062 C 256.160156 147.335938 252.945312 164.835938 250.703125 168.875 C 250.027344 170 249.578125 170.371094 248.832031 170.746094 C 248.082031 171.121094 246.960938 171.121094 246.214844 170.96875 C 245.613281 170.820312 245.089844 170.523438 244.644531 170.074219 C 244.121094 169.476562 243.519531 168.503906 243.519531 167.679688 C 243.519531 166.632812 244.34375 164.988281 245.089844 164.3125 C 245.691406 163.789062 246.585938 163.640625 247.335938 163.640625 C 248.082031 163.640625 248.980469 163.863281 249.578125 164.464844 C 250.328125 165.136719 251 166.707031 251 167.679688 C 251 168.425781 250.625 169.324219 250.027344 169.847656 C 249.355469 170.523438 247.785156 171.195312 246.738281 171.046875 C 245.765625 170.96875 244.34375 169.921875 243.894531 169.027344 C 243.445312 168.128906 243.519531 166.40625 243.96875 165.511719 C 244.492188 164.613281 245.914062 163.714844 246.960938 163.640625 C 247.933594 163.566406 249.503906 164.164062 250.175781 164.988281 C 250.851562 165.882812 251.074219 167.828125 250.703125 168.875 C 250.328125 169.847656 248.980469 170.820312 248.007812 171.046875 C 246.960938 171.269531 245.390625 170.746094 244.644531 170.074219 C 243.894531 169.324219 243.597656 168.425781 243.597656 166.707031 C 243.445312 161.695312 249.054688 144.941406 251.75 135.816406 C 253.917969 128.488281 256.3125 119.210938 258.03125 116.070312 C 258.703125 114.949219 259.003906 114.425781 259.75 114.050781 C 260.648438 113.601562 262.367188 113.601562 263.265625 113.976562 C 264.015625 114.277344 264.761719 115.175781 265.0625 115.921875 C 265.359375 116.667969 265.136719 118.539062 265.136719 118.539062 "/></clipPath><clipPath id="f8b7b20d37"><path d="M 234.398438 146.589844 L 256.175781 146.589844 L 256.175781 204.050781 L 234.398438 204.050781 Z M 234.398438 146.589844 "/></clipPath><clipPath id="b73a41bf3d"><path d="M 256.09375 151.449219 C 247.121094 180.246094 243.902344 197.746094 241.660156 201.785156 C 240.988281 202.90625 240.539062 203.28125 239.789062 203.65625 C 239.042969 204.03125 237.921875 204.03125 237.171875 203.878906 C 236.574219 203.730469 236.050781 203.429688 235.601562 202.980469 C 235.078125 202.382812 234.480469 201.410156 234.480469 200.589844 C 234.480469 199.542969 235.300781 197.894531 236.050781 197.222656 C 236.648438 196.699219 237.546875 196.550781 238.292969 196.550781 C 239.042969 196.550781 239.941406 196.773438 240.539062 197.371094 C 241.285156 198.046875 241.960938 199.617188 241.960938 200.589844 C 241.960938 201.335938 241.585938 202.234375 240.988281 202.757812 C 240.3125 203.429688 238.742188 204.105469 237.695312 203.953125 C 236.722656 203.878906 235.300781 202.832031 234.855469 201.933594 C 234.40625 201.039062 234.480469 199.316406 234.929688 198.421875 C 235.453125 197.523438 236.875 196.625 237.921875 196.550781 C 238.894531 196.476562 240.464844 197.074219 241.136719 197.894531 C 241.808594 198.792969 242.035156 200.738281 241.660156 201.785156 C 241.285156 202.757812 239.941406 203.730469 238.96875 203.953125 C 237.921875 204.179688 236.351562 203.65625 235.601562 202.980469 C 234.855469 202.234375 234.554688 201.335938 234.554688 199.617188 C 234.40625 194.605469 240.015625 177.851562 242.707031 168.726562 C 244.875 161.398438 247.269531 152.121094 248.988281 148.980469 C 249.664062 147.859375 249.960938 147.335938 250.710938 146.960938 C 251.609375 146.511719 253.328125 146.511719 254.226562 146.886719 C 254.972656 147.1875 255.722656 148.082031 256.019531 148.832031 C 256.320312 149.578125 256.09375 151.449219 256.09375 151.449219 "/></clipPath><clipPath id="3e787066d8"><path d="M 180.546875 108.167969 L 199.386719 108.167969 L 199.386719 155.558594 L 180.546875 155.558594 Z M 180.546875 108.167969 "/></clipPath><clipPath id="46af357891"><path d="M 180.804688 150.289062 C 188.660156 127.628906 190.230469 113.191406 192.324219 109.976562 C 193.070312 108.929688 193.671875 108.554688 194.492188 108.332031 C 195.242188 108.105469 196.363281 108.253906 197.109375 108.554688 C 197.859375 108.929688 198.605469 109.75 198.980469 110.5 C 199.28125 111.246094 199.503906 112.371094 199.054688 113.117188 C 198.382812 114.164062 195.464844 115.734375 194.195312 115.4375 C 193.222656 115.285156 192.175781 113.789062 191.875 112.816406 C 191.652344 112.070312 191.726562 111.171875 192.101562 110.5 C 192.546875 109.601562 193.820312 108.480469 194.792969 108.253906 C 195.839844 108.105469 197.410156 108.554688 198.15625 109.300781 C 198.90625 110.050781 199.355469 111.621094 199.207031 112.667969 C 198.980469 113.640625 197.933594 114.988281 196.960938 115.359375 C 196.0625 115.808594 194.34375 115.660156 193.519531 115.136719 C 192.625 114.539062 191.800781 113.117188 191.800781 112.070312 C 191.726562 111.023438 192.625 109.527344 193.296875 108.929688 C 193.96875 108.40625 195.539062 108.105469 195.613281 108.179688 C 195.691406 108.40625 192.023438 110.875 191.949219 110.796875 C 191.875 110.722656 193.519531 108.703125 194.492188 108.332031 C 195.316406 108.105469 196.363281 108.253906 197.109375 108.554688 C 197.859375 108.929688 198.605469 109.824219 198.980469 110.5 C 199.207031 111.023438 199.207031 111.398438 199.207031 112.292969 C 199.207031 114.164062 198.382812 118.128906 197.558594 121.867188 C 196.4375 127.179688 194.269531 135.480469 192.398438 141.089844 C 190.902344 145.652344 189.109375 151.039062 187.6875 153.28125 C 187.015625 154.253906 186.566406 154.777344 185.816406 155.152344 C 185.070312 155.527344 183.945312 155.675781 183.199219 155.375 C 182.226562 155 181.03125 153.878906 180.65625 152.90625 C 180.355469 152.160156 180.804688 150.289062 180.804688 150.289062 "/></clipPath></defs><g id="20ac3d317d"><g clip-rule="nonzero" clip-path="url(#b79c76eb03)"><g clip-rule="nonzero" clip-path="url(#6af53b4988)"><path style=" stroke:none;fill-rule:nonzero;fill:currentColor;fill-opacity:1;" d="M 166.371094 203.617188 L 238.472656 203.617188 L 238.472656 337.402344 L 166.371094 337.402344 Z M 166.371094 203.617188 "/></g></g><g clip-rule="nonzero" clip-path="url(#68e44dd9b2)"><g clip-rule="nonzero" clip-path="url(#aba31c28c3)"><path style=" stroke:none;fill-rule:nonzero;fill:currentColor;fill-opacity:1;" d="M 225.308594 96.585938 L 296.0625 96.585938 L 296.0625 217.09375 L 225.308594 217.09375 Z M 225.308594 96.585938 "/></g></g><g clip-rule="nonzero" clip-path="url(#7bab8e3606)"><g clip-rule="nonzero" clip-path="url(#157e8fb45a)"><path style=" stroke:none;fill-rule:nonzero;fill:currentColor;fill-opacity:1;" d="M 261.285156 96.664062 L 296.140625 96.664062 L 296.140625 214.160156 L 261.285156 214.160156 Z M 261.285156 96.664062 "/></g></g><g clip-rule="nonzero" clip-path="url(#c11a146971)"><g clip-rule="nonzero" clip-path="url(#4e5dff7595)"><path style=" stroke:none;fill-rule:nonzero;fill:currentColor;fill-opacity:1;" d="M 233.011719 194.195312 L 276.242188 194.195312 L 276.242188 335.371094 L 233.011719 335.371094 Z M 233.011719 194.195312 "/></g></g><g clip-rule="nonzero" clip-path="url(#32dab3cdd6)"><g clip-rule="nonzero" clip-path="url(#8fca03af6b)"><path style=" stroke:none;fill-rule:nonzero;fill:currentColor;fill-opacity:1;" d="M 167.34375 319.550781 L 248.332031 319.550781 L 248.332031 337.5 L 167.34375 337.5 Z M 167.34375 319.550781 "/></g></g><g clip-rule="nonzero" clip-path="url(#11781911d8)"><g clip-rule="nonzero" clip-path="url(#367757e149)"><path style=" stroke:none;fill-rule:nonzero;fill:currentColor;fill-opacity:1;" d="M 85.890625 265.097656 L 179.496094 265.097656 L 179.496094 337.277344 L 85.890625 337.277344 Z M 85.890625 265.097656 "/></g></g><g clip-rule="nonzero" clip-path="url(#bbd2fc5d97)"><g clip-rule="nonzero" clip-path="url(#dcbd215f5e)"><path style=" stroke:none;fill-rule:nonzero;fill:currentColor;fill-opacity:1;" d="M 78.636719 172.28125 L 111.398438 172.28125 L 111.398438 278.621094 L 78.636719 278.621094 Z M 78.636719 172.28125 "/></g></g><g clip-rule="nonzero" clip-path="url(#d7f407150d)"><g clip-rule="nonzero" clip-path="url(#306b40a0bf)"><path style=" stroke:none;fill-rule:nonzero;fill:currentColor;fill-opacity:1;" d="M 96.886719 40.640625 L 130.320312 40.640625 L 130.320312 187.304688 L 96.886719 187.304688 Z M 96.886719 40.640625 "/></g></g><g clip-rule="nonzero" clip-path="url(#e5c5dcea3d)"><g clip-rule="nonzero" clip-path="url(#ee371b4482)"><path style=" stroke:none;fill-rule:nonzero;fill:currentColor;fill-opacity:1;" d="M 186.339844 75.195312 L 296.382812 75.195312 L 296.382812 108.855469 L 186.339844 108.855469 Z M 186.339844 75.195312 "/></g></g><g clip-rule="nonzero" clip-path="url(#bf1bd758be)"><g clip-rule="nonzero" clip-path="url(#99880ac7a0)"><path style=" stroke:none;fill-rule:nonzero;fill:currentColor;fill-opacity:1;" d="M 119.175781 75.121094 L 209.785156 75.121094 L 209.785156 117.605469 L 119.175781 117.605469 Z M 119.175781 75.121094 "/></g></g><g clip-rule="nonzero" clip-path="url(#7b268eca4b)"><g clip-rule="nonzero" clip-path="url(#7d1ded1053)"><path style=" stroke:none;fill-rule:nonzero;fill:currentColor;fill-opacity:1;" d="M 193.96875 98.980469 L 292.820312 98.980469 L 292.820312 122.988281 L 193.96875 122.988281 Z M 193.96875 98.980469 "/></g></g><g clip-rule="nonzero" clip-path="url(#d3aa8d3611)"><g clip-rule="nonzero" clip-path="url(#fcca2c3048)"><path style=" stroke:none;fill-rule:nonzero;fill:currentColor;fill-opacity:1;" d="M 104.890625 255 L 190.179688 255 L 190.179688 314.988281 L 104.890625 314.988281 Z M 104.890625 255 "/></g></g><g clip-rule="nonzero" clip-path="url(#c147e07a37)"><g clip-rule="nonzero" clip-path="url(#2e5132333b)"><path style=" stroke:none;fill-rule:nonzero;fill:currentColor;fill-opacity:1;" d="M 100.328125 162.480469 L 138.546875 162.480469 L 138.546875 272.066406 L 100.328125 272.066406 Z M 100.328125 162.480469 "/></g></g><g clip-rule="nonzero" clip-path="url(#32cc9b4d58)"><g clip-rule="nonzero" clip-path="url(#70d7fcda55)"><path style=" stroke:none;fill-rule:nonzero;fill:currentColor;fill-opacity:1;" d="M 124.035156 82.003906 L 151.5625 82.003906 L 151.5625 178.550781 L 124.035156 178.550781 Z M 124.035156 82.003906 "/></g></g><g clip-rule="nonzero" clip-path="url(#ec204ce6ea)"><g clip-rule="nonzero" clip-path="url(#415504ea53)"><path style=" stroke:none;fill-rule:nonzero;fill:currentColor;fill-opacity:1;" d="M 112.59375 37.5 L 132.265625 37.5 L 132.265625 57.863281 L 112.59375 57.863281 Z M 112.59375 37.5 "/></g></g><g clip-rule="nonzero" clip-path="url(#d86accbc14)"><g clip-rule="nonzero" clip-path="url(#941d25b5aa)"><path style=" stroke:none;fill-rule:nonzero;fill:currentColor;fill-opacity:1;" d="M 115.882812 38.398438 L 189.4375 38.398438 L 189.4375 83.125 L 115.882812 83.125 Z M 115.882812 38.398438 "/></g></g><g clip-rule="nonzero" clip-path="url(#9065d902c1)"><g clip-rule="nonzero" clip-path="url(#f2090c82cc)"><path style=" stroke:none;fill-rule:nonzero;fill:currentColor;fill-opacity:1;" d="M 174.148438 69.136719 L 202.097656 69.136719 L 202.097656 88.957031 L 174.148438 88.957031 Z M 174.148438 69.136719 "/></g></g><g clip-rule="nonzero" clip-path="url(#1229ebe553)"><g clip-rule="nonzero" clip-path="url(#67fce37b24)"><path style=" stroke:none;fill-rule:nonzero;fill:currentColor;fill-opacity:1;" d="M 173.328125 68.839844 L 198.878906 68.839844 L 198.878906 88.136719 L 173.328125 88.136719 Z M 173.328125 68.839844 "/></g></g><g clip-rule="nonzero" clip-path="url(#d6c3e46a7d)"><g clip-rule="nonzero" clip-path="url(#adef47bd01)"><path style=" stroke:none;fill-rule:nonzero;fill:currentColor;fill-opacity:1;" d="M 260.835938 194.042969 L 275.421875 194.042969 L 275.421875 214.042969 L 260.835938 214.042969 Z M 260.835938 194.042969 "/></g></g><g clip-rule="nonzero" clip-path="url(#3017179dcd)"><g clip-rule="nonzero" clip-path="url(#159a775ab0)"><path style=" stroke:none;fill-rule:nonzero;fill:currentColor;fill-opacity:1;" d="M 152.609375 100.476562 L 180.207031 100.476562 L 180.207031 163.652344 L 152.609375 163.652344 Z M 152.609375 100.476562 "/></g></g><g clip-rule="nonzero" clip-path="url(#a2e472467d)"><g clip-rule="nonzero" clip-path="url(#2fc51dcbf9)"><path style=" stroke:none;fill-rule:nonzero;fill:currentColor;fill-opacity:1;" d="M 141.078125 140.492188 L 168.679688 140.492188 L 168.679688 203.667969 L 141.078125 203.667969 Z M 141.078125 140.492188 "/></g></g><g clip-rule="nonzero" clip-path="url(#97d3f0b2f7)"><g clip-rule="nonzero" clip-path="url(#eb0948366d)"><path style=" stroke:none;fill-rule:nonzero;fill:currentColor;fill-opacity:1;" d="M 130.320312 178.5625 L 157.917969 178.5625 L 157.917969 241.738281 L 130.320312 241.738281 Z M 130.320312 178.5625 "/></g></g><g clip-rule="nonzero" clip-path="url(#96f5c567a8)"><g clip-rule="nonzero" clip-path="url(#ae57becef5)"><path style=" stroke:none;fill-rule:nonzero;fill:currentColor;fill-opacity:1;" d="M 117.902344 223.4375 L 145.503906 223.4375 L 145.503906 286.613281 L 117.902344 286.613281 Z M 117.902344 223.4375 "/></g></g><g clip-rule="nonzero" clip-path="url(#f2f10ba027)"><g clip-rule="nonzero" clip-path="url(#435673b2c8)"><path style=" stroke:none;fill-rule:nonzero;fill:currentColor;fill-opacity:1;" d="M 165.347656 141.164062 L 192.949219 141.164062 L 192.949219 204.339844 L 165.347656 204.339844 Z M 165.347656 141.164062 "/></g></g><g clip-rule="nonzero" clip-path="url(#ccb762f801)"><g clip-rule="nonzero" clip-path="url(#ebff53374f)"><path style=" stroke:none;fill-rule:nonzero;fill:currentColor;fill-opacity:1;" d="M 154.589844 179.234375 L 182.1875 179.234375 L 182.1875 242.410156 L 154.589844 242.410156 Z M 154.589844 179.234375 "/></g></g><g clip-rule="nonzero" clip-path="url(#f7344f1e63)"><g clip-rule="nonzero" clip-path="url(#04aa0e5d53)"><path style=" stroke:none;fill-rule:nonzero;fill:currentColor;fill-opacity:1;" d="M 142.175781 224.113281 L 169.773438 224.113281 L 169.773438 287.289062 L 142.175781 287.289062 Z M 142.175781 224.113281 "/></g></g><g clip-rule="nonzero" clip-path="url(#952f623f09)"><g clip-rule="nonzero" clip-path="url(#fca65e85dc)"><path style=" stroke:none;fill-rule:nonzero;fill:currentColor;fill-opacity:1;" d="M 197.933594 112.445312 L 225.535156 112.445312 L 225.535156 175.621094 L 197.933594 175.621094 Z M 197.933594 112.445312 "/></g></g><g clip-rule="nonzero" clip-path="url(#4721500f5f)"><g clip-rule="nonzero" clip-path="url(#d57d160d11)"><path style=" stroke:none;fill-rule:nonzero;fill:currentColor;fill-opacity:1;" d="M 186.40625 152.457031 L 214.003906 152.457031 L 214.003906 215.636719 L 186.40625 215.636719 Z M 186.40625 152.457031 "/></g></g><g clip-rule="nonzero" clip-path="url(#f96552a21f)"><g clip-rule="nonzero" clip-path="url(#dc78df2d0d)"><path style=" stroke:none;fill-rule:nonzero;fill:currentColor;fill-opacity:1;" d="M 175.648438 190.527344 L 203.246094 190.527344 L 203.246094 253.707031 L 175.648438 253.707031 Z M 175.648438 190.527344 "/></g></g><g clip-rule="nonzero" clip-path="url(#98504700cc)"><g clip-rule="nonzero" clip-path="url(#36318d9908)"><path style=" stroke:none;fill-rule:nonzero;fill:currentColor;fill-opacity:1;" d="M 163.230469 235.40625 L 190.832031 235.40625 L 190.832031 298.582031 L 163.230469 298.582031 Z M 163.230469 235.40625 "/></g></g><g clip-rule="nonzero" clip-path="url(#0c3c0086db)"><g clip-rule="nonzero" clip-path="url(#dde6c2be92)"><path style=" stroke:none;fill-rule:nonzero;fill:currentColor;fill-opacity:1;" d="M 218.875 113.976562 L 246.476562 113.976562 L 246.476562 177.152344 L 218.875 177.152344 Z M 218.875 113.976562 "/></g></g><g clip-rule="nonzero" clip-path="url(#f5b606be53)"><g clip-rule="nonzero" clip-path="url(#a0d3cb3a33)"><path style=" stroke:none;fill-rule:nonzero;fill:currentColor;fill-opacity:1;" d="M 207.347656 153.992188 L 234.945312 153.992188 L 234.945312 217.167969 L 207.347656 217.167969 Z M 207.347656 153.992188 "/></g></g><g clip-rule="nonzero" clip-path="url(#e0b9d729d6)"><g clip-rule="nonzero" clip-path="url(#e3566b9cf0)"><path style=" stroke:none;fill-rule:nonzero;fill:currentColor;fill-opacity:1;" d="M 196.585938 192.0625 L 224.1875 192.0625 L 224.1875 255.238281 L 196.585938 255.238281 Z M 196.585938 192.0625 "/></g></g><g clip-rule="nonzero" clip-path="url(#46e73cbbdc)"><g clip-rule="nonzero" clip-path="url(#ab6856080c)"><path style=" stroke:none;fill-rule:nonzero;fill:currentColor;fill-opacity:1;" d="M 184.171875 236.9375 L 211.769531 236.9375 L 211.769531 300.113281 L 184.171875 300.113281 Z M 184.171875 236.9375 "/></g></g><g clip-rule="nonzero" clip-path="url(#8b8c678d3a)"><g clip-rule="nonzero" clip-path="url(#e6ba5acfb1)"><path style=" stroke:none;fill-rule:nonzero;fill:currentColor;fill-opacity:1;" d="M 138.546875 271.832031 L 156.050781 271.832031 L 156.050781 300.679688 L 138.546875 300.679688 Z M 138.546875 271.832031 "/></g></g><g clip-rule="nonzero" clip-path="url(#f8fceb03d4)"><g clip-rule="nonzero" clip-path="url(#0ce5ee510d)"><path style=" stroke:none;fill-rule:nonzero;fill:currentColor;fill-opacity:1;" d="M 160.085938 278.335938 L 178.785156 278.335938 L 178.785156 310.039062 L 160.085938 310.039062 Z M 160.085938 278.335938 "/></g></g><g clip-rule="nonzero" clip-path="url(#95a4f89f9d)"><g clip-rule="nonzero" clip-path="url(#405c739661)"><path style=" stroke:none;fill-rule:nonzero;fill:currentColor;fill-opacity:1;" d="M 240.527344 110.984375 L 268.128906 110.984375 L 268.128906 174.160156 L 240.527344 174.160156 Z M 240.527344 110.984375 "/></g></g><g clip-rule="nonzero" clip-path="url(#f8b7b20d37)"><g clip-rule="nonzero" clip-path="url(#b73a41bf3d)"><path style=" stroke:none;fill-rule:nonzero;fill:currentColor;fill-opacity:1;" d="M 231.488281 143.894531 L 259.085938 143.894531 L 259.085938 207.070312 L 231.488281 207.070312 Z M 231.488281 143.894531 "/></g></g><g clip-rule="nonzero" clip-path="url(#3e787066d8)"><g clip-rule="nonzero" clip-path="url(#46af357891)"><path style=" stroke:none;fill-rule:nonzero;fill:currentColor;fill-opacity:1;" d="M 177.664062 105.1875 L 202.273438 105.1875 L 202.273438 158.34375 L 177.664062 158.34375 Z M 177.664062 105.1875 "/></g></g></g></svg>