<svg xmlns="http://www.w3.org/2000/svg" xmlns:xlink="http://www.w3.org/1999/xlink" width="500" zoomAndPan="magnify" viewBox="0 0 375 374.999991" height="500" preserveAspectRatio="xMidYMid meet" version="1.2"><defs><clipPath id="be06502514"><path d="M 58.109375 256.128906 L 192.621094 256.128906 L 192.621094 333.515625 L 58.109375 333.515625 Z M 58.109375 256.128906 "/></clipPath><clipPath id="68b076066f"><path d="M 58.753906 325.609375 C 72.015625 310.667969 81.273438 302.878906 87.691406 297.621094 C 92.953125 293.304688 96.847656 290.148438 102.425781 286.359375 C 109.578125 281.625 118 275.941406 127.046875 271.734375 C 137.148438 267 152.511719 262.261719 160.613281 259.949219 C 165.140625 258.683594 167.242188 258.160156 171.347656 257.632812 C 176.398438 257 185.554688 255.527344 189.027344 256.898438 C 190.816406 257.632812 191.867188 259.210938 192.394531 260.472656 C 192.707031 261.527344 192.601562 262.789062 192.183594 263.839844 C 191.761719 264.789062 191.023438 265.839844 189.972656 266.367188 C 188.816406 267 186.394531 267.207031 185.132812 266.578125 C 183.765625 266.050781 182.292969 264.15625 182.082031 262.683594 C 181.871094 261.316406 182.605469 259 183.660156 258.054688 C 184.710938 257 187.027344 256.371094 188.394531 256.6875 C 189.867188 257 191.65625 258.582031 192.183594 259.949219 C 192.707031 261.210938 192.289062 263.632812 191.65625 264.789062 C 191.128906 265.734375 190.394531 266.261719 189.027344 266.789062 C 185.132812 268.367188 174.1875 267.417969 166.085938 269.207031 C 156.195312 271.3125 143.882812 275.730469 134.308594 280.046875 C 125.679688 283.941406 118 288.78125 110.84375 293.410156 C 104.320312 297.722656 98.847656 301.933594 92.742188 306.878906 C 86.113281 312.351562 77.277344 320.242188 72.644531 325.082031 C 69.804688 327.925781 68.332031 331.1875 66.332031 332.449219 C 65.070312 333.1875 63.910156 333.394531 62.753906 333.289062 C 61.597656 333.082031 60.230469 332.238281 59.492188 331.503906 C 58.859375 330.871094 58.441406 330.132812 58.335938 329.292969 C 58.125 328.238281 58.753906 325.609375 58.753906 325.609375 "/></clipPath><clipPath id="6a2ec9f6b8"><path d="M 185.421875 256.554688 L 316.828125 256.554688 L 316.828125 328.6875 L 185.421875 328.6875 Z M 185.421875 256.554688 "/></clipPath><clipPath id="eb9c4cb076"><path d="M 190.816406 256.6875 C 217.542969 258.582031 227.855469 261.527344 236.0625 264.261719 C 243.429688 266.683594 249.742188 269.734375 256.371094 272.785156 C 263 275.941406 270.15625 279.308594 275.941406 282.886719 C 280.992188 285.832031 284.992188 288.78125 289.304688 292.253906 C 293.832031 295.9375 299.09375 300.460938 302.671875 304.144531 C 305.511719 307.089844 307.40625 309.300781 309.71875 312.246094 C 312.140625 315.402344 316.246094 319.714844 316.664062 322.453125 C 316.875 324.242188 315.929688 326.136719 314.980469 327.1875 C 314.246094 327.925781 312.980469 328.449219 311.929688 328.449219 C 310.5625 328.554688 308.246094 327.714844 307.300781 326.554688 C 306.457031 325.503906 305.933594 323.1875 306.351562 321.820312 C 306.773438 320.347656 308.457031 318.664062 309.824219 318.242188 C 311.195312 317.824219 313.507812 318.242188 314.664062 319.085938 C 315.824219 320.03125 316.664062 322.242188 316.664062 323.609375 C 316.664062 324.769531 316.035156 325.925781 315.402344 326.765625 C 314.664062 327.503906 313.507812 328.238281 312.457031 328.449219 C 311.402344 328.660156 310.351562 328.660156 309.089844 328.03125 C 306.246094 326.347656 301.511719 318.136719 297.933594 314.246094 C 294.988281 311.089844 292.359375 308.878906 289.410156 306.246094 C 286.570312 303.617188 283.941406 301.195312 280.574219 298.566406 C 276.46875 295.515625 272.363281 292.566406 266.472656 289.304688 C 257.210938 284.359375 240.691406 276.890625 230.0625 273.3125 C 222.171875 270.574219 215.753906 268.996094 208.703125 267.839844 C 201.863281 266.789062 191.445312 267.945312 188.289062 266.578125 C 187.238281 266.15625 186.921875 265.734375 186.394531 264.894531 C 185.867188 264.050781 185.449219 262.472656 185.554688 261.316406 C 185.660156 260.160156 186.394531 258.789062 187.238281 258.054688 C 188.183594 257.210938 190.816406 256.6875 190.816406 256.6875 "/></clipPath><clipPath id="e1fc799f83"><path d="M 183 66.21875 L 265 66.21875 L 265 260.765625 L 183 260.765625 Z M 183 66.21875 "/></clipPath><clipPath id="f9ab68af48"><path d="M 183.027344 255.214844 C 183.34375 191.445312 183.660156 188.078125 184.289062 181.660156 C 185.132812 173.769531 186.394531 162.71875 187.972656 155.039062 C 189.132812 149.144531 190.394531 144.515625 192.078125 139.464844 C 193.761719 134.308594 196.074219 128.835938 198.179688 124.3125 C 199.863281 120.523438 201.230469 117.578125 203.441406 114 C 206.28125 109.578125 210.175781 104.632812 214.070312 99.792969 C 218.488281 94.53125 223.433594 88.640625 229.011719 83.800781 C 234.695312 78.855469 242.480469 73.804688 247.953125 70.75 C 251.847656 68.753906 255.738281 66.964844 258.371094 66.542969 C 259.738281 66.226562 260.683594 66.332031 261.632812 66.648438 C 262.683594 67.070312 263.738281 67.804688 264.261719 68.855469 C 264.789062 70.121094 265 72.539062 264.472656 73.804688 C 264.15625 74.855469 263.105469 75.695312 262.15625 76.222656 C 261.210938 76.75 259.949219 77.066406 258.894531 76.75 C 257.527344 76.433594 255.632812 74.960938 254.898438 73.804688 C 254.371094 72.75 254.265625 71.488281 254.582031 70.4375 C 255.003906 69.171875 256.476562 67.171875 257.738281 66.648438 C 259.105469 66.121094 261.527344 66.4375 262.683594 67.171875 C 263.839844 68.015625 265 70.121094 265 71.59375 C 265 73.066406 264.15625 74.433594 262.683594 75.90625 C 259.84375 78.75 251.320312 80.957031 246.164062 84.21875 C 241.007812 87.484375 236.0625 91.480469 231.640625 95.585938 C 227.539062 99.476562 224.277344 103.582031 220.699219 108.316406 C 216.488281 113.894531 211.648438 120.417969 208.175781 127.152344 C 204.703125 133.992188 202.179688 141.570312 200.074219 149.039062 C 198.074219 156.300781 197.128906 163.457031 196.074219 171.347656 C 194.917969 179.976562 194.078125 187.972656 193.550781 198.8125 C 192.8125 214.492188 195.65625 249.425781 193.445312 256.476562 C 192.8125 258.265625 192.183594 258.894531 191.234375 259.527344 C 190.289062 260.265625 188.816406 260.578125 187.65625 260.472656 C 186.5 260.371094 185.132812 259.632812 184.394531 258.683594 C 183.554688 257.84375 183.027344 255.214844 183.027344 255.214844 "/></clipPath><clipPath id="cb3a058b4b"><path d="M 115.570312 103.046875 L 194 103.046875 L 194 180 L 115.570312 180 Z M 115.570312 103.046875 "/></clipPath><clipPath id="c05fc5f8c0"><path d="M 121.15625 103.265625 C 133.570312 106.210938 142.621094 109.789062 149.144531 113.683594 C 155.667969 117.683594 162.085938 122.734375 167.347656 128.203125 C 172.503906 133.464844 176.820312 139.992188 180.609375 145.671875 C 183.976562 150.828125 186.816406 155.878906 189.027344 160.71875 C 190.917969 165.035156 193.128906 170.402344 193.550781 173.347656 C 193.761719 174.714844 193.761719 175.660156 193.339844 176.609375 C 192.917969 177.660156 192.183594 178.714844 191.128906 179.238281 C 189.972656 179.871094 187.550781 179.976562 186.289062 179.449219 C 185.238281 179.132812 184.289062 178.082031 183.765625 177.242188 C 183.34375 176.292969 183.132812 174.925781 183.238281 173.875 C 183.449219 172.820312 184.082031 171.664062 184.816406 170.925781 C 185.660156 170.191406 186.710938 169.558594 187.867188 169.453125 C 189.234375 169.453125 191.550781 170.296875 192.5 171.347656 C 193.234375 172.085938 193.65625 173.347656 193.761719 174.398438 C 193.761719 175.453125 193.550781 176.820312 192.8125 177.660156 C 191.972656 178.714844 189.867188 179.976562 188.5 179.976562 C 187.027344 179.976562 185.554688 179.238281 184.082031 177.660156 C 181.132812 174.398438 179.132812 163.667969 175.976562 157.773438 C 173.347656 152.722656 170.296875 148.617188 167.035156 144.304688 C 163.773438 140.09375 160.402344 135.675781 156.40625 132.097656 C 152.40625 128.308594 148.410156 125.152344 142.9375 122.207031 C 135.992188 118.417969 120.839844 115.472656 117.367188 112.421875 C 116.210938 111.261719 115.894531 110.105469 115.789062 109.054688 C 115.578125 108.210938 115.789062 107.265625 116.105469 106.527344 C 116.417969 105.792969 116.945312 105.054688 117.578125 104.527344 C 118.523438 103.898438 121.15625 103.265625 121.15625 103.265625 "/></clipPath><clipPath id="bcadb5d27e"><path d="M 68.273438 83.953125 L 183.523438 83.953125 L 183.523438 164.25 L 68.273438 164.25 Z M 68.273438 83.953125 "/></clipPath><clipPath id="b1a6147a1f"><path d="M 178.082031 164.085938 C 147.144531 162.824219 138.515625 160.824219 132.519531 159.351562 C 128.308594 158.40625 125.890625 157.984375 121.785156 156.40625 C 116 153.984375 105.6875 148.304688 101.265625 145.355469 C 98.953125 143.777344 98.214844 143.148438 96.425781 141.359375 C 93.480469 138.410156 89.480469 133.464844 86.007812 128.625 C 81.90625 122.839844 76.539062 115.683594 73.59375 108.738281 C 70.855469 102.003906 67.382812 91.480469 68.542969 87.585938 C 69.066406 85.695312 70.855469 84.640625 72.121094 84.21875 C 73.171875 83.800781 74.433594 84.011719 75.488281 84.324219 C 76.433594 84.746094 77.484375 85.589844 78.011719 86.535156 C 78.539062 87.484375 78.855469 88.746094 78.75 89.796875 C 78.644531 90.851562 78.011719 92.113281 77.277344 92.847656 C 76.644531 93.585938 75.488281 94.320312 74.328125 94.425781 C 72.960938 94.53125 70.644531 93.902344 69.699219 92.847656 C 68.648438 91.796875 68.226562 89.480469 68.332031 88.113281 C 68.542969 86.957031 69.277344 85.902344 70.121094 85.273438 C 70.960938 84.535156 72.121094 84.011719 73.277344 84.011719 C 74.539062 84.011719 76.328125 84.535156 77.695312 86.007812 C 80.539062 89.269531 81.484375 100.425781 84.324219 106.421875 C 86.746094 111.683594 89.796875 115.894531 92.953125 120.417969 C 96.109375 124.835938 100.425781 130.414062 103.265625 133.257812 C 104.949219 135.042969 105.6875 135.675781 107.792969 137.042969 C 111.894531 139.78125 120.839844 144.832031 127.152344 147.25 C 132.730469 149.355469 137.992188 150.300781 143.566406 151.355469 C 149.039062 152.40625 154.40625 153.144531 160.195312 153.566406 C 166.613281 154.089844 177.449219 152.933594 180.503906 154.195312 C 181.554688 154.617188 181.871094 155.144531 182.398438 155.878906 C 182.921875 156.722656 183.449219 158.300781 183.238281 159.457031 C 183.132812 160.613281 182.398438 161.984375 181.554688 162.824219 C 180.714844 163.5625 178.082031 164.085938 178.082031 164.085938 "/></clipPath><clipPath id="de74841406"><path d="M 68.109375 73.535156 L 193 73.535156 L 193 158.730469 L 68.109375 158.730469 Z M 68.109375 73.535156 "/></clipPath><clipPath id="de21ffc505"><path d="M 70.855469 84.746094 C 88.640625 76.433594 96.953125 74.855469 104.214844 74.117188 C 111.472656 73.488281 119.578125 73.277344 126.207031 74.539062 C 131.886719 75.695312 137.253906 78.117188 141.777344 80.433594 C 145.566406 82.535156 148.304688 84.640625 151.671875 87.484375 C 155.773438 90.953125 160.300781 95.058594 164.296875 99.792969 C 168.824219 105.054688 173.136719 111.683594 177.03125 117.894531 C 181.027344 124.207031 185.132812 131.152344 187.867188 137.464844 C 190.183594 142.832031 192.707031 149.988281 192.917969 152.933594 C 193.023438 154.089844 192.917969 154.617188 192.5 155.457031 C 191.972656 156.40625 190.917969 157.5625 189.761719 158.089844 C 188.710938 158.511719 187.238281 158.617188 186.078125 158.300781 C 185.027344 157.878906 183.660156 157.035156 183.132812 155.878906 C 182.5 154.511719 182.816406 151.25 183.660156 149.882812 C 184.183594 148.933594 185.449219 148.410156 186.5 148.09375 C 187.550781 147.882812 188.816406 147.882812 189.867188 148.410156 C 191.023438 149.144531 192.5 151.039062 192.917969 152.300781 C 193.128906 153.460938 192.8125 154.722656 192.394531 155.667969 C 191.867188 156.617188 190.917969 157.5625 189.972656 157.984375 C 189.027344 158.40625 187.65625 158.617188 186.605469 158.40625 C 185.554688 158.195312 184.394531 157.5625 183.765625 156.722656 C 182.921875 155.5625 182.398438 153.25 182.605469 151.882812 C 182.816406 150.828125 183.660156 149.777344 184.5 149.144531 C 185.34375 148.410156 186.5 147.882812 187.65625 147.988281 C 189.027344 148.09375 191.128906 149.144531 191.972656 150.199219 C 192.8125 151.25 193.023438 153.039062 192.8125 154.195312 C 192.707031 155.351562 191.867188 156.722656 190.917969 157.457031 C 189.972656 158.089844 188.5 158.617188 187.34375 158.511719 C 186.183594 158.40625 185.027344 158.089844 183.976562 156.933594 C 181.238281 154.089844 179.554688 143.671875 176.082031 136.726562 C 172.085938 128.730469 165.664062 118.734375 160.613281 112.105469 C 156.828125 107.054688 153.144531 103.265625 149.460938 99.6875 C 146.410156 96.742188 143.988281 94.113281 140.410156 91.796875 C 136.308594 89.0625 130.835938 86.324219 125.574219 85.167969 C 120.417969 83.90625 115.050781 84.21875 109.265625 84.640625 C 102.425781 85.0625 93.375 86.21875 87.273438 88.113281 C 82.429688 89.691406 77.589844 93.585938 74.960938 94.320312 C 73.910156 94.53125 73.277344 94.53125 72.539062 94.425781 C 71.699219 94.21875 70.855469 93.902344 70.226562 93.375 C 69.382812 92.636719 68.542969 91.164062 68.332031 90.113281 C 68.121094 89.269531 68.226562 88.429688 68.542969 87.585938 C 68.855469 86.640625 70.855469 84.746094 70.855469 84.746094 "/></clipPath><clipPath id="f4f71e8d50"><path d="M 192.875 41.285156 L 302.28125 41.285156 L 302.28125 130.25 L 192.875 130.25 Z M 192.875 41.285156 "/></clipPath><clipPath id="0effe63df1"><path d="M 192.917969 124.941406 C 194.496094 95.269531 196.707031 90.324219 199.339844 85.273438 C 201.863281 80.433594 204.597656 76.222656 208.808594 71.59375 C 214.28125 65.59375 224.488281 57.28125 230.484375 53.285156 C 234.167969 50.652344 236.378906 49.601562 240.058594 48.023438 C 244.796875 46.023438 251.109375 44.023438 256.582031 42.972656 C 262.054688 41.917969 268.15625 41.917969 273.101562 41.710938 C 277.101562 41.605469 280.46875 41.394531 284.046875 41.8125 C 287.726562 42.339844 291.832031 42.972656 294.882812 44.65625 C 297.828125 46.339844 301.617188 49.707031 302.144531 52.019531 C 302.566406 53.601562 301.617188 55.597656 300.460938 56.652344 C 299.40625 57.597656 297.09375 58.230469 295.726562 57.808594 C 294.355469 57.492188 292.570312 55.808594 292.042969 54.546875 C 291.515625 53.496094 291.621094 52.230469 291.9375 51.179688 C 292.253906 50.230469 292.988281 49.074219 293.832031 48.445312 C 294.777344 47.8125 296.039062 47.390625 297.09375 47.496094 C 298.144531 47.496094 299.40625 47.8125 300.25 48.652344 C 301.195312 49.496094 302.25 51.8125 302.25 53.074219 C 302.25 54.230469 301.722656 55.386719 300.882812 56.230469 C 299.933594 57.175781 297.621094 58.019531 296.25 57.914062 C 295.199219 57.914062 294.042969 57.175781 293.304688 56.441406 C 292.464844 55.703125 292.882812 54.230469 291.726562 53.496094 C 288.992188 51.601562 277.835938 52.019531 272.15625 52.019531 C 267.839844 52.019531 264.894531 52.230469 260.789062 52.96875 C 255.738281 53.914062 249.003906 55.703125 244.375 57.597656 C 240.585938 59.175781 238.273438 60.542969 234.695312 62.964844 C 229.855469 66.332031 222.804688 71.910156 218.277344 76.855469 C 214.175781 81.378906 210.703125 86.640625 208.28125 91.058594 C 206.386719 94.636719 204.914062 98.320312 204.074219 101.265625 C 203.441406 103.476562 203.335938 104.527344 203.125 107.054688 C 202.707031 111.683594 203.96875 124.3125 202.808594 127.46875 C 202.390625 128.519531 201.863281 128.835938 201.125 129.257812 C 200.179688 129.886719 198.601562 130.308594 197.445312 130.203125 C 196.390625 130.097656 194.917969 129.363281 194.183594 128.414062 C 193.445312 127.574219 192.917969 124.941406 192.917969 124.941406 "/></clipPath><clipPath id="6c57153dcc"><path d="M 202 51.269531 L 305.917969 51.269531 L 305.917969 140.910156 L 202 140.910156 Z M 202 51.269531 "/></clipPath><clipPath id="8ae0314d11"><path d="M 207.125 130.097656 C 230.378906 125.363281 248.792969 119.472656 257.949219 114.945312 C 263.945312 112 267.523438 109.371094 271.734375 105.898438 C 276.046875 102.320312 279.941406 98.425781 283.519531 93.585938 C 287.621094 88.113281 292.359375 80.222656 294.355469 74.117188 C 295.832031 69.382812 296.25 63.910156 295.832031 60.648438 C 295.515625 58.652344 293.832031 57.386719 293.832031 56.125 C 293.832031 54.96875 294.460938 53.808594 295.199219 52.96875 C 295.9375 52.230469 297.09375 51.496094 298.144531 51.390625 C 299.511719 51.285156 301.828125 51.914062 302.878906 52.863281 C 303.722656 53.597656 304.25 54.863281 304.355469 55.914062 C 304.457031 56.96875 304.355469 58.230469 303.722656 59.175781 C 302.878906 60.335938 300.988281 61.703125 299.511719 61.808594 C 298.039062 61.914062 295.9375 60.964844 294.988281 59.808594 C 294.042969 58.652344 293.832031 56.335938 294.148438 54.96875 C 294.355469 53.808594 295.199219 52.863281 296.039062 52.230469 C 296.988281 51.601562 298.25 51.285156 299.304688 51.285156 C 300.355469 51.285156 301.511719 51.496094 302.460938 52.441406 C 304.039062 54.125 305.089844 59.175781 305.617188 62.648438 C 306.140625 66.226562 305.722656 70.644531 305.300781 73.59375 C 304.984375 75.695312 304.667969 76.539062 303.828125 78.75 C 301.933594 83.273438 296.671875 93.269531 292.570312 99.058594 C 288.992188 104.109375 284.675781 108.421875 280.992188 112 C 277.941406 114.839844 275.3125 116.839844 272.15625 118.945312 C 268.996094 121.050781 266.894531 122.417969 262.15625 124.523438 C 252.476562 128.730469 225.433594 138.308594 215.648438 140.09375 C 211.226562 140.832031 208.175781 141.148438 205.863281 140.515625 C 204.492188 140.09375 203.441406 139.359375 202.808594 138.308594 C 202.074219 137.148438 201.96875 134.730469 202.179688 133.464844 C 202.496094 132.625 202.914062 131.992188 203.652344 131.46875 C 204.492188 130.730469 207.125 130.097656 207.125 130.097656 "/></clipPath></defs><g id="bacface169"><g clip-rule="nonzero" clip-path="url(#be06502514)"><g clip-rule="nonzero" clip-path="url(#68b076066f)"><path style=" stroke:none;fill-rule:nonzero;fill:currentColor;fill-opacity:1;" d="M 54.125 252.476562 L 196.605469 252.476562 L 196.605469 337.5 L 54.125 337.5 Z M 54.125 252.476562 "/></g></g><g clip-rule="nonzero" clip-path="url(#6a2ec9f6b8)"><g clip-rule="nonzero" clip-path="url(#eb9c4cb076)"><path style=" stroke:none;fill-rule:nonzero;fill:currentColor;fill-opacity:1;" d="M 181.34375 252.476562 L 320.90625 252.476562 L 320.90625 332.765625 L 181.34375 332.765625 Z M 181.34375 252.476562 "/></g></g><g clip-rule="nonzero" clip-path="url(#e1fc799f83)"><g clip-rule="nonzero" clip-path="url(#f9ab68af48)"><path style=" stroke:none;fill-rule:nonzero;fill:currentColor;fill-opacity:1;" d="M 178.820312 62.332031 L 269.207031 62.332031 L 269.207031 264.648438 L 178.820312 264.648438 Z M 178.820312 62.332031 "/></g></g><g clip-rule="nonzero" clip-path="url(#cb3a058b4b)"><g clip-rule="nonzero" clip-path="url(#c05fc5f8c0)"><path style=" stroke:none;fill-rule:nonzero;fill:currentColor;fill-opacity:1;" d="M 111.578125 99.058594 L 198.039062 99.058594 L 198.039062 184.183594 L 111.578125 184.183594 Z M 111.578125 99.058594 "/></g></g><g clip-rule="nonzero" clip-path="url(#bcadb5d27e)"><g clip-rule="nonzero" clip-path="url(#b1a6147a1f)"><path style=" stroke:none;fill-rule:nonzero;fill:currentColor;fill-opacity:1;" d="M 64.121094 79.800781 L 187.332031 79.800781 L 187.332031 168.402344 L 64.121094 168.402344 Z M 64.121094 79.800781 "/></g></g><g clip-rule="nonzero" clip-path="url(#de74841406)"><g clip-rule="nonzero" clip-path="url(#de21ffc505)"><path style=" stroke:none;fill-rule:nonzero;fill:currentColor;fill-opacity:1;" d="M 64.121094 69.910156 L 197.171875 69.910156 L 197.171875 162.71875 L 64.121094 162.71875 Z M 64.121094 69.910156 "/></g></g><g clip-rule="nonzero" clip-path="url(#f4f71e8d50)"><g clip-rule="nonzero" clip-path="url(#0effe63df1)"><path style=" stroke:none;fill-rule:nonzero;fill:currentColor;fill-opacity:1;" d="M 188.710938 37.5 L 306.445312 37.5 L 306.445312 134.414062 L 188.710938 134.414062 Z M 188.710938 37.5 "/></g></g><g clip-rule="nonzero" clip-path="url(#6c57153dcc)"><g clip-rule="nonzero" clip-path="url(#8ae0314d11)"><path style=" stroke:none;fill-rule:nonzero;fill:currentColor;fill-opacity:1;" d="M 197.96875 47.074219 L 309.734375 47.074219 L 309.734375 144.726562 L 197.96875 144.726562 Z M 197.96875 47.074219 "/></g></g></g></svg>