<svg xmlns="http://www.w3.org/2000/svg" xmlns:xlink="http://www.w3.org/1999/xlink" width="500" zoomAndPan="magnify" viewBox="0 0 375 374.999991" height="500" preserveAspectRatio="xMidYMid meet" version="1.2"><defs><clipPath id="2485efd270"><path d="M 108.78125 116.066406 L 155.46875 116.066406 L 155.46875 241.445312 L 108.78125 241.445312 Z M 108.78125 116.066406 "/></clipPath><clipPath id="f9e866e090"><path d="M 151.640625 123.75 C 140.632812 124.335938 139.605469 124.410156 138.355469 124.921875 C 137.183594 125.363281 136.082031 126.023438 134.90625 126.980469 C 133.363281 128.300781 131.382812 130.429688 129.988281 132.558594 C 128.519531 134.757812 127.566406 136.960938 126.539062 140.117188 C 124.921875 145.035156 123.527344 153.476562 122.792969 159.644531 C 122.132812 165.074219 122.5 169.625 121.914062 175.277344 C 121.328125 182.105469 119.566406 190.398438 118.976562 197.667969 C 118.464844 204.492188 118.976562 210.878906 118.539062 217.632812 C 118.097656 224.53125 117.511719 235.324219 116.261719 238.625 C 115.820312 239.800781 115.382812 240.3125 114.792969 240.753906 C 114.28125 241.121094 113.765625 241.414062 113.179688 241.339844 C 112.296875 241.339844 110.609375 240.972656 109.949219 240.167969 C 109.289062 239.359375 108.921875 237.597656 109.214844 236.570312 C 109.507812 235.617188 110.828125 234.515625 111.710938 234.222656 C 112.445312 233.925781 113.398438 234.074219 114.058594 234.292969 C 114.71875 234.589844 115.453125 235.175781 115.820312 235.835938 C 116.261719 236.496094 116.410156 237.378906 116.335938 238.113281 C 116.261719 238.84375 115.96875 239.726562 115.382812 240.242188 C 114.648438 240.902344 113.105469 241.488281 112.152344 241.339844 C 111.125 241.195312 109.800781 240.242188 109.363281 239.285156 C 108.996094 238.40625 109.140625 236.71875 109.582031 235.835938 C 109.875 235.175781 110.683594 234.589844 111.34375 234.292969 C 112.003906 234.074219 112.957031 233.925781 113.691406 234.222656 C 114.574219 234.515625 115.820312 235.6875 116.1875 236.570312 C 116.480469 237.230469 116.480469 237.964844 116.261719 238.625 C 116.042969 239.359375 115.453125 240.3125 114.792969 240.753906 C 114.132812 241.195312 113.105469 241.488281 112.296875 241.339844 C 111.492188 241.269531 110.535156 240.753906 109.949219 240.167969 C 109.433594 239.578125 109.214844 238.773438 109.070312 237.746094 C 108.773438 235.835938 109.214844 232.386719 109.507812 229.375 C 109.875 225.78125 110.828125 222.035156 111.195312 217.484375 C 111.636719 211.6875 111.125 204.273438 111.636719 197.226562 C 112.296875 189.519531 114.351562 179.609375 114.867188 172.929688 C 115.308594 168.230469 114.71875 165.515625 115.234375 160.890625 C 115.96875 154.359375 118.609375 142.027344 119.785156 137.476562 C 120.300781 135.566406 120.445312 134.90625 121.105469 133.4375 C 122.0625 131.382812 123.382812 128.667969 125.289062 126.390625 C 127.566406 123.675781 131.308594 120.226562 134.394531 118.683594 C 136.816406 117.363281 139.015625 117.144531 141.734375 116.777344 C 144.960938 116.335938 150.394531 115.894531 152.523438 116.554688 C 153.625 116.847656 154.210938 117.363281 154.652344 118.023438 C 155.164062 118.683594 155.386719 119.710938 155.3125 120.519531 C 155.238281 121.328125 154.726562 122.28125 154.066406 122.867188 C 153.476562 123.382812 151.640625 123.75 151.640625 123.75 "/></clipPath><clipPath id="c18a6e341c"><path d="M 108.0625 234 L 162.980469 234 L 162.980469 298.3125 L 108.0625 298.3125 Z M 108.0625 234 "/></clipPath><clipPath id="41aae437ca"><path d="M 116.410156 237.746094 C 116.554688 266.664062 117.4375 268.207031 118.539062 270.851562 C 119.859375 274.078125 122.0625 278.996094 123.601562 281.273438 C 124.554688 282.59375 124.921875 283.109375 126.171875 283.988281 C 128.519531 285.75 134.027344 288.320312 137.550781 289.273438 C 140.339844 290.082031 142.394531 290.082031 145.476562 290.300781 C 149.660156 290.59375 157.808594 289.640625 160.378906 290.523438 C 161.40625 290.816406 161.84375 291.253906 162.210938 291.917969 C 162.726562 292.722656 162.875 294.414062 162.578125 295.367188 C 162.359375 296.101562 161.773438 296.761719 161.113281 297.128906 C 160.230469 297.570312 158.542969 297.714844 157.660156 297.273438 C 156.707031 296.90625 155.828125 295.511719 155.605469 294.558594 C 155.386719 293.824219 155.605469 292.945312 155.972656 292.285156 C 156.265625 291.621094 156.925781 290.890625 157.660156 290.667969 C 158.542969 290.300781 160.230469 290.300781 161.113281 290.816406 C 161.992188 291.328125 162.726562 292.871094 162.875 293.75 C 162.945312 294.558594 162.726562 295.441406 162.210938 296.027344 C 161.625 296.761719 160.746094 297.273438 159.203125 297.640625 C 155.460938 298.523438 144.300781 298.007812 138.503906 296.980469 C 134.246094 296.175781 130.796875 294.632812 127.566406 293.164062 C 124.851562 291.917969 122.132812 290.375 120.445312 288.980469 C 119.269531 288.027344 118.90625 287.511719 117.949219 286.042969 C 116.042969 283.179688 112.519531 275.839844 110.976562 271.65625 C 109.800781 268.722656 109.140625 266.078125 108.703125 263.804688 C 108.40625 262.1875 108.480469 261.527344 108.40625 259.546875 C 108.335938 254.996094 107.96875 240.3125 109.140625 236.863281 C 109.507812 235.6875 109.949219 235.175781 110.609375 234.734375 C 111.269531 234.222656 112.371094 234 113.179688 234.074219 C 113.988281 234.222656 114.941406 234.660156 115.453125 235.324219 C 115.96875 235.910156 116.410156 237.746094 116.410156 237.746094 "/></clipPath><clipPath id="c4f7976a60"><path d="M 120.242188 126.367188 L 156.144531 126.367188 L 156.144531 261.398438 L 120.242188 261.398438 Z M 120.242188 126.367188 "/></clipPath><clipPath id="e073182848"><path d="M 153.257812 133.511719 C 141.292969 136.816406 140.410156 136.816406 139.457031 137.988281 C 137.695312 139.972656 136.449219 144.742188 135.421875 149.21875 C 133.878906 155.460938 133.363281 162.945312 132.410156 172.34375 C 131.015625 186.730469 129.472656 211.832031 128.742188 227.46875 C 128.152344 238.992188 128.742188 253.378906 127.933594 257.636719 C 127.710938 258.8125 127.640625 259.253906 127.199219 259.839844 C 126.757812 260.425781 126.023438 261.015625 125.289062 261.160156 C 124.335938 261.378906 122.648438 261.015625 121.914062 260.425781 C 121.253906 259.984375 120.8125 259.179688 120.667969 258.445312 C 120.59375 257.492188 121.03125 255.875 121.621094 255.140625 C 122.132812 254.480469 122.867188 254.113281 123.675781 254.039062 C 124.628906 253.96875 126.246094 254.480469 126.980469 255.140625 C 127.492188 255.65625 127.859375 256.535156 127.933594 257.269531 C 128.007812 258.003906 127.859375 258.886719 127.417969 259.546875 C 126.832031 260.28125 125.4375 261.160156 124.484375 261.308594 C 123.675781 261.378906 122.792969 261.085938 122.207031 260.648438 C 121.621094 260.28125 121.179688 259.839844 120.8125 258.8125 C 119.859375 256.023438 120.371094 249.050781 120.59375 241.195312 C 121.03125 225.414062 123.75 186.65625 125.289062 170.214844 C 126.097656 161.480469 126.464844 156.195312 127.710938 150.027344 C 128.886719 144.742188 130.503906 138.503906 132.191406 135.492188 C 133.070312 133.878906 133.953125 133.070312 134.980469 132.117188 C 135.933594 131.308594 136.59375 130.648438 138.0625 129.988281 C 141.21875 128.667969 150.910156 126.097656 153.332031 126.390625 C 154.136719 126.539062 154.433594 126.832031 154.871094 127.273438 C 155.386719 127.785156 155.972656 128.742188 156.046875 129.546875 C 156.195312 130.355469 155.898438 131.382812 155.460938 132.042969 C 154.945312 132.703125 153.257812 133.511719 153.257812 133.511719 "/></clipPath><clipPath id="8cf1ca3832"><path d="M 120.480469 253.851562 L 161.917969 253.851562 L 161.917969 286.378906 L 120.480469 286.378906 Z M 120.480469 253.851562 "/></clipPath><clipPath id="8c16b98f42"><path d="M 127.933594 257.636719 C 130.796875 272.539062 131.382812 273.199219 132.265625 274.152344 C 133.144531 275.105469 134.394531 276.0625 135.566406 276.722656 C 136.667969 277.382812 137.328125 277.75 139.015625 278.117188 C 142.90625 278.996094 156.195312 277.894531 159.277344 278.996094 C 160.304688 279.363281 160.746094 279.804688 161.113281 280.390625 C 161.550781 280.980469 161.84375 281.933594 161.773438 282.667969 C 161.699219 283.402344 161.476562 284.28125 160.890625 284.871094 C 160.230469 285.53125 158.6875 286.191406 157.734375 286.117188 C 156.707031 285.96875 155.386719 285.015625 154.871094 284.207031 C 154.433594 283.546875 154.359375 282.59375 154.503906 281.859375 C 154.578125 281.125 155.019531 280.320312 155.605469 279.804688 C 156.121094 279.289062 157 278.925781 157.734375 278.777344 C 158.46875 278.703125 159.351562 278.851562 160.011719 279.289062 C 160.746094 279.878906 161.625 281.347656 161.773438 282.226562 C 161.84375 283.035156 161.550781 283.914062 161.113281 284.503906 C 160.746094 285.164062 160.230469 285.605469 159.277344 285.96875 C 157.148438 286.632812 151.863281 286.265625 148.046875 286.117188 C 144.082031 285.96875 139.238281 285.96875 135.859375 284.871094 C 133.070312 283.988281 130.722656 282.082031 128.886719 280.832031 C 127.492188 279.953125 126.390625 279.363281 125.511719 278.410156 C 124.777344 277.457031 124.410156 276.648438 123.824219 275.105469 C 122.722656 271.804688 120.667969 262.113281 120.59375 258.886719 C 120.59375 257.488281 120.519531 256.757812 121.03125 255.949219 C 121.546875 255.066406 122.867188 254.1875 123.824219 253.964844 C 124.628906 253.820312 125.730469 254.113281 126.390625 254.628906 C 127.125 255.214844 127.933594 257.636719 127.933594 257.636719 "/></clipPath><clipPath id="4668f7db4b"><path d="M 159.4375 276 L 214.597656 276 L 214.597656 307.890625 L 159.4375 307.890625 Z M 159.4375 276 "/></clipPath><clipPath id="41a4d37c92"><path d="M 166.984375 279.804688 C 167.863281 295 168.671875 295.734375 169.625 296.613281 C 170.582031 297.421875 171.535156 298.082031 172.929688 298.667969 C 174.835938 299.328125 177.1875 299.695312 180.195312 299.992188 C 185.039062 300.429688 195.539062 300.210938 199.574219 299.992188 C 201.335938 299.917969 202.21875 299.917969 203.464844 299.550781 C 204.785156 299.183594 206.546875 297.570312 207.0625 297.789062 C 207.355469 297.933594 207.136719 298.816406 207.28125 298.890625 C 207.503906 298.890625 207.941406 297.347656 208.53125 296.90625 C 209.117188 296.46875 210 296.101562 210.730469 296.101562 C 211.464844 296.101562 212.421875 296.320312 213.007812 296.835938 C 213.742188 297.421875 214.550781 298.890625 214.476562 299.917969 C 214.476562 300.945312 213.523438 302.339844 212.789062 302.925781 C 212.125 303.367188 211.246094 303.515625 210.511719 303.441406 C 209.777344 303.367188 208.898438 303.074219 208.382812 302.488281 C 207.722656 301.824219 207.0625 300.285156 207.207031 299.257812 C 207.355469 298.230469 208.308594 296.90625 209.191406 296.46875 C 210.144531 296.027344 211.832031 296.171875 212.640625 296.613281 C 213.375 296.90625 213.960938 297.640625 214.183594 298.375 C 214.476562 299.035156 214.695312 299.917969 214.402344 300.726562 C 213.886719 301.972656 211.832031 303.515625 210 304.542969 C 207.871094 305.789062 205.667969 306.523438 202.21875 307.039062 C 195.832031 307.992188 180.5625 308.066406 174.398438 306.890625 C 171.167969 306.304688 169.40625 305.570312 167.277344 304.175781 C 165 302.707031 162.433594 299.992188 161.183594 298.082031 C 160.304688 296.761719 160.082031 295.585938 159.789062 294.191406 C 159.570312 292.722656 159.714844 291.328125 159.644531 289.492188 C 159.644531 286.851562 159.277344 281.933594 159.644531 279.804688 C 159.863281 278.703125 160.082031 278.042969 160.597656 277.382812 C 161.113281 276.796875 162.140625 276.355469 162.875 276.207031 C 163.535156 276.0625 164.046875 276.132812 164.636719 276.429688 C 165.296875 276.722656 166.175781 277.457031 166.617188 278.117188 C 166.910156 278.628906 166.984375 279.804688 166.984375 279.804688 "/></clipPath><clipPath id="0e56acaf2a"><path d="M 207.242188 276.386719 L 216.210938 276.386719 L 216.210938 303.523438 L 207.242188 303.523438 Z M 207.242188 276.386719 "/></clipPath><clipPath id="2eaef46e9f"><path d="M 207.28125 298.890625 C 208.824219 285.972656 208.089844 280.980469 208.75 278.925781 C 209.117188 277.96875 209.558594 277.53125 210.21875 277.089844 C 210.804688 276.648438 211.6875 276.429688 212.492188 276.429688 C 213.226562 276.5 214.109375 276.796875 214.621094 277.308594 C 215.285156 277.96875 215.945312 279.585938 215.945312 280.539062 C 215.871094 281.273438 215.503906 282.152344 214.917969 282.667969 C 214.183594 283.253906 212.640625 283.84375 211.6875 283.769531 C 210.878906 283.695312 210.070312 283.253906 209.632812 282.667969 C 208.96875 281.933594 208.53125 280.246094 208.675781 279.363281 C 208.75 278.558594 209.265625 277.75 209.851562 277.308594 C 210.660156 276.796875 212.273438 276.429688 213.226562 276.574219 C 214.035156 276.722656 214.769531 277.308594 215.210938 277.894531 C 215.648438 278.484375 215.796875 279.070312 215.945312 280.097656 C 216.3125 282.449219 216.164062 288.027344 215.871094 291.550781 C 215.578125 294.777344 215.136719 298.742188 214.402344 300.652344 C 213.960938 301.679688 213.59375 302.339844 212.933594 302.78125 C 212.273438 303.292969 211.246094 303.585938 210.363281 303.441406 C 209.410156 303.292969 208.089844 302.339844 207.574219 301.53125 C 207.136719 300.796875 207.28125 298.890625 207.28125 298.890625 "/></clipPath><clipPath id="bd137ec016"><path d="M 160.738281 274.363281 L 217.964844 274.363281 L 217.964844 282.925781 L 160.738281 282.925781 Z M 160.738281 274.363281 "/></clipPath><clipPath id="4e03ab7184"><path d="M 164.339844 274.371094 C 216.53125 275.546875 216.824219 275.988281 217.265625 276.574219 C 217.707031 277.234375 217.925781 278.117188 217.925781 278.851562 C 217.851562 279.585938 217.484375 280.464844 217.042969 281.050781 C 216.53125 281.566406 215.796875 282.152344 214.988281 282.226562 C 214.109375 282.375 212.421875 281.933594 211.6875 281.347656 C 211.097656 280.832031 210.660156 280.023438 210.585938 279.21875 C 210.511719 278.335938 211.097656 276.722656 211.6875 275.988281 C 212.199219 275.402344 213.082031 275.105469 213.816406 275.035156 C 214.550781 274.960938 215.503906 275.035156 216.089844 275.546875 C 216.898438 276.0625 217.777344 277.53125 217.925781 278.484375 C 218 279.21875 217.707031 280.097656 217.265625 280.6875 C 216.824219 281.347656 216.53125 281.785156 215.429688 282.152344 C 211.246094 283.546875 191.941406 282.519531 182.324219 282.300781 C 174.910156 282.152344 165.589844 282.742188 162.652344 281.273438 C 161.625 280.832031 161.257812 280.097656 160.964844 279.363281 C 160.671875 278.628906 160.671875 277.53125 160.964844 276.722656 C 161.257812 275.988281 162.066406 275.179688 162.652344 274.8125 C 163.167969 274.519531 164.339844 274.371094 164.339844 274.371094 "/></clipPath><clipPath id="d842f1a09e"><path d="M 145.910156 268.714844 L 167.546875 268.714844 L 167.546875 282.011719 L 145.910156 282.011719 Z M 145.910156 268.714844 "/></clipPath><clipPath id="33ac6cbc02"><path d="M 163.460938 282.007812 C 155.164062 279.511719 148.191406 276.429688 146.652344 274.59375 C 145.992188 273.859375 145.917969 273.125 145.917969 272.390625 C 145.917969 271.65625 146.136719 270.777344 146.652344 270.1875 C 147.238281 269.453125 148.707031 268.648438 149.734375 268.722656 C 150.761719 268.792969 152.15625 269.601562 152.671875 270.484375 C 153.257812 271.363281 153.332031 272.976562 152.890625 273.933594 C 152.449219 274.8125 151.128906 275.769531 150.175781 275.988281 C 149.441406 276.207031 148.484375 275.988281 147.824219 275.621094 C 147.164062 275.328125 146.578125 274.59375 146.210938 273.933594 C 145.917969 273.273438 145.84375 272.316406 145.992188 271.582031 C 146.136719 270.921875 146.652344 270.117188 147.164062 269.601562 C 147.753906 269.089844 148.265625 268.722656 149.367188 268.722656 C 152.375 268.722656 164.5625 274.078125 166.617188 275.914062 C 167.203125 276.5 167.351562 276.867188 167.425781 277.457031 C 167.570312 278.191406 167.425781 279.363281 167.128906 280.023438 C 166.910156 280.613281 166.542969 281.054688 166.03125 281.417969 C 165.367188 281.785156 163.460938 282.007812 163.460938 282.007812 "/></clipPath><clipPath id="84213c7be6"><path d="M 203.554688 178.371094 L 234.058594 178.371094 L 234.058594 280.796875 L 203.554688 280.796875 Z M 203.554688 178.371094 "/></clipPath><clipPath id="91c15cbd8f"><path d="M 207.207031 273.34375 C 215.796875 272.390625 218.585938 270.261719 220.496094 268.355469 C 222.328125 266.445312 223.871094 263.730469 224.753906 261.746094 C 225.414062 260.351562 225.558594 259.914062 225.851562 257.929688 C 226.734375 251.765625 227.175781 230.257812 226 219.101562 C 225.046875 210.363281 222.402344 201.628906 220.933594 196.125 C 220.128906 192.96875 219.6875 191.058594 218.660156 188.785156 C 217.632812 186.65625 215.28125 184.601562 215.0625 182.914062 C 214.917969 181.664062 215.355469 180.34375 216.015625 179.609375 C 216.457031 179.023438 217.339844 178.65625 218.074219 178.507812 C 218.804688 178.433594 219.6875 178.507812 220.347656 178.949219 C 221.15625 179.460938 222.109375 180.855469 222.257812 181.8125 C 222.402344 182.546875 222.257812 183.425781 221.742188 184.085938 C 221.230469 184.820312 219.761719 185.703125 218.804688 185.773438 C 218 185.921875 217.191406 185.628906 216.53125 185.1875 C 215.796875 184.527344 215.0625 183.058594 214.988281 182.105469 C 214.917969 181.296875 215.210938 180.488281 215.722656 179.902344 C 216.382812 179.167969 217.925781 178.507812 218.878906 178.507812 C 219.6875 178.433594 220.273438 178.726562 221.007812 179.390625 C 222.476562 180.5625 224.3125 183.351562 225.78125 186.800781 C 228.421875 192.894531 231.433594 206.988281 232.679688 214.183594 C 233.414062 218.878906 233.5625 220.933594 233.707031 225.78125 C 234.074219 233.78125 234.292969 250.808594 233.339844 257.710938 C 232.828125 261.085938 232.019531 262.996094 231.210938 265.050781 C 230.625 266.59375 230.109375 267.546875 229.230469 268.941406 C 227.980469 270.703125 226.21875 272.976562 224.386719 274.59375 C 222.550781 276.207031 220.054688 277.75 218.074219 278.777344 C 216.53125 279.511719 215.503906 280.023438 213.816406 280.320312 C 211.539062 280.757812 207.207031 280.980469 205.519531 280.246094 C 204.640625 279.804688 204.125 279.070312 203.832031 278.335938 C 203.539062 277.53125 203.539062 276.429688 203.832031 275.695312 C 204.125 274.960938 204.933594 274.152344 205.519531 273.785156 C 206.035156 273.417969 207.207031 273.34375 207.207031 273.34375 "/></clipPath><clipPath id="a3703542c2"><path d="M 136.554688 179.300781 L 153.125 179.300781 L 153.125 273.289062 L 136.554688 273.289062 Z M 136.554688 179.300781 "/></clipPath><clipPath id="87fe94b30c"><path d="M 144.523438 271.289062 C 138.28125 254.039062 137.84375 251.472656 137.402344 246.773438 C 136.667969 239.066406 136.300781 223.796875 136.816406 215.648438 C 137.183594 210.4375 137.695312 207.429688 138.722656 202.730469 C 139.972656 197.003906 142.027344 187.609375 144.230469 183.71875 C 145.402344 181.664062 146.871094 180.121094 148.117188 179.609375 C 148.925781 179.242188 149.808594 179.316406 150.46875 179.535156 C 151.203125 179.757812 151.9375 180.269531 152.375 180.929688 C 152.816406 181.738281 153.109375 183.425781 152.742188 184.378906 C 152.375 185.335938 151.128906 186.363281 150.175781 186.582031 C 149.21875 186.875 147.605469 186.4375 146.871094 185.703125 C 146.136719 185.039062 145.625 183.425781 145.695312 182.472656 C 145.769531 181.664062 146.285156 180.929688 146.796875 180.417969 C 147.3125 179.902344 148.191406 179.460938 148.925781 179.390625 C 149.660156 179.316406 150.542969 179.390625 151.203125 179.902344 C 152.007812 180.417969 152.964844 181.664062 153.035156 182.765625 C 153.109375 184.378906 151.203125 186.140625 150.320312 188.5625 C 148.851562 192.308594 147.164062 198.472656 146.0625 203.613281 C 145.035156 208.675781 144.300781 213.226562 144.007812 219.101562 C 143.566406 226.734375 144.007812 239.210938 144.59375 245.597656 C 144.960938 249.195312 145.183594 250.808594 145.992188 254.039062 C 147.089844 258.445312 151.421875 266.59375 151.421875 269.527344 C 151.421875 270.703125 151.054688 271.363281 150.542969 271.949219 C 150.027344 272.539062 149.074219 273.050781 148.265625 273.199219 C 147.457031 273.34375 146.355469 272.976562 145.695312 272.609375 C 145.183594 272.316406 144.523438 271.289062 144.523438 271.289062 "/></clipPath><clipPath id="bcd1aa7b2c"><path d="M 145.195312 172.4375 L 225.484375 172.4375 L 225.484375 188.734375 L 145.195312 188.734375 Z M 145.195312 172.4375 "/></clipPath><clipPath id="1a4c871a9e"><path d="M 149.21875 174.910156 C 177.332031 181.222656 185.628906 181.664062 193.042969 181.003906 C 200.015625 180.417969 207.796875 178.433594 213.007812 176.671875 C 216.53125 175.425781 219.539062 172.710938 221.523438 172.488281 C 222.476562 172.414062 223.136719 172.710938 223.796875 173.148438 C 224.386719 173.589844 224.972656 174.324219 225.191406 174.984375 C 225.414062 175.71875 225.484375 176.601562 225.191406 177.332031 C 224.824219 178.214844 223.652344 179.460938 222.695312 179.683594 C 221.742188 179.976562 220.128906 179.609375 219.320312 178.949219 C 218.585938 178.289062 217.925781 176.820312 218.074219 175.792969 C 218.144531 174.765625 219.101562 173.371094 219.980469 172.929688 C 220.863281 172.488281 222.550781 172.488281 223.429688 172.929688 C 224.3125 173.441406 225.191406 174.839844 225.339844 175.792969 C 225.484375 176.527344 225.414062 177.261719 224.824219 178.066406 C 223.796875 179.609375 220.640625 181.445312 217.191406 182.914062 C 211.539062 185.261719 200.234375 187.609375 193.042969 188.34375 C 187.464844 189.003906 182.984375 188.710938 177.847656 188.269531 C 172.636719 187.832031 167.351562 186.804688 162.210938 185.773438 C 157.292969 184.746094 150.246094 183.351562 147.753906 182.03125 C 146.652344 181.445312 146.136719 181.078125 145.695312 180.34375 C 145.328125 179.683594 145.183594 178.582031 145.328125 177.773438 C 145.476562 176.964844 146.0625 176.085938 146.722656 175.570312 C 147.386719 175.132812 149.21875 174.910156 149.21875 174.910156 "/></clipPath><clipPath id="49cc163076"><path d="M 150 154.894531 L 157.847656 154.894531 L 157.847656 178.664062 L 150 178.664062 Z M 150 154.894531 "/></clipPath><clipPath id="c40323f657"><path d="M 150.175781 175.058594 C 150.320312 161.183594 150.6875 161.257812 150.835938 160.890625 C 150.980469 160.230469 149.953125 158.46875 150.175781 157.515625 C 150.320312 156.78125 150.910156 156.046875 151.496094 155.605469 C 152.15625 155.164062 152.964844 154.871094 153.769531 154.945312 C 154.726562 155.019531 156.195312 155.828125 156.78125 156.632812 C 157.222656 157.222656 157.367188 158.175781 157.292969 158.910156 C 157.292969 159.644531 157 160.523438 156.414062 161.039062 C 155.679688 161.699219 154.136719 162.285156 153.183594 162.210938 C 152.375 162.210938 151.570312 161.699219 151.054688 161.183594 C 150.542969 160.671875 150.101562 159.789062 150.027344 159.054688 C 149.953125 158.320312 150.101562 157.441406 150.46875 156.78125 C 150.835938 156.121094 151.570312 155.53125 152.230469 155.238281 C 152.890625 154.945312 153.84375 154.871094 154.578125 155.019531 C 155.238281 155.238281 156.046875 155.605469 156.558594 156.265625 C 157.292969 157.367188 157.292969 159.421875 157.515625 161.625 C 157.808594 165.074219 158.027344 172.414062 157.515625 175.058594 C 157.292969 176.234375 157.222656 176.894531 156.632812 177.480469 C 155.898438 178.140625 154.359375 178.726562 153.402344 178.65625 C 152.597656 178.65625 151.640625 178.066406 151.128906 177.480469 C 150.542969 176.894531 150.175781 175.058594 150.175781 175.058594 "/></clipPath><clipPath id="8dce0ae962"><path d="M 211.027344 155.902344 L 219.738281 155.902344 L 219.738281 178.269531 L 211.027344 178.269531 Z M 211.027344 155.902344 "/></clipPath><clipPath id="5fb6770059"><path d="M 212.199219 174.617188 C 211.394531 157.734375 211.761719 157.222656 212.347656 156.78125 C 212.933594 156.339844 213.742188 155.898438 214.550781 155.972656 C 215.503906 155.972656 217.042969 156.707031 217.632812 157.441406 C 218.144531 158.027344 218.367188 158.910156 218.367188 159.714844 C 218.367188 160.449219 218.074219 161.332031 217.558594 161.917969 C 216.898438 162.578125 215.355469 163.238281 214.402344 163.3125 C 213.59375 163.3125 212.789062 162.875 212.273438 162.359375 C 211.6875 161.917969 211.171875 161.113281 211.097656 160.378906 C 210.953125 159.421875 211.464844 157.808594 212.054688 157.074219 C 212.566406 156.414062 213.375 156.121094 214.109375 155.972656 C 214.84375 155.898438 215.796875 156.046875 216.457031 156.414062 C 217.117188 156.78125 217.632812 157.292969 218 158.101562 C 218.804688 159.644531 219.101562 162.726562 219.320312 165.222656 C 219.613281 168.15625 219.90625 172.488281 219.539062 174.617188 C 219.394531 175.71875 219.246094 176.453125 218.660156 177.039062 C 217.925781 177.699219 216.382812 178.289062 215.429688 178.214844 C 214.621094 178.214844 213.667969 177.628906 213.15625 177.039062 C 212.640625 176.453125 212.199219 174.617188 212.199219 174.617188 "/></clipPath><clipPath id="45799cfc9e"><path d="M 140.851562 106.34375 L 170.890625 106.34375 L 170.890625 158.214844 L 140.851562 158.214844 Z M 140.851562 106.34375 "/></clipPath><clipPath id="1ac0110a6e"><path d="M 155.3125 158.101562 C 147.679688 156.558594 144.449219 155.238281 142.980469 153.84375 C 141.953125 152.890625 141.367188 151.863281 141.144531 150.613281 C 140.851562 149.148438 140.851562 146.945312 141.734375 145.328125 C 142.832031 143.496094 146.722656 142.246094 148.046875 140.632812 C 148.925781 139.457031 149.148438 138.578125 149.660156 137.183594 C 150.320312 135.125 150.980469 132.484375 151.347656 129.472656 C 151.863281 125.363281 150.246094 118.023438 152.007812 114.425781 C 153.257812 111.785156 155.898438 110.316406 158.320312 108.996094 C 160.890625 107.601562 165 106.277344 167.203125 106.5 C 168.523438 106.644531 169.625 107.308594 170.214844 108.113281 C 170.800781 108.996094 171.019531 110.609375 170.652344 111.5625 C 170.285156 112.519531 169.039062 113.546875 168.011719 113.765625 C 167.058594 113.988281 165.441406 113.546875 164.707031 112.886719 C 163.972656 112.226562 163.386719 110.609375 163.605469 109.65625 C 163.753906 108.628906 164.855469 107.378906 165.664062 106.867188 C 166.324219 106.5 167.277344 106.425781 167.9375 106.644531 C 168.671875 106.792969 169.480469 107.234375 169.992188 107.820312 C 170.507812 108.40625 170.800781 109.214844 170.875 109.949219 C 170.949219 110.757812 170.652344 111.636719 170.285156 112.226562 C 169.847656 112.886719 169.257812 113.324219 168.378906 113.691406 C 167.128906 114.207031 164.929688 113.839844 163.238281 114.574219 C 161.113281 115.382812 157 119.050781 156.78125 118.757812 C 156.558594 118.609375 158.617188 115.527344 159.128906 115.675781 C 160.082031 116.042969 159.128906 126.613281 158.617188 130.796875 C 158.25 133.878906 157.882812 136.226562 156.925781 138.796875 C 156.046875 141.292969 154.503906 144.082031 153.183594 145.917969 C 152.230469 147.238281 151.421875 148.191406 150.246094 149 C 149 149.734375 145.84375 150.46875 145.84375 150.542969 C 145.84375 150.613281 148.414062 149.515625 150.027344 149.515625 C 152.230469 149.585938 156.558594 150.613281 157.957031 151.789062 C 158.6875 152.449219 158.984375 153.402344 159.054688 154.136719 C 159.203125 154.726562 159.128906 155.3125 158.835938 155.828125 C 158.46875 156.488281 157.734375 157.367188 157.074219 157.734375 C 156.488281 158.027344 155.3125 158.101562 155.3125 158.101562 "/></clipPath><clipPath id="9f7641554a"><path d="M 152.617188 146.671875 L 228.371094 146.671875 L 228.371094 160.0625 L 152.617188 160.0625 Z M 152.617188 146.671875 "/></clipPath><clipPath id="2045a613fe"><path d="M 156.339844 150.613281 C 164.78125 150.835938 168.597656 152.082031 173.148438 152.449219 C 179.535156 152.890625 189.886719 152.523438 196.34375 152.304688 C 200.96875 152.15625 204.050781 152.230469 208.238281 151.421875 C 213.15625 150.542969 220.933594 147.019531 223.871094 146.796875 C 224.972656 146.652344 225.558594 146.722656 226.21875 147.019531 C 226.882812 147.386719 227.542969 148.046875 227.910156 148.632812 C 228.277344 149.292969 228.496094 150.246094 228.277344 150.980469 C 228.054688 151.9375 227.101562 153.257812 226.148438 153.699219 C 225.265625 154.136719 223.578125 153.992188 222.695312 153.476562 C 221.890625 152.964844 221.007812 151.496094 221.007812 150.542969 C 220.933594 149.511719 221.667969 148.046875 222.476562 147.386719 C 223.285156 146.796875 224.898438 146.578125 225.851562 146.871094 C 226.808594 147.238281 227.910156 148.484375 228.203125 149.441406 C 228.421875 150.175781 228.347656 151.054688 228.054688 151.714844 C 227.761719 152.449219 227.394531 152.964844 226.515625 153.550781 C 224.164062 155.019531 216.382812 157.074219 211.246094 158.101562 C 206.253906 159.128906 201.410156 159.421875 196.050781 159.714844 C 190.03125 160.082031 183.425781 160.15625 176.820312 159.789062 C 169.699219 159.496094 157.734375 159.128906 154.652344 157.515625 C 153.550781 157 153.183594 156.339844 152.890625 155.605469 C 152.597656 154.796875 152.597656 153.699219 152.890625 152.964844 C 153.183594 152.230469 153.992188 151.421875 154.652344 151.054688 C 155.164062 150.6875 156.339844 150.613281 156.339844 150.613281 "/></clipPath><clipPath id="c78f52477a"><path d="M 160.648438 103.179688 L 228.382812 103.179688 L 228.382812 154.085938 L 160.648438 154.085938 Z M 160.648438 103.179688 "/></clipPath><clipPath id="ed5cb5a8df"><path d="M 221.523438 152.230469 C 212.640625 142.246094 211.171875 140.339844 210.292969 137.035156 C 208.96875 132.191406 210.21875 121.839844 209.703125 117.949219 C 209.484375 116.261719 209.777344 115.382812 208.898438 114.425781 C 207.207031 112.664062 201.851562 111.859375 197.519531 111.269531 C 192.015625 110.535156 184.160156 110.683594 178.289062 111.269531 C 173.296875 111.859375 167.425781 114.71875 164.5625 114.351562 C 163.09375 114.132812 162.066406 113.621094 161.476562 112.738281 C 160.890625 111.929688 160.816406 110.242188 161.113281 109.363281 C 161.332031 108.554688 161.917969 107.894531 162.578125 107.527344 C 163.460938 107.085938 165.074219 106.867188 166.03125 107.308594 C 166.910156 107.746094 167.863281 109.140625 168.15625 110.023438 C 168.304688 110.832031 168.15625 111.710938 167.792969 112.371094 C 167.277344 113.179688 165.882812 114.132812 164.929688 114.28125 C 164.195312 114.5 163.3125 114.207031 162.652344 113.839844 C 161.992188 113.472656 161.40625 112.738281 161.113281 112.078125 C 160.816406 111.34375 160.746094 110.464844 160.964844 109.730469 C 161.183594 108.996094 161.625 108.335938 162.285156 107.746094 C 163.167969 107.011719 164.488281 106.5 166.25 105.984375 C 169.113281 105.105469 173.441406 104.371094 177.996094 103.929688 C 184.308594 103.417969 193.996094 102.753906 200.527344 104.078125 C 205.886719 105.179688 211.980469 107.085938 214.621094 110.097656 C 216.679688 112.371094 216.605469 115.308594 217.042969 118.609375 C 217.707031 123.015625 216.015625 130.207031 216.972656 134.246094 C 217.632812 137.109375 218.804688 139.089844 220.421875 141.21875 C 222.109375 143.347656 225.558594 145.109375 226.882812 146.871094 C 227.6875 148.046875 228.277344 149.148438 228.347656 150.175781 C 228.347656 151.054688 228.054688 152.007812 227.542969 152.671875 C 227.027344 153.257812 226.074219 153.84375 225.265625 153.992188 C 224.457031 154.136719 223.359375 153.84375 222.695312 153.476562 C 222.183594 153.183594 221.523438 152.230469 221.523438 152.230469 "/></clipPath><clipPath id="ebc69450ff"><path d="M 164.761719 96.328125 L 172.75 96.328125 L 172.75 109.25 L 164.761719 109.25 Z M 164.761719 96.328125 "/></clipPath><clipPath id="20f38f099b"><path d="M 165.296875 105.546875 C 165.148438 98.058594 165.664062 97.46875 166.324219 97.03125 C 166.910156 96.589844 167.792969 96.222656 168.523438 96.371094 C 169.480469 96.441406 170.949219 97.175781 171.535156 98.058594 C 172.046875 98.863281 172.195312 100.554688 171.828125 101.433594 C 171.386719 102.386719 170.066406 103.34375 169.113281 103.636719 C 168.378906 103.855469 167.496094 103.636719 166.761719 103.269531 C 166.101562 102.976562 165.441406 102.316406 165.148438 101.65625 C 164.78125 100.992188 164.707031 100.039062 164.855469 99.304688 C 165 98.570312 165.441406 97.765625 165.957031 97.25 C 166.542969 96.808594 167.425781 96.441406 168.15625 96.371094 C 168.890625 96.296875 169.773438 96.515625 170.433594 96.957031 C 171.019531 97.324219 171.535156 97.910156 171.902344 98.71875 C 172.488281 100.261719 172.855469 103.855469 172.636719 105.546875 C 172.5625 106.574219 172.34375 107.378906 171.753906 107.96875 C 171.09375 108.703125 169.554688 109.289062 168.523438 109.214844 C 167.71875 109.140625 166.761719 108.554688 166.25 107.96875 C 165.734375 107.378906 165.296875 105.546875 165.296875 105.546875 "/></clipPath><clipPath id="d40b6e400b"><path d="M 196.152344 96.324219 L 203.789062 96.324219 L 203.789062 108.453125 L 196.152344 108.453125 Z M 196.152344 96.324219 "/></clipPath><clipPath id="2f8b76c64b"><path d="M 196.199219 104.738281 C 196.859375 97.765625 197.886719 96.738281 198.914062 96.515625 C 199.867188 96.222656 201.484375 96.664062 202.21875 97.25 C 202.878906 97.691406 203.320312 98.5 203.464844 99.230469 C 203.613281 99.964844 203.613281 100.921875 203.171875 101.582031 C 202.730469 102.386719 201.410156 103.417969 200.457031 103.636719 C 199.722656 103.855469 198.839844 103.636719 198.179688 103.269531 C 197.519531 102.902344 196.785156 102.316406 196.566406 101.582031 C 196.199219 100.699219 196.199219 99.011719 196.710938 98.132812 C 197.226562 97.25 198.765625 96.515625 199.648438 96.371094 C 200.457031 96.296875 201.335938 96.589844 201.921875 97.03125 C 202.585938 97.398438 203.023438 97.984375 203.390625 98.863281 C 203.832031 100.261719 203.832031 103.269531 203.539062 104.738281 C 203.390625 105.765625 203.246094 106.574219 202.65625 107.160156 C 201.921875 107.894531 200.382812 108.480469 199.429688 108.40625 C 198.621094 108.335938 197.667969 107.820312 197.152344 107.160156 C 196.566406 106.574219 196.199219 104.738281 196.199219 104.738281 "/></clipPath><clipPath id="1547f227c8"><path d="M 152.644531 91.351562 L 216.378906 91.351562 L 216.378906 99.511719 L 152.644531 99.511719 Z M 152.644531 91.351562 "/></clipPath><clipPath id="125ce479eb"><path d="M 212.640625 99.160156 C 160.082031 99.820312 157 99.378906 155.164062 98.570312 C 154.285156 98.132812 153.699219 97.765625 153.332031 97.175781 C 152.890625 96.515625 152.671875 95.636719 152.671875 94.902344 C 152.742188 94.167969 152.964844 93.285156 153.550781 92.699219 C 154.210938 92.039062 155.753906 91.304688 156.78125 91.453125 C 157.734375 91.523438 159.128906 92.480469 159.570312 93.359375 C 160.082031 94.242188 160.082031 95.929688 159.570312 96.808594 C 159.128906 97.691406 157.734375 98.644531 156.78125 98.71875 C 155.753906 98.867188 154.210938 98.203125 153.550781 97.46875 C 152.890625 96.664062 152.671875 95.046875 152.816406 94.09375 C 152.964844 93.359375 153.550781 92.625 154.136719 92.1875 C 154.726562 91.746094 155.3125 91.523438 156.339844 91.378906 C 158.761719 91.15625 163.019531 92.773438 168.230469 93.066406 C 178.507812 93.652344 208.238281 90.351562 213.523438 91.964844 C 214.84375 92.332031 215.210938 92.773438 215.722656 93.433594 C 216.164062 94.09375 216.382812 95.121094 216.3125 95.929688 C 216.238281 96.738281 215.722656 97.765625 215.136719 98.277344 C 214.476562 98.792969 212.640625 99.160156 212.640625 99.160156 "/></clipPath><clipPath id="9ec0ab5dd7"><path d="M 152.699219 78.808594 L 217.3125 78.808594 L 217.3125 98.835938 L 152.699219 98.835938 Z M 152.699219 78.808594 "/></clipPath><clipPath id="dc61b4e699"><path d="M 153.625 92.699219 C 164.636719 82.714844 165.589844 82.203125 166.835938 81.6875 C 168.15625 81.101562 169.039062 80.734375 170.949219 80.367188 C 174.984375 79.558594 186.4375 78.828125 190.398438 78.828125 C 192.234375 78.828125 192.675781 78.753906 194.363281 79.191406 C 197.59375 80 204.640625 83.011719 208.308594 84.992188 C 210.953125 86.460938 213.226562 87.707031 214.695312 89.394531 C 215.871094 90.644531 216.679688 92.1875 216.972656 93.582031 C 217.191406 94.679688 217.265625 96.148438 216.679688 96.957031 C 216.164062 97.835938 214.621094 98.570312 213.667969 98.644531 C 212.933594 98.792969 212.054688 98.425781 211.464844 97.984375 C 210.878906 97.542969 210.292969 96.808594 210.070312 96.074219 C 209.851562 95.414062 209.925781 94.460938 210.144531 93.726562 C 210.363281 93.066406 210.953125 92.257812 211.613281 91.890625 C 212.421875 91.453125 214.109375 91.230469 215.0625 91.597656 C 215.945312 92.039062 216.972656 93.285156 217.191406 94.3125 C 217.410156 95.269531 216.824219 96.882812 216.164062 97.617188 C 215.722656 98.203125 214.84375 98.570312 214.109375 98.644531 C 213.375 98.71875 212.421875 98.644531 211.761719 98.203125 C 210.953125 97.617188 210.660156 95.707031 209.851562 94.828125 C 209.042969 93.875 208.238281 93.507812 206.769531 92.699219 C 203.832031 91.085938 196.710938 87.339844 192.675781 86.386719 C 189.8125 85.726562 187.902344 86.019531 185.039062 86.167969 C 181.296875 86.3125 175.132812 86.902344 172.195312 87.5625 C 170.652344 87.929688 170.066406 88 168.671875 88.808594 C 166.03125 90.425781 160.449219 96.808594 158.46875 98.058594 C 157.734375 98.5 157.367188 98.644531 156.855469 98.71875 C 156.265625 98.792969 155.605469 98.792969 155.09375 98.5 C 154.359375 98.203125 153.476562 97.542969 153.109375 96.808594 C 152.742188 96.074219 152.671875 94.976562 152.816406 94.242188 C 152.890625 93.652344 153.625 92.699219 153.625 92.699219 "/></clipPath><clipPath id="e8ca3e49d2"><path d="M 172.324219 49.59375 L 197 49.59375 L 197 82.78125 L 172.324219 82.78125 Z M 172.324219 49.59375 "/></clipPath><clipPath id="51080910e5"><path d="M 177.996094 81.46875 C 173.808594 76.035156 173.371094 75.304688 173.003906 73.761719 C 172.414062 71.117188 172.121094 65.027344 172.5625 62.382812 C 172.855469 60.84375 173.296875 60.183594 173.957031 58.859375 C 174.984375 56.953125 176.820312 53.429688 178.433594 51.960938 C 179.535156 50.933594 180.636719 50.34375 181.882812 49.980469 C 183.058594 49.683594 184.308594 49.613281 185.554688 49.832031 C 187.023438 50.125 188.710938 50.492188 190.03125 51.59375 C 191.71875 52.914062 193.261719 55.628906 194.363281 57.90625 C 195.539062 60.253906 196.34375 62.898438 196.710938 65.46875 C 197.078125 68.035156 197.078125 71.265625 196.566406 73.246094 C 196.125 74.640625 195.683594 75.449219 194.582031 76.550781 C 192.96875 78.3125 188.34375 81.617188 186.4375 81.835938 C 185.480469 81.910156 184.820312 81.46875 184.234375 81.027344 C 183.644531 80.589844 183.132812 79.78125 182.914062 79.046875 C 182.765625 78.386719 182.839844 77.429688 183.058594 76.769531 C 183.351562 76.035156 184.011719 75.375 184.601562 75.007812 C 185.261719 74.640625 186.214844 74.421875 186.949219 74.496094 C 187.683594 74.570312 188.5625 74.9375 189.078125 75.523438 C 189.664062 76.257812 190.179688 77.871094 190.105469 78.828125 C 190.03125 79.558594 189.519531 80.367188 188.929688 80.882812 C 188.417969 81.320312 187.609375 81.835938 186.800781 81.835938 C 185.847656 81.835938 184.308594 81.175781 183.644531 80.515625 C 183.132812 79.925781 182.839844 79.046875 182.839844 78.3125 C 182.765625 77.578125 182.984375 76.769531 183.5 76.035156 C 184.160156 75.007812 186.140625 74.203125 187.167969 73.175781 C 188.125 72.148438 189.226562 71.117188 189.59375 69.945312 C 189.960938 68.769531 189.664062 67.59375 189.371094 66.128906 C 188.929688 64.070312 188.269531 60.035156 186.800781 58.785156 C 185.773438 57.90625 183.941406 57.464844 182.839844 58.054688 C 181.371094 58.859375 180.269531 62.824219 179.828125 64.804688 C 179.535156 66.273438 179.757812 67.449219 179.828125 68.695312 C 179.902344 70.019531 179.609375 71.191406 180.121094 72.441406 C 180.785156 74.054688 183.351562 75.816406 183.941406 77.285156 C 184.378906 78.238281 184.527344 79.046875 184.308594 79.855469 C 184.011719 80.808594 182.839844 81.984375 182.03125 82.421875 C 181.445312 82.714844 180.929688 82.714844 180.269531 82.644531 C 179.535156 82.496094 177.996094 81.46875 177.996094 81.46875 "/></clipPath><clipPath id="2b92f7d40b"><path d="M 211.894531 111.1875 L 262.347656 111.1875 L 262.347656 199.804688 L 211.894531 199.804688 Z M 211.894531 111.1875 "/></clipPath><clipPath id="419086ba2c"><path d="M 215.578125 111.269531 C 232.972656 112.8125 237.15625 115.160156 240.09375 117.144531 C 242.367188 118.757812 243.765625 120.226562 245.527344 122.429688 C 247.800781 125.144531 250.148438 128.960938 251.910156 132.851562 C 254.039062 137.402344 255.507812 141.660156 256.902344 148.117188 C 259.25 158.617188 261.453125 182.546875 262.042969 190.472656 C 262.261719 193.480469 262.554688 195.316406 262.113281 196.859375 C 261.820312 197.8125 261.234375 198.546875 260.648438 198.988281 C 260.132812 199.355469 259.617188 199.574219 258.957031 199.574219 C 258.222656 199.648438 257.125 199.429688 256.460938 198.988281 C 255.800781 198.546875 255.214844 197.59375 254.996094 196.859375 C 254.773438 196.199219 254.847656 195.390625 255.066406 194.804688 C 255.289062 194.070312 255.875 193.335938 256.535156 192.894531 C 257.125 192.527344 258.003906 192.160156 258.738281 192.308594 C 259.691406 192.453125 261.160156 193.335938 261.675781 194.070312 C 262.1875 194.730469 262.261719 195.609375 262.1875 196.34375 C 262.113281 197.078125 261.820312 197.960938 261.234375 198.472656 C 260.5 199.132812 258.957031 199.722656 257.929688 199.574219 C 256.976562 199.429688 255.65625 198.398438 255.214844 197.519531 C 254.773438 196.566406 254.921875 194.949219 255.433594 194.070312 C 255.949219 193.1875 257.417969 192.382812 258.371094 192.308594 C 259.179688 192.160156 259.984375 192.527344 260.648438 192.894531 C 261.234375 193.335938 261.894531 193.996094 262.042969 194.804688 C 262.261719 195.757812 261.96875 197.59375 261.308594 198.398438 C 260.648438 199.132812 259.03125 199.574219 258.078125 199.574219 C 257.488281 199.574219 256.976562 199.355469 256.460938 198.988281 C 255.875 198.546875 255.433594 198.105469 254.996094 196.859375 C 253.234375 192.015625 252.425781 167.792969 251.175781 158.761719 C 250.515625 153.769531 250.148438 150.980469 249.195312 147.238281 C 248.242188 143.421875 246.992188 139.457031 245.304688 135.933594 C 243.617188 132.484375 241.488281 128.667969 239.210938 126.246094 C 237.449219 124.191406 235.617188 122.941406 233.339844 121.695312 C 230.992188 120.300781 228.128906 119.125 225.191406 118.609375 C 222.183594 118.097656 217.707031 118.976562 215.578125 118.609375 C 214.476562 118.390625 213.742188 118.242188 213.15625 117.65625 C 212.566406 117.144531 212.054688 116.113281 211.980469 115.382812 C 211.832031 114.792969 211.90625 114.207031 212.125 113.621094 C 212.492188 112.957031 213.226562 112.078125 213.886719 111.710938 C 214.402344 111.34375 215.578125 111.269531 215.578125 111.269531 "/></clipPath><clipPath id="c6a5f721d7"><path d="M 209.714844 191.804688 L 265.5 191.804688 L 265.5 294.277344 L 209.714844 294.277344 Z M 209.714844 191.804688 "/></clipPath><clipPath id="d8c20efd55"><path d="M 262.1875 195.539062 C 262.554688 212.492188 264.464844 226.882812 264.902344 236.128906 C 265.269531 243.542969 265.492188 250.371094 265.125 256.316406 C 264.832031 261.085938 264.390625 265.492188 263.4375 269.089844 C 262.703125 271.878906 262.042969 274.078125 260.648438 276.207031 C 259.25 278.484375 257.125 280.539062 255.066406 282.300781 C 252.867188 284.136719 250.371094 285.675781 247.875 287 C 245.597656 288.171875 243.691406 288.980469 240.828125 289.859375 C 236.71875 291.109375 230.039062 292.429688 225.191406 293.164062 C 221.082031 293.75 215.945312 294.410156 213.59375 294.191406 C 212.566406 294.046875 211.980469 294.046875 211.320312 293.53125 C 210.585938 292.871094 209.777344 291.476562 209.777344 290.449219 C 209.777344 289.421875 210.585938 288.027344 211.394531 287.4375 C 212.273438 286.851562 213.886719 286.703125 214.84375 287.144531 C 215.796875 287.511719 216.75 288.832031 217.042969 289.789062 C 217.265625 290.523438 217.042969 291.402344 216.75 292.0625 C 216.457031 292.722656 215.871094 293.457031 215.136719 293.75 C 214.253906 294.117188 212.566406 294.117188 211.6875 293.75 C 210.953125 293.382812 210.363281 292.652344 210.070312 291.988281 C 209.777344 291.328125 209.632812 290.449219 209.851562 289.640625 C 210.144531 288.761719 210.804688 287.730469 212.125 287.070312 C 214.917969 285.605469 222.695312 286.265625 227.835938 285.308594 C 232.972656 284.355469 238.480469 283.253906 242.808594 281.273438 C 246.625 279.585938 250.738281 276.648438 252.792969 274.519531 C 253.96875 273.34375 254.332031 272.246094 254.996094 270.996094 C 255.582031 269.820312 255.949219 268.941406 256.316406 267.472656 C 256.902344 265.492188 257.269531 262.996094 257.488281 259.984375 C 257.855469 255.726562 257.855469 249.855469 257.785156 244.351562 C 257.710938 238.257812 257.417969 231.359375 256.976562 224.824219 C 256.460938 218.21875 255.140625 210.511719 254.847656 205.078125 C 254.699219 201.335938 254.480469 197.667969 254.847656 195.539062 C 255.066406 194.4375 255.214844 193.703125 255.800781 193.117188 C 256.460938 192.453125 258.003906 191.867188 258.957031 191.867188 C 259.839844 191.941406 260.792969 192.527344 261.308594 193.117188 C 261.820312 193.703125 262.1875 195.539062 262.1875 195.539062 "/></clipPath><clipPath id="5056e3a011"><path d="M 215.605469 193.613281 L 251.796875 193.613281 L 251.796875 283.847656 L 215.605469 283.847656 Z M 215.605469 193.613281 "/></clipPath><clipPath id="ccf38c4104"><path d="M 219.394531 276.207031 C 231.066406 274.960938 233.488281 273.273438 235.324219 272.171875 C 236.71875 271.363281 237.746094 270.921875 238.773438 269.75 C 240.167969 268.207031 241.414062 266.078125 242.296875 262.921875 C 243.984375 256.902344 244.128906 245.160156 244.277344 235.175781 C 244.425781 223.503906 241.5625 202.804688 242.808594 197.300781 C 243.175781 195.683594 243.691406 194.878906 244.425781 194.289062 C 245.011719 193.777344 245.890625 193.628906 246.625 193.628906 C 247.433594 193.703125 248.316406 193.996094 248.828125 194.511719 C 249.488281 195.171875 250.222656 196.710938 250.078125 197.738281 C 250.003906 198.695312 248.976562 200.089844 248.167969 200.601562 C 247.507812 200.96875 246.625 201.042969 245.890625 200.96875 C 245.160156 200.824219 244.277344 200.382812 243.765625 199.867188 C 243.25 199.28125 242.882812 198.472656 242.808594 197.738281 C 242.734375 197.003906 242.882812 196.050781 243.324219 195.464844 C 243.835938 194.65625 245.304688 193.777344 246.257812 193.628906 C 247.066406 193.554688 247.875 193.847656 248.535156 194.289062 C 249.121094 194.730469 249.5625 195.097656 249.929688 196.125 C 251.398438 200.015625 251.398438 216.75 251.617188 225.632812 C 251.765625 232.828125 251.765625 238.773438 251.398438 245.378906 C 251.03125 251.984375 250.664062 260.351562 249.269531 265.269531 C 248.460938 268.425781 247.140625 270.777344 245.964844 272.609375 C 245.085938 273.859375 244.570312 274.519531 243.324219 275.546875 C 241.046875 277.382812 236.277344 280.320312 232.898438 281.640625 C 230.109375 282.742188 227.46875 283.328125 224.898438 283.546875 C 222.402344 283.769531 219.171875 283.84375 217.632812 283.109375 C 216.75 282.667969 216.238281 281.933594 215.945312 281.199219 C 215.648438 280.390625 215.648438 279.363281 215.945312 278.558594 C 216.238281 277.824219 217.042969 277.015625 217.632812 276.648438 C 218.21875 276.28125 219.394531 276.207031 219.394531 276.207031 "/></clipPath><clipPath id="1740c83dd7"><path d="M 212.335938 122.566406 L 250.402344 122.566406 L 250.402344 206.476562 L 212.335938 206.476562 Z M 212.335938 122.566406 "/></clipPath><clipPath id="f04a0dffc2"><path d="M 242.808594 202.65625 C 241.121094 176.820312 236.863281 149.734375 234.148438 141.21875 C 233.046875 137.84375 232.019531 136.226562 230.917969 134.464844 C 230.039062 133.144531 229.375 132.117188 228.277344 131.382812 C 227.175781 130.648438 225.707031 130.355469 224.386719 130.136719 C 223.136719 129.914062 221.300781 130.648438 220.566406 130.136719 C 219.980469 129.695312 220.273438 127.859375 219.835938 127.785156 C 219.394531 127.785156 218.734375 130.136719 217.925781 130.648438 C 217.265625 131.089844 216.3125 131.164062 215.578125 131.015625 C 214.84375 130.871094 214.035156 130.429688 213.523438 129.914062 C 213.007812 129.402344 212.566406 128.59375 212.566406 127.785156 C 212.566406 126.832031 213.15625 125.289062 213.886719 124.554688 C 214.402344 124.042969 215.28125 123.75 216.015625 123.75 C 216.75 123.675781 217.707031 123.96875 218.292969 124.410156 C 218.878906 124.777344 219.46875 125.585938 219.6875 126.246094 C 219.90625 126.980469 219.980469 127.859375 219.6875 128.59375 C 219.320312 129.472656 218.144531 130.648438 217.191406 130.941406 C 216.238281 131.234375 214.621094 130.871094 213.816406 130.207031 C 213.082031 129.546875 212.199219 128.007812 212.566406 126.980469 C 213.15625 125.363281 217.851562 123.234375 220.566406 122.792969 C 222.992188 122.28125 225.632812 122.941406 227.980469 123.601562 C 230.332031 124.335938 232.753906 125.144531 234.660156 126.980469 C 237.085938 129.253906 238.992188 133.21875 240.535156 137.402344 C 242.589844 142.761719 243.175781 149.441406 244.496094 156.925781 C 246.332031 166.910156 249.414062 183.5 250.003906 192.234375 C 250.296875 197.300781 250.664062 202.21875 249.710938 204.347656 C 249.269531 205.375 248.535156 205.8125 247.726562 206.109375 C 246.992188 206.402344 245.890625 206.402344 245.160156 206.109375 C 244.425781 205.8125 243.617188 205.007812 243.175781 204.347656 C 242.882812 203.832031 242.808594 202.65625 242.808594 202.65625 "/></clipPath><clipPath id="e870da2405"><path d="M 211.492188 123.484375 L 225 123.484375 L 225 131.121094 L 211.492188 131.121094 Z M 211.492188 123.484375 "/></clipPath><clipPath id="fce0167164"><path d="M 215.210938 123.527344 C 223.359375 124.042969 223.871094 124.554688 224.3125 125.144531 C 224.753906 125.804688 224.972656 126.683594 224.972656 127.417969 C 224.898438 128.152344 224.53125 129.035156 224.089844 129.621094 C 223.578125 130.136719 222.769531 130.648438 222.035156 130.796875 C 221.375 130.941406 220.421875 130.941406 219.761719 130.574219 C 218.878906 130.0625 217.851562 128.742188 217.632812 127.785156 C 217.484375 127.050781 217.707031 126.171875 218 125.511719 C 218.367188 124.851562 219.027344 124.191406 219.761719 123.894531 C 220.640625 123.527344 222.328125 123.527344 223.136719 124.042969 C 224.019531 124.628906 224.824219 126.097656 224.972656 127.050781 C 225.046875 127.785156 224.753906 128.667969 224.3125 129.253906 C 223.871094 129.914062 223.359375 130.355469 222.476562 130.722656 C 220.863281 131.234375 216.898438 131.164062 215.210938 130.871094 C 214.109375 130.722656 213.375 130.574219 212.714844 129.988281 C 212.054688 129.253906 211.464844 127.710938 211.539062 126.757812 C 211.613281 125.953125 212.125 124.996094 212.714844 124.484375 C 213.375 123.96875 215.210938 123.527344 215.210938 123.527344 "/></clipPath><clipPath id="0f66a926ea"><path d="M 141.976562 287.367188 L 234.996094 287.367188 L 234.996094 325.558594 L 141.976562 325.558594 Z M 141.976562 287.367188 "/></clipPath><clipPath id="a71d2643f4"><path d="M 152.816406 301.386719 C 150.6875 302.265625 149.515625 303.882812 149.367188 305.054688 C 149.148438 306.15625 149.367188 307.550781 150.320312 308.652344 C 151.863281 310.632812 156.488281 312.617188 160.523438 314.011719 C 165.882812 315.773438 173.148438 317.019531 179.828125 317.535156 C 187.023438 318.121094 194.804688 318.195312 202.289062 317.167969 C 210.070312 316.066406 222.109375 313.351562 225.484375 310.855469 C 226.808594 309.898438 227.175781 308.871094 227.46875 307.699219 C 227.761719 306.523438 227.6875 305.054688 227.101562 303.660156 C 226.292969 301.753906 223.652344 299.332031 222.183594 297.863281 C 221.082031 296.835938 220.421875 296.027344 219.246094 295.511719 C 217.707031 294.851562 214.917969 295.292969 213.59375 294.707031 C 212.714844 294.339844 212.125 293.898438 211.6875 293.3125 C 211.320312 292.652344 210.953125 291.769531 211.097656 291.035156 C 211.246094 290.082031 212.054688 288.613281 212.859375 288.097656 C 213.523438 287.660156 214.402344 287.511719 215.136719 287.585938 C 215.871094 287.660156 216.75 288.027344 217.265625 288.539062 C 217.777344 289.054688 218.292969 289.859375 218.367188 290.667969 C 218.441406 291.621094 218 293.238281 217.265625 293.898438 C 216.53125 294.558594 214.917969 295 213.960938 294.777344 C 212.933594 294.558594 211.761719 293.457031 211.320312 292.578125 C 211.027344 291.84375 211.027344 290.960938 211.246094 290.226562 C 211.394531 289.492188 211.90625 288.761719 212.566406 288.320312 C 213.15625 287.878906 213.886719 287.660156 214.769531 287.585938 C 215.871094 287.4375 217.339844 287.585938 218.585938 287.804688 C 219.761719 288.027344 220.863281 288.171875 222.183594 288.832031 C 224.089844 289.714844 226.808594 291.695312 228.714844 293.53125 C 230.625 295.441406 232.753906 298.082031 233.707031 299.992188 C 234.367188 301.3125 234.515625 302.191406 234.660156 303.660156 C 234.882812 305.789062 235.027344 309.679688 234.367188 311.734375 C 233.855469 313.277344 233.046875 314.230469 232.019531 315.257812 C 230.992188 316.214844 229.816406 316.945312 228.277344 317.609375 C 226.292969 318.5625 224.089844 319.222656 220.933594 320.03125 C 215.429688 321.570312 205.445312 324.289062 198.179688 325.09375 C 191.574219 325.753906 185.480469 325.535156 179.09375 324.875 C 172.636719 324.214844 165.148438 322.894531 159.714844 321.203125 C 155.53125 319.957031 151.714844 318.488281 148.925781 316.507812 C 146.578125 314.890625 144.523438 313.054688 143.421875 310.78125 C 142.246094 308.578125 141.878906 305.128906 142.027344 303.074219 C 142.171875 301.679688 142.6875 300.726562 143.347656 299.625 C 144.007812 298.523438 144.960938 297.421875 146.0625 296.539062 C 147.386719 295.585938 149.441406 294.414062 150.910156 294.265625 C 152.082031 294.117188 153.476562 294.558594 154.210938 295 C 154.726562 295.367188 155.019531 295.878906 155.238281 296.46875 C 155.460938 297.203125 155.605469 298.300781 155.3125 299.035156 C 154.945312 299.917969 152.816406 301.386719 152.816406 301.386719 "/></clipPath><clipPath id="77fda8460e"><path d="M 182 249.445312 L 189.882812 249.445312 L 189.882812 274.992188 L 182 274.992188 Z M 182 249.445312 "/></clipPath><clipPath id="d17150cdd6"><path d="M 182.03125 271.289062 C 182.839844 250.445312 183.351562 250.078125 184.085938 249.78125 C 184.96875 249.488281 186.65625 249.5625 187.535156 249.929688 C 188.199219 250.296875 188.785156 251.03125 189.078125 251.691406 C 189.296875 252.425781 189.371094 253.304688 189.226562 254.039062 C 189.003906 254.773438 188.492188 255.582031 187.902344 256.023438 C 187.316406 256.460938 186.507812 256.828125 185.703125 256.757812 C 184.746094 256.683594 183.207031 256.023438 182.617188 255.214844 C 182.03125 254.40625 181.957031 252.71875 182.25 251.765625 C 182.472656 251.03125 183.058594 250.371094 183.71875 250.003906 C 184.378906 249.5625 185.261719 249.414062 185.996094 249.488281 C 186.730469 249.5625 187.609375 249.929688 188.125 250.445312 C 188.710938 250.882812 189.003906 251.398438 189.296875 252.5 C 190.03125 255.582031 190.03125 267.988281 189.371094 271.289062 C 189.152344 272.539062 189.078125 273.125 188.492188 273.710938 C 187.832031 274.445312 186.289062 275.035156 185.261719 274.960938 C 184.453125 274.886719 183.5 274.371094 182.984375 273.710938 C 182.472656 273.125 182.03125 271.289062 182.03125 271.289062 "/></clipPath><clipPath id="aebd5548c7"><path d="M 170.882812 194.648438 L 199.496094 194.648438 L 199.496094 277.3125 L 170.882812 277.3125 Z M 170.882812 194.648438 "/></clipPath><clipPath id="86c6c6e8c2"><path d="M 183.351562 255.949219 C 174.984375 248.242188 174.398438 247.652344 173.664062 246.257812 C 172.710938 244.277344 171.679688 241.046875 171.242188 238.40625 C 170.800781 235.835938 171.019531 232.753906 171.167969 230.625 C 171.167969 229.15625 170.949219 228.570312 171.460938 226.882812 C 172.636719 223.136719 179.460938 214.988281 181.296875 209.410156 C 182.765625 205.007812 181.589844 198.988281 182.914062 196.710938 C 183.644531 195.539062 184.820312 194.949219 185.773438 194.804688 C 186.582031 194.65625 187.609375 194.949219 188.269531 195.390625 C 188.929688 195.90625 189.371094 196.566406 189.738281 197.59375 C 190.472656 199.355469 190.03125 202.4375 190.839844 205.8125 C 192.234375 211.539062 198.035156 222.84375 199.0625 228.496094 C 199.648438 231.652344 199.5 234 199.132812 236.128906 C 198.914062 237.597656 198.621094 238.480469 197.886719 239.945312 C 196.566406 242.515625 192.382812 247.140625 191.28125 249.710938 C 190.621094 251.175781 190.621094 251.691406 190.398438 253.453125 C 189.886719 257.5625 191.425781 271.511719 190.324219 274.738281 C 189.960938 275.769531 189.519531 276.132812 188.929688 276.574219 C 188.269531 277.015625 187.390625 277.308594 186.65625 277.234375 C 185.703125 277.089844 184.234375 276.28125 183.71875 275.472656 C 183.207031 274.59375 183.058594 272.90625 183.5 272.023438 C 183.941406 271.070312 185.261719 270.117188 186.214844 269.894531 C 187.242188 269.75 188.785156 270.410156 189.519531 270.996094 C 190.105469 271.582031 190.398438 272.390625 190.472656 273.125 C 190.546875 273.859375 190.398438 274.8125 189.960938 275.472656 C 189.59375 276.0625 188.859375 276.648438 188.199219 276.941406 C 187.535156 277.234375 186.582031 277.382812 185.847656 277.089844 C 184.96875 276.722656 183.941406 276.0625 183.351562 274.738281 C 181.882812 271.289062 182.617188 257.785156 182.984375 253.601562 C 183.132812 251.910156 183.425781 251.175781 183.71875 249.929688 C 184.085938 248.683594 184.308594 247.726562 184.96875 246.257812 C 186.289062 243.617188 190.914062 239.066406 191.792969 235.6875 C 192.527344 233.046875 192.160156 231.066406 191.574219 227.980469 C 190.546875 223.210938 186.070312 214.917969 184.527344 210.144531 C 183.5 206.988281 182.765625 204.566406 182.546875 202.289062 C 182.324219 200.527344 182.324219 198.695312 182.617188 197.59375 C 182.839844 196.859375 182.984375 196.417969 183.425781 195.976562 C 184.011719 195.464844 184.894531 194.878906 185.773438 194.804688 C 186.730469 194.730469 188.269531 195.390625 188.929688 195.976562 C 189.445312 196.417969 189.59375 196.859375 189.738281 197.59375 C 190.105469 198.765625 190.03125 200.824219 189.886719 202.804688 C 189.664062 205.300781 189.003906 209.265625 188.34375 211.464844 C 187.902344 213.007812 187.609375 213.519531 186.800781 215.0625 C 185.1875 218.144531 179.828125 224.53125 178.65625 228.496094 C 177.847656 231.285156 178.214844 233.632812 178.507812 236.203125 C 178.800781 238.699219 179.023438 241.339844 180.417969 243.542969 C 181.957031 246.113281 186.507812 248.535156 187.976562 250.222656 C 188.636719 251.105469 189.152344 251.691406 189.296875 252.5 C 189.371094 253.304688 189.152344 254.40625 188.785156 255.066406 C 188.492188 255.582031 187.976562 255.949219 187.535156 256.242188 C 187.023438 256.535156 186.4375 256.757812 185.847656 256.757812 C 185.113281 256.757812 183.351562 255.949219 183.351562 255.949219 "/></clipPath><clipPath id="719ea72c55"><path d="M 179.613281 231.738281 L 191.929688 231.738281 L 191.929688 250.277344 L 179.613281 250.277344 Z M 179.613281 231.738281 "/></clipPath><clipPath id="7a1eb026de"><path d="M 179.683594 244.496094 C 179.976562 236.71875 180.636719 234.882812 181.589844 233.78125 C 182.398438 232.828125 183.644531 232.164062 184.820312 231.945312 C 186.070312 231.652344 187.976562 231.652344 189.003906 232.3125 C 189.960938 232.898438 190.472656 234.148438 190.914062 235.617188 C 191.648438 238.183594 192.234375 244.128906 191.648438 246.554688 C 191.355469 247.949219 190.914062 249.046875 190.03125 249.636719 C 189.226562 250.148438 187.609375 250.371094 186.65625 250.003906 C 185.703125 249.636719 184.675781 248.242188 184.453125 247.359375 C 184.160156 246.625 184.378906 245.671875 184.675781 245.011719 C 184.96875 244.351562 185.554688 243.617188 186.289062 243.324219 C 187.167969 242.957031 188.859375 242.957031 189.738281 243.324219 C 190.472656 243.617188 191.058594 244.351562 191.355469 245.011719 C 191.648438 245.671875 191.71875 246.625 191.574219 247.359375 C 191.425781 248.09375 190.914062 248.902344 190.398438 249.34375 C 189.8125 249.855469 189.003906 250.222656 188.199219 250.222656 C 187.242188 250.222656 185.847656 249.855469 185.113281 248.753906 C 183.574219 246.699219 182.472656 236.789062 183.574219 236.054688 C 184.234375 235.6875 186.363281 237.15625 187.023438 238.40625 C 187.832031 240.09375 187.316406 244.570312 186.582031 246.1875 C 186.140625 247.066406 185.40625 247.652344 184.601562 247.875 C 183.867188 248.167969 182.765625 248.167969 182.03125 247.875 C 181.222656 247.652344 180.417969 246.847656 180.050781 246.1875 C 179.757812 245.671875 179.683594 244.496094 179.683594 244.496094 "/></clipPath><clipPath id="a49a182be9"><path d="M 280 140 L 328 140 L 328 169 L 280 169 Z M 280 140 "/></clipPath><clipPath id="094564b351"><path d="M 287.753906 131.832031 L 328.324219 141.546875 L 319.699219 177.574219 L 279.125 167.859375 Z M 287.753906 131.832031 "/></clipPath><clipPath id="29a13b135f"><path d="M 281.839844 161.992188 C 305.628906 148.066406 314.238281 143.632812 318.707031 141.988281 C 320.945312 141.164062 322.609375 140.507812 323.945312 140.601562 C 324.835938 140.664062 325.570312 141.066406 326.144531 141.503906 C 326.703125 142.015625 327.191406 142.8125 327.324219 143.523438 C 327.4375 144.304688 327.445312 145.210938 326.992188 145.859375 C 326.554688 146.734375 325.246094 147.78125 324.234375 147.914062 C 323.21875 148.050781 321.683594 147.53125 321.035156 146.773438 C 320.316406 145.996094 319.925781 144.46875 320.164062 143.46875 C 320.40625 142.46875 321.460938 141.210938 322.382812 140.828125 C 323.359375 140.535156 324.980469 140.695312 325.824219 141.277344 C 326.664062 141.855469 327.375 143.308594 327.347656 144.359375 C 327.339844 145.339844 326.886719 146.285156 325.722656 147.367188 C 322.617188 150.246094 310.160156 154.054688 303.074219 157.792969 C 296.519531 161.207031 288.128906 167.875 284.703125 168.640625 C 283.492188 168.953125 282.851562 168.800781 282.101562 168.46875 C 281.347656 168.140625 280.628906 167.363281 280.285156 166.601562 C 280.007812 165.855469 279.960938 164.789062 280.152344 164.003906 C 280.410156 163.234375 281.839844 161.992188 281.839844 161.992188 "/></clipPath><clipPath id="0460ef4eb8"><path d="M 282.1875 188.292969 L 334.632812 188.292969 L 334.632812 202.699219 L 282.1875 202.699219 Z M 282.1875 188.292969 "/></clipPath><clipPath id="3c47f266e4"><path d="M 285.605469 195.316406 C 304.6875 192.308594 307.84375 191.058594 311.957031 190.324219 C 316.800781 189.445312 324.289062 188.636719 327.882812 188.492188 C 329.71875 188.417969 330.96875 188.125 332.066406 188.636719 C 333.097656 189.078125 334.125 190.253906 334.417969 191.132812 C 334.710938 191.867188 334.5625 192.75 334.269531 193.484375 C 334.050781 194.144531 333.460938 194.878906 332.800781 195.246094 C 331.921875 195.683594 330.234375 195.757812 329.351562 195.464844 C 328.617188 195.171875 327.957031 194.511719 327.664062 193.847656 C 327.296875 193.1875 327.078125 192.308594 327.296875 191.5 C 327.515625 190.621094 328.398438 189.226562 329.351562 188.785156 C 330.234375 188.34375 331.921875 188.417969 332.800781 189.003906 C 333.609375 189.519531 334.417969 190.988281 334.5625 191.941406 C 334.636719 192.675781 334.34375 193.554688 333.902344 194.144531 C 333.535156 194.804688 333.097656 195.171875 332.066406 195.609375 C 329.351562 196.640625 320.835938 196.273438 315.773438 197.152344 C 311.074219 197.886719 307.257812 199.355469 302.558594 200.234375 C 297.421875 201.191406 289.492188 203.023438 286.191406 202.585938 C 284.722656 202.4375 283.695312 201.996094 283.035156 201.261719 C 282.519531 200.675781 282.226562 199.574219 282.226562 198.765625 C 282.300781 197.960938 282.667969 197.003906 283.253906 196.417969 C 283.84375 195.832031 285.605469 195.316406 285.605469 195.316406 "/></clipPath><clipPath id="6675d4a7bd"><path d="M 277.039062 233.804688 L 332 233.804688 L 332 242.460938 L 277.039062 242.460938 Z M 277.039062 233.804688 "/></clipPath><clipPath id="3cf1128e4e"><path d="M 280.6875 233.855469 C 330.746094 234.660156 331.039062 235.027344 331.40625 235.761719 C 331.847656 236.570312 331.996094 238.257812 331.699219 239.140625 C 331.40625 239.875 330.746094 240.535156 330.085938 240.902344 C 329.5 241.269531 328.617188 241.488281 327.8125 241.339844 C 326.855469 241.121094 325.535156 240.167969 325.019531 239.359375 C 324.65625 238.625 324.582031 237.746094 324.726562 237.011719 C 324.875 236.277344 325.242188 235.46875 325.902344 234.957031 C 326.636719 234.367188 328.25 234 329.207031 234.148438 C 330.011719 234.292969 330.746094 234.808594 331.1875 235.394531 C 331.628906 235.984375 331.996094 236.863281 331.996094 237.597656 C 331.996094 238.332031 331.773438 239.285156 331.261719 239.875 C 330.671875 240.609375 329.9375 240.972656 328.175781 241.339844 C 321.792969 242.882812 285.382812 242.808594 279.804688 241.046875 C 278.558594 240.679688 278.117188 240.242188 277.675781 239.578125 C 277.234375 238.917969 276.941406 237.890625 277.089844 237.085938 C 277.164062 236.277344 277.675781 235.324219 278.261719 234.734375 C 278.851562 234.222656 280.6875 233.855469 280.6875 233.855469 "/></clipPath><clipPath id="e3004de451"><path d="M 57.003906 278.652344 L 93.414062 278.652344 L 93.414062 300 L 57.003906 300 Z M 57.003906 278.652344 "/></clipPath><clipPath id="61164bf900"><path d="M 59.886719 292.722656 C 72.734375 288.171875 85.285156 279.511719 88.957031 278.851562 C 90.058594 278.628906 90.570312 278.703125 91.230469 279.144531 C 92.039062 279.585938 93.066406 280.980469 93.285156 281.933594 C 93.433594 282.667969 93.214844 283.546875 92.847656 284.210938 C 92.480469 284.871094 91.820312 285.457031 91.15625 285.824219 C 90.425781 286.117188 89.542969 286.265625 88.808594 285.972656 C 87.929688 285.675781 86.605469 284.574219 86.238281 283.695312 C 85.871094 283.035156 85.871094 282.082031 86.167969 281.347656 C 86.460938 280.464844 87.5625 279.21875 88.515625 278.925781 C 89.542969 278.628906 91.15625 278.996094 91.890625 279.585938 C 92.550781 279.953125 92.992188 280.832031 93.214844 281.492188 C 93.359375 282.226562 93.285156 283.179688 93.066406 283.84375 C 92.773438 284.503906 92.40625 284.871094 91.453125 285.605469 C 88.441406 288.027344 74.421875 295.367188 68.917969 297.714844 C 65.90625 298.964844 63.484375 299.769531 61.648438 299.917969 C 60.546875 299.992188 59.742188 299.992188 59.082031 299.550781 C 58.199219 299.035156 57.320312 297.714844 57.097656 296.761719 C 56.953125 295.953125 57.320312 294.925781 57.757812 294.191406 C 58.199219 293.53125 59.886719 292.722656 59.886719 292.722656 "/></clipPath><clipPath id="2c6f039662"><path d="M 45.082031 236.09375 L 91.628906 236.09375 L 91.628906 247.339844 L 45.082031 247.339844 Z M 45.082031 236.09375 "/></clipPath><clipPath id="24bc8d70c9"><path d="M 48.363281 239.875 C 64.734375 238.917969 71.707031 236.863281 76.84375 236.421875 C 80.953125 236.054688 85.652344 235.984375 87.929688 236.351562 C 88.957031 236.496094 89.542969 236.644531 90.128906 237.085938 C 90.71875 237.523438 91.304688 238.257812 91.453125 238.992188 C 91.671875 239.945312 91.304688 241.636719 90.71875 242.367188 C 90.277344 243.03125 89.542969 243.46875 88.734375 243.617188 C 87.78125 243.691406 86.167969 243.398438 85.433594 242.664062 C 84.699219 242.003906 84.183594 240.386719 84.332031 239.433594 C 84.476562 238.40625 85.507812 237.085938 86.386719 236.644531 C 87.339844 236.277344 88.957031 236.421875 89.835938 236.863281 C 90.570312 237.230469 91.085938 237.964844 91.378906 238.625 C 91.597656 239.359375 91.746094 240.242188 91.453125 240.972656 C 91.15625 241.855469 90.425781 242.882812 89.101562 243.46875 C 86.605469 244.644531 80.515625 243.398438 75.890625 243.910156 C 70.679688 244.425781 64.511719 246.257812 59.59375 246.847656 C 55.484375 247.214844 50.273438 247.507812 48.21875 247.140625 C 47.410156 246.992188 47.042969 246.847656 46.601562 246.480469 C 46.089844 246.1875 45.648438 245.746094 45.425781 245.160156 C 45.132812 244.496094 44.988281 243.324219 45.207031 242.589844 C 45.425781 241.78125 46.089844 240.902344 46.675781 240.460938 C 47.1875 240.09375 48.363281 239.875 48.363281 239.875 "/></clipPath><clipPath id="e49c8f591e"><path d="M 40.414062 190.488281 L 92.25 190.488281 L 92.25 202.421875 L 40.414062 202.421875 Z M 40.414062 190.488281 "/></clipPath><clipPath id="00f5e4fd9a"><path d="M 44.105469 190.507812 C 73.6875 191.390625 86.3125 193.152344 89.910156 195.28125 C 91.304688 196.089844 91.820312 197.042969 92.113281 197.921875 C 92.332031 198.730469 92.113281 199.613281 91.820312 200.273438 C 91.523438 200.933594 90.863281 201.59375 90.203125 201.960938 C 89.542969 202.253906 88.664062 202.472656 87.855469 202.328125 C 86.972656 202.035156 85.652344 201.007812 85.140625 200.199219 C 84.773438 199.464844 84.699219 198.585938 84.917969 197.851562 C 85.210938 196.894531 86.3125 195.648438 87.195312 195.28125 C 87.929688 194.914062 88.808594 194.914062 89.542969 195.132812 C 90.277344 195.355469 91.085938 195.867188 91.453125 196.527344 C 91.964844 197.335938 92.1875 198.949219 91.964844 199.90625 C 91.746094 200.640625 91.15625 201.375 90.496094 201.742188 C 89.910156 202.179688 89.394531 202.328125 88.296875 202.328125 C 84.550781 202.472656 72.660156 198.65625 65.027344 197.921875 C 57.6875 197.1875 46.601562 198.804688 43.226562 197.703125 C 42.050781 197.335938 41.539062 196.894531 41.023438 196.234375 C 40.582031 195.574219 40.363281 194.546875 40.4375 193.738281 C 40.507812 192.933594 41.023438 191.976562 41.609375 191.390625 C 42.269531 190.875 44.105469 190.507812 44.105469 190.507812 "/></clipPath><clipPath id="5c2e0d75ac"><path d="M 48 139.136719 L 95.199219 139.136719 L 95.199219 170.167969 L 48 170.167969 Z M 48 139.136719 "/></clipPath><clipPath id="671b9ff450"><path d="M 51.742188 139.199219 C 61.429688 140.667969 62.53125 141.183594 64.511719 142.285156 C 68.109375 144.117188 73.980469 147.496094 78.753906 150.945312 C 84.109375 154.835938 93.214844 161.441406 94.753906 164.746094 C 95.34375 166.066406 95.195312 167.3125 94.753906 168.195312 C 94.242188 169.074219 92.847656 170.03125 91.890625 170.101562 C 90.863281 170.175781 89.324219 169.589844 88.664062 168.78125 C 88 168.046875 87.707031 166.433594 87.929688 165.40625 C 88.222656 164.453125 89.394531 163.277344 90.351562 162.984375 C 91.304688 162.617188 92.917969 163.054688 93.726562 163.570312 C 94.386719 163.9375 94.902344 164.746094 95.046875 165.480469 C 95.195312 166.433594 94.828125 168.046875 94.242188 168.855469 C 93.800781 169.441406 92.992188 169.882812 92.257812 170.03125 C 91.523438 170.175781 91.011719 170.175781 89.910156 169.734375 C 86.460938 168.339844 76.257812 157.992188 70.382812 154.101562 C 66.128906 151.238281 62.382812 149.109375 58.640625 147.714844 C 55.410156 146.539062 50.933594 146.835938 49.316406 145.660156 C 48.511719 145 48.289062 144.046875 48.144531 143.3125 C 47.996094 142.722656 48.070312 142.136719 48.363281 141.621094 C 48.65625 140.890625 49.390625 140.007812 50.050781 139.640625 C 50.566406 139.347656 51.742188 139.199219 51.742188 139.199219 "/></clipPath><clipPath id="81817f50d6"><path d="M 279 269 L 316 269 L 316 292 L 279 292 Z M 279 269 "/></clipPath><clipPath id="eab5e9eb29"><path d="M 300.164062 301.132812 L 278.035156 272.21875 L 294.996094 259.234375 L 317.128906 288.148438 Z M 300.164062 301.132812 "/></clipPath><clipPath id="7f0d304f50"><path d="M 309.585938 290.285156 C 298.164062 282.851562 283.660156 278.148438 280.902344 275.636719 C 280.058594 274.894531 279.804688 274.445312 279.753906 273.652344 C 279.613281 272.742188 280.09375 271.078125 280.71875 270.324219 C 281.210938 269.761719 282.046875 269.402344 282.792969 269.289062 C 283.542969 269.179688 284.410156 269.347656 285.101562 269.648438 C 285.78125 270.054688 286.433594 270.664062 286.644531 271.425781 C 286.949219 272.304688 286.878906 274.023438 286.402344 274.847656 C 286.097656 275.542969 285.339844 276.121094 284.582031 276.335938 C 283.703125 276.636719 282.042969 276.519531 281.230469 275.941406 C 280.371094 275.304688 279.679688 273.800781 279.703125 272.859375 C 279.589844 272.113281 280.023438 271.226562 280.414062 270.648438 C 280.90625 270.085938 281.710938 269.566406 282.367188 269.339844 C 283.070312 269.171875 283.585938 269.238281 284.75 269.550781 C 288.5 270.46875 302.851562 277.140625 308.0625 280.082031 C 310.882812 281.714844 312.996094 283.148438 314.230469 284.515625 C 314.957031 285.34375 315.445312 285.984375 315.5 286.777344 C 315.625 287.789062 315.113281 289.292969 314.488281 290.046875 C 313.9375 290.65625 312.898438 290.988281 312.046875 291.085938 C 311.253906 291.136719 309.585938 290.285156 309.585938 290.285156 "/></clipPath></defs><g id="704673140e"><g clip-rule="nonzero" clip-path="url(#2485efd270)"><g clip-rule="nonzero" clip-path="url(#f9e866e090)"><path style=" stroke:none;fill-rule:nonzero;fill:currentColor;fill-opacity:1;" d="M 106.132812 113.621094 L 158.320312 113.621094 L 158.320312 244.296875 L 106.132812 244.296875 Z M 106.132812 113.621094 "/></g></g><g clip-rule="nonzero" clip-path="url(#c18a6e341c)"><g clip-rule="nonzero" clip-path="url(#41aae437ca)"><path style=" stroke:none;fill-rule:nonzero;fill:currentColor;fill-opacity:1;" d="M 105.472656 231.136719 L 165.808594 231.136719 L 165.808594 300.667969 L 105.472656 300.667969 Z M 105.472656 231.136719 "/></g></g><g clip-rule="nonzero" clip-path="url(#c4f7976a60)"><g clip-rule="nonzero" clip-path="url(#e073182848)"><path style=" stroke:none;fill-rule:nonzero;fill:currentColor;fill-opacity:1;" d="M 117.65625 123.457031 L 159.054688 123.457031 L 159.054688 264.3125 L 117.65625 264.3125 Z M 117.65625 123.457031 "/></g></g><g clip-rule="nonzero" clip-path="url(#8cf1ca3832)"><g clip-rule="nonzero" clip-path="url(#8c16b98f42)"><path style=" stroke:none;fill-rule:nonzero;fill:currentColor;fill-opacity:1;" d="M 117.65625 251.03125 L 164.738281 251.03125 L 164.738281 289.054688 L 117.65625 289.054688 Z M 117.65625 251.03125 "/></g></g><g clip-rule="nonzero" clip-path="url(#4668f7db4b)"><g clip-rule="nonzero" clip-path="url(#41a4d37c92)"><path style=" stroke:none;fill-rule:nonzero;fill:currentColor;fill-opacity:1;" d="M 156.707031 273.273438 L 217.472656 273.273438 L 217.472656 310.046875 L 156.707031 310.046875 Z M 156.707031 273.273438 "/></g></g><g clip-rule="nonzero" clip-path="url(#0e56acaf2a)"><g clip-rule="nonzero" clip-path="url(#2eaef46e9f)"><path style=" stroke:none;fill-rule:nonzero;fill:currentColor;fill-opacity:1;" d="M 204.347656 273.492188 L 218.878906 273.492188 L 218.878906 306.363281 L 204.347656 306.363281 Z M 204.347656 273.492188 "/></g></g><g clip-rule="nonzero" clip-path="url(#bd137ec016)"><g clip-rule="nonzero" clip-path="url(#4e03ab7184)"><path style=" stroke:none;fill-rule:nonzero;fill:currentColor;fill-opacity:1;" d="M 158.027344 271.4375 L 220.835938 271.4375 L 220.835938 285.308594 L 158.027344 285.308594 Z M 158.027344 271.4375 "/></g></g><g clip-rule="nonzero" clip-path="url(#d842f1a09e)"><g clip-rule="nonzero" clip-path="url(#33ac6cbc02)"><path style=" stroke:none;fill-rule:nonzero;fill:currentColor;fill-opacity:1;" d="M 142.980469 265.785156 L 170.402344 265.785156 L 170.402344 285.015625 L 142.980469 285.015625 Z M 142.980469 265.785156 "/></g></g><g clip-rule="nonzero" clip-path="url(#84213c7be6)"><g clip-rule="nonzero" clip-path="url(#91c15cbd8f)"><path style=" stroke:none;fill-rule:nonzero;fill:currentColor;fill-opacity:1;" d="M 200.894531 175.570312 L 236.71875 175.570312 L 236.71875 283.316406 L 200.894531 283.316406 Z M 200.894531 175.570312 "/></g></g><g clip-rule="nonzero" clip-path="url(#a3703542c2)"><g clip-rule="nonzero" clip-path="url(#87fe94b30c)"><path style=" stroke:none;fill-rule:nonzero;fill:currentColor;fill-opacity:1;" d="M 133.878906 176.453125 L 155.972656 176.453125 L 155.972656 276.136719 L 133.878906 276.136719 Z M 133.878906 176.453125 "/></g></g><g clip-rule="nonzero" clip-path="url(#bcd1aa7b2c)"><g clip-rule="nonzero" clip-path="url(#1a4c871a9e)"><path style=" stroke:none;fill-rule:nonzero;fill:currentColor;fill-opacity:1;" d="M 142.394531 169.554688 L 228.371094 169.554688 L 228.371094 191.28125 L 142.394531 191.28125 Z M 142.394531 169.554688 "/></g></g><g clip-rule="nonzero" clip-path="url(#49cc163076)"><g clip-rule="nonzero" clip-path="url(#c40323f657)"><path style=" stroke:none;fill-rule:nonzero;fill:currentColor;fill-opacity:1;" d="M 147.089844 152.007812 L 160.523438 152.007812 L 160.523438 181.65625 L 147.089844 181.65625 Z M 147.089844 152.007812 "/></g></g><g clip-rule="nonzero" clip-path="url(#8dce0ae962)"><g clip-rule="nonzero" clip-path="url(#5fb6770059)"><path style=" stroke:none;fill-rule:nonzero;fill:currentColor;fill-opacity:1;" d="M 208.164062 153.035156 L 222.550781 153.035156 L 222.550781 181.25 L 208.164062 181.25 Z M 208.164062 153.035156 "/></g></g><g clip-rule="nonzero" clip-path="url(#45799cfc9e)"><g clip-rule="nonzero" clip-path="url(#1ac0110a6e)"><path style=" stroke:none;fill-rule:nonzero;fill:currentColor;fill-opacity:1;" d="M 138.210938 103.5625 L 173.808594 103.5625 L 173.808594 160.996094 L 138.210938 160.996094 Z M 138.210938 103.5625 "/></g></g><g clip-rule="nonzero" clip-path="url(#9f7641554a)"><g clip-rule="nonzero" clip-path="url(#2045a613fe)"><path style=" stroke:none;fill-rule:nonzero;fill:currentColor;fill-opacity:1;" d="M 149.953125 143.863281 L 231.179688 143.863281 L 231.179688 162.800781 L 149.953125 162.800781 Z M 149.953125 143.863281 "/></g></g><g clip-rule="nonzero" clip-path="url(#c78f52477a)"><g clip-rule="nonzero" clip-path="url(#ed5cb5a8df)"><path style=" stroke:none;fill-rule:nonzero;fill:currentColor;fill-opacity:1;" d="M 158.027344 100.992188 L 231.222656 100.992188 L 231.222656 156.925781 L 158.027344 156.925781 Z M 158.027344 100.992188 "/></g></g><g clip-rule="nonzero" clip-path="url(#ebc69450ff)"><g clip-rule="nonzero" clip-path="url(#20f38f099b)"><path style=" stroke:none;fill-rule:nonzero;fill:currentColor;fill-opacity:1;" d="M 161.917969 93.433594 L 175.644531 93.433594 L 175.644531 112.199219 L 161.917969 112.199219 Z M 161.917969 93.433594 "/></g></g><g clip-rule="nonzero" clip-path="url(#d40b6e400b)"><g clip-rule="nonzero" clip-path="url(#2f8b76c64b)"><path style=" stroke:none;fill-rule:nonzero;fill:currentColor;fill-opacity:1;" d="M 193.261719 93.433594 L 206.476562 93.433594 L 206.476562 111.34375 L 193.261719 111.34375 Z M 193.261719 93.433594 "/></g></g><g clip-rule="nonzero" clip-path="url(#1547f227c8)"><g clip-rule="nonzero" clip-path="url(#125ce479eb)"><path style=" stroke:none;fill-rule:nonzero;fill:currentColor;fill-opacity:1;" d="M 149.734375 88.441406 L 219.234375 88.441406 L 219.234375 103.050781 L 149.734375 103.050781 Z M 149.734375 88.441406 "/></g></g><g clip-rule="nonzero" clip-path="url(#9ec0ab5dd7)"><g clip-rule="nonzero" clip-path="url(#dc61b4e699)"><path style=" stroke:none;fill-rule:nonzero;fill:currentColor;fill-opacity:1;" d="M 149.878906 75.890625 L 220.230469 75.890625 L 220.230469 101.65625 L 149.878906 101.65625 Z M 149.878906 75.890625 "/></g></g><g clip-rule="nonzero" clip-path="url(#e8ca3e49d2)"><g clip-rule="nonzero" clip-path="url(#51080910e5)"><path style=" stroke:none;fill-rule:nonzero;fill:currentColor;fill-opacity:1;" d="M 169.625 46.894531 L 199.648438 46.894531 L 199.648438 85.597656 L 169.625 85.597656 Z M 169.625 46.894531 "/></g></g><g clip-rule="nonzero" clip-path="url(#2b92f7d40b)"><g clip-rule="nonzero" clip-path="url(#419086ba2c)"><path style=" stroke:none;fill-rule:nonzero;fill:currentColor;fill-opacity:1;" d="M 209.042969 108.335938 L 265.199219 108.335938 L 265.199219 202.65625 L 209.042969 202.65625 Z M 209.042969 108.335938 "/></g></g><g clip-rule="nonzero" clip-path="url(#c6a5f721d7)"><g clip-rule="nonzero" clip-path="url(#d8c20efd55)"><path style=" stroke:none;fill-rule:nonzero;fill:currentColor;fill-opacity:1;" d="M 206.839844 188.929688 L 268.132812 188.929688 L 268.132812 297.148438 L 206.839844 297.148438 Z M 206.839844 188.929688 "/></g></g><g clip-rule="nonzero" clip-path="url(#5056e3a011)"><g clip-rule="nonzero" clip-path="url(#ccf38c4104)"><path style=" stroke:none;fill-rule:nonzero;fill:currentColor;fill-opacity:1;" d="M 213.007812 190.691406 L 254.554688 190.691406 L 254.554688 286.445312 L 213.007812 286.445312 Z M 213.007812 190.691406 "/></g></g><g clip-rule="nonzero" clip-path="url(#1740c83dd7)"><g clip-rule="nonzero" clip-path="url(#f04a0dffc2)"><path style=" stroke:none;fill-rule:nonzero;fill:currentColor;fill-opacity:1;" d="M 209.632812 119.859375 L 252.9375 119.859375 L 252.9375 209.179688 L 209.632812 209.179688 Z M 209.632812 119.859375 "/></g></g><g clip-rule="nonzero" clip-path="url(#e870da2405)"><g clip-rule="nonzero" clip-path="url(#fce0167164)"><path style=" stroke:none;fill-rule:nonzero;fill:currentColor;fill-opacity:1;" d="M 208.601562 120.59375 L 227.90625 120.59375 L 227.90625 133.804688 L 208.601562 133.804688 Z M 208.601562 120.59375 "/></g></g><g clip-rule="nonzero" clip-path="url(#0f66a926ea)"><g clip-rule="nonzero" clip-path="url(#a71d2643f4)"><path style=" stroke:none;fill-rule:nonzero;fill:currentColor;fill-opacity:1;" d="M 139.089844 284.648438 L 237.542969 284.648438 L 237.542969 328.105469 L 139.089844 328.105469 Z M 139.089844 284.648438 "/></g></g><g clip-rule="nonzero" clip-path="url(#77fda8460e)"><g clip-rule="nonzero" clip-path="url(#d17150cdd6)"><path style=" stroke:none;fill-rule:nonzero;fill:currentColor;fill-opacity:1;" d="M 179.09375 246.554688 L 192.308594 246.554688 L 192.308594 277.984375 L 179.09375 277.984375 Z M 179.09375 246.554688 "/></g></g><g clip-rule="nonzero" clip-path="url(#aebd5548c7)"><g clip-rule="nonzero" clip-path="url(#86c6c6e8c2)"><path style=" stroke:none;fill-rule:nonzero;fill:currentColor;fill-opacity:1;" d="M 168.230469 191.867188 L 202.144531 191.867188 L 202.144531 280.226562 L 168.230469 280.226562 Z M 168.230469 191.867188 "/></g></g><g clip-rule="nonzero" clip-path="url(#719ea72c55)"><g clip-rule="nonzero" clip-path="url(#7a1eb026de)"><path style=" stroke:none;fill-rule:nonzero;fill:currentColor;fill-opacity:1;" d="M 176.746094 229.007812 L 194.65625 229.007812 L 194.65625 253.214844 L 176.746094 253.214844 Z M 176.746094 229.007812 "/></g></g><g clip-rule="nonzero" clip-path="url(#a49a182be9)"><g clip-rule="nonzero" clip-path="url(#094564b351)"><g clip-rule="nonzero" clip-path="url(#29a13b135f)"><path style=" stroke:none;fill-rule:nonzero;fill:currentColor;fill-opacity:1;" d="M 285.65625 128.410156 L 331.582031 139.410156 L 321.632812 180.957031 L 275.707031 169.957031 Z M 285.65625 128.410156 "/></g></g></g><g clip-rule="nonzero" clip-path="url(#0460ef4eb8)"><g clip-rule="nonzero" clip-path="url(#3c47f266e4)"><path style=" stroke:none;fill-rule:nonzero;fill:currentColor;fill-opacity:1;" d="M 279.292969 185.554688 L 337.53125 185.554688 L 337.53125 205.59375 L 279.292969 205.59375 Z M 279.292969 185.554688 "/></g></g><g clip-rule="nonzero" clip-path="url(#6675d4a7bd)"><g clip-rule="nonzero" clip-path="url(#3cf1128e4e)"><path style=" stroke:none;fill-rule:nonzero;fill:currentColor;fill-opacity:1;" d="M 274.152344 230.917969 L 335.019531 230.917969 L 335.019531 244.351562 L 274.152344 244.351562 Z M 274.152344 230.917969 "/></g></g><g clip-rule="nonzero" clip-path="url(#e3004de451)"><g clip-rule="nonzero" clip-path="url(#61164bf900)"><path style=" stroke:none;fill-rule:nonzero;fill:currentColor;fill-opacity:1;" d="M 54.164062 275.914062 L 96.253906 275.914062 L 96.253906 302.851562 L 54.164062 302.851562 Z M 54.164062 275.914062 "/></g></g><g clip-rule="nonzero" clip-path="url(#2c6f039662)"><g clip-rule="nonzero" clip-path="url(#24bc8d70c9)"><path style=" stroke:none;fill-rule:nonzero;fill:currentColor;fill-opacity:1;" d="M 42.269531 233.414062 L 94.441406 233.414062 L 94.441406 250.148438 L 42.269531 250.148438 Z M 42.269531 233.414062 "/></g></g><g clip-rule="nonzero" clip-path="url(#e49c8f591e)"><g clip-rule="nonzero" clip-path="url(#00f5e4fd9a)"><path style=" stroke:none;fill-rule:nonzero;fill:currentColor;fill-opacity:1;" d="M 37.5 187.574219 L 95.09375 187.574219 L 95.09375 205.335938 L 37.5 205.335938 Z M 37.5 187.574219 "/></g></g><g clip-rule="nonzero" clip-path="url(#5c2e0d75ac)"><g clip-rule="nonzero" clip-path="url(#671b9ff450)"><path style=" stroke:none;fill-rule:nonzero;fill:currentColor;fill-opacity:1;" d="M 45.207031 136.265625 L 98.070312 136.265625 L 98.070312 173.039062 L 45.207031 173.039062 Z M 45.207031 136.265625 "/></g></g><g clip-rule="nonzero" clip-path="url(#81817f50d6)"><g clip-rule="nonzero" clip-path="url(#eab5e9eb29)"><g clip-rule="nonzero" clip-path="url(#7f0d304f50)"><path style=" stroke:none;fill-rule:nonzero;fill:currentColor;fill-opacity:1;" d="M 299.71875 305.050781 L 274.136719 271.625 L 295.527344 255.25 L 321.109375 288.675781 Z M 299.71875 305.050781 "/></g></g></g></g></svg>