<svg xmlns="http://www.w3.org/2000/svg" xmlns:xlink="http://www.w3.org/1999/xlink" width="500" zoomAndPan="magnify" viewBox="0 0 375 374.999991" height="500" preserveAspectRatio="xMidYMid meet" version="1.2"><defs><clipPath id="b14b3e0627"><path d="M 116.519531 66 L 186.941406 66 L 186.941406 197.847656 L 116.519531 197.847656 Z M 116.519531 66 "/></clipPath><clipPath id="fb669f5424"><path d="M 124.699219 69.910156 C 125.699219 91.234375 127.625 99.625 129.085938 105.398438 C 130.164062 109.863281 130.855469 112.480469 132.394531 117.023438 C 134.628906 123.488281 137.785156 133.113281 141.558594 140.425781 C 145.253906 147.429688 150.796875 155.746094 154.722656 160.054688 C 157.03125 162.597656 158.492188 163.367188 161.265625 165.367188 C 165.574219 168.371094 174.351562 172.679688 178.433594 176.066406 C 181.050781 178.300781 182.972656 180.53125 184.207031 182.535156 C 185.050781 183.84375 185.359375 184.921875 185.746094 186.230469 C 186.054688 187.460938 186.515625 189.308594 186.285156 190.078125 C 186.128906 190.539062 185.4375 190.617188 185.4375 190.925781 C 185.359375 191.464844 186.515625 192.3125 186.667969 193.082031 C 186.898438 193.773438 186.824219 194.773438 186.4375 195.46875 C 185.976562 196.390625 184.667969 197.546875 183.589844 197.699219 C 182.589844 197.855469 180.894531 197.316406 180.203125 196.546875 C 179.433594 195.851562 178.96875 194.160156 179.203125 193.082031 C 179.433594 192.082031 180.511719 190.773438 181.511719 190.308594 C 182.511719 189.925781 184.207031 190.078125 185.050781 190.695312 C 185.976562 191.3125 186.746094 192.851562 186.824219 193.851562 C 186.898438 194.699219 186.515625 195.621094 186.054688 196.238281 C 185.589844 196.851562 184.820312 197.46875 184.050781 197.625 C 183.050781 197.777344 181.433594 197.777344 180.511719 196.851562 C 178.816406 195.3125 179.355469 188.925781 177.660156 186.152344 C 176.277344 183.84375 174.429688 182.765625 172.042969 180.917969 C 168.347656 178.148438 161.265625 174.683594 157.414062 172.066406 C 154.644531 170.140625 153.105469 169.371094 150.640625 166.832031 C 146.484375 162.597656 140.480469 154.589844 136.398438 147.277344 C 131.933594 139.347656 127.929688 127.722656 125.46875 120.5625 C 123.773438 115.945312 123.082031 113.480469 121.925781 108.863281 C 120.308594 102.320312 117.847656 92.15625 117.230469 84.84375 C 116.691406 78.761719 116.230469 70.757812 117.460938 68.140625 C 117.921875 67.0625 118.695312 66.597656 119.464844 66.292969 C 120.308594 65.984375 121.464844 66.058594 122.234375 66.292969 C 122.851562 66.523438 123.3125 66.832031 123.699219 67.367188 C 124.234375 67.984375 124.699219 69.910156 124.699219 69.910156 "/></clipPath><clipPath id="81a219d137"><path d="M 117.179688 190 L 186.871094 190 L 186.871094 309.84375 L 117.179688 309.84375 Z M 117.179688 190 "/></clipPath><clipPath id="f7bba63f7d"><path d="M 186.359375 195.777344 C 182.511719 202.011719 181.972656 202.703125 180.203125 204.242188 C 175.660156 208.402344 160.800781 218.101562 153.796875 224.796875 C 148.410156 229.878906 144.558594 233.957031 140.863281 239.808594 C 136.628906 246.507812 133.242188 253.898438 130.625 263.058594 C 127.160156 275.296875 127.625 302.011719 124.621094 307.324219 C 123.773438 308.785156 122.773438 309.246094 121.851562 309.554688 C 121.003906 309.785156 120.078125 309.554688 119.386719 309.171875 C 118.695312 308.863281 118 308.167969 117.617188 307.398438 C 117.308594 306.707031 117.078125 305.785156 117.308594 305.011719 C 117.617188 304.011719 118.617188 302.628906 119.617188 302.164062 C 120.617188 301.78125 122.3125 301.933594 123.234375 302.550781 C 124.082031 303.089844 124.929688 304.628906 124.929688 305.707031 C 125.007812 306.707031 124.234375 308.246094 123.3125 308.863281 C 122.464844 309.476562 120.695312 309.632812 119.769531 309.324219 C 119 309.09375 118.230469 308.476562 117.847656 307.785156 C 117.460938 307.167969 117.382812 306.707031 117.308594 305.398438 C 117 300.394531 120.695312 275.761719 122.003906 267.832031 C 122.621094 264.136719 122.621094 263.058594 123.621094 259.746094 C 125.46875 254.050781 129.546875 243.734375 133.703125 236.960938 C 137.632812 230.648438 141.632812 225.796875 147.484375 220.101562 C 155.105469 212.710938 171.425781 203.164062 176.585938 197.46875 C 178.96875 194.773438 179.355469 191.773438 180.816406 190.695312 C 181.664062 190.078125 182.664062 190 183.433594 190.078125 C 184.128906 190.15625 184.667969 190.386719 185.207031 190.773438 C 185.820312 191.234375 186.515625 192.234375 186.667969 193.003906 C 186.898438 193.851562 186.359375 195.777344 186.359375 195.777344 "/></clipPath><clipPath id="3c647e852c"><path d="M 229.5625 67.230469 L 261.179688 67.230469 L 261.179688 159.28125 L 229.5625 159.28125 Z M 229.5625 67.230469 "/></clipPath><clipPath id="1418dbc3cf"><path d="M 261.109375 71.140625 C 260.1875 92.773438 259.492188 102.089844 257.570312 110.480469 C 255.492188 119.5625 251.71875 130.570312 248.410156 138.039062 C 246.023438 143.503906 243.25 147.96875 240.789062 151.742188 C 238.941406 154.4375 237.09375 157.515625 235.550781 158.59375 C 234.707031 159.132812 233.9375 159.210938 233.167969 159.132812 C 232.394531 159.054688 231.472656 158.59375 230.933594 158.054688 C 230.316406 157.515625 229.855469 156.667969 229.703125 155.898438 C 229.625 155.128906 229.703125 154.207031 230.085938 153.511719 C 230.625 152.664062 232.011719 151.585938 233.089844 151.433594 C 234.167969 151.355469 235.707031 152.050781 236.476562 152.742188 C 237.015625 153.359375 237.398438 154.207031 237.398438 155.050781 C 237.324219 156.050781 236.707031 157.667969 235.859375 158.363281 C 235.011719 158.976562 233.320312 159.132812 232.320312 158.902344 C 231.550781 158.746094 230.78125 158.054688 230.394531 157.4375 C 229.933594 156.824219 229.546875 156.207031 229.703125 155.050781 C 230.085938 151.820312 237.398438 143.582031 240.480469 137.039062 C 243.789062 130.03125 246.714844 121.101562 248.640625 114.097656 C 250.257812 108.324219 250.949219 104.089844 251.71875 97.929688 C 252.71875 90 252.105469 74.296875 253.488281 70.21875 C 253.953125 68.984375 254.335938 68.523438 255.105469 67.984375 C 255.800781 67.523438 256.875 67.214844 257.722656 67.367188 C 258.570312 67.445312 259.570312 67.984375 260.109375 68.601562 C 260.726562 69.292969 261.109375 71.140625 261.109375 71.140625 "/></clipPath><clipPath id="ca00d447c1"><path d="M 191 148.316406 L 240.378906 148.316406 L 240.378906 212.53125 L 191 212.53125 Z M 191 148.316406 "/></clipPath><clipPath id="04cf522659"><path d="M 239.171875 155.050781 C 218.617188 176.53125 208.378906 181.226562 204.066406 185.230469 C 201.679688 187.460938 199.523438 189.464844 199.292969 191.3125 C 199.140625 192.773438 200.292969 194.160156 201.066406 195.390625 C 201.757812 196.546875 202.527344 197.160156 203.757812 198.394531 C 206.066406 200.546875 212.917969 204.78125 214.152344 206.9375 C 214.691406 207.9375 214.613281 208.632812 214.535156 209.402344 C 214.382812 210.171875 213.921875 211.019531 213.304688 211.558594 C 212.535156 212.171875 210.765625 212.558594 209.761719 212.402344 C 208.992188 212.328125 208.222656 211.710938 207.761719 211.09375 C 207.222656 210.480469 206.839844 209.632812 206.839844 208.785156 C 206.914062 207.785156 207.683594 206.246094 208.453125 205.550781 C 209.070312 205.011719 210.070312 204.78125 210.839844 204.859375 C 211.609375 204.859375 212.535156 205.167969 213.152344 205.707031 C 213.765625 206.167969 214.226562 207.015625 214.460938 207.785156 C 214.613281 208.476562 214.535156 209.476562 214.226562 210.171875 C 213.921875 210.941406 213.382812 211.710938 212.613281 212.019531 C 211.6875 212.480469 210.535156 212.632812 208.992188 212.171875 C 205.375 210.863281 195.367188 202.089844 192.828125 198.46875 C 191.59375 196.777344 191.363281 195.542969 191.132812 194.082031 C 190.980469 192.773438 191.058594 191.386719 191.441406 190.15625 C 191.75 188.925781 192.289062 187.847656 193.058594 186.539062 C 194.214844 184.691406 195.675781 182.613281 198.214844 180.300781 C 202.605469 176.300781 212.613281 171.527344 218.769531 166.214844 C 224.699219 161.132812 231.164062 150.894531 234.476562 149.046875 C 235.628906 148.429688 236.324219 148.429688 237.167969 148.585938 C 238.015625 148.738281 238.941406 149.277344 239.480469 149.972656 C 240.015625 150.664062 240.324219 151.742188 240.324219 152.589844 C 240.25 153.433594 239.171875 155.050781 239.171875 155.050781 "/></clipPath><clipPath id="a3061242b8"><path d="M 202.320312 202.347656 L 256.15625 202.347656 L 256.15625 273.425781 L 202.320312 273.425781 Z M 202.320312 202.347656 "/></clipPath><clipPath id="83a4580fc5"><path d="M 208.378906 202.859375 C 236.9375 226.105469 239.941406 230.109375 242.867188 234.265625 C 245.40625 237.886719 247.5625 241.273438 249.101562 245.121094 C 250.5625 248.894531 250.796875 253.050781 251.871094 257.054688 C 253.027344 261.132812 256.261719 266.675781 256.03125 269.449219 C 255.953125 270.910156 255.183594 272.066406 254.414062 272.679688 C 253.71875 273.21875 252.796875 273.375 252.027344 273.375 C 251.257812 273.296875 250.332031 272.988281 249.71875 272.449219 C 249.101562 271.988281 248.640625 271.140625 248.410156 270.371094 C 248.253906 269.601562 248.253906 268.679688 248.714844 267.90625 C 249.179688 267.0625 250.488281 265.90625 251.566406 265.753906 C 252.566406 265.523438 254.183594 266.214844 254.953125 266.832031 C 255.566406 267.367188 255.953125 268.214844 256.03125 269.0625 C 256.03125 270.0625 255.414062 271.679688 254.722656 272.449219 C 254.105469 272.988281 253.179688 273.296875 252.410156 273.375 C 251.640625 273.375 250.796875 273.375 250.023438 272.679688 C 248.640625 271.527344 247.40625 267.984375 246.328125 264.75 C 244.714844 260.441406 244.25 253.898438 242.171875 248.894531 C 240.171875 243.890625 237.015625 238.808594 233.9375 234.730469 C 231.320312 231.265625 229.007812 229.03125 225.3125 225.644531 C 219.769531 220.640625 205.296875 211.710938 203.144531 208.167969 C 202.449219 207.09375 202.449219 206.320312 202.605469 205.476562 C 202.757812 204.628906 203.375 203.628906 203.988281 203.164062 C 204.453125 202.703125 204.992188 202.472656 205.683594 202.394531 C 206.453125 202.242188 208.378906 202.859375 208.378906 202.859375 "/></clipPath><clipPath id="cc454f4d66"><path d="M 247.71875 262.058594 L 262 262.058594 L 262 309.90625 L 247.71875 309.90625 Z M 247.71875 262.058594 "/></clipPath><clipPath id="0d3f977afa"><path d="M 255.492188 265.828125 C 262.035156 300.394531 262.1875 303.859375 261.878906 306.015625 C 261.726562 307.09375 261.574219 307.707031 261.109375 308.324219 C 260.570312 308.941406 259.800781 309.476562 259.03125 309.710938 C 258.261719 309.941406 257.339844 309.863281 256.570312 309.554688 C 255.875 309.246094 255.105469 308.632812 254.722656 308.015625 C 254.335938 307.324219 254.027344 306.398438 254.183594 305.550781 C 254.414062 304.628906 255.335938 303.164062 256.183594 302.628906 C 256.875 302.164062 257.878906 302.089844 258.648438 302.164062 C 259.417969 302.320312 260.265625 302.78125 260.800781 303.320312 C 261.339844 303.9375 261.726562 304.78125 261.804688 305.550781 C 261.957031 306.320312 261.804688 307.324219 261.339844 308.015625 C 260.726562 308.785156 259.1875 309.710938 258.183594 309.863281 C 257.414062 309.941406 256.492188 309.632812 255.875 309.171875 C 255.183594 308.707031 254.722656 308.246094 254.335938 307.246094 C 253.644531 305.167969 254.414062 300.933594 253.796875 296.699219 C 252.949219 290.308594 249.253906 278.300781 248.410156 272.757812 C 247.945312 269.832031 247.640625 267.753906 247.792969 266.058594 C 247.945312 264.984375 248.175781 264.136719 248.714844 263.519531 C 249.253906 262.828125 250.257812 262.289062 251.101562 262.132812 C 251.949219 261.980469 253.027344 262.210938 253.71875 262.671875 C 254.566406 263.289062 255.492188 265.828125 255.492188 265.828125 "/></clipPath><clipPath id="232b5c7dac"><path d="M 105.769531 41.683594 L 172.8125 41.683594 L 172.8125 70.824219 L 105.769531 70.824219 Z M 105.769531 41.683594 "/></clipPath><clipPath id="234a7f7c21"><path d="M 124.082031 70.757812 C 112.535156 69.449219 111.457031 68.753906 110.378906 67.90625 C 109.300781 66.984375 108.453125 65.828125 107.683594 64.675781 C 106.992188 63.597656 106.300781 62.367188 105.992188 61.132812 C 105.683594 59.902344 105.835938 58.59375 105.835938 57.207031 C 105.914062 55.820312 105.761719 53.972656 106.300781 52.664062 C 106.839844 51.433594 107.683594 50.585938 108.839844 49.585938 C 110.535156 48.199219 113.382812 46.582031 115.84375 45.582031 C 118.230469 44.582031 120.847656 43.964844 123.390625 43.425781 C 126.007812 42.890625 128.164062 42.503906 131.472656 42.273438 C 136.628906 41.8125 144.945312 41.734375 151.488281 41.886719 C 157.878906 42.042969 167.039062 41.65625 170.195312 43.195312 C 171.582031 43.8125 172.351562 44.8125 172.65625 45.8125 C 172.890625 46.816406 172.503906 48.507812 171.8125 49.355469 C 171.117188 50.125 169.5 50.742188 168.425781 50.585938 C 167.421875 50.511719 165.960938 49.507812 165.5 48.507812 C 165.035156 47.585938 165.035156 45.890625 165.574219 44.96875 C 166.039062 44.042969 167.578125 43.121094 168.578125 42.964844 C 169.347656 42.8125 170.273438 43.121094 170.964844 43.503906 C 171.582031 43.964844 172.195312 44.660156 172.503906 45.429688 C 172.8125 46.121094 172.890625 47.121094 172.582031 47.894531 C 172.273438 48.816406 171.582031 49.816406 170.117188 50.433594 C 165.652344 52.28125 146.175781 49.585938 139.246094 49.585938 C 135.707031 49.664062 134.167969 49.585938 131.242188 49.972656 C 127.625 50.355469 122.386719 50.894531 119.230469 52.511719 C 116.769531 53.742188 113.996094 55.976562 113.535156 57.746094 C 113.226562 58.976562 113.996094 60.519531 114.765625 61.441406 C 115.539062 62.289062 116.921875 62.75 118.308594 63.058594 C 120.15625 63.441406 123.390625 62.671875 125.007812 63.136719 C 126.007812 63.519531 126.777344 63.980469 127.238281 64.675781 C 127.777344 65.597656 128.007812 67.292969 127.699219 68.292969 C 127.390625 69.140625 126.546875 69.910156 125.851562 70.292969 C 125.3125 70.601562 124.082031 70.757812 124.082031 70.757812 "/></clipPath><clipPath id="7b84e784cd"><path d="M 161.328125 40.488281 L 273.71875 40.488281 L 273.71875 56.289062 L 161.328125 56.289062 Z M 161.328125 40.488281 "/></clipPath><clipPath id="42cc9b1337"><path d="M 165.191406 42.964844 C 225.46875 40.425781 228.394531 40.347656 234.398438 40.578125 C 242.480469 40.808594 256.335938 40.886719 262.726562 42.582031 C 266.269531 43.503906 268.730469 44.660156 270.578125 46.351562 C 272.121094 47.894531 273.503906 50.355469 273.660156 51.972656 C 273.734375 53.203125 272.964844 54.667969 272.273438 55.359375 C 271.734375 55.898438 270.808594 56.285156 269.964844 56.207031 C 269.039062 56.207031 267.421875 55.4375 266.730469 54.742188 C 266.191406 54.128906 265.882812 53.203125 265.960938 52.359375 C 266.039062 51.355469 266.882812 49.816406 267.652344 49.203125 C 268.347656 48.664062 269.269531 48.507812 270.039062 48.585938 C 270.808594 48.585938 271.734375 48.96875 272.351562 49.507812 C 272.890625 49.972656 273.503906 50.742188 273.582031 51.585938 C 273.734375 52.589844 273.195312 54.28125 272.582031 55.050781 C 272.042969 55.667969 271.273438 56.128906 270.425781 56.207031 C 269.425781 56.285156 267.730469 55.667969 267.039062 55.050781 C 266.421875 54.4375 266.5 53.433594 265.960938 52.820312 C 265.421875 52.125 264.730469 51.511719 263.804688 51.050781 C 262.726562 50.511719 261.648438 50.277344 259.726562 49.972656 C 255.027344 49.125 242.867188 48.507812 235.550781 48.277344 C 229.625 48.046875 226.316406 48.046875 219.308594 48.199219 C 206.375 48.429688 170.425781 52.28125 164.265625 50.511719 C 162.957031 50.125 162.574219 49.664062 162.035156 48.96875 C 161.574219 48.277344 161.265625 47.199219 161.417969 46.351562 C 161.496094 45.507812 162.035156 44.503906 162.648438 43.890625 C 163.34375 43.351562 165.191406 42.964844 165.191406 42.964844 "/></clipPath><clipPath id="61097d58fa"><path d="M 173.8125 48.699219 L 273.695312 48.699219 L 273.695312 72.605469 L 173.8125 72.605469 Z M 173.8125 48.699219 "/></clipPath><clipPath id="000aa68f0f"><path d="M 273.660156 52.359375 C 273.042969 63.980469 272.042969 64.445312 270.886719 65.367188 C 269.117188 66.753906 265.882812 68.753906 263.804688 69.601562 C 262.265625 70.292969 261.417969 70.371094 259.726562 70.679688 C 256.722656 71.296875 252.875 71.757812 247.253906 72.066406 C 235.859375 72.757812 207.914062 72.605469 195.136719 72.296875 C 187.746094 72.066406 180.816406 72.066406 177.585938 71.371094 C 176.351562 71.0625 175.660156 70.910156 175.042969 70.371094 C 174.429688 69.753906 173.964844 68.753906 173.890625 67.90625 C 173.8125 67.0625 174.042969 65.984375 174.582031 65.289062 C 175.199219 64.445312 176.738281 63.597656 177.816406 63.675781 C 178.894531 63.75 180.433594 64.75 181.050781 65.597656 C 181.511719 66.292969 181.589844 67.214844 181.511719 67.984375 C 181.433594 68.753906 181.050781 69.679688 180.433594 70.21875 C 179.664062 70.910156 177.96875 71.371094 176.96875 71.296875 C 176.199219 71.21875 175.351562 70.679688 174.8125 70.140625 C 174.351562 69.523438 173.890625 68.679688 173.890625 67.832031 C 173.890625 66.832031 174.503906 65.214844 175.277344 64.519531 C 175.890625 63.980469 176.816406 63.675781 177.585938 63.675781 C 178.355469 63.675781 179.277344 63.828125 179.894531 64.367188 C 180.664062 65.058594 181.589844 66.523438 181.511719 67.601562 C 181.511719 68.679688 180.664062 70.140625 179.816406 70.757812 C 178.894531 71.296875 176.199219 70.910156 176.199219 71.0625 C 176.199219 71.140625 177.585938 71.449219 177.585938 71.371094 C 177.585938 71.296875 175.660156 70.910156 175.042969 70.371094 C 174.429688 69.753906 173.964844 68.753906 173.890625 67.90625 C 173.8125 67.0625 174.042969 65.984375 174.582031 65.289062 C 175.042969 64.597656 175.660156 64.058594 176.890625 63.75 C 179.972656 62.902344 187.515625 64.445312 195.136719 64.597656 C 207.992188 64.828125 235.628906 65.136719 247.023438 64.445312 C 252.644531 64.136719 256.105469 64.367188 259.570312 63.058594 C 262.34375 62.058594 265.574219 60.441406 266.578125 58.363281 C 267.421875 56.589844 265.652344 53.359375 266.039062 51.820312 C 266.269531 50.742188 266.730469 49.972656 267.5 49.507812 C 268.347656 48.894531 270.039062 48.585938 270.964844 48.894531 C 271.886719 49.125 272.65625 49.972656 273.121094 50.585938 C 273.503906 51.125 273.660156 52.359375 273.660156 52.359375 "/></clipPath><clipPath id="672d6d8c13"><path d="M 116.527344 62.554688 L 185.078125 62.554688 L 185.078125 71.710938 L 116.527344 71.710938 Z M 116.527344 62.554688 "/></clipPath><clipPath id="34f3e75f16"><path d="M 181.203125 71.371094 C 132.394531 71.835938 127.699219 71.910156 125.777344 70.527344 C 124.699219 69.753906 124.851562 67.445312 124.3125 67.445312 C 123.695312 67.367188 123.234375 69.910156 122.386719 70.527344 C 121.695312 70.988281 120.773438 71.140625 120.003906 70.988281 C 119 70.832031 117.539062 69.910156 117 68.910156 C 116.539062 67.984375 116.539062 66.292969 117.078125 65.367188 C 117.539062 64.445312 119 63.441406 120.078125 63.367188 C 121.15625 63.210938 122.695312 63.90625 123.390625 64.75 C 124.082031 65.523438 124.46875 67.214844 124.160156 68.214844 C 123.851562 69.292969 122.621094 70.527344 121.617188 70.832031 C 120.617188 71.140625 118.925781 70.832031 118.078125 70.21875 C 117.230469 69.601562 116.230469 67.90625 116.613281 66.90625 C 117.152344 65.367188 121.3125 63.441406 124.542969 62.828125 C 129.007812 61.902344 134.476562 64.210938 141.328125 64.519531 C 151.949219 64.90625 177.046875 62.210938 182.125 63.75 C 183.433594 64.210938 183.898438 64.675781 184.359375 65.367188 C 184.820312 66.058594 185.128906 67.136719 185.050781 67.984375 C 184.898438 68.832031 184.359375 69.832031 183.742188 70.371094 C 183.128906 70.988281 181.203125 71.371094 181.203125 71.371094 "/></clipPath><clipPath id="081a880603"><path d="M 104 306.757812 L 194.648438 306.757812 L 194.648438 334.753906 L 104 334.753906 Z M 104 306.757812 "/></clipPath><clipPath id="9a2f08f258"><path d="M 122.386719 314.480469 C 114.074219 315.867188 112.382812 316.5625 111.996094 317.5625 C 111.535156 318.640625 112.304688 320.5625 112.996094 321.796875 C 113.613281 322.875 114.226562 323.796875 115.921875 324.566406 C 120.078125 326.414062 131.472656 326.261719 141.328125 326.644531 C 155.027344 327.105469 184.820312 325.027344 190.671875 325.953125 C 191.980469 326.183594 192.367188 326.183594 192.980469 326.722656 C 193.75 327.414062 194.445312 329.03125 194.519531 330.03125 C 194.519531 330.800781 194.136719 331.726562 193.597656 332.265625 C 192.90625 333.035156 191.210938 333.652344 190.210938 333.652344 C 189.441406 333.574219 188.59375 333.1875 187.976562 332.574219 C 187.363281 331.878906 186.746094 330.1875 186.824219 329.1875 C 186.898438 328.339844 187.363281 327.492188 187.976562 327.03125 C 188.746094 326.414062 190.519531 325.875 191.519531 326.03125 C 192.289062 326.183594 193.058594 326.722656 193.597656 327.339844 C 194.058594 327.878906 194.445312 328.800781 194.519531 329.570312 C 194.519531 330.339844 194.367188 331.339844 193.828125 331.957031 C 193.210938 332.726562 192.441406 333.1875 190.671875 333.652344 C 184.128906 335.34375 153.179688 334.421875 142.480469 334.34375 C 137.167969 334.265625 134.78125 334.265625 130.472656 333.957031 C 125.46875 333.574219 117.691406 332.804688 114.226562 331.957031 C 112.535156 331.496094 111.765625 331.339844 110.535156 330.417969 C 108.6875 329.109375 106.066406 326.105469 105.066406 324.105469 C 104.296875 322.71875 104.222656 321.410156 104.066406 320.101562 C 103.988281 318.792969 103.988281 317.40625 104.375 316.097656 C 104.835938 314.714844 105.761719 313.25 106.839844 312.097656 C 107.839844 311.019531 108.917969 310.25 110.457031 309.476562 C 112.613281 308.476562 116.382812 307.398438 118.769531 307.09375 C 120.617188 306.859375 122.386719 306.628906 123.542969 307.09375 C 124.390625 307.476562 125.160156 308.167969 125.542969 309.015625 C 125.929688 309.941406 125.929688 311.632812 125.390625 312.558594 C 124.851562 313.480469 122.386719 314.480469 122.386719 314.480469 "/></clipPath><clipPath id="b56b4e716e"><path d="M 183.183594 306.605469 L 275.59375 306.605469 L 275.59375 334.730469 L 183.183594 334.730469 Z M 183.183594 306.605469 "/></clipPath><clipPath id="d963d2ef62"><path d="M 187.128906 326.414062 C 267.191406 324.566406 267.960938 323.414062 267.808594 322.257812 C 267.652344 320.640625 263.574219 318.023438 261.804688 316.714844 C 260.496094 315.714844 259.957031 315.175781 258.183594 314.714844 C 254.027344 313.636719 239.863281 315.714844 236.628906 314.636719 C 235.476562 314.25 235.089844 313.789062 234.628906 313.097656 C 234.242188 312.480469 233.859375 311.558594 234.011719 310.789062 C 234.089844 309.785156 235.011719 308.246094 235.859375 307.707031 C 236.554688 307.167969 237.476562 307.015625 238.246094 307.167969 C 239.246094 307.324219 240.710938 308.246094 241.25 309.171875 C 241.710938 310.09375 241.710938 311.863281 241.25 312.789062 C 240.710938 313.710938 239.246094 314.636719 238.246094 314.789062 C 237.476562 314.945312 236.476562 314.636719 235.859375 314.25 C 235.167969 313.867188 234.476562 313.171875 234.242188 312.402344 C 233.9375 311.480469 234.167969 309.710938 234.628906 308.785156 C 235.089844 308.09375 235.476562 307.707031 236.628906 307.324219 C 239.785156 306.246094 253.179688 306.859375 257.339844 307.09375 C 259.1875 307.246094 259.957031 307.324219 261.265625 307.707031 C 262.648438 308.09375 263.882812 308.632812 265.421875 309.710938 C 267.886719 311.480469 272.582031 315.789062 274.199219 318.253906 C 275.121094 319.71875 275.351562 320.949219 275.507812 322.257812 C 275.660156 323.566406 275.507812 324.953125 275.121094 326.183594 C 274.8125 327.339844 274.199219 328.648438 273.351562 329.648438 C 272.351562 330.726562 270.886719 331.648438 269.5 332.265625 C 268.269531 332.804688 267.421875 332.882812 265.574219 333.1875 C 261.496094 333.726562 253.953125 333.726562 245.558594 333.957031 C 231.164062 334.191406 193.828125 335.265625 187.128906 334.113281 C 185.667969 333.804688 185.207031 333.652344 184.589844 333.113281 C 183.972656 332.574219 183.433594 331.574219 183.28125 330.726562 C 183.203125 329.878906 183.433594 328.722656 183.972656 328.03125 C 184.589844 327.261719 187.128906 326.414062 187.128906 326.414062 "/></clipPath><clipPath id="2431155230"><path d="M 116.238281 305.765625 L 246.902344 305.765625 L 246.902344 315.179688 L 116.238281 315.179688 Z M 116.238281 305.765625 "/></clipPath><clipPath id="7355471947"><path d="M 120.078125 306.246094 C 222.851562 305.320312 223.851562 306.015625 227.085938 306.320312 C 230.933594 306.707031 236.476562 305.707031 240.015625 306.785156 C 242.710938 307.554688 246.253906 309.246094 246.792969 310.789062 C 247.101562 311.863281 246.175781 313.480469 245.484375 314.175781 C 244.945312 314.789062 244.097656 315.175781 243.25 315.175781 C 242.25 315.175781 240.632812 314.480469 239.941406 313.710938 C 239.402344 313.097656 239.09375 312.171875 239.09375 311.402344 C 239.09375 310.632812 239.324219 309.710938 239.863281 309.09375 C 240.480469 308.324219 242.097656 307.554688 243.097656 307.476562 C 243.867188 307.398438 244.789062 307.863281 245.328125 308.324219 C 245.945312 308.785156 246.5625 309.554688 246.714844 310.402344 C 246.867188 311.402344 246.40625 313.097656 245.792969 313.867188 C 245.328125 314.558594 244.40625 314.945312 243.636719 315.097656 C 242.867188 315.253906 241.941406 315.175781 241.25 314.789062 C 240.402344 314.25 239.402344 311.710938 239.09375 311.863281 C 238.863281 311.941406 239.863281 313.789062 239.246094 314.40625 C 237.398438 316.253906 226.007812 312.941406 215.382812 312.632812 C 194.214844 311.941406 129.007812 315.484375 120.078125 313.945312 C 118.617188 313.636719 118.230469 313.558594 117.539062 312.941406 C 116.921875 312.402344 116.382812 311.402344 116.308594 310.554688 C 116.152344 309.710938 116.382812 308.632812 116.921875 307.9375 C 117.539062 307.09375 120.078125 306.246094 120.078125 306.246094 "/></clipPath><clipPath id="546a497983"><path d="M 129 83 L 193.796875 83 L 193.796875 179.695312 L 129 179.695312 Z M 129 83 "/></clipPath><clipPath id="9647535a47"><path d="M 137.015625 87 C 138.015625 97.160156 140.015625 105.9375 142.097656 112.402344 C 144.175781 118.871094 147.253906 125.875 149.71875 131.1875 C 151.640625 135.265625 152.875 138.191406 155.335938 141.65625 C 158.261719 145.738281 161.804688 149.355469 166.5 153.589844 C 173.121094 159.441406 188.824219 168.601562 192.132812 172.605469 C 193.289062 173.988281 193.75 174.757812 193.75 175.835938 C 193.675781 176.914062 192.828125 178.453125 191.980469 178.992188 C 191.058594 179.53125 189.363281 179.6875 188.363281 179.300781 C 187.363281 178.839844 186.285156 177.53125 186.128906 176.453125 C 185.898438 175.453125 186.4375 173.757812 187.207031 172.988281 C 187.902344 172.296875 189.59375 171.757812 190.59375 171.988281 C 191.671875 172.140625 192.980469 173.21875 193.441406 174.21875 C 193.828125 175.222656 193.675781 176.914062 193.136719 177.839844 C 192.519531 178.683594 191.289062 179.609375 189.980469 179.609375 C 188.054688 179.609375 185.667969 177.53125 182.664062 175.527344 C 177.046875 171.910156 165.960938 163.441406 159.957031 157.976562 C 155.492188 153.820312 152.105469 150.125 149.253906 146.199219 C 146.714844 142.65625 145.175781 139.425781 143.25 135.5 C 141.019531 130.957031 138.785156 125.875 136.785156 120.179688 C 134.320312 113.171875 131.394531 102.703125 130.242188 96.546875 C 129.546875 92.695312 129.085938 89.15625 129.316406 87 C 129.472656 85.84375 129.777344 85.074219 130.316406 84.460938 C 130.855469 83.84375 131.933594 83.304688 132.703125 83.226562 C 133.398438 83.074219 134.011719 83.226562 134.550781 83.457031 C 135.089844 83.613281 135.707031 83.996094 136.089844 84.460938 C 136.554688 85.074219 137.015625 87 137.015625 87 "/></clipPath><clipPath id="ba46d10b49"><path d="M 186 104.023438 L 244.492188 104.023438 L 244.492188 179.601562 L 186 179.601562 Z M 186 104.023438 "/></clipPath><clipPath id="7cdb8a7d5f"><path d="M 187.363281 172.835938 C 205.066406 161.671875 206.375 160.75 208.609375 158.59375 C 211.765625 155.589844 216.460938 150.046875 219.078125 146.507812 C 220.925781 143.890625 221.695312 142.425781 223.3125 139.5 C 225.777344 134.804688 229.472656 126.800781 231.933594 120.871094 C 234.089844 115.636719 235.550781 108.167969 237.246094 105.785156 C 237.9375 104.859375 238.476562 104.550781 239.171875 104.320312 C 239.941406 104.089844 240.863281 104.011719 241.632812 104.320312 C 242.558594 104.707031 243.789062 105.9375 244.175781 106.9375 C 244.40625 107.707031 244.40625 108.632812 244.019531 109.324219 C 243.558594 110.25 242.328125 111.480469 241.328125 111.710938 C 240.25 111.941406 238.632812 111.402344 237.785156 110.789062 C 237.167969 110.25 236.707031 109.402344 236.628906 108.632812 C 236.554688 107.632812 237.09375 105.9375 237.785156 105.167969 C 238.324219 104.550781 239.246094 104.242188 240.015625 104.089844 C 240.789062 104.011719 241.710938 104.242188 242.402344 104.628906 C 243.097656 105.011719 243.710938 105.785156 244.019531 106.476562 C 244.328125 107.246094 244.328125 107.863281 244.175781 108.941406 C 243.789062 111.710938 241.558594 117.714844 239.480469 122.796875 C 236.785156 129.570312 231.625 140.269531 228.699219 145.507812 C 227.085938 148.507812 226.316406 149.738281 224.390625 152.203125 C 221.773438 155.746094 217.382812 161.054688 213.691406 164.445312 C 210.535156 167.367188 207.453125 169.371094 203.988281 171.679688 C 200.21875 174.296875 194.367188 178.222656 191.671875 179.148438 C 190.519531 179.53125 189.75 179.6875 188.976562 179.457031 C 188.132812 179.300781 187.207031 178.609375 186.746094 177.914062 C 186.207031 177.222656 185.976562 176.066406 186.054688 175.296875 C 186.207031 174.453125 187.363281 172.835938 187.363281 172.835938 "/></clipPath><clipPath id="b158210781"><path d="M 131.738281 81.1875 L 244.265625 81.1875 L 244.265625 114.140625 L 131.738281 114.140625 Z M 131.738281 81.1875 "/></clipPath><clipPath id="3926ad2e3a"><path d="M 240.480469 111.941406 C 217.617188 114.328125 213.996094 114.175781 209.917969 114.019531 C 205.761719 113.867188 201.449219 113.710938 197.371094 113.171875 C 193.289062 112.558594 190.363281 112.097656 185.4375 110.632812 C 176.816406 108.09375 159.878906 101.625 150.71875 97.699219 C 144.484375 95.082031 138.402344 92.386719 135.476562 90.308594 C 134.089844 89.308594 133.320312 88.617188 132.703125 87.691406 C 132.242188 86.921875 131.855469 86.152344 131.78125 85.382812 C 131.78125 84.613281 131.933594 83.6875 132.472656 82.996094 C 133.089844 82.226562 134.707031 81.457031 135.628906 81.378906 C 136.476562 81.304688 137.398438 81.609375 138.015625 82.148438 C 138.707031 82.84375 139.554688 84.382812 139.480469 85.460938 C 139.402344 86.460938 138.554688 88 137.632812 88.539062 C 136.707031 89.078125 134.9375 89 134.011719 88.691406 C 133.242188 88.386719 132.628906 87.691406 132.242188 87 C 131.855469 86.308594 131.625 85.382812 131.855469 84.535156 C 132.089844 83.613281 133.167969 82.226562 134.011719 81.6875 C 134.78125 81.304688 135.628906 81.226562 136.476562 81.457031 C 137.707031 81.765625 138.554688 83.226562 140.324219 84.226562 C 143.558594 86.152344 148.949219 88.691406 154.644531 91.078125 C 162.957031 94.621094 177.585938 100.316406 185.4375 102.703125 C 190.132812 104.089844 192.289062 104.707031 196.90625 105.320312 C 203.527344 106.246094 214.074219 106.628906 221.773438 106.320312 C 228.625 106.089844 237.785156 103.550781 241.019531 104.320312 C 242.25 104.550781 242.867188 105.089844 243.328125 105.707031 C 243.867188 106.398438 244.175781 107.476562 244.175781 108.324219 C 244.097656 109.171875 243.636719 110.25 243.019531 110.863281 C 242.402344 111.402344 240.480469 111.941406 240.480469 111.941406 "/></clipPath><clipPath id="2cdb1f51c5"><path d="M 128.789062 276.714844 L 198.929688 276.714844 L 198.929688 307.699219 L 128.789062 307.699219 Z M 128.789062 276.714844 "/></clipPath><clipPath id="e5e52b979b"><path d="M 129.164062 302.011719 C 133.089844 295.390625 135.167969 293.082031 137.398438 291.542969 C 139.554688 290 141.710938 289.308594 144.867188 288.078125 C 149.871094 286.230469 158.417969 283.84375 165.191406 282.074219 C 171.734375 280.378906 179.203125 278.378906 184.746094 277.609375 C 188.671875 277.070312 192.597656 276.53125 195.058594 277.070312 C 196.445312 277.375 197.601562 277.839844 198.214844 278.761719 C 198.832031 279.609375 198.984375 281.378906 198.601562 282.304688 C 198.214844 283.304688 196.832031 284.382812 195.828125 284.691406 C 195.058594 284.921875 194.136719 284.765625 193.441406 284.382812 C 192.671875 284.074219 191.980469 283.457031 191.59375 282.6875 C 191.210938 281.765625 191.132812 280.070312 191.59375 279.148438 C 192.132812 278.148438 193.519531 277.222656 194.597656 277.070312 C 195.675781 276.992188 197.214844 277.683594 197.984375 278.453125 C 198.523438 278.992188 198.832031 279.917969 198.832031 280.6875 C 198.910156 281.457031 198.679688 282.457031 198.214844 283.074219 C 197.753906 283.6875 197.292969 284.152344 196.214844 284.535156 C 194.058594 285.382812 188.902344 284.765625 184.746094 285.304688 C 179.816406 286.074219 174.351562 287.539062 168.5 289.078125 C 161.496094 290.925781 150.796875 293.464844 145.484375 295.929688 C 142.402344 297.390625 140.25 298.699219 138.632812 300.472656 C 137.324219 302.011719 136.9375 304.398438 136.015625 305.550781 C 135.398438 306.398438 134.707031 307.09375 134.011719 307.398438 C 133.398438 307.628906 132.78125 307.707031 132.164062 307.628906 C 131.394531 307.476562 130.316406 306.9375 129.703125 306.320312 C 129.238281 305.9375 129.007812 305.320312 128.855469 304.707031 C 128.699219 303.9375 129.164062 302.011719 129.164062 302.011719 "/></clipPath><clipPath id="240cd01e3b"><path d="M 191.117188 277.050781 L 252.496094 277.050781 L 252.496094 310.113281 L 191.117188 310.113281 Z M 191.117188 277.050781 "/></clipPath><clipPath id="df9f6dab51"><path d="M 195.058594 277.070312 C 206.375 277.839844 215.074219 280.996094 221.15625 282.917969 C 226.546875 284.613281 232.089844 286.152344 236.167969 287.921875 C 239.09375 289.15625 241.632812 290.617188 243.636719 291.773438 C 244.945312 292.621094 246.023438 293.15625 246.945312 294.082031 C 247.871094 295.003906 248.5625 295.851562 249.253906 297.238281 C 250.332031 299.085938 251.871094 302.703125 252.105469 304.78125 C 252.257812 306.167969 252.335938 307.476562 251.71875 308.402344 C 251.101562 309.246094 249.5625 310.015625 248.484375 310.015625 C 247.484375 310.015625 245.945312 309.246094 245.328125 308.324219 C 244.714844 307.476562 244.636719 305.707031 244.945312 304.78125 C 245.175781 304.011719 245.792969 303.242188 246.5625 302.933594 C 247.40625 302.472656 249.179688 302.242188 250.179688 302.703125 C 251.101562 303.164062 252.105469 304.628906 252.335938 305.550781 C 252.488281 306.398438 252.257812 307.324219 251.949219 308.015625 C 251.566406 308.707031 250.871094 309.402344 250.101562 309.710938 C 249.410156 310.015625 248.484375 310.09375 247.714844 309.941406 C 246.945312 309.785156 246.175781 309.402344 245.558594 308.707031 C 244.558594 307.476562 244.175781 304.011719 243.25 302.320312 C 242.480469 301.011719 241.863281 300.164062 240.632812 299.164062 C 239.015625 297.777344 236.9375 296.621094 233.628906 295.160156 C 226.855469 292.234375 208.453125 286.308594 201.21875 284.921875 C 197.675781 284.226562 194.828125 285.152344 193.210938 284.304688 C 192.289062 283.84375 191.75 283.074219 191.441406 282.304688 C 191.132812 281.457031 191.132812 280.378906 191.441406 279.53125 C 191.75 278.761719 192.597656 277.914062 193.210938 277.53125 C 193.75 277.144531 195.058594 277.070312 195.058594 277.070312 "/></clipPath></defs><g id="0d78f2e73f"><g clip-rule="nonzero" clip-path="url(#b14b3e0627)"><g clip-rule="nonzero" clip-path="url(#fb669f5424)"><path style=" stroke:none;fill-rule:nonzero;fill:currentColor;fill-opacity:1;" d="M 114.152344 63.210938 L 189.902344 63.210938 L 189.902344 200.804688 L 114.152344 200.804688 Z M 114.152344 63.210938 "/></g></g><g clip-rule="nonzero" clip-path="url(#81a219d137)"><g clip-rule="nonzero" clip-path="url(#f7bba63f7d)"><path style=" stroke:none;fill-rule:nonzero;fill:currentColor;fill-opacity:1;" d="M 114.226562 187 L 189.824219 187 L 189.824219 312.5 L 114.226562 312.5 Z M 114.226562 187 "/></g></g><g clip-rule="nonzero" clip-path="url(#3c647e852c)"><g clip-rule="nonzero" clip-path="url(#1418dbc3cf)"><path style=" stroke:none;fill-rule:nonzero;fill:currentColor;fill-opacity:1;" d="M 226.621094 64.289062 L 264.265625 64.289062 L 264.265625 162.222656 L 226.621094 162.222656 Z M 226.621094 64.289062 "/></g></g><g clip-rule="nonzero" clip-path="url(#ca00d447c1)"><g clip-rule="nonzero" clip-path="url(#04cf522659)"><path style=" stroke:none;fill-rule:nonzero;fill:currentColor;fill-opacity:1;" d="M 188.054688 145.507812 L 243.40625 145.507812 L 243.40625 215.558594 L 188.054688 215.558594 Z M 188.054688 145.507812 "/></g></g><g clip-rule="nonzero" clip-path="url(#a3061242b8)"><g clip-rule="nonzero" clip-path="url(#83a4580fc5)"><path style=" stroke:none;fill-rule:nonzero;fill:currentColor;fill-opacity:1;" d="M 199.523438 199.316406 L 259.1875 199.316406 L 259.1875 276.457031 L 199.523438 276.457031 Z M 199.523438 199.316406 "/></g></g><g clip-rule="nonzero" clip-path="url(#cc454f4d66)"><g clip-rule="nonzero" clip-path="url(#0d3f977afa)"><path style=" stroke:none;fill-rule:nonzero;fill:currentColor;fill-opacity:1;" d="M 244.714844 259.054688 L 264.960938 259.054688 L 264.960938 312.914062 L 244.714844 312.914062 Z M 244.714844 259.054688 "/></g></g><g clip-rule="nonzero" clip-path="url(#232b5c7dac)"><g clip-rule="nonzero" clip-path="url(#234a7f7c21)"><path style=" stroke:none;fill-rule:nonzero;fill:currentColor;fill-opacity:1;" d="M 102.757812 38.808594 L 175.683594 38.808594 L 175.683594 73.835938 L 102.757812 73.835938 Z M 102.757812 38.808594 "/></g></g><g clip-rule="nonzero" clip-path="url(#7b84e784cd)"><g clip-rule="nonzero" clip-path="url(#42cc9b1337)"><path style=" stroke:none;fill-rule:nonzero;fill:currentColor;fill-opacity:1;" d="M 158.339844 37.5 L 276.707031 37.5 L 276.707031 59.363281 L 158.339844 59.363281 Z M 158.339844 37.5 "/></g></g><g clip-rule="nonzero" clip-path="url(#61097d58fa)"><g clip-rule="nonzero" clip-path="url(#000aa68f0f)"><path style=" stroke:none;fill-rule:nonzero;fill:currentColor;fill-opacity:1;" d="M 170.808594 45.8125 L 276.816406 45.8125 L 276.816406 75.375 L 170.808594 75.375 Z M 170.808594 45.8125 "/></g></g><g clip-rule="nonzero" clip-path="url(#672d6d8c13)"><g clip-rule="nonzero" clip-path="url(#34f3e75f16)"><path style=" stroke:none;fill-rule:nonzero;fill:currentColor;fill-opacity:1;" d="M 113.535156 59.746094 L 188.132812 59.746094 L 188.132812 75.375 L 113.535156 75.375 Z M 113.535156 59.746094 "/></g></g><g clip-rule="nonzero" clip-path="url(#081a880603)"><g clip-rule="nonzero" clip-path="url(#9a2f08f258)"><path style=" stroke:none;fill-rule:nonzero;fill:currentColor;fill-opacity:1;" d="M 100.988281 304.011719 L 197.65625 304.011719 L 197.65625 337.5 L 100.988281 337.5 Z M 100.988281 304.011719 "/></g></g><g clip-rule="nonzero" clip-path="url(#b56b4e716e)"><g clip-rule="nonzero" clip-path="url(#d963d2ef62)"><path style=" stroke:none;fill-rule:nonzero;fill:currentColor;fill-opacity:1;" d="M 180.203125 304.011719 L 278.574219 304.011719 L 278.574219 337.191406 L 180.203125 337.191406 Z M 180.203125 304.011719 "/></g></g><g clip-rule="nonzero" clip-path="url(#2431155230)"><g clip-rule="nonzero" clip-path="url(#7355471947)"><path style=" stroke:none;fill-rule:nonzero;fill:currentColor;fill-opacity:1;" d="M 113.226562 301.855469 L 249.851562 301.855469 L 249.851562 318.253906 L 113.226562 318.253906 Z M 113.226562 301.855469 "/></g></g><g clip-rule="nonzero" clip-path="url(#546a497983)"><g clip-rule="nonzero" clip-path="url(#9647535a47)"><path style=" stroke:none;fill-rule:nonzero;fill:currentColor;fill-opacity:1;" d="M 126.238281 80.148438 L 196.832031 80.148438 L 196.832031 182.726562 L 126.238281 182.726562 Z M 126.238281 80.148438 "/></g></g><g clip-rule="nonzero" clip-path="url(#ba46d10b49)"><g clip-rule="nonzero" clip-path="url(#7cdb8a7d5f)"><path style=" stroke:none;fill-rule:nonzero;fill:currentColor;fill-opacity:1;" d="M 182.972656 101.011719 L 247.253906 101.011719 L 247.253906 182.617188 L 182.972656 182.617188 Z M 182.972656 101.011719 "/></g></g><g clip-rule="nonzero" clip-path="url(#b158210781)"><g clip-rule="nonzero" clip-path="url(#3926ad2e3a)"><path style=" stroke:none;fill-rule:nonzero;fill:currentColor;fill-opacity:1;" d="M 128.699219 78.300781 L 247.304688 78.300781 L 247.304688 117.175781 L 128.699219 117.175781 Z M 128.699219 78.300781 "/></g></g><g clip-rule="nonzero" clip-path="url(#2cdb1f51c5)"><g clip-rule="nonzero" clip-path="url(#e5e52b979b)"><path style=" stroke:none;fill-rule:nonzero;fill:currentColor;fill-opacity:1;" d="M 125.777344 273.988281 L 201.941406 273.988281 L 201.941406 310.710938 L 125.777344 310.710938 Z M 125.777344 273.988281 "/></g></g><g clip-rule="nonzero" clip-path="url(#240cd01e3b)"><g clip-rule="nonzero" clip-path="url(#df9f6dab51)"><path style=" stroke:none;fill-rule:nonzero;fill:currentColor;fill-opacity:1;" d="M 188.363281 273.988281 L 255.558594 273.988281 L 255.558594 313.171875 L 188.363281 313.171875 Z M 188.363281 273.988281 "/></g></g></g></svg>