<svg xmlns="http://www.w3.org/2000/svg" xmlns:xlink="http://www.w3.org/1999/xlink" width="500" zoomAndPan="magnify" viewBox="0 0 375 374.999991" height="500" preserveAspectRatio="xMidYMid meet" version="1.2"><defs><clipPath id="151d78977a"><path d="M 115.535156 96 L 164.191406 96 L 164.191406 147.960938 L 115.535156 147.960938 Z M 115.535156 96 "/></clipPath><clipPath id="7135627e43"><path d="M 143.832031 104.175781 C 124.707031 104.773438 122.90625 105.601562 122.90625 106.050781 C 122.980469 106.5 125.90625 106.425781 126.882812 107.175781 C 127.855469 107.925781 128.230469 109.351562 128.832031 110.550781 C 129.355469 111.824219 129.957031 112.949219 130.332031 114.449219 C 130.855469 116.625 130.40625 119.476562 131.304688 122.25 C 132.582031 125.851562 135.730469 131.773438 138.054688 133.949219 C 139.332031 135.148438 140.382812 135.449219 141.957031 135.976562 C 144.132812 136.648438 147.132812 136.425781 150.054688 137.175781 C 153.882812 138 160.78125 139.726562 162.730469 141.226562 C 163.554688 141.898438 163.78125 142.574219 163.929688 143.324219 C 164.082031 144.074219 163.929688 144.976562 163.632812 145.726562 C 163.332031 146.398438 162.65625 147.074219 161.980469 147.375 C 161.304688 147.75 160.332031 147.898438 159.582031 147.75 C 158.832031 147.601562 158.007812 147.226562 157.480469 146.625 C 156.882812 145.875 156.355469 144.226562 156.582031 143.25 C 156.804688 142.199219 157.929688 140.925781 158.90625 140.550781 C 159.882812 140.175781 161.53125 140.476562 162.429688 141 C 163.105469 141.375 163.632812 142.199219 163.855469 142.949219 C 164.082031 143.625 164.082031 144.601562 163.78125 145.351562 C 163.554688 146.023438 162.957031 146.773438 162.355469 147.226562 C 161.679688 147.601562 161.15625 147.824219 160.03125 147.824219 C 156.507812 147.824219 144.207031 144.375 139.179688 142.648438 C 136.03125 141.523438 133.40625 140.851562 131.980469 139.351562 C 130.855469 138.148438 131.082031 136.648438 130.257812 135 C 128.832031 132.375 125.082031 128.699219 124.03125 125.476562 C 123.054688 122.625 124.03125 118.949219 123.507812 116.699219 C 123.132812 115.050781 122.679688 114.074219 121.78125 112.800781 C 120.507812 111 116.980469 109.125 116.15625 107.25 C 115.554688 105.976562 115.707031 104.550781 116.007812 103.351562 C 116.382812 102.226562 117.054688 101.101562 118.179688 100.125 C 119.832031 98.773438 122.382812 97.5 125.457031 96.824219 C 130.40625 95.773438 142.632812 95.699219 145.632812 97.125 C 146.679688 97.574219 147.054688 98.324219 147.355469 99.074219 C 147.65625 99.824219 147.65625 100.949219 147.355469 101.773438 C 147.054688 102.523438 146.230469 103.351562 145.632812 103.726562 C 145.03125 104.023438 143.832031 104.175781 143.832031 104.175781 "/></clipPath><clipPath id="0b206d1469"><path d="M 153.613281 119 L 245.476562 119 L 245.476562 156 L 153.613281 156 Z M 153.613281 119 "/></clipPath><clipPath id="572c542558"><path d="M 182.382812 126.824219 C 162.054688 128.175781 161.457031 129.375 161.457031 130.726562 C 161.382812 132.601562 162.730469 135.675781 164.832031 137.476562 C 167.90625 140.25 176.832031 140.625 180.730469 142.875 C 183.355469 144.449219 183.882812 147.148438 186.65625 148.125 C 190.632812 149.625 197.679688 148.648438 203.457031 147.824219 C 209.757812 146.925781 216.730469 143.625 222.882812 142.648438 C 228.355469 141.824219 238.179688 142.949219 238.480469 141.824219 C 238.632812 141.226562 236.53125 140.25 234.65625 139.273438 C 230.757812 137.25 217.632812 133.5 214.929688 131.398438 C 214.03125 130.648438 213.804688 130.125 213.582031 129.375 C 213.355469 128.699219 213.355469 127.726562 213.730469 126.976562 C 214.105469 126.148438 215.382812 124.949219 216.355469 124.726562 C 217.40625 124.5 218.980469 124.949219 219.730469 125.625 C 220.480469 126.300781 221.082031 127.949219 220.929688 128.925781 C 220.78125 129.976562 219.730469 131.324219 218.832031 131.773438 C 217.855469 132.226562 216.207031 132 215.304688 131.625 C 214.554688 131.25 214.03125 130.5 213.730469 129.75 C 213.429688 129.074219 213.355469 128.101562 213.582031 127.425781 C 213.804688 126.675781 214.257812 125.851562 214.929688 125.398438 C 215.757812 124.875 216.730469 124.648438 218.382812 124.800781 C 222.507812 125.175781 235.855469 130.875 240.132812 133.050781 C 242.082031 134.023438 243.355469 134.476562 244.179688 135.675781 C 244.929688 136.648438 245.082031 138.074219 245.230469 139.351562 C 245.382812 140.550781 245.382812 141.824219 245.15625 143.101562 C 244.929688 144.375 244.554688 145.800781 243.804688 146.773438 C 242.980469 147.75 242.15625 148.5 240.582031 149.023438 C 237.429688 150.148438 230.457031 149.101562 225.054688 150 C 218.832031 150.976562 211.707031 154.125 205.480469 155.101562 C 200.007812 155.925781 193.40625 155.925781 189.804688 155.925781 C 187.929688 155.925781 186.882812 156.074219 185.605469 155.773438 C 184.332031 155.476562 183.28125 155.023438 182.082031 154.273438 C 180.355469 153.074219 178.632812 150 176.457031 148.800781 C 174.28125 147.675781 171.507812 148.050781 169.105469 147.300781 C 166.632812 146.625 163.78125 145.5 161.980469 144.449219 C 160.632812 143.773438 159.730469 143.175781 158.90625 142.199219 C 157.929688 141.300781 157.332031 140.324219 156.582031 138.976562 C 155.605469 136.949219 154.257812 133.351562 153.957031 131.175781 C 153.65625 129.675781 153.730469 128.625 153.957031 127.351562 C 154.179688 126 154.554688 124.5 155.382812 123.375 C 156.132812 122.25 157.480469 121.273438 158.679688 120.675781 C 159.804688 120.148438 160.632812 120.148438 162.429688 119.925781 C 166.554688 119.476562 179.980469 118.425781 183.28125 119.398438 C 184.480469 119.773438 185.007812 120.226562 185.457031 120.898438 C 185.90625 121.574219 186.207031 122.699219 186.132812 123.523438 C 185.980469 124.351562 185.457031 125.324219 184.855469 125.851562 C 184.257812 126.375 182.382812 126.824219 182.382812 126.824219 "/></clipPath><clipPath id="f87c19f257"><path d="M 234.234375 70.054688 L 272.976562 70.054688 L 272.976562 136.070312 L 234.234375 136.070312 Z M 234.234375 70.054688 "/></clipPath><clipPath id="a908f4836b"><path d="M 234.582031 130.875 C 241.480469 121.050781 243.957031 119.773438 246.355469 118.648438 C 248.679688 117.675781 252.054688 117.75 253.707031 116.625 C 254.90625 115.800781 255.507812 114.976562 256.105469 113.324219 C 257.304688 110.25 256.554688 102.675781 257.457031 97.875 C 258.28125 93.601562 259.554688 89.398438 260.90625 86.101562 C 261.957031 83.398438 265.105469 80.476562 264.582031 79.199219 C 264.207031 78.226562 262.179688 78 260.90625 77.925781 C 259.554688 77.851562 257.980469 78.449219 256.707031 78.898438 C 255.429688 79.351562 254.457031 79.800781 253.03125 80.625 C 250.855469 82.050781 247.03125 86.324219 245.082031 86.773438 C 244.105469 87 243.355469 86.625 242.757812 86.25 C 242.082031 85.875 241.40625 85.199219 241.179688 84.449219 C 240.882812 83.476562 241.105469 81.824219 241.554688 80.925781 C 242.007812 80.25 242.679688 79.726562 243.507812 79.5 C 244.40625 79.273438 246.132812 79.425781 246.957031 80.101562 C 247.78125 80.699219 248.457031 82.199219 248.382812 83.25 C 248.382812 84.300781 247.480469 85.726562 246.582031 86.25 C 245.679688 86.773438 244.03125 86.773438 243.054688 86.476562 C 242.304688 86.175781 241.707031 85.574219 241.332031 84.824219 C 240.957031 83.925781 240.804688 82.5 241.332031 81.300781 C 242.230469 79.351562 246.054688 76.351562 247.929688 74.925781 C 249.207031 73.949219 249.882812 73.574219 251.457031 72.976562 C 254.082031 71.925781 260.082031 70.5 262.929688 70.273438 C 264.582031 70.125 265.632812 69.976562 266.90625 70.425781 C 268.40625 70.875 270.207031 72 271.179688 73.199219 C 272.007812 74.175781 272.53125 75.601562 272.757812 76.875 C 272.90625 78.074219 272.757812 79.199219 272.304688 80.625 C 271.632812 82.875 269.230469 85.574219 268.03125 88.5 C 266.679688 91.800781 265.257812 96.226562 264.730469 99.601562 C 264.355469 102.449219 264.957031 104.851562 264.65625 107.476562 C 264.429688 110.25 263.832031 113.699219 263.15625 115.949219 C 262.632812 117.523438 262.179688 118.800781 261.355469 119.925781 C 260.605469 121.050781 259.929688 121.800781 258.582031 122.625 C 256.179688 124.125 249.957031 125.101562 247.40625 126.449219 C 245.980469 127.199219 245.304688 127.726562 244.257812 128.851562 C 242.757812 130.5 241.179688 134.699219 239.679688 135.675781 C 238.78125 136.125 237.804688 136.050781 237.054688 135.898438 C 236.382812 135.75 235.929688 135.449219 235.480469 135 C 234.957031 134.476562 234.429688 133.351562 234.28125 132.601562 C 234.207031 132 234.582031 130.875 234.582031 130.875 "/></clipPath><clipPath id="7d5d2c5d52"><path d="M 222.226562 46.757812 L 264.890625 46.757812 L 264.890625 76.929688 L 222.226562 76.929688 Z M 222.226562 46.757812 "/></clipPath><clipPath id="83e6b1f024"><path d="M 255.429688 71.398438 C 257.15625 64.5 256.480469 63.226562 255.65625 62.25 C 254.90625 61.351562 253.480469 61.273438 252.28125 60.375 C 250.707031 59.023438 249.882812 55.351562 247.257812 54.449219 C 242.90625 53.023438 229.929688 59.925781 226.03125 59.476562 C 224.53125 59.25 223.554688 58.574219 222.957031 57.824219 C 222.429688 57.226562 222.207031 56.324219 222.28125 55.574219 C 222.28125 54.824219 222.582031 53.851562 223.105469 53.324219 C 223.78125 52.574219 225.355469 51.898438 226.332031 51.976562 C 227.382812 52.050781 228.804688 52.949219 229.257812 53.925781 C 229.78125 54.824219 229.78125 56.476562 229.332031 57.375 C 228.882812 58.351562 227.382812 59.25 226.480469 59.398438 C 225.65625 59.550781 224.757812 59.324219 224.082031 58.949219 C 223.480469 58.574219 222.804688 57.898438 222.507812 57.148438 C 222.207031 56.175781 222.132812 54.601562 222.882812 53.625 C 223.929688 52.199219 227.007812 51.523438 229.855469 50.550781 C 234.132812 49.199219 242.53125 47.324219 246.054688 46.949219 C 247.78125 46.800781 248.679688 46.800781 249.957031 47.101562 C 251.230469 47.476562 252.507812 48 253.632812 49.050781 C 255.28125 50.398438 256.632812 53.851562 258.132812 55.351562 C 259.179688 56.324219 260.304688 56.476562 261.28125 57.449219 C 262.332031 58.5 263.605469 60 264.207031 61.425781 C 264.730469 62.773438 264.65625 64.199219 264.730469 65.550781 C 264.804688 66.898438 265.03125 68.023438 264.65625 69.449219 C 264.132812 71.398438 262.257812 75.148438 260.832031 76.199219 C 260.007812 76.800781 259.105469 76.949219 258.28125 76.800781 C 257.457031 76.726562 256.480469 76.125 255.882812 75.601562 C 255.507812 75.148438 255.207031 74.625 255.054688 74.023438 C 254.90625 73.273438 255.429688 71.398438 255.429688 71.398438 "/></clipPath><clipPath id="fbfbc18f06"><path d="M 139.769531 44.089844 L 176.675781 44.089844 L 176.675781 114.894531 L 139.769531 114.894531 Z M 139.769531 44.089844 "/></clipPath><clipPath id="0eaff35c24"><path d="M 170.980469 114.824219 C 161.457031 113.25 154.105469 109.425781 150.429688 106.800781 C 147.882812 105 146.007812 103.125 144.65625 101.25 C 143.605469 99.75 143.082031 98.625 142.554688 96.898438 C 141.730469 94.5 141.355469 91.574219 140.90625 88.050781 C 140.304688 82.726562 139.40625 72.148438 139.929688 68.175781 C 140.230469 66.375 140.457031 65.925781 141.28125 64.351562 C 142.929688 61.273438 149.679688 55.199219 150.957031 51.75 C 151.707031 49.800781 150.582031 47.773438 151.257812 46.5 C 151.929688 45.375 153.355469 44.398438 154.632812 44.25 C 155.980469 44.101562 157.105469 45.449219 159.054688 46.050781 C 162.804688 47.101562 173.15625 47.550781 175.40625 49.199219 C 176.230469 49.800781 176.457031 50.476562 176.605469 51.226562 C 176.679688 52.199219 176.15625 53.851562 175.554688 54.601562 C 175.03125 55.199219 174.132812 55.574219 173.382812 55.648438 C 172.632812 55.800781 171.730469 55.574219 171.054688 55.273438 C 170.382812 54.898438 169.78125 54.148438 169.480469 53.476562 C 169.179688 52.800781 169.03125 51.824219 169.257812 51.074219 C 169.554688 50.175781 170.679688 48.898438 171.582031 48.449219 C 172.332031 48.148438 173.230469 48.148438 173.980469 48.375 C 174.730469 48.601562 175.480469 49.125 175.929688 49.800781 C 176.382812 50.398438 176.679688 51.300781 176.605469 52.050781 C 176.605469 52.800781 176.382812 53.699219 175.855469 54.300781 C 175.179688 55.050781 173.605469 55.726562 172.632812 55.726562 C 171.804688 55.726562 171.28125 54.898438 170.382812 54.75 C 169.257812 54.601562 167.980469 55.125 166.40625 55.050781 C 164.230469 54.898438 160.78125 54.148438 158.757812 53.476562 C 157.257812 52.949219 155.230469 52.425781 155.15625 51.75 C 155.082031 51.074219 157.707031 49.050781 158.230469 49.351562 C 158.832031 49.574219 158.90625 52.199219 158.304688 54.074219 C 157.257812 57.375 150.804688 63.449219 149.082031 66.449219 C 148.179688 67.949219 147.730469 68.324219 147.429688 70.050781 C 146.757812 74.023438 147.804688 85.273438 148.78125 90.300781 C 149.457031 93.523438 150.132812 96.148438 151.40625 97.949219 C 152.304688 99.226562 153.207031 99.675781 154.707031 100.648438 C 157.179688 102.300781 162.054688 104.851562 165.507812 106.125 C 168.28125 107.25 172.179688 107.324219 173.53125 108.300781 C 174.132812 108.75 174.355469 109.125 174.507812 109.726562 C 174.730469 110.476562 174.804688 111.675781 174.507812 112.425781 C 174.207031 113.175781 173.382812 114 172.78125 114.375 C 172.257812 114.75 170.980469 114.824219 170.980469 114.824219 "/></clipPath><clipPath id="cfd07360af"><path d="M 163.355469 40.007812 L 212.679688 40.007812 L 212.679688 133.082031 L 163.355469 133.082031 Z M 163.355469 40.007812 "/></clipPath><clipPath id="72764393bf"><path d="M 187.257812 133.050781 C 179.457031 126.375 175.707031 121.125 173.757812 116.023438 C 171.507812 110.25 171.882812 102.601562 170.15625 96.074219 C 168.507812 89.625 164.605469 82.199219 163.78125 77.023438 C 163.257812 73.726562 163.179688 71.550781 163.855469 68.625 C 164.679688 65.175781 167.230469 60.976562 169.03125 57.898438 C 170.53125 55.351562 171.957031 53.25 173.679688 51.148438 C 175.257812 49.199219 177.28125 47.101562 178.855469 45.75 C 179.980469 44.773438 180.730469 44.324219 182.082031 43.648438 C 184.03125 42.675781 186.804688 41.398438 189.730469 40.875 C 193.257812 40.199219 198.65625 39.675781 202.03125 40.648438 C 204.730469 41.398438 206.980469 43.425781 208.78125 45 C 210.207031 46.199219 211.632812 47.699219 212.15625 48.898438 C 212.605469 49.726562 212.679688 50.476562 212.605469 51.226562 C 212.457031 51.976562 212.15625 52.875 211.480469 53.398438 C 210.730469 54 209.15625 54.601562 208.105469 54.375 C 207.132812 54.148438 205.855469 53.101562 205.40625 52.125 C 205.03125 51.148438 205.179688 49.5 205.78125 48.601562 C 206.304688 47.773438 207.882812 47.023438 208.855469 46.949219 C 209.679688 46.875 210.507812 47.25 211.105469 47.699219 C 211.707031 48.148438 212.304688 48.898438 212.53125 49.648438 C 212.679688 50.625 212.304688 52.273438 211.78125 53.101562 C 211.332031 53.773438 210.507812 54.148438 209.757812 54.375 C 209.007812 54.523438 208.257812 54.523438 207.355469 54.148438 C 205.855469 53.398438 203.757812 50.175781 202.03125 49.125 C 200.757812 48.375 199.707031 48 198.207031 47.773438 C 196.179688 47.550781 192.730469 47.925781 190.707031 48.375 C 189.207031 48.675781 188.082031 49.199219 186.882812 49.726562 C 185.679688 50.324219 184.632812 50.699219 183.429688 51.675781 C 181.78125 52.949219 180.054688 55.125 178.40625 57.449219 C 176.304688 60.375 173.15625 65.25 172.03125 68.023438 C 171.429688 69.601562 171.355469 70.726562 171.28125 72.148438 C 171.132812 73.5 170.980469 74.476562 171.28125 76.273438 C 171.882812 79.800781 175.257812 86.101562 176.679688 91.574219 C 178.332031 97.648438 179.082031 107.398438 180.132812 111.300781 C 180.65625 113.101562 180.730469 113.550781 181.480469 114.976562 C 182.90625 117.675781 186.804688 123.824219 188.757812 125.476562 C 189.582031 126.300781 190.480469 126.074219 191.082031 126.675781 C 191.757812 127.273438 192.355469 128.175781 192.507812 128.925781 C 192.65625 129.75 192.355469 130.875 191.980469 131.550781 C 191.757812 132.148438 191.304688 132.601562 190.707031 132.824219 C 189.882812 133.199219 187.257812 133.050781 187.257812 133.050781 "/></clipPath><clipPath id="4ff9ac0a80"><path d="M 183.421875 74.613281 L 235.191406 74.613281 L 235.191406 135.574219 L 183.421875 135.574219 Z M 183.421875 74.613281 "/></clipPath><clipPath id="fafe3b1ace"><path d="M 185.832031 127.125 C 201.207031 110.398438 202.179688 106.800781 203.757812 102.601562 C 205.554688 97.726562 206.832031 90.898438 208.40625 86.699219 C 209.53125 83.773438 210.582031 81.375 211.78125 79.648438 C 212.605469 78.375 213.429688 77.550781 214.480469 76.800781 C 215.457031 76.050781 216.507812 75.449219 217.929688 75.074219 C 219.957031 74.550781 223.480469 74.773438 225.582031 74.925781 C 227.082031 75.074219 228.207031 75.148438 229.40625 75.601562 C 230.605469 76.199219 231.882812 77.175781 232.78125 78.148438 C 233.679688 79.125 234.429688 80.398438 234.804688 81.601562 C 235.179688 82.800781 235.257812 84.148438 235.105469 85.425781 C 234.957031 86.699219 234.804688 87.898438 233.980469 89.175781 C 232.855469 91.125 229.179688 93.226562 227.90625 95.25 C 227.007812 96.675781 226.707031 97.800781 226.40625 99.449219 C 225.957031 101.625 226.332031 104.476562 225.957031 107.324219 C 225.355469 111 224.007812 115.875 222.957031 119.398438 C 222.207031 122.25 221.605469 124.949219 220.554688 126.824219 C 219.804688 128.25 218.90625 129.226562 217.855469 130.125 C 216.882812 131.023438 215.832031 131.699219 214.480469 132.300781 C 212.53125 133.199219 209.980469 133.949219 207.054688 134.476562 C 202.855469 135.074219 195.65625 135.898438 191.53125 134.851562 C 188.382812 134.101562 184.78125 131.925781 183.882812 130.425781 C 183.429688 129.601562 183.65625 128.773438 183.882812 128.023438 C 184.105469 127.273438 184.632812 126.523438 185.304688 126.074219 C 185.90625 125.625 186.804688 125.398438 187.554688 125.398438 C 188.304688 125.476562 189.207031 125.773438 189.804688 126.300781 C 190.40625 126.75 190.929688 127.574219 191.082031 128.324219 C 191.230469 129.074219 191.230469 129.976562 190.855469 130.726562 C 190.40625 131.550781 189.132812 132.675781 188.082031 132.898438 C 187.03125 133.050781 185.457031 132.523438 184.707031 131.773438 C 184.03125 131.023438 183.65625 129.375 183.730469 128.398438 C 183.882812 127.648438 184.40625 126.824219 184.929688 126.375 C 185.53125 125.851562 186.429688 125.476562 187.179688 125.398438 C 187.929688 125.398438 188.832031 125.625 189.507812 126.074219 C 190.105469 126.449219 190.105469 127.5 190.929688 127.949219 C 192.882812 128.773438 198.582031 127.726562 202.03125 127.351562 C 205.03125 127.050781 208.179688 126.75 210.28125 125.925781 C 211.78125 125.324219 212.832031 125.023438 213.804688 123.675781 C 215.457031 121.5 216.132812 116.625 217.257812 112.351562 C 218.605469 106.800781 218.832031 97.648438 220.855469 93.148438 C 222.207031 90.300781 224.679688 88.726562 225.804688 86.925781 C 226.554688 85.648438 227.679688 84.148438 227.304688 83.398438 C 226.929688 82.648438 224.757812 82.648438 223.480469 82.425781 C 222.207031 82.273438 220.78125 81.898438 219.730469 82.425781 C 218.605469 82.875 218.007812 83.773438 217.105469 85.351562 C 214.855469 89.25 211.707031 102.75 209.53125 108.300781 C 208.257812 111.601562 207.507812 113.625 206.082031 116.101562 C 204.804688 118.425781 203.605469 120.375 201.507812 122.699219 C 198.65625 125.925781 192.429688 132.300781 189.730469 133.273438 C 188.679688 133.648438 187.855469 133.425781 187.105469 133.125 C 186.507812 132.976562 186.054688 132.601562 185.679688 132.074219 C 185.230469 131.476562 184.78125 130.425781 184.78125 129.601562 C 184.855469 128.773438 185.832031 127.125 185.832031 127.125 "/></clipPath><clipPath id="2d27c78f98"><path d="M 188.859375 74.425781 L 222.179688 74.425781 L 222.179688 112.746094 L 188.859375 112.746094 Z M 188.859375 74.425781 "/></clipPath><clipPath id="488cdb740d"><path d="M 200.304688 110.550781 C 188.90625 88.949219 188.382812 85.949219 189.132812 84.074219 C 189.730469 82.726562 191.007812 81.824219 192.507812 81.226562 C 194.457031 80.398438 197.15625 81.300781 200.15625 80.699219 C 204.804688 79.726562 214.179688 75.148438 217.332031 74.773438 C 218.457031 74.550781 218.980469 74.550781 219.730469 74.851562 C 220.40625 75.148438 221.15625 75.675781 221.53125 76.425781 C 221.980469 77.25 222.054688 78.976562 221.757812 79.949219 C 221.457031 80.699219 220.855469 81.375 220.105469 81.675781 C 219.207031 82.050781 217.480469 82.050781 216.582031 81.675781 C 215.832031 81.375 215.230469 80.625 214.929688 79.949219 C 214.632812 79.273438 214.40625 78.300781 214.707031 77.550781 C 214.929688 76.648438 216.054688 75.300781 216.957031 74.851562 C 217.632812 74.476562 218.605469 74.476562 219.355469 74.699219 C 220.257812 75.074219 221.53125 76.273438 221.90625 77.175781 C 222.207031 77.851562 222.132812 78.824219 221.90625 79.574219 C 221.679688 80.25 221.304688 80.773438 220.480469 81.449219 C 218.007812 83.175781 207.804688 86.101562 204.28125 87.148438 C 202.632812 87.675781 201.804688 88.050781 200.53125 88.199219 C 199.179688 88.351562 197.082031 87.226562 196.554688 88.050781 C 195.429688 89.925781 206.757812 104.550781 207.355469 108.148438 C 207.582031 109.425781 207.355469 110.101562 206.980469 110.773438 C 206.53125 111.523438 205.707031 112.199219 204.882812 112.5 C 204.132812 112.726562 203.007812 112.726562 202.257812 112.425781 C 201.507812 112.050781 200.304688 110.550781 200.304688 110.550781 "/></clipPath><clipPath id="f73e503a61"><path d="M 192.871094 65.003906 L 203.617188 65.003906 L 203.617188 84.425781 L 192.871094 84.425781 Z M 192.871094 65.003906 "/></clipPath><clipPath id="62a79a0563"><path d="M 196.179688 81.675781 C 192.882812 70.800781 192.804688 69.75 192.957031 68.773438 C 193.105469 67.875 193.257812 67.125 193.707031 66.523438 C 194.230469 65.851562 194.90625 65.324219 195.730469 65.175781 C 196.707031 64.949219 198.355469 65.324219 199.179688 65.925781 C 199.78125 66.375 200.230469 67.199219 200.382812 67.949219 C 200.53125 68.699219 200.53125 69.601562 200.15625 70.351562 C 199.632812 71.175781 198.28125 72.226562 197.304688 72.449219 C 196.554688 72.675781 195.65625 72.449219 194.980469 72.074219 C 194.304688 71.699219 193.632812 71.023438 193.332031 70.351562 C 193.03125 69.675781 192.882812 68.699219 193.03125 67.949219 C 193.257812 67.199219 193.707031 66.375 194.304688 65.925781 C 194.90625 65.398438 195.730469 65.023438 196.554688 65.023438 C 197.304688 64.949219 198.207031 65.25 198.804688 65.625 C 199.480469 66.074219 200.007812 66.824219 200.304688 67.574219 C 200.53125 68.476562 199.929688 69.449219 200.15625 70.800781 C 200.53125 73.050781 203.230469 77.699219 203.53125 79.875 C 203.605469 81 203.53125 81.75 203.15625 82.5 C 202.78125 83.25 202.03125 84 201.207031 84.300781 C 200.230469 84.523438 198.582031 84.375 197.679688 83.851562 C 197.007812 83.398438 196.179688 81.675781 196.179688 81.675781 "/></clipPath><clipPath id="0479040e9d"><path d="M 192.929688 64.871094 L 200.332031 64.871094 L 200.332031 72.378906 L 192.929688 72.378906 Z M 192.929688 64.871094 "/></clipPath><clipPath id="a074a94f0f"><path d="M 200.304688 67.425781 C 200.15625 70.125 199.03125 71.550781 198.28125 72 C 197.679688 72.300781 197.15625 72.449219 196.480469 72.300781 C 195.582031 72.148438 194.082031 71.25 193.480469 70.5 C 193.105469 69.976562 192.957031 69.449219 192.957031 68.773438 C 193.03125 67.875 193.632812 66.226562 194.382812 65.625 C 195.207031 64.949219 196.929688 64.800781 197.832031 64.949219 C 198.507812 65.101562 199.40625 65.925781 199.40625 65.925781 "/></clipPath><clipPath id="126959250e"><path d="M 193 64.660156 L 212.398438 64.660156 L 212.398438 82.734375 L 193 82.734375 Z M 193 64.660156 "/></clipPath><clipPath id="99624c71d9"><path d="M 196.03125 64.875 C 203.007812 64.5 204.957031 64.574219 206.457031 65.699219 C 208.40625 67.050781 210.132812 70.726562 211.105469 73.125 C 211.855469 75.148438 212.382812 77.398438 212.304688 78.824219 C 212.230469 79.800781 212.007812 80.550781 211.554688 81.148438 C 211.105469 81.75 210.28125 82.273438 209.605469 82.5 C 208.855469 82.726562 207.882812 82.648438 207.207031 82.425781 C 206.457031 82.125 205.707031 81.601562 205.332031 80.925781 C 204.882812 80.023438 204.65625 78.300781 205.105469 77.398438 C 205.554688 76.425781 206.832031 75.375 207.882812 75.226562 C 208.929688 75 210.507812 75.675781 211.257812 76.273438 C 211.855469 76.800781 212.15625 77.699219 212.230469 78.449219 C 212.382812 79.199219 212.15625 80.175781 211.78125 80.773438 C 211.40625 81.449219 210.65625 82.050781 209.980469 82.351562 C 209.304688 82.648438 208.332031 82.800781 207.582031 82.5 C 206.679688 82.199219 205.707031 81.300781 205.03125 80.175781 C 203.832031 78.300781 204.28125 73.050781 202.554688 71.851562 C 201.207031 70.875 198.132812 72.675781 196.554688 72.300781 C 195.28125 72 194.082031 71.398438 193.554688 70.574219 C 193.03125 69.675781 192.882812 68.023438 193.257812 67.050781 C 193.707031 66.148438 196.03125 64.875 196.03125 64.875 "/></clipPath><clipPath id="857c4157dc"><path d="M 180 47.429688 L 248.351562 47.429688 L 248.351562 122.210938 L 180 122.210938 Z M 180 47.429688 "/></clipPath><clipPath id="a4637faf45"><path d="M 189.730469 86.324219 C 183.582031 82.425781 182.757812 81.375 182.082031 80.25 C 181.480469 79.199219 181.03125 78.300781 180.730469 76.726562 C 180.207031 73.875 179.832031 67.125 180.582031 64.273438 C 180.957031 62.699219 181.632812 62.023438 182.605469 60.75 C 183.804688 59.023438 185.53125 56.851562 187.707031 55.050781 C 190.554688 52.875 194.230469 50.476562 198.507812 49.273438 C 203.90625 47.699219 214.03125 47.175781 217.929688 47.851562 C 219.804688 48.148438 220.40625 48.523438 221.832031 49.5 C 224.15625 51.148438 227.007812 55.648438 229.78125 57.898438 C 232.105469 59.851562 234.65625 60 236.90625 62.476562 C 240.28125 66.148438 244.257812 75.300781 246.054688 80.023438 C 247.179688 82.949219 247.632812 84.976562 247.929688 87.601562 C 248.15625 90.148438 248.304688 92.476562 247.632812 95.476562 C 246.65625 99.75 244.105469 106.199219 240.882812 110.398438 C 237.582031 114.75 231.957031 119.699219 227.90625 121.125 C 225.132812 122.101562 221.082031 121.574219 219.882812 120.976562 C 219.429688 120.75 219.355469 120.449219 219.207031 120 C 218.90625 119.175781 218.757812 117.375 219.28125 116.476562 C 219.730469 115.574219 221.230469 114.75 222.207031 114.601562 C 222.957031 114.449219 223.855469 114.75 224.53125 115.125 C 225.132812 115.5 225.804688 116.175781 226.03125 117 C 226.332031 117.898438 226.179688 119.625 225.582031 120.449219 C 224.980469 121.273438 223.40625 122.023438 222.429688 122.023438 C 221.679688 122.101562 220.78125 121.726562 220.179688 121.273438 C 219.582031 120.75 219.054688 120 218.90625 119.25 C 218.679688 118.5 218.679688 117.523438 219.054688 116.851562 C 219.507812 115.949219 220.78125 114.824219 221.757812 114.601562 C 222.804688 114.449219 224.605469 115.949219 225.132812 115.648438 C 225.582031 115.425781 225.132812 114.601562 225.507812 113.925781 C 226.554688 112.199219 232.105469 109.5 234.429688 106.5 C 236.832031 103.351562 238.78125 98.851562 239.757812 95.398438 C 240.507812 92.625 240.582031 89.851562 240.429688 87.601562 C 240.28125 85.875 239.90625 84.976562 239.230469 83.175781 C 237.957031 79.726562 235.332031 72.75 232.332031 69.074219 C 229.78125 65.851562 225.507812 64.273438 222.957031 61.800781 C 220.855469 59.699219 220.480469 56.550781 217.929688 55.351562 C 214.480469 53.773438 206.007812 55.5 202.632812 56.023438 C 200.832031 56.324219 200.082031 56.476562 198.65625 57.148438 C 196.707031 57.976562 193.707031 59.851562 192.054688 61.199219 C 190.855469 62.175781 190.03125 63 189.28125 64.125 C 188.53125 65.324219 187.929688 66.449219 187.632812 68.023438 C 187.332031 70.125 187.480469 73.875 188.304688 75.75 C 188.832031 77.101562 189.882812 77.925781 190.929688 78.75 C 191.832031 79.425781 193.257812 79.648438 193.929688 80.398438 C 194.53125 81.074219 194.90625 82.050781 194.832031 82.875 C 194.757812 83.851562 194.007812 85.351562 193.179688 85.949219 C 192.355469 86.550781 189.730469 86.324219 189.730469 86.324219 "/></clipPath><clipPath id="bd17060970"><path d="M 123.859375 148.234375 L 171 148.234375 L 171 211 L 123.859375 211 Z M 123.859375 148.234375 "/></clipPath><clipPath id="c118b42ae7"><path d="M 154.78125 210.148438 C 142.78125 209.699219 140.605469 208.949219 138.132812 207.523438 C 135.054688 205.726562 131.082031 202.273438 128.832031 199.351562 C 126.957031 197.023438 125.605469 195.074219 124.78125 192 C 123.65625 187.726562 123.730469 180.976562 124.40625 175.648438 C 125.082031 170.398438 127.929688 164.625 128.605469 160.425781 C 129.054688 157.425781 128.230469 154.875 128.832031 152.773438 C 129.28125 151.199219 130.105469 149.476562 131.230469 148.800781 C 132.28125 148.199219 134.007812 148.125 135.132812 148.574219 C 136.257812 149.101562 136.929688 150.976562 137.980469 151.949219 C 139.03125 152.851562 139.855469 153.449219 141.429688 154.199219 C 143.980469 155.476562 149.304688 156.523438 152.605469 158.023438 C 155.304688 159.300781 157.554688 160.648438 159.804688 162.300781 C 161.90625 163.875 164.082031 165.601562 165.65625 167.699219 C 167.15625 169.800781 168.355469 172.351562 169.179688 174.75 C 169.929688 177.148438 170.230469 179.476562 170.53125 182.175781 C 170.832031 185.550781 171.28125 190.125 170.757812 193.574219 C 170.230469 196.574219 169.332031 199.273438 167.832031 201.675781 C 166.332031 204.148438 163.632812 206.625 161.679688 208.199219 C 160.257812 209.398438 159.207031 210.675781 157.632812 210.824219 C 155.605469 210.898438 151.179688 208.648438 150.429688 207.300781 C 149.980469 206.625 150.28125 205.648438 150.582031 204.976562 C 150.957031 204.226562 151.554688 203.550781 152.230469 203.175781 C 152.90625 202.800781 153.804688 202.648438 154.554688 202.726562 C 155.304688 202.875 156.207031 203.25 156.730469 203.851562 C 157.332031 204.601562 157.929688 206.175781 157.707031 207.226562 C 157.554688 208.199219 156.429688 209.550781 155.53125 209.925781 C 154.554688 210.300781 152.832031 210.074219 152.007812 209.625 C 151.257812 209.25 150.730469 208.5 150.507812 207.75 C 150.28125 206.773438 150.507812 205.050781 151.03125 204.226562 C 151.40625 203.550781 152.230469 203.101562 152.980469 202.875 C 153.730469 202.648438 154.632812 202.574219 155.382812 202.949219 C 156.28125 203.398438 157.855469 205.425781 157.707031 205.574219 C 157.554688 205.800781 154.632812 204.898438 154.554688 204.148438 C 154.40625 203.023438 159.429688 200.550781 160.855469 198.824219 C 161.757812 197.625 162.28125 196.726562 162.65625 195.300781 C 163.257812 193.199219 163.257812 190.050781 163.257812 187.351562 C 163.179688 184.648438 163.257812 181.574219 162.582031 178.949219 C 161.90625 176.324219 160.632812 173.324219 159.355469 171.601562 C 158.457031 170.398438 157.480469 169.949219 156.207031 169.050781 C 154.480469 167.851562 152.382812 166.351562 149.679688 165 C 145.855469 163.125 137.304688 161.925781 135.054688 159.675781 C 133.929688 158.476562 133.480469 156.898438 133.707031 155.773438 C 133.929688 154.726562 135.882812 152.851562 136.40625 153.074219 C 137.082031 153.375 136.480469 157.875 135.957031 160.875 C 135.28125 165.226562 132.429688 171.675781 131.832031 176.550781 C 131.230469 180.75 131.304688 185.398438 131.757812 188.324219 C 132.054688 190.125 132.207031 191.023438 133.105469 192.601562 C 134.679688 195.074219 139.480469 199.425781 141.882812 201.074219 C 143.230469 201.976562 143.90625 202.273438 145.40625 202.648438 C 147.730469 203.101562 152.679688 202.199219 154.78125 202.648438 C 155.90625 202.800781 156.65625 203.101562 157.257812 203.550781 C 157.78125 203.925781 158.15625 204.449219 158.304688 205.050781 C 158.53125 205.800781 158.605469 206.925781 158.304688 207.675781 C 158.007812 208.5 157.179688 209.324219 156.582031 209.699219 C 155.980469 210 154.78125 210.148438 154.78125 210.148438 "/></clipPath><clipPath id="65f1b85e15"><path d="M 64.296875 182.042969 L 125.464844 182.042969 L 125.464844 220.105469 L 64.296875 220.105469 Z M 64.296875 182.042969 "/></clipPath><clipPath id="9265e75a57"><path d="M 123.882812 207.226562 C 115.480469 215.699219 113.230469 216.375 110.53125 217.199219 C 107.082031 218.324219 102.054688 219.449219 98.457031 219.75 C 95.605469 220.050781 93.054688 220.273438 90.65625 219.523438 C 88.257812 218.773438 86.15625 216.898438 84.132812 215.25 C 82.105469 213.675781 80.382812 211.199219 78.582031 209.925781 C 77.15625 208.949219 76.03125 208.5 74.382812 207.976562 C 72.132812 207.300781 67.78125 208.050781 66.132812 206.773438 C 64.929688 205.800781 64.179688 203.625 64.40625 202.273438 C 64.632812 201.148438 65.53125 200.476562 66.957031 199.199219 C 70.554688 196.050781 82.632812 188.324219 88.105469 185.625 C 91.257812 184.125 92.980469 183.449219 95.90625 182.851562 C 99.429688 182.175781 104.832031 182.101562 107.832031 182.324219 C 109.707031 182.476562 110.980469 182.699219 112.40625 183.148438 C 113.679688 183.601562 114.804688 184.050781 116.007812 185.023438 C 117.804688 186.375 120.132812 188.851562 121.632812 191.023438 C 122.980469 193.199219 124.03125 195.75 124.632812 198 C 125.15625 200.101562 125.53125 202.5 125.230469 204.148438 C 125.007812 205.425781 124.257812 206.699219 123.582031 207.300781 C 123.132812 207.675781 122.53125 207.898438 121.929688 207.898438 C 121.179688 207.976562 120.054688 207.824219 119.382812 207.300781 C 118.554688 206.625 117.804688 205.125 117.730469 204.148438 C 117.65625 203.550781 117.882812 202.949219 118.179688 202.351562 C 118.554688 201.75 119.230469 201 119.980469 200.773438 C 120.882812 200.398438 122.605469 200.476562 123.429688 201 C 124.332031 201.523438 125.15625 203.023438 125.230469 204.074219 C 125.230469 205.050781 124.40625 206.550781 123.730469 207.226562 C 123.054688 207.75 122.15625 207.976562 121.40625 207.898438 C 120.65625 207.898438 119.757812 207.675781 119.15625 207.148438 C 118.480469 206.476562 117.65625 204.976562 117.730469 203.925781 C 117.804688 202.875 118.78125 201.523438 119.605469 200.925781 C 120.28125 200.476562 121.179688 200.398438 121.929688 200.476562 C 122.679688 200.550781 123.582031 200.925781 124.105469 201.523438 C 124.707031 202.125 125.230469 203.324219 125.230469 204.148438 C 125.230469 205.050781 124.855469 206.023438 124.257812 206.699219 C 123.730469 207.300781 122.757812 207.824219 121.929688 207.898438 C 121.105469 207.976562 120.054688 207.75 119.382812 207.300781 C 118.632812 206.773438 118.105469 206.023438 117.804688 205.050781 C 117.429688 203.851562 117.957031 201.976562 117.730469 200.550781 C 117.429688 199.273438 116.980469 198.074219 116.382812 196.875 C 115.78125 195.675781 115.03125 194.550781 114.207031 193.574219 C 113.382812 192.601562 112.480469 191.625 111.355469 190.949219 C 110.230469 190.351562 109.03125 190.050781 107.457031 189.824219 C 105.355469 189.523438 102.28125 189.523438 99.730469 189.824219 C 97.257812 190.199219 95.15625 190.648438 92.304688 192 C 87.65625 194.101562 78.882812 200.851562 75.207031 202.800781 C 73.554688 203.625 72.207031 204.75 71.53125 204.300781 C 70.855469 203.851562 70.554688 200.773438 71.230469 200.101562 C 71.832031 199.5 73.855469 200.175781 75.355469 200.550781 C 77.457031 201.148438 80.082031 202.050781 82.480469 203.550781 C 85.40625 205.425781 88.929688 210.226562 91.480469 211.5 C 92.832031 212.25 93.65625 212.25 95.15625 212.324219 C 97.332031 212.476562 100.78125 211.949219 103.40625 211.351562 C 106.03125 210.824219 108.507812 210.449219 110.980469 209.023438 C 114.132812 207.375 117.957031 201.824219 120.207031 201.226562 C 121.257812 201 122.15625 201.375 122.832031 201.75 C 123.355469 202.050781 123.804688 202.5 124.105469 203.023438 C 124.40625 203.476562 124.632812 204.074219 124.632812 204.675781 C 124.632812 205.425781 123.882812 207.226562 123.882812 207.226562 "/></clipPath><clipPath id="16133a542c"><path d="M 117.652344 200 L 201.476562 200 L 201.476562 263.058594 L 117.652344 263.058594 Z M 117.652344 200 "/></clipPath><clipPath id="711cd3ae6e"><path d="M 121.480469 200.023438 C 138.882812 200.398438 141.882812 200.625 144.207031 201.148438 C 145.929688 201.523438 146.832031 201.976562 148.554688 202.648438 C 151.40625 203.699219 155.457031 204.898438 159.65625 207.300781 C 166.03125 210.976562 176.605469 218.550781 182.304688 224.175781 C 186.582031 228.300781 189.132812 232.125 191.90625 236.625 C 194.757812 241.199219 197.53125 247.351562 199.179688 251.625 C 200.304688 254.550781 201.507812 257.398438 201.429688 259.199219 C 201.429688 260.25 201.132812 261.074219 200.53125 261.75 C 199.855469 262.425781 198.355469 263.101562 197.304688 263.023438 C 196.257812 262.875 194.90625 261.976562 194.457031 261.074219 C 193.929688 260.023438 194.230469 257.925781 194.757812 257.023438 C 195.132812 256.273438 195.957031 255.824219 196.707031 255.675781 C 197.457031 255.449219 198.355469 255.449219 199.105469 255.75 C 200.007812 256.199219 201.132812 257.550781 201.355469 258.449219 C 201.582031 259.199219 201.429688 260.175781 201.132812 260.851562 C 200.832031 261.523438 200.15625 262.199219 199.480469 262.574219 C 198.804688 262.949219 197.832031 263.101562 197.082031 262.949219 C 196.332031 262.875 195.507812 262.5 194.980469 261.824219 C 194.382812 261.074219 193.855469 259.5 194.082031 258.449219 C 194.304688 257.476562 195.429688 256.199219 196.332031 255.75 C 197.082031 255.449219 197.980469 255.449219 198.730469 255.675781 C 199.480469 255.824219 200.304688 256.273438 200.679688 257.023438 C 201.207031 257.925781 201.355469 260.023438 201.054688 260.925781 C 200.832031 261.601562 200.457031 261.976562 199.855469 262.351562 C 199.257812 262.726562 198.132812 263.101562 197.304688 263.023438 C 196.332031 262.800781 195.132812 262.050781 194.457031 261.074219 C 193.40625 259.726562 193.554688 257.625 192.582031 255.300781 C 191.082031 251.476562 187.707031 244.273438 185.457031 240.375 C 183.882812 237.675781 182.679688 235.875 181.03125 233.851562 C 179.304688 231.75 177.804688 230.25 175.179688 228 C 170.605469 224.101562 160.480469 216.375 155.382812 213.449219 C 152.457031 211.800781 150.582031 211.273438 148.03125 210.375 C 145.332031 209.476562 143.082031 208.648438 139.632812 208.125 C 134.457031 207.300781 122.679688 208.5 119.757812 207.074219 C 118.632812 206.550781 118.257812 205.875 117.957031 205.125 C 117.65625 204.300781 117.65625 203.175781 117.957031 202.425781 C 118.257812 201.675781 119.082031 200.851562 119.757812 200.476562 C 120.28125 200.101562 121.480469 200.023438 121.480469 200.023438 "/></clipPath><clipPath id="2b3e5083bd"><path d="M 121.816406 209.785156 L 167.371094 209.785156 L 167.371094 264.488281 L 121.816406 264.488281 Z M 121.816406 209.785156 "/></clipPath><clipPath id="fa916468de"><path d="M 154.554688 217.5 C 147.207031 217.726562 146.082031 217.875 144.355469 218.625 C 141.507812 219.75 135.882812 222.601562 133.929688 224.625 C 132.882812 225.75 132.582031 226.800781 132.132812 228 C 131.679688 229.199219 131.605469 229.949219 131.304688 231.75 C 130.707031 236.773438 132.207031 258.523438 129.730469 259.875 C 128.757812 260.398438 126.132812 258.601562 125.90625 257.625 C 125.679688 256.726562 126.730469 255.375 128.15625 254.324219 C 131.382812 252.074219 144.582031 250.726562 148.332031 249.148438 C 149.980469 248.476562 150.429688 248.175781 151.554688 247.199219 C 153.28125 245.773438 155.679688 243.300781 157.03125 240.898438 C 158.304688 238.648438 158.980469 235.949219 159.429688 233.324219 C 159.882812 230.773438 160.257812 228.148438 159.65625 225.601562 C 159.054688 222.898438 156.957031 219.300781 155.53125 217.574219 C 154.554688 216.523438 153.207031 216.300781 152.679688 215.476562 C 152.304688 214.800781 152.15625 213.898438 152.382812 213.074219 C 152.679688 212.175781 153.804688 210.824219 154.632812 210.375 C 155.382812 210.074219 156.28125 210.074219 157.03125 210.226562 C 157.78125 210.449219 158.605469 210.898438 159.054688 211.574219 C 159.582031 212.398438 159.882812 214.125 159.65625 215.023438 C 159.429688 215.851562 158.832031 216.523438 158.230469 216.976562 C 157.554688 217.425781 156.730469 217.726562 155.90625 217.648438 C 154.929688 217.5 153.429688 216.75 152.90625 215.851562 C 152.304688 214.949219 152.304688 213.226562 152.679688 212.324219 C 152.90625 211.574219 153.582031 210.976562 154.257812 210.601562 C 154.929688 210.226562 155.757812 209.925781 156.65625 210.148438 C 158.15625 210.601562 160.40625 213 161.980469 214.875 C 163.554688 216.75 165.054688 219.449219 165.957031 221.476562 C 166.632812 222.976562 167.007812 223.875 167.15625 225.601562 C 167.457031 228.523438 167.007812 233.851562 166.257812 237.300781 C 165.65625 240.148438 164.757812 242.476562 163.480469 244.800781 C 162.054688 247.125 160.105469 249.449219 158.082031 251.324219 C 156.132812 253.125 153.507812 254.851562 151.554688 255.898438 C 150.132812 256.726562 149.382812 257.023438 147.507812 257.625 C 144.054688 258.675781 134.679688 259.199219 131.757812 260.851562 C 130.257812 261.675781 130.179688 263.101562 129.054688 263.699219 C 127.78125 264.300781 125.457031 264.824219 124.257812 264.148438 C 123.132812 263.550781 122.679688 261.898438 122.230469 259.800781 C 121.332031 255.148438 122.90625 241.726562 123.429688 235.949219 C 123.65625 232.726562 123.65625 230.851562 124.257812 228.375 C 124.929688 225.75 126.132812 222.601562 127.332031 220.800781 C 128.230469 219.523438 128.90625 218.925781 130.332031 217.949219 C 132.730469 216.074219 137.90625 213.148438 141.28125 211.800781 C 143.90625 210.75 146.304688 210.300781 148.78125 210 C 151.03125 209.773438 153.882812 209.625 155.457031 210.148438 C 156.429688 210.449219 157.179688 210.898438 157.632812 211.648438 C 158.15625 212.476562 158.304688 214.125 158.007812 215.101562 C 157.78125 215.925781 156.957031 216.675781 156.28125 217.050781 C 155.757812 217.425781 154.554688 217.5 154.554688 217.5 "/></clipPath><clipPath id="46ae79b980"><path d="M 160.234375 224.089844 L 189.964844 224.089844 L 189.964844 270.136719 L 160.234375 270.136719 Z M 160.234375 224.089844 "/></clipPath><clipPath id="abcfe77cf8"><path d="M 179.605469 230.925781 C 170.15625 238.050781 169.78125 239.101562 169.257812 240.300781 C 168.730469 241.5 168.28125 242.398438 167.980469 244.199219 C 167.457031 247.648438 166.855469 257.101562 168.132812 260.175781 C 168.730469 261.75 171.132812 262.5 170.90625 263.101562 C 170.679688 263.625 167.007812 264.074219 166.632812 263.476562 C 166.105469 262.574219 168.882812 258.75 170.832031 256.425781 C 173.304688 253.5 178.929688 250.273438 180.65625 247.800781 C 181.632812 246.375 181.929688 245.324219 182.15625 243.976562 C 182.382812 242.699219 181.78125 240.675781 182.230469 240.074219 C 182.53125 239.699219 183.507812 240.074219 183.65625 239.773438 C 183.882812 239.25 182.007812 237.75 182.007812 236.699219 C 181.929688 235.648438 182.757812 234.148438 183.582031 233.550781 C 184.40625 232.949219 186.132812 232.875 187.03125 233.101562 C 187.855469 233.324219 188.53125 233.925781 188.90625 234.675781 C 189.355469 235.5 189.582031 237.226562 189.132812 238.125 C 188.757812 239.101562 187.40625 240.148438 186.429688 240.300781 C 185.382812 240.523438 183.804688 239.925781 183.054688 239.25 C 182.457031 238.726562 182.082031 237.824219 182.007812 237.074219 C 181.929688 236.324219 182.082031 235.425781 182.457031 234.75 C 182.832031 234.074219 183.507812 233.398438 184.257812 233.175781 C 185.230469 232.875 186.882812 232.800781 187.78125 233.476562 C 188.90625 234.375 189.429688 236.851562 189.730469 238.875 C 190.105469 241.125 189.730469 244.425781 189.355469 246.449219 C 189.054688 247.949219 188.679688 249 188.082031 250.125 C 187.480469 251.324219 186.730469 252.148438 185.605469 253.425781 C 183.582031 255.601562 178.78125 258.75 176.457031 261.601562 C 174.507812 263.851562 173.679688 267.300781 172.03125 268.648438 C 170.90625 269.625 169.632812 270.300781 168.355469 270.074219 C 166.480469 269.773438 163.480469 266.773438 162.207031 264.976562 C 161.304688 263.699219 160.929688 262.273438 160.632812 260.925781 C 160.332031 259.648438 160.40625 258.824219 160.332031 257.101562 C 160.332031 253.574219 159.882812 245.398438 160.929688 241.125 C 161.757812 237.976562 163.480469 235.273438 164.679688 233.398438 C 165.582031 232.125 166.105469 231.601562 167.230469 230.550781 C 169.105469 228.898438 173.082031 225.675781 175.332031 224.773438 C 176.679688 224.25 177.882812 224.101562 178.78125 224.324219 C 179.605469 224.625 180.429688 225.375 180.804688 226.125 C 181.179688 226.875 181.332031 227.925781 181.105469 228.75 C 180.882812 229.574219 179.605469 230.925781 179.605469 230.925781 "/></clipPath><clipPath id="5a35da5254"><path d="M 171.574219 184.847656 L 198.78125 184.847656 L 198.78125 229.761719 L 171.574219 229.761719 Z M 171.574219 184.847656 "/></clipPath><clipPath id="e5964149d0"><path d="M 173.53125 222.449219 C 171.507812 214.425781 171.132812 211.574219 172.105469 208.351562 C 173.679688 203.550781 179.832031 195.675781 183.207031 191.773438 C 185.304688 189.300781 187.332031 187.425781 189.207031 186.300781 C 190.40625 185.550781 191.53125 185.101562 192.730469 185.023438 C 193.929688 184.875 195.507812 184.949219 196.554688 185.550781 C 197.53125 186.226562 198.28125 187.351562 198.65625 188.773438 C 199.105469 190.800781 197.980469 193.726562 197.832031 197.101562 C 197.605469 202.351562 198.355469 213.074219 198.054688 217.199219 C 197.90625 219.074219 197.832031 219.976562 197.382812 221.175781 C 196.929688 222.449219 196.332031 223.574219 195.28125 224.699219 C 193.632812 226.425781 190.554688 229.273438 188.082031 229.648438 C 185.605469 229.949219 181.332031 228.449219 180.355469 227.175781 C 179.832031 226.5 180.054688 225.523438 180.28125 224.773438 C 180.507812 224.101562 180.957031 223.273438 181.632812 222.824219 C 182.457031 222.300781 184.179688 222.074219 185.15625 222.300781 C 185.90625 222.523438 186.582031 223.199219 187.03125 223.800781 C 187.40625 224.476562 187.707031 225.300781 187.632812 226.125 C 187.480469 227.101562 186.65625 228.601562 185.757812 229.125 C 184.855469 229.648438 183.132812 229.726562 182.230469 229.273438 C 181.332031 228.824219 180.355469 227.324219 180.132812 226.425781 C 179.980469 225.601562 180.207031 224.699219 180.582031 224.023438 C 180.957031 223.425781 181.554688 222.675781 182.382812 222.449219 C 183.28125 222.148438 185.007812 222.226562 185.832031 222.675781 C 186.582031 223.050781 187.40625 224.550781 187.40625 224.550781 C 187.332031 224.550781 185.605469 223.199219 185.679688 222.601562 C 185.832031 221.773438 188.457031 221.25 189.28125 220.273438 C 190.03125 219.226562 190.257812 218.324219 190.554688 216.601562 C 191.15625 212.699219 190.105469 202.125 190.332031 197.101562 C 190.480469 193.949219 190.480469 189.523438 191.15625 189.375 C 191.605469 189.300781 193.257812 191.773438 193.03125 192.75 C 192.882812 193.726562 191.230469 194.023438 190.03125 195.300781 C 187.632812 197.851562 182.457031 204.976562 180.730469 207.976562 C 179.90625 209.398438 179.53125 210.226562 179.230469 211.425781 C 179.007812 212.699219 178.929688 213.824219 179.082031 215.25 C 179.304688 217.050781 180.882812 220.050781 180.957031 221.476562 C 180.957031 222.226562 180.804688 222.675781 180.507812 223.199219 C 180.132812 223.875 179.230469 224.699219 178.554688 225 C 177.957031 225.300781 177.355469 225.300781 176.757812 225.226562 C 176.230469 225.226562 175.554688 225 175.105469 224.625 C 174.507812 224.175781 173.53125 222.449219 173.53125 222.449219 "/></clipPath><clipPath id="f576fdb740"><path d="M 185.425781 153.046875 L 206.523438 153.046875 L 206.523438 334.542969 L 185.425781 334.542969 Z M 185.425781 153.046875 "/></clipPath><clipPath id="522d0fc2df"><path d="M 200.457031 156.300781 C 205.03125 175.351562 205.332031 179.101562 205.707031 185.773438 C 206.304688 197.925781 207.054688 226.351562 205.929688 237.375 C 205.40625 242.625 204.28125 244.050781 203.53125 248.925781 C 202.257812 256.875 201.65625 271.425781 200.304688 280.800781 C 199.179688 288.300781 197.382812 294.148438 196.480469 300.898438 C 195.582031 307.648438 195.730469 315.675781 194.980469 321.375 C 194.382812 325.5 193.78125 329.851562 192.804688 331.875 C 192.429688 332.851562 192.054688 333.375 191.382812 333.824219 C 190.78125 334.199219 189.804688 334.5 189.054688 334.425781 C 188.304688 334.425781 187.40625 334.050781 186.882812 333.601562 C 186.28125 333.074219 185.757812 332.324219 185.605469 331.5 C 185.53125 330.523438 185.980469 328.875 186.582031 328.125 C 187.105469 327.523438 187.855469 327.074219 188.679688 327 C 189.65625 326.925781 191.304688 327.375 191.980469 328.125 C 192.730469 328.875 193.179688 330.523438 192.957031 331.5 C 192.730469 332.550781 191.53125 333.75 190.707031 334.199219 C 189.957031 334.574219 188.980469 334.5 188.304688 334.351562 C 187.554688 334.125 186.730469 333.601562 186.28125 333 C 185.832031 332.398438 185.605469 331.800781 185.53125 330.675781 C 185.304688 328.199219 187.257812 322.273438 187.78125 317.699219 C 188.382812 312.601562 188.230469 307.425781 188.980469 301.425781 C 189.882812 293.925781 191.980469 285 193.179688 276.300781 C 194.53125 266.851562 195.207031 254.476562 196.332031 246.75 C 197.082031 241.726562 198.132812 239.925781 198.65625 234.300781 C 199.554688 223.199219 198.582031 195 197.980469 183.824219 C 197.679688 178.351562 197.457031 175.800781 196.707031 171.523438 C 195.882812 166.726562 192.65625 159.300781 192.957031 156.523438 C 193.105469 155.324219 193.554688 154.726562 194.15625 154.125 C 194.757812 153.601562 195.804688 153.148438 196.632812 153.148438 C 197.457031 153.074219 198.507812 153.449219 199.105469 153.976562 C 199.78125 154.574219 200.457031 156.300781 200.457031 156.300781 "/></clipPath><clipPath id="60d3775c56"><path d="M 240.773438 158.144531 L 310.660156 158.144531 L 310.660156 191.058594 L 240.773438 191.058594 Z M 240.773438 158.144531 "/></clipPath><clipPath id="6b2d3ea7c6"><path d="M 244.070312 170.664062 C 253.667969 162.1875 255.84375 160.988281 258.695312 160.085938 C 262.21875 159.039062 266.945312 158.4375 270.992188 158.289062 C 274.894531 158.136719 278.792969 158.210938 282.617188 159.113281 C 286.59375 160.011719 290.71875 161.738281 294.242188 163.761719 C 297.695312 165.710938 300.769531 168.1875 303.46875 170.960938 C 306.167969 173.738281 310.367188 177.863281 310.519531 180.488281 C 310.59375 182.210938 309.394531 183.9375 308.042969 184.835938 C 306.242188 185.960938 303.242188 185.0625 300.09375 185.585938 C 295.070312 186.488281 287.042969 189.710938 280.894531 190.460938 C 275.492188 191.210938 268.667969 191.0625 265.21875 190.761719 C 263.492188 190.613281 262.894531 190.460938 261.320312 189.9375 C 258.617188 189.113281 253.820312 187.011719 250.742188 185.289062 C 248.195312 183.9375 245.867188 182.289062 244.21875 180.789062 C 242.945312 179.664062 241.59375 178.6875 241.144531 177.414062 C 240.769531 176.363281 240.917969 174.789062 241.367188 173.886719 C 241.742188 173.210938 242.492188 172.613281 243.167969 172.386719 C 243.917969 172.085938 244.820312 172.011719 245.570312 172.238281 C 246.320312 172.460938 247.144531 172.988281 247.59375 173.585938 C 248.042969 174.1875 248.34375 175.085938 248.34375 175.835938 C 248.34375 176.585938 248.042969 177.488281 247.59375 178.085938 C 247.070312 178.6875 246.394531 179.289062 245.570312 179.4375 C 244.59375 179.664062 242.945312 179.289062 242.117188 178.6875 C 241.519531 178.238281 241.070312 177.414062 240.917969 176.664062 C 240.769531 175.914062 240.769531 174.9375 241.144531 174.261719 C 241.667969 173.4375 243.019531 172.386719 243.992188 172.164062 C 244.742188 171.9375 245.417969 172.085938 246.320312 172.539062 C 248.195312 173.363281 250.820312 176.738281 253.667969 178.386719 C 256.96875 180.335938 260.867188 182.363281 265.070312 183.1875 C 269.867188 184.085938 275.34375 183.710938 280.820312 183.039062 C 286.96875 182.210938 296.117188 178.011719 300.09375 178.085938 C 301.894531 178.164062 303.242188 178.386719 303.917969 179.289062 C 304.59375 180.113281 304.667969 183.113281 304.070312 183.335938 C 302.945312 183.863281 296.71875 174.261719 292.519531 171.414062 C 288.917969 168.9375 283.820312 167.289062 280.96875 166.386719 C 279.242188 165.9375 278.71875 165.863281 276.917969 165.789062 C 273.320312 165.636719 265.21875 165.9375 261.09375 167.210938 C 258.167969 168.113281 256.070312 169.460938 254.042969 171.039062 C 252.09375 172.539062 250.367188 175.3125 249.09375 176.210938 C 248.492188 176.585938 248.042969 176.738281 247.445312 176.8125 C 246.84375 176.886719 246.242188 176.886719 245.644531 176.664062 C 244.96875 176.363281 244.070312 175.613281 243.617188 174.9375 C 243.242188 174.1875 243.167969 173.0625 243.320312 172.3125 C 243.394531 171.636719 244.070312 170.664062 244.070312 170.664062 "/></clipPath><clipPath id="453dc058a8"><path d="M 219.03125 179.597656 L 243.890625 179.597656 L 243.890625 227.058594 L 219.03125 227.058594 Z M 219.03125 179.597656 "/></clipPath><clipPath id="2696cf2c08"><path d="M 233.832031 191.101562 C 226.554688 199.425781 226.179688 200.25 226.554688 201.824219 C 227.304688 205.5 238.257812 215.699219 237.65625 218.476562 C 237.429688 219.675781 234.957031 220.875 234.507812 220.5 C 233.832031 220.050781 235.78125 215.925781 236.007812 212.851562 C 236.382812 208.425781 236.832031 201.375 235.480469 196.425781 C 234.132812 191.625 228.355469 185.925781 228.132812 183.375 C 228.054688 182.324219 228.355469 181.648438 228.957031 181.050781 C 229.554688 180.375 231.132812 179.699219 232.105469 179.625 C 232.929688 179.625 233.757812 180.074219 234.355469 180.601562 C 234.957031 181.050781 235.480469 181.875 235.554688 182.625 C 235.707031 183.601562 235.179688 185.25 234.582031 186 C 234.054688 186.601562 233.230469 187.050781 232.40625 187.125 C 231.429688 187.199219 229.855469 186.675781 229.105469 185.925781 C 228.429688 185.175781 227.980469 183.523438 228.207031 182.550781 C 228.507812 181.5 229.554688 180.226562 230.53125 179.925781 C 231.507812 179.550781 232.855469 179.625 234.054688 180.300781 C 236.304688 181.648438 239.757812 187.273438 241.332031 190.574219 C 242.605469 193.125 243.054688 195.074219 243.429688 198.074219 C 244.03125 202.351562 243.957031 209.699219 243.507812 214.050781 C 243.207031 217.050781 242.605469 219.601562 241.855469 221.699219 C 241.332031 223.273438 240.957031 224.699219 239.980469 225.601562 C 239.007812 226.5 237.355469 227.175781 236.15625 227.023438 C 234.882812 226.875 233.980469 225.976562 232.707031 224.550781 C 229.554688 221.175781 221.90625 208.949219 220.105469 204.601562 C 219.28125 202.726562 218.980469 201.824219 219.054688 200.175781 C 219.28125 197.925781 220.480469 194.851562 222.054688 192.523438 C 223.707031 189.824219 227.304688 186.300781 229.257812 185.25 C 230.230469 184.726562 231.054688 184.648438 231.882812 184.800781 C 232.632812 184.949219 233.605469 185.550781 234.132812 186.148438 C 234.65625 186.824219 234.957031 187.875 234.882812 188.699219 C 234.882812 189.523438 233.832031 191.101562 233.832031 191.101562 "/></clipPath><clipPath id="c1f98253c5"><path d="M 204.488281 154.335938 L 236.996094 154.335938 L 236.996094 187.140625 L 204.488281 187.140625 Z M 204.488281 154.335938 "/></clipPath><clipPath id="e6273787a7"><path d="M 227.605469 187.125 C 216.429688 185.023438 215.605469 184.425781 214.332031 183.449219 C 212.605469 182.023438 210.28125 179.925781 208.929688 177.75 C 207.582031 175.648438 206.90625 173.324219 206.230469 170.625 C 205.40625 167.25 204.132812 161.699219 204.65625 158.851562 C 204.957031 157.125 205.707031 155.550781 206.757812 154.875 C 207.804688 154.199219 209.082031 154.273438 210.804688 154.648438 C 214.105469 155.324219 221.082031 158.773438 224.832031 161.851562 C 228.054688 164.550781 230.757812 168.976562 232.332031 171.375 C 233.230469 172.726562 234.207031 173.625 234.207031 174.675781 C 234.132812 175.726562 232.03125 177.148438 232.332031 177.824219 C 232.632812 178.5 234.957031 178.050781 235.707031 178.800781 C 236.457031 179.476562 236.980469 181.125 236.832031 182.101562 C 236.679688 183.148438 235.632812 184.5 234.65625 184.949219 C 233.757812 185.324219 232.03125 185.175781 231.207031 184.726562 C 230.457031 184.351562 229.855469 183.675781 229.632812 182.851562 C 229.332031 181.949219 229.554688 180.226562 230.007812 179.398438 C 230.457031 178.726562 231.132812 178.125 231.957031 177.976562 C 232.855469 177.75 234.582031 177.976562 235.40625 178.5 C 236.082031 178.949219 236.53125 179.773438 236.757812 180.523438 C 236.90625 181.273438 236.980469 182.175781 236.605469 182.925781 C 236.15625 183.75 234.957031 185.175781 233.90625 185.175781 C 232.40625 185.175781 229.632812 182.324219 228.582031 180.75 C 227.757812 179.550781 228.054688 178.425781 227.382812 177.074219 C 226.40625 175.125 224.230469 172.273438 222.730469 170.476562 C 221.605469 169.125 220.855469 168.300781 219.28125 167.25 C 216.804688 165.449219 208.554688 162.824219 208.632812 161.851562 C 208.707031 161.25 211.554688 160.351562 212.457031 160.949219 C 213.730469 161.773438 213.054688 167.101562 213.582031 169.273438 C 213.957031 170.851562 214.257812 171.898438 214.929688 173.101562 C 215.605469 174.300781 216.65625 175.5 217.707031 176.476562 C 218.679688 177.375 219.582031 178.125 220.929688 178.648438 C 222.804688 179.398438 226.40625 179.101562 228.054688 179.699219 C 229.105469 180.074219 229.855469 180.375 230.304688 181.050781 C 230.90625 181.875 231.207031 183.523438 230.980469 184.5 C 230.757812 185.324219 229.929688 186.148438 229.332031 186.601562 C 228.804688 186.898438 227.605469 187.125 227.605469 187.125 "/></clipPath><clipPath id="ee9e7b88b4"><path d="M 200.785156 172.152344 L 250.464844 172.152344 L 250.464844 205.324219 L 200.785156 205.324219 Z M 200.785156 172.152344 "/></clipPath><clipPath id="8b438c3f2d"><path d="M 202.257812 198.449219 C 216.730469 186.824219 220.929688 183.601562 225.355469 181.050781 C 230.007812 178.351562 236.007812 175.425781 239.90625 173.925781 C 242.382812 173.023438 244.632812 172.273438 246.207031 172.273438 C 247.179688 172.199219 247.855469 172.273438 248.53125 172.726562 C 249.355469 173.25 250.332031 174.675781 250.40625 175.726562 C 250.480469 176.773438 249.730469 178.273438 248.980469 178.949219 C 248.382812 179.476562 247.554688 179.773438 246.730469 179.699219 C 245.757812 179.625 244.179688 178.875 243.582031 178.125 C 243.054688 177.523438 242.832031 176.625 242.90625 175.800781 C 243.054688 174.898438 243.804688 173.324219 244.707031 172.800781 C 245.53125 172.273438 247.257812 172.199219 248.15625 172.574219 C 248.90625 172.800781 249.582031 173.476562 249.957031 174.148438 C 250.332031 174.824219 250.480469 175.800781 250.40625 176.550781 C 250.257812 177.300781 250.105469 177.898438 249.28125 178.648438 C 246.957031 180.824219 236.605469 183.375 231.207031 186.300781 C 226.332031 188.925781 222.355469 191.925781 218.15625 195.074219 C 213.957031 198.148438 208.78125 203.851562 206.082031 204.898438 C 204.957031 205.273438 204.207031 205.273438 203.382812 204.976562 C 202.632812 204.75 201.730469 204.074219 201.355469 203.324219 C 200.90625 202.648438 200.757812 201.523438 200.90625 200.699219 C 201.054688 199.949219 202.257812 198.449219 202.257812 198.449219 "/></clipPath></defs><g id="f9951d7011"><g clip-rule="nonzero" clip-path="url(#151d78977a)"><g clip-rule="nonzero" clip-path="url(#7135627e43)"><path style=" stroke:none;fill-rule:nonzero;fill:currentColor;fill-opacity:1;" d="M 113.007812 93.824219 L 166.929688 93.824219 L 166.929688 150.910156 L 113.007812 150.910156 Z M 113.007812 93.824219 "/></g></g><g clip-rule="nonzero" clip-path="url(#0b206d1469)"><g clip-rule="nonzero" clip-path="url(#572c542558)"><path style=" stroke:none;fill-rule:nonzero;fill:currentColor;fill-opacity:1;" d="M 150.957031 116.398438 L 248.296875 116.398438 L 248.296875 158.925781 L 150.957031 158.925781 Z M 150.957031 116.398438 "/></g></g><g clip-rule="nonzero" clip-path="url(#f87c19f257)"><g clip-rule="nonzero" clip-path="url(#a908f4836b)"><path style=" stroke:none;fill-rule:nonzero;fill:currentColor;fill-opacity:1;" d="M 231.28125 67.273438 L 275.757812 67.273438 L 275.757812 139.027344 L 231.28125 139.027344 Z M 231.28125 67.273438 "/></g></g><g clip-rule="nonzero" clip-path="url(#7d5d2c5d52)"><g clip-rule="nonzero" clip-path="url(#83e6b1f024)"><path style=" stroke:none;fill-rule:nonzero;fill:currentColor;fill-opacity:1;" d="M 219.28125 43.949219 L 267.695312 43.949219 L 267.695312 79.875 L 219.28125 79.875 Z M 219.28125 43.949219 "/></g></g><g clip-rule="nonzero" clip-path="url(#fbfbc18f06)"><g clip-rule="nonzero" clip-path="url(#0eaff35c24)"><path style=" stroke:none;fill-rule:nonzero;fill:currentColor;fill-opacity:1;" d="M 136.929688 41.25 L 179.679688 41.25 L 179.679688 117.898438 L 136.929688 117.898438 Z M 136.929688 41.25 "/></g></g><g clip-rule="nonzero" clip-path="url(#cfd07360af)"><g clip-rule="nonzero" clip-path="url(#72764393bf)"><path style=" stroke:none;fill-rule:nonzero;fill:currentColor;fill-opacity:1;" d="M 160.78125 37.648438 L 215.679688 37.648438 L 215.679688 136.082031 L 160.78125 136.082031 Z M 160.78125 37.648438 "/></g></g><g clip-rule="nonzero" clip-path="url(#4ff9ac0a80)"><g clip-rule="nonzero" clip-path="url(#fafe3b1ace)"><path style=" stroke:none;fill-rule:nonzero;fill:currentColor;fill-opacity:1;" d="M 180.730469 71.925781 L 238.105469 71.925781 L 238.105469 137.816406 L 180.730469 137.816406 Z M 180.730469 71.925781 "/></g></g><g clip-rule="nonzero" clip-path="url(#2d27c78f98)"><g clip-rule="nonzero" clip-path="url(#488cdb740d)"><path style=" stroke:none;fill-rule:nonzero;fill:currentColor;fill-opacity:1;" d="M 186.132812 71.699219 L 224.90625 71.699219 L 224.90625 115.472656 L 186.132812 115.472656 Z M 186.132812 71.699219 "/></g></g><g clip-rule="nonzero" clip-path="url(#f73e503a61)"><g clip-rule="nonzero" clip-path="url(#62a79a0563)"><path style=" stroke:none;fill-rule:nonzero;fill:currentColor;fill-opacity:1;" d="M 189.957031 62.023438 L 206.53125 62.023438 L 206.53125 87.277344 L 189.957031 87.277344 Z M 189.957031 62.023438 "/></g></g><g clip-rule="nonzero" clip-path="url(#0479040e9d)"><g clip-rule="nonzero" clip-path="url(#a074a94f0f)"><path style=" stroke:none;fill-rule:nonzero;fill:currentColor;fill-opacity:1;" d="M 189.957031 61.949219 L 203.460938 61.949219 L 203.460938 75.300781 L 189.957031 75.300781 Z M 189.957031 61.949219 "/></g></g><g clip-rule="nonzero" clip-path="url(#126959250e)"><g clip-rule="nonzero" clip-path="url(#99624c71d9)"><path style=" stroke:none;fill-rule:nonzero;fill:currentColor;fill-opacity:1;" d="M 190.257812 61.351562 L 215.332031 61.351562 L 215.332031 85.574219 L 190.257812 85.574219 Z M 190.257812 61.351562 "/></g></g><g clip-rule="nonzero" clip-path="url(#857c4157dc)"><g clip-rule="nonzero" clip-path="url(#a4637faf45)"><path style=" stroke:none;fill-rule:nonzero;fill:currentColor;fill-opacity:1;" d="M 177.582031 44.851562 L 250.929688 44.851562 L 250.929688 125.078125 L 177.582031 125.078125 Z M 177.582031 44.851562 "/></g></g><g clip-rule="nonzero" clip-path="url(#bd17060970)"><g clip-rule="nonzero" clip-path="url(#c118b42ae7)"><path style=" stroke:none;fill-rule:nonzero;fill:currentColor;fill-opacity:1;" d="M 121.40625 145.574219 L 173.757812 145.574219 L 173.757812 213.875 L 121.40625 213.875 Z M 121.40625 145.574219 "/></g></g><g clip-rule="nonzero" clip-path="url(#65f1b85e15)"><g clip-rule="nonzero" clip-path="url(#9265e75a57)"><path style=" stroke:none;fill-rule:nonzero;fill:currentColor;fill-opacity:1;" d="M 61.40625 179.324219 L 128.355469 179.324219 L 128.355469 222.824219 L 61.40625 222.824219 Z M 61.40625 179.324219 "/></g></g><g clip-rule="nonzero" clip-path="url(#16133a542c)"><g clip-rule="nonzero" clip-path="url(#711cd3ae6e)"><path style=" stroke:none;fill-rule:nonzero;fill:currentColor;fill-opacity:1;" d="M 114.957031 197.023438 L 204.441406 197.023438 L 204.441406 266.023438 L 114.957031 266.023438 Z M 114.957031 197.023438 "/></g></g><g clip-rule="nonzero" clip-path="url(#2b3e5083bd)"><g clip-rule="nonzero" clip-path="url(#fa916468de)"><path style=" stroke:none;fill-rule:nonzero;fill:currentColor;fill-opacity:1;" d="M 119.230469 207 L 170.15625 207 L 170.15625 267.273438 L 119.230469 267.273438 Z M 119.230469 207 "/></g></g><g clip-rule="nonzero" clip-path="url(#46ae79b980)"><g clip-rule="nonzero" clip-path="url(#abcfe77cf8)"><path style=" stroke:none;fill-rule:nonzero;fill:currentColor;fill-opacity:1;" d="M 157.332031 221.324219 L 192.730469 221.324219 L 192.730469 273.042969 L 157.332031 273.042969 Z M 157.332031 221.324219 "/></g></g><g clip-rule="nonzero" clip-path="url(#5a35da5254)"><g clip-rule="nonzero" clip-path="url(#e5964149d0)"><path style=" stroke:none;fill-rule:nonzero;fill:currentColor;fill-opacity:1;" d="M 168.882812 182.023438 L 201.730469 182.023438 L 201.730469 232.710938 L 168.882812 232.710938 Z M 168.882812 182.023438 "/></g></g><g clip-rule="nonzero" clip-path="url(#f576fdb740)"><g clip-rule="nonzero" clip-path="url(#522d0fc2df)"><path style=" stroke:none;fill-rule:nonzero;fill:currentColor;fill-opacity:1;" d="M 182.53125 150.148438 L 209.007812 150.148438 L 209.007812 337.542969 L 182.53125 337.542969 Z M 182.53125 150.148438 "/></g></g><g clip-rule="nonzero" clip-path="url(#60d3775c56)"><g clip-rule="nonzero" clip-path="url(#6b2d3ea7c6)"><path style=" stroke:none;fill-rule:nonzero;fill:currentColor;fill-opacity:1;" d="M 237.917969 155.289062 L 313.667969 155.289062 L 313.667969 193.761719 L 237.917969 193.761719 Z M 237.917969 155.289062 "/></g></g><g clip-rule="nonzero" clip-path="url(#453dc058a8)"><g clip-rule="nonzero" clip-path="url(#2696cf2c08)"><path style=" stroke:none;fill-rule:nonzero;fill:currentColor;fill-opacity:1;" d="M 216.054688 176.625 L 246.507812 176.625 L 246.507812 230.03125 L 216.054688 230.03125 Z M 216.054688 176.625 "/></g></g><g clip-rule="nonzero" clip-path="url(#c1f98253c5)"><g clip-rule="nonzero" clip-path="url(#e6273787a7)"><path style=" stroke:none;fill-rule:nonzero;fill:currentColor;fill-opacity:1;" d="M 201.65625 151.648438 L 239.832031 151.648438 L 239.832031 190.125 L 201.65625 190.125 Z M 201.65625 151.648438 "/></g></g><g clip-rule="nonzero" clip-path="url(#ee9e7b88b4)"><g clip-rule="nonzero" clip-path="url(#8b438c3f2d)"><path style=" stroke:none;fill-rule:nonzero;fill:currentColor;fill-opacity:1;" d="M 197.90625 169.273438 L 253.492188 169.273438 L 253.492188 208.050781 L 197.90625 208.050781 Z M 197.90625 169.273438 "/></g></g></g></svg>