<svg xmlns="http://www.w3.org/2000/svg" xmlns:xlink="http://www.w3.org/1999/xlink" width="500" zoomAndPan="magnify" viewBox="0 0 375 374.999991" height="500" preserveAspectRatio="xMidYMid meet" version="1.2"><defs><clipPath id="963155692b"><path d="M 40.660156 170 L 115.289062 170 L 115.289062 308.492188 L 40.660156 308.492188 Z M 40.660156 170 "/></clipPath><clipPath id="f057b92283"><path d="M 40.792969 303.695312 C 44.746094 293.402344 49.851562 287.0625 53.804688 283.273438 C 57.265625 279.980469 60.0625 278.25 64.511719 275.285156 C 71.429688 270.589844 85.425781 264.167969 91.519531 258.816406 C 95.390625 255.355469 97.53125 252.390625 99.507812 248.6875 C 101.566406 244.980469 102.722656 240.203125 103.625 236.414062 C 104.449219 233.285156 104.78125 230.652344 105.109375 227.6875 C 105.519531 224.804688 105.769531 222.910156 105.933594 218.957031 C 106.34375 210.640625 104.449219 188.242188 105.933594 179.757812 C 106.671875 175.476562 107.578125 171.523438 109.308594 170.453125 C 110.378906 169.710938 112.191406 170.042969 113.179688 170.699219 C 114.085938 171.277344 115.074219 172.839844 115.074219 173.996094 C 115.15625 175.148438 114.332031 176.792969 113.425781 177.453125 C 112.519531 178.195312 110.707031 178.441406 109.636719 178.113281 C 108.566406 177.699219 107.332031 176.382812 107.003906 175.230469 C 106.757812 174.160156 107.25 172.347656 107.910156 171.523438 C 108.402344 170.78125 109.308594 170.289062 110.132812 170.125 C 110.957031 169.960938 112.027344 170.042969 112.769531 170.453125 C 113.671875 171.03125 114.828125 172.511719 115.074219 173.582031 C 115.238281 174.40625 114.992188 175.394531 114.578125 176.136719 C 114.25 176.875 112.683594 177.949219 112.683594 177.949219 C 112.683594 177.949219 113.753906 176.546875 114.167969 176.792969 C 116.0625 177.699219 114.578125 207.015625 114.167969 216.652344 C 114.003906 222.25 113.921875 225.132812 113.179688 229.828125 C 112.355469 235.179688 110.792969 242.425781 109.226562 247.039062 C 108.074219 250.25 107.003906 252.636719 105.4375 255.109375 C 103.957031 257.660156 102.0625 259.886719 100.003906 262.027344 C 97.945312 264.167969 95.96875 265.980469 93.003906 268.039062 C 88.96875 270.921875 82.792969 273.554688 77.523438 276.847656 C 71.757812 280.472656 64.347656 284.753906 59.652344 289.039062 C 55.945312 292.414062 53.144531 296.203125 51.003906 299.578125 C 49.359375 302.214844 48.945312 306.082031 47.546875 307.402344 C 46.722656 308.140625 45.652344 308.390625 44.746094 308.390625 C 44.089844 308.472656 43.429688 308.308594 42.851562 307.894531 C 42.195312 307.484375 41.289062 306.496094 40.957031 305.671875 C 40.710938 305.09375 40.792969 303.695312 40.792969 303.695312 "/></clipPath><clipPath id="dc916c2414"><path d="M 106.910156 151.300781 L 257 151.300781 L 257 181.578125 L 106.910156 181.578125 Z M 106.910156 151.300781 "/></clipPath><clipPath id="aff2120e0b"><path d="M 107.660156 171.769531 C 113.839844 164.9375 116.472656 163.289062 119.027344 161.808594 C 121.578125 160.324219 124.378906 159.007812 127.179688 158.019531 C 129.8125 157.03125 131.789062 156.453125 135.332031 155.714844 C 141.589844 154.476562 152.128906 153.078125 161.4375 152.335938 C 172.222656 151.511719 186.222656 150.9375 196.433594 151.59375 C 204.421875 152.089844 210.765625 153.078125 217.847656 154.726562 C 225.09375 156.371094 233.574219 158.925781 239.503906 161.476562 C 244.03125 163.453125 248.316406 165.925781 250.867188 167.902344 C 252.433594 169.054688 253.339844 169.878906 254.246094 171.277344 C 255.398438 172.925781 256.714844 175.558594 256.878906 177.042969 C 256.960938 178.113281 256.714844 178.9375 256.222656 179.59375 C 255.5625 180.5 253.914062 181.40625 252.84375 181.488281 C 251.9375 181.570312 250.949219 181.160156 250.292969 180.664062 C 249.632812 180.171875 248.972656 179.347656 248.808594 178.523438 C 248.5625 177.453125 248.972656 175.640625 249.632812 174.734375 C 250.125 173.996094 251.03125 173.5 251.855469 173.335938 C 252.679688 173.171875 253.667969 173.171875 254.492188 173.582031 C 255.398438 174.078125 256.550781 175.640625 256.796875 176.628906 C 257.042969 177.453125 256.796875 178.523438 256.46875 179.265625 C 256.054688 180.007812 255.316406 180.746094 254.574219 181.078125 C 253.832031 181.40625 252.761719 181.570312 251.9375 181.40625 C 251.113281 181.242188 250.375 180.746094 249.632812 180.089844 C 248.644531 179.019531 248.398438 176.710938 246.832031 175.066406 C 244.28125 172.59375 238.761719 170.125 234.152344 168.148438 C 229.210938 166.089844 223.691406 164.523438 217.847656 163.207031 C 211.339844 161.722656 203.847656 160.488281 196.683594 159.914062 C 189.433594 159.335938 182.847656 159.417969 174.695312 159.75 C 164.234375 160.242188 146.859375 161.972656 139.203125 163.289062 C 135.332031 163.949219 133.519531 164.441406 130.800781 165.429688 C 127.921875 166.417969 125.285156 167.40625 122.402344 169.21875 C 118.945312 171.441406 114.085938 177.453125 111.863281 178.195312 C 111.039062 178.523438 110.542969 178.359375 109.886719 178.113281 C 109.0625 177.863281 108.074219 177.125 107.496094 176.464844 C 107.167969 175.886719 106.921875 175.230469 106.921875 174.570312 C 106.839844 173.746094 107.660156 171.769531 107.660156 171.769531 "/></clipPath><clipPath id="31542fcc88"><path d="M 106.890625 171.128906 L 256.871094 171.128906 L 256.871094 195.921875 L 106.890625 195.921875 Z M 106.890625 171.128906 "/></clipPath><clipPath id="e130239a4e"><path d="M 113.097656 173.007812 C 127.753906 180.253906 135.25 181.984375 140.847656 183.21875 C 145.460938 184.207031 148.753906 184.617188 153.859375 185.195312 C 161.273438 186.019531 172.800781 186.921875 180.707031 187.253906 C 187.128906 187.582031 191.082031 187.828125 198 187.335938 C 208.539062 186.675781 229.621094 183.957031 238.023438 181.734375 C 242.058594 180.664062 244.28125 178.6875 246.667969 178.359375 C 248.316406 178.195312 250.539062 179.511719 250.867188 179.019531 C 251.113281 178.605469 248.808594 176.960938 248.5625 175.890625 C 248.398438 175.066406 248.5625 174.078125 249.054688 173.335938 C 249.714844 172.429688 251.28125 171.441406 252.351562 171.277344 C 253.175781 171.113281 254.160156 171.359375 254.902344 171.855469 C 255.726562 172.511719 256.714844 174.078125 256.796875 175.230469 C 256.796875 176.382812 255.972656 178.03125 255.066406 178.6875 C 254.160156 179.347656 252.351562 179.59375 251.28125 179.183594 C 250.210938 178.851562 248.972656 177.371094 248.644531 176.300781 C 248.398438 175.476562 248.5625 174.488281 248.890625 173.746094 C 249.222656 172.925781 249.878906 172.101562 250.621094 171.769531 C 251.609375 171.277344 253.585938 170.867188 254.492188 171.6875 C 255.890625 172.839844 256.46875 179.101562 255.726562 181.324219 C 255.148438 182.886719 253.832031 183.546875 252.433594 184.535156 C 250.457031 185.933594 247.246094 187.253906 244.527344 188.242188 C 241.890625 189.230469 240.082031 189.640625 236.375 190.382812 C 228.304688 191.945312 208.292969 194.910156 198 195.570312 C 191.082031 196.0625 186.800781 195.816406 180.625 195.570312 C 173.542969 195.324219 165.800781 194.746094 157.894531 193.839844 C 149.332031 192.851562 138.378906 191.289062 131.132812 189.476562 C 126.109375 188.242188 122.320312 187.007812 118.367188 185.277344 C 114.742188 183.628906 109.804688 181.324219 108.15625 179.511719 C 107.25 178.605469 106.921875 177.699219 106.921875 176.792969 C 106.839844 175.890625 107.167969 174.734375 107.746094 173.996094 C 108.238281 173.335938 109.308594 172.675781 110.214844 172.511719 C 111.121094 172.265625 113.097656 173.007812 113.097656 173.007812 "/></clipPath><clipPath id="bee208e49a"><path d="M 42.816406 284.179688 L 128 284.179688 L 128 308.105469 L 42.816406 308.105469 Z M 42.816406 284.179688 "/></clipPath><clipPath id="da073a4951"><path d="M 44.582031 300.730469 C 51.828125 295.625 52.734375 295.214844 54.546875 294.71875 C 57.675781 293.894531 62.535156 293.402344 67.640625 293.070312 C 74.804688 292.578125 87.320312 293.320312 93.582031 292.824219 C 97.203125 292.578125 98.769531 292.414062 102.0625 291.671875 C 106.671875 290.601562 116.472656 285.25 118.695312 286.238281 C 119.519531 286.566406 119.4375 288.542969 119.765625 288.542969 C 120.015625 288.542969 119.933594 286.730469 120.425781 285.988281 C 121.167969 285.167969 122.8125 284.34375 123.886719 284.261719 C 124.789062 284.179688 125.695312 284.589844 126.355469 285.085938 C 127.015625 285.578125 127.589844 286.484375 127.835938 287.308594 C 128.003906 288.132812 128.003906 289.121094 127.671875 289.941406 C 127.34375 290.683594 126.765625 291.507812 125.945312 291.917969 C 124.957031 292.332031 123.144531 292.578125 122.074219 292.085938 C 121.085938 291.589844 120.015625 290.023438 119.765625 288.953125 C 119.601562 288.132812 119.765625 287.144531 120.261719 286.402344 C 120.839844 285.496094 122.320312 284.34375 123.472656 284.261719 C 124.542969 284.179688 126.273438 284.917969 127.015625 285.742188 C 127.589844 286.320312 128.167969 287.308594 127.921875 288.214844 C 127.671875 289.613281 125.613281 291.753906 123.308594 293.238281 C 119.601562 295.625 111.863281 297.683594 106.589844 299 C 102.144531 300.15625 98.769531 300.648438 93.992188 301.058594 C 87.734375 301.554688 78.757812 300.8125 72.5 301.058594 C 67.640625 301.308594 62.617188 301.800781 59.488281 302.296875 C 57.59375 302.625 56.6875 302.625 55.207031 303.285156 C 53.144531 304.105469 50.347656 307.070312 48.78125 307.730469 C 47.957031 308.058594 47.464844 308.140625 46.804688 308.058594 C 46.148438 308.058594 45.488281 307.894531 44.910156 307.484375 C 44.253906 306.988281 43.429688 306 43.183594 305.175781 C 42.933594 304.519531 42.851562 303.859375 43.015625 303.203125 C 43.265625 302.378906 44.582031 300.730469 44.582031 300.730469 "/></clipPath><clipPath id="6e1850e883"><path d="M 119.59375 284.238281 L 234.027344 284.238281 L 234.027344 316 L 119.59375 316 Z M 119.59375 284.238281 "/></clipPath><clipPath id="ce25a75f8d"><path d="M 123.96875 284.261719 C 133.683594 285.988281 137.390625 288.789062 142.496094 290.109375 C 150.320312 292.085938 164.648438 291.34375 173.378906 293.15625 C 180.046875 294.472656 184.578125 296.53125 190.503906 298.671875 C 196.929688 301.058594 203.765625 305.34375 210.679688 306.824219 C 217.351562 308.222656 227.726562 306.082031 231.1875 307.648438 C 232.75 308.390625 233.492188 309.460938 233.820312 310.449219 C 234.152344 311.273438 233.988281 312.34375 233.738281 313.082031 C 233.410156 313.90625 232.75 314.648438 232.011719 315.140625 C 231.269531 315.554688 230.28125 315.800781 229.457031 315.636719 C 228.386719 315.472656 226.738281 314.484375 226.246094 313.496094 C 225.75 312.507812 225.75 310.613281 226.246094 309.625 C 226.738281 308.636719 228.386719 307.648438 229.457031 307.484375 C 230.28125 307.320312 231.269531 307.648438 232.011719 308.058594 C 232.75 308.472656 233.410156 309.296875 233.738281 310.035156 C 233.988281 310.859375 234.070312 311.847656 233.820312 312.671875 C 233.65625 313.496094 233 314.320312 232.339844 314.8125 C 231.679688 315.390625 231.105469 315.472656 229.867188 315.71875 C 227.070312 316.128906 219.492188 316.046875 215.375 315.71875 C 212.246094 315.390625 210.433594 315.140625 207.058594 314.152344 C 201.621094 312.589844 192.8125 308.222656 186.140625 305.835938 C 180.210938 303.777344 175.519531 301.800781 169.09375 300.566406 C 161.273438 299 147.519531 299 142.332031 298.34375 C 140.191406 298.011719 139.53125 298.011719 137.882812 297.519531 C 135.578125 296.777344 132.53125 294.636719 129.894531 293.730469 C 127.507812 292.988281 124.460938 293.070312 122.730469 292.332031 C 121.660156 291.835938 120.921875 291.34375 120.425781 290.601562 C 119.933594 289.859375 119.601562 288.625 119.765625 287.800781 C 119.933594 286.894531 120.507812 285.824219 121.167969 285.25 C 121.910156 284.589844 123.96875 284.261719 123.96875 284.261719 "/></clipPath><clipPath id="4e201e9fba"><path d="M 203.75 284.761719 L 272.234375 284.761719 L 272.234375 315.585938 L 203.75 315.585938 Z M 203.75 284.761719 "/></clipPath><clipPath id="230d953e37"><path d="M 228.796875 315.554688 C 211.585938 307.894531 208.789062 305.671875 207.058594 303.859375 C 205.90625 302.707031 205.164062 301.800781 204.667969 300.566406 C 204.09375 299.332031 203.765625 297.847656 203.847656 296.449219 C 203.847656 294.800781 204.339844 292.414062 205.328125 291.097656 C 206.152344 289.941406 207.550781 289.53125 209.117188 288.707031 C 211.339844 287.636719 215.046875 286.074219 217.351562 285.496094 C 218.917969 285.085938 219.574219 285.085938 221.386719 285.003906 C 225.09375 284.835938 232.75 284.671875 238.269531 285.824219 C 243.867188 286.976562 249.222656 290.683594 254.65625 292.085938 C 259.925781 293.484375 268.160156 292.90625 270.550781 294.390625 C 271.539062 294.964844 271.867188 295.789062 272.03125 296.53125 C 272.277344 297.355469 272.195312 298.425781 271.949219 299.167969 C 271.621094 299.988281 270.960938 300.730469 270.21875 301.226562 C 269.480469 301.636719 268.492188 301.882812 267.667969 301.71875 C 266.597656 301.554688 265.03125 300.484375 264.457031 299.578125 C 263.960938 298.835938 263.878906 297.847656 264.042969 297.023438 C 264.125 296.203125 264.539062 295.214844 265.277344 294.636719 C 266.101562 293.976562 267.914062 293.484375 268.984375 293.648438 C 269.890625 293.730469 270.714844 294.390625 271.207031 294.964844 C 271.785156 295.625 272.195312 296.613281 272.195312 297.4375 C 272.277344 298.261719 272.03125 299.25 271.539062 299.988281 C 270.796875 300.8125 269.5625 301.390625 268.078125 301.800781 C 265.855469 302.296875 261.902344 302.046875 258.855469 301.636719 C 255.808594 301.226562 253.007812 300.402344 249.796875 299.25 C 246.007812 298.011719 240.820312 294.964844 237.773438 294.144531 C 235.960938 293.648438 235.222656 293.730469 233.328125 293.566406 C 230.117188 293.402344 224.023438 292.90625 220.152344 293.402344 C 217.105469 293.8125 212.574219 294.390625 212.082031 295.707031 C 211.667969 296.613281 213.234375 298.34375 214.140625 299.332031 C 215.046875 300.320312 215.871094 300.8125 217.515625 301.800781 C 220.644531 303.613281 230.445312 306.414062 232.667969 308.554688 C 233.65625 309.460938 233.902344 310.285156 233.988281 311.1875 C 234.070312 312.09375 233.65625 313.332031 233.164062 313.988281 C 232.832031 314.566406 232.339844 314.976562 231.679688 315.308594 C 230.9375 315.636719 228.796875 315.554688 228.796875 315.554688 "/></clipPath><clipPath id="01429f836a"><path d="M 261.8125 293.390625 L 334.199219 293.390625 L 334.199219 306.914062 L 261.8125 306.914062 Z M 261.8125 293.390625 "/></clipPath><clipPath id="17dccf4a09"><path d="M 265.9375 293.402344 C 305.960938 294.71875 326.710938 296.777344 331.40625 298.753906 C 332.640625 299.25 333.054688 299.578125 333.464844 300.320312 C 333.957031 301.226562 334.207031 303.117188 333.875 304.191406 C 333.628906 305.011719 332.886719 305.753906 332.148438 306.164062 C 331.40625 306.578125 330.417969 306.90625 329.59375 306.742188 C 328.523438 306.496094 326.960938 305.425781 326.382812 304.519531 C 325.886719 303.777344 325.886719 302.789062 325.972656 301.964844 C 326.136719 301.144531 326.546875 300.15625 327.207031 299.660156 C 328.03125 298.917969 329.921875 298.425781 330.910156 298.589844 C 331.816406 298.753906 332.640625 299.332031 333.21875 299.988281 C 333.710938 300.566406 334.125 301.554688 334.125 302.378906 C 334.207031 303.285156 333.957031 304.273438 333.464844 304.929688 C 332.804688 305.753906 331.898438 306.414062 330.007812 306.742188 C 324.078125 307.8125 302.007812 302.542969 290.230469 301.800781 C 280.84375 301.144531 268.820312 302.707031 264.949219 301.472656 C 263.632812 301.058594 263.054688 300.566406 262.5625 299.824219 C 262.066406 299.082031 261.738281 297.929688 261.902344 297.023438 C 261.984375 296.121094 262.5625 295.046875 263.21875 294.390625 C 263.878906 293.8125 265.9375 293.402344 265.9375 293.402344 "/></clipPath><clipPath id="730eb960e8"><path d="M 250.445312 226.53125 L 334.289062 226.53125 L 334.289062 306.992188 L 250.445312 306.992188 Z M 250.445312 226.53125 "/></clipPath><clipPath id="9381ab9cf3"><path d="M 327.863281 306.082031 C 315.429688 297.519531 311.476562 295.214844 307.523438 293.320312 C 303.40625 291.34375 299.207031 290.273438 294.84375 288.214844 C 289.738281 285.824219 283.148438 282.203125 278.867188 279.648438 C 275.820312 277.753906 273.597656 276.355469 271.289062 274.378906 C 268.902344 272.402344 267.007812 270.261719 264.785156 267.789062 C 262.066406 264.828125 258.527344 261.449219 256.46875 257.746094 C 254.328125 254.039062 252.925781 250.003906 252.019531 245.554688 C 251.03125 240.617188 250.042969 232.464844 251.199219 229.5 C 251.855469 228.015625 252.925781 227.109375 253.996094 226.78125 C 255.148438 226.535156 256.960938 226.863281 257.785156 227.605469 C 258.691406 228.34375 259.351562 230.074219 259.269531 231.226562 C 259.101562 232.378906 258.03125 233.863281 257.042969 234.4375 C 256.054688 234.933594 254.246094 234.933594 253.175781 234.4375 C 252.1875 233.863281 251.28125 232.296875 251.03125 231.226562 C 250.867188 230.320312 251.199219 229.332031 251.609375 228.675781 C 252.019531 227.933594 252.761719 227.191406 253.585938 226.945312 C 254.65625 226.617188 256.550781 226.863281 257.457031 227.355469 C 258.195312 227.769531 258.609375 228.429688 259.019531 229.5 C 259.925781 231.722656 259.183594 237.734375 259.761719 241.4375 C 260.257812 244.652344 261.160156 247.945312 261.984375 250.25 C 262.5625 251.898438 262.808594 252.636719 263.796875 254.121094 C 265.527344 256.839844 269.398438 261.285156 272.691406 264.332031 C 275.902344 267.460938 279.195312 270.015625 283.230469 272.648438 C 287.84375 275.695312 294.101562 278.992188 299.125 281.296875 C 303.40625 283.273438 306.867188 283.765625 311.3125 285.992188 C 317.488281 289.121094 329.183594 296.367188 332.230469 299.167969 C 333.300781 300.15625 333.792969 300.648438 334.042969 301.472656 C 334.289062 302.378906 334.207031 303.53125 333.792969 304.4375 C 333.21875 305.34375 331.734375 306.414062 330.664062 306.660156 C 329.757812 306.90625 327.863281 306.082031 327.863281 306.082031 "/></clipPath><clipPath id="c59e5eac6c"><path d="M 247.285156 173.59375 L 260.476562 173.59375 L 260.476562 237.601562 L 247.285156 237.601562 Z M 247.285156 173.59375 "/></clipPath><clipPath id="f07a2d5d40"><path d="M 255.890625 177.78125 C 256.46875 198.945312 258.855469 206.851562 259.597656 213.769531 C 260.257812 220.359375 260.667969 229.664062 260.257812 233.039062 C 260.171875 234.355469 260.171875 234.933594 259.597656 235.59375 C 258.9375 236.496094 257.292969 237.402344 256.222656 237.484375 C 255.398438 237.570312 254.410156 237.238281 253.75 236.746094 C 253.089844 236.25 252.433594 235.425781 252.1875 234.605469 C 252.019531 233.535156 252.269531 231.640625 252.925781 230.816406 C 253.667969 229.910156 255.480469 229.25 256.550781 229.25 C 257.375 229.25 258.28125 229.746094 258.9375 230.320312 C 259.515625 230.898438 260.089844 231.804688 260.171875 232.628906 C 260.339844 233.449219 260.339844 234.523438 259.84375 235.261719 C 259.269531 236.167969 257.703125 237.238281 256.714844 237.484375 C 255.808594 237.652344 254.820312 237.484375 254.078125 236.992188 C 253.257812 236.332031 252.597656 235.34375 252.019531 233.699219 C 250.949219 229.992188 252.101562 219.863281 251.363281 214.015625 C 250.785156 209.242188 249.054688 204.957031 248.480469 201.085938 C 247.984375 197.957031 247.820312 195.734375 247.65625 192.441406 C 247.492188 188.242188 246.914062 180.910156 247.65625 177.78125 C 248.066406 176.21875 248.644531 175.066406 249.46875 174.40625 C 250.210938 173.828125 251.445312 173.582031 252.351562 173.664062 C 253.175781 173.828125 254.328125 174.40625 254.902344 175.066406 C 255.480469 175.722656 255.890625 177.78125 255.890625 177.78125 "/></clipPath><clipPath id="15b3bd461c"><path d="M 175.5 82.316406 L 196.179688 82.316406 L 196.179688 176.820312 L 175.5 176.820312 Z M 175.5 82.316406 "/></clipPath><clipPath id="64c94844ee"><path d="M 175.765625 172.675781 C 175.105469 121.289062 176.011719 116.84375 177.328125 111.160156 C 178.648438 105.398438 180.707031 98.480469 182.601562 94.03125 C 183.917969 90.984375 185.480469 88.515625 186.71875 86.621094 C 187.625 85.304688 188.28125 84.234375 189.1875 83.574219 C 189.929688 83 190.671875 82.503906 191.492188 82.421875 C 192.316406 82.339844 193.386719 82.421875 194.128906 83 C 194.953125 83.574219 195.941406 85.222656 196.105469 86.210938 C 196.269531 87.117188 196.023438 88.105469 195.445312 88.761719 C 194.789062 89.585938 193.222656 90.574219 192.070312 90.65625 C 190.917969 90.65625 189.351562 89.667969 188.613281 88.84375 C 188.117188 88.1875 187.789062 87.199219 187.953125 86.375 C 188.035156 85.304688 189.023438 83.65625 189.847656 83 C 190.589844 82.503906 191.578125 82.339844 192.398438 82.421875 C 193.222656 82.503906 194.210938 82.832031 194.789062 83.492188 C 195.527344 84.316406 196.269531 85.714844 196.105469 87.117188 C 195.859375 89.503906 191.742188 93.621094 190.503906 96.089844 C 189.683594 97.738281 189.515625 98.480469 188.941406 100.457031 C 187.542969 104.902344 184.578125 114.292969 183.589844 121.867188 C 182.433594 130.183594 182.765625 139.738281 182.847656 148.546875 C 182.929688 157.03125 184.988281 169.792969 183.917969 173.664062 C 183.507812 174.984375 182.929688 175.558594 182.1875 176.054688 C 181.449219 176.628906 180.292969 176.875 179.386719 176.792969 C 178.484375 176.628906 177.414062 176.136719 176.835938 175.394531 C 176.175781 174.734375 175.765625 172.675781 175.765625 172.675781 "/></clipPath><clipPath id="34806d42ff"><path d="M 187.007812 60.824219 L 263.53125 60.824219 L 263.53125 91.519531 L 187.007812 91.519531 Z M 187.007812 60.824219 "/></clipPath><clipPath id="616b19ae1f"><path d="M 187.707031 85.140625 C 201.621094 68.75 202.28125 68.339844 204.011719 67.433594 C 206.976562 65.785156 212.65625 63.5625 216.445312 62.492188 C 219.410156 61.667969 221.550781 61.421875 224.679688 61.175781 C 228.46875 60.847656 232.667969 60.929688 237.609375 61.09375 C 244.28125 61.339844 257.210938 61.667969 260.667969 62.988281 C 261.902344 63.398438 262.316406 63.894531 262.808594 64.550781 C 263.304688 65.292969 263.632812 66.28125 263.46875 67.105469 C 263.386719 68.175781 262.398438 69.820312 261.492188 70.398438 C 260.832031 70.976562 259.761719 71.058594 258.9375 70.976562 C 258.113281 70.894531 257.125 70.5625 256.550781 69.90625 C 255.808594 69.082031 255.148438 67.351562 255.316406 66.199219 C 255.480469 65.128906 256.714844 63.644531 257.703125 63.152344 C 258.445312 62.738281 259.433594 62.574219 260.257812 62.90625 C 261.328125 63.152344 262.808594 64.304688 263.21875 65.375 C 263.632812 66.445312 263.46875 68.257812 262.808594 69.164062 C 262.148438 70.152344 261.078125 70.644531 259.433594 70.976562 C 255.148438 71.882812 243.128906 69.410156 235.878906 69.328125 C 229.703125 69.328125 223.691406 69.328125 218.585938 70.480469 C 214.140625 71.550781 209.941406 73.363281 206.8125 75.503906 C 204.175781 77.152344 202.609375 79.128906 200.550781 81.433594 C 198.164062 84.152344 195.363281 89.667969 193.222656 90.902344 C 192.234375 91.480469 191.246094 91.5625 190.339844 91.398438 C 189.515625 91.234375 188.445312 90.492188 187.871094 89.832031 C 187.457031 89.339844 187.210938 88.679688 187.128906 88.023438 C 187.046875 87.199219 187.707031 85.140625 187.707031 85.140625 "/></clipPath><clipPath id="7443314564"><path d="M 191 62.582031 L 263.550781 62.582031 L 263.550781 97.734375 L 191 97.734375 Z M 191 62.582031 "/></clipPath><clipPath id="eb8cbe3e48"><path d="M 262.398438 69.65625 C 252.515625 81.515625 247.246094 86.785156 243.457031 89.585938 C 240.65625 91.5625 238.269531 92.632812 235.550781 93.785156 C 232.914062 94.9375 230.691406 95.761719 227.398438 96.339844 C 222.621094 97.246094 214.304688 97.984375 209.527344 97.492188 C 206.070312 97.078125 203.105469 95.761719 200.800781 94.9375 C 199.234375 94.363281 198.328125 94.117188 197.011719 93.292969 C 195.199219 92.222656 191.90625 90.246094 191.246094 88.515625 C 190.753906 87.28125 191.246094 85.632812 191.742188 84.726562 C 192.234375 83.902344 193.140625 83.410156 193.882812 83.164062 C 194.707031 82.914062 195.777344 82.914062 196.515625 83.246094 C 197.339844 83.492188 198.164062 84.152344 198.574219 84.890625 C 199.070312 85.878906 199.234375 87.691406 198.90625 88.761719 C 198.574219 89.585938 197.835938 90.328125 197.09375 90.65625 C 196.433594 91.070312 195.363281 91.398438 194.539062 91.152344 C 193.46875 90.984375 191.988281 89.832031 191.410156 88.925781 C 191 88.1875 190.917969 87.117188 191.082031 86.292969 C 191.246094 85.46875 191.660156 84.5625 192.398438 84.070312 C 193.222656 83.410156 194.707031 82.914062 196.105469 83.082031 C 198.082031 83.328125 200.304688 85.632812 202.695312 86.621094 C 205.246094 87.691406 207.964844 88.84375 211.175781 89.257812 C 215.046875 89.667969 220.480469 89.09375 224.351562 88.515625 C 227.398438 87.9375 229.953125 87.28125 232.503906 86.210938 C 235.140625 85.140625 237.117188 84.316406 239.914062 82.09375 C 244.855469 78.222656 254.328125 64.550781 258.03125 62.988281 C 259.269531 62.492188 260.089844 62.738281 260.914062 63.070312 C 261.738281 63.398438 262.644531 64.222656 263.054688 65.046875 C 263.46875 65.871094 263.550781 67.105469 263.386719 67.929688 C 263.21875 68.667969 262.398438 69.65625 262.398438 69.65625 "/></clipPath><clipPath id="5e8ed1d58f"><path d="M 125.570312 59 L 184 59 L 184 116.972656 L 125.570312 116.972656 Z M 125.570312 59 "/></clipPath><clipPath id="ae5bc61109"><path d="M 175.929688 113.878906 C 166.542969 83.902344 165.222656 82.175781 162.507812 79.953125 C 158.71875 76.90625 152.378906 74.351562 146.859375 72.210938 C 141.011719 70.070312 131.460938 69.246094 128.25 67.269531 C 126.847656 66.363281 126.027344 65.375 125.695312 64.386719 C 125.449219 63.5625 125.613281 62.492188 125.945312 61.753906 C 126.273438 61.011719 126.847656 60.1875 127.671875 59.777344 C 128.660156 59.363281 130.554688 59.28125 131.542969 59.691406 C 132.367188 60.023438 133.027344 60.847656 133.355469 61.585938 C 133.765625 62.328125 134.015625 63.316406 133.765625 64.140625 C 133.4375 65.210938 132.285156 66.691406 131.296875 67.1875 C 130.554688 67.597656 129.484375 67.597656 128.660156 67.351562 C 127.921875 67.1875 127.015625 66.609375 126.4375 65.953125 C 125.945312 65.292969 125.613281 64.304688 125.613281 63.480469 C 125.53125 62.65625 125.777344 61.667969 126.355469 60.929688 C 127.015625 60.1875 128.496094 59.445312 129.8125 59.28125 C 131.542969 59.035156 133.4375 59.859375 135.90625 60.515625 C 140.109375 61.585938 146.941406 63.398438 152.296875 65.621094 C 157.8125 67.929688 164.234375 70.726562 168.355469 74.269531 C 171.8125 77.234375 173.871094 80.117188 176.09375 84.5625 C 179.386719 91.234375 183.339844 107.042969 183.835938 111.492188 C 183.917969 112.972656 184 113.632812 183.589844 114.457031 C 183.175781 115.277344 182.351562 116.101562 181.53125 116.433594 C 180.625 116.84375 179.472656 116.925781 178.566406 116.597656 C 177.578125 116.183594 175.929688 113.878906 175.929688 113.878906 "/></clipPath><clipPath id="0e4c13c2ce"><path d="M 125.328125 59.355469 L 178.347656 59.355469 L 178.347656 103 L 125.328125 103 Z M 125.328125 59.355469 "/></clipPath><clipPath id="254ab53278"><path d="M 133.847656 63.398438 C 135.085938 71.550781 135.496094 72.375 136.402344 74.023438 C 137.882812 76.90625 140.4375 82.421875 143.484375 85.386719 C 146.613281 88.351562 150.238281 90.410156 154.765625 92.058594 C 160.777344 94.199219 173.871094 93.621094 176.671875 95.597656 C 177.660156 96.257812 177.988281 96.914062 178.070312 97.820312 C 178.234375 98.890625 177.742188 100.703125 177.164062 101.527344 C 176.589844 102.1875 175.601562 102.679688 174.859375 102.761719 C 174.035156 102.925781 172.964844 102.84375 172.222656 102.433594 C 171.316406 101.855469 170.164062 100.375 170 99.222656 C 169.835938 98.152344 170.496094 96.421875 171.402344 95.679688 C 172.222656 94.9375 174.117188 94.609375 175.105469 94.773438 C 176.011719 94.9375 176.835938 95.515625 177.328125 96.175781 C 177.824219 96.832031 178.234375 97.820312 178.234375 98.644531 C 178.234375 99.550781 177.90625 100.539062 177.414062 101.199219 C 176.917969 101.855469 176.339844 102.351562 175.269531 102.679688 C 172.472656 103.421875 164.566406 102.433594 159.707031 101.527344 C 155.261719 100.703125 150.566406 99.304688 147.023438 97.65625 C 144.226562 96.339844 142.085938 94.855469 139.941406 92.960938 C 137.71875 91.070312 135.824219 89.09375 133.847656 86.128906 C 131.050781 82.011719 127.015625 74.433594 125.945312 69.90625 C 125.203125 67.023438 125.203125 64.140625 125.695312 62.410156 C 126.027344 61.339844 126.519531 60.515625 127.34375 60.023438 C 128.25 59.445312 130.226562 59.28125 131.132812 59.527344 C 131.871094 59.691406 132.367188 60.105469 132.777344 60.679688 C 133.273438 61.339844 133.847656 63.398438 133.847656 63.398438 "/></clipPath></defs><g id="0ee05f2653"><g clip-rule="nonzero" clip-path="url(#963155692b)"><g clip-rule="nonzero" clip-path="url(#f057b92283)"><path style=" stroke:none;fill-rule:nonzero;fill:currentColor;fill-opacity:1;" d="M 37.5 166.832031 L 118.449219 166.832031 L 118.449219 311.65625 L 37.5 311.65625 Z M 37.5 166.832031 "/></g></g><g clip-rule="nonzero" clip-path="url(#dc916c2414)"><g clip-rule="nonzero" clip-path="url(#aff2120e0b)"><path style=" stroke:none;fill-rule:nonzero;fill:currentColor;fill-opacity:1;" d="M 103.625 148.300781 L 260.304688 148.300781 L 260.304688 184.863281 L 103.625 184.863281 Z M 103.625 148.300781 "/></g></g><g clip-rule="nonzero" clip-path="url(#31542fcc88)"><g clip-rule="nonzero" clip-path="url(#e130239a4e)"><path style=" stroke:none;fill-rule:nonzero;fill:currentColor;fill-opacity:1;" d="M 103.625 167.984375 L 260.136719 167.984375 L 260.136719 198.945312 L 103.625 198.945312 Z M 103.625 167.984375 "/></g></g><g clip-rule="nonzero" clip-path="url(#bee208e49a)"><g clip-rule="nonzero" clip-path="url(#da073a4951)"><path style=" stroke:none;fill-rule:nonzero;fill:currentColor;fill-opacity:1;" d="M 39.722656 280.96875 L 131.25 280.96875 L 131.25 311.4375 L 39.722656 311.4375 Z M 39.722656 280.96875 "/></g></g><g clip-rule="nonzero" clip-path="url(#6e1850e883)"><g clip-rule="nonzero" clip-path="url(#ce25a75f8d)"><path style=" stroke:none;fill-rule:nonzero;fill:currentColor;fill-opacity:1;" d="M 116.472656 280.96875 L 237.148438 280.96875 L 237.148438 319.011719 L 116.472656 319.011719 Z M 116.472656 280.96875 "/></g></g><g clip-rule="nonzero" clip-path="url(#4e201e9fba)"><g clip-rule="nonzero" clip-path="url(#230d953e37)"><path style=" stroke:none;fill-rule:nonzero;fill:currentColor;fill-opacity:1;" d="M 200.550781 281.707031 L 275.578125 281.707031 L 275.578125 318.929688 L 200.550781 318.929688 Z M 200.550781 281.707031 "/></g></g><g clip-rule="nonzero" clip-path="url(#01429f836a)"><g clip-rule="nonzero" clip-path="url(#17dccf4a09)"><path style=" stroke:none;fill-rule:nonzero;fill:currentColor;fill-opacity:1;" d="M 258.609375 290.109375 L 337.480469 290.109375 L 337.480469 310.117188 L 258.609375 310.117188 Z M 258.609375 290.109375 "/></g></g><g clip-rule="nonzero" clip-path="url(#730eb960e8)"><g clip-rule="nonzero" clip-path="url(#9381ab9cf3)"><path style=" stroke:none;fill-rule:nonzero;fill:currentColor;fill-opacity:1;" d="M 247.738281 223.488281 L 337.332031 223.488281 L 337.332031 310.035156 L 247.738281 310.035156 Z M 247.738281 223.488281 "/></g></g><g clip-rule="nonzero" clip-path="url(#c59e5eac6c)"><g clip-rule="nonzero" clip-path="url(#f07a2d5d40)"><path style=" stroke:none;fill-rule:nonzero;fill:currentColor;fill-opacity:1;" d="M 244.363281 170.371094 L 263.550781 170.371094 L 263.550781 240.75 L 244.363281 240.75 Z M 244.363281 170.371094 "/></g></g><g clip-rule="nonzero" clip-path="url(#15b3bd461c)"><g clip-rule="nonzero" clip-path="url(#64c94844ee)"><path style=" stroke:none;fill-rule:nonzero;fill:currentColor;fill-opacity:1;" d="M 171.316406 79.128906 L 199.480469 79.128906 L 199.480469 180.121094 L 171.316406 180.121094 Z M 171.316406 79.128906 "/></g></g><g clip-rule="nonzero" clip-path="url(#34806d42ff)"><g clip-rule="nonzero" clip-path="url(#616b19ae1f)"><path style=" stroke:none;fill-rule:nonzero;fill:currentColor;fill-opacity:1;" d="M 183.835938 57.800781 L 266.84375 57.800781 L 266.84375 94.691406 L 183.835938 94.691406 Z M 183.835938 57.800781 "/></g></g><g clip-rule="nonzero" clip-path="url(#7443314564)"><g clip-rule="nonzero" clip-path="url(#eb8cbe3e48)"><path style=" stroke:none;fill-rule:nonzero;fill:currentColor;fill-opacity:1;" d="M 187.789062 59.691406 L 266.601562 59.691406 L 266.601562 100.785156 L 187.789062 100.785156 Z M 187.789062 59.691406 "/></g></g><g clip-rule="nonzero" clip-path="url(#5e8ed1d58f)"><g clip-rule="nonzero" clip-path="url(#ae5bc61109)"><path style=" stroke:none;fill-rule:nonzero;fill:currentColor;fill-opacity:1;" d="M 122.320312 55.988281 L 187.054688 55.988281 L 187.054688 119.972656 L 122.320312 119.972656 Z M 122.320312 55.988281 "/></g></g><g clip-rule="nonzero" clip-path="url(#0e4c13c2ce)"><g clip-rule="nonzero" clip-path="url(#254ab53278)"><path style=" stroke:none;fill-rule:nonzero;fill:currentColor;fill-opacity:1;" d="M 122.402344 56.234375 L 181.46875 56.234375 L 181.46875 106.136719 L 122.402344 106.136719 Z M 122.402344 56.234375 "/></g></g></g></svg>