<svg xmlns="http://www.w3.org/2000/svg" xmlns:xlink="http://www.w3.org/1999/xlink" width="500" zoomAndPan="magnify" viewBox="0 0 375 374.999991" height="500" preserveAspectRatio="xMidYMid meet" version="1.2"><defs><clipPath id="6db619776d"><path d="M 133.332031 308.652344 L 256.335938 308.652344 L 256.335938 334.503906 L 133.332031 334.503906 Z M 133.332031 308.652344 "/></clipPath><clipPath id="eb45a4cfb1"><path d="M 140.097656 309.863281 C 148.917969 316.476562 160.257812 320.886719 167.421875 322.933594 C 173.484375 324.664062 179.3125 325.296875 184.585938 325.847656 C 188.996094 326.320312 193.246094 326.476562 196.949219 326.476562 C 199.941406 326.398438 202.144531 326.238281 205.058594 325.769531 C 208.679688 325.214844 212.222656 324.351562 217.027344 323.011719 C 224.429688 320.964844 239.152344 316.476562 245.058594 313.957031 C 247.972656 312.777344 249.46875 310.964844 251.28125 310.726562 C 252.617188 310.570312 254.035156 310.886719 254.824219 311.515625 C 255.609375 312.066406 256.082031 313.167969 256.238281 313.957031 C 256.320312 314.585938 256.320312 315.214844 256.003906 315.847656 C 255.6875 316.554688 254.980469 317.578125 254.273438 317.972656 C 253.484375 318.367188 252.539062 318.601562 251.671875 318.445312 C 250.648438 318.207031 249.230469 317.183594 248.761719 316.160156 C 248.289062 315.214844 248.523438 313.40625 248.917969 312.539062 C 249.3125 311.75 250.097656 311.199219 250.886719 310.886719 C 251.59375 310.570312 252.617188 310.492188 253.40625 310.726562 C 254.351562 311.121094 255.6875 312.304688 256.082031 313.328125 C 256.398438 314.351562 256.003906 316.082031 255.453125 316.949219 C 254.980469 317.65625 254.113281 318.128906 253.328125 318.367188 C 252.617188 318.523438 251.59375 318.601562 250.886719 318.207031 C 249.941406 317.734375 248.679688 316.476562 248.445312 315.375 C 248.207031 314.351562 248.839844 312.617188 249.46875 311.832031 C 250.019531 311.199219 251.753906 310.726562 251.671875 310.648438 C 251.671875 310.648438 250.414062 311.042969 250.414062 311.121094 C 250.414062 311.28125 253.089844 310.570312 254.035156 311.042969 C 254.902344 311.359375 255.609375 312.304688 255.925781 313.089844 C 256.238281 313.640625 256.320312 314.273438 256.238281 314.902344 C 256.082031 315.6875 255.769531 316.632812 254.980469 317.421875 C 253.640625 318.839844 250.964844 319.941406 247.578125 321.359375 C 241.359375 324.113281 227.734375 328.367188 219.625 330.570312 C 213.484375 332.222656 207.972656 333.5625 203.40625 334.113281 C 200.175781 334.507812 198.601562 334.429688 195.058594 334.351562 C 188.839844 334.113281 177.421875 333.5625 169.546875 331.832031 C 162.539062 330.253906 155.53125 327.34375 150.019531 324.980469 C 145.6875 323.167969 141.753906 321.359375 138.917969 319.390625 C 136.792969 317.894531 134.742188 316.160156 133.957031 314.664062 C 133.484375 313.71875 133.328125 312.777344 133.484375 311.910156 C 133.640625 311.042969 134.191406 310.097656 134.902344 309.546875 C 135.609375 308.996094 136.710938 308.601562 137.578125 308.679688 C 138.445312 308.761719 140.097656 309.863281 140.097656 309.863281 "/></clipPath><clipPath id="763c402d3d"><path d="M 112.738281 187.621094 L 140.449219 187.621094 L 140.449219 315.878906 L 112.738281 315.878906 Z M 112.738281 187.621094 "/></clipPath><clipPath id="92e8ef679c"><path d="M 132.460938 312.066406 C 122.933594 238.839844 111.832031 200.019531 112.855469 191.832031 C 113.089844 189.941406 113.640625 189.152344 114.429688 188.523438 C 115.058594 187.972656 116.003906 187.734375 116.871094 187.734375 C 117.65625 187.734375 118.601562 188.050781 119.230469 188.601562 C 119.863281 189.074219 120.414062 189.863281 120.570312 190.648438 C 120.808594 191.4375 120.808594 192.460938 120.414062 193.167969 C 119.941406 194.113281 118.523438 195.214844 117.578125 195.53125 C 116.792969 195.769531 115.847656 195.609375 115.058594 195.214844 C 114.191406 194.664062 113.089844 193.246094 112.855469 192.222656 C 112.695312 191.4375 112.855469 190.492188 113.328125 189.785156 C 113.878906 188.917969 115.375 187.894531 116.398438 187.734375 C 117.265625 187.578125 118.207031 187.894531 118.839844 188.289062 C 119.546875 188.761719 119.863281 188.996094 120.492188 190.257812 C 123.5625 196.871094 130.886719 238.523438 134.273438 260.097656 C 137.105469 278.523438 140.886719 305.375 140.257812 311.671875 C 140.175781 313.167969 140.019531 313.640625 139.46875 314.351562 C 138.917969 315.058594 137.972656 315.6875 137.027344 315.769531 C 136.003906 315.925781 134.351562 315.375 133.5625 314.664062 C 132.855469 314.035156 132.460938 312.066406 132.460938 312.066406 "/></clipPath><clipPath id="17adc36d58"><path d="M 110.484375 60.703125 L 160.5 60.703125 L 160.5 199.875 L 110.484375 199.875 Z M 110.484375 60.703125 "/></clipPath><clipPath id="6d22492d06"><path d="M 113.640625 195.925781 C 110.492188 176.476562 110.492188 169.390625 110.808594 164.664062 C 110.964844 161.4375 111.042969 159.390625 111.753906 156.476562 C 112.539062 153.011719 113.878906 148.996094 115.609375 145.058594 C 117.734375 140.492188 120.257812 135.769531 123.878906 130.648438 C 128.761719 123.71875 138.445312 114.191406 143.089844 108.050781 C 146.160156 104.035156 148.601562 100.414062 150.019531 97.816406 C 150.808594 96.320312 151.042969 95.609375 151.4375 94.113281 C 151.910156 91.910156 152.066406 88.996094 152.222656 85.6875 C 152.382812 81.042969 152.777344 72.304688 152.222656 68.679688 C 151.910156 66.949219 151.042969 66.082031 151.042969 64.980469 C 151.042969 64.035156 151.28125 63.167969 151.671875 62.539062 C 152.144531 61.832031 152.855469 61.199219 153.640625 60.964844 C 154.664062 60.726562 156.398438 60.964844 157.34375 61.515625 C 158.050781 61.910156 158.601562 62.695312 158.761719 63.5625 C 158.996094 64.585938 158.679688 66.320312 158.050781 67.183594 C 157.34375 68.050781 155.6875 68.679688 154.585938 68.601562 C 153.5625 68.523438 152.066406 67.421875 151.515625 66.554688 C 151.042969 65.847656 150.964844 64.902344 151.042969 64.113281 C 151.199219 63.328125 151.59375 62.382812 152.222656 61.832031 C 153.011719 61.199219 154.742188 60.726562 155.769531 60.808594 C 156.554688 60.886719 157.34375 61.28125 157.894531 62.066406 C 158.917969 63.328125 159.625 65.847656 160.097656 68.679688 C 160.808594 73.5625 160.335938 83.957031 159.863281 89.230469 C 159.625 92.695312 159.390625 94.902344 158.523438 97.578125 C 157.734375 100.335938 156.238281 102.933594 154.824219 105.375 C 153.484375 107.734375 152.304688 109.390625 150.257812 111.910156 C 146.949219 116.082031 140.414062 122.695312 136.554688 127.421875 C 133.484375 131.121094 130.726562 134.507812 128.523438 137.65625 C 126.871094 140.175781 125.6875 141.988281 124.429688 144.742188 C 122.777344 148.128906 120.726562 152.855469 119.785156 156.632812 C 118.996094 159.785156 118.839844 162.222656 118.679688 165.6875 C 118.445312 170.335938 118.367188 177.578125 118.996094 182.066406 C 119.46875 185.136719 120.648438 187.34375 121.042969 189.863281 C 121.4375 192.222656 121.832031 195.058594 121.4375 196.710938 C 121.121094 197.734375 120.570312 198.523438 119.863281 198.996094 C 119.152344 199.546875 118.050781 199.863281 117.183594 199.785156 C 116.320312 199.703125 115.296875 199.152344 114.664062 198.523438 C 114.113281 197.894531 113.640625 195.925781 113.640625 195.925781 "/></clipPath><clipPath id="4ace296340"><path d="M 97.65625 54.554688 L 160.539062 54.554688 L 160.539062 138.578125 L 97.65625 138.578125 Z M 97.65625 54.554688 "/></clipPath><clipPath id="9a9600bf3b"><path d="M 117.972656 137.183594 C 106.238281 123.878906 105.453125 121.753906 104.191406 118.917969 C 102.695312 115.453125 101.042969 110.648438 100.019531 107.027344 C 99.230469 104.035156 98.679688 101.910156 98.367188 98.839844 C 97.972656 94.980469 97.578125 89.46875 98.128906 85.609375 C 98.601562 82.460938 99.625 80.097656 100.964844 77.183594 C 102.617188 73.640625 105.214844 68.917969 107.734375 66.082031 C 109.785156 63.71875 111.671875 62.144531 114.429688 60.726562 C 117.734375 58.917969 122.855469 57.734375 126.554688 56.792969 C 129.625 56.003906 131.753906 55.609375 135.058594 55.296875 C 139.546875 54.902344 147.734375 54.429688 151.28125 55.296875 C 153.089844 55.6875 154.035156 56.398438 155.136719 57.183594 C 156.238281 58.050781 157.183594 59.074219 157.972656 60.175781 C 158.679688 61.28125 159.230469 62.617188 159.625 63.878906 C 160.019531 65.136719 160.492188 66.476562 160.257812 67.578125 C 160.097656 68.761719 159.230469 70.175781 158.289062 70.726562 C 157.34375 71.28125 155.609375 71.359375 154.664062 70.886719 C 153.640625 70.414062 152.617188 68.917969 152.460938 67.894531 C 152.304688 66.792969 152.933594 65.136719 153.71875 64.429688 C 154.507812 63.640625 156.238281 63.25 157.265625 63.484375 C 158.367188 63.71875 159.625 64.980469 160.019531 65.925781 C 160.414062 66.710938 160.335938 67.65625 160.097656 68.445312 C 159.941406 69.230469 159.3125 70.019531 158.679688 70.492188 C 158.050781 70.964844 157.105469 71.359375 156.238281 71.28125 C 155.296875 71.121094 153.878906 70.414062 153.089844 69.46875 C 152.066406 68.289062 152.304688 65.453125 151.28125 64.351562 C 150.335938 63.40625 149.230469 63.25 147.5 63.011719 C 143.878906 62.460938 135.769531 62.933594 130.726562 63.800781 C 126.320312 64.585938 121.59375 66.238281 118.839844 67.421875 C 117.183594 68.128906 116.476562 68.367188 115.214844 69.546875 C 113.011719 71.671875 109.546875 77.734375 108.128906 80.414062 C 107.34375 81.988281 107.027344 82.695312 106.632812 84.191406 C 106.082031 86.320312 105.925781 89.46875 105.925781 92.222656 C 105.925781 94.980469 106.082031 97.816406 106.632812 100.570312 C 107.105469 103.484375 107.894531 106.160156 108.917969 109.230469 C 110.257812 112.855469 111.753906 117.265625 114.113281 121.042969 C 116.792969 125.375 123.640625 130.570312 124.585938 133.40625 C 124.980469 134.507812 124.742188 135.375 124.351562 136.160156 C 123.957031 136.949219 123.167969 137.734375 122.382812 138.128906 C 121.515625 138.445312 120.335938 138.445312 119.546875 138.207031 C 118.917969 138.050781 117.972656 137.183594 117.972656 137.183594 "/></clipPath><clipPath id="214de9d823"><path d="M 110.988281 69.570312 L 158.324219 69.570312 L 158.324219 123.964844 L 110.988281 123.964844 Z M 110.988281 69.570312 "/></clipPath><clipPath id="1d5b5d812b"><path d="M 129.785156 123.25 C 119.546875 114.429688 116.082031 109.625 114.507812 106.871094 C 113.484375 105.214844 113.089844 104.351562 112.617188 102.617188 C 111.988281 100.414062 111.59375 97.34375 111.4375 94.664062 C 111.199219 91.910156 110.570312 88.996094 111.4375 86.160156 C 112.617188 82.539062 116.082031 77.65625 118.917969 75.214844 C 121.28125 73.25 123.957031 72.460938 126.554688 71.59375 C 129.152344 70.726562 131.4375 70.257812 134.664062 70.019531 C 139.230469 69.703125 147.183594 69.46875 151.28125 70.648438 C 154.113281 71.515625 156.871094 73.011719 157.734375 74.585938 C 158.367188 75.609375 158.289062 77.265625 157.734375 78.207031 C 157.265625 79.230469 155.769531 80.175781 154.664062 80.257812 C 153.5625 80.414062 151.988281 79.703125 151.28125 78.917969 C 150.570312 78.050781 150.175781 76.320312 150.492188 75.296875 C 150.808594 74.273438 151.988281 73.011719 153.011719 72.617188 C 154.035156 72.304688 155.847656 72.617188 156.710938 73.25 C 157.5 73.878906 158.207031 75.609375 158.207031 76.632812 C 158.207031 77.421875 157.816406 78.367188 157.265625 78.917969 C 156.710938 79.546875 156.082031 80.097656 155.058594 80.257812 C 153.167969 80.492188 149.230469 78.207031 145.925781 77.894531 C 142.144531 77.421875 137.265625 77.578125 133.640625 78.128906 C 130.726562 78.523438 127.734375 79.152344 125.769531 80.175781 C 124.351562 80.886719 123.40625 81.832031 122.539062 82.855469 C 121.59375 83.878906 120.886719 85.058594 120.257812 86.320312 C 119.703125 87.65625 119.230469 88.917969 119.074219 90.570312 C 118.839844 92.855469 119.46875 96.632812 120.019531 98.917969 C 120.414062 100.726562 120.808594 101.910156 121.59375 103.40625 C 122.695312 105.453125 124.351562 107.65625 126.320312 109.863281 C 128.761719 112.695312 134.742188 116.792969 135.609375 118.761719 C 136.003906 119.546875 135.925781 120.019531 135.769531 120.648438 C 135.53125 121.4375 134.902344 122.539062 134.273438 123.011719 C 133.5625 123.5625 132.382812 123.800781 131.59375 123.800781 C 130.886719 123.800781 129.785156 123.25 129.785156 123.25 "/></clipPath><clipPath id="fb9502b868"><path d="M 151.300781 40.3125 L 220.175781 40.3125 L 220.175781 70.390625 L 151.300781 70.390625 Z M 151.300781 40.3125 "/></clipPath><clipPath id="0a576ed35f"><path d="M 152.222656 56.949219 C 162.222656 47.578125 164.742188 46.320312 167.34375 45.136719 C 169.941406 44.035156 172.304688 43.089844 175.296875 42.304688 C 178.996094 41.4375 183.089844 40.886719 187.734375 40.648438 C 193.71875 40.335938 204.273438 40.097656 208.128906 41.199219 C 209.863281 41.671875 210.492188 42.304688 211.59375 43.167969 C 212.777344 44.035156 214.273438 45.136719 215.136719 46.710938 C 216.160156 48.679688 215.6875 51.671875 216.398438 54.507812 C 217.265625 57.894531 219.941406 63.328125 220.097656 65.6875 C 220.175781 66.792969 220.097656 67.5 219.703125 68.207031 C 219.3125 68.839844 218.601562 69.546875 217.894531 69.941406 C 217.183594 70.257812 216.160156 70.414062 215.375 70.175781 C 214.429688 69.863281 212.933594 68.839844 212.539062 67.816406 C 212.144531 66.792969 212.382812 65.058594 212.933594 64.113281 C 213.5625 63.246094 215.214844 62.460938 216.238281 62.382812 C 217.027344 62.304688 217.972656 62.695312 218.601562 63.167969 C 219.230469 63.640625 219.863281 64.429688 220.019531 65.296875 C 220.175781 66.320312 219.941406 68.050781 219.230469 68.917969 C 218.523438 69.703125 216.871094 70.335938 215.769531 70.257812 C 214.742188 70.175781 213.71875 69.46875 212.777344 68.207031 C 210.492188 65.136719 211.121094 52.304688 206.710938 48.996094 C 202.222656 45.609375 191.28125 48.128906 185.769531 48.523438 C 182.144531 48.761719 180.019531 49.074219 176.871094 49.941406 C 173.246094 51.042969 168.761719 52.777344 165.453125 55.058594 C 162.382812 57.105469 159.390625 61.4375 157.65625 62.617188 C 156.871094 63.089844 156.554688 63.246094 155.925781 63.328125 C 155.136719 63.40625 153.878906 63.167969 153.167969 62.777344 C 152.617188 62.460938 152.144531 61.910156 151.832031 61.4375 C 151.59375 60.886719 151.359375 60.257812 151.359375 59.625 C 151.359375 58.761719 152.222656 56.949219 152.222656 56.949219 "/></clipPath><clipPath id="2424c5a44f"><path d="M 212.222656 63.148438 L 228.964844 63.148438 L 228.964844 103.382812 L 212.222656 103.382812 Z M 212.222656 63.148438 "/></clipPath><clipPath id="99ed3c10c6"><path d="M 219.230469 64.507812 C 227.34375 73.957031 227.972656 74.507812 228.445312 76.632812 C 229.46875 81.28125 228.839844 96.871094 227.105469 100.648438 C 226.398438 102.144531 225.453125 102.933594 224.429688 103.25 C 223.40625 103.484375 221.671875 103.011719 220.808594 102.460938 C 220.097656 101.910156 219.703125 101.042969 219.546875 100.257812 C 219.390625 99.46875 219.390625 98.523438 219.785156 97.816406 C 220.335938 96.871094 221.753906 95.769531 222.695312 95.53125 C 223.5625 95.375 224.507812 95.609375 225.214844 95.925781 C 225.925781 96.320312 226.632812 96.949219 226.949219 97.816406 C 227.265625 98.761719 227.265625 100.492188 226.710938 101.4375 C 226.160156 102.382812 224.664062 103.328125 223.5625 103.328125 C 222.460938 103.40625 220.964844 102.855469 220.257812 101.832031 C 219.230469 100.414062 219.546875 97.65625 219.46875 94.824219 C 219.390625 90.492188 221.988281 82.460938 220.492188 78.050781 C 219.3125 74.507812 214.585938 71.832031 213.328125 69.703125 C 212.695312 68.679688 212.382812 67.894531 212.304688 67.105469 C 212.304688 66.476562 212.460938 65.847656 212.777344 65.296875 C 213.167969 64.585938 214.035156 63.71875 214.902344 63.40625 C 215.6875 63.089844 216.871094 63.167969 217.65625 63.40625 C 218.289062 63.640625 219.230469 64.507812 219.230469 64.507812 "/></clipPath><clipPath id="38b6fb4b09"><path d="M 219.320312 95.429688 L 245.742188 95.429688 L 245.742188 148.148438 L 219.320312 148.148438 Z M 219.320312 95.429688 "/></clipPath><clipPath id="82e97821ff"><path d="M 225.6875 96.238281 C 243.640625 113.25 244.113281 113.957031 244.664062 115.136719 C 245.214844 116.320312 245.609375 117.421875 245.6875 118.996094 C 245.769531 121.359375 244.664062 124.351562 244.351562 127.816406 C 243.957031 132.695312 244.980469 142.539062 243.957031 145.375 C 243.5625 146.476562 243.089844 146.949219 242.460938 147.421875 C 241.753906 147.816406 240.886719 148.207031 240.019531 148.050781 C 238.996094 147.894531 237.421875 147.027344 236.871094 146.160156 C 236.398438 145.453125 236.238281 144.507812 236.320312 143.71875 C 236.398438 142.933594 236.710938 141.988281 237.34375 141.4375 C 238.128906 140.726562 239.863281 140.175781 240.886719 140.257812 C 241.671875 140.335938 242.539062 140.808594 243.089844 141.4375 C 243.71875 142.222656 244.273438 143.957031 244.035156 144.980469 C 243.800781 146.082031 242.695312 147.421875 241.671875 147.816406 C 240.648438 148.207031 238.917969 147.972656 238.050781 147.421875 C 237.105469 146.792969 236.632812 145.6875 236.320312 144.113281 C 235.453125 140.726562 236.160156 131.515625 236.554688 126.871094 C 236.871094 123.640625 238.839844 121.671875 237.894531 118.761719 C 236.160156 113.800781 222.382812 104.746094 220.335938 101.910156 C 219.785156 101.121094 219.625 100.808594 219.546875 100.257812 C 219.390625 99.625 219.390625 98.996094 219.546875 98.367188 C 219.863281 97.578125 220.492188 96.554688 221.28125 96.082031 C 221.988281 95.609375 223.167969 95.453125 223.957031 95.53125 C 224.664062 95.609375 225.6875 96.238281 225.6875 96.238281 "/></clipPath><clipPath id="02c0ae4475"><path d="M 236.289062 140.226562 L 270.441406 140.226562 L 270.441406 185.917969 L 236.289062 185.917969 Z M 236.289062 140.226562 "/></clipPath><clipPath id="3efe8093ff"><path d="M 241.121094 140.253906 C 267.265625 151.671875 267.578125 151.988281 268.207031 153.800781 C 269.863281 158.445312 270.964844 177.265625 269.941406 181.910156 C 269.546875 183.640625 269.152344 184.585938 268.207031 185.214844 C 267.34375 185.769531 265.53125 186.003906 264.585938 185.609375 C 263.5625 185.214844 262.382812 183.878906 262.144531 182.777344 C 261.910156 181.75 262.539062 180.019531 263.167969 179.230469 C 263.640625 178.601562 264.585938 178.207031 265.375 178.050781 C 266.160156 177.894531 267.105469 177.972656 267.894531 178.445312 C 268.679688 178.996094 269.785156 180.414062 269.941406 181.515625 C 270.019531 182.617188 269.390625 184.273438 268.523438 184.902344 C 267.734375 185.609375 265.925781 185.925781 264.980469 185.6875 C 264.113281 185.53125 263.328125 184.980469 262.855469 184.351562 C 262.382812 183.71875 262.144531 182.855469 262.066406 181.910156 C 261.910156 180.886719 262.382812 179.941406 262.382812 178.367188 C 262.304688 175.375 260.648438 168.996094 260.570312 165.136719 C 260.570312 162.066406 262.855469 159.3125 261.4375 156.871094 C 258.839844 152.617188 240.648438 149.785156 237.65625 147.105469 C 236.710938 146.238281 236.476562 145.53125 236.320312 144.664062 C 236.238281 143.800781 236.554688 142.695312 236.949219 141.988281 C 237.265625 141.359375 237.734375 140.964844 238.289062 140.648438 C 239.074219 140.335938 241.121094 140.253906 241.121094 140.253906 "/></clipPath><clipPath id="731e6b4f87"><path d="M 248.773438 178.324219 L 277.203125 178.324219 L 277.203125 318.328125 L 248.773438 318.328125 Z M 248.773438 178.324219 "/></clipPath><clipPath id="f65913ceec"><path d="M 248.839844 313.640625 C 255.058594 290.726562 257.105469 279.703125 259.230469 266.871094 C 262.382812 248.367188 268.050781 207.734375 268.839844 198.761719 C 269.074219 196.554688 269.390625 195.925781 268.996094 194.664062 C 268.601562 193.40625 267.816406 192.460938 266.554688 191.28125 C 264.273438 189.3125 257.265625 187.183594 255.609375 184.980469 C 254.742188 183.878906 254.585938 182.460938 254.742188 181.4375 C 254.824219 180.570312 255.375 179.785156 256.082031 179.3125 C 256.949219 178.761719 258.679688 178.289062 259.703125 178.601562 C 260.726562 178.917969 261.910156 180.335938 262.304688 181.28125 C 262.617188 182.066406 262.539062 183.011719 262.222656 183.800781 C 261.988281 184.507812 261.359375 185.296875 260.648438 185.6875 C 259.703125 186.160156 257.972656 186.320312 256.949219 186.003906 C 256.160156 185.769531 255.453125 185.058594 255.136719 184.351562 C 254.664062 183.40625 254.664062 181.59375 254.980469 180.648438 C 255.296875 179.863281 256.082031 179.230469 256.792969 178.839844 C 257.5 178.523438 258.128906 178.289062 259.3125 178.523438 C 262.382812 179.074219 272.777344 184.664062 275.296875 187.421875 C 276.476562 188.679688 276.554688 189.625 276.871094 191.199219 C 277.265625 193.40625 277.027344 195.453125 276.710938 199.390625 C 275.847656 210.335938 271.4375 241.671875 268.445312 259.941406 C 265.925781 275.136719 263.089844 291.28125 260.492188 301.671875 C 258.917969 308.050781 257.265625 314.742188 255.769531 316.871094 C 255.296875 317.578125 254.902344 317.816406 254.273438 317.972656 C 253.5625 318.289062 252.304688 318.367188 251.515625 318.128906 C 250.648438 317.894531 249.785156 317.105469 249.3125 316.398438 C 248.917969 315.609375 248.839844 313.640625 248.839844 313.640625 "/></clipPath><clipPath id="e244b2aff9"><path d="M 228.398438 153.214844 L 259.921875 153.214844 L 259.921875 184.160156 L 228.398438 184.160156 Z M 228.398438 153.214844 "/></clipPath><clipPath id="caf3783596"><path d="M 252.066406 180.886719 C 246.003906 158.445312 248.917969 160.492188 248.761719 161.121094 C 248.367188 162.539062 235.453125 164.351562 232.460938 164.113281 C 231.28125 164.035156 230.726562 163.800781 230.097656 163.328125 C 229.46875 162.855469 228.839844 162.066406 228.679688 161.28125 C 228.445312 160.253906 228.839844 158.445312 229.46875 157.65625 C 229.941406 156.949219 230.808594 156.554688 231.59375 156.320312 C 232.382812 156.160156 233.40625 156.238281 234.113281 156.632812 C 234.980469 157.105469 236.082031 158.523438 236.320312 159.546875 C 236.554688 160.335938 236.320312 161.359375 235.925781 162.066406 C 235.609375 162.695312 234.824219 163.40625 234.113281 163.800781 C 233.40625 164.113281 232.382812 164.191406 231.59375 164.035156 C 230.886719 163.878906 230.019531 163.328125 229.46875 162.777344 C 228.996094 162.144531 228.523438 161.28125 228.523438 160.414062 C 228.601562 159.390625 228.917969 157.972656 230.097656 157.027344 C 232.617188 155.058594 243.328125 153.71875 247.027344 153.484375 C 248.839844 153.328125 249.941406 153.089844 250.964844 153.71875 C 252.066406 154.351562 252.460938 155.769531 253.167969 157.421875 C 254.507812 160.253906 256.160156 165.375 257.34375 169.3125 C 258.367188 173.011719 260.019531 177.894531 259.863281 180.253906 C 259.703125 181.4375 259.3125 182.222656 258.761719 182.855469 C 258.128906 183.484375 257.105469 183.957031 256.238281 184.035156 C 255.375 184.113281 254.191406 183.800781 253.5625 183.246094 C 252.855469 182.695312 252.066406 180.886719 252.066406 180.886719 "/></clipPath><clipPath id="f3438e022f"><path d="M 207.15625 146.546875 L 236.394531 146.546875 L 236.394531 165.382812 L 207.15625 165.382812 Z M 207.15625 146.546875 "/></clipPath><clipPath id="52978c5eff"><path d="M 208.761719 156.476562 C 220.097656 148.523438 223.011719 146.476562 225.136719 146.554688 C 226.792969 146.632812 228.367188 147.816406 229.390625 148.917969 C 230.257812 149.863281 230.097656 151.199219 230.808594 152.617188 C 231.988281 154.742188 235.609375 158.367188 236.160156 160.257812 C 236.476562 161.28125 236.320312 162.066406 236.003906 162.777344 C 235.769531 163.5625 235.136719 164.351562 234.429688 164.742188 C 233.484375 165.214844 231.671875 165.296875 230.726562 164.902344 C 229.941406 164.664062 229.230469 163.878906 228.917969 163.246094 C 228.523438 162.539062 228.367188 161.515625 228.445312 160.726562 C 228.601562 159.941406 228.996094 159.074219 229.625 158.523438 C 230.414062 157.894531 232.144531 157.265625 233.167969 157.5 C 234.273438 157.734375 235.53125 158.996094 236.003906 159.863281 C 236.398438 160.648438 236.398438 161.59375 236.160156 162.382812 C 235.925781 163.167969 235.375 164.035156 234.742188 164.507812 C 234.113281 164.980469 233.167969 165.296875 232.382812 165.296875 C 231.59375 165.296875 230.808594 165.058594 230.019531 164.507812 C 228.761719 163.640625 227.265625 161.832031 226.082031 160.019531 C 224.664062 157.894531 221.671875 152.933594 222.304688 152.304688 C 222.695312 151.910156 226.238281 153.167969 226.320312 154.113281 C 226.476562 155.925781 215.609375 162.304688 212.695312 163.246094 C 211.4375 163.640625 210.726562 163.640625 209.863281 163.40625 C 209.074219 163.089844 208.128906 162.382812 207.734375 161.59375 C 207.265625 160.886719 207.105469 159.703125 207.265625 158.839844 C 207.421875 158.050781 208.761719 156.476562 208.761719 156.476562 "/></clipPath><clipPath id="ba62b90178"><path d="M 204.332031 156.96875 L 214.765625 156.96875 L 214.765625 184.945312 L 204.332031 184.945312 Z M 204.332031 156.96875 "/></clipPath><clipPath id="0401aa1cd8"><path d="M 214.742188 160.886719 C 213.71875 175.6875 212.777344 181.4375 211.4375 183.328125 C 210.808594 184.191406 210.097656 184.507812 209.3125 184.742188 C 208.601562 184.980469 207.578125 184.902344 206.871094 184.585938 C 206.082031 184.351562 205.296875 183.640625 204.902344 183.011719 C 204.507812 182.304688 204.273438 181.359375 204.351562 180.570312 C 204.429688 179.703125 204.824219 178.839844 205.453125 178.289062 C 206.160156 177.578125 207.816406 176.871094 208.917969 177.105469 C 210.019531 177.265625 211.4375 178.289062 211.832031 179.3125 C 212.304688 180.257812 212.144531 182.066406 211.671875 183.011719 C 211.28125 183.71875 210.492188 184.351562 209.785156 184.585938 C 208.996094 184.902344 207.972656 184.980469 207.265625 184.742188 C 206.476562 184.507812 205.609375 183.957031 205.136719 183.328125 C 204.664062 182.695312 204.429688 182.066406 204.351562 180.964844 C 204.191406 178.367188 206.398438 171.753906 206.871094 167.734375 C 207.265625 164.585938 206.476562 160.808594 207.265625 159.074219 C 207.734375 158.050781 208.601562 157.5 209.390625 157.183594 C 210.175781 156.871094 211.4375 156.949219 212.144531 157.183594 C 212.777344 157.421875 213.328125 157.734375 213.71875 158.289062 C 214.191406 158.917969 214.742188 160.886719 214.742188 160.886719 "/></clipPath><clipPath id="72143b9f73"><path d="M 182 179.605469 L 212.652344 179.605469 L 212.652344 201.089844 L 182 201.089844 Z M 182 179.605469 "/></clipPath><clipPath id="b01aca4e5e"><path d="M 183.40625 194.035156 C 197.183594 184.824219 205.058594 180.175781 208.050781 179.703125 C 209.152344 179.46875 209.785156 179.703125 210.492188 180.097656 C 211.199219 180.414062 211.910156 181.199219 212.222656 181.910156 C 212.617188 182.617188 212.695312 183.640625 212.539062 184.429688 C 212.382812 185.136719 211.910156 186.082031 211.28125 186.554688 C 210.414062 187.183594 208.679688 187.578125 207.65625 187.34375 C 206.792969 187.183594 206.003906 186.710938 205.53125 186.003906 C 204.980469 185.136719 204.742188 183.328125 204.980469 182.304688 C 205.136719 181.515625 205.847656 180.808594 206.476562 180.335938 C 207.105469 179.863281 208.050781 179.546875 208.917969 179.625 C 209.863281 179.785156 211.4375 180.726562 212.066406 181.515625 C 212.539062 182.222656 212.695312 183.167969 212.617188 183.957031 C 212.539062 184.742188 212.382812 185.375 211.59375 186.238281 C 209.3125 188.679688 198.523438 193.167969 194.035156 195.925781 C 190.964844 197.816406 188.679688 200.492188 186.792969 200.964844 C 185.6875 201.199219 184.742188 200.964844 184.035156 200.492188 C 183.246094 200.097656 182.460938 199.230469 182.222656 198.367188 C 181.910156 197.578125 182.066406 196.320312 182.304688 195.609375 C 182.539062 194.980469 183.40625 194.035156 183.40625 194.035156 "/></clipPath><clipPath id="7d2445f9d6"><path d="M 154.171875 194.328125 L 189 194.328125 L 189 278.136719 L 154.171875 278.136719 Z M 154.171875 194.328125 "/></clipPath><clipPath id="9e3ff20744"><path d="M 188.996094 198.839844 C 186.160156 210.964844 180.492188 226.949219 176.792969 236.710938 C 173.640625 245.058594 169.863281 252.695312 167.265625 259.703125 C 165.136719 265.375 163.800781 272.460938 161.910156 275.375 C 161.042969 276.710938 160.257812 277.5 159.230469 277.894531 C 158.445312 278.207031 157.5 278.050781 156.710938 277.734375 C 156.003906 277.421875 155.214844 276.792969 154.824219 276.082031 C 154.429688 275.453125 154.191406 274.429688 154.273438 273.640625 C 154.429688 272.855469 154.742188 271.910156 155.375 271.359375 C 156.160156 270.726562 157.816406 270.019531 158.839844 270.175781 C 159.941406 270.414062 161.28125 271.59375 161.832031 272.460938 C 162.222656 273.167969 162.222656 274.191406 162.066406 274.980469 C 161.910156 275.6875 161.359375 276.554688 160.726562 277.105469 C 160.175781 277.578125 159.230469 277.972656 158.445312 278.050781 C 157.65625 278.050781 156.632812 277.894531 156.003906 277.34375 C 155.214844 276.710938 154.429688 275.609375 154.273438 274.113281 C 154.035156 270.964844 157.105469 264.824219 159.152344 259.074219 C 161.988281 251.28125 166.710938 241.042969 170.175781 231.832031 C 173.640625 222.460938 178.289062 209.546875 180.019531 203.40625 C 180.808594 200.492188 180.648438 198.445312 181.4375 196.949219 C 181.910156 196.003906 182.539062 195.296875 183.246094 194.902344 C 184.035156 194.507812 185.214844 194.351562 186.082031 194.585938 C 186.871094 194.742188 187.816406 195.453125 188.367188 196.160156 C 188.839844 196.871094 188.996094 198.839844 188.996094 198.839844 "/></clipPath><clipPath id="59293f8cca"><path d="M 153.769531 184.414062 L 180.742188 184.414062 L 180.742188 278.886719 L 153.769531 278.886719 Z M 153.769531 184.414062 "/></clipPath><clipPath id="1ff0ae8c14"><path d="M 154.273438 275.058594 C 153.328125 243.640625 153.878906 241.515625 155.375 236.003906 C 158.367188 224.824219 169.941406 192.066406 173.167969 186.792969 C 173.878906 185.6875 174.191406 185.375 174.902344 184.980469 C 175.609375 184.585938 176.554688 184.429688 177.34375 184.585938 C 178.128906 184.742188 178.996094 185.214844 179.546875 185.769531 C 180.097656 186.320312 180.648438 187.183594 180.648438 188.050781 C 180.648438 189.074219 180.097656 190.726562 179.3125 191.4375 C 178.445312 192.144531 176.710938 192.460938 175.6875 192.222656 C 174.824219 192.066406 174.035156 191.59375 173.5625 190.886719 C 173.011719 190.019531 172.777344 188.207031 173.011719 187.183594 C 173.167969 186.398438 173.878906 185.6875 174.507812 185.214844 C 175.136719 184.742188 176.082031 184.429688 176.949219 184.507812 C 177.972656 184.664062 179.46875 185.609375 180.097656 186.398438 C 180.570312 187.105469 180.726562 187.65625 180.648438 188.917969 C 180.414062 193.011719 174.273438 208.367188 171.515625 215.453125 C 169.703125 220.175781 167.972656 222.933594 166.398438 227.265625 C 164.585938 232.144531 162.382812 238.207031 161.515625 243.25 C 160.726562 247.734375 160.808594 251.28125 160.808594 256.003906 C 160.886719 261.832031 162.933594 272.222656 162.066406 275.53125 C 161.753906 276.792969 161.359375 277.421875 160.648438 277.972656 C 159.941406 278.445312 158.839844 278.839844 157.972656 278.761719 C 157.105469 278.679688 156.082031 278.207031 155.453125 277.65625 C 154.824219 277.027344 154.273438 275.058594 154.273438 275.058594 "/></clipPath><clipPath id="5b56d2fdcd"><path d="M 172.617188 148.207031 L 206.949219 148.207031 L 206.949219 190.726562 L 172.617188 190.726562 Z M 172.617188 148.207031 "/></clipPath><clipPath id="8b71ce58bc"><path d="M 174.507812 183.40625 C 196.082031 167.027344 198.128906 152.066406 199.863281 149.703125 C 200.175781 149.152344 200.335938 149.074219 200.808594 148.839844 C 201.59375 148.523438 203.484375 148.207031 204.507812 148.679688 C 205.453125 149.074219 206.554688 150.492188 206.710938 151.59375 C 206.871094 152.617188 206.238281 154.273438 205.53125 155.058594 C 204.980469 155.6875 204.035156 156.082031 203.246094 156.160156 C 202.460938 156.238281 201.515625 156.003906 200.808594 155.609375 C 200.175781 155.214844 199.46875 154.429688 199.152344 153.71875 C 198.917969 152.933594 198.761719 151.988281 199.074219 151.199219 C 199.390625 150.257812 200.570312 148.839844 201.59375 148.523438 C 202.617188 148.128906 204.351562 148.445312 205.214844 149.074219 C 206.082031 149.703125 206.632812 150.808594 206.792969 152.460938 C 207.027344 156.710938 201.671875 172.222656 199.074219 176.320312 C 197.972656 178.050781 197.421875 178.128906 195.769531 179.390625 C 192.222656 182.066406 181.28125 189.625 177.816406 190.492188 C 176.554688 190.886719 175.769531 190.726562 174.980469 190.414062 C 174.191406 190.019531 173.328125 189.230469 173.011719 188.445312 C 172.617188 187.65625 172.539062 186.476562 172.777344 185.6875 C 173.011719 184.824219 174.507812 183.40625 174.507812 183.40625 "/></clipPath><clipPath id="f4f1ee7244"><path d="M 199 111.898438 L 228.316406 111.898438 L 228.316406 156.246094 L 199 156.246094 Z M 199 111.898438 "/></clipPath><clipPath id="4037f4138d"><path d="M 199.941406 149.785156 C 219.546875 126.792969 219.230469 117.34375 220.648438 114.429688 C 221.121094 113.328125 221.4375 112.855469 222.222656 112.460938 C 223.089844 111.988281 224.902344 111.753906 225.847656 112.144531 C 226.871094 112.617188 227.972656 113.957031 228.207031 115.058594 C 228.367188 116.082031 227.734375 117.816406 227.105469 118.601562 C 226.554688 119.230469 225.609375 119.546875 224.824219 119.703125 C 224.035156 119.785156 223.089844 119.703125 222.382812 119.230469 C 221.515625 118.679688 220.492188 117.183594 220.414062 116.082031 C 220.335938 115.058594 221.042969 113.40625 221.832031 112.695312 C 222.695312 112.066406 224.507812 111.832031 225.453125 111.988281 C 226.320312 112.222656 227.027344 112.855469 227.5 113.484375 C 227.972656 114.113281 228.207031 114.742188 228.289062 115.847656 C 228.367188 118.445312 226.871094 124.585938 225.925781 128.367188 C 225.058594 131.671875 225.058594 134.113281 223.089844 137.421875 C 219.863281 142.855469 207.65625 154.273438 204.507812 155.847656 C 203.71875 156.238281 203.328125 156.238281 202.695312 156.160156 C 201.910156 156.003906 200.726562 155.609375 200.175781 154.980469 C 199.546875 154.351562 199.074219 153.246094 199.074219 152.382812 C 198.996094 151.515625 199.941406 149.785156 199.941406 149.785156 "/></clipPath><clipPath id="da933b29ca"><path d="M 201.546875 72.617188 L 228.414062 72.617188 L 228.414062 119.832031 L 201.546875 119.832031 Z M 201.546875 72.617188 "/></clipPath><clipPath id="83ae34ce44"><path d="M 221.4375 118.445312 C 208.367188 103.167969 202.695312 96.792969 201.753906 93.25 C 201.28125 91.515625 201.753906 90.175781 202.222656 88.917969 C 202.695312 87.65625 203.800781 87.105469 204.585938 85.609375 C 205.925781 83.011719 206.949219 76.160156 208.367188 74.273438 C 209.074219 73.40625 209.703125 73.011719 210.492188 72.855469 C 211.199219 72.617188 212.222656 72.617188 213.011719 73.011719 C 213.878906 73.484375 215.058594 74.824219 215.375 75.847656 C 215.609375 76.632812 215.453125 77.578125 215.058594 78.289062 C 214.585938 79.230469 213.089844 80.257812 212.144531 80.492188 C 211.28125 80.726562 210.335938 80.492188 209.625 80.097656 C 208.917969 79.703125 208.207031 79.074219 207.894531 78.289062 C 207.578125 77.34375 207.578125 75.53125 208.128906 74.585938 C 208.679688 73.640625 210.257812 72.777344 211.28125 72.695312 C 212.382812 72.617188 213.957031 73.484375 214.664062 74.273438 C 215.214844 74.902344 215.375 75.769531 215.453125 76.632812 C 215.53125 77.816406 215.296875 78.996094 214.902344 80.648438 C 214.113281 83.484375 209.703125 87.734375 210.257812 91.988281 C 211.199219 98.523438 226.871094 111.28125 228.128906 114.742188 C 228.445312 115.609375 228.367188 116.003906 228.128906 116.632812 C 227.972656 117.421875 227.34375 118.445312 226.632812 118.996094 C 225.925781 119.46875 224.824219 119.785156 223.957031 119.703125 C 223.089844 119.625 221.4375 118.445312 221.4375 118.445312 "/></clipPath><clipPath id="e18a62c46e"><path d="M 201.582031 65.519531 L 215.464844 65.519531 L 215.464844 80.578125 L 201.582031 80.578125 Z M 201.582031 65.519531 "/></clipPath><clipPath id="d45d176372"><path d="M 208.445312 79.152344 C 201.671875 70.648438 201.515625 69.941406 201.59375 69.152344 C 201.671875 68.367188 202.066406 67.421875 202.539062 66.871094 C 203.089844 66.320312 203.957031 65.769531 204.742188 65.609375 C 205.53125 65.53125 206.554688 65.609375 207.265625 66.003906 C 207.972656 66.320312 208.679688 66.949219 208.996094 67.734375 C 209.390625 68.761719 209.46875 70.492188 208.917969 71.4375 C 208.367188 72.382812 206.871094 73.328125 205.769531 73.40625 C 204.742188 73.484375 203.089844 72.777344 202.382812 71.988281 C 201.753906 71.121094 201.515625 69.3125 201.753906 68.367188 C 201.910156 67.5 202.539062 66.792969 203.167969 66.320312 C 203.878906 65.847656 204.742188 65.453125 205.609375 65.609375 C 207.027344 65.769531 208.917969 67.578125 210.414062 69.074219 C 212.144531 70.648438 214.429688 73.25 215.058594 74.980469 C 215.453125 76.003906 215.453125 76.949219 215.296875 77.734375 C 215.136719 78.367188 214.824219 78.917969 214.351562 79.390625 C 213.71875 79.941406 212.695312 80.570312 211.832031 80.570312 C 210.726562 80.570312 208.445312 79.152344 208.445312 79.152344 "/></clipPath><clipPath id="6b552c4ec4"><path d="M 164.082031 50.378906 L 209.511719 50.378906 L 209.511719 75.105469 L 164.082031 75.105469 Z M 164.082031 50.378906 "/></clipPath><clipPath id="1f041dd570"><path d="M 205.453125 73.484375 C 186.320312 75.609375 181.199219 75.214844 177.421875 74.191406 C 174.507812 73.328125 171.753906 71.910156 169.863281 70.648438 C 168.523438 69.785156 167.734375 68.996094 166.871094 67.894531 C 165.925781 66.710938 164.980469 65.296875 164.585938 63.878906 C 164.191406 62.460938 163.957031 60.726562 164.429688 59.3125 C 164.824219 57.894531 166.003906 56.476562 167.183594 55.453125 C 168.289062 54.507812 169.46875 53.957031 171.199219 53.328125 C 174.191406 52.222656 179.546875 51.121094 183.71875 50.726562 C 187.894531 50.335938 192.222656 50.414062 196.160156 50.726562 C 199.625 50.964844 204.351562 50.964844 206.160156 52.304688 C 207.183594 53.089844 207.734375 54.585938 207.65625 55.6875 C 207.578125 56.792969 206.632812 58.289062 205.6875 58.839844 C 204.742188 59.3125 203.011719 59.390625 201.988281 58.917969 C 201.042969 58.445312 200.019531 56.949219 199.785156 56.003906 C 199.625 55.136719 199.785156 54.191406 200.257812 53.484375 C 200.808594 52.617188 202.304688 51.671875 203.328125 51.4375 C 204.191406 51.359375 205.136719 51.515625 205.769531 52.066406 C 206.632812 52.695312 207.5 54.191406 207.65625 55.214844 C 207.734375 56.082031 207.421875 57.027344 206.949219 57.65625 C 206.476562 58.289062 206.003906 58.761719 204.902344 59.152344 C 201.671875 60.175781 189.941406 57.972656 184.035156 58.679688 C 179.46875 59.152344 172.382812 60.257812 172.066406 61.832031 C 171.910156 63.011719 176.554688 65.53125 179.074219 66.476562 C 181.671875 67.421875 184.035156 67.578125 187.34375 67.65625 C 192.382812 67.734375 203.246094 64.902344 206.398438 65.6875 C 207.65625 66.003906 208.207031 66.554688 208.761719 67.265625 C 209.230469 67.972656 209.46875 69.152344 209.390625 70.019531 C 209.3125 70.886719 208.761719 71.910156 208.128906 72.460938 C 207.421875 73.011719 205.453125 73.484375 205.453125 73.484375 "/></clipPath><clipPath id="ccaf8a90f3"><path d="M 199.773438 44.355469 L 211.761719 44.355469 L 211.761719 59.339844 L 199.773438 59.339844 Z M 199.773438 44.355469 "/></clipPath><clipPath id="94f2acd76d"><path d="M 200.175781 53.640625 C 203.800781 47.027344 205.214844 44.980469 206.632812 44.507812 C 207.816406 44.191406 209.390625 44.664062 210.257812 45.214844 C 210.964844 45.6875 211.4375 46.554688 211.59375 47.34375 C 211.832031 48.128906 211.753906 49.152344 211.4375 49.863281 C 211.121094 50.570312 210.492188 51.359375 209.703125 51.753906 C 208.761719 52.144531 206.949219 52.222656 206.003906 51.832031 C 205.214844 51.515625 204.585938 50.808594 204.273438 50.019531 C 203.878906 49.074219 203.957031 47.265625 204.351562 46.398438 C 204.742188 45.609375 205.53125 44.980469 206.238281 44.664062 C 206.949219 44.351562 207.972656 44.273438 208.761719 44.507812 C 209.546875 44.664062 210.335938 45.214844 210.886719 45.847656 C 211.359375 46.476562 211.753906 47.183594 211.753906 48.207031 C 211.59375 50.257812 208.601562 55.375 207.183594 57.183594 C 206.476562 58.128906 205.925781 58.761719 205.136719 59.074219 C 204.351562 59.390625 203.089844 59.3125 202.382812 59.074219 C 201.753906 58.917969 201.199219 58.523438 200.808594 58.050781 C 200.257812 57.421875 199.863281 56.238281 199.785156 55.453125 C 199.703125 54.742188 200.175781 53.640625 200.175781 53.640625 "/></clipPath><clipPath id="0151dc313c"><path d="M 203.675781 49.816406 L 219.75 49.816406 L 219.75 69.4375 L 203.675781 69.4375 Z M 203.675781 49.816406 "/></clipPath><clipPath id="8b1e579cb3"><path d="M 211.121094 51.910156 C 219.863281 66.003906 219.546875 66.710938 219.152344 67.421875 C 218.761719 68.128906 218.050781 68.839844 217.265625 69.074219 C 216.238281 69.390625 214.507812 69.230469 213.5625 68.761719 C 212.855469 68.289062 212.222656 67.578125 211.988281 66.710938 C 211.753906 65.769531 212.066406 63.957031 212.539062 63.089844 C 213.011719 62.382812 213.878906 61.910156 214.664062 61.671875 C 215.375 61.4375 216.398438 61.359375 217.105469 61.753906 C 218.050781 62.222656 219.230469 63.5625 219.546875 64.507812 C 219.863281 65.375 219.625 66.320312 219.3125 67.027344 C 218.996094 67.734375 218.289062 68.523438 217.65625 68.917969 C 216.949219 69.230469 215.925781 69.46875 215.136719 69.3125 C 214.351562 69.230469 213.800781 68.917969 212.933594 68.207031 C 210.808594 66.320312 205.296875 58.445312 204.191406 55.769531 C 203.71875 54.585938 203.640625 53.800781 203.800781 52.933594 C 204.035156 52.144531 204.664062 51.121094 205.375 50.648438 C 206.082031 50.097656 207.183594 49.785156 208.050781 49.941406 C 209.074219 50.097656 211.121094 51.910156 211.121094 51.910156 "/></clipPath></defs><g id="723811b529"><g clip-rule="nonzero" clip-path="url(#6db619776d)"><g clip-rule="nonzero" clip-path="url(#eb45a4cfb1)"><path style=" stroke:none;fill-rule:nonzero;fill:currentColor;fill-opacity:1;" d="M 130.335938 305.53125 L 259.457031 305.53125 L 259.457031 337.5 L 130.335938 337.5 Z M 130.335938 305.53125 "/></g></g><g clip-rule="nonzero" clip-path="url(#763c402d3d)"><g clip-rule="nonzero" clip-path="url(#92e8ef679c)"><path style=" stroke:none;fill-rule:nonzero;fill:currentColor;fill-opacity:1;" d="M 109.703125 184.585938 L 143.484375 184.585938 L 143.484375 319.046875 L 109.703125 319.046875 Z M 109.703125 184.585938 "/></g></g><g clip-rule="nonzero" clip-path="url(#17adc36d58)"><g clip-rule="nonzero" clip-path="url(#6d22492d06)"><path style=" stroke:none;fill-rule:nonzero;fill:currentColor;fill-opacity:1;" d="M 107.65625 57.65625 L 163.328125 57.65625 L 163.328125 202.917969 L 107.65625 202.917969 Z M 107.65625 57.65625 "/></g></g><g clip-rule="nonzero" clip-path="url(#4ace296340)"><g clip-rule="nonzero" clip-path="url(#9a9600bf3b)"><path style=" stroke:none;fill-rule:nonzero;fill:currentColor;fill-opacity:1;" d="M 94.980469 52.144531 L 163.484375 52.144531 L 163.484375 141.523438 L 94.980469 141.523438 Z M 94.980469 52.144531 "/></g></g><g clip-rule="nonzero" clip-path="url(#214de9d823)"><g clip-rule="nonzero" clip-path="url(#1d5b5d812b)"><path style=" stroke:none;fill-rule:nonzero;fill:currentColor;fill-opacity:1;" d="M 108.289062 66.871094 L 161.4375 66.871094 L 161.4375 127.078125 L 108.289062 127.078125 Z M 108.289062 66.871094 "/></g></g><g clip-rule="nonzero" clip-path="url(#fb9502b868)"><g clip-rule="nonzero" clip-path="url(#0a576ed35f)"><path style=" stroke:none;fill-rule:nonzero;fill:currentColor;fill-opacity:1;" d="M 148.207031 37.5 L 223.269531 37.5 L 223.269531 73.484375 L 148.207031 73.484375 Z M 148.207031 37.5 "/></g></g><g clip-rule="nonzero" clip-path="url(#2424c5a44f)"><g clip-rule="nonzero" clip-path="url(#99ed3c10c6)"><path style=" stroke:none;fill-rule:nonzero;fill:currentColor;fill-opacity:1;" d="M 209.152344 60.257812 L 231.59375 60.257812 L 231.59375 106.539062 L 209.152344 106.539062 Z M 209.152344 60.257812 "/></g></g><g clip-rule="nonzero" clip-path="url(#38b6fb4b09)"><g clip-rule="nonzero" clip-path="url(#82e97821ff)"><path style=" stroke:none;fill-rule:nonzero;fill:currentColor;fill-opacity:1;" d="M 216.398438 92.382812 L 248.917969 92.382812 L 248.917969 151.324219 L 216.398438 151.324219 Z M 216.398438 92.382812 "/></g></g><g clip-rule="nonzero" clip-path="url(#02c0ae4475)"><g clip-rule="nonzero" clip-path="url(#3efe8093ff)"><path style=" stroke:none;fill-rule:nonzero;fill:currentColor;fill-opacity:1;" d="M 233.167969 137.105469 L 273.089844 137.105469 L 273.089844 188.878906 L 233.167969 188.878906 Z M 233.167969 137.105469 "/></g></g><g clip-rule="nonzero" clip-path="url(#731e6b4f87)"><g clip-rule="nonzero" clip-path="url(#f65913ceec)"><path style=" stroke:none;fill-rule:nonzero;fill:currentColor;fill-opacity:1;" d="M 245.6875 175.375 L 280.019531 175.375 L 280.019531 321.28125 L 245.6875 321.28125 Z M 245.6875 175.375 "/></g></g><g clip-rule="nonzero" clip-path="url(#e244b2aff9)"><g clip-rule="nonzero" clip-path="url(#caf3783596)"><path style=" stroke:none;fill-rule:nonzero;fill:currentColor;fill-opacity:1;" d="M 225.375 150.335938 L 262.945312 150.335938 L 262.945312 187.183594 L 225.375 187.183594 Z M 225.375 150.335938 "/></g></g><g clip-rule="nonzero" clip-path="url(#f3438e022f)"><g clip-rule="nonzero" clip-path="url(#52978c5eff)"><path style=" stroke:none;fill-rule:nonzero;fill:currentColor;fill-opacity:1;" d="M 204.113281 143.40625 L 239.339844 143.40625 L 239.339844 168.523438 L 204.113281 168.523438 Z M 204.113281 143.40625 "/></g></g><g clip-rule="nonzero" clip-path="url(#ba62b90178)"><g clip-rule="nonzero" clip-path="url(#0401aa1cd8)"><path style=" stroke:none;fill-rule:nonzero;fill:currentColor;fill-opacity:1;" d="M 201.199219 154.035156 L 217.894531 154.035156 L 217.894531 187.878906 L 201.199219 187.878906 Z M 201.199219 154.035156 "/></g></g><g clip-rule="nonzero" clip-path="url(#72143b9f73)"><g clip-rule="nonzero" clip-path="url(#b01aca4e5e)"><path style=" stroke:none;fill-rule:nonzero;fill:currentColor;fill-opacity:1;" d="M 179.074219 176.476562 L 215.890625 176.476562 L 215.890625 204.113281 L 179.074219 204.113281 Z M 179.074219 176.476562 "/></g></g><g clip-rule="nonzero" clip-path="url(#7d2445f9d6)"><g clip-rule="nonzero" clip-path="url(#9e3ff20744)"><path style=" stroke:none;fill-rule:nonzero;fill:currentColor;fill-opacity:1;" d="M 151.121094 191.4375 L 192.222656 191.4375 L 192.222656 281.347656 L 151.121094 281.347656 Z M 151.121094 191.4375 "/></g></g><g clip-rule="nonzero" clip-path="url(#59293f8cca)"><g clip-rule="nonzero" clip-path="url(#1ff0ae8c14)"><path style=" stroke:none;fill-rule:nonzero;fill:currentColor;fill-opacity:1;" d="M 149.785156 181.359375 L 183.800781 181.359375 L 183.800781 281.945312 L 149.785156 281.945312 Z M 149.785156 181.359375 "/></g></g><g clip-rule="nonzero" clip-path="url(#5b56d2fdcd)"><g clip-rule="nonzero" clip-path="url(#8b71ce58bc)"><path style=" stroke:none;fill-rule:nonzero;fill:currentColor;fill-opacity:1;" d="M 169.625 145.375 L 209.941406 145.375 L 209.941406 193.71875 L 169.625 193.71875 Z M 169.625 145.375 "/></g></g><g clip-rule="nonzero" clip-path="url(#f4f1ee7244)"><g clip-rule="nonzero" clip-path="url(#4037f4138d)"><path style=" stroke:none;fill-rule:nonzero;fill:currentColor;fill-opacity:1;" d="M 195.925781 108.839844 L 231.515625 108.839844 L 231.515625 159.304688 L 195.925781 159.304688 Z M 195.925781 108.839844 "/></g></g><g clip-rule="nonzero" clip-path="url(#da933b29ca)"><g clip-rule="nonzero" clip-path="url(#83ae34ce44)"><path style=" stroke:none;fill-rule:nonzero;fill:currentColor;fill-opacity:1;" d="M 198.601562 69.546875 L 231.359375 69.546875 L 231.359375 122.902344 L 198.601562 122.902344 Z M 198.601562 69.546875 "/></g></g><g clip-rule="nonzero" clip-path="url(#e18a62c46e)"><g clip-rule="nonzero" clip-path="url(#d45d176372)"><path style=" stroke:none;fill-rule:nonzero;fill:currentColor;fill-opacity:1;" d="M 198.445312 62.460938 L 218.523438 62.460938 L 218.523438 83.792969 L 198.445312 83.792969 Z M 198.445312 62.460938 "/></g></g><g clip-rule="nonzero" clip-path="url(#6b552c4ec4)"><g clip-rule="nonzero" clip-path="url(#1f041dd570)"><path style=" stroke:none;fill-rule:nonzero;fill:currentColor;fill-opacity:1;" d="M 161.28125 47.578125 L 212.558594 47.578125 L 212.558594 78.761719 L 161.28125 78.761719 Z M 161.28125 47.578125 "/></g></g><g clip-rule="nonzero" clip-path="url(#ccaf8a90f3)"><g clip-rule="nonzero" clip-path="url(#94f2acd76d)"><path style=" stroke:none;fill-rule:nonzero;fill:currentColor;fill-opacity:1;" d="M 196.632812 41.359375 L 214.902344 41.359375 L 214.902344 62.335938 L 196.632812 62.335938 Z M 196.632812 41.359375 "/></g></g><g clip-rule="nonzero" clip-path="url(#0151dc313c)"><g clip-rule="nonzero" clip-path="url(#8b1e579cb3)"><path style=" stroke:none;fill-rule:nonzero;fill:currentColor;fill-opacity:1;" d="M 200.648438 46.792969 L 222.777344 46.792969 L 222.777344 72.546875 L 200.648438 72.546875 Z M 200.648438 46.792969 "/></g></g></g></svg>