<svg xmlns="http://www.w3.org/2000/svg" xmlns:xlink="http://www.w3.org/1999/xlink" width="500" zoomAndPan="magnify" viewBox="0 0 375 374.999991" height="500" preserveAspectRatio="xMidYMid meet" version="1.2"><defs><clipPath id="62d16963eb"><path d="M 62 145.378906 L 279 145.378906 L 279 206.292969 L 62 206.292969 Z M 62 145.378906 "/></clipPath><clipPath id="5be2a0a28b"><path d="M 68.453125 146.089844 C 103.839844 175.453125 109.277344 179.050781 115.804688 182.230469 C 122.328125 185.410156 129.191406 187.5 136.550781 189.675781 C 144.75 192.101562 154.789062 194.609375 162.738281 195.867188 C 169.261719 196.871094 173.863281 196.953125 180.890625 197.289062 C 190.511719 197.621094 205.066406 198.125 215.273438 197.457031 C 223.558594 196.871094 231.167969 195.53125 237.527344 194.191406 C 242.546875 193.105469 245.726562 192.269531 250.578125 190.59375 C 257.269531 188.253906 268.984375 181.476562 273.5 180.976562 C 275.257812 180.808594 276.429688 181.140625 277.347656 181.726562 C 278.101562 182.230469 278.605469 183.148438 278.773438 183.988281 C 278.9375 185.074219 278.519531 186.914062 277.851562 187.835938 C 277.265625 188.503906 276.34375 189.007812 275.507812 189.089844 C 274.421875 189.257812 272.582031 188.753906 271.746094 188.003906 C 270.90625 187.164062 270.40625 185.324219 270.574219 184.238281 C 270.824219 183.066406 271.996094 181.644531 273.082031 181.140625 C 274.171875 180.722656 276.011719 180.890625 277.015625 181.476562 C 277.933594 182.144531 278.855469 183.734375 278.9375 184.90625 C 278.9375 186.078125 278.4375 187.25 277.183594 188.421875 C 274.085938 191.347656 262.875 195.113281 256.101562 197.539062 C 250.078125 199.714844 244.804688 201.136719 238.53125 202.476562 C 231.671875 203.980469 224.8125 205.234375 216.613281 205.820312 C 206.238281 206.574219 191.683594 206.15625 181.226562 205.652344 C 172.859375 205.234375 166 204.816406 158.554688 203.5625 C 151.191406 202.390625 143.496094 200.300781 136.71875 198.375 C 130.695312 196.703125 125.339844 195.195312 119.902344 192.9375 C 114.382812 190.679688 108.859375 188.003906 103.757812 184.90625 C 98.570312 181.894531 94.472656 178.96875 89.035156 174.785156 C 81.503906 168.929688 66.363281 156.714844 63.351562 152.699219 C 62.429688 151.441406 62.179688 150.859375 62.09375 149.9375 C 62.011719 149.015625 62.429688 147.847656 63.015625 147.09375 C 63.519531 146.421875 64.605469 145.753906 65.527344 145.585938 C 66.445312 145.417969 68.453125 146.089844 68.453125 146.089844 "/></clipPath><clipPath id="616ff0001e"><path d="M 45.371094 106.523438 L 199.605469 106.523438 L 199.605469 151.300781 L 45.371094 151.300781 Z M 45.371094 106.523438 "/></clipPath><clipPath id="541ea22f86"><path d="M 49.546875 142.660156 C 63.351562 139.730469 83.429688 128.6875 96.0625 124.085938 C 106.6875 120.238281 116.054688 117.730469 126.179688 115.386719 C 136.21875 112.960938 146.675781 111.203125 156.460938 109.78125 C 165.582031 108.441406 175.871094 107.4375 182.980469 107.019531 C 187.835938 106.6875 192.6875 106.351562 195.195312 106.6875 C 196.453125 106.851562 197.121094 107.019531 197.789062 107.523438 C 198.460938 108.023438 199.042969 108.859375 199.296875 109.699219 C 199.546875 110.449219 199.628906 111.539062 199.210938 112.375 C 198.792969 113.292969 197.371094 114.632812 196.285156 114.96875 C 195.449219 115.21875 194.445312 115.136719 193.605469 114.71875 C 192.6875 114.214844 191.515625 112.710938 191.179688 111.621094 C 190.929688 110.785156 191.097656 109.78125 191.597656 108.945312 C 192.183594 108.023438 193.691406 106.9375 194.777344 106.6875 C 195.699219 106.519531 196.703125 106.769531 197.371094 107.269531 C 198.292969 107.855469 199.296875 109.445312 199.464844 110.535156 C 199.628906 111.453125 199.296875 112.457031 198.792969 113.128906 C 198.375 113.878906 197.957031 114.382812 196.703125 114.800781 C 193.019531 116.222656 180.640625 115.300781 171.1875 116.304688 C 159.308594 117.5625 143.410156 119.988281 131.199219 122.75 C 120.488281 125.089844 112.207031 127.265625 101.414062 131.03125 C 87.777344 135.882812 65.191406 148.097656 56.40625 150.273438 C 52.976562 151.109375 50.71875 151.359375 48.878906 150.941406 C 47.789062 150.691406 46.953125 150.105469 46.367188 149.351562 C 45.867188 148.597656 45.53125 147.34375 45.53125 146.507812 C 45.53125 145.839844 45.699219 145.167969 46.199219 144.667969 C 46.785156 143.832031 49.546875 142.660156 49.546875 142.660156 "/></clipPath><clipPath id="c2058ce0a4"><path d="M 188.28125 105.796875 L 329.449219 105.796875 L 329.449219 166 L 188.28125 166 Z M 188.28125 105.796875 "/></clipPath><clipPath id="4225dea5d6"><path d="M 192.6875 106.851562 C 229.246094 106.015625 235.519531 105.347656 243.636719 106.601562 C 253.925781 108.191406 269.316406 113.628906 277.851562 116.558594 C 283.121094 118.398438 286.132812 119.484375 290.398438 121.578125 C 295.503906 124.085938 300.691406 127.347656 306.128906 131.113281 C 312.652344 135.632812 323.109375 142.40625 326.625 147.425781 C 328.546875 150.273438 329.636719 153.449219 329.21875 155.457031 C 328.96875 156.882812 327.796875 157.550781 326.539062 158.804688 C 324.617188 160.730469 319.933594 164.492188 318.007812 165.414062 C 317.253906 165.832031 316.835938 166 316.082031 166 C 315.078125 165.832031 313.324219 165.164062 312.652344 164.242188 C 311.902344 163.324219 312.152344 160.394531 312.066406 160.394531 C 311.984375 160.394531 311.734375 161.734375 311.816406 161.734375 C 311.902344 161.734375 312.152344 159.894531 312.652344 159.222656 C 313.15625 158.554688 313.992188 157.886719 314.914062 157.71875 C 316 157.550781 317.839844 157.886719 318.675781 158.636719 C 319.597656 159.390625 320.265625 161.148438 320.183594 162.234375 C 320.015625 163.40625 318.929688 164.996094 317.925781 165.496094 C 316.921875 166 314.996094 165.917969 313.992188 165.496094 C 313.15625 165.078125 312.570312 164.328125 312.152344 163.488281 C 311.816406 162.738281 311.648438 161.734375 311.902344 160.898438 C 312.234375 159.808594 313.40625 158.304688 314.492188 157.886719 C 315.582031 157.464844 317.421875 157.800781 318.34375 158.304688 C 319.09375 158.804688 319.765625 159.640625 319.933594 160.476562 C 320.183594 161.480469 319.933594 163.238281 319.511719 164.074219 C 319.179688 164.746094 318.59375 165.078125 318.007812 165.414062 C 317.503906 165.75 316.835938 166 316.082031 166 C 315.246094 165.917969 313.992188 165.582031 313.324219 164.996094 C 312.570312 164.410156 312.066406 163.238281 311.816406 162.402344 C 311.734375 161.734375 311.734375 161.148438 312.066406 160.394531 C 312.652344 158.972656 315.164062 156.128906 316.921875 155.292969 C 318.257812 154.539062 320.9375 155.375 321.1875 154.621094 C 321.519531 153.617188 317.589844 150.523438 314.996094 148.265625 C 311.398438 145.085938 305.960938 141.070312 301.191406 137.808594 C 296.339844 134.542969 292.15625 131.617188 286.132812 128.855469 C 278.101562 125.089844 265.136719 121.074219 256.519531 118.566406 C 250.078125 116.640625 246.648438 115.21875 239.453125 114.382812 C 227.574219 113.042969 197.457031 116.808594 191.683594 115.050781 C 190.261719 114.632812 189.757812 114.132812 189.257812 113.378906 C 188.753906 112.625 188.421875 111.453125 188.503906 110.535156 C 188.671875 109.613281 189.257812 108.527344 189.925781 107.855469 C 190.59375 107.269531 192.6875 106.851562 192.6875 106.851562 "/></clipPath><clipPath id="1fa8c49ae5"><path d="M 251.625 224.261719 L 286.835938 224.261719 L 286.835938 302.722656 L 251.625 302.722656 Z M 251.625 224.261719 "/></clipPath><clipPath id="5c3c489e6f"><path d="M 271.746094 230.917969 C 268.566406 248.570312 263.878906 262.125 262.289062 270.742188 C 261.035156 277.347656 259.863281 284.542969 260.199219 288.476562 C 260.367188 290.484375 260.367188 291.90625 261.539062 292.910156 C 263.128906 294.25 267.980469 294.25 270.320312 294.164062 C 271.996094 294.082031 273.417969 293.832031 274.503906 293.078125 C 275.59375 292.242188 276.34375 290.734375 276.929688 289.480469 C 277.515625 288.140625 277.683594 286.804688 277.851562 285.128906 C 278.101562 282.789062 278.1875 278.9375 278.019531 276.597656 C 277.851562 274.921875 277.683594 274.335938 277.097656 272.328125 C 275.675781 266.890625 269.316406 250.914062 267.144531 242.964844 C 265.636719 237.695312 264.464844 232.339844 264.296875 229.582031 C 264.214844 228.324219 264.046875 227.65625 264.464844 226.902344 C 264.96875 225.898438 266.472656 224.726562 267.5625 224.394531 C 268.398438 224.226562 269.402344 224.394531 270.15625 224.8125 C 270.992188 225.144531 271.746094 225.898438 272.078125 226.734375 C 272.496094 227.738281 272.496094 229.582031 271.996094 230.585938 C 271.410156 231.589844 269.738281 232.507812 268.648438 232.675781 C 267.730469 232.84375 266.808594 232.507812 266.054688 232.089844 C 265.386719 231.589844 264.632812 230.835938 264.382812 230 C 264.132812 228.910156 264.382812 226.988281 264.96875 226.066406 C 265.386719 225.3125 266.304688 224.8125 267.144531 224.5625 C 267.894531 224.308594 268.984375 224.226562 269.820312 224.644531 C 270.742188 225.0625 271.660156 226.066406 272.414062 227.574219 C 273.667969 230.164062 273.585938 234.851562 275.007812 240.039062 C 277.347656 248.65625 285.046875 266.390625 286.300781 274.335938 C 286.96875 278.351562 286.636719 280.613281 286.300781 283.707031 C 286.050781 286.71875 285.378906 290.484375 284.542969 292.828125 C 283.875 294.414062 283.121094 295.335938 282.285156 296.507812 C 281.363281 297.679688 280.359375 298.933594 279.191406 299.855469 C 278.019531 300.773438 276.929688 301.527344 275.339844 301.945312 C 273 302.613281 269.316406 302.78125 266.472656 302.445312 C 263.546875 302.195312 260.28125 301.277344 258.023438 300.1875 C 256.433594 299.433594 255.097656 298.347656 254.09375 297.175781 C 253.171875 296.003906 252.503906 294.835938 252.085938 293.160156 C 251.5 290.734375 251.667969 287.054688 251.917969 283.625 C 252.167969 279.609375 252.671875 275.925781 253.757812 270.574219 C 255.515625 261.871094 261.203125 243.71875 262.625 236.523438 C 263.292969 233.34375 262.875 231.167969 263.628906 229.496094 C 264.046875 228.410156 264.632812 227.574219 265.386719 227.152344 C 266.222656 226.652344 267.394531 226.402344 268.3125 226.570312 C 269.234375 226.734375 270.320312 227.320312 270.90625 228.074219 C 271.410156 228.828125 271.746094 230.917969 271.746094 230.917969 "/></clipPath><clipPath id="8f4d44e027"><path d="M 311.53125 204.3125 L 334.210938 204.3125 L 334.210938 240.824219 L 311.53125 240.824219 Z M 311.53125 204.3125 "/></clipPath><clipPath id="4ffaedc21f"><path d="M 324.53125 210.085938 C 320.769531 231.589844 322.859375 232.675781 323.863281 232.425781 C 324.785156 232.171875 325.871094 230.164062 325.871094 228.742188 C 325.871094 226.652344 322.777344 223.640625 321.605469 220.964844 C 320.351562 218.285156 318.089844 213.351562 318.675781 212.679688 C 318.84375 212.347656 320.097656 212.847656 320.097656 212.765625 C 320.183594 212.597656 318.34375 212.09375 317.757812 211.511719 C 317.171875 210.839844 316.753906 209.921875 316.667969 209.082031 C 316.585938 208.246094 316.753906 207.160156 317.253906 206.40625 C 317.671875 205.738281 318.425781 204.984375 319.261719 204.734375 C 320.351562 204.398438 322.191406 204.648438 323.195312 205.152344 C 323.949219 205.570312 324.53125 206.492188 324.785156 207.242188 C 325.035156 208.078125 325.117188 209.167969 324.785156 209.921875 C 324.367188 210.925781 322.945312 212.261719 321.9375 212.597656 C 321.101562 212.933594 320.015625 212.847656 319.261719 212.515625 C 318.257812 212.011719 317.003906 210.589844 316.753906 209.503906 C 316.5 208.332031 317.003906 206.574219 317.757812 205.738281 C 318.59375 204.902344 320.265625 204.0625 321.519531 204.484375 C 323.527344 205.066406 326.121094 209.503906 327.542969 212.261719 C 328.96875 214.941406 328.96875 218.453125 330.136719 220.628906 C 330.972656 222.21875 332.648438 222.71875 333.316406 224.308594 C 334.238281 226.570312 334.320312 230.75 334.070312 233.09375 C 333.902344 234.683594 333.652344 236.023438 332.898438 237.109375 C 332.144531 238.363281 331.058594 239.453125 329.46875 240.121094 C 327.378906 240.957031 323.277344 240.875 321.019531 240.625 C 319.347656 240.457031 318.007812 240.121094 316.753906 239.453125 C 315.496094 238.867188 314.074219 238.113281 313.238281 237.027344 C 312.402344 235.9375 312.066406 234.347656 311.816406 232.925781 C 311.566406 231.589844 311.566406 230.585938 311.816406 228.660156 C 312.320312 224.308594 314.746094 211.089844 316.5 207.746094 C 317.171875 206.574219 317.757812 205.988281 318.59375 205.652344 C 319.429688 205.234375 320.683594 205.152344 321.519531 205.402344 C 322.441406 205.652344 323.445312 206.40625 323.949219 207.160156 C 324.449219 207.914062 324.53125 210.085938 324.53125 210.085938 "/></clipPath><clipPath id="63005151bf"><path d="M 136.507812 112 L 203 112 L 203 205.09375 L 136.507812 205.09375 Z M 136.507812 112 "/></clipPath><clipPath id="c867581dca"><path d="M 154.539062 118.480469 C 149.769531 125.425781 148.179688 128.4375 147.175781 131.617188 C 146.003906 135.378906 145.335938 141.238281 145 144.414062 C 144.917969 146.171875 144.667969 146.675781 145 148.683594 C 145.921875 153.785156 151.191406 168.925781 154.121094 174.699219 C 155.710938 177.878906 156.546875 179.300781 158.804688 181.644531 C 162.066406 185.074219 168.089844 190.007812 172.859375 192.351562 C 177.042969 194.359375 181.226562 194.945312 185.660156 195.699219 C 190.261719 196.453125 197.289062 195.28125 200.132812 196.617188 C 201.554688 197.289062 202.476562 198.292969 202.808594 199.464844 C 203.144531 200.550781 202.726562 202.390625 201.972656 203.226562 C 201.21875 204.148438 199.464844 204.816406 198.292969 204.734375 C 197.203125 204.566406 195.613281 203.5625 195.113281 202.558594 C 194.527344 201.472656 194.527344 199.628906 195.113281 198.625 C 195.613281 197.539062 197.203125 196.535156 198.292969 196.367188 C 199.464844 196.285156 201.21875 197.121094 201.972656 197.875 C 202.640625 198.460938 202.894531 199.464844 202.976562 200.300781 C 202.976562 201.136719 202.808594 202.222656 202.222656 202.894531 C 201.554688 203.730469 200.382812 204.398438 198.792969 204.734375 C 195.78125 205.402344 189.675781 204.816406 184.90625 204.0625 C 179.550781 203.144531 173.277344 201.804688 168.175781 199.296875 C 163.15625 196.785156 158.136719 192.855469 154.371094 189.003906 C 151.109375 185.742188 148.933594 182.816406 146.507812 178.214844 C 143.160156 171.773438 139.0625 160.3125 137.554688 153.199219 C 136.550781 148.265625 136.300781 144.414062 136.71875 140.066406 C 137.136719 135.714844 138.644531 130.777344 140.066406 127.015625 C 141.152344 124.003906 142.492188 121.492188 143.914062 119.152344 C 145.167969 116.976562 146.589844 114.382812 148.011719 113.292969 C 148.933594 112.542969 149.855469 112.125 150.773438 112.125 C 151.695312 112.039062 152.867188 112.457031 153.535156 112.960938 C 154.289062 113.546875 154.875 114.632812 155.039062 115.554688 C 155.207031 116.472656 154.539062 118.480469 154.539062 118.480469 "/></clipPath><clipPath id="ebd0479c1e"><path d="M 195.421875 111.84375 L 255.476562 111.84375 L 255.476562 205 L 195.421875 205 Z M 195.421875 111.84375 "/></clipPath><clipPath id="74b2025ea0"><path d="M 199.628906 196.367188 C 208.75 196.117188 211.425781 195.699219 214.355469 194.777344 C 218.035156 193.523438 222.636719 191.851562 226.148438 189.257812 C 229.746094 186.578125 232.675781 182.480469 235.4375 178.800781 C 238.113281 175.285156 240.875 170.769531 242.378906 167.921875 C 243.214844 166.25 243.636719 165.496094 244.136719 163.824219 C 244.890625 161.398438 245.390625 158.46875 245.726562 154.957031 C 246.226562 150.1875 244.21875 139.730469 246.3125 137.554688 C 247.484375 136.382812 250.410156 136.550781 251.414062 137.222656 C 252.335938 137.890625 252.753906 140.066406 252.503906 141.320312 C 252.167969 142.574219 251.082031 143.664062 249.574219 144.582031 C 246.980469 146.171875 240.707031 147.261719 236.859375 147.511719 C 233.679688 147.761719 230.5 147.34375 228.324219 146.675781 C 226.652344 146.257812 225.566406 145.671875 224.394531 144.832031 C 223.136719 143.996094 221.882812 142.660156 220.878906 141.488281 C 219.960938 140.316406 219.207031 139.3125 218.539062 137.722656 C 217.617188 135.464844 216.78125 132.035156 216.613281 129.023438 C 216.445312 125.925781 216.53125 121.910156 217.367188 119.570312 C 218.035156 118.0625 218.789062 117.144531 220.042969 116.140625 C 221.96875 114.632812 225.480469 113.210938 228.242188 112.542969 C 231.003906 111.957031 234.515625 111.789062 236.773438 112.125 C 238.449219 112.375 239.367188 112.792969 240.875 113.546875 C 242.882812 114.550781 246.8125 116.472656 247.652344 118.230469 C 248.234375 119.402344 247.902344 121.160156 247.398438 122.164062 C 246.980469 122.914062 246.144531 123.5 245.308594 123.835938 C 244.554688 124.085938 243.46875 124.253906 242.632812 123.917969 C 241.628906 123.5 240.203125 122.246094 239.871094 121.160156 C 239.535156 120.070312 239.871094 118.230469 240.539062 117.308594 C 241.292969 116.390625 243.050781 115.722656 244.136719 115.722656 C 245.058594 115.722656 245.976562 116.222656 246.648438 116.726562 C 247.230469 117.308594 247.816406 118.230469 247.984375 119.066406 C 248.152344 119.902344 247.984375 120.992188 247.652344 121.746094 C 247.230469 122.496094 246.480469 123.25 245.726562 123.667969 C 244.972656 124.003906 243.96875 124.253906 243.050781 124.003906 C 242.046875 123.753906 241.292969 122.164062 240.039062 121.578125 C 238.28125 120.824219 235.4375 120.320312 233.429688 120.40625 C 231.753906 120.40625 230.25 120.824219 228.742188 121.242188 C 227.40625 121.746094 225.566406 121.910156 224.8125 123.082031 C 223.808594 124.757812 224.980469 129.355469 225.480469 131.617188 C 225.816406 133.207031 226.148438 134.460938 226.902344 135.546875 C 227.574219 136.71875 228.660156 137.890625 229.914062 138.558594 C 231.167969 139.144531 232.675781 139.144531 234.433594 139.144531 C 236.941406 139.230469 241.125 139.480469 243.382812 138.058594 C 245.558594 136.636719 246.0625 131.53125 248.070312 130.863281 C 249.742188 130.359375 252.835938 131.199219 254.09375 133.121094 C 256.519531 136.46875 254.59375 149.101562 254.175781 154.621094 C 253.925781 158.050781 253.589844 160.226562 252.835938 163.070312 C 252.167969 165.832031 251.5 168.34375 249.992188 171.4375 C 247.902344 175.703125 243.886719 181.644531 240.625 185.828125 C 237.695312 189.589844 233.929688 193.605469 231.421875 195.78125 C 230 196.953125 229.328125 197.289062 227.574219 198.207031 C 224.644531 199.714844 219.457031 202.222656 215.023438 203.3125 C 210.171875 204.484375 202.894531 205.320312 199.628906 204.734375 C 198.039062 204.398438 196.871094 203.730469 196.199219 202.894531 C 195.613281 202.140625 195.363281 200.96875 195.449219 200.046875 C 195.613281 199.128906 196.199219 198.039062 196.871094 197.371094 C 197.539062 196.785156 199.628906 196.367188 199.628906 196.367188 "/></clipPath><clipPath id="3737e7e445"><path d="M 237.480469 111.042969 L 247.847656 111.042969 L 247.847656 122.59375 L 237.480469 122.59375 Z M 237.480469 111.042969 "/></clipPath><clipPath id="d01202fd2c"><path d="M 239.871094 120.320312 C 239.453125 118.984375 240.371094 119.402344 240.457031 119.316406 C 240.457031 119.152344 238.78125 118.398438 238.28125 117.730469 C 237.777344 117.058594 237.359375 116.054688 237.527344 115.136719 C 237.613281 114.132812 238.449219 112.375 239.453125 111.789062 C 240.457031 111.121094 242.296875 111.121094 243.382812 111.453125 C 244.21875 111.789062 244.890625 112.542969 245.308594 113.292969 C 245.726562 114.046875 245.976562 115.050781 245.808594 115.886719 C 245.558594 116.976562 244.554688 118.566406 243.550781 119.066406 C 242.464844 119.570312 240.625 119.484375 239.621094 118.898438 C 238.617188 118.398438 237.695312 116.726562 237.527344 115.636719 C 237.359375 114.71875 237.695312 113.714844 238.195312 113.042969 C 238.617188 112.289062 239.453125 111.621094 240.289062 111.371094 C 241.042969 111.121094 242.046875 110.867188 242.964844 111.285156 C 244.386719 111.957031 246.8125 115.136719 247.484375 116.726562 C 247.902344 117.8125 247.902344 118.816406 247.652344 119.652344 C 247.398438 120.574219 246.730469 121.578125 245.894531 122.078125 C 244.890625 122.582031 243.050781 122.75 241.960938 122.328125 C 241.125 121.996094 239.871094 120.320312 239.871094 120.320312 "/></clipPath><clipPath id="d47a78f6b7"><path d="M 240.8125 110.429688 L 250.347656 110.429688 L 250.347656 122.101562 L 240.8125 122.101562 Z M 240.8125 110.429688 "/></clipPath><clipPath id="59ec562803"><path d="M 240.957031 116.054688 C 245.140625 110.367188 246.980469 110.367188 247.984375 110.867188 C 248.988281 111.371094 249.992188 112.960938 250.242188 114.046875 C 250.496094 114.96875 250.160156 115.972656 249.742188 116.640625 C 249.324219 117.394531 248.65625 118.148438 247.734375 118.480469 C 246.730469 118.816406 244.804688 118.734375 243.886719 118.148438 C 242.882812 117.5625 241.960938 115.886719 241.960938 114.71875 C 241.878906 113.546875 242.882812 111.957031 243.71875 111.203125 C 244.386719 110.617188 245.390625 110.449219 246.226562 110.449219 C 247.066406 110.449219 248.070312 110.703125 248.738281 111.371094 C 249.492188 112.125 250.242188 113.628906 250.328125 114.96875 C 250.328125 116.472656 249.238281 118.566406 248.488281 119.820312 C 247.816406 120.65625 247.148438 121.492188 246.3125 121.828125 C 245.390625 122.164062 244.21875 122.164062 243.300781 121.828125 C 242.464844 121.578125 241.460938 120.824219 241.042969 119.902344 C 240.625 118.898438 240.957031 116.054688 240.957031 116.054688 "/></clipPath><clipPath id="279ff91315"><path d="M 40.378906 95.164062 L 185.257812 95.164062 L 185.257812 150.09375 L 40.378906 150.09375 Z M 40.378906 95.164062 "/></clipPath><clipPath id="b199a0aa98"><path d="M 47.957031 150.019531 C 41.851562 146.421875 41.179688 145 40.847656 143.578125 C 40.511719 142.15625 40.511719 140.234375 41.011719 138.8125 C 41.515625 137.554688 42.4375 136.636719 43.691406 135.546875 C 45.449219 134.042969 47.539062 132.789062 50.886719 131.03125 C 57.746094 127.433594 71.464844 121.660156 83.929688 116.976562 C 99.492188 111.121094 125.425781 102.25 137.472656 99.492188 C 143.410156 98.070312 145.585938 98.070312 151.023438 97.484375 C 159.308594 96.648438 177.878906 94.304688 182.144531 95.558594 C 183.402344 95.894531 183.820312 96.394531 184.320312 97.066406 C 184.824219 97.734375 185.15625 98.738281 185.15625 99.660156 C 185.15625 100.496094 184.824219 101.5 184.238281 102.167969 C 183.734375 102.835938 182.816406 103.421875 182.0625 103.589844 C 181.226562 103.839844 180.136719 103.839844 179.386719 103.421875 C 178.382812 102.921875 177.125 101.5 176.875 100.410156 C 176.625 99.238281 177.292969 97.484375 177.964844 96.648438 C 178.546875 95.976562 179.550781 95.558594 180.390625 95.390625 C 181.226562 95.308594 182.230469 95.476562 182.984375 95.894531 C 183.734375 96.3125 184.488281 97.066406 184.824219 97.816406 C 185.15625 98.65625 185.242188 99.660156 185.074219 100.496094 C 184.824219 101.332031 184.738281 102.085938 183.652344 102.753906 C 179.300781 105.515625 154.957031 104.34375 141.320312 107.105469 C 127.851562 109.863281 112.457031 115.636719 102.167969 119.152344 C 95.476562 121.410156 91.960938 122.914062 85.6875 125.339844 C 77.238281 128.6875 62.847656 134.460938 56.324219 137.554688 C 52.894531 139.144531 48.710938 140.652344 48.792969 141.570312 C 48.792969 142.242188 51.136719 142.15625 51.890625 142.910156 C 52.640625 143.746094 53.3125 145.503906 53.226562 146.589844 C 53.058594 147.761719 51.890625 149.183594 50.886719 149.769531 C 50.046875 150.273438 47.957031 150.019531 47.957031 150.019531 "/></clipPath><clipPath id="ce8afca455"><path d="M 173.457031 93.8125 L 332.292969 93.8125 L 332.292969 169 L 173.457031 169 Z M 173.457031 93.8125 "/></clipPath><clipPath id="ab6e78d18a"><path d="M 177.796875 95.476562 C 226.988281 93.886719 231.167969 93.46875 238.03125 94.386719 C 246.898438 95.558594 258.527344 98.65625 268.230469 102 C 277.933594 105.261719 288.644531 110.117188 296.339844 114.296875 C 302.195312 117.5625 306.460938 120.320312 310.980469 124.171875 C 315.664062 128.101562 320.433594 133.289062 323.945312 137.722656 C 326.957031 141.488281 330.054688 146.089844 331.226562 149.015625 C 331.894531 150.605469 332.398438 151.527344 332.144531 153.117188 C 331.726562 155.457031 328.632812 159.222656 327.125 161.316406 C 326.121094 162.652344 325.621094 163.40625 324.199219 164.492188 C 322.023438 166 317.085938 168.84375 314.746094 168.84375 C 313.238281 168.84375 311.902344 168.089844 311.148438 167.171875 C 310.476562 166.25 310.144531 164.410156 310.5625 163.324219 C 310.898438 162.234375 312.402344 161.0625 313.40625 160.644531 C 314.242188 160.3125 315.246094 160.476562 316.082031 160.8125 C 316.835938 161.148438 317.671875 161.734375 318.089844 162.570312 C 318.59375 163.488281 318.761719 165.414062 318.257812 166.417969 C 317.839844 167.503906 316.335938 168.59375 315.164062 168.84375 C 313.992188 169.011719 312.234375 168.257812 311.480469 167.589844 C 310.8125 166.921875 310.394531 166 310.3125 165.164062 C 310.226562 164.328125 310.3125 163.324219 310.898438 162.484375 C 311.984375 161.0625 316.082031 160.144531 318.089844 158.386719 C 320.183594 156.546875 323.277344 154.035156 323.363281 151.777344 C 323.445312 149.351562 320.601562 147.007812 318.507812 144.25 C 315.496094 140.484375 310.8125 135.214844 306.378906 131.363281 C 301.945312 127.601562 297.425781 124.589844 291.738281 121.410156 C 284.796875 117.5625 276.011719 113.628906 267.308594 110.535156 C 258.023438 107.269531 246.3125 104.007812 237.445312 102.753906 C 230.667969 101.75 226.484375 102.25 219.121094 102.25 C 207.914062 102.335938 182.144531 105.347656 176.792969 103.757812 C 175.371094 103.339844 174.867188 102.835938 174.28125 102.085938 C 173.78125 101.332031 173.527344 100.078125 173.613281 99.15625 C 173.695312 98.234375 174.28125 97.148438 174.953125 96.5625 C 175.703125 95.976562 177.796875 95.476562 177.796875 95.476562 "/></clipPath><clipPath id="30be349b75"><path d="M 71.671875 71.78125 L 226.179688 71.78125 L 226.179688 98.949219 L 71.671875 98.949219 Z M 71.671875 71.78125 "/></clipPath><clipPath id="ba8fa3b8c5"><path d="M 75.230469 90.539062 C 108.609375 80.332031 112.792969 79.246094 119.988281 77.90625 C 130.527344 75.984375 145.753906 73.472656 159.222656 72.554688 C 173.527344 71.550781 193.019531 71.714844 203.480469 72.636719 C 209.25 73.222656 212.933594 73.976562 216.949219 75.0625 C 220.210938 75.898438 224.644531 76.570312 225.730469 78.242188 C 226.402344 79.328125 226.066406 81.167969 225.480469 82.171875 C 224.894531 83.09375 223.136719 84.015625 222.050781 84.097656 C 221.214844 84.265625 220.210938 83.929688 219.542969 83.429688 C 218.703125 82.675781 217.699219 81.085938 217.699219 79.914062 C 217.699219 78.742188 218.703125 77.152344 219.625 76.484375 C 220.292969 75.898438 221.296875 75.730469 222.132812 75.816406 C 223.054688 75.816406 223.976562 76.234375 224.644531 76.820312 C 225.3125 77.320312 225.898438 78.242188 225.984375 79.078125 C 226.148438 80.164062 225.566406 82.007812 224.894531 82.84375 C 224.308594 83.597656 223.390625 83.929688 222.554688 84.097656 C 221.714844 84.179688 220.628906 84.015625 219.875 83.597656 C 219.121094 83.261719 218.203125 81.589844 218.117188 81.671875 C 217.953125 81.753906 219.207031 83.175781 218.871094 83.597656 C 217.953125 84.765625 208.5 81.421875 201.304688 80.917969 C 189.84375 80.082031 171.1875 79.914062 156.796875 81.003906 C 143.328125 82.089844 130.78125 84.179688 117.5625 87.027344 C 103.675781 89.953125 81.253906 99.238281 75.648438 98.820312 C 74.140625 98.65625 73.640625 98.234375 72.972656 97.566406 C 72.300781 96.898438 71.800781 95.726562 71.800781 94.804688 C 71.714844 93.886719 72.132812 92.714844 72.71875 92.046875 C 73.222656 91.292969 75.230469 90.539062 75.230469 90.539062 "/></clipPath><clipPath id="784778054e"><path d="M 209.066406 74.878906 L 318.992188 74.878906 L 318.992188 117.246094 L 209.066406 117.246094 Z M 209.066406 74.878906 "/></clipPath><clipPath id="c38caec7f8"><path d="M 213.351562 74.980469 C 227.238281 76.316406 246.648438 80.75 258.609375 84.265625 C 269.152344 87.277344 280.277344 91.628906 288.058594 94.554688 C 293.078125 96.5625 296.507812 97.902344 300.523438 99.824219 C 304.539062 101.75 309.054688 104.09375 312.234375 106.101562 C 314.492188 107.605469 316.835938 108.945312 317.925781 110.28125 C 318.507812 111.203125 318.761719 111.957031 318.761719 112.875 C 318.761719 113.714844 318.507812 114.71875 317.925781 115.386719 C 317.253906 116.222656 315.582031 117.144531 314.410156 117.058594 C 313.238281 116.976562 311.648438 116.054688 311.0625 115.050781 C 310.394531 114.132812 310.3125 112.207031 310.8125 111.203125 C 311.230469 110.117188 312.820312 109.027344 313.910156 108.777344 C 314.746094 108.527344 315.75 108.695312 316.5 109.195312 C 317.421875 109.78125 318.507812 111.285156 318.761719 112.375 C 318.929688 113.292969 318.59375 114.296875 318.175781 114.96875 C 317.757812 115.722656 316.921875 116.472656 316.167969 116.726562 C 315.414062 117.058594 314.746094 117.226562 313.488281 116.890625 C 310.3125 116.140625 303.871094 110.617188 297.007812 107.355469 C 287.054688 102.671875 271.660156 96.980469 258.695312 93.050781 C 245.808594 89.117188 227.574219 85.183594 219.375 83.761719 C 215.777344 83.175781 212.933594 83.511719 211.425781 82.84375 C 210.671875 82.507812 210.253906 82.089844 209.921875 81.503906 C 209.503906 80.835938 209.082031 79.582031 209.167969 78.660156 C 209.335938 77.738281 209.921875 76.652344 210.589844 75.984375 C 211.257812 75.398438 213.351562 74.980469 213.351562 74.980469 "/></clipPath></defs><g id="ca3675dbdb"><g clip-rule="nonzero" clip-path="url(#62d16963eb)"><g clip-rule="nonzero" clip-path="url(#5be2a0a28b)"><path style=" stroke:none;fill-rule:nonzero;fill:currentColor;fill-opacity:1;" d="M 58.75 142.242188 L 282.273438 142.242188 L 282.273438 209.167969 L 58.75 209.167969 Z M 58.75 142.242188 "/></g></g><g clip-rule="nonzero" clip-path="url(#616ff0001e)"><g clip-rule="nonzero" clip-path="url(#541ea22f86)"><path style=" stroke:none;fill-rule:nonzero;fill:currentColor;fill-opacity:1;" d="M 42.183594 103.339844 L 202.988281 103.339844 L 202.988281 154.289062 L 42.183594 154.289062 Z M 42.183594 103.339844 "/></g></g><g clip-rule="nonzero" clip-path="url(#c2058ce0a4)"><g clip-rule="nonzero" clip-path="url(#4225dea5d6)"><path style=" stroke:none;fill-rule:nonzero;fill:currentColor;fill-opacity:1;" d="M 185.15625 102.671875 L 332.574219 102.671875 L 332.574219 169.347656 L 185.15625 169.347656 Z M 185.15625 102.671875 "/></g></g><g clip-rule="nonzero" clip-path="url(#1fa8c49ae5)"><g clip-rule="nonzero" clip-path="url(#5c3c489e6f)"><path style=" stroke:none;fill-rule:nonzero;fill:currentColor;fill-opacity:1;" d="M 248.570312 221.046875 L 289.730469 221.046875 L 289.730469 305.777344 L 248.570312 305.777344 Z M 248.570312 221.046875 "/></g></g><g clip-rule="nonzero" clip-path="url(#8f4d44e027)"><g clip-rule="nonzero" clip-path="url(#4ffaedc21f)"><path style=" stroke:none;fill-rule:nonzero;fill:currentColor;fill-opacity:1;" d="M 308.46875 201.136719 L 337.5 201.136719 L 337.5 244 L 308.46875 244 Z M 308.46875 201.136719 "/></g></g><g clip-rule="nonzero" clip-path="url(#63005151bf)"><g clip-rule="nonzero" clip-path="url(#c867581dca)"><path style=" stroke:none;fill-rule:nonzero;fill:currentColor;fill-opacity:1;" d="M 133.371094 108.777344 L 206.324219 108.777344 L 206.324219 208.230469 L 133.371094 208.230469 Z M 133.371094 108.777344 "/></g></g><g clip-rule="nonzero" clip-path="url(#ebd0479c1e)"><g clip-rule="nonzero" clip-path="url(#74b2025ea0)"><path style=" stroke:none;fill-rule:nonzero;fill:currentColor;fill-opacity:1;" d="M 192.101562 108.777344 L 257.523438 108.777344 L 257.523438 208.1875 L 192.101562 208.1875 Z M 192.101562 108.777344 "/></g></g><g clip-rule="nonzero" clip-path="url(#3737e7e445)"><g clip-rule="nonzero" clip-path="url(#d01202fd2c)"><path style=" stroke:none;fill-rule:nonzero;fill:currentColor;fill-opacity:1;" d="M 234.179688 107.941406 L 251.082031 107.941406 L 251.082031 125.699219 L 234.179688 125.699219 Z M 234.179688 107.941406 "/></g></g><g clip-rule="nonzero" clip-path="url(#d47a78f6b7)"><g clip-rule="nonzero" clip-path="url(#59ec562803)"><path style=" stroke:none;fill-rule:nonzero;fill:currentColor;fill-opacity:1;" d="M 237.613281 107.105469 L 253.675781 107.105469 L 253.675781 125.238281 L 237.613281 125.238281 Z M 237.613281 107.105469 "/></g></g><g clip-rule="nonzero" clip-path="url(#279ff91315)"><g clip-rule="nonzero" clip-path="url(#b199a0aa98)"><path style=" stroke:none;fill-rule:nonzero;fill:currentColor;fill-opacity:1;" d="M 37.5 92.046875 L 188.613281 92.046875 L 188.613281 153.449219 L 37.5 153.449219 Z M 37.5 92.046875 "/></g></g><g clip-rule="nonzero" clip-path="url(#ce8afca455)"><g clip-rule="nonzero" clip-path="url(#ab6e78d18a)"><path style=" stroke:none;fill-rule:nonzero;fill:currentColor;fill-opacity:1;" d="M 170.265625 90.625 L 335.480469 90.625 L 335.480469 172.273438 L 170.265625 172.273438 Z M 170.265625 90.625 "/></g></g><g clip-rule="nonzero" clip-path="url(#30be349b75)"><g clip-rule="nonzero" clip-path="url(#ba8fa3b8c5)"><path style=" stroke:none;fill-rule:nonzero;fill:currentColor;fill-opacity:1;" d="M 68.453125 69.207031 L 229.398438 69.207031 L 229.398438 102.167969 L 68.453125 102.167969 Z M 68.453125 69.207031 "/></g></g><g clip-rule="nonzero" clip-path="url(#784778054e)"><g clip-rule="nonzero" clip-path="url(#c38caec7f8)"><path style=" stroke:none;fill-rule:nonzero;fill:currentColor;fill-opacity:1;" d="M 205.820312 71.632812 L 322.046875 71.632812 L 322.046875 120.488281 L 205.820312 120.488281 Z M 205.820312 71.632812 "/></g></g></g></svg>