<svg xmlns="http://www.w3.org/2000/svg" xmlns:xlink="http://www.w3.org/1999/xlink" width="500" zoomAndPan="magnify" viewBox="0 0 375 374.999991" height="500" preserveAspectRatio="xMidYMid meet" version="1.2"><defs><clipPath id="3d957e19f2"><path d="M 125.460938 145.554688 L 150.484375 145.554688 L 150.484375 186.90625 L 125.460938 186.90625 Z M 125.460938 145.554688 "/></clipPath><clipPath id="4896cd8795"><path d="M 133.101562 149.3125 C 133.761719 157.101562 134.644531 159.457031 136.1875 162.101562 C 138.246094 165.851562 143.097656 170.480469 145.671875 174.304688 C 147.65625 177.390625 150.230469 181.066406 150.449219 183.050781 C 150.523438 184.007812 150.230469 184.742188 149.789062 185.332031 C 149.347656 185.917969 148.613281 186.507812 147.878906 186.65625 C 146.921875 186.875 145.230469 186.65625 144.496094 185.992188 C 143.6875 185.332031 143.027344 183.859375 143.097656 182.832031 C 143.246094 181.804688 144.203125 180.480469 145.011719 179.964844 C 145.671875 179.523438 146.554688 179.304688 147.289062 179.523438 C 148.246094 179.746094 149.640625 180.699219 150.082031 181.507812 C 150.523438 182.242188 150.523438 183.125 150.375 183.859375 C 150.230469 184.597656 149.789062 185.40625 149.199219 185.917969 C 148.6875 186.359375 147.804688 186.726562 147.070312 186.800781 C 146.332031 186.875 145.671875 186.875 144.789062 186.214844 C 142.070312 184.375 135.160156 173.863281 132.21875 169.453125 C 130.457031 166.804688 129.351562 165.1875 128.324219 162.835938 C 127.21875 160.484375 126.265625 157.839844 125.898438 155.339844 C 125.53125 153.058594 125.382812 149.972656 125.898438 148.429688 C 126.191406 147.398438 126.707031 146.738281 127.367188 146.222656 C 128.027344 145.78125 129.058594 145.5625 129.867188 145.636719 C 130.675781 145.707031 131.632812 146.222656 132.144531 146.8125 C 132.734375 147.472656 133.101562 149.3125 133.101562 149.3125 "/></clipPath><clipPath id="decab6238b"><path d="M 142.78125 179.414062 L 189.304688 179.414062 L 189.304688 219.214844 L 142.78125 219.214844 Z M 142.78125 179.414062 "/></clipPath><clipPath id="e0989e85dd"><path d="M 150.449219 183.125 C 152.066406 199.8125 153.390625 204.664062 155.667969 207.164062 C 157.433594 209.148438 160.519531 209.957031 162.578125 210.621094 C 164.050781 211.207031 165.078125 211.355469 166.621094 211.574219 C 168.753906 211.796875 172.0625 211.941406 174.121094 211.5 C 175.519531 211.207031 176.621094 210.691406 177.648438 210.03125 C 178.679688 209.296875 179.5625 208.632812 180.296875 207.238281 C 181.546875 204.957031 181.25 198.121094 182.574219 196.359375 C 183.238281 195.550781 184.117188 195.253906 184.925781 195.183594 C 185.734375 195.035156 186.765625 195.328125 187.425781 195.769531 C 188.089844 196.210938 188.675781 197.167969 188.898438 197.902344 C 189.117188 198.5625 189.042969 199.371094 188.824219 199.960938 C 188.601562 200.695312 188.089844 201.429688 187.425781 201.871094 C 186.542969 202.3125 184.925781 202.605469 183.972656 202.238281 C 183.015625 201.871094 181.988281 200.621094 181.765625 199.59375 C 181.546875 198.636719 181.988281 197.019531 182.648438 196.285156 C 183.382812 195.550781 185 195.109375 185.957031 195.183594 C 186.691406 195.253906 187.5 195.769531 188.015625 196.285156 C 188.527344 196.800781 188.96875 197.609375 188.96875 198.417969 C 189.042969 199.371094 188.527344 200.988281 187.71875 201.578125 C 186.910156 202.238281 185.367188 202.605469 184.339844 202.386719 C 183.382812 202.09375 182.207031 200.84375 181.839844 199.960938 C 181.546875 199.296875 181.617188 198.5625 181.765625 197.902344 C 181.988281 197.167969 182.648438 196.210938 183.238281 195.769531 C 183.75 195.402344 184.265625 195.183594 184.925781 195.183594 C 185.664062 195.109375 186.765625 195.253906 187.425781 195.769531 C 188.160156 196.359375 188.75 197.535156 189.042969 198.785156 C 189.410156 200.84375 189.117188 204.445312 188.382812 206.945312 C 187.648438 209.371094 186.03125 211.941406 184.707031 213.558594 C 183.75 214.734375 183.015625 215.324219 181.691406 216.132812 C 179.855469 217.234375 176.695312 218.410156 174.121094 218.851562 C 171.621094 219.292969 169.046875 219.148438 166.550781 218.851562 C 164.125 218.632812 161.625 218.117188 159.273438 217.308594 C 156.773438 216.425781 153.683594 215.03125 151.992188 213.632812 C 150.746094 212.75 150.230469 212.015625 149.347656 210.691406 C 147.878906 208.339844 145.890625 203.710938 144.863281 200.476562 C 143.980469 197.679688 143.613281 195.402344 143.320312 192.609375 C 143.027344 189.375 142.585938 184.375 143.246094 182.242188 C 143.539062 181.214844 144.054688 180.554688 144.714844 180.113281 C 145.378906 179.671875 146.40625 179.378906 147.214844 179.523438 C 148.023438 179.597656 148.980469 180.113281 149.566406 180.699219 C 150.082031 181.289062 150.449219 183.125 150.449219 183.125 "/></clipPath><clipPath id="13dadef749"><path d="M 181.414062 178.402344 L 228.570312 178.402344 L 228.570312 220.378906 L 181.414062 220.378906 Z M 181.414062 178.402344 "/></clipPath><clipPath id="831b7bfbea"><path d="M 189.042969 199.519531 C 189.851562 205.914062 190.515625 206.945312 191.617188 207.972656 C 193.234375 209.371094 196.6875 210.988281 198.746094 211.722656 C 200.070312 212.238281 200.878906 212.457031 202.347656 212.675781 C 204.40625 212.898438 207.421875 213.484375 209.921875 212.675781 C 213.007812 211.648438 217.34375 208.195312 218.960938 205.988281 C 219.992188 204.519531 219.917969 203.339844 220.285156 201.722656 C 220.726562 199.445312 221.019531 196.285156 221.09375 193.636719 C 221.242188 191.140625 221.316406 188.273438 220.949219 186.214844 C 220.726562 184.523438 219.699219 183.125 219.773438 181.949219 C 219.84375 181.066406 220.140625 180.332031 220.652344 179.816406 C 221.390625 179.15625 222.933594 178.421875 223.886719 178.566406 C 224.917969 178.714844 226.242188 179.746094 226.679688 180.554688 C 227.121094 181.214844 227.269531 182.171875 227.050781 182.90625 C 226.753906 183.789062 225.800781 185.183594 224.917969 185.625 C 223.960938 185.992188 222.34375 185.847656 221.460938 185.332031 C 220.582031 184.816406 219.84375 183.273438 219.773438 182.316406 C 219.699219 181.582031 219.992188 180.699219 220.433594 180.113281 C 220.875 179.523438 221.609375 178.9375 222.34375 178.714844 C 223.007812 178.496094 223.960938 178.496094 224.695312 178.789062 C 225.359375 179.007812 226.019531 179.523438 226.535156 180.257812 C 227.269531 181.289062 227.859375 183.199219 228.152344 185.039062 C 228.59375 187.464844 228.445312 190.476562 228.296875 193.492188 C 228.226562 197.019531 228.226562 201.722656 227.34375 204.957031 C 226.609375 207.605469 225.726562 209.664062 223.960938 211.722656 C 221.683594 214.441406 216.535156 217.601562 213.964844 218.851562 C 212.492188 219.585938 211.683594 219.808594 210.214844 220.027344 C 208.082031 220.324219 205.070312 220.324219 202.570312 220.027344 C 200.070312 219.734375 197.570312 219.292969 195 218.191406 C 191.910156 216.792969 187.574219 214.222656 185.367188 211.722656 C 183.53125 209.738281 182.425781 207.238281 181.839844 204.957031 C 181.324219 202.902344 181.324219 200.179688 181.765625 198.636719 C 182.058594 197.679688 182.574219 197.019531 183.238281 196.503906 C 183.898438 196.0625 185 195.769531 185.808594 195.917969 C 186.617188 195.992188 187.574219 196.503906 188.089844 197.09375 C 188.601562 197.753906 189.042969 199.519531 189.042969 199.519531 "/></clipPath><clipPath id="d6ac20d15f"><path d="M 202.367188 129.285156 L 230.867188 129.285156 L 230.867188 189.5 L 202.367188 189.5 Z M 202.367188 129.285156 "/></clipPath><clipPath id="2a607bfba5"><path d="M 227.195312 136.960938 C 219.257812 137.253906 215.726562 138.0625 213.816406 139.167969 C 212.566406 139.902344 211.757812 140.488281 211.097656 141.738281 C 210.140625 143.503906 209.996094 147.179688 209.847656 149.238281 C 209.699219 150.707031 209.554688 151.808594 209.847656 153.058594 C 210.140625 154.234375 210.65625 154.972656 211.464844 156.515625 C 213.449219 159.894531 218.960938 167.46875 221.976562 172.46875 C 224.550781 176.804688 228.296875 181.949219 228.667969 184.816406 C 228.8125 186.285156 228.445312 187.464844 227.859375 188.199219 C 227.417969 188.859375 226.609375 189.226562 225.871094 189.375 C 225.136719 189.523438 224.183594 189.449219 223.519531 189.082031 C 222.859375 188.785156 222.199219 188.125 221.828125 187.464844 C 221.460938 186.800781 221.316406 185.917969 221.460938 185.183594 C 221.757812 184.230469 222.785156 182.90625 223.59375 182.464844 C 224.253906 182.023438 225.210938 181.949219 225.945312 182.242188 C 226.828125 182.464844 228.152344 183.492188 228.519531 184.449219 C 228.886719 185.40625 228.667969 187.023438 228.152344 187.90625 C 227.5625 188.714844 226.09375 189.449219 225.0625 189.449219 C 224.035156 189.449219 223.078125 188.859375 222.050781 187.832031 C 219.917969 185.625 217.714844 179.230469 215.140625 174.964844 C 212.347656 170.410156 208.082031 165.261719 205.878906 161.367188 C 204.40625 158.648438 203.15625 156.367188 202.644531 154.234375 C 202.277344 152.617188 202.421875 151.515625 202.496094 149.898438 C 202.570312 147.695312 202.789062 144.460938 203.230469 142.328125 C 203.597656 140.785156 203.964844 139.605469 204.628906 138.359375 C 205.214844 137.109375 205.953125 135.859375 206.90625 134.902344 C 207.863281 133.945312 208.964844 133.285156 210.4375 132.550781 C 212.421875 131.59375 215.214844 130.492188 217.933594 129.976562 C 221.019531 129.390625 226.019531 129.09375 228.078125 129.683594 C 229.109375 130.050781 229.769531 130.492188 230.210938 131.226562 C 230.652344 131.886719 230.945312 132.917969 230.796875 133.726562 C 230.726562 134.535156 230.210938 135.492188 229.621094 136.003906 C 229.035156 136.59375 227.195312 136.960938 227.195312 136.960938 "/></clipPath><clipPath id="ff3943a2c1"><path d="M 222.175781 144 L 246.84375 144 L 246.84375 187.832031 L 222.175781 187.832031 Z M 222.175781 144 "/></clipPath><clipPath id="62cbb400a0"><path d="M 223.59375 181.289062 C 233.152344 171.730469 236.753906 166.953125 238.445312 162.101562 C 240.132812 157.101562 238.664062 147.914062 240.132812 145.488281 C 240.648438 144.605469 241.308594 144.386719 242.046875 144.164062 C 242.78125 144.019531 243.664062 143.945312 244.398438 144.3125 C 245.28125 144.753906 246.308594 146.003906 246.601562 146.957031 C 246.824219 147.695312 246.75 148.574219 246.382812 149.3125 C 245.867188 150.121094 244.617188 151.222656 243.664062 151.371094 C 242.632812 151.515625 241.089844 151 240.355469 150.265625 C 239.691406 149.53125 239.324219 147.914062 239.472656 146.957031 C 239.546875 146.148438 239.988281 145.414062 240.648438 144.972656 C 241.457031 144.386719 243.074219 144.019531 244.03125 144.164062 C 244.765625 144.3125 245.5 144.898438 245.941406 145.488281 C 246.382812 146.078125 246.53125 146.664062 246.675781 147.765625 C 247.042969 150.121094 246.75 156.292969 246.234375 159.894531 C 245.792969 162.835938 245.425781 164.96875 244.105469 167.761719 C 242.265625 171.730469 238.074219 177.320312 235.0625 180.699219 C 232.78125 183.347656 230.0625 185.847656 228.296875 186.949219 C 227.34375 187.464844 226.609375 187.832031 225.800781 187.757812 C 224.992188 187.757812 223.960938 187.390625 223.375 186.800781 C 222.710938 186.066406 222.199219 184.523438 222.269531 183.566406 C 222.34375 182.683594 223.59375 181.289062 223.59375 181.289062 "/></clipPath><clipPath id="43fc41b148"><path d="M 142.386719 128.382812 L 171 128.382812 L 171 186.179688 L 142.386719 186.179688 Z M 142.386719 128.382812 "/></clipPath><clipPath id="ee6e701d7a"><path d="M 144.421875 180.554688 C 155.667969 165.996094 159.199219 160.707031 160.890625 156.882812 C 162.136719 154.164062 162.652344 152.03125 163.09375 149.53125 C 163.609375 147.03125 164.125 143.796875 163.609375 141.8125 C 163.167969 140.34375 162.210938 139.238281 161.183594 138.429688 C 160.226562 137.695312 159.273438 137.550781 157.65625 137.179688 C 154.714844 136.519531 147.140625 136.8125 144.714844 135.492188 C 143.464844 134.828125 142.804688 133.726562 142.585938 132.84375 C 142.363281 132.035156 142.4375 131.152344 142.878906 130.492188 C 143.394531 129.683594 144.714844 128.726562 145.671875 128.507812 C 146.40625 128.285156 147.289062 128.582031 147.949219 128.949219 C 148.613281 129.316406 149.273438 129.902344 149.566406 130.640625 C 149.863281 131.59375 149.789062 133.210938 149.273438 134.09375 C 148.757812 134.976562 147.214844 135.710938 146.261719 135.785156 C 145.523438 135.859375 144.644531 135.636719 144.054688 135.125 C 143.320312 134.535156 142.511719 132.992188 142.511719 132.035156 C 142.4375 131.226562 142.804688 130.417969 143.320312 129.832031 C 143.761719 129.242188 144.273438 128.800781 145.304688 128.582031 C 147.878906 127.917969 157.214844 129.167969 160.449219 129.976562 C 162.066406 130.34375 162.726562 130.640625 163.902344 131.375 C 165.667969 132.550781 168.535156 134.902344 169.710938 136.667969 C 170.519531 138.0625 170.738281 139.019531 170.886719 140.855469 C 171.179688 144.3125 170.738281 151.296875 169.046875 156.441406 C 167.210938 162.175781 162.800781 168.496094 159.34375 173.570312 C 156.257812 178.054688 151.992188 184.082031 149.566406 185.550781 C 148.613281 186.140625 147.804688 186.214844 146.996094 186.066406 C 146.1875 185.917969 145.304688 185.40625 144.789062 184.742188 C 144.273438 184.082031 143.980469 183.050781 143.980469 182.242188 C 143.980469 181.65625 144.421875 180.554688 144.421875 180.554688 "/></clipPath><clipPath id="922284cd03"><path d="M 162.199219 173.507812 L 209.796875 173.507812 L 209.796875 199.136719 L 162.199219 199.136719 Z M 162.199219 173.507812 "/></clipPath><clipPath id="c5e53d2cab"><path d="M 169.417969 178.566406 C 174.488281 185.332031 180.074219 190.917969 184.707031 191.285156 C 189.925781 191.652344 202.347656 184.230469 202.054688 182.980469 C 201.761719 181.804688 192.277344 183.347656 186.765625 183.050781 C 180.371094 182.757812 169.34375 182.464844 165.8125 180.847656 C 164.417969 180.1875 163.753906 179.378906 163.386719 178.496094 C 163.09375 177.757812 163.167969 176.804688 163.386719 176.140625 C 163.683594 175.40625 164.125 174.671875 164.859375 174.304688 C 165.667969 173.789062 167.359375 173.570312 168.238281 173.9375 C 169.195312 174.304688 170.226562 175.703125 170.445312 176.582031 C 170.664062 177.320312 170.519531 178.273438 170.226562 178.9375 C 169.855469 179.597656 169.269531 180.332031 168.535156 180.625 C 167.652344 180.996094 166.035156 181.066406 165.078125 180.554688 C 164.195312 180.113281 163.386719 178.640625 163.242188 177.6875 C 163.09375 176.949219 163.386719 176.070312 163.753906 175.40625 C 164.125 174.746094 164.710938 174.230469 165.519531 173.9375 C 166.84375 173.421875 168.679688 173.570312 170.886719 173.644531 C 174.710938 173.789062 180.808594 175.40625 186.175781 175.703125 C 192.132812 176.070312 201.46875 174.671875 205.214844 175.480469 C 206.90625 175.847656 207.9375 176.214844 208.671875 177.097656 C 209.480469 177.980469 209.773438 179.597656 209.773438 180.847656 C 209.847656 182.097656 209.40625 183.421875 208.964844 184.597656 C 208.449219 185.847656 208.230469 186.875 206.832031 188.199219 C 203.597656 191.285156 190.144531 198.269531 185.882812 198.929688 C 184.191406 199.226562 183.675781 198.929688 182.207031 198.34375 C 179.121094 197.167969 172.722656 192.460938 169.417969 189.816406 C 167.136719 187.976562 165.152344 186.433594 163.976562 184.597656 C 162.945312 183.125 162.210938 181.289062 162.210938 179.816406 C 162.136719 178.640625 162.507812 177.320312 163.242188 176.582031 C 163.976562 175.847656 165.519531 175.480469 166.550781 175.628906 C 167.359375 175.703125 168.238281 176.4375 168.753906 176.949219 C 169.121094 177.464844 169.417969 178.566406 169.417969 178.566406 "/></clipPath><clipPath id="7280d91c4a"><path d="M 160 212.527344 L 212.949219 212.527344 L 212.949219 241.988281 L 160 241.988281 Z M 160 212.527344 "/></clipPath><clipPath id="fec511711f"><path d="M 167.652344 216.28125 C 168.976562 226.644531 169.417969 227.453125 170.445312 228.484375 C 171.914062 229.953125 174.636719 231.496094 176.988281 232.378906 C 179.339844 233.335938 182.058594 233.777344 184.632812 234.070312 C 187.132812 234.4375 190.074219 234.65625 192.132812 234.511719 C 193.601562 234.363281 194.703125 234.144531 195.808594 233.628906 C 196.984375 233.113281 197.863281 232.453125 198.96875 231.496094 C 200.585938 230.171875 203.230469 227.96875 204.261719 226.203125 C 205.070312 224.878906 204.703125 222.96875 205.511719 222.234375 C 206.171875 221.574219 208.230469 221.867188 208.304688 221.574219 C 208.304688 221.351562 206.6875 221.132812 206.171875 220.691406 C 205.582031 220.175781 205.144531 219.367188 204.996094 218.632812 C 204.847656 217.898438 204.996094 216.941406 205.289062 216.28125 C 205.65625 215.617188 206.320312 214.957031 206.980469 214.664062 C 207.640625 214.292969 208.597656 214.148438 209.332031 214.292969 C 210.066406 214.441406 210.875 214.882812 211.316406 215.472656 C 211.90625 216.28125 212.421875 217.824219 212.199219 218.851562 C 211.90625 219.808594 210.730469 220.984375 209.847656 221.351562 C 209.113281 221.71875 208.230469 221.644531 207.496094 221.425781 C 206.832031 221.203125 206.023438 220.691406 205.582031 220.027344 C 205.214844 219.441406 204.921875 218.558594 204.921875 217.824219 C 204.921875 217.089844 205.214844 216.207031 205.730469 215.617188 C 206.390625 214.957031 207.9375 213.925781 208.890625 214.292969 C 210.4375 214.808594 212.566406 219.367188 212.863281 221.941406 C 213.15625 224.4375 212.199219 227.160156 210.804688 229.585938 C 209.1875 232.527344 205.65625 235.761719 202.9375 237.746094 C 200.730469 239.363281 198.820312 240.539062 196.175781 241.199219 C 192.867188 242.082031 188.308594 242.007812 184.558594 241.566406 C 180.808594 241.199219 176.179688 239.875 173.53125 238.921875 C 171.914062 238.40625 171.105469 238.039062 169.785156 237.230469 C 168.019531 236.054688 165.519531 234.144531 163.976562 232.15625 C 162.433594 230.171875 161.257812 227.894531 160.59375 225.320312 C 159.933594 222.382812 159.785156 217.457031 160.375 215.398438 C 160.667969 214.367188 161.183594 213.707031 161.84375 213.265625 C 162.507812 212.75 163.609375 212.53125 164.417969 212.605469 C 165.226562 212.675781 166.183594 213.191406 166.695312 213.855469 C 167.210938 214.441406 167.652344 216.28125 167.652344 216.28125 "/></clipPath><clipPath id="45c8321a4d"><path d="M 120.210938 72.691406 L 153.039062 72.691406 L 153.039062 107.765625 L 120.210938 107.765625 Z M 120.210938 72.691406 "/></clipPath><clipPath id="24309941e1"><path d="M 126.851562 106.675781 C 122.882812 101.382812 122.589844 100.425781 122.148438 98.882812 C 121.558594 96.75 120.972656 93.808594 120.679688 90.796875 C 120.3125 87.195312 120.015625 81.535156 120.605469 78.738281 C 120.898438 77.269531 121.339844 76.386719 122.074219 75.433594 C 122.808594 74.476562 123.839844 73.519531 124.941406 73.078125 C 126.042969 72.636719 127.148438 72.785156 128.765625 72.933594 C 131.484375 73.152344 136.777344 74.476562 140.011719 75.652344 C 142.585938 76.609375 144.9375 77.929688 146.773438 79.035156 C 148.097656 79.84375 149.128906 80.429688 150.082031 81.460938 C 151.183594 82.636719 152.875 84.328125 153.023438 85.722656 C 153.097656 86.753906 152.363281 88.222656 151.554688 88.8125 C 150.746094 89.398438 149.128906 89.691406 148.171875 89.398438 C 147.214844 89.03125 146.113281 87.78125 145.820312 86.898438 C 145.523438 86.164062 145.597656 85.207031 145.964844 84.546875 C 146.332031 83.664062 147.582031 82.488281 148.539062 82.269531 C 149.566406 82.121094 151.113281 82.636719 151.847656 83.222656 C 152.507812 83.738281 152.875 84.546875 152.949219 85.28125 C 153.097656 86.015625 152.949219 86.972656 152.582031 87.632812 C 152.214844 88.296875 151.554688 88.882812 150.890625 89.253906 C 150.230469 89.546875 149.273438 89.621094 148.539062 89.472656 C 147.804688 89.324219 146.996094 88.8125 146.554688 88.296875 C 146.039062 87.707031 145.890625 86.089844 145.671875 86.089844 C 145.523438 86.089844 145.671875 86.972656 145.453125 87.121094 C 144.644531 87.414062 140.96875 83.960938 138.542969 83.003906 C 136.1875 82.121094 132.808594 82.488281 131.117188 81.460938 C 129.867188 80.652344 129.277344 78.152344 128.691406 78.226562 C 128.175781 78.371094 127.957031 80.355469 127.808594 81.902344 C 127.589844 84.621094 128.175781 90.429688 128.542969 93.148438 C 128.765625 94.765625 128.765625 95.5 129.277344 96.824219 C 130.015625 98.882812 132.882812 102.335938 133.175781 103.953125 C 133.25 104.6875 133.101562 105.128906 132.808594 105.71875 C 132.441406 106.378906 131.632812 107.1875 130.894531 107.484375 C 130.160156 107.851562 129.058594 107.777344 128.324219 107.628906 C 127.734375 107.410156 126.851562 106.675781 126.851562 106.675781 "/></clipPath><clipPath id="74143878db"><path d="M 220 72.464844 L 253.6875 72.464844 L 253.6875 109.792969 L 220 109.792969 Z M 220 72.464844 "/></clipPath><clipPath id="bba5a2de8c"><path d="M 221.09375 84.03125 C 231.019531 76.386719 233.738281 75.136719 235.722656 74.328125 C 237.121094 73.742188 237.855469 73.445312 239.324219 73.152344 C 241.308594 72.785156 244.691406 72.417969 246.75 72.636719 C 248.21875 72.785156 249.542969 72.933594 250.5 73.667969 C 251.527344 74.402344 252.191406 75.945312 252.632812 77.195312 C 253.070312 78.371094 253.070312 79.179688 253.21875 80.871094 C 253.511719 84.328125 253.953125 93.367188 253.441406 97.042969 C 253.21875 99.027344 252.851562 99.910156 252.191406 101.601562 C 251.308594 103.808594 249.910156 108.070312 248.292969 109.171875 C 247.265625 109.835938 245.792969 109.761719 244.914062 109.46875 C 244.105469 109.246094 243.515625 108.585938 243.148438 107.925781 C 242.78125 107.261719 242.488281 106.378906 242.632812 105.644531 C 242.855469 104.6875 243.734375 103.292969 244.617188 102.777344 C 245.5 102.335938 247.191406 102.335938 248.074219 102.851562 C 248.957031 103.367188 249.835938 104.761719 249.984375 105.71875 C 250.058594 106.746094 249.324219 108.21875 248.660156 108.953125 C 248.074219 109.46875 247.191406 109.761719 246.457031 109.761719 C 245.722656 109.761719 244.765625 109.613281 244.175781 109.101562 C 243.441406 108.511719 242.707031 107.410156 242.632812 106.011719 C 242.414062 103.511719 245.648438 98.808594 246.160156 95.058594 C 246.75 91.308594 246.382812 86.386719 246.015625 83.664062 C 245.867188 82.046875 246.089844 80.578125 245.132812 79.988281 C 243.882812 79.109375 240.207031 80.285156 237.414062 81.460938 C 233.371094 83.078125 226.679688 89.914062 223.886719 90.28125 C 222.785156 90.429688 222.050781 89.914062 221.460938 89.546875 C 220.949219 89.179688 220.582031 88.664062 220.359375 88.148438 C 220.140625 87.636719 219.917969 86.972656 220.066406 86.386719 C 220.140625 85.648438 221.09375 84.03125 221.09375 84.03125 "/></clipPath><clipPath id="1e9df778e6"><path d="M 62.003906 80.109375 L 113.425781 80.109375 L 113.425781 127.578125 L 62.003906 127.578125 Z M 62.003906 80.109375 "/></clipPath><clipPath id="ba7bce4a89"><path d="M 111.855469 86.753906 C 82.378906 112.703125 73.042969 121.523438 70.324219 120.789062 C 69.148438 120.566406 68.339844 118.214844 68.632812 117.480469 C 68.925781 116.671875 70.910156 116.304688 72.160156 116.082031 C 73.335938 115.863281 74.441406 115.863281 75.910156 116.011719 C 77.96875 116.304688 80.910156 116.964844 83.261719 118.070312 C 85.6875 119.171875 89.363281 121.15625 90.171875 122.625 C 90.613281 123.433594 90.390625 124.316406 90.171875 124.980469 C 89.949219 125.714844 89.4375 126.449219 88.773438 126.890625 C 87.964844 127.332031 86.273438 127.625 85.394531 127.332031 C 84.4375 126.964844 83.335938 125.714844 83.113281 124.683594 C 82.894531 123.730469 83.261719 122.113281 83.996094 121.375 C 84.65625 120.640625 86.203125 120.054688 87.230469 120.199219 C 88.257812 120.347656 89.507812 121.449219 90.023438 122.257812 C 90.390625 122.992188 90.390625 123.875 90.246094 124.609375 C 90.097656 125.347656 89.65625 126.15625 89.066406 126.667969 C 88.554688 127.109375 87.671875 127.476562 86.9375 127.550781 C 86.203125 127.550781 85.246094 127.332031 84.65625 126.964844 C 84.070312 126.523438 83.480469 125.050781 83.1875 125.050781 C 83.039062 125.125 83.1875 125.714844 82.964844 125.859375 C 82.15625 126.300781 77.527344 123.730469 74.808594 123.359375 C 72.234375 123.066406 69.148438 124.023438 67.015625 123.730469 C 65.472656 123.433594 63.855469 123.140625 63.046875 122.257812 C 62.308594 121.375 61.867188 119.613281 62.238281 118.507812 C 62.675781 117.1875 64.148438 116.378906 65.914062 114.90625 C 69.734375 111.671875 78.484375 106.378906 84.953125 101.160156 C 92.230469 95.207031 103.476562 83.078125 107.371094 80.871094 C 108.546875 80.285156 109.0625 80.0625 109.871094 80.136719 C 110.679688 80.210938 111.710938 80.652344 112.222656 81.238281 C 112.8125 81.828125 113.328125 82.78125 113.328125 83.589844 C 113.253906 84.621094 111.855469 86.753906 111.855469 86.753906 "/></clipPath><clipPath id="b247992d07"><path d="M 62.296875 120.15625 L 90.453125 120.15625 L 90.453125 171.617188 L 62.296875 171.617188 Z M 62.296875 120.15625 "/></clipPath><clipPath id="134c0dffbf"><path d="M 89.804688 125.789062 C 72.453125 159.824219 72.160156 165.042969 70.175781 165.925781 C 68.851562 166.585938 65.542969 164.96875 65.472656 164.234375 C 65.398438 163.644531 67.53125 162.617188 68.777344 162.101562 C 69.957031 161.585938 70.910156 161.367188 72.601562 161.144531 C 75.617188 160.851562 83.113281 160.558594 85.464844 161.367188 C 86.421875 161.660156 86.863281 162.175781 87.304688 162.761719 C 87.746094 163.425781 87.964844 164.308594 87.964844 165.042969 C 87.890625 165.777344 87.523438 166.660156 87.082031 167.246094 C 86.570312 167.761719 85.832031 168.351562 85.023438 168.421875 C 84.144531 168.570312 82.453125 168.128906 81.71875 167.542969 C 81.128906 167.027344 80.6875 166.21875 80.613281 165.410156 C 80.539062 164.453125 80.980469 162.835938 81.71875 162.175781 C 82.453125 161.441406 84.070312 161 85.023438 161.21875 C 86.054688 161.441406 87.304688 162.542969 87.671875 163.5 C 88.039062 164.453125 87.890625 166.070312 87.304688 166.878906 C 86.714844 167.761719 85.613281 168.203125 84.289062 168.496094 C 81.863281 169.085938 76.867188 167.910156 73.777344 168.496094 C 71.132812 169.085938 68.707031 171.585938 66.722656 171.511719 C 65.25 171.4375 63.484375 170.628906 62.824219 169.527344 C 62.164062 168.496094 62.457031 167.027344 62.75 165.335938 C 63.191406 162.46875 64.734375 158.867188 66.722656 154.382812 C 70.25 146.296875 80.320312 125.789062 83.554688 121.890625 C 84.4375 120.863281 84.804688 120.566406 85.613281 120.347656 C 86.570312 120.125 88.1875 120.421875 88.996094 121.007812 C 89.65625 121.523438 90.171875 122.480469 90.316406 123.289062 C 90.464844 124.023438 89.804688 125.789062 89.804688 125.789062 "/></clipPath><clipPath id="81d260fb55"><path d="M 61.632812 161.070312 L 90.699219 161.070312 L 90.699219 208.199219 L 61.632812 208.199219 Z M 61.632812 161.070312 "/></clipPath><clipPath id="c7d331829a"><path d="M 87.746094 165.996094 C 81.128906 179.671875 76.128906 186.285156 73.703125 191.210938 C 71.792969 195.183594 71.351562 201.429688 69.515625 202.238281 C 68.558594 202.679688 66.351562 201.578125 66.132812 200.84375 C 65.839844 200.105469 67.234375 198.5625 68.117188 197.679688 C 69 196.652344 69.957031 196.136719 71.5 195.183594 C 74.511719 193.269531 82.820312 188.492188 85.539062 187.683594 C 86.640625 187.390625 87.15625 187.316406 87.890625 187.535156 C 88.628906 187.757812 89.363281 188.273438 89.875 188.859375 C 90.316406 189.449219 90.613281 190.332031 90.613281 191.066406 C 90.613281 191.800781 90.316406 192.683594 89.875 193.269531 C 89.4375 193.859375 88.699219 194.445312 87.964844 194.59375 C 87.011719 194.8125 85.394531 194.59375 84.585938 193.933594 C 83.777344 193.269531 83.1875 191.726562 83.261719 190.699219 C 83.40625 189.742188 84.363281 188.34375 85.171875 187.832031 C 85.832031 187.464844 86.789062 187.316406 87.523438 187.464844 C 88.257812 187.609375 89.066406 187.976562 89.582031 188.566406 C 90.097656 189.082031 90.539062 189.890625 90.613281 190.699219 C 90.613281 191.652344 90.316406 192.757812 89.363281 193.859375 C 87.15625 196.359375 77.820312 199.371094 74 202.019531 C 71.425781 203.855469 69.957031 206.503906 68.042969 207.386719 C 66.648438 207.972656 65.105469 208.339844 64 207.824219 C 62.898438 207.238281 61.941406 205.03125 61.722656 203.710938 C 61.574219 202.53125 62.089844 201.578125 62.53125 200.105469 C 63.265625 197.386719 64.515625 193.195312 66.5 189.082031 C 69.21875 183.347656 75.910156 174.085938 78.410156 169.230469 C 79.730469 166.585938 80.101562 164.234375 81.128906 162.910156 C 81.789062 162.101562 82.453125 161.585938 83.1875 161.292969 C 83.996094 161.074219 85.097656 161.144531 85.832031 161.515625 C 86.570312 161.808594 87.304688 162.617188 87.671875 163.351562 C 87.964844 164.085938 87.746094 165.996094 87.746094 165.996094 "/></clipPath><clipPath id="9a98ca5544"><path d="M 82.753906 187.445312 L 139.980469 187.445312 L 139.980469 290 L 82.753906 290 Z M 82.753906 187.445312 "/></clipPath><clipPath id="6a7fa328f9"><path d="M 90.613281 191.066406 C 90.90625 207.605469 91.199219 209.441406 91.933594 212.53125 C 92.964844 216.941406 94.289062 222.675781 96.859375 228.554688 C 100.460938 236.640625 106.5625 246.785156 113.179688 255.609375 C 120.457031 265.53125 137.292969 280.234375 139.351562 284.71875 C 139.863281 285.820312 139.863281 286.261719 139.644531 287.070312 C 139.351562 287.953125 138.246094 289.277344 137.4375 289.71875 C 136.703125 290.011719 135.746094 290.011719 135.085938 289.863281 C 134.351562 289.644531 133.542969 289.203125 133.101562 288.542969 C 132.585938 287.734375 132.21875 286.117188 132.511719 285.160156 C 132.808594 284.203125 134.058594 283.027344 135.011719 282.734375 C 135.96875 282.441406 137.585938 282.808594 138.394531 283.46875 C 139.128906 284.128906 139.792969 285.675781 139.644531 286.628906 C 139.570312 287.660156 138.6875 289.054688 137.734375 289.496094 C 136.851562 290.011719 135.746094 290.160156 134.351562 289.570312 C 130.457031 287.953125 122.148438 277.21875 116.929688 271.265625 C 112.371094 265.972656 108.546875 261.710938 104.503906 255.902344 C 99.726562 248.992188 93.40625 238.113281 90.464844 232.304688 C 88.921875 229.070312 88.332031 227.378906 87.378906 224.441406 C 86.273438 220.984375 85.097656 216.28125 84.4375 212.824219 C 83.921875 210.03125 83.554688 208.195312 83.335938 205.328125 C 83.039062 201.355469 82.746094 193.859375 83.261719 191.066406 C 83.480469 189.890625 83.628906 189.226562 84.214844 188.640625 C 84.878906 187.976562 86.421875 187.390625 87.378906 187.464844 C 88.257812 187.464844 89.140625 188.050781 89.730469 188.640625 C 90.246094 189.300781 90.613281 191.066406 90.613281 191.066406 "/></clipPath><clipPath id="27b2ed3e50"><path d="M 119.875 240.644531 L 139.859375 240.644531 L 139.859375 290 L 119.875 290 Z M 119.875 240.644531 "/></clipPath><clipPath id="9f3a7dc34a"><path d="M 132.585938 287.21875 C 128.101562 273.175781 126.851562 265.019531 125.089844 259.210938 C 123.617188 254.210938 120.605469 248.183594 120.089844 245.464844 C 119.941406 244.433594 119.796875 243.847656 120.164062 243.113281 C 120.53125 242.230469 121.707031 241.054688 122.664062 240.832031 C 123.691406 240.539062 125.234375 241.054688 126.042969 241.566406 C 126.707031 242.082031 127.074219 242.890625 127.21875 243.625 C 127.367188 244.359375 127.292969 245.242188 126.925781 245.976562 C 126.410156 246.785156 125.089844 247.816406 124.132812 247.964844 C 123.398438 248.183594 122.515625 247.964844 121.855469 247.59375 C 121.191406 247.226562 120.53125 246.566406 120.238281 245.832031 C 119.941406 245.167969 119.871094 244.214844 120.015625 243.550781 C 120.238281 242.816406 120.679688 242.007812 121.265625 241.492188 C 121.855469 241.054688 122.664062 240.683594 123.472656 240.683594 C 124.425781 240.757812 125.601562 241.125 126.558594 242.15625 C 128.765625 244.65625 130.75 252.886719 132.367188 258.546875 C 134.128906 264.503906 135.308594 272.148438 136.777344 277.074219 C 137.734375 280.382812 139.496094 283.394531 139.71875 285.378906 C 139.863281 286.484375 139.792969 287.21875 139.421875 287.953125 C 139.054688 288.6875 138.246094 289.421875 137.511719 289.71875 C 136.703125 290.011719 135.675781 290.085938 134.867188 289.71875 C 133.984375 289.351562 132.585938 287.21875 132.585938 287.21875 "/></clipPath><clipPath id="bcdfe61c7f"><path d="M 119.867188 240.472656 L 127.8125 240.472656 L 127.8125 248.101562 L 119.867188 248.101562 Z M 119.867188 240.472656 "/></clipPath><clipPath id="1a60f6571c"><path d="M 122.882812 240.683594 C 126.117188 240.980469 127.367188 242.082031 127.660156 243.039062 C 128.027344 243.992188 127.660156 245.609375 127.074219 246.417969 C 126.410156 247.226562 124.941406 247.890625 123.914062 247.816406 C 122.882812 247.742188 121.488281 246.859375 120.972656 245.976562 C 120.457031 245.097656 120.457031 243.480469 120.898438 242.523438 C 121.339844 241.640625 122.664062 240.683594 123.691406 240.539062 C 124.648438 240.390625 126.191406 240.90625 126.925781 241.640625 C 127.589844 242.449219 127.882812 244.066406 127.734375 245.023438 C 127.660156 245.757812 127.074219 246.492188 126.484375 247.007812 C 125.972656 247.449219 125.382812 247.816406 124.648438 247.964844 C 123.839844 248.109375 122.738281 248.109375 122 247.742188 C 121.265625 247.375 120.53125 246.566406 120.164062 245.832031 C 119.871094 245.097656 119.796875 243.992188 120.089844 243.183594 C 120.3125 242.375 121.78125 241.125 121.78125 241.125 "/></clipPath><clipPath id="bbf4dfa927"><path d="M 116.242188 176.574219 L 128.117188 176.574219 L 128.117188 247.882812 L 116.242188 247.882812 Z M 116.242188 176.574219 "/></clipPath><clipPath id="ceb4d61815"><path d="M 120.679688 245.167969 C 117.371094 234.730469 117.296875 233.113281 117.148438 229.660156 C 116.707031 222.160156 115.605469 203.78125 116.929688 194.375 C 117.8125 187.757812 119.871094 180.1875 121.558594 177.90625 C 122.222656 177.097656 122.882812 176.878906 123.617188 176.730469 C 124.28125 176.582031 125.234375 176.65625 125.898438 176.949219 C 126.632812 177.320312 127.292969 177.90625 127.660156 178.566406 C 127.957031 179.230469 128.175781 180.113281 128.027344 180.921875 C 127.808594 181.804688 126.851562 183.199219 125.898438 183.640625 C 125.015625 184.082031 123.398438 184.007812 122.515625 183.492188 C 121.632812 182.980469 120.824219 181.433594 120.679688 180.554688 C 120.605469 179.746094 120.898438 178.863281 121.339844 178.273438 C 121.78125 177.613281 122.515625 177.097656 123.175781 176.804688 C 123.914062 176.582031 124.792969 176.511719 125.53125 176.804688 C 126.410156 177.171875 127.515625 177.90625 127.957031 179.304688 C 128.910156 182.757812 124.574219 192.09375 123.914062 199.59375 C 123.105469 208.855469 123.546875 222.453125 124.574219 230.761719 C 125.308594 236.421875 128.25 242.230469 127.808594 244.875 C 127.589844 245.976562 127.074219 246.566406 126.410156 247.082031 C 125.75 247.59375 124.722656 247.890625 123.914062 247.816406 C 123.105469 247.742188 122.074219 247.226562 121.558594 246.714844 C 121.121094 246.273438 120.679688 245.167969 120.679688 245.167969 "/></clipPath><clipPath id="2d35342a8c"><path d="M 140.367188 237.949219 L 172.960938 237.949219 L 172.960938 318 L 140.367188 318 Z M 140.367188 237.949219 "/></clipPath><clipPath id="fb8943e5e1"><path d="M 148.613281 241.566406 C 149.863281 285.894531 152.433594 292.363281 154.417969 296.773438 C 155.742188 299.566406 156.699219 301.039062 158.390625 303.242188 C 160.449219 305.964844 166.695312 310.082031 166.253906 311.699219 C 165.960938 312.875 162.066406 314.125 161.183594 313.460938 C 160.152344 312.652344 161.328125 307.800781 161.769531 305.667969 C 162.066406 304.199219 162.359375 303.242188 162.945312 301.921875 C 163.753906 300.15625 165.300781 297.289062 166.476562 296.1875 C 167.210938 295.523438 167.800781 295.230469 168.535156 295.082031 C 169.269531 295.011719 170.226562 295.082031 170.886719 295.523438 C 171.695312 296.039062 172.652344 297.363281 172.796875 298.390625 C 172.871094 299.347656 172.28125 300.890625 171.472656 301.554688 C 170.738281 302.214844 169.121094 302.507812 168.09375 302.289062 C 167.136719 301.992188 166.035156 300.746094 165.667969 299.863281 C 165.300781 299.128906 165.445312 298.246094 165.667969 297.511719 C 165.886719 296.847656 166.476562 296.113281 167.0625 295.671875 C 167.726562 295.230469 168.609375 294.9375 169.34375 295.082031 C 170.296875 295.230469 171.769531 296.113281 172.28125 296.847656 C 172.722656 297.511719 172.871094 298.171875 172.796875 299.128906 C 172.578125 300.964844 169.785156 303.980469 169.046875 306.550781 C 168.3125 309.050781 168.902344 312.285156 168.3125 314.34375 C 167.871094 315.742188 167.503906 317.136719 166.476562 317.652344 C 165.226562 318.3125 162.433594 317.578125 160.960938 316.84375 C 159.710938 316.253906 159.199219 315.300781 158.09375 314.195312 C 156.550781 312.578125 154.492188 310.449219 152.800781 308.09375 C 150.816406 305.300781 148.90625 302.214844 147.140625 298.320312 C 144.9375 293.171875 142.511719 286.851562 141.410156 279.277344 C 139.863281 268.988281 140.378906 246.640625 141.261719 241.566406 C 141.554688 240.246094 141.628906 239.730469 142.21875 239.140625 C 142.878906 238.480469 144.421875 237.890625 145.378906 237.964844 C 146.261719 237.964844 147.140625 238.554688 147.730469 239.140625 C 148.246094 239.730469 148.613281 241.566406 148.613281 241.566406 "/></clipPath><clipPath id="1c63a6b1b4"><path d="M 165.402344 295.007812 L 210 295.007812 L 210 334.503906 L 165.402344 334.503906 Z M 165.402344 295.007812 "/></clipPath><clipPath id="c717a3f28b"><path d="M 172.355469 296.996094 C 188.234375 321.328125 189.191406 323.3125 190 325.664062 C 190.734375 327.648438 191.691406 329.929688 191.46875 331.398438 C 191.324219 332.355469 190.808594 333.089844 190.144531 333.605469 C 189.558594 334.117188 188.527344 334.484375 187.71875 334.484375 C 186.910156 334.414062 185.882812 334.046875 185.292969 333.457031 C 184.707031 332.867188 184.265625 332.207031 184.191406 331.105469 C 183.972656 328.824219 186.101562 322.652344 187.207031 319.929688 C 187.941406 318.3125 188.308594 317.871094 189.484375 316.183594 C 192.132812 312.136719 200.363281 299.347656 203.746094 296.996094 C 205.070312 296.113281 206.023438 295.820312 207.054688 295.964844 C 208.007812 296.1875 209.332031 297.214844 209.699219 298.171875 C 210.140625 299.054688 209.996094 300.746094 209.40625 301.554688 C 208.890625 302.433594 207.421875 303.242188 206.464844 303.242188 C 205.4375 303.316406 203.964844 302.582031 203.378906 301.699219 C 202.789062 300.890625 202.644531 299.199219 202.863281 298.320312 C 203.085938 297.582031 203.746094 296.921875 204.40625 296.480469 C 204.996094 296.113281 205.878906 295.820312 206.6875 295.964844 C 207.570312 296.113281 209.039062 296.921875 209.554688 297.804688 C 210.066406 298.6875 210.066406 300.007812 209.625 301.257812 C 209.039062 303.023438 206.6875 304.492188 204.847656 306.917969 C 201.835938 310.890625 196.175781 318.3125 193.820312 323.164062 C 192.132812 326.765625 192.277344 331.25 190.808594 333.015625 C 189.925781 333.972656 188.75 334.484375 187.71875 334.484375 C 186.691406 334.414062 185.664062 333.824219 184.707031 332.796875 C 183.015625 330.882812 182.425781 326.179688 180.296875 322.0625 C 176.988281 315.960938 167.359375 304.273438 165.886719 300.449219 C 165.445312 299.273438 165.300781 298.6875 165.519531 297.878906 C 165.8125 296.996094 166.917969 295.746094 167.800781 295.304688 C 168.535156 294.9375 169.636719 295.011719 170.371094 295.304688 C 171.105469 295.523438 172.355469 296.996094 172.355469 296.996094 "/></clipPath><clipPath id="cd615f726f"><path d="M 202.660156 228.5 L 234.898438 228.5 L 234.898438 313 L 202.660156 313 Z M 202.660156 228.5 "/></clipPath><clipPath id="8010e61cde"><path d="M 209.996094 299.347656 C 210.582031 306.332031 207.570312 306.992188 207.128906 306.476562 C 206.539062 305.742188 209.113281 301.332031 210.804688 298.757812 C 212.863281 295.746094 217.199219 292.21875 218.890625 289.863281 C 219.917969 288.46875 220.210938 287.878906 220.949219 286.410156 C 222.269531 283.835938 224.476562 278.839844 225.503906 275.382812 C 226.386719 272.515625 226.828125 270.605469 227.195312 267.296875 C 227.710938 262.152344 228.078125 253.625 227.121094 247.59375 C 226.167969 242.082031 221.609375 235.394531 221.902344 232.304688 C 221.976562 230.910156 222.710938 229.878906 223.445312 229.292969 C 224.109375 228.777344 224.992188 228.554688 225.726562 228.628906 C 226.460938 228.628906 227.34375 228.996094 227.929688 229.4375 C 228.445312 229.953125 229.035156 230.6875 229.109375 231.496094 C 229.253906 232.453125 228.886719 234.070312 228.226562 234.804688 C 227.5625 235.539062 225.945312 236.054688 224.992188 235.90625 C 223.960938 235.761719 222.636719 234.804688 222.199219 233.847656 C 221.757812 232.964844 221.902344 231.277344 222.417969 230.394531 C 222.933594 229.511719 224.328125 228.703125 225.359375 228.628906 C 226.3125 228.554688 227.488281 228.996094 228.445312 230.027344 C 230.355469 232.011719 232.414062 238.480469 233.445312 242.082031 C 234.253906 244.875 234.546875 246.566406 234.769531 249.726562 C 235.0625 254.875 234.769531 264.796875 234.179688 269.941406 C 233.738281 273.25 233.296875 275.015625 232.414062 277.882812 C 231.3125 281.335938 229.402344 285.96875 227.785156 289.203125 C 226.386719 291.847656 225.210938 293.613281 223.445312 295.964844 C 221.316406 298.757812 217.785156 301.847656 215.800781 304.789062 C 214.257812 307.140625 213.890625 310.519531 212.273438 311.769531 C 210.949219 312.800781 208.746094 313.242188 207.421875 312.726562 C 206.246094 312.359375 205.4375 310.890625 204.773438 309.417969 C 203.746094 307.507812 203.011719 304.125 202.789062 302.066406 C 202.644531 300.523438 202.570312 299.128906 203.011719 298.097656 C 203.378906 297.289062 204.039062 296.554688 204.847656 296.261719 C 205.730469 295.890625 207.347656 295.890625 208.230469 296.40625 C 209.113281 296.996094 209.996094 299.347656 209.996094 299.347656 "/></clipPath><clipPath id="00a23bd24a"><path d="M 141.414062 228.441406 L 166.320312 228.441406 L 166.320312 282.6875 L 141.414062 282.6875 Z M 141.414062 228.441406 "/></clipPath><clipPath id="466a28677c"><path d="M 141.480469 238.921875 C 143.539062 231.277344 143.90625 230.027344 144.789062 229.363281 C 145.746094 228.703125 147.363281 228.261719 148.464844 228.628906 C 149.640625 228.996094 150.816406 230.171875 151.480469 231.71875 C 152.582031 234.214844 150.746094 238.996094 151.773438 243.332031 C 153.242188 249.652344 159.566406 259.796875 161.84375 265.238281 C 163.167969 268.398438 164.492188 270.898438 164.710938 272.808594 C 164.785156 273.984375 163.976562 274.867188 164.195312 275.601562 C 164.417969 276.339844 165.519531 276.632812 165.886719 277.292969 C 166.183594 277.957031 166.328125 278.910156 166.183594 279.574219 C 166.109375 280.308594 165.59375 281.191406 165.078125 281.632812 C 164.492188 282.144531 163.683594 282.585938 162.945312 282.585938 C 161.992188 282.585938 160.375 282.074219 159.710938 281.265625 C 159.125 280.457031 158.757812 278.839844 159.050781 277.882812 C 159.34375 276.925781 160.59375 275.75 161.476562 275.457031 C 162.210938 275.164062 163.167969 275.164062 163.828125 275.457031 C 164.710938 275.898438 165.886719 277.148438 166.183594 278.027344 C 166.402344 278.765625 166.253906 279.71875 165.960938 280.382812 C 165.667969 281.042969 165.152344 281.777344 164.417969 282.144531 C 163.535156 282.511719 162.210938 283.027344 160.960938 282.21875 C 156.773438 279.574219 147.070312 253.769531 144.9375 245.976562 C 143.980469 242.523438 143.835938 240.316406 144.054688 238.1875 C 144.128906 236.714844 144.203125 235.097656 145.082031 234.363281 C 146.113281 233.554688 149.640625 233.335938 150.375 234.214844 C 151.183594 235.246094 149.273438 239.730469 148.390625 241.199219 C 147.878906 242.15625 147.140625 242.671875 146.480469 243.039062 C 145.964844 243.332031 145.378906 243.40625 144.789062 243.332031 C 144.054688 243.257812 142.953125 242.890625 142.4375 242.230469 C 141.777344 241.492188 141.480469 238.921875 141.480469 238.921875 "/></clipPath><clipPath id="1d87f04760"><path d="M 159.027344 264.183594 L 191.640625 264.183594 L 191.640625 299.941406 L 159.027344 299.941406 Z M 159.027344 264.183594 "/></clipPath><clipPath id="32cbebb24e"><path d="M 159.125 277.734375 C 165.742188 264.503906 167.0625 264.136719 168.238281 264.28125 C 169.417969 264.429688 170.8125 265.605469 171.546875 266.636719 C 172.28125 267.664062 172.0625 269.132812 172.578125 270.3125 C 173.089844 271.488281 173.605469 272.296875 174.636719 273.617188 C 176.328125 275.824219 179.855469 278.984375 182.5 282.21875 C 185.441406 285.894531 190.144531 291.996094 191.175781 294.570312 C 191.617188 295.597656 191.691406 296.113281 191.542969 296.847656 C 191.394531 297.582031 191.027344 298.464844 190.441406 298.90625 C 189.707031 299.496094 188.015625 299.9375 187.132812 299.863281 C 186.324219 299.714844 185.515625 299.273438 185.074219 298.613281 C 184.558594 297.804688 184.117188 296.1875 184.414062 295.230469 C 184.632812 294.273438 185.882812 293.097656 186.765625 292.730469 C 187.5 292.4375 188.382812 292.511719 189.117188 292.804688 C 189.777344 293.027344 190.585938 293.539062 190.953125 294.203125 C 191.46875 295.011719 191.691406 296.703125 191.324219 297.65625 C 190.953125 298.613281 189.632812 299.640625 188.675781 299.863281 C 187.71875 300.082031 186.542969 299.714844 185.367188 298.90625 C 182.941406 297.214844 180.074219 291.1875 177.0625 287.292969 C 173.828125 283.101562 168.09375 277.882812 166.550781 274.722656 C 165.8125 273.105469 165.226562 271.339844 165.742188 270.75 C 166.328125 270.164062 169.417969 270.382812 169.929688 271.265625 C 170.738281 272.738281 166.84375 279.277344 165.667969 280.894531 C 165.226562 281.632812 164.933594 281.851562 164.417969 282.144531 C 163.753906 282.441406 162.578125 282.660156 161.84375 282.511719 C 161.183594 282.441406 160.667969 282.144531 160.226562 281.777344 C 159.785156 281.410156 159.417969 280.894531 159.199219 280.308594 C 158.976562 279.648438 159.125 277.734375 159.125 277.734375 "/></clipPath><clipPath id="d81376b8b0"><path d="M 184.210938 263.355469 L 214.605469 263.355469 L 214.605469 299.9375 L 184.210938 299.9375 Z M 184.210938 263.355469 "/></clipPath><clipPath id="d927917ab8"><path d="M 184.632812 294.570312 C 193.75 279.941406 201.980469 265.019531 206.320312 263.621094 C 208.230469 263.03125 210.363281 263.988281 211.390625 265.238281 C 212.640625 266.78125 211.832031 270.308594 212.347656 272.738281 C 212.863281 275.015625 214.480469 277.734375 214.480469 279.351562 C 214.480469 280.308594 214.183594 280.96875 213.671875 281.558594 C 213.230469 282.144531 212.492188 282.660156 211.757812 282.882812 C 211.023438 283.101562 210.066406 283.027344 209.40625 282.734375 C 208.746094 282.441406 208.007812 281.925781 207.640625 281.191406 C 207.199219 280.308594 207.128906 278.617188 207.496094 277.734375 C 207.789062 277 208.449219 276.410156 209.113281 276.042969 C 209.773438 275.75 210.65625 275.53125 211.464844 275.675781 C 212.347656 275.972656 213.742188 276.925781 214.183594 277.808594 C 214.550781 278.765625 214.480469 280.382812 213.964844 281.265625 C 213.375 282.144531 211.980469 282.953125 210.949219 283.027344 C 209.921875 283.027344 208.671875 282.367188 207.863281 281.558594 C 206.761719 280.457031 206.023438 278.324219 205.582031 276.410156 C 204.996094 274.207031 203.894531 269.648438 204.921875 268.839844 C 205.804688 268.105469 209.480469 268.914062 209.996094 270.308594 C 211.316406 273.839844 194.261719 295.453125 190.660156 298.6875 C 189.707031 299.566406 189.191406 299.789062 188.382812 299.863281 C 187.574219 300.007812 186.542969 299.789062 185.882812 299.273438 C 185.222656 298.832031 184.558594 297.949219 184.339844 297.140625 C 184.117188 296.40625 184.632812 294.570312 184.632812 294.570312 "/></clipPath><clipPath id="0a4ae245e0"><path d="M 207.1875 230.824219 L 227.472656 230.824219 L 227.472656 283 L 207.1875 283 Z M 207.1875 230.824219 "/></clipPath><clipPath id="c202a3b2a0"><path d="M 207.496094 277.660156 C 215.289062 262.152344 215.800781 260.535156 216.609375 257.152344 C 217.933594 251.269531 218.816406 236.347656 220.433594 233.039062 C 220.949219 232.011719 221.390625 231.71875 222.050781 231.347656 C 222.636719 230.980469 223.59375 230.835938 224.328125 230.910156 C 225.0625 231.054688 225.871094 231.421875 226.386719 232.011719 C 226.902344 232.527344 227.417969 233.335938 227.417969 234.070312 C 227.488281 235.023438 226.976562 236.640625 226.242188 237.304688 C 225.433594 237.964844 223.816406 238.257812 222.859375 238.113281 C 222.050781 237.964844 221.316406 237.449219 220.875 236.789062 C 220.359375 236.054688 220.066406 234.363281 220.285156 233.40625 C 220.433594 232.671875 221.09375 231.9375 221.683594 231.570312 C 222.269531 231.128906 223.226562 230.835938 223.960938 230.910156 C 224.695312 230.910156 225.578125 231.277344 226.09375 231.71875 C 226.679688 232.160156 227.121094 232.597656 227.34375 233.703125 C 228.152344 237.449219 224.917969 253.917969 223.445312 260.09375 C 222.636719 263.621094 221.976562 265.238281 220.726562 268.179688 C 219.035156 272.148438 215.582031 279.648438 213.597656 281.703125 C 212.789062 282.585938 212.125 282.882812 211.316406 282.953125 C 210.507812 283.101562 209.480469 282.882812 208.746094 282.367188 C 208.082031 281.925781 207.496094 281.042969 207.273438 280.308594 C 207.054688 279.5 207.496094 277.660156 207.496094 277.660156 "/></clipPath><clipPath id="b99de9bf9c"><path d="M 91.125 173 L 127.425781 173 L 127.425781 233.171875 L 91.125 233.171875 Z M 91.125 173 "/></clipPath><clipPath id="1a914bd981"><path d="M 126.707031 179.007812 C 112.003906 195.035156 109.429688 199.519531 106.929688 204.078125 C 104.433594 208.707031 101.566406 213.632812 100.167969 218.339844 C 98.917969 222.453125 99.582031 228.113281 98.332031 230.539062 C 97.667969 231.789062 96.785156 232.597656 95.832031 232.894531 C 94.875 233.1875 93.257812 232.671875 92.449219 232.15625 C 91.863281 231.71875 91.347656 230.910156 91.273438 230.171875 C 91.125 229.21875 91.566406 227.527344 92.15625 226.792969 C 92.671875 226.203125 93.480469 225.761719 94.289062 225.6875 C 95.167969 225.617188 96.785156 226.058594 97.523438 226.792969 C 98.183594 227.527344 98.550781 229.21875 98.402344 230.171875 C 98.332031 230.910156 97.816406 231.644531 97.226562 232.15625 C 96.640625 232.597656 95.757812 232.96875 95.023438 233.039062 C 94.289062 233.039062 93.40625 232.820312 92.816406 232.378906 C 92.15625 231.9375 91.640625 231.421875 91.347656 230.539062 C 90.832031 228.777344 91.347656 224.808594 91.789062 222.085938 C 92.15625 219.515625 92.671875 217.457031 93.699219 214.589844 C 95.167969 210.546875 97.890625 205.179688 100.609375 200.328125 C 103.695312 194.960938 107.300781 188.566406 111.269531 183.859375 C 114.871094 179.671875 120.75 174.011719 123.03125 173.203125 C 123.765625 172.90625 124.207031 173.054688 124.792969 173.277344 C 125.53125 173.496094 126.410156 174.15625 126.851562 174.820312 C 127.292969 175.480469 127.441406 176.582031 127.367188 177.390625 C 127.367188 177.980469 126.707031 179.007812 126.707031 179.007812 "/></clipPath><clipPath id="c252ea040e"><path d="M 256.292969 77.183594 L 313.117188 77.183594 L 313.117188 132.34375 L 256.292969 132.34375 Z M 256.292969 77.183594 "/></clipPath><clipPath id="c11b596737"><path d="M 261.597656 77.488281 C 271.742188 83.371094 275.859375 86.386719 280.933594 90.429688 C 289.019531 96.96875 307.25 112.113281 311.144531 117.113281 C 312.394531 118.65625 312.984375 119.464844 313.058594 120.640625 C 313.058594 121.816406 312.542969 123.289062 311.515625 124.097656 C 309.96875 125.273438 306.074219 124.609375 303.425781 125.347656 C 300.855469 126.082031 297.253906 129.167969 295.855469 128.507812 C 294.828125 127.992188 294.238281 124.539062 294.753906 124.167969 C 295.195312 123.800781 297.695312 124.980469 298.503906 125.933594 C 299.238281 126.742188 299.75 128.214844 299.53125 129.167969 C 299.382812 130.199219 298.355469 131.449219 297.398438 131.886719 C 296.515625 132.328125 294.828125 132.183594 294.019531 131.667969 C 293.136719 131.152344 292.328125 129.683594 292.253906 128.652344 C 292.179688 127.699219 292.988281 126.226562 293.722656 125.566406 C 294.3125 125.050781 295.195312 124.757812 296.003906 124.832031 C 296.957031 124.980469 298.429688 125.640625 299.015625 126.523438 C 299.53125 127.332031 299.605469 129.023438 299.3125 129.976562 C 299.089844 130.710938 298.429688 131.375 297.765625 131.742188 C 297.105469 132.109375 296.371094 132.328125 295.488281 132.183594 C 293.945312 132.035156 290.636719 130.785156 289.535156 129.316406 C 288.578125 128.214844 288.136719 126.082031 288.578125 124.90625 C 289.019531 123.65625 290.636719 122.992188 292.03125 122.113281 C 294.019531 120.933594 297.324219 119.464844 299.457031 118.804688 C 300.855469 118.289062 301.957031 117.996094 303.207031 117.921875 C 304.457031 117.847656 306.441406 117.554688 307.03125 118.289062 C 307.617188 119.023438 307.25 122.257812 306.222656 122.625 C 303.28125 123.65625 284.902344 103.144531 277.183594 96.824219 C 272.332031 92.925781 268.507812 90.0625 264.832031 87.707031 C 262.1875 86.015625 259.027344 84.988281 257.628906 83.664062 C 256.894531 82.855469 256.453125 82.195312 256.378906 81.386719 C 256.234375 80.578125 256.453125 79.476562 256.894531 78.8125 C 257.335938 78.152344 258.21875 77.488281 258.953125 77.269531 C 259.761719 77.050781 261.597656 77.488281 261.597656 77.488281 "/></clipPath><clipPath id="def8cf8560"><path d="M 289.039062 123.777344 L 313.40625 123.777344 L 313.40625 173.335938 L 289.039062 173.335938 Z M 289.039062 123.777344 "/></clipPath><clipPath id="05c5802c95"><path d="M 298.355469 126.597656 C 311.441406 158.5 313.644531 164.75 313.277344 168.351562 C 313.058594 170.335938 312.25 172.027344 311.144531 172.761719 C 310.117188 173.421875 308.5 173.277344 306.882812 172.980469 C 304.75 172.613281 302.25 170.703125 299.679688 169.96875 C 296.957031 169.230469 292.546875 169.671875 290.929688 168.792969 C 290.046875 168.277344 289.679688 167.613281 289.386719 166.953125 C 289.09375 166.292969 289.019531 165.335938 289.238281 164.601562 C 289.605469 163.71875 290.785156 162.46875 291.664062 162.101562 C 292.402344 161.808594 293.28125 161.882812 294.019531 162.175781 C 294.679688 162.394531 295.414062 162.984375 295.855469 163.570312 C 296.296875 164.160156 296.589844 165.042969 296.445312 165.851562 C 296.371094 166.804688 295.5625 168.277344 294.679688 168.792969 C 293.796875 169.304688 292.179688 169.378906 291.222656 168.9375 C 290.34375 168.496094 289.386719 167.101562 289.167969 166.21875 C 289.019531 165.410156 289.167969 164.527344 289.535156 163.867188 C 290.046875 163.058594 291.152344 162.25 292.402344 161.953125 C 294.605469 161.441406 299.089844 162.324219 301.957031 163.058594 C 304.605469 163.644531 309.015625 164.894531 309.085938 165.777344 C 309.160156 166.4375 306.734375 167.984375 305.851562 167.613281 C 304.308594 166.953125 304.53125 160.703125 302.988281 156.148438 C 300.558594 149.164062 292.914062 134.753906 291.59375 130.050781 C 291.152344 128.359375 290.929688 127.550781 291.222656 126.523438 C 291.519531 125.566406 292.546875 124.316406 293.503906 124.023438 C 294.460938 123.65625 296.078125 123.949219 296.886719 124.464844 C 297.621094 124.90625 298.355469 126.597656 298.355469 126.597656 "/></clipPath><clipPath id="3bca0d593f"><path d="M 279.792969 161.921875 L 313.308594 161.921875 L 313.308594 212.125 L 279.792969 212.125 Z M 279.792969 161.921875 "/></clipPath><clipPath id="29253e03fe"><path d="M 296.445312 165.628906 C 299.824219 176.070312 305.339844 185.476562 307.984375 191.875 C 310.191406 197.242188 313.425781 203.339844 313.277344 206.945312 C 313.132812 209.003906 312.175781 211.058594 310.925781 211.722656 C 309.75 212.382812 307.324219 211.796875 305.925781 211.058594 C 304.605469 210.398438 304.234375 209.003906 302.765625 207.898438 C 300.339844 205.988281 295.707031 204.003906 292.105469 201.503906 C 288.136719 198.710938 281.300781 194.445312 280.199219 191.726562 C 279.683594 190.476562 279.976562 189.152344 280.492188 188.34375 C 281.078125 187.464844 282.550781 186.726562 283.507812 186.65625 C 284.316406 186.582031 285.125 186.949219 285.710938 187.316406 C 286.371094 187.757812 286.960938 188.492188 287.109375 189.300781 C 287.328125 190.183594 287.035156 191.875 286.445312 192.609375 C 285.785156 193.417969 284.167969 194.003906 283.285156 194.003906 C 282.476562 194.003906 281.667969 193.566406 281.078125 193.050781 C 280.566406 192.535156 280.050781 191.800781 279.976562 190.992188 C 279.832031 190.035156 280.34375 188.417969 281.007812 187.683594 C 281.519531 187.09375 282.402344 186.800781 283.136719 186.65625 C 283.875 186.582031 284.460938 186.65625 285.417969 187.167969 C 287.84375 188.199219 292.769531 193.050781 296.515625 195.621094 C 299.898438 197.902344 304.605469 199.886719 306.660156 201.796875 C 307.839844 202.828125 309.085938 203.929688 308.941406 204.738281 C 308.792969 205.546875 306.589844 206.945312 305.632812 206.578125 C 303.941406 205.914062 303.5 200.035156 301.738281 195.84375 C 299.015625 189.300781 291.59375 176.804688 289.976562 171.363281 C 289.167969 168.863281 288.945312 167.101562 289.09375 165.628906 C 289.238281 164.601562 289.535156 163.792969 290.046875 163.203125 C 290.5625 162.542969 291.59375 162.101562 292.328125 161.953125 C 292.988281 161.882812 293.578125 161.953125 294.089844 162.175781 C 294.828125 162.46875 295.707031 163.277344 296.078125 163.941406 C 296.371094 164.453125 296.445312 165.628906 296.445312 165.628906 "/></clipPath><clipPath id="16eb5ca964"><path d="M 235.859375 186.566406 L 287.253906 186.566406 L 287.253906 291 L 235.859375 291 Z M 235.859375 186.566406 "/></clipPath><clipPath id="36c9af8822"><path d="M 287.253906 190.476562 C 287.253906 222.820312 286.59375 224.441406 285.710938 226.792969 C 284.828125 229.144531 283.945312 230.835938 282.328125 233.628906 C 279.535156 238.554688 274.609375 246.492188 269.539062 253.476562 C 263.363281 262.003906 251.675781 273.984375 247.191406 280.675781 C 244.839844 284.277344 244.25 287.804688 242.558594 289.421875 C 241.605469 290.378906 240.5 291.039062 239.546875 290.96875 C 238.515625 290.96875 237.046875 290.160156 236.53125 289.351562 C 235.945312 288.46875 235.871094 286.851562 236.164062 285.894531 C 236.386719 285.160156 237.046875 284.5 237.707031 284.128906 C 238.371094 283.761719 239.253906 283.617188 239.988281 283.691406 C 240.722656 283.761719 241.605469 284.128906 242.117188 284.71875 C 242.632812 285.234375 243.148438 285.96875 243.222656 286.777344 C 243.296875 287.734375 242.707031 289.351562 242.046875 290.011719 C 241.53125 290.601562 240.648438 290.894531 239.914062 290.96875 C 239.179688 291.039062 238.296875 290.894531 237.632812 290.453125 C 236.824219 289.863281 235.945312 288.761719 235.871094 287.4375 C 235.796875 285.011719 238.445312 280.75 241.089844 276.558594 C 245.722656 269.355469 256.96875 258.253906 263.144531 249.800781 C 268.289062 242.742188 273.214844 235.539062 276.15625 229.660156 C 278.214844 225.542969 279.535156 223.261719 280.34375 218.632812 C 281.667969 211.355469 278.800781 193.636719 279.976562 189.59375 C 280.34375 188.34375 280.785156 187.90625 281.519531 187.464844 C 282.183594 186.949219 283.210938 186.726562 284.019531 186.800781 C 284.828125 186.875 285.785156 187.390625 286.300781 188.050781 C 286.886719 188.640625 287.253906 190.476562 287.253906 190.476562 "/></clipPath><clipPath id="dc96097a8d"><path d="M 234.164062 173.40625 L 257.648438 173.40625 L 257.648438 293.21875 L 234.164062 293.21875 Z M 234.164062 173.40625 "/></clipPath><clipPath id="7bbb25588c"><path d="M 234.253906 289.496094 C 235.648438 277.074219 239.253906 258.988281 242.046875 247.964844 C 244.472656 238.332031 248.957031 228.996094 250.132812 221.203125 C 251.015625 215.324219 250.71875 211.132812 250.132812 205.398438 C 249.46875 198.417969 246.308594 187.90625 245.5 182.539062 C 245.132812 179.746094 244.542969 177.464844 244.984375 175.996094 C 245.207031 175.113281 245.792969 174.597656 246.382812 174.15625 C 246.972656 173.714844 247.851562 173.421875 248.660156 173.496094 C 249.617188 173.644531 251.015625 174.523438 251.601562 175.332031 C 252.042969 175.921875 252.191406 176.878906 252.117188 177.613281 C 252.042969 178.347656 251.675781 179.230469 251.085938 179.746094 C 250.425781 180.332031 248.808594 180.921875 247.851562 180.847656 C 247.042969 180.773438 246.308594 180.257812 245.792969 179.746094 C 245.28125 179.15625 244.839844 178.421875 244.765625 177.613281 C 244.765625 176.65625 245.28125 175.039062 246.089844 174.378906 C 246.824219 173.714844 248.441406 173.421875 249.398438 173.644531 C 250.425781 173.9375 251.160156 174.597656 251.894531 175.996094 C 254.101562 179.964844 256.378906 195.328125 257.1875 202.460938 C 257.703125 207.164062 257.484375 210.839844 257.554688 214.367188 C 257.554688 217.308594 257.703125 219.734375 257.410156 222.382812 C 257.042969 225.027344 256.527344 227.085938 255.644531 230.246094 C 254.25 235.171875 251.382812 241.347656 249.46875 248.84375 C 246.601562 259.871094 243.589844 285.308594 241.53125 290.378906 C 240.941406 291.628906 240.722656 292.070312 239.988281 292.585938 C 239.324219 293.027344 238.296875 293.246094 237.488281 293.171875 C 236.679688 293.097656 235.722656 292.585938 235.207031 291.996094 C 234.621094 291.335938 234.253906 289.496094 234.253906 289.496094 "/></clipPath><clipPath id="5012e29786"><path d="M 244.765625 173.519531 L 282.675781 173.519531 L 282.675781 231.316406 L 244.765625 231.316406 Z M 244.765625 173.519531 "/></clipPath><clipPath id="8111a28a1c"><path d="M 250.71875 174.304688 C 256.746094 180.039062 257.996094 181.730469 259.910156 184.597656 C 263.511719 190.109375 270.421875 202.019531 274.316406 209.515625 C 277.476562 215.398438 281.007812 222.601562 282.035156 225.617188 C 282.402344 226.71875 282.550781 227.160156 282.476562 227.894531 C 282.402344 228.628906 282.109375 229.511719 281.519531 230.027344 C 280.785156 230.6875 279.242188 231.277344 278.214844 231.128906 C 277.257812 230.980469 275.933594 229.878906 275.492188 228.996094 C 275.125 228.335938 275.125 227.378906 275.273438 226.71875 C 275.417969 225.984375 275.859375 225.101562 276.449219 224.660156 C 277.257812 224.144531 278.949219 223.777344 279.832031 223.925781 C 280.640625 224.070312 281.375 224.660156 281.816406 225.25 C 282.257812 225.910156 282.625 226.71875 282.550781 227.527344 C 282.476562 228.484375 281.667969 229.953125 280.859375 230.539062 C 280.269531 231.054688 279.390625 231.203125 278.652344 231.128906 C 277.917969 231.128906 277.257812 230.980469 276.449219 230.246094 C 274.316406 228.261719 271.742188 220.101562 268.65625 214.292969 C 264.761719 206.945312 258.070312 195.550781 254.6875 190.109375 C 252.851562 187.316406 251.894531 185.773438 250.277344 183.859375 C 248.734375 181.949219 245.792969 180.1875 245.058594 178.640625 C 244.691406 177.757812 244.691406 176.804688 244.984375 176.070312 C 245.207031 175.261719 245.867188 174.453125 246.601562 174.011719 C 247.265625 173.644531 248.441406 173.496094 249.175781 173.570312 C 249.765625 173.644531 250.71875 174.304688 250.71875 174.304688 "/></clipPath><clipPath id="72d0d5e857"><path d="M 73.21875 85.015625 L 182.503906 85.015625 L 182.503906 121 L 73.21875 121 Z M 73.21875 85.015625 "/></clipPath><clipPath id="0f1e38bf33"><path d="M 176.839844 102.925781 C 154.273438 93.441406 152.140625 97.707031 148.097656 100.277344 C 142.4375 103.808594 133.320312 108.953125 127.367188 112.039062 C 123.03125 114.246094 119.796875 116.082031 115.898438 117.40625 C 112.152344 118.730469 109.136719 119.464844 104.503906 120.054688 C 97.375 120.933594 81.128906 121.230469 77.085938 120.640625 C 75.910156 120.496094 75.46875 120.347656 74.878906 119.90625 C 74.292969 119.464844 73.703125 118.730469 73.558594 117.996094 C 73.335938 117.039062 73.703125 115.421875 74.21875 114.613281 C 74.734375 113.953125 75.46875 113.511719 76.277344 113.363281 C 77.160156 113.289062 78.851562 113.585938 79.585938 114.320312 C 80.320312 114.980469 80.835938 116.523438 80.6875 117.554688 C 80.539062 118.582031 79.585938 119.90625 78.628906 120.273438 C 77.746094 120.714844 76.058594 120.640625 75.175781 120.125 C 74.292969 119.613281 73.558594 118.140625 73.410156 117.1875 C 73.261719 116.453125 73.628906 115.570312 74 114.90625 C 74.441406 114.320312 74.808594 113.878906 75.835938 113.511719 C 79.660156 112.1875 96.714844 113.65625 103.917969 112.703125 C 108.546875 112.039062 110.753906 111.597656 115.164062 109.910156 C 122.589844 107.042969 136.1875 99.398438 143.394531 94.617188 C 148.320312 91.308594 151.554688 86.089844 155.226562 85.207031 C 157.800781 84.621094 159.640625 85.578125 162.507812 86.679688 C 167.429688 88.515625 179.046875 94.691406 181.398438 97.265625 C 182.207031 98.21875 182.425781 98.882812 182.425781 99.691406 C 182.5 100.5 182.132812 101.527344 181.617188 102.191406 C 181.105469 102.777344 180.148438 103.367188 179.339844 103.441406 C 178.53125 103.585938 176.839844 102.925781 176.839844 102.925781 "/></clipPath><clipPath id="cfbce9fc18"><path d="M 78.835938 103.867188 L 133.996094 103.867188 L 133.996094 169.488281 L 78.835938 169.488281 Z M 78.835938 103.867188 "/></clipPath><clipPath id="da5075aa85"><path d="M 80.246094 162.761719 C 100.09375 147.546875 123.691406 131.742188 128.25 130.199219 C 129.132812 129.902344 129.425781 129.902344 130.015625 130.050781 C 130.75 130.199219 131.777344 130.640625 132.292969 131.300781 C 132.808594 131.886719 133.101562 132.992188 133.175781 133.800781 C 133.175781 134.386719 133.027344 134.976562 132.660156 135.492188 C 132.292969 136.078125 131.925781 136.59375 130.675781 137.109375 C 125.75 139.386719 94.875 144.386719 89.363281 144.605469 C 87.964844 144.605469 87.449219 144.605469 86.789062 144.3125 C 86.203125 144.019531 85.761719 143.652344 85.464844 143.136719 C 85.023438 142.472656 84.730469 141.371094 84.804688 140.636719 C 84.878906 139.828125 85.246094 139.019531 85.980469 138.285156 C 87.449219 136.8125 91.199219 136.300781 94.359375 134.09375 C 99.875 130.199219 107.886719 120.054688 114.355469 114.761719 C 119.722656 110.421875 127.074219 104.46875 130.015625 103.953125 C 131.042969 103.808594 131.703125 104.175781 132.292969 104.617188 C 132.882812 104.984375 133.46875 105.71875 133.761719 106.453125 C 133.984375 107.117188 133.984375 108.070312 133.761719 108.804688 C 133.542969 109.46875 133.027344 110.277344 132.367188 110.644531 C 131.558594 111.160156 129.867188 111.453125 128.984375 111.085938 C 128.027344 110.71875 126.925781 109.46875 126.707031 108.511719 C 126.484375 107.484375 127 105.9375 127.589844 105.128906 C 128.027344 104.542969 128.910156 104.175781 129.648438 104.027344 C 130.382812 103.878906 131.265625 104.027344 131.925781 104.394531 C 132.585938 104.761719 133.25 105.425781 133.617188 106.085938 C 133.910156 106.746094 134.058594 107.703125 133.835938 108.4375 C 133.691406 109.101562 133.46875 109.613281 132.660156 110.421875 C 130.675781 112.628906 123.984375 116.230469 119.28125 120.273438 C 113.105469 125.417969 105.242188 135.195312 99.507812 139.3125 C 95.757812 141.960938 91.421875 144.089844 89.363281 144.605469 C 88.554688 144.753906 88.1875 144.753906 87.597656 144.605469 C 86.863281 144.386719 85.90625 143.871094 85.464844 143.136719 C 84.953125 142.328125 84.65625 140.710938 85.023438 139.753906 C 85.394531 138.796875 86.054688 138.136719 87.523438 137.476562 C 91.933594 135.34375 110.828125 133.800781 117.371094 132.328125 C 120.605469 131.59375 122.296875 130.710938 124.574219 130.269531 C 126.484375 129.976562 128.765625 129.832031 130.015625 130.050781 C 130.75 130.125 131.191406 130.269531 131.632812 130.710938 C 132.21875 131.152344 132.882812 132.109375 133.101562 132.917969 C 133.25 133.652344 133.394531 134.386719 132.660156 135.492188 C 129.71875 140.121094 101.269531 155.558594 92.890625 161.734375 C 88.773438 164.75 86.273438 168.128906 84.144531 168.9375 C 83.039062 169.378906 82.304688 169.378906 81.496094 169.160156 C 80.761719 168.9375 79.878906 168.277344 79.4375 167.613281 C 78.996094 166.878906 78.777344 165.851562 78.921875 165.042969 C 79.070312 164.234375 80.246094 162.761719 80.246094 162.761719 "/></clipPath><clipPath id="2fc9e45b58"><path d="M 190.769531 84.878906 L 299.542969 84.878906 L 299.542969 128.617188 L 190.769531 128.617188 Z M 190.769531 84.878906 "/></clipPath><clipPath id="8d5b31c152"><path d="M 192.058594 96.675781 C 201.835938 88.882812 203.894531 87.5625 206.320312 86.679688 C 208.746094 85.722656 211.832031 84.914062 214.109375 84.914062 C 215.875 84.839844 216.832031 85.0625 218.742188 85.796875 C 222.125 87.046875 227.417969 90.355469 232.414062 93.515625 C 238.957031 97.78125 247.707031 105.570312 254.394531 109.46875 C 259.394531 112.335938 262.996094 114.023438 268.363281 115.714844 C 275.125 117.773438 286.59375 117.699219 292.105469 119.832031 C 295.414062 121.082031 298.871094 122.847656 299.382812 124.464844 C 299.75 125.566406 298.941406 127.035156 298.132812 127.699219 C 297.398438 128.359375 295.78125 128.726562 294.828125 128.507812 C 293.796875 128.214844 292.621094 127.109375 292.328125 126.15625 C 291.960938 125.199219 292.253906 123.507812 292.84375 122.699219 C 293.429688 121.890625 294.972656 121.304688 295.929688 121.230469 C 296.738281 121.230469 297.546875 121.523438 298.132812 122.113281 C 298.796875 122.773438 299.457031 124.316406 299.457031 125.273438 C 299.382812 126.082031 299.015625 126.890625 298.429688 127.40625 C 297.765625 128.066406 296.148438 128.652344 295.195312 128.582031 C 294.386719 128.507812 293.652344 127.992188 293.136719 127.476562 C 292.621094 126.964844 292.621094 125.492188 292.105469 125.347656 C 291.519531 125.125 290.710938 126.523438 289.605469 126.742188 C 287.769531 127.035156 284.902344 126.300781 281.886719 125.859375 C 277.625 125.199219 270.789062 124.023438 266.597656 122.847656 C 263.65625 122.039062 261.746094 121.304688 259.101562 120.125 C 255.867188 118.65625 252.632812 116.964844 248.734375 114.464844 C 243.148438 111.011719 235.28125 104.394531 229.328125 100.351562 C 224.550781 97.117188 219.992188 92.558594 215.949219 91.898438 C 213.007812 91.382812 210.65625 92.558594 207.714844 93.882812 C 203.894531 95.722656 198.011719 102.335938 195.292969 103.070312 C 194.191406 103.292969 193.453125 103.070312 192.71875 102.703125 C 191.984375 102.335938 191.324219 101.382812 191.027344 100.71875 C 190.808594 100.132812 190.734375 99.542969 190.808594 98.957031 C 190.953125 98.21875 192.058594 96.675781 192.058594 96.675781 "/></clipPath><clipPath id="ca32f659b0"><path d="M 230.640625 94.460938 L 296.308594 94.460938 L 296.308594 169.867188 L 230.640625 169.867188 Z M 230.640625 94.460938 "/></clipPath><clipPath id="06cd02c340"><path d="M 290.488281 169.304688 C 252.117188 141.886719 246.601562 140.5625 243.734375 137.695312 C 241.898438 135.859375 240.132812 133.285156 240.355469 131.816406 C 240.5 130.640625 241.898438 129.460938 243.222656 129.09375 C 245.132812 128.652344 247.925781 130.492188 251.015625 131.007812 C 255.425781 131.667969 261.820312 131.59375 267.1875 132.183594 C 272.625 132.84375 279.460938 134.019531 283.507812 134.828125 C 285.859375 135.269531 287.769531 135.269531 289.09375 136.152344 C 290.046875 136.8125 290.929688 137.917969 291.152344 138.871094 C 291.296875 139.902344 290.785156 141.445312 290.046875 142.105469 C 289.3125 142.84375 288.210938 143.210938 286.8125 143.136719 C 283.726562 142.769531 277.699219 138.871094 272.699219 135.710938 C 266.671875 131.960938 257.996094 124.980469 253.441406 121.375 C 250.792969 119.390625 249.765625 118.730469 247.410156 116.523438 C 243.222656 112.777344 233.152344 103.367188 231.386719 100.277344 C 230.796875 99.324219 230.726562 98.734375 230.796875 98 C 230.796875 97.265625 231.164062 96.382812 231.679688 95.867188 C 232.121094 95.28125 232.929688 94.839844 233.664062 94.617188 C 234.398438 94.472656 235.355469 94.542969 236.015625 94.914062 C 236.824219 95.425781 237.855469 96.75 238.074219 97.707031 C 238.296875 98.441406 238.074219 99.324219 237.707031 99.984375 C 237.195312 100.792969 235.722656 101.75 234.839844 101.894531 C 234.03125 102.042969 233.152344 101.75 232.5625 101.382812 C 231.902344 101.015625 231.3125 100.277344 231.019531 99.617188 C 230.726562 98.882812 230.652344 98 230.945312 97.265625 C 231.238281 96.382812 232.414062 95.132812 233.296875 94.765625 C 234.03125 94.472656 234.546875 94.324219 235.648438 94.765625 C 239.546875 96.308594 251.527344 110.277344 259.101562 116.523438 C 265.570312 121.890625 272.113281 126.742188 277.84375 130.417969 C 282.328125 133.285156 288.871094 135.5625 290.414062 137.253906 C 291.003906 137.84375 291.078125 138.285156 291.152344 138.871094 C 291.222656 139.605469 291.152344 140.785156 290.636719 141.445312 C 290.046875 142.253906 289.167969 142.914062 287.695312 143.136719 C 284.09375 143.796875 274.832031 140.5625 268.289062 139.753906 C 261.820312 138.871094 252.261719 139.460938 248.660156 137.988281 C 247.042969 137.328125 246.015625 136.59375 245.648438 135.492188 C 245.28125 134.316406 245.648438 131.449219 246.75 130.933594 C 248.808594 130.050781 255.203125 135.195312 260.789062 138.726562 C 269.6875 144.386719 290.269531 158.574219 294.3125 162.984375 C 295.488281 164.234375 296.003906 164.96875 296.078125 165.925781 C 296.222656 166.734375 295.78125 167.761719 295.339844 168.421875 C 294.828125 169.011719 293.871094 169.601562 293.0625 169.746094 C 292.253906 169.894531 290.488281 169.304688 290.488281 169.304688 "/></clipPath><clipPath id="70761a2f3e"><path d="M 105.4375 56.222656 L 185.351562 56.222656 L 185.351562 90.96875 L 105.4375 90.96875 Z M 105.4375 56.222656 "/></clipPath><clipPath id="015e71676e"><path d="M 178.605469 89.253906 C 166.035156 72.199219 164.417969 70.949219 162.285156 69.402344 C 160.226562 67.859375 158.167969 66.167969 155.523438 65.214844 C 152.289062 64.109375 147.511719 63.890625 143.980469 63.671875 C 141.1875 63.523438 139.570312 63.375 136.1875 63.816406 C 129.941406 64.625 113.839844 70.582031 109.355469 70.066406 C 107.738281 69.917969 106.859375 69.402344 106.269531 68.59375 C 105.609375 67.785156 105.386719 66.167969 105.753906 65.214844 C 106.050781 64.257812 107.300781 63.082031 108.253906 62.863281 C 109.210938 62.566406 110.828125 62.933594 111.636719 63.597656 C 112.371094 64.257812 112.960938 65.800781 112.8125 66.832031 C 112.738281 67.859375 111.785156 69.183594 110.902344 69.625 C 110.019531 70.140625 108.328125 70.140625 107.445312 69.625 C 106.5625 69.109375 105.683594 67.714844 105.535156 66.757812 C 105.386719 65.949219 105.683594 65.066406 106.050781 64.480469 C 106.492188 63.816406 106.859375 63.523438 107.886719 62.933594 C 111.34375 61.246094 126.191406 57.789062 132.953125 56.832031 C 137.511719 56.171875 140.601562 56.246094 144.421875 56.320312 C 148.171875 56.464844 153.023438 56.90625 155.667969 57.570312 C 157.285156 57.9375 157.875 58.230469 159.34375 58.964844 C 161.84375 60.289062 165.8125 62.566406 168.828125 65.214844 C 172.429688 68.300781 176.398438 72.933594 179.191406 76.609375 C 181.472656 79.621094 183.898438 83.222656 184.78125 85.28125 C 185.222656 86.3125 185.441406 87.046875 185.292969 87.855469 C 185.222656 88.664062 184.558594 89.621094 184.046875 90.132812 C 183.605469 90.5 183.015625 90.796875 182.425781 90.871094 C 181.691406 90.941406 180.515625 90.796875 179.855469 90.429688 C 179.339844 90.207031 178.605469 89.253906 178.605469 89.253906 "/></clipPath><clipPath id="f0dc4fa664"><path d="M 105.5 40 L 191.453125 40 L 191.453125 70.164062 L 105.5 70.164062 Z M 105.5 40 "/></clipPath><clipPath id="67f26d1a78"><path d="M 106.050781 64.480469 C 110.753906 58.007812 112.738281 56.246094 115.019531 54.554688 C 117.8125 52.496094 121.855469 50.144531 124.867188 48.527344 C 127.292969 47.203125 128.984375 46.394531 131.777344 45.367188 C 135.746094 43.96875 142.070312 42.351562 146.921875 41.542969 C 151.257812 40.808594 155.007812 40.585938 159.417969 40.441406 C 164.195312 40.292969 169.710938 39.484375 174.488281 40.660156 C 179.339844 41.910156 185.664062 45.878906 188.308594 47.792969 C 189.632812 48.671875 190.441406 49.1875 190.882812 50.21875 C 191.324219 51.171875 191.394531 52.71875 190.953125 53.671875 C 190.515625 54.554688 189.191406 55.511719 188.160156 55.65625 C 187.207031 55.804688 185.589844 55.214844 184.925781 54.480469 C 184.265625 53.671875 183.972656 52.054688 184.117188 51.097656 C 184.265625 50.363281 184.78125 49.628906 185.367188 49.113281 C 185.957031 48.671875 186.765625 48.304688 187.574219 48.304688 C 188.527344 48.378906 190.074219 49.113281 190.660156 49.851562 C 191.175781 50.4375 191.46875 51.320312 191.324219 52.128906 C 191.25 53.085938 190.441406 54.554688 189.632812 55.144531 C 189.042969 55.582031 188.382812 55.804688 187.351562 55.65625 C 185.367188 55.363281 181.398438 51.761719 178.457031 50.363281 C 175.886719 49.1875 174.121094 48.234375 170.738281 47.792969 C 165.152344 46.984375 153.980469 47.9375 147.65625 48.894531 C 143.027344 49.554688 139.203125 50.660156 135.820312 51.835938 C 133.027344 52.71875 131.117188 53.527344 128.542969 54.921875 C 125.382812 56.539062 121.414062 58.816406 118.398438 61.316406 C 115.3125 63.816406 112.371094 69.109375 110.238281 69.917969 C 109.210938 70.285156 108.328125 69.992188 107.667969 69.699219 C 107.078125 69.476562 106.636719 69.109375 106.269531 68.59375 C 105.828125 68.007812 105.535156 66.832031 105.535156 66.097656 C 105.535156 65.507812 106.050781 64.480469 106.050781 64.480469 "/></clipPath><clipPath id="0ea6f2dcd9"><path d="M 184 42.277344 L 270.425781 42.277344 L 270.425781 67.59375 L 184 67.59375 Z M 184 42.277344 "/></clipPath><clipPath id="d21090e2ac"><path d="M 186.691406 48.453125 C 202.644531 44.191406 203.964844 43.96875 207.421875 43.75 C 214.332031 43.160156 229.988281 41.394531 238.8125 43.085938 C 245.722656 44.410156 252.335938 48.234375 256.601562 50.585938 C 259.320312 52.054688 260.789062 52.9375 262.777344 54.773438 C 265.273438 56.90625 269.539062 60.949219 270.199219 63.007812 C 270.496094 63.890625 270.273438 64.625 269.980469 65.359375 C 269.613281 66.023438 269.023438 66.683594 268.363281 67.050781 C 267.699219 67.417969 266.746094 67.566406 266.011719 67.417969 C 265.273438 67.34375 264.464844 66.90625 263.953125 66.316406 C 263.4375 65.800781 262.996094 64.992188 262.996094 64.183594 C 262.921875 63.230469 263.4375 61.683594 264.246094 61.023438 C 264.980469 60.363281 266.597656 59.996094 267.554688 60.289062 C 268.582031 60.507812 269.6875 61.757812 270.125 62.640625 C 270.421875 63.300781 270.421875 64.257812 270.125 64.992188 C 269.757812 65.800781 268.582031 67.050781 267.628906 67.34375 C 266.671875 67.640625 265.496094 67.273438 264.246094 66.609375 C 261.820312 65.359375 259.171875 60.65625 255.496094 58.230469 C 250.71875 55.070312 244.542969 51.6875 237.488281 50.363281 C 228.667969 48.671875 215.066406 49.996094 206.097656 51.246094 C 199.113281 52.128906 191.101562 55.804688 187.792969 55.65625 C 186.617188 55.65625 185.957031 55.363281 185.367188 54.847656 C 184.707031 54.335938 184.191406 53.378906 184.046875 52.570312 C 183.898438 51.761719 184.117188 50.730469 184.558594 49.996094 C 185 49.335938 186.691406 48.453125 186.691406 48.453125 "/></clipPath><clipPath id="81f1aaa440"><path d="M 189.742188 55.617188 L 270.398438 55.617188 L 270.398438 89.136719 L 189.742188 89.136719 Z M 189.742188 55.617188 "/></clipPath><clipPath id="536eaa5e18"><path d="M 266.378906 67.492188 C 258.511719 66.609375 256.234375 65.289062 253.144531 64.625 C 248.957031 63.816406 242.488281 63.300781 237.78125 63.082031 C 233.738281 62.933594 229.476562 62.863281 226.609375 63.15625 C 224.769531 63.375 224.035156 63.523438 222.199219 64.183594 C 218.742188 65.507812 211.832031 68.960938 208.082031 72.050781 C 204.847656 74.695312 202.421875 78.371094 200.4375 81.164062 C 198.820312 83.371094 197.9375 86.089844 196.542969 87.414062 C 195.585938 88.296875 194.558594 89.03125 193.527344 89.03125 C 192.5 89.03125 191.027344 88.296875 190.441406 87.488281 C 189.851562 86.605469 189.707031 84.988281 190.074219 84.03125 C 190.441406 83.078125 191.617188 81.972656 192.644531 81.753906 C 193.601562 81.535156 195.21875 81.972656 195.953125 82.636719 C 196.6875 83.371094 197.203125 84.988281 197.128906 85.871094 C 197.054688 86.679688 196.542969 87.488281 196.027344 88.003906 C 195.511719 88.515625 194.703125 88.957031 193.894531 89.03125 C 192.941406 89.03125 191.394531 88.515625 190.734375 87.78125 C 190 86.972656 189.632812 85.871094 189.925781 84.398438 C 190.515625 81.3125 195.953125 74.328125 199.261719 70.582031 C 202.054688 67.492188 204.996094 65.289062 208.15625 63.15625 C 211.390625 61.023438 215.800781 58.890625 218.449219 57.789062 C 220.066406 57.128906 220.726562 56.832031 222.566406 56.539062 C 225.945312 55.953125 232.34375 55.65625 237.339844 55.804688 C 242.632812 55.878906 248.21875 56.464844 253.367188 57.273438 C 258.292969 58.007812 265.128906 59.113281 267.699219 60.289062 C 268.804688 60.804688 269.316406 61.171875 269.757812 61.90625 C 270.199219 62.566406 270.347656 63.671875 270.199219 64.480469 C 270.054688 65.289062 269.539062 66.167969 268.878906 66.683594 C 268.214844 67.199219 266.378906 67.492188 266.378906 67.492188 "/></clipPath></defs><g id="14135d3102"><g clip-rule="nonzero" clip-path="url(#3d957e19f2)"><g clip-rule="nonzero" clip-path="url(#4896cd8795)"><path style=" stroke:none;fill-rule:nonzero;fill:currentColor;fill-opacity:1;" d="M 122.957031 142.695312 L 153.464844 142.695312 L 153.464844 189.765625 L 122.957031 189.765625 Z M 122.957031 142.695312 "/></g></g><g clip-rule="nonzero" clip-path="url(#decab6238b)"><g clip-rule="nonzero" clip-path="url(#e0989e85dd)"><path style=" stroke:none;fill-rule:nonzero;fill:currentColor;fill-opacity:1;" d="M 140.304688 176.582031 L 192.132812 176.582031 L 192.132812 221.867188 L 140.304688 221.867188 Z M 140.304688 176.582031 "/></g></g><g clip-rule="nonzero" clip-path="url(#13dadef749)"><g clip-rule="nonzero" clip-path="url(#831b7bfbea)"><path style=" stroke:none;fill-rule:nonzero;fill:currentColor;fill-opacity:1;" d="M 178.824219 175.628906 L 231.34375 175.628906 L 231.34375 222.96875 L 178.824219 222.96875 Z M 178.824219 175.628906 "/></g></g><g clip-rule="nonzero" clip-path="url(#d6ac20d15f)"><g clip-rule="nonzero" clip-path="url(#2a607bfba5)"><path style=" stroke:none;fill-rule:nonzero;fill:currentColor;fill-opacity:1;" d="M 199.554688 126.742188 L 233.8125 126.742188 L 233.8125 192.445312 L 199.554688 192.445312 Z M 199.554688 126.742188 "/></g></g><g clip-rule="nonzero" clip-path="url(#ff3943a2c1)"><g clip-rule="nonzero" clip-path="url(#62cbb400a0)"><path style=" stroke:none;fill-rule:nonzero;fill:currentColor;fill-opacity:1;" d="M 219.332031 141.222656 L 249.691406 141.222656 L 249.691406 190.679688 L 219.332031 190.679688 Z M 219.332031 141.222656 "/></g></g><g clip-rule="nonzero" clip-path="url(#43fc41b148)"><g clip-rule="nonzero" clip-path="url(#ee6e701d7a)"><path style=" stroke:none;fill-rule:nonzero;fill:currentColor;fill-opacity:1;" d="M 139.570312 125.566406 L 173.902344 125.566406 L 173.902344 189.128906 L 139.570312 189.128906 Z M 139.570312 125.566406 "/></g></g><g clip-rule="nonzero" clip-path="url(#922284cd03)"><g clip-rule="nonzero" clip-path="url(#c5e53d2cab)"><path style=" stroke:none;fill-rule:nonzero;fill:currentColor;fill-opacity:1;" d="M 159.273438 170.703125 L 212.847656 170.703125 L 212.847656 201.945312 L 159.273438 201.945312 Z M 159.273438 170.703125 "/></g></g><g clip-rule="nonzero" clip-path="url(#7280d91c4a)"><g clip-rule="nonzero" clip-path="url(#fec511711f)"><path style=" stroke:none;fill-rule:nonzero;fill:currentColor;fill-opacity:1;" d="M 157.433594 209.664062 L 215.8125 209.664062 L 215.8125 244.582031 L 157.433594 244.582031 Z M 157.433594 209.664062 "/></g></g><g clip-rule="nonzero" clip-path="url(#45c8321a4d)"><g clip-rule="nonzero" clip-path="url(#24309941e1)"><path style=" stroke:none;fill-rule:nonzero;fill:currentColor;fill-opacity:1;" d="M 117.664062 69.992188 L 156.035156 69.992188 L 156.035156 110.613281 L 117.664062 110.613281 Z M 117.664062 69.992188 "/></g></g><g clip-rule="nonzero" clip-path="url(#74143878db)"><g clip-rule="nonzero" clip-path="url(#bba5a2de8c)"><path style=" stroke:none;fill-rule:nonzero;fill:currentColor;fill-opacity:1;" d="M 217.125 69.699219 L 256.453125 69.699219 L 256.453125 112.714844 L 217.125 112.714844 Z M 217.125 69.699219 "/></g></g><g clip-rule="nonzero" clip-path="url(#1e9df778e6)"><g clip-rule="nonzero" clip-path="url(#ba7bce4a89)"><path style=" stroke:none;fill-rule:nonzero;fill:currentColor;fill-opacity:1;" d="M 59.296875 77.195312 L 116.339844 77.195312 L 116.339844 130.492188 L 59.296875 130.492188 Z M 59.296875 77.195312 "/></g></g><g clip-rule="nonzero" clip-path="url(#b247992d07)"><g clip-rule="nonzero" clip-path="url(#134c0dffbf)"><path style=" stroke:none;fill-rule:nonzero;fill:currentColor;fill-opacity:1;" d="M 59.8125 117.40625 L 93.332031 117.40625 L 93.332031 174.496094 L 59.8125 174.496094 Z M 59.8125 117.40625 "/></g></g><g clip-rule="nonzero" clip-path="url(#81d260fb55)"><g clip-rule="nonzero" clip-path="url(#c7d331829a)"><path style=" stroke:none;fill-rule:nonzero;fill:currentColor;fill-opacity:1;" d="M 58.78125 158.351562 L 93.550781 158.351562 L 93.550781 210.78125 L 58.78125 210.78125 Z M 58.78125 158.351562 "/></g></g><g clip-rule="nonzero" clip-path="url(#9a98ca5544)"><g clip-rule="nonzero" clip-path="url(#6a7fa328f9)"><path style=" stroke:none;fill-rule:nonzero;fill:currentColor;fill-opacity:1;" d="M 80.320312 184.523438 L 142.65625 184.523438 L 142.65625 292.882812 L 80.320312 292.882812 Z M 80.320312 184.523438 "/></g></g><g clip-rule="nonzero" clip-path="url(#27b2ed3e50)"><g clip-rule="nonzero" clip-path="url(#9f3a7dc34a)"><path style=" stroke:none;fill-rule:nonzero;fill:currentColor;fill-opacity:1;" d="M 117.074219 237.746094 L 142.65625 237.746094 L 142.65625 292.707031 L 117.074219 292.707031 Z M 117.074219 237.746094 "/></g></g><g clip-rule="nonzero" clip-path="url(#bcdfe61c7f)"><g clip-rule="nonzero" clip-path="url(#1a60f6571c)"><path style=" stroke:none;fill-rule:nonzero;fill:currentColor;fill-opacity:1;" d="M 117.148438 237.597656 L 130.738281 237.597656 L 130.738281 250.976562 L 117.148438 250.976562 Z M 117.148438 237.597656 "/></g></g><g clip-rule="nonzero" clip-path="url(#bbf4dfa927)"><g clip-rule="nonzero" clip-path="url(#ceb4d61815)"><path style=" stroke:none;fill-rule:nonzero;fill:currentColor;fill-opacity:1;" d="M 113.988281 173.789062 L 130.96875 173.789062 L 130.96875 250.800781 L 113.988281 250.800781 Z M 113.988281 173.789062 "/></g></g><g clip-rule="nonzero" clip-path="url(#2d35342a8c)"><g clip-rule="nonzero" clip-path="url(#fb8943e5e1)"><path style=" stroke:none;fill-rule:nonzero;fill:currentColor;fill-opacity:1;" d="M 138.320312 235.023438 L 175.738281 235.023438 L 175.738281 320.675781 L 138.320312 320.675781 Z M 138.320312 235.023438 "/></g></g><g clip-rule="nonzero" clip-path="url(#1c63a6b1b4)"><g clip-rule="nonzero" clip-path="url(#c717a3f28b)"><path style=" stroke:none;fill-rule:nonzero;fill:currentColor;fill-opacity:1;" d="M 162.578125 292.363281 L 212.652344 292.363281 L 212.652344 337.5 L 162.578125 337.5 Z M 162.578125 292.363281 "/></g></g><g clip-rule="nonzero" clip-path="url(#cd615f726f)"><g clip-rule="nonzero" clip-path="url(#8010e61cde)"><path style=" stroke:none;fill-rule:nonzero;fill:currentColor;fill-opacity:1;" d="M 199.851562 225.6875 L 237.707031 225.6875 L 237.707031 315.75 L 199.851562 315.75 Z M 199.851562 225.6875 "/></g></g><g clip-rule="nonzero" clip-path="url(#00a23bd24a)"><g clip-rule="nonzero" clip-path="url(#466a28677c)"><path style=" stroke:none;fill-rule:nonzero;fill:currentColor;fill-opacity:1;" d="M 138.542969 225.6875 L 169.195312 225.6875 L 169.195312 285.5625 L 138.542969 285.5625 Z M 138.542969 225.6875 "/></g></g><g clip-rule="nonzero" clip-path="url(#1d87f04760)"><g clip-rule="nonzero" clip-path="url(#32cbebb24e)"><path style=" stroke:none;fill-rule:nonzero;fill:currentColor;fill-opacity:1;" d="M 156.183594 261.34375 L 194.484375 261.34375 L 194.484375 302.933594 L 156.183594 302.933594 Z M 156.183594 261.34375 "/></g></g><g clip-rule="nonzero" clip-path="url(#d81376b8b0)"><g clip-rule="nonzero" clip-path="url(#d927917ab8)"><path style=" stroke:none;fill-rule:nonzero;fill:currentColor;fill-opacity:1;" d="M 181.398438 260.679688 L 217.417969 260.679688 L 217.417969 302.890625 L 181.398438 302.890625 Z M 181.398438 260.679688 "/></g></g><g clip-rule="nonzero" clip-path="url(#0a4ae245e0)"><g clip-rule="nonzero" clip-path="url(#c202a3b2a0)"><path style=" stroke:none;fill-rule:nonzero;fill:currentColor;fill-opacity:1;" d="M 204.335938 227.96875 L 230.429688 227.96875 L 230.429688 285.972656 L 204.335938 285.972656 Z M 204.335938 227.96875 "/></g></g><g clip-rule="nonzero" clip-path="url(#b99de9bf9c)"><g clip-rule="nonzero" clip-path="url(#1a914bd981)"><path style=" stroke:none;fill-rule:nonzero;fill:currentColor;fill-opacity:1;" d="M 88.332031 170.261719 L 130.382812 170.261719 L 130.382812 236.125 L 88.332031 236.125 Z M 88.332031 170.261719 "/></g></g><g clip-rule="nonzero" clip-path="url(#c252ea040e)"><g clip-rule="nonzero" clip-path="url(#c11b596737)"><path style=" stroke:none;fill-rule:nonzero;fill:currentColor;fill-opacity:1;" d="M 253.441406 74.328125 L 315.972656 74.328125 L 315.972656 135.195312 L 253.441406 135.195312 Z M 253.441406 74.328125 "/></g></g><g clip-rule="nonzero" clip-path="url(#def8cf8560)"><g clip-rule="nonzero" clip-path="url(#05c5802c95)"><path style=" stroke:none;fill-rule:nonzero;fill:currentColor;fill-opacity:1;" d="M 286.226562 121.082031 L 316.21875 121.082031 L 316.21875 176.03125 L 286.226562 176.03125 Z M 286.226562 121.082031 "/></g></g><g clip-rule="nonzero" clip-path="url(#3bca0d593f)"><g clip-rule="nonzero" clip-path="url(#29253e03fe)"><path style=" stroke:none;fill-rule:nonzero;fill:currentColor;fill-opacity:1;" d="M 277.035156 159.015625 L 316.21875 159.015625 L 316.21875 214.726562 L 277.035156 214.726562 Z M 277.035156 159.015625 "/></g></g><g clip-rule="nonzero" clip-path="url(#16eb5ca964)"><g clip-rule="nonzero" clip-path="url(#36c9af8822)"><path style=" stroke:none;fill-rule:nonzero;fill:currentColor;fill-opacity:1;" d="M 232.929688 183.859375 L 290.636719 183.859375 L 290.636719 294.089844 L 232.929688 294.089844 Z M 232.929688 183.859375 "/></g></g><g clip-rule="nonzero" clip-path="url(#dc96097a8d)"><g clip-rule="nonzero" clip-path="url(#7bbb25588c)"><path style=" stroke:none;fill-rule:nonzero;fill:currentColor;fill-opacity:1;" d="M 231.3125 170.554688 L 260.496094 170.554688 L 260.496094 296.070312 L 231.3125 296.070312 Z M 231.3125 170.554688 "/></g></g><g clip-rule="nonzero" clip-path="url(#5012e29786)"><g clip-rule="nonzero" clip-path="url(#8111a28a1c)"><path style=" stroke:none;fill-rule:nonzero;fill:currentColor;fill-opacity:1;" d="M 242.046875 170.628906 L 285.5625 170.628906 L 285.5625 234.207031 L 242.046875 234.207031 Z M 242.046875 170.628906 "/></g></g><g clip-rule="nonzero" clip-path="url(#72d0d5e857)"><g clip-rule="nonzero" clip-path="url(#0f1e38bf33)"><path style=" stroke:none;fill-rule:nonzero;fill:currentColor;fill-opacity:1;" d="M 70.46875 82.269531 L 185.414062 82.269531 L 185.414062 123.65625 L 70.46875 123.65625 Z M 70.46875 82.269531 "/></g></g><g clip-rule="nonzero" clip-path="url(#cfbce9fc18)"><g clip-rule="nonzero" clip-path="url(#da5075aa85)"><path style=" stroke:none;fill-rule:nonzero;fill:currentColor;fill-opacity:1;" d="M 75.984375 101.015625 L 136.851562 101.015625 L 136.851562 172.105469 L 75.984375 172.105469 Z M 75.984375 101.015625 "/></g></g><g clip-rule="nonzero" clip-path="url(#2fc9e45b58)"><g clip-rule="nonzero" clip-path="url(#8d5b31c152)"><path style=" stroke:none;fill-rule:nonzero;fill:currentColor;fill-opacity:1;" d="M 187.867188 81.972656 L 302.445312 81.972656 L 302.445312 131.519531 L 187.867188 131.519531 Z M 187.867188 81.972656 "/></g></g><g clip-rule="nonzero" clip-path="url(#ca32f659b0)"><g clip-rule="nonzero" clip-path="url(#06cd02c340)"><path style=" stroke:none;fill-rule:nonzero;fill:currentColor;fill-opacity:1;" d="M 227.859375 91.679688 L 299.089844 91.679688 L 299.089844 172.648438 L 227.859375 172.648438 Z M 227.859375 91.679688 "/></g></g><g clip-rule="nonzero" clip-path="url(#70761a2f3e)"><g clip-rule="nonzero" clip-path="url(#015e71676e)"><path style=" stroke:none;fill-rule:nonzero;fill:currentColor;fill-opacity:1;" d="M 102.59375 53.378906 L 188.351562 53.378906 L 188.351562 93.808594 L 102.59375 93.808594 Z M 102.59375 53.378906 "/></g></g><g clip-rule="nonzero" clip-path="url(#f0dc4fa664)"><g clip-rule="nonzero" clip-path="url(#67f26d1a78)"><path style=" stroke:none;fill-rule:nonzero;fill:currentColor;fill-opacity:1;" d="M 102.59375 37.5 L 194.359375 37.5 L 194.359375 72.933594 L 102.59375 72.933594 Z M 102.59375 37.5 "/></g></g><g clip-rule="nonzero" clip-path="url(#0ea6f2dcd9)"><g clip-rule="nonzero" clip-path="url(#d21090e2ac)"><path style=" stroke:none;fill-rule:nonzero;fill:currentColor;fill-opacity:1;" d="M 181.105469 40.144531 L 273.148438 40.144531 L 273.148438 70.433594 L 181.105469 70.433594 Z M 181.105469 40.144531 "/></g></g><g clip-rule="nonzero" clip-path="url(#81f1aaa440)"><g clip-rule="nonzero" clip-path="url(#536eaa5e18)"><path style=" stroke:none;fill-rule:nonzero;fill:currentColor;fill-opacity:1;" d="M 186.984375 52.863281 L 273.152344 52.863281 L 273.152344 92.046875 L 186.984375 92.046875 Z M 186.984375 52.863281 "/></g></g></g></svg>