<svg xmlns="http://www.w3.org/2000/svg" xmlns:xlink="http://www.w3.org/1999/xlink" width="500" zoomAndPan="magnify" viewBox="0 0 375 374.999991" height="500" preserveAspectRatio="xMidYMid meet" version="1.2"><defs><clipPath id="3fbf529fb1"><path d="M 114.03125 109.621094 L 170.519531 109.621094 L 170.519531 173.351562 L 114.03125 173.351562 Z M 114.03125 109.621094 "/></clipPath><clipPath id="6d6bdefb72"><path d="M 164.625 123.449219 C 153.449219 117.824219 150.675781 117.601562 147.976562 117.375 C 145.351562 117.226562 142.949219 117 140.25 117.601562 C 136.875 118.351562 132.300781 120.226562 129.375 122.175781 C 126.976562 123.824219 124.648438 126.074219 123.449219 127.875 C 122.625 129.074219 122.324219 129.824219 122.023438 131.398438 C 121.5 134.25 121.199219 140.175781 121.875 143.699219 C 122.398438 146.476562 123.523438 148.5 125.023438 151.050781 C 126.824219 154.125 130.273438 158.625 132.226562 160.726562 C 133.351562 161.925781 133.875 162.523438 135.226562 163.199219 C 137.023438 164.175781 140.101562 165.074219 142.726562 165.375 C 145.351562 165.675781 148.273438 165.375 150.898438 164.925781 C 153.375 164.476562 156.375 162.375 158.101562 162.75 C 159.300781 162.976562 160.351562 164.175781 160.800781 165.074219 C 161.175781 165.75 161.175781 166.726562 160.875 167.476562 C 160.574219 168.375 159.375 169.574219 158.476562 169.949219 C 157.726562 170.25 156.75 170.175781 156.074219 169.949219 C 155.324219 169.726562 154.574219 169.125 154.199219 168.449219 C 153.75 167.851562 153.449219 166.949219 153.523438 166.199219 C 153.675781 165.226562 154.5 163.726562 155.398438 163.199219 C 156.300781 162.675781 157.949219 162.601562 158.925781 163.050781 C 159.824219 163.425781 160.875 164.773438 161.023438 165.824219 C 161.175781 166.875 160.726562 168.226562 159.824219 169.125 C 158.398438 170.699219 154.125 172.050781 151.273438 172.648438 C 148.5 173.25 145.875 173.25 142.875 172.875 C 139.351562 172.425781 134.175781 170.925781 131.699219 169.726562 C 130.273438 169.050781 129.675781 168.523438 128.550781 167.476562 C 126.898438 166.050781 124.875 163.5 123.226562 161.398438 C 121.574219 159.375 120 157.273438 118.648438 155.023438 C 117.300781 152.773438 115.800781 149.925781 115.125 147.824219 C 114.601562 146.324219 114.523438 145.648438 114.375 143.851562 C 114.074219 140.324219 114 131.550781 114.75 128.175781 C 115.199219 126.449219 115.648438 125.773438 116.550781 124.425781 C 117.75 122.625 120 120.375 121.949219 118.648438 C 123.824219 116.925781 125.851562 115.425781 128.101562 114.226562 C 130.5 112.875 133.199219 111.75 135.898438 111 C 138.523438 110.25 140.925781 109.726562 144.074219 109.726562 C 148.5 109.726562 155.699219 110.773438 159.976562 112.199219 C 163.050781 113.25 165.824219 115.125 167.625 116.398438 C 168.75 117.148438 169.726562 117.675781 170.101562 118.648438 C 170.550781 119.625 170.550781 121.199219 170.101562 122.101562 C 169.574219 123.074219 168.148438 123.898438 167.175781 124.050781 C 166.351562 124.199219 164.625 123.449219 164.625 123.449219 "/></clipPath><clipPath id="376faf1ca3"><path d="M 90.449219 137.300781 L 127.660156 137.300781 L 127.660156 198.429688 L 90.449219 198.429688 Z M 90.449219 137.300781 "/></clipPath><clipPath id="78d0a57cd5"><path d="M 115.5 144.824219 C 105.148438 150 103.199219 151.875 101.851562 153.976562 C 100.425781 156.148438 99.375 158.476562 98.773438 161.25 C 98.101562 164.550781 98.324219 169.800781 98.550781 172.648438 C 98.699219 174.449219 98.851562 175.5 99.375 176.773438 C 99.824219 178.050781 100.425781 179.101562 101.324219 180.375 C 102.675781 182.175781 104.773438 184.648438 106.875 186.300781 C 108.976562 187.875 111.074219 189.300781 113.851562 190.199219 C 117.226562 191.25 124.125 189.976562 126.148438 191.398438 C 127.273438 192.148438 127.648438 193.574219 127.648438 194.550781 C 127.648438 195.375 127.273438 196.199219 126.75 196.800781 C 126.300781 197.398438 125.476562 197.851562 124.726562 198 C 123.976562 198.226562 123 198.148438 122.324219 197.773438 C 121.5 197.324219 120.375 195.976562 120.226562 195 C 120 193.949219 120.601562 192.375 121.351562 191.625 C 122.101562 190.949219 123.75 190.574219 124.726562 190.726562 C 125.476562 190.800781 126.300781 191.324219 126.75 191.925781 C 127.273438 192.523438 127.574219 193.425781 127.648438 194.175781 C 127.648438 194.925781 127.5 195.824219 126.976562 196.5 C 126.375 197.25 125.324219 197.773438 123.898438 198.148438 C 121.351562 198.675781 115.351562 197.925781 112.574219 197.476562 C 111 197.175781 110.25 197.023438 108.898438 196.351562 C 106.875 195.523438 104.25 194.023438 102 192.148438 C 99.300781 189.75 95.925781 185.925781 94.125 182.925781 C 92.625 180.449219 91.648438 178.574219 91.125 175.574219 C 90.375 171.375 90.375 164.25 91.5 159.449219 C 92.476562 155.25 94.273438 151.351562 96.675781 148.199219 C 99.074219 145.125 102.601562 142.5 105.675781 140.625 C 108.375 139.050781 111.976562 137.699219 114 137.476562 C 115.125 137.398438 115.949219 137.476562 116.625 137.925781 C 117.375 138.300781 118.050781 139.199219 118.351562 139.949219 C 118.574219 140.773438 118.574219 141.824219 118.199219 142.648438 C 117.824219 143.476562 115.5 144.824219 115.5 144.824219 "/></clipPath><clipPath id="fadfe53725"><path d="M 123.695312 167.121094 L 188 167.121094 L 188 222.890625 L 123.695312 222.890625 Z M 123.695312 167.121094 "/></clipPath><clipPath id="5fed227642"><path d="M 139.125 173.101562 C 132.601562 183 131.550781 185.851562 131.25 187.875 C 130.949219 189.300781 130.949219 190.125 131.324219 191.699219 C 131.851562 194.476562 134.550781 200.324219 135.898438 202.875 C 136.726562 204.375 137.175781 204.898438 138.226562 206.101562 C 139.648438 207.75 142.125 210.226562 144.375 211.726562 C 146.550781 213.148438 149.101562 214.199219 151.574219 214.800781 C 154.050781 215.324219 156.976562 215.324219 159.148438 215.25 C 160.800781 215.175781 161.851562 215.175781 163.425781 214.5 C 166.125 213.375 170.699219 210.226562 173.25 207.824219 C 175.351562 205.949219 177.074219 204.074219 178.199219 201.75 C 179.25 199.5 179.476562 196.648438 179.851562 194.023438 C 180.148438 191.476562 179.25 187.050781 180.148438 186.300781 C 180.601562 185.925781 182.175781 186.898438 182.25 186.75 C 182.324219 186.601562 180.75 185.925781 180.375 185.25 C 179.925781 184.425781 179.773438 182.699219 180.074219 181.726562 C 180.300781 180.976562 180.898438 180.300781 181.648438 179.925781 C 182.476562 179.550781 184.199219 179.324219 185.175781 179.773438 C 186.074219 180.226562 186.976562 181.648438 187.199219 182.625 C 187.425781 183.449219 187.199219 184.351562 186.824219 185.023438 C 186.449219 185.625 185.773438 186.300781 185.023438 186.601562 C 184.351562 186.898438 183.449219 187.050781 182.699219 186.824219 C 181.726562 186.523438 180.375 185.476562 180 184.5 C 179.625 183.601562 179.851562 181.875 180.449219 181.050781 C 181.050781 180.226562 182.773438 179.550781 183.601562 179.476562 C 184.050781 179.398438 184.351562 179.324219 184.800781 179.625 C 185.699219 180.375 187.125 183.074219 187.648438 185.398438 C 188.324219 188.476562 187.648438 193.425781 187.050781 196.875 C 186.601562 199.648438 185.773438 202.425781 184.949219 204.449219 C 184.351562 205.949219 184.050781 206.699219 183 208.050781 C 181.273438 210.375 177.226562 214.273438 174.375 216.523438 C 172.050781 218.398438 169.425781 219.976562 167.476562 220.875 C 166.125 221.550781 165.449219 221.851562 163.875 222.074219 C 161.101562 222.601562 155.773438 222.976562 152.324219 222.449219 C 149.398438 222.074219 146.851562 221.023438 144.300781 219.824219 C 141.824219 218.699219 139.273438 217.351562 137.101562 215.625 C 135.074219 213.976562 133.273438 211.875 131.699219 209.773438 C 130.125 207.75 128.773438 205.5 127.574219 203.25 C 126.449219 200.925781 125.398438 198.449219 124.800781 195.898438 C 124.125 193.273438 123.523438 190.648438 123.824219 187.726562 C 124.125 184.273438 125.699219 180.074219 127.425781 176.699219 C 129 173.550781 131.773438 169.5 133.574219 168.148438 C 134.476562 167.476562 135.226562 167.175781 136.050781 167.25 C 136.875 167.25 137.925781 167.625 138.523438 168.226562 C 139.199219 168.75 139.648438 169.726562 139.800781 170.550781 C 139.875 171.375 139.125 173.101562 139.125 173.101562 "/></clipPath><clipPath id="ba77ea6868"><path d="M 101.046875 192.28125 L 157.742188 192.28125 L 157.742188 250.1875 L 101.046875 250.1875 Z M 101.046875 192.28125 "/></clipPath><clipPath id="1361316b35"><path d="M 115.875 198.226562 C 110.175781 207.375 109.648438 208.351562 109.273438 209.550781 C 108.976562 210.824219 108.898438 211.800781 108.824219 213.375 C 108.675781 216.226562 108.375 221.773438 109.125 225.074219 C 109.800781 227.773438 111.375 230.398438 112.5 232.125 C 113.324219 233.324219 114 233.925781 115.050781 234.976562 C 116.625 236.324219 118.949219 238.273438 121.199219 239.476562 C 123.449219 240.75 125.773438 241.726562 128.550781 242.25 C 131.925781 242.851562 136.425781 243.300781 140.25 242.175781 C 144.824219 240.824219 151.050781 234.074219 153.675781 233.699219 C 154.726562 233.550781 155.398438 233.925781 156 234.375 C 156.601562 234.824219 157.199219 235.574219 157.425781 236.25 C 157.648438 237 157.726562 237.976562 157.425781 238.648438 C 156.976562 239.550781 155.851562 240.824219 154.800781 241.050781 C 153.824219 241.351562 152.175781 240.824219 151.425781 240.300781 C 150.75 239.773438 150.300781 239.023438 150.226562 238.199219 C 150.074219 237.226562 150.523438 235.574219 151.199219 234.824219 C 151.726562 234.226562 152.476562 233.773438 153.300781 233.699219 C 154.273438 233.625 155.925781 234.226562 156.601562 234.898438 C 157.199219 235.425781 157.5 236.324219 157.574219 237.074219 C 157.648438 237.824219 157.5 238.574219 157.050781 239.398438 C 156.300781 240.75 154.050781 242.476562 152.25 243.824219 C 150.300781 245.324219 147.675781 247.050781 145.726562 247.949219 C 144.375 248.699219 143.476562 249.074219 141.976562 249.449219 C 139.875 249.898438 136.800781 250.125 134.101562 250.125 C 131.324219 250.050781 128.023438 249.75 125.773438 249.226562 C 124.199219 248.851562 123.300781 248.476562 121.800781 247.800781 C 119.625 246.898438 116.398438 245.550781 114.074219 244.050781 C 111.976562 242.550781 110.101562 241.125 108.300781 239.023438 C 106.125 236.324219 103.648438 231.523438 102.601562 228.898438 C 102 227.324219 101.851562 226.726562 101.625 224.925781 C 101.25 221.476562 100.875 213.675781 101.625 209.476562 C 102.148438 206.476562 103.199219 204.523438 104.550781 201.976562 C 106.050781 199.125 108.601562 194.699219 110.324219 193.273438 C 111.226562 192.601562 111.976562 192.375 112.800781 192.375 C 113.625 192.375 114.675781 192.75 115.351562 193.273438 C 115.949219 193.875 116.476562 194.851562 116.550781 195.675781 C 116.625 196.5 115.875 198.226562 115.875 198.226562 "/></clipPath><clipPath id="0c2d9c9298"><path d="M 179.277344 176.578125 L 187.03125 176.578125 L 187.03125 189.023438 L 179.277344 189.023438 Z M 179.277344 176.578125 "/></clipPath><clipPath id="b41491a9a8"><path d="M 179.324219 185.175781 C 179.773438 178.5 180.226562 177.824219 180.824219 177.375 C 181.425781 176.925781 182.324219 176.550781 183.074219 176.625 C 184.050781 176.699219 185.625 177.449219 186.226562 178.273438 C 186.75 179.101562 186.898438 180.824219 186.601562 181.800781 C 186.375 182.550781 185.699219 183.226562 185.023438 183.601562 C 184.351562 183.976562 183.449219 184.273438 182.699219 184.125 C 181.726562 183.898438 180.300781 182.925781 179.773438 182.101562 C 179.324219 181.425781 179.25 180.523438 179.398438 179.773438 C 179.550781 179.023438 180 178.199219 180.523438 177.675781 C 181.050781 177.148438 181.949219 176.699219 182.699219 176.625 C 183.449219 176.550781 184.351562 176.773438 185.023438 177.148438 C 185.699219 177.523438 186.226562 178.125 186.601562 179.023438 C 187.125 180.449219 187.125 183.824219 186.824219 185.476562 C 186.601562 186.449219 186.375 187.273438 185.773438 187.875 C 185.023438 188.550781 183.449219 189.074219 182.476562 189 C 181.574219 188.925781 180.675781 188.324219 180.148438 187.648438 C 179.625 187.050781 179.324219 185.175781 179.324219 185.175781 "/></clipPath><clipPath id="0fa053e589"><path d="M 152.871094 114.695312 L 206.671875 114.695312 L 206.671875 181.773438 L 152.871094 181.773438 Z M 152.871094 114.695312 "/></clipPath><clipPath id="0b17adad37"><path d="M 177.675781 121.875 C 171.226562 125.476562 168.976562 127.800781 167.476562 129.375 C 166.273438 130.574219 165.375 131.324219 164.550781 132.824219 C 163.425781 134.699219 162.375 138.074219 161.699219 140.175781 C 161.175781 141.601562 160.875 142.351562 160.648438 143.851562 C 160.273438 146.101562 160.125 149.324219 160.574219 152.324219 C 160.949219 155.773438 161.851562 160.574219 163.574219 163.5 C 165 165.824219 166.949219 167.25 169.351562 168.75 C 172.273438 170.699219 176.476562 172.5 180.226562 173.398438 C 183.976562 174.226562 187.949219 174.300781 191.851562 174 C 195.898438 173.699219 201.898438 171.074219 204.148438 171.601562 C 205.125 171.824219 205.574219 172.5 206.023438 173.101562 C 206.398438 173.699219 206.625 174.675781 206.625 175.425781 C 206.550781 176.175781 206.175781 177.074219 205.726562 177.601562 C 205.199219 178.199219 204.449219 178.726562 203.625 178.800781 C 202.648438 178.949219 201 178.5 200.25 177.824219 C 199.648438 177.300781 199.199219 176.550781 199.125 175.726562 C 199.125 174.75 199.648438 173.101562 200.324219 172.425781 C 200.851562 171.824219 201.75 171.449219 202.5 171.449219 C 203.476562 171.449219 205.125 171.976562 205.726562 172.800781 C 206.398438 173.550781 206.699219 175.273438 206.476562 176.25 C 206.324219 177 205.800781 177.675781 205.125 178.199219 C 204.226562 178.875 202.800781 179.175781 201.300781 179.699219 C 199.273438 180.300781 196.726562 181.199219 193.726562 181.425781 C 189.449219 181.800781 182.175781 181.351562 177.976562 180.523438 C 174.898438 179.851562 172.800781 178.949219 170.398438 177.824219 C 167.925781 176.699219 165.449219 175.273438 163.351562 173.699219 C 161.324219 172.199219 159.226562 170.101562 157.949219 168.449219 C 156.976562 167.25 156.523438 166.574219 155.925781 165 C 154.800781 162.375 153.449219 157.273438 153.074219 153.824219 C 152.699219 151.050781 152.925781 148.648438 153.148438 146.101562 C 153.375 143.625 153.601562 141.074219 154.273438 138.601562 C 154.875 135.976562 155.773438 133.273438 157.050781 130.949219 C 158.25 128.625 159.898438 126.601562 161.625 124.648438 C 163.273438 122.699219 165.148438 120.976562 167.175781 119.398438 C 169.273438 117.824219 172.050781 115.875 174 115.199219 C 175.351562 114.75 176.699219 114.523438 177.675781 114.898438 C 178.5 115.125 179.25 115.875 179.625 116.625 C 180.074219 117.523438 180.074219 119.25 179.625 120.148438 C 179.25 120.898438 177.675781 121.875 177.675781 121.875 "/></clipPath><clipPath id="e6e2772027"><path d="M 171.324219 112.449219 L 221 112.449219 L 221 180.0625 L 171.324219 180.0625 Z M 171.324219 112.449219 "/></clipPath><clipPath id="6d03bde646"><path d="M 175.125 114.824219 C 186.675781 112.648438 189.523438 112.648438 191.699219 112.648438 C 193.351562 112.648438 194.476562 112.5 196.050781 112.800781 C 198.226562 113.25 200.851562 114.300781 203.25 115.726562 C 206.25 117.449219 210 120 212.476562 122.851562 C 215.023438 125.625 217.125 129.449219 218.550781 132.601562 C 219.675781 135.226562 220.273438 137.324219 220.648438 140.175781 C 221.175781 143.773438 220.949219 149.476562 220.574219 152.398438 C 220.351562 154.050781 220.125 154.648438 219.675781 156.226562 C 218.773438 158.925781 216.898438 163.800781 215.324219 166.875 C 214.050781 169.574219 213.148438 171.824219 211.199219 173.925781 C 208.949219 176.324219 204.074219 179.773438 202.050781 180 C 201.074219 180.074219 200.398438 179.625 199.800781 179.101562 C 199.199219 178.648438 198.675781 177.898438 198.523438 177.074219 C 198.449219 176.101562 198.75 174.449219 199.5 173.699219 C 200.175781 172.949219 201.75 172.351562 202.800781 172.574219 C 203.851562 172.726562 205.125 173.699219 205.574219 174.675781 C 206.023438 175.574219 205.949219 177.300781 205.425781 178.125 C 204.898438 179.023438 203.476562 179.925781 202.425781 180 C 201.375 180.074219 199.875 179.398438 199.273438 178.574219 C 198.601562 177.75 198.226562 176.398438 198.675781 175.050781 C 199.425781 172.648438 205.125 169.425781 207.375 166.050781 C 209.476562 162.898438 211.050781 158.25 211.949219 155.625 C 212.550781 154.125 212.851562 153.523438 213.074219 151.949219 C 213.523438 149.175781 213.601562 143.101562 213.226562 140.25 C 213 138.675781 212.773438 138 212.101562 136.5 C 210.824219 133.875 207.523438 128.699219 205.648438 126.601562 C 204.601562 125.398438 204 124.875 202.726562 124.050781 C 201 122.925781 198.300781 121.425781 195.898438 120.824219 C 193.425781 120.148438 190.875 120 188.023438 120.148438 C 184.574219 120.375 179.25 122.175781 176.699219 122.25 C 175.351562 122.324219 174.449219 122.324219 173.699219 122.023438 C 173.101562 121.726562 172.648438 121.351562 172.273438 120.824219 C 171.898438 120.226562 171.523438 119.101562 171.523438 118.273438 C 171.601562 117.449219 172.125 116.476562 172.648438 115.875 C 173.25 115.351562 175.125 114.824219 175.125 114.824219 "/></clipPath><clipPath id="330fe322bf"><path d="M 208.023438 115.226562 L 264.582031 115.226562 L 264.582031 151 L 208.023438 151 Z M 208.023438 115.226562 "/></clipPath><clipPath id="393874459a"><path d="M 210.300781 122.398438 C 225.523438 116.101562 227.550781 115.800781 230.398438 115.648438 C 233.925781 115.351562 238.949219 115.125 242.398438 116.023438 C 245.175781 116.773438 247.273438 117.976562 249.601562 119.699219 C 252.375 121.726562 255.226562 124.949219 257.476562 128.023438 C 259.800781 131.101562 262.050781 135.601562 263.101562 138.226562 C 263.773438 139.800781 264 140.699219 264.226562 142.050781 C 264.523438 143.625 264.675781 145.875 264.449219 147.226562 C 264.375 148.199219 264.148438 148.949219 263.699219 149.550781 C 263.25 150.148438 262.5 150.675781 261.75 150.898438 C 261 151.050781 260.023438 151.050781 259.351562 150.75 C 258.675781 150.449219 257.925781 149.851562 257.550781 149.175781 C 257.101562 148.5 256.875 147.601562 257.023438 146.851562 C 257.175781 145.875 258.074219 144.449219 258.976562 143.925781 C 259.875 143.476562 261.601562 143.476562 262.5 143.925781 C 263.398438 144.449219 264.300781 145.875 264.449219 146.851562 C 264.601562 147.601562 264.375 148.574219 263.925781 149.175781 C 263.550781 149.851562 262.800781 150.449219 262.125 150.75 C 261.449219 151.050781 260.476562 151.050781 259.726562 150.898438 C 258.976562 150.675781 258.226562 150.300781 257.773438 149.550781 C 256.875 148.199219 257.25 144.523438 256.726562 142.5 C 256.273438 140.925781 255.675781 139.875 254.925781 138.375 C 253.949219 136.425781 252.523438 133.875 250.949219 131.851562 C 249.375 129.675781 247.726562 127.199219 245.476562 125.773438 C 243.226562 124.273438 240.300781 123.300781 237.601562 122.925781 C 235.050781 122.476562 231.898438 123 229.726562 123.226562 C 228.148438 123.375 227.476562 123.375 225.75 123.824219 C 222.449219 124.726562 214.425781 129.601562 211.648438 129.523438 C 210.523438 129.523438 209.773438 129.074219 209.25 128.476562 C 208.648438 127.875 208.199219 126.898438 208.125 126.074219 C 208.050781 125.25 208.425781 124.125 208.875 123.523438 C 209.25 123 210.300781 122.398438 210.300781 122.398438 "/></clipPath><clipPath id="d5417bdc3b"><path d="M 208.253906 143.527344 L 264.835938 143.527344 L 264.835938 177.695312 L 208.253906 177.695312 Z M 208.253906 143.527344 "/></clipPath><clipPath id="8e4876c259"><path d="M 212.851562 164.476562 C 224.25 168.976562 226.574219 169.726562 229.050781 170.023438 C 231.523438 170.324219 234.523438 170.25 236.625 170.023438 C 238.125 169.800781 238.949219 169.5 240.375 168.898438 C 242.398438 168.148438 245.851562 166.726562 247.648438 165.375 C 248.851562 164.476562 249.449219 163.726562 250.351562 162.523438 C 251.625 160.800781 253.199219 158.550781 254.324219 156.074219 C 255.675781 153.148438 256.425781 148.050781 257.476562 146.101562 C 258 145.125 258.300781 144.601562 258.976562 144.148438 C 259.574219 143.773438 260.476562 143.476562 261.300781 143.550781 C 262.050781 143.550781 262.875 143.925781 263.476562 144.449219 C 264.074219 144.898438 264.601562 145.726562 264.675781 146.476562 C 264.824219 147.449219 264.449219 149.101562 263.773438 149.851562 C 263.023438 150.601562 261.449219 151.125 260.398438 150.976562 C 259.425781 150.824219 258.074219 149.773438 257.625 148.875 C 257.175781 147.898438 257.398438 146.175781 257.851562 145.351562 C 258.226562 144.601562 258.976562 144.074219 259.648438 143.773438 C 260.398438 143.550781 261.300781 143.476562 262.050781 143.699219 C 262.800781 143.851562 263.550781 144.449219 264 145.050781 C 264.523438 145.648438 264.75 146.25 264.824219 147.300781 C 264.824219 149.324219 263.398438 153.75 262.351562 156.601562 C 261.375 159.226562 260.398438 161.324219 258.75 163.726562 C 256.726562 166.574219 253.574219 170.324219 250.726562 172.425781 C 248.398438 174.074219 245.476562 174.976562 243.375 175.800781 C 241.875 176.324219 240.976562 176.699219 239.398438 177 C 237.300781 177.449219 234.601562 177.75 231.824219 177.601562 C 228.449219 177.449219 224.398438 176.851562 220.726562 175.726562 C 216.75 174.449219 210.523438 172.125 208.949219 170.25 C 208.273438 169.425781 208.273438 168.449219 208.273438 167.699219 C 208.351562 167.101562 208.574219 166.5 208.949219 166.050781 C 209.398438 165.375 210.375 164.699219 211.125 164.476562 C 211.648438 164.25 212.851562 164.476562 212.851562 164.476562 "/></clipPath><clipPath id="2b365600f9"><path d="M 180.078125 171.210938 L 243.3125 171.210938 L 243.3125 218.636719 L 180.078125 218.636719 Z M 180.078125 171.210938 "/></clipPath><clipPath id="c4c4d85542"><path d="M 187.800781 188.773438 C 190.949219 199.875 192.601562 202.351562 193.949219 203.925781 C 194.925781 205.125 195.898438 205.875 196.949219 206.625 C 198 207.375 199.199219 208.125 200.398438 208.574219 C 201.601562 209.101562 202.726562 209.175781 204.226562 209.476562 C 206.324219 209.925781 209.324219 210.601562 211.875 210.824219 C 214.5 211.050781 216.976562 211.648438 219.675781 210.976562 C 222.898438 210.148438 227.25 207.523438 229.800781 205.273438 C 231.824219 203.476562 233.398438 201.523438 234.375 199.273438 C 235.425781 196.949219 235.425781 194.324219 235.648438 191.476562 C 235.949219 188.023438 236.101562 183.226562 235.726562 180.074219 C 235.5 177.75 233.925781 175.574219 234.300781 174.074219 C 234.601562 172.949219 235.800781 171.898438 236.699219 171.449219 C 237.375 171.148438 238.351562 171.226562 239.101562 171.449219 C 239.773438 171.601562 240.601562 172.199219 240.976562 172.800781 C 241.425781 173.398438 241.800781 174.300781 241.726562 175.125 C 241.574219 176.101562 240.824219 177.601562 240 178.125 C 239.101562 178.726562 237.449219 178.875 236.476562 178.425781 C 235.5 178.050781 234.449219 176.699219 234.300781 175.726562 C 234.074219 174.675781 234.675781 173.101562 235.273438 172.351562 C 235.800781 171.75 236.625 171.300781 237.449219 171.300781 C 238.425781 171.226562 239.851562 171.675781 240.75 172.5 C 241.875 173.550781 242.550781 176.175781 242.925781 177.824219 C 243.300781 179.25 243.226562 180.074219 243.226562 181.800781 C 243.300781 185.25 243.300781 193.050781 242.550781 197.175781 C 242.023438 200.175781 241.574219 202.199219 240.148438 204.601562 C 238.425781 207.523438 235.199219 210.898438 232.050781 213.148438 C 228.976562 215.398438 224.925781 217.273438 221.625 218.101562 C 218.851562 218.773438 216.523438 218.625 213.601562 218.476562 C 210.074219 218.25 204.675781 217.199219 201.824219 216.675781 C 200.25 216.300781 199.5 216.300781 198.074219 215.773438 C 196.050781 214.949219 192.601562 213.074219 190.875 211.726562 C 189.675781 210.75 189.074219 210.074219 188.101562 208.875 C 186.75 207.074219 185.101562 204.300781 183.898438 201.824219 C 182.625 199.273438 181.273438 196.351562 180.75 193.875 C 180.300781 191.773438 180 189.375 180.375 187.875 C 180.675781 186.898438 181.125 186.148438 181.875 185.699219 C 182.699219 185.175781 184.425781 185.023438 185.324219 185.324219 C 186.148438 185.550781 186.976562 186.375 187.351562 187.050781 C 187.648438 187.574219 187.800781 188.773438 187.800781 188.773438 "/></clipPath><clipPath id="91c1137d6e"><path d="M 236.128906 169.304688 L 283.476562 169.304688 L 283.476562 204.816406 L 236.128906 204.816406 Z M 236.128906 169.304688 "/></clipPath><clipPath id="4d016b5fba"><path d="M 240 196.875 C 256.875 195.75 261.449219 194.550781 264.449219 192.75 C 266.851562 191.324219 268.726562 189.148438 270.074219 187.574219 C 271.050781 186.449219 271.574219 185.550781 272.175781 184.5 C 272.925781 183.300781 273.523438 182.25 274.125 180.675781 C 275.101562 178.199219 275.175781 172.648438 276.675781 170.925781 C 277.5 169.875 278.851562 169.5 279.824219 169.425781 C 280.648438 169.425781 281.476562 169.800781 282.074219 170.324219 C 282.601562 170.851562 283.125 171.601562 283.273438 172.351562 C 283.425781 173.101562 283.425781 174.074219 283.050781 174.75 C 282.523438 175.574219 281.175781 176.625 280.199219 176.851562 C 279.449219 177.074219 278.550781 176.851562 277.875 176.476562 C 277.199219 176.175781 276.523438 175.5 276.226562 174.75 C 275.851562 173.851562 275.851562 172.125 276.375 171.226562 C 276.976562 170.324219 278.476562 169.574219 279.449219 169.425781 C 280.199219 169.351562 281.101562 169.574219 281.699219 170.101562 C 282.449219 170.699219 283.125 172.050781 283.351562 173.175781 C 283.648438 174.449219 283.273438 175.726562 282.976562 177.300781 C 282.523438 179.476562 281.625 182.398438 280.574219 184.726562 C 279.523438 187.050781 278.476562 189.226562 276.675781 191.476562 C 274.425781 194.175781 271.425781 197.398438 267.824219 199.5 C 263.699219 201.824219 257.773438 203.324219 252.898438 204.074219 C 248.476562 204.824219 242.625 204.824219 240 204.375 C 238.800781 204.148438 238.125 204.074219 237.523438 203.398438 C 236.851562 202.726562 236.25 201.148438 236.25 200.175781 C 236.324219 199.273438 236.925781 198.375 237.523438 197.851562 C 238.125 197.25 240 196.875 240 196.875 "/></clipPath><clipPath id="c7adf5207a"><path d="M 258.792969 143.757812 L 283.59375 143.757812 L 283.59375 182.152344 L 258.792969 182.152344 Z M 258.792969 143.757812 "/></clipPath><clipPath id="1b07399541"><path d="M 264.226562 144.148438 C 277.648438 155.101562 280.125 159.148438 281.625 162.375 C 282.75 165 283.273438 167.175781 283.5 169.800781 C 283.726562 172.800781 283.5 177.226562 282.523438 179.324219 C 282 180.601562 281.175781 181.574219 280.199219 181.949219 C 279.226562 182.25 277.5 182.023438 276.675781 181.425781 C 275.851562 180.824219 275.101562 179.324219 275.175781 178.273438 C 275.175781 177.226562 276 175.800781 276.898438 175.199219 C 277.800781 174.675781 279.449219 174.523438 280.425781 174.976562 C 281.398438 175.351562 282.375 176.773438 282.601562 177.75 C 282.824219 178.5 282.601562 179.398438 282.226562 180.074219 C 281.925781 180.75 281.324219 181.5 280.574219 181.800781 C 279.601562 182.101562 277.949219 182.175781 277.050781 181.648438 C 276.148438 181.125 275.476562 180 275.175781 178.648438 C 274.648438 176.550781 276.375 172.648438 276.074219 169.949219 C 275.773438 167.398438 274.800781 165 273.601562 162.75 C 272.324219 160.425781 270.523438 158.476562 268.425781 156.375 C 265.875 153.824219 260.101562 150.976562 259.125 148.949219 C 258.601562 147.976562 258.824219 147 259.050781 146.25 C 259.199219 145.648438 259.5 145.199219 260.023438 144.75 C 260.550781 144.300781 261.675781 143.851562 262.425781 143.773438 C 263.101562 143.699219 264.226562 144.148438 264.226562 144.148438 "/></clipPath><clipPath id="4af739b6bb"><path d="M 240.816406 197.617188 L 265.433594 197.617188 L 265.433594 252.414062 L 240.816406 252.414062 Z M 240.816406 197.617188 "/></clipPath><clipPath id="fbc5377e76"><path d="M 256.800781 199.425781 C 263.101562 210.226562 264.449219 214.574219 265.050781 217.949219 C 265.5 220.726562 265.425781 223.050781 265.273438 225.601562 C 265.125 228.226562 265.050781 230.851562 264.148438 233.550781 C 262.949219 236.773438 260.398438 240.976562 258.226562 243.675781 C 256.5 245.925781 254.175781 247.726562 252.449219 249 C 251.25 249.898438 250.425781 250.574219 249.226562 251.101562 C 247.875 251.699219 246.074219 252.449219 244.800781 252.375 C 243.601562 252.300781 242.175781 251.699219 241.574219 250.875 C 240.976562 250.050781 240.75 248.324219 240.976562 247.425781 C 241.199219 246.601562 241.800781 245.925781 242.476562 245.476562 C 243.074219 245.101562 243.976562 244.726562 244.800781 244.875 C 245.699219 245.023438 247.199219 245.925781 247.800781 246.675781 C 248.25 247.351562 248.398438 248.25 248.324219 249 C 248.175781 249.75 247.800781 250.648438 247.273438 251.175781 C 246.75 251.773438 245.925781 252.226562 245.175781 252.300781 C 244.425781 252.449219 243.449219 252.300781 242.773438 251.925781 C 242.101562 251.550781 241.425781 250.949219 241.125 250.199219 C 240.824219 249.300781 240.675781 247.800781 241.351562 246.675781 C 242.550781 244.574219 248.476562 242.851562 250.949219 240.601562 C 252.976562 238.726562 254.625 236.398438 255.675781 234.449219 C 256.5 232.949219 256.949219 231.976562 257.25 230.175781 C 257.851562 227.25 258.074219 222 257.550781 218.625 C 257.175781 215.851562 256.199219 213.75 255.074219 211.199219 C 253.800781 208.199219 250.125 204 249.898438 201.75 C 249.75 200.699219 250.125 199.875 250.574219 199.199219 C 251.101562 198.523438 252.074219 198 252.824219 197.773438 C 253.425781 197.625 254.023438 197.625 254.625 197.851562 C 255.375 198.074219 256.800781 199.425781 256.800781 199.425781 "/></clipPath><clipPath id="eef7ac594b"><path d="M 206.414062 234.265625 L 251.402344 234.265625 L 251.402344 255 L 206.414062 255 Z M 206.414062 234.265625 "/></clipPath><clipPath id="71f2659299"><path d="M 212.925781 235.425781 C 221.398438 244.273438 223.273438 245.699219 225.898438 246.523438 C 229.125 247.574219 233.851562 247.875 237.375 247.273438 C 240.601562 246.75 244.199219 243.976562 246.226562 243.523438 C 247.273438 243.300781 247.949219 243.226562 248.625 243.449219 C 249.375 243.675781 250.199219 244.199219 250.648438 244.800781 C 251.101562 245.398438 251.398438 246.300781 251.398438 247.050781 C 251.324219 247.800781 251.101562 248.699219 250.574219 249.300781 C 249.898438 250.050781 248.398438 250.875 247.351562 250.800781 C 246.375 250.726562 244.949219 249.824219 244.425781 248.925781 C 243.824219 248.023438 243.75 246.375 244.199219 245.398438 C 244.648438 244.5 246 243.523438 247.050781 243.300781 C 248.101562 243.148438 249.675781 243.824219 250.351562 244.5 C 250.949219 245.023438 251.324219 245.851562 251.324219 246.675781 C 251.398438 247.648438 250.949219 248.925781 250.050781 249.898438 C 248.398438 251.625 244.199219 253.648438 240.523438 254.398438 C 236.101562 255.375 229.351562 255 225.148438 254.101562 C 222.148438 253.425781 219.675781 252 217.726562 250.875 C 216.300781 250.050781 215.550781 249.449219 214.273438 248.25 C 212.25 246.300781 207.976562 242.023438 207 239.925781 C 206.550781 238.875 206.398438 238.125 206.550781 237.300781 C 206.773438 236.476562 207.300781 235.5 207.976562 235.050781 C 208.648438 234.523438 209.699219 234.226562 210.523438 234.300781 C 211.351562 234.375 212.925781 235.425781 212.925781 235.425781 "/></clipPath><clipPath id="89f5658074"><path d="M 166.4375 212 L 214.6875 212 L 214.6875 255.289062 L 166.4375 255.289062 Z M 166.4375 212 "/></clipPath><clipPath id="9526077100"><path d="M 214.574219 215.851562 C 213.976562 225.074219 212.476562 232.648438 211.050781 236.699219 C 210 239.550781 209.023438 241.574219 207.523438 243.675781 C 205.949219 245.851562 204.074219 247.949219 201.523438 249.523438 C 198.523438 251.398438 194.101562 252.675781 190.199219 253.648438 C 186.300781 254.550781 181.726562 255.300781 178.273438 255.074219 C 175.574219 254.925781 173.023438 254.175781 171 253.199219 C 169.425781 252.449219 167.625 251.476562 167.023438 250.425781 C 166.574219 249.675781 166.5 248.773438 166.648438 248.023438 C 166.800781 247.273438 167.25 246.449219 167.851562 245.925781 C 168.375 245.476562 169.273438 245.101562 170.023438 245.023438 C 170.773438 244.949219 171.75 245.101562 172.351562 245.550781 C 173.101562 246.148438 174 247.648438 174.074219 248.625 C 174.148438 249.449219 173.851562 250.273438 173.398438 250.949219 C 172.949219 251.550781 172.273438 252.148438 171.449219 252.300781 C 170.476562 252.523438 168.824219 252.300781 168 251.699219 C 167.175781 251.023438 166.574219 249.449219 166.574219 248.476562 C 166.574219 247.648438 167.023438 246.824219 167.550781 246.226562 C 168.074219 245.699219 168.675781 245.175781 169.648438 245.023438 C 171.523438 244.875 175.949219 247.273438 178.273438 247.574219 C 179.851562 247.800781 180.601562 247.726562 182.25 247.574219 C 185.101562 247.199219 191.324219 245.625 194.101562 244.648438 C 195.75 244.050781 196.574219 243.824219 197.773438 242.851562 C 199.5 241.574219 201.824219 238.949219 202.875 237.148438 C 203.625 235.875 203.699219 235.125 204.148438 233.324219 C 205.199219 229.425781 205.875 216.976562 207.523438 214.125 C 208.125 213.074219 208.726562 212.625 209.476562 212.324219 C 210.300781 212.023438 211.351562 212.023438 212.175781 212.324219 C 212.925781 212.625 213.75 213.449219 214.125 214.125 C 214.5 214.648438 214.574219 215.851562 214.574219 215.851562 "/></clipPath><clipPath id="f9f684ee46"><path d="M 148.394531 216.867188 L 176.28125 216.867188 L 176.28125 253.4375 L 148.394531 253.4375 Z M 148.394531 216.867188 "/></clipPath><clipPath id="aff6653ace"><path d="M 156 220.574219 C 157.5 229.050781 159.675781 234.148438 161.699219 237.148438 C 163.273438 239.476562 164.773438 241.125 166.875 242.851562 C 169.273438 244.726562 174.449219 245.851562 175.574219 247.726562 C 176.324219 248.773438 176.175781 250.273438 175.875 251.25 C 175.574219 252 174.976562 252.675781 174.226562 252.976562 C 173.324219 253.351562 171.601562 253.425781 170.699219 253.050781 C 169.949219 252.75 169.351562 252.074219 169.050781 251.324219 C 168.675781 250.425781 168.75 248.699219 169.199219 247.800781 C 169.5 247.125 170.175781 246.523438 171 246.226562 C 171.898438 245.925781 173.625 246 174.449219 246.601562 C 175.351562 247.125 176.101562 248.699219 176.175781 249.675781 C 176.25 250.425781 175.875 251.324219 175.425781 251.925781 C 174.976562 252.523438 174.375 253.125 173.476562 253.273438 C 171.976562 253.574219 168.898438 252.601562 166.800781 251.550781 C 164.398438 250.5 162 248.550781 160.050781 246.675781 C 158.175781 244.875 156.523438 242.851562 155.101562 240.675781 C 153.601562 238.5 152.476562 236.101562 151.425781 233.699219 C 150.449219 231.300781 149.550781 228.601562 149.023438 226.273438 C 148.648438 224.398438 148.351562 222.300781 148.5 220.800781 C 148.648438 219.824219 148.800781 218.925781 149.324219 218.324219 C 149.851562 217.648438 150.824219 217.050781 151.648438 216.976562 C 152.625 216.898438 154.273438 217.425781 154.949219 218.101562 C 155.625 218.699219 156 220.574219 156 220.574219 "/></clipPath><clipPath id="9b250d890b"><path d="M 128.039062 245 L 172.335938 245 L 172.335938 295.214844 L 128.039062 295.214844 Z M 128.039062 245 "/></clipPath><clipPath id="4dd1bf35f7"><path d="M 138.824219 249.601562 C 135.449219 261.449219 135.226562 264.226562 135.601562 266.925781 C 135.976562 269.550781 137.101562 272.175781 138.226562 274.574219 C 139.273438 276.898438 140.398438 279.300781 142.050781 281.101562 C 143.773438 282.824219 146.101562 284.25 148.351562 285.300781 C 150.675781 286.351562 153.300781 287.023438 155.851562 287.398438 C 158.324219 287.773438 161.25 287.699219 163.5 287.476562 C 165.300781 287.324219 166.949219 286.425781 168.226562 286.5 C 169.125 286.5 169.949219 286.648438 170.550781 287.023438 C 171.226562 287.398438 171.824219 288.148438 172.050781 288.898438 C 172.351562 289.574219 172.351562 290.550781 172.125 291.300781 C 171.898438 291.976562 171.449219 292.800781 170.773438 293.25 C 169.949219 293.773438 168.226562 294.074219 167.25 293.699219 C 166.351562 293.398438 165.226562 292.050781 164.925781 291.148438 C 164.699219 290.398438 164.773438 289.425781 165.074219 288.75 C 165.375 288.074219 166.050781 287.324219 166.726562 286.949219 C 167.324219 286.574219 168.300781 286.351562 169.050781 286.5 C 169.800781 286.574219 170.699219 286.949219 171.226562 287.550781 C 171.824219 288.300781 172.351562 289.949219 172.273438 290.851562 C 172.199219 291.675781 171.675781 292.5 171.074219 292.949219 C 170.550781 293.476562 169.800781 293.625 168.898438 293.925781 C 167.398438 294.375 165.148438 294.824219 163.050781 294.976562 C 160.648438 295.199219 158.023438 295.199219 155.175781 294.75 C 151.726562 294.226562 146.851562 293.023438 143.699219 291.449219 C 141.074219 290.175781 139.050781 288.675781 137.175781 286.800781 C 135.300781 284.851562 133.875 282.375 132.523438 280.050781 C 131.175781 277.726562 129.976562 275.324219 129.226562 272.773438 C 128.476562 270.375 128.175781 267.75 128.101562 265.199219 C 127.949219 262.574219 128.101562 260.25 128.625 257.476562 C 129.300781 254.101562 130.800781 248.175781 132.300781 246.375 C 133.050781 245.550781 133.875 245.25 134.625 245.101562 C 135.226562 244.949219 135.824219 245.023438 136.425781 245.25 C 137.101562 245.550781 138.074219 246.226562 138.449219 246.976562 C 138.824219 247.726562 138.824219 249.601562 138.824219 249.601562 "/></clipPath><clipPath id="8c19b2a134"><path d="M 161.46875 247.648438 L 193.417969 247.648438 L 193.417969 295.355469 L 161.46875 295.355469 Z M 161.46875 247.648438 "/></clipPath><clipPath id="25292523a4"><path d="M 165.074219 287.550781 C 168.300781 287.25 171.976562 285.523438 174.148438 284.023438 C 176.25 282.523438 178.199219 280.351562 179.550781 278.699219 C 180.523438 277.574219 180.976562 276.824219 181.648438 275.398438 C 182.625 273.449219 183.75 270.75 184.425781 267.976562 C 185.175781 264.601562 184.5 258.148438 185.476562 256.351562 C 185.851562 255.675781 186.898438 255.601562 186.898438 255.300781 C 186.824219 254.851562 185.25 254.773438 184.726562 254.175781 C 184.125 253.425781 183.675781 251.773438 183.824219 250.800781 C 183.898438 249.976562 184.425781 249.226562 185.023438 248.699219 C 185.625 248.25 186.449219 247.800781 187.273438 247.875 C 188.25 247.875 189.824219 248.550781 190.425781 249.300781 C 190.949219 249.898438 191.25 250.800781 191.25 251.550781 C 191.25 252.300781 191.023438 253.273438 190.425781 253.875 C 189.824219 254.550781 188.324219 255.375 187.273438 255.300781 C 186.226562 255.300781 184.800781 254.324219 184.273438 253.5 C 183.75 252.898438 183.675781 251.925781 183.75 251.175781 C 183.824219 250.425781 184.125 249.523438 184.726562 249 C 185.476562 248.324219 186.976562 247.5 188.101562 247.875 C 189.75 248.476562 192.074219 252.375 192.898438 255.300781 C 193.800781 258.75 192.976562 263.550781 192.226562 267.523438 C 191.476562 271.425781 190.199219 275.476562 188.25 278.925781 C 186.300781 282.449219 183.601562 285.75 180.675781 288.375 C 177.824219 290.925781 173.851562 293.625 170.773438 294.601562 C 168.449219 295.351562 165.75 295.425781 164.175781 294.976562 C 163.199219 294.675781 162.449219 294.226562 162 293.476562 C 161.476562 292.648438 161.398438 290.851562 161.550781 290.023438 C 161.773438 289.351562 162.074219 288.898438 162.601562 288.523438 C 163.199219 288.074219 165.074219 287.550781 165.074219 287.550781 "/></clipPath><clipPath id="0b48370e7f"><path d="M 184.019531 247.167969 L 192.3125 247.167969 L 192.3125 262.921875 L 184.019531 262.921875 Z M 184.019531 247.167969 "/></clipPath><clipPath id="7d824fa02a"><path d="M 191.550781 250.726562 C 192.148438 260.101562 192 260.699219 191.625 261.375 C 191.175781 261.976562 190.351562 262.5 189.675781 262.726562 C 188.925781 262.949219 187.949219 262.949219 187.273438 262.648438 C 186.523438 262.425781 185.773438 261.824219 185.398438 261.148438 C 184.949219 260.550781 184.648438 259.648438 184.800781 258.824219 C 184.949219 257.851562 185.925781 256.425781 186.675781 255.898438 C 187.351562 255.449219 188.324219 255.300781 189.074219 255.449219 C 189.824219 255.523438 190.648438 255.976562 191.175781 256.5 C 191.699219 257.023438 192.148438 257.925781 192.226562 258.675781 C 192.375 259.425781 192.226562 260.324219 191.773438 261 C 191.25 261.824219 189.824219 262.726562 188.851562 262.875 C 188.023438 263.023438 187.125 262.726562 186.523438 262.273438 C 185.851562 261.898438 185.398438 261.375 185.023438 260.476562 C 184.273438 258.601562 183.898438 253.273438 184.125 251.175781 C 184.199219 250.050781 184.351562 249.300781 184.875 248.625 C 185.398438 247.949219 186.375 247.425781 187.199219 247.273438 C 187.949219 247.125 189.074219 247.273438 189.75 247.726562 C 190.574219 248.324219 191.550781 250.726562 191.550781 250.726562 "/></clipPath><clipPath id="53b2685d48"><path d="M 178.773438 249.285156 L 236.546875 249.285156 L 236.546875 298 L 178.773438 298 Z M 178.773438 249.285156 "/></clipPath><clipPath id="3bb6b752d2"><path d="M 185.175781 281.101562 C 195.675781 288.523438 200.476562 290.023438 203.925781 290.324219 C 206.773438 290.550781 209.25 290.175781 211.726562 289.5 C 214.199219 288.75 216.601562 287.925781 218.851562 286.199219 C 221.625 284.101562 225.148438 279.601562 226.648438 277.125 C 227.476562 275.699219 227.699219 275.023438 228.074219 273.375 C 228.675781 270.601562 228.898438 264.601562 228.675781 261.75 C 228.523438 260.101562 228.300781 259.050781 227.773438 257.851562 C 227.324219 256.574219 226.050781 255.449219 225.75 254.324219 C 225.523438 253.425781 225.523438 252.449219 225.898438 251.625 C 226.351562 250.800781 227.625 249.675781 228.601562 249.523438 C 229.648438 249.300781 231.226562 249.976562 231.976562 250.5 C 232.5 250.875 232.949219 251.398438 232.875 252 C 232.875 253.199219 230.550781 256.574219 229.351562 256.949219 C 228.601562 257.175781 227.625 256.648438 227.023438 256.125 C 226.425781 255.675781 225.824219 254.925781 225.675781 254.175781 C 225.523438 253.199219 225.898438 251.550781 226.5 250.726562 C 226.949219 250.125 227.773438 249.675781 228.523438 249.523438 C 229.273438 249.375 230.175781 249.375 230.925781 249.75 C 231.75 250.273438 232.800781 251.625 233.023438 252.601562 C 233.25 253.351562 233.023438 254.25 232.648438 254.925781 C 232.273438 255.601562 231.601562 256.273438 230.925781 256.574219 C 230.175781 256.875 229.273438 257.023438 228.523438 256.800781 C 227.773438 256.648438 226.949219 256.273438 226.425781 255.601562 C 225.898438 254.773438 225.449219 253.125 225.75 252.148438 C 225.976562 251.175781 228 249.523438 228.148438 249.601562 C 228.300781 249.75 225.976562 254.398438 225.75 254.324219 C 225.601562 254.25 225.824219 251.699219 226.351562 250.875 C 226.875 250.199219 227.773438 249.675781 228.601562 249.523438 C 229.425781 249.300781 230.550781 249.601562 231.226562 249.976562 C 231.824219 250.273438 232.050781 250.574219 232.5 251.25 C 233.324219 252.375 234.601562 254.925781 235.199219 256.574219 C 235.648438 257.925781 235.800781 258.75 236.023438 260.398438 C 236.324219 263.175781 236.550781 268.574219 236.023438 272.023438 C 235.648438 274.726562 235.273438 276.675781 233.925781 279.300781 C 232.050781 282.976562 227.699219 288.75 224.476562 291.449219 C 222.148438 293.476562 219.824219 294.300781 217.351562 295.351562 C 214.875 296.398438 212.550781 297.449219 209.625 297.824219 C 206.175781 298.199219 201.523438 297.75 197.699219 296.773438 C 194.023438 295.949219 190.199219 294.300781 187.125 292.5 C 184.351562 290.773438 181.199219 288.148438 179.851562 286.425781 C 179.175781 285.523438 178.800781 284.851562 178.800781 284.023438 C 178.800781 283.050781 179.476562 281.476562 180.226562 280.800781 C 180.824219 280.273438 181.875 279.976562 182.699219 280.050781 C 183.523438 280.050781 185.175781 281.101562 185.175781 281.101562 "/></clipPath><clipPath id="ce2b87fc5c"><path d="M 152.015625 290.574219 L 216.511719 290.574219 L 216.511719 332.40625 L 152.015625 332.40625 Z M 152.015625 290.574219 "/></clipPath><clipPath id="a396e1e0a3"><path d="M 160.273438 294.300781 C 159.675781 306.976562 161.398438 311.398438 163.273438 314.175781 C 164.851562 316.5 167.25 318.300781 169.050781 319.5 C 170.25 320.398438 170.925781 320.773438 172.425781 321.375 C 175.050781 322.425781 180.148438 323.851562 183.523438 324.300781 C 186.300781 324.675781 188.476562 325.050781 191.101562 324.449219 C 194.324219 323.699219 198.523438 321.75 201.300781 319.273438 C 204.148438 316.800781 206.625 312.074219 207.824219 309.449219 C 208.5 307.875 208.574219 307.050781 208.800781 305.398438 C 209.101562 302.851562 208.125 297.226562 208.726562 295.125 C 209.023438 294.148438 209.398438 293.625 210.074219 293.175781 C 210.898438 292.648438 212.550781 292.273438 213.523438 292.5 C 214.273438 292.726562 215.023438 293.324219 215.476562 293.925781 C 215.851562 294.523438 216.148438 295.5 216.148438 296.25 C 216.074219 297 215.773438 297.898438 215.324219 298.5 C 214.800781 299.023438 214.050781 299.625 213.226562 299.773438 C 212.324219 299.925781 210.601562 299.476562 209.851562 298.875 C 209.25 298.351562 208.800781 297.523438 208.726562 296.773438 C 208.574219 296.023438 208.726562 295.050781 209.023438 294.375 C 209.398438 293.699219 210.074219 293.023438 210.75 292.726562 C 211.425781 292.425781 212.324219 292.199219 213.148438 292.425781 C 214.050781 292.648438 215.25 293.625 215.851562 294.675781 C 216.523438 295.949219 216.449219 297.75 216.449219 299.773438 C 216.449219 302.925781 216.074219 308.25 215.023438 311.550781 C 214.199219 314.25 212.773438 316.273438 211.425781 318.449219 C 210.074219 320.625 209.175781 322.648438 207 324.523438 C 203.851562 327.226562 197.851562 330.675781 193.351562 331.726562 C 189.523438 332.699219 185.398438 332.023438 181.949219 331.648438 C 179.023438 331.273438 176.625 330.675781 174.074219 329.851562 C 171.375 329.023438 168.523438 327.898438 166.199219 326.550781 C 163.949219 325.199219 161.925781 323.625 160.125 321.824219 C 158.324219 319.949219 156.824219 317.851562 155.550781 315.601562 C 154.273438 313.199219 153.226562 309.898438 152.699219 307.726562 C 152.324219 306.226562 152.25 305.476562 152.25 303.898438 C 152.101562 301.273438 152.101562 295.574219 152.851562 293.398438 C 153.226562 292.351562 153.675781 291.675781 154.351562 291.226562 C 155.023438 290.773438 156.148438 290.476562 156.976562 290.625 C 157.800781 290.699219 158.773438 291.226562 159.300781 291.824219 C 159.824219 292.425781 160.273438 294.300781 160.273438 294.300781 "/></clipPath><clipPath id="c87e122e52"><path d="M 161.253906 40.417969 L 191.523438 40.417969 L 191.523438 117.210938 L 161.253906 117.210938 Z M 161.253906 40.417969 "/></clipPath><clipPath id="6d1138f806"><path d="M 168 41.773438 C 179.023438 55.800781 181.199219 59.101562 182.925781 62.699219 C 184.726562 66.375 185.851562 69.898438 187.050781 74.324219 C 188.625 80.023438 190.199219 87.523438 190.800781 94.273438 C 191.476562 101.023438 191.925781 111.675781 190.800781 114.75 C 190.425781 115.800781 189.898438 116.175781 189.226562 116.550781 C 188.625 117 187.648438 117.226562 186.898438 117.148438 C 186.148438 117.074219 185.25 116.625 184.726562 116.101562 C 184.199219 115.574219 183.75 114.75 183.601562 114 C 183.449219 113.25 183.523438 112.351562 183.976562 111.675781 C 184.5 110.851562 185.851562 109.800781 186.824219 109.648438 C 187.875 109.574219 189.449219 110.25 190.125 110.925781 C 190.726562 111.523438 190.949219 112.425781 191.023438 113.175781 C 191.101562 113.925781 190.800781 114.824219 190.425781 115.5 C 189.976562 116.101562 189.226562 116.699219 188.476562 116.925781 C 187.800781 117.148438 186.824219 117.148438 186.148438 116.925781 C 185.398438 116.699219 184.726562 116.476562 184.199219 115.5 C 182.625 112.574219 184.125 100.875 183.226562 93.523438 C 182.175781 85.949219 180.675781 77.25 178.273438 70.726562 C 176.324219 65.476562 173.625 61.425781 170.773438 57.148438 C 168 52.875 162.226562 47.699219 161.476562 45.074219 C 161.175781 43.949219 161.550781 43.125 161.851562 42.449219 C 162.148438 41.851562 162.523438 41.398438 163.050781 41.101562 C 163.726562 40.726562 164.851562 40.351562 165.675781 40.5 C 166.5 40.574219 168 41.773438 168 41.773438 "/></clipPath><clipPath id="68b9461bec"><path d="M 183.214844 77.765625 L 264.539062 77.765625 L 264.539062 114.835938 L 183.214844 114.835938 Z M 183.214844 77.765625 "/></clipPath><clipPath id="9d943bc28f"><path d="M 189.300781 78.523438 C 209.625 91.949219 217.949219 95.476562 225.074219 98.175781 C 231.449219 100.574219 237.449219 102.375 243.75 103.949219 C 249.976562 105.601562 260.175781 106.125 262.800781 107.851562 C 263.699219 108.375 264 109.050781 264.226562 109.726562 C 264.449219 110.476562 264.449219 111.449219 264.148438 112.125 C 263.925781 112.875 263.324219 113.625 262.726562 114 C 262.050781 114.449219 261.148438 114.675781 260.398438 114.601562 C 259.648438 114.601562 258.75 114.300781 258.148438 113.699219 C 257.476562 113.023438 256.800781 111.449219 256.949219 110.398438 C 257.023438 109.351562 258.148438 108.074219 258.976562 107.550781 C 259.648438 107.101562 260.550781 107.023438 261.300781 107.175781 C 262.050781 107.324219 262.875 107.773438 263.398438 108.375 C 263.925781 108.898438 264.300781 109.800781 264.375 110.550781 C 264.449219 111.300781 264.300781 112.199219 263.851562 112.875 C 263.25 113.625 262.273438 114.375 260.773438 114.601562 C 257.398438 115.199219 249.449219 113.101562 243.300781 111.601562 C 236.175781 109.875 228 107.25 220.648438 104.398438 C 213.226562 101.625 205.351562 98.175781 199.050781 94.574219 C 193.648438 91.425781 186.976562 86.773438 184.800781 84.523438 C 183.976562 83.550781 183.523438 83.023438 183.375 82.273438 C 183.226562 81.449219 183.375 80.324219 183.824219 79.648438 C 184.199219 78.898438 185.023438 78.148438 185.851562 77.925781 C 186.824219 77.699219 189.300781 78.523438 189.300781 78.523438 "/></clipPath><clipPath id="4224d9b73b"><path d="M 110.589844 80.515625 L 188.640625 80.515625 L 188.640625 107.285156 L 110.589844 107.285156 Z M 110.589844 80.515625 "/></clipPath><clipPath id="3957d82bfa"><path d="M 114.375 99.300781 C 151.726562 98.398438 162.375 95.773438 167.023438 94.726562 C 169.050781 94.273438 169.726562 94.199219 171.226562 93.523438 C 173.25 92.699219 176.175781 91.425781 177.976562 89.550781 C 179.851562 87.601562 180.601562 83.324219 181.949219 81.976562 C 182.625 81.226562 183.226562 80.851562 183.976562 80.699219 C 184.726562 80.550781 185.699219 80.625 186.375 80.925781 C 187.050781 81.300781 187.726562 81.898438 188.101562 82.574219 C 188.476562 83.25 188.625 84.226562 188.476562 84.976562 C 188.398438 85.726562 188.023438 86.550781 187.425781 87.074219 C 186.601562 87.675781 185.023438 88.273438 183.976562 88.050781 C 183 87.824219 181.726562 86.699219 181.351562 85.800781 C 180.976562 84.824219 181.125 83.101562 181.726562 82.273438 C 182.25 81.449219 183.824219 80.699219 184.800781 80.625 C 185.625 80.550781 186.449219 80.851562 187.050781 81.375 C 187.800781 82.050781 188.550781 83.25 188.550781 84.601562 C 188.550781 86.699219 186 90.976562 184.648438 93.074219 C 183.824219 94.425781 183.449219 95.101562 182.175781 96.148438 C 179.851562 97.949219 175.5 100.050781 171.148438 101.550781 C 165.601562 103.5 156.449219 105 151.273438 105.824219 C 148.125 106.351562 146.925781 106.5 143.550781 106.726562 C 136.949219 107.101562 118.726562 107.550781 114.375 106.800781 C 113.101562 106.574219 112.5 106.425781 111.898438 105.824219 C 111.226562 105.148438 110.625 103.574219 110.699219 102.601562 C 110.699219 101.699219 111.300781 100.800781 111.898438 100.199219 C 112.5 99.675781 114.375 99.300781 114.375 99.300781 "/></clipPath><clipPath id="9c8315f2e5"><path d="M 195.480469 64.25 L 256.636719 64.25 L 256.636719 92.144531 L 195.480469 92.144531 Z M 195.480469 64.25 "/></clipPath><clipPath id="b3bc829558"><path d="M 196.125 86.324219 C 205.125 75.824219 209.023438 73.199219 212.101562 71.324219 C 214.648438 69.675781 216.898438 68.476562 219.523438 67.425781 C 222.226562 66.375 224.773438 65.625 228.074219 65.101562 C 232.5 64.425781 239.324219 63.976562 243.675781 64.5 C 246.824219 64.800781 249.675781 65.699219 251.851562 66.601562 C 253.351562 67.273438 254.773438 67.949219 255.523438 69 C 256.273438 69.976562 256.574219 71.476562 256.5 72.75 C 256.425781 74.023438 255.601562 75.601562 254.851562 76.800781 C 254.175781 77.851562 253.050781 78.375 252.226562 79.425781 C 251.25 80.851562 250.648438 83.550781 249.449219 84.601562 C 248.476562 85.425781 247.125 85.949219 246.148438 85.875 C 245.398438 85.875 244.5 85.5 243.976562 84.898438 C 243.375 84.148438 242.699219 82.574219 242.851562 81.601562 C 243 80.550781 244.050781 79.199219 245.023438 78.75 C 245.925781 78.375 247.648438 78.449219 248.476562 78.976562 C 249.375 79.5 250.199219 81 250.351562 81.976562 C 250.425781 82.800781 250.125 83.625 249.675781 84.300781 C 249.226562 84.898438 248.476562 85.5 247.800781 85.726562 C 247.050781 85.949219 246.074219 85.949219 245.398438 85.726562 C 244.648438 85.5 243.898438 84.898438 243.449219 84.300781 C 243.074219 83.625 242.699219 82.949219 242.851562 81.976562 C 243 80.324219 244.726562 76.726562 246.074219 75.375 C 247.125 74.398438 249.601562 74.324219 249.523438 73.800781 C 249.523438 73.125 244.949219 72.300781 242.175781 72 C 238.648438 71.625 233.550781 71.925781 230.023438 72.449219 C 227.25 72.824219 225.074219 73.351562 222.675781 74.25 C 220.273438 75.148438 218.175781 76.273438 215.773438 77.851562 C 212.773438 79.726562 208.875 82.648438 206.175781 85.199219 C 203.925781 87.300781 202.050781 91.050781 200.550781 91.800781 C 199.875 92.175781 199.351562 92.101562 198.75 91.949219 C 198 91.800781 197.023438 91.273438 196.5 90.601562 C 195.976562 89.925781 195.675781 88.875 195.601562 88.050781 C 195.601562 87.449219 196.125 86.324219 196.125 86.324219 "/></clipPath><clipPath id="484c7931b7"><path d="M 242.734375 78.332031 L 297.738281 78.332031 L 297.738281 129.34375 L 242.734375 129.34375 Z M 242.734375 78.332031 "/></clipPath><clipPath id="3ae3e61177"><path d="M 246.601562 78.449219 C 260.101562 80.324219 264.375 81.976562 267.601562 83.398438 C 270.300781 84.601562 272.550781 85.726562 274.648438 87.300781 C 276.824219 88.875 278.476562 90.601562 280.425781 92.773438 C 282.898438 95.324219 285.675781 98.773438 287.925781 102 C 290.175781 105.148438 292.5 108.601562 294 111.75 C 295.273438 114.449219 297.226562 117.976562 296.699219 119.625 C 296.398438 120.675781 294.148438 121.199219 294.226562 121.726562 C 294.300781 122.101562 295.875 122.023438 296.398438 122.625 C 297.074219 123.375 297.675781 124.949219 297.601562 125.925781 C 297.601562 126.75 297.074219 127.574219 296.550781 128.101562 C 296.023438 128.625 295.125 129.074219 294.375 129.148438 C 293.625 129.226562 292.726562 129.074219 292.050781 128.699219 C 291.375 128.324219 290.699219 127.648438 290.476562 126.898438 C 290.175781 126 290.324219 124.273438 290.773438 123.375 C 291.148438 122.699219 291.824219 122.101562 292.648438 121.875 C 293.550781 121.648438 295.273438 121.800781 296.101562 122.398438 C 296.925781 123 297.601562 124.574219 297.675781 125.550781 C 297.675781 126.375 297.375 127.199219 296.851562 127.800781 C 296.175781 128.476562 294.601562 129.449219 293.625 129.148438 C 292.125 128.699219 290.773438 125.101562 289.726562 122.851562 C 288.675781 120.601562 288.375 117.523438 287.476562 115.574219 C 286.875 114.074219 286.351562 113.476562 285.449219 111.976562 C 283.875 109.5 280.949219 104.925781 278.773438 102.074219 C 276.976562 99.824219 275.398438 98.023438 273.449219 96.300781 C 271.574219 94.5 269.25 92.550781 267.375 91.5 C 266.101562 90.75 265.351562 90.601562 263.773438 90 C 261.074219 88.949219 255.976562 86.925781 252.523438 86.25 C 249.75 85.648438 246.375 86.324219 244.800781 85.5 C 243.898438 85.050781 243.375 84.300781 243.074219 83.476562 C 242.773438 82.726562 242.773438 81.601562 243.074219 80.851562 C 243.375 80.101562 244.199219 79.273438 244.800781 78.824219 C 245.398438 78.523438 246.601562 78.449219 246.601562 78.449219 "/></clipPath><clipPath id="4e9d778df2"><path d="M 255.820312 117.566406 L 297.644531 117.566406 L 297.644531 138.425781 L 255.820312 138.425781 Z M 255.820312 117.566406 "/></clipPath><clipPath id="12174d81da"><path d="M 297.601562 121.273438 C 296.925781 128.550781 296.476562 129.375 294.75 130.425781 C 289.875 133.351562 265.125 138.148438 260.324219 138.375 C 259.050781 138.449219 258.601562 138.449219 257.925781 138.074219 C 257.25 137.773438 256.574219 137.175781 256.273438 136.425781 C 255.898438 135.523438 255.824219 133.800781 256.351562 132.898438 C 256.875 132 258.300781 131.101562 259.273438 130.949219 C 260.324219 130.875 261.898438 131.550781 262.5 132.375 C 263.175781 133.199219 263.476562 134.851562 263.175781 135.824219 C 262.875 136.800781 261.675781 138 260.699219 138.300781 C 259.726562 138.601562 258.074219 138.300781 257.25 137.625 C 256.425781 137.023438 255.898438 135.375 255.898438 134.398438 C 255.898438 133.648438 256.351562 132.75 256.800781 132.226562 C 257.324219 131.625 257.773438 131.476562 258.898438 131.023438 C 262.199219 129.824219 274.351562 128.175781 279.449219 126.824219 C 282.523438 126 284.851562 125.324219 286.800781 124.5 C 288.148438 123.898438 289.5 123.601562 290.101562 122.699219 C 290.699219 121.875 290.101562 120.375 290.550781 119.550781 C 291 118.800781 291.75 118.050781 292.574219 117.75 C 293.476562 117.449219 295.125 117.601562 296.023438 118.199219 C 296.851562 118.800781 297.601562 121.273438 297.601562 121.273438 "/></clipPath><clipPath id="31ed69a70c"><path d="M 192.542969 80.644531 L 205.558594 80.644531 L 205.558594 119.691406 L 192.542969 119.691406 Z M 192.542969 80.644531 "/></clipPath><clipPath id="3e828b119d"><path d="M 195.148438 116.324219 C 192.523438 100.050781 192.449219 97.050781 192.675781 94.875 C 192.898438 93.375 193.199219 92.476562 193.648438 91.199219 C 194.101562 89.851562 194.550781 88.351562 195.375 86.851562 C 196.5 85.050781 198.300781 81.976562 199.875 81.148438 C 201 80.625 202.425781 80.550781 203.398438 81 C 204.300781 81.449219 205.351562 82.800781 205.5 83.773438 C 205.648438 84.824219 205.050781 86.398438 204.375 87.148438 C 203.851562 87.75 202.949219 88.050781 202.199219 88.125 C 201.449219 88.199219 200.476562 88.050781 199.875 87.601562 C 199.050781 87 198.148438 85.574219 198.074219 84.601562 C 197.925781 83.773438 198.300781 82.875 198.675781 82.273438 C 199.125 81.675781 199.800781 81 200.625 80.851562 C 201.601562 80.625 203.25 80.851562 204.074219 81.375 C 204.75 81.824219 205.199219 82.648438 205.425781 83.398438 C 205.648438 84.148438 205.574219 84.898438 205.273438 85.800781 C 204.824219 87.148438 202.726562 89.023438 201.898438 90.601562 C 201.226562 91.949219 200.773438 93.148438 200.476562 94.425781 C 200.175781 95.699219 200.023438 96.523438 200.101562 98.324219 C 200.101562 102.226562 203.324219 114.226562 202.351562 117.226562 C 201.976562 118.351562 201.300781 118.875 200.625 119.25 C 199.875 119.625 198.75 119.773438 197.925781 119.550781 C 197.175781 119.324219 196.199219 118.648438 195.75 118.050781 C 195.375 117.523438 195.148438 116.324219 195.148438 116.324219 "/></clipPath><clipPath id="41a41b7293"><path d="M 77.238281 102.136719 L 120.671875 102.136719 L 120.671875 130.078125 L 77.238281 130.078125 Z M 77.238281 102.136719 "/></clipPath><clipPath id="26f7557a00"><path d="M 116.625 130.050781 C 104.398438 127.125 102.601562 126.375 99.75 124.875 C 95.398438 122.550781 86.925781 116.625 83.625 114.074219 C 82.125 112.800781 81.375 112.273438 80.398438 111.148438 C 79.273438 109.800781 77.550781 107.699219 77.324219 106.351562 C 77.175781 105.449219 77.476562 104.625 77.851562 104.023438 C 78.226562 103.351562 78.976562 102.75 79.648438 102.449219 C 80.398438 102.148438 81.375 102.148438 82.050781 102.300781 C 82.800781 102.523438 83.625 102.976562 84.074219 103.648438 C 84.601562 104.476562 84.976562 106.125 84.601562 107.101562 C 84.300781 108.148438 82.949219 109.199219 82.050781 109.574219 C 81.300781 109.800781 80.398438 109.800781 79.648438 109.425781 C 78.824219 108.976562 77.625 107.699219 77.398438 106.726562 C 77.175781 105.75 77.625 104.101562 78.375 103.351562 C 79.050781 102.601562 80.398438 102 81.675781 102.226562 C 84.074219 102.75 87.75 107.851562 90.976562 110.324219 C 94.125 112.648438 97.351562 114.824219 100.726562 116.699219 C 104.175781 118.648438 108.074219 120.449219 111.449219 121.648438 C 114.300781 122.625 118.125 122.550781 119.476562 123.675781 C 120.226562 124.351562 120.449219 125.324219 120.601562 126.148438 C 120.675781 126.75 120.449219 127.351562 120.226562 127.875 C 120 128.398438 119.625 128.925781 119.175781 129.300781 C 118.5 129.75 116.625 130.050781 116.625 130.050781 "/></clipPath><clipPath id="82ce6a7ef8"><path d="M 77.328125 75.003906 L 136.765625 75.003906 L 136.765625 109.871094 L 77.328125 109.871094 Z M 77.328125 75.003906 "/></clipPath><clipPath id="4e0eedd24f"><path d="M 77.476562 104.925781 C 81.300781 97.800781 84.601562 94.125 87.523438 91.574219 C 90.449219 88.949219 93.898438 86.851562 97.273438 84.824219 C 100.648438 82.726562 104.101562 80.625 107.773438 79.125 C 111.523438 77.550781 115.949219 76.199219 119.398438 75.601562 C 122.175781 75.074219 124.351562 75 126.976562 75.148438 C 129.75 75.300781 134.023438 75.375 135.523438 76.574219 C 136.425781 77.398438 136.800781 78.898438 136.574219 79.949219 C 136.425781 81 135.375 82.273438 134.398438 82.726562 C 133.5 83.175781 131.773438 83.023438 130.949219 82.5 C 130.050781 81.898438 129.300781 80.398438 129.148438 79.425781 C 129.074219 78.675781 129.375 77.773438 129.824219 77.175781 C 130.273438 76.5 131.023438 75.976562 131.773438 75.75 C 132.449219 75.523438 133.425781 75.449219 134.101562 75.75 C 135 76.125 136.199219 77.398438 136.5 78.375 C 136.800781 79.125 136.648438 80.023438 136.351562 80.699219 C 136.050781 81.449219 135.449219 82.125 134.773438 82.5 C 134.101562 82.949219 133.199219 83.101562 132.449219 83.023438 C 131.699219 82.949219 131.324219 82.125 130.273438 81.976562 C 127.875 81.601562 121.5 82.800781 117.824219 83.625 C 114.824219 84.375 112.351562 85.351562 109.800781 86.476562 C 107.324219 87.523438 105.226562 88.648438 102.75 90.226562 C 99.675781 92.023438 95.925781 94.125 92.699219 96.976562 C 89.023438 100.351562 84.523438 108.300781 82.273438 109.5 C 81.523438 109.875 81.148438 109.800781 80.476562 109.648438 C 79.726562 109.5 78.675781 109.050781 78.148438 108.375 C 77.625 107.550781 77.476562 104.925781 77.476562 104.925781 "/></clipPath><clipPath id="06b0f9a917"><path d="M 124.230469 62.5 L 176.449219 62.5 L 176.449219 123.121094 L 124.230469 123.121094 Z M 124.230469 62.5 "/></clipPath><clipPath id="058aef9be7"><path d="M 129.449219 81 C 123.824219 67.949219 123.976562 66.675781 124.648438 65.773438 C 125.25 64.800781 126.300781 64.199219 127.800781 63.675781 C 130.949219 62.699219 138.601562 62.25 143.25 62.773438 C 147.300781 63.226562 151.273438 64.648438 154.425781 65.925781 C 157.125 66.976562 159.300781 68.101562 161.324219 69.601562 C 163.351562 71.101562 164.925781 72.898438 166.648438 75.074219 C 168.898438 77.773438 171.675781 81.824219 173.175781 85.050781 C 174.449219 87.601562 175.273438 89.699219 175.800781 92.550781 C 176.398438 96.074219 176.476562 101.023438 176.101562 104.550781 C 175.726562 107.398438 175.050781 109.425781 174.074219 112.050781 C 172.875 115.199219 170.773438 120.601562 169.125 122.101562 C 168.375 122.773438 167.699219 123 166.949219 123 C 165.976562 123 164.398438 122.324219 163.726562 121.574219 C 163.199219 120.976562 162.898438 120.074219 162.898438 119.324219 C 162.898438 118.574219 163.199219 117.675781 163.648438 117.074219 C 164.101562 116.476562 164.925781 115.875 165.601562 115.648438 C 166.351562 115.5 167.324219 115.425781 168 115.800781 C 168.898438 116.175781 170.101562 117.449219 170.324219 118.425781 C 170.550781 119.476562 170.101562 121.050781 169.425781 121.800781 C 168.75 122.550781 167.101562 123.074219 166.125 123 C 165.300781 122.925781 164.476562 122.476562 163.949219 121.875 C 163.351562 121.125 162.898438 119.925781 162.976562 118.5 C 163.199219 116.023438 166.574219 111.074219 167.476562 108.449219 C 168 106.875 168.226562 106.050781 168.449219 104.476562 C 168.75 102.226562 168.976562 98.773438 168.675781 96.148438 C 168.375 93.523438 167.773438 91.199219 166.574219 88.574219 C 165.148438 85.5 162 81.226562 160.199219 78.976562 C 159.148438 77.625 158.699219 76.949219 157.425781 76.050781 C 155.773438 74.773438 153.074219 73.5 150.675781 72.601562 C 148.351562 71.625 145.800781 70.726562 143.25 70.425781 C 140.773438 70.125 137.550781 71.101562 135.523438 70.726562 C 134.023438 70.425781 132.300781 68.699219 131.925781 69.074219 C 131.476562 69.449219 132.601562 71.699219 133.199219 73.050781 C 133.949219 74.550781 135.675781 76.199219 136.125 77.625 C 136.5 78.523438 136.574219 79.5 136.425781 80.25 C 136.273438 80.851562 136.050781 81.375 135.601562 81.824219 C 135 82.351562 134.023438 82.949219 133.199219 83.023438 C 132.375 83.101562 131.25 82.726562 130.648438 82.351562 C 130.125 82.050781 129.449219 81 129.449219 81 "/></clipPath><clipPath id="6d58ba7e74"><path d="M 126.222656 64.476562 L 157.804688 64.476562 L 157.804688 74.660156 L 126.222656 74.660156 Z M 126.222656 64.476562 "/></clipPath><clipPath id="57c8decc49"><path d="M 129.898438 64.875 C 146.324219 64.273438 148.949219 64.425781 151.351562 65.25 C 153.601562 66.148438 156.601562 67.648438 157.425781 69.148438 C 157.949219 70.199219 157.875 71.773438 157.351562 72.675781 C 156.824219 73.574219 155.324219 74.398438 154.425781 74.550781 C 153.601562 74.699219 152.699219 74.476562 152.101562 74.023438 C 151.273438 73.425781 150.449219 71.925781 150.300781 70.949219 C 150.226562 70.199219 150.449219 69.300781 150.976562 68.699219 C 151.648438 67.949219 153.148438 67.125 154.125 67.125 C 154.949219 67.050781 155.773438 67.425781 156.375 67.875 C 156.976562 68.398438 157.574219 69.148438 157.726562 69.898438 C 157.875 70.875 157.425781 72.523438 156.898438 73.351562 C 156.375 73.949219 155.699219 74.398438 154.800781 74.550781 C 153.074219 74.699219 150.375 72.375 147.226562 71.851562 C 142.351562 71.101562 131.023438 73.199219 128.175781 71.925781 C 127.125 71.476562 126.675781 70.726562 126.449219 69.976562 C 126.148438 69.148438 126.148438 68.023438 126.449219 67.273438 C 126.675781 66.523438 127.5 65.699219 128.175781 65.324219 C 128.699219 64.949219 129.898438 64.875 129.898438 64.875 "/></clipPath></defs><g id="6a1b710908"><g clip-rule="nonzero" clip-path="url(#3fbf529fb1)"><g clip-rule="nonzero" clip-path="url(#6d6bdefb72)"><path style=" stroke:none;fill-rule:nonzero;fill:currentColor;fill-opacity:1;" d="M 111.375 106.726562 L 173.175781 106.726562 L 173.175781 176.007812 L 111.375 176.007812 Z M 111.375 106.726562 "/></g></g><g clip-rule="nonzero" clip-path="url(#376faf1ca3)"><g clip-rule="nonzero" clip-path="url(#78d0a57cd5)"><path style=" stroke:none;fill-rule:nonzero;fill:currentColor;fill-opacity:1;" d="M 88.125 134.476562 L 130.648438 134.476562 L 130.648438 201.085938 L 88.125 201.085938 Z M 88.125 134.476562 "/></g></g><g clip-rule="nonzero" clip-path="url(#fadfe53725)"><g clip-rule="nonzero" clip-path="url(#5fed227642)"><path style=" stroke:none;fill-rule:nonzero;fill:currentColor;fill-opacity:1;" d="M 120.824219 164.25 L 190.714844 164.25 L 190.714844 225.523438 L 120.824219 225.523438 Z M 120.824219 164.25 "/></g></g><g clip-rule="nonzero" clip-path="url(#ba77ea6868)"><g clip-rule="nonzero" clip-path="url(#1361316b35)"><path style=" stroke:none;fill-rule:nonzero;fill:currentColor;fill-opacity:1;" d="M 98.625 189.375 L 160.648438 189.375 L 160.648438 253.097656 L 98.625 253.097656 Z M 98.625 189.375 "/></g></g><g clip-rule="nonzero" clip-path="url(#0c2d9c9298)"><g clip-rule="nonzero" clip-path="url(#b41491a9a8)"><path style=" stroke:none;fill-rule:nonzero;fill:currentColor;fill-opacity:1;" d="M 176.324219 173.625 L 189.824219 173.625 L 189.824219 191.976562 L 176.324219 191.976562 Z M 176.324219 173.625 "/></g></g><g clip-rule="nonzero" clip-path="url(#0fa053e589)"><g clip-rule="nonzero" clip-path="url(#0b17adad37)"><path style=" stroke:none;fill-rule:nonzero;fill:currentColor;fill-opacity:1;" d="M 150.074219 111.898438 L 209.699219 111.898438 L 209.699219 184.566406 L 150.074219 184.566406 Z M 150.074219 111.898438 "/></g></g><g clip-rule="nonzero" clip-path="url(#e6e2772027)"><g clip-rule="nonzero" clip-path="url(#6d03bde646)"><path style=" stroke:none;fill-rule:nonzero;fill:currentColor;fill-opacity:1;" d="M 168.523438 109.648438 L 223.648438 109.648438 L 223.648438 183.078125 L 168.523438 183.078125 Z M 168.523438 109.648438 "/></g></g><g clip-rule="nonzero" clip-path="url(#330fe322bf)"><g clip-rule="nonzero" clip-path="url(#393874459a)"><path style=" stroke:none;fill-rule:nonzero;fill:currentColor;fill-opacity:1;" d="M 205.125 112.648438 L 267.484375 112.648438 L 267.484375 153.898438 L 205.125 153.898438 Z M 205.125 112.648438 "/></g></g><g clip-rule="nonzero" clip-path="url(#d5417bdc3b)"><g clip-rule="nonzero" clip-path="url(#8e4876c259)"><path style=" stroke:none;fill-rule:nonzero;fill:currentColor;fill-opacity:1;" d="M 205.273438 140.550781 L 267.8125 140.550781 L 267.8125 180.675781 L 205.273438 180.675781 Z M 205.273438 140.550781 "/></g></g><g clip-rule="nonzero" clip-path="url(#2b365600f9)"><g clip-rule="nonzero" clip-path="url(#c4c4d85542)"><path style=" stroke:none;fill-rule:nonzero;fill:currentColor;fill-opacity:1;" d="M 177.375 168.300781 L 246.226562 168.300781 L 246.226562 221.550781 L 177.375 221.550781 Z M 177.375 168.300781 "/></g></g><g clip-rule="nonzero" clip-path="url(#91c1137d6e)"><g clip-rule="nonzero" clip-path="url(#4d016b5fba)"><path style=" stroke:none;fill-rule:nonzero;fill:currentColor;fill-opacity:1;" d="M 233.25 166.425781 L 286.355469 166.425781 L 286.355469 207.375 L 233.25 207.375 Z M 233.25 166.425781 "/></g></g><g clip-rule="nonzero" clip-path="url(#c7adf5207a)"><g clip-rule="nonzero" clip-path="url(#1b07399541)"><path style=" stroke:none;fill-rule:nonzero;fill:currentColor;fill-opacity:1;" d="M 256.050781 140.773438 L 286.574219 140.773438 L 286.574219 184.894531 L 256.050781 184.894531 Z M 256.050781 140.773438 "/></g></g><g clip-rule="nonzero" clip-path="url(#4af739b6bb)"><g clip-rule="nonzero" clip-path="url(#fbc5377e76)"><path style=" stroke:none;fill-rule:nonzero;fill:currentColor;fill-opacity:1;" d="M 237.976562 194.773438 L 268.273438 194.773438 L 268.273438 255.375 L 237.976562 255.375 Z M 237.976562 194.773438 "/></g></g><g clip-rule="nonzero" clip-path="url(#eef7ac594b)"><g clip-rule="nonzero" clip-path="url(#71f2659299)"><path style=" stroke:none;fill-rule:nonzero;fill:currentColor;fill-opacity:1;" d="M 203.550781 231.300781 L 254.367188 231.300781 L 254.367188 257.476562 L 203.550781 257.476562 Z M 203.550781 231.300781 "/></g></g><g clip-rule="nonzero" clip-path="url(#89f5658074)"><g clip-rule="nonzero" clip-path="url(#9526077100)"><path style=" stroke:none;fill-rule:nonzero;fill:currentColor;fill-opacity:1;" d="M 163.574219 209.324219 L 217.550781 209.324219 L 217.550781 258.148438 L 163.574219 258.148438 Z M 163.574219 209.324219 "/></g></g><g clip-rule="nonzero" clip-path="url(#f9f684ee46)"><g clip-rule="nonzero" clip-path="url(#aff6653ace)"><path style=" stroke:none;fill-rule:nonzero;fill:currentColor;fill-opacity:1;" d="M 145.5 213.976562 L 179.175781 213.976562 L 179.175781 256.332031 L 145.5 256.332031 Z M 145.5 213.976562 "/></g></g><g clip-rule="nonzero" clip-path="url(#9b250d890b)"><g clip-rule="nonzero" clip-path="url(#4dd1bf35f7)"><path style=" stroke:none;fill-rule:nonzero;fill:currentColor;fill-opacity:1;" d="M 125.101562 242.101562 L 175.273438 242.101562 L 175.273438 297.957031 L 125.101562 297.957031 Z M 125.101562 242.101562 "/></g></g><g clip-rule="nonzero" clip-path="url(#8c19b2a134)"><g clip-rule="nonzero" clip-path="url(#25292523a4)"><path style=" stroke:none;fill-rule:nonzero;fill:currentColor;fill-opacity:1;" d="M 158.550781 244.875 L 195.898438 244.875 L 195.898438 297.980469 L 158.550781 297.980469 Z M 158.550781 244.875 "/></g></g><g clip-rule="nonzero" clip-path="url(#0b48370e7f)"><g clip-rule="nonzero" clip-path="url(#7d824fa02a)"><path style=" stroke:none;fill-rule:nonzero;fill:currentColor;fill-opacity:1;" d="M 181.125 244.273438 L 195.375 244.273438 L 195.375 265.929688 L 181.125 265.929688 Z M 181.125 244.273438 "/></g></g><g clip-rule="nonzero" clip-path="url(#53b2685d48)"><g clip-rule="nonzero" clip-path="url(#3bb6b752d2)"><path style=" stroke:none;fill-rule:nonzero;fill:currentColor;fill-opacity:1;" d="M 175.800781 246.523438 L 239.097656 246.523438 L 239.097656 300.898438 L 175.800781 300.898438 Z M 175.800781 246.523438 "/></g></g><g clip-rule="nonzero" clip-path="url(#ce2b87fc5c)"><g clip-rule="nonzero" clip-path="url(#a396e1e0a3)"><path style=" stroke:none;fill-rule:nonzero;fill:currentColor;fill-opacity:1;" d="M 149.25 287.625 L 219.460938 287.625 L 219.460938 334.800781 L 149.25 334.800781 Z M 149.25 287.625 "/></g></g><g clip-rule="nonzero" clip-path="url(#c87e122e52)"><g clip-rule="nonzero" clip-path="url(#6d1138f806)"><path style=" stroke:none;fill-rule:nonzero;fill:currentColor;fill-opacity:1;" d="M 158.476562 37.5 L 194.023438 37.5 L 194.023438 120.125 L 158.476562 120.125 Z M 158.476562 37.5 "/></g></g><g clip-rule="nonzero" clip-path="url(#68b9461bec)"><g clip-rule="nonzero" clip-path="url(#9d943bc28f)"><path style=" stroke:none;fill-rule:nonzero;fill:currentColor;fill-opacity:1;" d="M 180.375 74.925781 L 267.378906 74.925781 L 267.378906 117.675781 L 180.375 117.675781 Z M 180.375 74.925781 "/></g></g><g clip-rule="nonzero" clip-path="url(#4224d9b73b)"><g clip-rule="nonzero" clip-path="url(#3957d82bfa)"><path style=" stroke:none;fill-rule:nonzero;fill:currentColor;fill-opacity:1;" d="M 107.699219 77.625 L 191.65625 77.625 L 191.65625 109.800781 L 107.699219 109.800781 Z M 107.699219 77.625 "/></g></g><g clip-rule="nonzero" clip-path="url(#9c8315f2e5)"><g clip-rule="nonzero" clip-path="url(#b3bc829558)"><path style=" stroke:none;fill-rule:nonzero;fill:currentColor;fill-opacity:1;" d="M 192.601562 61.5 L 259.519531 61.5 L 259.519531 95.023438 L 192.601562 95.023438 Z M 192.601562 61.5 "/></g></g><g clip-rule="nonzero" clip-path="url(#484c7931b7)"><g clip-rule="nonzero" clip-path="url(#3ae3e61177)"><path style=" stroke:none;fill-rule:nonzero;fill:currentColor;fill-opacity:1;" d="M 240.074219 75.449219 L 300.621094 75.449219 L 300.621094 132.226562 L 240.074219 132.226562 Z M 240.074219 75.449219 "/></g></g><g clip-rule="nonzero" clip-path="url(#4e9d778df2)"><g clip-rule="nonzero" clip-path="url(#12174d81da)"><path style=" stroke:none;fill-rule:nonzero;fill:currentColor;fill-opacity:1;" d="M 252.898438 114.75 L 300.667969 114.75 L 300.667969 141.449219 L 252.898438 141.449219 Z M 252.898438 114.75 "/></g></g><g clip-rule="nonzero" clip-path="url(#31ed69a70c)"><g clip-rule="nonzero" clip-path="url(#3e828b119d)"><path style=" stroke:none;fill-rule:nonzero;fill:currentColor;fill-opacity:1;" d="M 189.675781 77.851562 L 208.5 77.851562 L 208.5 122.632812 L 189.675781 122.632812 Z M 189.675781 77.851562 "/></g></g><g clip-rule="nonzero" clip-path="url(#41a41b7293)"><g clip-rule="nonzero" clip-path="url(#26f7557a00)"><path style=" stroke:none;fill-rule:nonzero;fill:currentColor;fill-opacity:1;" d="M 74.324219 99.226562 L 123.585938 99.226562 L 123.585938 133.125 L 74.324219 133.125 Z M 74.324219 99.226562 "/></g></g><g clip-rule="nonzero" clip-path="url(#82ce6a7ef8)"><g clip-rule="nonzero" clip-path="url(#4e0eedd24f)"><path style=" stroke:none;fill-rule:nonzero;fill:currentColor;fill-opacity:1;" d="M 74.476562 72.148438 L 139.617188 72.148438 L 139.617188 112.726562 L 74.476562 112.726562 Z M 74.476562 72.148438 "/></g></g><g clip-rule="nonzero" clip-path="url(#06b0f9a917)"><g clip-rule="nonzero" clip-path="url(#058aef9be7)"><path style=" stroke:none;fill-rule:nonzero;fill:currentColor;fill-opacity:1;" d="M 121.050781 59.773438 L 179.175781 59.773438 L 179.175781 126.074219 L 121.050781 126.074219 Z M 121.050781 59.773438 "/></g></g><g clip-rule="nonzero" clip-path="url(#6d58ba7e74)"><g clip-rule="nonzero" clip-path="url(#57c8decc49)"><path style=" stroke:none;fill-rule:nonzero;fill:currentColor;fill-opacity:1;" d="M 123.449219 61.125 L 160.703125 61.125 L 160.703125 77.625 L 123.449219 77.625 Z M 123.449219 61.125 "/></g></g></g></svg>