<svg xmlns="http://www.w3.org/2000/svg" xmlns:xlink="http://www.w3.org/1999/xlink" width="500" zoomAndPan="magnify" viewBox="0 0 375 374.999991" height="500" preserveAspectRatio="xMidYMid meet" version="1.2"><defs><clipPath id="7dea5e94b3"><path d="M 40.304688 164.167969 L 94.542969 164.167969 L 94.542969 269.839844 L 40.304688 269.839844 Z M 40.304688 164.167969 "/></clipPath><clipPath id="df0c19f850"><path d="M 41.175781 263.664062 C 50.175781 256.386719 52.351562 256.386719 55.5 255.9375 C 60.449219 255.335938 72.074219 256.988281 75.226562 255.113281 C 76.648438 254.210938 76.726562 253.011719 77.324219 251.363281 C 78.375 248.585938 78.75 244.6875 79.5 239.363281 C 81 228.710938 83.625 204.113281 84.523438 191.585938 C 85.199219 183.488281 84.601562 176.0625 85.5 171.5625 C 85.949219 169.164062 86.476562 167.363281 87.300781 166.164062 C 87.898438 165.335938 88.574219 164.738281 89.398438 164.511719 C 90.375 164.289062 92.023438 164.511719 92.851562 165.113281 C 93.675781 165.789062 94.199219 167.585938 94.273438 168.335938 C 94.351562 168.710938 94.351562 168.863281 94.125 169.164062 C 93.523438 169.914062 90.375 171.636719 89.324219 171.636719 C 88.875 171.636719 88.574219 171.414062 88.273438 171.113281 C 87.75 170.664062 87.148438 169.835938 86.925781 169.085938 C 86.699219 168.335938 86.699219 167.4375 87.074219 166.6875 C 87.449219 165.863281 88.726562 164.664062 89.699219 164.4375 C 90.75 164.210938 92.398438 164.664062 93.148438 165.335938 C 93.898438 166.085938 94.351562 167.738281 94.199219 168.710938 C 94.199219 169.539062 93.675781 170.289062 93.074219 170.8125 C 92.550781 171.335938 91.726562 171.789062 90.898438 171.789062 C 90 171.863281 88.351562 171.1875 87.675781 170.511719 C 87.074219 169.914062 86.851562 169.011719 86.773438 168.261719 C 86.773438 167.511719 86.925781 166.613281 87.449219 166.011719 C 88.050781 165.261719 90.523438 164.289062 90.523438 164.363281 C 90.601562 164.4375 87.074219 167.136719 86.925781 166.988281 C 86.851562 166.914062 87.976562 165.335938 88.574219 164.886719 C 89.101562 164.511719 89.625 164.289062 90.300781 164.363281 C 91.199219 164.4375 92.851562 165.039062 93.449219 165.789062 C 94.050781 166.386719 94.273438 167.363281 94.273438 168.335938 C 94.273438 169.460938 93.300781 170.289062 93 172.085938 C 92.175781 176.0625 92.625 184.085938 92.023438 192.1875 C 91.050781 204.710938 88.5 228.335938 87 239.886719 C 86.101562 246.414062 85.425781 251.960938 84.523438 255.335938 C 84.074219 257.0625 84 258.113281 83.25 259.164062 C 82.351562 260.289062 80.699219 261.113281 79.351562 261.636719 C 78.148438 262.164062 77.476562 262.3125 75.675781 262.613281 C 71.175781 263.363281 56.625 262.011719 51.300781 264.113281 C 48.226562 265.386719 46.425781 269.136719 44.851562 269.664062 C 44.175781 269.886719 43.648438 269.738281 43.125 269.585938 C 42.375 269.289062 41.398438 268.613281 40.949219 267.9375 C 40.574219 267.261719 40.351562 266.0625 40.5 265.3125 C 40.574219 264.710938 41.175781 263.664062 41.175781 263.664062 "/></clipPath><clipPath id="d21e780d93"><path d="M 85.648438 150.769531 L 102.902344 150.769531 L 102.902344 177 L 85.648438 177 Z M 85.648438 150.769531 "/></clipPath><clipPath id="c8034e6c34"><path d="M 85.648438 173.210938 C 86.625 163.761719 89.324219 158.511719 90.976562 156.1875 C 91.875 154.835938 92.625 154.238281 93.75 153.414062 C 95.175781 152.4375 97.5 151.011719 98.851562 150.863281 C 99.75 150.789062 100.574219 151.011719 101.175781 151.460938 C 101.925781 152.136719 102.824219 153.5625 102.824219 154.613281 C 102.824219 155.664062 102.074219 157.085938 101.175781 157.6875 C 100.351562 158.289062 98.625 158.4375 97.726562 158.0625 C 96.75 157.6875 95.699219 156.335938 95.398438 155.4375 C 95.175781 154.6875 95.324219 153.710938 95.699219 153.039062 C 96 152.363281 96.675781 151.6875 97.351562 151.3125 C 97.949219 150.9375 98.925781 150.710938 99.675781 150.9375 C 100.648438 151.164062 102 152.210938 102.449219 153.039062 C 102.898438 153.710938 102.898438 154.6875 102.75 155.4375 C 102.601562 156.113281 102.148438 156.789062 101.476562 157.460938 C 100.574219 158.4375 98.25 159.261719 97.199219 160.386719 C 96.300781 161.363281 95.925781 162.636719 95.398438 163.761719 C 94.800781 164.960938 94.199219 165.863281 93.75 167.289062 C 93.074219 169.460938 93.226562 174.261719 92.175781 175.6875 C 91.574219 176.511719 90.601562 176.8125 89.851562 176.960938 C 89.175781 177.039062 88.574219 176.960938 88.050781 176.738281 C 87.523438 176.511719 86.925781 176.210938 86.550781 175.6875 C 86.101562 175.085938 85.648438 173.210938 85.648438 173.210938 "/></clipPath><clipPath id="cbf3b93612"><path d="M 95.269531 149.082031 L 190.375 149.082031 L 190.375 235.214844 L 95.269531 235.214844 Z M 95.269531 149.082031 "/></clipPath><clipPath id="446208339f"><path d="M 97.5 151.164062 C 103.648438 148.988281 105 148.988281 106.273438 149.289062 C 107.476562 149.585938 108.226562 149.8125 109.726562 150.9375 C 114.375 154.3125 124.574219 168.039062 134.398438 176.960938 C 146.625 188.136719 170.101562 203.511719 178.574219 211.761719 C 182.550781 215.585938 184.425781 217.835938 186.300781 221.210938 C 188.101562 224.289062 189.976562 228.9375 190.050781 231.113281 C 190.125 232.085938 189.898438 232.761719 189.449219 233.363281 C 188.773438 234.1875 187.273438 234.9375 186.300781 235.011719 C 185.550781 235.085938 184.648438 234.710938 184.050781 234.261719 C 183.449219 233.8125 182.925781 233.0625 182.699219 232.3125 C 182.476562 231.5625 182.550781 230.664062 182.851562 229.914062 C 183.074219 229.238281 183.675781 228.488281 184.351562 228.113281 C 185.25 227.664062 186.976562 227.585938 187.875 227.886719 C 188.625 228.1875 189.226562 228.863281 189.601562 229.539062 C 189.976562 230.210938 190.199219 231.113281 189.976562 231.863281 C 189.75 232.835938 188.699219 234.1875 187.875 234.710938 C 187.199219 235.085938 186.226562 235.085938 185.476562 234.9375 C 184.800781 234.789062 184.125 234.488281 183.449219 233.738281 C 181.949219 232.085938 180.824219 226.539062 179.023438 223.6875 C 177.601562 221.363281 176.699219 220.386719 174 217.761719 C 166.425781 210.414062 139.648438 192.261719 127.351562 180.789062 C 118.199219 172.238281 110.550781 158.136719 105.226562 156.710938 C 103.050781 156.039062 101.398438 158.289062 99.75 158.289062 C 98.550781 158.289062 97.199219 157.988281 96.449219 157.238281 C 95.699219 156.5625 95.175781 154.988281 95.398438 153.9375 C 95.550781 152.960938 97.5 151.164062 97.5 151.164062 "/></clipPath><clipPath id="e93ba83767"><path d="M 88.433594 158.820312 L 176.394531 158.820312 L 176.394531 248.613281 L 88.433594 248.613281 Z M 88.433594 158.820312 "/></clipPath><clipPath id="a998141999"><path d="M 92.476562 158.886719 C 102.898438 161.8125 105.898438 164.664062 108.824219 167.585938 C 112.273438 171.113281 115.875 175.914062 118.949219 180.414062 C 122.101562 184.988281 124.125 189.789062 127.351562 194.886719 C 131.101562 201.113281 136.125 209.0625 140.324219 214.761719 C 143.773438 219.488281 147.375 223.988281 150.300781 227.136719 C 152.324219 229.3125 153.675781 230.585938 155.851562 232.238281 C 158.625 234.335938 162.375 236.585938 165.675781 238.238281 C 168.898438 239.886719 174 240.636719 175.5 242.136719 C 176.175781 242.886719 176.25 243.636719 176.324219 244.386719 C 176.324219 245.136719 176.101562 246.113281 175.574219 246.710938 C 174.976562 247.460938 173.476562 248.289062 172.425781 248.210938 C 171.375 248.210938 169.949219 247.386719 169.351562 246.488281 C 168.824219 245.664062 168.824219 243.9375 169.125 243.039062 C 169.351562 242.210938 169.949219 241.539062 170.699219 241.238281 C 171.601562 240.789062 173.324219 240.789062 174.226562 241.164062 C 174.976562 241.460938 175.648438 242.0625 175.875 242.8125 C 176.25 243.710938 176.324219 245.4375 175.800781 246.335938 C 175.273438 247.238281 173.925781 247.988281 172.800781 248.210938 C 171.75 248.511719 170.550781 248.289062 169.125 247.988281 C 167.101562 247.460938 164.476562 246.113281 162 244.761719 C 158.925781 243.1875 155.324219 241.164062 152.25 238.835938 C 149.101562 236.4375 146.476562 234.039062 143.398438 230.664062 C 139.425781 226.164062 135.074219 220.386719 130.726562 214.011719 C 125.324219 205.988281 118.273438 192.863281 113.773438 186.113281 C 111.148438 182.136719 109.5 179.738281 107.023438 176.8125 C 104.398438 173.738281 100.726562 169.835938 98.25 168.1875 C 96.898438 167.210938 95.851562 166.914062 94.648438 166.539062 C 93.449219 166.238281 92.023438 166.613281 91.050781 166.238281 C 90.226562 165.863281 89.398438 165.261719 88.949219 164.585938 C 88.574219 163.835938 88.425781 162.710938 88.5 161.960938 C 88.574219 161.289062 88.800781 160.761719 89.25 160.3125 C 89.925781 159.710938 92.476562 158.886719 92.476562 158.886719 "/></clipPath><clipPath id="632f728a2f"><path d="M 152.898438 234.386719 L 190.75 234.386719 L 190.75 282.46875 L 152.898438 282.46875 Z M 152.898438 234.386719 "/></clipPath><clipPath id="cbdc509742"><path d="M 155.175781 275.289062 C 164.324219 267.863281 170.925781 249.488281 174.824219 243.488281 C 176.851562 240.414062 178.351562 238.613281 180.074219 237.113281 C 181.351562 235.988281 182.550781 235.3125 183.824219 234.863281 C 184.875 234.488281 186.074219 234.335938 186.976562 234.488281 C 187.800781 234.5625 188.699219 234.789062 189.300781 235.238281 C 189.898438 235.6875 190.425781 236.4375 190.648438 237.1875 C 190.800781 237.9375 190.800781 238.914062 190.5 239.585938 C 190.199219 240.261719 189.675781 241.085938 188.925781 241.386719 C 188.101562 241.835938 186.375 241.914062 185.398438 241.613281 C 184.648438 241.3125 183.976562 240.710938 183.675781 239.960938 C 183.300781 239.0625 183.300781 237.335938 183.675781 236.4375 C 183.976562 235.6875 184.648438 235.085938 185.398438 234.789062 C 186.375 234.488281 188.101562 234.5625 188.925781 235.011719 C 189.675781 235.3125 190.199219 236.136719 190.5 236.8125 C 190.800781 237.488281 190.800781 238.460938 190.648438 239.210938 C 190.425781 239.960938 189.976562 240.710938 189.300781 241.164062 C 188.324219 241.835938 186.226562 241.386719 184.949219 242.289062 C 183.226562 243.488281 182.25 245.738281 180.449219 248.738281 C 176.773438 254.738281 170.324219 271.988281 165.898438 277.085938 C 163.726562 279.5625 161.550781 280.539062 159.75 281.4375 C 158.550781 281.960938 157.5 282.488281 156.523438 282.414062 C 155.699219 282.335938 154.726562 281.960938 154.125 281.363281 C 153.523438 280.761719 153.074219 279.789062 153 278.960938 C 152.925781 278.136719 153.300781 277.011719 153.75 276.414062 C 154.125 275.886719 155.175781 275.289062 155.175781 275.289062 "/></clipPath><clipPath id="4106aaaefe"><path d="M 178.394531 233.03125 L 229.988281 233.03125 L 229.988281 252.339844 L 178.394531 252.339844 Z M 178.394531 233.03125 "/></clipPath><clipPath id="e92fac6c2b"><path d="M 187.273438 233.0625 C 216.675781 233.210938 221.023438 234.113281 223.648438 235.164062 C 225.148438 235.761719 226.050781 236.289062 226.949219 237.1875 C 227.851562 238.085938 228.601562 239.363281 229.050781 240.5625 C 229.574219 241.761719 229.875 243.113281 229.875 244.460938 C 229.949219 245.664062 229.949219 247.085938 229.351562 248.210938 C 228.75 249.335938 227.476562 250.460938 226.351562 251.136719 C 225.226562 251.738281 224.25 251.8125 222.523438 251.960938 C 219 252.414062 211.949219 252.414062 206.25 252.113281 C 199.949219 251.738281 191.101562 250.539062 186.449219 249.5625 C 183.824219 249.039062 181.726562 248.664062 180.375 247.835938 C 179.625 247.3125 179.101562 246.789062 178.726562 246.113281 C 178.425781 245.4375 178.351562 244.460938 178.5 243.710938 C 178.648438 242.960938 179.175781 242.136719 179.699219 241.6875 C 180.300781 241.164062 181.125 240.710938 181.949219 240.789062 C 182.925781 240.789062 184.5 241.539062 185.175781 242.210938 C 185.699219 242.8125 186 243.710938 185.925781 244.539062 C 185.851562 245.4375 185.023438 247.011719 184.273438 247.613281 C 183.675781 248.136719 182.773438 248.363281 181.949219 248.289062 C 180.976562 248.136719 179.550781 247.238281 178.949219 246.488281 C 178.5 245.8125 178.351562 244.835938 178.425781 244.085938 C 178.5 243.335938 178.875 242.511719 179.398438 241.914062 C 179.925781 241.386719 180.375 241.011719 181.574219 240.789062 C 185.25 240.1875 198.976562 243.9375 206.398438 244.539062 C 212.324219 245.0625 221.773438 246.261719 222.449219 244.914062 C 222.824219 244.238281 221.101562 242.511719 220.125 241.761719 C 219.074219 241.085938 218.175781 240.9375 216.300781 240.636719 C 211.125 239.886719 190.726562 241.6875 186.523438 240.414062 C 185.25 240.039062 184.800781 239.664062 184.351562 238.988281 C 183.824219 238.3125 183.523438 237.1875 183.601562 236.363281 C 183.75 235.539062 184.199219 234.5625 184.800781 234.039062 C 185.398438 233.4375 187.273438 233.0625 187.273438 233.0625 "/></clipPath><clipPath id="04363ef2ac"><path d="M 50.15625 233.421875 L 77.839844 233.421875 L 77.839844 257.261719 L 50.15625 257.261719 Z M 50.15625 233.421875 "/></clipPath><clipPath id="d7de3e85e5"><path d="M 74.023438 257.210938 C 65.398438 256.539062 62.398438 255.488281 59.925781 254.210938 C 57.523438 252.9375 54.898438 250.914062 53.175781 249.335938 C 51.898438 248.136719 50.476562 247.164062 50.25 245.8125 C 50.023438 244.3125 51.074219 241.460938 52.273438 240.636719 C 53.175781 239.886719 54.75 240.710938 56.101562 240.261719 C 57.898438 239.585938 60.75 237.5625 61.949219 236.363281 C 62.625 235.613281 62.625 234.789062 63.226562 234.335938 C 63.824219 233.886719 64.726562 233.511719 65.476562 233.511719 C 66.226562 233.511719 67.199219 233.8125 67.800781 234.261719 C 68.398438 234.710938 69 235.460938 69.148438 236.210938 C 69.375 237.1875 69.074219 238.835938 68.476562 239.664062 C 67.800781 240.488281 66.226562 241.085938 65.175781 241.011719 C 64.199219 240.9375 62.773438 239.960938 62.25 239.0625 C 61.800781 238.164062 61.875 236.4375 62.25 235.539062 C 62.550781 234.863281 63.226562 234.261719 63.898438 233.886719 C 64.648438 233.585938 65.550781 233.4375 66.300781 233.585938 C 67.050781 233.738281 67.875 234.1875 68.398438 234.789062 C 68.925781 235.613281 69.523438 236.960938 69.148438 238.238281 C 68.625 240.261719 64.726562 243.710938 62.773438 245.210938 C 61.5 246.1875 60.523438 246.789062 59.25 247.164062 C 57.976562 247.539062 55.648438 247.914062 55.351562 247.386719 C 54.976562 246.863281 56.699219 243.710938 57.898438 243.488281 C 59.398438 243.1875 62.175781 246.863281 64.050781 247.835938 C 65.398438 248.511719 66.226562 248.738281 67.726562 249.113281 C 69.898438 249.636719 74.175781 249.335938 75.824219 250.164062 C 76.726562 250.6875 77.25 251.363281 77.550781 252.1875 C 77.851562 252.9375 77.851562 254.0625 77.550781 254.8125 C 77.25 255.636719 76.425781 256.386719 75.824219 256.835938 C 75.226562 257.136719 74.023438 257.210938 74.023438 257.210938 "/></clipPath><clipPath id="ac61166741"><path d="M 82.324219 251.628906 L 173.558594 251.628906 L 173.558594 263.082031 L 82.324219 263.082031 Z M 82.324219 251.628906 "/></clipPath><clipPath id="6c2424afd3"><path d="M 86.101562 251.664062 C 148.875 255.636719 166.125 253.835938 170.550781 255.039062 C 171.675781 255.335938 172.125 255.636719 172.574219 256.238281 C 173.101562 256.761719 173.476562 257.664062 173.550781 258.414062 C 173.550781 259.164062 173.324219 260.136719 172.875 260.738281 C 172.5 261.335938 171.824219 262.011719 171 262.238281 C 170.101562 262.460938 168.375 262.3125 167.550781 261.710938 C 166.726562 261.039062 166.050781 259.460938 166.050781 258.488281 C 165.976562 257.738281 166.351562 256.835938 166.875 256.3125 C 167.550781 255.5625 169.199219 254.960938 170.101562 254.960938 C 170.925781 254.960938 171.75 255.414062 172.351562 255.9375 C 172.875 256.460938 173.324219 257.289062 173.476562 258.039062 C 173.625 258.789062 173.476562 259.6875 173.101562 260.363281 C 172.800781 261.039062 172.199219 261.636719 171.375 262.085938 C 170.101562 262.6875 168 262.6875 165.449219 262.835938 C 160.726562 263.210938 152.324219 262.988281 145.726562 262.835938 C 138.898438 262.761719 133.050781 262.6875 125.023438 262.238281 C 113.925781 261.636719 90.226562 260.8125 85.199219 259.011719 C 83.925781 258.5625 83.476562 258.1875 83.023438 257.511719 C 82.574219 256.835938 82.273438 255.789062 82.425781 254.960938 C 82.5 254.136719 83.023438 253.164062 83.625 252.5625 C 84.226562 252.039062 86.101562 251.664062 86.101562 251.664062 "/></clipPath><clipPath id="3e9e30c16d"><path d="M 166 240.832031 L 248.296875 240.832031 L 248.296875 262.597656 L 166 262.597656 Z M 166 240.832031 "/></clipPath><clipPath id="fcdedb15ec"><path d="M 169.800781 254.8125 C 186.148438 254.210938 194.476562 253.085938 203.324219 251.363281 C 215.175781 249.039062 239.550781 240.5625 244.726562 240.9375 C 246 241.011719 246.375 241.3125 246.976562 241.835938 C 247.5 242.289062 248.101562 243.113281 248.175781 243.863281 C 248.324219 244.835938 247.800781 246.488281 247.199219 247.238281 C 246.675781 247.914062 245.851562 248.289062 245.101562 248.363281 C 244.125 248.4375 242.476562 247.835938 241.726562 247.164062 C 241.125 246.636719 240.824219 245.738281 240.75 244.988281 C 240.675781 244.238281 240.824219 243.335938 241.273438 242.664062 C 241.875 241.914062 243.375 241.011719 244.351562 240.9375 C 245.175781 240.789062 246 241.164062 246.675781 241.539062 C 247.273438 241.988281 247.800781 242.738281 248.101562 243.488281 C 248.324219 244.238281 248.324219 245.136719 248.023438 245.886719 C 247.800781 246.5625 247.5 247.164062 246.601562 247.761719 C 244.273438 249.335938 237.523438 250.761719 231.75 252.335938 C 223.949219 254.4375 212.851562 257.210938 203.851562 258.9375 C 195.523438 260.4375 186 261.789062 179.699219 262.238281 C 175.648438 262.539062 171.976562 262.6875 169.800781 262.3125 C 168.675781 262.085938 167.925781 261.9375 167.324219 261.335938 C 166.648438 260.8125 166.125 259.835938 166.050781 259.011719 C 165.976562 258.1875 166.125 257.136719 166.726562 256.460938 C 167.324219 255.636719 169.800781 254.8125 169.800781 254.8125 "/></clipPath><clipPath id="7c61dab4eb"><path d="M 239 229.257812 L 269.132812 229.257812 L 269.132812 258.484375 L 239 258.484375 Z M 239 229.257812 "/></clipPath><clipPath id="979bc7da0c"><path d="M 252.226562 257.0625 C 240 240.710938 239.699219 239.664062 239.398438 238.3125 C 239.175781 236.960938 238.875 235.613281 239.101562 234.335938 C 239.398438 233.0625 240.074219 231.414062 241.050781 230.585938 C 242.023438 229.835938 243.523438 229.6875 244.875 229.539062 C 246.300781 229.386719 247.726562 229.164062 249.449219 229.6875 C 252.226562 230.585938 256.648438 233.8125 259.351562 235.988281 C 261.523438 237.710938 263.175781 239.363281 264.75 241.386719 C 266.324219 243.414062 268.351562 246.113281 268.875 248.210938 C 269.25 249.789062 269.101562 251.4375 268.574219 252.710938 C 268.050781 253.914062 267 254.886719 265.648438 255.710938 C 263.851562 256.914062 259.875 258.261719 258.074219 258.335938 C 257.101562 258.335938 256.425781 258.113281 255.824219 257.664062 C 255.148438 257.210938 254.625 256.460938 254.398438 255.789062 C 254.175781 255.039062 254.175781 254.0625 254.398438 253.386719 C 254.625 252.636719 255.148438 251.886719 255.824219 251.4375 C 256.726562 250.988281 258.375 250.761719 259.351562 251.136719 C 260.324219 251.511719 261.375 252.789062 261.601562 253.835938 C 261.824219 254.8125 261.375 256.460938 260.625 257.210938 C 259.949219 257.960938 258.300781 258.335938 257.324219 258.261719 C 256.5 258.1875 255.675781 257.738281 255.226562 257.136719 C 254.625 256.386719 253.949219 254.960938 254.25 253.761719 C 254.773438 251.886719 260.175781 249.789062 260.25 247.761719 C 260.25 245.8125 256.199219 243.1875 254.476562 241.6875 C 253.351562 240.636719 252.449219 239.960938 251.25 239.289062 C 249.976562 238.613281 247.5 237.335938 247.125 237.789062 C 246.375 238.761719 258 250.6875 258.75 253.835938 C 259.050781 255.039062 258.75 255.789062 258.375 256.460938 C 257.925781 257.210938 257.101562 257.886719 256.351562 258.1875 C 255.523438 258.488281 254.398438 258.335938 253.648438 258.113281 C 253.050781 257.886719 252.226562 257.0625 252.226562 257.0625 "/></clipPath><clipPath id="aa92dd5357"><path d="M 260.492188 252.503906 L 298.664062 252.503906 L 298.664062 285.394531 L 260.492188 285.394531 Z M 260.492188 252.503906 "/></clipPath><clipPath id="8324098acb"><path d="M 267.824219 254.886719 C 277.5 269.886719 280.574219 273.789062 282.824219 275.585938 C 284.101562 276.636719 285.074219 277.164062 286.351562 277.539062 C 287.550781 277.914062 288.824219 277.835938 290.175781 277.761719 C 291.75 277.613281 293.925781 276.414062 295.351562 276.710938 C 296.476562 276.9375 297.675781 277.914062 298.199219 278.738281 C 298.648438 279.414062 298.648438 280.3125 298.574219 281.0625 C 298.425781 281.8125 297.976562 282.710938 297.375 283.164062 C 296.625 283.761719 294.898438 284.210938 294 284.0625 C 293.175781 283.914062 292.425781 283.3125 291.976562 282.789062 C 291.449219 282.1875 291.074219 281.289062 291.074219 280.539062 C 291.148438 279.5625 291.898438 277.988281 292.648438 277.386719 C 293.25 276.863281 294.148438 276.636719 294.976562 276.636719 C 295.726562 276.636719 296.625 277.011719 297.226562 277.460938 C 297.75 277.914062 298.273438 278.738281 298.5 279.488281 C 298.648438 280.238281 298.574219 281.136719 298.273438 281.886719 C 297.976562 282.5625 297.523438 283.164062 296.699219 283.6875 C 295.351562 284.511719 292.351562 285.1875 289.949219 285.261719 C 287.476562 285.335938 284.101562 284.886719 282 284.136719 C 280.425781 283.539062 279.75 282.9375 278.324219 281.664062 C 275.550781 279.1875 270.75 273.488281 267.75 269.289062 C 264.976562 265.460938 261.675781 260.363281 260.925781 257.8125 C 260.550781 256.6875 260.550781 255.9375 260.773438 255.113281 C 261.074219 254.363281 261.75 253.460938 262.5 253.085938 C 263.175781 252.636719 264.300781 252.414062 265.125 252.636719 C 266.101562 252.9375 267.824219 254.886719 267.824219 254.886719 "/></clipPath><clipPath id="6c9a67711d"><path d="M 282.015625 227.53125 L 324.945312 227.53125 L 324.945312 261.472656 L 282.015625 261.472656 Z M 282.015625 227.53125 "/></clipPath><clipPath id="5abc8de3f7"><path d="M 285.675781 227.585938 C 292.125 228.789062 293.101562 229.6875 294 230.664062 C 294.898438 231.5625 295.648438 232.386719 296.398438 233.886719 C 297.675781 236.585938 298.5 242.4375 299.851562 245.8125 C 300.976562 248.363281 301.648438 251.0625 303.523438 252.335938 C 305.398438 253.761719 308.550781 253.539062 311.398438 253.6875 C 314.699219 253.914062 320.101562 252.414062 322.199219 253.011719 C 323.175781 253.3125 323.699219 253.835938 324.148438 254.4375 C 324.523438 255.113281 324.824219 256.011719 324.824219 256.761719 C 324.75 257.511719 324.523438 258.414062 323.925781 259.011719 C 323.25 259.6875 321.75 260.4375 320.699219 260.363281 C 319.648438 260.210938 318.226562 259.3125 317.773438 258.414062 C 317.25 257.511719 317.25 255.789062 317.699219 254.886719 C 318.148438 253.988281 319.574219 253.011719 320.625 252.863281 C 321.601562 252.789062 323.175781 253.386719 323.851562 254.136719 C 324.523438 254.960938 324.824219 256.613281 324.675781 257.585938 C 324.523438 258.335938 324.148438 259.011719 323.324219 259.539062 C 321.898438 260.511719 318.449219 260.960938 315.601562 261.1875 C 312.074219 261.488281 306.601562 261.261719 303.75 260.738281 C 302.101562 260.4375 301.050781 260.136719 299.925781 259.386719 C 298.875 258.636719 298.125 257.664062 297.148438 256.3125 C 295.875 254.585938 294.449219 252.1875 293.324219 249.5625 C 291.976562 246.261719 291.449219 240.636719 290.023438 238.164062 C 289.125 236.664062 288.148438 235.613281 287.023438 235.085938 C 286.050781 234.5625 284.773438 235.085938 283.949219 234.636719 C 283.199219 234.261719 282.449219 233.4375 282.226562 232.613281 C 281.925781 231.710938 282.074219 230.0625 282.601562 229.164062 C 283.199219 228.335938 285.675781 227.585938 285.675781 227.585938 "/></clipPath><clipPath id="944918d35b"><path d="M 255.796875 222.679688 L 292.632812 222.679688 L 292.632812 234.453125 L 255.796875 234.453125 Z M 255.796875 222.679688 "/></clipPath><clipPath id="fbd63651f0"><path d="M 261 222.789062 C 277.648438 226.460938 282.148438 225.335938 285.449219 226.238281 C 288.226562 226.988281 291.898438 228.488281 292.5 229.988281 C 292.875 231.039062 292.125 232.613281 291.375 233.363281 C 290.625 234.039062 288.976562 234.414062 288 234.335938 C 287.25 234.1875 286.425781 233.738281 285.976562 233.0625 C 285.375 232.3125 285 230.585938 285.226562 229.613281 C 285.375 228.863281 285.824219 228.113281 286.5 227.664062 C 287.324219 227.136719 289.050781 226.835938 290.023438 227.0625 C 290.773438 227.289062 291.523438 227.8125 291.898438 228.5625 C 292.351562 229.386719 292.648438 231.039062 292.273438 232.011719 C 291.898438 232.988281 290.550781 234.039062 289.648438 234.335938 C 288.824219 234.5625 287.925781 234.414062 287.25 234.039062 C 286.425781 233.585938 285.148438 231.1875 285.074219 231.261719 C 285.074219 231.261719 286.800781 233.136719 286.5 233.738281 C 285.824219 234.863281 279 234.1875 274.800781 233.738281 C 269.699219 233.0625 260.851562 231.1875 258.148438 229.6875 C 257.023438 229.085938 256.574219 228.636719 256.199219 227.886719 C 255.824219 227.136719 255.75 226.011719 255.976562 225.1875 C 256.199219 224.4375 256.800781 223.460938 257.550781 223.085938 C 258.375 222.5625 261 222.789062 261 222.789062 "/></clipPath><clipPath id="402debf40b"><path d="M 263.828125 208 L 294 208 L 294 231.246094 L 263.828125 231.246094 Z M 263.828125 208 "/></clipPath><clipPath id="0c73a2008b"><path d="M 279.675781 225.335938 C 285.300781 212.664062 273.601562 216.636719 271.875 219.039062 C 270.976562 220.238281 272.175781 223.085938 271.726562 223.3125 C 271.5 223.460938 270.824219 222.636719 270.675781 222.710938 C 270.523438 222.863281 272.324219 224.8125 272.25 225.863281 C 272.25 226.914062 271.273438 228.335938 270.523438 228.9375 C 269.925781 229.386719 268.949219 229.539062 268.199219 229.460938 C 267.449219 229.460938 266.550781 229.085938 266.023438 228.5625 C 265.425781 228.039062 264.898438 227.289062 264.824219 226.460938 C 264.75 225.488281 265.125 223.835938 265.875 223.085938 C 266.625 222.335938 268.199219 221.886719 269.25 222.039062 C 270.226562 222.261719 271.574219 223.3125 271.949219 224.289062 C 272.398438 225.1875 272.25 226.914062 271.648438 227.738281 C 271.125 228.636719 269.550781 229.386719 268.648438 229.539062 C 267.824219 229.613281 267 229.460938 266.324219 228.789062 C 265.125 227.585938 264.300781 223.238281 264 221.136719 C 263.851562 219.636719 263.851562 218.511719 264.148438 217.3125 C 264.523438 216.113281 265.273438 214.914062 266.101562 214.011719 C 266.925781 213.113281 267.898438 212.511719 269.175781 211.761719 C 271.125 210.710938 274.050781 209.363281 276.976562 208.761719 C 280.425781 208.011719 285.824219 207.863281 288.523438 208.238281 C 290.175781 208.460938 291.375 208.539062 292.273438 209.363281 C 293.25 210.261719 293.851562 212.289062 293.925781 213.636719 C 294.074219 214.914062 293.773438 215.8125 293.175781 217.386719 C 292.050781 220.3125 288.074219 227.4375 285.824219 229.539062 C 284.773438 230.585938 283.800781 231.113281 282.75 231.1875 C 281.925781 231.261719 280.875 230.8125 280.273438 230.210938 C 279.675781 229.6875 279.148438 228.710938 279.074219 227.886719 C 278.925781 227.0625 279.675781 225.335938 279.675781 225.335938 "/></clipPath><clipPath id="fb81f0b933"><path d="M 252.707031 171.707031 L 295 171.707031 L 295 223.75 L 252.707031 223.75 Z M 252.707031 171.707031 "/></clipPath><clipPath id="1433b51529"><path d="M 263.625 223.011719 C 258.375 218.136719 258 217.3125 257.324219 215.886719 C 256.125 213.261719 254.324219 208.914062 253.574219 204.863281 C 252.675781 200.136719 252.523438 193.3125 252.898438 188.886719 C 253.125 185.738281 253.800781 182.886719 254.550781 180.863281 C 255.148438 179.363281 255.375 178.460938 256.574219 177.335938 C 258.601562 175.539062 263.699219 173.511719 267.675781 172.613281 C 271.726562 171.710938 277.648438 171.636719 280.648438 172.085938 C 282.375 172.386719 283.199219 172.613281 284.550781 173.4375 C 286.425781 174.5625 289.125 176.886719 290.773438 178.988281 C 292.273438 181.085938 293.476562 183.261719 294.226562 185.960938 C 295.050781 189.335938 295.125 193.835938 294.75 197.960938 C 294.375 202.3125 292.875 209.0625 291.523438 211.3125 C 291 212.289062 290.476562 212.664062 289.800781 212.960938 C 289.125 213.335938 288.226562 213.414062 287.476562 213.261719 C 286.726562 213.113281 285.898438 212.585938 285.375 212.0625 C 284.925781 211.460938 284.476562 210.636719 284.476562 209.8125 C 284.476562 208.835938 285.148438 207.261719 285.898438 206.585938 C 286.726562 205.988281 288.449219 205.761719 289.425781 205.988281 C 290.175781 206.210938 290.925781 206.738281 291.300781 207.488281 C 291.824219 208.3125 291.976562 210.039062 291.75 210.9375 C 291.523438 211.6875 290.851562 212.363281 290.175781 212.8125 C 289.574219 213.1875 288.601562 213.414062 287.851562 213.335938 C 287.101562 213.261719 286.199219 212.8125 285.675781 212.363281 C 285.148438 211.835938 284.625 211.238281 284.550781 210.1875 C 284.25 208.164062 286.574219 203.363281 287.023438 200.136719 C 287.398438 197.289062 287.324219 194.136719 287.25 191.960938 C 287.25 190.460938 287.476562 189.488281 287.023438 188.136719 C 286.351562 186.1875 284.476562 183.113281 282.976562 181.613281 C 281.925781 180.5625 280.726562 179.886719 279.523438 179.511719 C 278.324219 179.136719 277.199219 179.363281 275.625 179.4375 C 273.449219 179.585938 269.550781 179.886719 267.375 180.488281 C 265.875 180.863281 264.75 181.238281 263.699219 182.0625 C 262.648438 182.8125 261.601562 183.9375 261 185.136719 C 260.476562 186.261719 260.476562 187.238281 260.398438 188.886719 C 260.101562 191.8125 259.875 197.210938 260.476562 201.113281 C 261.074219 205.011719 262.726562 209.8125 263.925781 212.363281 C 264.675781 213.863281 265.351562 214.835938 266.25 215.738281 C 266.925781 216.488281 267.976562 216.710938 268.574219 217.460938 C 269.101562 218.136719 269.550781 219.039062 269.476562 219.9375 C 269.476562 220.914062 268.648438 222.414062 267.898438 223.011719 C 267.226562 223.539062 266.101562 223.6875 265.351562 223.6875 C 264.675781 223.613281 263.625 223.011719 263.625 223.011719 "/></clipPath><clipPath id="000a82803c"><path d="M 254 174.101562 L 278.191406 174.101562 L 278.191406 200.105469 L 254 200.105469 Z M 254 174.101562 "/></clipPath><clipPath id="4016e2e4f1"><path d="M 260.550781 188.136719 C 266.101562 192.5625 267.824219 193.011719 268.726562 192.488281 C 269.625 192.039062 270.074219 190.539062 270.449219 189.113281 C 270.898438 187.011719 271.199219 181.988281 270.449219 181.164062 C 270.074219 180.863281 269.398438 181.460938 268.949219 181.238281 C 268.273438 181.011719 267.523438 180.261719 267.226562 179.511719 C 266.851562 178.613281 266.925781 176.886719 267.300781 176.0625 C 267.675781 175.3125 268.425781 174.710938 269.101562 174.414062 C 269.773438 174.113281 270.75 174.039062 271.5 174.261719 C 272.25 174.414062 273 174.9375 273.523438 175.539062 C 273.976562 176.136719 274.351562 176.960938 274.351562 177.789062 C 274.273438 178.761719 273.601562 180.335938 272.773438 180.9375 C 271.949219 181.539062 270.226562 181.6875 269.25 181.386719 C 268.5 181.164062 267.824219 180.636719 267.449219 179.886719 C 267 179.0625 266.851562 177.335938 267.148438 176.363281 C 267.375 175.613281 268.050781 175.011719 268.726562 174.636719 C 269.398438 174.261719 270.148438 174.039062 271.125 174.1875 C 272.476562 174.335938 275.101562 175.613281 276.226562 176.738281 C 277.125 177.710938 277.5 178.6875 277.875 180.261719 C 278.476562 182.960938 278.101562 189.261719 277.726562 192.113281 C 277.574219 193.761719 277.425781 194.8125 276.898438 195.9375 C 276.375 197.136719 275.699219 198.414062 274.425781 199.085938 C 272.699219 200.0625 268.648438 200.0625 266.476562 199.988281 C 264.976562 199.914062 263.773438 199.6875 262.5 199.164062 C 261.300781 198.710938 260.25 198.039062 259.050781 197.136719 C 257.625 196.085938 255.601562 194.363281 254.773438 192.9375 C 254.175781 191.8125 253.949219 190.460938 254.023438 189.5625 C 254.175781 188.886719 254.476562 188.363281 254.925781 187.988281 C 255.523438 187.460938 256.5 186.863281 257.324219 186.789062 C 258.300781 186.789062 260.550781 188.136719 260.550781 188.136719 "/></clipPath><clipPath id="9fb733536a"><path d="M 252.863281 89.625 L 284.351562 89.625 L 284.351562 187.550781 L 252.863281 187.550781 Z M 252.863281 89.625 "/></clipPath><clipPath id="dfe597cb14"><path d="M 276.449219 183.710938 C 274.949219 163.386719 272.324219 154.835938 270 145.988281 C 267.148438 135.113281 263.175781 119.664062 259.875 110.136719 C 257.550781 103.613281 253.125 97.386719 253.050781 94.011719 C 252.976562 92.511719 253.574219 91.460938 254.25 90.710938 C 254.773438 90.113281 255.675781 89.8125 256.425781 89.738281 C 257.175781 89.664062 258.074219 89.960938 258.75 90.335938 C 259.351562 90.710938 260.023438 91.386719 260.25 92.210938 C 260.476562 93.113281 260.398438 94.835938 259.800781 95.664062 C 259.199219 96.488281 257.625 97.164062 256.648438 97.238281 C 255.824219 97.3125 255 97.011719 254.398438 96.414062 C 253.648438 95.738281 252.976562 94.164062 252.976562 93.1875 C 252.976562 92.4375 253.425781 91.539062 253.949219 91.011719 C 254.398438 90.414062 255.300781 89.960938 255.976562 89.8125 C 256.726562 89.664062 257.699219 89.8125 258.375 90.113281 C 259.050781 90.488281 259.425781 90.863281 260.101562 91.835938 C 261.75 94.238281 264.375 100.3125 266.550781 106.460938 C 270.074219 116.136719 274.425781 133.386719 277.425781 144.789062 C 279.824219 153.9375 282.375 162.414062 283.425781 169.613281 C 284.101562 174.9375 284.625 180.789062 283.949219 183.710938 C 283.574219 185.210938 283.125 186.1875 282.300781 186.789062 C 281.625 187.3125 280.574219 187.539062 279.75 187.460938 C 278.925781 187.3125 277.949219 186.789062 277.351562 186.1875 C 276.824219 185.585938 276.449219 183.710938 276.449219 183.710938 "/></clipPath><clipPath id="7e4fc825ea"><path d="M 278.039062 97 L 331.9375 97 L 331.9375 186.320312 L 278.039062 186.320312 Z M 278.039062 97 "/></clipPath><clipPath id="3871ae1c27"><path d="M 278.25 182.136719 C 280.425781 172.6875 282 169.238281 284.023438 164.664062 C 287.25 157.386719 293.25 144.335938 297.449219 136.835938 C 300.375 131.511719 302.699219 128.210938 305.851562 123.5625 C 309.449219 118.238281 314.625 110.738281 317.925781 106.460938 C 319.949219 103.835938 322.050781 100.761719 323.25 100.3125 C 323.625 100.085938 323.925781 100.539062 324.226562 100.3125 C 324.675781 100.085938 324.675781 98.738281 325.273438 98.210938 C 326.023438 97.539062 327.675781 97.011719 328.648438 97.085938 C 329.398438 97.164062 330.226562 97.6875 330.75 98.289062 C 331.273438 98.8125 331.726562 99.636719 331.726562 100.460938 C 331.726562 101.4375 331.125 103.011719 330.375 103.6875 C 329.550781 104.363281 327.898438 104.664062 326.925781 104.4375 C 325.949219 104.136719 324.75 102.863281 324.375 101.960938 C 324.074219 101.210938 324.148438 100.238281 324.449219 99.5625 C 324.675781 98.8125 325.199219 98.0625 325.949219 97.6875 C 326.773438 97.238281 328.5 97.011719 329.398438 97.3125 C 330.148438 97.613281 330.824219 98.289062 331.199219 98.960938 C 331.574219 99.5625 331.949219 100.164062 331.726562 101.289062 C 330.898438 104.738281 321.523438 114.113281 317.023438 120.5625 C 312.601562 126.710938 308.851562 132.113281 304.800781 139.164062 C 299.851562 147.863281 293.476562 160.914062 290.101562 169.386719 C 287.699219 175.238281 286.875 182.210938 285.148438 184.613281 C 284.398438 185.585938 283.726562 185.960938 282.976562 186.113281 C 282.148438 186.335938 281.023438 186.1875 280.273438 185.886719 C 279.75 185.585938 279.300781 185.210938 278.925781 184.6875 C 278.550781 184.011719 278.25 182.136719 278.25 182.136719 "/></clipPath><clipPath id="1091e7aca5"><path d="M 42.359375 201.230469 L 148.378906 201.230469 L 148.378906 238.738281 L 42.359375 238.738281 Z M 42.359375 201.230469 "/></clipPath><clipPath id="cf1b2559f1"><path d="M 144.523438 234.636719 C 132.675781 235.011719 122.324219 237.335938 113.773438 237.9375 C 104.398438 238.613281 93.824219 239.0625 84 238.164062 C 74.324219 237.261719 61.800781 234.335938 55.199219 232.613281 C 51.601562 231.710938 49.050781 231.1875 47.101562 230.0625 C 45.75 229.238281 44.851562 228.414062 44.023438 227.289062 C 43.273438 226.238281 42.675781 224.960938 42.523438 223.6875 C 42.300781 222.335938 42.375 220.539062 42.976562 219.335938 C 43.648438 218.210938 44.699219 217.761719 46.351562 216.789062 C 49.949219 214.6875 59.324219 210.488281 64.949219 208.613281 C 69.226562 207.1875 71.851562 206.8125 76.648438 205.988281 C 83.925781 204.710938 95.851562 203.4375 104.550781 202.6875 C 112.199219 202.085938 122.25 200.738281 126.148438 201.5625 C 127.726562 201.9375 128.625 202.460938 129.226562 203.210938 C 129.75 203.8125 129.898438 204.789062 129.898438 205.539062 C 129.824219 206.289062 129.523438 207.1875 129 207.789062 C 128.550781 208.3125 127.726562 208.835938 126.976562 208.988281 C 126.226562 209.136719 125.25 209.136719 124.574219 208.761719 C 123.75 208.238281 122.625 206.960938 122.476562 205.914062 C 122.25 204.9375 122.925781 203.363281 123.601562 202.613281 C 124.125 202.011719 125.023438 201.710938 125.773438 201.5625 C 126.523438 201.488281 127.425781 201.636719 128.101562 202.085938 C 128.851562 202.6875 129.75 204.1875 129.898438 205.085938 C 129.976562 205.914062 129.675781 206.8125 129.226562 207.414062 C 128.851562 208.085938 128.398438 208.460938 127.351562 208.914062 C 124.273438 210.039062 114.75 209.363281 107.25 210.039062 C 97.5 210.9375 82.125 212.289062 74.023438 214.085938 C 69.148438 215.136719 66.074219 216.335938 62.625 217.613281 C 59.699219 218.8125 56.550781 220.164062 54.601562 221.363281 C 53.398438 222.1875 51.601562 223.085938 51.824219 223.914062 C 52.425781 226.3125 73.5 229.613281 84 230.664062 C 93.976562 231.710938 104.101562 231.113281 113.398438 230.4375 C 122.023438 229.835938 132.675781 227.511719 138.226562 227.136719 C 141 226.988281 142.875 226.835938 144.523438 227.136719 C 145.574219 227.363281 146.398438 227.511719 147 228.113281 C 147.601562 228.636719 148.125 229.613281 148.273438 230.4375 C 148.351562 231.261719 148.125 232.3125 147.601562 233.0625 C 147 233.8125 144.523438 234.636719 144.523438 234.636719 "/></clipPath><clipPath id="04d5773d6a"><path d="M 103.453125 183.441406 L 121.265625 183.441406 L 121.265625 206.511719 L 103.453125 206.511719 Z M 103.453125 183.441406 "/></clipPath><clipPath id="336d18371b"><path d="M 103.5 201.9375 C 107.699219 192.335938 113.175781 185.4375 115.5 184.011719 C 116.398438 183.414062 117.074219 183.414062 117.824219 183.488281 C 118.574219 183.5625 119.476562 183.9375 120 184.539062 C 120.675781 185.210938 121.273438 186.863281 121.125 187.835938 C 120.898438 188.886719 119.925781 190.238281 118.949219 190.613281 C 118.050781 191.0625 116.324219 190.835938 115.425781 190.460938 C 114.75 190.085938 114.148438 189.335938 113.925781 188.585938 C 113.625 187.6875 113.699219 185.960938 114.300781 185.136719 C 114.898438 184.238281 116.476562 183.5625 117.449219 183.488281 C 118.199219 183.414062 119.101562 183.789062 119.699219 184.238281 C 120.300781 184.6875 120.824219 185.511719 121.050781 186.261719 C 121.199219 186.9375 121.273438 187.613281 120.898438 188.664062 C 120.074219 190.761719 115.574219 194.738281 113.550781 197.8125 C 111.824219 200.4375 110.925781 204.488281 109.425781 205.6875 C 108.601562 206.363281 107.625 206.4375 106.875 206.4375 C 106.273438 206.4375 105.675781 206.210938 105.148438 205.835938 C 104.699219 205.539062 104.175781 205.164062 103.949219 204.5625 C 103.574219 203.886719 103.5 201.9375 103.5 201.9375 "/></clipPath><clipPath id="e5b351adfa"><path d="M 123.066406 149 L 171.761719 149 L 171.761719 199.820312 L 123.066406 199.820312 Z M 123.066406 149 "/></clipPath><clipPath id="922ae4bca5"><path d="M 123.074219 168.636719 C 124.875 161.289062 127.273438 159.414062 129.148438 157.761719 C 131.101562 156.039062 133.351562 154.539062 135.523438 153.113281 C 137.773438 151.761719 140.550781 150.039062 142.574219 149.4375 C 144 149.0625 145.125 149.0625 146.324219 149.210938 C 147.601562 149.363281 148.875 149.585938 150.148438 150.335938 C 151.949219 151.539062 154.199219 154.238281 155.773438 156.414062 C 157.273438 158.511719 158.023438 160.164062 159.523438 163.3125 C 162.226562 169.164062 168.074219 183.5625 169.949219 189.335938 C 170.925781 192.1875 171.675781 194.136719 171.675781 195.710938 C 171.675781 196.6875 171.449219 197.363281 171 198.039062 C 170.550781 198.636719 169.800781 199.164062 169.050781 199.386719 C 168.375 199.613281 167.398438 199.613281 166.648438 199.386719 C 165.976562 199.085938 165.148438 198.5625 164.773438 197.886719 C 164.324219 197.0625 164.175781 195.335938 164.476562 194.363281 C 164.699219 193.613281 165.300781 192.9375 166.050781 192.5625 C 166.949219 192.1875 168.675781 192.113281 169.574219 192.488281 C 170.324219 192.789062 170.925781 193.460938 171.300781 194.136719 C 171.601562 194.8125 171.75 195.789062 171.601562 196.539062 C 171.449219 197.289062 171 198.113281 170.476562 198.636719 C 169.875 199.085938 169.050781 199.539062 168.300781 199.613281 C 167.324219 199.613281 166.199219 199.386719 165 198.1875 C 161.476562 194.585938 156.675781 174.1875 152.851562 166.761719 C 150.523438 162.335938 148.425781 157.539062 146.25 156.710938 C 144.976562 156.1875 144 156.9375 142.574219 157.539062 C 140.023438 158.738281 135.148438 162.488281 133.050781 164.363281 C 131.925781 165.488281 131.023438 166.386719 130.574219 167.363281 C 130.273438 168.1875 130.648438 169.085938 130.351562 169.835938 C 130.050781 170.664062 129.375 171.488281 128.773438 171.9375 C 128.25 172.3125 127.726562 172.539062 127.050781 172.539062 C 126.300781 172.539062 125.175781 172.3125 124.5 171.789062 C 123.75 171.113281 123.074219 168.636719 123.074219 168.636719 "/></clipPath><clipPath id="099526203b"><path d="M 130.296875 155.609375 L 150.628906 155.609375 L 150.628906 191.496094 L 130.296875 191.496094 Z M 130.296875 155.609375 "/></clipPath><clipPath id="1f9dce4d89"><path d="M 137.699219 158.664062 C 141.523438 169.3125 149.625 182.0625 150.375 186.335938 C 150.675781 187.914062 150.449219 188.960938 149.925781 189.863281 C 149.550781 190.539062 148.726562 191.0625 148.050781 191.289062 C 147.300781 191.511719 146.398438 191.585938 145.648438 191.210938 C 144.75 190.835938 143.550781 189.636719 143.25 188.664062 C 142.949219 187.6875 143.324219 186.039062 144 185.210938 C 144.675781 184.460938 146.25 183.863281 147.300781 183.9375 C 148.351562 184.085938 149.699219 185.0625 150.226562 185.960938 C 150.675781 186.863281 150.675781 188.585938 150.148438 189.488281 C 149.699219 190.386719 148.199219 191.289062 147.226562 191.4375 C 146.476562 191.585938 145.574219 191.289062 144.898438 190.914062 C 144.300781 190.539062 144.074219 190.085938 143.398438 189.039062 C 141.226562 185.738281 134.175781 171.488281 132.148438 166.238281 C 131.101562 163.613281 130.425781 161.8125 130.351562 160.164062 C 130.273438 159.113281 130.273438 158.289062 130.726562 157.539062 C 131.324219 156.710938 132.75 155.8125 133.726562 155.664062 C 134.550781 155.511719 135.601562 155.886719 136.273438 156.414062 C 136.949219 156.863281 137.699219 158.664062 137.699219 158.664062 "/></clipPath><clipPath id="cac1af5443"><path d="M 160.558594 179.945312 L 259.296875 179.945312 L 259.296875 202.476562 L 160.558594 202.476562 Z M 160.558594 179.945312 "/></clipPath><clipPath id="d160d3ff0d"><path d="M 164.324219 194.738281 C 177.601562 194.363281 186.675781 193.3125 196.726562 191.738281 C 212.101562 189.261719 247.273438 179.585938 254.773438 179.960938 C 256.574219 180.113281 257.398438 180.414062 258.148438 181.011719 C 258.75 181.539062 259.050781 182.4375 259.199219 183.1875 C 259.273438 183.9375 259.199219 184.914062 258.75 185.511719 C 258.148438 186.335938 256.800781 187.3125 255.75 187.386719 C 254.699219 187.460938 253.199219 186.710938 252.523438 186.039062 C 252 185.4375 251.699219 184.539062 251.699219 183.789062 C 251.699219 182.960938 251.925781 182.0625 252.449219 181.460938 C 253.050781 180.710938 254.625 179.960938 255.601562 179.960938 C 256.425781 179.886719 257.25 180.261719 257.851562 180.789062 C 258.449219 181.238281 258.898438 182.0625 259.125 182.8125 C 259.273438 183.5625 259.273438 184.460938 258.898438 185.210938 C 258.449219 186.039062 257.851562 186.5625 256.125 187.386719 C 249.226562 190.539062 211.425781 196.914062 196.726562 199.3125 C 188.175781 200.738281 182.324219 201.414062 176.25 201.863281 C 171.449219 202.238281 165.824219 202.835938 163.425781 202.164062 C 162.300781 201.789062 161.699219 201.335938 161.175781 200.664062 C 160.726562 199.914062 160.5 198.863281 160.574219 198.039062 C 160.648438 197.210938 161.175781 196.238281 161.773438 195.710938 C 162.449219 195.113281 164.324219 194.738281 164.324219 194.738281 "/></clipPath><clipPath id="83bbee1432"><path d="M 203.597656 195.222656 L 264.40625 195.222656 L 264.40625 231.738281 L 203.597656 231.738281 Z M 203.597656 195.222656 "/></clipPath><clipPath id="5b9ed32a32"><path d="M 211.050781 198.636719 C 214.199219 208.011719 219.074219 214.539062 222.148438 217.761719 C 224.25 220.011719 226.199219 221.664062 228.074219 222.710938 C 229.5 223.539062 230.476562 223.914062 232.050781 224.0625 C 234.226562 224.363281 237.976562 223.988281 240 223.3125 C 241.425781 222.9375 241.875 222.488281 243.375 221.511719 C 246.75 219.261719 255.449219 209.738281 258.898438 208.613281 C 260.398438 208.085938 261.523438 208.238281 262.425781 208.761719 C 263.324219 209.363281 264.148438 210.789062 264.226562 211.835938 C 264.300781 212.8125 263.476562 214.3125 262.726562 214.988281 C 262.125 215.511719 261.226562 215.738281 260.476562 215.738281 C 259.726562 215.738281 258.824219 215.511719 258.226562 214.988281 C 257.476562 214.3125 256.726562 212.8125 256.726562 211.761719 C 256.800781 210.710938 257.699219 209.289062 258.601562 208.761719 C 259.5 208.238281 261.148438 208.164062 262.050781 208.613281 C 263.023438 209.0625 264 210.414062 264.226562 211.386719 C 264.375 212.4375 263.773438 213.5625 263.023438 214.761719 C 261.824219 216.710938 258.601562 219.335938 256.425781 221.289062 C 254.324219 223.085938 252.449219 224.664062 250.199219 226.164062 C 248.023438 227.664062 245.175781 229.238281 243.074219 230.136719 C 241.574219 230.8125 240.523438 231.261719 239.175781 231.488281 C 237.824219 231.789062 236.625 231.710938 235.050781 231.636719 C 232.875 231.5625 229.351562 231.335938 227.25 230.738281 C 225.601562 230.210938 224.699219 229.539062 223.273438 228.636719 C 221.324219 227.289062 218.925781 225.1875 216.976562 223.3125 C 215.101562 221.363281 213.601562 219.414062 211.800781 216.9375 C 209.625 213.789062 206.398438 209.210938 205.125 205.914062 C 204.148438 203.585938 203.625 201.1875 203.625 199.539062 C 203.625 198.488281 203.851562 197.585938 204.300781 196.914062 C 204.601562 196.386719 205.050781 196.011719 205.574219 195.710938 C 206.324219 195.414062 207.523438 195.261719 208.273438 195.414062 C 208.875 195.5625 209.398438 195.789062 209.851562 196.238281 C 210.375 196.761719 211.050781 198.636719 211.050781 198.636719 "/></clipPath><clipPath id="ce50b5f494"><path d="M 179.808594 208.910156 L 212.878906 208.910156 L 212.878906 225.753906 L 179.808594 225.753906 Z M 179.808594 208.910156 "/></clipPath><clipPath id="070945404d"><path d="M 183.523438 218.0625 C 192.449219 217.164062 196.574219 213.710938 200.023438 212.136719 C 203.175781 210.789062 207.226562 208.914062 209.25 208.914062 C 210.226562 208.988281 210.898438 209.289062 211.5 209.8125 C 212.101562 210.261719 212.625 211.011719 212.699219 211.835938 C 212.851562 212.8125 212.550781 214.460938 211.800781 215.210938 C 211.125 215.960938 209.550781 216.5625 208.5 216.414062 C 207.449219 216.261719 206.101562 215.210938 205.726562 214.3125 C 205.273438 213.335938 205.425781 211.613281 205.875 210.789062 C 206.175781 210.039062 207 209.511719 207.675781 209.210938 C 208.351562 208.914062 209.324219 208.835938 210.074219 209.0625 C 210.75 209.289062 211.574219 209.8125 212.023438 210.414062 C 212.476562 211.011719 212.851562 211.914062 212.851562 212.664062 C 212.851562 213.414062 212.773438 214.085938 212.101562 214.914062 C 210 217.386719 197.925781 222.636719 193.949219 224.210938 C 192.148438 224.960938 191.476562 225.261719 189.824219 225.488281 C 187.574219 225.789062 183.449219 225.863281 181.800781 225.113281 C 180.898438 224.664062 180.375 223.914062 180.074219 223.085938 C 179.773438 222.335938 179.773438 221.210938 180.074219 220.460938 C 180.375 219.710938 181.125 218.886719 181.800781 218.4375 C 182.324219 218.136719 183.523438 218.0625 183.523438 218.0625 "/></clipPath><clipPath id="46081a42ab"><path d="M 95.804688 235.210938 L 104.5 235.210938 L 104.5 257.660156 L 95.804688 257.660156 Z M 95.804688 235.210938 "/></clipPath><clipPath id="f8d6d5ce1f"><path d="M 95.851562 253.914062 C 96.226562 241.011719 96.675781 238.164062 97.574219 236.8125 C 98.101562 235.988281 98.773438 235.613281 99.523438 235.386719 C 100.199219 235.164062 101.175781 235.164062 101.925781 235.460938 C 102.601562 235.6875 103.351562 236.289062 103.726562 236.960938 C 104.175781 237.5625 104.476562 238.460938 104.324219 239.289062 C 104.175781 240.1875 103.351562 241.6875 102.449219 242.210938 C 101.550781 242.738281 99.898438 242.8125 98.925781 242.363281 C 98.023438 241.914062 97.125 240.414062 96.898438 239.511719 C 96.75 238.6875 96.976562 237.789062 97.351562 237.113281 C 97.726562 236.511719 98.398438 235.835938 99.148438 235.539062 C 99.824219 235.238281 100.800781 235.164062 101.476562 235.3125 C 102.226562 235.539062 103.050781 235.988281 103.5 236.585938 C 104.023438 237.1875 104.175781 237.710938 104.324219 238.835938 C 104.773438 241.835938 104.25 253.011719 102.898438 255.710938 C 102.375 256.761719 101.699219 257.136719 100.875 257.4375 C 100.125 257.738281 99 257.664062 98.25 257.4375 C 97.648438 257.289062 97.125 256.914062 96.75 256.460938 C 96.300781 255.863281 95.851562 253.914062 95.851562 253.914062 "/></clipPath><clipPath id="6e779aeba1"><path d="M 120.269531 231.496094 L 128.839844 231.496094 L 128.839844 258.382812 L 120.269531 258.382812 Z M 120.269531 231.496094 "/></clipPath><clipPath id="2679901230"><path d="M 128.625 235.238281 C 127.875 248.738281 129.226562 254.0625 128.550781 256.085938 C 128.175781 256.988281 127.574219 257.511719 126.976562 257.8125 C 126.300781 258.1875 125.324219 258.414062 124.574219 258.335938 C 123.824219 258.1875 123 257.8125 122.476562 257.210938 C 121.875 256.6875 121.425781 255.9375 121.351562 255.113281 C 121.351562 254.136719 121.800781 252.488281 122.550781 251.8125 C 123.375 251.136719 124.949219 250.6875 126 250.914062 C 126.976562 251.210938 128.25 252.335938 128.625 253.3125 C 129 254.289062 128.773438 255.9375 128.175781 256.761719 C 127.574219 257.585938 126 258.261719 125.023438 258.335938 C 124.199219 258.414062 123.375 258.113281 122.773438 257.511719 C 121.800781 256.6875 120.898438 254.664062 120.523438 253.164062 C 120.148438 251.8125 120.300781 250.6875 120.375 248.8125 C 120.449219 245.289062 120.300781 235.988281 121.5 233.511719 C 122.023438 232.460938 122.699219 232.011719 123.523438 231.710938 C 124.273438 231.414062 125.476562 231.488281 126.148438 231.710938 C 126.75 231.9375 127.273438 232.238281 127.648438 232.761719 C 128.101562 233.363281 128.625 235.238281 128.625 235.238281 "/></clipPath><clipPath id="5918d4785a"><path d="M 136.875 230.007812 L 146.53125 230.007812 L 146.53125 258.273438 L 136.875 258.273438 Z M 136.875 230.007812 "/></clipPath><clipPath id="a021d30b31"><path d="M 144.898438 233.8125 C 145.199219 250.988281 146.699219 253.6875 146.398438 255.261719 C 146.25 256.238281 145.726562 256.835938 145.125 257.289062 C 144.601562 257.8125 143.699219 258.1875 142.949219 258.1875 C 142.199219 258.261719 141.226562 257.960938 140.625 257.585938 C 140.023438 257.136719 139.351562 256.386719 139.199219 255.636719 C 138.976562 254.664062 139.125 253.011719 139.800781 252.1875 C 140.398438 251.363281 141.976562 250.761719 142.949219 250.6875 C 143.773438 250.6875 144.601562 251.136719 145.199219 251.585938 C 145.726562 252.113281 146.25 252.9375 146.398438 253.6875 C 146.550781 254.4375 146.550781 255.335938 146.175781 256.011719 C 145.648438 256.914062 144.300781 257.960938 143.324219 258.1875 C 142.574219 258.335938 141.675781 258.113281 141 257.738281 C 140.324219 257.4375 139.800781 256.914062 139.351562 256.011719 C 138.449219 254.4375 137.773438 251.585938 137.398438 248.664062 C 136.875 244.613281 136.648438 236.8125 137.398438 233.8125 C 137.699219 232.3125 138.226562 231.335938 138.976562 230.738281 C 139.648438 230.210938 140.773438 229.988281 141.601562 230.0625 C 142.425781 230.136719 143.398438 230.664062 143.925781 231.335938 C 144.449219 231.9375 144.898438 233.8125 144.898438 233.8125 "/></clipPath><clipPath id="2a27cee5b3"><path d="M 250.589844 215.078125 L 262.703125 215.078125 L 262.703125 234.824219 L 250.589844 234.824219 Z M 250.589844 215.078125 "/></clipPath><clipPath id="91ce487faf"><path d="M 250.800781 229.988281 C 257.175781 215.289062 257.925781 215.210938 258.675781 215.136719 C 259.425781 215.0625 260.398438 215.363281 261 215.738281 C 261.601562 216.1875 262.199219 216.9375 262.5 217.613281 C 262.726562 218.363281 262.800781 219.261719 262.5 220.011719 C 262.125 220.914062 261 222.1875 259.949219 222.488281 C 258.976562 222.789062 257.324219 222.414062 256.574219 221.738281 C 255.75 221.136719 255.074219 219.5625 255.226562 218.511719 C 255.300781 217.460938 256.199219 216.113281 257.101562 215.585938 C 258.074219 215.0625 259.726562 215.136719 260.625 215.511719 C 261.375 215.886719 261.976562 216.5625 262.351562 217.238281 C 262.648438 217.914062 262.648438 218.8125 262.574219 219.636719 C 262.5 220.6875 262.125 221.664062 261.601562 223.085938 C 260.773438 225.5625 258.675781 231.261719 257.625 232.988281 C 257.101562 233.664062 256.875 233.960938 256.351562 234.261719 C 255.675781 234.636719 254.476562 234.863281 253.726562 234.789062 C 253.125 234.710938 252.523438 234.488281 252.074219 234.039062 C 251.476562 233.511719 250.875 232.539062 250.648438 231.789062 C 250.5 231.1875 250.800781 229.988281 250.800781 229.988281 "/></clipPath></defs><g id="cb5097a650"><g clip-rule="nonzero" clip-path="url(#7dea5e94b3)"><g clip-rule="nonzero" clip-path="url(#df0c19f850)"><path style=" stroke:none;fill-rule:nonzero;fill:currentColor;fill-opacity:1;" d="M 37.5 161.363281 L 97.351562 161.363281 L 97.351562 272.644531 L 37.5 272.644531 Z M 37.5 161.363281 "/></g></g><g clip-rule="nonzero" clip-path="url(#d21e780d93)"><g clip-rule="nonzero" clip-path="url(#c8034e6c34)"><path style=" stroke:none;fill-rule:nonzero;fill:currentColor;fill-opacity:1;" d="M 82.648438 147.863281 L 105.898438 147.863281 L 105.898438 179.921875 L 82.648438 179.921875 Z M 82.648438 147.863281 "/></g></g><g clip-rule="nonzero" clip-path="url(#cbf3b93612)"><g clip-rule="nonzero" clip-path="url(#446208339f)"><path style=" stroke:none;fill-rule:nonzero;fill:currentColor;fill-opacity:1;" d="M 92.398438 146.210938 L 193.246094 146.210938 L 193.246094 238.085938 L 92.398438 238.085938 Z M 92.398438 146.210938 "/></g></g><g clip-rule="nonzero" clip-path="url(#e93ba83767)"><g clip-rule="nonzero" clip-path="url(#a998141999)"><path style=" stroke:none;fill-rule:nonzero;fill:currentColor;fill-opacity:1;" d="M 85.5 155.886719 L 179.324219 155.886719 L 179.324219 251.179688 L 85.5 251.179688 Z M 85.5 155.886719 "/></g></g><g clip-rule="nonzero" clip-path="url(#632f728a2f)"><g clip-rule="nonzero" clip-path="url(#cbdc509742)"><path style=" stroke:none;fill-rule:nonzero;fill:currentColor;fill-opacity:1;" d="M 150 231.488281 L 193.648438 231.488281 L 193.648438 285.539062 L 150 285.539062 Z M 150 231.488281 "/></g></g><g clip-rule="nonzero" clip-path="url(#4106aaaefe)"><g clip-rule="nonzero" clip-path="url(#e92fac6c2b)"><path style=" stroke:none;fill-rule:nonzero;fill:currentColor;fill-opacity:1;" d="M 175.425781 229.761719 L 232.957031 229.761719 L 232.957031 255.113281 L 175.425781 255.113281 Z M 175.425781 229.761719 "/></g></g><g clip-rule="nonzero" clip-path="url(#04363ef2ac)"><g clip-rule="nonzero" clip-path="url(#d7de3e85e5)"><path style=" stroke:none;fill-rule:nonzero;fill:currentColor;fill-opacity:1;" d="M 47.25 230.511719 L 80.515625 230.511719 L 80.515625 260.289062 L 47.25 260.289062 Z M 47.25 230.511719 "/></g></g><g clip-rule="nonzero" clip-path="url(#ac61166741)"><g clip-rule="nonzero" clip-path="url(#6c2424afd3)"><path style=" stroke:none;fill-rule:nonzero;fill:currentColor;fill-opacity:1;" d="M 79.425781 248.664062 L 176.660156 248.664062 L 176.660156 265.914062 L 79.425781 265.914062 Z M 79.425781 248.664062 "/></g></g><g clip-rule="nonzero" clip-path="url(#3e9e30c16d)"><g clip-rule="nonzero" clip-path="url(#fcdedb15ec)"><path style=" stroke:none;fill-rule:nonzero;fill:currentColor;fill-opacity:1;" d="M 163.050781 237.9375 L 251.191406 237.9375 L 251.191406 265.386719 L 163.050781 265.386719 Z M 163.050781 237.9375 "/></g></g><g clip-rule="nonzero" clip-path="url(#7c61dab4eb)"><g clip-rule="nonzero" clip-path="url(#979bc7da0c)"><path style=" stroke:none;fill-rule:nonzero;fill:currentColor;fill-opacity:1;" d="M 236.101562 226.539062 L 271.851562 226.539062 L 271.851562 261.335938 L 236.101562 261.335938 Z M 236.101562 226.539062 "/></g></g><g clip-rule="nonzero" clip-path="url(#aa92dd5357)"><g clip-rule="nonzero" clip-path="url(#8324098acb)"><path style=" stroke:none;fill-rule:nonzero;fill:currentColor;fill-opacity:1;" d="M 257.773438 249.636719 L 301.53125 249.636719 L 301.53125 288.261719 L 257.773438 288.261719 Z M 257.773438 249.636719 "/></g></g><g clip-rule="nonzero" clip-path="url(#6c9a67711d)"><g clip-rule="nonzero" clip-path="url(#5abc8de3f7)"><path style=" stroke:none;fill-rule:nonzero;fill:currentColor;fill-opacity:1;" d="M 279.226562 224.585938 L 327.890625 224.585938 L 327.890625 264.261719 L 279.226562 264.261719 Z M 279.226562 224.585938 "/></g></g><g clip-rule="nonzero" clip-path="url(#944918d35b)"><g clip-rule="nonzero" clip-path="url(#fbd63651f0)"><path style=" stroke:none;fill-rule:nonzero;fill:currentColor;fill-opacity:1;" d="M 252.976562 219.789062 L 295.589844 219.789062 L 295.589844 237.414062 L 252.976562 237.414062 Z M 252.976562 219.789062 "/></g></g><g clip-rule="nonzero" clip-path="url(#402debf40b)"><g clip-rule="nonzero" clip-path="url(#0c73a2008b)"><path style=" stroke:none;fill-rule:nonzero;fill:currentColor;fill-opacity:1;" d="M 261 205.238281 L 296.960938 205.238281 L 296.960938 234.1875 L 261 234.1875 Z M 261 205.238281 "/></g></g><g clip-rule="nonzero" clip-path="url(#fb81f0b933)"><g clip-rule="nonzero" clip-path="url(#1433b51529)"><path style=" stroke:none;fill-rule:nonzero;fill:currentColor;fill-opacity:1;" d="M 249.898438 169.085938 L 297.824219 169.085938 L 297.824219 226.746094 L 249.898438 226.746094 Z M 249.898438 169.085938 "/></g></g><g clip-rule="nonzero" clip-path="url(#000a82803c)"><g clip-rule="nonzero" clip-path="url(#4016e2e4f1)"><path style=" stroke:none;fill-rule:nonzero;fill:currentColor;fill-opacity:1;" d="M 251.023438 171.1875 L 280.875 171.1875 L 280.875 203.019531 L 251.023438 203.019531 Z M 251.023438 171.1875 "/></g></g><g clip-rule="nonzero" clip-path="url(#9fb733536a)"><g clip-rule="nonzero" clip-path="url(#dfe597cb14)"><path style=" stroke:none;fill-rule:nonzero;fill:currentColor;fill-opacity:1;" d="M 249.976562 86.738281 L 286.949219 86.738281 L 286.949219 190.441406 L 249.976562 190.441406 Z M 249.976562 86.738281 "/></g></g><g clip-rule="nonzero" clip-path="url(#7e4fc825ea)"><g clip-rule="nonzero" clip-path="url(#3871ae1c27)"><path style=" stroke:none;fill-rule:nonzero;fill:currentColor;fill-opacity:1;" d="M 275.25 94.085938 L 334.726562 94.085938 L 334.726562 189.109375 L 275.25 189.109375 Z M 275.25 94.085938 "/></g></g><g clip-rule="nonzero" clip-path="url(#1091e7aca5)"><g clip-rule="nonzero" clip-path="url(#cf1b2559f1)"><path style=" stroke:none;fill-rule:nonzero;fill:currentColor;fill-opacity:1;" d="M 39.523438 198.5625 L 151.214844 198.5625 L 151.214844 241.238281 L 39.523438 241.238281 Z M 39.523438 198.5625 "/></g></g><g clip-rule="nonzero" clip-path="url(#04d5773d6a)"><g clip-rule="nonzero" clip-path="url(#336d18371b)"><path style=" stroke:none;fill-rule:nonzero;fill:currentColor;fill-opacity:1;" d="M 100.5 180.488281 L 124.125 180.488281 L 124.125 209.558594 L 100.5 209.558594 Z M 100.5 180.488281 "/></g></g><g clip-rule="nonzero" clip-path="url(#e5b351adfa)"><g clip-rule="nonzero" clip-path="url(#922ae4bca5)"><path style=" stroke:none;fill-rule:nonzero;fill:currentColor;fill-opacity:1;" d="M 120.074219 146.210938 L 174.75 146.210938 L 174.75 202.597656 L 120.074219 202.597656 Z M 120.074219 146.210938 "/></g></g><g clip-rule="nonzero" clip-path="url(#099526203b)"><g clip-rule="nonzero" clip-path="url(#1f9dce4d89)"><path style=" stroke:none;fill-rule:nonzero;fill:currentColor;fill-opacity:1;" d="M 127.351562 152.664062 L 153.375 152.664062 L 153.375 194.445312 L 127.351562 194.445312 Z M 127.351562 152.664062 "/></g></g><g clip-rule="nonzero" clip-path="url(#cac1af5443)"><g clip-rule="nonzero" clip-path="url(#d160d3ff0d)"><path style=" stroke:none;fill-rule:nonzero;fill:currentColor;fill-opacity:1;" d="M 157.574219 176.960938 L 262.171875 176.960938 L 262.171875 205.238281 L 157.574219 205.238281 Z M 157.574219 176.960938 "/></g></g><g clip-rule="nonzero" clip-path="url(#83bbee1432)"><g clip-rule="nonzero" clip-path="url(#5b9ed32a32)"><path style=" stroke:none;fill-rule:nonzero;fill:currentColor;fill-opacity:1;" d="M 200.625 192.414062 L 267.378906 192.414062 L 267.378906 234.710938 L 200.625 234.710938 Z M 200.625 192.414062 "/></g></g><g clip-rule="nonzero" clip-path="url(#ce50b5f494)"><g clip-rule="nonzero" clip-path="url(#070945404d)"><path style=" stroke:none;fill-rule:nonzero;fill:currentColor;fill-opacity:1;" d="M 177.074219 205.914062 L 215.964844 205.914062 L 215.964844 228.488281 L 177.074219 228.488281 Z M 177.074219 205.914062 "/></g></g><g clip-rule="nonzero" clip-path="url(#46081a42ab)"><g clip-rule="nonzero" clip-path="url(#f8d6d5ce1f)"><path style=" stroke:none;fill-rule:nonzero;fill:currentColor;fill-opacity:1;" d="M 92.851562 232.3125 L 107.398438 232.3125 L 107.398438 260.503906 L 92.851562 260.503906 Z M 92.851562 232.3125 "/></g></g><g clip-rule="nonzero" clip-path="url(#6e779aeba1)"><g clip-rule="nonzero" clip-path="url(#2679901230)"><path style=" stroke:none;fill-rule:nonzero;fill:currentColor;fill-opacity:1;" d="M 117.375 228.710938 L 131.625 228.710938 L 131.625 261.332031 L 117.375 261.332031 Z M 117.375 228.710938 "/></g></g><g clip-rule="nonzero" clip-path="url(#5918d4785a)"><g clip-rule="nonzero" clip-path="url(#a021d30b31)"><path style=" stroke:none;fill-rule:nonzero;fill:currentColor;fill-opacity:1;" d="M 134.398438 227.0625 L 149.476562 227.0625 L 149.476562 261.277344 L 134.398438 261.277344 Z M 134.398438 227.0625 "/></g></g><g clip-rule="nonzero" clip-path="url(#2a27cee5b3)"><g clip-rule="nonzero" clip-path="url(#91ce487faf)"><path style=" stroke:none;fill-rule:nonzero;fill:currentColor;fill-opacity:1;" d="M 247.648438 212.136719 L 265.574219 212.136719 L 265.574219 237.765625 L 247.648438 237.765625 Z M 247.648438 212.136719 "/></g></g></g></svg>