<svg xmlns="http://www.w3.org/2000/svg" xmlns:xlink="http://www.w3.org/1999/xlink" width="500" zoomAndPan="magnify" viewBox="0 0 375 374.999991" height="500" preserveAspectRatio="xMidYMid meet" version="1.2"><defs><clipPath id="e3f6e5e942"><path d="M 40 147.703125 L 113.121094 147.703125 L 113.121094 228.53125 L 40 228.53125 Z M 40 147.703125 "/></clipPath><clipPath id="ca2bf51582"><path d="M 41.589844 222.105469 C 64.941406 204.296875 67.367188 202.425781 71.664062 197.574219 C 79.496094 188.910156 95.503906 166.527344 101.535156 157.863281 C 104.375 153.777344 105.484375 149.964844 107.421875 148.648438 C 108.53125 147.957031 109.78125 147.816406 110.613281 148.023438 C 111.375 148.234375 112.066406 148.71875 112.414062 149.339844 C 112.898438 150.105469 113.175781 151.699219 112.828125 152.597656 C 112.550781 153.429688 111.375 154.46875 110.402344 154.746094 C 109.503906 154.953125 107.976562 154.539062 107.285156 153.914062 C 106.59375 153.292969 106.039062 151.835938 106.175781 150.867188 C 106.316406 149.894531 107.214844 148.648438 108.117188 148.234375 C 108.949219 147.816406 110.472656 147.886719 111.304688 148.371094 C 112.136719 148.855469 112.96875 150.105469 113.035156 151.074219 C 113.175781 152.113281 112.691406 152.804688 111.859375 154.398438 C 109.15625 159.667969 96.335938 176.851562 89.613281 185.792969 C 84.484375 192.652344 80.050781 198.890625 75.476562 203.8125 C 71.804688 207.691406 68.960938 210.046875 64.734375 213.511719 C 59.191406 218.019531 48.519531 226.886719 44.984375 228.066406 C 43.804688 228.480469 43.25 228.414062 42.488281 228.136719 C 41.796875 227.925781 40.964844 227.234375 40.617188 226.609375 C 40.273438 225.917969 40.0625 224.878906 40.273438 224.183594 C 40.410156 223.421875 41.589844 222.105469 41.589844 222.105469 "/></clipPath><clipPath id="f01994dd65"><path d="M 106.640625 147.347656 L 145.492188 147.347656 L 145.492188 206.992188 L 106.640625 206.992188 Z M 106.640625 147.347656 "/></clipPath><clipPath id="6a7fb505c8"><path d="M 113.035156 148.925781 C 124.265625 162.992188 127.589844 167.773438 130.984375 173.804688 C 135.558594 181.703125 144.292969 197.921875 145.261719 202.285156 C 145.539062 203.464844 145.46875 204.019531 145.191406 204.710938 C 144.914062 205.472656 144.152344 206.167969 143.460938 206.515625 C 142.765625 206.859375 141.796875 206.929688 141.035156 206.722656 C 140.273438 206.515625 139.371094 205.960938 139.023438 205.195312 C 138.609375 204.367188 138.539062 202.839844 138.816406 201.941406 C 139.09375 201.246094 139.71875 200.691406 140.339844 200.347656 C 140.964844 200 141.796875 199.792969 142.488281 200 C 143.390625 200.207031 144.636719 201.175781 145.121094 201.941406 C 145.46875 202.5625 145.539062 203.464844 145.398438 204.15625 C 145.191406 204.78125 144.777344 205.613281 144.222656 206.027344 C 143.738281 206.515625 142.90625 206.859375 142.210938 206.859375 C 141.3125 206.859375 139.785156 206.304688 139.234375 205.542969 C 138.679688 204.78125 138.46875 203.1875 138.679688 202.285156 C 138.886719 201.59375 139.441406 200.96875 139.996094 200.554688 C 140.617188 200.136719 141.378906 199.859375 142.144531 199.929688 C 143.042969 200.070312 144.359375 200.832031 144.914062 201.523438 C 145.332031 202.148438 145.539062 203.1875 145.398438 203.949219 C 145.261719 204.710938 144.847656 205.613281 144.222656 206.097656 C 143.460938 206.582031 141.933594 206.929688 141.035156 206.722656 C 140.273438 206.582031 139.71875 206.027344 139.09375 205.265625 C 137.914062 203.949219 136.597656 201.453125 135.351562 198.820312 C 133.480469 195.21875 131.539062 189.328125 129.53125 185.308594 C 127.796875 181.84375 126.34375 179.347656 124.125 175.8125 C 121.351562 171.308594 117.125 164.863281 113.9375 160.636719 C 111.511719 157.3125 107.839844 154.332031 107.078125 152.25 C 106.660156 151.28125 106.730469 150.519531 107.007812 149.757812 C 107.214844 149.0625 107.910156 148.300781 108.601562 147.886719 C 109.226562 147.539062 110.265625 147.402344 111.027344 147.539062 C 111.71875 147.679688 113.035156 148.925781 113.035156 148.925781 "/></clipPath><clipPath id="8189865eb5"><path d="M 68.730469 152 L 112.367188 152 L 112.367188 244.390625 L 68.730469 244.390625 Z M 68.730469 152 "/></clipPath><clipPath id="ae73e9e692"><path d="M 70.210938 238.113281 C 80.675781 229.246094 85.734375 225.015625 88.019531 221.691406 C 89.613281 219.335938 89.820312 218.292969 91 214.96875 C 94.117188 205.890625 102.019531 173.109375 104.097656 162.992188 C 105 158.90625 104.722656 156.0625 105.550781 154.332031 C 105.898438 153.429688 106.316406 152.945312 106.9375 152.597656 C 107.492188 152.25 108.324219 151.976562 109.085938 152.042969 C 109.988281 152.25 111.304688 153.082031 111.789062 153.847656 C 112.207031 154.46875 112.34375 155.300781 112.207031 155.992188 C 111.996094 156.894531 111.164062 158.210938 110.265625 158.628906 C 109.433594 159.042969 107.839844 158.972656 107.007812 158.558594 C 106.246094 158.074219 105.414062 156.757812 105.34375 155.785156 C 105.277344 154.816406 105.96875 153.429688 106.59375 152.804688 C 107.148438 152.320312 107.976562 152.042969 108.671875 152.042969 C 109.570312 152.113281 111.027344 152.804688 111.582031 153.5 C 112.066406 154.121094 112.136719 154.746094 112.207031 155.648438 C 112.34375 157.242188 111.996094 159.113281 111.375 162.4375 C 109.503906 172.140625 101.257812 207.414062 97.167969 218.15625 C 95.367188 222.867188 94.671875 224.460938 92.109375 227.789062 C 88.433594 232.5 79.148438 240.195312 75.753906 242.621094 C 74.4375 243.589844 73.742188 244.144531 72.773438 244.28125 C 71.941406 244.421875 71.042969 244.28125 70.417969 243.796875 C 69.65625 243.242188 68.824219 241.925781 68.824219 240.957031 C 68.753906 240.054688 70.210938 238.113281 70.210938 238.113281 "/></clipPath><clipPath id="c17536e89b"><path d="M 131.253906 92.367188 L 191.5625 92.367188 L 191.5625 185.640625 L 131.253906 185.640625 Z M 131.253906 92.367188 "/></clipPath><clipPath id="0314d40d12"><path d="M 131.472656 181.496094 C 134.519531 172.832031 138.402344 166.945312 142.144531 160.636719 C 147.617188 151.488281 156.074219 137.492188 162.792969 127.375 C 168.683594 118.503906 176.308594 109.285156 180.1875 103.046875 C 182.40625 99.375 183.585938 95.632812 184.96875 94.039062 C 185.664062 93.277344 186.148438 92.929688 186.773438 92.722656 C 187.464844 92.515625 188.367188 92.585938 188.988281 92.792969 C 189.683594 93.070312 190.375 93.625 190.722656 94.179688 C 191.136719 94.800781 191.414062 95.5625 191.277344 96.328125 C 191.136719 97.226562 190.238281 98.542969 189.542969 99.097656 C 188.921875 99.515625 188.089844 99.652344 187.328125 99.515625 C 186.496094 99.304688 185.109375 98.476562 184.691406 97.574219 C 184.277344 96.742188 184.347656 95.148438 184.832031 94.316406 C 185.246094 93.484375 186.632812 92.722656 187.535156 92.585938 C 188.296875 92.445312 189.058594 92.722656 189.683594 93.140625 C 190.238281 93.484375 190.859375 94.179688 191.070312 94.871094 C 191.277344 95.496094 191.347656 96.117188 191.136719 97.089844 C 190.722656 98.820312 189.335938 100.96875 187.394531 104.226562 C 182.820312 111.988281 169.515625 129.867188 161.410156 142.480469 C 153.785156 154.398438 143.667969 170.753906 140.132812 177.824219 C 138.746094 180.734375 138.679688 182.882812 137.636719 184.128906 C 137.015625 184.890625 136.253906 185.238281 135.558594 185.445312 C 135.003906 185.585938 134.449219 185.585938 133.894531 185.378906 C 133.203125 185.101562 132.371094 184.546875 131.957031 183.921875 C 131.539062 183.230469 131.472656 181.496094 131.472656 181.496094 "/></clipPath><clipPath id="3b74a35b63"><path d="M 184.367188 92.476562 L 246.972656 92.476562 L 246.972656 193 L 184.367188 193 Z M 184.367188 92.476562 "/></clipPath><clipPath id="07fae313a6"><path d="M 190.929688 94.523438 C 210.265625 128.621094 219.066406 141.855469 223.710938 150.3125 C 226.6875 155.71875 228.144531 160.429688 230.363281 163.894531 C 231.886719 166.390625 233.066406 167.152344 234.867188 169.714844 C 237.984375 174.21875 246.230469 185.722656 246.855469 189.050781 C 246.992188 190.019531 246.71875 190.574219 246.371094 191.199219 C 246.023438 191.820312 245.398438 192.375 244.777344 192.652344 C 244.082031 192.929688 243.25 193 242.558594 192.792969 C 241.867188 192.652344 241.105469 192.238281 240.6875 191.613281 C 240.203125 190.851562 239.855469 189.328125 240.0625 188.425781 C 240.273438 187.734375 240.828125 187.039062 241.378906 186.625 C 241.933594 186.207031 242.765625 185.933594 243.527344 186 C 244.429688 186.140625 245.816406 186.902344 246.300781 187.59375 C 246.785156 188.21875 246.925781 189.050781 246.855469 189.742188 C 246.785156 190.4375 246.507812 191.269531 245.953125 191.820312 C 245.332031 192.375 243.804688 192.929688 242.90625 192.929688 C 242.144531 192.863281 241.796875 192.652344 240.964844 191.890625 C 237.777344 189.121094 227.660156 173.527344 223.5 166.179688 C 220.589844 161.121094 219.96875 158.003906 217.125 152.667969 C 212.621094 144.28125 203.679688 131.117188 198 121.273438 C 193.078125 112.890625 185.941406 101.453125 184.691406 97.574219 C 184.347656 96.394531 184.277344 95.839844 184.484375 95.148438 C 184.691406 94.386719 185.246094 93.554688 185.941406 93.140625 C 186.703125 92.722656 188.296875 92.585938 189.128906 92.863281 C 189.890625 93.140625 190.929688 94.523438 190.929688 94.523438 "/></clipPath><clipPath id="cc24adb985"><path d="M 169.804688 99.871094 L 192.167969 99.871094 L 192.167969 177 L 169.804688 177 Z M 169.804688 99.871094 "/></clipPath><clipPath id="f177bef32c"><path d="M 192.109375 103.324219 C 190.652344 122.175781 189.265625 129.796875 187.535156 137.699219 C 185.316406 147.402344 181.160156 163.203125 178.871094 169.4375 C 177.902344 172.210938 177.207031 174.082031 176.308594 175.257812 C 175.753906 176.023438 175.335938 176.507812 174.574219 176.714844 C 173.742188 176.992188 172.148438 176.921875 171.386719 176.367188 C 170.554688 175.8125 169.933594 174.359375 169.863281 173.457031 C 169.792969 172.765625 170.070312 171.933594 170.554688 171.378906 C 171.179688 170.6875 172.636719 170.0625 173.535156 170.0625 C 174.230469 169.992188 175.0625 170.339844 175.546875 170.824219 C 176.238281 171.515625 176.863281 172.902344 176.792969 173.875 C 176.65625 174.84375 175.683594 176.089844 174.921875 176.578125 C 174.296875 176.921875 173.464844 176.992188 172.773438 176.921875 C 172.082031 176.785156 171.25 176.4375 170.765625 175.882812 C 170.210938 175.191406 169.863281 173.941406 169.933594 172.765625 C 170.070312 171.03125 171.527344 169.644531 172.496094 166.875 C 174.714844 160.429688 179.078125 143.726562 181.160156 134.371094 C 182.683594 127.441406 183.792969 121.621094 184.417969 115.9375 C 185.039062 111.15625 184.417969 104.988281 185.246094 102.496094 C 185.59375 101.453125 186.011719 100.902344 186.632812 100.484375 C 187.257812 100.070312 188.296875 99.792969 189.058594 99.929688 C 189.820312 100 190.722656 100.484375 191.207031 101.039062 C 191.761719 101.59375 192.109375 103.324219 192.109375 103.324219 "/></clipPath><clipPath id="9d2e8034f2"><path d="M 156.046875 165.878906 L 185.964844 165.878906 L 185.964844 236.699219 L 156.046875 236.699219 Z M 156.046875 165.878906 "/></clipPath><clipPath id="1ad83263b3"><path d="M 170.902344 171.03125 C 175.753906 166.734375 176.792969 166.25 177.972656 166.042969 C 179.148438 165.835938 180.605469 165.902344 181.644531 166.390625 C 182.753906 166.875 183.722656 167.984375 184.347656 169.089844 C 185.109375 170.199219 185.523438 171.449219 185.734375 172.902344 C 186.011719 174.914062 185.734375 177.40625 185.316406 180.042969 C 184.832031 183.296875 184 186.625 182.335938 190.992188 C 179.566406 198.128906 171.871094 210.257812 168.753906 217.878906 C 166.535156 223.144531 165.496094 228.757812 164.179688 231.738281 C 163.558594 233.332031 163.140625 234.304688 162.449219 235.132812 C 161.894531 235.757812 161.339844 236.242188 160.644531 236.453125 C 160.023438 236.730469 159.121094 236.730469 158.496094 236.519531 C 157.804688 236.242188 157.042969 235.828125 156.695312 235.132812 C 156.28125 234.371094 156.003906 232.847656 156.351562 231.945312 C 156.695312 231.046875 157.945312 230.074219 158.773438 229.796875 C 159.46875 229.589844 160.300781 229.660156 160.992188 230.074219 C 161.753906 230.492188 162.792969 231.667969 162.933594 232.640625 C 163.140625 233.539062 162.515625 234.996094 161.964844 235.6875 C 161.476562 236.242188 160.644531 236.589844 159.953125 236.660156 C 159.261719 236.730469 158.359375 236.519531 157.804688 236.175781 C 157.179688 235.828125 156.625 235.132812 156.351562 234.511719 C 156.074219 233.816406 156.074219 233.332031 156.210938 232.292969 C 156.625 229.175781 159.953125 220.789062 162.726562 214.273438 C 166.328125 206.097656 173.464844 195.011719 176.378906 187.25 C 178.457031 181.703125 181.160156 173.109375 180.050781 172.417969 C 179.355469 172.003906 176.585938 175.8125 175.128906 176.4375 C 174.230469 176.851562 173.464844 177.0625 172.703125 176.921875 C 171.804688 176.714844 170.625 175.605469 170.140625 174.914062 C 169.863281 174.429688 169.792969 173.875 169.863281 173.320312 C 169.933594 172.558594 170.902344 171.03125 170.902344 171.03125 "/></clipPath><clipPath id="8c7d8cacbb"><path d="M 237 148.132812 L 268.4375 148.132812 L 268.4375 184.203125 L 237 184.203125 Z M 237 148.132812 "/></clipPath><clipPath id="05a8595361"><path d="M 237.777344 178.585938 C 264.042969 148.09375 264.597656 148.09375 265.359375 148.164062 C 266.121094 148.300781 267.023438 148.785156 267.507812 149.339844 C 267.992188 149.964844 268.40625 150.933594 268.339844 151.699219 C 268.339844 152.460938 268.128906 153.429688 267.4375 153.984375 C 266.605469 154.609375 264.042969 154.886719 263.210938 154.675781 C 262.792969 154.539062 262.585938 154.261719 262.308594 153.914062 C 261.960938 153.5 261.476562 152.667969 261.476562 151.90625 C 261.476562 151.003906 261.960938 149.550781 262.726562 148.925781 C 263.488281 148.300781 265.011719 148.09375 265.914062 148.300781 C 266.675781 148.507812 267.300781 149.0625 267.714844 149.617188 C 268.128906 150.171875 268.40625 151.003906 268.339844 151.699219 C 268.339844 152.460938 268.0625 153.292969 267.578125 153.777344 C 267.160156 154.332031 266.46875 154.886719 265.773438 155.023438 C 264.875 155.164062 263.28125 154.746094 262.585938 154.191406 C 262.03125 153.777344 261.617188 152.945312 261.476562 152.25 C 261.339844 151.628906 261.476562 150.726562 261.824219 150.105469 C 262.101562 149.480469 262.726562 148.855469 263.347656 148.507812 C 263.972656 148.230469 265.566406 148.164062 265.566406 148.230469 C 265.566406 148.300781 262.378906 149.410156 262.308594 149.273438 C 262.308594 149.273438 263.765625 148.300781 264.527344 148.164062 C 265.289062 148.09375 266.257812 148.371094 266.882812 148.785156 C 267.507812 149.273438 268.128906 150.105469 268.269531 150.867188 C 268.476562 151.558594 268.476562 152.113281 267.921875 153.292969 C 265.914062 157.863281 246.855469 180.664062 242.628906 183.4375 C 241.589844 184.128906 241.035156 184.199219 240.273438 184.199219 C 239.507812 184.128906 238.609375 183.714844 238.054688 183.160156 C 237.5 182.605469 237.085938 181.703125 237.015625 180.941406 C 237.015625 180.179688 237.777344 178.585938 237.777344 178.585938 "/></clipPath><clipPath id="b2a44013e3"><path d="M 261 148 L 334 148 L 334 227.757812 L 261 227.757812 Z M 261 148 "/></clipPath><clipPath id="d95854ba74"><path d="M 267.300781 149.480469 C 309.570312 204.917969 310.75 205.960938 313.9375 208.386719 C 318.164062 211.640625 326.480469 215.382812 329.808594 218.503906 C 331.816406 220.375 333.410156 222.660156 333.757812 223.839844 C 333.894531 224.324219 333.757812 224.53125 333.621094 224.949219 C 333.410156 225.503906 332.996094 226.332031 332.441406 226.820312 C 331.886719 227.234375 331.054688 227.582031 330.363281 227.511719 C 329.460938 227.511719 328.007812 226.75 327.453125 226.054688 C 326.964844 225.503906 326.757812 224.671875 326.828125 223.976562 C 326.898438 223.078125 327.589844 221.691406 328.421875 221.136719 C 329.253906 220.652344 330.847656 220.582031 331.679688 220.929688 C 332.371094 221.136719 332.996094 221.761719 333.273438 222.382812 C 333.621094 223.007812 333.828125 223.90625 333.6875 224.601562 C 333.621094 225.292969 333.203125 226.054688 332.71875 226.542969 C 332.234375 227.027344 331.402344 227.441406 330.707031 227.511719 C 330.015625 227.582031 329.183594 227.511719 328.558594 227.097656 C 327.796875 226.609375 327.867188 225.433594 326.828125 224.324219 C 324.054688 221.621094 313.453125 216.769531 308.808594 213.234375 C 305.550781 210.742188 303.335938 208.246094 301.117188 205.890625 C 299.175781 203.8125 298.484375 202.839844 296.128906 199.859375 C 289.753906 191.683594 263.558594 159.042969 261.410156 153.082031 C 260.921875 151.835938 260.992188 151.351562 261.269531 150.589844 C 261.476562 149.894531 262.101562 149.0625 262.792969 148.648438 C 263.417969 148.300781 264.386719 148.09375 265.152344 148.234375 C 265.914062 148.371094 267.300781 149.480469 267.300781 149.480469 "/></clipPath><clipPath id="4606aa8004"><path d="M 226.6875 151.222656 L 272.199219 151.222656 L 272.199219 223.25 L 226.6875 223.25 Z M 226.6875 151.222656 "/></clipPath><clipPath id="d4fa2f9bef"><path d="M 227.660156 217.1875 C 236.113281 209.632812 249.558594 202.285156 253.230469 199.304688 C 254.6875 198.199219 255.03125 197.78125 256.003906 196.671875 C 257.390625 195.011719 259.121094 192.792969 260.300781 190.296875 C 261.753906 187.316406 262.933594 183.296875 263.695312 179.625 C 264.457031 175.746094 264.664062 171.792969 264.875 167.636719 C 265.082031 163.203125 264.109375 156.132812 264.941406 153.777344 C 265.21875 152.804688 265.707031 152.390625 266.257812 151.976562 C 266.8125 151.558594 267.644531 151.28125 268.40625 151.421875 C 269.308594 151.488281 270.625 152.320312 271.179688 153.082031 C 271.59375 153.636719 271.804688 154.46875 271.664062 155.230469 C 271.457031 156.132812 270.695312 157.449219 269.863281 157.933594 C 268.960938 158.351562 267.4375 158.351562 266.605469 157.933594 C 265.773438 157.449219 264.875 156.203125 264.734375 155.230469 C 264.664062 154.261719 265.21875 152.804688 265.980469 152.183594 C 266.675781 151.558594 268.199219 151.28125 269.171875 151.488281 C 270.070312 151.765625 270.972656 152.527344 271.527344 153.777344 C 272.496094 156.0625 271.941406 161.539062 271.804688 165.835938 C 271.664062 170.617188 271.527344 176.160156 270.488281 181.082031 C 269.378906 186 267.644531 191.335938 265.359375 195.425781 C 263.347656 198.960938 261.410156 201.316406 258.011719 204.367188 C 253.023438 208.871094 241.171875 214.484375 236.738281 218.019531 C 234.449219 219.75 233.410156 221.761719 232.023438 222.523438 C 231.125 223.007812 230.363281 223.144531 229.601562 223.007812 C 228.835938 222.867188 227.9375 222.382812 227.453125 221.761719 C 226.964844 221.207031 226.6875 220.234375 226.6875 219.472656 C 226.6875 218.710938 227.660156 217.1875 227.660156 217.1875 "/></clipPath><clipPath id="0ee9d06dc2"><path d="M 152.191406 239.898438 L 261.496094 239.898438 L 261.496094 257 L 152.191406 257 Z M 152.191406 239.898438 "/></clipPath><clipPath id="17909f7fa9"><path d="M 155.726562 249.894531 C 168.40625 249.203125 192.386719 245.460938 202.78125 243.660156 C 209.085938 242.617188 211.859375 241.371094 217.886719 240.679688 C 226.6875 239.777344 244.847656 239.917969 250.460938 240.054688 C 252.398438 240.125 252.882812 239.984375 254.339844 240.332031 C 256.417969 240.886719 260.714844 242.132812 261.339844 243.519531 C 261.753906 244.421875 261.0625 245.945312 260.507812 246.636719 C 260.023438 247.261719 259.261719 247.609375 258.566406 247.746094 C 257.875 247.816406 257.042969 247.746094 256.347656 247.402344 C 255.65625 246.914062 254.617188 245.667969 254.546875 244.699219 C 254.410156 243.726562 255.101562 242.34375 255.726562 241.71875 C 256.210938 241.164062 257.042969 240.886719 257.734375 240.816406 C 258.496094 240.816406 259.328125 240.957031 259.882812 241.441406 C 260.578125 241.996094 261.339844 243.382812 261.476562 244.28125 C 261.546875 245.042969 261.199219 245.808594 260.785156 246.359375 C 260.367188 246.914062 259.605469 247.46875 258.914062 247.609375 C 258.289062 247.816406 257.390625 247.886719 256.695312 247.539062 C 255.933594 247.125 254.753906 244.976562 254.617188 245.113281 C 254.476562 245.183594 256.003906 247.054688 255.65625 247.539062 C 255.101562 248.300781 251.707031 247.054688 248.519531 246.984375 C 242.144531 246.777344 227.796875 246.636719 219.34375 247.539062 C 212.691406 248.230469 208.808594 249.6875 201.742188 250.933594 C 191.070312 252.738281 168.960938 256.269531 161.269531 256.757812 C 158.222656 256.964844 156.351562 257.171875 154.894531 256.6875 C 153.992188 256.410156 153.300781 255.925781 152.882812 255.300781 C 152.398438 254.675781 152.261719 253.636719 152.261719 252.945312 C 152.332031 252.320312 152.46875 251.835938 152.882812 251.351562 C 153.4375 250.726562 155.726562 249.894531 155.726562 249.894531 "/></clipPath><clipPath id="1feba54193"><path d="M 189.628906 242.152344 L 262.269531 242.152344 L 262.269531 267.808594 L 189.628906 267.808594 Z M 189.628906 242.152344 "/></clipPath><clipPath id="081be9a490"><path d="M 193.21875 260.636719 C 209.917969 259.113281 223.640625 255.09375 232.023438 252.597656 C 238.539062 250.65625 244.292969 248.71875 249.074219 246.777344 C 252.675781 245.253906 256.28125 242.480469 258.289062 242.273438 C 259.261719 242.132812 259.882812 242.410156 260.507812 242.757812 C 261.0625 243.105469 261.617188 243.796875 261.894531 244.421875 C 262.171875 245.113281 262.171875 246.015625 262.03125 246.636719 C 261.824219 247.332031 261.410156 248.09375 260.785156 248.507812 C 260.023438 248.996094 258.429688 249.203125 257.527344 248.996094 C 256.835938 248.785156 256.210938 248.234375 255.796875 247.679688 C 255.378906 247.054688 255.101562 246.222656 255.242188 245.53125 C 255.308594 244.628906 256.074219 243.242188 256.902344 242.757812 C 257.734375 242.273438 259.328125 242.273438 260.160156 242.550781 C 260.855469 242.828125 261.410156 243.519531 261.753906 244.074219 C 262.101562 244.699219 262.238281 245.597656 262.101562 246.292969 C 261.964844 246.984375 261.6875 247.539062 261.0625 248.234375 C 259.675781 249.617188 256.003906 251.28125 252.605469 252.738281 C 247.964844 254.816406 241.867188 256.824219 235.28125 258.835938 C 227.035156 261.332031 213.3125 264.933594 206.730469 266.320312 C 203.335938 267.011719 201.394531 267.359375 198.898438 267.566406 C 196.613281 267.707031 193.839844 267.914062 192.386719 267.429688 C 191.414062 267.152344 190.792969 266.667969 190.375 266.042969 C 189.890625 265.417969 189.683594 264.378906 189.753906 263.6875 C 189.820312 263.0625 189.960938 262.578125 190.375 262.09375 C 190.929688 261.46875 193.21875 260.636719 193.21875 260.636719 "/></clipPath><clipPath id="729fde204f"><path d="M 255.253906 220.664062 L 334.679688 220.664062 L 334.679688 249.257812 L 255.253906 249.257812 Z M 255.253906 220.664062 "/></clipPath><clipPath id="ac3630d2ea"><path d="M 258.082031 242.273438 C 278.734375 234.71875 285.59375 232.988281 290.722656 231.808594 C 294.601562 230.839844 297.167969 230.214844 301.117188 229.589844 C 306.453125 228.757812 314.839844 228.757812 319.691406 227.71875 C 323.015625 227.027344 326.828125 226.195312 327.867188 224.949219 C 328.421875 224.324219 327.730469 223.421875 328.144531 222.730469 C 328.558594 221.96875 329.878906 220.996094 330.707031 220.789062 C 331.472656 220.652344 332.300781 220.859375 332.925781 221.136719 C 333.480469 221.484375 334.171875 222.105469 334.382812 222.800781 C 334.726562 223.632812 334.726562 225.226562 334.242188 226.054688 C 333.6875 226.820312 332.300781 227.582031 331.402344 227.648438 C 330.707031 227.789062 329.878906 227.582031 329.324219 227.097656 C 328.628906 226.542969 327.796875 225.15625 327.796875 224.183594 C 327.796875 223.214844 328.558594 221.898438 329.324219 221.34375 C 330.152344 220.789062 331.679688 220.652344 332.578125 220.996094 C 333.410156 221.34375 334.519531 222.453125 334.660156 223.492188 C 334.867188 225.085938 333.34375 228.066406 331.609375 229.730469 C 329.460938 231.878906 325.648438 233.261719 321.769531 234.304688 C 316.777344 235.757812 308.808594 235.480469 303.542969 236.242188 C 299.453125 236.867188 296.75 237.492188 292.730469 238.460938 C 287.464844 239.640625 280.535156 241.441406 274.851562 243.242188 C 269.449219 244.976562 262.238281 248.855469 259.328125 249.132812 C 258.152344 249.203125 257.527344 249.0625 256.902344 248.648438 C 256.210938 248.300781 255.585938 247.539062 255.378906 246.777344 C 255.171875 245.875 255.449219 244.351562 255.933594 243.589844 C 256.417969 242.894531 258.082031 242.273438 258.082031 242.273438 "/></clipPath></defs><g id="95c8450feb"><g clip-rule="nonzero" clip-path="url(#e3f6e5e942)"><g clip-rule="nonzero" clip-path="url(#ca2bf51582)"><path style=" stroke:none;fill-rule:nonzero;fill:currentColor;fill-opacity:1;" d="M 37.5 145.253906 L 115.878906 145.253906 L 115.878906 230.980469 L 37.5 230.980469 Z M 37.5 145.253906 "/></g></g><g clip-rule="nonzero" clip-path="url(#f01994dd65)"><g clip-rule="nonzero" clip-path="url(#6a7fb505c8)"><path style=" stroke:none;fill-rule:nonzero;fill:currentColor;fill-opacity:1;" d="M 104.234375 144.765625 L 148.242188 144.765625 L 148.242188 209.574219 L 104.234375 209.574219 Z M 104.234375 144.765625 "/></g></g><g clip-rule="nonzero" clip-path="url(#8189865eb5)"><g clip-rule="nonzero" clip-path="url(#ae73e9e692)"><path style=" stroke:none;fill-rule:nonzero;fill:currentColor;fill-opacity:1;" d="M 66.050781 149.273438 L 115.046875 149.273438 L 115.046875 247.070312 L 66.050781 247.070312 Z M 66.050781 149.273438 "/></g></g><g clip-rule="nonzero" clip-path="url(#c17536e89b)"><g clip-rule="nonzero" clip-path="url(#0314d40d12)"><path style=" stroke:none;fill-rule:nonzero;fill:currentColor;fill-opacity:1;" d="M 128.699219 89.8125 L 194.117188 89.8125 L 194.117188 188.195312 L 128.699219 188.195312 Z M 128.699219 89.8125 "/></g></g><g clip-rule="nonzero" clip-path="url(#3b74a35b63)"><g clip-rule="nonzero" clip-path="url(#07fae313a6)"><path style=" stroke:none;fill-rule:nonzero;fill:currentColor;fill-opacity:1;" d="M 181.714844 90.089844 L 249.628906 90.089844 L 249.628906 195.675781 L 181.714844 195.675781 Z M 181.714844 90.089844 "/></g></g><g clip-rule="nonzero" clip-path="url(#cc24adb985)"><g clip-rule="nonzero" clip-path="url(#f177bef32c)"><path style=" stroke:none;fill-rule:nonzero;fill:currentColor;fill-opacity:1;" d="M 167.089844 97.160156 L 194.878906 97.160156 L 194.878906 179.765625 L 167.089844 179.765625 Z M 167.089844 97.160156 "/></g></g><g clip-rule="nonzero" clip-path="url(#9d2e8034f2)"><g clip-rule="nonzero" clip-path="url(#1ad83263b3)"><path style=" stroke:none;fill-rule:nonzero;fill:currentColor;fill-opacity:1;" d="M 153.4375 163.269531 L 188.574219 163.269531 L 188.574219 239.441406 L 153.4375 239.441406 Z M 153.4375 163.269531 "/></g></g><g clip-rule="nonzero" clip-path="url(#8c7d8cacbb)"><g clip-rule="nonzero" clip-path="url(#05a8595361)"><path style=" stroke:none;fill-rule:nonzero;fill:currentColor;fill-opacity:1;" d="M 234.242188 145.390625 L 271.179688 145.390625 L 271.179688 186.945312 L 234.242188 186.945312 Z M 234.242188 145.390625 "/></g></g><g clip-rule="nonzero" clip-path="url(#b2a44013e3)"><g clip-rule="nonzero" clip-path="url(#d95854ba74)"><path style=" stroke:none;fill-rule:nonzero;fill:currentColor;fill-opacity:1;" d="M 258.496094 145.460938 L 336.53125 145.460938 L 336.53125 230.503906 L 258.496094 230.503906 Z M 258.496094 145.460938 "/></g></g><g clip-rule="nonzero" clip-path="url(#4606aa8004)"><g clip-rule="nonzero" clip-path="url(#d4fa2f9bef)"><path style=" stroke:none;fill-rule:nonzero;fill:currentColor;fill-opacity:1;" d="M 223.917969 148.648438 L 274.574219 148.648438 L 274.574219 225.824219 L 223.917969 225.824219 Z M 223.917969 148.648438 "/></g></g><g clip-rule="nonzero" clip-path="url(#0ee9d06dc2)"><g clip-rule="nonzero" clip-path="url(#17909f7fa9)"><path style=" stroke:none;fill-rule:nonzero;fill:currentColor;fill-opacity:1;" d="M 149.488281 237.28125 L 264.289062 237.28125 L 264.289062 259.597656 L 149.488281 259.597656 Z M 149.488281 237.28125 "/></g></g><g clip-rule="nonzero" clip-path="url(#1feba54193)"><g clip-rule="nonzero" clip-path="url(#081be9a490)"><path style=" stroke:none;fill-rule:nonzero;fill:currentColor;fill-opacity:1;" d="M 186.980469 239.5 L 264.917969 239.5 L 264.917969 270.339844 L 186.980469 270.339844 Z M 186.980469 239.5 "/></g></g><g clip-rule="nonzero" clip-path="url(#729fde204f)"><g clip-rule="nonzero" clip-path="url(#ac3630d2ea)"><path style=" stroke:none;fill-rule:nonzero;fill:currentColor;fill-opacity:1;" d="M 252.605469 218.019531 L 337.460938 218.019531 L 337.460938 251.90625 L 252.605469 251.90625 Z M 252.605469 218.019531 "/></g></g></g></svg>