<svg xmlns="http://www.w3.org/2000/svg" xmlns:xlink="http://www.w3.org/1999/xlink" width="500" zoomAndPan="magnify" viewBox="0 0 375 374.999991" height="500" preserveAspectRatio="xMidYMid meet" version="1.2"><defs><clipPath id="ad6afb795c"><path d="M 117.710938 176.457031 L 154.488281 176.457031 L 154.488281 251.488281 L 117.710938 251.488281 Z M 117.710938 176.457031 "/></clipPath><clipPath id="a10ace81c1"><path d="M 124.179688 178.40625 C 132.859375 194.734375 141.542969 219.058594 146.367188 230.082031 C 149.328125 236.972656 153.460938 243.105469 154.082031 246.550781 C 154.359375 247.925781 154.359375 248.890625 153.875 249.71875 C 153.53125 250.40625 152.703125 251.027344 152.015625 251.234375 C 151.257812 251.441406 150.222656 251.371094 149.535156 251.097656 C 148.847656 250.753906 148.089844 250.132812 147.8125 249.375 C 147.535156 248.410156 147.675781 246.480469 148.363281 245.722656 C 148.914062 244.964844 150.429688 244.414062 151.328125 244.550781 C 152.289062 244.621094 153.601562 245.515625 154.011719 246.34375 C 154.425781 247.167969 154.425781 248.753906 154.011719 249.582031 C 153.53125 250.40625 152.289062 251.304688 151.328125 251.371094 C 150.363281 251.441406 148.914062 250.890625 148.292969 250.132812 C 147.742188 249.441406 147.398438 247.925781 147.675781 247.03125 C 147.882812 246.066406 149.050781 245.035156 149.878906 244.6875 C 150.570312 244.414062 151.394531 244.414062 152.085938 244.6875 C 152.910156 245.035156 154.011719 246.136719 154.289062 247.03125 C 154.566406 247.859375 154.289062 249.03125 153.875 249.71875 C 153.53125 250.40625 152.703125 251.027344 152.015625 251.234375 C 151.257812 251.441406 150.292969 251.441406 149.535156 251.097656 C 148.640625 250.683594 148.019531 250.132812 146.984375 248.476562 C 142.507812 241.792969 127.898438 199.902344 122.664062 189.222656 C 120.597656 185.019531 118.183594 182.816406 117.839844 180.816406 C 117.632812 179.78125 117.769531 179.09375 118.117188 178.40625 C 118.460938 177.714844 119.21875 177.027344 119.90625 176.75 C 120.664062 176.542969 121.699219 176.542969 122.386719 176.75 C 123.078125 177.027344 124.179688 178.40625 124.179688 178.40625 "/></clipPath><clipPath id="1b3d0e72fc"><path d="M 145 239.648438 L 191 239.648438 L 191 334.835938 L 145 334.835938 Z M 145 239.648438 "/></clipPath><clipPath id="54d75691c6"><path d="M 151.878906 242.554688 C 183.089844 315.863281 189.773438 325.578125 190.601562 329.921875 C 190.945312 331.4375 190.808594 332.332031 190.394531 333.160156 C 190.050781 333.777344 189.292969 334.261719 188.671875 334.539062 C 187.980469 334.742188 187.15625 334.882812 186.464844 334.605469 C 185.640625 334.261719 184.46875 333.226562 184.191406 332.332031 C 183.917969 331.4375 184.261719 329.851562 184.742188 329.164062 C 185.15625 328.542969 185.914062 328.058594 186.605469 327.921875 C 187.5 327.785156 189.015625 328.199219 189.773438 328.75 C 190.324219 329.164062 190.738281 329.921875 190.875 330.609375 C 190.945312 331.296875 190.875 332.195312 190.53125 332.816406 C 190.257812 333.433594 189.636719 334.054688 189.015625 334.398438 C 188.394531 334.675781 187.5 334.8125 186.8125 334.675781 C 186.121094 334.539062 185.640625 334.398438 184.882812 333.574219 C 182.125 330.679688 176.613281 317.933594 171.652344 307.25 C 164.210938 291.058594 147.125 253.164062 145.332031 245.308594 C 144.988281 243.585938 144.917969 242.898438 145.195312 242 C 145.46875 241.242188 146.089844 240.484375 146.777344 240.140625 C 147.605469 239.726562 149.121094 239.589844 149.949219 240.003906 C 150.84375 240.417969 151.878906 242.554688 151.878906 242.554688 "/></clipPath><clipPath id="5a8a41afc4"><path d="M 183.457031 239.613281 L 228.957031 239.613281 L 228.957031 334.566406 L 183.457031 334.566406 Z M 183.457031 239.613281 "/></clipPath><clipPath id="13d71da54d"><path d="M 183.640625 330.128906 C 197.285156 299.257812 198.316406 295.609375 201.210938 288.648438 C 206.105469 276.867188 218.988281 245.996094 222.433594 241.382812 C 223.121094 240.484375 223.398438 240.210938 224.085938 240.003906 C 224.984375 239.726562 226.566406 239.867188 227.324219 240.347656 C 227.945312 240.691406 228.429688 241.382812 228.632812 242.070312 C 228.839844 242.757812 228.980469 243.585938 228.632812 244.273438 C 228.289062 245.101562 227.1875 246.203125 226.292969 246.480469 C 225.601562 246.753906 224.777344 246.617188 224.085938 246.410156 C 223.46875 246.136719 222.777344 245.652344 222.433594 244.964844 C 222.019531 244.136719 221.882812 242.621094 222.226562 241.726562 C 222.640625 240.898438 223.949219 240.003906 224.84375 239.796875 C 225.535156 239.589844 226.359375 239.796875 226.980469 240.140625 C 227.601562 240.484375 228.222656 241.105469 228.496094 241.726562 C 228.773438 242.347656 228.910156 242.828125 228.773438 243.929688 C 228.082031 248.339844 219.402344 266.394531 215.335938 275.210938 C 212.234375 281.894531 208.996094 287.476562 206.863281 292.574219 C 205.277344 296.433594 204.933594 298.707031 203.210938 302.980469 C 200.316406 310.421875 192.738281 329.09375 189.980469 332.746094 C 189.222656 333.710938 188.808594 334.054688 188.121094 334.332031 C 187.429688 334.539062 186.398438 334.539062 185.707031 334.261719 C 184.949219 333.984375 184.261719 333.226562 183.917969 332.609375 C 183.574219 331.917969 183.640625 330.128906 183.640625 330.128906 "/></clipPath><clipPath id="6a7bdc6df6"><path d="M 217.671875 177.160156 L 257 177.160156 L 257 256.738281 L 217.671875 256.738281 Z M 217.671875 177.160156 "/></clipPath><clipPath id="21361b9601"><path d="M 217.816406 252.199219 C 238.488281 207.964844 241.242188 199.28125 244.273438 192.324219 C 246.617188 187.019531 249.097656 180.335938 250.890625 178.40625 C 251.578125 177.648438 252.128906 177.441406 252.820312 177.300781 C 253.507812 177.164062 254.402344 177.300781 255.023438 177.578125 C 255.644531 177.921875 256.265625 178.542969 256.539062 179.164062 C 256.882812 179.78125 257.023438 180.609375 256.816406 181.367188 C 256.609375 182.195312 255.644531 183.433594 254.816406 183.847656 C 254.199219 184.191406 253.300781 184.261719 252.613281 184.054688 C 251.785156 183.777344 250.613281 182.675781 250.199219 181.851562 C 249.925781 181.230469 249.925781 180.335938 250.199219 179.644531 C 250.476562 178.816406 251.648438 177.714844 252.476562 177.371094 C 253.164062 177.09375 253.992188 177.234375 254.679688 177.441406 C 255.300781 177.714844 256.058594 178.199219 256.402344 178.816406 C 256.816406 179.644531 256.882812 180.539062 256.609375 182.058594 C 255.917969 186.121094 249.71875 197.007812 246.824219 203.96875 C 244.207031 210.167969 242.828125 214.992188 239.933594 221.8125 C 235.871094 231.253906 227.117188 251.097656 224.085938 254.957031 C 223.261719 255.917969 222.914062 256.195312 222.15625 256.472656 C 221.46875 256.675781 220.433594 256.609375 219.746094 256.332031 C 219.058594 255.988281 218.300781 255.300781 217.953125 254.609375 C 217.679688 253.921875 217.816406 252.199219 217.816406 252.199219 "/></clipPath><clipPath id="f04acb4f38"><path d="M 117.378906 134.125 L 205.40625 134.125 L 205.40625 182.308594 L 117.378906 182.308594 Z M 117.378906 134.125 "/></clipPath><clipPath id="f70d3868ac"><path d="M 117.703125 177.855469 C 126.039062 161.25 131 155.804688 134.859375 152.359375 C 137.960938 149.671875 140.578125 148.226562 143.953125 146.296875 C 147.882812 144.023438 152.496094 141.816406 157.046875 140.027344 C 161.867188 138.097656 167.175781 136.238281 172.136719 135.339844 C 176.890625 134.445312 182.402344 134.515625 186.398438 134.375 C 189.152344 134.238281 190.945312 134.101562 193.5625 134.375 C 196.664062 134.652344 202.175781 134.789062 203.96875 136.167969 C 204.933594 136.925781 205.277344 138.167969 205.277344 139.0625 C 205.34375 139.820312 204.933594 140.578125 204.449219 141.128906 C 204.035156 141.679688 203.277344 142.09375 202.589844 142.230469 C 201.902344 142.4375 201.074219 142.371094 200.382812 142.023438 C 199.625 141.609375 198.664062 140.300781 198.457031 139.476562 C 198.25 138.71875 198.457031 137.890625 198.800781 137.269531 C 199.144531 136.648438 199.765625 136.03125 200.382812 135.753906 C 201.074219 135.480469 201.902344 135.410156 202.589844 135.546875 C 203.277344 135.6875 204.035156 136.097656 204.449219 136.648438 C 205 137.410156 205.34375 138.925781 205.207031 139.820312 C 205.070312 140.578125 204.519531 141.199219 203.96875 141.609375 C 203.417969 142.09375 202.863281 142.230469 201.832031 142.371094 C 199.074219 142.714844 191.359375 141.199219 186.257812 141.199219 C 181.296875 141.265625 176.542969 141.335938 171.789062 142.371094 C 167.035156 143.332031 162.007812 145.46875 157.734375 147.191406 C 154.011719 148.707031 150.84375 150.222656 147.675781 152.085938 C 144.574219 153.875 141.75 155.390625 138.855469 158.078125 C 134.996094 161.523438 129.898438 167.65625 127.347656 171.929688 C 125.558594 174.960938 124.9375 179.09375 123.972656 180.609375 C 123.558594 181.230469 123.28125 181.503906 122.800781 181.78125 C 122.179688 182.125 121.078125 182.332031 120.390625 182.261719 C 119.839844 182.195312 119.355469 181.988281 118.875 181.574219 C 118.390625 181.160156 117.769531 180.195312 117.632812 179.507812 C 117.425781 178.957031 117.703125 177.855469 117.703125 177.855469 "/></clipPath><clipPath id="7852f2270b"><path d="M 196.183594 135.144531 L 257.574219 135.144531 L 257.574219 184.597656 L 196.183594 184.597656 Z M 196.183594 135.144531 "/></clipPath><clipPath id="23ddeedd49"><path d="M 199.765625 135.339844 C 207.621094 135.753906 211.617188 136.925781 215.265625 138.234375 C 219.46875 139.820312 224.15625 142.164062 228.496094 144.367188 C 232.835938 146.503906 237.453125 148.433594 241.242188 151.394531 C 245.101562 154.496094 248.824219 158.835938 251.441406 162.558594 C 253.644531 165.796875 255.4375 169.792969 256.332031 172.203125 C 256.882812 173.582031 257.023438 174.203125 257.160156 175.511719 C 257.367188 177.441406 257.640625 181.09375 256.953125 182.539062 C 256.539062 183.367188 255.851562 183.847656 255.09375 184.125 C 254.402344 184.398438 253.300781 184.332031 252.679688 184.125 C 252.128906 183.984375 251.648438 183.640625 251.304688 183.226562 C 250.890625 182.675781 250.269531 181.710938 250.40625 180.953125 C 250.683594 179.851562 252.613281 177.714844 253.714844 177.507812 C 254.679688 177.300781 256.058594 178.199219 256.609375 178.886719 C 257.160156 179.4375 257.367188 180.265625 257.296875 180.953125 C 257.296875 181.644531 257.089844 182.46875 256.609375 183.019531 C 255.988281 183.710938 254.609375 184.398438 253.644531 184.398438 C 252.75 184.332031 251.441406 183.433594 250.890625 182.675781 C 250.476562 182.058594 250.40625 181.230469 250.476562 180.539062 C 250.546875 179.851562 250.820312 179.023438 251.371094 178.542969 C 252.0625 177.921875 253.507812 177.371094 254.472656 177.507812 C 255.367188 177.714844 256.609375 178.75 257.023438 179.507812 C 257.367188 180.128906 257.4375 180.953125 257.230469 181.710938 C 256.953125 182.539062 255.160156 184.125 255.160156 184.125 C 255.160156 184.125 257.160156 181.710938 257.230469 181.78125 C 257.296875 181.78125 256.472656 183.296875 255.851562 183.777344 C 255.230469 184.191406 254.195312 184.46875 253.4375 184.332031 C 252.679688 184.261719 251.785156 183.710938 251.304688 183.226562 C 250.890625 182.816406 250.753906 182.46875 250.546875 181.78125 C 250.132812 180.402344 250.546875 177.441406 250.0625 175.304688 C 249.511719 173.097656 248.683594 171.171875 247.238281 168.757812 C 245.171875 165.3125 240.003906 159.527344 237.523438 157.253906 C 236.351562 156.082031 236.007812 155.941406 234.492188 155.046875 C 230.839844 152.910156 220.710938 147.882812 215.199219 145.675781 C 211.203125 144.023438 207.824219 142.851562 204.726562 142.230469 C 202.3125 141.75 199.558594 142.507812 198.179688 141.816406 C 197.351562 141.40625 196.871094 140.714844 196.59375 140.027344 C 196.320312 139.269531 196.320312 138.304688 196.59375 137.546875 C 196.871094 136.855469 197.628906 136.097656 198.179688 135.753906 C 198.664062 135.410156 199.765625 135.339844 199.765625 135.339844 "/></clipPath><clipPath id="4db3812ff3"><path d="M 160.410156 84 L 213.953125 84 L 213.953125 118 L 160.410156 118 Z M 160.410156 84 "/></clipPath><clipPath id="611b0430c6"><path d="M 160.558594 114.394531 C 161.660156 103.027344 162.832031 100.683594 163.933594 98.476562 C 165.039062 96.34375 166.210938 94.207031 167.792969 92.347656 C 169.515625 90.484375 172.066406 88.417969 173.855469 87.316406 C 175.097656 86.628906 176.0625 86.351562 177.164062 85.9375 C 178.265625 85.523438 179.09375 85.042969 180.472656 84.765625 C 182.402344 84.351562 185.707031 84.214844 187.777344 84.148438 C 189.222656 84.148438 190.1875 84.078125 191.566406 84.421875 C 193.496094 84.835938 195.835938 85.800781 198.109375 87.109375 C 200.867188 88.832031 204.449219 91.863281 206.65625 94.277344 C 208.515625 96.203125 209.960938 98.476562 210.859375 100.269531 C 211.546875 101.441406 211.824219 102.0625 212.167969 103.507812 C 212.855469 105.988281 213.820312 111.707031 213.820312 113.914062 C 213.820312 114.878906 213.820312 115.429688 213.476562 116.046875 C 212.992188 116.804688 211.683594 117.703125 210.789062 117.910156 C 210.101562 118.046875 209.273438 117.769531 208.652344 117.425781 C 208.03125 117.082031 207.480469 116.394531 207.207031 115.773438 C 206.929688 115.152344 206.792969 114.257812 207.066406 113.566406 C 207.34375 112.742188 208.378906 111.5 209.273438 111.226562 C 210.167969 110.878906 211.683594 111.15625 212.441406 111.707031 C 213.199219 112.257812 213.820312 113.707031 213.820312 114.601562 C 213.890625 115.359375 213.476562 116.117188 213.0625 116.667969 C 212.582031 117.21875 211.890625 117.703125 211.203125 117.839844 C 210.304688 117.976562 208.722656 117.5625 208.03125 117.011719 C 207.480469 116.53125 207.273438 115.980469 207 115.082031 C 206.378906 113.222656 206.722656 108.8125 205.828125 106.125 C 205 103.714844 203.828125 101.648438 202.175781 99.582031 C 200.109375 97.101562 196.183594 94.136719 193.976562 92.757812 C 192.738281 91.933594 191.839844 91.589844 190.667969 91.242188 C 189.5 90.96875 188.464844 90.96875 187.085938 91.035156 C 185.019531 91.175781 181.917969 91.449219 179.644531 92.347656 C 177.371094 93.242188 175.234375 94.550781 173.445312 96.480469 C 171.308594 98.824219 169.171875 102.613281 168.207031 105.851562 C 167.242188 108.882812 168 113.292969 167.3125 115.222656 C 166.96875 116.1875 166.621094 116.804688 165.933594 117.21875 C 165.175781 117.703125 163.589844 117.839844 162.765625 117.632812 C 162.144531 117.496094 161.730469 117.152344 161.386719 116.667969 C 160.972656 116.117188 160.558594 114.394531 160.558594 114.394531 "/></clipPath><clipPath id="8ebb344690"><path d="M 195.179688 110.828125 L 213.851562 110.828125 L 213.851562 118.429688 L 195.179688 118.429688 Z M 195.179688 110.828125 "/></clipPath><clipPath id="cf6f992955"><path d="M 210.375 117.910156 C 196.871094 118.046875 196.386719 117.632812 195.976562 117.152344 C 195.5625 116.601562 195.148438 115.773438 195.21875 115.082031 C 195.285156 114.1875 195.976562 112.742188 196.664062 112.191406 C 197.214844 111.707031 198.042969 111.5 198.800781 111.5 C 199.488281 111.570312 200.316406 111.777344 200.796875 112.257812 C 201.488281 112.878906 202.105469 114.394531 202.105469 115.289062 C 202.105469 115.980469 201.695312 116.738281 201.210938 117.289062 C 200.730469 117.769531 199.972656 118.253906 199.28125 118.324219 C 198.59375 118.460938 197.765625 118.390625 197.144531 118.046875 C 196.527344 117.769531 195.90625 117.082031 195.5625 116.460938 C 195.285156 115.84375 195.148438 115.015625 195.285156 114.324219 C 195.421875 113.636719 195.835938 112.878906 196.386719 112.398438 C 196.871094 111.914062 197.421875 111.777344 198.386719 111.5 C 200.730469 111.019531 207.964844 110.675781 210.375 111.019531 C 211.476562 111.226562 212.097656 111.363281 212.648438 111.914062 C 213.269531 112.398438 213.75 113.292969 213.820312 114.050781 C 213.890625 114.808594 213.75 115.84375 213.199219 116.460938 C 212.648438 117.152344 210.375 117.910156 210.375 117.910156 "/></clipPath><clipPath id="c76d6bfc06"><path d="M 194.726562 111.480469 L 202.628906 111.480469 L 202.628906 139.164062 L 194.726562 139.164062 Z M 194.726562 111.480469 "/></clipPath><clipPath id="89c39f574c"><path d="M 202.105469 114.945312 C 202.039062 137.890625 201.28125 138.578125 200.382812 138.925781 C 199.488281 139.269531 197.972656 139.0625 197.214844 138.511719 C 196.457031 138.027344 195.699219 136.648438 195.699219 135.6875 C 195.769531 134.722656 196.527344 133.34375 197.351562 132.792969 C 198.109375 132.242188 199.695312 132.171875 200.523438 132.515625 C 201.417969 132.929688 202.382812 134.101562 202.589844 135.066406 C 202.726562 136.03125 202.246094 137.476562 201.625 138.167969 C 200.9375 138.785156 199.421875 139.269531 198.523438 139.0625 C 197.558594 138.925781 196.386719 137.820312 195.976562 137.0625 C 195.628906 136.375 195.699219 135.546875 195.835938 134.859375 C 195.976562 134.167969 196.457031 133.410156 197.007812 133 C 197.558594 132.585938 198.386719 132.242188 199.074219 132.242188 C 199.972656 132.308594 201.417969 132.929688 201.96875 133.6875 C 202.519531 134.515625 202.519531 136.445312 202.246094 137.269531 C 202.039062 137.890625 201.625 138.234375 201.144531 138.511719 C 200.523438 138.925781 199.488281 139.128906 198.730469 139.128906 C 198.179688 139.0625 197.699219 138.855469 197.214844 138.511719 C 196.664062 138.097656 196.183594 137.613281 195.835938 136.511719 C 194.734375 133.207031 194.320312 118.734375 195.21875 114.945312 C 195.5625 113.5 195.976562 112.671875 196.734375 112.121094 C 197.351562 111.640625 198.316406 111.433594 199.074219 111.570312 C 199.832031 111.640625 200.730469 112.121094 201.210938 112.671875 C 201.761719 113.222656 202.105469 114.945312 202.105469 114.945312 "/></clipPath><clipPath id="8e48dec26d"><path d="M 160.359375 112.640625 L 176.28125 112.640625 L 176.28125 119.890625 L 160.359375 119.890625 Z M 160.359375 112.640625 "/></clipPath><clipPath id="20cd5777f2"><path d="M 163.867188 112.742188 C 173.789062 112.808594 174.339844 112.878906 174.890625 113.359375 C 175.441406 113.773438 175.925781 114.464844 176.132812 115.152344 C 176.335938 115.839844 176.269531 116.738281 175.992188 117.359375 C 175.785156 117.976562 175.167969 118.667969 174.617188 119.011719 C 173.996094 119.355469 173.167969 119.5625 172.410156 119.492188 C 171.722656 119.425781 170.964844 119.078125 170.480469 118.597656 C 169.929688 118.117188 169.449219 117.359375 169.449219 116.597656 C 169.308594 115.773438 169.859375 114.257812 170.480469 113.566406 C 170.964844 113.015625 171.722656 112.742188 172.410156 112.671875 C 173.167969 112.601562 173.996094 112.671875 174.617188 113.15625 C 175.304688 113.636719 176.132812 115.015625 176.269531 115.910156 C 176.335938 116.597656 176.0625 117.425781 175.648438 117.976562 C 175.304688 118.597656 174.820312 119.011719 173.925781 119.355469 C 171.996094 120.042969 166.003906 119.976562 163.867188 119.632812 C 162.765625 119.492188 162.144531 119.285156 161.59375 118.804688 C 160.972656 118.253906 160.492188 117.359375 160.421875 116.597656 C 160.351562 115.839844 160.492188 114.878906 161.042969 114.257812 C 161.59375 113.5 163.867188 112.742188 163.867188 112.742188 "/></clipPath><clipPath id="5c7f018dbb"><path d="M 170.089844 113.246094 L 177.902344 113.246094 L 177.902344 139.050781 L 170.089844 139.050781 Z M 170.089844 113.246094 "/></clipPath><clipPath id="ad49116efc"><path d="M 177.855469 116.667969 C 177.714844 131.621094 177.855469 135.066406 176.957031 136.789062 C 176.335938 137.890625 175.304688 138.648438 174.476562 138.925781 C 173.789062 139.128906 172.960938 138.992188 172.273438 138.71875 C 171.652344 138.371094 171.03125 137.820312 170.6875 137.203125 C 170.34375 136.582031 170.207031 135.6875 170.34375 134.996094 C 170.414062 134.308594 170.757812 133.550781 171.308594 133.066406 C 171.996094 132.515625 173.511719 131.964844 174.410156 132.171875 C 175.375 132.378906 176.476562 133.480469 176.890625 134.238281 C 177.234375 134.925781 177.234375 135.753906 177.027344 136.445312 C 176.890625 137.132812 176.476562 137.890625 175.855469 138.304688 C 175.097656 138.785156 173.511719 139.0625 172.617188 138.855469 C 171.929688 138.648438 171.308594 138.097656 170.894531 137.546875 C 170.480469 136.925781 170.414062 136.511719 170.273438 135.410156 C 169.929688 132.101562 170 117.976562 171.375 115.015625 C 171.859375 114.050781 172.480469 113.707031 173.167969 113.429688 C 173.925781 113.15625 174.960938 113.222656 175.648438 113.429688 C 176.199219 113.566406 176.613281 113.914062 177.027344 114.394531 C 177.441406 114.945312 177.855469 116.667969 177.855469 116.667969 "/></clipPath><clipPath id="4f63b0a1a2"><path d="M 181.597656 40.160156 L 189.476562 40.160156 L 189.476562 88.230469 L 181.597656 88.230469 Z M 181.597656 40.160156 "/></clipPath><clipPath id="55571d769d"><path d="M 181.644531 84.765625 C 182.402344 41.289062 182.746094 40.945312 183.433594 40.601562 C 184.191406 40.1875 185.777344 40.050781 186.605469 40.324219 C 187.292969 40.601562 187.914062 41.222656 188.257812 41.839844 C 188.601562 42.390625 188.738281 43.289062 188.671875 43.976562 C 188.601562 44.664062 188.257812 45.492188 187.707031 45.976562 C 187.019531 46.527344 185.5 47.007812 184.605469 46.871094 C 183.917969 46.800781 183.160156 46.386719 182.675781 45.835938 C 182.195312 45.078125 181.78125 43.5625 181.917969 42.667969 C 182.058594 41.980469 182.46875 41.222656 183.089844 40.808594 C 183.847656 40.324219 185.433594 40.050781 186.257812 40.257812 C 187.019531 40.394531 187.636719 40.945312 188.050781 41.496094 C 188.464844 42.046875 188.535156 42.460938 188.738281 43.632812 C 189.429688 48.730469 189.980469 80.632812 188.464844 85.59375 C 188.050781 86.765625 187.707031 87.179688 187.019531 87.59375 C 186.398438 88.003906 185.433594 88.28125 184.675781 88.210938 C 183.917969 88.074219 183.019531 87.59375 182.539062 87.039062 C 181.988281 86.488281 181.644531 84.765625 181.644531 84.765625 "/></clipPath><clipPath id="b17a77bc04"><path d="M 149.0625 247.824219 L 223.90625 247.824219 L 223.90625 266.675781 L 149.0625 266.675781 Z M 149.0625 247.824219 "/></clipPath><clipPath id="2a3f5fab68"><path d="M 154.703125 248.617188 C 171.722656 257.296875 174.960938 257.988281 178.472656 258.605469 C 182.195312 259.296875 186.257812 259.847656 189.980469 259.777344 C 193.5625 259.640625 197.078125 259.089844 200.589844 258.261719 C 204.175781 257.4375 208.101562 255.988281 211.066406 254.542969 C 213.546875 253.371094 215.199219 251.097656 217.335938 250.546875 C 219.332031 250.0625 222.503906 250.132812 223.398438 251.027344 C 224.019531 251.71875 223.878906 253.371094 223.46875 254.265625 C 223.054688 255.09375 221.746094 255.988281 220.847656 256.125 C 219.882812 256.265625 218.4375 255.714844 217.816406 255.023438 C 217.195312 254.265625 216.785156 252.820312 217.058594 251.855469 C 217.265625 250.957031 218.300781 249.789062 219.195312 249.441406 C 220.089844 249.167969 221.605469 249.441406 222.363281 249.925781 C 223.054688 250.269531 223.535156 250.957031 223.671875 251.71875 C 223.878906 252.613281 223.671875 254.128906 223.054688 254.886719 C 222.433594 255.644531 221.054688 256.195312 220.089844 256.125 C 219.125 256.058594 217.679688 254.199219 217.335938 254.402344 C 217.058594 254.679688 219.058594 257.160156 218.710938 258.054688 C 218.4375 258.953125 217.195312 259.296875 215.820312 259.984375 C 212.992188 261.433594 206.378906 263.980469 202.039062 265.082031 C 198.386719 266.046875 195.421875 266.53125 191.632812 266.667969 C 187.222656 266.738281 181.644531 266.117188 177.300781 265.359375 C 173.511719 264.738281 170 263.773438 166.96875 262.742188 C 164.488281 261.914062 162.765625 261.226562 160.492188 260.054688 C 157.597656 258.605469 153.050781 256.125 151.257812 254.609375 C 150.292969 253.921875 149.742188 253.4375 149.398438 252.75 C 149.121094 251.992188 149.050781 251.027344 149.257812 250.269531 C 149.464844 249.582031 150.085938 248.753906 150.773438 248.339844 C 151.394531 247.996094 152.496094 247.859375 153.1875 247.925781 C 153.738281 247.996094 154.703125 248.617188 154.703125 248.617188 "/></clipPath></defs><g id="58cd986a3f"><g clip-rule="nonzero" clip-path="url(#ad6afb795c)"><g clip-rule="nonzero" clip-path="url(#a10ace81c1)"><path style=" stroke:none;fill-rule:nonzero;fill:currentColor;fill-opacity:1;" d="M 115.082031 173.996094 L 157.113281 173.996094 L 157.113281 254.117188 L 115.082031 254.117188 Z M 115.082031 173.996094 "/></g></g><g clip-rule="nonzero" clip-path="url(#1b3d0e72fc)"><g clip-rule="nonzero" clip-path="url(#54d75691c6)"><path style=" stroke:none;fill-rule:nonzero;fill:currentColor;fill-opacity:1;" d="M 142.4375 237.246094 L 193.632812 237.246094 L 193.632812 337.4375 L 142.4375 337.4375 Z M 142.4375 237.246094 "/></g></g><g clip-rule="nonzero" clip-path="url(#5a8a41afc4)"><g clip-rule="nonzero" clip-path="url(#13d71da54d)"><path style=" stroke:none;fill-rule:nonzero;fill:currentColor;fill-opacity:1;" d="M 180.886719 237.039062 L 231.527344 237.039062 L 231.527344 337.140625 L 180.886719 337.140625 Z M 180.886719 237.039062 "/></g></g><g clip-rule="nonzero" clip-path="url(#6a7bdc6df6)"><g clip-rule="nonzero" clip-path="url(#21361b9601)"><path style=" stroke:none;fill-rule:nonzero;fill:currentColor;fill-opacity:1;" d="M 215.0625 174.546875 L 259.640625 174.546875 L 259.640625 259.179688 L 215.0625 259.179688 Z M 215.0625 174.546875 "/></g></g><g clip-rule="nonzero" clip-path="url(#f04acb4f38)"><g clip-rule="nonzero" clip-path="url(#f70d3868ac)"><path style=" stroke:none;fill-rule:nonzero;fill:currentColor;fill-opacity:1;" d="M 114.878906 131.621094 L 208.117188 131.621094 L 208.117188 185.019531 L 114.878906 185.019531 Z M 114.878906 131.621094 "/></g></g><g clip-rule="nonzero" clip-path="url(#7852f2270b)"><g clip-rule="nonzero" clip-path="url(#23ddeedd49)"><path style=" stroke:none;fill-rule:nonzero;fill:currentColor;fill-opacity:1;" d="M 193.839844 132.585938 L 260.132812 132.585938 L 260.132812 187.15625 L 193.839844 187.15625 Z M 193.839844 132.585938 "/></g></g><g clip-rule="nonzero" clip-path="url(#4db3812ff3)"><g clip-rule="nonzero" clip-path="url(#611b0430c6)"><path style=" stroke:none;fill-rule:nonzero;fill:currentColor;fill-opacity:1;" d="M 157.804688 81.390625 L 216.714844 81.390625 L 216.714844 120.664062 L 157.804688 120.664062 Z M 157.804688 81.390625 "/></g></g><g clip-rule="nonzero" clip-path="url(#8ebb344690)"><g clip-rule="nonzero" clip-path="url(#cf6f992955)"><path style=" stroke:none;fill-rule:nonzero;fill:currentColor;fill-opacity:1;" d="M 192.460938 108.261719 L 216.570312 108.261719 L 216.570312 121.148438 L 192.460938 121.148438 Z M 192.460938 108.261719 "/></g></g><g clip-rule="nonzero" clip-path="url(#c76d6bfc06)"><g clip-rule="nonzero" clip-path="url(#89c39f574c)"><path style=" stroke:none;fill-rule:nonzero;fill:currentColor;fill-opacity:1;" d="M 192.460938 108.8125 L 205.34375 108.8125 L 205.34375 141.929688 L 192.460938 141.929688 Z M 192.460938 108.8125 "/></g></g><g clip-rule="nonzero" clip-path="url(#8e48dec26d)"><g clip-rule="nonzero" clip-path="url(#20cd5777f2)"><path style=" stroke:none;fill-rule:nonzero;fill:currentColor;fill-opacity:1;" d="M 157.664062 109.847656 L 179.023438 109.847656 L 179.023438 122.386719 L 157.664062 122.386719 Z M 157.664062 109.847656 "/></g></g><g clip-rule="nonzero" clip-path="url(#5c7f018dbb)"><g clip-rule="nonzero" clip-path="url(#ad49116efc)"><path style=" stroke:none;fill-rule:nonzero;fill:currentColor;fill-opacity:1;" d="M 167.519531 110.675781 L 180.679688 110.675781 L 180.679688 141.671875 L 167.519531 141.671875 Z M 167.519531 110.675781 "/></g></g><g clip-rule="nonzero" clip-path="url(#4f63b0a1a2)"><g clip-rule="nonzero" clip-path="url(#55571d769d)"><path style=" stroke:none;fill-rule:nonzero;fill:currentColor;fill-opacity:1;" d="M 178.886719 37.5 L 191.496094 37.5 L 191.496094 91.039062 L 178.886719 91.039062 Z M 178.886719 37.5 "/></g></g><g clip-rule="nonzero" clip-path="url(#b17a77bc04)"><g clip-rule="nonzero" clip-path="url(#2a3f5fab68)"><path style=" stroke:none;fill-rule:nonzero;fill:currentColor;fill-opacity:1;" d="M 146.503906 245.171875 L 226.464844 245.171875 L 226.464844 269.425781 L 146.503906 269.425781 Z M 146.503906 245.171875 "/></g></g></g></svg>