<svg xmlns="http://www.w3.org/2000/svg" xmlns:xlink="http://www.w3.org/1999/xlink" width="500" zoomAndPan="magnify" viewBox="0 0 375 374.999991" height="500" preserveAspectRatio="xMidYMid meet" version="1.2"><defs><clipPath id="fba13db565"><path d="M 68.730469 95 L 175.390625 95 L 175.390625 192.71875 L 68.730469 192.71875 Z M 68.730469 95 "/></clipPath><clipPath id="2c38a6a4fa"><path d="M 171.652344 192.382812 C 161.351562 189.839844 159.679688 188.371094 158.007812 186.765625 C 156.203125 185.027344 154.796875 183.355469 153.058594 180.613281 C 150.117188 175.996094 146.304688 165.5 143.628906 161.085938 C 142.160156 158.542969 141.355469 157.472656 139.550781 155.46875 C 137.007812 152.589844 133.128906 148.710938 129.386719 145.902344 C 125.507812 143.027344 121.09375 141.558594 116.613281 138.613281 C 111.0625 135.003906 104.976562 130.855469 98.824219 125.707031 C 91.132812 119.289062 75.417969 106.78125 74.546875 102.433594 C 74.214844 101.03125 75.683594 99.292969 75.886719 99.292969 C 76.085938 99.359375 75.417969 101.367188 75.683594 102.769531 C 76.289062 105.175781 78.496094 108.453125 80.699219 112 C 83.910156 117.082031 92.671875 126.375 93.875 130.054688 C 94.277344 131.390625 94.210938 132.328125 93.808594 133.128906 C 93.542969 133.800781 92.9375 134.402344 92.269531 134.601562 C 91.46875 134.9375 89.929688 134.800781 89.128906 134.402344 C 88.527344 134.132812 87.992188 133.398438 87.789062 132.796875 C 87.523438 132.195312 87.386719 131.324219 87.65625 130.65625 C 87.992188 129.855469 89.058594 128.71875 89.863281 128.382812 C 90.464844 128.117188 91.335938 128.117188 92.003906 128.382812 C 92.738281 128.785156 93.808594 129.855469 94.144531 130.722656 C 94.34375 131.390625 94.210938 132.195312 94.007812 132.796875 C 93.742188 133.464844 93.207031 134.132812 92.605469 134.46875 C 92.003906 134.800781 91.199219 135.003906 90.53125 134.871094 C 89.863281 134.800781 89.394531 134.667969 88.59375 134 C 86.183594 132.0625 80.433594 123.835938 77.222656 119.019531 C 74.480469 114.808594 71.605469 109.792969 70.335938 106.847656 C 69.601562 105.378906 69.265625 104.507812 68.996094 103.304688 C 68.863281 102.167969 68.863281 100.964844 69.066406 99.828125 C 69.199219 98.691406 69.332031 97.21875 70.066406 96.417969 C 70.871094 95.613281 72.609375 95.078125 73.8125 95.144531 C 74.949219 95.144531 76.152344 95.816406 77.222656 96.417969 C 78.292969 97.019531 78.761719 97.488281 80.167969 98.691406 C 84.445312 102.300781 96.550781 115.207031 104.175781 121.496094 C 110.394531 126.578125 116.945312 130.992188 122.097656 134.199219 C 125.707031 136.40625 128.449219 137.144531 131.59375 139.417969 C 135.40625 142.023438 139.953125 146.171875 143.027344 149.449219 C 145.636719 152.191406 147.308594 154.195312 149.382812 157.539062 C 152.125 162.019531 154.863281 170.3125 157.273438 174.460938 C 158.675781 177.132812 159.679688 178.804688 161.285156 180.613281 C 162.957031 182.351562 164.964844 184.222656 167.035156 185.027344 C 168.84375 185.828125 171.449219 185.292969 172.789062 185.828125 C 173.65625 186.230469 174.257812 186.765625 174.660156 187.300781 C 174.996094 187.765625 175.128906 188.300781 175.128906 188.835938 C 175.128906 189.507812 174.925781 190.507812 174.460938 191.109375 C 173.859375 191.78125 171.652344 192.382812 171.652344 192.382812 "/></clipPath><clipPath id="20a11d4ed2"><path d="M 50.613281 106.863281 L 94.320312 106.863281 L 94.320312 138.183594 L 50.613281 138.183594 Z M 50.613281 106.863281 "/></clipPath><clipPath id="44a8d58a25"><path d="M 88.726562 134.132812 C 66.390625 118.6875 55.691406 114.808594 55.890625 113.671875 C 56.023438 113.203125 58.632812 112.867188 59.769531 113.203125 C 60.90625 113.46875 61.375 114.207031 62.644531 115.273438 C 65.921875 118.21875 76.890625 129.519531 78.894531 132.460938 C 79.496094 133.398438 79.832031 133.734375 79.832031 134.402344 C 79.832031 135.269531 79.296875 136.742188 78.695312 137.34375 C 78.160156 137.878906 77.355469 138.078125 76.6875 138.144531 C 76.019531 138.214844 75.21875 138.011719 74.683594 137.613281 C 73.945312 137.078125 73.210938 135.738281 73.144531 134.871094 C 73.078125 134.132812 73.34375 133.332031 73.8125 132.796875 C 74.414062 132.195312 75.753906 131.457031 76.6875 131.457031 C 77.558594 131.527344 78.828125 132.394531 79.363281 133.0625 C 79.765625 133.664062 79.898438 134.46875 79.832031 135.136719 C 79.765625 135.804688 79.429688 136.609375 78.960938 137.078125 C 78.496094 137.613281 77.757812 138.011719 77.089844 138.078125 C 76.421875 138.214844 75.820312 138.144531 74.949219 137.8125 C 73.210938 136.941406 70.402344 133.933594 67.996094 131.527344 C 65.050781 128.515625 61.640625 123.566406 58.832031 120.960938 C 56.761719 119.085938 54.351562 118.015625 53.015625 116.613281 C 52.078125 115.675781 51.34375 114.941406 51.007812 113.804688 C 50.609375 112.601562 50.539062 110.660156 51.074219 109.523438 C 51.476562 108.519531 52.414062 107.519531 53.347656 107.117188 C 54.351562 106.714844 55.488281 106.847656 56.894531 107.117188 C 59.433594 107.652344 62.980469 109.324219 66.859375 111.328125 C 72.808594 114.539062 84.179688 121.894531 88.726562 125.375 C 91.066406 127.046875 92.738281 128.25 93.609375 129.585938 C 94.074219 130.390625 94.34375 131.125 94.210938 131.859375 C 94.074219 132.730469 93.207031 134 92.539062 134.46875 C 92.070312 134.800781 91.535156 134.9375 91 134.9375 C 90.332031 134.871094 88.726562 134.132812 88.726562 134.132812 "/></clipPath><clipPath id="74c8e0f761"><path d="M 39.917969 117.519531 L 79.953125 117.519531 L 79.953125 143.765625 L 39.917969 143.765625 Z M 39.917969 117.519531 "/></clipPath><clipPath id="351c8cc7d5"><path d="M 74.816406 137.679688 C 57.964844 126.710938 56.15625 126.242188 53.882812 125.640625 C 51.609375 125.039062 46.863281 125.105469 46.730469 124.371094 C 46.660156 123.902344 48.601562 122.632812 49.605469 122.632812 C 50.675781 122.566406 51.476562 123.433594 52.949219 124.371094 C 56.625 126.710938 68.328125 135.136719 70.667969 137.679688 C 71.40625 138.480469 71.671875 138.75 71.808594 139.484375 C 71.941406 140.351562 71.539062 141.824219 71.070312 142.492188 C 70.601562 143.09375 69.867188 143.429688 69.199219 143.5625 C 68.53125 143.695312 67.660156 143.5625 67.058594 143.230469 C 66.457031 142.960938 65.855469 142.425781 65.585938 141.757812 C 65.253906 140.957031 65.1875 139.417969 65.652344 138.613281 C 66.121094 137.8125 67.460938 137.078125 68.328125 136.941406 C 68.996094 136.808594 69.800781 137.078125 70.402344 137.476562 C 70.9375 137.8125 71.539062 138.414062 71.671875 139.148438 C 71.941406 139.953125 71.738281 141.488281 71.273438 142.226562 C 70.871094 142.828125 70.203125 143.296875 69.53125 143.496094 C 68.863281 143.695312 68.394531 143.765625 67.394531 143.429688 C 64.25 142.292969 54.152344 132.664062 49.46875 130.121094 C 46.730469 128.648438 44.121094 128.648438 42.515625 127.511719 C 41.378906 126.710938 40.578125 125.707031 40.175781 124.570312 C 39.839844 123.433594 39.90625 121.894531 40.308594 120.757812 C 40.777344 119.6875 41.511719 118.550781 42.851562 118.015625 C 45.058594 117.082031 50.140625 117.882812 53.683594 118.550781 C 57.292969 119.289062 60.570312 120.425781 64.316406 122.363281 C 69.066406 124.839844 77.757812 130.523438 79.363281 133.0625 C 79.964844 134 79.898438 134.734375 79.765625 135.40625 C 79.699219 135.941406 79.496094 136.472656 79.164062 136.875 C 78.695312 137.410156 77.824219 137.945312 77.089844 138.078125 C 76.421875 138.214844 74.75 137.679688 74.75 137.679688 "/></clipPath><clipPath id="fbce96967e"><path d="M 40.050781 133.574219 L 71.988281 133.574219 L 71.988281 153.65625 L 40.050781 153.65625 Z M 40.050781 133.574219 "/></clipPath><clipPath id="c0c5bc6ad3"><path d="M 67.996094 143.5625 C 52.882812 140.554688 50.472656 141.089844 48.734375 140.488281 C 47.53125 140.019531 45.792969 138.679688 45.925781 138.480469 C 46.058594 138.144531 50.140625 139.351562 52.949219 140.421875 C 57.292969 141.957031 66.992188 145.835938 69.066406 147.84375 C 69.800781 148.511719 70 149.046875 70.066406 149.714844 C 70.203125 150.382812 70.066406 151.253906 69.734375 151.789062 C 69.398438 152.390625 68.796875 152.992188 68.195312 153.261719 C 67.59375 153.59375 66.722656 153.726562 66.054688 153.527344 C 65.253906 153.261719 64.050781 152.257812 63.648438 151.453125 C 63.378906 150.851562 63.3125 149.984375 63.582031 149.316406 C 63.847656 148.511719 64.851562 147.375 65.722656 147.039062 C 66.589844 146.773438 68.0625 147.109375 68.796875 147.574219 C 69.398438 147.976562 69.800781 148.710938 70 149.382812 C 70.203125 149.984375 70.136719 150.851562 69.867188 151.519531 C 69.667969 152.125 69.132812 152.792969 68.53125 153.125 C 67.726562 153.527344 66.859375 153.527344 65.386719 153.261719 C 61.039062 152.523438 43.851562 146.773438 41.042969 143.027344 C 39.773438 141.355469 39.972656 139.148438 40.375 137.8125 C 40.710938 136.675781 41.644531 135.871094 42.515625 135.203125 C 43.519531 134.535156 44.65625 134.066406 46.058594 133.800781 C 48 133.464844 50.609375 133.664062 52.949219 133.867188 C 55.355469 134 57.761719 134.46875 60.304688 135.003906 C 63.113281 135.539062 67.257812 136.207031 69.132812 137.007812 C 70.136719 137.34375 70.738281 137.679688 71.203125 138.214844 C 71.539062 138.613281 71.808594 139.082031 71.875 139.683594 C 71.941406 140.351562 71.808594 141.355469 71.40625 141.957031 C 71.070312 142.628906 70.203125 143.230469 69.601562 143.429688 C 69.066406 143.628906 67.996094 143.5625 67.996094 143.5625 "/></clipPath><clipPath id="59de6fcb13"><path d="M 49.488281 146.660156 L 89.421875 146.660156 L 89.421875 167.484375 L 49.488281 167.484375 Z M 49.488281 146.660156 "/></clipPath><clipPath id="620a0c170b"><path d="M 66.792969 153.59375 C 60.035156 153.996094 57.898438 154.398438 57.898438 154.863281 C 57.898438 155.734375 64.117188 157.675781 67.726562 158.542969 C 71.875 159.613281 77.691406 159.613281 81.570312 160.414062 C 84.378906 160.949219 87.722656 161.21875 88.792969 162.289062 C 89.328125 162.824219 89.328125 163.691406 89.328125 164.363281 C 89.261719 165.03125 88.992188 165.832031 88.457031 166.300781 C 87.855469 166.902344 86.453125 167.570312 85.515625 167.4375 C 84.648438 167.304688 83.375 166.433594 82.976562 165.632812 C 82.574219 164.828125 82.574219 163.292969 83.042969 162.488281 C 83.511719 161.6875 84.78125 160.949219 85.648438 160.75 C 86.386719 160.683594 87.1875 160.949219 87.722656 161.285156 C 88.324219 161.621094 88.859375 162.289062 89.058594 162.957031 C 89.328125 163.558594 89.394531 164.429688 89.195312 165.03125 C 88.992188 165.699219 88.457031 166.433594 87.921875 166.835938 C 87.386719 167.238281 86.585938 167.503906 85.917969 167.4375 C 85.046875 167.371094 84.113281 166.03125 83.175781 165.964844 C 82.171875 165.832031 81.503906 166.902344 80.097656 167.035156 C 77.625 167.304688 73.277344 166.5 69.332031 165.699219 C 64.183594 164.628906 55.089844 162.691406 52.144531 160.816406 C 50.808594 160.015625 50.140625 159.347656 49.738281 158.277344 C 49.335938 157.140625 49.539062 155.398438 49.871094 154.195312 C 50.207031 153.125 50.941406 152.191406 51.675781 151.386719 C 52.480469 150.453125 53.347656 149.714844 54.554688 149.046875 C 56.226562 148.109375 58.898438 147.242188 61.105469 146.90625 C 63.246094 146.640625 66.121094 146.503906 67.59375 146.972656 C 68.464844 147.308594 69.132812 147.710938 69.53125 148.3125 C 69.933594 148.980469 70.203125 149.917969 70.136719 150.652344 C 70 151.386719 69.53125 152.257812 68.996094 152.726562 C 68.464844 153.261719 66.792969 153.59375 66.792969 153.59375 "/></clipPath><clipPath id="474378f7df"><path d="M 64.375 160.722656 L 96.464844 160.722656 L 96.464844 176.972656 L 64.375 176.972656 Z M 64.375 160.722656 "/></clipPath><clipPath id="54b4346954"><path d="M 85.984375 167.570312 C 77.023438 167.839844 72.609375 168.574219 72.675781 168.910156 C 72.675781 169.578125 90.730469 168.640625 94.074219 170.179688 C 95.347656 170.714844 95.949219 171.582031 96.28125 172.386719 C 96.550781 173.054688 96.417969 173.859375 96.214844 174.527344 C 95.949219 175.128906 95.414062 175.796875 94.878906 176.199219 C 94.277344 176.53125 93.472656 176.734375 92.804688 176.667969 C 92.136719 176.597656 91.335938 176.332031 90.800781 175.796875 C 90.199219 175.195312 89.730469 173.722656 89.796875 172.855469 C 89.796875 172.117188 90.265625 171.449219 90.730469 170.980469 C 91.199219 170.515625 91.9375 170.046875 92.671875 170.046875 C 93.539062 169.980469 94.945312 170.515625 95.613281 171.117188 C 96.082031 171.652344 96.351562 172.453125 96.417969 173.121094 C 96.484375 173.789062 96.28125 174.59375 95.882812 175.195312 C 95.347656 175.863281 94.542969 176.332031 93.140625 176.667969 C 89.460938 177.535156 75.820312 176.265625 71.738281 175.53125 C 70.066406 175.261719 69.265625 175.0625 68.261719 174.460938 C 67.257812 173.925781 66.1875 173.253906 65.585938 172.320312 C 64.917969 171.382812 64.515625 169.910156 64.449219 168.773438 C 64.449219 167.636719 64.71875 166.433594 65.320312 165.5 C 65.921875 164.5625 66.925781 163.828125 68.128906 163.222656 C 69.933594 162.289062 72.609375 161.6875 75.351562 161.285156 C 78.894531 160.882812 85.449219 160.347656 87.523438 161.285156 C 88.457031 161.6875 88.859375 162.355469 89.058594 163.089844 C 89.328125 163.757812 89.328125 164.761719 89.058594 165.429688 C 88.859375 166.101562 88.125 166.835938 87.523438 167.238281 C 87.054688 167.503906 85.984375 167.570312 85.984375 167.570312 "/></clipPath><clipPath id="f685925be5"><path d="M 81.59375 170.402344 L 102.734375 170.402344 L 102.734375 187.382812 L 81.59375 187.382812 Z M 81.59375 170.402344 "/></clipPath><clipPath id="03703f0938"><path d="M 94.074219 176.867188 C 89.796875 180.410156 99.558594 179.742188 101.367188 180.8125 C 102.167969 181.28125 102.367188 181.949219 102.570312 182.617188 C 102.769531 183.285156 102.703125 184.089844 102.433594 184.757812 C 102.234375 185.359375 101.632812 186.027344 101.097656 186.363281 C 100.496094 186.699219 99.695312 186.964844 98.957031 186.832031 C 98.15625 186.628906 96.816406 185.894531 96.417969 185.09375 C 95.949219 184.222656 96.082031 182.75 96.417969 181.949219 C 96.683594 181.28125 97.285156 180.679688 97.953125 180.476562 C 98.757812 180.144531 100.296875 180.277344 101.097656 180.613281 C 101.699219 180.945312 102.234375 181.613281 102.433594 182.285156 C 102.703125 182.886719 102.835938 183.753906 102.570312 184.421875 C 102.300781 185.226562 101.632812 186.164062 100.429688 186.699219 C 97.886719 187.765625 89.394531 187.433594 86.453125 186.628906 C 84.980469 186.230469 84.042969 185.695312 83.242188 184.824219 C 82.441406 183.890625 81.769531 182.484375 81.636719 181.28125 C 81.503906 180.144531 81.703125 179.007812 82.304688 177.871094 C 83.175781 176.199219 85.382812 173.789062 87.121094 172.585938 C 88.660156 171.449219 90.597656 170.648438 92.070312 170.445312 C 93.207031 170.3125 94.476562 170.582031 95.144531 171.046875 C 95.613281 171.316406 95.949219 171.785156 96.148438 172.320312 C 96.351562 172.921875 96.550781 173.925781 96.28125 174.660156 C 95.949219 175.460938 94.074219 176.867188 94.074219 176.867188 "/></clipPath><clipPath id="e17af2ed07"><path d="M 95.054688 180.097656 L 112.359375 180.097656 L 112.359375 198.726562 L 95.054688 198.726562 Z M 95.054688 180.097656 "/></clipPath><clipPath id="e16bee1218"><path d="M 102.703125 183.753906 C 102.835938 193.050781 107.519531 190.644531 109.191406 190.84375 C 110.058594 190.910156 110.660156 191.179688 111.128906 191.644531 C 111.664062 192.113281 112.066406 192.851562 112.199219 193.519531 C 112.332031 194.1875 112.265625 195.058594 111.929688 195.660156 C 111.664062 196.261719 111.0625 196.863281 110.460938 197.128906 C 109.859375 197.464844 108.988281 197.597656 108.320312 197.464844 C 107.652344 197.332031 106.914062 196.929688 106.449219 196.394531 C 105.980469 195.925781 105.578125 195.191406 105.578125 194.453125 C 105.578125 193.585938 106.179688 192.179688 106.847656 191.578125 C 107.316406 191.042969 108.1875 190.84375 108.855469 190.84375 C 109.523438 190.777344 110.328125 190.976562 110.863281 191.445312 C 111.53125 191.980469 112.199219 193.386719 112.265625 194.253906 C 112.332031 194.921875 112.066406 195.660156 111.53125 196.261719 C 110.863281 197.0625 109.457031 197.730469 107.984375 198.199219 C 106.113281 198.734375 102.96875 198.800781 101.097656 198.601562 C 99.761719 198.46875 98.757812 198.265625 97.820312 197.664062 C 96.882812 197.0625 95.949219 195.859375 95.546875 194.789062 C 95.078125 193.785156 95.078125 192.851562 95.078125 191.511719 C 95.011719 189.238281 95.414062 184.289062 96.148438 182.484375 C 96.550781 181.546875 97.019531 181.011719 97.621094 180.613281 C 98.289062 180.277344 99.226562 180.078125 99.960938 180.210938 C 100.695312 180.34375 101.566406 180.878906 102.035156 181.480469 C 102.433594 182.015625 102.703125 183.753906 102.703125 183.753906 "/></clipPath><clipPath id="2615bb1158"><path d="M 105 190.761719 L 119.558594 190.761719 L 119.558594 209.601562 L 105 209.601562 Z M 105 190.761719 "/></clipPath><clipPath id="493635ca32"><path d="M 112.265625 194.320312 C 112.265625 200.472656 113.136719 201.410156 114.136719 202.144531 C 115.273438 203.015625 117.816406 203.148438 118.617188 204.019531 C 119.222656 204.554688 119.421875 205.289062 119.488281 205.957031 C 119.554688 206.625 119.355469 207.496094 119.019531 208.03125 C 118.617188 208.632812 117.949219 209.167969 117.347656 209.367188 C 116.746094 209.636719 115.878906 209.636719 115.207031 209.433594 C 114.539062 209.234375 113.871094 208.832031 113.46875 208.230469 C 113 207.496094 112.734375 205.957031 113 205.089844 C 113.335938 204.285156 114.472656 203.214844 115.34375 203.015625 C 116.210938 202.8125 117.683594 203.148438 118.417969 203.75 C 119.085938 204.351562 119.554688 205.824219 119.488281 206.691406 C 119.488281 207.429688 119.019531 208.097656 118.550781 208.632812 C 118.085938 209.101562 117.550781 209.5 116.613281 209.570312 C 114.742188 209.703125 109.054688 207.964844 107.25 206.492188 C 106.113281 205.621094 105.710938 204.6875 105.378906 203.28125 C 104.777344 200.875 105.042969 195.125 105.710938 193.183594 C 106.113281 192.25 106.582031 191.714844 107.183594 191.3125 C 107.851562 190.910156 108.789062 190.710938 109.523438 190.84375 C 110.257812 190.976562 111.128906 191.511719 111.53125 192.113281 C 112 192.648438 112.265625 194.320312 112.265625 194.320312 "/></clipPath><clipPath id="db16c80d02"><path d="M 112.785156 202.882812 L 131.289062 202.882812 L 131.289062 218.449219 L 112.785156 218.449219 Z M 112.785156 202.882812 "/></clipPath><clipPath id="ee6569d941"><path d="M 119.421875 205.554688 C 123.835938 210.707031 128.582031 211.308594 129.988281 212.445312 C 130.722656 212.980469 131.058594 213.449219 131.191406 214.183594 C 131.390625 215.050781 131.125 216.523438 130.523438 217.257812 C 129.921875 217.929688 128.515625 218.53125 127.648438 218.394531 C 126.710938 218.328125 125.441406 217.460938 125.039062 216.65625 C 124.570312 215.855469 124.570312 214.316406 125.039062 213.515625 C 125.441406 212.710938 126.710938 211.84375 127.648438 211.777344 C 128.515625 211.640625 129.921875 212.175781 130.523438 212.914062 C 131.125 213.648438 131.390625 215.121094 131.191406 215.988281 C 131.058594 216.65625 130.523438 217.324219 129.988281 217.726562 C 129.453125 218.128906 128.785156 218.394531 127.980469 218.394531 C 126.976562 218.464844 125.839844 218.261719 124.570312 217.792969 C 122.566406 217.125 119.222656 215.386719 117.480469 214.183594 C 116.414062 213.378906 115.675781 212.710938 115.007812 211.777344 C 114.207031 210.707031 113.46875 209.300781 113.136719 208.097656 C 112.867188 207.160156 112.734375 206.15625 112.933594 205.355469 C 113.136719 204.621094 113.804688 203.882812 114.339844 203.484375 C 114.808594 203.148438 115.273438 202.949219 115.878906 202.949219 C 116.546875 202.882812 117.550781 203.148438 118.152344 203.550781 C 118.753906 204.019531 119.421875 205.554688 119.421875 205.554688 "/></clipPath><clipPath id="811866dd86"><path d="M 101.285156 199.257812 L 153.226562 199.257812 L 153.226562 232.785156 L 101.285156 232.785156 Z M 101.285156 199.257812 "/></clipPath><clipPath id="71ed30c670"><path d="M 150.988281 205.824219 C 143.027344 210.238281 136.007812 216.054688 131.925781 218.394531 C 129.253906 220 127.847656 220.535156 124.972656 221.738281 C 120.691406 223.480469 108.519531 227.558594 108.519531 227.425781 C 108.453125 227.355469 111.128906 225.753906 112.265625 225.820312 C 113.269531 225.886719 114.539062 226.554688 115.074219 227.289062 C 115.542969 228.027344 115.742188 229.5625 115.410156 230.433594 C 115.074219 231.234375 113.804688 232.171875 113 232.441406 C 112.332031 232.640625 111.464844 232.507812 110.863281 232.171875 C 110.257812 231.90625 109.589844 231.371094 109.324219 230.699219 C 108.988281 229.964844 108.921875 228.425781 109.324219 227.625 C 109.792969 226.753906 110.996094 225.953125 111.929688 225.820312 C 112.867188 225.753906 114.207031 226.289062 114.808594 227.023438 C 115.410156 227.691406 115.742188 229.164062 115.476562 230.03125 C 115.273438 230.96875 114.339844 231.90625 113.335938 232.304688 C 112 232.976562 109.257812 232.707031 107.585938 232.507812 C 106.3125 232.304688 105.175781 232.105469 104.175781 231.4375 C 103.171875 230.835938 102.101562 229.765625 101.632812 228.695312 C 101.230469 227.691406 101.164062 226.152344 101.566406 225.082031 C 101.898438 224.011719 102.503906 223.34375 103.773438 222.410156 C 106.984375 220.136719 118.886719 217.058594 123.632812 214.984375 C 126.511719 213.78125 127.714844 213.246094 130.253906 211.707031 C 134.132812 209.367188 140.957031 203.75 144.367188 201.675781 C 146.171875 200.609375 147.441406 199.871094 148.710938 199.539062 C 149.582031 199.335938 150.382812 199.335938 151.054688 199.605469 C 151.789062 199.871094 152.523438 200.539062 152.859375 201.210938 C 153.191406 201.878906 153.328125 202.8125 153.058594 203.550781 C 152.792969 204.417969 150.988281 205.824219 150.988281 205.824219 "/></clipPath><clipPath id="165963d2cd"><path d="M 153.832031 227.324219 L 163.3125 227.324219 L 163.3125 253.820312 L 153.832031 253.820312 Z M 153.832031 227.324219 "/></clipPath><clipPath id="c3746f01b0"><path d="M 156.871094 247.085938 C 158.074219 246.550781 156.136719 245.078125 155.667969 243.472656 C 154.730469 240.464844 154.53125 231.972656 155.265625 229.632812 C 155.535156 228.695312 155.933594 228.292969 156.535156 227.890625 C 157.339844 227.492188 158.8125 227.289062 159.679688 227.558594 C 160.347656 227.757812 160.949219 228.359375 161.285156 228.960938 C 161.621094 229.5625 161.886719 230.367188 161.753906 231.035156 C 161.621094 231.90625 160.75 233.175781 160.015625 233.644531 C 159.414062 234.042969 158.542969 234.113281 157.875 233.976562 C 157.207031 233.84375 156.46875 233.441406 156.003906 232.976562 C 155.535156 232.507812 155.199219 231.703125 155.132812 231.035156 C 155.066406 230.367188 155.132812 229.5625 155.601562 228.960938 C 156.070312 228.226562 157.40625 227.492188 158.277344 227.355469 C 158.945312 227.222656 159.746094 227.558594 160.28125 227.890625 C 160.882812 228.292969 161.21875 228.628906 161.621094 229.632812 C 162.691406 232.441406 163.625 244.609375 163.15625 248.289062 C 163.023438 249.894531 162.824219 250.761719 162.085938 251.699219 C 161.351562 252.570312 159.613281 253.304688 158.609375 253.640625 C 157.941406 253.839844 157.40625 253.839844 156.804688 253.707031 C 156.070312 253.570312 155.199219 253.171875 154.730469 252.636719 C 154.195312 252.035156 153.863281 251.097656 153.863281 250.363281 C 153.863281 249.625 154.261719 248.691406 154.730469 248.15625 C 155.265625 247.621094 156.871094 247.085938 156.871094 247.085938 "/></clipPath><clipPath id="ac9766b9d9"><path d="M 147.175781 193.1875 L 201.832031 193.1875 L 201.832031 236.984375 L 147.175781 236.984375 Z M 147.175781 193.1875 "/></clipPath><clipPath id="84261afb49"><path d="M 149.714844 230.367188 C 168.238281 223.8125 170.046875 222.945312 171.71875 221.40625 C 173.457031 219.800781 174.460938 218.0625 175.796875 215.585938 C 177.601562 212.109375 178.941406 205.355469 180.878906 201.945312 C 182.21875 199.605469 183.890625 198 185.292969 196.660156 C 186.363281 195.660156 187.097656 194.855469 188.4375 194.253906 C 190.175781 193.585938 193.316406 193.25 195.191406 193.386719 C 196.527344 193.453125 197.664062 193.652344 198.734375 194.320312 C 199.871094 194.988281 201.410156 196.460938 201.746094 197.464844 C 201.945312 198.199219 201.675781 199.003906 201.277344 199.539062 C 200.808594 200.273438 199.539062 201.140625 198.601562 201.210938 C 197.664062 201.277344 196.328125 200.675781 195.726562 199.9375 C 195.191406 199.203125 194.921875 197.730469 195.191406 196.863281 C 195.523438 195.992188 196.59375 194.921875 197.464844 194.65625 C 198.332031 194.386719 199.804688 194.789062 200.539062 195.324219 C 201.140625 195.726562 201.476562 196.460938 201.675781 197.128906 C 201.8125 197.796875 201.746094 198.601562 201.476562 199.269531 C 201.140625 199.871094 200.609375 200.472656 200.003906 200.808594 C 199.402344 201.140625 198.535156 201.277344 197.867188 201.210938 C 197.195312 201.074219 196.460938 200.675781 195.992188 200.207031 C 195.523438 199.738281 195.390625 198.265625 195.058594 198.265625 C 194.789062 198.265625 194.65625 199.671875 194.121094 200.074219 C 193.386719 200.605469 191.644531 200.140625 190.644531 200.605469 C 189.640625 201.074219 188.769531 202.011719 188.035156 202.882812 C 187.300781 203.816406 186.832031 204.554688 186.164062 205.957031 C 184.691406 208.898438 182.886719 216.257812 181.011719 219.734375 C 179.742188 222.207031 178.671875 223.8125 177 225.550781 C 175.261719 227.355469 173.523438 228.695312 170.714844 230.167969 C 166.234375 232.507812 155 236.320312 151.65625 236.71875 C 150.519531 236.921875 149.917969 236.921875 149.246094 236.585938 C 148.511719 236.183594 147.574219 234.980469 147.375 234.113281 C 147.175781 233.375 147.441406 232.441406 147.84375 231.769531 C 148.246094 231.167969 149.714844 230.367188 149.714844 230.367188 "/></clipPath><clipPath id="9ea555e5b7"><path d="M 166.480469 181.253906 L 203.75 181.253906 L 203.75 200.789062 L 166.480469 200.789062 Z M 166.480469 181.253906 "/></clipPath><clipPath id="b26b487569"><path d="M 194.722656 194.1875 C 197.0625 193.316406 196.660156 191.511719 196.195312 190.507812 C 195.660156 189.574219 195.058594 188.570312 193.71875 188.035156 C 191.109375 186.964844 183.621094 187.765625 179.875 188.503906 C 177.203125 188.972656 173.992188 191.246094 173.324219 190.84375 C 172.988281 190.644531 173.324219 189.773438 173.1875 189.707031 C 172.855469 189.640625 172.117188 191.847656 171.25 192.179688 C 170.445312 192.582031 168.910156 192.515625 168.105469 192.046875 C 167.371094 191.578125 166.566406 190.242188 166.5 189.304688 C 166.5 188.4375 167.238281 187.097656 167.839844 186.496094 C 168.375 186.027344 169.175781 185.761719 169.910156 185.828125 C 170.78125 185.894531 172.117188 186.628906 172.652344 187.300781 C 173.121094 187.902344 173.324219 188.636719 173.1875 189.371094 C 173.054688 190.242188 172.253906 191.511719 171.582031 192.046875 C 170.980469 192.449219 170.179688 192.582031 169.511719 192.515625 C 168.84375 192.449219 168.039062 192.113281 167.570312 191.578125 C 166.96875 190.910156 166.300781 189.574219 166.566406 188.636719 C 166.96875 187.164062 169.511719 185.425781 171.382812 184.355469 C 173.390625 183.21875 175.394531 182.484375 178.269531 182.015625 C 182.617188 181.214844 191.980469 181.011719 195.457031 181.75 C 197.0625 182.082031 197.796875 182.417969 198.867188 183.355469 C 200.339844 184.625 202.210938 187.03125 203.015625 189.238281 C 203.75 191.445312 203.949219 194.589844 203.417969 196.394531 C 203.015625 197.730469 202.347656 198.734375 201.210938 199.46875 C 199.605469 200.472656 195.660156 201.074219 194.121094 200.609375 C 193.183594 200.40625 192.648438 199.738281 192.316406 199.070312 C 191.914062 198.46875 191.847656 197.398438 191.980469 196.730469 C 192.046875 196.195312 192.25 195.726562 192.648438 195.324219 C 193.117188 194.789062 194.722656 194.1875 194.722656 194.1875 "/></clipPath><clipPath id="2eef9e06ea"><path d="M 187 197.1875 L 334.996094 197.1875 L 334.996094 244.617188 L 187 244.617188 Z M 187 197.1875 "/></clipPath><clipPath id="c97ceb9822"><path d="M 191.445312 197.53125 C 215.921875 204.085938 230.699219 204.351562 239.929688 206.089844 C 246.75 207.292969 251.03125 208.433594 257.449219 210.503906 C 265.609375 213.113281 276.511719 217.527344 284.734375 221.136719 C 291.824219 224.214844 296.773438 227.757812 303.996094 230.433594 C 312.488281 233.644531 329.140625 236.183594 332.75 238.125 C 333.6875 238.660156 334.023438 238.859375 334.355469 239.527344 C 334.757812 240.332031 334.757812 241.867188 334.492188 242.671875 C 334.222656 243.339844 333.554688 243.875 332.953125 244.210938 C 332.351562 244.476562 331.546875 244.679688 330.878906 244.476562 C 330.011719 244.277344 328.804688 243.339844 328.40625 242.539062 C 328.070312 241.9375 328.003906 241.132812 328.203125 240.398438 C 328.472656 239.59375 329.476562 238.457031 330.277344 238.058594 C 330.945312 237.789062 331.75 237.789062 332.417969 237.992188 C 333.085938 238.191406 333.753906 238.660156 334.15625 239.261719 C 334.558594 239.796875 334.890625 240.53125 334.824219 241.265625 C 334.691406 242.136719 333.957031 243.472656 333.285156 244.007812 C 332.75 244.410156 332.285156 244.542969 331.214844 244.542969 C 327.203125 244.542969 311.820312 240.464844 303.058594 237.320312 C 294.902344 234.378906 288.546875 230.03125 280.320312 226.488281 C 270.824219 222.542969 257.183594 217.191406 249.292969 214.917969 C 244.679688 213.582031 242.738281 213.3125 238.058594 212.578125 C 230.433594 211.375 216.054688 210.707031 208.03125 209.234375 C 202.546875 208.164062 197.933594 206.691406 194.386719 205.554688 C 191.980469 204.820312 189.773438 204.417969 188.570312 203.484375 C 187.835938 202.949219 187.367188 202.347656 187.164062 201.609375 C 186.964844 200.742188 187.300781 199.269531 187.835938 198.535156 C 188.234375 197.933594 189.238281 197.53125 189.839844 197.398438 C 190.441406 197.265625 191.445312 197.53125 191.445312 197.53125 "/></clipPath><clipPath id="9272449351"><path d="M 281 237.777344 L 334.808594 237.777344 L 334.808594 267.5625 L 281 267.5625 Z M 281 237.777344 "/></clipPath><clipPath id="485bbed58d"><path d="M 334.757812 241.734375 C 332.21875 246.816406 331.28125 247.21875 329.675781 247.621094 C 326.667969 248.289062 319.644531 247.351562 315.832031 247.6875 C 313.089844 247.953125 311.753906 248.625 308.742188 248.957031 C 303.59375 249.425781 291.089844 250.496094 287.613281 249.226562 C 286.339844 248.757812 285.671875 248.023438 285.335938 247.152344 C 285.003906 246.28125 285.203125 244.8125 285.671875 244.074219 C 286.207031 243.339844 287.277344 242.804688 288.414062 242.671875 C 290.21875 242.402344 292.761719 243.207031 295.570312 244.476562 C 300.316406 246.550781 310.015625 253.707031 313.359375 256.382812 C 314.828125 257.519531 315.699219 258.054688 316.300781 259.121094 C 316.902344 260.125 317.304688 261.261719 317.238281 262.398438 C 317.238281 263.738281 316.566406 265.945312 315.632812 266.746094 C 314.761719 267.480469 313.425781 267.347656 312.222656 267.414062 C 310.949219 267.480469 309.613281 267.550781 308.207031 267.148438 C 306.335938 266.480469 304.332031 264.40625 302.191406 263.402344 C 299.984375 262.464844 297.84375 262.265625 295.300781 261.195312 C 291.691406 259.726562 284.800781 256.382812 282.730469 254.84375 C 281.925781 254.242188 281.527344 253.972656 281.324219 253.238281 C 280.992188 252.433594 281.125 250.898438 281.527344 250.160156 C 281.859375 249.492188 282.460938 248.957031 283.128906 248.757812 C 284 248.554688 285.539062 248.691406 286.273438 249.160156 C 286.875 249.492188 287.34375 250.226562 287.542969 250.832031 C 287.746094 251.5 287.8125 252.300781 287.542969 252.96875 C 287.144531 253.773438 286.140625 254.910156 285.203125 255.109375 C 284.335938 255.378906 282.863281 255.042969 282.195312 254.441406 C 281.457031 253.839844 280.925781 252.433594 281.058594 251.5 C 281.125 250.5625 281.992188 249.359375 282.796875 248.890625 C 283.664062 248.488281 284.601562 248.625 285.941406 248.957031 C 288.882812 249.625 295.570312 253.972656 299.316406 255.578125 C 301.988281 256.714844 304.53125 257.117188 306.335938 258.054688 C 307.605469 258.65625 308.34375 259.65625 309.480469 260.125 C 310.550781 260.59375 312.890625 260.460938 312.890625 260.792969 C 312.890625 261.0625 311.085938 262.132812 309.679688 261.929688 C 306.46875 261.53125 299.316406 254.039062 294.902344 251.765625 C 291.757812 250.09375 287.679688 249.761719 286.207031 248.488281 C 285.472656 247.820312 285.203125 247.152344 285.136719 246.417969 C 285.070312 245.480469 285.605469 244.074219 286.207031 243.472656 C 286.742188 242.9375 287.34375 242.871094 288.414062 242.671875 C 291.558594 242.070312 301.320312 242.605469 306.46875 242.269531 C 310.484375 241.9375 313.492188 241 317.035156 240.933594 C 320.648438 240.867188 326.398438 242.804688 328.003906 241.734375 C 328.738281 241.199219 328.269531 239.796875 328.804688 239.195312 C 329.40625 238.527344 330.746094 237.855469 331.613281 237.855469 C 332.351562 237.855469 333.285156 238.257812 333.753906 238.792969 C 334.355469 239.460938 334.757812 241.734375 334.757812 241.734375 "/></clipPath><clipPath id="144f2a31fc"><path d="M 274.453125 248.4375 L 301.476562 248.4375 L 301.476562 274.488281 L 274.453125 274.488281 Z M 274.453125 248.4375 "/></clipPath><clipPath id="4222a7311f"><path d="M 285.941406 248.957031 C 295.101562 256.449219 297.644531 259.859375 299.113281 262.601562 C 300.316406 264.875 301.386719 267.214844 301.453125 269.152344 C 301.453125 270.691406 300.988281 272.363281 300.117188 273.234375 C 299.316406 274.035156 297.710938 274.304688 296.503906 274.371094 C 295.234375 274.4375 294.03125 274.238281 292.695312 273.632812 C 290.886719 272.898438 289.082031 270.558594 287.007812 269.421875 C 284.800781 268.21875 281.59375 267.550781 279.785156 266.546875 C 278.515625 265.878906 277.648438 265.34375 276.777344 264.472656 C 275.910156 263.601562 274.839844 262.332031 274.703125 261.195312 C 274.503906 260.191406 274.839844 258.855469 275.507812 258.1875 C 276.109375 257.519531 277.582031 256.984375 278.449219 257.183594 C 279.386719 257.316406 280.589844 258.1875 280.992188 259.054688 C 281.324219 259.859375 281.191406 261.398438 280.789062 262.199219 C 280.523438 262.800781 279.855469 263.335938 279.183594 263.535156 C 278.382812 263.804688 276.84375 263.738281 276.042969 263.203125 C 275.304688 262.734375 274.636719 261.328125 274.570312 260.460938 C 274.503906 259.726562 274.839844 258.988281 275.238281 258.453125 C 275.640625 257.917969 276.375 257.449219 277.046875 257.25 C 277.648438 257.050781 278.382812 257.050781 279.183594 257.316406 C 280.390625 257.851562 281.660156 259.925781 283.265625 260.929688 C 285.136719 262 288.214844 262.535156 289.953125 263.402344 C 291.222656 264.070312 292.292969 264.539062 293.09375 265.476562 C 293.898438 266.414062 294.765625 268.953125 294.699219 269.019531 C 294.566406 269.085938 291.558594 262.867188 289.351562 260.257812 C 287.078125 257.519531 282.0625 254.910156 281.191406 253.039062 C 280.789062 252.101562 281.058594 251.296875 281.257812 250.628906 C 281.457031 250.09375 281.726562 249.695312 282.195312 249.359375 C 282.730469 248.957031 283.734375 248.554688 284.402344 248.554688 C 285.003906 248.554688 285.941406 248.957031 285.941406 248.957031 "/></clipPath><clipPath id="ba22aa79c2"><path d="M 266 257.230469 L 289.347656 257.230469 L 289.347656 278.167969 L 266 278.167969 Z M 266 257.230469 "/></clipPath><clipPath id="ff041c0f04"><path d="M 279.855469 257.851562 C 285.472656 262.601562 287.476562 264.742188 288.347656 266.945312 C 289.214844 269.019531 289.484375 271.894531 289.148438 273.769531 C 288.882812 275.304688 288.28125 276.910156 287.277344 277.582031 C 286.40625 278.25 284.871094 278.183594 283.664062 278.046875 C 282.527344 277.980469 281.527344 277.582031 280.390625 276.910156 C 278.785156 275.976562 277.113281 273.566406 275.171875 272.230469 C 273.234375 270.894531 270.425781 270.222656 268.820312 268.953125 C 267.617188 267.949219 266.34375 266.878906 266.078125 265.742188 C 265.878906 264.742188 266.210938 263.335938 266.8125 262.667969 C 267.414062 262 268.820312 261.464844 269.757812 261.53125 C 270.691406 261.664062 271.894531 262.535156 272.296875 263.335938 C 272.765625 264.207031 272.699219 265.675781 272.230469 266.480469 C 271.828125 267.28125 270.558594 268.152344 269.621094 268.21875 C 268.753906 268.285156 267.347656 267.683594 266.746094 267.015625 C 266.144531 266.277344 265.945312 264.808594 266.144531 263.9375 C 266.277344 263.203125 266.746094 262.535156 267.347656 262.199219 C 268.085938 261.730469 269.152344 261.464844 270.425781 261.730469 C 273.234375 262.332031 281.125 267.148438 282.394531 269.554688 C 283.0625 270.757812 282.460938 272.964844 282.460938 272.964844 C 282.460938 272.964844 282.929688 270.894531 282.394531 269.621094 C 281.457031 267.347656 275.375 263.136719 274.703125 261.398438 C 274.4375 260.726562 274.503906 260.328125 274.703125 259.792969 C 274.90625 259.121094 275.507812 258.253906 276.042969 257.851562 C 276.511719 257.519531 276.976562 257.316406 277.582031 257.25 C 278.25 257.25 279.855469 257.851562 279.855469 257.851562 "/></clipPath><clipPath id="0291540612"><path d="M 257.492188 261.503906 L 276.304688 261.503906 L 276.304688 279.855469 L 257.492188 279.855469 Z M 257.492188 261.503906 "/></clipPath><clipPath id="240cec1400"><path d="M 272.496094 263.871094 C 276.175781 273.566406 276.445312 274.4375 276.242188 275.574219 C 276.042969 276.777344 275.304688 278.382812 274.4375 279.050781 C 273.5 279.71875 272.097656 279.785156 270.894531 279.785156 C 269.621094 279.785156 268.484375 279.71875 267.082031 278.917969 C 264.472656 277.511719 258.65625 272.03125 257.785156 269.554688 C 257.316406 268.351562 257.652344 267.214844 258.054688 266.414062 C 258.386719 265.808594 259.054688 265.34375 259.726562 265.074219 C 260.328125 264.875 261.195312 264.808594 261.796875 265.007812 C 262.667969 265.34375 263.804688 266.34375 264.070312 267.28125 C 264.339844 268.152344 264.003906 269.621094 263.46875 270.359375 C 262.867188 271.027344 261.464844 271.5625 260.59375 271.5625 C 259.859375 271.5625 259.121094 271.160156 258.585938 270.691406 C 258.121094 270.289062 257.71875 269.554688 257.585938 268.886719 C 257.449219 268.21875 257.519531 267.347656 257.851562 266.746094 C 258.121094 266.144531 258.789062 265.542969 259.390625 265.207031 C 259.992188 264.941406 260.59375 264.742188 261.464844 264.941406 C 263.269531 265.476562 267.816406 269.019531 268.953125 270.894531 C 269.554688 272.03125 269.554688 274.167969 269.421875 274.238281 C 269.222656 274.304688 265.945312 266.144531 266.011719 264.273438 C 266.078125 263.601562 266.34375 263.269531 266.679688 262.867188 C 267.148438 262.332031 268.015625 261.730469 268.6875 261.597656 C 269.421875 261.464844 270.425781 261.664062 271.027344 262 C 271.695312 262.398438 272.496094 263.871094 272.496094 263.871094 "/></clipPath><clipPath id="764ed8c2c0"><path d="M 102.835938 224.820312 L 160.683594 224.820312 L 160.683594 254.773438 L 102.835938 254.773438 Z M 102.835938 224.820312 "/></clipPath><clipPath id="c63b58d88b"><path d="M 106.179688 224.882812 C 112.535156 225.152344 113.136719 225.351562 114.472656 226.085938 C 117.550781 227.757812 123.769531 233.511719 128.382812 236.453125 C 132.527344 238.992188 136.542969 240.933594 140.753906 242.804688 C 144.96875 244.746094 150.917969 247.6875 153.796875 247.953125 C 155.199219 248.15625 156.003906 247.417969 156.9375 247.417969 C 157.742188 247.488281 158.476562 247.621094 159.011719 247.953125 C 159.613281 248.355469 160.148438 249.023438 160.347656 249.625 C 160.550781 250.296875 160.683594 251.097656 160.414062 251.765625 C 160.082031 252.570312 158.945312 253.640625 158.140625 253.972656 C 157.472656 254.242188 156.671875 254.175781 156.003906 253.90625 C 155.398438 253.707031 154.730469 253.171875 154.398438 252.570312 C 153.996094 251.765625 153.863281 250.296875 154.128906 249.425781 C 154.398438 248.757812 155 248.222656 155.601562 247.886719 C 156.136719 247.554688 157.003906 247.351562 157.675781 247.488281 C 158.34375 247.554688 159.078125 247.953125 159.613281 248.421875 C 160.082031 248.890625 160.484375 249.625 160.550781 250.363281 C 160.550781 251.230469 160.148438 252.570312 159.414062 253.304688 C 158.542969 254.105469 156.871094 254.574219 155.265625 254.710938 C 153.191406 254.777344 150.988281 254.105469 148.109375 253.105469 C 143.160156 251.433594 134.871094 247.820312 128.785156 244.34375 C 122.632812 240.800781 116.078125 233.777344 111.398438 231.972656 C 108.789062 230.96875 105.980469 231.90625 104.574219 231.167969 C 103.773438 230.769531 103.304688 230.097656 103.039062 229.429688 C 102.769531 228.695312 102.769531 227.691406 103.039062 227.023438 C 103.304688 226.355469 104.039062 225.617188 104.574219 225.285156 C 105.109375 224.949219 106.179688 224.882812 106.179688 224.882812 "/></clipPath><clipPath id="6a31c30c21"><path d="M 158.675781 231.355469 L 267 231.355469 L 267 273.582031 L 158.675781 273.582031 Z M 158.675781 231.355469 "/></clipPath><clipPath id="047b82617f"><path d="M 163.691406 231.769531 C 174.125 236.585938 178.671875 236.652344 181.546875 237.921875 C 183.820312 238.992188 184.890625 240.867188 187.164062 241.871094 C 189.90625 243.140625 194.65625 243.609375 196.996094 244.542969 C 198.402344 245.144531 199.335938 245.679688 200.273438 246.417969 C 201.210938 247.085938 201.746094 248.222656 202.679688 248.890625 C 203.617188 249.492188 204.554688 249.761719 206.023438 250.160156 C 208.5 250.761719 212.84375 250.496094 216.523438 251.433594 C 220.9375 252.503906 226.621094 256.046875 230.566406 256.914062 C 233.242188 257.519531 234.914062 256.648438 237.589844 257.316406 C 241.335938 258.1875 246.484375 262.066406 250.761719 263.136719 C 254.441406 264.070312 259.121094 263.203125 261.664062 264.003906 C 263.136719 264.472656 264.136719 264.941406 265.007812 265.878906 C 265.945312 266.878906 266.878906 268.617188 266.878906 269.890625 C 266.878906 270.894531 266.414062 272.164062 265.675781 272.765625 C 265.007812 273.367188 263.535156 273.632812 262.601562 273.433594 C 261.730469 273.167969 260.660156 272.097656 260.394531 271.226562 C 260.058594 270.359375 260.328125 268.886719 260.929688 268.152344 C 261.464844 267.414062 262.867188 266.8125 263.804688 266.878906 C 264.671875 266.945312 265.945312 267.816406 266.414062 268.484375 C 266.878906 269.085938 266.945312 269.957031 266.878906 270.625 C 266.8125 271.292969 266.480469 272.03125 265.945312 272.496094 C 265.273438 273.101562 264.003906 273.632812 263 273.5 C 261.597656 273.300781 260.394531 271.09375 258.453125 270.359375 C 255.710938 269.355469 251.367188 270.222656 247.6875 269.222656 C 243.609375 268.152344 238.792969 264.472656 235.183594 263.601562 C 232.574219 263 230.902344 263.871094 228.292969 263.269531 C 224.480469 262.464844 219.601562 259.121094 215.050781 257.851562 C 210.570312 256.582031 204.621094 257.183594 201.074219 255.644531 C 198.535156 254.574219 197.53125 252.300781 195.191406 251.097656 C 192.316406 249.695312 187.835938 249.492188 184.957031 248.222656 C 182.484375 247.085938 181.078125 245.144531 178.605469 244.074219 C 175.664062 242.804688 171.316406 242.671875 168.171875 241.535156 C 165.363281 240.464844 162.019531 238.792969 160.484375 237.589844 C 159.679688 236.988281 159.144531 236.585938 158.945312 235.785156 C 158.675781 234.980469 158.945312 233.511719 159.414062 232.707031 C 159.8125 232.105469 160.617188 231.570312 161.351562 231.4375 C 162.085938 231.234375 163.691406 231.769531 163.691406 231.769531 "/></clipPath></defs><g id="f727ff260d"><g clip-rule="nonzero" clip-path="url(#fba13db565)"><g clip-rule="nonzero" clip-path="url(#2c38a6a4fa)"><path style=" stroke:none;fill-rule:nonzero;fill:currentColor;fill-opacity:1;" d="M 66.324219 92.472656 L 177.796875 92.472656 L 177.796875 195.125 L 66.324219 195.125 Z M 66.324219 92.472656 "/></g></g><g clip-rule="nonzero" clip-path="url(#20a11d4ed2)"><g clip-rule="nonzero" clip-path="url(#44a8d58a25)"><path style=" stroke:none;fill-rule:nonzero;fill:currentColor;fill-opacity:1;" d="M 48.332031 104.441406 L 96.882812 104.441406 L 96.882812 140.886719 L 48.332031 140.886719 Z M 48.332031 104.441406 "/></g></g><g clip-rule="nonzero" clip-path="url(#74c8e0f761)"><g clip-rule="nonzero" clip-path="url(#351c8cc7d5)"><path style=" stroke:none;fill-rule:nonzero;fill:currentColor;fill-opacity:1;" d="M 37.5 115.34375 L 82.492188 115.34375 L 82.492188 146.304688 L 37.5 146.304688 Z M 37.5 115.34375 "/></g></g><g clip-rule="nonzero" clip-path="url(#fbce96967e)"><g clip-rule="nonzero" clip-path="url(#c0c5bc6ad3)"><path style=" stroke:none;fill-rule:nonzero;fill:currentColor;fill-opacity:1;" d="M 37.699219 131.125 L 74.535156 131.125 L 74.535156 156.203125 L 37.699219 156.203125 Z M 37.699219 131.125 "/></g></g><g clip-rule="nonzero" clip-path="url(#59de6fcb13)"><g clip-rule="nonzero" clip-path="url(#620a0c170b)"><path style=" stroke:none;fill-rule:nonzero;fill:currentColor;fill-opacity:1;" d="M 47.0625 144.230469 L 92.050781 144.230469 L 92.050781 170.113281 L 47.0625 170.113281 Z M 47.0625 144.230469 "/></g></g><g clip-rule="nonzero" clip-path="url(#474378f7df)"><g clip-rule="nonzero" clip-path="url(#54b4346954)"><path style=" stroke:none;fill-rule:nonzero;fill:currentColor;fill-opacity:1;" d="M 61.777344 158.609375 L 99.066406 158.609375 L 99.066406 179.40625 L 61.777344 179.40625 Z M 61.777344 158.609375 "/></g></g><g clip-rule="nonzero" clip-path="url(#f685925be5)"><g clip-rule="nonzero" clip-path="url(#03703f0938)"><path style=" stroke:none;fill-rule:nonzero;fill:currentColor;fill-opacity:1;" d="M 78.960938 167.773438 L 105.28125 167.773438 L 105.28125 189.507812 L 78.960938 189.507812 Z M 78.960938 167.773438 "/></g></g><g clip-rule="nonzero" clip-path="url(#e17af2ed07)"><g clip-rule="nonzero" clip-path="url(#e16bee1218)"><path style=" stroke:none;fill-rule:nonzero;fill:currentColor;fill-opacity:1;" d="M 92.402344 177.535156 L 115.007812 177.535156 L 115.007812 201.289062 L 92.402344 201.289062 Z M 92.402344 177.535156 "/></g></g><g clip-rule="nonzero" clip-path="url(#2615bb1158)"><g clip-rule="nonzero" clip-path="url(#493635ca32)"><path style=" stroke:none;fill-rule:nonzero;fill:currentColor;fill-opacity:1;" d="M 102.703125 188.167969 L 122.230469 188.167969 L 122.230469 212.273438 L 102.703125 212.273438 Z M 102.703125 188.167969 "/></g></g><g clip-rule="nonzero" clip-path="url(#db16c80d02)"><g clip-rule="nonzero" clip-path="url(#ee6569d941)"><path style=" stroke:none;fill-rule:nonzero;fill:currentColor;fill-opacity:1;" d="M 110.257812 200.273438 L 133.894531 200.273438 L 133.894531 221.136719 L 110.257812 221.136719 Z M 110.257812 200.273438 "/></g></g><g clip-rule="nonzero" clip-path="url(#811866dd86)"><g clip-rule="nonzero" clip-path="url(#71ed30c670)"><path style=" stroke:none;fill-rule:nonzero;fill:currentColor;fill-opacity:1;" d="M 98.890625 196.863281 L 155.769531 196.863281 L 155.769531 235.183594 L 98.890625 235.183594 Z M 98.890625 196.863281 "/></g></g><g clip-rule="nonzero" clip-path="url(#165963d2cd)"><g clip-rule="nonzero" clip-path="url(#c3746f01b0)"><path style=" stroke:none;fill-rule:nonzero;fill:currentColor;fill-opacity:1;" d="M 151.1875 224.683594 L 165.898438 224.683594 L 165.898438 256.464844 L 151.1875 256.464844 Z M 151.1875 224.683594 "/></g></g><g clip-rule="nonzero" clip-path="url(#ac9766b9d9)"><g clip-rule="nonzero" clip-path="url(#84261afb49)"><path style=" stroke:none;fill-rule:nonzero;fill:currentColor;fill-opacity:1;" d="M 144.699219 190.710938 L 204.496094 190.710938 L 204.496094 239.460938 L 144.699219 239.460938 Z M 144.699219 190.710938 "/></g></g><g clip-rule="nonzero" clip-path="url(#9ea555e5b7)"><g clip-rule="nonzero" clip-path="url(#b26b487569)"><path style=" stroke:none;fill-rule:nonzero;fill:currentColor;fill-opacity:1;" d="M 163.828125 179.074219 L 206.117188 179.074219 L 206.117188 203.347656 L 163.828125 203.347656 Z M 163.828125 179.074219 "/></g></g><g clip-rule="nonzero" clip-path="url(#2eef9e06ea)"><g clip-rule="nonzero" clip-path="url(#c97ceb9822)"><path style=" stroke:none;fill-rule:nonzero;fill:currentColor;fill-opacity:1;" d="M 184.492188 194.722656 L 337.457031 194.722656 L 337.457031 247.285156 L 184.492188 247.285156 Z M 184.492188 194.722656 "/></g></g><g clip-rule="nonzero" clip-path="url(#9272449351)"><g clip-rule="nonzero" clip-path="url(#485bbed58d)"><path style=" stroke:none;fill-rule:nonzero;fill:currentColor;fill-opacity:1;" d="M 278.382812 235.183594 L 337.539062 235.183594 L 337.539062 270.15625 L 278.382812 270.15625 Z M 278.382812 235.183594 "/></g></g><g clip-rule="nonzero" clip-path="url(#144f2a31fc)"><g clip-rule="nonzero" clip-path="url(#4222a7311f)"><path style=" stroke:none;fill-rule:nonzero;fill:currentColor;fill-opacity:1;" d="M 271.894531 245.882812 L 304.15625 245.882812 L 304.15625 277.046875 L 271.894531 277.046875 Z M 271.894531 245.882812 "/></g></g><g clip-rule="nonzero" clip-path="url(#ba22aa79c2)"><g clip-rule="nonzero" clip-path="url(#ff041c0f04)"><path style=" stroke:none;fill-rule:nonzero;fill:currentColor;fill-opacity:1;" d="M 263.402344 254.574219 L 291.796875 254.574219 L 291.796875 280.722656 L 263.402344 280.722656 Z M 263.402344 254.574219 "/></g></g><g clip-rule="nonzero" clip-path="url(#0291540612)"><g clip-rule="nonzero" clip-path="url(#240cec1400)"><path style=" stroke:none;fill-rule:nonzero;fill:currentColor;fill-opacity:1;" d="M 254.910156 258.921875 L 278.976562 258.921875 L 278.976562 282.527344 L 254.910156 282.527344 Z M 254.910156 258.921875 "/></g></g><g clip-rule="nonzero" clip-path="url(#764ed8c2c0)"><g clip-rule="nonzero" clip-path="url(#c63b58d88b)"><path style=" stroke:none;fill-rule:nonzero;fill:currentColor;fill-opacity:1;" d="M 100.363281 222.207031 L 163.15625 222.207031 L 163.15625 257.382812 L 100.363281 257.382812 Z M 100.363281 222.207031 "/></g></g><g clip-rule="nonzero" clip-path="url(#6a31c30c21)"><g clip-rule="nonzero" clip-path="url(#047b82617f)"><path style=" stroke:none;fill-rule:nonzero;fill:currentColor;fill-opacity:1;" d="M 156.269531 228.761719 L 269.617188 228.761719 L 269.617188 276.175781 L 156.269531 276.175781 Z M 156.269531 228.761719 "/></g></g></g></svg>