<svg xmlns="http://www.w3.org/2000/svg" xmlns:xlink="http://www.w3.org/1999/xlink" width="500" zoomAndPan="magnify" viewBox="0 0 375 374.999991" height="500" preserveAspectRatio="xMidYMid meet" version="1.2"><defs><clipPath id="2e8a89e18e"><path d="M 139.0625 213.328125 L 233.628906 213.328125 L 233.628906 271.558594 L 139.0625 271.558594 Z M 139.0625 213.328125 "/></clipPath><clipPath id="a5a93015be"><path d="M 146.09375 215.476562 C 154.640625 231.058594 158.519531 237.8125 161.96875 242.046875 C 164.625 245.207031 167.136719 247.363281 170.082031 249.734375 C 172.957031 252.105469 175.972656 254.472656 179.277344 256.269531 C 182.582031 258.136719 186.316406 259.574219 189.976562 260.652344 C 193.570312 261.800781 196.800781 262.519531 201.039062 263.09375 C 206.496094 263.882812 214.46875 264.3125 220 264.167969 C 224.164062 264.097656 228.976562 262.300781 231.058594 263.019531 C 232.066406 263.308594 232.640625 263.953125 233 264.671875 C 233.359375 265.390625 233.5 266.46875 233.285156 267.1875 C 233.070312 267.976562 232.425781 268.839844 231.851562 269.339844 C 231.347656 269.699219 230.84375 270.058594 230.199219 269.914062 C 229.121094 269.699219 226.464844 266.972656 226.246094 265.964844 C 226.105469 265.535156 226.320312 265.246094 226.535156 264.886719 C 226.824219 264.3125 227.46875 263.523438 228.117188 263.164062 C 228.761719 262.878906 229.625 262.660156 230.339844 262.804688 C 231.277344 263.019531 232.640625 263.953125 233.070312 264.816406 C 233.5 265.75 233.359375 267.328125 232.855469 268.191406 C 232.351562 269.054688 230.988281 269.914062 229.984375 269.914062 C 229.050781 269.988281 227.539062 269.339844 226.964844 268.550781 C 226.320312 267.761719 226.105469 266.179688 226.390625 265.246094 C 226.679688 264.3125 227.828125 263.164062 228.832031 262.878906 C 229.765625 262.660156 231.347656 263.09375 232.136719 263.59375 C 232.710938 264.027344 233.429688 265.460938 233.285156 265.605469 C 233.070312 265.75 229.265625 263.019531 229.335938 262.804688 C 229.40625 262.660156 231.203125 262.949219 231.851562 263.378906 C 232.496094 263.882812 233.070312 264.746094 233.285156 265.535156 C 233.5 266.253906 233.359375 267.328125 233 268.046875 C 232.640625 268.765625 231.851562 269.269531 231.058594 269.699219 C 230.054688 270.273438 228.976562 270.632812 227.398438 270.921875 C 224.667969 271.425781 220.144531 271.425781 216.121094 271.351562 C 211.597656 271.351562 205.636719 270.992188 201.542969 270.488281 C 198.523438 270.132812 196.226562 269.554688 193.640625 268.980469 C 191.199219 268.480469 189.117188 268.191406 186.601562 267.257812 C 183.296875 266.179688 179.0625 264.386719 175.613281 262.445312 C 172.308594 260.578125 169.222656 258.28125 166.277344 255.910156 C 163.332031 253.613281 160.816406 251.746094 158.015625 248.367188 C 153.851562 243.628906 148.394531 234.867188 145.089844 229.050781 C 142.574219 224.523438 139.34375 218.851562 139.199219 216.625 C 139.199219 215.832031 139.414062 215.476562 139.773438 214.972656 C 140.207031 214.398438 141.066406 213.679688 141.785156 213.464844 C 142.574219 213.25 143.652344 213.320312 144.371094 213.679688 C 145.089844 214.039062 146.09375 215.476562 146.09375 215.476562 "/></clipPath><clipPath id="8ac9ab155b"><path d="M 165.289062 215.328125 L 233.386719 215.328125 L 233.386719 270 L 165.289062 270 Z M 165.289062 215.328125 "/></clipPath><clipPath id="14b54463e5"><path d="M 227.539062 269.125 C 191.414062 239.105469 190.191406 236.804688 187.464844 234.363281 C 184.664062 231.921875 181.503906 229.765625 178.199219 227.757812 C 174.535156 225.53125 168.070312 223.375 166.347656 221.652344 C 165.628906 220.859375 165.414062 220.285156 165.34375 219.570312 C 165.269531 218.851562 165.414062 217.917969 165.773438 217.34375 C 166.203125 216.695312 166.851562 216.121094 167.570312 215.832031 C 168.214844 215.546875 169.148438 215.476562 169.796875 215.691406 C 170.515625 215.832031 171.304688 216.265625 171.734375 216.910156 C 172.238281 217.699219 172.523438 219.351562 172.308594 220.214844 C 172.167969 221.003906 171.589844 221.722656 170.945312 222.082031 C 170.15625 222.585938 168.503906 222.871094 167.640625 222.511719 C 166.707031 222.152344 165.703125 220.859375 165.414062 219.925781 C 165.199219 219.210938 165.34375 218.347656 165.628906 217.628906 C 165.917969 216.984375 166.5625 216.335938 167.210938 215.976562 C 167.855469 215.617188 168.429688 215.476562 169.4375 215.617188 C 171.949219 215.90625 178.199219 219.425781 181.933594 221.652344 C 185.382812 223.664062 188.109375 225.457031 191.269531 228.117188 C 194.933594 231.203125 197.519531 234.9375 202.257812 239.320312 C 209.800781 246.140625 229.839844 259.933594 232.640625 264.167969 C 233.359375 265.246094 233.429688 265.820312 233.359375 266.613281 C 233.285156 267.402344 232.855469 268.40625 232.28125 268.910156 C 231.707031 269.484375 230.773438 269.914062 229.910156 269.914062 C 229.121094 269.988281 227.539062 269.125 227.539062 269.125 "/></clipPath><clipPath id="fff045a800"><path d="M 104.234375 178.265625 L 149.976562 178.265625 L 149.976562 231.402344 L 104.234375 231.402344 Z M 104.234375 178.265625 "/></clipPath><clipPath id="99f63fd79f"><path d="M 146.023438 231.203125 C 139.273438 229.695312 138.554688 229.265625 137.1875 228.1875 C 134.601562 226.105469 130.367188 222.082031 126.773438 217.269531 C 121.53125 210.089844 115.066406 193.496094 110.542969 188.183594 C 108.386719 185.667969 105.515625 185.238281 104.726562 183.65625 C 104.152344 182.582031 104.222656 181.144531 104.652344 180.28125 C 105.085938 179.421875 106.519531 178.558594 107.453125 178.34375 C 108.171875 178.199219 109.035156 178.414062 109.679688 178.773438 C 110.328125 179.132812 110.972656 179.777344 111.1875 180.496094 C 111.476562 181.429688 111.40625 183.011719 110.902344 183.871094 C 110.328125 184.734375 108.890625 185.453125 107.886719 185.523438 C 106.953125 185.523438 105.515625 184.808594 104.941406 183.945312 C 104.367188 183.15625 104.222656 181.503906 104.511719 180.640625 C 104.726562 179.921875 105.371094 179.203125 105.945312 178.84375 C 106.59375 178.488281 107.3125 178.199219 108.171875 178.34375 C 109.753906 178.558594 112.914062 180.570312 114.421875 181.863281 C 115.570312 182.796875 116.074219 183.65625 116.933594 184.878906 C 118.226562 186.53125 119.59375 188.613281 121.101562 191.269531 C 123.472656 195.507812 126.988281 203.839844 129.433594 208.003906 C 130.941406 210.664062 131.945312 212.171875 133.667969 214.324219 C 135.753906 216.910156 138.695312 220.644531 141.28125 222.296875 C 143.292969 223.589844 146.023438 223.445312 147.460938 224.238281 C 148.394531 224.738281 149.039062 225.242188 149.398438 225.890625 C 149.757812 226.390625 149.902344 226.894531 149.902344 227.539062 C 149.902344 228.257812 149.613281 229.335938 149.109375 229.910156 C 148.464844 230.628906 146.023438 231.203125 146.023438 231.203125 "/></clipPath><clipPath id="6f7144bef6"><path d="M 42.800781 155.28125 L 111.542969 155.28125 L 111.542969 185.398438 L 42.800781 185.398438 Z M 42.800781 155.28125 "/></clipPath><clipPath id="53080fb1c7"><path d="M 107.09375 185.382812 C 76.929688 172.667969 67.664062 166.78125 63.5 164.984375 C 61.777344 164.195312 61.273438 164.050781 59.621094 163.691406 C 56.890625 163.117188 48.992188 163.90625 48.417969 162.6875 C 48.058594 162.039062 50.070312 159.882812 50.070312 159.957031 C 50.140625 159.957031 49.277344 162.328125 48.488281 162.902344 C 47.699219 163.476562 46.046875 163.546875 45.113281 163.261719 C 44.394531 163.042969 43.75 162.46875 43.390625 161.75 C 42.957031 160.890625 42.886719 159.238281 43.246094 158.375 C 43.53125 157.65625 44.109375 157.011719 44.824219 156.722656 C 45.6875 156.363281 47.339844 156.292969 48.203125 156.722656 C 49.0625 157.226562 49.925781 158.664062 50.070312 159.527344 C 50.210938 160.316406 49.996094 161.175781 49.566406 161.75 C 48.992188 162.542969 47.625 163.402344 46.691406 163.476562 C 45.902344 163.621094 45.042969 163.332031 44.464844 162.902344 C 43.75 162.328125 42.597656 160.816406 42.886719 159.882812 C 43.390625 158.304688 48.273438 156.007812 51.363281 155.503906 C 54.808594 154.929688 59.046875 156.078125 62.636719 157.082031 C 66.230469 158.089844 69.101562 159.742188 72.90625 161.609375 C 77.792969 164.050781 83.539062 167.855469 89.355469 170.585938 C 95.675781 173.53125 106.519531 176.617188 109.464844 178.703125 C 110.472656 179.421875 110.902344 179.851562 111.1875 180.570312 C 111.476562 181.289062 111.476562 182.363281 111.261719 183.15625 C 110.972656 183.871094 110.253906 184.664062 109.609375 185.023438 C 108.890625 185.453125 107.09375 185.382812 107.09375 185.382812 "/></clipPath><clipPath id="ce1fcbea06"><path d="M 40.214844 156.421875 L 80.929688 156.421875 L 80.929688 232 L 40.214844 232 Z M 40.214844 156.421875 "/></clipPath><clipPath id="b74904ba99"><path d="M 49.496094 161.609375 C 47.410156 169.582031 46.980469 173.53125 47.699219 177.695312 C 48.703125 183.730469 52.582031 192.921875 55.597656 198.957031 C 58.113281 203.839844 60.84375 207.644531 64.003906 211.453125 C 67.164062 215.332031 71.617188 219.570312 74.703125 222.226562 C 76.714844 223.949219 79.300781 224.882812 80.234375 226.175781 C 80.738281 227.039062 80.953125 227.898438 80.878906 228.691406 C 80.808594 229.480469 80.304688 230.414062 79.730469 230.917969 C 79.15625 231.492188 78.152344 231.921875 77.359375 231.851562 C 76.425781 231.851562 75.132812 231.347656 74.558594 230.628906 C 73.914062 229.839844 73.554688 228.257812 73.84375 227.324219 C 74.058594 226.390625 75.207031 225.171875 76.140625 224.882812 C 77.074219 224.597656 78.652344 224.957031 79.445312 225.457031 C 80.089844 225.816406 80.519531 226.605469 80.738281 227.324219 C 80.953125 228.042969 80.878906 228.90625 80.59375 229.625 C 80.378906 230.269531 79.730469 230.988281 79.15625 231.347656 C 78.511719 231.707031 77.648438 231.992188 76.929688 231.851562 C 75.996094 231.707031 74.632812 230.773438 74.128906 229.984375 C 73.699219 229.335938 73.625 228.402344 73.769531 227.683594 C 73.84375 226.964844 74.199219 226.175781 74.847656 225.671875 C 75.566406 225.097656 77.144531 224.667969 78.078125 224.8125 C 78.941406 224.957031 79.730469 225.601562 80.234375 226.175781 C 80.59375 226.679688 80.808594 227.179688 80.808594 227.828125 C 80.878906 228.546875 80.664062 229.625 80.304688 230.269531 C 79.945312 230.773438 79.515625 231.203125 79.011719 231.417969 C 78.367188 231.777344 77.433594 231.992188 76.5 231.777344 C 75.0625 231.492188 73.339844 230.269531 71.398438 228.761719 C 67.878906 226.03125 61.917969 220.214844 58.183594 215.691406 C 54.808594 211.597656 52.296875 208.003906 49.78125 203.121094 C 46.621094 197.160156 42.742188 187.609375 41.378906 182.148438 C 40.515625 178.917969 40.445312 176.976562 40.371094 174.105469 C 40.230469 170.730469 40.445312 166.0625 41.164062 163.117188 C 41.664062 161.035156 42.457031 158.949219 43.390625 157.875 C 44.035156 157.15625 44.824219 156.722656 45.617188 156.582031 C 46.335938 156.4375 47.410156 156.652344 48.058594 157.082031 C 48.777344 157.441406 49.421875 158.304688 49.636719 159.09375 C 49.851562 159.8125 49.496094 161.609375 49.496094 161.609375 "/></clipPath><clipPath id="ee6cb2c475"><path d="M 73.734375 224.632812 L 140.507812 224.632812 L 140.507812 261.691406 L 73.734375 261.691406 Z M 73.734375 224.632812 "/></clipPath><clipPath id="5d517185b5"><path d="M 79.585938 225.53125 C 100.632812 240.324219 104.4375 242.40625 109.25 244.707031 C 114.707031 247.21875 121.960938 250.019531 127.347656 251.816406 C 131.515625 253.179688 136.613281 253.398438 138.625 254.90625 C 139.703125 255.695312 140.277344 256.773438 140.421875 257.707031 C 140.5625 258.496094 140.207031 259.5 139.773438 260.148438 C 139.273438 260.792969 138.410156 261.367188 137.621094 261.511719 C 136.828125 261.726562 135.679688 261.511719 134.960938 261.082031 C 134.316406 260.722656 133.742188 260.074219 133.527344 259.359375 C 133.238281 258.425781 133.453125 256.773438 133.886719 255.980469 C 134.316406 255.335938 134.960938 254.832031 135.753906 254.617188 C 136.613281 254.402344 138.265625 254.6875 139.054688 255.191406 C 139.703125 255.625 140.132812 256.414062 140.347656 257.132812 C 140.492188 257.777344 140.492188 258.710938 140.207031 259.359375 C 139.917969 260.074219 139.34375 260.722656 138.695312 261.152344 C 138.050781 261.511719 137.1875 261.65625 136.46875 261.585938 C 135.753906 261.511719 134.890625 261.226562 134.386719 260.652344 C 133.742188 259.933594 133.167969 258.425781 133.308594 257.417969 C 133.527344 256.484375 134.53125 255.191406 135.394531 254.761719 C 136.113281 254.402344 137.117188 254.332031 137.835938 254.546875 C 138.554688 254.761719 139.414062 255.40625 139.847656 256.054688 C 140.277344 256.773438 140.5625 257.777344 140.421875 258.566406 C 140.277344 259.359375 139.773438 260.292969 139.199219 260.792969 C 138.554688 261.296875 137.90625 261.585938 136.757812 261.65625 C 134.101562 261.726562 127.996094 259.574219 123.183594 257.992188 C 117.582031 256.054688 110.757812 253.324219 105.226562 250.667969 C 100.273438 248.296875 96.179688 246.070312 91.511719 243.054688 C 86.125 239.679688 77.359375 233.644531 74.992188 231.058594 C 74.199219 230.125 73.84375 229.695312 73.769531 228.832031 C 73.625 227.898438 74.128906 226.390625 74.777344 225.671875 C 75.351562 225.097656 76.355469 224.738281 77.144531 224.667969 C 77.9375 224.667969 79.585938 225.53125 79.585938 225.53125 "/></clipPath><clipPath id="3d433f5eb7"><path d="M 131.511719 254.332031 L 186.507812 254.332031 L 186.507812 268.269531 L 131.511719 268.269531 Z M 131.511719 254.332031 "/></clipPath><clipPath id="d639a627b2"><path d="M 135.824219 254.402344 C 152.847656 258.785156 157.800781 259.789062 163.261719 260.292969 C 169.582031 260.867188 180.496094 259.429688 183.730469 260.433594 C 184.878906 260.792969 185.382812 261.226562 185.8125 261.871094 C 186.242188 262.519531 186.53125 263.59375 186.386719 264.386719 C 186.316406 265.175781 185.8125 266.109375 185.238281 266.613281 C 184.664062 267.113281 183.65625 267.546875 182.867188 267.546875 C 182.003906 267.546875 181 267.1875 180.425781 266.539062 C 179.777344 265.894531 179.132812 264.386719 179.277344 263.378906 C 179.421875 262.445312 180.425781 261.152344 181.289062 260.722656 C 182.222656 260.292969 183.800781 260.363281 184.664062 260.867188 C 185.523438 261.367188 186.316406 262.804688 186.457031 263.667969 C 186.53125 264.457031 186.242188 265.320312 185.8125 265.894531 C 185.453125 266.539062 184.808594 267.113281 184.015625 267.328125 C 183.15625 267.546875 181.503906 267.328125 180.710938 266.828125 C 180.066406 266.394531 179.636719 265.605469 179.421875 264.960938 C 179.203125 264.242188 179.203125 263.308594 179.492188 262.660156 C 179.777344 261.945312 180.355469 261.226562 181 260.867188 C 181.574219 260.507812 182.507812 260.292969 183.226562 260.363281 C 183.871094 260.433594 184.734375 260.722656 185.238281 261.226562 C 185.8125 261.800781 186.386719 262.660156 186.386719 263.523438 C 186.457031 264.457031 186.027344 265.894531 185.238281 266.613281 C 184.304688 267.546875 182.796875 267.761719 180.710938 268.046875 C 176.691406 268.550781 166.996094 267.761719 162.109375 267.328125 C 159.023438 267.113281 157.226562 266.753906 154.496094 266.324219 C 151.195312 265.75 147.242188 265.03125 143.652344 264.097656 C 140.0625 263.164062 134.746094 262.160156 132.953125 260.792969 C 132.089844 260.148438 131.800781 259.359375 131.660156 258.640625 C 131.515625 258.066406 131.515625 257.492188 131.730469 256.914062 C 132.019531 256.199219 132.59375 255.335938 133.308594 254.90625 C 133.957031 254.472656 135.824219 254.402344 135.824219 254.402344 "/></clipPath><clipPath id="667c08d4e9"><path d="M 218.402344 226.171875 L 259.28125 226.171875 L 259.28125 260.367188 L 218.402344 260.367188 Z M 218.402344 226.171875 "/></clipPath><clipPath id="695f568016"><path d="M 220.789062 253.324219 C 241.332031 241.691406 242.40625 240.46875 244.347656 238.53125 C 246.71875 236.160156 250.453125 232.066406 251.960938 229.839844 C 252.75 228.617188 252.75 227.46875 253.539062 226.824219 C 254.113281 226.390625 254.976562 226.175781 255.695312 226.246094 C 256.414062 226.246094 257.273438 226.605469 257.847656 227.039062 C 258.425781 227.539062 258.925781 228.257812 259.070312 229.050781 C 259.140625 229.984375 258.710938 231.5625 258.136719 232.28125 C 257.707031 232.855469 256.914062 233.285156 256.125 233.359375 C 255.191406 233.429688 253.613281 233 252.964844 232.28125 C 252.246094 231.5625 251.816406 230.054688 252.03125 229.050781 C 252.246094 228.117188 253.253906 226.824219 254.1875 226.464844 C 255.121094 226.105469 256.699219 226.246094 257.5625 226.824219 C 258.351562 227.398438 259.214844 228.546875 259.140625 229.765625 C 259 232.28125 254.6875 237.09375 252.175781 240.253906 C 249.734375 243.269531 246.789062 246.285156 244.203125 248.441406 C 242.121094 250.09375 240.613281 250.953125 238.097656 252.390625 C 234.148438 254.6875 225.601562 259.933594 222.585938 260.292969 C 221.4375 260.433594 220.789062 260.148438 220.070312 259.644531 C 219.425781 259.214844 218.851562 258.351562 218.636719 257.632812 C 218.417969 256.84375 218.5625 255.765625 218.921875 255.046875 C 219.28125 254.332031 220.789062 253.324219 220.789062 253.324219 "/></clipPath><clipPath id="3adbcc206f"><path d="M 187.921875 226 L 258.125 226 L 258.125 238.5 L 187.921875 238.5 Z M 187.921875 226 "/></clipPath><clipPath id="6a945a605f"><path d="M 192.132812 226.679688 C 219.066406 230.558594 228.472656 231.417969 234.867188 231.203125 C 239.320312 231.058594 242.765625 230.628906 246.214844 229.625 C 249.230469 228.832031 252.460938 225.960938 254.546875 226.03125 C 255.765625 226.105469 256.914062 226.824219 257.492188 227.683594 C 257.992188 228.472656 258.136719 230.054688 257.847656 230.988281 C 257.5625 231.777344 256.84375 232.496094 256.125 232.855469 C 255.265625 233.214844 253.539062 233.070312 252.75 232.785156 C 252.320312 232.640625 252.105469 232.496094 251.886719 232.066406 C 251.386719 231.417969 250.738281 229.765625 251.027344 228.832031 C 251.242188 227.898438 252.246094 226.679688 253.179688 226.320312 C 254.113281 225.960938 255.765625 226.105469 256.558594 226.679688 C 257.347656 227.253906 258.066406 228.691406 258.066406 229.695312 C 258.066406 230.699219 257.203125 232.066406 256.484375 232.640625 C 255.839844 233.144531 254.976562 233.285156 254.257812 233.214844 C 253.539062 233.214844 252.679688 232.925781 252.105469 232.351562 C 251.457031 231.707031 250.8125 230.199219 250.953125 229.191406 C 251.027344 228.257812 252.03125 226.964844 252.820312 226.464844 C 253.46875 226.03125 255.121094 226.105469 255.121094 226.105469 C 255.121094 226.105469 252.894531 226.390625 252.894531 226.464844 C 252.894531 226.535156 255.335938 226.03125 256.199219 226.464844 C 257.058594 226.964844 257.921875 228.332031 258.066406 229.265625 C 258.207031 230.054688 257.777344 231.132812 257.417969 231.707031 C 257.132812 232.28125 256.773438 232.425781 256.125 232.855469 C 254.6875 233.789062 251.816406 235.441406 248.945312 236.304688 C 244.921875 237.523438 239.535156 238.171875 234.003906 238.386719 C 227.324219 238.671875 218.777344 237.8125 211.453125 236.949219 C 204.414062 236.230469 194.289062 234.9375 190.910156 233.71875 C 189.761719 233.285156 189.257812 233.070312 188.757812 232.425781 C 188.253906 231.851562 187.894531 230.84375 187.96875 230.054688 C 188.039062 229.050781 188.902344 227.683594 189.617188 227.109375 C 190.335938 226.679688 192.132812 226.679688 192.132812 226.679688 "/></clipPath><clipPath id="597c804c76"><path d="M 251 171.71875 L 293.96875 171.71875 L 293.96875 234.308594 L 251 234.308594 Z M 251 171.71875 "/></clipPath><clipPath id="e253f50215"><path d="M 252.246094 227.972656 C 264.457031 211.378906 270.203125 194.144531 273.722656 187.824219 C 275.445312 184.804688 276.523438 183.441406 278.101562 181.429688 C 279.753906 179.492188 281.621094 177.625 283.417969 176.042969 C 285.070312 174.609375 287.152344 172.882812 288.660156 172.308594 C 289.523438 171.949219 290.167969 171.808594 290.886719 171.949219 C 291.820312 172.238281 293.113281 173.171875 293.546875 174.035156 C 293.976562 174.96875 293.832031 176.546875 293.328125 177.410156 C 292.753906 178.269531 291.320312 178.988281 290.386719 179.132812 C 289.667969 179.203125 288.804688 178.917969 288.230469 178.414062 C 287.511719 177.839844 286.722656 176.402344 286.648438 175.46875 C 286.648438 174.679688 287.007812 173.890625 287.441406 173.316406 C 287.871094 172.742188 288.660156 172.238281 289.378906 172.023438 C 290.027344 171.878906 290.960938 171.949219 291.675781 172.164062 C 292.324219 172.453125 293.042969 173.027344 293.402344 173.675781 C 293.761719 174.535156 293.976562 175.902344 293.472656 177.050781 C 292.683594 178.988281 288.445312 181 286.363281 183.082031 C 284.496094 185.023438 283.203125 186.171875 281.335938 189.042969 C 277.746094 194.863281 272.359375 210.589844 268.765625 217.484375 C 266.613281 221.578125 265.03125 224.238281 262.949219 226.964844 C 261.082031 229.40625 258.640625 232.210938 257.058594 233.359375 C 256.125 233.933594 255.480469 234.21875 254.6875 234.21875 C 253.828125 234.21875 252.820312 233.789062 252.246094 233.359375 C 251.816406 233 251.457031 232.496094 251.3125 231.992188 C 251.097656 231.417969 250.953125 230.84375 251.027344 230.269531 C 251.171875 229.550781 252.246094 227.972656 252.246094 227.972656 "/></clipPath><clipPath id="39b64fc44b"><path d="M 286.535156 140 L 334.792969 140 L 334.792969 179.144531 L 286.535156 179.144531 Z M 286.535156 140 "/></clipPath><clipPath id="eb9cc6b0aa"><path d="M 288.804688 172.238281 C 302.738281 166.707031 317.390625 163.261719 321.699219 161.464844 C 323.351562 160.816406 324.070312 160.53125 324.929688 159.742188 C 325.863281 158.949219 326.582031 157.800781 327.015625 156.652344 C 327.445312 155.574219 327.589844 154.28125 327.515625 153.0625 C 327.515625 151.839844 326.726562 150.261719 326.871094 149.183594 C 326.941406 148.464844 327.949219 147.890625 327.804688 147.316406 C 327.589844 146.597656 325.578125 146.09375 325.074219 145.304688 C 324.714844 144.585938 324.644531 143.722656 324.859375 143.007812 C 325.148438 142.144531 326.222656 140.851562 327.015625 140.421875 C 327.730469 140.0625 328.59375 140.132812 329.3125 140.347656 C 330.03125 140.492188 330.820312 140.921875 331.179688 141.570312 C 331.683594 142.359375 332.042969 144.011719 331.753906 144.945312 C 331.46875 145.878906 330.175781 146.882812 329.3125 147.242188 C 328.59375 147.53125 327.730469 147.386719 327.015625 147.101562 C 326.367188 146.8125 325.648438 146.308594 325.289062 145.59375 C 324.859375 144.800781 324.789062 143.148438 325.074219 142.289062 C 325.363281 141.570312 326.007812 140.921875 326.65625 140.636719 C 327.300781 140.277344 328.164062 139.917969 328.953125 140.207031 C 330.390625 140.851562 332.542969 144.585938 333.476562 146.453125 C 334.195312 147.746094 334.484375 148.609375 334.628906 150.042969 C 334.914062 152.054688 334.84375 155.144531 334.195312 157.441406 C 333.621094 159.8125 332.542969 162.398438 330.964844 164.121094 C 329.382812 165.84375 327.589844 166.707031 324.789062 168 C 319.902344 170.15625 309.5625 172.238281 303.382812 174.320312 C 298.644531 175.902344 293.472656 178.84375 290.886719 179.0625 C 289.738281 179.132812 289.09375 178.988281 288.375 178.558594 C 287.726562 178.128906 287.082031 177.335938 286.792969 176.546875 C 286.578125 175.828125 286.648438 174.75 287.007812 174.035156 C 287.296875 173.316406 288.804688 172.238281 288.804688 172.238281 "/></clipPath><clipPath id="34bf39f6c4"><path d="M 275.582031 140.089844 L 332 140.089844 L 332 161.722656 L 275.582031 161.722656 Z M 275.582031 140.089844 "/></clipPath><clipPath id="0d9fbcda50"><path d="M 329.957031 146.957031 C 319.617188 149.902344 317.75 150.117188 314.734375 150.332031 C 309.992188 150.546875 300.871094 149.109375 296.347656 150.117188 C 293.546875 150.691406 292.109375 151.769531 289.738281 153.203125 C 286.507812 155.214844 281.550781 161.394531 279.035156 161.609375 C 277.816406 161.679688 276.667969 160.746094 276.164062 159.882812 C 275.589844 159.09375 275.519531 157.441406 275.875 156.582031 C 276.308594 155.648438 277.601562 154.714844 278.535156 154.496094 C 279.253906 154.28125 280.1875 154.496094 280.832031 154.785156 C 281.480469 155.144531 282.125 155.71875 282.414062 156.4375 C 282.773438 157.300781 282.699219 158.949219 282.269531 159.8125 C 281.980469 160.460938 281.261719 161.035156 280.546875 161.320312 C 279.898438 161.609375 279.035156 161.75 278.246094 161.464844 C 277.386719 161.175781 276.164062 160.171875 275.804688 159.238281 C 275.445312 158.304688 275.660156 156.652344 276.308594 155.863281 C 276.882812 155.074219 279.253906 154.355469 279.324219 154.425781 C 279.324219 154.425781 277.457031 155.71875 277.386719 155.574219 C 277.167969 155.359375 280.113281 151.410156 281.980469 149.757812 C 283.777344 148.105469 286.074219 146.742188 288.300781 145.664062 C 290.601562 144.515625 292.539062 143.507812 295.554688 143.007812 C 300.367188 142.144531 308.84375 143.796875 314.589844 143.222656 C 319.617188 142.71875 325.722656 139.988281 328.378906 140.207031 C 329.527344 140.277344 330.175781 140.5625 330.75 141.140625 C 331.394531 141.640625 331.824219 142.648438 331.898438 143.367188 C 332.042969 144.011719 331.96875 144.515625 331.683594 145.089844 C 331.394531 145.734375 329.957031 146.957031 329.957031 146.957031 "/></clipPath><clipPath id="e95db7e78c"><path d="M 256.769531 103.511719 L 282.886719 103.511719 L 282.886719 161.722656 L 256.769531 161.722656 Z M 256.769531 103.511719 "/></clipPath><clipPath id="80a5c390ce"><path d="M 276.59375 160.53125 C 264.027344 144.441406 262.589844 140.851562 261.367188 137.691406 C 260.363281 134.960938 259.789062 132.664062 259.140625 130.078125 C 258.496094 127.566406 257.847656 125.480469 257.492188 122.464844 C 256.988281 118.226562 256.484375 110.253906 257.203125 107.167969 C 257.5625 105.730469 258.066406 104.796875 258.78125 104.152344 C 259.429688 103.71875 260.292969 103.503906 261.007812 103.574219 C 261.726562 103.574219 262.589844 103.933594 263.164062 104.4375 C 263.667969 104.867188 264.242188 105.660156 264.3125 106.378906 C 264.457031 107.3125 264.097656 108.890625 263.453125 109.609375 C 262.734375 110.328125 261.226562 110.832031 260.21875 110.6875 C 259.285156 110.542969 257.992188 109.464844 257.5625 108.675781 C 257.203125 108.027344 257.058594 107.09375 257.273438 106.378906 C 257.5625 105.515625 258.640625 104.222656 259.5 103.792969 C 260.148438 103.503906 261.082031 103.433594 261.800781 103.71875 C 262.660156 104.007812 263.667969 104.726562 264.242188 106.019531 C 265.390625 108.675781 263.882812 115.640625 264.527344 120.453125 C 265.175781 125.554688 266.613281 131.226562 268.265625 135.609375 C 269.699219 139.414062 271.28125 142.359375 273.507812 145.664062 C 275.949219 149.398438 281.765625 154.714844 282.628906 156.941406 C 282.914062 157.730469 282.84375 158.089844 282.699219 158.664062 C 282.554688 159.382812 281.980469 160.316406 281.40625 160.816406 C 280.761719 161.320312 279.753906 161.609375 278.964844 161.609375 C 278.175781 161.535156 276.59375 160.53125 276.59375 160.53125 "/></clipPath><clipPath id="ea2efc19ba"><path d="M 245.660156 103.488281 L 268 103.488281 L 268 176.34375 L 245.660156 176.34375 Z M 245.660156 103.488281 "/></clipPath><clipPath id="be77b7de1b"><path d="M 263.09375 109.894531 C 255.40625 118.515625 254.257812 120.527344 253.613281 123.183594 C 252.75 126.34375 252.535156 131.011719 252.964844 134.242188 C 253.324219 136.902344 254.1875 138.625 255.335938 141.355469 C 257.058594 145.160156 260.652344 150.042969 262.660156 154.714844 C 264.671875 159.308594 266.683594 165.917969 267.402344 169.222656 C 267.761719 170.800781 268.121094 171.734375 267.90625 172.8125 C 267.6875 173.890625 267.042969 175.183594 266.179688 175.757812 C 265.390625 176.261719 263.738281 176.332031 262.878906 175.972656 C 261.945312 175.542969 260.9375 174.25 260.792969 173.316406 C 260.652344 172.308594 261.152344 170.800781 261.800781 170.082031 C 262.519531 169.363281 264.097656 168.933594 265.03125 169.148438 C 266.039062 169.363281 267.257812 170.441406 267.617188 171.304688 C 267.976562 172.023438 267.976562 172.882812 267.761719 173.601562 C 267.617188 174.320312 267.113281 175.039062 266.539062 175.46875 C 265.964844 175.972656 265.105469 176.332031 264.386719 176.261719 C 263.453125 176.1875 262.300781 175.828125 261.367188 174.679688 C 259.070312 171.949219 257.777344 161.320312 255.335938 155.71875 C 253.179688 150.835938 249.519531 146.382812 247.9375 142.574219 C 246.789062 139.988281 246.285156 138.195312 245.925781 135.535156 C 245.496094 132.234375 245.785156 126.988281 246.070312 124.261719 C 246.285156 122.679688 246.429688 121.890625 246.859375 120.527344 C 247.507812 118.515625 248.800781 115.785156 250.09375 113.703125 C 251.386719 111.691406 252.964844 109.753906 254.6875 108.027344 C 256.339844 106.378906 258.496094 104.078125 260.074219 103.648438 C 261.007812 103.359375 261.945312 103.71875 262.589844 104.007812 C 263.09375 104.292969 263.523438 104.652344 263.8125 105.226562 C 264.167969 105.800781 264.457031 106.878906 264.386719 107.671875 C 264.242188 108.460938 263.09375 109.894531 263.09375 109.894531 "/></clipPath><clipPath id="01be59e98f"><path d="M 209.453125 169.160156 L 268 169.160156 L 268 200.742188 L 209.453125 200.742188 Z M 209.453125 169.160156 "/></clipPath><clipPath id="aac3017205"><path d="M 267.90625 172.667969 C 267.042969 184.519531 265.679688 186.675781 264.027344 188.613281 C 262.375 190.625 260.148438 192.417969 257.707031 194 C 254.761719 195.867188 250.523438 197.804688 247.292969 198.882812 C 244.777344 199.671875 242.980469 199.960938 240.179688 200.25 C 236.015625 200.679688 229.050781 200.964844 224.957031 200.464844 C 222.082031 200.105469 220 199.386719 217.699219 198.453125 C 215.402344 197.589844 212.53125 196.511719 211.238281 195.222656 C 210.304688 194.289062 209.65625 193.136719 209.585938 192.203125 C 209.511719 191.484375 209.800781 190.625 210.304688 190.050781 C 210.949219 189.332031 212.386719 188.542969 213.390625 188.613281 C 214.324219 188.683594 215.691406 189.546875 216.265625 190.335938 C 216.695312 190.984375 216.910156 191.84375 216.765625 192.5625 C 216.625 193.496094 215.691406 194.863281 214.898438 195.363281 C 214.253906 195.796875 213.390625 195.867188 212.671875 195.722656 C 211.957031 195.652344 211.09375 195.222656 210.589844 194.71875 C 210.089844 194.144531 209.65625 193.425781 209.65625 192.636719 C 209.585938 191.703125 210.230469 190.121094 210.878906 189.476562 C 211.378906 188.972656 212.027344 188.613281 212.960938 188.613281 C 214.972656 188.613281 219.855469 191.84375 222.296875 192.5625 C 223.804688 193.066406 224.378906 193.210938 226.105469 193.351562 C 229.480469 193.640625 238.097656 193.496094 241.402344 192.996094 C 242.980469 192.777344 243.484375 192.636719 244.921875 192.0625 C 247.433594 191.128906 252.820312 188.683594 255.046875 187.25 C 256.269531 186.386719 256.914062 185.742188 257.707031 184.804688 C 258.566406 183.871094 259.5 183.011719 260.003906 181.503906 C 260.867188 179.203125 260.148438 173.816406 260.867188 171.808594 C 261.226562 170.800781 261.585938 170.15625 262.300781 169.722656 C 263.09375 169.222656 264.746094 169.078125 265.605469 169.292969 C 266.179688 169.4375 266.613281 169.796875 267.042969 170.296875 C 267.472656 170.875 267.90625 172.667969 267.90625 172.667969 "/></clipPath><clipPath id="259774b9d4"><path d="M 40.523438 131.738281 L 147.878906 131.738281 L 147.878906 165.34375 L 40.523438 165.34375 Z M 40.523438 131.738281 "/></clipPath><clipPath id="ce0cd54f02"><path d="M 40.660156 161.535156 C 45.617188 148.679688 45.902344 148.035156 46.765625 146.882812 C 47.984375 145.234375 49.851562 143.222656 52.007812 141.570312 C 54.664062 139.558594 58.328125 137.332031 61.777344 135.894531 C 65.296875 134.460938 68.597656 133.8125 73.050781 133.167969 C 79.226562 132.234375 88.710938 131.585938 95.316406 131.875 C 100.703125 132.160156 104.4375 132.953125 109.96875 134.171875 C 117.292969 135.824219 128.714844 138.769531 135.394531 141.425781 C 139.917969 143.222656 144.515625 145.519531 146.308594 147.171875 C 147.171875 147.960938 147.53125 148.535156 147.746094 149.328125 C 147.890625 150.042969 147.746094 151.121094 147.386719 151.839844 C 146.957031 152.488281 146.167969 153.207031 145.449219 153.492188 C 144.660156 153.707031 143.652344 153.78125 142.863281 153.421875 C 142 152.917969 140.707031 151.335938 140.636719 150.261719 C 140.5625 149.253906 141.355469 147.820312 142.074219 147.242188 C 142.648438 146.667969 143.507812 146.453125 144.226562 146.527344 C 144.945312 146.527344 145.878906 146.742188 146.453125 147.242188 C 147.101562 147.890625 147.890625 149.328125 147.820312 150.332031 C 147.746094 151.265625 146.882812 152.703125 146.09375 153.207031 C 145.234375 153.707031 143.582031 153.78125 142.71875 153.347656 C 141.785156 152.917969 140.851562 151.625 140.707031 150.621094 C 140.5625 149.6875 141.066406 148.105469 141.785156 147.460938 C 142.503906 146.8125 144.082031 146.453125 145.015625 146.597656 C 145.808594 146.667969 146.527344 147.242188 146.957031 147.746094 C 147.386719 148.175781 147.675781 148.679688 147.746094 149.328125 C 147.820312 150.1875 147.53125 151.769531 146.882812 152.558594 C 146.167969 153.277344 145.089844 153.707031 143.722656 153.636719 C 141.066406 153.492188 136.972656 149.757812 132.304688 147.960938 C 125.625 145.375 113.773438 142.289062 106.953125 140.78125 C 102.5 139.847656 99.984375 139.34375 95.746094 139.054688 C 90.21875 138.769531 82.101562 139.34375 76.570312 139.988281 C 72.261719 140.5625 68.742188 140.996094 65.222656 142.289062 C 61.777344 143.652344 57.96875 145.808594 55.457031 147.960938 C 53.515625 149.757812 52.296875 151.554688 51.003906 153.851562 C 49.566406 156.507812 48.703125 161.175781 47.625 163.042969 C 47.050781 163.976562 46.765625 164.625 45.976562 164.984375 C 45.113281 165.414062 43.460938 165.34375 42.671875 165.054688 C 42.097656 164.839844 41.664062 164.480469 41.378906 163.976562 C 40.949219 163.332031 40.660156 161.535156 40.660156 161.535156 "/></clipPath><clipPath id="0a6073f1bc"><path d="M 139 145.363281 L 219 145.363281 L 219 196.234375 L 139 196.234375 Z M 139 145.363281 "/></clipPath><clipPath id="e7dfea03a6"><path d="M 144.371094 145.949219 C 196.511719 173.242188 200.964844 176.042969 205.921875 179.851562 C 210.519531 183.371094 217.125 188.613281 218.492188 191.128906 C 218.992188 191.988281 218.921875 192.636719 218.777344 193.351562 C 218.636719 194.070312 218.203125 194.933594 217.628906 195.363281 C 216.839844 195.9375 215.332031 196.371094 214.324219 196.15625 C 213.390625 195.867188 212.171875 194.789062 211.882812 193.855469 C 211.523438 192.921875 211.882812 191.34375 212.3125 190.550781 C 212.746094 189.90625 213.535156 189.402344 214.183594 189.257812 C 214.898438 189.042969 215.832031 188.972656 216.480469 189.332031 C 217.34375 189.691406 218.417969 190.910156 218.707031 191.84375 C 218.992188 192.5625 218.851562 193.425781 218.5625 194.144531 C 218.203125 194.789062 217.699219 195.507812 216.984375 195.796875 C 216.121094 196.226562 214.972656 196.371094 213.605469 195.867188 C 210.804688 194.863281 206.425781 189.1875 202.1875 186.027344 C 197.449219 182.4375 193.136719 179.5625 186.316406 175.613281 C 175.183594 169.078125 145.519531 156.007812 140.78125 152.199219 C 139.703125 151.335938 139.34375 151.050781 139.128906 150.261719 C 138.914062 149.328125 139.199219 147.746094 139.703125 146.957031 C 140.132812 146.238281 141.066406 145.734375 141.855469 145.59375 C 142.574219 145.375 144.371094 145.949219 144.371094 145.949219 "/></clipPath></defs><g id="556af528d7"><g clip-rule="nonzero" clip-path="url(#2e8a89e18e)"><g clip-rule="nonzero" clip-path="url(#a5a93015be)"><path style=" stroke:none;fill-rule:nonzero;fill:currentColor;fill-opacity:1;" d="M 136.328125 210.589844 L 236.117188 210.589844 L 236.117188 274.296875 L 136.328125 274.296875 Z M 136.328125 210.589844 "/></g></g><g clip-rule="nonzero" clip-path="url(#8ac9ab155b)"><g clip-rule="nonzero" clip-path="url(#14b54463e5)"><path style=" stroke:none;fill-rule:nonzero;fill:currentColor;fill-opacity:1;" d="M 162.46875 212.746094 L 236.203125 212.746094 L 236.203125 272.859375 L 162.46875 272.859375 Z M 162.46875 212.746094 "/></g></g><g clip-rule="nonzero" clip-path="url(#fff045a800)"><g clip-rule="nonzero" clip-path="url(#99f63fd79f)"><path style=" stroke:none;fill-rule:nonzero;fill:currentColor;fill-opacity:1;" d="M 101.636719 175.46875 L 152.773438 175.46875 L 152.773438 234.199219 L 101.636719 234.199219 Z M 101.636719 175.46875 "/></g></g><g clip-rule="nonzero" clip-path="url(#6f7144bef6)"><g clip-rule="nonzero" clip-path="url(#53080fb1c7)"><path style=" stroke:none;fill-rule:nonzero;fill:currentColor;fill-opacity:1;" d="M 40.015625 152.628906 L 114.195312 152.628906 L 114.195312 188.324219 L 40.015625 188.324219 Z M 40.015625 152.628906 "/></g></g><g clip-rule="nonzero" clip-path="url(#ce1fcbea06)"><g clip-rule="nonzero" clip-path="url(#b74904ba99)"><path style=" stroke:none;fill-rule:nonzero;fill:currentColor;fill-opacity:1;" d="M 37.5 153.707031 L 83.824219 153.707031 L 83.824219 234.777344 L 37.5 234.777344 Z M 37.5 153.707031 "/></g></g><g clip-rule="nonzero" clip-path="url(#ee6cb2c475)"><g clip-rule="nonzero" clip-path="url(#5d517185b5)"><path style=" stroke:none;fill-rule:nonzero;fill:currentColor;fill-opacity:1;" d="M 70.898438 221.796875 L 143.34375 221.796875 L 143.34375 264.527344 L 70.898438 264.527344 Z M 70.898438 221.796875 "/></g></g><g clip-rule="nonzero" clip-path="url(#3d433f5eb7)"><g clip-rule="nonzero" clip-path="url(#d639a627b2)"><path style=" stroke:none;fill-rule:nonzero;fill:currentColor;fill-opacity:1;" d="M 128.785156 251.527344 L 189.308594 251.527344 L 189.308594 270.921875 L 128.785156 270.921875 Z M 128.785156 251.527344 "/></g></g><g clip-rule="nonzero" clip-path="url(#667c08d4e9)"><g clip-rule="nonzero" clip-path="url(#695f568016)"><path style=" stroke:none;fill-rule:nonzero;fill:currentColor;fill-opacity:1;" d="M 215.761719 223.375 L 262.078125 223.375 L 262.078125 263.164062 L 215.761719 263.164062 Z M 215.761719 223.375 "/></g></g><g clip-rule="nonzero" clip-path="url(#3adbcc206f)"><g clip-rule="nonzero" clip-path="url(#6a945a605f)"><path style=" stroke:none;fill-rule:nonzero;fill:currentColor;fill-opacity:1;" d="M 185.09375 223.160156 L 261.027344 223.160156 L 261.027344 241.257812 L 185.09375 241.257812 Z M 185.09375 223.160156 "/></g></g><g clip-rule="nonzero" clip-path="url(#597c804c76)"><g clip-rule="nonzero" clip-path="url(#e253f50215)"><path style=" stroke:none;fill-rule:nonzero;fill:currentColor;fill-opacity:1;" d="M 248.152344 169.078125 L 296.417969 169.078125 L 296.417969 237.136719 L 248.152344 237.136719 Z M 248.152344 169.078125 "/></g></g><g clip-rule="nonzero" clip-path="url(#39b64fc44b)"><g clip-rule="nonzero" clip-path="url(#eb9cc6b0aa)"><path style=" stroke:none;fill-rule:nonzero;fill:currentColor;fill-opacity:1;" d="M 283.921875 137.332031 L 337.582031 137.332031 L 337.582031 181.933594 L 283.921875 181.933594 Z M 283.921875 137.332031 "/></g></g><g clip-rule="nonzero" clip-path="url(#34bf39f6c4)"><g clip-rule="nonzero" clip-path="url(#0d9fbcda50)"><path style=" stroke:none;fill-rule:nonzero;fill:currentColor;fill-opacity:1;" d="M 272.933594 137.332031 L 334.863281 137.332031 L 334.863281 164.480469 L 272.933594 164.480469 Z M 272.933594 137.332031 "/></g></g><g clip-rule="nonzero" clip-path="url(#e95db7e78c)"><g clip-rule="nonzero" clip-path="url(#80a5c390ce)"><path style=" stroke:none;fill-rule:nonzero;fill:currentColor;fill-opacity:1;" d="M 254.332031 100.703125 L 285.574219 100.703125 L 285.574219 164.53125 L 254.332031 164.53125 Z M 254.332031 100.703125 "/></g></g><g clip-rule="nonzero" clip-path="url(#ea2efc19ba)"><g clip-rule="nonzero" clip-path="url(#be77b7de1b)"><path style=" stroke:none;fill-rule:nonzero;fill:currentColor;fill-opacity:1;" d="M 243.054688 100.773438 L 270.847656 100.773438 L 270.847656 179.164062 L 243.054688 179.164062 Z M 243.054688 100.773438 "/></g></g><g clip-rule="nonzero" clip-path="url(#01be59e98f)"><g clip-rule="nonzero" clip-path="url(#aac3017205)"><path style=" stroke:none;fill-rule:nonzero;fill:currentColor;fill-opacity:1;" d="M 206.710938 166.421875 L 270.738281 166.421875 L 270.738281 203.335938 L 206.710938 203.335938 Z M 206.710938 166.421875 "/></g></g><g clip-rule="nonzero" clip-path="url(#259774b9d4)"><g clip-rule="nonzero" clip-path="url(#ce0cd54f02)"><path style=" stroke:none;fill-rule:nonzero;fill:currentColor;fill-opacity:1;" d="M 37.789062 129 L 150.617188 129 L 150.617188 167.929688 L 37.789062 167.929688 Z M 37.789062 129 "/></g></g><g clip-rule="nonzero" clip-path="url(#0a6073f1bc)"><g clip-rule="nonzero" clip-path="url(#e7dfea03a6)"><path style=" stroke:none;fill-rule:nonzero;fill:currentColor;fill-opacity:1;" d="M 136.253906 142.71875 L 221.707031 142.71875 L 221.707031 199.097656 L 136.253906 199.097656 Z M 136.253906 142.71875 "/></g></g></g></svg>