<svg xmlns="http://www.w3.org/2000/svg" xmlns:xlink="http://www.w3.org/1999/xlink" width="500" zoomAndPan="magnify" viewBox="0 0 375 374.999991" height="500" preserveAspectRatio="xMidYMid meet" version="1.2"><defs><clipPath id="d922d3ba12"><path d="M 40.457031 178.089844 L 140 178.089844 L 140 202.265625 L 40.457031 202.265625 Z M 40.457031 178.089844 "/></clipPath><clipPath id="de18e0e9cb"><path d="M 47.519531 179.792969 C 57.613281 188.039062 62.621094 190.429688 65.320312 191.585938 C 66.859375 192.199219 67.398438 192.433594 69.09375 192.816406 C 72.5625 193.511719 80.421875 194.050781 85.433594 194.28125 C 89.746094 194.4375 93.753906 194.511719 97.375 194.28125 C 100.304688 194.050781 102.15625 194.050781 105.390625 193.28125 C 110.554688 191.96875 119.800781 188.808594 125.117188 186.113281 C 129.125 184.1875 132.59375 180.410156 134.828125 179.640625 C 135.90625 179.332031 136.601562 179.332031 137.292969 179.5625 C 138.066406 179.792969 138.914062 180.332031 139.375 181.027344 C 139.835938 181.875 140.144531 183.570312 139.835938 184.570312 C 139.605469 185.34375 138.988281 186.113281 138.296875 186.5 C 137.679688 186.960938 136.753906 187.191406 135.984375 187.113281 C 135.214844 187.039062 134.289062 186.652344 133.671875 186.191406 C 133.132812 185.652344 132.515625 184.878906 132.441406 184.03125 C 132.363281 183.03125 132.824219 181.335938 133.441406 180.566406 C 133.980469 179.949219 134.90625 179.5625 135.675781 179.484375 C 136.445312 179.332031 137.449219 179.5625 138.066406 179.871094 C 138.757812 180.257812 139.453125 180.949219 139.761719 181.71875 C 140.070312 182.644531 140.070312 184.109375 139.527344 185.34375 C 138.605469 187.039062 135.832031 188.964844 133.671875 190.429688 C 131.359375 191.890625 129.28125 192.738281 126.199219 193.972656 C 121.265625 196.054688 111.789062 199.597656 106.777344 200.832031 C 103.617188 201.601562 101.847656 201.757812 98.996094 201.988281 C 95.296875 202.21875 91.132812 202.21875 86.511719 201.988281 C 80.578125 201.679688 72.332031 201.679688 66.242188 199.984375 C 60.773438 198.519531 55.457031 195.4375 51.523438 193.203125 C 48.75 191.507812 46.4375 190.042969 44.589844 188.269531 C 42.972656 186.804688 41.351562 184.957031 40.8125 183.492188 C 40.503906 182.492188 40.503906 181.566406 40.738281 180.71875 C 41.042969 179.949219 41.738281 179.101562 42.507812 178.636719 C 43.28125 178.253906 44.359375 178.097656 45.207031 178.253906 C 46.054688 178.40625 47.519531 179.792969 47.519531 179.792969 "/></clipPath><clipPath id="fe145f4d88"><path d="M 40.523438 177 L 140.328125 177 L 140.328125 186.273438 L 40.523438 186.273438 Z M 40.523438 177 "/></clipPath><clipPath id="1c38d2b0aa"><path d="M 44.433594 177.019531 C 99.6875 178.484375 113.867188 178.5625 122.960938 178.328125 C 128.507812 178.097656 133.828125 177.019531 136.445312 177.40625 C 137.601562 177.558594 138.140625 177.636719 138.757812 178.175781 C 139.527344 178.867188 140.378906 180.410156 140.300781 181.488281 C 140.222656 182.492188 139.222656 183.957031 138.449219 184.570312 C 137.757812 185.035156 136.832031 185.1875 136.0625 185.109375 C 135.289062 184.957031 134.367188 184.648438 133.828125 184.03125 C 133.132812 183.261719 132.441406 181.644531 132.671875 180.640625 C 132.824219 179.5625 133.980469 178.253906 134.828125 177.714844 C 135.523438 177.328125 136.523438 177.328125 137.292969 177.480469 C 138.066406 177.636719 138.914062 178.175781 139.375 178.714844 C 139.914062 179.332031 140.222656 180.257812 140.300781 181.027344 C 140.300781 181.796875 140.070312 182.800781 139.605469 183.414062 C 139.222656 184.03125 138.757812 184.496094 137.679688 184.878906 C 135.136719 185.882812 128.816406 185.804688 122.960938 186.035156 C 114.332031 186.34375 102.769531 186.191406 91.132812 186.035156 C 76.800781 185.804688 49.058594 186.421875 43.511719 184.570312 C 42.125 184.1875 41.738281 183.722656 41.199219 183.03125 C 40.738281 182.335938 40.503906 181.257812 40.582031 180.410156 C 40.660156 179.5625 41.199219 178.5625 41.816406 177.945312 C 42.507812 177.40625 44.433594 177.019531 44.433594 177.019531 "/></clipPath><clipPath id="3383930c6f"><path d="M 54 70.589844 L 97.921875 70.589844 L 97.921875 181.992188 L 54 181.992188 Z M 54 70.589844 "/></clipPath><clipPath id="6b38d1cc46"><path d="M 54.066406 177.097656 C 65.472656 146.503906 73.949219 117.683594 79.652344 101.5 C 83.660156 90.015625 88.128906 75.53125 90.902344 72.140625 C 91.675781 71.136719 92.214844 70.984375 92.90625 70.753906 C 93.679688 70.597656 94.679688 70.519531 95.375 70.90625 C 96.296875 71.367188 97.375 72.753906 97.683594 73.679688 C 97.917969 74.527344 97.839844 75.453125 97.375 76.144531 C 96.914062 76.992188 95.449219 78.074219 94.527344 78.304688 C 93.679688 78.457031 92.753906 78.226562 92.058594 77.839844 C 91.367188 77.535156 90.671875 76.839844 90.441406 76.070312 C 90.054688 75.144531 90.210938 73.371094 90.671875 72.449219 C 90.980469 71.753906 91.828125 71.136719 92.523438 70.90625 C 93.292969 70.597656 94.21875 70.597656 94.988281 70.753906 C 95.757812 70.984375 96.605469 71.523438 96.992188 72.214844 C 97.53125 73.0625 97.761719 74.066406 97.53125 75.761719 C 97.070312 80.617188 90.980469 92.175781 87.203125 103.117188 C 81.65625 118.914062 73.257812 147.8125 68.324219 161.683594 C 65.472656 169.542969 63.160156 177.019531 61.234375 179.792969 C 60.464844 180.871094 59.925781 181.335938 59.152344 181.644531 C 58.382812 181.953125 57.226562 181.953125 56.457031 181.644531 C 55.609375 181.335938 54.761719 180.566406 54.375 179.792969 C 53.992188 179.101562 54.066406 177.097656 54.066406 177.097656 "/></clipPath><clipPath id="acbb99096a"><path d="M 90.316406 70.128906 L 132.984375 70.128906 L 132.984375 183.15625 L 90.316406 183.15625 Z M 90.316406 70.128906 "/></clipPath><clipPath id="2b15e59542"><path d="M 97.761719 72.601562 C 107.316406 95.410156 108.089844 100.730469 110.476562 108.589844 C 114.332031 120.996094 123.113281 143.730469 126.890625 156.214844 C 129.28125 164.226562 133.210938 174.9375 132.054688 176.019531 C 131.746094 176.324219 130.511719 175.402344 130.4375 175.632812 C 130.28125 175.863281 132.515625 177.328125 132.746094 178.328125 C 132.980469 179.410156 132.441406 181.027344 131.746094 181.875 C 131.285156 182.492188 130.359375 182.875 129.589844 182.953125 C 128.816406 183.109375 127.894531 182.953125 127.199219 182.566406 C 126.507812 182.183594 125.8125 181.488281 125.503906 180.796875 C 125.195312 180.101562 124.964844 179.175781 125.195312 178.328125 C 125.503906 177.40625 126.660156 176.019531 127.585938 175.632812 C 128.277344 175.246094 129.28125 175.171875 130.050781 175.476562 C 130.976562 175.785156 132.285156 176.941406 132.671875 177.945312 C 132.980469 178.945312 132.671875 180.640625 132.054688 181.488281 C 131.4375 182.335938 129.589844 182.953125 128.742188 183.03125 C 128.277344 183.109375 127.96875 183.03125 127.585938 182.800781 C 126.660156 182.105469 125.582031 180.101562 124.578125 177.789062 C 122.808594 173.550781 121.882812 166.230469 119.570312 158.449219 C 115.792969 146.117188 107.164062 123.617188 103.308594 111.363281 C 100.921875 103.582031 100.152344 98.339844 97.992188 92.175781 C 95.835938 86.164062 90.75 77.996094 90.363281 74.683594 C 90.285156 73.371094 90.519531 72.679688 90.980469 71.984375 C 91.441406 71.292969 92.289062 70.597656 93.136719 70.367188 C 93.984375 70.136719 95.066406 70.210938 95.835938 70.597656 C 96.605469 70.984375 97.761719 72.601562 97.761719 72.601562 "/></clipPath><clipPath id="064c10c867"><path d="M 86.132812 66.203125 L 189.941406 66.203125 L 189.941406 96.800781 L 86.132812 96.800781 Z M 86.132812 66.203125 "/></clipPath><clipPath id="a00d93dbe1"><path d="M 90.441406 66.28125 C 108.78125 69.363281 172.203125 83.46875 183.917969 88.167969 C 187.074219 89.402344 188.847656 90.402344 189.621094 91.40625 C 189.925781 91.789062 189.925781 92.097656 189.925781 92.636719 C 189.925781 93.253906 189.695312 94.332031 189.3125 95.027344 C 188.847656 95.644531 188.15625 96.335938 187.382812 96.492188 C 186.382812 96.796875 184.609375 96.644531 183.761719 96.027344 C 182.914062 95.410156 182.144531 93.792969 182.222656 92.792969 C 182.222656 91.710938 183.070312 90.171875 183.992188 89.632812 C 184.917969 89.09375 186.613281 88.9375 187.617188 89.402344 C 188.539062 89.785156 189.621094 91.171875 189.851562 92.175781 C 190.003906 93.253906 189.542969 94.871094 188.773438 95.644531 C 188 96.414062 186.304688 96.875 185.304688 96.644531 C 184.226562 96.492188 183.378906 94.488281 182.53125 94.410156 C 181.835938 94.253906 181.757812 95.027344 180.679688 95.101562 C 173.128906 95.71875 96.761719 77.6875 88.824219 73.757812 C 87.4375 73.0625 87.128906 72.679688 86.742188 71.984375 C 86.28125 71.214844 86.125 70.058594 86.355469 69.289062 C 86.511719 68.441406 87.128906 67.515625 87.820312 66.976562 C 88.515625 66.511719 90.441406 66.28125 90.441406 66.28125 "/></clipPath><clipPath id="6aa12f7168"><path d="M 170.242188 87 L 290.992188 87 L 290.992188 123.265625 L 170.242188 123.265625 Z M 170.242188 87 "/></clipPath><clipPath id="49c2b6ec08"><path d="M 174.207031 87.089844 C 183.53125 87.320312 185.84375 87.628906 189.3125 88.554688 C 195.167969 90.015625 203.105469 93.871094 212.507812 96.566406 C 226.378906 100.652344 253.734375 105.582031 264.90625 108.972656 C 270.300781 110.59375 272.613281 112.058594 276.621094 113.289062 C 280.78125 114.523438 287.488281 114.832031 289.492188 116.21875 C 290.339844 116.835938 290.648438 117.527344 290.878906 118.222656 C 291.03125 118.992188 291.03125 119.996094 290.722656 120.6875 C 290.414062 121.457031 289.800781 122.152344 289.105469 122.613281 C 288.410156 123 287.488281 123.152344 286.714844 123.078125 C 285.945312 123 285.019531 122.691406 284.480469 122.074219 C 283.789062 121.304688 283.25 119.609375 283.324219 118.605469 C 283.402344 117.835938 283.867188 116.988281 284.480469 116.449219 C 285.253906 115.832031 287.023438 115.371094 287.949219 115.523438 C 288.796875 115.601562 289.566406 116.21875 290.105469 116.757812 C 290.570312 117.375 290.953125 118.300781 290.953125 119.070312 C 291.03125 119.839844 290.800781 120.84375 290.339844 121.457031 C 289.644531 122.230469 288.644531 122.921875 287.101562 123.152344 C 284.171875 123.539062 277.46875 121.382812 273.152344 120.148438 C 269.148438 118.992188 267.066406 117.605469 261.824219 116.0625 C 250.730469 112.828125 222.753906 107.585938 208.652344 103.503906 C 199.175781 100.804688 191.699219 96.722656 185.074219 95.410156 C 180.527344 94.5625 175.59375 95.488281 173.28125 94.71875 C 172.125 94.332031 171.507812 93.871094 170.96875 93.175781 C 170.507812 92.484375 170.277344 91.328125 170.355469 90.480469 C 170.429688 89.632812 170.96875 88.628906 171.585938 88.089844 C 172.28125 87.550781 174.207031 87.089844 174.207031 87.089844 "/></clipPath><clipPath id="70ddd6b20c"><path d="M 173.222656 88.492188 L 192.554688 88.492188 L 192.554688 119.992188 L 173.222656 119.992188 Z M 173.222656 88.492188 "/></clipPath><clipPath id="a7fe1199dc"><path d="M 178.597656 88.707031 C 184.378906 92.328125 184.917969 93.253906 185.84375 94.5625 C 187.074219 96.335938 189.15625 99.339844 190.003906 101.34375 C 190.621094 102.734375 190.773438 103.503906 191.082031 105.121094 C 191.546875 107.972656 193.011719 114.523438 192.238281 116.988281 C 191.777344 118.375 190.773438 119.300781 189.851562 119.6875 C 189.078125 120.070312 187.925781 119.996094 187.152344 119.6875 C 186.304688 119.378906 185.535156 118.53125 185.074219 117.914062 C 184.765625 117.296875 184.53125 116.757812 184.6875 116.0625 C 184.839844 115.0625 186.074219 113.058594 187 112.519531 C 187.691406 112.132812 188.695312 112.058594 189.464844 112.363281 C 190.390625 112.671875 191.777344 113.753906 192.164062 114.753906 C 192.46875 115.757812 192.238281 117.527344 191.621094 118.375 C 191.007812 119.222656 189.386719 119.917969 188.386719 119.917969 C 187.539062 119.996094 186.691406 119.53125 186.074219 119.070312 C 185.457031 118.605469 184.917969 117.835938 184.765625 116.988281 C 184.609375 115.988281 184.917969 114.292969 185.6875 113.519531 C 186.382812 112.671875 188 112.132812 189.078125 112.289062 C 190.082031 112.441406 191.46875 113.519531 191.929688 114.367188 C 192.394531 115.140625 192.46875 116.0625 192.316406 116.835938 C 192.164062 117.605469 191.082031 118.992188 191.082031 118.992188 C 191.082031 118.992188 192.238281 116.988281 192.238281 116.988281 C 192.238281 116.988281 191.390625 118.761719 190.699219 119.222656 C 190.003906 119.761719 188.847656 119.996094 188.078125 119.917969 C 187.230469 119.839844 186.304688 119.53125 185.613281 118.605469 C 184.226562 116.757812 184.300781 109.359375 183.453125 106.429688 C 182.992188 104.734375 182.835938 103.964844 181.914062 102.5 C 180.371094 99.882812 173.976562 95.566406 173.359375 93.023438 C 173.050781 91.710938 173.746094 90.324219 174.359375 89.632812 C 174.746094 89.09375 175.285156 88.785156 175.902344 88.628906 C 176.671875 88.398438 178.597656 88.707031 178.597656 88.707031 "/></clipPath><clipPath id="889f07fa1a"><path d="M 184.585938 94.171875 L 203.605469 94.171875 L 203.605469 119.238281 L 184.585938 119.238281 Z M 184.585938 94.171875 "/></clipPath><clipPath id="4ae364abf4"><path d="M 199.714844 102.039062 C 192.085938 103.8125 193.164062 113.90625 192.394531 116.296875 C 192.085938 117.144531 192.007812 117.453125 191.546875 117.914062 C 190.929688 118.453125 190.003906 119.148438 189.078125 119.222656 C 188.078125 119.222656 186.460938 118.761719 185.765625 117.914062 C 185.074219 117.066406 184.6875 115.214844 184.996094 114.136719 C 185.304688 113.136719 186.613281 111.980469 187.617188 111.671875 C 188.617188 111.363281 190.3125 111.75 191.160156 112.441406 C 191.929688 113.136719 192.625 114.753906 192.46875 115.757812 C 192.394531 116.835938 191.390625 118.300781 190.46875 118.761719 C 189.542969 119.300781 187.769531 119.300781 186.84375 118.761719 C 185.921875 118.300781 184.996094 116.757812 184.839844 115.757812 C 184.6875 114.984375 184.839844 114.0625 185.304688 113.367188 C 185.921875 112.597656 187.382812 111.59375 188.464844 111.515625 C 189.464844 111.441406 191.007812 112.289062 191.699219 113.058594 C 192.238281 113.675781 192.546875 114.601562 192.46875 115.371094 C 192.46875 116.21875 192.085938 117.296875 191.546875 117.914062 C 190.929688 118.605469 189.925781 119.070312 189.078125 119.222656 C 188.230469 119.300781 187.152344 118.992188 186.460938 118.53125 C 185.765625 118.066406 185.226562 117.453125 184.917969 116.296875 C 184.148438 113.519531 185.148438 104.273438 185.765625 100.882812 C 186.152344 99.1875 186.304688 98.03125 187.074219 97.03125 C 187.847656 96.027344 188.773438 95.257812 190.234375 94.796875 C 192.777344 93.949219 199.636719 94.023438 201.5625 94.71875 C 202.257812 95.027344 202.566406 95.410156 202.875 95.949219 C 203.335938 96.644531 203.644531 97.800781 203.566406 98.648438 C 203.488281 99.496094 202.949219 100.496094 202.257812 101.039062 C 201.640625 101.578125 199.714844 102.039062 199.714844 102.039062 "/></clipPath><clipPath id="09ca893a3a"><path d="M 177.695312 109.304688 L 191.90625 109.304688 L 191.90625 228.132812 L 177.695312 228.132812 Z M 177.695312 109.304688 "/></clipPath><clipPath id="4e2e4abdaf"><path d="M 191.855469 113.210938 C 190.929688 151.359375 187.230469 182.261719 186.382812 198.597656 C 185.84375 209 187 219.867188 185.84375 224.257812 C 185.457031 225.875 184.917969 226.800781 184.148438 227.417969 C 183.53125 227.957031 182.605469 228.1875 181.757812 228.113281 C 180.835938 227.957031 179.292969 227.03125 178.675781 226.183594 C 178.214844 225.570312 177.984375 224.644531 178.136719 223.796875 C 178.367188 222.792969 179.371094 221.328125 180.21875 220.789062 C 180.910156 220.40625 181.835938 220.25 182.605469 220.40625 C 183.609375 220.636719 184.996094 221.714844 185.457031 222.640625 C 185.921875 223.332031 185.921875 224.335938 185.765625 225.027344 C 185.613281 225.800781 185.074219 226.648438 184.457031 227.1875 C 183.917969 227.648438 182.992188 228.035156 182.222656 228.113281 C 181.449219 228.113281 180.449219 227.957031 179.832031 227.417969 C 179.0625 226.800781 178.523438 225.875 178.136719 224.257812 C 177.136719 219.867188 178.136719 209 178.675781 198.597656 C 179.523438 182.335938 183.144531 151.820312 183.917969 135.945312 C 184.378906 126.160156 183.070312 115.910156 184.226562 112.289062 C 184.609375 111.054688 185.074219 110.515625 185.765625 110.054688 C 186.460938 109.515625 187.617188 109.28125 188.464844 109.359375 C 189.3125 109.4375 190.3125 109.976562 190.851562 110.667969 C 191.46875 111.285156 191.855469 113.210938 191.855469 113.210938 "/></clipPath><clipPath id="b9db990028"><path d="M 163.066406 215.121094 L 185.808594 215.121094 L 185.808594 296.632812 L 163.066406 296.632812 Z M 163.066406 215.121094 "/></clipPath><clipPath id="3da57d534b"><path d="M 185.765625 218.941406 C 184.53125 243.832031 182.761719 261.246094 181.296875 271.113281 C 180.292969 277.660156 179.140625 283.902344 178.136719 287.449219 C 177.675781 289.222656 177.445312 290.144531 176.828125 291.300781 C 176.210938 292.457031 175.363281 293.535156 174.359375 294.382812 C 173.28125 295.230469 171.894531 296.078125 170.429688 296.386719 C 168.8125 296.695312 166.117188 296.617188 164.882812 295.847656 C 163.878906 295.15625 163.1875 293.691406 163.109375 292.6875 C 163.03125 291.839844 163.496094 290.761719 163.957031 290.144531 C 164.34375 289.605469 165.34375 288.914062 165.421875 288.988281 C 165.574219 289.144531 163.265625 292.84375 163.109375 292.765625 C 162.957031 292.6875 163.265625 290.992188 163.804688 290.378906 C 164.421875 289.605469 165.960938 288.683594 166.964844 288.683594 C 168.042969 288.757812 169.507812 289.683594 170.121094 290.453125 C 170.660156 291.070312 170.816406 292.074219 170.816406 292.84375 C 170.738281 293.613281 170.429688 294.539062 169.890625 295.078125 C 169.121094 295.769531 167.503906 296.464844 166.5 296.386719 C 165.652344 296.386719 164.804688 295.925781 164.265625 295.308594 C 163.648438 294.617188 163.03125 292.921875 163.1875 291.917969 C 163.265625 291.070312 163.726562 290.300781 164.34375 289.761719 C 164.882812 289.222656 165.808594 288.835938 166.578125 288.757812 C 167.347656 288.683594 168.273438 288.914062 168.964844 289.296875 C 169.660156 289.683594 170.429688 290.378906 170.507812 291.148438 C 170.738281 292.378906 169.121094 295.464844 168.425781 296.078125 C 168.117188 296.386719 167.964844 296.386719 167.578125 296.386719 C 166.808594 296.386719 164.882812 296.003906 164.1875 295.230469 C 163.417969 294.460938 162.957031 292.84375 163.1875 291.765625 C 163.417969 290.761719 164.421875 289.605469 165.421875 288.988281 C 166.578125 288.375 168.734375 289.222656 169.738281 288.21875 C 171.203125 286.910156 171.277344 284.058594 171.972656 280.28125 C 173.746094 271.34375 176.519531 245.914062 177.445312 234.429688 C 177.984375 227.648438 177.136719 220.945312 178.136719 218.015625 C 178.523438 216.859375 178.984375 216.242188 179.679688 215.78125 C 180.371094 215.320312 181.527344 215.011719 182.375 215.164062 C 183.222656 215.242188 184.226562 215.78125 184.765625 216.398438 C 185.304688 217.015625 185.765625 218.941406 185.765625 218.941406 "/></clipPath><clipPath id="62a08f4f5e"><path d="M 117.03125 288.300781 L 173 288.300781 L 173 313.105469 L 117.03125 313.105469 Z M 117.03125 288.300781 "/></clipPath><clipPath id="a4650c27d0"><path d="M 169.738281 296.078125 C 143.613281 302.785156 140.222656 302.398438 136.136719 303.941406 C 131.207031 305.789062 123.808594 312.726562 120.878906 313.03125 C 119.800781 313.109375 119.183594 312.726562 118.570312 312.261719 C 117.953125 311.722656 117.414062 310.953125 117.179688 310.183594 C 117.027344 309.410156 117.027344 308.488281 117.335938 307.714844 C 117.796875 306.867188 119.109375 305.636719 120.109375 305.402344 C 121.1875 305.171875 122.808594 305.789062 123.578125 306.40625 C 124.269531 306.945312 124.65625 307.714844 124.734375 308.5625 C 124.8125 309.566406 124.269531 311.261719 123.578125 311.953125 C 123.039062 312.570312 122.191406 312.957031 121.34375 313.03125 C 120.339844 313.03125 118.722656 312.339844 117.953125 311.644531 C 117.414062 311.03125 117.105469 310.105469 117.105469 309.335938 C 117.027344 308.5625 117.257812 307.640625 117.722656 307.023438 C 118.414062 306.25 120.957031 305.710938 120.957031 305.328125 C 120.957031 305.097656 119.878906 305.097656 119.800781 304.789062 C 119.722656 304.25 121.496094 303.167969 122.882812 302.246094 C 125.351562 300.625 129.203125 298.3125 134.136719 296.542969 C 142.457031 293.535156 164.421875 287.910156 169.351562 288.375 C 170.660156 288.527344 171.203125 288.914062 171.816406 289.53125 C 172.433594 290.144531 172.898438 291.226562 172.898438 292.074219 C 172.972656 292.921875 172.589844 294 172.050781 294.617188 C 171.507812 295.308594 169.738281 296.078125 169.738281 296.078125 "/></clipPath><clipPath id="3e53f15823"><path d="M 117.078125 304.3125 L 262.140625 304.3125 L 262.140625 314.972656 L 117.078125 314.972656 Z M 117.078125 304.3125 "/></clipPath><clipPath id="c1e2fabf77"><path d="M 120.957031 305.328125 C 171.664062 305.25 178.597656 304.554688 188.464844 304.402344 C 200.945312 304.246094 217.902344 304.246094 230.617188 304.863281 C 241.171875 305.402344 255.199219 305.25 259.4375 307.332031 C 260.976562 308.023438 261.59375 309.027344 261.980469 309.949219 C 262.210938 310.722656 262.132812 311.644531 261.824219 312.417969 C 261.515625 313.109375 260.976562 313.878906 260.207031 314.265625 C 259.359375 314.726562 257.585938 314.882812 256.585938 314.496094 C 255.660156 314.035156 254.582031 312.648438 254.429688 311.570312 C 254.273438 310.566406 254.8125 308.871094 255.582031 308.179688 C 256.355469 307.40625 258.050781 306.945312 259.050781 307.175781 C 260.128906 307.40625 261.441406 308.5625 261.824219 309.566406 C 262.210938 310.566406 261.902344 312.261719 261.441406 313.109375 C 261.054688 313.878906 260.363281 314.34375 259.4375 314.652344 C 258.203125 315.113281 256.816406 314.882812 254.351562 314.804688 C 247.570312 314.726562 232.386719 312.570312 217.054688 312.109375 C 192.46875 311.335938 130.746094 315.421875 120.957031 313.03125 C 119.03125 312.570312 118.414062 312.183594 117.796875 311.335938 C 117.179688 310.644531 117.027344 309.566406 117.105469 308.71875 C 117.179688 307.871094 117.722656 306.867188 118.414062 306.25 C 119.03125 305.710938 120.957031 305.328125 120.957031 305.328125 "/></clipPath><clipPath id="5c7b53a477"><path d="M 198.148438 285.128906 L 262.125 285.128906 L 262.125 314.890625 L 198.148438 314.890625 Z M 198.148438 285.128906 "/></clipPath><clipPath id="9eede706d7"><path d="M 255.582031 313.726562 C 243.253906 304.402344 236.859375 302.011719 232.003906 300.242188 C 227.917969 298.699219 224.757812 297.851562 220.289062 296.695312 C 214.511719 295.230469 203.027344 294.539062 200.023438 292.378906 C 198.710938 291.457031 198.328125 290.222656 198.171875 289.222656 C 198.097656 288.375 198.480469 287.527344 198.945312 286.832031 C 199.328125 286.214844 200.175781 285.675781 200.871094 285.445312 C 201.640625 285.214844 202.640625 285.136719 203.335938 285.445312 C 204.261719 285.90625 205.492188 287.21875 205.800781 288.140625 C 206.035156 288.914062 205.957031 289.835938 205.570312 290.609375 C 205.109375 291.457031 203.875 292.6875 202.796875 292.84375 C 201.792969 293.074219 200.097656 292.457031 199.328125 291.839844 C 198.710938 291.300781 198.328125 290.375 198.25 289.605469 C 198.097656 288.835938 198.25 287.910156 198.710938 287.21875 C 199.25 286.371094 200.175781 285.523438 201.71875 285.289062 C 205.417969 284.519531 215.820312 287.679688 221.675781 289.144531 C 226.300781 290.222656 229.769531 291.226562 234.007812 292.765625 C 238.9375 294.460938 245.488281 297.160156 249.496094 299.238281 C 252.269531 300.703125 254.121094 301.859375 256.125 303.476562 C 258.125 305.097656 260.667969 307.332031 261.515625 308.949219 C 261.980469 309.875 262.210938 310.722656 262.058594 311.570312 C 261.824219 312.570312 260.746094 313.957031 259.898438 314.496094 C 259.128906 314.882812 257.894531 314.882812 257.125 314.652344 C 256.507812 314.496094 255.582031 313.726562 255.582031 313.726562 "/></clipPath><clipPath id="0543bed3e7"><path d="M 115.847656 302.167969 L 128.089844 302.167969 L 128.089844 313.410156 L 115.847656 313.410156 Z M 115.847656 302.167969 "/></clipPath><clipPath id="0d30bf365d"><path d="M 125.273438 309.71875 C 122.730469 309.796875 120.417969 305.941406 120.648438 305.328125 C 120.726562 304.941406 121.34375 304.941406 121.804688 304.941406 C 122.652344 305.019531 124.503906 305.558594 125.195312 306.328125 C 125.8125 306.867188 126.042969 307.792969 126.121094 308.5625 C 126.121094 309.335938 125.964844 310.335938 125.425781 310.953125 C 124.8125 311.722656 123.347656 312.648438 122.265625 312.648438 C 121.1875 312.648438 119.648438 311.800781 119.109375 310.953125 C 118.492188 310.105469 118.414062 308.332031 118.644531 307.332031 C 118.953125 306.558594 119.570312 305.867188 120.265625 305.480469 C 120.957031 305.09375 121.882812 304.863281 122.652344 304.941406 C 123.421875 305.019531 124.347656 305.480469 124.886719 306.019531 C 125.503906 306.558594 125.964844 307.40625 126.042969 308.179688 C 126.199219 308.949219 126.042969 309.875 125.660156 310.566406 C 125.273438 311.261719 124.734375 311.878906 123.886719 312.261719 C 122.574219 312.957031 119.417969 313.878906 118.105469 313.109375 C 116.796875 312.492188 115.792969 309.949219 115.871094 308.488281 C 115.871094 307.097656 116.875 305.636719 117.953125 304.632812 C 119.183594 303.476562 121.726562 302.550781 123.269531 302.320312 C 124.269531 302.167969 125.195312 302.167969 125.964844 302.550781 C 126.738281 302.9375 127.585938 303.707031 127.816406 304.554688 C 128.203125 305.558594 128.046875 307.253906 127.507812 308.101562 C 127.046875 308.871094 125.273438 309.71875 125.273438 309.71875 "/></clipPath><clipPath id="0ee05b9c8a"><path d="M 191.6875 195.738281 L 206 195.738281 L 206 290.378906 L 191.6875 290.378906 Z M 191.6875 195.738281 "/></clipPath><clipPath id="05d638f5c1"><path d="M 198.171875 286.523438 C 193.164062 226.417969 190.929688 204.300781 192.007812 199.136719 C 192.238281 197.902344 192.46875 197.441406 193.085938 196.902344 C 193.859375 196.285156 195.554688 195.746094 196.554688 195.898438 C 197.324219 195.976562 198.171875 196.515625 198.710938 197.054688 C 199.175781 197.671875 199.558594 198.519531 199.636719 199.367188 C 199.714844 200.136719 199.558594 201.0625 199.097656 201.757812 C 198.480469 202.527344 196.941406 203.375 195.9375 203.527344 C 195.089844 203.605469 194.164062 203.296875 193.550781 202.757812 C 192.777344 202.140625 191.929688 200.601562 191.929688 199.523438 C 192.007812 198.519531 192.933594 196.980469 193.703125 196.4375 C 194.398438 195.898438 195.320312 195.667969 196.09375 195.824219 C 197.09375 195.976562 198.480469 196.746094 199.175781 197.75 C 200.023438 199.136719 199.867188 200.984375 200.175781 203.761719 C 200.871094 210.386719 200.792969 224.71875 201.640625 236.894531 C 202.566406 251.769531 206.726562 280.4375 205.878906 286.523438 C 205.726562 287.910156 205.492188 288.449219 204.953125 289.066406 C 204.414062 289.683594 203.335938 290.222656 202.488281 290.300781 C 201.71875 290.453125 200.5625 290.222656 199.867188 289.683594 C 199.097656 289.066406 198.171875 286.523438 198.171875 286.523438 "/></clipPath><clipPath id="ba7d38c92c"><path d="M 184.003906 116.382812 L 200.386719 116.382812 L 200.386719 206.71875 L 184.003906 206.71875 Z M 184.003906 116.382812 "/></clipPath><clipPath id="2483ae76da"><path d="M 191.929688 120.226562 C 193.316406 143.730469 201.253906 195.207031 200.253906 202.835938 C 200.097656 204.300781 199.867188 204.683594 199.328125 205.378906 C 198.710938 205.996094 197.710938 206.535156 196.863281 206.609375 C 196.015625 206.765625 194.9375 206.457031 194.242188 205.996094 C 193.550781 205.457031 192.777344 204.609375 192.703125 203.761719 C 192.546875 202.605469 193.164062 200.445312 194.089844 199.753906 C 194.9375 199.058594 196.632812 198.828125 197.632812 199.136719 C 198.636719 199.523438 199.867188 200.753906 200.097656 201.757812 C 200.40625 202.835938 200.023438 204.53125 199.328125 205.300781 C 198.636719 206.148438 197.015625 206.765625 196.015625 206.609375 C 194.9375 206.535156 193.472656 205.53125 193.011719 204.609375 C 192.46875 203.683594 192.546875 201.910156 193.011719 200.984375 C 193.550781 200.0625 195.011719 199.136719 196.015625 198.980469 C 196.785156 198.828125 197.710938 199.058594 198.402344 199.523438 C 199.25 200.0625 200.175781 201.601562 200.253906 202.605469 C 200.332031 203.527344 199.867188 204.683594 199.328125 205.378906 C 198.710938 205.996094 197.710938 206.535156 196.863281 206.609375 C 196.015625 206.765625 194.9375 206.457031 194.242188 205.996094 C 193.550781 205.457031 193.164062 205.148438 192.703125 203.761719 C 190.003906 196.515625 185.535156 143.730469 184.609375 130.472656 C 184.226562 125.464844 183.839844 122.460938 184.226562 120.226562 C 184.457031 119.070312 184.6875 118.300781 185.226562 117.683594 C 185.613281 117.144531 186.074219 116.835938 186.691406 116.605469 C 187.460938 116.371094 188.695312 116.296875 189.464844 116.605469 C 190.234375 116.910156 191.082031 117.757812 191.46875 118.453125 C 191.855469 118.992188 191.929688 120.226562 191.929688 120.226562 "/></clipPath><clipPath id="20a5495c90"><path d="M 241.339844 118.308594 L 285.625 118.308594 L 285.625 229.617188 L 241.339844 229.617188 Z M 241.339844 118.308594 "/></clipPath><clipPath id="2bde4e0f9c"><path d="M 241.480469 225.183594 C 244.71875 213.933594 250.113281 202.835938 253.734375 192.816406 C 258.203125 180.332031 262.671875 163.148438 267.066406 150.28125 C 270.765625 139.414062 275.773438 124.386719 278.085938 120.457031 C 278.777344 119.378906 279.011719 118.992188 279.78125 118.683594 C 280.707031 118.222656 282.476562 118.222656 283.402344 118.605469 C 284.171875 118.914062 284.789062 119.6875 285.097656 120.378906 C 285.40625 121.074219 285.636719 121.996094 285.40625 122.769531 C 285.097656 123.769531 284.019531 125.15625 283.09375 125.621094 C 282.402344 126.003906 281.398438 125.929688 280.707031 125.773438 C 279.933594 125.542969 279.085938 125.082031 278.625 124.464844 C 278.085938 123.617188 277.699219 121.84375 277.929688 120.84375 C 278.164062 120.070312 278.703125 119.300781 279.394531 118.914062 C 280.242188 118.375 282.015625 118.144531 283.019531 118.453125 C 283.789062 118.683594 284.480469 119.300781 284.867188 119.996094 C 285.328125 120.6875 285.5625 121.148438 285.484375 122.382812 C 285.175781 126.851562 278.007812 141.800781 274.386719 152.667969 C 270.226562 165 266.371094 179.71875 261.980469 192.585938 C 257.742188 204.839844 251.039062 224.414062 248.417969 228.035156 C 247.878906 228.804688 247.644531 228.960938 247.03125 229.191406 C 246.335938 229.5 245.101562 229.730469 244.332031 229.5 C 243.484375 229.265625 242.558594 228.574219 242.097656 227.878906 C 241.636719 227.1875 241.480469 225.183594 241.480469 225.183594 "/></clipPath><clipPath id="bd0f1032ef"><path d="M 277.527344 118.160156 L 319.992188 118.160156 L 319.992188 231.78125 L 277.527344 231.78125 Z M 277.527344 118.160156 "/></clipPath><clipPath id="206b14fbe8"><path d="M 285.484375 122.074219 C 288.566406 136.332031 297.121094 164.613281 301.203125 176.09375 C 303.515625 182.566406 305.058594 185.035156 307.367188 191.199219 C 310.914062 200.601562 319.390625 221.871094 319.777344 227.03125 C 319.929688 228.417969 319.699219 229.035156 319.390625 229.730469 C 319.082031 230.347656 318.621094 230.808594 318.082031 231.117188 C 317.386719 231.503906 316.152344 231.734375 315.382812 231.65625 C 314.765625 231.578125 314.226562 231.347656 313.6875 230.886719 C 313.148438 230.421875 312.222656 229.5 312.222656 228.574219 C 312.222656 227.339844 313.996094 224.644531 315.074219 224.105469 C 315.847656 223.71875 316.847656 223.949219 317.542969 224.257812 C 318.234375 224.566406 319.003906 225.183594 319.390625 225.953125 C 319.777344 226.800781 319.929688 228.574219 319.46875 229.5 C 319.003906 230.5 317.542969 231.425781 316.539062 231.65625 C 315.769531 231.808594 314.84375 231.578125 314.148438 231.195312 C 313.457031 230.808594 312.761719 230.113281 312.53125 229.34375 C 312.148438 228.417969 312.300781 226.648438 312.761719 225.800781 C 313.148438 225.027344 313.917969 224.414062 314.691406 224.257812 C 315.613281 223.949219 317.386719 224.105469 318.234375 224.71875 C 319.160156 225.335938 319.851562 226.957031 319.851562 227.957031 C 319.929688 228.726562 319.390625 229.652344 319.003906 230.269531 C 318.773438 230.65625 318.234375 231.117188 318.082031 231.039062 C 317.925781 230.960938 319.621094 227.03125 319.777344 227.03125 C 319.929688 227.109375 319.777344 229.035156 319.390625 229.730469 C 318.929688 230.5 318.082031 231.195312 317.234375 231.503906 C 316.460938 231.734375 315.304688 231.734375 314.535156 231.347656 C 313.765625 231.039062 313.300781 230.65625 312.53125 229.5 C 309.605469 224.953125 302.667969 200.214844 299.277344 191.351562 C 297.351562 186.574219 296.347656 185.496094 294.5 180.332031 C 290.339844 168.851562 278.394531 131.398438 277.777344 123.847656 C 277.625 121.921875 277.625 121.148438 278.238281 120.226562 C 278.777344 119.300781 280.167969 118.375 281.167969 118.222656 C 282.015625 118.066406 283.09375 118.300781 283.789062 118.839844 C 284.636719 119.53125 285.484375 122.074219 285.484375 122.074219 "/></clipPath><clipPath id="462fe6826b"><path d="M 231.101562 223.816406 L 333.914062 223.816406 L 333.914062 234.832031 L 231.101562 234.832031 Z M 231.101562 223.816406 "/></clipPath><clipPath id="6fb480fb9f"><path d="M 235.007812 223.875 C 252.347656 224.179688 260.746094 225.875 270.84375 226.339844 C 286.410156 227.109375 323.476562 224.953125 330.023438 225.953125 C 331.335938 226.183594 331.71875 226.183594 332.335938 226.722656 C 333.109375 227.417969 333.878906 228.960938 333.878906 230.039062 C 333.800781 231.117188 332.800781 232.503906 331.953125 233.121094 C 331.335938 233.582031 330.332031 233.738281 329.5625 233.660156 C 328.792969 233.582031 327.867188 233.199219 327.328125 232.582031 C 326.710938 231.886719 326.09375 230.191406 326.171875 229.191406 C 326.25 228.34375 326.710938 227.496094 327.328125 227.03125 C 328.097656 226.417969 329.871094 225.875 330.796875 226.03125 C 331.644531 226.183594 332.414062 226.722656 332.953125 227.339844 C 333.414062 227.878906 333.800781 228.804688 333.878906 229.574219 C 333.878906 230.347656 333.722656 231.347656 333.183594 231.964844 C 332.566406 232.734375 331.796875 233.199219 330.023438 233.660156 C 322.933594 235.433594 290.03125 234.738281 274.617188 234.121094 C 263.367188 233.738281 253.195312 231.964844 245.71875 231.578125 C 241.019531 231.347656 236.394531 232.195312 234.082031 231.503906 C 232.925781 231.117188 232.3125 230.65625 231.847656 229.960938 C 231.386719 229.191406 231.078125 228.113281 231.15625 227.265625 C 231.308594 226.417969 231.847656 225.414062 232.464844 224.875 C 233.082031 224.257812 235.007812 223.875 235.007812 223.875 "/></clipPath><clipPath id="928f6071c7"><path d="M 231.546875 224.417969 L 334.503906 224.417969 L 334.503906 248.601562 L 231.546875 248.601562 Z M 231.546875 224.417969 "/></clipPath><clipPath id="ac330a3b83"><path d="M 238.398438 225.953125 C 249.726562 235.046875 254.96875 237.4375 260.667969 238.746094 C 267.605469 240.441406 278.085938 240.441406 284.789062 240.671875 C 289.566406 240.902344 292.648438 241.136719 296.964844 240.671875 C 301.898438 240.210938 307.675781 239.363281 312.6875 237.511719 C 317.773438 235.664062 326.867188 228.960938 327.40625 229.5 C 327.558594 229.652344 326.867188 230.730469 326.789062 230.730469 C 326.710938 230.730469 326.867188 228.960938 327.171875 228.265625 C 327.558594 227.648438 328.328125 226.957031 329.023438 226.648438 C 329.71875 226.339844 330.71875 226.261719 331.488281 226.417969 C 332.261719 226.570312 333.109375 227.03125 333.570312 227.726562 C 334.109375 228.496094 334.570312 230.191406 334.261719 231.269531 C 333.957031 232.273438 332.800781 233.503906 331.71875 233.8125 C 330.71875 234.121094 329.023438 233.738281 328.175781 233.199219 C 327.480469 232.734375 327.019531 231.886719 326.867188 231.117188 C 326.632812 230.347656 326.632812 229.421875 327.019531 228.652344 C 327.480469 227.804688 328.867188 226.648438 329.792969 226.417969 C 330.640625 226.183594 331.566406 226.339844 332.261719 226.722656 C 332.953125 227.03125 333.648438 227.878906 334.03125 228.417969 C 334.261719 228.804688 334.417969 229.035156 334.417969 229.574219 C 334.261719 231.039062 332.644531 234.738281 330.410156 236.894531 C 327.25 239.980469 320.777344 242.832031 315.539062 244.679688 C 310.296875 246.605469 304.054688 247.609375 298.890625 248.148438 C 294.578125 248.6875 291.570312 248.457031 286.871094 248.378906 C 280.089844 248.222656 269.378906 248.378906 262.132812 246.914062 C 256.199219 245.835938 250.882812 243.832031 246.414062 241.675781 C 242.558594 239.824219 238.9375 237.4375 236.394531 235.199219 C 234.46875 233.503906 232.621094 231.578125 231.925781 230.039062 C 231.539062 229.035156 231.464844 228.113281 231.695312 227.265625 C 232.003906 226.492188 232.621094 225.570312 233.390625 225.105469 C 234.082031 224.644531 235.238281 224.414062 236.085938 224.566406 C 236.859375 224.71875 238.398438 225.953125 238.398438 225.953125 "/></clipPath><clipPath id="7f34bfbe99"><path d="M 185.011719 78.476562 L 193.410156 78.476562 L 193.410156 94.433594 L 185.011719 94.433594 Z M 185.011719 78.476562 "/></clipPath><clipPath id="7238230027"><path d="M 185.535156 90.558594 C 185.535156 80.308594 185.996094 79.691406 186.613281 79.230469 C 187.308594 78.84375 188.15625 78.457031 189.003906 78.535156 C 190.003906 78.613281 191.546875 79.382812 192.164062 80.308594 C 192.703125 81.230469 192.855469 82.925781 192.46875 83.929688 C 192.007812 84.855469 190.621094 85.933594 189.621094 86.164062 C 188.847656 86.394531 187.847656 86.164062 187.152344 85.855469 C 186.460938 85.472656 185.765625 84.777344 185.457031 84.082031 C 185.074219 83.390625 184.996094 82.464844 185.074219 81.695312 C 185.226562 80.925781 185.765625 80.078125 186.304688 79.535156 C 186.921875 78.996094 187.769531 78.613281 188.617188 78.535156 C 189.386719 78.457031 190.3125 78.6875 191.007812 79.152344 C 191.621094 79.535156 192.164062 80.078125 192.546875 81.078125 C 193.242188 82.925781 193.550781 88.398438 193.242188 90.558594 C 193.085938 91.710938 192.855469 92.484375 192.316406 93.101562 C 191.699219 93.714844 190.699219 94.253906 189.851562 94.332031 C 189.003906 94.488281 187.925781 94.253906 187.230469 93.714844 C 186.382812 93.101562 185.535156 90.558594 185.535156 90.558594 "/></clipPath><clipPath id="0ce05526a7"><path d="M 175.152344 60 L 201.1875 60 L 201.1875 85.652344 L 175.152344 85.652344 Z M 175.152344 60 "/></clipPath><clipPath id="9a9e6dd7b3"><path d="M 188.308594 85.546875 C 181.605469 83.542969 180.371094 82.925781 179.292969 81.773438 C 177.828125 80.078125 176.289062 76.609375 175.671875 74.527344 C 175.285156 73.0625 175.207031 71.90625 175.285156 70.597656 C 175.441406 69.054688 175.75 67.207031 176.441406 65.898438 C 177.058594 64.742188 177.984375 63.738281 178.984375 62.96875 C 179.988281 62.199219 181.140625 61.660156 182.605469 61.195312 C 184.6875 60.578125 188.386719 59.964844 190.621094 60.117188 C 192.316406 60.195312 193.550781 60.65625 194.9375 61.195312 C 196.324219 61.8125 197.941406 62.738281 198.867188 63.816406 C 199.792969 64.816406 200.175781 65.898438 200.484375 67.4375 C 200.945312 69.597656 201.488281 73.371094 200.5625 75.839844 C 199.636719 78.382812 197.09375 81 194.859375 82.386719 C 192.777344 83.621094 189.542969 84.238281 187.847656 84.238281 C 186.84375 84.160156 186.152344 83.929688 185.535156 83.46875 C 184.917969 83.003906 184.378906 82.15625 184.148438 81.386719 C 183.917969 80.691406 183.992188 79.691406 184.226562 78.921875 C 184.53125 78.226562 185.074219 77.457031 185.84375 77.070312 C 186.691406 76.609375 188.464844 76.378906 189.386719 76.839844 C 190.390625 77.300781 191.390625 78.6875 191.621094 79.691406 C 191.855469 80.460938 191.621094 81.464844 191.238281 82.15625 C 190.929688 82.773438 190.234375 83.542969 189.464844 83.851562 C 188.539062 84.160156 186.769531 84.238281 185.84375 83.699219 C 184.996094 83.160156 184.148438 81.617188 183.992188 80.617188 C 183.839844 79.769531 184.226562 78.84375 184.609375 78.226562 C 185.074219 77.535156 185.765625 77.070312 186.535156 76.6875 C 187.617188 76.222656 189.621094 76.609375 190.699219 75.914062 C 191.777344 75.296875 192.777344 74.066406 193.242188 72.910156 C 193.625 71.753906 193.78125 69.75 193.164062 68.902344 C 192.46875 68.054688 190.621094 67.902344 189.386719 67.824219 C 188.078125 67.746094 186.460938 67.746094 185.457031 68.441406 C 184.378906 69.054688 183.222656 70.597656 182.992188 71.753906 C 182.761719 72.988281 183.144531 74.605469 183.839844 75.605469 C 184.609375 76.609375 186.074219 77.300781 187.230469 77.765625 C 188.308594 78.148438 189.621094 77.765625 190.46875 78.382812 C 191.316406 78.921875 192.238281 80.308594 192.316406 81.386719 C 192.394531 82.464844 191.621094 84.007812 190.851562 84.699219 C 190.234375 85.238281 188.308594 85.546875 188.308594 85.546875 "/></clipPath></defs><g id="d7bf39a492"><g clip-rule="nonzero" clip-path="url(#d922d3ba12)"><g clip-rule="nonzero" clip-path="url(#de18e0e9cb)"><path style=" stroke:none;fill-rule:nonzero;fill:currentColor;fill-opacity:1;" d="M 37.652344 175.171875 L 143.003906 175.171875 L 143.003906 205.070312 L 37.652344 205.070312 Z M 37.652344 175.171875 "/></g></g><g clip-rule="nonzero" clip-path="url(#fe145f4d88)"><g clip-rule="nonzero" clip-path="url(#1c38d2b0aa)"><path style=" stroke:none;fill-rule:nonzero;fill:currentColor;fill-opacity:1;" d="M 37.5 173.9375 L 143.410156 173.9375 L 143.410156 189.117188 L 37.5 189.117188 Z M 37.5 173.9375 "/></g></g><g clip-rule="nonzero" clip-path="url(#3383930c6f)"><g clip-rule="nonzero" clip-path="url(#6b38d1cc46)"><path style=" stroke:none;fill-rule:nonzero;fill:currentColor;fill-opacity:1;" d="M 50.984375 67.667969 L 100.84375 67.667969 L 100.84375 184.71875 L 50.984375 184.71875 Z M 50.984375 67.667969 "/></g></g><g clip-rule="nonzero" clip-path="url(#acbb99096a)"><g clip-rule="nonzero" clip-path="url(#2b15e59542)"><path style=" stroke:none;fill-rule:nonzero;fill:currentColor;fill-opacity:1;" d="M 87.28125 67.285156 L 135.832031 67.285156 L 135.832031 186.191406 L 87.28125 186.191406 Z M 87.28125 67.285156 "/></g></g><g clip-rule="nonzero" clip-path="url(#064c10c867)"><g clip-rule="nonzero" clip-path="url(#a00d93dbe1)"><path style=" stroke:none;fill-rule:nonzero;fill:currentColor;fill-opacity:1;" d="M 83.273438 63.199219 L 193.085938 63.199219 L 193.085938 99.804688 L 83.273438 99.804688 Z M 83.273438 63.199219 "/></g></g><g clip-rule="nonzero" clip-path="url(#6aa12f7168)"><g clip-rule="nonzero" clip-path="url(#49c2b6ec08)"><path style=" stroke:none;fill-rule:nonzero;fill:currentColor;fill-opacity:1;" d="M 167.269531 84.007812 L 294.125 84.007812 L 294.125 126.234375 L 167.269531 126.234375 Z M 167.269531 84.007812 "/></g></g><g clip-rule="nonzero" clip-path="url(#70ddd6b20c)"><g clip-rule="nonzero" clip-path="url(#a7fe1199dc)"><path style=" stroke:none;fill-rule:nonzero;fill:currentColor;fill-opacity:1;" d="M 170.277344 85.546875 L 195.398438 85.546875 L 195.398438 123.035156 L 170.277344 123.035156 Z M 170.277344 85.546875 "/></g></g><g clip-rule="nonzero" clip-path="url(#889f07fa1a)"><g clip-rule="nonzero" clip-path="url(#4ae364abf4)"><path style=" stroke:none;fill-rule:nonzero;fill:currentColor;fill-opacity:1;" d="M 181.757812 91.636719 L 206.726562 91.636719 L 206.726562 122.261719 L 181.757812 122.261719 Z M 181.757812 91.636719 "/></g></g><g clip-rule="nonzero" clip-path="url(#09ca893a3a)"><g clip-rule="nonzero" clip-path="url(#4e2e4abdaf)"><path style=" stroke:none;fill-rule:nonzero;fill:currentColor;fill-opacity:1;" d="M 175.054688 106.277344 L 194.9375 106.277344 L 194.9375 231.160156 L 175.054688 231.160156 Z M 175.054688 106.277344 "/></g></g><g clip-rule="nonzero" clip-path="url(#b9db990028)"><g clip-rule="nonzero" clip-path="url(#3da57d534b)"><path style=" stroke:none;fill-rule:nonzero;fill:currentColor;fill-opacity:1;" d="M 160.027344 212.082031 L 188.847656 212.082031 L 188.847656 299.558594 L 160.027344 299.558594 Z M 160.027344 212.082031 "/></g></g><g clip-rule="nonzero" clip-path="url(#62a08f4f5e)"><g clip-rule="nonzero" clip-path="url(#a4650c27d0)"><path style=" stroke:none;fill-rule:nonzero;fill:currentColor;fill-opacity:1;" d="M 114.023438 285.289062 L 176.03125 285.289062 L 176.03125 316.117188 L 114.023438 316.117188 Z M 114.023438 285.289062 "/></g></g><g clip-rule="nonzero" clip-path="url(#3e53f15823)"><g clip-rule="nonzero" clip-path="url(#c1e2fabf77)"><path style=" stroke:none;fill-rule:nonzero;fill:currentColor;fill-opacity:1;" d="M 114.023438 301.320312 L 265.066406 301.320312 L 265.066406 317.964844 L 114.023438 317.964844 Z M 114.023438 301.320312 "/></g></g><g clip-rule="nonzero" clip-path="url(#5c7b53a477)"><g clip-rule="nonzero" clip-path="url(#9eede706d7)"><path style=" stroke:none;fill-rule:nonzero;fill:currentColor;fill-opacity:1;" d="M 195.089844 282.207031 L 265.183594 282.207031 L 265.183594 317.8125 L 195.089844 317.8125 Z M 195.089844 282.207031 "/></g></g><g clip-rule="nonzero" clip-path="url(#0543bed3e7)"><g clip-rule="nonzero" clip-path="url(#0d30bf365d)"><path style=" stroke:none;fill-rule:nonzero;fill:currentColor;fill-opacity:1;" d="M 112.789062 299.238281 L 130.949219 299.238281 L 130.949219 316.269531 L 112.789062 316.269531 Z M 112.789062 299.238281 "/></g></g><g clip-rule="nonzero" clip-path="url(#0ee05b9c8a)"><g clip-rule="nonzero" clip-path="url(#05d638f5c1)"><path style=" stroke:none;fill-rule:nonzero;fill:currentColor;fill-opacity:1;" d="M 188.847656 192.738281 L 209.039062 192.738281 L 209.039062 293.453125 L 188.847656 293.453125 Z M 188.847656 192.738281 "/></g></g><g clip-rule="nonzero" clip-path="url(#ba7d38c92c)"><g clip-rule="nonzero" clip-path="url(#2483ae76da)"><path style=" stroke:none;fill-rule:nonzero;fill:currentColor;fill-opacity:1;" d="M 181.140625 113.519531 L 203.335938 113.519531 L 203.335938 209.664062 L 181.140625 209.664062 Z M 181.140625 113.519531 "/></g></g><g clip-rule="nonzero" clip-path="url(#20a5495c90)"><g clip-rule="nonzero" clip-path="url(#2bde4e0f9c)"><path style=" stroke:none;fill-rule:nonzero;fill:currentColor;fill-opacity:1;" d="M 238.398438 115.371094 L 288.566406 115.371094 L 288.566406 232.558594 L 238.398438 232.558594 Z M 238.398438 115.371094 "/></g></g><g clip-rule="nonzero" clip-path="url(#bd0f1032ef)"><g clip-rule="nonzero" clip-path="url(#206b14fbe8)"><path style=" stroke:none;fill-rule:nonzero;fill:currentColor;fill-opacity:1;" d="M 274.695312 115.140625 L 323.011719 115.140625 L 323.011719 234.800781 L 274.695312 234.800781 Z M 274.695312 115.140625 "/></g></g><g clip-rule="nonzero" clip-path="url(#462fe6826b)"><g clip-rule="nonzero" clip-path="url(#6fb480fb9f)"><path style=" stroke:none;fill-rule:nonzero;fill:currentColor;fill-opacity:1;" d="M 228.074219 220.789062 L 336.941406 220.789062 L 336.941406 237.28125 L 228.074219 237.28125 Z M 228.074219 220.789062 "/></g></g><g clip-rule="nonzero" clip-path="url(#928f6071c7)"><g clip-rule="nonzero" clip-path="url(#ac330a3b83)"><path style=" stroke:none;fill-rule:nonzero;fill:currentColor;fill-opacity:1;" d="M 228.613281 221.484375 L 337.558594 221.484375 L 337.558594 251.539062 L 228.613281 251.539062 Z M 228.613281 221.484375 "/></g></g><g clip-rule="nonzero" clip-path="url(#7f34bfbe99)"><g clip-rule="nonzero" clip-path="url(#7238230027)"><path style=" stroke:none;fill-rule:nonzero;fill:currentColor;fill-opacity:1;" d="M 181.988281 75.453125 L 196.324219 75.453125 L 196.324219 97.511719 L 181.988281 97.511719 Z M 181.988281 75.453125 "/></g></g><g clip-rule="nonzero" clip-path="url(#0ce05526a7)"><g clip-rule="nonzero" clip-path="url(#9a9e6dd7b3)"><path style=" stroke:none;fill-rule:nonzero;fill:currentColor;fill-opacity:1;" d="M 172.203125 57.035156 L 203.644531 57.035156 L 203.644531 88.597656 L 172.203125 88.597656 Z M 172.203125 57.035156 "/></g></g></g></svg>