<svg xmlns="http://www.w3.org/2000/svg" xmlns:xlink="http://www.w3.org/1999/xlink" width="500" zoomAndPan="magnify" viewBox="0 0 375 374.999991" height="500" preserveAspectRatio="xMidYMid meet" version="1.2"><defs><clipPath id="de1bf9d2a8"><path d="M 89.605469 232.179688 L 184.523438 232.179688 L 184.523438 333.371094 L 89.605469 333.371094 Z M 89.605469 232.179688 "/></clipPath><clipPath id="aaf5a5a34a"><path d="M 178.617188 332.75 C 153.648438 318.121094 150.890625 315.75 147.597656 313.066406 C 144.226562 310.386719 141.46875 308.242188 137.71875 304.644531 C 131.972656 299.207031 122.859375 289.785156 117.113281 282.738281 C 112.289062 276.765625 108.765625 271.097656 105.011719 265.199219 C 101.261719 259.457031 97.046875 252.945312 94.445312 247.585938 C 92.375 243.449219 89.695312 238.546875 90 235.941406 C 90.078125 234.5625 90.996094 233.492188 91.917969 232.957031 C 92.835938 232.496094 94.597656 232.417969 95.515625 232.878906 C 96.433594 233.414062 97.429688 234.792969 97.585938 235.867188 C 97.738281 236.9375 96.972656 238.46875 96.28125 239.234375 C 95.746094 239.773438 94.828125 240.15625 94.0625 240.15625 C 93.066406 240.15625 91.457031 239.390625 90.769531 238.699219 C 90.230469 238.085938 89.925781 237.167969 89.925781 236.402344 C 90 235.40625 90.84375 233.796875 91.609375 233.183594 C 92.222656 232.648438 93.140625 232.417969 93.90625 232.496094 C 94.902344 232.648438 96.050781 233.183594 97.046875 234.335938 C 98.808594 236.324219 99.347656 240.769531 101.71875 245.210938 C 106.007812 253.328125 115.429688 268.1875 122.859375 277.605469 C 129.214844 285.800781 137.335938 293.691406 142.847656 298.976562 C 146.371094 302.34375 148.898438 304.183594 152.039062 306.789062 C 155.257812 309.390625 157.859375 311.6875 161.917969 314.371094 C 167.511719 318.121094 180.222656 323.714844 182.980469 326.546875 C 183.824219 327.46875 184.128906 328.078125 184.207031 328.921875 C 184.285156 329.765625 184.054688 330.835938 183.59375 331.527344 C 183.058594 332.292969 182.140625 332.90625 181.371094 333.132812 C 180.53125 333.289062 178.617188 332.75 178.617188 332.75 "/></clipPath><clipPath id="a84cdfa58d"><path d="M 69.40625 85.566406 L 99.929688 85.566406 L 99.929688 245.742188 L 69.40625 245.742188 Z M 69.40625 85.566406 "/></clipPath><clipPath id="5524b162c5"><path d="M 92.375 243.296875 C 83.570312 223.382812 81.425781 216.257812 79.816406 209.671875 C 78.207031 203.007812 77.289062 197.035156 76.0625 189.53125 C 74.609375 179.878906 72.691406 166.246094 71.773438 156.367188 C 71.085938 148.402344 70.855469 143.039062 70.703125 134.691406 C 70.394531 123.433594 68.019531 99.230469 70.703125 94.941406 C 71.46875 93.714844 73.613281 93.871094 73.613281 93.488281 C 73.613281 93.105469 71.925781 93.105469 71.390625 92.492188 C 70.703125 91.800781 70.089844 90.117188 70.089844 89.199219 C 70.164062 88.355469 70.625 87.511719 71.160156 86.976562 C 71.695312 86.441406 72.617188 85.980469 73.382812 85.828125 C 74.148438 85.75 75.066406 85.90625 75.757812 86.289062 C 76.445312 86.671875 77.136719 87.359375 77.441406 88.125 C 77.746094 89.042969 77.671875 90.804688 77.136719 91.726562 C 76.597656 92.566406 75.066406 93.410156 73.996094 93.488281 C 73 93.488281 71.46875 92.644531 70.777344 91.878906 C 70.242188 91.265625 70.011719 90.421875 70.089844 89.582031 C 70.164062 88.585938 71.007812 87.054688 71.851562 86.441406 C 72.464844 85.90625 73.457031 85.445312 74.148438 85.828125 C 75.679688 86.59375 77.363281 90.5 78.359375 94.941406 C 80.582031 105.203125 77.746094 131.628906 78.820312 148.246094 C 79.816406 162.875 82.265625 178.730469 83.875 189.375 C 84.871094 196.191406 85.636719 200.941406 86.785156 206.074219 C 87.78125 210.4375 88.546875 213.578125 90.15625 218.25 C 92.375 224.835938 99.5 237.550781 99.804688 241.457031 C 99.882812 242.757812 99.574219 243.449219 99.117188 244.136719 C 98.65625 244.828125 97.660156 245.441406 96.894531 245.667969 C 96.050781 245.824219 94.902344 245.667969 94.136719 245.285156 C 93.449219 244.902344 92.375 243.296875 92.375 243.296875 "/></clipPath><clipPath id="d2b26cf38f"><path d="M 69.8125 83.023438 L 77.996094 83.023438 L 77.996094 103.433594 L 69.8125 103.433594 Z M 69.8125 83.023438 "/></clipPath><clipPath id="0a43ee844b"><path d="M 69.859375 99.613281 C 70.089844 85.828125 70.242188 85.214844 70.703125 84.601562 C 71.160156 83.988281 71.925781 83.453125 72.691406 83.222656 C 73.457031 82.992188 74.453125 83.070312 75.144531 83.378906 C 75.832031 83.683594 76.597656 84.296875 76.980469 84.984375 C 77.363281 85.597656 77.59375 86.59375 77.519531 87.359375 C 77.441406 88.125 77.058594 88.96875 76.523438 89.582031 C 75.984375 90.117188 75.144531 90.652344 74.378906 90.730469 C 73.382812 90.804688 71.695312 90.347656 70.929688 89.582031 C 70.242188 88.816406 69.859375 87.054688 70.011719 86.132812 C 70.089844 85.292969 70.625 84.527344 71.238281 83.988281 C 71.851562 83.53125 72.769531 83.148438 73.535156 83.070312 C 74.300781 83.070312 75.21875 83.300781 75.832031 83.761719 C 76.523438 84.21875 76.980469 84.679688 77.363281 85.675781 C 78.207031 88.125 78.054688 96.855469 77.519531 99.613281 C 77.363281 100.761719 77.136719 101.453125 76.597656 102.140625 C 76.0625 102.753906 74.992188 103.289062 74.148438 103.367188 C 73.304688 103.519531 72.234375 103.289062 71.542969 102.753906 C 70.777344 102.140625 69.859375 99.613281 69.859375 99.613281 "/></clipPath><clipPath id="3df8645ade"><path d="M 70.433594 40.523438 L 189.453125 40.523438 L 189.453125 89.773438 L 70.433594 89.773438 Z M 70.433594 40.523438 "/></clipPath><clipPath id="776ad8842b"><path d="M 73.996094 82.074219 C 107.234375 71.429688 115.8125 67.675781 122.78125 64.460938 C 128.375 61.855469 131.511719 59.632812 137.792969 56.953125 C 147.828125 52.664062 171.1875 44.699219 177.695312 42.707031 C 179.839844 42.019531 181.21875 41.328125 181.910156 41.558594 C 182.214844 41.636719 182.140625 42.09375 182.445312 42.171875 C 183.058594 42.324219 184.667969 40.640625 185.660156 40.5625 C 186.503906 40.5625 187.347656 40.871094 187.960938 41.40625 C 188.726562 42.09375 189.414062 43.703125 189.414062 44.699219 C 189.414062 45.542969 188.957031 46.382812 188.417969 46.921875 C 187.960938 47.53125 187.117188 48.070312 186.351562 48.144531 C 185.355469 48.300781 183.671875 47.761719 182.90625 47.148438 C 182.292969 46.613281 181.910156 45.695312 181.832031 44.929688 C 181.679688 44.164062 181.753906 43.246094 182.214844 42.554688 C 182.828125 41.710938 184.285156 40.792969 185.277344 40.5625 C 186.042969 40.488281 186.964844 40.714844 187.652344 41.175781 C 188.265625 41.558594 188.957031 42.25 189.183594 43.089844 C 189.414062 44.011719 189.722656 45.390625 188.726562 46.613281 C 184.972656 51.285156 154.03125 58.410156 142.234375 63.386719 C 134.730469 66.605469 130.671875 69.207031 124.238281 72.117188 C 116.882812 75.410156 108.078125 79.164062 100.496094 82 C 93.753906 84.527344 85.789062 87.359375 81.039062 88.585938 C 78.285156 89.273438 76.140625 89.808594 74.453125 89.734375 C 73.457031 89.65625 72.539062 89.425781 71.925781 88.890625 C 71.238281 88.355469 70.625 87.4375 70.472656 86.59375 C 70.320312 85.597656 70.855469 83.914062 71.542969 83.148438 C 72.078125 82.535156 73.996094 82.074219 73.996094 82.074219 "/></clipPath><clipPath id="4c17779edf"><path d="M 181 40.523438 L 301.65625 40.523438 L 301.65625 88.546875 L 181 88.546875 Z M 181 40.523438 "/></clipPath><clipPath id="210228f931"><path d="M 185.507812 40.640625 C 220.128906 51.59375 222.882812 53.660156 229.011719 56.1875 C 238.507812 60.09375 255.28125 66.144531 266.386719 69.742188 C 275.117188 72.578125 285.6875 74.953125 290.128906 76.5625 C 291.890625 77.171875 292.425781 77.328125 293.804688 78.167969 C 295.875 79.472656 300.699219 82.457031 301.3125 84.144531 C 301.695312 85.0625 301.234375 85.90625 300.851562 86.59375 C 300.46875 87.207031 299.78125 87.894531 299.015625 88.203125 C 298.019531 88.433594 296.332031 88.433594 295.414062 87.820312 C 294.570312 87.207031 293.804688 85.675781 293.730469 84.679688 C 293.652344 83.835938 293.960938 82.917969 294.496094 82.304688 C 295.109375 81.617188 296.640625 80.773438 297.710938 80.773438 C 298.785156 80.847656 300.238281 81.84375 300.777344 82.609375 C 301.3125 83.300781 301.464844 84.21875 301.386719 84.984375 C 301.3125 85.75 300.929688 86.671875 300.316406 87.207031 C 299.625 87.894531 297.941406 88.507812 296.945312 88.433594 C 296.101562 88.355469 295.335938 87.820312 294.800781 87.28125 C 294.265625 86.746094 294.265625 85.292969 293.730469 85.0625 C 293.269531 84.910156 292.734375 85.828125 291.96875 85.828125 C 290.359375 85.828125 287.753906 83.914062 284.691406 82.839844 C 279.714844 81.078125 272.132812 79.546875 264.472656 77.171875 C 254.285156 73.878906 238.355469 68.210938 229.011719 64.382812 C 222.730469 61.777344 219.515625 59.558594 213.386719 57.261719 C 205.117188 54.042969 187.421875 50.289062 183.441406 47.917969 C 182.292969 47.226562 181.832031 46.84375 181.449219 46.078125 C 181.144531 45.3125 180.988281 44.164062 181.296875 43.320312 C 181.527344 42.554688 182.140625 41.636719 182.90625 41.175781 C 183.59375 40.71875 185.585938 40.640625 185.585938 40.640625 "/></clipPath><clipPath id="e9ffdc379a"><path d="M 289.3125 78.066406 L 301.695312 78.066406 L 301.695312 88.941406 L 289.3125 88.941406 Z M 289.3125 78.066406 "/></clipPath><clipPath id="45816316e2"><path d="M 295.109375 78.320312 C 301.003906 82.917969 301.464844 83.453125 301.617188 84.296875 C 301.695312 85.292969 301.234375 86.976562 300.621094 87.742188 C 300.085938 88.355469 299.167969 88.738281 298.402344 88.816406 C 297.636719 88.96875 296.714844 88.890625 296.027344 88.433594 C 295.183594 87.894531 294.1875 86.441406 294.035156 85.445312 C 293.882812 84.601562 294.113281 83.683594 294.570312 83.070312 C 295.183594 82.226562 296.714844 81.386719 297.710938 81.230469 C 298.476562 81.15625 299.398438 81.460938 300.007812 81.921875 C 300.699219 82.382812 301.234375 83.148438 301.464844 83.835938 C 301.695312 84.601562 301.695312 85.597656 301.464844 86.289062 C 301.234375 87.054688 300.621094 87.820312 299.933594 88.277344 C 299.320312 88.660156 298.554688 89.042969 297.636719 88.890625 C 295.875 88.585938 291.890625 85.90625 290.589844 84.449219 C 289.824219 83.683594 289.515625 82.839844 289.363281 82 C 289.285156 81.386719 289.363281 80.773438 289.671875 80.238281 C 289.976562 79.546875 290.664062 78.550781 291.507812 78.246094 C 292.425781 77.863281 295.109375 78.320312 295.109375 78.320312 "/></clipPath><clipPath id="f7fb470492"><path d="M 293 81.003906 L 304.796875 81.003906 L 304.796875 194 L 293 194 Z M 293 81.003906 "/></clipPath><clipPath id="66af225136"><path d="M 300.851562 84.832031 C 303.074219 119.296875 304.296875 161.804688 304.453125 176.816406 C 304.527344 183.402344 305.21875 188.457031 304.375 191.0625 C 303.992188 192.210938 303.457031 192.824219 302.84375 193.28125 C 302.308594 193.742188 301.769531 193.972656 301.082031 193.972656 C 300.164062 193.972656 298.476562 193.511719 297.789062 192.667969 C 297.097656 191.828125 296.714844 189.988281 297.023438 188.917969 C 297.328125 187.921875 298.632812 186.773438 299.625 186.464844 C 300.621094 186.160156 302.308594 186.542969 303.148438 187.230469 C 303.914062 187.921875 304.527344 189.53125 304.453125 190.601562 C 304.296875 191.597656 303.378906 193.050781 302.460938 193.511719 C 301.464844 194.046875 299.78125 194.046875 298.859375 193.511719 C 297.941406 193.050781 296.945312 191.597656 296.871094 190.601562 C 296.714844 189.53125 297.480469 187.921875 298.171875 187.230469 C 298.707031 186.695312 299.625 186.390625 300.46875 186.3125 C 301.234375 186.3125 302.152344 186.464844 302.765625 187.003906 C 303.53125 187.613281 304.453125 189.070312 304.453125 190.140625 C 304.453125 191.214844 303.609375 192.667969 302.84375 193.28125 C 302.152344 193.820312 301.003906 194.046875 300.164062 193.972656 C 299.320312 193.894531 298.324219 193.359375 297.789062 192.667969 C 297.253906 192.058594 297.097656 191.597656 296.792969 190.140625 C 295.492188 183.480469 296.257812 150.46875 295.566406 132.164062 C 295.03125 115.542969 292.273438 90.730469 293.191406 84.832031 C 293.421875 83.453125 293.652344 82.917969 294.1875 82.304688 C 294.726562 81.691406 295.71875 81.15625 296.5625 81.078125 C 297.40625 80.925781 298.554688 81.15625 299.242188 81.691406 C 300.007812 82.304688 300.851562 84.832031 300.851562 84.832031 "/></clipPath><clipPath id="c014dfcd2e"><path d="M 178.472656 255.253906 L 277.703125 255.253906 L 277.703125 334.835938 L 178.472656 334.835938 Z M 178.472656 255.253906 "/></clipPath><clipPath id="3ceb85cb07"><path d="M 182.214844 326.855469 C 192.171875 323.636719 199.292969 320.039062 206.035156 315.976562 C 214.996094 310.539062 228.09375 301.042969 236.363281 294.535156 C 242.492188 289.707031 247.238281 285.726562 251.835938 281.207031 C 256.046875 276.996094 259.800781 272.550781 263.015625 268.339844 C 265.925781 264.511719 268.453125 258.996094 270.675781 257.003906 C 271.824219 256.007812 272.742188 255.320312 273.816406 255.320312 C 274.886719 255.320312 276.34375 256.238281 276.957031 257.003906 C 277.492188 257.695312 277.722656 258.613281 277.644531 259.378906 C 277.570312 260.144531 277.339844 261.0625 276.726562 261.675781 C 276.039062 262.367188 274.429688 263.132812 273.433594 262.980469 C 272.359375 262.902344 270.90625 261.90625 270.445312 260.988281 C 269.910156 260.066406 270.0625 258.308594 270.445312 257.386719 C 270.753906 256.621094 271.519531 256.007812 272.207031 255.703125 C 272.898438 255.394531 273.894531 255.242188 274.660156 255.472656 C 275.425781 255.625 276.265625 256.085938 276.726562 256.699219 C 277.261719 257.3125 277.722656 258 277.644531 258.996094 C 277.492188 261.0625 274.886719 264.738281 272.667969 268.109375 C 269.449219 272.859375 264.394531 279.140625 259.492188 284.269531 C 254.59375 289.476562 249.765625 293.613281 243.257812 298.898438 C 234.296875 306.097656 220.203125 316.363281 210.015625 322.566406 C 202.128906 327.3125 193.320312 332.140625 188.035156 333.746094 C 185.355469 334.511719 183.132812 334.820312 181.601562 334.4375 C 180.605469 334.207031 179.839844 333.671875 179.304688 332.980469 C 178.769531 332.292969 178.539062 331.144531 178.539062 330.378906 C 178.539062 329.765625 178.691406 329.152344 179.152344 328.617188 C 179.765625 327.925781 182.214844 326.855469 182.214844 326.855469 "/></clipPath><clipPath id="846d2d2255"><path d="M 266.875 175.390625 L 305.4375 175.390625 L 305.4375 267.386719 L 266.875 267.386719 Z M 266.875 175.390625 "/></clipPath><clipPath id="9dd5272dea"><path d="M 267.765625 261.140625 C 273.507812 253.480469 276.191406 248.273438 278.71875 242.914062 C 282.164062 235.710938 286.988281 223.917969 289.59375 217.023438 C 291.277344 212.507812 292.273438 209.824219 293.421875 205.613281 C 294.800781 200.710938 296.257812 194.355469 297.023438 189.375 C 297.710938 185.085938 297.023438 179.496094 298.019531 177.429688 C 298.554688 176.507812 299.089844 176.050781 299.855469 175.820312 C 300.777344 175.515625 302.535156 175.589844 303.457031 176.050781 C 304.144531 176.433594 304.679688 177.273438 304.988281 177.964844 C 305.21875 178.730469 305.371094 179.648438 305.0625 180.414062 C 304.679688 181.335938 303.53125 182.636719 302.535156 182.941406 C 301.542969 183.25 299.855469 182.941406 299.015625 182.332031 C 298.171875 181.640625 297.558594 180.03125 297.558594 179.035156 C 297.558594 178.195312 297.941406 177.351562 298.554688 176.738281 C 299.242188 176.050781 300.851562 175.359375 301.925781 175.515625 C 302.921875 175.667969 304.222656 176.355469 304.835938 177.582031 C 306.058594 180.1875 304.757812 187.691406 304.070312 192.824219 C 303.304688 198.109375 302.078125 203.085938 300.390625 208.984375 C 298.324219 216.105469 295.492188 224.53125 292.121094 232.417969 C 288.519531 240.996094 282.777344 252.332031 279.175781 258.230469 C 277.1875 261.601562 275.578125 264.355469 273.816406 265.8125 C 272.742188 266.730469 271.59375 267.269531 270.597656 267.269531 C 269.679688 267.34375 268.683594 266.808594 268.070312 266.195312 C 267.535156 265.582031 267 264.585938 267 263.746094 C 266.921875 262.902344 267.765625 261.140625 267.765625 261.140625 "/></clipPath><clipPath id="6156a912b9"><path d="M 93.617188 97.789062 L 114.113281 97.789062 L 114.113281 229.773438 L 93.617188 229.773438 Z M 93.617188 97.789062 "/></clipPath><clipPath id="a9135519f4"><path d="M 103.480469 101.683594 C 101.03125 147.941406 101.949219 172.757812 102.945312 185.011719 C 103.480469 191.75 103.710938 194.890625 105.089844 200.636719 C 106.929688 208.21875 114.128906 222.234375 114.050781 226.140625 C 113.972656 227.289062 113.589844 227.824219 113.132812 228.359375 C 112.597656 228.972656 111.828125 229.507812 110.988281 229.585938 C 109.992188 229.738281 108.308594 229.203125 107.539062 228.589844 C 106.929688 228.054688 106.46875 227.210938 106.46875 226.367188 C 106.390625 225.375 106.929688 223.765625 107.617188 223 C 108.230469 222.386719 109.074219 222.003906 109.914062 222.003906 C 110.910156 222.003906 112.519531 222.691406 113.207031 223.382812 C 113.746094 223.996094 114.050781 224.914062 114.050781 225.679688 C 114.050781 226.445312 113.820312 227.441406 113.363281 228.054688 C 112.902344 228.667969 112.136719 229.28125 111.371094 229.507812 C 110.679688 229.738281 109.683594 229.738281 108.917969 229.433594 C 108.230469 229.203125 107.695312 228.894531 107.003906 227.902344 C 104.707031 224.761719 99.804688 210.972656 97.890625 203.546875 C 96.359375 197.648438 96.128906 194.277344 95.515625 187.308594 C 94.367188 174.441406 93.449219 148.476562 93.679688 132.929688 C 93.90625 121.058594 94.828125 106.277344 95.824219 101.683594 C 96.128906 100.304688 96.207031 99.765625 96.742188 99.15625 C 97.355469 98.464844 98.351562 98.003906 99.191406 97.851562 C 100.035156 97.777344 101.105469 98.003906 101.796875 98.542969 C 102.640625 99.15625 103.480469 101.683594 103.480469 101.683594 "/></clipPath><clipPath id="7df6643a8e"><path d="M 105.667969 219 L 191.902344 219 L 191.902344 311.324219 L 105.667969 311.324219 Z M 105.667969 219 "/></clipPath><clipPath id="34d03968b0"><path d="M 113.515625 222.691406 C 117.421875 232.957031 123.164062 243.296875 127.070312 249.5 C 130.210938 254.402344 132.96875 258.382812 136.414062 262.441406 C 139.863281 266.425781 143.765625 270.253906 147.902344 273.699219 C 151.960938 277.070312 156.40625 279.445312 160.921875 282.816406 C 166.054688 286.644531 171.722656 292.007812 176.855469 295.683594 C 181.296875 298.976562 187.578125 301.886719 189.796875 304.183594 C 190.945312 305.332031 191.558594 306.25 191.710938 307.246094 C 191.867188 308.089844 191.558594 308.933594 191.101562 309.621094 C 190.640625 310.234375 189.949219 310.921875 189.183594 311.078125 C 188.1875 311.382812 186.503906 311.230469 185.660156 310.539062 C 184.742188 309.929688 184.128906 308.320312 184.054688 307.324219 C 184.054688 306.558594 184.4375 305.640625 184.972656 305.027344 C 185.433594 304.488281 186.273438 303.953125 187.039062 303.800781 C 187.804688 303.570312 188.726562 303.722656 189.492188 304.03125 C 190.179688 304.335938 190.871094 304.949219 191.253906 305.640625 C 191.636719 306.328125 191.789062 307.324219 191.710938 308.089844 C 191.558594 308.855469 191.175781 309.699219 190.5625 310.234375 C 189.796875 310.847656 188.34375 311.382812 187.117188 311.230469 C 185.585938 311.078125 184.4375 310.082031 182.0625 308.550781 C 174.9375 304.03125 151.273438 286.644531 142.082031 278.679688 C 136.722656 274.085938 133.734375 271.019531 130.132812 266.808594 C 126.613281 262.671875 124.007812 258.917969 120.714844 253.710938 C 116.347656 246.742188 108.996094 233.796875 107.003906 228.359375 C 106.164062 225.984375 105.703125 224.53125 105.855469 222.921875 C 106.007812 221.695312 106.546875 220.394531 107.386719 219.78125 C 108.230469 219.09375 110.066406 219.015625 110.910156 219.167969 C 111.601562 219.324219 112.058594 219.707031 112.519531 220.164062 C 112.980469 220.777344 113.515625 222.691406 113.515625 222.691406 "/></clipPath><clipPath id="f5ed4bde58"><path d="M 184 210.699219 L 272.175781 210.699219 L 272.175781 311.445312 L 184 311.445312 Z M 184 210.699219 "/></clipPath><clipPath id="40085898bb"><path d="M 187.730469 303.648438 C 197.148438 300.890625 200.214844 298.515625 203.890625 295.757812 C 209.328125 291.699219 217.371094 285.265625 223.113281 279.828125 C 228.398438 274.925781 232.535156 270.636719 237.359375 264.664062 C 243.257812 257.3125 251.757812 244.519531 255.359375 238.394531 C 257.195312 235.328125 257.730469 234.179688 258.957031 231.195312 C 260.949219 226.367188 263.246094 214.574219 265.316406 212.046875 C 266.082031 211.203125 266.617188 210.972656 267.460938 210.898438 C 268.453125 210.746094 270.140625 211.28125 270.90625 211.894531 C 271.519531 212.429688 271.902344 213.347656 271.976562 214.113281 C 272.132812 214.878906 271.976562 215.800781 271.519531 216.488281 C 270.980469 217.332031 269.605469 218.328125 268.53125 218.480469 C 267.460938 218.558594 265.925781 217.792969 265.238281 217.023438 C 264.625 216.414062 264.394531 215.492188 264.394531 214.726562 C 264.320312 213.960938 264.546875 213.042969 265.085938 212.429688 C 265.699219 211.664062 267.230469 210.746094 268.300781 210.820312 C 269.375 210.820312 270.828125 211.742188 271.441406 212.582031 C 271.902344 213.195312 272.054688 213.730469 271.976562 214.957031 C 271.902344 218.480469 268.226562 229.433594 265.316406 236.019531 C 262.480469 242.375 258.574219 248.121094 254.746094 253.863281 C 250.914062 259.609375 247.164062 264.894531 242.492188 270.332031 C 237.359375 276.382812 230.925781 283.046875 225.027344 288.40625 C 219.667969 293.308594 213.769531 298.054688 208.867188 301.65625 C 205.191406 304.414062 201.976562 306.863281 198.605469 308.472656 C 195.847656 309.851562 192.632812 310.921875 190.332031 311.230469 C 188.800781 311.382812 187.347656 311.460938 186.273438 311 C 185.433594 310.617188 184.742188 309.773438 184.4375 309.007812 C 184.128906 308.472656 183.976562 307.859375 184.054688 307.246094 C 184.207031 306.480469 184.589844 305.332031 185.203125 304.796875 C 185.816406 304.183594 187.730469 303.648438 187.730469 303.648438 "/></clipPath><clipPath id="f21bfeb7f8"><path d="M 263.734375 95.039062 L 279.398438 95.039062 L 279.398438 222 L 263.734375 222 Z M 263.734375 95.039062 "/></clipPath><clipPath id="a3c0a85c73"><path d="M 263.78125 217.636719 C 269.832031 189.683594 270.445312 185.929688 270.90625 178.882812 C 271.671875 166.859375 271.519531 144.496094 271.136719 129.867188 C 270.828125 118.148438 267.6875 102.675781 269.375 98.003906 C 269.910156 96.472656 270.828125 95.785156 271.75 95.324219 C 272.515625 95.019531 273.507812 95.09375 274.199219 95.324219 C 274.964844 95.554688 275.730469 96.089844 276.191406 96.78125 C 276.648438 97.394531 276.957031 98.3125 276.878906 99.078125 C 276.804688 100.074219 275.882812 101.605469 275.117188 102.21875 C 274.429688 102.675781 273.507812 102.90625 272.742188 102.753906 C 271.75 102.601562 270.292969 101.605469 269.679688 100.839844 C 269.21875 100.148438 269.144531 99.152344 269.296875 98.386719 C 269.375 97.621094 269.832031 96.78125 270.371094 96.242188 C 270.90625 95.707031 271.824219 95.25 272.589844 95.171875 C 273.355469 95.09375 274.277344 95.25 274.964844 95.632812 C 275.652344 96.015625 276.113281 96.398438 276.574219 97.46875 C 278.257812 101.375 278.410156 116.691406 278.792969 127.492188 C 279.332031 139.976562 279.558594 155.753906 279.023438 168.160156 C 278.566406 178.730469 277.722656 188.304688 276.265625 197.265625 C 274.964844 205.230469 272.898438 216.183594 271.136719 219.550781 C 270.523438 220.703125 270.0625 221.160156 269.296875 221.542969 C 268.53125 221.925781 267.382812 222.078125 266.539062 221.851562 C 265.773438 221.621094 264.855469 221.007812 264.394531 220.320312 C 263.859375 219.550781 263.78125 217.636719 263.78125 217.636719 "/></clipPath><clipPath id="cf28f3415f"><path d="M 96.378906 63.636719 L 189.207031 63.636719 L 189.207031 104.832031 L 96.378906 104.832031 Z M 96.378906 63.636719 "/></clipPath><clipPath id="51cd9ea934"><path d="M 100.339844 96.855469 C 109.148438 94.40625 112.75 91.648438 116.578125 89.65625 C 121.019531 87.4375 125.617188 85.292969 131.285156 83.070312 C 138.941406 80.007812 150.890625 76.558594 158.625 73.574219 C 164.445312 71.351562 169.042969 68.902344 173.714844 67.140625 C 177.695312 65.761719 182.292969 63.695312 184.894531 63.769531 C 186.351562 63.847656 187.5 64.460938 188.1875 65.148438 C 188.800781 65.761719 189.03125 66.679688 189.109375 67.445312 C 189.109375 68.210938 188.800781 69.207031 188.417969 69.820312 C 187.960938 70.433594 187.195312 71.046875 186.429688 71.277344 C 185.660156 71.503906 184.742188 71.582031 183.976562 71.199219 C 183.058594 70.816406 181.910156 69.515625 181.527344 68.59375 C 181.296875 67.828125 181.449219 66.832031 181.753906 66.144531 C 181.984375 65.453125 182.597656 64.613281 183.363281 64.304688 C 184.207031 63.847656 185.96875 63.695312 186.886719 64.152344 C 187.882812 64.613281 188.800781 66.066406 189.03125 67.0625 C 189.261719 67.828125 188.957031 68.75 188.570312 69.4375 C 188.265625 70.128906 187.960938 70.433594 186.8125 71.121094 C 181.296875 74.492188 146.523438 84.679688 131.894531 91.035156 C 121.632812 95.476562 112.058594 102.292969 106.390625 103.902344 C 103.789062 104.667969 101.949219 104.820312 100.339844 104.515625 C 99.039062 104.285156 97.8125 103.671875 97.125 102.832031 C 96.589844 102.140625 96.433594 100.992188 96.511719 100.226562 C 96.511719 99.613281 96.742188 99 97.125 98.542969 C 97.738281 97.851562 100.339844 96.855469 100.339844 96.855469 "/></clipPath><clipPath id="4657136b87"><path d="M 181.433594 63.679688 L 276.28125 63.679688 L 276.28125 104 L 181.433594 104 Z M 181.433594 63.679688 "/></clipPath><clipPath id="dd1f5658b3"><path d="M 185.96875 63.847656 C 226.101562 77.785156 230.773438 80.695312 237.4375 83.148438 C 244.867188 85.828125 254.746094 87.207031 261.636719 90.347656 C 267.230469 92.949219 274.964844 97.394531 275.960938 99.765625 C 276.34375 100.6875 275.882812 101.453125 275.5 102.140625 C 275.117188 102.832031 274.429688 103.519531 273.585938 103.75 C 272.667969 104.054688 270.90625 103.980469 270.0625 103.367188 C 269.144531 102.832031 268.378906 101.300781 268.378906 100.226562 C 268.300781 99.15625 269.144531 97.621094 269.988281 97.011719 C 270.90625 96.472656 272.589844 96.320312 273.585938 96.625 C 274.351562 96.855469 275.042969 97.546875 275.425781 98.160156 C 275.882812 98.847656 276.039062 99.84375 275.960938 100.609375 C 275.882812 101.375 275.578125 102.21875 274.964844 102.832031 C 274.277344 103.441406 272.589844 104.054688 271.59375 103.980469 C 270.753906 103.902344 269.988281 103.367188 269.449219 102.832031 C 268.914062 102.292969 268.835938 100.761719 268.378906 100.609375 C 267.996094 100.53125 267.765625 101.605469 267.078125 101.683594 C 265.699219 101.835938 263.171875 99.230469 260.03125 98.003906 C 254.515625 95.707031 243.5625 93.488281 236.132812 90.804688 C 229.472656 88.355469 224.722656 85.367188 217.523438 82.609375 C 208.027344 78.859375 187.960938 73.726562 183.671875 71.121094 C 182.523438 70.355469 182.140625 69.972656 181.753906 69.132812 C 181.449219 68.367188 181.371094 67.292969 181.601562 66.449219 C 181.832031 65.683594 182.523438 64.765625 183.289062 64.304688 C 183.976562 63.921875 185.96875 63.847656 185.96875 63.847656 "/></clipPath><clipPath id="f1596bbe78"><path d="M 174.449219 174.414062 L 184.085938 174.414062 L 184.085938 259.09375 L 174.449219 259.09375 Z M 174.449219 174.414062 "/></clipPath><clipPath id="ca5a9bd528"><path d="M 175.859375 255.320312 C 175.628906 195.121094 173.714844 182.867188 174.785156 178.269531 C 175.167969 176.664062 175.707031 175.742188 176.472656 175.128906 C 177.082031 174.59375 178.003906 174.363281 178.84375 174.519531 C 179.839844 174.59375 181.296875 175.515625 181.910156 176.355469 C 182.367188 176.96875 182.523438 177.964844 182.445312 178.730469 C 182.367188 179.496094 181.910156 180.414062 181.371094 180.953125 C 180.835938 181.488281 180.070312 182.023438 179.226562 182.101562 C 178.234375 182.175781 176.546875 181.71875 175.859375 180.953125 C 175.09375 180.1875 174.710938 178.5 174.863281 177.503906 C 175.015625 176.664062 175.550781 175.898438 176.164062 175.359375 C 176.699219 174.902344 177.621094 174.519531 178.386719 174.519531 C 179.152344 174.441406 180.148438 174.59375 180.761719 175.128906 C 181.527344 175.742188 181.984375 176.664062 182.445312 178.269531 C 183.671875 182.867188 183.289062 195.121094 183.515625 205.613281 C 183.746094 219.707031 184.589844 249.191406 183.515625 255.320312 C 183.210938 256.699219 183.058594 257.15625 182.523438 257.847656 C 181.984375 258.460938 180.988281 258.996094 180.148438 259.074219 C 179.304688 259.148438 178.15625 258.996094 177.46875 258.460938 C 176.699219 257.847656 175.859375 255.320312 175.859375 255.320312 "/></clipPath><clipPath id="1cec29eb35"><path d="M 136.527344 174.328125 L 182.570312 174.328125 L 182.570312 182.777344 L 136.527344 182.777344 Z M 136.527344 174.328125 "/></clipPath><clipPath id="45a572f504"><path d="M 178.691406 182.558594 C 138.175781 182.253906 137.71875 181.792969 137.257812 181.105469 C 136.796875 180.414062 136.492188 179.265625 136.644531 178.425781 C 136.722656 177.582031 137.257812 176.585938 137.871094 176.050781 C 138.484375 175.515625 139.554688 175.054688 140.398438 175.054688 C 141.394531 175.132812 142.773438 175.667969 143.382812 176.433594 C 143.996094 177.277344 144.378906 178.960938 144.074219 179.957031 C 143.84375 180.953125 142.542969 182.175781 141.625 182.558594 C 140.855469 182.867188 139.9375 182.789062 139.171875 182.558594 C 138.40625 182.253906 137.640625 181.640625 137.257812 181.027344 C 136.796875 180.414062 136.492188 179.496094 136.566406 178.652344 C 136.722656 177.660156 137.5625 176.125 138.484375 175.589844 C 139.402344 175.054688 141.085938 174.976562 142.082031 175.4375 C 143 175.898438 144.074219 177.277344 144.226562 178.269531 C 144.378906 179.34375 143.691406 180.953125 143 181.71875 C 142.464844 182.332031 141.546875 182.636719 140.78125 182.714844 C 140.089844 182.789062 139.25 182.714844 138.636719 182.332031 C 137.792969 181.792969 136.796875 180.339844 136.644531 179.34375 C 136.492188 178.5 136.875 177.429688 137.257812 176.738281 C 137.5625 176.203125 137.945312 175.820312 138.636719 175.515625 C 139.9375 174.902344 142.617188 174.746094 145.070312 174.59375 C 148.363281 174.289062 152.191406 174.519531 156.710938 174.59375 C 163.066406 174.59375 176.089844 173.828125 179.609375 174.976562 C 180.835938 175.359375 181.371094 175.820312 181.832031 176.507812 C 182.367188 177.199219 182.597656 178.347656 182.523438 179.191406 C 182.367188 180.03125 181.910156 181.027344 181.21875 181.5625 C 180.605469 182.175781 178.691406 182.558594 178.691406 182.558594 "/></clipPath><clipPath id="27aa1c5772"><path d="M 136.777344 157.457031 L 145.511719 157.457031 L 145.511719 182.847656 L 136.777344 182.847656 Z M 136.777344 157.457031 "/></clipPath><clipPath id="f588167b53"><path d="M 136.796875 179.035156 C 137.179688 163.566406 137.410156 160.808594 138.175781 159.351562 C 138.710938 158.511719 139.402344 158.050781 140.089844 157.820312 C 140.78125 157.515625 141.777344 157.4375 142.542969 157.667969 C 143.230469 157.898438 144.074219 158.433594 144.535156 159.046875 C 144.992188 159.660156 145.375 160.578125 145.300781 161.34375 C 145.222656 162.339844 144.378906 163.949219 143.613281 164.5625 C 143 165.019531 142.082031 165.328125 141.238281 165.175781 C 140.246094 165.019531 138.710938 164.253906 138.175781 163.335938 C 137.640625 162.417969 137.5625 160.730469 138.023438 159.738281 C 138.484375 158.816406 139.9375 157.820312 140.855469 157.59375 C 141.699219 157.363281 142.617188 157.59375 143.308594 157.976562 C 143.996094 158.359375 144.609375 158.742188 144.992188 159.738281 C 146.066406 162.722656 145.144531 175.589844 144.457031 179.035156 C 144.226562 180.261719 144.074219 180.875 143.460938 181.5625 C 142.925781 182.175781 141.929688 182.714844 141.085938 182.789062 C 140.246094 182.941406 139.171875 182.714844 138.484375 182.175781 C 137.640625 181.5625 136.796875 179.035156 136.796875 179.035156 "/></clipPath><clipPath id="e88cbcaa55"><path d="M 137.613281 155.125 L 182.140625 155.125 L 182.140625 165.21875 L 137.613281 165.21875 Z M 137.613281 155.125 "/></clipPath><clipPath id="59e911998d"><path d="M 139.785156 157.898438 C 156.175781 155.0625 174.25 154.757812 178.539062 155.523438 C 179.6875 155.675781 180.222656 155.90625 180.761719 156.367188 C 181.371094 156.824219 181.910156 157.667969 182.0625 158.433594 C 182.214844 159.199219 182.140625 160.195312 181.832031 160.886719 C 181.527344 161.574219 180.835938 162.339844 180.148438 162.648438 C 179.535156 163.03125 178.539062 163.257812 177.773438 163.105469 C 176.777344 162.875 175.324219 161.957031 174.863281 160.960938 C 174.402344 160.042969 174.480469 158.28125 175.015625 157.363281 C 175.550781 156.441406 177.082031 155.675781 178.078125 155.523438 C 178.921875 155.371094 179.839844 155.675781 180.453125 156.136719 C 181.066406 156.519531 181.753906 157.285156 181.984375 158.050781 C 182.214844 158.96875 181.984375 160.730469 181.449219 161.574219 C 180.988281 162.265625 180.53125 162.648438 179.382812 162.953125 C 175.628906 164.253906 159.085938 162.722656 152.039062 163.335938 C 147.671875 163.796875 143.691406 165.480469 141.394531 165.175781 C 140.246094 165.097656 139.480469 164.714844 138.867188 164.179688 C 138.253906 163.566406 137.792969 162.492188 137.640625 161.726562 C 137.5625 161.039062 137.640625 160.503906 137.945312 159.890625 C 138.253906 159.199219 139.785156 157.898438 139.785156 157.898438 "/></clipPath><clipPath id="4861d3da5a"><path d="M 172.828125 126.683594 L 182.378906 126.683594 L 182.378906 163.125 L 172.828125 163.125 Z M 172.828125 126.683594 "/></clipPath><clipPath id="40072c8021"><path d="M 174.480469 159.277344 C 173.253906 128.949219 173.714844 128.105469 174.480469 127.414062 C 175.09375 126.878906 176.089844 126.726562 176.855469 126.726562 C 177.621094 126.726562 178.539062 127.109375 179.152344 127.570312 C 179.6875 128.027344 180.300781 128.792969 180.453125 129.636719 C 180.605469 130.632812 180.148438 132.316406 179.535156 133.082031 C 179.074219 133.773438 178.15625 134.15625 177.46875 134.308594 C 176.699219 134.460938 175.707031 134.386719 175.015625 134.003906 C 174.171875 133.464844 173.101562 132.011719 172.949219 131.09375 C 172.71875 130.25 172.949219 129.332031 173.40625 128.640625 C 173.945312 127.875 175.398438 126.878906 176.394531 126.726562 C 177.238281 126.574219 178.15625 126.878906 178.769531 127.339844 C 179.457031 127.722656 179.839844 128.105469 180.300781 129.253906 C 181.832031 133.238281 182.828125 154.835938 182.140625 159.277344 C 181.984375 160.65625 181.753906 161.191406 181.21875 161.878906 C 180.683594 162.492188 179.609375 163.03125 178.84375 163.105469 C 178.003906 163.183594 176.855469 163.03125 176.164062 162.492188 C 175.398438 161.878906 174.480469 159.277344 174.480469 159.277344 "/></clipPath><clipPath id="0dc593b30b"><path d="M 172.777344 125.578125 L 206.78125 125.578125 L 206.78125 134.824219 L 172.777344 134.824219 Z M 172.777344 125.578125 "/></clipPath><clipPath id="096100f4a1"><path d="M 176.394531 126.804688 C 190.792969 125.652344 201.285156 125.117188 204.195312 126.113281 C 205.269531 126.496094 205.726562 127.03125 206.109375 127.644531 C 206.570312 128.335938 206.800781 129.253906 206.722656 130.019531 C 206.648438 130.785156 206.339844 131.703125 205.804688 132.242188 C 205.039062 132.929688 203.429688 133.695312 202.433594 133.542969 C 201.363281 133.390625 199.984375 132.316406 199.523438 131.476562 C 199.066406 130.785156 198.988281 129.789062 199.140625 129.023438 C 199.292969 128.257812 199.675781 127.414062 200.367188 126.878906 C 201.132812 126.265625 202.816406 125.882812 203.8125 126.035156 C 204.65625 126.113281 205.421875 126.648438 205.882812 127.339844 C 206.417969 128.105469 206.800781 129.867188 206.570312 130.863281 C 206.417969 131.628906 205.804688 132.394531 205.191406 132.855469 C 204.503906 133.3125 204.042969 133.390625 202.816406 133.542969 C 198.757812 134.230469 179.917969 135.457031 175.933594 134.386719 C 174.632812 134.078125 174.097656 133.695312 173.5625 133.007812 C 173.101562 132.316406 172.71875 131.246094 172.792969 130.402344 C 172.871094 129.558594 173.332031 128.488281 173.945312 127.953125 C 174.554688 127.339844 176.394531 126.804688 176.394531 126.804688 "/></clipPath><clipPath id="d99019f15e"><path d="M 199.046875 126.019531 L 208.121094 126.019531 L 208.121094 161.632812 L 199.046875 161.632812 Z M 199.046875 126.019531 "/></clipPath><clipPath id="4b2a8c9319"><path d="M 206.722656 129.484375 C 207.871094 143.730469 208.792969 155.21875 207.414062 158.664062 C 206.878906 160.121094 205.957031 160.960938 205.039062 161.34375 C 204.273438 161.726562 203.125 161.574219 202.359375 161.34375 C 201.746094 161.191406 201.210938 160.886719 200.828125 160.273438 C 200.289062 159.507812 199.832031 157.515625 200.0625 156.519531 C 200.289062 155.753906 200.902344 155.0625 201.515625 154.605469 C 202.207031 154.144531 203.125 153.839844 203.890625 153.914062 C 204.886719 154.070312 206.417969 154.988281 206.953125 155.753906 C 207.488281 156.441406 207.566406 157.4375 207.488281 158.203125 C 207.414062 158.96875 207.03125 159.8125 206.492188 160.425781 C 205.957031 160.960938 205.117188 161.421875 204.351562 161.574219 C 203.582031 161.652344 202.589844 161.574219 201.898438 161.113281 C 201.054688 160.578125 199.984375 159.199219 199.90625 158.203125 C 199.753906 157.132812 200.519531 155.523438 201.210938 154.835938 C 201.820312 154.296875 202.664062 153.914062 203.507812 153.914062 C 204.503906 153.992188 206.109375 154.605469 206.722656 155.449219 C 207.335938 156.214844 207.644531 157.746094 207.414062 158.664062 C 207.261719 159.507812 206.570312 160.425781 205.882812 160.886719 C 205.191406 161.421875 204.042969 161.652344 203.199219 161.574219 C 202.589844 161.496094 202.050781 161.34375 201.515625 160.886719 C 200.902344 160.425781 200.367188 159.890625 199.984375 158.664062 C 198.988281 155.449219 200.214844 144.570312 199.984375 139.285156 C 199.832031 135.6875 198.910156 132.316406 199.066406 130.171875 C 199.21875 129.023438 199.21875 128.257812 199.832031 127.570312 C 200.445312 126.804688 201.976562 126.035156 202.972656 126.035156 C 203.890625 125.960938 204.886719 126.421875 205.5 127.03125 C 206.109375 127.570312 206.722656 129.484375 206.722656 129.484375 "/></clipPath><clipPath id="8d6e7d99e5"><path d="M 197.78125 175 L 207.960938 175 L 207.960938 257.730469 L 197.78125 257.730469 Z M 197.78125 175 "/></clipPath><clipPath id="15de90699e"><path d="M 205.726562 178.652344 C 207.949219 225.601562 208.636719 247.96875 207.105469 253.863281 C 206.648438 255.625 206.265625 256.46875 205.421875 257.003906 C 204.578125 257.617188 202.816406 257.769531 201.820312 257.386719 C 200.902344 257.003906 199.753906 255.703125 199.523438 254.707031 C 199.292969 253.636719 199.753906 252.027344 200.519531 251.261719 C 201.210938 250.417969 202.816406 249.882812 203.890625 250.113281 C 204.960938 250.265625 206.265625 251.261719 206.722656 252.257812 C 207.183594 253.175781 207.105469 254.9375 206.570312 255.855469 C 206.035156 256.773438 204.425781 257.539062 203.507812 257.695312 C 202.664062 257.769531 201.746094 257.539062 201.132812 257.003906 C 200.367188 256.390625 199.832031 255.625 199.449219 253.863281 C 197.992188 247.96875 200.289062 226.140625 200.0625 213.042969 C 199.753906 200.941406 196.921875 182.789062 198.144531 178.117188 C 198.453125 176.816406 198.910156 176.28125 199.601562 175.820312 C 200.214844 175.285156 201.285156 174.976562 202.207031 175.054688 C 203.046875 175.054688 204.042969 175.589844 204.65625 176.203125 C 205.191406 176.816406 205.726562 178.652344 205.726562 178.652344 "/></clipPath><clipPath id="3e9d03dd22"><path d="M 175.324219 249.882812 L 207.371094 249.882812 L 207.371094 259.839844 L 175.324219 259.839844 Z M 175.324219 249.882812 "/></clipPath><clipPath id="a029b0682e"><path d="M 179.152344 251.796875 C 198.605469 251.949219 198.988281 252.945312 199.753906 252.792969 C 200.597656 252.5625 201.132812 250.496094 202.128906 250.113281 C 203.125 249.730469 204.808594 250.035156 205.726562 250.648438 C 206.570312 251.261719 207.261719 252.792969 207.261719 253.863281 C 207.183594 254.9375 206.339844 256.390625 205.421875 257.003906 C 204.578125 257.539062 202.816406 257.695312 201.898438 257.234375 C 200.902344 256.773438 199.832031 255.472656 199.675781 254.402344 C 199.449219 253.40625 200.0625 251.71875 200.75 250.953125 C 201.285156 250.339844 202.128906 249.957031 202.972656 249.957031 C 203.964844 249.882812 205.574219 250.496094 206.265625 251.183594 C 206.878906 251.796875 207.105469 252.792969 207.261719 253.480469 C 207.335938 253.941406 207.414062 254.246094 207.105469 254.707031 C 206.570312 255.703125 204.503906 257.539062 202.359375 258.382812 C 199.140625 259.683594 193.246094 259.53125 189.109375 259.683594 C 185.585938 259.839844 181.371094 259.914062 179.152344 259.457031 C 178.003906 259.226562 177.238281 259.074219 176.625 258.535156 C 176.011719 257.921875 175.476562 256.851562 175.398438 256.085938 C 175.246094 255.472656 175.398438 254.859375 175.550781 254.324219 C 175.78125 253.710938 176.089844 253.175781 176.625 252.792969 C 177.238281 252.332031 179.152344 251.796875 179.152344 251.796875 "/></clipPath><clipPath id="c7cad74282"><path d="M 200.699219 154 L 242.707031 154 L 242.707031 162.28125 L 200.699219 162.28125 Z M 200.699219 154 "/></clipPath><clipPath id="3f9229cc70"><path d="M 238.890625 162.035156 C 209.023438 162.417969 205.269531 162.339844 203.355469 161.574219 C 202.359375 161.191406 201.820312 160.730469 201.363281 160.121094 C 200.980469 159.507812 200.597656 158.585938 200.75 157.746094 C 200.902344 156.75 201.820312 155.292969 202.589844 154.679688 C 203.277344 154.222656 204.195312 154.070312 204.960938 154.144531 C 205.726562 154.222656 206.648438 154.605469 207.183594 155.21875 C 207.871094 155.90625 208.484375 157.59375 208.332031 158.585938 C 208.179688 159.660156 207.03125 160.960938 206.1875 161.421875 C 205.5 161.878906 204.503906 161.878906 203.738281 161.726562 C 202.972656 161.574219 202.128906 161.039062 201.667969 160.425781 C 201.132812 159.890625 200.75 158.96875 200.75 158.203125 C 200.671875 157.4375 200.902344 156.441406 201.363281 155.832031 C 202.050781 155.0625 203.199219 154.453125 204.578125 154.144531 C 206.722656 153.6875 209.558594 154.757812 213.3125 154.910156 C 219.742188 155.0625 235.90625 153.304688 239.808594 154.453125 C 241.035156 154.835938 241.496094 155.292969 242.03125 155.984375 C 242.492188 156.75 242.796875 157.820312 242.644531 158.664062 C 242.566406 159.507812 242.03125 160.503906 241.417969 161.039062 C 240.730469 161.652344 238.890625 162.035156 238.890625 162.035156 "/></clipPath><clipPath id="65ccfc0941"><path d="M 197.972656 173.714844 L 245.132812 173.714844 L 245.132812 182.109375 L 197.972656 182.109375 Z M 197.972656 173.714844 "/></clipPath><clipPath id="67f7e4ea27"><path d="M 241.265625 182.101562 C 199.449219 181.257812 198.683594 180.570312 198.300781 179.574219 C 197.917969 178.578125 198.144531 176.890625 198.683594 175.972656 C 199.066406 175.285156 199.832031 174.746094 200.597656 174.519531 C 201.285156 174.210938 202.28125 174.136719 203.046875 174.441406 C 203.964844 174.824219 205.191406 176.125 205.5 177.046875 C 205.804688 177.8125 205.726562 178.730469 205.421875 179.496094 C 205.117188 180.1875 204.578125 180.953125 203.890625 181.335938 C 202.972656 181.792969 201.210938 182.023438 200.289062 181.5625 C 199.292969 181.179688 198.300781 179.726562 198.070312 178.730469 C 197.839844 177.964844 198.070312 177.046875 198.453125 176.355469 C 198.757812 175.667969 199.21875 175.054688 200.214844 174.671875 C 202.589844 173.597656 209.097656 174.058594 214.6875 173.980469 C 222.425781 173.90625 238.203125 173.292969 242.183594 174.59375 C 243.410156 174.976562 243.945312 175.4375 244.40625 176.125 C 244.941406 176.816406 245.171875 177.886719 245.09375 178.730469 C 244.941406 179.574219 244.480469 180.570312 243.792969 181.179688 C 243.179688 181.71875 241.265625 182.101562 241.265625 182.101562 "/></clipPath><clipPath id="832731d1f3"><path d="M 235.40625 154.839844 L 244.554688 154.839844 L 244.554688 181.402344 L 235.40625 181.402344 Z M 235.40625 154.839844 "/></clipPath><clipPath id="8ebcf186c0"><path d="M 236.746094 177.503906 C 236.441406 155.601562 237.820312 155.0625 238.738281 154.910156 C 239.582031 154.757812 240.5 155.0625 241.113281 155.449219 C 241.800781 155.832031 242.414062 156.597656 242.722656 157.285156 C 243.027344 157.976562 243.105469 158.96875 242.875 159.738281 C 242.644531 160.503906 242.109375 161.269531 241.496094 161.726562 C 240.882812 162.1875 239.964844 162.570312 239.199219 162.570312 C 238.203125 162.492188 236.59375 161.726562 235.980469 160.886719 C 235.445312 159.964844 235.292969 158.28125 235.597656 157.285156 C 235.828125 156.519531 236.515625 155.832031 237.207031 155.449219 C 237.894531 155.0625 238.816406 154.835938 239.582031 154.910156 C 240.347656 154.988281 241.1875 155.21875 241.800781 155.90625 C 242.875 157.207031 243.105469 160.65625 243.5625 163.566406 C 244.097656 167.546875 244.867188 174.746094 244.40625 177.503906 C 244.253906 178.730469 244.023438 179.417969 243.488281 180.03125 C 242.949219 180.644531 241.878906 181.179688 241.113281 181.335938 C 240.269531 181.410156 239.121094 181.179688 238.433594 180.644531 C 237.664062 180.03125 236.746094 177.503906 236.746094 177.503906 "/></clipPath></defs><g id="fa3ae0bdb5"><g clip-rule="nonzero" clip-path="url(#de1bf9d2a8)"><g clip-rule="nonzero" clip-path="url(#aaf5a5a34a)"><path style=" stroke:none;fill-rule:nonzero;fill:currentColor;fill-opacity:1;" d="M 86.863281 229.433594 L 187.269531 229.433594 L 187.269531 336.117188 L 86.863281 336.117188 Z M 86.863281 229.433594 "/></g></g><g clip-rule="nonzero" clip-path="url(#a84cdfa58d)"><g clip-rule="nonzero" clip-path="url(#5524b162c5)"><path style=" stroke:none;fill-rule:nonzero;fill:currentColor;fill-opacity:1;" d="M 67.023438 82.765625 L 102.867188 82.765625 L 102.867188 248.679688 L 67.023438 248.679688 Z M 67.023438 82.765625 "/></g></g><g clip-rule="nonzero" clip-path="url(#d2b26cf38f)"><g clip-rule="nonzero" clip-path="url(#0a43ee844b)"><path style=" stroke:none;fill-rule:nonzero;fill:currentColor;fill-opacity:1;" d="M 66.796875 80.007812 L 80.582031 80.007812 L 80.582031 106.449219 L 66.796875 106.449219 Z M 66.796875 80.007812 "/></g></g><g clip-rule="nonzero" clip-path="url(#3df8645ade)"><g clip-rule="nonzero" clip-path="url(#776ad8842b)"><path style=" stroke:none;fill-rule:nonzero;fill:currentColor;fill-opacity:1;" d="M 67.40625 37.5 L 192.476562 37.5 L 192.476562 92.796875 L 67.40625 92.796875 Z M 67.40625 37.5 "/></g></g><g clip-rule="nonzero" clip-path="url(#4c17779edf)"><g clip-rule="nonzero" clip-path="url(#210228f931)"><path style=" stroke:none;fill-rule:nonzero;fill:currentColor;fill-opacity:1;" d="M 178.234375 37.578125 L 304.605469 37.578125 L 304.605469 91.496094 L 178.234375 91.496094 Z M 178.234375 37.578125 "/></g></g><g clip-rule="nonzero" clip-path="url(#e9ffdc379a)"><g clip-rule="nonzero" clip-path="url(#45816316e2)"><path style=" stroke:none;fill-rule:nonzero;fill:currentColor;fill-opacity:1;" d="M 286.300781 75.183594 L 304.710938 75.183594 L 304.710938 91.953125 L 286.300781 91.953125 Z M 286.300781 75.183594 "/></g></g><g clip-rule="nonzero" clip-path="url(#f7fb470492)"><g clip-rule="nonzero" clip-path="url(#66af225136)"><path style=" stroke:none;fill-rule:nonzero;fill:currentColor;fill-opacity:1;" d="M 290.128906 78.015625 L 307.515625 78.015625 L 307.515625 197.136719 L 290.128906 197.136719 Z M 290.128906 78.015625 "/></g></g><g clip-rule="nonzero" clip-path="url(#c014dfcd2e)"><g clip-rule="nonzero" clip-path="url(#3ceb85cb07)"><path style=" stroke:none;fill-rule:nonzero;fill:currentColor;fill-opacity:1;" d="M 175.476562 252.257812 L 280.699219 252.257812 L 280.699219 337.5 L 175.476562 337.5 Z M 175.476562 252.257812 "/></g></g><g clip-rule="nonzero" clip-path="url(#846d2d2255)"><g clip-rule="nonzero" clip-path="url(#9dd5272dea)"><path style=" stroke:none;fill-rule:nonzero;fill:currentColor;fill-opacity:1;" d="M 263.9375 172.449219 L 308.203125 172.449219 L 308.203125 270.324219 L 263.9375 270.324219 Z M 263.9375 172.449219 "/></g></g><g clip-rule="nonzero" clip-path="url(#6156a912b9)"><g clip-rule="nonzero" clip-path="url(#a9135519f4)"><path style=" stroke:none;fill-rule:nonzero;fill:currentColor;fill-opacity:1;" d="M 90.613281 94.789062 L 117.113281 94.789062 L 117.113281 232.671875 L 90.613281 232.671875 Z M 90.613281 94.789062 "/></g></g><g clip-rule="nonzero" clip-path="url(#7df6643a8e)"><g clip-rule="nonzero" clip-path="url(#34d03968b0)"><path style=" stroke:none;fill-rule:nonzero;fill:currentColor;fill-opacity:1;" d="M 102.792969 216.105469 L 194.777344 216.105469 L 194.777344 314.199219 L 102.792969 314.199219 Z M 102.792969 216.105469 "/></g></g><g clip-rule="nonzero" clip-path="url(#f5ed4bde58)"><g clip-rule="nonzero" clip-path="url(#40085898bb)"><path style=" stroke:none;fill-rule:nonzero;fill:currentColor;fill-opacity:1;" d="M 180.988281 207.757812 L 275.117188 207.757812 L 275.117188 314.386719 L 180.988281 314.386719 Z M 180.988281 207.757812 "/></g></g><g clip-rule="nonzero" clip-path="url(#f21bfeb7f8)"><g clip-rule="nonzero" clip-path="url(#a3c0a85c73)"><path style=" stroke:none;fill-rule:nonzero;fill:currentColor;fill-opacity:1;" d="M 260.71875 92.109375 L 282.164062 92.109375 L 282.164062 224.964844 L 260.71875 224.964844 Z M 260.71875 92.109375 "/></g></g><g clip-rule="nonzero" clip-path="url(#cf28f3415f)"><g clip-rule="nonzero" clip-path="url(#51cd9ea934)"><path style=" stroke:none;fill-rule:nonzero;fill:currentColor;fill-opacity:1;" d="M 93.449219 60.707031 L 192.136719 60.707031 L 192.136719 107.578125 L 93.449219 107.578125 Z M 93.449219 60.707031 "/></g></g><g clip-rule="nonzero" clip-path="url(#4657136b87)"><g clip-rule="nonzero" clip-path="url(#dd1f5658b3)"><path style=" stroke:none;fill-rule:nonzero;fill:currentColor;fill-opacity:1;" d="M 178.539062 60.78125 L 279.175781 60.78125 L 279.175781 107.121094 L 178.539062 107.121094 Z M 178.539062 60.78125 "/></g></g><g clip-rule="nonzero" clip-path="url(#f1596bbe78)"><g clip-rule="nonzero" clip-path="url(#ca5a9bd528)"><path style=" stroke:none;fill-rule:nonzero;fill:currentColor;fill-opacity:1;" d="M 171.722656 171.453125 L 186.582031 171.453125 L 186.582031 262.230469 L 171.722656 262.230469 Z M 171.722656 171.453125 "/></g></g><g clip-rule="nonzero" clip-path="url(#1cec29eb35)"><g clip-rule="nonzero" clip-path="url(#45a572f504)"><path style=" stroke:none;fill-rule:nonzero;fill:currentColor;fill-opacity:1;" d="M 133.503906 171.53125 L 185.589844 171.53125 L 185.589844 185.851562 L 133.503906 185.851562 Z M 133.503906 171.53125 "/></g></g><g clip-rule="nonzero" clip-path="url(#27aa1c5772)"><g clip-rule="nonzero" clip-path="url(#f588167b53)"><path style=" stroke:none;fill-rule:nonzero;fill:currentColor;fill-opacity:1;" d="M 133.734375 154.527344 L 148.441406 154.527344 L 148.441406 185.949219 L 133.734375 185.949219 Z M 133.734375 154.527344 "/></g></g><g clip-rule="nonzero" clip-path="url(#e88cbcaa55)"><g clip-rule="nonzero" clip-path="url(#59e911998d)"><path style=" stroke:none;fill-rule:nonzero;fill:currentColor;fill-opacity:1;" d="M 134.578125 152.460938 L 185.113281 152.460938 L 185.113281 168.3125 L 134.578125 168.3125 Z M 134.578125 152.460938 "/></g></g><g clip-rule="nonzero" clip-path="url(#4861d3da5a)"><g clip-rule="nonzero" clip-path="url(#40072c8021)"><path style=" stroke:none;fill-rule:nonzero;fill:currentColor;fill-opacity:1;" d="M 169.808594 123.664062 L 185.277344 123.664062 L 185.277344 166.269531 L 169.808594 166.269531 Z M 169.808594 123.664062 "/></g></g><g clip-rule="nonzero" clip-path="url(#0dc593b30b)"><g clip-rule="nonzero" clip-path="url(#096100f4a1)"><path style=" stroke:none;fill-rule:nonzero;fill:currentColor;fill-opacity:1;" d="M 169.730469 122.820312 L 209.882812 122.820312 L 209.882812 137.527344 L 169.730469 137.527344 Z M 169.730469 122.820312 "/></g></g><g clip-rule="nonzero" clip-path="url(#d99019f15e)"><g clip-rule="nonzero" clip-path="url(#4b2a8c9319)"><path style=" stroke:none;fill-rule:nonzero;fill:currentColor;fill-opacity:1;" d="M 196 122.972656 L 210.707031 122.972656 L 210.707031 164.734375 L 196 164.734375 Z M 196 122.972656 "/></g></g><g clip-rule="nonzero" clip-path="url(#8d6e7d99e5)"><g clip-rule="nonzero" clip-path="url(#15de90699e)"><path style=" stroke:none;fill-rule:nonzero;fill:currentColor;fill-opacity:1;" d="M 195.082031 171.992188 L 210.78125 171.992188 L 210.78125 260.859375 L 195.082031 260.859375 Z M 195.082031 171.992188 "/></g></g><g clip-rule="nonzero" clip-path="url(#3e9d03dd22)"><g clip-rule="nonzero" clip-path="url(#a029b0682e)"><path style=" stroke:none;fill-rule:nonzero;fill:currentColor;fill-opacity:1;" d="M 172.335938 246.894531 L 210.417969 246.894531 L 210.417969 262.824219 L 172.335938 262.824219 Z M 172.335938 246.894531 "/></g></g><g clip-rule="nonzero" clip-path="url(#c7cad74282)"><g clip-rule="nonzero" clip-path="url(#3f9229cc70)"><path style=" stroke:none;fill-rule:nonzero;fill:currentColor;fill-opacity:1;" d="M 197.6875 151.082031 L 245.777344 151.082031 L 245.777344 165.632812 L 197.6875 165.632812 Z M 197.6875 151.082031 "/></g></g><g clip-rule="nonzero" clip-path="url(#65ccfc0941)"><g clip-rule="nonzero" clip-path="url(#67f7e4ea27)"><path style=" stroke:none;fill-rule:nonzero;fill:currentColor;fill-opacity:1;" d="M 195.003906 170.917969 L 248.15625 170.917969 L 248.15625 185.242188 L 195.003906 185.242188 Z M 195.003906 170.917969 "/></g></g><g clip-rule="nonzero" clip-path="url(#832731d1f3)"><g clip-rule="nonzero" clip-path="url(#8ebcf186c0)"><path style=" stroke:none;fill-rule:nonzero;fill:currentColor;fill-opacity:1;" d="M 232.535156 151.847656 L 247.546875 151.847656 L 247.546875 184.390625 L 232.535156 184.390625 Z M 232.535156 151.847656 "/></g></g></g></svg>