<svg xmlns="http://www.w3.org/2000/svg" xmlns:xlink="http://www.w3.org/1999/xlink" width="500" zoomAndPan="magnify" viewBox="0 0 375 374.999991" height="500" preserveAspectRatio="xMidYMid meet" version="1.2"><defs><clipPath id="1faef8728e"><path d="M 132.472656 40.3125 L 189.773438 40.3125 L 189.773438 75.882812 L 132.472656 75.882812 Z M 132.472656 40.3125 "/></clipPath><clipPath id="6703ec61c1"><path d="M 133.90625 69.222656 C 160.402344 52.429688 179.585938 41.230469 185.113281 40.5625 C 186.753906 40.335938 187.722656 40.785156 188.46875 41.382812 C 189.140625 41.828125 189.515625 42.726562 189.664062 43.398438 C 189.8125 44.144531 189.738281 45.113281 189.367188 45.785156 C 189.066406 46.457031 188.46875 47.203125 187.722656 47.503906 C 186.828125 47.875 185.113281 47.800781 184.214844 47.429688 C 183.46875 47.128906 182.871094 46.382812 182.574219 45.636719 C 182.273438 44.742188 182.425781 43.023438 182.871094 42.203125 C 183.246094 41.457031 183.992188 40.933594 184.738281 40.636719 C 185.410156 40.410156 186.378906 40.335938 187.050781 40.5625 C 187.796875 40.785156 188.621094 41.308594 189.066406 41.980469 C 189.515625 42.800781 189.8125 44.515625 189.515625 45.414062 C 189.292969 46.160156 188.992188 46.53125 188.023438 47.277344 C 184.140625 50.488281 162.269531 59.820312 153.089844 65.269531 C 146.816406 68.925781 140.921875 74.449219 137.859375 75.496094 C 136.667969 75.941406 135.996094 75.941406 135.171875 75.71875 C 134.425781 75.496094 133.53125 74.824219 133.082031 74.152344 C 132.636719 73.40625 132.410156 72.359375 132.5625 71.539062 C 132.710938 70.71875 133.90625 69.222656 133.90625 69.222656 "/></clipPath><clipPath id="7a9fe2c3db"><path d="M 182.191406 40.328125 L 243 40.328125 L 243 74.90625 L 182.191406 74.90625 Z M 182.191406 40.328125 "/></clipPath><clipPath id="fa925eecce"><path d="M 186.828125 40.484375 C 220.941406 54.144531 235.871094 61.3125 240.199219 65.789062 C 241.992188 67.65625 242.738281 69.597656 242.886719 71.015625 C 242.886719 71.910156 242.664062 72.65625 242.066406 73.253906 C 241.46875 74 239.976562 74.75 238.929688 74.75 C 237.886719 74.671875 236.46875 73.777344 235.945312 72.957031 C 235.421875 72.0625 235.273438 70.34375 235.722656 69.449219 C 236.167969 68.476562 237.511719 67.507812 238.484375 67.285156 C 239.527344 67.132812 241.09375 67.65625 241.84375 68.402344 C 242.515625 69.148438 242.886719 70.867188 242.738281 71.761719 C 242.664062 72.582031 242.214844 73.40625 241.542969 73.851562 C 240.722656 74.375 239.078125 74.75 238.109375 74.597656 C 237.363281 74.449219 236.617188 73.851562 236.167969 73.253906 C 235.722656 72.65625 236.167969 71.910156 235.421875 71.015625 C 232.734375 67.878906 217.804688 60.863281 208.996094 56.832031 C 200.5625 52.953125 186.679688 49.667969 183.617188 47.054688 C 182.648438 46.160156 182.425781 45.5625 182.347656 44.742188 C 182.199219 43.917969 182.5 42.800781 182.871094 42.128906 C 183.171875 41.605469 183.617188 41.15625 184.214844 40.933594 C 184.886719 40.558594 186.828125 40.484375 186.828125 40.484375 "/></clipPath><clipPath id="c653e6a27e"><path d="M 132.578125 66.941406 L 242.5625 66.941406 L 242.5625 77.042969 L 132.578125 77.042969 Z M 132.578125 66.941406 "/></clipPath><clipPath id="a6cc5498ea"><path d="M 136.292969 68.925781 C 195.710938 67.65625 196.382812 67.207031 200.113281 67.058594 C 207.730469 66.761719 228.183594 67.359375 234.527344 67.730469 C 237.066406 67.878906 238.332031 67.65625 239.675781 68.253906 C 240.796875 68.777344 241.84375 69.820312 242.214844 70.566406 C 242.515625 71.164062 242.589844 71.761719 242.4375 72.359375 C 242.289062 73.105469 241.691406 74.152344 241.171875 74.671875 C 240.722656 75.121094 240.199219 75.417969 239.601562 75.496094 C 238.855469 75.644531 237.738281 75.644531 236.988281 75.195312 C 236.167969 74.671875 235.125 73.253906 235.050781 72.285156 C 234.898438 71.238281 235.570312 69.671875 236.316406 69 C 237.140625 68.328125 238.78125 68.105469 239.75 68.253906 C 240.574219 68.402344 241.246094 69 241.691406 69.597656 C 242.140625 70.195312 242.515625 71.089844 242.4375 71.910156 C 242.363281 72.882812 241.542969 74.375 240.796875 74.972656 C 240.199219 75.496094 239.304688 75.644531 238.558594 75.570312 C 237.738281 75.570312 236.914062 75.195312 236.316406 74.671875 C 235.722656 74.226562 235.273438 73.40625 235.125 72.65625 C 234.898438 71.910156 235.050781 70.941406 235.347656 70.269531 C 235.644531 69.597656 236.394531 68.925781 236.988281 68.550781 C 237.585938 68.253906 238.109375 68.03125 238.78125 68.105469 C 239.675781 68.253906 241.246094 69 241.84375 69.820312 C 242.363281 70.492188 242.515625 71.539062 242.4375 72.359375 C 242.363281 73.179688 241.84375 74.152344 241.171875 74.671875 C 240.574219 75.269531 240.050781 75.417969 238.707031 75.570312 C 233.78125 76.390625 211.609375 74.300781 203.027344 74.523438 C 198.175781 74.597656 196.90625 75.121094 191.679688 75.417969 C 180.183594 75.941406 143.308594 78.03125 136.292969 76.390625 C 134.578125 75.941406 133.828125 75.570312 133.234375 74.746094 C 132.710938 74.074219 132.484375 73.03125 132.636719 72.210938 C 132.710938 71.390625 133.234375 70.417969 133.828125 69.894531 C 134.5 69.300781 136.292969 68.925781 136.292969 68.925781 "/></clipPath><clipPath id="b7a0e843f6"><path d="M 153.441406 72.804688 L 161.558594 72.804688 L 161.558594 130.542969 L 153.441406 130.542969 Z M 153.441406 72.804688 "/></clipPath><clipPath id="9d79bffc40"><path d="M 161.523438 76.464844 C 160.925781 129.164062 160.554688 129.464844 159.882812 129.835938 C 159.285156 130.285156 158.386719 130.582031 157.640625 130.507812 C 156.820312 130.433594 156 130.136719 155.402344 129.613281 C 154.804688 129.164062 154.28125 128.34375 154.132812 127.597656 C 154.058594 126.625 154.507812 124.984375 155.105469 124.238281 C 155.625 123.566406 156.449219 123.191406 157.195312 123.117188 C 157.941406 122.96875 158.910156 123.042969 159.582031 123.492188 C 160.402344 124.015625 161.375 125.359375 161.523438 126.402344 C 161.597656 127.371094 160.925781 128.941406 160.253906 129.613281 C 159.65625 130.210938 158.761719 130.433594 158.015625 130.507812 C 157.269531 130.582031 156.371094 130.285156 155.699219 129.835938 C 155.105469 129.464844 154.65625 129.089844 154.28125 127.96875 C 152.789062 123.714844 153.835938 103.335938 153.984375 93.632812 C 154.058594 86.394531 153.164062 77.585938 154.507812 74.746094 C 155.027344 73.703125 155.699219 73.328125 156.523438 73.03125 C 157.269531 72.734375 158.386719 72.734375 159.132812 73.03125 C 159.957031 73.328125 160.703125 74.152344 161.148438 74.746094 C 161.449219 75.269531 161.523438 76.464844 161.523438 76.464844 "/></clipPath><clipPath id="61da23be94"><path d="M 211 71.855469 L 219.324219 71.855469 L 219.324219 132.324219 L 211 132.324219 Z M 211 71.855469 "/></clipPath><clipPath id="4813d9d7f6"><path d="M 219.300781 75.644531 C 218.402344 130.808594 217.957031 131.179688 217.285156 131.628906 C 216.613281 132.148438 215.566406 132.375 214.746094 132.300781 C 213.925781 132.226562 212.953125 131.703125 212.355469 131.03125 C 211.835938 130.433594 211.386719 129.464844 211.460938 128.566406 C 211.535156 127.597656 212.355469 126.105469 213.101562 125.507812 C 213.699219 124.984375 214.597656 124.761719 215.34375 124.835938 C 216.3125 124.984375 217.804688 125.878906 218.402344 126.703125 C 218.851562 127.296875 219.074219 128.195312 218.851562 129.015625 C 218.703125 129.910156 217.804688 131.402344 216.910156 131.851562 C 216.015625 132.375 214.371094 132.375 213.402344 131.851562 C 212.507812 131.402344 211.683594 129.910156 211.460938 129.015625 C 211.3125 128.195312 211.609375 127.296875 211.984375 126.625 C 212.355469 126.03125 213.027344 125.359375 213.773438 125.132812 C 214.746094 124.835938 216.386719 124.910156 217.285156 125.507812 C 218.105469 126.105469 218.851562 127.597656 218.925781 128.566406 C 218.925781 129.464844 218.402344 130.433594 217.957031 131.03125 C 217.582031 131.554688 217.132812 131.925781 216.535156 132.074219 C 215.640625 132.300781 213.925781 132.148438 213.027344 131.628906 C 212.355469 131.179688 211.835938 130.433594 211.535156 129.464844 C 211.089844 128.042969 211.460938 126.402344 211.460938 123.492188 C 211.386719 114.980469 210.191406 80.347656 211.984375 74.746094 C 212.355469 73.40625 212.804688 73.03125 213.476562 72.582031 C 214.148438 72.0625 215.195312 71.835938 216.015625 71.910156 C 216.835938 71.984375 217.878906 72.507812 218.402344 73.179688 C 218.925781 73.777344 219.300781 75.644531 219.300781 75.644531 "/></clipPath><clipPath id="ad1ccf617c"><path d="M 132.585938 94.703125 L 163.535156 94.703125 L 163.535156 103.078125 L 132.585938 103.078125 Z M 132.585938 94.703125 "/></clipPath><clipPath id="c8e4d0b3d5"><path d="M 136.292969 94.976562 C 162.046875 95.199219 162.417969 95.648438 162.867188 96.320312 C 163.238281 96.917969 163.613281 97.8125 163.464844 98.558594 C 163.316406 99.53125 162.492188 101.023438 161.671875 101.621094 C 161 102.066406 160.105469 102.21875 159.359375 102.066406 C 158.386719 101.917969 156.96875 100.949219 156.449219 100.128906 C 156 99.457031 155.925781 98.558594 156.074219 97.8125 C 156.222656 97.066406 156.597656 96.171875 157.195312 95.648438 C 157.941406 95.050781 159.582031 94.605469 160.554688 94.753906 C 161.375 94.828125 162.121094 95.425781 162.570312 95.949219 C 163.089844 96.542969 163.464844 97.441406 163.464844 98.1875 C 163.539062 98.933594 163.316406 99.828125 162.867188 100.5 C 162.269531 101.246094 161.375 101.695312 159.730469 102.144531 C 155.625 103.1875 140.398438 103.410156 136.292969 102.441406 C 134.726562 101.992188 133.828125 101.546875 133.234375 100.800781 C 132.710938 100.128906 132.484375 99.007812 132.636719 98.1875 C 132.710938 97.441406 133.234375 96.394531 133.828125 95.871094 C 134.425781 95.351562 136.292969 94.976562 136.292969 94.976562 "/></clipPath><clipPath id="ded9fb10cf"><path d="M 153.210938 93.957031 L 220.578125 93.957031 L 220.578125 103.703125 L 153.210938 103.703125 Z M 153.210938 93.957031 "/></clipPath><clipPath id="2c5118b250"><path d="M 156.746094 95.425781 C 205.265625 95.351562 213.179688 93.410156 216.761719 94.15625 C 218.328125 94.527344 219.300781 95.050781 219.894531 95.796875 C 220.34375 96.46875 220.640625 97.289062 220.492188 98.113281 C 220.417969 99.082031 219.523438 100.574219 218.703125 101.097656 C 218.03125 101.546875 217.132812 101.695312 216.386719 101.621094 C 215.640625 101.546875 214.746094 101.246094 214.222656 100.648438 C 213.550781 99.902344 212.953125 98.335938 213.101562 97.289062 C 213.253906 96.320312 214.371094 94.976562 215.195312 94.527344 C 215.941406 94.15625 216.835938 94.082031 217.582031 94.304688 C 218.328125 94.453125 219.148438 94.902344 219.597656 95.5 C 220.121094 96.097656 220.492188 96.992188 220.492188 97.738281 C 220.566406 98.484375 220.269531 99.382812 219.894531 99.976562 C 219.449219 100.648438 219.074219 101.023438 217.957031 101.472656 C 214.894531 102.664062 205.640625 102.738281 197.726562 103.039062 C 186.304688 103.488281 161.375 104.308594 156.222656 102.816406 C 154.953125 102.441406 154.507812 102.066406 153.984375 101.472656 C 153.460938 100.800781 153.164062 99.753906 153.238281 98.933594 C 153.3125 98.113281 153.761719 97.066406 154.355469 96.46875 C 154.953125 95.949219 156.746094 95.425781 156.746094 95.425781 "/></clipPath><clipPath id="65b2aea9aa"><path d="M 210.6875 93.53125 L 241.855469 93.53125 L 241.855469 102.527344 L 210.6875 102.527344 Z M 210.6875 93.53125 "/></clipPath><clipPath id="ff32bbcc69"><path d="M 214.445312 94.605469 C 234.226562 94.304688 236.242188 93.335938 237.960938 93.632812 C 239.230469 93.855469 240.5 94.453125 241.171875 95.199219 C 241.691406 95.796875 241.84375 96.695312 241.84375 97.441406 C 241.84375 98.1875 241.542969 99.082031 241.019531 99.679688 C 240.574219 100.277344 239.828125 100.875 239.078125 100.949219 C 238.109375 101.171875 236.394531 100.722656 235.644531 100.128906 C 234.972656 99.679688 234.601562 98.859375 234.453125 98.113281 C 234.300781 97.367188 234.378906 96.394531 234.75 95.722656 C 235.273438 94.902344 236.542969 93.78125 237.585938 93.632812 C 238.632812 93.484375 240.199219 94.15625 240.871094 94.828125 C 241.46875 95.425781 241.765625 96.320312 241.84375 97.066406 C 241.917969 97.8125 241.691406 98.710938 241.246094 99.382812 C 240.871094 99.976562 240.347656 100.425781 239.453125 100.875 C 237.8125 101.546875 234.675781 101.695312 231.539062 101.917969 C 226.988281 102.292969 217.804688 102.890625 214.445312 102.066406 C 212.953125 101.695312 211.984375 101.246094 211.386719 100.425781 C 210.863281 99.753906 210.640625 98.710938 210.789062 97.886719 C 210.863281 97.066406 211.386719 96.097656 211.984375 95.574219 C 212.582031 94.976562 214.445312 94.605469 214.445312 94.605469 "/></clipPath><clipPath id="19c0c41ee2"><path d="M 229.296875 97.378906 L 238.1875 97.378906 L 238.1875 155.289062 L 229.296875 155.289062 Z M 229.296875 97.378906 "/></clipPath><clipPath id="f93aebef90"><path d="M 237.214844 101.171875 C 237.660156 153.722656 237.214844 154.097656 236.542969 154.542969 C 235.871094 155.066406 234.824219 155.289062 234.003906 155.214844 C 233.183594 155.140625 232.210938 154.617188 231.617188 154.019531 C 231.09375 153.351562 230.644531 152.378906 230.71875 151.484375 C 230.792969 150.511719 231.539062 148.945312 232.4375 148.347656 C 233.332031 147.824219 234.972656 147.675781 235.945312 148.125 C 236.914062 148.496094 237.886719 149.839844 238.109375 150.8125 C 238.257812 151.855469 237.8125 153.425781 237.066406 154.171875 C 236.316406 154.917969 234.75 155.363281 233.707031 155.140625 C 232.660156 154.992188 231.390625 153.871094 231.019531 152.976562 C 230.570312 152.007812 230.71875 150.363281 231.316406 149.46875 C 231.839844 148.648438 233.40625 147.902344 234.378906 147.75 C 235.199219 147.675781 236.019531 147.976562 236.617188 148.496094 C 237.363281 149.09375 238.183594 150.585938 238.183594 151.632812 C 238.109375 152.679688 237.289062 154.019531 236.542969 154.542969 C 235.871094 155.066406 234.824219 155.363281 234.003906 155.214844 C 233.035156 155.066406 231.691406 154.171875 231.167969 153.273438 C 230.570312 152.378906 230.644531 151.707031 230.496094 149.914062 C 229.824219 143.199219 228.703125 107.144531 229.75 101.171875 C 230.046875 99.828125 230.195312 99.304688 230.71875 98.710938 C 231.242188 98.113281 232.210938 97.589844 233.035156 97.441406 C 233.855469 97.367188 234.972656 97.589844 235.644531 98.113281 C 236.394531 98.710938 237.214844 101.171875 237.214844 101.171875 "/></clipPath><clipPath id="143d4ce9b7"><path d="M 136.734375 97.578125 L 146.382812 97.578125 L 146.382812 154.226562 L 136.734375 154.226562 Z M 136.734375 97.578125 "/></clipPath><clipPath id="56f6f62e6c"><path d="M 144.578125 101.320312 C 144.953125 130.957031 146.894531 146.183594 146.222656 150.4375 C 145.996094 151.78125 145.847656 152.304688 145.25 152.902344 C 144.726562 153.574219 143.757812 154.097656 142.9375 154.171875 C 141.964844 154.246094 140.324219 153.722656 139.652344 152.902344 C 138.980469 152.082031 138.605469 150.140625 138.980469 149.09375 C 139.355469 148.125 140.621094 147.078125 141.59375 146.855469 C 142.636719 146.558594 144.28125 147.003906 145.027344 147.675781 C 145.773438 148.421875 146.296875 149.992188 146.144531 151.035156 C 145.996094 152.007812 145.027344 153.351562 144.132812 153.796875 C 143.160156 154.246094 141.519531 154.171875 140.621094 153.648438 C 139.726562 153.125 138.90625 151.632812 138.757812 150.738281 C 138.605469 149.914062 138.90625 149.019531 139.355469 148.421875 C 139.949219 147.675781 141.445312 146.78125 142.414062 146.707031 C 143.234375 146.632812 144.054688 146.929688 144.726562 147.453125 C 145.398438 148.050781 146.144531 149.46875 146.222656 150.4375 C 146.296875 151.335938 145.847656 152.304688 145.25 152.902344 C 144.726562 153.574219 143.757812 154.097656 142.9375 154.171875 C 142.117188 154.246094 141.070312 154.019531 140.398438 153.5 C 139.652344 153.050781 139.277344 152.601562 138.832031 151.335938 C 137.488281 147.230469 137.488281 131.253906 137.1875 122.371094 C 136.964844 114.757812 136.441406 104.90625 137.113281 101.320312 C 137.339844 100.054688 137.488281 99.457031 138.011719 98.859375 C 138.53125 98.261719 139.578125 97.738281 140.398438 97.664062 C 141.21875 97.515625 142.265625 97.738281 142.9375 98.261719 C 143.683594 98.859375 144.578125 101.320312 144.578125 101.320312 "/></clipPath><clipPath id="33aa621969"><path d="M 139.894531 124.882812 L 190.960938 124.882812 L 190.960938 134.128906 L 139.894531 134.128906 Z M 139.894531 124.882812 "/></clipPath><clipPath id="b7bc56afc6"><path d="M 143.460938 126.625 C 160.925781 124.761719 182.574219 124.535156 187.203125 125.28125 C 188.46875 125.507812 188.84375 125.507812 189.441406 126.105469 C 190.1875 126.703125 191.007812 128.195312 190.933594 129.238281 C 190.859375 130.285156 189.886719 131.703125 189.140625 132.226562 C 188.46875 132.671875 187.574219 132.820312 186.828125 132.746094 C 186.082031 132.671875 185.1875 132.375 184.664062 131.777344 C 183.992188 131.03125 183.46875 129.386719 183.542969 128.417969 C 183.617188 127.671875 183.992188 126.851562 184.664062 126.328125 C 185.410156 125.730469 187.050781 125.28125 188.023438 125.359375 C 188.84375 125.507812 189.589844 126.03125 190.039062 126.625 C 190.558594 127.222656 190.933594 128.121094 190.933594 128.867188 C 191.007812 129.613281 190.785156 130.507812 190.335938 131.105469 C 189.664062 131.925781 188.84375 132.375 187.203125 132.746094 C 182.050781 134.089844 161.226562 132.300781 153.238281 132.820312 C 148.757812 133.046875 145.101562 134.464844 142.9375 134.015625 C 141.890625 133.792969 141.21875 133.269531 140.699219 132.597656 C 140.175781 132 139.875 130.957031 139.949219 130.136719 C 140.027344 129.3125 140.472656 128.269531 141.070312 127.671875 C 141.667969 127.148438 143.460938 126.625 143.460938 126.625 "/></clipPath><clipPath id="3ec4742912"><path d="M 181.800781 124.789062 L 233.824219 124.789062 L 233.824219 133.671875 L 181.800781 133.671875 Z M 181.800781 124.789062 "/></clipPath><clipPath id="327b6abade"><path d="M 185.558594 125.28125 C 231.765625 125.207031 232.511719 125.65625 233.109375 126.402344 C 233.632812 127 233.78125 127.96875 233.78125 128.714844 C 233.707031 129.464844 233.480469 130.359375 232.882812 130.882812 C 232.210938 131.554688 230.644531 132.226562 229.675781 132.226562 C 228.855469 132.148438 228.03125 131.703125 227.511719 131.179688 C 226.914062 130.65625 226.464844 129.910156 226.390625 129.089844 C 226.316406 128.121094 226.761719 126.476562 227.511719 125.804688 C 228.257812 125.058594 229.898438 124.6875 230.867188 124.835938 C 231.617188 124.984375 232.4375 125.507812 232.882812 126.105469 C 233.40625 126.625 233.707031 127.523438 233.78125 128.269531 C 233.78125 129.015625 233.632812 129.984375 233.109375 130.582031 C 232.511719 131.328125 231.765625 131.777344 230.046875 132.226562 C 223.925781 133.792969 191.605469 134.242188 185.558594 132.746094 C 183.84375 132.375 183.097656 131.925781 182.5 131.179688 C 181.902344 130.507812 181.753906 129.386719 181.828125 128.566406 C 181.902344 127.746094 182.425781 126.777344 183.097656 126.253906 C 183.691406 125.730469 185.558594 125.28125 185.558594 125.28125 "/></clipPath><clipPath id="2799c8cb05"><path d="M 138.261719 147.332031 L 195.890625 147.332031 L 195.890625 156.042969 L 138.261719 156.042969 Z M 138.261719 147.332031 "/></clipPath><clipPath id="bb5da6a7a8"><path d="M 142.039062 147.378906 C 193.398438 147.527344 193.769531 147.601562 194.367188 148.125 C 195.113281 148.722656 195.859375 150.289062 195.859375 151.257812 C 195.785156 152.304688 194.816406 153.722656 193.996094 154.246094 C 193.398438 154.769531 192.5 154.917969 191.679688 154.769531 C 190.710938 154.617188 189.292969 153.648438 188.769531 152.828125 C 188.394531 152.15625 188.320312 151.183594 188.394531 150.4375 C 188.546875 149.765625 188.917969 148.871094 189.515625 148.347656 C 190.261719 147.75 191.980469 147.304688 192.875 147.453125 C 193.695312 147.527344 194.441406 148.125 194.964844 148.648438 C 195.414062 149.246094 195.785156 150.140625 195.859375 150.886719 C 195.859375 151.632812 195.710938 152.527344 195.1875 153.199219 C 194.589844 153.945312 193.84375 154.394531 192.128906 154.84375 C 185.558594 156.410156 148.609375 156.410156 142.039062 154.84375 C 140.324219 154.394531 139.578125 153.945312 138.980469 153.199219 C 138.457031 152.527344 138.234375 151.484375 138.308594 150.664062 C 138.457031 149.839844 138.980469 148.796875 139.578125 148.273438 C 140.175781 147.75 142.039062 147.378906 142.039062 147.378906 "/></clipPath><clipPath id="91fbc41f18"><path d="M 182.492188 146.808594 L 236.980469 146.808594 L 236.980469 155.746094 L 182.492188 155.746094 Z M 182.492188 146.808594 "/></clipPath><clipPath id="71aef8892d"><path d="M 186.230469 147.378906 C 234.972656 147.152344 235.722656 147.675781 236.316406 148.421875 C 236.839844 149.019531 237.066406 149.917969 236.914062 150.664062 C 236.839844 151.632812 235.945312 153.125 235.125 153.722656 C 234.453125 154.171875 233.554688 154.320312 232.808594 154.171875 C 232.0625 154.097656 231.167969 153.722656 230.644531 153.199219 C 230.121094 152.679688 229.601562 151.855469 229.523438 151.109375 C 229.449219 150.140625 229.898438 148.496094 230.644531 147.75 C 231.390625 147.078125 233.035156 146.707031 234.003906 146.855469 C 234.824219 146.929688 235.570312 147.527344 236.09375 148.050781 C 236.542969 148.648438 236.914062 149.542969 236.914062 150.289062 C 236.988281 151.035156 236.839844 151.929688 236.316406 152.601562 C 235.722656 153.351562 234.972656 153.796875 233.183594 154.246094 C 226.914062 155.8125 192.574219 156.335938 186.230469 154.84375 C 184.515625 154.394531 183.769531 153.945312 183.171875 153.199219 C 182.648438 152.527344 182.425781 151.484375 182.574219 150.664062 C 182.648438 149.839844 183.171875 148.796875 183.769531 148.273438 C 184.363281 147.75 186.230469 147.378906 186.230469 147.378906 "/></clipPath><clipPath id="9b8981ec02"><path d="M 138.074219 151.527344 L 156.34375 151.527344 L 156.34375 229.511719 L 138.074219 229.511719 Z M 138.074219 151.527344 "/></clipPath><clipPath id="5f06c6a503"><path d="M 156.296875 155.289062 C 155.179688 170.519531 148.160156 219.632812 145.699219 226.425781 C 145.175781 227.769531 144.953125 228.21875 144.28125 228.742188 C 143.683594 229.1875 142.636719 229.5625 141.816406 229.488281 C 140.996094 229.488281 139.949219 229.039062 139.355469 228.441406 C 138.683594 227.695312 138.160156 226.277344 138.308594 225.308594 C 138.457031 224.261719 139.503906 222.917969 140.324219 222.472656 C 140.996094 222.023438 141.890625 221.875 142.710938 222.097656 C 143.609375 222.398438 144.953125 223.441406 145.398438 224.335938 C 145.773438 225.007812 145.773438 225.980469 145.625 226.652344 C 145.398438 227.398438 145.027344 228.21875 144.355469 228.667969 C 143.535156 229.265625 141.816406 229.5625 140.921875 229.339844 C 140.101562 229.1875 139.429688 228.59375 138.980469 227.996094 C 138.53125 227.324219 138.160156 226.503906 138.234375 225.679688 C 138.382812 224.710938 139.203125 223.21875 139.949219 222.621094 C 140.621094 222.171875 141.519531 221.949219 142.265625 222.097656 C 143.234375 222.246094 144.726562 223.144531 145.25 223.964844 C 145.699219 224.636719 145.847656 225.679688 145.699219 226.425781 C 145.550781 227.25 144.953125 228.21875 144.28125 228.742188 C 143.683594 229.1875 142.636719 229.5625 141.816406 229.488281 C 140.996094 229.488281 139.949219 229.039062 139.355469 228.441406 C 138.757812 227.847656 138.457031 227.398438 138.234375 226.054688 C 137.5625 220.902344 142.039062 199.777344 143.90625 187.386719 C 145.699219 175.667969 147.042969 157.679688 149.28125 153.574219 C 149.953125 152.378906 150.476562 152.082031 151.296875 151.78125 C 152.042969 151.484375 153.164062 151.484375 153.910156 151.78125 C 154.730469 152.082031 155.476562 152.902344 155.925781 153.574219 C 156.222656 154.097656 156.296875 155.289062 156.296875 155.289062 "/></clipPath><clipPath id="730dbeb16b"><path d="M 122.507812 215.332031 L 147.195312 215.332031 L 147.195312 334.113281 L 122.507812 334.113281 Z M 122.507812 215.332031 "/></clipPath><clipPath id="7addd87851"><path d="M 147.117188 219.484375 C 138.234375 269.945312 132.113281 324.511719 130.023438 331.15625 C 129.722656 332.125 129.648438 332.347656 129.203125 332.796875 C 128.679688 333.320312 127.710938 333.917969 126.886719 334.066406 C 126.066406 334.140625 124.945312 333.84375 124.273438 333.46875 C 123.753906 333.097656 123.304688 332.722656 123.082031 332.125 C 122.78125 331.230469 122.707031 329.289062 123.15625 328.394531 C 123.527344 327.648438 124.273438 327.125 125.023438 326.824219 C 125.695312 326.601562 126.664062 326.527344 127.410156 326.75 C 128.082031 326.976562 128.902344 327.496094 129.351562 328.09375 C 129.800781 328.691406 130.171875 329.585938 130.097656 330.335938 C 130.023438 331.304688 129.203125 332.871094 128.457031 333.46875 C 127.785156 333.917969 126.886719 334.140625 126.140625 334.066406 C 125.394531 333.992188 124.5 333.769531 123.902344 333.171875 C 123.230469 332.5 122.558594 330.929688 122.632812 329.886719 C 122.78125 328.914062 123.828125 327.570312 124.648438 327.050781 C 125.320312 326.601562 126.214844 326.453125 126.960938 326.675781 C 127.933594 326.902344 129.277344 327.945312 129.800781 328.765625 C 130.171875 329.511719 130.171875 330.410156 130.023438 331.15625 C 129.800781 331.976562 129.203125 332.871094 128.53125 333.394531 C 127.859375 333.84375 126.8125 334.140625 125.992188 334.066406 C 125.171875 333.992188 124.199219 333.46875 123.601562 332.871094 C 123.082031 332.273438 122.78125 331.828125 122.632812 330.410156 C 121.664062 322.347656 130.84375 268.75 134.203125 248.074219 C 136.292969 235.535156 137.933594 221.949219 139.875 217.917969 C 140.472656 216.722656 140.847656 216.277344 141.59375 215.902344 C 142.265625 215.453125 143.382812 215.304688 144.207031 215.453125 C 145.027344 215.679688 145.921875 216.277344 146.445312 216.949219 C 146.894531 217.621094 147.117188 219.484375 147.117188 219.484375 "/></clipPath><clipPath id="67ce3ecf9b"><path d="M 217.339844 151.164062 L 237 151.164062 L 237 237 L 217.339844 237 Z M 217.339844 151.164062 "/></clipPath><clipPath id="b22ac933fb"><path d="M 224.824219 154.320312 C 230.945312 186.417969 238.484375 228.59375 236.691406 234.5625 C 236.394531 235.757812 235.796875 235.980469 235.199219 236.429688 C 234.527344 236.804688 233.632812 237.027344 232.882812 236.953125 C 232.136719 236.804688 231.242188 236.429688 230.71875 235.90625 C 230.121094 235.386719 229.675781 234.5625 229.601562 233.816406 C 229.449219 233.070312 229.523438 232.101562 229.972656 231.429688 C 230.496094 230.609375 231.914062 229.710938 232.882812 229.488281 C 233.632812 229.339844 234.527344 229.5625 235.199219 230.011719 C 235.945312 230.609375 236.914062 231.953125 236.988281 232.996094 C 237.066406 234.042969 236.242188 235.535156 235.496094 236.207031 C 234.898438 236.730469 234.003906 236.953125 233.257812 236.953125 C 232.511719 236.953125 231.617188 236.652344 231.019531 236.207031 C 230.421875 235.757812 229.824219 234.9375 229.675781 234.191406 C 229.449219 233.445312 229.898438 232.699219 229.75 231.800781 C 229.601562 230.757812 228.929688 230.234375 228.40625 228.292969 C 226.390625 220.679688 222.808594 182.164062 220.566406 169.175781 C 219.449219 162.679688 217.207031 157.53125 217.433594 154.769531 C 217.582031 153.648438 217.957031 152.976562 218.550781 152.378906 C 219.074219 151.78125 220.121094 151.335938 220.941406 151.257812 C 221.761719 151.257812 222.808594 151.558594 223.480469 152.082031 C 224.152344 152.527344 224.824219 154.320312 224.824219 154.320312 "/></clipPath><clipPath id="86fd7489fd"><path d="M 228.382812 220.546875 L 252.34375 220.546875 L 252.34375 334.453125 L 228.382812 334.453125 Z M 228.382812 220.546875 "/></clipPath><clipPath id="16e911baa4"><path d="M 236.019531 224.1875 C 243.484375 266.214844 243.707031 274.351562 245.050781 284.875 C 246.84375 298.238281 252.890625 323.914062 252.292969 330.257812 C 252.066406 331.976562 251.769531 332.796875 251.023438 333.46875 C 250.425781 334.140625 249.382812 334.441406 248.558594 334.441406 C 247.738281 334.441406 246.695312 334.066406 246.097656 333.542969 C 245.5 333.019531 244.902344 332.125 244.828125 331.230469 C 244.828125 330.109375 245.648438 328.167969 246.542969 327.570312 C 247.441406 326.976562 249.082031 326.902344 250.054688 327.347656 C 251.023438 327.722656 252.066406 329.066406 252.21875 330.035156 C 252.441406 331.082031 251.917969 332.648438 251.171875 333.394531 C 250.425781 334.140625 248.859375 334.589844 247.8125 334.363281 C 246.84375 334.214844 245.5 333.097656 245.125 332.199219 C 244.753906 331.230469 244.902344 329.585938 245.425781 328.691406 C 246.023438 327.871094 247.441406 327.050781 248.484375 326.976562 C 249.53125 326.976562 250.949219 327.871094 251.621094 328.617188 C 252.144531 329.214844 252.367188 330.109375 252.292969 330.855469 C 252.21875 331.753906 251.769531 332.945312 251.023438 333.46875 C 250.277344 334.140625 248.632812 334.515625 247.664062 334.363281 C 246.84375 334.214844 246.097656 333.617188 245.5 332.871094 C 244.828125 331.976562 244.679688 331.007812 244.230469 328.992188 C 242.589844 322.421875 239.304688 298.609375 237.585938 285.546875 C 236.242188 274.796875 236.019531 265.691406 234.527344 256.210938 C 233.109375 247.03125 229.601562 235.308594 228.855469 229.5625 C 228.554688 226.726562 228.257812 224.785156 228.703125 223.292969 C 228.929688 222.320312 229.449219 221.574219 230.195312 221.128906 C 231.019531 220.605469 232.660156 220.457031 233.632812 220.753906 C 234.453125 220.980469 235.199219 221.800781 235.570312 222.472656 C 235.945312 222.992188 236.019531 224.1875 236.019531 224.1875 "/></clipPath><clipPath id="cae878b3dc"><path d="M 122.546875 325.804688 L 252.117188 325.804688 L 252.117188 334.390625 L 122.546875 334.390625 Z M 122.546875 325.804688 "/></clipPath><clipPath id="8b1d28ab1f"><path d="M 126.289062 325.855469 C 237.140625 325.78125 244.828125 325.929688 248.410156 326.675781 C 249.605469 326.902344 250.203125 327.050781 250.875 327.570312 C 251.472656 328.167969 252.066406 329.066406 252.066406 329.960938 C 252.144531 330.929688 251.546875 332.5 250.875 333.171875 C 250.277344 333.769531 249.230469 334.363281 248.410156 334.140625 C 247.140625 333.84375 244.902344 330.855469 244.679688 329.8125 C 244.605469 329.363281 244.753906 329.066406 245.050781 328.691406 C 245.574219 328.019531 246.917969 326.824219 247.960938 326.675781 C 249.007812 326.601562 250.5 327.199219 251.171875 327.945312 C 251.84375 328.765625 252.21875 330.410156 251.992188 331.378906 C 251.695312 332.347656 250.574219 333.617188 249.605469 333.917969 C 248.632812 334.289062 246.992188 333.992188 246.171875 333.394531 C 245.351562 332.796875 244.605469 331.230469 244.679688 330.183594 C 244.679688 329.214844 245.648438 327.796875 246.394531 327.199219 C 247.066406 326.75 247.960938 326.527344 248.785156 326.675781 C 249.679688 326.824219 251.171875 327.945312 251.695312 328.617188 C 251.992188 328.992188 252.144531 329.664062 252.066406 329.738281 C 251.84375 329.960938 248.261719 326.902344 248.410156 326.675781 C 248.484375 326.527344 249.605469 326.75 250.128906 327.125 C 250.800781 327.496094 251.621094 328.242188 251.84375 329.066406 C 252.144531 330.035156 251.992188 331.675781 251.472656 332.5 C 251.023438 333.246094 250.203125 333.691406 249.304688 333.992188 C 247.8125 334.515625 245.871094 334.363281 243.484375 334.363281 C 239.453125 334.289062 235.199219 333.246094 227.660156 332.945312 C 208.476562 332.199219 136.292969 335.785156 126.289062 333.320312 C 124.5 332.871094 123.828125 332.5 123.230469 331.675781 C 122.707031 331.007812 122.484375 329.960938 122.632812 329.140625 C 122.707031 328.320312 123.230469 327.347656 123.828125 326.824219 C 124.5 326.230469 126.289062 325.855469 126.289062 325.855469 "/></clipPath></defs><g id="a3c8f171a7"><g clip-rule="nonzero" clip-path="url(#1faef8728e)"><g clip-rule="nonzero" clip-path="url(#6703ec61c1)"><path style=" stroke:none;fill-rule:nonzero;fill:currentColor;fill-opacity:1;" d="M 129.574219 37.574219 L 192.667969 37.574219 L 192.667969 78.777344 L 129.574219 78.777344 Z M 129.574219 37.574219 "/></g></g><g clip-rule="nonzero" clip-path="url(#7a9fe2c3db)"><g clip-rule="nonzero" clip-path="url(#fa925eecce)"><path style=" stroke:none;fill-rule:nonzero;fill:currentColor;fill-opacity:1;" d="M 179.363281 37.5 L 245.84375 37.5 L 245.84375 77.734375 L 179.363281 77.734375 Z M 179.363281 37.5 "/></g></g><g clip-rule="nonzero" clip-path="url(#c653e6a27e)"><g clip-rule="nonzero" clip-path="url(#a6cc5498ea)"><path style=" stroke:none;fill-rule:nonzero;fill:currentColor;fill-opacity:1;" d="M 129.648438 64.074219 L 245.492188 64.074219 L 245.492188 79.375 L 129.648438 79.375 Z M 129.648438 64.074219 "/></g></g><g clip-rule="nonzero" clip-path="url(#b7a0e843f6)"><g clip-rule="nonzero" clip-path="url(#9d79bffc40)"><path style=" stroke:none;fill-rule:nonzero;fill:currentColor;fill-opacity:1;" d="M 151 70.046875 L 164.582031 70.046875 L 164.582031 133.566406 L 151 133.566406 Z M 151 70.046875 "/></g></g><g clip-rule="nonzero" clip-path="url(#61da23be94)"><g clip-rule="nonzero" clip-path="url(#4813d9d7f6)"><path style=" stroke:none;fill-rule:nonzero;fill:currentColor;fill-opacity:1;" d="M 208.476562 68.925781 L 222.359375 68.925781 L 222.359375 135.308594 L 208.476562 135.308594 Z M 208.476562 68.925781 "/></g></g><g clip-rule="nonzero" clip-path="url(#ad1ccf617c)"><g clip-rule="nonzero" clip-path="url(#c8e4d0b3d5)"><path style=" stroke:none;fill-rule:nonzero;fill:currentColor;fill-opacity:1;" d="M 129.648438 91.765625 L 166.519531 91.765625 L 166.519531 105.425781 L 129.648438 105.425781 Z M 129.648438 91.765625 "/></g></g><g clip-rule="nonzero" clip-path="url(#ded9fb10cf)"><g clip-rule="nonzero" clip-path="url(#2c5118b250)"><path style=" stroke:none;fill-rule:nonzero;fill:currentColor;fill-opacity:1;" d="M 150.25 91.171875 L 223.539062 91.171875 L 223.539062 106.023438 L 150.25 106.023438 Z M 150.25 91.171875 "/></g></g><g clip-rule="nonzero" clip-path="url(#65b2aea9aa)"><g clip-rule="nonzero" clip-path="url(#ff32bbcc69)"><path style=" stroke:none;fill-rule:nonzero;fill:currentColor;fill-opacity:1;" d="M 207.804688 90.648438 L 244.910156 90.648438 L 244.910156 105.128906 L 207.804688 105.128906 Z M 207.804688 90.648438 "/></g></g><g clip-rule="nonzero" clip-path="url(#19c0c41ee2)"><g clip-rule="nonzero" clip-path="url(#f93aebef90)"><path style=" stroke:none;fill-rule:nonzero;fill:currentColor;fill-opacity:1;" d="M 226.761719 94.453125 L 241.171875 94.453125 L 241.171875 158.214844 L 226.761719 158.214844 Z M 226.761719 94.453125 "/></g></g><g clip-rule="nonzero" clip-path="url(#143d4ce9b7)"><g clip-rule="nonzero" clip-path="url(#56f6f62e6c)"><path style=" stroke:none;fill-rule:nonzero;fill:currentColor;fill-opacity:1;" d="M 134.128906 94.679688 L 149.28125 94.679688 L 149.28125 157.242188 L 134.128906 157.242188 Z M 134.128906 94.679688 "/></g></g><g clip-rule="nonzero" clip-path="url(#33aa621969)"><g clip-rule="nonzero" clip-path="url(#b7bc56afc6)"><path style=" stroke:none;fill-rule:nonzero;fill:currentColor;fill-opacity:1;" d="M 136.964844 122.296875 L 194.003906 122.296875 L 194.003906 137.003906 L 136.964844 137.003906 Z M 136.964844 122.296875 "/></g></g><g clip-rule="nonzero" clip-path="url(#3ec4742912)"><g clip-rule="nonzero" clip-path="url(#327b6abade)"><path style=" stroke:none;fill-rule:nonzero;fill:currentColor;fill-opacity:1;" d="M 178.839844 121.773438 L 236.785156 121.773438 L 236.785156 135.808594 L 178.839844 135.808594 Z M 178.839844 121.773438 "/></g></g><g clip-rule="nonzero" clip-path="url(#2799c8cb05)"><g clip-rule="nonzero" clip-path="url(#bb5da6a7a8)"><path style=" stroke:none;fill-rule:nonzero;fill:currentColor;fill-opacity:1;" d="M 135.324219 144.390625 L 198.828125 144.390625 L 198.828125 157.828125 L 135.324219 157.828125 Z M 135.324219 144.390625 "/></g></g><g clip-rule="nonzero" clip-path="url(#91fbc41f18)"><g clip-rule="nonzero" clip-path="url(#71aef8892d)"><path style=" stroke:none;fill-rule:nonzero;fill:currentColor;fill-opacity:1;" d="M 179.585938 143.796875 L 239.996094 143.796875 L 239.996094 157.828125 L 179.585938 157.828125 Z M 179.585938 143.796875 "/></g></g><g clip-rule="nonzero" clip-path="url(#9b8981ec02)"><g clip-rule="nonzero" clip-path="url(#5f06c6a503)"><path style=" stroke:none;fill-rule:nonzero;fill:currentColor;fill-opacity:1;" d="M 135.25 148.796875 L 159.359375 148.796875 L 159.359375 232.523438 L 135.25 232.523438 Z M 135.25 148.796875 "/></g></g><g clip-rule="nonzero" clip-path="url(#730dbeb16b)"><g clip-rule="nonzero" clip-path="url(#7addd87851)"><path style=" stroke:none;fill-rule:nonzero;fill:currentColor;fill-opacity:1;" d="M 119.648438 212.46875 L 150.175781 212.46875 L 150.175781 337.09375 L 119.648438 337.09375 Z M 119.648438 212.46875 "/></g></g><g clip-rule="nonzero" clip-path="url(#67ce3ecf9b)"><g clip-rule="nonzero" clip-path="url(#b22ac933fb)"><path style=" stroke:none;fill-rule:nonzero;fill:currentColor;fill-opacity:1;" d="M 214.445312 148.273438 L 239.976562 148.273438 L 239.976562 239.917969 L 214.445312 239.917969 Z M 214.445312 148.273438 "/></g></g><g clip-rule="nonzero" clip-path="url(#86fd7489fd)"><g clip-rule="nonzero" clip-path="url(#16e911baa4)"><path style=" stroke:none;fill-rule:nonzero;fill:currentColor;fill-opacity:1;" d="M 225.71875 217.769531 L 255.351562 217.769531 L 255.351562 337.464844 L 225.71875 337.464844 Z M 225.71875 217.769531 "/></g></g><g clip-rule="nonzero" clip-path="url(#cae878b3dc)"><g clip-rule="nonzero" clip-path="url(#8b1d28ab1f)"><path style=" stroke:none;fill-rule:nonzero;fill:currentColor;fill-opacity:1;" d="M 119.648438 322.496094 L 255.136719 322.496094 L 255.136719 337.351562 L 119.648438 337.351562 Z M 119.648438 322.496094 "/></g></g></g></svg>