<svg xmlns="http://www.w3.org/2000/svg" xmlns:xlink="http://www.w3.org/1999/xlink" width="500" zoomAndPan="magnify" viewBox="0 0 375 374.999991" height="500" preserveAspectRatio="xMidYMid meet" version="1.2"><defs><clipPath id="e70f20d367"><path d="M 47.859375 172.554688 L 206.320312 172.554688 L 206.320312 241.082031 L 47.859375 241.082031 Z M 47.859375 172.554688 "/></clipPath><clipPath id="58edcf8d50"><path d="M 47.910156 236.394531 C 50.78125 228.300781 52.84375 224.328125 54.753906 220.945312 C 56.742188 217.484375 58.875 213.878906 61.230469 210.714844 C 63.511719 207.550781 65.792969 204.902344 68.664062 201.886719 C 72.046875 198.425781 75.578125 194.746094 80.4375 191.363281 C 86.835938 186.800781 97.214844 181.0625 104.351562 178.042969 C 109.796875 175.691406 113.84375 174.4375 119.214844 173.554688 C 125.25 172.527344 133.710938 172.597656 138.789062 172.894531 C 141.953125 173.039062 143.128906 173.1875 146.515625 174.070312 C 153.355469 175.835938 168.664062 181.429688 176.683594 185.476562 C 182.421875 188.417969 186.394531 190.921875 190.8125 194.675781 C 195.59375 198.722656 201.773438 205.859375 204.054688 209.023438 C 205.085938 210.496094 205.75 211.378906 205.96875 212.40625 C 206.117188 213.21875 206.117188 214.027344 205.675781 214.761719 C 205.234375 215.570312 203.984375 216.675781 202.953125 216.824219 C 201.996094 217.042969 200.378906 216.527344 199.714844 215.792969 C 198.980469 215.058594 198.539062 213.4375 198.757812 212.480469 C 198.980469 211.453125 200.082031 210.199219 200.964844 209.832031 C 201.703125 209.464844 202.585938 209.464844 203.320312 209.683594 C 204.054688 209.832031 204.867188 210.273438 205.234375 210.9375 C 205.824219 211.746094 206.191406 213.363281 205.824219 214.394531 C 205.527344 215.351562 204.351562 216.457031 203.394531 216.75 C 202.363281 217.042969 201.332031 216.824219 200.007812 216.011719 C 196.84375 214.175781 190.957031 204.828125 187.351562 201.371094 C 185 199.164062 183.527344 198.058594 181.097656 196.441406 C 178.15625 194.453125 174.992188 192.6875 170.648438 190.699219 C 164.175781 187.757812 151.371094 182.828125 145.335938 181.28125 C 142.097656 180.472656 140.628906 180.398438 137.683594 180.253906 C 133.488281 179.957031 127.601562 179.664062 122.671875 180.398438 C 117.59375 181.0625 113.035156 182.460938 107.734375 184.59375 C 101.1875 187.242188 92.503906 191.953125 86.542969 196.074219 C 81.613281 199.53125 77.125 203.871094 73.960938 207.035156 C 71.753906 209.242188 70.574219 210.640625 68.808594 212.921875 C 66.675781 215.71875 64.394531 219.03125 62.1875 222.855469 C 59.464844 227.714844 56.375 237.5 54.167969 239.855469 C 53.285156 240.664062 52.546875 240.886719 51.8125 240.957031 C 51.222656 241.105469 50.632812 241.03125 50.046875 240.738281 C 49.382812 240.441406 48.5 239.707031 48.132812 238.972656 C 47.765625 238.234375 47.910156 236.394531 47.910156 236.394531 "/></clipPath><clipPath id="1cd096f8b6"><path d="M 182.261719 206.457031 L 220.675781 206.457031 L 220.675781 317.605469 L 182.261719 317.605469 Z M 182.261719 206.457031 "/></clipPath><clipPath id="e4cdec1551"><path d="M 204.351562 208.507812 C 215.828125 228.007812 217.890625 233.160156 219.066406 238.308594 C 220.171875 243.460938 220.171875 248.464844 220.390625 254.054688 C 220.6875 260.3125 220.757812 269.949219 220.316406 273.996094 C 220.097656 275.835938 220.023438 276.425781 219.507812 277.898438 C 218.773438 279.882812 217.523438 282.164062 215.828125 284.886719 C 213.035156 289.230469 208.25 295.703125 203.761719 300.855469 C 199.050781 306.375 191.03125 315.203125 187.941406 316.898438 C 186.984375 317.410156 186.46875 317.558594 185.660156 317.410156 C 184.703125 317.191406 183.304688 316.382812 182.789062 315.5 C 182.347656 314.542969 182.421875 312.921875 182.789062 312.039062 C 183.085938 311.304688 183.820312 310.714844 184.484375 310.421875 C 185.144531 310.054688 186.101562 309.90625 186.835938 310.125 C 187.722656 310.421875 189.117188 311.453125 189.488281 312.335938 C 189.855469 313.289062 189.558594 314.984375 189.117188 315.792969 C 188.75 316.457031 187.941406 316.96875 187.277344 317.191406 C 186.542969 317.484375 185.585938 317.484375 184.925781 317.191406 C 184.1875 316.96875 183.378906 316.527344 183.011719 315.792969 C 182.570312 314.984375 182.128906 313.878906 182.644531 312.40625 C 184.1875 307.699219 200.304688 294.527344 205.308594 287.832031 C 208.324219 283.785156 210.382812 279.957031 211.636719 277.308594 C 212.296875 275.910156 212.59375 275.46875 212.886719 273.777344 C 213.546875 269.949219 213.328125 260.382812 213.035156 254.128906 C 212.738281 248.390625 212.519531 242.578125 211.339844 237.792969 C 210.382812 233.746094 209.058594 230.804688 207.148438 226.902344 C 204.71875 221.898438 197.800781 213.511719 197.433594 210.421875 C 197.359375 209.242188 197.800781 208.582031 198.316406 207.917969 C 198.832031 207.332031 199.863281 206.816406 200.597656 206.667969 C 201.1875 206.519531 201.773438 206.59375 202.363281 206.816406 C 203.027344 207.109375 204.351562 208.507812 204.351562 208.507812 "/></clipPath><clipPath id="5eabc7c77b"><path d="M 45 232.074219 L 95 232.074219 L 95 323.625 L 45 323.625 Z M 45 232.074219 "/></clipPath><clipPath id="91f7735617"><path d="M 56.007812 236.101562 C 52.472656 255.675781 52.253906 257.074219 52.621094 260.238281 C 53.210938 265.683594 55.566406 276.5 57.992188 282.460938 C 59.757812 286.949219 62.1875 290.554688 64.394531 293.570312 C 66.160156 296 67.78125 297.46875 69.914062 299.605469 C 72.5625 302.105469 76.09375 305.050781 79.183594 307.625 C 82.277344 310.054688 85.734375 312.777344 88.53125 314.542969 C 90.589844 315.867188 93.164062 316.457031 94.121094 317.558594 C 94.710938 318.292969 94.933594 319.03125 94.933594 319.765625 C 94.933594 320.503906 94.710938 321.457031 94.269531 322.046875 C 93.828125 322.636719 93.09375 323.226562 92.355469 323.445312 C 91.398438 323.667969 89.78125 323.445312 88.972656 322.785156 C 88.164062 322.195312 87.5 320.648438 87.574219 319.621094 C 87.648438 318.589844 88.675781 317.265625 89.414062 316.75 C 90.074219 316.308594 91.03125 316.160156 91.769531 316.234375 C 92.503906 316.382812 93.3125 316.675781 93.828125 317.265625 C 94.492188 318 95.003906 319.621094 94.859375 320.574219 C 94.785156 321.386719 94.269531 322.121094 93.753906 322.636719 C 93.164062 323.152344 92.429688 323.519531 91.546875 323.59375 C 90.371094 323.667969 88.824219 323.226562 86.984375 322.339844 C 83.671875 320.722656 78.523438 316.527344 74.253906 312.996094 C 69.398438 309.023438 63.511719 304.238281 59.613281 299.457031 C 56.226562 295.1875 53.796875 291.363281 51.589844 286.066406 C 48.867188 279.664062 46.367188 269.65625 45.558594 263.402344 C 44.96875 258.988281 45.042969 256.191406 45.484375 251.996094 C 46 246.625 47.542969 236.46875 49.238281 233.820312 C 49.824219 232.789062 50.632812 232.496094 51.296875 232.277344 C 51.886719 232.054688 52.472656 232.054688 53.0625 232.203125 C 53.796875 232.347656 54.753906 232.9375 55.269531 233.601562 C 55.785156 234.261719 56.007812 236.101562 56.007812 236.101562 "/></clipPath><clipPath id="b493eb630d"><path d="M 86.515625 305.683594 L 194.550781 305.683594 L 194.550781 335.199219 L 86.515625 335.199219 Z M 86.515625 305.683594 "/></clipPath><clipPath id="5ee6d2e2eb"><path d="M 91.621094 316.085938 C 107.074219 324.109375 111.414062 325.726562 114.0625 326.460938 C 115.609375 326.902344 115.976562 327.050781 117.742188 327.273438 C 122.15625 327.714844 134.59375 327.640625 141.070312 326.976562 C 145.777344 326.460938 148.941406 325.726562 153.136719 324.476562 C 157.917969 323.078125 163.144531 320.796875 168 318.589844 C 172.855469 316.453125 178.523438 313.953125 182.203125 311.597656 C 184.925781 309.90625 186.691406 307.257812 188.605469 306.449219 C 189.855469 305.859375 191.03125 305.566406 191.988281 305.933594 C 192.945312 306.226562 194.050781 307.550781 194.34375 308.433594 C 194.636719 309.171875 194.492188 310.125 194.195312 310.789062 C 193.902344 311.453125 193.386719 312.1875 192.652344 312.554688 C 191.769531 312.996094 190.074219 313.070312 189.191406 312.703125 C 188.457031 312.40625 187.867188 311.746094 187.5 311.082031 C 187.207031 310.421875 187.058594 309.464844 187.207031 308.730469 C 187.277344 307.992188 187.648438 307.183594 188.308594 306.667969 C 189.046875 306.078125 190.664062 305.636719 191.621094 305.785156 C 192.429688 305.933594 193.164062 306.449219 193.609375 307.035156 C 194.121094 307.625 194.417969 308.507812 194.492188 309.242188 C 194.492188 309.980469 194.34375 310.640625 193.828125 311.453125 C 192.945312 312.921875 190.886719 314.910156 188.457031 316.601562 C 184.925781 319.105469 179.113281 321.753906 173.886719 324.109375 C 168.148438 326.757812 161.378906 329.699219 155.34375 331.464844 C 149.972656 333.011719 145.484375 333.96875 139.671875 334.554688 C 132.605469 335.21875 122.96875 335.585938 116.050781 334.410156 C 110.3125 333.453125 105.601562 331.464844 100.820312 329.332031 C 96.109375 327.273438 89.339844 324.109375 87.574219 321.972656 C 86.765625 321.089844 86.617188 320.355469 86.617188 319.546875 C 86.617188 318.734375 86.984375 317.707031 87.5 317.117188 C 88.089844 316.453125 89.117188 316.011719 89.855469 315.867188 C 90.441406 315.792969 91.621094 316.085938 91.621094 316.085938 "/></clipPath><clipPath id="b4f4353846"><path d="M 53.234375 278.582031 L 142 278.582031 L 142 331.433594 L 53.234375 331.433594 Z M 53.234375 278.582031 "/></clipPath><clipPath id="9191ef072d"><path d="M 56.890625 278.78125 C 66.160156 279.367188 69.621094 280.179688 73.886719 282.460938 C 81.320312 286.359375 95.226562 300.707031 101.847656 303.726562 C 105.011719 305.125 107.292969 305.125 109.429688 305.34375 C 110.824219 305.492188 111.929688 305.566406 113.105469 305.269531 C 114.359375 304.976562 115.386719 303.945312 116.710938 303.652344 C 118.109375 303.355469 119.875 303.210938 121.273438 303.578125 C 122.527344 303.796875 123.1875 304.09375 124.585938 305.195312 C 128.265625 308.214844 140.1875 321.972656 141.511719 326.167969 C 142.023438 327.714844 141.878906 328.742188 141.363281 329.625 C 140.847656 330.507812 139.375 331.320312 138.417969 331.390625 C 137.390625 331.464844 135.917969 330.730469 135.253906 329.921875 C 134.667969 329.113281 134.371094 327.492188 134.742188 326.535156 C 135.035156 325.578125 136.210938 324.402344 137.242188 324.179688 C 138.199219 323.886719 139.816406 324.253906 140.628906 324.917969 C 141.363281 325.578125 141.878906 327.199219 141.878906 328.15625 C 141.804688 328.890625 141.363281 329.699219 140.847656 330.214844 C 140.332031 330.804688 139.523438 331.246094 138.789062 331.320312 C 138.050781 331.464844 137.464844 331.539062 136.507812 330.949219 C 133.046875 329.113281 122.597656 311.597656 118.550781 310.714844 C 116.859375 310.347656 115.828125 312.1875 114.429688 312.554688 C 113.035156 312.847656 111.929688 312.847656 110.238281 312.703125 C 107.367188 312.554688 102.214844 311.746094 99.050781 310.496094 C 96.402344 309.464844 95.152344 308.359375 92.355469 306.375 C 86.984375 302.695312 75.800781 291.878906 70.207031 288.789062 C 67.191406 287.167969 65.203125 286.875 62.628906 286.285156 C 60.199219 285.84375 56.667969 286.433594 55.125 285.695312 C 54.242188 285.253906 53.726562 284.519531 53.429688 283.710938 C 53.136719 282.972656 53.210938 281.871094 53.429688 281.136719 C 53.578125 280.546875 53.945312 280.03125 54.386719 279.664062 C 54.976562 279.222656 56.890625 278.78125 56.890625 278.78125 "/></clipPath><clipPath id="e69abd1412"><path d="M 85.078125 174.886719 L 146.328125 174.886719 L 146.328125 199.9375 L 85.078125 199.9375 Z M 85.078125 174.886719 "/></clipPath><clipPath id="8e780c3cc2"><path d="M 88.824219 188.347656 C 112.445312 188.417969 118.773438 191.582031 122.230469 192.171875 C 123.925781 192.46875 124.734375 192.6875 126.132812 192.320312 C 128.117188 191.878906 131.136719 190.40625 132.976562 188.789062 C 134.8125 187.167969 136.285156 184.742188 137.316406 182.753906 C 138.199219 180.914062 138.347656 178.632812 139.082031 177.382812 C 139.523438 176.5 139.890625 175.910156 140.554688 175.542969 C 141.140625 175.101562 142.097656 174.878906 142.835938 174.953125 C 143.570312 175.027344 144.453125 175.320312 144.96875 175.910156 C 145.632812 176.574219 146.21875 178.191406 146.144531 179.148438 C 146.144531 179.882812 145.703125 180.695312 145.117188 181.207031 C 144.378906 181.871094 142.835938 182.460938 141.804688 182.238281 C 140.847656 182.019531 139.523438 180.988281 139.15625 180.105469 C 138.714844 179.148438 138.859375 177.457031 139.449219 176.644531 C 139.964844 175.761719 141.4375 175.027344 142.394531 174.953125 C 143.203125 174.878906 144.085938 175.101562 144.675781 175.617188 C 145.410156 176.277344 146.074219 177.457031 146.21875 178.707031 C 146.367188 180.695312 144.820312 183.859375 143.71875 186.210938 C 142.6875 188.492188 141.65625 190.699219 139.746094 192.6875 C 137.464844 195.117188 133.417969 198.058594 130.324219 199.164062 C 127.824219 200.046875 125.910156 199.972656 122.820312 199.679688 C 117.890625 199.238281 109.871094 195.558594 103.761719 194.96875 C 98.242188 194.378906 90.664062 196.441406 87.941406 195.632812 C 86.765625 195.261719 86.25 194.820312 85.808594 194.160156 C 85.292969 193.496094 85.070312 192.394531 85.144531 191.582031 C 85.21875 190.773438 85.734375 189.816406 86.394531 189.304688 C 86.984375 188.789062 88.824219 188.347656 88.824219 188.347656 "/></clipPath><clipPath id="1670c158c0"><path d="M 84.628906 206 L 172.449219 206 L 172.449219 291.964844 L 84.628906 291.964844 Z M 84.628906 206 "/></clipPath><clipPath id="2c64272978"><path d="M 104.277344 276.941406 C 103.984375 269.214844 103.835938 268.109375 102.953125 266.933594 C 101.847656 265.316406 99.347656 263.621094 97.140625 262.152344 C 94.785156 260.53125 90.957031 259.429688 89.117188 257.882812 C 87.867188 256.777344 87.132812 255.601562 86.542969 254.425781 C 85.953125 253.320312 85.585938 252.289062 85.367188 250.890625 C 85 248.90625 84.777344 245.742188 85.070312 243.3125 C 85.441406 240.886719 86.46875 238.53125 87.5 236.25 C 88.53125 233.820312 89.855469 231.246094 91.472656 229.039062 C 93.09375 226.902344 94.5625 225.285156 97.140625 223.296875 C 101.113281 220.207031 108.988281 216.160156 113.988281 213.660156 C 117.816406 211.746094 121.203125 210.273438 124.4375 209.097656 C 127.160156 208.140625 129.074219 207.476562 132.164062 207.035156 C 136.433594 206.375 143.421875 205.933594 147.765625 206.375 C 150.929688 206.742188 153.136719 207.332031 155.859375 208.582031 C 159.097656 210.199219 163.070312 213.289062 165.570312 215.71875 C 167.632812 217.707031 169.175781 219.175781 170.207031 221.679688 C 171.605469 224.84375 171.972656 230.582031 172.195312 233.601562 C 172.269531 235.367188 172.269531 236.542969 172.046875 237.941406 C 171.828125 239.191406 171.605469 240.296875 170.945312 241.621094 C 169.988281 243.535156 167.851562 245.960938 166.011719 247.949219 C 164.027344 250.007812 161.082031 250.820312 159.464844 253.761719 C 157.035156 258.25 157.257812 270.316406 156.226562 274.367188 C 155.785156 276.132812 155.492188 276.867188 154.902344 278.042969 C 154.238281 279.148438 153.285156 280.253906 152.472656 281.207031 C 151.589844 282.238281 151.003906 283.121094 149.679688 284.152344 C 147.46875 285.84375 142.613281 288.640625 139.304688 289.816406 C 136.652344 290.847656 134.59375 291.070312 131.796875 291.4375 C 128.265625 291.878906 122.597656 292.023438 119.730469 291.878906 C 118.109375 291.730469 117.226562 291.582031 116.050781 291.214844 C 114.800781 290.847656 113.695312 290.113281 112.519531 289.523438 C 111.339844 288.859375 110.089844 288.273438 109.058594 287.390625 C 108.03125 286.582031 107.148438 285.695312 106.410156 284.371094 C 105.378906 282.605469 104.351562 279.589844 104.128906 277.382812 C 103.910156 275.394531 103.910156 272.894531 104.792969 271.714844 C 105.453125 270.757812 107 270.246094 107.957031 270.246094 C 108.691406 270.246094 109.574219 270.539062 110.089844 271.128906 C 110.753906 271.789062 111.414062 273.335938 111.414062 274.292969 C 111.339844 275.101562 110.972656 275.910156 110.382812 276.425781 C 109.648438 277.089844 108.101562 277.601562 107.148438 277.53125 C 106.335938 277.457031 105.527344 277.089844 105.085938 276.425781 C 104.425781 275.691406 103.984375 274.070312 104.128906 273.113281 C 104.203125 272.304688 104.792969 271.570312 105.308594 271.128906 C 105.894531 270.613281 106.777344 270.246094 107.515625 270.246094 C 108.25 270.171875 109.207031 270.464844 109.796875 270.832031 C 110.382812 271.273438 110.753906 271.789062 111.195312 272.746094 C 112.078125 274.585938 112.152344 279.957031 113.546875 281.796875 C 114.503906 282.972656 115.976562 283.269531 117.226562 283.710938 C 118.40625 284.152344 119.214844 284.371094 120.832031 284.519531 C 124.144531 284.667969 131.503906 284.59375 135.917969 283.269531 C 139.746094 282.089844 143.863281 279.296875 146 277.53125 C 147.175781 276.5 147.839844 275.691406 148.425781 274.585938 C 149.015625 273.480469 149.164062 272.746094 149.53125 271.054688 C 150.488281 267.082031 151.371094 254.71875 152.695312 250.964844 C 153.285156 249.421875 153.503906 248.980469 154.535156 247.800781 C 156.226562 245.667969 161.378906 242.429688 163.070312 240.296875 C 164.027344 239.046875 164.46875 238.382812 164.835938 236.984375 C 165.277344 234.925781 164.910156 231.171875 164.542969 228.964844 C 164.320312 227.273438 164.175781 226.09375 163.363281 224.695312 C 162.335938 222.785156 160.199219 220.429688 158.214844 218.808594 C 156.300781 217.117188 153.503906 215.570312 151.519531 214.761719 C 150.046875 214.101562 149.164062 213.953125 147.46875 213.734375 C 144.527344 213.4375 138.789062 213.585938 135.183594 214.027344 C 132.3125 214.394531 130.324219 214.910156 127.601562 215.792969 C 124.144531 216.96875 120.171875 218.734375 116.269531 220.722656 C 112.003906 222.855469 105.96875 226.535156 103.027344 228.375 C 101.554688 229.332031 100.820312 229.625 99.714844 230.65625 C 98.242188 232.128906 96.550781 234.628906 95.300781 236.835938 C 94.121094 238.972656 92.871094 241.695312 92.429688 243.679688 C 92.210938 245.152344 92.355469 246.257812 92.429688 247.507812 C 92.578125 248.757812 92.28125 249.9375 93.164062 251.261719 C 94.859375 253.835938 102.953125 256.558594 106.042969 259.429688 C 108.324219 261.5625 110.015625 263.988281 110.898438 266.050781 C 111.5625 267.667969 111.488281 268.847656 111.636719 270.613281 C 111.707031 272.894531 112.003906 277.015625 111.195312 278.632812 C 110.753906 279.589844 110.015625 280.105469 109.207031 280.398438 C 108.472656 280.695312 107.367188 280.695312 106.632812 280.398438 C 105.894531 280.105469 105.085938 279.296875 104.644531 278.632812 C 104.351562 278.117188 104.277344 276.941406 104.277344 276.941406 "/></clipPath><clipPath id="ed5a0cd6c6"><path d="M 183.65625 197.75 L 199.464844 197.75 L 199.464844 309.75 L 183.65625 309.75 Z M 183.65625 197.75 "/></clipPath><clipPath id="9b439e98eb"><path d="M 194.933594 200.929688 C 198.167969 219.546875 198.464844 226.390625 197.507812 232.570312 C 196.402344 239.117188 191.769531 248.167969 191.105469 252.144531 C 190.8125 253.835938 190.589844 254.570312 191.03125 255.894531 C 191.695312 257.734375 194.5625 259.648438 195.816406 261.855469 C 197.066406 264.0625 198.097656 266.199219 198.683594 268.992188 C 199.421875 272.378906 199.714844 277.160156 199.199219 281.0625 C 198.683594 284.8125 196.84375 288.050781 195.886719 292.023438 C 194.859375 296.660156 194.5625 304.609375 193.460938 307.183594 C 193.019531 308.140625 192.652344 308.582031 192.0625 309.023438 C 191.398438 309.464844 190.515625 309.683594 189.78125 309.613281 C 189.046875 309.613281 188.164062 309.242188 187.574219 308.800781 C 187.058594 308.289062 186.46875 307.550781 186.394531 306.742188 C 186.25 305.785156 186.691406 304.167969 187.277344 303.429688 C 187.792969 302.84375 188.605469 302.402344 189.414062 302.328125 C 190.371094 302.253906 191.914062 302.84375 192.652344 303.429688 C 193.238281 303.945312 193.535156 304.828125 193.609375 305.566406 C 193.679688 306.300781 193.609375 307.257812 193.09375 307.847656 C 192.578125 308.65625 191.105469 309.539062 190.148438 309.683594 C 189.414062 309.757812 188.53125 309.539062 187.941406 309.023438 C 187.132812 308.433594 186.542969 307.40625 186.324219 306.007812 C 185.808594 303.0625 187.5 296.367188 188.53125 292.023438 C 189.414062 287.976562 191.328125 283.488281 191.769531 280.695312 C 192.0625 279.074219 191.914062 278.117188 191.914062 276.867188 C 191.914062 275.542969 192.136719 274.4375 191.914062 272.96875 C 191.695312 270.90625 191.253906 267.890625 190.074219 265.757812 C 188.898438 263.476562 185.441406 261.636719 184.484375 259.722656 C 183.820312 258.398438 183.746094 257.367188 183.671875 255.894531 C 183.601562 253.761719 183.894531 251.039062 184.484375 248.316406 C 185.292969 245.078125 187.5 240.957031 188.457031 237.648438 C 189.339844 234.851562 189.929688 232.863281 190.296875 229.847656 C 190.738281 225.578125 190.664062 219.398438 190.222656 214.46875 C 189.78125 209.832031 187.277344 203.652344 187.648438 201.074219 C 187.792969 199.898438 188.164062 199.308594 188.824219 198.722656 C 189.414062 198.207031 190.371094 197.765625 191.253906 197.765625 C 192.0625 197.765625 193.019531 198.132812 193.679688 198.648438 C 194.269531 199.164062 194.933594 200.929688 194.933594 200.929688 "/></clipPath><clipPath id="92f0e680f5"><path d="M 146.453125 114.242188 L 171.566406 114.242188 L 171.566406 171.550781 L 146.453125 171.550781 Z M 146.453125 114.242188 "/></clipPath><clipPath id="f9a619af56"><path d="M 163.953125 167.816406 C 161.746094 139.632812 160.496094 133.671875 160.199219 129.332031 C 159.980469 126.316406 159.097656 123.152344 160.199219 121.753906 C 161.011719 120.648438 164.761719 120.429688 164.835938 120.574219 C 164.910156 120.796875 162.996094 121.898438 161.523438 122.488281 C 159.023438 123.59375 152.914062 125.578125 150.632812 125.652344 C 149.605469 125.726562 149.015625 125.652344 148.355469 125.210938 C 147.542969 124.621094 146.585938 123.296875 146.515625 122.269531 C 146.441406 121.238281 147.101562 119.765625 147.839844 119.105469 C 148.648438 118.515625 150.265625 118.222656 151.222656 118.515625 C 152.253906 118.808594 153.355469 120.0625 153.652344 120.945312 C 153.945312 121.679688 153.871094 122.5625 153.578125 123.296875 C 153.355469 123.960938 152.769531 124.695312 152.105469 125.136719 C 151.519531 125.507812 150.632812 125.800781 149.824219 125.652344 C 148.941406 125.507812 147.46875 124.621094 146.957031 123.8125 C 146.515625 123.152344 146.441406 122.195312 146.515625 121.457031 C 146.585938 120.722656 146.808594 120.0625 147.542969 119.398438 C 149.457031 117.707031 157.773438 115.128906 160.863281 114.617188 C 162.480469 114.320312 163.585938 114.027344 164.617188 114.542969 C 165.792969 115.203125 166.457031 116.308594 167.265625 118.589844 C 169.765625 125.726562 172.195312 161.929688 171.3125 167.816406 C 171.164062 169.214844 170.945312 169.65625 170.429688 170.246094 C 169.839844 170.90625 168.882812 171.421875 168.074219 171.496094 C 167.265625 171.570312 166.234375 171.421875 165.570312 170.832031 C 164.761719 170.246094 163.953125 167.816406 163.953125 167.816406 "/></clipPath><clipPath id="c7ff3c7010"><path d="M 137.597656 86.742188 L 163.375 86.742188 L 163.375 125.710938 L 137.597656 125.710938 Z M 137.597656 86.742188 "/></clipPath><clipPath id="167fcf20cc"><path d="M 146.515625 121.605469 C 149.089844 109.171875 155.492188 89.082031 157.257812 89.082031 C 157.992188 89.082031 158.875 91.65625 158.730469 92.761719 C 158.582031 93.863281 157.332031 94.894531 156.375 95.703125 C 155.492188 96.515625 154.609375 96.882812 153.136719 97.46875 C 150.5625 98.574219 144.304688 101.148438 141.65625 101.003906 C 140.257812 100.929688 139.15625 100.414062 138.492188 99.75 C 137.90625 99.164062 137.683594 98.28125 137.609375 97.542969 C 137.609375 96.808594 137.757812 95.925781 138.273438 95.261719 C 138.859375 94.527344 140.257812 93.644531 141.289062 93.644531 C 142.320312 93.71875 143.71875 94.527344 144.304688 95.335938 C 144.820312 95.925781 145.042969 96.808594 144.96875 97.542969 C 144.820312 98.5 143.9375 99.972656 143.203125 100.488281 C 142.539062 101.003906 141.582031 101.074219 140.847656 101.003906 C 140.113281 100.929688 139.304688 100.632812 138.789062 100.046875 C 138.125 99.308594 137.609375 97.691406 137.683594 96.734375 C 137.757812 96 138.050781 95.335938 138.789062 94.675781 C 140.332031 93.421875 145.042969 92.910156 148.28125 91.730469 C 151.738281 90.40625 156.226562 87.09375 158.875 86.875 C 160.421875 86.800781 161.894531 87.023438 162.628906 87.976562 C 163.585938 89.230469 163.363281 91.878906 162.921875 94.675781 C 162.113281 99.824219 156.519531 110.570312 154.902344 116.011719 C 153.945312 119.324219 154.238281 122.5625 153.210938 124.109375 C 152.621094 124.917969 151.738281 125.359375 151.074219 125.578125 C 150.488281 125.726562 149.898438 125.726562 149.308594 125.578125 C 148.574219 125.359375 147.617188 124.769531 147.175781 124.109375 C 146.660156 123.445312 146.515625 121.605469 146.515625 121.605469 "/></clipPath><clipPath id="b61392ac72"><path d="M 137.519531 40 L 185.175781 40 L 185.175781 101.179688 L 137.519531 101.179688 Z M 137.519531 40 "/></clipPath><clipPath id="def4257c9c"><path d="M 137.976562 95.777344 C 150.414062 75.394531 158.582031 63.769531 164.617188 56.265625 C 169.472656 50.304688 174.917969 42.796875 178.597656 40.886719 C 180.289062 40 181.980469 39.855469 183.085938 40.441406 C 184.1875 41.03125 185 42.796875 185.144531 44.417969 C 185.292969 46.550781 183.820312 48.980469 182.496094 52.363281 C 180.140625 58.617188 173.960938 75.394531 171.3125 78.414062 C 170.574219 79.296875 170.0625 79.515625 169.324219 79.589844 C 168.367188 79.738281 166.75 79.296875 166.011719 78.707031 C 165.351562 78.191406 164.984375 77.308594 164.910156 76.574219 C 164.761719 75.835938 164.835938 74.953125 165.277344 74.292969 C 165.792969 73.480469 167.191406 72.527344 168.148438 72.378906 C 168.882812 72.230469 169.765625 72.378906 170.429688 72.894531 C 171.164062 73.410156 172.046875 74.878906 172.195312 75.835938 C 172.269531 76.574219 171.972656 77.457031 171.53125 78.042969 C 171.164062 78.707031 170.355469 79.296875 169.691406 79.515625 C 168.957031 79.738281 168.074219 79.738281 167.339844 79.515625 C 166.601562 79.222656 165.867188 78.707031 165.5 78.042969 C 165.058594 77.457031 164.761719 76.941406 164.835938 75.835938 C 165.058594 71.644531 172.929688 51.40625 176.316406 47.800781 C 177.492188 46.550781 178.523438 46.328125 179.699219 46.183594 C 180.878906 45.960938 183.085938 45.960938 183.304688 46.699219 C 183.96875 48.464844 174.402344 55.894531 169.765625 61.707031 C 163.953125 68.847656 156.300781 79.808594 151.738281 86.875 C 148.5 91.730469 146.144531 97.691406 144.160156 99.679688 C 143.351562 100.488281 142.6875 100.855469 141.878906 101.003906 C 141.140625 101.148438 140.039062 100.929688 139.375 100.488281 C 138.640625 100.046875 137.976562 99.164062 137.757812 98.425781 C 137.535156 97.617188 137.976562 95.777344 137.976562 95.777344 "/></clipPath><clipPath id="bb1076b53d"><path d="M 164.917969 68.390625 L 189.066406 68.390625 L 189.066406 108.949219 L 164.917969 108.949219 Z M 164.917969 68.390625 "/></clipPath><clipPath id="18b198fac3"><path d="M 167.851562 72.378906 C 186.46875 66.933594 188.308594 68.332031 188.824219 69.582031 C 189.339844 70.6875 188.675781 72.085938 188.164062 73.628906 C 187.425781 75.691406 185.734375 77.53125 184.1875 80.695312 C 181.246094 86.652344 176.019531 103.0625 173.078125 106.742188 C 172.046875 108.066406 171.3125 108.65625 170.28125 108.800781 C 169.324219 108.949219 167.78125 108.433594 167.042969 107.625 C 166.382812 106.890625 165.941406 105.269531 166.160156 104.3125 C 166.457031 103.355469 167.632812 102.105469 168.441406 101.738281 C 169.175781 101.371094 170.0625 101.371094 170.796875 101.664062 C 171.679688 101.960938 172.929688 103.136719 173.296875 104.019531 C 173.59375 104.753906 173.519531 105.710938 173.226562 106.375 C 173.003906 107.109375 172.414062 107.847656 171.753906 108.214844 C 171.164062 108.65625 170.28125 108.949219 169.546875 108.800781 C 168.589844 108.65625 167.117188 107.773438 166.601562 107.035156 C 166.160156 106.375 166.011719 105.859375 166.085938 104.683594 C 166.527344 100.5625 174.769531 82.976562 177.859375 76.792969 C 179.480469 73.554688 181.320312 69.582031 181.980469 69.730469 C 182.496094 69.875 183.085938 73.261719 182.203125 74.660156 C 180.804688 76.867188 173.886719 78.632812 171.089844 79.296875 C 169.621094 79.664062 168.441406 79.808594 167.410156 79.515625 C 166.527344 79.222656 165.71875 78.632812 165.351562 77.898438 C 164.910156 77.015625 164.761719 75.394531 165.203125 74.511719 C 165.570312 73.554688 167.851562 72.378906 167.851562 72.378906 "/></clipPath><clipPath id="6186a45da0"><path d="M 164.078125 100.4375 L 182.464844 100.4375 L 182.464844 170.296875 L 164.078125 170.296875 Z M 164.078125 100.4375 "/></clipPath><clipPath id="bb1eed11e5"><path d="M 164.101562 166.640625 C 165.351562 153.246094 171.53125 128.449219 173.296875 118.515625 C 174.179688 113.21875 173.519531 106.890625 174.992188 106.226562 C 175.800781 105.859375 178.300781 107.847656 178.15625 108.214844 C 178.007812 108.800781 172.488281 108.730469 170.574219 108.289062 C 169.324219 107.917969 168.148438 107.40625 167.558594 106.667969 C 167.042969 106.007812 166.898438 105.125 166.898438 104.386719 C 166.96875 103.652344 167.339844 102.769531 167.78125 102.179688 C 168.292969 101.589844 169.105469 101.148438 169.765625 101.003906 C 170.503906 100.855469 171.457031 100.855469 172.121094 101.222656 C 172.929688 101.738281 173.960938 103.0625 174.253906 103.945312 C 174.402344 104.753906 174.179688 105.636719 173.8125 106.300781 C 173.519531 106.960938 172.855469 107.625 172.121094 107.917969 C 171.238281 108.214844 169.546875 108.140625 168.664062 107.699219 C 168 107.40625 167.410156 106.59375 167.191406 105.933594 C 166.898438 105.269531 166.75 104.3125 167.042969 103.578125 C 167.410156 102.695312 168.222656 101.589844 169.398438 101.074219 C 171.386719 100.191406 176.460938 100.339844 178.671875 100.929688 C 180.140625 101.296875 181.320312 101.886719 181.90625 102.84375 C 182.570312 103.871094 182.347656 105.125 182.347656 106.960938 C 182.203125 110.496094 181.097656 116.085938 179.921875 122.414062 C 178.15625 132.421875 173.003906 153.613281 171.898438 161.121094 C 171.457031 164.136719 171.898438 165.976562 171.3125 167.523438 C 171.015625 168.480469 170.503906 169.214844 169.839844 169.65625 C 169.175781 170.097656 168.148438 170.390625 167.339844 170.246094 C 166.527344 170.171875 165.570312 169.65625 164.984375 169.066406 C 164.46875 168.480469 164.101562 166.640625 164.101562 166.640625 "/></clipPath><clipPath id="5a6e3833aa"><path d="M 211.628906 72.519531 L 250.710938 72.519531 L 250.710938 125.910156 L 211.628906 125.910156 Z M 211.628906 72.519531 "/></clipPath><clipPath id="7fb5a091bd"><path d="M 249.75 78.707031 C 229.957031 101.738281 221.644531 116.382812 218.847656 116.160156 C 217.742188 116.011719 216.417969 112.628906 216.785156 112.039062 C 217.152344 111.453125 219.066406 111.894531 220.757812 112.335938 C 223.996094 113.292969 232.3125 117.042969 234.519531 119.25 C 235.550781 120.28125 235.992188 121.386719 236.066406 122.339844 C 236.066406 123.078125 235.769531 123.960938 235.253906 124.550781 C 234.59375 125.210938 233.046875 125.875 232.089844 125.875 C 231.28125 125.875 230.472656 125.433594 229.957031 124.992188 C 229.367188 124.476562 228.855469 123.738281 228.78125 122.929688 C 228.632812 121.972656 229.148438 120.355469 229.738281 119.621094 C 230.253906 119.03125 231.136719 118.664062 231.871094 118.589844 C 232.605469 118.441406 233.488281 118.589844 234.152344 119.03125 C 234.960938 119.546875 235.84375 120.945312 236.066406 121.898438 C 236.140625 122.710938 235.84375 123.59375 235.476562 124.179688 C 235.109375 124.84375 234.371094 125.433594 233.636719 125.652344 C 232.972656 125.949219 232.386719 125.949219 231.28125 125.726562 C 228.558594 125.136719 220.464844 119.914062 217.152344 118.957031 C 215.535156 118.515625 214.210938 119.25 213.328125 118.441406 C 212.222656 117.558594 211.339844 115.5 211.78125 113.363281 C 212.738281 108.289062 223.921875 97.46875 229.738281 90.480469 C 234.8125 84.300781 241.582031 75.394531 244.675781 73.410156 C 245.703125 72.746094 246.367188 72.671875 247.175781 72.671875 C 247.984375 72.746094 248.941406 73.261719 249.53125 73.851562 C 250.121094 74.4375 250.488281 75.394531 250.5625 76.203125 C 250.5625 77.015625 249.75 78.707031 249.75 78.707031 "/></clipPath><clipPath id="6a8d130a93"><path d="M 197.476562 118.496094 L 236.121094 118.496094 L 236.121094 153.339844 L 197.476562 153.339844 Z M 197.476562 118.496094 "/></clipPath><clipPath id="cc6fffd600"><path d="M 233.710938 125.652344 C 225.027344 130.65625 217.964844 136.617188 213.769531 140.589844 C 210.3125 143.828125 207.074219 150.007812 205.011719 149.863281 C 203.761719 149.789062 202.070312 147.140625 202.289062 146.328125 C 202.511719 145.519531 204.054688 145.078125 205.675781 144.785156 C 209.058594 144.050781 219.582031 144.34375 222.304688 145.300781 C 223.335938 145.667969 223.777344 146.109375 224.144531 146.699219 C 224.585938 147.359375 224.878906 148.167969 224.808594 148.980469 C 224.660156 149.9375 223.851562 151.40625 223.039062 151.921875 C 222.15625 152.4375 220.464844 152.511719 219.582031 152.144531 C 218.625 151.703125 217.742188 150.304688 217.523438 149.347656 C 217.300781 148.609375 217.523438 147.726562 217.890625 147.066406 C 218.183594 146.402344 218.847656 145.742188 219.582031 145.445312 C 220.464844 145.078125 222.15625 145.226562 223.039062 145.59375 C 223.703125 145.960938 224.292969 146.699219 224.511719 147.433594 C 224.808594 148.097656 224.953125 149.050781 224.660156 149.789062 C 224.367188 150.671875 223.628906 151.703125 222.304688 152.289062 C 219.289062 153.542969 208.472656 151.480469 204.71875 151.996094 C 202.878906 152.214844 201.921875 153.394531 200.746094 153.171875 C 199.640625 152.953125 198.097656 152.070312 197.726562 150.964844 C 197.214844 149.566406 198.097656 147.214844 199.125 145.226562 C 200.671875 142.429688 203.984375 139.632812 207.441406 136.394531 C 212.296875 131.835938 221.273438 124.109375 225.910156 121.238281 C 228.339844 119.765625 230.324219 118.734375 231.871094 118.589844 C 232.902344 118.515625 233.785156 118.664062 234.445312 119.175781 C 235.183594 119.765625 235.992188 121.238281 236.066406 122.195312 C 236.140625 123.003906 235.625 124.035156 235.183594 124.621094 C 234.742188 125.136719 233.710938 125.652344 233.710938 125.652344 "/></clipPath><clipPath id="02f9ee7bc4"><path d="M 196.597656 145 L 224.832031 145 L 224.832031 186.144531 L 196.597656 186.144531 Z M 196.597656 145 "/></clipPath><clipPath id="ef009604ba"><path d="M 224.4375 150.378906 C 201.773438 185.84375 201.261719 185.992188 200.523438 185.992188 C 199.789062 186.066406 198.90625 185.84375 198.242188 185.476562 C 197.65625 185.109375 196.992188 184.445312 196.773438 183.636719 C 196.476562 182.753906 196.625 181.0625 197.214844 180.253906 C 197.800781 179.441406 199.347656 178.707031 200.304688 178.707031 C 201.039062 178.632812 201.921875 179 202.511719 179.441406 C 203.101562 179.957031 203.613281 180.695312 203.761719 181.429688 C 203.910156 182.386719 203.542969 184.003906 202.953125 184.8125 C 202.511719 185.402344 201.703125 185.84375 200.964844 185.992188 C 200.230469 186.140625 199.273438 185.992188 198.609375 185.695312 C 197.949219 185.328125 197.214844 184.742188 196.917969 184.003906 C 196.550781 183.121094 196.550781 182.089844 196.992188 180.621094 C 197.949219 177.160156 202.730469 170.171875 206.117188 164.800781 C 209.796875 158.839844 215.609375 148.980469 218.257812 146.476562 C 219.214844 145.59375 219.730469 145.300781 220.539062 145.152344 C 221.347656 145.003906 222.378906 145.226562 223.113281 145.667969 C 223.777344 146.109375 224.4375 146.992188 224.660156 147.726562 C 224.878906 148.539062 224.4375 150.378906 224.4375 150.378906 "/></clipPath><clipPath id="2d7579b5a1"><path d="M 196.519531 135.054688 L 244.175781 135.054688 L 244.175781 186.246094 L 196.519531 186.246094 Z M 196.519531 135.054688 "/></clipPath><clipPath id="9800ccfad0"><path d="M 197.140625 180.253906 C 209.574219 166.417969 229.515625 147.726562 234.371094 143.386719 C 235.84375 142.0625 236.507812 140.738281 237.242188 140.957031 C 238.050781 141.105469 239.230469 144.050781 238.789062 144.710938 C 238.417969 145.375 236.433594 145.152344 234.960938 144.859375 C 232.972656 144.492188 229.296875 143.164062 227.824219 141.839844 C 226.941406 140.957031 226.277344 139.78125 226.351562 138.75 C 226.351562 137.722656 227.160156 136.25 228.042969 135.734375 C 228.855469 135.21875 230.546875 135.070312 231.429688 135.441406 C 232.386719 135.882812 233.417969 137.132812 233.636719 138.164062 C 233.785156 139.117188 233.34375 140.738281 232.605469 141.472656 C 231.871094 142.136719 230.253906 142.578125 229.296875 142.429688 C 228.558594 142.355469 227.75 141.839844 227.234375 141.328125 C 226.792969 140.738281 226.351562 139.929688 226.351562 139.117188 C 226.351562 138.164062 226.941406 136.617188 227.675781 135.953125 C 228.484375 135.367188 229.589844 135.21875 231.0625 135.292969 C 234.003906 135.585938 242.835938 137.5 243.9375 140 C 244.746094 141.914062 242.761719 144.710938 240.996094 147.285156 C 238.125 151.40625 231.648438 155.527344 226.277344 160.753906 C 219.214844 167.59375 206.632812 182.460938 202.65625 185.109375 C 201.554688 185.84375 201.039062 186.066406 200.230469 186.066406 C 199.421875 186.066406 198.390625 185.695312 197.800781 185.109375 C 197.140625 184.59375 196.625 183.636719 196.550781 182.828125 C 196.476562 182.019531 197.140625 180.253906 197.140625 180.253906 "/></clipPath><clipPath id="66f406f70f"><path d="M 226.183594 103.636719 L 260.382812 103.636719 L 260.382812 142.613281 L 226.183594 142.613281 Z M 226.183594 103.636719 "/></clipPath><clipPath id="3f03daa161"><path d="M 228.265625 135.585938 C 254.386719 117.925781 255.785156 121.753906 255.417969 122.195312 C 255.125 122.636719 253.429688 121.972656 251.8125 121.3125 C 247.765625 119.621094 234.59375 112.40625 232.3125 109.757812 C 231.578125 108.949219 231.429688 108.433594 231.429688 107.625 C 231.429688 106.667969 232.089844 105.125 232.828125 104.460938 C 233.417969 103.945312 234.300781 103.726562 235.035156 103.652344 C 235.769531 103.652344 236.652344 103.945312 237.242188 104.386719 C 237.832031 104.828125 238.492188 105.566406 238.640625 106.300781 C 238.789062 107.257812 238.566406 108.949219 237.90625 109.683594 C 237.316406 110.496094 235.695312 111.011719 234.742188 111.011719 C 233.929688 111.011719 233.121094 110.640625 232.605469 110.054688 C 231.945312 109.390625 231.28125 107.847656 231.429688 106.816406 C 231.578125 105.859375 232.605469 104.460938 233.488281 104.019531 C 234.371094 103.578125 235.328125 103.726562 236.949219 104.167969 C 241.289062 105.417969 257.847656 113.144531 259.90625 117.042969 C 260.789062 118.808594 260.347656 120.355469 259.316406 122.046875 C 257.550781 124.992188 250.191406 127.859375 246.367188 130.804688 C 242.910156 133.453125 239.964844 136.910156 237.167969 138.898438 C 235.183594 140.296875 233.269531 141.546875 231.722656 142.0625 C 230.765625 142.429688 229.957031 142.578125 229.148438 142.429688 C 228.339844 142.210938 227.457031 141.621094 227.015625 140.957031 C 226.5 140.296875 226.203125 139.265625 226.351562 138.457031 C 226.5 137.5 228.265625 135.585938 228.265625 135.585938 "/></clipPath><clipPath id="20f7a01de7"><path d="M 232.375 74.332031 L 250.71875 74.332031 L 250.71875 111.78125 L 232.375 111.78125 Z M 232.375 74.332031 "/></clipPath><clipPath id="0ec83d3ad2"><path d="M 232.386719 107.699219 C 236.433594 91.363281 240.554688 81.722656 242.613281 78.191406 C 243.570312 76.574219 244.160156 75.542969 245.117188 74.953125 C 245.851562 74.511719 246.660156 74.292969 247.398438 74.4375 C 248.355469 74.660156 249.75 75.542969 250.265625 76.351562 C 250.707031 77.015625 250.78125 77.972656 250.632812 78.707031 C 250.5625 79.441406 250.191406 80.253906 249.605469 80.765625 C 248.867188 81.355469 247.25 81.945312 246.292969 81.722656 C 245.261719 81.503906 244.011719 80.472656 243.644531 79.515625 C 243.277344 78.558594 243.496094 76.941406 244.011719 76.058594 C 244.378906 75.394531 245.042969 74.808594 245.851562 74.660156 C 246.734375 74.4375 248.425781 74.660156 249.238281 75.175781 C 249.898438 75.617188 250.339844 76.425781 250.5625 77.089844 C 250.78125 77.824219 250.707031 78.339844 250.488281 79.441406 C 249.679688 82.753906 244.085938 92.394531 242.171875 97.984375 C 240.628906 102.402344 240.480469 108.140625 239.15625 110.199219 C 238.492188 111.082031 237.757812 111.453125 237.023438 111.671875 C 236.210938 111.894531 235.109375 111.746094 234.371094 111.378906 C 233.710938 111.011719 232.972656 110.125 232.679688 109.464844 C 232.386719 108.875 232.386719 107.699219 232.386719 107.699219 "/></clipPath><clipPath id="47aa126adc"><path d="M 216.890625 157.691406 L 283.125 157.691406 L 283.125 201.339844 L 216.890625 201.339844 Z M 216.890625 157.691406 "/></clipPath><clipPath id="4635aea000"><path d="M 218.992188 194.453125 C 260.125 171.128906 266.160156 168.257812 270.796875 166.199219 C 273.886719 164.871094 276.832031 163.476562 278.523438 163.179688 C 279.332031 163.035156 279.699219 163.035156 280.289062 163.253906 C 281.097656 163.621094 282.421875 164.726562 282.789062 165.609375 C 283.085938 166.34375 282.9375 167.523438 282.71875 168.183594 C 282.496094 168.773438 282.277344 169.289062 281.6875 169.65625 C 280.65625 170.246094 278.226562 170.390625 276.609375 170.390625 C 275.210938 170.390625 274.253906 170.246094 272.488281 169.804688 C 269.03125 168.992188 259.832031 166.269531 257.476562 164.652344 C 256.59375 163.988281 256.226562 163.546875 256.078125 162.8125 C 255.785156 161.855469 256.007812 160.164062 256.519531 159.355469 C 256.960938 158.691406 257.699219 158.25 258.433594 158.03125 C 259.171875 157.808594 260.054688 157.734375 260.789062 158.101562 C 261.671875 158.472656 262.777344 159.722656 263.070312 160.679688 C 263.292969 161.414062 263.144531 162.296875 262.847656 163.035156 C 262.554688 163.695312 262.039062 164.429688 261.304688 164.726562 C 260.421875 165.167969 258.730469 165.316406 257.847656 164.800781 C 256.960938 164.359375 256.078125 162.960938 255.859375 162.003906 C 255.710938 161.265625 255.933594 160.382812 256.300781 159.722656 C 256.667969 159.058594 257.40625 158.472656 258.066406 158.175781 C 258.730469 157.882812 259.316406 157.808594 260.421875 157.957031 C 263.070312 158.324219 270.132812 161.707031 274.035156 162.59375 C 276.683594 163.253906 279.625 162.664062 281.097656 163.621094 C 282.128906 164.285156 282.863281 165.460938 283.011719 166.492188 C 283.085938 167.449219 282.71875 168.480469 281.6875 169.65625 C 278.742188 172.671875 267.117188 175.835938 258.65625 180.105469 C 247.839844 185.695312 228.042969 199.53125 222.230469 201.003906 C 220.613281 201.445312 219.730469 201.371094 218.847656 200.929688 C 218.039062 200.5625 217.449219 199.75 217.152344 198.941406 C 216.859375 198.207031 216.933594 197.101562 217.226562 196.367188 C 217.523438 195.558594 218.992188 194.453125 218.992188 194.453125 "/></clipPath><clipPath id="19585e2866"><path d="M 255.8125 138.726562 L 329.710938 138.726562 L 329.710938 165.359375 L 255.8125 165.359375 Z M 255.8125 138.726562 "/></clipPath><clipPath id="a3600f031b"><path d="M 259.316406 157.882812 C 269.472656 155.527344 276.535156 151.703125 284.042969 149.199219 C 294.492188 145.742188 315.09375 140 321.9375 139.117188 C 324.4375 138.75 325.835938 138.675781 327.089844 139.046875 C 327.972656 139.339844 328.558594 139.78125 329 140.515625 C 329.441406 141.328125 329.738281 142.945312 329.367188 143.902344 C 329 144.859375 327.675781 145.960938 326.71875 146.183594 C 325.761719 146.402344 324.144531 145.960938 323.410156 145.226562 C 322.671875 144.5625 322.15625 142.945312 322.304688 141.988281 C 322.453125 140.957031 323.480469 139.632812 324.367188 139.191406 C 325.320312 138.824219 326.941406 138.972656 327.824219 139.414062 C 328.558594 139.78125 329.074219 140.515625 329.367188 141.179688 C 329.589844 141.914062 329.738281 142.796875 329.441406 143.535156 C 329.148438 144.417969 328.265625 145.445312 327.089844 146.035156 C 325.394531 146.917969 322.894531 146.328125 319.582031 146.992188 C 312.519531 148.390625 297.066406 152.585938 287.425781 155.824219 C 279.332031 158.472656 270.722656 163.253906 265.425781 164.503906 C 262.628906 165.167969 260.421875 165.535156 258.800781 165.167969 C 257.847656 164.945312 257.035156 164.503906 256.59375 163.769531 C 256.078125 162.960938 255.785156 161.339844 256.007812 160.382812 C 256.226562 159.574219 256.960938 158.765625 257.625 158.398438 C 258.140625 158.03125 259.316406 157.882812 259.316406 157.882812 "/></clipPath><clipPath id="dd6f4e3c13"><path d="M 282.363281 138.839844 L 329.628906 138.839844 L 329.628906 175.949219 L 282.363281 175.949219 Z M 282.363281 138.839844 "/></clipPath><clipPath id="56d0ad62a2"><path d="M 327.160156 146.035156 C 288.675781 164.652344 288.089844 161.488281 288.53125 161.046875 C 288.972656 160.53125 290.957031 161.488281 292.429688 162.078125 C 294.5625 163.035156 297.359375 165.460938 299.789062 166.710938 C 302.070312 167.816406 305.308594 168.039062 306.558594 169.289062 C 307.441406 170.171875 307.957031 171.496094 307.882812 172.527344 C 307.808594 173.480469 306.777344 174.878906 305.96875 175.394531 C 305.308594 175.761719 304.351562 175.910156 303.613281 175.761719 C 302.878906 175.617188 302.070312 175.25 301.554688 174.660156 C 300.964844 173.925781 300.378906 172.378906 300.597656 171.347656 C 300.820312 170.390625 301.996094 169.140625 302.804688 168.699219 C 303.542969 168.332031 304.496094 168.40625 305.160156 168.550781 C 305.894531 168.773438 306.707031 169.214844 307.148438 169.875 C 307.660156 170.6875 308.03125 172.304688 307.734375 173.261719 C 307.367188 174.21875 306.335938 175.320312 305.234375 175.691406 C 303.761719 176.132812 301.40625 175.617188 299.273438 174.808594 C 296.257812 173.703125 291.621094 169.804688 289.117188 168.625 C 287.648438 167.964844 286.617188 168.109375 285.585938 167.523438 C 284.484375 166.859375 283.085938 166.125 282.644531 165.019531 C 282.277344 163.917969 282.277344 162.371094 283.378906 160.824219 C 287.207031 155.527344 319.140625 140.371094 324.734375 139.117188 C 326.058594 138.75 326.574219 138.75 327.308594 139.117188 C 328.191406 139.558594 329.296875 140.8125 329.515625 141.769531 C 329.738281 142.578125 329.515625 143.609375 329.148438 144.34375 C 328.78125 145.078125 327.160156 146.035156 327.160156 146.035156 "/></clipPath><clipPath id="02cbb2b128"><path d="M 218.171875 168.398438 L 307.941406 168.398438 L 307.941406 201.230469 L 218.171875 201.230469 Z M 218.171875 168.398438 "/></clipPath><clipPath id="639097aae8"><path d="M 304.277344 175.835938 C 295.152344 177.972656 290.664062 180.546875 284.628906 182.605469 C 274.402344 186.066406 254.167969 190.773438 242.835938 194.234375 C 234.886719 196.734375 226.203125 200.632812 222.820312 201.003906 C 221.644531 201.148438 221.128906 201.148438 220.464844 200.78125 C 219.65625 200.265625 218.625 198.941406 218.40625 197.984375 C 218.183594 197.25 218.40625 196.367188 218.773438 195.703125 C 219.140625 195.042969 219.730469 194.378906 220.464844 194.085938 C 221.347656 193.71875 223.039062 193.71875 223.925781 194.234375 C 224.808594 194.820312 225.542969 196.292969 225.691406 197.25 C 225.835938 197.984375 225.542969 198.867188 225.101562 199.457031 C 224.4375 200.265625 222.96875 201.003906 222.011719 201.074219 C 221.203125 201.148438 220.390625 200.78125 219.804688 200.339844 C 219.214844 199.898438 218.699219 199.089844 218.480469 198.425781 C 218.257812 197.691406 218.332031 196.734375 218.625 196.074219 C 218.847656 195.335938 219.214844 194.894531 220.097656 194.234375 C 222.96875 192.320312 232.53125 189.746094 240.628906 187.242188 C 252.105469 183.636719 272.121094 179.074219 282.570312 175.542969 C 288.898438 173.410156 293.679688 170.613281 297.65625 169.507812 C 300.230469 168.773438 302.511719 168.332031 304.128906 168.480469 C 305.160156 168.550781 305.96875 168.773438 306.558594 169.289062 C 307.21875 169.804688 307.734375 170.832031 307.882812 171.570312 C 307.957031 172.15625 307.957031 172.746094 307.660156 173.335938 C 307.367188 174.070312 306.632812 174.953125 306.042969 175.320312 C 305.527344 175.691406 304.277344 175.835938 304.277344 175.835938 "/></clipPath></defs><g id="0204789b57"><g clip-rule="nonzero" clip-path="url(#e70f20d367)"><g clip-rule="nonzero" clip-path="url(#58edcf8d50)"><path style=" stroke:none;fill-rule:nonzero;fill:currentColor;fill-opacity:1;" d="M 44.96875 169.949219 L 208.921875 169.949219 L 208.921875 243.976562 L 44.96875 243.976562 Z M 44.96875 169.949219 "/></g></g><g clip-rule="nonzero" clip-path="url(#1cd096f8b6)"><g clip-rule="nonzero" clip-path="url(#e4cdec1551)"><path style=" stroke:none;fill-rule:nonzero;fill:currentColor;fill-opacity:1;" d="M 179.699219 203.726562 L 223.410156 203.726562 L 223.410156 320.339844 L 179.699219 320.339844 Z M 179.699219 203.726562 "/></g></g><g clip-rule="nonzero" clip-path="url(#5eabc7c77b)"><g clip-rule="nonzero" clip-path="url(#91f7735617)"><path style=" stroke:none;fill-rule:nonzero;fill:currentColor;fill-opacity:1;" d="M 42.539062 229.257812 L 97.949219 229.257812 L 97.949219 326.441406 L 42.539062 326.441406 Z M 42.539062 229.257812 "/></g></g><g clip-rule="nonzero" clip-path="url(#b493eb630d)"><g clip-rule="nonzero" clip-path="url(#5ee6d2e2eb)"><path style=" stroke:none;fill-rule:nonzero;fill:currentColor;fill-opacity:1;" d="M 83.671875 302.84375 L 197.394531 302.84375 L 197.394531 337.5 L 83.671875 337.5 Z M 83.671875 302.84375 "/></g></g><g clip-rule="nonzero" clip-path="url(#b4f4353846)"><g clip-rule="nonzero" clip-path="url(#9191ef072d)"><path style=" stroke:none;fill-rule:nonzero;fill:currentColor;fill-opacity:1;" d="M 50.488281 275.835938 L 144.753906 275.835938 L 144.753906 334.410156 L 50.488281 334.410156 Z M 50.488281 275.835938 "/></g></g><g clip-rule="nonzero" clip-path="url(#e69abd1412)"><g clip-rule="nonzero" clip-path="url(#8e780c3cc2)"><path style=" stroke:none;fill-rule:nonzero;fill:currentColor;fill-opacity:1;" d="M 82.203125 172.011719 L 149.203125 172.011719 L 149.203125 202.695312 L 82.203125 202.695312 Z M 82.203125 172.011719 "/></g></g><g clip-rule="nonzero" clip-path="url(#1670c158c0)"><g clip-rule="nonzero" clip-path="url(#2c64272978)"><path style=" stroke:none;fill-rule:nonzero;fill:currentColor;fill-opacity:1;" d="M 82.128906 203.429688 L 175.304688 203.429688 L 175.304688 294.820312 L 82.128906 294.820312 Z M 82.128906 203.429688 "/></g></g><g clip-rule="nonzero" clip-path="url(#ed5a0cd6c6)"><g clip-rule="nonzero" clip-path="url(#9b439e98eb)"><path style=" stroke:none;fill-rule:nonzero;fill:currentColor;fill-opacity:1;" d="M 180.730469 194.820312 L 202.144531 194.820312 L 202.144531 312.59375 L 180.730469 312.59375 Z M 180.730469 194.820312 "/></g></g><g clip-rule="nonzero" clip-path="url(#92f0e680f5)"><g clip-rule="nonzero" clip-path="url(#f9a619af56)"><path style=" stroke:none;fill-rule:nonzero;fill:currentColor;fill-opacity:1;" d="M 143.570312 111.597656 L 174.328125 111.597656 L 174.328125 174.4375 L 143.570312 174.4375 Z M 143.570312 111.597656 "/></g></g><g clip-rule="nonzero" clip-path="url(#c7ff3c7010)"><g clip-rule="nonzero" clip-path="url(#167fcf20cc)"><path style=" stroke:none;fill-rule:nonzero;fill:currentColor;fill-opacity:1;" d="M 134.667969 83.929688 L 165.941406 83.929688 L 165.941406 128.519531 L 134.667969 128.519531 Z M 134.667969 83.929688 "/></g></g><g clip-rule="nonzero" clip-path="url(#b61392ac72)"><g clip-rule="nonzero" clip-path="url(#def4257c9c)"><path style=" stroke:none;fill-rule:nonzero;fill:currentColor;fill-opacity:1;" d="M 134.8125 37.5 L 188.089844 37.5 L 188.089844 103.886719 L 134.8125 103.886719 Z M 134.8125 37.5 "/></g></g><g clip-rule="nonzero" clip-path="url(#bb1076b53d)"><g clip-rule="nonzero" clip-path="url(#18b198fac3)"><path style=" stroke:none;fill-rule:nonzero;fill:currentColor;fill-opacity:1;" d="M 162.261719 63.769531 L 191.839844 63.769531 L 191.839844 111.835938 L 162.261719 111.835938 Z M 162.261719 63.769531 "/></g></g><g clip-rule="nonzero" clip-path="url(#6186a45da0)"><g clip-rule="nonzero" clip-path="url(#bb1eed11e5)"><path style=" stroke:none;fill-rule:nonzero;fill:currentColor;fill-opacity:1;" d="M 161.15625 97.984375 L 185.292969 97.984375 L 185.292969 173.21875 L 161.15625 173.21875 Z M 161.15625 97.984375 "/></g></g><g clip-rule="nonzero" clip-path="url(#5a6e3833aa)"><g clip-rule="nonzero" clip-path="url(#7fb5a091bd)"><path style=" stroke:none;fill-rule:nonzero;fill:currentColor;fill-opacity:1;" d="M 208.839844 69.730469 L 253.503906 69.730469 L 253.503906 128.875 L 208.839844 128.875 Z M 208.839844 69.730469 "/></g></g><g clip-rule="nonzero" clip-path="url(#6a8d130a93)"><g clip-rule="nonzero" clip-path="url(#cc6fffd600)"><path style=" stroke:none;fill-rule:nonzero;fill:currentColor;fill-opacity:1;" d="M 194.785156 115.644531 L 239.128906 115.644531 L 239.128906 156.191406 L 194.785156 156.191406 Z M 194.785156 115.644531 "/></g></g><g clip-rule="nonzero" clip-path="url(#02f9ee7bc4)"><g clip-rule="nonzero" clip-path="url(#ef009604ba)"><path style=" stroke:none;fill-rule:nonzero;fill:currentColor;fill-opacity:1;" d="M 193.828125 142.210938 L 227.601562 142.210938 L 227.601562 189.046875 L 193.828125 189.046875 Z M 193.828125 142.210938 "/></g></g><g clip-rule="nonzero" clip-path="url(#2d7579b5a1)"><g clip-rule="nonzero" clip-path="url(#9800ccfad0)"><path style=" stroke:none;fill-rule:nonzero;fill:currentColor;fill-opacity:1;" d="M 193.609375 132.347656 L 246.882812 132.347656 L 246.882812 188.953125 L 193.609375 188.953125 Z M 193.609375 132.347656 "/></g></g><g clip-rule="nonzero" clip-path="url(#66f406f70f)"><g clip-rule="nonzero" clip-path="url(#3f03daa161)"><path style=" stroke:none;fill-rule:nonzero;fill:currentColor;fill-opacity:1;" d="M 223.410156 100.707031 L 262.847656 100.707031 L 262.847656 145.386719 L 223.410156 145.386719 Z M 223.410156 100.707031 "/></g></g><g clip-rule="nonzero" clip-path="url(#20f7a01de7)"><g clip-rule="nonzero" clip-path="url(#0ec83d3ad2)"><path style=" stroke:none;fill-rule:nonzero;fill:currentColor;fill-opacity:1;" d="M 229.441406 71.496094 L 253.652344 71.496094 L 253.652344 114.617188 L 229.441406 114.617188 Z M 229.441406 71.496094 "/></g></g><g clip-rule="nonzero" clip-path="url(#47aa126adc)"><g clip-rule="nonzero" clip-path="url(#4635aea000)"><path style=" stroke:none;fill-rule:nonzero;fill:currentColor;fill-opacity:1;" d="M 214.210938 155.011719 L 285.996094 155.011719 L 285.996094 204.019531 L 214.210938 204.019531 Z M 214.210938 155.011719 "/></g></g><g clip-rule="nonzero" clip-path="url(#19585e2866)"><g clip-rule="nonzero" clip-path="url(#a3600f031b)"><path style=" stroke:none;fill-rule:nonzero;fill:currentColor;fill-opacity:1;" d="M 253.0625 136.101562 L 332.460938 136.101562 L 332.460938 168.109375 L 253.0625 168.109375 Z M 253.0625 136.101562 "/></g></g><g clip-rule="nonzero" clip-path="url(#dd6f4e3c13)"><g clip-rule="nonzero" clip-path="url(#56d0ad62a2)"><path style=" stroke:none;fill-rule:nonzero;fill:currentColor;fill-opacity:1;" d="M 279.699219 136.175781 L 332.457031 136.175781 L 332.457031 178.78125 L 279.699219 178.78125 Z M 279.699219 136.175781 "/></g></g><g clip-rule="nonzero" clip-path="url(#02cbb2b128)"><g clip-rule="nonzero" clip-path="url(#639097aae8)"><path style=" stroke:none;fill-rule:nonzero;fill:currentColor;fill-opacity:1;" d="M 215.460938 165.535156 L 310.800781 165.535156 L 310.800781 204.09375 L 215.460938 204.09375 Z M 215.460938 165.535156 "/></g></g></g></svg>