<svg xmlns="http://www.w3.org/2000/svg" xmlns:xlink="http://www.w3.org/1999/xlink" width="500" zoomAndPan="magnify" viewBox="0 0 375 374.999991" height="500" preserveAspectRatio="xMidYMid meet" version="1.2"><defs><clipPath id="b6f07c57ad"><path d="M 41.039062 144.625 L 86.449219 144.625 L 86.449219 188 L 41.039062 188 Z M 41.039062 144.625 "/></clipPath><clipPath id="eb4e68ef1f"><path d="M 48.257812 145.53125 C 74.578125 167.492188 83.734375 177.273438 85.691406 181.007812 C 86.316406 182.253906 86.492188 182.875 86.316406 183.765625 C 86.136719 184.921875 85.070312 186.609375 84.089844 187.234375 C 83.292969 187.765625 82.136719 187.945312 81.246094 187.765625 C 80.355469 187.679688 79.378906 187.144531 78.757812 186.523438 C 78.132812 185.8125 77.601562 184.921875 77.511719 183.945312 C 77.421875 182.789062 78.222656 180.832031 79.023438 180.03125 C 79.644531 179.320312 80.625 178.964844 81.601562 178.964844 C 82.757812 178.964844 84.625 179.765625 85.425781 180.652344 C 86.046875 181.363281 86.316406 182.433594 86.402344 183.320312 C 86.402344 184.210938 86.046875 185.277344 85.515625 185.988281 C 84.980469 186.699219 84.089844 187.410156 83.203125 187.679688 C 82.3125 187.855469 81.511719 188.121094 80.355469 187.5 C 76.710938 185.8125 68.710938 173.984375 62.308594 168.027344 C 56.082031 162.335938 45.589844 156.203125 42.746094 152.554688 C 41.589844 151.042969 41.054688 149.976562 41.054688 148.734375 C 41.054688 147.753906 41.679688 146.597656 42.300781 145.886719 C 43.011719 145.175781 44.257812 144.644531 45.234375 144.644531 C 46.214844 144.554688 48.257812 145.53125 48.257812 145.53125 "/></clipPath><clipPath id="65d8eb4f6f"><path d="M 77.378906 145.796875 L 104.585938 145.796875 L 104.585938 187.945312 L 77.378906 187.945312 Z M 77.378906 145.796875 "/></clipPath><clipPath id="34c21c2782"><path d="M 80.355469 179.230469 C 86.9375 174.605469 87.46875 173.363281 87.914062 171.316406 C 88.625 167.9375 86.9375 160.46875 87.648438 156.914062 C 88.09375 154.777344 88.894531 153.355469 89.871094 152.023438 C 90.761719 150.6875 91.828125 149.800781 93.160156 148.820312 C 94.671875 147.753906 96.984375 146.242188 98.761719 145.976562 C 100.183594 145.796875 101.875 145.976562 102.851562 146.6875 C 103.832031 147.398438 104.632812 149.265625 104.542969 150.511719 C 104.542969 151.667969 103.476562 153.445312 102.40625 154.066406 C 101.339844 154.691406 99.386719 154.777344 98.230469 154.246094 C 97.164062 153.710938 96.007812 152.023438 95.738281 150.957031 C 95.5625 149.976562 95.828125 148.910156 96.183594 148.109375 C 96.628906 147.308594 97.429688 146.597656 98.316406 146.15625 C 99.117188 145.796875 100.273438 145.710938 101.074219 145.886719 C 101.964844 146.066406 102.941406 146.6875 103.5625 147.308594 C 104.097656 148.023438 104.542969 149.089844 104.542969 149.976562 C 104.632812 150.867188 104.453125 151.757812 103.832031 152.734375 C 102.675781 154.511719 97.519531 156.113281 96.449219 158.691406 C 95.382812 161.179688 97.429688 164.738281 97.25 167.761719 C 97.074219 170.785156 96.363281 174.25 95.472656 176.742188 C 94.671875 178.785156 93.695312 180.386719 92.539062 181.808594 C 91.558594 182.964844 90.492188 183.765625 89.070312 184.742188 C 87.292969 185.8125 84.269531 187.589844 82.492188 187.765625 C 81.246094 187.945312 80.179688 187.589844 79.378906 187.054688 C 78.578125 186.523438 77.867188 185.367188 77.601562 184.476562 C 77.335938 183.5 77.511719 182.164062 77.957031 181.277344 C 78.402344 180.476562 80.355469 179.230469 80.355469 179.230469 "/></clipPath><clipPath id="76fb2e66c5"><path d="M 42.367188 129.292969 L 86.015625 129.292969 L 86.015625 152.167969 L 42.367188 152.167969 Z M 42.367188 129.292969 "/></clipPath><clipPath id="79cbdc2fbd"><path d="M 44.878906 143.664062 C 55.726562 136.195312 56.617188 135.75 58.304688 135.308594 C 60.707031 134.773438 64.886719 134.863281 67.375 135.128906 C 69.152344 135.308594 70.222656 136.550781 71.910156 136.195312 C 74.398438 135.664062 78.222656 130.238281 80.355469 129.527344 C 81.511719 129.171875 82.402344 129.347656 83.203125 129.707031 C 84.089844 130.0625 84.980469 130.683594 85.335938 131.574219 C 85.871094 132.550781 86.046875 134.59375 85.601562 135.664062 C 85.246094 136.550781 84.445312 137.351562 83.648438 137.707031 C 82.847656 138.152344 81.78125 138.417969 80.890625 138.242188 C 79.734375 137.972656 78.046875 136.816406 77.511719 135.664062 C 77.066406 134.59375 77.15625 132.550781 77.777344 131.574219 C 78.402344 130.503906 80.089844 129.4375 81.335938 129.347656 C 82.578125 129.347656 84.359375 130.148438 85.070312 131.128906 C 85.871094 132.105469 86.316406 133.796875 85.78125 135.21875 C 84.980469 137.617188 79.914062 141.175781 77.421875 142.863281 C 75.734375 143.929688 74.398438 144.644531 72.886719 144.820312 C 71.289062 145.085938 69.863281 144.109375 67.996094 144.019531 C 65.507812 143.84375 61.773438 143.488281 58.929688 144.554688 C 56.082031 145.621094 53.414062 149.175781 51.105469 150.511719 C 49.503906 151.402344 47.992188 152.023438 46.835938 152.113281 C 46.035156 152.113281 45.414062 151.933594 44.792969 151.578125 C 43.992188 151.132812 43.011719 150.15625 42.65625 149.175781 C 42.390625 148.289062 42.390625 146.953125 42.746094 146.066406 C 43.101562 145.085938 44.878906 143.664062 44.878906 143.664062 "/></clipPath><clipPath id="f63023fe28"><path d="M 77 67.046875 L 137.148438 67.046875 L 137.148438 138.277344 L 77 138.277344 Z M 77 67.046875 "/></clipPath><clipPath id="8f96f0d2d6"><path d="M 77.15625 132.460938 C 77.867188 115.390625 78.132812 113.96875 78.757812 112.277344 C 79.378906 110.589844 79.824219 109.609375 81.425781 107.652344 C 85.957031 101.875 104.632812 85.246094 112.722656 78.757812 C 117.347656 75.023438 120.902344 72.621094 124.371094 70.578125 C 126.859375 69.066406 129.4375 67.640625 131.304688 67.285156 C 132.371094 67.019531 133.261719 67.019531 134.152344 67.375 C 134.949219 67.730469 135.839844 68.441406 136.285156 69.152344 C 136.816406 69.953125 137.175781 71.019531 136.996094 71.910156 C 136.730469 73.066406 135.75 74.84375 134.683594 75.46875 C 133.617188 76 131.574219 76 130.503906 75.46875 C 129.4375 74.933594 128.28125 73.242188 128.105469 72.089844 C 128.015625 70.84375 128.726562 68.976562 129.617188 68.175781 C 130.503906 67.375 132.460938 66.929688 133.707031 67.199219 C 134.863281 67.554688 136.285156 68.976562 136.730469 70.042969 C 137.085938 70.933594 136.90625 72.175781 136.730469 72.886719 C 136.640625 73.421875 136.640625 73.597656 136.105469 74.132812 C 134.152344 76.265625 124.460938 80.890625 117.96875 85.957031 C 109.433594 92.539062 94.851562 106.585938 90.316406 111.386719 C 88.714844 113.078125 88.09375 113.167969 87.292969 115.121094 C 85.871094 118.769531 86.9375 129.972656 86.046875 133.527344 C 85.691406 135.039062 85.425781 135.929688 84.625 136.730469 C 84.003906 137.441406 82.847656 137.972656 81.867188 138.0625 C 80.890625 138.242188 79.558594 137.886719 78.757812 137.261719 C 78.046875 136.730469 77.335938 135.484375 77.066406 134.59375 C 76.890625 133.882812 77.15625 132.460938 77.15625 132.460938 "/></clipPath><clipPath id="38fe833fb3"><path d="M 93.8125 104 L 161.957031 104 L 161.957031 155.195312 L 93.8125 155.195312 Z M 93.8125 104 "/></clipPath><clipPath id="a82a3144fe"><path d="M 96.449219 146.6875 C 106.585938 143.398438 111.921875 146.332031 117.257812 144.019531 C 127.570312 139.574219 147.753906 109.699219 154.066406 105.519531 C 155.847656 104.363281 156.734375 103.917969 157.980469 104.097656 C 159.226562 104.273438 160.738281 105.519531 161.359375 106.5 C 161.890625 107.296875 161.980469 108.453125 161.804688 109.34375 C 161.625 110.144531 161.179688 111.210938 160.378906 111.746094 C 159.492188 112.457031 157.535156 113.078125 156.378906 112.8125 C 155.136719 112.542969 153.625 111.210938 153.269531 110.054688 C 152.824219 108.898438 153.089844 106.941406 153.800781 105.875 C 154.511719 104.898438 156.289062 104.007812 157.535156 104.007812 C 158.691406 104.097656 160.46875 105.164062 161.179688 106.054688 C 161.714844 106.855469 161.890625 107.921875 161.804688 108.808594 C 161.804688 109.699219 161.535156 110.144531 160.738281 111.476562 C 157.179688 116.8125 130.417969 143.929688 124.371094 149.265625 C 122.59375 150.777344 122.058594 151.402344 120.636719 152.023438 C 119.214844 152.644531 117.703125 152.734375 115.835938 152.910156 C 113.253906 153.089844 109.699219 152.199219 106.585938 152.554688 C 103.476562 152.910156 99.296875 155.402344 97.164062 155.046875 C 96.007812 154.777344 95.207031 153.890625 94.671875 153.089844 C 94.226562 152.554688 93.960938 151.84375 93.960938 151.132812 C 93.960938 150.246094 94.316406 148.820312 94.851562 148.109375 C 95.207031 147.488281 96.449219 146.6875 96.449219 146.6875 "/></clipPath><clipPath id="2239c4a343"><path d="M 125.355469 48.175781 L 209.128906 48.175781 L 209.128906 76.65625 L 125.355469 76.65625 Z M 125.355469 48.175781 "/></clipPath><clipPath id="596aa7588e"><path d="M 129.347656 67.820312 C 152.199219 57.328125 169.449219 51.28125 175.320312 49.859375 C 177.542969 49.414062 177.984375 49.503906 179.941406 49.324219 C 183.410156 48.96875 190.523438 47.992188 193.902344 48.257812 C 195.945312 48.347656 196.835938 48.4375 198.613281 49.238281 C 201.371094 50.304688 206.972656 53.328125 208.394531 55.640625 C 209.195312 56.972656 209.195312 58.660156 208.839844 59.730469 C 208.574219 60.617188 207.773438 61.417969 206.972656 61.953125 C 206.261719 62.394531 205.195312 62.75 204.214844 62.574219 C 203.058594 62.308594 201.371094 61.242188 200.75 60.171875 C 200.214844 59.105469 200.214844 57.148438 200.75 55.996094 C 201.371094 54.925781 202.972656 53.859375 204.214844 53.683594 C 205.460938 53.59375 207.328125 54.304688 208.128906 55.195312 C 208.929688 56.171875 209.285156 58.128906 209.015625 59.285156 C 208.660156 60.441406 207.148438 61.863281 206.171875 62.308594 C 205.28125 62.664062 204.484375 62.664062 203.328125 62.308594 C 201.105469 61.773438 197.902344 57.863281 194.167969 57.148438 C 189.277344 56.082031 182.253906 57.507812 175.675781 59.015625 C 167.492188 60.882812 156.289062 65.417969 149.175781 68.53125 C 144.109375 70.664062 140.109375 73.6875 136.550781 75.023438 C 134.238281 75.910156 132.195312 76.710938 130.417969 76.621094 C 128.90625 76.535156 127.304688 76 126.503906 75.109375 C 125.792969 74.398438 125.4375 73.15625 125.4375 72.175781 C 125.4375 71.199219 125.882812 69.953125 126.59375 69.242188 C 127.214844 68.53125 129.347656 67.820312 129.347656 67.820312 "/></clipPath><clipPath id="c039758dc2"><path d="M 126.578125 134.9375 L 203.527344 134.9375 L 203.527344 210.597656 L 126.578125 210.597656 Z M 126.578125 134.9375 "/></clipPath><clipPath id="05a6260921"><path d="M 133.617188 135.75 C 154.511719 154.15625 157.890625 158.957031 162.605469 163.582031 C 167.9375 168.828125 174.605469 173.808594 180.386719 179.320312 C 186.34375 185.011719 193.722656 192.746094 197.726562 197.457031 C 200.035156 200.214844 202.171875 202.347656 202.882812 204.214844 C 203.328125 205.28125 203.503906 206.171875 203.238281 207.0625 C 202.972656 208.21875 201.726562 209.816406 200.660156 210.261719 C 199.503906 210.796875 197.457031 210.617188 196.480469 209.90625 C 195.414062 209.285156 194.613281 207.417969 194.433594 206.261719 C 194.347656 205.28125 194.792969 204.304688 195.324219 203.59375 C 195.859375 202.882812 196.746094 202.082031 197.636719 201.902344 C 198.792969 201.726562 200.75 202.082031 201.726562 202.792969 C 202.527344 203.328125 203.058594 204.304688 203.238281 205.195312 C 203.414062 205.996094 203.328125 207.148438 202.972656 207.949219 C 202.617188 208.839844 201.902344 209.730469 201.015625 210.085938 C 200.035156 210.527344 198.613281 210.882812 196.925781 210.171875 C 192.125 208.128906 182.433594 193.8125 175.050781 186.609375 C 168.207031 179.851562 159.757812 173.453125 154.335938 167.9375 C 150.421875 164.027344 148.644531 160.914062 144.820312 157.179688 C 140.109375 152.46875 129.972656 145.621094 127.75 142.332031 C 126.859375 141.085938 126.59375 140.375 126.59375 139.398438 C 126.683594 138.328125 127.125 137.175781 127.75 136.460938 C 128.460938 135.664062 129.617188 135.128906 130.59375 134.949219 C 131.574219 134.863281 133.617188 135.75 133.617188 135.75 "/></clipPath><clipPath id="7dcee2cbc4"><path d="M 145.386719 117.644531 L 219.832031 117.644531 L 219.832031 194.320312 L 145.386719 194.320312 Z M 145.386719 117.644531 "/></clipPath><clipPath id="68c6c9f8f3"><path d="M 152.199219 118.234375 C 165.183594 128.015625 166.070312 130.328125 168.738281 133.082031 C 172.917969 137.53125 179.410156 142.421875 185.898438 149.089844 C 195.148438 158.78125 214.886719 180.121094 218.441406 186.433594 C 219.421875 188.300781 219.777344 189.277344 219.597656 190.433594 C 219.507812 191.414062 218.886719 192.300781 218.175781 192.921875 C 217.554688 193.457031 216.488281 193.902344 215.597656 193.992188 C 214.707031 194.078125 213.640625 193.8125 212.839844 193.28125 C 212.128906 192.835938 211.328125 192.035156 211.0625 191.054688 C 210.796875 189.988281 210.972656 187.945312 211.683594 186.964844 C 212.394531 185.988281 214.175781 185.097656 215.417969 185.097656 C 216.664062 185.1875 218.355469 186.253906 218.976562 187.234375 C 219.597656 187.945312 219.777344 189.101562 219.6875 189.988281 C 219.597656 190.878906 219.242188 191.945312 218.53125 192.566406 C 217.730469 193.367188 215.773438 194.078125 214.621094 193.992188 C 213.730469 193.902344 213.285156 193.636719 212.128906 192.65625 C 207.238281 188.921875 189.988281 166.25 180.921875 156.824219 C 174.519531 150.066406 167.851562 145 163.582031 140.464844 C 160.914062 137.53125 159.847656 135.308594 157.269531 132.90625 C 154.335938 130.148438 148.464844 127.304688 146.6875 125.171875 C 145.886719 124.101562 145.441406 123.214844 145.441406 122.234375 C 145.355469 121.257812 145.796875 120.011719 146.421875 119.300781 C 147.042969 118.5 148.109375 117.789062 149.089844 117.703125 C 150.066406 117.523438 152.199219 118.234375 152.199219 118.234375 "/></clipPath><clipPath id="2e3d80e811"><path d="M 151.898438 55.261719 L 210.992188 55.261719 L 210.992188 112.847656 L 151.898438 112.847656 Z M 151.898438 55.261719 "/></clipPath><clipPath id="6be01858c4"><path d="M 152.910156 105.519531 C 157.535156 86.757812 159.3125 83.914062 160.648438 81.691406 C 161.625 80.089844 162.25 79.203125 163.492188 77.867188 C 165.183594 75.910156 167.582031 73.777344 170.515625 71.554688 C 174.695312 68.355469 181.277344 63.730469 186.523438 61.0625 C 191.054688 58.839844 196.390625 57.0625 200.125 56.171875 C 202.527344 55.640625 204.75 55.371094 206.4375 55.550781 C 207.507812 55.726562 208.394531 55.90625 209.105469 56.527344 C 209.996094 57.238281 210.882812 59.105469 210.882812 60.261719 C 210.882812 61.242188 210.527344 62.21875 209.816406 62.929688 C 209.015625 63.730469 207.148438 64.53125 205.996094 64.441406 C 205.015625 64.441406 204.039062 63.996094 203.414062 63.285156 C 202.617188 62.394531 201.816406 60.527344 202.082031 59.285156 C 202.261719 58.128906 203.59375 56.527344 204.570312 55.996094 C 205.371094 55.550781 206.527344 55.460938 207.417969 55.726562 C 208.304688 55.90625 209.285156 56.351562 209.816406 57.148438 C 210.527344 58.128906 210.972656 60.085938 210.707031 61.242188 C 210.527344 62.128906 210.171875 62.839844 209.105469 63.550781 C 206.617188 65.417969 197.902344 65.597656 192.300781 68.085938 C 185.898438 70.933594 176.832031 77.601562 173.097656 80.710938 C 171.40625 82.136719 170.871094 82.757812 169.804688 84.179688 C 168.207031 86.3125 166.25 89.960938 165.183594 92.183594 C 164.382812 93.871094 163.9375 94.761719 163.582031 96.539062 C 163.136719 99.03125 163.9375 103.121094 163.046875 105.785156 C 162.25 108.1875 160.46875 110.765625 159.046875 111.832031 C 158.070312 112.542969 157.003906 112.8125 156.023438 112.722656 C 155.046875 112.722656 153.890625 112.101562 153.179688 111.386719 C 152.46875 110.675781 151.933594 109.519531 151.933594 108.542969 C 151.84375 107.566406 152.910156 105.519531 152.910156 105.519531 "/></clipPath><clipPath id="f3044ee620"><path d="M 195.460938 185.285156 L 248.640625 185.285156 L 248.640625 237.320312 L 195.460938 237.320312 Z M 195.460938 185.285156 "/></clipPath><clipPath id="297669c7a5"><path d="M 205.640625 235.871094 C 198.792969 227.691406 196.925781 224.132812 196.214844 220.933594 C 195.503906 217.910156 195.414062 214.796875 196.035156 211.773438 C 196.660156 208.75 197.992188 205.90625 199.949219 202.882812 C 202.261719 199.324219 206.261719 194.878906 209.460938 192.210938 C 212.039062 190.078125 214.085938 188.476562 217.199219 187.410156 C 221.019531 185.988281 227.066406 185.097656 231.070312 185.632812 C 234.359375 186.078125 237.027344 187.679688 239.78125 189.457031 C 242.539062 191.234375 246.183594 194.613281 247.519531 196.480469 C 248.140625 197.546875 248.40625 198.257812 248.40625 199.238281 C 248.40625 200.125 248.140625 201.191406 247.519531 201.902344 C 246.804688 202.792969 244.9375 203.683594 243.785156 203.683594 C 242.804688 203.773438 241.828125 203.238281 241.117188 202.703125 C 240.40625 202.082031 239.78125 201.191406 239.605469 200.304688 C 239.515625 199.148438 239.871094 197.101562 240.671875 196.214844 C 241.558594 195.324219 243.515625 194.792969 244.671875 194.878906 C 245.5625 194.878906 246.539062 195.503906 247.164062 196.125 C 247.785156 196.835938 248.316406 197.8125 248.40625 198.703125 C 248.496094 199.59375 248.316406 200.75 247.785156 201.460938 C 247.164062 202.4375 245.382812 203.503906 244.226562 203.683594 C 243.339844 203.859375 242.628906 203.503906 241.558594 202.972656 C 239.25 201.816406 234.804688 196.570312 232.046875 195.324219 C 230.269531 194.523438 228.933594 194.347656 227.066406 194.433594 C 224.488281 194.523438 220.308594 195.589844 217.996094 196.746094 C 216.398438 197.636719 215.6875 198.703125 214.261719 199.949219 C 212.394531 201.816406 209.375 204.839844 207.863281 206.972656 C 206.707031 208.574219 205.996094 209.90625 205.460938 211.417969 C 204.925781 212.839844 204.484375 214.085938 204.570312 215.773438 C 204.75 218.265625 205.816406 222.089844 207.238281 224.578125 C 208.574219 226.976562 211.773438 228.757812 212.664062 230.535156 C 213.195312 231.601562 213.464844 232.667969 213.195312 233.648438 C 212.839844 234.714844 211.507812 236.316406 210.527344 236.847656 C 209.90625 237.203125 209.195312 237.292969 208.484375 237.203125 C 207.59375 237.027344 205.640625 235.871094 205.640625 235.871094 "/></clipPath><clipPath id="364c544783"><path d="M 203.113281 227.121094 L 284.097656 227.121094 L 284.097656 314.28125 L 203.113281 314.28125 Z M 203.113281 227.121094 "/></clipPath><clipPath id="fdf67e1ed6"><path d="M 210.707031 228.402344 C 229.824219 247.339844 233.558594 253.121094 237.46875 257.386719 C 240.761719 260.945312 243.515625 262.8125 247.164062 266.722656 C 252.496094 272.59375 260.054688 283.261719 266.011719 289.929688 C 270.902344 295.355469 277.039062 300.332031 280.148438 303.980469 C 281.929688 306.113281 283.617188 308.15625 283.972656 309.402344 C 284.152344 310.023438 284.0625 310.292969 283.796875 310.824219 C 283.441406 311.714844 282.105469 313.492188 280.949219 313.847656 C 279.792969 314.292969 277.835938 313.847656 276.859375 313.226562 C 276.058594 312.691406 275.4375 311.804688 275.257812 310.914062 C 274.992188 309.757812 275.4375 307.714844 276.148438 306.824219 C 276.683594 306.023438 277.570312 305.492188 278.550781 305.3125 C 279.707031 305.136719 281.660156 305.667969 282.550781 306.378906 C 283.261719 307.003906 283.796875 307.980469 283.882812 308.871094 C 283.972656 310.023438 283.441406 311.980469 282.550781 312.871094 C 281.75 313.671875 279.707031 314.117188 278.550781 314.027344 C 277.660156 313.847656 276.769531 313.226562 276.148438 312.515625 C 275.527344 311.890625 275.703125 310.558594 275.082031 309.9375 C 274.371094 309.226562 273.214844 309.492188 271.96875 308.691406 C 268.945312 306.644531 263.789062 300.6875 259.253906 295.710938 C 253.652344 289.398438 246.628906 279.4375 241.292969 273.660156 C 237.558594 269.570312 234.535156 267.433594 231.15625 263.613281 C 227.246094 259.34375 223.6875 253.742188 219.242188 248.941406 C 214.621094 243.871094 205.816406 237.46875 203.949219 234.179688 C 203.238281 232.9375 203.148438 232.046875 203.238281 231.070312 C 203.414062 230.089844 204.039062 228.933594 204.75 228.3125 C 205.550781 227.691406 206.792969 227.246094 207.773438 227.246094 C 208.75 227.246094 210.707031 228.402344 210.707031 228.402344 "/></clipPath><clipPath id="5ff0ff15d5"><path d="M 239.066406 194.429688 L 323.507812 194.429688 L 323.507812 271.972656 L 239.066406 271.972656 Z M 239.066406 194.429688 "/></clipPath><clipPath id="9828181d63"><path d="M 246.007812 195.324219 C 321.40625 263.789062 322.652344 265.300781 323.097656 266.546875 C 323.363281 267.078125 323.273438 267.433594 323.097656 267.96875 C 322.828125 268.859375 321.761719 270.8125 320.605469 271.257812 C 319.539062 271.792969 317.492188 271.613281 316.425781 271.082031 C 315.625 270.726562 314.914062 269.835938 314.648438 268.945312 C 314.292969 267.878906 314.472656 265.835938 315.003906 264.765625 C 315.539062 263.96875 316.339844 263.34375 317.316406 263.078125 C 318.382812 262.8125 320.429688 262.988281 321.40625 263.699219 C 322.382812 264.5 323.097656 266.367188 323.183594 267.523438 C 323.183594 268.414062 322.828125 269.480469 322.117188 270.101562 C 321.316406 270.992188 319.449219 271.703125 318.292969 271.703125 C 317.316406 271.703125 316.339844 271.167969 315.714844 270.546875 C 315.003906 269.925781 315.183594 268.945312 314.382812 268.058594 C 312.871094 266.367188 308.601562 264.589844 306.113281 262.367188 C 303.535156 260.234375 302.824219 258.453125 299.265625 255.074219 C 289.484375 245.292969 245.738281 209.195312 240.671875 202.261719 C 239.605469 200.925781 239.425781 200.394531 239.335938 199.414062 C 239.25 198.4375 239.605469 197.191406 240.226562 196.390625 C 240.847656 195.589844 242.003906 194.96875 242.894531 194.703125 C 243.871094 194.523438 246.007812 195.324219 246.007812 195.324219 "/></clipPath><clipPath id="b7e2450066"><path d="M 270.425781 254.867188 L 331.21875 254.867188 L 331.21875 320.152344 L 270.425781 320.152344 Z M 270.425781 254.867188 "/></clipPath><clipPath id="e1ca664bac"><path d="M 277.835938 302.378906 C 292.863281 311.535156 293.84375 311.625 295.621094 311.179688 C 298.734375 310.46875 304.421875 306.558594 307.714844 303.980469 C 310.378906 301.933594 312.246094 300.15625 314.382812 297.488281 C 316.960938 294.199219 320.960938 288.773438 321.761719 285.308594 C 322.207031 283.171875 321.851562 281.574219 321.140625 279.617188 C 320.160156 277.125 318.117188 274.636719 315.894531 271.878906 C 312.960938 268.414062 305.667969 263.34375 304.601562 260.675781 C 304.15625 259.519531 304.421875 258.632812 304.691406 257.832031 C 305.046875 257.03125 305.757812 256.140625 306.558594 255.699219 C 307.269531 255.164062 308.425781 254.898438 309.3125 254.988281 C 310.203125 255.074219 311.269531 255.519531 311.890625 256.230469 C 312.691406 257.03125 313.402344 258.898438 313.226562 260.144531 C 313.046875 261.300781 311.890625 262.898438 310.738281 263.433594 C 309.667969 263.96875 307.625 263.878906 306.644531 263.253906 C 305.578125 262.632812 304.601562 260.855469 304.421875 259.699219 C 304.246094 258.808594 304.691406 257.742188 305.136719 256.941406 C 305.667969 256.230469 306.558594 255.519531 307.445312 255.253906 C 308.246094 254.988281 309.3125 254.988281 310.203125 255.253906 C 311.359375 255.519531 312.160156 256.230469 313.582031 257.386719 C 316.515625 259.878906 323.363281 266.367188 326.207031 270.457031 C 328.253906 273.390625 329.675781 276.503906 330.386719 278.90625 C 330.921875 280.59375 331.1875 281.75 331.097656 283.527344 C 330.921875 286.105469 329.765625 289.574219 328.164062 292.777344 C 326.207031 296.867188 323.097656 301.488281 319.359375 305.402344 C 315.09375 309.757812 307.535156 315.003906 303.890625 317.226562 C 302.023438 318.382812 301.222656 318.828125 299.445312 319.273438 C 296.867188 319.984375 292.863281 320.429688 289.753906 319.804688 C 286.730469 319.183594 283.882812 317.316406 280.949219 315.539062 C 277.75 313.582031 272.859375 310.558594 271.4375 308.425781 C 270.636719 307.359375 270.457031 306.378906 270.546875 305.402344 C 270.636719 304.421875 271.257812 303.269531 271.96875 302.554688 C 272.679688 301.84375 273.925781 301.402344 274.902344 301.3125 C 275.882812 301.3125 277.835938 302.378906 277.835938 302.378906 "/></clipPath><clipPath id="d91b18302f"><path d="M 44.664062 193.773438 L 128.179688 193.773438 L 128.179688 248.179688 L 44.664062 248.179688 Z M 44.664062 193.773438 "/></clipPath><clipPath id="4bccabaad1"><path d="M 46.300781 240.316406 C 71.199219 217.640625 80.800781 210.351562 86.316406 206.082031 C 89.605469 203.59375 91.203125 201.992188 94.316406 200.125 C 98.050781 197.902344 104.273438 194.523438 107.652344 193.992188 C 109.609375 193.636719 111.121094 193.902344 112.542969 194.523438 C 113.878906 195.058594 114.765625 195.769531 116.191406 197.191406 C 119.125 200.125 126.414062 209.285156 127.660156 212.394531 C 128.105469 213.640625 128.105469 214.351562 127.835938 215.242188 C 127.660156 216.128906 127.125 217.109375 126.328125 217.640625 C 125.4375 218.265625 123.390625 218.710938 122.234375 218.441406 C 121.347656 218.265625 120.457031 217.640625 119.925781 216.84375 C 119.390625 215.773438 119.035156 213.820312 119.390625 212.664062 C 119.65625 211.773438 120.367188 210.972656 121.167969 210.441406 C 121.878906 209.996094 122.949219 209.640625 123.925781 209.730469 C 125.082031 209.90625 126.769531 211.0625 127.394531 212.039062 C 127.925781 212.75 128.105469 213.90625 127.925781 214.796875 C 127.835938 215.6875 127.304688 216.664062 126.683594 217.285156 C 126.058594 217.996094 125.082031 218.53125 124.191406 218.621094 C 123.035156 218.621094 121.613281 218.175781 120.28125 217.199219 C 117.789062 215.332031 114.410156 208.75 112.1875 206.171875 C 110.765625 204.570312 109.964844 202.882812 108.453125 202.703125 C 106.320312 202.347656 103.121094 204.925781 100.363281 206.707031 C 96.804688 208.929688 93.425781 211.953125 89.25 215.152344 C 83.914062 219.332031 76.800781 224.667969 70.664062 229.914062 C 64.175781 235.425781 55.28125 245.738281 51.460938 247.519531 C 50.035156 248.140625 49.238281 248.140625 48.257812 247.960938 C 47.371094 247.695312 46.214844 246.984375 45.679688 246.183594 C 45.148438 245.382812 44.792969 244.140625 44.878906 243.160156 C 44.96875 242.183594 46.300781 240.316406 46.300781 240.316406 "/></clipPath><clipPath id="4a6fc8da43"><path d="M 43.539062 236.753906 L 103.214844 236.753906 L 103.214844 314.589844 L 43.539062 314.589844 Z M 43.539062 236.753906 "/></clipPath><clipPath id="a37139f508"><path d="M 54.214844 244.671875 C 52.703125 246.449219 52.261719 248.585938 52.617188 250.007812 C 52.972656 251.429688 53.949219 252.140625 55.371094 254.097656 C 59.375 259.433594 73.957031 276.683594 79.644531 282.640625 C 82.402344 285.574219 83.734375 286.105469 86.316406 288.773438 C 90.582031 293.21875 100.363281 303.089844 102.230469 307.179688 C 103.03125 308.957031 103.121094 310.203125 102.851562 311.359375 C 102.585938 312.246094 101.875 313.046875 101.074219 313.582031 C 100.363281 314.027344 99.296875 314.472656 98.316406 314.292969 C 97.25 314.117188 95.472656 313.046875 94.851562 312.070312 C 94.316406 311.269531 94.140625 310.203125 94.226562 309.3125 C 94.40625 308.425781 94.761719 307.359375 95.472656 306.734375 C 96.363281 306.023438 98.230469 305.222656 99.472656 305.492188 C 100.628906 305.667969 102.140625 307.003906 102.765625 308.070312 C 103.207031 308.871094 103.207031 310.023438 103.03125 310.914062 C 102.765625 311.714844 102.140625 312.691406 101.519531 313.316406 C 100.808594 313.847656 99.828125 314.382812 98.851562 314.292969 C 97.695312 314.203125 96.628906 313.671875 95.117188 312.515625 C 91.382812 309.667969 83.292969 298.464844 79.023438 294.019531 C 76.355469 291.265625 75.109375 290.820312 72.265625 287.796875 C 66.128906 281.394531 48.96875 261.832031 45.503906 256.054688 C 44.347656 254.097656 44.167969 253.296875 43.902344 251.875 C 43.546875 250.363281 43.636719 248.761719 43.722656 247.25 C 43.902344 245.652344 43.992188 244.050781 44.613281 242.628906 C 45.148438 241.292969 46.300781 239.871094 47.28125 238.894531 C 48.167969 238.003906 49.148438 237.113281 50.214844 236.9375 C 51.460938 236.757812 53.328125 237.203125 54.214844 238.003906 C 55.105469 238.804688 55.726562 240.671875 55.640625 241.828125 C 55.640625 242.894531 54.214844 244.671875 54.214844 244.671875 "/></clipPath><clipPath id="c754492c19"><path d="M 92.378906 298.484375 L 161.941406 298.484375 L 161.941406 334 L 92.378906 334 Z M 92.378906 298.484375 "/></clipPath><clipPath id="d21ce2516a"><path d="M 100.097656 303.890625 C 119.125 323.453125 119.925781 324.164062 121.257812 324.605469 C 122.679688 324.964844 124.371094 324.785156 125.882812 324.519531 C 127.394531 324.25 128.371094 324.074219 130.148438 323.007812 C 135.21875 319.804688 149.800781 301.757812 154.777344 299.355469 C 156.558594 298.554688 157.800781 298.464844 158.957031 298.820312 C 159.847656 299.089844 160.648438 299.800781 161.179688 300.601562 C 161.625 301.3125 161.980469 302.378906 161.804688 303.355469 C 161.625 304.511719 160.648438 306.203125 159.582031 306.824219 C 158.511719 307.445312 156.46875 307.359375 155.402344 307.003906 C 154.511719 306.644531 153.800781 305.757812 153.445312 304.957031 C 153 304.15625 152.824219 303 153 302.113281 C 153.179688 301.222656 153.800781 300.246094 154.421875 299.621094 C 155.136719 299.089844 156.113281 298.554688 157.003906 298.554688 C 158.15625 298.554688 160.113281 299.355469 160.824219 300.15625 C 161.535156 300.867188 161.804688 301.933594 161.804688 302.824219 C 161.890625 303.710938 161.714844 304.421875 161.003906 305.578125 C 158.957031 308.957031 149.355469 317.761719 144.199219 322.472656 C 140.019531 326.207031 136.375 330.03125 132.550781 331.898438 C 129.527344 333.320312 126.148438 333.765625 123.660156 333.855469 C 121.792969 333.945312 120.636719 333.765625 118.859375 333.144531 C 116.457031 332.34375 113.523438 330.476562 110.945312 328.253906 C 107.832031 325.585938 104.988281 320.871094 101.964844 317.761719 C 99.207031 314.914062 95.117188 312.070312 93.695312 310.023438 C 92.894531 308.957031 92.449219 308.070312 92.449219 307.089844 C 92.449219 306.113281 92.714844 304.867188 93.425781 304.15625 C 94.226562 303.269531 96.09375 302.46875 97.25 302.554688 C 98.316406 302.554688 100.097656 303.890625 100.097656 303.890625 "/></clipPath><clipPath id="f059ed7994"><path d="M 142.019531 232.847656 L 169.71875 232.847656 L 169.71875 312.832031 L 142.019531 312.832031 Z M 142.019531 232.847656 "/></clipPath><clipPath id="a504ae9bc0"><path d="M 149.800781 306.113281 C 158.070312 294.199219 158.957031 291.53125 159.582031 288.152344 C 160.378906 283.882812 160.824219 278.195312 160.203125 273.570312 C 159.582031 268.945312 158.335938 265.035156 156.113281 260.234375 C 153.089844 253.742188 143.132812 243.160156 142.242188 238.714844 C 141.886719 236.9375 142.332031 235.601562 143.042969 234.625 C 143.574219 233.824219 144.554688 233.292969 145.355469 233.023438 C 146.242188 232.847656 147.398438 232.9375 148.199219 233.292969 C 149.089844 233.648438 149.976562 234.269531 150.332031 235.160156 C 150.867188 236.226562 151.042969 238.183594 150.511719 239.335938 C 149.976562 240.40625 148.378906 241.558594 147.132812 241.738281 C 145.886719 241.917969 144.019531 241.117188 143.21875 240.316406 C 142.507812 239.691406 142.152344 238.625 142.0625 237.738281 C 141.976562 236.847656 142.242188 235.78125 142.777344 234.980469 C 143.21875 234.269531 144.019531 233.46875 144.910156 233.203125 C 146.066406 232.847656 147.664062 232.9375 149.089844 233.734375 C 151.667969 235.246094 154.691406 240.582031 157.359375 244.671875 C 160.46875 249.472656 164.027344 255.785156 166.070312 261.210938 C 167.851562 265.921875 169.09375 270.367188 169.539062 274.992188 C 169.894531 279.617188 169.449219 284.417969 168.5625 288.863281 C 167.671875 293.398438 166.070312 298.023438 164.027344 301.933594 C 162.070312 305.578125 158.425781 310.023438 156.734375 311.535156 C 156.023438 312.25 155.667969 312.515625 154.867188 312.691406 C 154.066406 312.871094 152.644531 312.78125 151.757812 312.515625 C 151.042969 312.25 150.511719 311.804688 150.066406 311.179688 C 149.53125 310.378906 149.175781 309.046875 149.175781 308.15625 C 149.175781 307.445312 149.800781 306.113281 149.800781 306.113281 "/></clipPath><clipPath id="a71aa34bcc"><path d="M 117.351562 205.644531 L 154.863281 205.644531 L 154.863281 245.933594 L 117.351562 245.933594 Z M 117.351562 205.644531 "/></clipPath><clipPath id="590f950d66"><path d="M 125.347656 207.328125 C 143.21875 228.046875 152.378906 235.070312 154.15625 238.980469 C 154.867188 240.671875 154.777344 242.09375 154.421875 243.160156 C 154.066406 244.050781 153.269531 244.851562 152.46875 245.207031 C 151.757812 245.652344 150.601562 245.917969 149.710938 245.738281 C 148.820312 245.652344 147.753906 245.207031 147.222656 244.496094 C 146.421875 243.605469 145.886719 241.648438 145.976562 240.492188 C 146.066406 239.515625 146.777344 238.625 147.398438 238.003906 C 148.109375 237.46875 149.089844 236.9375 150.066406 236.9375 C 151.132812 236.9375 153.089844 237.738281 153.800781 238.625 C 154.511719 239.335938 154.867188 240.316406 154.777344 241.292969 C 154.691406 242.449219 153.800781 244.226562 152.910156 245.027344 C 152.199219 245.5625 151.042969 245.828125 150.15625 245.828125 C 149.265625 245.738281 148.644531 245.5625 147.578125 244.761719 C 144.289062 242.714844 136.640625 234.003906 131.75 228.578125 C 127.039062 223.421875 120.367188 216.308594 118.5 213.019531 C 117.789062 211.683594 117.433594 210.972656 117.433594 209.996094 C 117.523438 209.015625 117.878906 207.773438 118.679688 207.148438 C 119.480469 206.351562 121.4375 205.640625 122.59375 205.726562 C 123.570312 205.816406 125.347656 207.328125 125.347656 207.328125 "/></clipPath><clipPath id="8fc521646d"><path d="M 75.933594 228.511719 L 121.707031 228.511719 L 121.707031 302.410156 L 75.933594 302.410156 Z M 75.933594 228.511719 "/></clipPath><clipPath id="cb62fccad1"><path d="M 113.789062 300.867188 C 83.914062 263.523438 78.933594 257.476562 77.15625 253.652344 C 76.265625 251.695312 76.179688 250.628906 76 249.03125 C 75.910156 247.429688 75.910156 245.738281 76.355469 244.140625 C 76.800781 242.628906 77.421875 241.472656 78.757812 239.78125 C 80.980469 236.847656 87.382812 230.625 89.960938 229.203125 C 91.117188 228.578125 91.828125 228.488281 92.804688 228.578125 C 93.695312 228.667969 94.671875 229.023438 95.382812 229.734375 C 96.09375 230.535156 96.804688 232.492188 96.71875 233.648438 C 96.628906 234.625 96.09375 235.515625 95.382812 236.136719 C 94.761719 236.757812 93.785156 237.382812 92.894531 237.382812 C 91.738281 237.46875 89.78125 236.671875 88.980469 235.871094 C 88.269531 235.246094 87.914062 234.179688 87.914062 233.292969 C 87.824219 232.402344 88.09375 231.246094 88.625 230.535156 C 89.160156 229.734375 90.050781 229.113281 90.847656 228.757812 C 91.738281 228.488281 92.894531 228.488281 93.695312 228.757812 C 94.582031 229.023438 95.472656 229.644531 96.007812 230.445312 C 96.539062 231.425781 96.984375 233.023438 96.449219 234.535156 C 95.5625 237.292969 88.894531 241.203125 86.9375 243.785156 C 85.871094 245.296875 84.980469 246.449219 84.890625 247.785156 C 84.804688 249.117188 85.691406 250.363281 86.582031 252.050781 C 88.269531 255.074219 91.648438 259.078125 95.382812 263.96875 C 101.609375 272.058594 118.769531 290.554688 120.992188 295.796875 C 121.613281 297.308594 121.613281 298.023438 121.4375 298.910156 C 121.167969 299.890625 120.457031 300.957031 119.65625 301.578125 C 118.859375 302.113281 117.523438 302.46875 116.546875 302.289062 C 115.566406 302.199219 113.789062 300.867188 113.789062 300.867188 "/></clipPath><clipPath id="4603177074"><path d="M 86.746094 221.605469 L 143.433594 221.605469 L 143.433594 266.914062 L 86.746094 266.914062 Z M 86.746094 221.605469 "/></clipPath><clipPath id="644807b410"><path d="M 88.625 229.113281 C 99.472656 222.175781 100.71875 222 102.230469 221.910156 C 103.832031 221.730469 105.699219 221.730469 107.121094 222.175781 C 108.632812 222.710938 109.433594 223.421875 111.121094 224.84375 C 115.300781 228.3125 125.527344 239.160156 130.773438 244.9375 C 134.507812 249.117188 137.707031 252.851562 139.929688 256.054688 C 141.441406 258.277344 143.21875 260.144531 143.398438 261.921875 C 143.488281 263.253906 142.597656 264.945312 141.796875 265.746094 C 141.175781 266.367188 140.109375 266.722656 139.128906 266.722656 C 138.242188 266.8125 137.175781 266.546875 136.460938 266.011719 C 135.574219 265.210938 134.59375 263.433594 134.507812 262.277344 C 134.417969 261.300781 134.863281 260.320312 135.484375 259.609375 C 136.019531 258.898438 136.90625 258.1875 137.796875 258.011719 C 138.953125 257.832031 140.910156 258.277344 141.886719 258.988281 C 142.6875 259.519531 143.132812 260.5 143.308594 261.386719 C 143.488281 262.277344 143.398438 263.433594 142.953125 264.234375 C 142.597656 265.035156 141.886719 265.921875 140.996094 266.277344 C 139.929688 266.722656 138.417969 266.988281 136.816406 266.191406 C 133.261719 264.5 128.195312 255.253906 123.390625 249.917969 C 118.324219 244.226562 110.765625 235.871094 106.941406 232.9375 C 105.253906 231.691406 104.1875 230.800781 102.765625 230.710938 C 101.429688 230.625 99.917969 231.601562 98.496094 232.492188 C 96.894531 233.46875 95.207031 235.691406 93.695312 236.402344 C 92.628906 236.9375 91.558594 237.292969 90.582031 237.113281 C 89.605469 237.027344 88.449219 236.316406 87.824219 235.691406 C 87.292969 235.160156 86.9375 234.535156 86.847656 233.824219 C 86.671875 232.9375 86.847656 231.511719 87.203125 230.625 C 87.558594 230 88.625 229.113281 88.625 229.113281 "/></clipPath><clipPath id="4b8d77977b"><path d="M 110.117188 254.515625 L 148.582031 254.515625 L 148.582031 307.269531 L 110.117188 307.269531 Z M 110.117188 254.515625 "/></clipPath><clipPath id="175c8805f4"><path d="M 117.167969 292.242188 C 130.238281 297.753906 133.882812 291.175781 136.019531 287.617188 C 137.617188 284.773438 138.683594 282.195312 139.21875 279.261719 C 139.753906 276.328125 139.839844 272.414062 139.308594 269.925781 C 138.773438 268.144531 137.886719 266.988281 136.90625 265.65625 C 135.839844 264.054688 133.441406 262.632812 132.726562 261.210938 C 132.195312 260.320312 132.015625 259.34375 132.105469 258.453125 C 132.285156 257.566406 132.726562 256.5 133.351562 255.875 C 133.972656 255.253906 134.949219 254.632812 135.839844 254.542969 C 136.996094 254.453125 138.953125 255.074219 139.839844 255.964844 C 140.640625 256.855469 141.175781 258.808594 140.910156 259.964844 C 140.640625 261.121094 139.308594 262.632812 138.152344 263.078125 C 136.996094 263.523438 135.039062 263.34375 134.0625 262.632812 C 132.996094 261.921875 132.105469 260.144531 132.105469 258.898438 C 132.105469 257.742188 133.171875 255.964844 134.0625 255.253906 C 134.863281 254.71875 135.929688 254.453125 136.816406 254.542969 C 137.707031 254.632812 138.507812 254.988281 139.484375 255.609375 C 141.085938 256.675781 143.664062 259.164062 145.085938 261.476562 C 146.6875 263.878906 147.933594 266.722656 148.378906 269.925781 C 148.910156 274.101562 148.199219 280.238281 147.132812 284.328125 C 146.242188 287.617188 145.085938 289.839844 143.308594 292.6875 C 141.175781 296.242188 136.996094 301.402344 134.59375 303.710938 C 133.171875 305.136719 132.285156 305.933594 130.859375 306.558594 C 129.527344 307.089844 127.835938 307.179688 126.238281 307.179688 C 124.726562 307.089844 123.390625 307.179688 121.613281 306.46875 C 118.589844 305.136719 112.011719 300.246094 110.675781 297.84375 C 109.964844 296.6875 110.054688 295.710938 110.320312 294.730469 C 110.589844 293.753906 111.300781 292.6875 112.101562 292.152344 C 112.988281 291.621094 114.324219 291.441406 115.210938 291.441406 C 115.921875 291.53125 117.167969 292.242188 117.167969 292.242188 "/></clipPath><clipPath id="a2593195bb"><path d="M 109.460938 161.03125 L 156.40625 161.03125 L 156.40625 202.488281 L 109.460938 202.488281 Z M 109.460938 161.03125 "/></clipPath><clipPath id="b96df5faef"><path d="M 111.476562 194.433594 C 151.132812 161.003906 151.667969 161.003906 152.554688 161.179688 C 153.710938 161.535156 155.3125 162.78125 155.847656 163.757812 C 156.289062 164.648438 156.289062 165.714844 156.113281 166.605469 C 155.933594 167.492188 155.402344 168.472656 154.601562 169.003906 C 153.710938 169.71875 151.667969 170.074219 150.601562 169.894531 C 149.621094 169.71875 148.734375 169.003906 148.199219 168.207031 C 147.664062 167.492188 147.222656 166.515625 147.308594 165.539062 C 147.488281 164.382812 148.464844 162.605469 149.355469 161.890625 C 150.066406 161.269531 151.132812 161.003906 152.113281 161.179688 C 153.269531 161.359375 154.957031 162.425781 155.667969 163.316406 C 156.203125 164.117188 156.289062 165.269531 156.203125 166.160156 C 156.113281 167.050781 155.933594 167.492188 154.957031 168.738281 C 151.132812 173.71875 122.503906 198.527344 116.722656 201.636719 C 115.210938 202.347656 114.589844 202.527344 113.613281 202.4375 C 112.632812 202.347656 111.476562 201.726562 110.855469 201.015625 C 110.144531 200.304688 109.609375 199.148438 109.609375 198.082031 C 109.699219 196.925781 111.476562 194.433594 111.476562 194.433594 "/></clipPath><clipPath id="9247433d76"><path d="M 174.957031 40.605469 L 297.46875 40.605469 L 297.46875 147.582031 L 174.957031 147.582031 Z M 174.957031 40.605469 "/></clipPath><clipPath id="e9c352f763"><path d="M 176.296875 139.839844 C 258.988281 67.910156 263.078125 62.929688 268.589844 58.484375 C 272.859375 55.105469 277.039062 53.148438 280.773438 50.214844 C 284.328125 47.546875 288.0625 42.835938 290.464844 41.589844 C 291.53125 41.054688 292.242188 40.878906 293.21875 41.054688 C 294.375 41.324219 295.976562 42.480469 296.597656 43.457031 C 297.132812 44.257812 297.132812 45.414062 297.042969 46.300781 C 296.867188 47.191406 296.421875 48.167969 295.621094 48.792969 C 294.730469 49.414062 292.777344 49.949219 291.621094 49.769531 C 290.640625 49.59375 289.753906 48.96875 289.21875 48.257812 C 288.597656 47.546875 288.152344 46.570312 288.242188 45.589844 C 288.242188 44.433594 289.042969 42.566406 290.019531 41.855469 C 290.996094 41.144531 292.953125 40.878906 294.109375 41.324219 C 295.265625 41.679688 296.597656 43.28125 296.953125 44.347656 C 297.222656 45.234375 297.132812 46.214844 296.777344 47.191406 C 296.066406 48.703125 294.554688 50.125 292.507812 52.082031 C 288.417969 55.726562 279.171875 61.242188 273.125 66.398438 C 267.078125 71.464844 263.789062 75.554688 255.964844 82.667969 C 240.050781 96.984375 190.699219 141.085938 182.433594 146.242188 C 180.921875 147.222656 180.476562 147.488281 179.496094 147.488281 C 178.519531 147.578125 177.273438 147.132812 176.5625 146.511719 C 175.761719 145.886719 175.050781 144.820312 174.964844 143.753906 C 174.875 142.597656 176.296875 139.839844 176.296875 139.839844 "/></clipPath><clipPath id="3f8f9522dc"><path d="M 288.167969 41 L 328 41 L 328 83.070312 L 288.167969 83.070312 Z M 288.167969 41 "/></clipPath><clipPath id="c655b9402a"><path d="M 293.84375 41.144531 C 308.601562 51.726562 317.492188 61.953125 321.851562 67.996094 C 324.785156 72.089844 327.898438 76.621094 327.984375 79.023438 C 327.984375 80.179688 327.453125 80.980469 326.832031 81.601562 C 326.207031 82.3125 325.140625 82.847656 324.25 82.9375 C 323.453125 83.113281 322.296875 82.9375 321.496094 82.492188 C 320.695312 82.136719 319.894531 81.335938 319.539062 80.445312 C 319.09375 79.378906 319.09375 77.335938 319.71875 76.265625 C 320.339844 75.289062 322.207031 74.3125 323.273438 74.132812 C 324.25 74.042969 325.320312 74.3125 326.03125 74.933594 C 326.917969 75.644531 327.984375 77.335938 327.984375 78.578125 C 327.984375 79.824219 327.097656 81.601562 326.03125 82.222656 C 325.050781 82.9375 323.363281 83.378906 321.941406 82.667969 C 319.003906 81.511719 315.714844 74.132812 312.160156 69.863281 C 308.335938 65.332031 303.890625 60.171875 299.800781 56.351562 C 296.15625 52.972656 290.375 49.859375 288.863281 47.902344 C 288.328125 47.101562 288.242188 46.570312 288.242188 45.859375 C 288.152344 44.96875 288.507812 43.636719 289.042969 42.835938 C 289.664062 42.035156 290.820312 41.324219 291.707031 41.144531 C 292.421875 40.878906 293.84375 41.144531 293.84375 41.144531 "/></clipPath><clipPath id="24a0159914"><path d="M 302.140625 75.410156 L 330.695312 75.410156 L 330.695312 105.238281 L 302.140625 105.238281 Z M 302.140625 75.410156 "/></clipPath><clipPath id="92da9c9cda"><path d="M 328.964844 80 C 331.363281 102.050781 330.742188 103.476562 329.320312 104.363281 C 327.363281 105.609375 323.273438 105.074219 319.804688 104.71875 C 315.449219 104.363281 308.246094 102.765625 305.492188 101.695312 C 304.335938 101.164062 303.710938 100.808594 303.179688 100.097656 C 302.644531 99.386719 302.199219 98.316406 302.289062 97.429688 C 302.378906 96.273438 303.269531 94.40625 304.15625 93.695312 C 304.957031 93.070312 305.933594 92.804688 306.914062 92.894531 C 308.070312 93.070312 309.847656 94.050781 310.46875 95.027344 C 311.09375 96.09375 311.269531 98.140625 310.738281 99.207031 C 310.203125 100.363281 308.511719 101.429688 307.445312 101.785156 C 306.46875 101.964844 305.402344 101.695312 304.601562 101.339844 C 303.800781 100.898438 303.089844 100.097656 302.644531 99.296875 C 302.289062 98.40625 302.199219 97.339844 302.378906 96.449219 C 302.554688 95.5625 303.089844 94.582031 303.800781 93.960938 C 304.511719 93.425781 305.136719 93.070312 306.46875 92.894531 C 309.9375 92.539062 325.230469 94.316406 325.941406 96.273438 C 326.207031 97.160156 323.71875 99.742188 322.917969 99.5625 C 321.496094 99.117188 320.695312 90.050781 320.339844 86.226562 C 320.074219 83.46875 319.628906 80.710938 320.160156 78.933594 C 320.515625 77.777344 321.140625 76.890625 321.941406 76.355469 C 322.738281 75.824219 324.074219 75.464844 325.050781 75.554688 C 326.03125 75.734375 327.1875 76.355469 327.808594 77.066406 C 328.429688 77.777344 328.964844 80 328.964844 80 "/></clipPath><clipPath id="c02bb3b9c7"><path d="M 283.277344 92.820312 L 313.390625 92.820312 L 313.390625 124.558594 L 283.277344 124.558594 Z M 283.277344 92.820312 "/></clipPath><clipPath id="812ee3e4ae"><path d="M 311.179688 97.339844 C 313.847656 120.28125 313.671875 122.058594 312.691406 123.125 C 311.714844 124.101562 309.847656 124.28125 308.246094 124.460938 C 306.558594 124.636719 305.136719 124.460938 302.910156 124.101562 C 298.910156 123.390625 289.308594 120.992188 286.460938 119.570312 C 285.21875 119.035156 284.683594 118.589844 284.152344 117.878906 C 283.617188 117.167969 283.351562 116.011719 283.441406 115.121094 C 283.441406 114.234375 283.796875 113.167969 284.417969 112.457031 C 285.308594 111.65625 287.085938 110.855469 288.328125 110.945312 C 289.574219 111.121094 291.175781 112.367188 291.796875 113.253906 C 292.242188 114.054688 292.332031 115.210938 292.242188 116.101562 C 292.0625 116.988281 291.621094 117.96875 290.910156 118.589844 C 290.019531 119.300781 288.0625 119.835938 286.90625 119.746094 C 285.929688 119.570312 285.039062 118.945312 284.417969 118.234375 C 283.882812 117.613281 283.441406 116.546875 283.441406 115.65625 C 283.351562 114.679688 283.527344 113.613281 284.152344 112.898438 C 284.863281 112.011719 286.375 111.210938 287.886719 110.945312 C 289.929688 110.589844 292.863281 111.566406 295.53125 112.277344 C 298.378906 112.988281 301.84375 114.855469 304.335938 115.300781 C 306.113281 115.65625 308.957031 115.121094 309.046875 115.566406 C 309.226562 116.011719 306.113281 118.589844 305.136719 118.144531 C 302.910156 117.167969 301.84375 101.164062 302.289062 97.339844 C 302.378906 95.917969 302.734375 95.117188 303.355469 94.40625 C 303.980469 93.695312 305.222656 93.070312 306.203125 92.984375 C 307.089844 92.804688 308.425781 93.070312 309.226562 93.695312 C 310.113281 94.40625 311.179688 97.339844 311.179688 97.339844 "/></clipPath><clipPath id="9f5af84b42"><path d="M 264.015625 110.8125 L 293.816406 110.8125 L 293.816406 145.679688 L 264.015625 145.679688 Z M 264.015625 110.8125 "/></clipPath><clipPath id="ae08ccd462"><path d="M 292.332031 115.390625 C 294.554688 142.332031 293.929688 144.199219 291.976562 145.175781 C 288.417969 146.867188 277.125 143.21875 272.414062 142.0625 C 269.65625 141.441406 267.433594 141.265625 266.011719 140.109375 C 264.945312 139.128906 264.054688 137.617188 264.144531 136.375 C 264.144531 135.128906 265.035156 133.441406 266.101562 132.726562 C 267.078125 132.015625 269.035156 131.839844 270.191406 132.285156 C 271.347656 132.726562 272.59375 134.328125 272.859375 135.484375 C 273.214844 136.375 272.949219 137.441406 272.59375 138.242188 C 272.234375 139.128906 271.523438 139.929688 270.636719 140.375 C 269.570312 140.820312 267.523438 140.910156 266.457031 140.375 C 265.390625 139.753906 264.234375 138.0625 264.144531 136.90625 C 263.96875 135.664062 264.765625 133.796875 265.65625 132.996094 C 266.632812 132.195312 267.878906 132.105469 269.746094 132.105469 C 273.746094 132.195312 288.0625 134.59375 288.863281 136.816406 C 289.21875 137.972656 286.90625 140.730469 286.195312 140.554688 C 284.417969 140.109375 282.460938 118.414062 283.527344 114.324219 C 283.882812 112.898438 284.507812 112.277344 285.308594 111.746094 C 286.105469 111.121094 287.441406 110.855469 288.417969 110.945312 C 289.398438 111.121094 290.554688 111.65625 291.175781 112.457031 C 291.796875 113.167969 292.332031 115.390625 292.332031 115.390625 "/></clipPath><clipPath id="5754283268"><path d="M 244.332031 131.945312 L 273.660156 131.945312 L 273.660156 163.160156 L 244.332031 163.160156 Z M 244.332031 131.945312 "/></clipPath><clipPath id="498098e343"><path d="M 273.035156 136.375 C 274.015625 159.402344 273.746094 161.449219 272.234375 162.515625 C 270.457031 163.757812 266.722656 162.871094 263.253906 162.425781 C 258.453125 161.890625 248.941406 160.023438 246.273438 158.15625 C 245.207031 157.359375 244.761719 156.558594 244.582031 155.578125 C 244.316406 154.601562 244.496094 153.355469 244.9375 152.46875 C 245.472656 151.578125 246.539062 150.777344 247.339844 150.421875 C 248.050781 150.066406 249.472656 149.976562 249.472656 150.15625 C 249.5625 150.421875 245.117188 152.554688 245.027344 152.378906 C 244.9375 152.289062 246.273438 150.867188 247.074219 150.511719 C 247.875 150.15625 249.03125 150.066406 249.917969 150.246094 C 250.808594 150.421875 251.785156 151.042969 252.320312 151.757812 C 252.851562 152.46875 253.386719 153.445312 253.296875 154.421875 C 253.296875 155.578125 252.40625 157.359375 251.519531 158.15625 C 250.808594 158.78125 249.742188 159.046875 248.851562 159.046875 C 247.960938 158.957031 246.804688 158.691406 246.183594 158.070312 C 245.292969 157.269531 244.40625 155.492188 244.496094 154.246094 C 244.496094 153 245.5625 151.3125 246.628906 150.6875 C 247.695312 150.066406 249.742188 150.15625 250.808594 150.601562 C 251.695312 150.867188 252.40625 151.757812 252.851562 152.554688 C 253.296875 153.355469 253.652344 154.421875 253.296875 155.3125 C 252.675781 156.644531 249.742188 158.871094 248.316406 158.957031 C 247.25 159.046875 246.183594 158.246094 245.5625 157.445312 C 244.851562 156.734375 244.40625 155.492188 244.40625 154.511719 C 244.496094 153.535156 244.851562 152.289062 245.5625 151.578125 C 246.449219 150.777344 247.695312 150.246094 249.472656 150.15625 C 253.476562 149.890625 268.945312 152.734375 269.300781 154.421875 C 269.480469 155.222656 266.457031 157.535156 265.566406 157.089844 C 263.523438 156.113281 263.253906 138.953125 264.234375 135.308594 C 264.589844 133.972656 265.210938 133.351562 266.011719 132.726562 C 266.8125 132.195312 268.144531 131.839844 269.125 132.015625 C 270.101562 132.105469 271.257812 132.726562 271.878906 133.441406 C 272.503906 134.238281 273.035156 136.375 273.035156 136.375 "/></clipPath><clipPath id="5def504391"><path d="M 225.257812 150.035156 L 255.722656 150.035156 L 255.722656 181.996094 L 225.257812 181.996094 Z M 225.257812 150.035156 "/></clipPath><clipPath id="e7b9472ec2"><path d="M 253.296875 154.601562 C 256.230469 177.808594 256.054688 180.121094 254.453125 181.1875 C 252.585938 182.519531 248.496094 181.542969 244.9375 181.097656 C 240.136719 180.566406 231.335938 178.964844 228.402344 177.628906 C 227.15625 177.097656 226.621094 176.652344 226.089844 175.851562 C 225.644531 175.140625 225.199219 174.074219 225.378906 173.183594 C 225.554688 172.027344 226.621094 170.25 227.511719 169.539062 C 228.3125 169.003906 229.378906 168.828125 230.269531 169.003906 C 231.425781 169.183594 233.113281 170.339844 233.734375 171.316406 C 234.269531 172.117188 234.359375 173.183594 234.179688 174.074219 C 234.089844 174.964844 233.648438 176.03125 232.847656 176.652344 C 231.957031 177.363281 230 177.898438 228.84375 177.71875 C 227.867188 177.628906 226.976562 176.917969 226.445312 176.296875 C 225.824219 175.585938 225.378906 174.519531 225.378906 173.628906 C 225.289062 172.738281 225.554688 171.671875 226.089844 170.871094 C 226.890625 169.984375 228.132812 169.183594 229.824219 168.917969 C 233.203125 168.472656 241.828125 171.40625 245.5625 172.207031 C 247.605469 172.738281 249.742188 172.382812 250.273438 173.363281 C 250.898438 174.429688 249.03125 178.964844 248.40625 178.964844 C 247.25 178.875 245.472656 165.625 244.9375 160.914062 C 244.582031 157.980469 244.050781 155.3125 244.582031 153.535156 C 244.9375 152.378906 245.5625 151.488281 246.363281 150.867188 C 247.164062 150.332031 248.40625 150.066406 249.386719 150.15625 C 250.363281 150.246094 251.519531 150.867188 252.230469 151.578125 C 252.851562 152.378906 253.296875 154.601562 253.296875 154.601562 "/></clipPath><clipPath id="8b9408f386"><path d="M 225.226562 168.921875 L 236.0625 168.921875 L 236.0625 191.914062 L 225.226562 191.914062 Z M 225.226562 168.921875 "/></clipPath><clipPath id="d26835928e"><path d="M 234.269531 173.363281 C 234.714844 184.386719 232.757812 182.964844 232.757812 183.054688 C 232.667969 183.144531 234.535156 183.855469 235.070312 184.65625 C 235.78125 185.542969 236.136719 187.589844 235.871094 188.746094 C 235.601562 189.632812 234.890625 190.523438 234.179688 190.96875 C 233.378906 191.5 232.402344 191.945312 231.425781 191.855469 C 230.269531 191.679688 228.488281 190.789062 227.867188 189.722656 C 227.15625 188.65625 227.15625 186.699219 227.511719 185.542969 C 227.867188 184.65625 228.667969 183.945312 229.46875 183.5 C 230.269531 183.054688 231.335938 182.789062 232.222656 182.964844 C 233.378906 183.230469 235.070312 184.476562 235.601562 185.453125 C 236.046875 186.253906 236.136719 187.410156 235.957031 188.300781 C 235.78125 189.101562 235.335938 190.167969 234.535156 190.699219 C 233.648438 191.414062 231.691406 192.210938 230.445312 191.679688 C 228.757812 190.96875 227.246094 187.234375 226.355469 184.476562 C 225.378906 181.277344 225.023438 175.851562 225.378906 173.363281 C 225.554688 172.027344 225.824219 171.140625 226.445312 170.429688 C 227.15625 169.71875 228.3125 169.09375 229.289062 169.003906 C 230.269531 168.828125 231.511719 169.09375 232.3125 169.71875 C 233.292969 170.429688 234.269531 173.363281 234.269531 173.363281 "/></clipPath><clipPath id="71fa28c492"><path d="M 155.011719 227.519531 L 182.421875 227.519531 L 182.421875 256.269531 L 155.011719 256.269531 Z M 155.011719 227.519531 "/></clipPath><clipPath id="ca5058939a"><path d="M 159.847656 245.296875 C 176.296875 248.230469 174.164062 251.164062 173.453125 251.074219 C 172.382812 250.984375 171.40625 245.382812 170.695312 242.359375 C 169.984375 239.160156 168.828125 234.890625 169.09375 232.3125 C 169.359375 230.710938 169.984375 229.289062 170.785156 228.578125 C 171.496094 227.867188 172.5625 227.511719 173.453125 227.601562 C 174.605469 227.691406 176.472656 228.578125 177.1875 229.46875 C 177.808594 230.179688 177.984375 231.335938 177.984375 232.222656 C 177.984375 233.113281 177.542969 234.179688 177.007812 234.890625 C 176.386719 235.515625 175.40625 236.136719 174.605469 236.316406 C 173.71875 236.582031 172.5625 236.582031 171.761719 236.136719 C 170.695312 235.515625 169.449219 233.914062 169.183594 232.847656 C 168.917969 231.867188 169.183594 230.800781 169.628906 230 C 169.984375 229.203125 170.785156 228.402344 171.585938 228.046875 C 172.382812 227.601562 173.539062 227.421875 174.429688 227.691406 C 175.496094 227.957031 176.652344 228.757812 177.628906 230.355469 C 179.851562 233.824219 182.875 247.074219 182.253906 251.253906 C 181.988281 253.207031 181.363281 254.453125 180.03125 255.34375 C 178.074219 256.585938 173.808594 256.230469 170.339844 255.964844 C 166.25 255.785156 159.667969 254.988281 157.359375 253.5625 C 156.203125 252.851562 155.667969 251.964844 155.402344 251.074219 C 155.136719 250.453125 155.046875 249.742188 155.222656 249.03125 C 155.402344 248.140625 156.023438 246.894531 156.824219 246.273438 C 157.625 245.652344 159.847656 245.296875 159.847656 245.296875 "/></clipPath><clipPath id="bff758a013"><path d="M 169 207.386719 L 203.445312 207.386719 L 203.445312 238 L 169 238 Z M 169 207.386719 "/></clipPath><clipPath id="3807769ec8"><path d="M 173.539062 227.601562 C 194.523438 229.734375 191.945312 233.378906 191.144531 233.292969 C 190.523438 233.292969 190.078125 230.800781 189.722656 228.84375 C 189.011719 225.554688 188.390625 218.710938 188.832031 214.886719 C 189.101562 212.21875 189.367188 209.195312 190.789062 208.039062 C 191.945312 207.0625 194.433594 207.683594 196.035156 207.773438 C 197.546875 207.863281 199.148438 207.863281 200.394531 208.484375 C 201.546875 209.105469 202.882812 210.351562 203.238281 211.507812 C 203.59375 212.664062 202.972656 214.621094 202.347656 215.597656 C 201.816406 216.308594 200.75 216.84375 199.949219 217.019531 C 199.058594 217.199219 197.902344 217.199219 197.101562 216.753906 C 196.035156 216.128906 194.792969 214.621094 194.523438 213.375 C 194.347656 212.21875 194.96875 210.261719 195.859375 209.460938 C 196.746094 208.574219 198.792969 208.21875 199.949219 208.304688 C 200.835938 208.484375 201.726562 209.105469 202.347656 209.816406 C 202.882812 210.527344 203.328125 211.507812 203.414062 212.484375 C 203.414062 213.375 203.148438 214.441406 202.617188 215.152344 C 202.082031 215.953125 201.460938 216.664062 200.394531 216.929688 C 198.613281 217.285156 192.835938 216.21875 192.566406 215.152344 C 192.300781 214.261719 196.035156 210.882812 197.191406 211.417969 C 199.414062 212.308594 201.105469 230.625 199.058594 234.535156 C 198.082031 236.492188 196.390625 236.9375 193.992188 237.558594 C 189.367188 238.625 176.117188 237.558594 172.472656 236.316406 C 171.140625 235.871094 170.429688 235.335938 169.894531 234.535156 C 169.359375 233.734375 169.003906 232.492188 169.09375 231.511719 C 169.273438 230.535156 169.894531 229.378906 170.605469 228.667969 C 171.316406 228.046875 173.539062 227.601562 173.539062 227.601562 "/></clipPath></defs><g id="f26fe46839"><g clip-rule="nonzero" clip-path="url(#b6f07c57ad)"><g clip-rule="nonzero" clip-path="url(#eb4e68ef1f)"><path style=" stroke:none;fill-rule:nonzero;fill:currentColor;fill-opacity:1;" d="M 37.5 141.085938 L 89.988281 141.085938 L 89.988281 191.414062 L 37.5 191.414062 Z M 37.5 141.085938 "/></g></g><g clip-rule="nonzero" clip-path="url(#65d8eb4f6f)"><g clip-rule="nonzero" clip-path="url(#34c21c2782)"><path style=" stroke:none;fill-rule:nonzero;fill:currentColor;fill-opacity:1;" d="M 74.042969 142.332031 L 108.1875 142.332031 L 108.1875 191.414062 L 74.042969 191.414062 Z M 74.042969 142.332031 "/></g></g><g clip-rule="nonzero" clip-path="url(#76fb2e66c5)"><g clip-rule="nonzero" clip-path="url(#79cbdc2fbd)"><path style=" stroke:none;fill-rule:nonzero;fill:currentColor;fill-opacity:1;" d="M 39.101562 125.792969 L 89.28125 125.792969 L 89.28125 155.667969 L 39.101562 155.667969 Z M 39.101562 125.792969 "/></g></g><g clip-rule="nonzero" clip-path="url(#f63023fe28)"><g clip-rule="nonzero" clip-path="url(#8f96f0d2d6)"><path style=" stroke:none;fill-rule:nonzero;fill:currentColor;fill-opacity:1;" d="M 73.511719 63.640625 L 140.554688 63.640625 L 140.554688 141.683594 L 73.511719 141.683594 Z M 73.511719 63.640625 "/></g></g><g clip-rule="nonzero" clip-path="url(#38fe833fb3)"><g clip-rule="nonzero" clip-path="url(#a82a3144fe)"><path style=" stroke:none;fill-rule:nonzero;fill:currentColor;fill-opacity:1;" d="M 90.40625 100.453125 L 165.363281 100.453125 L 165.363281 158.601562 L 90.40625 158.601562 Z M 90.40625 100.453125 "/></g></g><g clip-rule="nonzero" clip-path="url(#2239c4a343)"><g clip-rule="nonzero" clip-path="url(#596aa7588e)"><path style=" stroke:none;fill-rule:nonzero;fill:currentColor;fill-opacity:1;" d="M 121.878906 44.703125 L 212.601562 44.703125 L 212.601562 80.269531 L 121.878906 80.269531 Z M 121.878906 44.703125 "/></g></g><g clip-rule="nonzero" clip-path="url(#c039758dc2)"><g clip-rule="nonzero" clip-path="url(#05a6260921)"><path style=" stroke:none;fill-rule:nonzero;fill:currentColor;fill-opacity:1;" d="M 123.035156 131.394531 L 206.75 131.394531 L 206.75 213.820312 L 123.035156 213.820312 Z M 123.035156 131.394531 "/></g></g><g clip-rule="nonzero" clip-path="url(#7dcee2cbc4)"><g clip-rule="nonzero" clip-path="url(#68c6c9f8f3)"><path style=" stroke:none;fill-rule:nonzero;fill:currentColor;fill-opacity:1;" d="M 141.886719 114.144531 L 223.332031 114.144531 L 223.332031 197.5 L 141.886719 197.5 Z M 141.886719 114.144531 "/></g></g><g clip-rule="nonzero" clip-path="url(#2e3d80e811)"><g clip-rule="nonzero" clip-path="url(#6be01858c4)"><path style=" stroke:none;fill-rule:nonzero;fill:currentColor;fill-opacity:1;" d="M 148.378906 51.992188 L 214.511719 51.992188 L 214.511719 116.367188 L 148.378906 116.367188 Z M 148.378906 51.992188 "/></g></g><g clip-rule="nonzero" clip-path="url(#f3044ee620)"><g clip-rule="nonzero" clip-path="url(#297669c7a5)"><path style=" stroke:none;fill-rule:nonzero;fill:currentColor;fill-opacity:1;" d="M 192.480469 182.078125 L 252.082031 182.078125 L 252.082031 240.761719 L 192.480469 240.761719 Z M 192.480469 182.078125 "/></g></g><g clip-rule="nonzero" clip-path="url(#364c544783)"><g clip-rule="nonzero" clip-path="url(#fdf67e1ed6)"><path style=" stroke:none;fill-rule:nonzero;fill:currentColor;fill-opacity:1;" d="M 199.679688 223.6875 L 287.53125 223.6875 L 287.53125 317.714844 L 199.679688 317.714844 Z M 199.679688 223.6875 "/></g></g><g clip-rule="nonzero" clip-path="url(#5ff0ff15d5)"><g clip-rule="nonzero" clip-path="url(#9828181d63)"><path style=" stroke:none;fill-rule:nonzero;fill:currentColor;fill-opacity:1;" d="M 235.78125 191.144531 L 326.792969 191.144531 L 326.792969 275.257812 L 235.78125 275.257812 Z M 235.78125 191.144531 "/></g></g><g clip-rule="nonzero" clip-path="url(#b7e2450066)"><g clip-rule="nonzero" clip-path="url(#e1ca664bac)"><path style=" stroke:none;fill-rule:nonzero;fill:currentColor;fill-opacity:1;" d="M 266.988281 251.429688 L 334.65625 251.429688 L 334.65625 323.324219 L 266.988281 323.324219 Z M 266.988281 251.429688 "/></g></g><g clip-rule="nonzero" clip-path="url(#d91b18302f)"><g clip-rule="nonzero" clip-path="url(#4bccabaad1)"><path style=" stroke:none;fill-rule:nonzero;fill:currentColor;fill-opacity:1;" d="M 41.324219 190.433594 L 131.519531 190.433594 L 131.519531 251.519531 L 41.324219 251.519531 Z M 41.324219 190.433594 "/></g></g><g clip-rule="nonzero" clip-path="url(#4a6fc8da43)"><g clip-rule="nonzero" clip-path="url(#a37139f508)"><path style=" stroke:none;fill-rule:nonzero;fill:currentColor;fill-opacity:1;" d="M 40.167969 233.378906 L 106.585938 233.378906 L 106.585938 317.960938 L 40.167969 317.960938 Z M 40.167969 233.378906 "/></g></g><g clip-rule="nonzero" clip-path="url(#c754492c19)"><g clip-rule="nonzero" clip-path="url(#d21ce2516a)"><path style=" stroke:none;fill-rule:nonzero;fill:currentColor;fill-opacity:1;" d="M 88.894531 295 L 165.429688 295 L 165.429688 337.5 L 88.894531 337.5 Z M 88.894531 295 "/></g></g><g clip-rule="nonzero" clip-path="url(#f059ed7994)"><g clip-rule="nonzero" clip-path="url(#a504ae9bc0)"><path style=" stroke:none;fill-rule:nonzero;fill:currentColor;fill-opacity:1;" d="M 138.507812 229.46875 L 173.097656 229.46875 L 173.097656 316.207031 L 138.507812 316.207031 Z M 138.507812 229.46875 "/></g></g><g clip-rule="nonzero" clip-path="url(#a71aa34bcc)"><g clip-rule="nonzero" clip-path="url(#590f950d66)"><path style=" stroke:none;fill-rule:nonzero;fill:currentColor;fill-opacity:1;" d="M 113.878906 202.171875 L 158.335938 202.171875 L 158.335938 249.40625 L 113.878906 249.40625 Z M 113.878906 202.171875 "/></g></g><g clip-rule="nonzero" clip-path="url(#8fc521646d)"><g clip-rule="nonzero" clip-path="url(#cb62fccad1)"><path style=" stroke:none;fill-rule:nonzero;fill:currentColor;fill-opacity:1;" d="M 72.445312 225.023438 L 124.992188 225.023438 L 124.992188 305.898438 L 72.445312 305.898438 Z M 72.445312 225.023438 "/></g></g><g clip-rule="nonzero" clip-path="url(#4603177074)"><g clip-rule="nonzero" clip-path="url(#644807b410)"><path style=" stroke:none;fill-rule:nonzero;fill:currentColor;fill-opacity:1;" d="M 83.292969 218.355469 L 147.089844 218.355469 L 147.089844 270.367188 L 83.292969 270.367188 Z M 83.292969 218.355469 "/></g></g><g clip-rule="nonzero" clip-path="url(#4b8d77977b)"><g clip-rule="nonzero" clip-path="url(#175c8805f4)"><path style=" stroke:none;fill-rule:nonzero;fill:currentColor;fill-opacity:1;" d="M 106.765625 250.984375 L 151.933594 250.984375 L 151.933594 310.800781 L 106.765625 310.800781 Z M 106.765625 250.984375 "/></g></g><g clip-rule="nonzero" clip-path="url(#a2593195bb)"><g clip-rule="nonzero" clip-path="url(#b96df5faef)"><path style=" stroke:none;fill-rule:nonzero;fill:currentColor;fill-opacity:1;" d="M 106.054688 157.625 L 159.8125 157.625 L 159.8125 206.082031 L 106.054688 206.082031 Z M 106.054688 157.625 "/></g></g><g clip-rule="nonzero" clip-path="url(#9247433d76)"><g clip-rule="nonzero" clip-path="url(#e9c352f763)"><path style=" stroke:none;fill-rule:nonzero;fill:currentColor;fill-opacity:1;" d="M 171.40625 37.5 L 300.574219 37.5 L 300.574219 151.132812 L 171.40625 151.132812 Z M 171.40625 37.5 "/></g></g><g clip-rule="nonzero" clip-path="url(#3f8f9522dc)"><g clip-rule="nonzero" clip-path="url(#c655b9402a)"><path style=" stroke:none;fill-rule:nonzero;fill:currentColor;fill-opacity:1;" d="M 284.683594 37.589844 L 331.632812 37.589844 L 331.632812 86.554688 L 284.683594 86.554688 Z M 284.683594 37.589844 "/></g></g><g clip-rule="nonzero" clip-path="url(#24a0159914)"><g clip-rule="nonzero" clip-path="url(#92da9c9cda)"><path style=" stroke:none;fill-rule:nonzero;fill:currentColor;fill-opacity:1;" d="M 298.734375 72 L 335.527344 72 L 335.527344 108.367188 L 298.734375 108.367188 Z M 298.734375 72 "/></g></g><g clip-rule="nonzero" clip-path="url(#c02bb3b9c7)"><g clip-rule="nonzero" clip-path="url(#812ee3e4ae)"><path style=" stroke:none;fill-rule:nonzero;fill:currentColor;fill-opacity:1;" d="M 279.882812 89.425781 L 317.671875 89.425781 L 317.671875 128.101562 L 279.882812 128.101562 Z M 279.882812 89.425781 "/></g></g><g clip-rule="nonzero" clip-path="url(#9f5af84b42)"><g clip-rule="nonzero" clip-path="url(#ae08ccd462)"><path style=" stroke:none;fill-rule:nonzero;fill:currentColor;fill-opacity:1;" d="M 260.589844 107.386719 L 298.734375 107.386719 L 298.734375 148.660156 L 260.589844 148.660156 Z M 260.589844 107.386719 "/></g></g><g clip-rule="nonzero" clip-path="url(#5754283268)"><g clip-rule="nonzero" clip-path="url(#498098e343)"><path style=" stroke:none;fill-rule:nonzero;fill:currentColor;fill-opacity:1;" d="M 240.847656 128.460938 L 278.015625 128.460938 L 278.015625 166.207031 L 240.847656 166.207031 Z M 240.847656 128.460938 "/></g></g><g clip-rule="nonzero" clip-path="url(#5def504391)"><g clip-rule="nonzero" clip-path="url(#e7b9472ec2)"><path style=" stroke:none;fill-rule:nonzero;fill:currentColor;fill-opacity:1;" d="M 221.820312 146.597656 L 260.054688 146.597656 L 260.054688 184.832031 L 221.820312 184.832031 Z M 221.820312 146.597656 "/></g></g><g clip-rule="nonzero" clip-path="url(#8b9408f386)"><g clip-rule="nonzero" clip-path="url(#d26835928e)"><path style=" stroke:none;fill-rule:nonzero;fill:currentColor;fill-opacity:1;" d="M 221.820312 165.449219 L 239.605469 165.449219 L 239.605469 195.386719 L 221.820312 195.386719 Z M 221.820312 165.449219 "/></g></g><g clip-rule="nonzero" clip-path="url(#71fa28c492)"><g clip-rule="nonzero" clip-path="url(#ca5058939a)"><path style=" stroke:none;fill-rule:nonzero;fill:currentColor;fill-opacity:1;" d="M 151.667969 224.042969 L 185.898438 224.042969 L 185.898438 259.613281 L 151.667969 259.613281 Z M 151.667969 224.042969 "/></g></g><g clip-rule="nonzero" clip-path="url(#bff758a013)"><g clip-rule="nonzero" clip-path="url(#3807769ec8)"><path style=" stroke:none;fill-rule:nonzero;fill:currentColor;fill-opacity:1;" d="M 165.539062 204.214844 L 206.90625 204.214844 L 206.90625 241.117188 L 165.539062 241.117188 Z M 165.539062 204.214844 "/></g></g></g></svg>