<svg xmlns="http://www.w3.org/2000/svg" xmlns:xlink="http://www.w3.org/1999/xlink" width="500" zoomAndPan="magnify" viewBox="0 0 375 374.999991" height="500" preserveAspectRatio="xMidYMid meet" version="1.2"><defs><clipPath id="7908a25da8"><path d="M 127.605469 323.664062 L 245.675781 323.664062 L 245.675781 334.410156 L 127.605469 334.410156 Z M 127.605469 323.664062 "/></clipPath><clipPath id="a65c115d91"><path d="M 131.597656 324.527344 C 163.828125 326.519531 173.613281 326.597656 183.640625 326.28125 C 194.542969 326.042969 207.355469 324.527344 217.699219 324.210938 C 226.371094 323.890625 237.355469 323.175781 241.652344 324.210938 C 243.324219 324.609375 244.277344 325.164062 244.914062 325.960938 C 245.472656 326.597656 245.710938 327.554688 245.628906 328.429688 C 245.472656 329.382812 244.515625 330.976562 243.71875 331.613281 C 243.003906 332.089844 242.050781 332.328125 241.171875 332.167969 C 240.21875 331.929688 238.707031 330.894531 238.148438 330.019531 C 237.671875 329.304688 237.59375 328.347656 237.671875 327.554688 C 237.832031 326.757812 238.230469 325.800781 238.867188 325.246094 C 239.742188 324.609375 241.492188 324.132812 242.527344 324.289062 C 243.324219 324.371094 244.117188 325.007812 244.675781 325.5625 C 245.152344 326.199219 245.550781 327.15625 245.628906 327.949219 C 245.628906 328.746094 245.472656 329.78125 244.914062 330.417969 C 244.277344 331.214844 243.324219 331.769531 241.652344 332.167969 C 237.355469 333.203125 225.894531 331.769531 217.378906 332.089844 C 207.910156 332.40625 195.734375 334 187.140625 334.238281 C 180.855469 334.476562 176.957031 334.316406 170.75 334.238281 C 162.394531 334.15625 148.945312 334.078125 141.625 333.601562 C 137.089844 333.28125 132.949219 333.203125 130.644531 332.40625 C 129.527344 331.929688 128.890625 331.53125 128.335938 330.816406 C 127.859375 330.097656 127.539062 328.90625 127.699219 328.03125 C 127.777344 327.15625 128.335938 326.121094 128.972656 325.5625 C 129.6875 324.925781 131.597656 324.527344 131.597656 324.527344 "/></clipPath><clipPath id="b734960a1a"><path d="M 148.050781 283.609375 L 181.351562 283.609375 L 181.351562 329.550781 L 148.050781 329.550781 Z M 148.050781 283.609375 "/></clipPath><clipPath id="778d9aa8f6"><path d="M 150.058594 322.140625 C 157.539062 316.09375 160.484375 312.832031 163.191406 308.613281 C 167.167969 302.488281 172.023438 286.808594 175.046875 284.34375 C 175.921875 283.628906 176.636719 283.628906 177.433594 283.707031 C 178.230469 283.707031 179.183594 284.023438 179.820312 284.582031 C 180.539062 285.378906 181.332031 286.96875 181.253906 288.082031 C 181.09375 289.199219 180.140625 290.628906 179.105469 291.1875 C 178.148438 291.664062 176.398438 291.664062 175.445312 291.1875 C 174.410156 290.710938 173.535156 289.117188 173.296875 288.082031 C 173.136719 287.289062 173.453125 286.332031 173.851562 285.617188 C 174.25 284.902344 175.046875 284.265625 175.761719 283.945312 C 176.558594 283.707031 177.511719 283.628906 178.308594 283.785156 C 179.105469 284.023438 179.902344 284.582031 180.457031 285.21875 C 180.933594 285.855469 181.332031 286.414062 181.253906 287.605469 C 181.09375 291.503906 174.171875 305.667969 170.511719 311.796875 C 168.042969 316.09375 165.734375 319.039062 162.871094 321.902344 C 160.246094 324.6875 156.425781 327.871094 154.199219 328.90625 C 153.164062 329.382812 152.367188 329.621094 151.492188 329.460938 C 150.617188 329.304688 149.582031 328.667969 149.023438 328.03125 C 148.46875 327.3125 148.070312 326.199219 148.148438 325.324219 C 148.308594 324.289062 150.058594 322.140625 150.058594 322.140625 "/></clipPath><clipPath id="fd8ccae782"><path d="M 173.226562 282.921875 L 200.664062 282.921875 L 200.664062 291.96875 L 173.226562 291.96875 Z M 173.226562 282.921875 "/></clipPath><clipPath id="4e4c126a87"><path d="M 177.273438 283.707031 C 199.398438 283.785156 200.113281 284.902344 200.429688 285.855469 C 200.75 286.730469 200.589844 287.6875 200.351562 288.402344 C 200.03125 289.199219 199.398438 289.992188 198.679688 290.390625 C 197.964844 290.789062 197.007812 291.105469 196.214844 290.949219 C 195.179688 290.710938 193.667969 289.675781 193.109375 288.800781 C 192.632812 288.082031 192.554688 287.128906 192.710938 286.332031 C 192.792969 285.535156 193.269531 284.660156 193.90625 284.105469 C 194.460938 283.546875 195.417969 283.070312 196.214844 282.992188 C 197.007812 282.910156 197.964844 283.070312 198.679688 283.546875 C 199.554688 284.183594 200.429688 285.695312 200.589844 286.730469 C 200.75 287.605469 200.351562 288.5625 199.953125 289.199219 C 199.476562 289.835938 199 290.3125 197.882812 290.710938 C 194.703125 291.902344 180.855469 292.222656 177.273438 291.664062 C 175.921875 291.425781 175.285156 291.1875 174.648438 290.628906 C 173.933594 290.074219 173.453125 289.039062 173.296875 288.164062 C 173.214844 287.289062 173.453125 286.09375 174.011719 285.378906 C 174.648438 284.582031 177.273438 283.707031 177.273438 283.707031 "/></clipPath><clipPath id="ec2608d944"><path d="M 193.269531 284.640625 L 222.53125 284.640625 L 222.53125 331.214844 L 193.269531 331.214844 Z M 193.269531 284.640625 "/></clipPath><clipPath id="d0e4a59ff9"><path d="M 215.3125 329.621094 C 202.101562 310.523438 194.621094 295.246094 193.667969 290.3125 C 193.347656 288.5625 193.429688 287.445312 193.90625 286.570312 C 194.304688 285.777344 195.097656 285.21875 195.816406 284.902344 C 196.613281 284.660156 197.566406 284.582031 198.363281 284.820312 C 199.15625 284.980469 200.03125 285.457031 200.511719 286.171875 C 201.066406 287.050781 201.304688 288.878906 201.066406 289.914062 C 200.828125 290.710938 200.273438 291.503906 199.554688 291.902344 C 198.601562 292.378906 196.851562 292.699219 195.816406 292.300781 C 194.78125 291.902344 193.746094 290.472656 193.429688 289.4375 C 193.191406 288.640625 193.347656 287.6875 193.667969 286.96875 C 194.066406 286.253906 194.703125 285.457031 195.417969 285.058594 C 196.132812 284.742188 197.167969 284.582031 197.964844 284.660156 C 198.761719 284.820312 199.316406 284.980469 200.191406 285.855469 C 203.136719 288.957031 208.46875 305.667969 212.6875 312.832031 C 215.789062 318.082031 221.042969 322.699219 222.074219 325.5625 C 222.472656 326.757812 222.472656 327.554688 222.234375 328.347656 C 221.917969 329.222656 221.199219 330.097656 220.484375 330.578125 C 219.6875 331.054688 218.574219 331.214844 217.699219 331.054688 C 216.824219 330.894531 215.230469 329.621094 215.230469 329.621094 "/></clipPath><clipPath id="e6f314b66e"><path d="M 172.179688 185.289062 L 181.71875 185.289062 L 181.71875 293.214844 L 172.179688 293.214844 Z M 172.179688 185.289062 "/></clipPath><clipPath id="a873090dc0"><path d="M 172.183594 289.199219 C 173.535156 187.023438 174.089844 186.386719 174.96875 185.828125 C 175.683594 185.351562 176.71875 185.191406 177.511719 185.351562 C 178.308594 185.429688 179.183594 185.828125 179.742188 186.464844 C 180.378906 187.261719 180.933594 189.011719 180.855469 190.046875 C 180.695312 190.921875 180.140625 191.71875 179.582031 192.273438 C 178.945312 192.753906 178.070312 193.230469 177.195312 193.230469 C 176.160156 193.230469 174.488281 192.511719 173.773438 191.796875 C 173.214844 191.160156 172.976562 190.207031 172.976562 189.410156 C 172.898438 188.535156 173.214844 187.578125 173.695312 186.941406 C 174.171875 186.304688 174.96875 185.667969 175.761719 185.511719 C 176.558594 185.273438 177.511719 185.191406 178.308594 185.589844 C 179.265625 185.988281 180.140625 186.703125 180.777344 188.375 C 182.6875 193.308594 181.09375 209.144531 181.09375 222.433594 C 181.015625 241.214844 182.207031 283.230469 179.980469 290.152344 C 179.503906 291.585938 179.105469 291.984375 178.386719 292.460938 C 177.671875 293.015625 176.480469 293.257812 175.601562 293.175781 C 174.808594 293.097656 173.695312 292.539062 173.136719 291.824219 C 172.578125 291.1875 172.183594 289.199219 172.183594 289.199219 "/></clipPath><clipPath id="de90fcb98b"><path d="M 193.015625 183.335938 L 201.785156 183.335938 L 201.785156 291.109375 L 193.015625 291.109375 Z M 193.015625 183.335938 "/></clipPath><clipPath id="6e97c03f48"><path d="M 193.03125 287.128906 C 194.144531 184.316406 195.097656 183.839844 196.132812 183.519531 C 196.929688 183.203125 197.882812 183.363281 198.601562 183.679688 C 199.398438 183.917969 200.191406 184.636719 200.589844 185.273438 C 200.988281 185.988281 201.226562 187.023438 201.148438 187.816406 C 201.066406 188.613281 200.667969 189.488281 200.03125 190.125 C 199.316406 190.761719 197.566406 191.398438 196.53125 191.320312 C 195.65625 191.238281 194.859375 190.683594 194.304688 190.125 C 193.746094 189.488281 193.269531 188.613281 193.191406 187.816406 C 193.191406 186.785156 193.746094 185.03125 194.621094 184.316406 C 195.417969 183.601562 197.246094 183.363281 198.203125 183.519531 C 199.078125 183.679688 199.875 184.316406 200.351562 184.953125 C 200.828125 185.589844 200.910156 185.988281 201.148438 187.339844 C 202.421875 195.296875 201.386719 251.480469 201.148438 269.382812 C 200.988281 278.136719 201.941406 286.015625 200.511719 288.957031 C 200.03125 290.152344 199.238281 290.550781 198.441406 290.867188 C 197.566406 291.1875 196.371094 291.109375 195.578125 290.867188 C 194.941406 290.628906 194.460938 290.3125 194.066406 289.753906 C 193.507812 289.117188 193.03125 287.128906 193.03125 287.128906 "/></clipPath><clipPath id="075c289615"><path d="M 162.453125 161.699219 L 210.679688 161.699219 L 210.679688 191.277344 L 162.453125 191.277344 Z M 162.453125 161.699219 "/></clipPath><clipPath id="80ead4c34a"><path d="M 199.792969 190.84375 C 174.886719 190.84375 173.933594 190.761719 172.578125 190.285156 C 171.386719 189.808594 170.273438 189.332031 169.15625 188.296875 C 167.40625 186.785156 164.859375 183.601562 163.746094 180.894531 C 162.710938 178.429688 162.472656 175.007812 162.554688 172.777344 C 162.632812 171.105469 163.03125 169.675781 163.667969 168.402344 C 164.304688 167.207031 165.019531 166.171875 166.371094 165.296875 C 168.125 164.105469 170.988281 163.230469 174.171875 162.59375 C 178.546875 161.796875 185.949219 161.71875 190.5625 161.796875 C 193.828125 161.796875 196.769531 161.957031 199.078125 162.433594 C 200.667969 162.75 201.625 162.992188 202.976562 163.867188 C 204.96875 165.058594 208.070312 167.6875 209.265625 169.675781 C 210.058594 170.949219 210.140625 172.0625 210.296875 173.652344 C 210.617188 175.882812 210.695312 179.703125 210.296875 181.929688 C 210.058594 183.441406 209.660156 184.554688 209.023438 185.667969 C 208.308594 186.863281 207.59375 187.898438 206.160156 188.695312 C 203.933594 189.964844 198.203125 191.320312 196.054688 191.238281 C 194.941406 191.160156 194.222656 190.921875 193.585938 190.445312 C 192.949219 189.886719 192.394531 189.089844 192.15625 188.296875 C 191.996094 187.5 191.996094 186.546875 192.3125 185.75 C 192.632812 185.03125 193.269531 184.238281 193.984375 183.839844 C 194.621094 183.441406 195.578125 183.125 196.453125 183.28125 C 197.488281 183.441406 199 184.476562 199.554688 185.351562 C 200.03125 186.066406 200.113281 187.101562 199.953125 187.898438 C 199.792969 188.695312 199.398438 189.570312 198.761719 190.125 C 197.964844 190.761719 196.214844 191.398438 195.179688 191.160156 C 194.066406 190.921875 192.792969 189.648438 192.3125 188.695312 C 191.917969 187.976562 191.996094 186.941406 192.15625 186.148438 C 192.394531 185.429688 192.871094 184.554688 193.585938 184.078125 C 194.703125 183.363281 197.167969 183.519531 198.679688 182.964844 C 200.03125 182.488281 201.703125 182.167969 202.339844 180.976562 C 203.214844 179.304688 202.660156 174.6875 201.703125 172.9375 C 200.988281 171.664062 199.953125 171.105469 198.441406 170.550781 C 195.734375 169.515625 190.40625 169.753906 186.347656 169.753906 C 182.207031 169.753906 176.796875 169.675781 174.011719 170.550781 C 172.421875 171.105469 171.148438 171.742188 170.511719 172.777344 C 169.953125 173.8125 170.191406 175.484375 170.511719 176.757812 C 170.910156 178.109375 171.941406 179.621094 172.976562 180.65625 C 173.933594 181.691406 174.648438 182.488281 176.480469 183.042969 C 181.015625 184.394531 198.125 181.769531 201.625 183.363281 C 202.816406 183.839844 203.214844 184.636719 203.535156 185.429688 C 203.851562 186.226562 203.773438 187.5 203.535156 188.296875 C 203.296875 188.933594 202.976562 189.410156 202.421875 189.808594 C 201.785156 190.363281 199.792969 190.84375 199.792969 190.84375 "/></clipPath><clipPath id="86c79e5da6"><path d="M 171.136719 137.378906 L 180.066406 137.378906 L 180.066406 166.515625 L 171.136719 166.515625 Z M 171.136719 137.378906 "/></clipPath><clipPath id="ba89afe987"><path d="M 171.148438 162.59375 C 172.421875 139.039062 172.898438 138.5625 173.535156 138.082031 C 174.171875 137.6875 175.125 137.289062 176 137.445312 C 177.035156 137.605469 178.546875 138.480469 179.183594 139.355469 C 179.660156 140.074219 179.820312 141.027344 179.742188 141.824219 C 179.660156 142.621094 179.265625 143.574219 178.628906 144.132812 C 177.910156 144.847656 176.160156 145.40625 175.125 145.324219 C 174.25 145.246094 173.453125 144.769531 172.898438 144.132812 C 172.339844 143.574219 171.863281 142.699219 171.785156 141.824219 C 171.785156 140.789062 172.339844 139.117188 173.214844 138.402344 C 174.011719 137.6875 175.84375 137.367188 176.796875 137.605469 C 177.671875 137.765625 178.46875 138.402344 178.945312 139.039062 C 179.421875 139.675781 179.582031 140.152344 179.742188 141.425781 C 180.296875 145.164062 180.21875 161.082031 178.628906 164.421875 C 178.070312 165.617188 177.355469 166.015625 176.558594 166.332031 C 175.683594 166.570312 174.488281 166.570312 173.695312 166.332031 C 173.058594 166.09375 172.578125 165.777344 172.183594 165.21875 C 171.625 164.582031 171.148438 162.59375 171.148438 162.59375 "/></clipPath><clipPath id="36f61f86ad"><path d="M 193.816406 138.074219 L 202.746094 138.074219 L 202.746094 166.273438 L 193.816406 166.273438 Z M 193.816406 138.074219 "/></clipPath><clipPath id="e267a785b0"><path d="M 194.460938 162.355469 C 194.144531 140.472656 194.703125 139.4375 195.496094 138.800781 C 196.214844 138.242188 197.167969 138.082031 197.964844 138.082031 C 198.761719 138.164062 199.714844 138.480469 200.351562 139.039062 C 200.988281 139.515625 201.546875 140.390625 201.625 141.1875 C 201.785156 142.222656 201.464844 143.972656 200.667969 144.769531 C 199.953125 145.5625 198.203125 146.042969 197.167969 145.960938 C 196.292969 145.960938 195.417969 145.40625 194.941406 144.847656 C 194.382812 144.210938 193.828125 143.335938 193.828125 142.539062 C 193.828125 141.503906 194.460938 139.753906 195.179688 139.039062 C 195.816406 138.402344 196.769531 138.164062 197.566406 138.082031 C 198.363281 138.082031 199.316406 138.324219 200.03125 138.800781 C 200.667969 139.199219 201.148438 139.675781 201.546875 140.789062 C 202.738281 144.050781 203.058594 158.613281 202.421875 162.355469 C 202.183594 163.628906 202.023438 164.265625 201.464844 164.980469 C 200.828125 165.617188 199.792969 166.171875 198.917969 166.253906 C 198.042969 166.332031 196.929688 166.171875 196.214844 165.617188 C 195.339844 164.980469 194.460938 162.355469 194.460938 162.355469 "/></clipPath><clipPath id="c4f93d2ead"><path d="M 165.371094 133.503906 L 208.488281 133.503906 L 208.488281 142.1875 L 165.371094 142.1875 Z M 165.371094 133.503906 "/></clipPath><clipPath id="16977d6c87"><path d="M 169.398438 134.105469 C 199.792969 133.230469 203.773438 133.46875 205.84375 134.265625 C 206.796875 134.660156 207.355469 135.140625 207.832031 135.855469 C 208.230469 136.492188 208.546875 137.445312 208.46875 138.320312 C 208.308594 139.355469 207.273438 140.867188 206.480469 141.503906 C 205.761719 141.984375 204.808594 142.140625 203.933594 141.984375 C 202.976562 141.742188 201.464844 140.710938 200.910156 139.835938 C 200.429688 139.117188 200.429688 138.082031 200.589844 137.289062 C 200.667969 136.492188 201.148438 135.617188 201.785156 135.058594 C 202.578125 134.421875 204.410156 134.023438 205.363281 134.183594 C 206.238281 134.265625 207.035156 134.902344 207.511719 135.535156 C 208.070312 136.09375 208.46875 137.050781 208.46875 137.84375 C 208.386719 138.878906 207.59375 140.550781 206.796875 141.265625 C 206.160156 141.824219 205.601562 141.824219 204.410156 141.984375 C 201.304688 142.378906 193.269531 141.027344 187.539062 141.027344 C 181.652344 141.027344 172.660156 142.539062 169.398438 142.0625 C 168.042969 141.824219 167.40625 141.664062 166.691406 141.027344 C 166.054688 140.472656 165.496094 139.4375 165.417969 138.5625 C 165.339844 137.6875 165.496094 136.570312 166.054688 135.855469 C 166.769531 134.980469 169.398438 134.105469 169.398438 134.105469 "/></clipPath><clipPath id="a3d58f77b0"><path d="M 174.71875 94.78125 L 202.785156 94.78125 L 202.785156 141.644531 L 174.71875 141.644531 Z M 174.71875 94.78125 "/></clipPath><clipPath id="60f05e734f"><path d="M 174.886719 134.980469 C 174.648438 102.035156 174.96875 101.082031 175.683594 99.886719 C 176.398438 98.773438 177.273438 97.898438 178.628906 97.183594 C 180.457031 96.066406 184.277344 95.351562 186.425781 95.03125 C 188.015625 94.792969 189.050781 94.792969 190.484375 94.875 C 191.996094 94.875 193.828125 94.792969 195.179688 95.429688 C 196.53125 96.066406 197.804688 97.421875 198.679688 98.695312 C 199.476562 99.886719 199.792969 100.601562 200.273438 102.671875 C 201.546875 108.480469 203.453125 132.035156 202.339844 137.527344 C 201.941406 139.277344 201.464844 140.152344 200.667969 140.867188 C 200.03125 141.347656 199.078125 141.585938 198.203125 141.585938 C 197.40625 141.585938 196.453125 141.265625 195.816406 140.710938 C 195.097656 139.992188 194.382812 138.320312 194.382812 137.289062 C 194.382812 136.414062 194.859375 135.535156 195.417969 134.980469 C 195.894531 134.34375 196.769531 133.867188 197.566406 133.707031 C 198.363281 133.546875 199.398438 133.707031 200.113281 134.023438 C 200.828125 134.421875 201.625 135.058594 201.941406 135.855469 C 202.261719 136.808594 202.261719 138.640625 201.785156 139.59375 C 201.464844 140.3125 200.667969 140.949219 199.953125 141.265625 C 199.15625 141.585938 198.203125 141.742188 197.40625 141.425781 C 196.371094 141.105469 195.257812 140.152344 194.621094 138.957031 C 193.746094 137.289062 193.90625 135.058594 193.667969 131.957031 C 193.269531 126.148438 194.460938 110.867188 193.269531 106.332031 C 192.792969 104.503906 192.234375 103.386719 191.28125 102.832031 C 190.246094 102.195312 188.574219 102.59375 187.140625 102.832031 C 185.628906 102.992188 183.480469 102.671875 182.367188 104.183594 C 179.421875 108.082031 184.199219 132.671875 182.367188 136.808594 C 181.808594 138.003906 181.09375 138.402344 180.296875 138.640625 C 179.421875 138.957031 178.230469 138.957031 177.433594 138.640625 C 176.796875 138.480469 176.320312 138.082031 175.921875 137.605469 C 175.363281 136.96875 174.886719 134.980469 174.886719 134.980469 "/></clipPath><clipPath id="9d13305d69"><path d="M 183.273438 80.421875 L 191.664062 80.421875 L 191.664062 99.5 L 183.273438 99.5 Z M 183.273438 80.421875 "/></clipPath><clipPath id="387e78eb81"><path d="M 183.324219 95.511719 C 183.480469 83.335938 183.640625 82.621094 184.117188 81.984375 C 184.59375 81.347656 185.472656 80.789062 186.265625 80.550781 C 186.984375 80.390625 188.015625 80.390625 188.8125 80.710938 C 189.527344 81.027344 190.324219 81.664062 190.722656 82.378906 C 191.121094 83.097656 191.359375 84.050781 191.28125 84.847656 C 191.199219 85.644531 190.722656 86.597656 190.164062 87.15625 C 189.609375 87.710938 188.8125 88.269531 187.9375 88.347656 C 186.902344 88.429688 185.152344 87.949219 184.4375 87.15625 C 183.640625 86.359375 183.242188 84.609375 183.402344 83.574219 C 183.5625 82.699219 184.117188 81.902344 184.753906 81.425781 C 185.3125 80.867188 186.265625 80.472656 187.0625 80.472656 C 187.859375 80.390625 188.890625 80.710938 189.527344 81.105469 C 190.164062 81.585938 190.722656 82.140625 191.042969 83.175781 C 191.835938 85.484375 191.757812 92.882812 191.28125 95.511719 C 191.042969 96.703125 190.882812 97.5 190.246094 98.136719 C 189.6875 98.773438 188.652344 99.332031 187.777344 99.410156 C 186.902344 99.570312 185.789062 99.332031 185.074219 98.773438 C 184.199219 98.136719 183.324219 95.511719 183.324219 95.511719 "/></clipPath><clipPath id="1de2436ef8"><path d="M 173.46875 40.617188 L 200.367188 40.617188 L 200.367188 88.433594 L 173.46875 88.433594 Z M 173.46875 40.617188 "/></clipPath><clipPath id="638e21b31c"><path d="M 186.742188 88.347656 C 179.742188 85.722656 177.035156 83.097656 175.761719 81.265625 C 174.96875 79.992188 174.648438 79.039062 174.332031 77.527344 C 173.773438 75.378906 173.535156 71.71875 173.535156 69.410156 C 173.453125 67.816406 173.453125 66.785156 173.773438 65.191406 C 174.171875 62.964844 175.046875 59.859375 176.160156 57.472656 C 177.273438 55.007812 179.265625 53.015625 180.457031 50.628906 C 181.652344 48.242188 181.96875 44.582031 183.324219 42.910156 C 184.277344 41.71875 185.550781 40.761719 186.742188 40.683594 C 187.9375 40.601562 189.609375 41.480469 190.644531 42.59375 C 192.074219 44.265625 192.15625 47.765625 193.347656 50.550781 C 194.859375 53.972656 198.042969 57.871094 199.15625 61.292969 C 200.113281 64 200.273438 66.546875 200.351562 69.25 C 200.429688 71.957031 200.113281 75.378906 199.636719 77.605469 C 199.238281 79.199219 198.839844 80.3125 198.203125 81.503906 C 197.488281 82.777344 196.769531 84.132812 195.578125 85.085938 C 193.984375 86.359375 190.722656 87.472656 189.050781 87.632812 C 188.015625 87.792969 187.222656 87.632812 186.503906 87.234375 C 185.867188 86.917969 185.152344 86.121094 184.835938 85.40625 C 184.4375 84.6875 184.355469 83.652344 184.515625 82.859375 C 184.675781 82.140625 185.230469 81.265625 185.867188 80.710938 C 186.425781 80.230469 187.300781 79.753906 188.175781 79.753906 C 189.210938 79.835938 190.882812 80.472656 191.597656 81.347656 C 192.234375 82.222656 192.554688 83.972656 192.15625 85.007812 C 191.835938 86.042969 190.40625 87.234375 189.449219 87.554688 C 188.652344 87.871094 187.699219 87.710938 186.902344 87.472656 C 186.1875 87.15625 185.390625 86.519531 184.992188 85.800781 C 184.59375 85.085938 184.355469 84.132812 184.4375 83.335938 C 184.515625 82.539062 184.835938 81.585938 185.550781 81.027344 C 186.425781 80.230469 188.890625 80.472656 189.925781 79.59375 C 190.960938 78.71875 191.359375 77.445312 191.757812 75.855469 C 192.394531 73.707031 192.710938 69.886719 192.554688 67.578125 C 192.472656 65.910156 192.15625 65.03125 191.519531 63.28125 C 190.40625 60.417969 185.949219 55.246094 185.472656 52.460938 C 185.152344 50.867188 185.3125 49.277344 186.109375 48.480469 C 186.902344 47.6875 189.609375 47.207031 190.085938 47.765625 C 190.5625 48.324219 189.527344 50.152344 188.8125 51.742188 C 187.699219 54.527344 184.039062 58.90625 182.84375 62.328125 C 181.808594 65.113281 181.253906 67.738281 181.332031 70.445312 C 181.414062 72.992188 181.808594 76.332031 183.242188 78.164062 C 184.675781 79.835938 188.335938 80.074219 189.609375 81.1875 C 190.484375 81.902344 191.042969 82.621094 191.199219 83.574219 C 191.359375 84.609375 190.960938 86.359375 190.246094 87.15625 C 189.449219 87.949219 186.742188 88.347656 186.742188 88.347656 "/></clipPath><clipPath id="0acfb6f387"><path d="M 195.414062 196.085938 L 249.59375 196.085938 L 249.59375 229.679688 L 195.414062 229.679688 Z M 195.414062 196.085938 "/></clipPath><clipPath id="01ccd21608"><path d="M 199.398438 221.480469 C 210.457031 220.921875 211.171875 220.683594 212.925781 220.125 C 216.503906 218.933594 223.746094 216.226562 228.203125 213.839844 C 232.023438 211.691406 235.84375 209.621094 238.230469 206.757812 C 240.296875 204.210938 240.617188 199.835938 242.207031 198.082031 C 243.164062 197.050781 244.355469 196.332031 245.390625 196.171875 C 246.265625 196.09375 247.140625 196.414062 247.859375 196.890625 C 248.496094 197.289062 249.210938 198.082031 249.371094 198.878906 C 249.609375 199.914062 249.449219 201.664062 248.734375 202.539062 C 248.097656 203.414062 246.425781 204.132812 245.390625 204.132812 C 244.515625 204.132812 243.640625 203.734375 243.003906 203.175781 C 242.445312 202.699219 241.808594 201.824219 241.730469 201.027344 C 241.570312 199.992188 242.050781 198.242188 242.6875 197.445312 C 243.242188 196.730469 244.199219 196.332031 244.992188 196.253906 C 245.789062 196.09375 246.742188 196.253906 247.460938 196.652344 C 248.175781 197.050781 248.890625 197.765625 249.210938 198.480469 C 249.527344 199.199219 249.609375 199.992188 249.449219 201.027344 C 249.289062 202.859375 247.777344 206.519531 246.664062 208.507812 C 245.789062 210.097656 245.152344 211.054688 243.71875 212.488281 C 241.414062 214.714844 237.117188 217.816406 233.535156 219.96875 C 229.875 222.117188 225.496094 223.945312 221.917969 225.378906 C 218.890625 226.570312 216.347656 227.445312 213.480469 228.164062 C 210.695312 228.800781 207.433594 229.277344 204.808594 229.4375 C 202.5 229.59375 199.953125 229.835938 198.441406 229.277344 C 197.40625 228.957031 196.613281 228.480469 196.132812 227.6875 C 195.578125 226.808594 195.417969 224.980469 195.65625 224.023438 C 195.816406 223.386719 196.214844 222.910156 196.769531 222.433594 C 197.40625 221.957031 199.398438 221.480469 199.398438 221.480469 "/></clipPath><clipPath id="a6bab961ae"><path d="M 195.035156 247.753906 L 259.207031 247.753906 L 259.207031 262.6875 L 195.035156 262.6875 Z M 195.035156 247.753906 "/></clipPath><clipPath id="fcab5bfc96"><path d="M 199.078125 254.421875 C 218.574219 254.183594 223.90625 253.867188 229.953125 252.992188 C 237.511719 251.875 250.40625 247.339844 254.859375 247.816406 C 256.53125 247.976562 257.566406 248.453125 258.28125 249.25 C 258.839844 249.808594 259.15625 250.761719 259.15625 251.636719 C 259.078125 252.671875 258.28125 254.265625 257.488281 254.980469 C 256.851562 255.539062 255.894531 255.777344 255.097656 255.695312 C 254.304688 255.695312 253.347656 255.378906 252.710938 254.902344 C 252.074219 254.34375 251.519531 253.46875 251.28125 252.753906 C 251.121094 251.957031 251.121094 250.921875 251.519531 250.207031 C 251.996094 249.25 253.347656 248.058594 254.382812 247.816406 C 255.496094 247.660156 257.167969 248.214844 257.964844 248.933594 C 258.601562 249.488281 259 250.363281 259.078125 251.160156 C 259.238281 251.957031 258.917969 253.070312 258.679688 253.707031 C 258.441406 254.105469 258.28125 254.34375 257.882812 254.660156 C 256.691406 255.457031 253.746094 256.253906 250.722656 257.050781 C 245.550781 258.402344 236.238281 260.074219 229.636719 260.949219 C 223.828125 261.742188 218.496094 262.140625 213.242188 262.378906 C 208.308594 262.539062 201.863281 262.859375 199.078125 262.378906 C 197.804688 262.140625 197.089844 261.902344 196.453125 261.347656 C 195.734375 260.789062 195.257812 259.753906 195.097656 258.878906 C 195.019531 258.003906 195.257812 256.808594 195.816406 256.09375 C 196.453125 255.296875 199.078125 254.421875 199.078125 254.421875 "/></clipPath><clipPath id="2ba99c02f1"><path d="M 243.4375 198.296875 L 308 198.296875 L 308 257.792969 L 243.4375 257.792969 Z M 243.4375 198.296875 "/></clipPath><clipPath id="60ee855ffa"><path d="M 247.378906 249.808594 C 256.691406 248.058594 261.386719 246.464844 265.125 244.875 C 268.945312 243.28125 272.6875 241.453125 276.1875 239.222656 C 279.609375 237.074219 282.949219 234.6875 285.894531 231.824219 C 289 228.800781 292.339844 224.105469 294.089844 221.398438 C 295.046875 219.886719 295.363281 219.332031 296 217.578125 C 297.433594 213.839844 299.023438 202.460938 300.777344 199.914062 C 301.492188 198.957031 302.128906 198.71875 302.925781 198.480469 C 303.71875 198.320312 304.675781 198.402344 305.472656 198.640625 C 306.1875 198.957031 306.984375 199.515625 307.378906 200.3125 C 307.859375 201.265625 308.015625 203.015625 307.539062 204.050781 C 307.140625 205.007812 305.710938 206.121094 304.59375 206.28125 C 303.480469 206.4375 301.808594 205.882812 301.09375 205.085938 C 300.296875 204.289062 299.902344 202.539062 300.058594 201.503906 C 300.21875 200.628906 300.777344 199.835938 301.414062 199.277344 C 302.050781 198.800781 302.925781 198.402344 303.800781 198.402344 C 304.59375 198.320312 305.550781 198.5625 306.1875 199.039062 C 306.984375 199.753906 307.777344 200.789062 307.9375 202.378906 C 308.335938 205.960938 305.390625 215.667969 303.402344 220.523438 C 301.890625 224.023438 300.21875 226.171875 298.230469 228.957031 C 296 232.140625 293.613281 235.644531 290.351562 238.585938 C 286.613281 242.007812 281.199219 245.429688 276.742188 247.976562 C 273.003906 250.207031 269.183594 251.957031 265.683594 253.386719 C 262.816406 254.503906 260.351562 255.296875 257.566406 256.015625 C 254.859375 256.652344 251.675781 257.605469 249.449219 257.605469 C 247.777344 257.605469 246.105469 257.445312 245.230469 256.890625 C 244.59375 256.570312 244.277344 256.015625 244.039062 255.378906 C 243.71875 254.660156 243.5625 253.46875 243.800781 252.59375 C 244.117188 251.71875 244.914062 250.84375 245.550781 250.363281 C 246.105469 249.964844 247.378906 249.808594 247.378906 249.808594 "/></clipPath><clipPath id="bdbf0bd13e"><path d="M 288.117188 161.78125 L 321.214844 161.78125 L 321.214844 202.101562 L 288.117188 202.101562 Z M 288.117188 161.78125 "/></clipPath><clipPath id="d5bf4a6fe3"><path d="M 296.398438 166.414062 C 298.230469 188.375 298.46875 192.355469 300.457031 193.785156 C 302.289062 195.140625 306.585938 194.503906 308.652344 193.867188 C 310.164062 193.386719 311.199219 193.148438 312.074219 191.558594 C 314.222656 187.660156 311.4375 168.480469 312.792969 164.660156 C 313.191406 163.546875 313.667969 163.070312 314.304688 162.671875 C 315.019531 162.195312 315.894531 161.875 316.769531 161.957031 C 317.804688 162.117188 319.398438 163.070312 319.953125 163.867188 C 320.429688 164.582031 320.667969 165.539062 320.511719 166.332031 C 320.351562 167.367188 319.398438 168.957031 318.441406 169.4375 C 317.488281 169.992188 315.65625 169.835938 314.703125 169.4375 C 313.90625 169.117188 313.269531 168.324219 312.949219 167.605469 C 312.632812 166.890625 312.394531 165.933594 312.632812 165.058594 C 312.949219 164.105469 314.144531 162.671875 315.097656 162.273438 C 315.816406 161.875 316.851562 161.796875 317.644531 162.117188 C 318.601562 162.433594 319.714844 163.148438 320.351562 164.660156 C 321.941406 168.324219 320.511719 182.488281 320.511719 186.941406 C 320.511719 188.851562 320.75 189.726562 320.511719 191.082031 C 320.273438 192.511719 319.953125 193.785156 319.078125 195.140625 C 317.804688 196.96875 315.339844 199.59375 312.949219 200.789062 C 310.484375 201.984375 306.664062 201.984375 304.355469 202.0625 C 302.765625 202.0625 301.730469 202.0625 300.378906 201.742188 C 298.945312 201.347656 297.273438 200.867188 296.082031 199.992188 C 294.808594 199.117188 293.933594 198.003906 293.058594 196.570312 C 291.863281 194.503906 290.910156 191.558594 290.191406 188.613281 C 289.316406 184.953125 288.839844 180.179688 288.601562 176.28125 C 288.28125 172.777344 288.042969 168.640625 288.441406 166.414062 C 288.601562 165.296875 288.839844 164.503906 289.398438 163.785156 C 289.953125 163.148438 291.066406 162.59375 291.863281 162.511719 C 292.738281 162.355469 293.933594 162.59375 294.648438 163.148438 C 295.445312 163.785156 296.398438 166.414062 296.398438 166.414062 "/></clipPath><clipPath id="5b9ec988a5"><path d="M 234.042969 161.542969 L 266.242188 161.542969 L 266.242188 200.652344 L 234.042969 200.652344 Z M 234.042969 161.542969 "/></clipPath><clipPath id="b326c9787c"><path d="M 242.6875 167.128906 C 244.277344 191.71875 248.175781 192.117188 250.324219 192.59375 C 251.835938 192.910156 253.269531 193.148438 254.304688 192.59375 C 255.496094 191.957031 256.132812 190.601562 256.769531 188.613281 C 258.203125 184.078125 256.929688 167.925781 258.28125 164.34375 C 258.679688 163.230469 259.15625 162.753906 259.792969 162.355469 C 260.429688 161.875 261.386719 161.558594 262.261719 161.636719 C 263.296875 161.796875 264.886719 162.671875 265.445312 163.546875 C 266 164.503906 266 166.332031 265.601562 167.289062 C 265.363281 168.082031 264.570312 168.800781 263.851562 169.117188 C 263.136719 169.515625 262.183594 169.753906 261.386719 169.59375 C 260.351562 169.277344 258.917969 168.242188 258.441406 167.289062 C 257.964844 166.570312 257.964844 165.539062 258.125 164.742188 C 258.28125 164.023438 258.761719 163.070312 259.476562 162.59375 C 260.273438 162.035156 262.101562 161.636719 263.058594 161.796875 C 263.933594 161.957031 264.726562 162.59375 265.207031 163.230469 C 265.683594 163.867188 265.84375 164.421875 266 165.617188 C 266.480469 169.117188 265.445312 181.292969 264.570312 186.625 C 264.089844 189.96875 263.695312 192.59375 262.660156 194.660156 C 261.941406 196.09375 260.828125 197.050781 259.714844 198.003906 C 258.679688 198.957031 257.488281 199.753906 256.214844 200.230469 C 254.941406 200.628906 253.347656 200.472656 251.996094 200.550781 C 250.644531 200.550781 249.449219 200.789062 247.9375 200.472656 C 245.550781 199.914062 241.414062 198.242188 239.34375 196.808594 C 237.832031 195.855469 236.796875 194.820312 236 193.546875 C 235.285156 192.355469 235.046875 191.320312 234.726562 189.25 C 234.089844 184.636719 233.695312 169.753906 234.886719 166.171875 C 235.285156 164.902344 235.761719 164.34375 236.480469 163.785156 C 237.195312 163.308594 238.308594 163.070312 239.183594 163.148438 C 240.058594 163.230469 241.09375 163.785156 241.730469 164.421875 C 242.289062 165.140625 242.6875 167.128906 242.6875 167.128906 "/></clipPath><clipPath id="57b2ca389e"><path d="M 228.144531 156.960938 L 271.867188 156.960938 L 271.867188 166.699219 L 228.144531 166.699219 Z M 228.144531 156.960938 "/></clipPath><clipPath id="59e469055d"><path d="M 232.183594 158.375 C 270.296875 157.5 270.695312 157.976562 271.09375 158.695312 C 271.570312 159.332031 271.890625 160.285156 271.808594 161.082031 C 271.652344 162.117188 270.695312 163.707031 269.902344 164.265625 C 269.183594 164.820312 268.230469 164.902344 267.433594 164.820312 C 266.636719 164.742188 265.683594 164.34375 265.125 163.785156 C 264.488281 163.230469 263.933594 162.355469 263.933594 161.558594 C 263.851562 160.523438 264.332031 158.773438 265.125 157.976562 C 265.921875 157.261719 267.671875 156.863281 268.707031 157.023438 C 269.503906 157.101562 270.378906 157.738281 270.855469 158.296875 C 271.414062 158.933594 271.730469 159.886719 271.808594 160.683594 C 271.808594 161.480469 271.652344 162.433594 271.09375 163.148438 C 270.457031 163.945312 269.582031 164.421875 267.832031 164.902344 C 262.339844 166.332031 237.195312 167.128906 232.183594 166.332031 C 230.75 166.09375 230.191406 165.855469 229.554688 165.296875 C 228.839844 164.742188 228.28125 163.707031 228.203125 162.832031 C 228.125 161.957031 228.363281 160.761719 228.917969 160.046875 C 229.554688 159.25 232.183594 158.375 232.183594 158.375 "/></clipPath><clipPath id="e9f8fede55"><path d="M 283.152344 157.007812 L 327.503906 157.007812 L 327.503906 166.328125 L 283.152344 166.328125 Z M 283.152344 157.007812 "/></clipPath><clipPath id="e1f0551f0e"><path d="M 287.328125 157.816406 C 317.726562 157.738281 320.828125 156.703125 323.136719 157.101562 C 324.570312 157.339844 325.84375 157.816406 326.558594 158.613281 C 327.117188 159.25 327.433594 160.207031 327.433594 161 C 327.433594 161.796875 327.117188 162.753906 326.636719 163.386719 C 326.160156 164.105469 325.445312 164.742188 324.570312 164.902344 C 323.535156 165.058594 321.785156 164.820312 320.910156 164.183594 C 320.03125 163.46875 319.476562 161.71875 319.476562 160.683594 C 319.476562 159.886719 319.953125 159.011719 320.511719 158.375 C 321.066406 157.816406 321.941406 157.339844 322.738281 157.183594 C 323.535156 157.023438 324.488281 157.183594 325.207031 157.5 C 325.921875 157.898438 326.636719 158.613281 327.035156 159.332031 C 327.355469 160.046875 327.59375 161 327.355469 161.875 C 327.035156 162.832031 326.238281 164.023438 324.96875 164.742188 C 322.738281 165.933594 318.363281 165.695312 313.828125 165.855469 C 306.824219 166.253906 291.148438 166.652344 286.929688 165.777344 C 285.578125 165.457031 285.019531 165.21875 284.382812 164.582031 C 283.746094 164.023438 283.269531 162.910156 283.191406 162.035156 C 283.109375 161.160156 283.429688 160.046875 283.984375 159.332031 C 284.703125 158.535156 287.328125 157.816406 287.328125 157.816406 "/></clipPath><clipPath id="3f21a3af3a"><path d="M 237.199219 117.25 L 265.851562 117.25 L 265.851562 165.914062 L 237.199219 165.914062 Z M 237.199219 117.25 "/></clipPath><clipPath id="431b62ee87"><path d="M 237.273438 158.214844 C 237.273438 128.613281 237.753906 125.828125 238.628906 123.601562 C 239.265625 122.007812 240.058594 120.816406 241.171875 119.859375 C 242.128906 118.984375 243.324219 118.347656 244.835938 117.949219 C 246.984375 117.394531 250.324219 117.074219 252.871094 117.554688 C 255.417969 118.109375 258.679688 119.703125 260.273438 121.214844 C 261.386719 122.25 261.703125 122.882812 262.261719 124.792969 C 264.089844 130.601562 266.480469 157.339844 265.601562 162.273438 C 265.445312 163.546875 265.207031 164.023438 264.648438 164.582031 C 263.851562 165.296875 262.101562 165.933594 261.148438 165.855469 C 260.273438 165.777344 259.398438 165.296875 258.839844 164.742188 C 258.28125 164.105469 257.804688 163.230469 257.726562 162.433594 C 257.644531 161.636719 257.726562 160.601562 258.203125 159.96875 C 258.839844 159.089844 260.273438 158.058594 261.386719 157.976562 C 262.5 157.898438 264.089844 158.695312 264.808594 159.410156 C 265.363281 160.046875 265.601562 161 265.683594 161.796875 C 265.683594 162.671875 265.363281 163.628906 264.886719 164.265625 C 264.410156 164.902344 263.613281 165.457031 262.816406 165.695312 C 262.023438 165.933594 260.988281 165.933594 260.273438 165.617188 C 259.554688 165.378906 258.839844 164.902344 258.28125 164.023438 C 257.40625 162.511719 257.328125 159.726562 256.851562 156.304688 C 255.976562 149.621094 257.40625 130.445312 254.304688 126.785156 C 253.03125 125.273438 250.644531 125.273438 249.132812 125.511719 C 247.859375 125.75 246.347656 126.625 245.628906 127.660156 C 244.914062 128.773438 245.074219 130.046875 244.914062 132.195312 C 244.515625 137.367188 246.347656 155.113281 245.152344 159.171875 C 244.753906 160.445312 244.277344 161 243.5625 161.480469 C 242.84375 161.957031 241.652344 162.273438 240.777344 162.117188 C 239.902344 162.035156 238.867188 161.480469 238.308594 160.84375 C 237.753906 160.207031 237.273438 158.214844 237.273438 158.214844 "/></clipPath><clipPath id="a3577c5827"><path d="M 291.039062 119.210938 L 320.84375 119.210938 L 320.84375 164 L 291.039062 164 Z M 291.039062 119.210938 "/></clipPath><clipPath id="442ee3c225"><path d="M 291.546875 159.570312 C 290.667969 129.011719 291.148438 126.226562 292.183594 124.15625 C 292.898438 122.726562 293.535156 121.851562 295.046875 121.054688 C 297.59375 119.78125 304.4375 119.542969 307.460938 119.382812 C 309.289062 119.304688 310.40625 119.144531 311.757812 119.542969 C 313.03125 120.019531 314.460938 120.894531 315.339844 121.929688 C 316.214844 122.882812 316.53125 123.679688 317.007812 125.589844 C 318.519531 131.238281 321.148438 155.191406 320.667969 159.96875 C 320.511719 161.238281 320.351562 161.71875 319.792969 162.355469 C 319.316406 162.992188 318.519531 163.628906 317.726562 163.785156 C 316.691406 163.945312 314.941406 163.707031 314.066406 162.992188 C 313.269531 162.273438 312.710938 160.523438 312.710938 159.488281 C 312.710938 158.613281 313.191406 157.738281 313.746094 157.183594 C 314.304688 156.625 315.257812 156.148438 316.054688 155.988281 C 316.769531 155.910156 317.804688 156.066406 318.519531 156.386719 C 319.238281 156.785156 319.953125 157.421875 320.273438 158.296875 C 320.589844 159.25 320.511719 161.082031 320.03125 161.957031 C 319.714844 162.753906 318.839844 163.308594 318.125 163.628906 C 317.40625 163.945312 316.371094 164.023438 315.578125 163.785156 C 314.621094 163.386719 313.667969 162.753906 312.871094 161.160156 C 310.644531 156.703125 311.359375 135.539062 309.371094 130.601562 C 308.734375 128.851562 308.015625 127.898438 306.984375 127.339844 C 305.867188 126.785156 304.277344 127.101562 302.925781 127.339844 C 301.652344 127.5 299.902344 127.660156 299.105469 128.535156 C 298.308594 129.410156 298.46875 130.601562 298.308594 132.59375 C 297.910156 137.84375 300.695312 157.578125 299.105469 161.398438 C 298.546875 162.59375 297.753906 162.992188 296.957031 163.308594 C 296.160156 163.628906 294.886719 163.546875 294.171875 163.308594 C 293.535156 163.070312 292.976562 162.753906 292.578125 162.195312 C 292.101562 161.558594 291.546875 159.570312 291.546875 159.570312 "/></clipPath><clipPath id="8994e4cf22"><path d="M 245.898438 107.398438 L 254.179688 107.398438 L 254.179688 122.894531 L 245.898438 122.894531 Z M 245.898438 107.398438 "/></clipPath><clipPath id="d9c5aa3ab7"><path d="M 245.949219 118.90625 C 246.265625 110.074219 246.824219 108.800781 247.699219 108.164062 C 248.335938 107.605469 249.289062 107.445312 250.085938 107.445312 C 250.882812 107.527344 251.835938 107.84375 252.472656 108.402344 C 253.109375 108.878906 253.585938 109.753906 253.746094 110.550781 C 253.984375 111.347656 253.90625 112.378906 253.507812 113.097656 C 253.03125 113.972656 251.519531 115.085938 250.5625 115.324219 C 249.6875 115.5625 248.734375 115.324219 248.015625 114.925781 C 247.300781 114.527344 246.585938 113.894531 246.265625 113.097656 C 245.949219 112.140625 245.949219 110.3125 246.503906 109.355469 C 247.0625 108.402344 248.652344 107.605469 249.6875 107.445312 C 250.5625 107.367188 251.4375 107.6875 252.15625 108.164062 C 252.792969 108.5625 253.347656 109.199219 253.667969 110.152344 C 254.304688 111.984375 254.222656 116.835938 253.90625 118.90625 C 253.667969 120.019531 253.429688 120.894531 252.871094 121.53125 C 252.3125 122.167969 251.28125 122.726562 250.40625 122.804688 C 249.527344 122.964844 248.335938 122.726562 247.621094 122.167969 C 246.824219 121.53125 245.949219 118.90625 245.949219 118.90625 "/></clipPath><clipPath id="2805ceddf8"><path d="M 299.539062 105.652344 L 308.199219 105.652344 L 308.199219 126.113281 L 299.539062 126.113281 Z M 299.539062 105.652344 "/></clipPath><clipPath id="0b218018ed"><path d="M 300.058594 122.328125 C 299.742188 108.480469 299.820312 107.84375 300.378906 107.207031 C 301.015625 106.492188 302.6875 105.695312 303.71875 105.695312 C 304.59375 105.617188 305.472656 106.09375 306.109375 106.570312 C 306.742188 107.128906 307.300781 107.925781 307.378906 108.800781 C 307.539062 109.753906 307.0625 111.585938 306.425781 112.378906 C 305.867188 113.015625 304.992188 113.414062 304.199219 113.574219 C 303.402344 113.652344 302.367188 113.496094 301.652344 113.175781 C 300.933594 112.777344 300.296875 112.0625 299.902344 111.265625 C 299.582031 110.550781 299.503906 109.59375 299.660156 108.800781 C 299.820312 108.003906 300.378906 107.128906 300.933594 106.570312 C 301.570312 106.09375 302.445312 105.617188 303.324219 105.695312 C 304.355469 105.695312 305.949219 106.253906 306.664062 107.207031 C 307.621094 108.320312 307.621094 110.152344 307.859375 112.140625 C 308.175781 114.769531 308.335938 119.621094 308.015625 121.851562 C 307.859375 123.042969 307.699219 123.917969 307.140625 124.554688 C 306.585938 125.273438 305.550781 125.828125 304.753906 125.988281 C 304.039062 126.148438 303.480469 126.148438 302.84375 125.910156 C 302.050781 125.589844 301.09375 124.792969 300.617188 124.15625 C 300.21875 123.601562 300.058594 122.328125 300.058594 122.328125 "/></clipPath><clipPath id="2b3b483aeb"><path d="M 235.445312 60.847656 L 262.339844 60.847656 L 262.339844 111.304688 L 235.445312 111.304688 Z M 235.445312 60.847656 "/></clipPath><clipPath id="1a3a60ad01"><path d="M 248.972656 111.265625 C 240.855469 107.527344 238.546875 103.867188 237.355469 101.71875 C 236.636719 100.285156 236.320312 99.332031 236 97.738281 C 235.601562 95.511719 235.445312 92.328125 235.683594 89.621094 C 235.921875 86.835938 236.398438 84.527344 237.511719 81.1875 C 239.34375 75.855469 243.800781 62.882812 247.222656 61.214844 C 248.890625 60.417969 250.800781 61.132812 252.3125 62.328125 C 255.097656 64.554688 257.488281 72.910156 259.078125 77.289062 C 260.273438 80.472656 260.988281 82.699219 261.546875 85.800781 C 262.183594 89.621094 262.5 95.429688 262.101562 98.375 C 261.785156 100.046875 261.625 100.921875 260.75 102.273438 C 259.398438 104.183594 256.292969 107.128906 253.90625 108.242188 C 251.996094 109.117188 249.527344 109.4375 247.859375 109.199219 C 246.503906 108.957031 245.152344 108.324219 244.515625 107.445312 C 243.878906 106.492188 243.800781 104.742188 244.117188 103.707031 C 244.355469 102.910156 245.074219 102.195312 245.789062 101.796875 C 246.425781 101.398438 247.378906 101.082031 248.257812 101.238281 C 249.289062 101.480469 250.800781 102.433594 251.359375 103.308594 C 251.835938 104.023438 251.917969 105.058594 251.757812 105.855469 C 251.597656 106.652344 251.199219 107.527344 250.5625 108.082031 C 249.769531 108.71875 248.015625 109.355469 246.984375 109.117188 C 245.867188 108.878906 244.59375 107.605469 244.117188 106.652344 C 243.71875 105.933594 243.800781 104.902344 243.957031 104.105469 C 244.199219 103.386719 244.675781 102.433594 245.390625 102.035156 C 246.265625 101.558594 247.699219 101.957031 248.8125 101.558594 C 250.085938 101.160156 251.519531 100.523438 252.394531 99.648438 C 253.269531 98.773438 253.90625 97.578125 254.304688 96.148438 C 254.78125 94 254.382812 90.734375 253.984375 88.03125 C 253.507812 85.40625 252.632812 82.699219 251.597656 80.152344 C 250.644531 77.605469 248.414062 74.980469 247.859375 72.832031 C 247.378906 71.238281 246.984375 69.171875 247.699219 68.375 C 248.335938 67.660156 251.359375 67.339844 251.917969 68.136719 C 252.710938 69.171875 250.007812 73.945312 248.8125 76.652344 C 247.621094 79.355469 245.550781 82.300781 244.675781 84.527344 C 244.039062 86.042969 243.800781 86.996094 243.640625 88.585938 C 243.402344 90.816406 243.242188 94.636719 243.800781 96.703125 C 244.199219 98.136719 244.992188 99.171875 245.789062 100.207031 C 246.664062 101.238281 247.621094 102.355469 248.734375 103.070312 C 249.847656 103.707031 251.597656 103.628906 252.472656 104.34375 C 253.191406 104.980469 253.746094 105.933594 253.828125 106.808594 C 253.90625 107.84375 253.347656 109.59375 252.554688 110.3125 C 251.757812 111.027344 248.972656 111.265625 248.972656 111.265625 "/></clipPath><clipPath id="31767f5a0b"><path d="M 290.363281 60.574219 L 317 60.574219 L 317 110.800781 L 290.363281 110.800781 Z M 290.363281 60.574219 "/></clipPath><clipPath id="7cba0c2041"><path d="M 304.039062 109.59375 C 296.875 108.082031 295.601562 107.605469 294.570312 106.332031 C 293.058594 104.660156 291.625 100.84375 290.988281 98.695312 C 290.589844 97.101562 290.589844 96.066406 290.511719 94.476562 C 290.429688 92.089844 290.191406 89.304688 290.75 85.960938 C 291.703125 80.550781 295.445312 70.046875 297.511719 65.75 C 298.546875 63.519531 299.105469 61.691406 300.378906 60.976562 C 301.652344 60.417969 303.878906 60.734375 304.992188 61.453125 C 306.105469 62.167969 306.265625 63.601562 307.140625 65.191406 C 308.734375 68.058594 311.675781 73.230469 313.269531 77.367188 C 314.78125 81.265625 315.976562 85.246094 316.453125 89.304688 C 317.007812 93.28125 317.167969 98.695312 316.53125 101.636719 C 316.132812 103.386719 315.65625 104.503906 314.78125 105.617188 C 313.828125 106.808594 312.394531 107.6875 310.960938 108.5625 C 309.289062 109.4375 306.824219 110.789062 305.230469 110.710938 C 303.878906 110.710938 302.527344 109.914062 301.808594 109.117188 C 301.253906 108.480469 301.015625 107.527344 301.015625 106.730469 C 301.015625 105.933594 301.332031 104.980469 301.890625 104.34375 C 302.605469 103.546875 304.199219 102.75 305.3125 102.832031 C 306.347656 102.832031 307.859375 103.785156 308.414062 104.742188 C 308.972656 105.695312 308.972656 107.527344 308.574219 108.480469 C 308.335938 109.277344 307.539062 109.914062 306.824219 110.3125 C 306.105469 110.628906 305.152344 110.789062 304.355469 110.710938 C 303.5625 110.550781 302.6875 110.074219 302.128906 109.4375 C 301.570312 108.878906 301.09375 108.003906 301.09375 107.128906 C 301.015625 106.09375 301.570312 104.742188 302.445312 103.707031 C 303.71875 102.273438 307.699219 102.117188 308.734375 100.285156 C 309.925781 98.296875 309.210938 95.113281 308.8125 92.167969 C 308.414062 88.429688 307.0625 83.097656 305.628906 79.515625 C 304.4375 76.652344 302.289062 74.265625 301.414062 72.117188 C 300.855469 70.601562 299.902344 68.773438 300.457031 67.976562 C 301.015625 67.101562 304.4375 66.546875 305.152344 67.421875 C 306.664062 69.332031 299.660156 82.699219 298.785156 86.835938 C 298.46875 88.746094 298.546875 89.621094 298.46875 91.054688 C 298.46875 92.40625 298.308594 93.839844 298.46875 95.191406 C 298.628906 96.625 298.707031 98.296875 299.660156 99.410156 C 301.015625 100.84375 305.074219 101.160156 306.503906 102.273438 C 307.378906 102.992188 308.015625 103.707031 308.175781 104.582031 C 308.414062 105.617188 308.097656 107.367188 307.460938 108.164062 C 306.742188 109.039062 304.039062 109.59375 304.039062 109.59375 "/></clipPath><clipPath id="70ec2178ea"><path d="M 124 198.125 L 179.066406 198.125 L 179.066406 230.1875 L 124 230.1875 Z M 124 198.125 "/></clipPath><clipPath id="6830e4ef6b"><path d="M 175.125 230.074219 C 164.542969 229.039062 154.835938 227.289062 148.46875 225.140625 C 142.738281 223.230469 135.894531 220.046875 132.792969 217.738281 C 131.042969 216.464844 130.5625 215.667969 129.449219 214.15625 C 127.9375 212.167969 125.867188 208.667969 124.992188 206.597656 C 124.4375 205.324219 124.199219 204.527344 124.117188 203.414062 C 124.117188 202.222656 124.039062 200.628906 124.753906 199.753906 C 125.390625 198.878906 127.0625 198.164062 128.097656 198.164062 C 128.972656 198.164062 129.847656 198.480469 130.484375 199.117188 C 131.199219 199.835938 131.996094 201.503906 131.835938 202.539062 C 131.757812 203.652344 130.722656 205.164062 129.769531 205.644531 C 128.8125 206.199219 126.984375 206.039062 126.027344 205.644531 C 125.3125 205.324219 124.59375 204.609375 124.277344 203.8125 C 123.957031 202.859375 123.957031 201.027344 124.515625 200.074219 C 125.074219 199.199219 126.664062 198.320312 127.699219 198.164062 C 128.496094 198.082031 129.371094 198.164062 130.164062 198.878906 C 131.757812 200.152344 133.109375 205.722656 134.621094 207.949219 C 135.496094 209.382812 136.292969 210.339844 137.328125 211.214844 C 138.441406 212.089844 139.476562 212.566406 141.066406 213.363281 C 143.933594 214.714844 148.308594 216.703125 153.082031 218.136719 C 159.769531 220.125 174.96875 221.320312 177.753906 223.148438 C 178.546875 223.628906 178.628906 224.105469 178.867188 224.742188 C 179.105469 225.457031 179.105469 226.808594 178.867188 227.527344 C 178.628906 228.164062 178.308594 228.71875 177.753906 229.117188 C 177.117188 229.59375 175.125 230.074219 175.125 230.074219 "/></clipPath><clipPath id="525a6a0631"><path d="M 65.652344 197.265625 L 177 197.265625 L 177 261.402344 L 65.652344 261.402344 Z M 65.652344 197.265625 "/></clipPath><clipPath id="9c3d01a3e1"><path d="M 73.90625 201.425781 C 74.222656 209.542969 74.703125 212.328125 75.65625 215.273438 C 76.851562 218.933594 78.363281 223.386719 80.988281 227.128906 C 83.851562 231.347656 89.265625 236.199219 92.925781 238.984375 C 95.550781 240.976562 97.460938 241.851562 100.164062 243.125 C 103.585938 244.714844 107.566406 246.148438 111.941406 247.421875 C 117.117188 248.933594 122.050781 250.207031 129.289062 251.082031 C 140.667969 252.59375 169.078125 251.238281 174.25 253.148438 C 175.445312 253.546875 175.84375 254.023438 176.238281 254.660156 C 176.71875 255.296875 177.035156 256.253906 176.957031 257.128906 C 176.796875 258.164062 175.84375 259.675781 175.046875 260.3125 C 174.332031 260.789062 173.375 260.949219 172.578125 260.867188 C 171.785156 260.789062 170.828125 260.3125 170.273438 259.753906 C 169.636719 259.277344 169.15625 258.402344 169.078125 257.527344 C 169 256.492188 169.476562 254.742188 170.273438 254.023438 C 171.066406 253.230469 172.816406 252.910156 173.851562 252.992188 C 174.648438 253.148438 175.523438 253.707031 176 254.34375 C 176.558594 254.980469 176.875 255.855469 176.957031 256.730469 C 177.035156 257.527344 176.796875 258.480469 176.238281 259.117188 C 175.601562 259.914062 174.570312 260.472656 172.976562 260.867188 C 169.792969 261.664062 163.507812 261.109375 157.539062 260.867188 C 149.503906 260.628906 137.40625 260.074219 129.132812 259.039062 C 122.605469 258.164062 116.398438 256.730469 111.703125 255.617188 C 108.519531 254.820312 106.371094 254.34375 103.746094 253.386719 C 101.199219 252.433594 98.734375 251.320312 96.265625 250.046875 C 93.71875 248.695312 91.570312 247.660156 88.945312 245.667969 C 85.125 242.804688 79.398438 238.03125 76.214844 233.972656 C 73.507812 230.472656 71.835938 227.050781 70.246094 223.308594 C 68.652344 219.410156 67.300781 214.953125 66.664062 210.976562 C 66.027344 207.394531 65.472656 202.621094 66.109375 200.472656 C 66.425781 199.277344 66.984375 198.640625 67.699219 198.082031 C 68.414062 197.605469 69.527344 197.367188 70.40625 197.445312 C 71.28125 197.527344 72.3125 198.082031 72.949219 198.71875 C 73.507812 199.4375 73.90625 201.425781 73.90625 201.425781 "/></clipPath><clipPath id="1999c8e53c"><path d="M 53 160.242188 L 86.597656 160.242188 L 86.597656 200.921875 L 53 200.921875 Z M 53 160.242188 "/></clipPath><clipPath id="4bd53dcb7f"><path d="M 61.492188 165.617188 C 61.96875 189.25 62.207031 190.285156 63.402344 191.238281 C 65.074219 192.511719 69.527344 193.308594 71.675781 193.070312 C 73.191406 192.832031 74.382812 192.035156 75.257812 191.082031 C 76.214844 190.125 76.613281 189.171875 77.089844 187.261719 C 78.28125 182.726562 77.246094 166.570312 78.601562 163.070312 C 79 161.875 79.476562 161.480469 80.113281 161.082031 C 80.828125 160.601562 81.785156 160.285156 82.578125 160.363281 C 83.613281 160.523438 85.207031 161.480469 85.761719 162.355469 C 86.238281 162.992188 86.398438 164.023438 86.320312 164.820312 C 86.238281 165.617188 85.84375 166.570312 85.207031 167.128906 C 84.410156 167.765625 82.738281 168.480469 81.703125 168.242188 C 80.589844 168.082031 79.15625 166.96875 78.761719 166.015625 C 78.28125 164.980469 78.519531 163.230469 78.917969 162.273438 C 79.316406 161.558594 80.191406 160.921875 80.910156 160.683594 C 81.625 160.363281 82.660156 160.285156 83.453125 160.523438 C 84.25 160.761719 85.046875 161.320312 85.523438 161.957031 C 86 162.59375 86.160156 163.148438 86.320312 164.421875 C 86.796875 167.605469 86 177.554688 85.523438 182.488281 C 85.207031 185.828125 84.808594 188.773438 84.171875 191.082031 C 83.695312 192.59375 83.296875 193.785156 82.5 194.902344 C 81.703125 196.015625 80.589844 196.96875 79.476562 197.84375 C 78.519531 198.71875 77.488281 199.753906 76.292969 200.230469 C 74.941406 200.789062 73.429688 200.867188 71.675781 200.867188 C 69.289062 200.949219 65.710938 200.390625 63.402344 199.835938 C 61.730469 199.355469 60.539062 199.199219 59.183594 198.164062 C 57.355469 196.808594 55.207031 193.546875 54.332031 191.480469 C 53.695312 190.046875 53.695312 189.332031 53.535156 187.421875 C 53.136719 182.882812 52.5 168.242188 53.695312 164.660156 C 54.089844 163.386719 54.570312 162.832031 55.285156 162.273438 C 56 161.796875 57.117188 161.558594 57.992188 161.636719 C 58.867188 161.71875 59.902344 162.273438 60.539062 162.910156 C 61.09375 163.628906 61.492188 165.617188 61.492188 165.617188 "/></clipPath><clipPath id="3db36cf0c4"><path d="M 47.351562 156.53125 L 90.390625 156.53125 L 90.390625 165.808594 L 47.351562 165.808594 Z M 47.351562 156.53125 "/></clipPath><clipPath id="6bc2dd1c2e"><path d="M 51.226562 157.023438 C 75.578125 157.660156 83.375 156.226562 86.320312 156.625 C 87.511719 156.785156 88.148438 156.863281 88.785156 157.421875 C 89.503906 158.058594 90.378906 159.648438 90.378906 160.761719 C 90.296875 161.875 89.265625 163.386719 88.46875 163.945312 C 87.753906 164.503906 86.71875 164.582031 85.921875 164.503906 C 85.125 164.421875 84.171875 164.105469 83.613281 163.46875 C 82.976562 162.671875 82.339844 161 82.421875 159.96875 C 82.5 159.089844 83.058594 158.214844 83.613281 157.660156 C 84.171875 157.183594 85.046875 156.625 85.921875 156.625 C 86.957031 156.625 88.707031 157.183594 89.421875 157.976562 C 90.140625 158.851562 90.457031 160.601562 90.21875 161.636719 C 89.902344 162.671875 89.183594 163.628906 87.671875 164.34375 C 83.613281 166.171875 68.652344 165.777344 61.808594 165.695312 C 57.195312 165.695312 52.421875 165.457031 50.273438 164.902344 C 49.476562 164.660156 49.078125 164.421875 48.601562 164.023438 C 48.125 163.628906 47.726562 163.070312 47.566406 162.433594 C 47.328125 161.71875 47.328125 160.363281 47.566406 159.648438 C 47.726562 159.011719 48.125 158.453125 48.601562 158.058594 C 49.238281 157.578125 51.226562 157.023438 51.226562 157.023438 "/></clipPath><clipPath id="f4184a1e14"><path d="M 55.328125 116.195312 L 82.746094 116.195312 L 82.746094 163.152344 L 55.328125 163.152344 Z M 55.328125 116.195312 "/></clipPath><clipPath id="fd190bce98"><path d="M 55.363281 159.089844 C 57.59375 123.601562 58.785156 121.132812 60.296875 119.304688 C 61.332031 118.03125 62.6875 117.234375 63.957031 116.675781 C 65.230469 116.28125 66.664062 116.28125 68.015625 116.359375 C 69.371094 116.4375 70.722656 116.4375 72.074219 117.074219 C 74.066406 118.03125 76.851562 120.179688 78.28125 122.40625 C 79.714844 124.636719 79.875 127.023438 80.429688 130.683594 C 81.546875 137.289062 83.214844 155.03125 82.5 159.25 C 82.261719 160.523438 81.941406 161 81.386719 161.558594 C 80.910156 162.117188 80.03125 162.671875 79.15625 162.753906 C 78.125 162.832031 76.453125 162.273438 75.65625 161.558594 C 75.019531 161 74.621094 160.125 74.542969 159.25 C 74.542969 158.214844 75.257812 156.546875 75.976562 155.75 C 76.53125 155.191406 77.488281 154.792969 78.28125 154.875 C 79.316406 154.875 80.988281 155.667969 81.703125 156.386719 C 82.261719 157.023438 82.5 157.976562 82.5 158.773438 C 82.5 159.648438 82.183594 160.601562 81.703125 161.238281 C 81.226562 161.875 80.351562 162.433594 79.636719 162.671875 C 78.839844 162.832031 77.804688 162.832031 77.089844 162.511719 C 76.292969 162.195312 75.65625 161.957031 75.097656 160.84375 C 73.109375 157.023438 73.507812 134.660156 72.15625 129.171875 C 71.675781 127.101562 71.519531 125.910156 70.5625 125.113281 C 69.609375 124.316406 67.539062 123.761719 66.585938 124.15625 C 65.550781 124.636719 65.074219 126.703125 64.675781 127.976562 C 64.277344 129.332031 64.277344 130.125 64.117188 132.195312 C 63.640625 137.367188 64.515625 155.910156 63.164062 160.046875 C 62.765625 161.320312 62.289062 161.875 61.570312 162.355469 C 60.855469 162.832031 59.742188 163.148438 58.867188 162.992188 C 57.992188 162.910156 56.957031 162.355469 56.320312 161.71875 C 55.761719 161.082031 55.363281 159.089844 55.363281 159.089844 "/></clipPath><clipPath id="fd8ababde8"><path d="M 64.148438 102.226562 L 72.484375 102.226562 L 72.484375 121.023438 L 64.148438 121.023438 Z M 64.148438 102.226562 "/></clipPath><clipPath id="26e538d37f"><path d="M 64.199219 117.074219 C 64.355469 105.140625 64.515625 104.503906 64.992188 103.867188 C 65.472656 103.230469 66.347656 102.671875 67.140625 102.433594 C 67.859375 102.273438 68.890625 102.273438 69.609375 102.59375 C 70.40625 102.910156 71.199219 103.546875 71.597656 104.265625 C 71.996094 104.902344 72.234375 105.933594 72.15625 106.730469 C 72.074219 107.527344 71.597656 108.402344 71.042969 109.039062 C 70.484375 109.59375 69.6875 110.152344 68.8125 110.230469 C 67.777344 110.3125 66.027344 109.835938 65.3125 109.039062 C 64.515625 108.242188 64.117188 106.492188 64.277344 105.457031 C 64.4375 104.582031 64.992188 103.785156 65.628906 103.230469 C 66.1875 102.753906 67.140625 102.355469 67.9375 102.273438 C 68.734375 102.273438 69.769531 102.511719 70.40625 102.992188 C 71.042969 103.46875 71.597656 103.945312 71.917969 104.980469 C 72.710938 107.289062 72.554688 114.527344 72.15625 117.074219 C 71.917969 118.269531 71.757812 119.066406 71.121094 119.703125 C 70.5625 120.339844 69.527344 120.894531 68.652344 120.976562 C 67.777344 121.132812 66.664062 120.894531 65.867188 120.339844 C 65.074219 119.703125 64.199219 117.074219 64.199219 117.074219 "/></clipPath><clipPath id="ab6a24bb19"><path d="M 54.972656 61.378906 L 82.195312 61.378906 L 82.195312 111.15625 L 54.972656 111.15625 Z M 54.972656 61.378906 "/></clipPath><clipPath id="b905988c34"><path d="M 66.824219 110.074219 C 60.21875 105.855469 58.148438 103.308594 56.957031 100.921875 C 55.761719 98.453125 55.363281 95.113281 55.046875 92.804688 C 54.886719 91.292969 55.046875 90.097656 55.046875 88.746094 C 55.046875 87.394531 54.96875 86.359375 55.207031 84.769531 C 55.601562 82.460938 56.71875 79.277344 57.910156 76.253906 C 59.421875 72.511719 61.890625 66.464844 63.878906 64 C 64.992188 62.644531 66.027344 61.613281 67.222656 61.453125 C 68.414062 61.292969 70.164062 61.769531 71.199219 62.882812 C 72.632812 64.316406 72.554688 67.976562 73.746094 70.84375 C 75.257812 74.34375 78.679688 78.480469 79.953125 81.984375 C 81.066406 84.925781 81.464844 87.554688 81.785156 90.339844 C 82.101562 93.042969 82.261719 95.828125 81.785156 98.535156 C 81.304688 101.160156 80.273438 104.34375 79 106.171875 C 78.125 107.445312 77.089844 108.082031 75.816406 108.878906 C 74.144531 109.835938 71.359375 111.105469 69.6875 111.105469 C 68.652344 111.105469 67.699219 110.789062 67.0625 110.230469 C 66.265625 109.515625 65.550781 107.84375 65.628906 106.808594 C 65.710938 105.695312 67.621094 103.707031 67.621094 103.707031 C 67.621094 103.628906 65.628906 106.570312 65.628906 106.570312 C 65.628906 106.570312 66.984375 104.105469 67.859375 103.546875 C 68.574219 103.148438 69.609375 103.070312 70.40625 103.230469 C 71.121094 103.386719 72.074219 103.867188 72.554688 104.503906 C 73.191406 105.378906 73.667969 107.050781 73.429688 108.164062 C 73.109375 109.199219 71.835938 110.472656 70.882812 110.867188 C 70.085938 111.265625 69.132812 111.1875 68.335938 110.949219 C 67.621094 110.710938 66.742188 110.152344 66.347656 109.4375 C 65.789062 108.480469 65.550781 106.730469 65.867188 105.695312 C 66.109375 104.902344 66.824219 104.183594 67.460938 103.785156 C 68.175781 103.308594 69.132812 103.070312 69.925781 103.148438 C 70.722656 103.230469 71.675781 103.628906 72.234375 104.183594 C 72.871094 104.742188 73.429688 105.535156 73.507812 106.414062 C 73.507812 107.605469 72.472656 109.914062 71.519531 110.550781 C 70.800781 111.1875 69.609375 111.265625 68.734375 111.027344 C 67.777344 110.710938 66.347656 109.675781 65.867188 108.640625 C 65.472656 107.6875 65.550781 106.09375 66.1875 104.980469 C 67.222656 103.386719 71.675781 102.753906 72.871094 101.082031 C 73.746094 99.886719 73.667969 98.613281 73.828125 97.023438 C 74.066406 94.714844 73.90625 91.214844 73.585938 88.90625 C 73.269531 87.15625 73.109375 86.199219 72.394531 84.371094 C 71.199219 81.425781 66.1875 75.855469 65.867188 72.992188 C 65.628906 71.398438 66.109375 70.046875 66.902344 69.089844 C 67.777344 68.136719 70.5625 66.863281 71.121094 67.421875 C 72.074219 68.453125 64.914062 79.277344 63.800781 82.9375 C 63.164062 84.769531 63.082031 85.5625 63.003906 87.3125 C 62.925781 89.621094 63.082031 93.441406 63.640625 95.667969 C 63.957031 97.183594 64.277344 98.296875 65.230469 99.410156 C 66.425781 101 70.007812 102.195312 71.042969 103.546875 C 71.757812 104.421875 72.15625 105.296875 72.15625 106.171875 C 72.074219 107.207031 71.359375 108.878906 70.484375 109.515625 C 69.609375 110.152344 66.824219 110.074219 66.824219 110.074219 "/></clipPath><clipPath id="297b35db9e"><path d="M 109.144531 159.515625 L 140.933594 159.515625 L 140.933594 201.320312 L 109.144531 201.320312 Z M 109.144531 159.515625 "/></clipPath><clipPath id="8e3173d45e"><path d="M 117.671875 166.015625 C 118.945312 189.570312 119.980469 190.207031 121.09375 191.082031 C 122.207031 191.957031 123.5625 192.992188 124.753906 193.070312 C 126.027344 193.148438 127.539062 192.355469 128.574219 191.480469 C 129.609375 190.601562 130.40625 189.25 130.960938 187.976562 C 131.519531 186.625 131.675781 185.667969 131.996094 183.601562 C 132.632812 179.066406 131.597656 164.34375 133.269531 161.320312 C 133.746094 160.285156 134.542969 160.046875 135.257812 159.808594 C 136.054688 159.570312 137.089844 159.570312 137.804688 159.886719 C 138.601562 160.125 139.398438 160.761719 139.792969 161.398438 C 140.273438 162.117188 140.511719 163.070312 140.429688 163.867188 C 140.429688 164.660156 140.113281 165.617188 139.476562 166.253906 C 138.761719 166.96875 137.007812 167.605469 136.054688 167.527344 C 135.179688 167.527344 134.304688 167.128906 133.746094 166.492188 C 133.03125 165.695312 132.472656 163.945312 132.554688 162.910156 C 132.632812 162.035156 133.191406 161.238281 133.828125 160.683594 C 134.382812 160.125 135.339844 159.726562 136.132812 159.648438 C 136.929688 159.570312 137.882812 159.808594 138.601562 160.207031 C 139.316406 160.683594 139.792969 161.082031 140.191406 162.195312 C 141.386719 165.378906 140.667969 177.710938 140.03125 183.042969 C 139.636719 186.464844 138.917969 189.089844 138.125 191.320312 C 137.488281 192.910156 137.167969 193.867188 136.054688 195.21875 C 134.621094 197.050781 131.4375 199.992188 129.289062 200.789062 C 127.859375 201.425781 126.585938 201.1875 125.230469 201.105469 C 123.957031 200.949219 122.84375 200.628906 121.332031 199.992188 C 119.105469 199.039062 115.285156 196.96875 113.613281 195.296875 C 112.5 194.265625 112.023438 193.386719 111.386719 191.957031 C 110.511719 189.886719 110.03125 187.023438 109.714844 183.679688 C 109.238281 178.746094 108.839844 168.242188 109.875 165.058594 C 110.273438 163.867188 110.75 163.230469 111.464844 162.753906 C 112.183594 162.273438 113.296875 161.957031 114.171875 162.035156 C 115.046875 162.195312 116.082031 162.753906 116.71875 163.386719 C 117.273438 164.023438 117.671875 166.015625 117.671875 166.015625 "/></clipPath><clipPath id="a5f0e40b85"><path d="M 103.242188 157.085938 L 146.183594 157.085938 L 146.183594 165.914062 L 103.242188 165.914062 Z M 103.242188 157.085938 "/></clipPath><clipPath id="40e5db7b3d"><path d="M 107.167969 157.101562 C 144.488281 157.816406 144.96875 158.296875 145.523438 159.011719 C 146 159.726562 146.238281 160.84375 146.160156 161.71875 C 146.082031 162.59375 145.523438 163.628906 144.886719 164.265625 C 144.171875 164.820312 143.136719 165.296875 142.183594 165.21875 C 141.148438 165.140625 139.554688 164.421875 138.917969 163.46875 C 138.28125 162.59375 138.125 160.84375 138.519531 159.808594 C 138.917969 158.773438 140.351562 157.660156 141.386719 157.339844 C 142.183594 157.101562 143.136719 157.339844 143.851562 157.660156 C 144.648438 157.976562 145.363281 158.613281 145.761719 159.410156 C 146.160156 160.363281 146.238281 162.195312 145.761719 163.148438 C 145.207031 164.105469 143.773438 165.058594 142.660156 165.21875 C 141.546875 165.296875 139.875 164.660156 139.15625 163.867188 C 138.441406 162.992188 138.125 161.238281 138.363281 160.207031 C 138.679688 159.171875 139.875 157.816406 140.910156 157.5 C 142.023438 157.183594 144.011719 157.738281 144.886719 158.296875 C 145.445312 158.695312 145.761719 159.25 145.921875 159.886719 C 146.160156 160.601562 146.320312 161.875 145.921875 162.671875 C 145.523438 163.628906 144.726562 164.503906 143.136719 165.140625 C 139 166.730469 123.957031 165.296875 117.355469 165.21875 C 113.136719 165.21875 109.398438 165.539062 107.167969 165.058594 C 105.976562 164.902344 105.097656 164.582031 104.460938 164.105469 C 103.984375 163.707031 103.585938 163.148438 103.429688 162.511719 C 103.191406 161.71875 103.191406 160.445312 103.429688 159.726562 C 103.585938 159.089844 103.984375 158.535156 104.460938 158.136719 C 105.097656 157.660156 107.167969 157.101562 107.167969 157.101562 "/></clipPath><clipPath id="178b6d9e61"><path d="M 112.1875 118.117188 L 139.28125 118.117188 L 139.28125 165.171875 L 112.1875 165.171875 Z M 112.1875 118.117188 "/></clipPath><clipPath id="83eacb3d4e"><path d="M 112.261719 157.578125 C 113.773438 124.316406 114.011719 123.363281 114.886719 122.246094 C 115.761719 121.054688 117.195312 120.019531 118.867188 119.382812 C 120.933594 118.507812 124.515625 118.191406 126.742188 118.191406 C 128.496094 118.269531 129.847656 118.429688 131.199219 118.984375 C 132.394531 119.460938 133.585938 120.257812 134.542969 121.214844 C 135.496094 122.167969 136.292969 122.804688 136.929688 124.792969 C 138.917969 130.523438 139.554688 155.988281 139 160.921875 C 138.839844 162.195312 138.761719 162.671875 138.28125 163.308594 C 137.882812 164.023438 137.089844 164.660156 136.292969 164.820312 C 135.257812 165.058594 133.429688 164.742188 132.554688 164.183594 C 131.917969 163.707031 131.359375 162.832031 131.199219 162.117188 C 130.960938 161.320312 130.960938 160.285156 131.359375 159.570312 C 131.835938 158.613281 133.269531 157.5 134.222656 157.183594 C 135.019531 156.941406 136.054688 157.101562 136.769531 157.5 C 137.488281 157.816406 138.203125 158.453125 138.601562 159.25 C 139 160.207031 139.078125 162.035156 138.519531 162.992188 C 137.964844 163.945312 136.453125 164.820312 135.417969 165.058594 C 134.542969 165.140625 133.667969 164.902344 132.949219 164.421875 C 132.234375 164.023438 131.757812 163.546875 131.359375 162.511719 C 130.246094 159.886719 130.164062 152.964844 129.847656 147.554688 C 129.449219 141.265625 131.359375 129.570312 129.210938 127.023438 C 128.335938 125.910156 126.585938 126.226562 125.230469 126.148438 C 123.957031 126.148438 122.367188 125.667969 121.332031 126.785156 C 118.386719 130.046875 121.730469 155.351562 119.742188 159.488281 C 119.183594 160.683594 118.46875 161 117.671875 161.320312 C 116.796875 161.636719 115.601562 161.558594 114.808594 161.320312 C 114.171875 161.160156 113.695312 160.761719 113.214844 160.207031 C 112.738281 159.570312 112.261719 157.578125 112.261719 157.578125 "/></clipPath><clipPath id="f0a91fa25b"><path d="M 120.710938 104.9375 L 129.429688 104.9375 L 129.429688 124.46875 L 120.710938 124.46875 Z M 120.710938 104.9375 "/></clipPath><clipPath id="a65414a502"><path d="M 121.253906 120.417969 C 120.855469 107.84375 121.015625 107.128906 121.492188 106.492188 C 122.050781 105.855469 122.84375 105.296875 123.640625 105.058594 C 124.4375 104.902344 125.390625 104.902344 126.1875 105.21875 C 126.902344 105.539062 127.699219 106.171875 128.097656 106.890625 C 128.496094 107.527344 128.734375 108.5625 128.652344 109.355469 C 128.574219 110.152344 128.097656 111.109375 127.621094 111.664062 C 127.0625 112.222656 126.1875 112.777344 125.3125 112.859375 C 124.277344 112.9375 122.605469 112.378906 121.808594 111.664062 C 121.171875 111.109375 120.855469 110.152344 120.777344 109.355469 C 120.617188 108.5625 120.777344 107.605469 121.253906 106.890625 C 121.890625 106.015625 123.480469 105.058594 124.515625 104.980469 C 125.3125 104.820312 126.265625 105.21875 126.902344 105.617188 C 127.621094 106.09375 128.097656 106.570312 128.496094 107.6875 C 129.371094 109.992188 129.609375 117.792969 129.210938 120.417969 C 128.972656 121.691406 128.8125 122.40625 128.175781 123.042969 C 127.621094 123.679688 126.585938 124.238281 125.710938 124.398438 C 124.835938 124.476562 123.640625 124.238281 122.925781 123.679688 C 122.128906 123.042969 121.253906 120.417969 121.253906 120.417969 "/></clipPath><clipPath id="7a2901aee6"><path d="M 110.21875 59.011719 L 139.609375 59.011719 L 139.609375 112.800781 L 110.21875 112.800781 Z M 110.21875 59.011719 "/></clipPath><clipPath id="7b00f8cb57"><path d="M 122.765625 112.222656 C 116 106.652344 113.851562 103.230469 112.660156 101.160156 C 111.941406 99.726562 111.546875 99.089844 111.148438 97.421875 C 110.511719 94.554688 110.03125 88.746094 110.351562 85.007812 C 110.667969 81.984375 111.226562 79.835938 112.421875 76.808594 C 114.089844 72.511719 118.148438 65.273438 120.140625 62.246094 C 121.09375 60.816406 121.492188 59.542969 122.605469 59.144531 C 123.957031 58.746094 126.664062 59.382812 128.015625 60.65625 C 129.609375 62.167969 129.449219 65.75 130.644531 68.695312 C 132.074219 72.355469 134.78125 76.414062 136.214844 80.867188 C 137.882812 85.882812 139.15625 93.601562 139.476562 97.421875 C 139.554688 99.410156 139.792969 100.683594 139.238281 102.035156 C 138.761719 103.230469 137.882812 104.023438 136.613281 105.140625 C 134.460938 106.96875 129.371094 110.710938 127.140625 111.265625 C 126.109375 111.585938 125.3125 111.503906 124.59375 111.1875 C 123.878906 110.867188 123.082031 110.230469 122.6875 109.515625 C 122.207031 108.878906 121.96875 107.84375 122.128906 107.050781 C 122.207031 106.253906 122.527344 105.296875 123.164062 104.742188 C 123.878906 104.023438 125.628906 103.386719 126.664062 103.546875 C 127.777344 103.707031 129.210938 104.820312 129.6875 105.777344 C 130.085938 106.808594 129.925781 108.5625 129.449219 109.515625 C 129.050781 110.3125 128.335938 110.867188 127.539062 111.1875 C 126.585938 111.503906 124.753906 111.265625 123.800781 110.789062 C 123.082031 110.390625 122.527344 109.59375 122.289062 108.71875 C 122.050781 107.765625 122.128906 106.171875 122.84375 105.058594 C 123.878906 103.546875 127.222656 102.433594 128.734375 101.082031 C 129.925781 100.046875 131.042969 99.488281 131.4375 97.898438 C 132.3125 94.636719 129.769531 86.042969 128.015625 81.1875 C 126.585938 77.050781 122.925781 73.070312 122.445312 70.285156 C 122.128906 68.613281 122.207031 66.863281 123.003906 66.226562 C 123.800781 65.589844 126.664062 65.511719 127.140625 66.386719 C 128.097656 68.058594 120.378906 77.6875 119.183594 81.1875 C 118.546875 82.9375 118.46875 83.734375 118.308594 85.40625 C 118.148438 87.632812 118.308594 91.453125 118.707031 93.679688 C 118.945312 95.273438 119.023438 96.226562 119.742188 97.578125 C 120.777344 99.648438 123.5625 102.910156 125.152344 104.503906 C 126.1875 105.457031 127.460938 105.855469 128.015625 106.570312 C 128.414062 107.207031 128.652344 107.6875 128.652344 108.402344 C 128.652344 109.355469 127.9375 111.109375 127.222656 111.824219 C 126.742188 112.300781 126.1875 112.539062 125.550781 112.699219 C 124.753906 112.777344 122.765625 112.222656 122.765625 112.222656 "/></clipPath></defs><g id="2fd124e4e4"><g clip-rule="nonzero" clip-path="url(#7908a25da8)"><g clip-rule="nonzero" clip-path="url(#a65c115d91)"><path style=" stroke:none;fill-rule:nonzero;fill:currentColor;fill-opacity:1;" d="M 124.515625 321.027344 L 248.828125 321.027344 L 248.828125 337.5 L 124.515625 337.5 Z M 124.515625 321.027344 "/></g></g><g clip-rule="nonzero" clip-path="url(#b734960a1a)"><g clip-rule="nonzero" clip-path="url(#778d9aa8f6)"><path style=" stroke:none;fill-rule:nonzero;fill:currentColor;fill-opacity:1;" d="M 144.96875 280.523438 L 184.4375 280.523438 L 184.4375 332.789062 L 144.96875 332.789062 Z M 144.96875 280.523438 "/></g></g><g clip-rule="nonzero" clip-path="url(#fd8ccae782)"><g clip-rule="nonzero" clip-path="url(#4e4c126a87)"><path style=" stroke:none;fill-rule:nonzero;fill:currentColor;fill-opacity:1;" d="M 170.113281 279.808594 L 203.777344 279.808594 L 203.777344 294.847656 L 170.113281 294.847656 Z M 170.113281 279.808594 "/></g></g><g clip-rule="nonzero" clip-path="url(#ec2608d944)"><g clip-rule="nonzero" clip-path="url(#d0e4a59ff9)"><path style=" stroke:none;fill-rule:nonzero;fill:currentColor;fill-opacity:1;" d="M 190.246094 281.480469 L 225.417969 281.480469 L 225.417969 334.238281 L 190.246094 334.238281 Z M 190.246094 281.480469 "/></g></g><g clip-rule="nonzero" clip-path="url(#e6f314b66e)"><g clip-rule="nonzero" clip-path="url(#a873090dc0)"><path style=" stroke:none;fill-rule:nonzero;fill:currentColor;fill-opacity:1;" d="M 169 182.167969 L 184.355469 182.167969 L 184.355469 296.453125 L 169 296.453125 Z M 169 182.167969 "/></g></g><g clip-rule="nonzero" clip-path="url(#de90fcb98b)"><g clip-rule="nonzero" clip-path="url(#6e97c03f48)"><path style=" stroke:none;fill-rule:nonzero;fill:currentColor;fill-opacity:1;" d="M 189.847656 180.339844 L 204.332031 180.339844 L 204.332031 294.050781 L 189.847656 294.050781 Z M 189.847656 180.339844 "/></g></g><g clip-rule="nonzero" clip-path="url(#075c289615)"><g clip-rule="nonzero" clip-path="url(#80ead4c34a)"><path style=" stroke:none;fill-rule:nonzero;fill:currentColor;fill-opacity:1;" d="M 159.371094 158.613281 L 213.484375 158.613281 L 213.484375 194.503906 L 159.371094 194.503906 Z M 159.371094 158.613281 "/></g></g><g clip-rule="nonzero" clip-path="url(#86c79e5da6)"><g clip-rule="nonzero" clip-path="url(#ba89afe987)"><path style=" stroke:none;fill-rule:nonzero;fill:currentColor;fill-opacity:1;" d="M 167.964844 134.265625 L 183.003906 134.265625 L 183.003906 169.511719 L 167.964844 169.511719 Z M 167.964844 134.265625 "/></g></g><g clip-rule="nonzero" clip-path="url(#36f61f86ad)"><g clip-rule="nonzero" clip-path="url(#e267a785b0)"><path style=" stroke:none;fill-rule:nonzero;fill:currentColor;fill-opacity:1;" d="M 190.644531 134.902344 L 205.683594 134.902344 L 205.683594 169.503906 L 190.644531 169.503906 Z M 190.644531 134.902344 "/></g></g><g clip-rule="nonzero" clip-path="url(#c4f93d2ead)"><g clip-rule="nonzero" clip-path="url(#16977d6c87)"><path style=" stroke:none;fill-rule:nonzero;fill:currentColor;fill-opacity:1;" d="M 162.234375 129.886719 L 211.625 129.886719 L 211.625 145.324219 L 162.234375 145.324219 Z M 162.234375 129.886719 "/></g></g><g clip-rule="nonzero" clip-path="url(#a3d58f77b0)"><g clip-rule="nonzero" clip-path="url(#60f05e734f)"><path style=" stroke:none;fill-rule:nonzero;fill:currentColor;fill-opacity:1;" d="M 171.226562 91.691406 L 205.601562 91.691406 L 205.601562 144.867188 L 171.226562 144.867188 Z M 171.226562 91.691406 "/></g></g><g clip-rule="nonzero" clip-path="url(#9d13305d69)"><g clip-rule="nonzero" clip-path="url(#387e78eb81)"><path style=" stroke:none;fill-rule:nonzero;fill:currentColor;fill-opacity:1;" d="M 180.140625 77.289062 L 194.460938 77.289062 L 194.460938 102.691406 L 180.140625 102.691406 Z M 180.140625 77.289062 "/></g></g><g clip-rule="nonzero" clip-path="url(#1de2436ef8)"><g clip-rule="nonzero" clip-path="url(#638e21b31c)"><path style=" stroke:none;fill-rule:nonzero;fill:currentColor;fill-opacity:1;" d="M 170.351562 37.5 L 203.613281 37.5 L 203.613281 91.550781 L 170.351562 91.550781 Z M 170.351562 37.5 "/></g></g><g clip-rule="nonzero" clip-path="url(#0acfb6f387)"><g clip-rule="nonzero" clip-path="url(#01ccd21608)"><path style=" stroke:none;fill-rule:nonzero;fill:currentColor;fill-opacity:1;" d="M 192.472656 192.992188 L 252.691406 192.992188 L 252.691406 232.621094 L 192.472656 232.621094 Z M 192.472656 192.992188 "/></g></g><g clip-rule="nonzero" clip-path="url(#a6bab961ae)"><g clip-rule="nonzero" clip-path="url(#fcab5bfc96)"><path style=" stroke:none;fill-rule:nonzero;fill:currentColor;fill-opacity:1;" d="M 191.917969 244.636719 L 262.324219 244.636719 L 262.324219 265.644531 L 191.917969 265.644531 Z M 191.917969 244.636719 "/></g></g><g clip-rule="nonzero" clip-path="url(#2ba99c02f1)"><g clip-rule="nonzero" clip-path="url(#60ee855ffa)"><path style=" stroke:none;fill-rule:nonzero;fill:currentColor;fill-opacity:1;" d="M 240.617188 195.21875 L 311.140625 195.21875 L 311.140625 260.867188 L 240.617188 260.867188 Z M 240.617188 195.21875 "/></g></g><g clip-rule="nonzero" clip-path="url(#bdbf0bd13e)"><g clip-rule="nonzero" clip-path="url(#d5bf4a6fe3)"><path style=" stroke:none;fill-rule:nonzero;fill:currentColor;fill-opacity:1;" d="M 285.257812 158.773438 L 323.773438 158.773438 L 323.773438 205.261719 L 285.257812 205.261719 Z M 285.257812 158.773438 "/></g></g><g clip-rule="nonzero" clip-path="url(#5b9ec988a5)"><g clip-rule="nonzero" clip-path="url(#b326c9787c)"><path style=" stroke:none;fill-rule:nonzero;fill:currentColor;fill-opacity:1;" d="M 231.546875 158.453125 L 269.183594 158.453125 L 269.183594 203.738281 L 231.546875 203.738281 Z M 231.546875 158.453125 "/></g></g><g clip-rule="nonzero" clip-path="url(#57b2ca389e)"><g clip-rule="nonzero" clip-path="url(#59e469055d)"><path style=" stroke:none;fill-rule:nonzero;fill:currentColor;fill-opacity:1;" d="M 225.019531 153.839844 L 274.988281 153.839844 L 274.988281 169.515625 L 225.019531 169.515625 Z M 225.019531 153.839844 "/></g></g><g clip-rule="nonzero" clip-path="url(#e9f8fede55)"><g clip-rule="nonzero" clip-path="url(#e1f0551f0e)"><path style=" stroke:none;fill-rule:nonzero;fill:currentColor;fill-opacity:1;" d="M 280.007812 153.917969 L 330.589844 153.917969 L 330.589844 169.117188 L 280.007812 169.117188 Z M 280.007812 153.917969 "/></g></g><g clip-rule="nonzero" clip-path="url(#3f21a3af3a)"><g clip-rule="nonzero" clip-path="url(#431b62ee87)"><path style=" stroke:none;fill-rule:nonzero;fill:currentColor;fill-opacity:1;" d="M 233.773438 114.371094 L 268.867188 114.371094 L 268.867188 169.066406 L 233.773438 169.066406 Z M 233.773438 114.371094 "/></g></g><g clip-rule="nonzero" clip-path="url(#a3577c5827)"><g clip-rule="nonzero" clip-path="url(#442ee3c225)"><path style=" stroke:none;fill-rule:nonzero;fill:currentColor;fill-opacity:1;" d="M 287.167969 116.199219 L 323.851562 116.199219 L 323.851562 166.929688 L 287.167969 166.929688 Z M 287.167969 116.199219 "/></g></g><g clip-rule="nonzero" clip-path="url(#8994e4cf22)"><g clip-rule="nonzero" clip-path="url(#d9c5aa3ab7)"><path style=" stroke:none;fill-rule:nonzero;fill:currentColor;fill-opacity:1;" d="M 242.765625 104.265625 L 257.089844 104.265625 L 257.089844 126.085938 L 242.765625 126.085938 Z M 242.765625 104.265625 "/></g></g><g clip-rule="nonzero" clip-path="url(#2805ceddf8)"><g clip-rule="nonzero" clip-path="url(#0b218018ed)"><path style=" stroke:none;fill-rule:nonzero;fill:currentColor;fill-opacity:1;" d="M 296.398438 102.511719 L 311.28125 102.511719 L 311.28125 129.25 L 296.398438 129.25 Z M 296.398438 102.511719 "/></g></g><g clip-rule="nonzero" clip-path="url(#2b3b483aeb)"><g clip-rule="nonzero" clip-path="url(#1a3a60ad01)"><path style=" stroke:none;fill-rule:nonzero;fill:currentColor;fill-opacity:1;" d="M 232.5 58.03125 L 265.285156 58.03125 L 265.285156 114.507812 L 232.5 114.507812 Z M 232.5 58.03125 "/></g></g><g clip-rule="nonzero" clip-path="url(#31767f5a0b)"><g clip-rule="nonzero" clip-path="url(#7cba0c2041)"><path style=" stroke:none;fill-rule:nonzero;fill:currentColor;fill-opacity:1;" d="M 287.328125 57.792969 L 319.714844 57.792969 L 319.714844 113.964844 L 287.328125 113.964844 Z M 287.328125 57.792969 "/></g></g><g clip-rule="nonzero" clip-path="url(#70ec2178ea)"><g clip-rule="nonzero" clip-path="url(#6830e4ef6b)"><path style=" stroke:none;fill-rule:nonzero;fill:currentColor;fill-opacity:1;" d="M 120.933594 194.980469 L 182.0625 194.980469 L 182.0625 233.335938 L 120.933594 233.335938 Z M 120.933594 194.980469 "/></g></g><g clip-rule="nonzero" clip-path="url(#525a6a0631)"><g clip-rule="nonzero" clip-path="url(#9c3d01a3e1)"><path style=" stroke:none;fill-rule:nonzero;fill:currentColor;fill-opacity:1;" d="M 62.925781 194.265625 L 180.28125 194.265625 L 180.28125 264.132812 L 62.925781 264.132812 Z M 62.925781 194.265625 "/></g></g><g clip-rule="nonzero" clip-path="url(#1999c8e53c)"><g clip-rule="nonzero" clip-path="url(#4bd53dcb7f)"><path style=" stroke:none;fill-rule:nonzero;fill:currentColor;fill-opacity:1;" d="M 50.351562 157.183594 L 89.503906 157.183594 L 89.503906 204.132812 L 50.351562 204.132812 Z M 50.351562 157.183594 "/></g></g><g clip-rule="nonzero" clip-path="url(#3db36cf0c4)"><g clip-rule="nonzero" clip-path="url(#6bc2dd1c2e)"><path style=" stroke:none;fill-rule:nonzero;fill:currentColor;fill-opacity:1;" d="M 44.382812 153.441406 L 93.542969 153.441406 L 93.542969 168.957031 L 44.382812 168.957031 Z M 44.382812 153.441406 "/></g></g><g clip-rule="nonzero" clip-path="url(#f4184a1e14)"><g clip-rule="nonzero" clip-path="url(#fd190bce98)"><path style=" stroke:none;fill-rule:nonzero;fill:currentColor;fill-opacity:1;" d="M 52.183594 113.175781 L 85.761719 113.175781 L 85.761719 166.300781 L 52.183594 166.300781 Z M 52.183594 113.175781 "/></g></g><g clip-rule="nonzero" clip-path="url(#fd8ababde8)"><g clip-rule="nonzero" clip-path="url(#26e538d37f)"><path style=" stroke:none;fill-rule:nonzero;fill:currentColor;fill-opacity:1;" d="M 61.015625 99.089844 L 75.339844 99.089844 L 75.339844 124.15625 L 61.015625 124.15625 Z M 61.015625 99.089844 "/></g></g><g clip-rule="nonzero" clip-path="url(#ab6a24bb19)"><g clip-rule="nonzero" clip-path="url(#b905988c34)"><path style=" stroke:none;fill-rule:nonzero;fill:currentColor;fill-opacity:1;" d="M 51.863281 58.269531 L 85.046875 58.269531 L 85.046875 114.394531 L 51.863281 114.394531 Z M 51.863281 58.269531 "/></g></g><g clip-rule="nonzero" clip-path="url(#297b35db9e)"><g clip-rule="nonzero" clip-path="url(#8e3173d45e)"><path style=" stroke:none;fill-rule:nonzero;fill:currentColor;fill-opacity:1;" d="M 106.53125 156.464844 L 143.695312 156.464844 L 143.695312 204.222656 L 106.53125 204.222656 Z M 106.53125 156.464844 "/></g></g><g clip-rule="nonzero" clip-path="url(#a5f0e40b85)"><g clip-rule="nonzero" clip-path="url(#40e5db7b3d)"><path style=" stroke:none;fill-rule:nonzero;fill:currentColor;fill-opacity:1;" d="M 100.246094 153.917969 L 149.40625 153.917969 L 149.40625 168.402344 L 100.246094 168.402344 Z M 100.246094 153.917969 "/></g></g><g clip-rule="nonzero" clip-path="url(#178b6d9e61)"><g clip-rule="nonzero" clip-path="url(#83eacb3d4e)"><path style=" stroke:none;fill-rule:nonzero;fill:currentColor;fill-opacity:1;" d="M 109.078125 115.007812 L 142.261719 115.007812 L 142.261719 168.28125 L 109.078125 168.28125 Z M 109.078125 115.007812 "/></g></g><g clip-rule="nonzero" clip-path="url(#f0a91fa25b)"><g clip-rule="nonzero" clip-path="url(#a65414a502)"><path style=" stroke:none;fill-rule:nonzero;fill:currentColor;fill-opacity:1;" d="M 117.511719 101.796875 L 132.394531 101.796875 L 132.394531 127.605469 L 117.511719 127.605469 Z M 117.511719 101.796875 "/></g></g><g clip-rule="nonzero" clip-path="url(#7a2901aee6)"><g clip-rule="nonzero" clip-path="url(#7b00f8cb57)"><path style=" stroke:none;fill-rule:nonzero;fill:currentColor;fill-opacity:1;" d="M 107.167969 55.960938 L 142.660156 55.960938 L 142.660156 115.851562 L 107.167969 115.851562 Z M 107.167969 55.960938 "/></g></g></g></svg>