<svg xmlns="http://www.w3.org/2000/svg" xmlns:xlink="http://www.w3.org/1999/xlink" width="500" zoomAndPan="magnify" viewBox="0 0 375 374.999991" height="500" preserveAspectRatio="xMidYMid meet" version="1.2"><defs><clipPath id="53ef714033"><path d="M 109 41.164062 L 266 41.164062 L 266 190 L 109 190 Z M 109 41.164062 "/></clipPath><clipPath id="7fce05e886"><path d="M 143.414062 187.144531 C 124.539062 174.996094 123.527344 174.078125 121.878906 172.238281 C 119.726562 169.6875 117.574219 166.625 115.800781 162.746094 C 113.265625 157.234375 110.480469 147.742188 109.59375 141.921875 C 108.957031 137.839844 108.957031 134.878906 109.464844 131.308594 C 109.972656 127.53125 110.730469 123.957031 113.011719 119.976562 C 116.179688 114.566406 122.007812 108.035156 128.847656 102.316406 C 137.207031 95.480469 153.675781 88.027344 160.769531 82.820312 C 164.824219 79.863281 167.230469 78.125 169.386719 75.0625 C 171.539062 72 172.804688 68.429688 173.691406 64.449219 C 174.832031 59.753906 173.820312 52.710938 174.957031 48.726562 C 175.59375 46.175781 176.226562 43.828125 177.871094 42.605469 C 179.390625 41.582031 181.800781 41.480469 184.207031 41.582031 C 187.625 41.890625 192.441406 43.929688 196.242188 45.460938 C 200.042969 46.992188 203.714844 48.421875 207.261719 50.972656 C 211.695312 54.242188 216.257812 59.140625 220.054688 64.140625 C 224.363281 69.859375 228.671875 76.289062 230.949219 83.433594 C 233.359375 91.394531 233.992188 101.195312 232.976562 109.972656 C 231.964844 118.753906 222.082031 134.777344 224.742188 136.105469 C 227.152344 137.226562 240.070312 122.019531 245.898438 120.386719 C 249.191406 119.464844 252.234375 119.671875 254.640625 120.894531 C 257.679688 122.324219 260.085938 126.40625 261.859375 129.570312 C 263.761719 132.738281 265.027344 136.308594 265.535156 139.78125 C 265.914062 143.351562 265.15625 147.230469 264.394531 150.703125 C 263.632812 154.171875 262.746094 157.539062 260.972656 160.707031 C 259.199219 164.074219 257.046875 166.828125 253.878906 170.300781 C 249.320312 175.097656 240.832031 183.160156 235.257812 186.324219 C 231.964844 188.265625 228.671875 189.695312 226.136719 189.59375 C 224.109375 189.59375 221.832031 188.570312 220.816406 187.449219 C 219.804688 186.324219 219.675781 183.976562 220.054688 182.753906 C 220.4375 181.628906 221.578125 180.710938 222.71875 180.203125 C 223.730469 179.691406 225.378906 179.386719 226.644531 179.488281 C 227.910156 179.589844 229.304688 180.097656 230.316406 180.8125 C 231.203125 181.527344 232.089844 182.550781 232.21875 183.671875 C 232.34375 185 231.457031 187.246094 230.445312 188.164062 C 229.558594 188.980469 228.039062 189.492188 226.769531 189.59375 C 225.503906 189.695312 223.855469 189.492188 222.84375 188.980469 C 221.703125 188.46875 220.5625 187.550781 220.183594 186.53125 C 219.675781 185.203125 219.675781 183.058594 220.691406 181.734375 C 221.957031 180.097656 226.011719 179.589844 228.164062 178.160156 C 230.0625 177.039062 231.078125 175.710938 232.851562 174.179688 C 235.511719 171.933594 239.566406 168.769531 242.351562 165.808594 C 245.140625 162.949219 247.671875 160.296875 249.445312 156.722656 C 251.472656 152.335938 252.867188 145.902344 252.867188 141.207031 C 252.867188 137.328125 252.867188 131.207031 250.460938 130.492188 C 246.914062 129.46875 235.386719 141.921875 230.191406 144.066406 C 227.53125 145.191406 225.628906 145.292969 223.476562 145.496094 C 221.324219 145.597656 218.917969 145.800781 217.015625 145.191406 C 215.242188 144.578125 213.214844 143.25 212.328125 141.71875 C 211.316406 139.984375 211.824219 137.839844 212.203125 134.878906 C 213.089844 128.859375 219.550781 116.710938 220.4375 108.238281 C 221.324219 100.785156 220.691406 93.027344 218.789062 86.597656 C 217.144531 80.984375 213.722656 75.777344 210.9375 71.59375 C 208.65625 68.121094 206.5 65.367188 203.589844 62.816406 C 200.675781 60.160156 197.253906 57.710938 193.453125 55.875 C 189.652344 53.933594 180.785156 52.199219 180.914062 51.382812 C 181.039062 50.871094 186.488281 49.953125 187.625 50.769531 C 188.640625 51.484375 187.625 53.730469 187.375 55.976562 C 186.992188 59.753906 186.359375 67 184.714844 71.59375 C 183.320312 75.472656 181.671875 78.738281 179.265625 81.800781 C 176.859375 84.761719 174.707031 86.597656 170.652344 89.558594 C 163.558594 94.867188 144.300781 105.074219 138.476562 109.15625 C 136.195312 110.890625 135.5625 111.300781 133.789062 113.035156 C 130.875 116.097656 125.171875 121.710938 123.273438 126.613281 C 121.5 131.410156 122.007812 137.636719 122.511719 142.332031 C 122.894531 146.3125 123.90625 149.78125 125.171875 153.253906 C 126.3125 156.621094 127.582031 160.09375 129.605469 163.15625 C 131.761719 166.21875 134.675781 168.972656 138.09375 171.628906 C 141.894531 174.484375 149.117188 177.140625 151.523438 179.28125 C 152.789062 180.507812 153.550781 181.324219 153.675781 182.445312 C 153.929688 183.570312 153.421875 185.101562 152.789062 186.019531 C 152.15625 186.734375 151.523438 187.347656 150.507812 187.652344 C 149.371094 188.164062 147.34375 188.367188 146.074219 188.164062 C 145.0625 188.0625 143.414062 187.144531 143.414062 187.144531 "/></clipPath><clipPath id="787679c455"><path d="M 147.445312 98.757812 L 204.488281 98.757812 L 204.488281 180.433594 L 147.445312 180.433594 Z M 147.445312 98.757812 "/></clipPath><clipPath id="cdc2c828e8"><path d="M 156.082031 176.015625 C 148.355469 162.847656 148.484375 161.828125 148.355469 159.683594 C 147.976562 155.90625 147.214844 148.660156 148.101562 143.964844 C 148.734375 140.1875 150.128906 136.921875 152.03125 133.65625 C 153.929688 130.390625 156.464844 127.734375 159.628906 124.265625 C 163.9375 119.363281 173.566406 111.402344 176.480469 107.320312 C 177.871094 105.277344 177.367188 103.746094 178.632812 102.421875 C 179.773438 100.992188 181.800781 99.253906 183.699219 98.949219 C 185.851562 98.746094 188.894531 99.664062 190.921875 101.296875 C 194.214844 104.054688 196.496094 112.117188 197.761719 116.8125 C 198.773438 120.589844 198.902344 123.039062 198.902344 127.121094 C 198.902344 132.839844 194.972656 143.351562 196.875 148.046875 C 198.140625 150.90625 202.574219 152.132812 203.460938 154.171875 C 204.222656 155.703125 204.222656 157.746094 203.589844 158.96875 C 203.082031 159.992188 201.941406 160.808594 200.800781 161.214844 C 199.660156 161.726562 198.015625 161.929688 196.746094 161.625 C 195.226562 161.316406 192.820312 159.992188 192.1875 158.664062 C 191.425781 157.335938 191.933594 155.089844 192.695312 153.867188 C 193.328125 152.949219 194.59375 152.234375 195.859375 151.824219 C 197 151.519531 198.648438 151.519531 199.914062 151.824219 C 201.054688 152.132812 202.449219 152.84375 203.082031 153.660156 C 203.839844 154.582031 204.476562 155.703125 204.347656 156.828125 C 204.09375 158.152344 202.703125 160.195312 201.308594 161.011719 C 200.292969 161.625 198.648438 161.828125 197.382812 161.726562 C 196.113281 161.625 195.101562 161.316406 193.707031 160.398438 C 191.300781 158.867188 186.867188 155.089844 185.347656 151.824219 C 183.699219 148.457031 184.207031 144.578125 184.332031 140.390625 C 184.332031 135.59375 186.234375 129.265625 186.234375 124.46875 C 186.234375 120.589844 185.851562 116.710938 185.09375 113.851562 C 184.460938 111.707031 182.054688 109.667969 182.8125 108.441406 C 183.574219 107.117188 189.273438 105.789062 190.160156 106.402344 C 190.792969 107.011719 189.273438 109.464844 188.007812 111.503906 C 185.21875 115.585938 176.480469 122.734375 171.917969 128.042969 C 167.863281 132.632812 163.175781 136.105469 161.402344 141.414062 C 159.25 147.539062 159.882812 157.539062 161.785156 163.257812 C 163.050781 167.238281 167.359375 170.199219 168.246094 172.75 C 168.625 174.28125 168.75 175.507812 168.246094 176.628906 C 167.863281 177.75 166.597656 178.875 165.457031 179.488281 C 164.699219 179.894531 163.683594 180.203125 162.671875 180.203125 C 161.277344 180.203125 159.378906 179.792969 158.363281 179.078125 C 157.222656 178.363281 156.082031 176.015625 156.082031 176.015625 "/></clipPath><clipPath id="df644ec6d5"><path d="M 78.414062 241.460938 L 102.507812 241.460938 L 102.507812 333.175781 L 78.414062 333.175781 Z M 78.414062 241.460938 "/></clipPath><clipPath id="65242e2343"><path d="M 102.496094 246.652344 C 101.609375 266.558594 94.515625 321.167969 91.097656 329.128906 C 90.335938 330.761719 89.957031 331.273438 88.941406 331.886719 C 88.054688 332.601562 86.535156 333.007812 85.269531 333.109375 C 84.003906 333.210938 82.355469 332.90625 81.34375 332.191406 C 80.074219 331.375 78.683594 329.335938 78.554688 328.007812 C 78.429688 326.882812 78.9375 325.761719 79.824219 324.945312 C 80.960938 323.925781 83.621094 322.902344 85.269531 322.902344 C 86.535156 322.902344 88.054688 323.3125 88.941406 324.128906 C 90.210938 325.046875 91.222656 327.292969 91.222656 328.621094 C 91.097656 329.640625 90.464844 330.761719 89.449219 331.476562 C 88.308594 332.394531 85.523438 333.109375 83.875 333.007812 C 82.484375 333.007812 81.214844 332.292969 80.328125 331.476562 C 79.441406 330.761719 78.9375 330.253906 78.554688 328.515625 C 77.035156 320.351562 88.691406 267.171875 89.828125 254.410156 C 90.210938 250.019531 89.195312 247.570312 89.957031 245.429688 C 90.589844 244.101562 91.476562 243.082031 92.617188 242.46875 C 93.757812 241.753906 95.53125 241.445312 96.925781 241.550781 C 98.316406 241.753906 99.964844 242.367188 100.851562 243.285156 C 101.863281 244.101562 102.496094 246.652344 102.496094 246.652344 "/></clipPath><clipPath id="20e46be5e8"><path d="M 78.449219 322.832031 L 138.285156 322.832031 L 138.285156 333.851562 L 78.449219 333.851562 Z M 78.449219 322.832031 "/></clipPath><clipPath id="bb0ae3d4d0"><path d="M 84.890625 322.902344 C 133.914062 323.210938 134.675781 323.414062 135.6875 324.027344 C 136.703125 324.636719 137.589844 325.660156 137.96875 326.679688 C 138.347656 327.699219 138.347656 328.925781 137.714844 329.945312 C 137.082031 331.171875 134.929688 332.703125 133.28125 333.007812 C 131.507812 333.316406 128.847656 332.703125 127.453125 331.785156 C 126.1875 330.761719 125.425781 328.515625 125.679688 327.191406 C 125.679688 326.167969 126.566406 325.046875 127.453125 324.332031 C 128.46875 323.617188 129.859375 323.003906 131.128906 323.003906 C 132.773438 322.902344 135.5625 323.71875 136.703125 324.742188 C 137.839844 325.863281 138.476562 328.109375 137.96875 329.4375 C 137.460938 330.761719 136.195312 332.089844 133.914062 332.90625 C 128.59375 334.742188 111.367188 333.316406 102.496094 333.316406 C 95.785156 333.316406 88.691406 333.722656 84.890625 333.109375 C 82.988281 332.804688 81.722656 332.601562 80.710938 331.785156 C 79.695312 331.070312 78.808594 329.640625 78.554688 328.621094 C 78.429688 327.800781 78.554688 326.984375 78.9375 326.167969 C 79.441406 325.25 80.835938 324.027344 81.976562 323.515625 C 82.863281 323.003906 84.890625 322.902344 84.890625 322.902344 "/></clipPath><clipPath id="13c9bb60ee"><path d="M 126.625 288.828125 L 142.316406 288.828125 L 142.316406 332.609375 L 126.625 332.609375 Z M 126.625 288.828125 "/></clipPath><clipPath id="d87ebcc18a"><path d="M 126.695312 327.394531 C 127.074219 308.613281 127.199219 296.363281 129.734375 292.382812 C 130.875 290.441406 132.394531 289.523438 134.042969 289.015625 C 135.308594 288.707031 136.828125 288.808594 138.09375 289.21875 C 139.234375 289.625 140.5 290.441406 141.136719 291.363281 C 141.769531 292.179688 142.148438 293.503906 142.023438 294.527344 C 141.894531 295.546875 141.261719 296.773438 140.25 297.488281 C 139.109375 298.40625 136.320312 299.121094 134.675781 299.015625 C 133.28125 298.914062 132.015625 298.199219 131.128906 297.488281 C 130.242188 296.773438 129.480469 295.648438 129.355469 294.527344 C 129.355469 293.199219 130.242188 290.953125 131.632812 290.035156 C 132.902344 289.117188 135.816406 288.808594 137.335938 289.015625 C 138.726562 289.21875 139.996094 290.035156 140.753906 290.851562 C 141.515625 291.667969 141.769531 292.382812 142.023438 294.015625 C 142.910156 299.222656 141.386719 323.515625 139.109375 328.621094 C 138.476562 330.253906 137.714844 330.96875 136.574219 331.578125 C 135.433594 332.292969 133.660156 332.601562 132.269531 332.5 C 130.875 332.292969 129.226562 331.683594 128.214844 330.761719 C 127.328125 329.945312 126.695312 327.394531 126.695312 327.394531 "/></clipPath><clipPath id="d3f7fe54c2"><path d="M 130.226562 286.710938 L 245.425781 286.710938 L 245.425781 299.101562 L 130.226562 299.101562 Z M 130.226562 286.710938 "/></clipPath><clipPath id="da121944f7"><path d="M 136.574219 287.890625 C 214.609375 288.300781 232.21875 285.851562 239.058594 287.175781 C 241.71875 287.6875 243.238281 288.402344 244.253906 289.421875 C 245.140625 290.238281 245.519531 291.464844 245.390625 292.484375 C 245.265625 293.609375 244.886719 294.832031 243.871094 295.546875 C 242.730469 296.464844 240.070312 297.382812 238.425781 297.28125 C 237.03125 297.28125 235.636719 296.773438 234.75 295.957031 C 233.609375 294.933594 232.722656 292.789062 232.851562 291.464844 C 232.976562 290.339844 233.609375 289.21875 234.75 288.503906 C 236.019531 287.6875 238.804688 287.074219 240.453125 287.277344 C 241.71875 287.378906 243.113281 288.199219 243.871094 288.910156 C 244.757812 289.730469 245.265625 290.953125 245.390625 291.972656 C 245.519531 292.996094 245.011719 294.21875 244.253906 295.136719 C 243.617188 295.957031 242.984375 296.566406 241.085938 297.078125 C 234.117188 299.121094 205.363281 298.507812 187.625 298.710938 C 170.019531 298.8125 142.273438 299.835938 135.054688 297.996094 C 133.027344 297.382812 132.269531 296.875 131.382812 295.957031 C 130.621094 294.933594 130.113281 293.503906 130.367188 292.382812 C 130.496094 291.257812 131.382812 289.933594 132.394531 289.21875 C 133.535156 288.402344 136.574219 287.890625 136.574219 287.890625 "/></clipPath><clipPath id="b86b16af6a"><path d="M 232.179688 287.113281 L 248.351562 287.113281 L 248.351562 332.816406 L 232.179688 332.816406 Z M 232.179688 287.113281 "/></clipPath><clipPath id="49d10dfb04"><path d="M 245.390625 292.28125 C 247.546875 330.558594 246.660156 331.171875 245.519531 331.785156 C 244.378906 332.5 242.605469 332.804688 241.210938 332.703125 C 239.820312 332.601562 238.171875 331.886719 237.160156 331.070312 C 236.273438 330.152344 235.636719 328.722656 235.636719 327.597656 C 235.511719 326.578125 236.019531 325.351562 236.90625 324.535156 C 237.917969 323.515625 240.578125 322.496094 242.226562 322.496094 C 244 322.597656 246.40625 323.925781 247.292969 325.046875 C 248.179688 325.863281 248.433594 327.089844 248.179688 328.210938 C 247.925781 329.4375 246.40625 331.476562 244.886719 332.089844 C 243.367188 332.804688 240.453125 332.804688 238.933594 332.089844 C 237.410156 331.476562 235.765625 329.539062 235.636719 328.210938 C 235.386719 326.78125 236.523438 324.636719 237.792969 323.71875 C 239.183594 322.800781 241.972656 322.289062 243.617188 322.699219 C 245.265625 323.105469 247.417969 324.636719 247.925781 325.964844 C 248.433594 327.394531 247.800781 329.84375 246.660156 330.96875 C 245.519531 332.089844 242.859375 332.804688 241.210938 332.703125 C 239.691406 332.601562 238.046875 331.785156 237.160156 331.070312 C 236.398438 330.457031 236.144531 330.046875 235.765625 328.824219 C 234.117188 324.128906 231.078125 298.304688 232.722656 292.28125 C 233.359375 290.035156 234.117188 288.910156 235.511719 288.09375 C 236.652344 287.277344 238.425781 287.074219 239.820312 287.175781 C 241.210938 287.277344 242.859375 287.992188 243.871094 288.910156 C 244.757812 289.730469 245.390625 292.28125 245.390625 292.28125 "/></clipPath><clipPath id="b2a8849c2b"><path d="M 235.625 322.175781 L 298.171875 322.175781 L 298.171875 333.554688 L 235.625 333.554688 Z M 235.625 322.175781 "/></clipPath><clipPath id="96953a702e"><path d="M 241.972656 322.1875 C 295.683594 323.820312 296.316406 324.433594 297.078125 325.25 C 297.710938 326.066406 298.34375 327.292969 298.089844 328.414062 C 297.839844 329.742188 296.570312 331.785156 295.050781 332.5 C 293.53125 333.210938 290.742188 333.316406 289.097656 332.804688 C 287.578125 332.191406 285.804688 330.355469 285.550781 328.925781 C 285.296875 327.597656 286.308594 325.457031 287.449219 324.433594 C 288.335938 323.617188 289.855469 323.210938 291.125 323.003906 C 292.390625 322.902344 293.910156 323.210938 295.050781 323.71875 C 296.191406 324.332031 297.203125 325.25 297.710938 326.273438 C 298.089844 327.191406 298.21875 328.515625 297.839844 329.539062 C 297.585938 330.457031 296.699219 331.578125 295.683594 332.191406 C 294.542969 332.804688 293.65625 333.007812 291.757812 333.210938 C 287.832031 333.722656 279.597656 333.417969 272.121094 333.210938 C 262.621094 333.007812 243.871094 333.722656 238.933594 331.785156 C 237.160156 331.070312 236.523438 330.152344 236.019531 329.128906 C 235.511719 328.007812 235.511719 326.476562 236.019531 325.457031 C 236.523438 324.433594 237.917969 323.3125 238.933594 322.800781 C 239.945312 322.289062 241.972656 322.1875 241.972656 322.1875 "/></clipPath><clipPath id="703150943c"><path d="M 272.007812 240.816406 L 298.332031 240.816406 L 298.332031 333.230469 L 272.007812 333.230469 Z M 272.007812 240.816406 "/></clipPath><clipPath id="7d6803f530"><path d="M 285.550781 329.027344 C 272.25 244.40625 272.628906 243.898438 273.390625 243.082031 C 274.148438 242.160156 275.289062 241.34375 276.683594 241.140625 C 278.203125 240.9375 281.117188 241.34375 282.507812 242.160156 C 283.523438 242.773438 284.410156 243.792969 284.664062 244.917969 C 284.789062 246.246094 284.15625 248.488281 283.144531 249.511719 C 282.257812 250.429688 280.863281 250.941406 279.597656 251.042969 C 278.328125 251.246094 276.683594 251.144531 275.542969 250.632812 C 274.148438 249.917969 272.503906 247.980469 272.121094 246.652344 C 271.867188 245.632812 272.25 244.40625 273.007812 243.488281 C 273.894531 242.367188 276.429688 241.140625 277.949219 240.9375 C 279.34375 240.835938 280.863281 241.242188 281.875 241.753906 C 283.015625 242.367188 283.523438 242.773438 284.410156 244.40625 C 288.71875 252.574219 299.863281 319.226562 298.089844 328.414062 C 297.710938 330.355469 297.203125 330.96875 296.191406 331.785156 C 295.304688 332.5 293.53125 333.109375 292.136719 333.210938 C 290.742188 333.316406 288.96875 332.804688 287.832031 332.089844 C 286.816406 331.476562 285.550781 329.027344 285.550781 329.027344 "/></clipPath><clipPath id="0e66f5b6b2"><path d="M 269.320312 198.96875 L 316.210938 198.96875 L 316.210938 245.859375 L 269.320312 245.859375 Z M 269.320312 198.96875 "/></clipPath><clipPath id="f52d2e26fe"><path d="M 316.207031 204.085938 C 315.953125 224.503906 315.445312 225.726562 314.8125 227.566406 C 314.304688 229.300781 313.800781 231.238281 312.660156 232.769531 C 311.519531 234.402344 310 235.628906 307.84375 236.957031 C 305.058594 238.792969 300.75 240.835938 296.824219 242.160156 C 292.644531 243.691406 287.449219 244.816406 283.269531 245.222656 C 279.976562 245.734375 276.175781 246.039062 273.894531 245.429688 C 272.503906 245.121094 271.363281 244.40625 270.601562 243.589844 C 269.839844 242.773438 269.335938 241.550781 269.460938 240.425781 C 269.589844 239.203125 270.980469 237.160156 272.375 236.34375 C 273.390625 235.628906 275.035156 235.425781 276.300781 235.527344 C 277.570312 235.628906 279.089844 236.035156 279.976562 236.75 C 281.117188 237.773438 282.257812 239.8125 282.003906 241.242188 C 281.875 242.671875 279.976562 244.507812 278.582031 245.121094 C 277.441406 245.734375 275.921875 245.9375 274.65625 245.632812 C 273.007812 245.222656 270.726562 243.792969 269.96875 242.671875 C 269.335938 241.652344 269.335938 240.425781 269.589844 239.40625 C 269.96875 238.382812 270.347656 237.464844 271.742188 236.648438 C 274.910156 234.8125 285.929688 234.8125 291.378906 232.976562 C 295.683594 231.546875 299.863281 230.730469 302.273438 227.566406 C 305.945312 222.460938 302.523438 205.3125 304.296875 201.738281 C 304.933594 200.617188 305.4375 200.308594 306.324219 199.902344 C 307.464844 199.390625 309.238281 198.882812 310.632812 198.984375 C 312.027344 199.1875 313.671875 199.902344 314.6875 200.71875 C 315.574219 201.535156 316.207031 204.085938 316.207031 204.085938 "/></clipPath><clipPath id="0da4531ff8"><path d="M 89.609375 235.699219 L 281.855469 235.699219 L 281.855469 247.304688 L 89.609375 247.304688 Z M 89.609375 235.699219 "/></clipPath><clipPath id="6fae99629f"><path d="M 275.542969 246.855469 C 104.144531 246.855469 100.089844 245.324219 97.683594 245.9375 C 96.671875 246.140625 96.542969 247.164062 95.785156 247.265625 C 94.898438 247.367188 93.757812 247.0625 92.871094 246.550781 C 91.730469 246.039062 90.464844 244.816406 89.957031 243.792969 C 89.578125 242.671875 89.703125 241.140625 90.082031 240.121094 C 90.464844 239.40625 91.097656 238.691406 91.984375 238.179688 C 92.996094 237.566406 94.769531 236.75 96.164062 237.058594 C 98.191406 237.464844 101.992188 241.34375 102.246094 242.976562 C 102.371094 244.101562 101.230469 245.121094 100.34375 245.835938 C 99.332031 246.550781 97.9375 247.164062 96.671875 247.265625 C 95.023438 247.265625 92.238281 246.347656 91.097656 245.429688 C 90.210938 244.609375 89.703125 243.386719 89.703125 242.367188 C 89.578125 241.34375 89.957031 240.121094 90.714844 239.203125 C 91.855469 238.179688 94.265625 237.058594 96.039062 237.058594 C 97.8125 237.058594 100.21875 238.28125 101.230469 239.304688 C 102.117188 240.121094 102.371094 241.445312 102.246094 242.46875 C 102.246094 243.488281 101.738281 244.714844 100.722656 245.429688 C 99.585938 246.449219 96.925781 247.265625 95.277344 247.164062 C 93.882812 247.164062 92.492188 246.550781 91.605469 245.835938 C 90.714844 245.121094 89.449219 243.082031 89.703125 242.976562 C 90.082031 242.773438 95.910156 246.960938 95.785156 247.265625 C 95.65625 247.46875 92.617188 246.652344 91.605469 245.835938 C 90.589844 245.019531 89.828125 243.691406 89.703125 242.570312 C 89.578125 241.445312 90.082031 240.019531 90.84375 239.097656 C 91.730469 238.179688 92.492188 237.671875 94.644531 237.160156 C 103.890625 234.914062 151.015625 235.933594 171.285156 236.242188 C 184.839844 236.34375 191.554688 237.160156 204.855469 237.363281 C 224.363281 237.671875 268.195312 234.609375 277.0625 236.75 C 279.214844 237.261719 279.976562 237.875 280.734375 238.792969 C 281.496094 239.710938 282.003906 241.242188 281.75 242.367188 C 281.621094 243.488281 280.734375 244.816406 279.722656 245.53125 C 278.710938 246.246094 275.542969 246.855469 275.542969 246.855469 "/></clipPath><clipPath id="8e0db3bc9d"><path d="M 58 196.425781 L 101.78125 196.425781 L 101.78125 246.246094 L 58 246.246094 Z M 58 196.425781 "/></clipPath><clipPath id="66003aa5cf"><path d="M 95.023438 246.140625 C 74.628906 243.691406 72.980469 243.082031 71.082031 242.160156 C 69.308594 241.34375 67.535156 240.222656 66.140625 238.996094 C 64.621094 237.671875 63.734375 236.242188 62.71875 234.300781 C 61.328125 231.546875 60.3125 227.667969 59.679688 223.378906 C 58.539062 217.355469 57.527344 205.515625 58.285156 201.636719 C 58.539062 200.105469 58.667969 199.390625 59.554688 198.574219 C 60.566406 197.554688 63.101562 196.429688 64.875 196.535156 C 66.648438 196.636719 69.054688 197.757812 69.941406 198.984375 C 70.828125 200.207031 70.828125 202.554688 70.320312 203.78125 C 69.816406 204.800781 68.675781 205.617188 67.535156 206.128906 C 66.394531 206.640625 64.875 206.945312 63.480469 206.640625 C 61.960938 206.332031 59.554688 205.007812 58.792969 203.78125 C 58.035156 202.453125 58.414062 200.207031 59.171875 198.984375 C 59.679688 197.960938 60.945312 197.144531 62.214844 196.839844 C 63.734375 196.535156 66.648438 196.738281 68.167969 197.351562 C 69.308594 197.960938 69.941406 198.574219 70.574219 200.003906 C 72.347656 203.882812 71.460938 219.296875 72.601562 224.398438 C 73.109375 226.746094 73.613281 227.972656 74.5 229.605469 C 75.515625 231.136719 76.023438 232.871094 78.175781 233.996094 C 81.847656 235.832031 93.757812 234.914062 97.429688 236.242188 C 99.203125 236.851562 100.21875 237.566406 100.976562 238.488281 C 101.609375 239.507812 101.863281 241.039062 101.609375 242.058594 C 101.484375 242.875 101.230469 243.691406 100.34375 244.304688 C 99.332031 245.121094 95.023438 246.140625 95.023438 246.140625 "/></clipPath><clipPath id="2ca4d17c6d"><path d="M 58.902344 193.804688 L 317 193.804688 L 317 207.601562 L 58.902344 207.601562 Z M 58.902344 193.804688 "/></clipPath><clipPath id="66b1801213"><path d="M 65.253906 196.125 C 103.890625 195.511719 110.859375 196.535156 122.007812 196.738281 C 139.613281 197.144531 171.160156 196.125 189.78125 196.328125 C 202.953125 196.535156 211.695312 197.554688 223.605469 197.351562 C 236.652344 197.042969 251.21875 194.695312 265.027344 194.1875 C 278.710938 193.777344 297.710938 193.574219 305.945312 194.390625 C 309.492188 194.796875 311.644531 195.207031 313.417969 196.023438 C 314.8125 196.636719 315.828125 197.25 316.332031 198.269531 C 317.09375 199.492188 316.964844 201.839844 316.332031 203.066406 C 315.828125 204.085938 314.558594 204.902344 313.417969 205.3125 C 312.28125 205.71875 310.632812 205.925781 309.367188 205.617188 C 307.84375 205.210938 305.566406 203.78125 304.933594 202.453125 C 304.296875 201.230469 304.550781 198.882812 305.566406 197.757812 C 306.578125 196.636719 309.113281 195.511719 310.886719 195.511719 C 312.53125 195.511719 315.066406 196.636719 316.078125 197.859375 C 316.964844 198.984375 317.347656 201.230469 316.585938 202.554688 C 315.953125 203.882812 314.179688 205.109375 312.027344 205.617188 C 308.730469 206.433594 303.03125 204.597656 297.332031 204.394531 C 289.730469 204.085938 280.484375 203.984375 270.726562 204.394531 C 258.566406 204.800781 241.59375 206.742188 230.316406 207.25 C 222.210938 207.558594 216.382812 207.660156 209.542969 207.558594 C 202.703125 207.457031 197.886719 206.742188 189.019531 206.535156 C 172.933594 206.230469 138.09375 207.355469 120.738281 206.945312 C 109.972656 206.640625 103.511719 205.71875 94.644531 205.617188 C 85.144531 205.515625 70.574219 207.046875 65.253906 206.332031 C 63.101562 206.027344 62.085938 205.824219 61.074219 205.007812 C 59.808594 204.085938 58.792969 201.945312 58.921875 200.617188 C 59.046875 199.390625 59.933594 198.167969 61.074219 197.351562 C 62.085938 196.636719 65.253906 196.125 65.253906 196.125 "/></clipPath></defs><g id="74d5d7646a"><g clip-rule="nonzero" clip-path="url(#53ef714033)"><g clip-rule="nonzero" clip-path="url(#7fce05e886)"><path style=" stroke:none;fill-rule:nonzero;fill:currentColor;fill-opacity:1;" d="M 104.398438 37.5 L 270.441406 37.5 L 270.441406 193.777344 L 104.398438 193.777344 Z M 104.398438 37.5 "/></g></g><g clip-rule="nonzero" clip-path="url(#787679c455)"><g clip-rule="nonzero" clip-path="url(#cdc2c828e8)"><path style=" stroke:none;fill-rule:nonzero;fill:currentColor;fill-opacity:1;" d="M 143.035156 94.867188 L 209.414062 94.867188 L 209.414062 184.324219 L 143.035156 184.324219 Z M 143.035156 94.867188 "/></g></g><g clip-rule="nonzero" clip-path="url(#df644ec6d5)"><g clip-rule="nonzero" clip-path="url(#65242e2343)"><path style=" stroke:none;fill-rule:nonzero;fill:currentColor;fill-opacity:1;" d="M 73.488281 237.464844 L 107.566406 237.464844 L 107.566406 337.167969 L 73.488281 337.167969 Z M 73.488281 237.464844 "/></g></g><g clip-rule="nonzero" clip-path="url(#20e46be5e8)"><g clip-rule="nonzero" clip-path="url(#bb0ae3d4d0)"><path style=" stroke:none;fill-rule:nonzero;fill:currentColor;fill-opacity:1;" d="M 73.488281 318.820312 L 143.027344 318.820312 L 143.027344 337.5 L 73.488281 337.5 Z M 73.488281 318.820312 "/></g></g><g clip-rule="nonzero" clip-path="url(#13c9bb60ee)"><g clip-rule="nonzero" clip-path="url(#d87ebcc18a)"><path style=" stroke:none;fill-rule:nonzero;fill:currentColor;fill-opacity:1;" d="M 121.625 284.929688 L 147.214844 284.929688 L 147.214844 336.609375 L 121.625 336.609375 Z M 121.625 284.929688 "/></g></g><g clip-rule="nonzero" clip-path="url(#d3f7fe54c2)"><g clip-rule="nonzero" clip-path="url(#da121944f7)"><path style=" stroke:none;fill-rule:nonzero;fill:currentColor;fill-opacity:1;" d="M 125.300781 283.09375 L 250.582031 283.09375 L 250.582031 302.792969 L 125.300781 302.792969 Z M 125.300781 283.09375 "/></g></g><g clip-rule="nonzero" clip-path="url(#b86b16af6a)"><g clip-rule="nonzero" clip-path="url(#49d10dfb04)"><path style=" stroke:none;fill-rule:nonzero;fill:currentColor;fill-opacity:1;" d="M 227.65625 283.09375 L 253.375 283.09375 L 253.375 336.734375 L 227.65625 336.734375 Z M 227.65625 283.09375 "/></g></g><g clip-rule="nonzero" clip-path="url(#b2a8849c2b)"><g clip-rule="nonzero" clip-path="url(#96953a702e)"><path style=" stroke:none;fill-rule:nonzero;fill:currentColor;fill-opacity:1;" d="M 230.949219 318.105469 L 303.296875 318.105469 L 303.296875 337.398438 L 230.949219 337.398438 Z M 230.949219 318.105469 "/></g></g><g clip-rule="nonzero" clip-path="url(#703150943c)"><g clip-rule="nonzero" clip-path="url(#7d6803f530)"><path style=" stroke:none;fill-rule:nonzero;fill:currentColor;fill-opacity:1;" d="M 267.054688 236.851562 L 303.285156 236.851562 L 303.285156 337.335938 L 267.054688 337.335938 Z M 267.054688 236.851562 "/></g></g><g clip-rule="nonzero" clip-path="url(#0e66f5b6b2)"><g clip-rule="nonzero" clip-path="url(#f52d2e26fe)"><path style=" stroke:none;fill-rule:nonzero;fill:currentColor;fill-opacity:1;" d="M 264.394531 194.902344 L 321.351562 194.902344 L 321.351562 249.714844 L 264.394531 249.714844 Z M 264.394531 194.902344 "/></g></g><g clip-rule="nonzero" clip-path="url(#0da4531ff8)"><g clip-rule="nonzero" clip-path="url(#6fae99629f)"><path style=" stroke:none;fill-rule:nonzero;fill:currentColor;fill-opacity:1;" d="M 84.636719 232.15625 L 286.980469 232.15625 L 286.980469 251.449219 L 84.636719 251.449219 Z M 84.636719 232.15625 "/></g></g><g clip-rule="nonzero" clip-path="url(#8e0db3bc9d)"><g clip-rule="nonzero" clip-path="url(#66003aa5cf)"><path style=" stroke:none;fill-rule:nonzero;fill:currentColor;fill-opacity:1;" d="M 53.21875 192.449219 L 106.804688 192.449219 L 106.804688 250.433594 L 53.21875 250.433594 Z M 53.21875 192.449219 "/></g></g><g clip-rule="nonzero" clip-path="url(#2ca4d17c6d)"><g clip-rule="nonzero" clip-path="url(#66b1801213)"><path style=" stroke:none;fill-rule:nonzero;fill:currentColor;fill-opacity:1;" d="M 53.851562 190.101562 L 321.816406 190.101562 L 321.816406 211.640625 L 53.851562 211.640625 Z M 53.851562 190.101562 "/></g></g></g></svg>