<svg xmlns="http://www.w3.org/2000/svg" xmlns:xlink="http://www.w3.org/1999/xlink" width="500" zoomAndPan="magnify" viewBox="0 0 375 374.999991" height="500" preserveAspectRatio="xMidYMid meet" version="1.2"><defs><clipPath id="bd060c5879"><path d="M 97.871094 143.960938 L 109.351562 143.960938 L 109.351562 264.871094 L 97.871094 264.871094 Z M 97.871094 143.960938 "/></clipPath><clipPath id="79b0736edd"><path d="M 97.917969 261.339844 C 98.339844 229.621094 99.324219 222.324219 99.816406 211.515625 C 100.65625 194.746094 99.746094 154.957031 101.710938 147.519531 C 102.199219 145.832031 102.480469 145.132812 103.253906 144.570312 C 104.09375 144.078125 105.640625 143.867188 106.550781 144.21875 C 107.464844 144.640625 108.445312 145.832031 108.65625 146.746094 C 108.867188 147.726562 108.445312 149.203125 107.8125 149.902344 C 107.113281 150.605469 105.640625 151.097656 104.65625 150.957031 C 103.746094 150.816406 102.480469 149.832031 102.058594 148.992188 C 101.640625 148.078125 101.710938 146.535156 102.199219 145.691406 C 102.761719 144.851562 104.164062 144.148438 105.078125 144.007812 C 105.777344 143.867188 106.621094 144.148438 107.183594 144.570312 C 107.882812 145.203125 108.375 145.832031 108.726562 147.519531 C 110.550781 155.238281 107.535156 199.796875 106.691406 216.359375 C 106.199219 225.761719 105.359375 231.023438 105.078125 238.464844 C 104.796875 246.042969 105.640625 257.691406 104.9375 261.339844 C 104.726562 262.601562 104.585938 263.09375 104.09375 263.726562 C 103.535156 264.289062 102.621094 264.777344 101.847656 264.847656 C 101.078125 264.917969 100.09375 264.777344 99.464844 264.289062 C 98.761719 263.65625 97.917969 261.339844 97.917969 261.339844 "/></clipPath><clipPath id="80bbf7b53d"><path d="M 42.246094 140.8125 L 107.96875 140.8125 L 107.96875 150.699219 L 42.246094 150.699219 Z M 42.246094 140.8125 "/></clipPath><clipPath id="d2dd3ece96"><path d="M 104.445312 150.675781 C 92.867188 150.394531 83.183594 148.5 74.902344 148.148438 C 65.5 147.726562 48.515625 149.902344 44.65625 148.640625 C 43.605469 148.289062 43.253906 147.867188 42.832031 147.308594 C 42.480469 146.746094 42.203125 145.832031 42.273438 145.132812 C 42.273438 144.429688 42.621094 143.589844 43.113281 143.097656 C 43.535156 142.535156 44.308594 142.042969 45.007812 141.902344 C 45.710938 141.761719 46.621094 141.761719 47.253906 142.183594 C 48.027344 142.605469 49.078125 143.796875 49.21875 144.78125 C 49.359375 145.691406 48.796875 147.238281 48.167969 147.867188 C 47.675781 148.429688 46.832031 148.78125 46.132812 148.851562 C 45.429688 148.921875 44.585938 148.710938 43.957031 148.359375 C 43.324219 148.007812 42.761719 147.378906 42.480469 146.605469 C 42.273438 145.761719 42.414062 144.148438 42.832031 143.378906 C 43.253906 142.746094 43.746094 142.394531 44.65625 142.042969 C 46.410156 141.34375 49.992188 141.34375 53.640625 141.132812 C 59.394531 140.851562 68.585938 140.710938 76.027344 141.132812 C 83.394531 141.554688 92.796875 143.308594 98.199219 143.65625 C 101.21875 143.867188 103.675781 143.238281 105.289062 143.726562 C 106.269531 144.078125 106.902344 144.5 107.324219 145.132812 C 107.8125 145.832031 108.023438 146.816406 107.953125 147.589844 C 107.8125 148.359375 107.394531 149.273438 106.761719 149.761719 C 106.199219 150.324219 104.445312 150.675781 104.445312 150.675781 "/></clipPath><clipPath id="26489a693a"><path d="M 40.308594 117 L 49.316406 117 L 49.316406 148.863281 L 40.308594 148.863281 Z M 40.308594 117 "/></clipPath><clipPath id="a8089a92bb"><path d="M 42.273438 145.621094 C 40.726562 118.464844 41.078125 118.113281 41.710938 117.695312 C 42.480469 117.203125 44.097656 116.992188 44.9375 117.203125 C 45.710938 117.414062 46.34375 118.042969 46.761719 118.605469 C 47.113281 119.238281 47.394531 120.007812 47.324219 120.78125 C 47.183594 121.695312 46.34375 123.027344 45.570312 123.589844 C 44.9375 124.007812 44.097656 124.148438 43.394531 124.007812 C 42.480469 123.800781 41.148438 122.886719 40.65625 122.113281 C 40.308594 121.484375 40.238281 120.640625 40.378906 119.9375 C 40.449219 119.238281 40.9375 118.394531 41.429688 117.972656 C 41.921875 117.484375 42.761719 117.132812 43.464844 117.0625 C 44.167969 116.992188 45.078125 117.203125 45.640625 117.554688 C 46.273438 117.902344 46.691406 118.324219 47.113281 119.308594 C 48.097656 121.902344 47.324219 131.097656 47.816406 135.796875 C 48.167969 139.308594 49.429688 142.957031 49.289062 145.0625 C 49.21875 146.113281 49.078125 146.816406 48.585938 147.449219 C 48.097656 148.078125 47.253906 148.640625 46.480469 148.78125 C 45.570312 148.921875 44.027344 148.5 43.324219 147.867188 C 42.761719 147.378906 42.273438 145.621094 42.273438 145.621094 "/></clipPath><clipPath id="f43187a23f"><path d="M 40.238281 113.914062 L 105.898438 113.914062 L 105.898438 124.261719 L 40.238281 124.261719 Z M 40.238281 113.914062 "/></clipPath><clipPath id="e7ab8a0366"><path d="M 43.816406 116.992188 C 80.796875 114.394531 97.710938 113.625 102.058594 114.042969 C 103.183594 114.183594 103.605469 114.183594 104.234375 114.605469 C 104.9375 115.167969 105.777344 116.570312 105.847656 117.484375 C 105.917969 118.253906 105.570312 119.027344 105.21875 119.589844 C 104.796875 120.21875 104.09375 120.78125 103.394531 120.921875 C 102.480469 121.132812 100.867188 120.921875 100.164062 120.289062 C 99.394531 119.730469 98.832031 118.183594 98.832031 117.273438 C 98.832031 116.570312 99.253906 115.730469 99.746094 115.238281 C 100.164062 114.675781 101.007812 114.253906 101.710938 114.113281 C 102.339844 113.976562 103.253906 114.113281 103.882812 114.464844 C 104.515625 114.746094 105.21875 115.308594 105.5 116.007812 C 105.847656 116.851562 105.777344 118.464844 105.359375 119.308594 C 105.078125 120.007812 104.796875 120.359375 103.746094 120.78125 C 99.535156 122.535156 77.992188 121.484375 67.183594 122.113281 C 58.480469 122.675781 47.816406 124.851562 43.816406 124.007812 C 42.34375 123.730469 41.5 123.238281 40.9375 122.535156 C 40.449219 121.90625 40.238281 120.851562 40.308594 120.078125 C 40.378906 119.308594 40.867188 118.394531 41.5 117.90625 C 42.0625 117.414062 43.816406 116.992188 43.816406 116.992188 "/></clipPath><clipPath id="9da0bb41ef"><path d="M 98.644531 62.839844 L 106.875 62.839844 L 106.875 121.070312 L 98.644531 121.070312 Z M 98.644531 62.839844 "/></clipPath><clipPath id="8559c82b99"><path d="M 98.691406 117.554688 C 99.816406 64.710938 100.164062 64.082031 100.867188 63.519531 C 101.5 63.027344 102.339844 62.816406 103.042969 62.886719 C 103.953125 63.027344 105.359375 63.871094 105.847656 64.570312 C 106.339844 65.203125 106.480469 66.046875 106.339844 66.746094 C 106.199219 67.660156 105.359375 69.0625 104.515625 69.484375 C 103.675781 69.976562 102.058594 69.835938 101.21875 69.484375 C 100.515625 69.203125 99.953125 68.570312 99.675781 67.871094 C 99.394531 67.027344 99.464844 65.414062 99.882812 64.570312 C 100.164062 63.941406 100.9375 63.378906 101.570312 63.097656 C 102.199219 62.886719 103.113281 62.816406 103.8125 63.027344 C 104.515625 63.167969 105.21875 63.730469 105.640625 64.292969 C 106.058594 64.851562 106.199219 65.203125 106.410156 66.398438 C 107.183594 71.238281 106.761719 95.378906 106.410156 105.0625 C 106.128906 110.957031 106.410156 116.921875 105.289062 119.238281 C 104.796875 120.148438 104.164062 120.570312 103.394531 120.851562 C 102.691406 121.132812 101.640625 121.132812 100.9375 120.851562 C 100.234375 120.570312 99.464844 119.800781 99.042969 119.238281 C 98.761719 118.675781 98.691406 117.554688 98.691406 117.554688 "/></clipPath><clipPath id="d2b599f1e2"><path d="M 100.472656 59.765625 L 134.449219 59.765625 L 134.449219 69.609375 L 100.472656 69.609375 Z M 100.472656 59.765625 "/></clipPath><clipPath id="9ff5af25fb"><path d="M 103.746094 62.605469 C 121.007812 60.222656 128.234375 59.519531 130.902344 59.871094 C 131.953125 60.011719 132.445312 60.082031 133.007812 60.570312 C 133.707031 61.203125 134.410156 62.675781 134.410156 63.589844 C 134.410156 64.292969 134.128906 65.132812 133.566406 65.625 C 132.9375 66.328125 131.464844 66.886719 130.550781 66.886719 C 129.777344 66.816406 129.007812 66.398438 128.515625 65.90625 C 127.953125 65.414062 127.464844 64.710938 127.464844 63.941406 C 127.394531 63.027344 127.8125 61.484375 128.515625 60.851562 C 129.21875 60.152344 130.761719 59.800781 131.671875 59.941406 C 132.375 60.082031 133.148438 60.570312 133.566406 61.132812 C 134.058594 61.625 134.339844 62.46875 134.410156 63.167969 C 134.410156 63.871094 134.199219 64.78125 133.777344 65.34375 C 133.429688 65.90625 133.007812 66.328125 132.023438 66.675781 C 129.566406 67.589844 122.058594 67.027344 117.289062 67.519531 C 112.796875 68.011719 106.761719 69.765625 104.164062 69.554688 C 103.042969 69.484375 102.410156 69.34375 101.847656 68.851562 C 101.21875 68.363281 100.65625 67.519531 100.515625 66.746094 C 100.375 65.835938 100.867188 64.292969 101.5 63.589844 C 101.988281 63.027344 103.746094 62.605469 103.746094 62.605469 "/></clipPath><clipPath id="81e65d915e"><path d="M 126.269531 60.671875 L 136 60.671875 L 136 119.859375 L 126.269531 119.859375 Z M 126.269531 60.671875 "/></clipPath><clipPath id="e1926cf461"><path d="M 133.777344 64.222656 C 133.636719 90.675781 135.253906 99.308594 135.53125 105.554688 C 135.742188 110.253906 136.445312 115.871094 135.460938 117.972656 C 135.042969 118.886719 134.269531 119.308594 133.636719 119.589844 C 133.078125 119.867188 132.515625 119.867188 131.953125 119.800781 C 131.394531 119.730469 130.832031 119.589844 130.410156 119.238281 C 129.847656 118.746094 129.148438 117.902344 129.007812 117.203125 C 128.796875 116.5 128.867188 115.730469 129.078125 115.097656 C 129.359375 114.464844 129.847656 113.695312 130.480469 113.34375 C 131.324219 112.921875 132.867188 112.710938 133.777344 113.132812 C 134.691406 113.484375 135.671875 114.746094 135.8125 115.660156 C 136.023438 116.640625 135.53125 118.113281 134.832031 118.816406 C 134.128906 119.519531 132.65625 119.9375 131.671875 119.800781 C 130.761719 119.589844 129.5 118.605469 129.148438 117.695312 C 128.796875 116.78125 128.9375 115.238281 129.429688 114.394531 C 129.988281 113.625 131.394531 112.921875 132.304688 112.851562 C 133.078125 112.710938 133.847656 112.992188 134.410156 113.484375 C 135.113281 114.042969 135.8125 115.449219 135.882812 116.359375 C 135.953125 117.132812 135.53125 118.042969 135.042969 118.675781 C 134.480469 119.238281 133.566406 119.730469 132.796875 119.800781 C 132.023438 119.9375 131.042969 119.660156 130.410156 119.238281 C 129.777344 118.746094 129.359375 118.253906 129.007812 117.203125 C 128.164062 114.746094 128.867188 108.710938 128.445312 104.078125 C 128.09375 98.886719 126.832031 92.640625 126.480469 87.660156 C 126.199219 83.519531 126.269531 80.289062 126.339844 76.359375 C 126.410156 72.011719 126.058594 64.851562 127.183594 62.535156 C 127.601562 61.625 128.304688 61.203125 129.007812 60.921875 C 129.707031 60.640625 130.761719 60.640625 131.53125 60.921875 C 132.234375 61.203125 133.007812 61.976562 133.359375 62.535156 C 133.636719 63.097656 133.777344 64.222656 133.777344 64.222656 "/></clipPath><clipPath id="e0b36f69b2"><path d="M 128.851562 112.21875 L 193.597656 112.21875 L 193.597656 121.640625 L 128.851562 121.640625 Z M 128.851562 112.21875 "/></clipPath><clipPath id="cba0194fc8"><path d="M 135.183594 113.625 C 136.585938 114.816406 137.566406 113.976562 139.460938 113.765625 C 146.621094 113.0625 185.566406 111.800781 191.320312 114.464844 C 192.796875 115.167969 193.214844 116.148438 193.425781 116.992188 C 193.707031 117.695312 193.496094 118.605469 193.214844 119.238281 C 192.933594 119.871094 192.304688 120.5 191.671875 120.851562 C 191.039062 121.203125 190.199219 121.414062 189.496094 121.203125 C 188.585938 120.992188 187.25 120.078125 186.832031 119.238281 C 186.480469 118.324219 186.550781 116.78125 187.039062 115.941406 C 187.53125 115.097656 188.867188 114.324219 189.847656 114.253906 C 190.832031 114.183594 192.234375 114.816406 192.796875 115.589844 C 193.425781 116.359375 193.566406 117.972656 193.355469 118.886719 C 193.214844 119.589844 192.585938 120.21875 192.023438 120.640625 C 191.390625 121.0625 191.039062 121.0625 189.847656 121.273438 C 183.953125 122.042969 144.164062 121.34375 136.796875 121.203125 C 134.902344 121.132812 134.269531 121.414062 133.148438 120.992188 C 132.023438 120.570312 130.902344 119.589844 130.199219 118.675781 C 129.566406 117.972656 129.007812 117.0625 128.9375 116.21875 C 128.796875 115.449219 129.007812 114.464844 129.429688 113.835938 C 129.847656 113.132812 130.691406 112.570312 131.464844 112.359375 C 132.234375 112.148438 133.289062 112.289062 133.917969 112.570312 C 134.480469 112.78125 135.183594 113.625 135.183594 113.625 "/></clipPath><clipPath id="4bc79b535b"><path d="M 185.816406 114.21875 L 196.832031 114.21875 L 196.832031 147.652344 L 185.816406 147.652344 Z M 185.816406 114.21875 "/></clipPath><clipPath id="061980399b"><path d="M 192.933594 117.554688 C 195.882812 139.378906 194.480469 140.078125 194.621094 140.78125 C 194.691406 141.414062 195.953125 141.625 196.304688 142.253906 C 196.65625 142.886719 196.863281 143.726562 196.796875 144.429688 C 196.726562 145.132812 196.375 145.972656 195.8125 146.464844 C 195.179688 147.097656 193.636719 147.585938 192.726562 147.519531 C 191.953125 147.449219 191.25 146.957031 190.761719 146.464844 C 190.269531 145.972656 189.847656 145.132812 189.777344 144.429688 C 189.707031 143.726562 189.847656 142.886719 190.269531 142.253906 C 190.832031 141.484375 192.164062 140.640625 193.074219 140.570312 C 194.058594 140.5 195.460938 141.273438 196.09375 141.972656 C 196.585938 142.535156 196.863281 143.308594 196.796875 144.078125 C 196.726562 144.992188 195.953125 146.394531 195.25 146.957031 C 194.691406 147.449219 193.707031 147.519531 193.074219 147.585938 C 192.65625 147.585938 192.375 147.585938 191.953125 147.308594 C 191.179688 146.675781 190.199219 144.710938 189.425781 142.394531 C 187.8125 137.414062 185.285156 122.042969 185.917969 117.902344 C 186.128906 116.429688 186.621094 115.589844 187.320312 114.957031 C 187.953125 114.464844 188.933594 114.183594 189.707031 114.253906 C 190.480469 114.324219 191.390625 114.746094 191.953125 115.308594 C 192.515625 115.871094 192.933594 117.554688 192.933594 117.554688 "/></clipPath><clipPath id="9f7fd3c3d0"><path d="M 98.847656 257.777344 L 133.214844 257.777344 L 133.214844 265.933594 L 98.847656 265.933594 Z M 98.847656 257.777344 "/></clipPath><clipPath id="2118a51a82"><path d="M 102.410156 258.253906 C 132.164062 258.53125 132.726562 259.515625 133.078125 260.359375 C 133.289062 261.058594 133.21875 261.902344 132.9375 262.601562 C 132.65625 263.234375 132.09375 263.9375 131.464844 264.289062 C 130.902344 264.636719 130.058594 264.917969 129.289062 264.777344 C 128.375 264.636719 127.042969 263.726562 126.550781 262.953125 C 126.128906 262.324219 126.058594 261.410156 126.199219 260.707031 C 126.339844 260.007812 126.691406 259.234375 127.253906 258.742188 C 127.953125 258.183594 129.5 257.761719 130.410156 257.832031 C 131.183594 257.972656 131.882812 258.460938 132.375 259.023438 C 132.796875 259.585938 133.148438 260.429688 133.148438 261.128906 C 133.21875 261.832031 133.078125 262.671875 132.585938 263.234375 C 132.023438 263.9375 131.183594 264.425781 129.636719 264.777344 C 125.289062 265.972656 106.761719 266.324219 102.410156 265.269531 C 100.867188 264.917969 100.09375 264.496094 99.535156 263.796875 C 98.972656 263.164062 98.832031 262.113281 98.902344 261.339844 C 98.972656 260.566406 99.464844 259.65625 100.09375 259.164062 C 100.65625 258.671875 102.410156 258.253906 102.410156 258.253906 "/></clipPath><clipPath id="f21df823d7"><path d="M 126.019531 148.839844 L 135.675781 148.839844 L 135.675781 264.824219 L 126.019531 264.824219 Z M 126.019531 148.839844 "/></clipPath><clipPath id="e98072cb4c"><path d="M 126.058594 261.269531 C 126.550781 186.113281 125.636719 164.429688 127.601562 155.867188 C 128.375 152.5 129.5 149.691406 130.761719 148.992188 C 131.394531 148.640625 132.304688 148.992188 132.9375 149.34375 C 133.707031 149.832031 134.691406 151.097656 134.832031 152.078125 C 134.972656 153.0625 134.269531 154.464844 133.636719 155.167969 C 133.148438 155.65625 132.304688 156.007812 131.601562 156.007812 C 130.691406 155.9375 129.21875 155.308594 128.585938 154.605469 C 128.09375 154.042969 127.8125 153.203125 127.8125 152.5 C 127.8125 151.796875 128.023438 150.957031 128.515625 150.394531 C 129.148438 149.691406 130.550781 148.921875 131.53125 148.992188 C 132.445312 148.992188 133.777344 149.902344 134.339844 150.675781 C 134.761719 151.238281 134.902344 152.148438 134.832031 152.851562 C 134.761719 153.554688 134.410156 154.324219 133.917969 154.886719 C 133.429688 155.378906 131.953125 155.867188 131.953125 155.9375 C 131.953125 156.007812 133.917969 154.535156 134.621094 155.097656 C 137.496094 157.203125 133.566406 185.902344 133.359375 202.535156 C 133.007812 221.058594 134.269531 254.8125 133.078125 261.269531 C 132.867188 262.601562 132.726562 263.023438 132.164062 263.585938 C 131.671875 264.21875 130.761719 264.707031 129.988281 264.777344 C 129.21875 264.847656 128.234375 264.707031 127.601562 264.148438 C 126.832031 263.585938 126.058594 261.269531 126.058594 261.269531 "/></clipPath><clipPath id="d23e8895f3"><path d="M 127.785156 144.984375 L 146.328125 144.984375 L 146.328125 160.589844 L 127.785156 160.589844 Z M 127.785156 144.984375 "/></clipPath><clipPath id="2ea227a1c2"><path d="M 127.8125 156.78125 C 128.515625 149.761719 129.007812 148.570312 129.847656 147.65625 C 130.621094 146.746094 131.601562 146.042969 133.078125 145.621094 C 135.53125 144.851562 141.847656 144.78125 143.882812 145.484375 C 144.796875 145.761719 145.289062 146.253906 145.636719 146.816406 C 146.058594 147.378906 146.339844 148.21875 146.269531 148.992188 C 146.128906 149.832031 145.355469 151.308594 144.585938 151.796875 C 143.742188 152.289062 142.128906 152.359375 141.289062 151.9375 C 140.375 151.519531 139.460938 150.324219 139.324219 149.34375 C 139.113281 148.359375 139.601562 146.886719 140.375 146.253906 C 141.078125 145.554688 142.621094 145.203125 143.53125 145.34375 C 144.234375 145.484375 144.9375 145.972656 145.425781 146.535156 C 145.917969 147.027344 146.199219 147.867188 146.269531 148.570312 C 146.269531 149.273438 146.058594 150.183594 145.636719 150.746094 C 145.289062 151.308594 144.796875 151.726562 143.882812 152.078125 C 142.128906 152.78125 136.375 151.378906 134.972656 152.78125 C 133.917969 153.832031 135.183594 156.921875 134.621094 158.183594 C 134.269531 159.097656 133.636719 159.726562 133.078125 160.148438 C 132.585938 160.429688 132.023438 160.570312 131.464844 160.570312 C 130.691406 160.570312 129.636719 160.359375 129.078125 159.796875 C 128.375 159.167969 127.8125 156.78125 127.8125 156.78125 "/></clipPath><clipPath id="240106e660"><path d="M 139.199219 116.378906 L 195.578125 116.378906 L 195.578125 152.503906 L 139.199219 152.503906 Z M 139.199219 116.378906 "/></clipPath><clipPath id="61e5e83854"><path d="M 142.761719 145.273438 C 162.902344 143.867188 183.882812 146.394531 187.320312 143.796875 C 188.445312 142.886719 188.09375 141.972656 188.304688 140.289062 C 188.796875 136.21875 186.621094 121.972656 187.601562 118.816406 C 187.882812 117.835938 188.304688 117.414062 188.933594 117.0625 C 189.707031 116.570312 191.320312 116.429688 192.234375 116.710938 C 192.933594 116.921875 193.566406 117.554688 193.917969 118.113281 C 194.269531 118.746094 194.480469 119.660156 194.410156 120.359375 C 194.339844 121.0625 193.917969 121.835938 193.425781 122.394531 C 193.003906 122.886719 192.234375 123.378906 191.460938 123.378906 C 190.550781 123.519531 189.074219 122.957031 188.375 122.394531 C 187.8125 121.835938 187.53125 121.0625 187.390625 120.359375 C 187.320312 119.589844 187.460938 118.746094 187.882812 118.113281 C 188.445312 117.414062 189.847656 116.570312 190.691406 116.429688 C 191.460938 116.359375 192.304688 116.640625 192.863281 117.0625 C 193.496094 117.414062 193.847656 117.835938 194.269531 118.816406 C 195.179688 121.273438 195.039062 128.921875 195.179688 133.484375 C 195.320312 137.414062 195.601562 141.832031 195.320312 144.5 C 195.109375 146.042969 195.109375 147.097656 194.480469 148.078125 C 193.917969 149.132812 193.425781 149.902344 191.8125 150.535156 C 186.621094 152.640625 163.953125 150.816406 154.972656 151.308594 C 149.777344 151.519531 145.355469 152.851562 142.761719 152.289062 C 141.425781 152.007812 140.445312 151.519531 139.882812 150.746094 C 139.394531 150.113281 139.183594 149.132812 139.253906 148.359375 C 139.394531 147.589844 139.8125 146.675781 140.445312 146.113281 C 141.007812 145.621094 142.761719 145.273438 142.761719 145.273438 "/></clipPath><clipPath id="6ed9bebb9e"><path d="M 186 115.660156 L 197.539062 115.660156 L 197.539062 151.609375 L 186 151.609375 Z M 186 115.660156 "/></clipPath><clipPath id="04854609f4"><path d="M 194.761719 119.238281 C 195.390625 132.5 196.726562 136.429688 197.074219 139.726562 C 197.355469 142.464844 197.777344 145.484375 197.144531 147.308594 C 196.726562 148.640625 195.953125 149.550781 194.828125 150.253906 C 193.425781 151.097656 190.480469 151.726562 189.074219 151.585938 C 188.164062 151.449219 187.53125 151.027344 187.039062 150.535156 C 186.550781 150.042969 186.199219 149.203125 186.128906 148.5 C 185.988281 147.796875 186.199219 146.957031 186.550781 146.324219 C 186.902344 145.691406 187.601562 145.132812 188.234375 144.851562 C 188.933594 144.570312 189.777344 144.5 190.480469 144.710938 C 191.320312 144.992188 192.585938 146.042969 192.863281 146.957031 C 193.214844 147.867188 193.003906 149.414062 192.375 150.183594 C 191.8125 150.957031 190.410156 151.65625 189.425781 151.585938 C 188.445312 151.585938 187.109375 150.675781 186.621094 149.972656 C 186.128906 149.34375 185.988281 148.5 186.058594 147.796875 C 186.128906 147.097656 186.480469 146.394531 187.039062 145.691406 C 187.742188 144.78125 189.707031 144.570312 190.269531 143.097656 C 191.320312 140.359375 188.375 133.132812 187.953125 128.78125 C 187.671875 125.0625 187.179688 120.5 187.8125 118.394531 C 188.164062 117.414062 188.585938 116.78125 189.214844 116.359375 C 189.847656 115.9375 190.898438 115.660156 191.671875 115.730469 C 192.445312 115.871094 193.355469 116.359375 193.847656 116.921875 C 194.410156 117.484375 194.761719 119.238281 194.761719 119.238281 "/></clipPath><clipPath id="2e038306d6"><path d="M 171.449219 252.933594 L 181.449219 252.933594 L 181.449219 306.878906 L 171.449219 306.878906 Z M 171.449219 252.933594 "/></clipPath><clipPath id="c22c5c13c3"><path d="M 177 304.835938 C 171.613281 260.40625 171.085938 256.15625 171.613281 254.492188 C 171.789062 253.878906 172.09375 253.613281 172.445312 253.351562 C 172.796875 253.089844 173.363281 252.957031 173.804688 252.957031 C 174.242188 253 174.765625 253.132812 175.117188 253.484375 C 175.511719 253.878906 175.949219 254.796875 175.863281 255.367188 C 175.820312 255.980469 175.203125 256.769531 174.722656 257.074219 C 174.328125 257.339844 173.804688 257.382812 173.363281 257.339844 C 172.925781 257.25 172.402344 256.988281 172.09375 256.679688 C 171.832031 256.375 171.566406 255.847656 171.523438 255.410156 C 171.480469 254.972656 171.523438 254.445312 171.789062 254.050781 C 172.136719 253.570312 173.015625 253.042969 173.539062 252.957031 C 174.023438 252.914062 174.546875 253.042969 174.898438 253.351562 C 175.335938 253.703125 175.644531 254.226562 175.90625 255.148438 C 176.476562 257.25 176.210938 262.203125 176.5625 266.277344 C 176.957031 271.316406 177.660156 277.1875 178.402344 283.148438 C 179.28125 289.851562 181.644531 301.550781 181.382812 304.527344 C 181.339844 305.316406 181.296875 305.625 180.945312 306.019531 C 180.550781 306.457031 179.675781 306.851562 179.105469 306.851562 C 178.578125 306.851562 178.007812 306.589844 177.660156 306.238281 C 177.308594 305.886719 177 304.835938 177 304.835938 "/></clipPath><clipPath id="1f49910ed8"><path d="M 171.535156 252.878906 L 207.179688 252.878906 L 207.179688 291.417969 L 171.535156 291.417969 Z M 171.535156 252.878906 "/></clipPath><clipPath id="11378d55e6"><path d="M 175.117188 253.394531 C 183.003906 260.84375 191.109375 269.476562 195.535156 274.691406 C 198.867188 278.589844 201.800781 283.101562 203.90625 285.335938 C 204.957031 286.476562 206.050781 287.003906 206.578125 287.746094 C 206.929688 288.273438 207.101562 288.753906 207.101562 289.238281 C 207.101562 289.71875 206.839844 290.289062 206.535156 290.683594 C 206.183594 291.035156 205.613281 291.296875 205.132812 291.382812 C 204.648438 291.429688 203.640625 290.945312 203.640625 290.988281 C 203.640625 290.988281 204.5625 291.382812 204.605469 291.339844 C 204.648438 291.296875 203.246094 290.640625 202.941406 290.15625 C 202.722656 289.71875 202.632812 289.191406 202.765625 288.753906 C 202.941406 288.230469 203.511719 287.398438 204.078125 287.175781 C 204.605469 286.914062 205.613281 287.003906 206.09375 287.351562 C 206.621094 287.660156 207.101562 288.535156 207.101562 289.148438 C 207.101562 289.761719 206.664062 290.640625 206.183594 290.988281 C 205.699219 291.339844 204.691406 291.429688 204.125 291.253906 C 203.554688 291.035156 202.941406 290.289062 202.765625 289.71875 C 202.632812 289.105469 202.941406 288.140625 203.292969 287.703125 C 203.597656 287.351562 204.035156 287.089844 204.519531 287.046875 C 205.085938 287.003906 206.140625 287.308594 206.578125 287.746094 C 206.972656 288.230469 207.148438 289.191406 207.015625 289.761719 C 206.929688 290.246094 206.488281 290.726562 206.140625 290.988281 C 205.832031 291.207031 205.527344 291.339844 205.132812 291.382812 C 204.691406 291.382812 204.167969 291.253906 203.640625 290.988281 C 202.898438 290.550781 202.238281 289.894531 201.277344 288.886719 C 199.214844 286.695312 196.0625 281.964844 192.554688 277.886719 C 187.824219 272.410156 178.535156 262.421875 175.117188 259.089844 C 173.757812 257.820312 172.707031 257.382812 172.136719 256.59375 C 171.789062 256.066406 171.613281 255.585938 171.613281 255.105469 C 171.65625 254.621094 171.875 254.007812 172.226562 253.660156 C 172.53125 253.308594 173.144531 253.042969 173.628906 252.957031 C 174.109375 252.914062 175.117188 253.394531 175.117188 253.394531 "/></clipPath><clipPath id="51c89d7466"><path d="M 202.753906 239.621094 L 233.671875 239.621094 L 233.671875 291.417969 L 202.753906 291.417969 Z M 202.753906 239.621094 "/></clipPath><clipPath id="6c70d33c69"><path d="M 203.027344 288.054688 C 208.285156 279.992188 211.441406 274.164062 214.113281 268.992188 C 217.179688 263.078125 220.421875 254.929688 223.402344 249.800781 C 225.507812 246.078125 228.265625 241.960938 229.582031 240.601562 C 230.0625 240.117188 230.238281 239.898438 230.71875 239.769531 C 231.246094 239.679688 232.253906 239.855469 232.734375 240.164062 C 233.128906 240.425781 233.347656 240.90625 233.480469 241.347656 C 233.566406 241.785156 233.523438 242.355469 233.347656 242.746094 C 233.171875 243.140625 232.867188 243.582031 232.429688 243.800781 C 231.902344 244.019531 230.894531 244.0625 230.371094 243.84375 C 229.929688 243.667969 229.582031 243.273438 229.40625 242.835938 C 229.1875 242.308594 229.1875 241.300781 229.449219 240.777344 C 229.625 240.382812 230.0625 240.03125 230.5 239.855469 C 230.894531 239.679688 231.421875 239.59375 231.859375 239.769531 C 232.429688 239.945312 233.171875 240.601562 233.394531 241.125 C 233.613281 241.566406 233.613281 241.871094 233.4375 242.527344 C 232.910156 244.371094 229.230469 248.355469 227.039062 252.210938 C 224.058594 257.46875 220.816406 265.621094 217.792969 271.535156 C 215.121094 276.707031 212.011719 282.359375 209.863281 285.820312 C 208.550781 287.921875 207.320312 289.9375 206.488281 290.726562 C 206.140625 291.035156 205.921875 291.164062 205.570312 291.253906 C 205.132812 291.382812 204.429688 291.339844 204.035156 291.207031 C 203.683594 291.078125 203.421875 290.8125 203.203125 290.550781 C 202.984375 290.289062 202.808594 289.980469 202.765625 289.585938 C 202.722656 289.148438 203.027344 288.054688 203.027344 288.054688 "/></clipPath><clipPath id="9c552c6709"><path d="M 229.058594 239.640625 L 260.507812 239.640625 L 260.507812 289.664062 L 229.058594 289.664062 Z M 229.058594 239.640625 "/></clipPath><clipPath id="b5de00d0ea"><path d="M 233 240.558594 C 237.378906 247.261719 238.039062 249.628906 239.089844 251.730469 C 240.097656 253.832031 240.886719 255.105469 242.550781 257.910156 C 246.097656 263.910156 258.71875 282.621094 260.078125 286.214844 C 260.382812 287.003906 260.472656 287.265625 260.382812 287.746094 C 260.296875 288.230469 259.988281 288.796875 259.550781 289.0625 C 259.070312 289.414062 258.105469 289.585938 257.535156 289.457031 C 257.054688 289.324219 256.351562 288.492188 256.351562 288.492188 C 256.351562 288.492188 257.535156 289.414062 257.535156 289.457031 C 257.535156 289.457031 256.660156 288.972656 256.394531 288.625 C 256.175781 288.230469 255.957031 287.703125 256 287.265625 C 256.089844 286.695312 256.617188 285.820312 257.054688 285.46875 C 257.449219 285.207031 257.972656 285.074219 258.410156 285.160156 C 258.980469 285.25 259.859375 285.777344 260.121094 286.300781 C 260.425781 286.828125 260.425781 287.792969 260.164062 288.359375 C 259.902344 288.886719 259.070312 289.457031 258.457031 289.542969 C 257.886719 289.585938 256.964844 289.238281 256.570312 288.796875 C 256.175781 288.316406 256 287.351562 256.089844 286.785156 C 256.175781 286.34375 256.527344 285.90625 256.878906 285.644531 C 257.230469 285.335938 257.710938 285.117188 258.191406 285.160156 C 258.761719 285.207031 259.726562 285.730469 260.078125 286.214844 C 260.382812 286.652344 260.472656 287.265625 260.382812 287.746094 C 260.207031 288.316406 259.59375 289.105469 259.113281 289.367188 C 258.675781 289.585938 258.0625 289.585938 257.535156 289.457031 C 256.964844 289.238281 256.441406 288.710938 255.871094 287.964844 C 254.820312 286.695312 254.074219 284.546875 252.539062 281.917969 C 249.605469 276.878906 241.804688 265.226562 238.78125 260.1875 C 237.25 257.558594 236.503906 256.375 235.410156 254.140625 C 234.136719 251.644531 232.953125 247.875 231.726562 245.859375 C 230.894531 244.542969 229.667969 243.753906 229.316406 242.878906 C 229.097656 242.308594 229.054688 241.785156 229.1875 241.300781 C 229.316406 240.863281 229.710938 240.339844 230.105469 240.074219 C 230.542969 239.8125 231.15625 239.679688 231.640625 239.769531 C 232.121094 239.855469 233 240.558594 233 240.558594 "/></clipPath><clipPath id="7d204505fc"><path d="M 256 242.539062 L 283.203125 242.539062 L 283.203125 289.675781 L 256 289.675781 Z M 256 242.539062 "/></clipPath><clipPath id="868ec16472"><path d="M 256.484375 285.996094 C 264.414062 274.953125 268.140625 262.683594 271.164062 256.460938 C 273.179688 252.257812 275.28125 248.398438 276.902344 246.078125 C 277.867188 244.761719 278.699219 243.800781 279.398438 243.230469 C 279.882812 242.878906 280.1875 242.617188 280.671875 242.617188 C 281.238281 242.574219 282.203125 242.835938 282.597656 243.273438 C 282.992188 243.753906 283.253906 244.675781 283.125 245.289062 C 282.992188 245.859375 282.292969 246.558594 281.765625 246.824219 C 281.328125 247.042969 280.800781 247 280.363281 246.867188 C 279.925781 246.734375 279.488281 246.472656 279.222656 246.078125 C 278.917969 245.597656 278.699219 244.632812 278.917969 244.0625 C 279.136719 243.492188 279.882812 242.835938 280.453125 242.660156 C 280.890625 242.484375 281.414062 242.527344 281.808594 242.746094 C 282.335938 243.011719 282.992188 243.800781 283.125 244.324219 C 283.253906 244.808594 283.210938 245.15625 282.949219 245.726562 C 282.421875 247 279.96875 249.320312 278.699219 251.25 C 277.515625 253.132812 276.859375 254.492188 275.585938 257.207031 C 273.003906 262.726562 268.359375 277.320312 264.851562 282.882812 C 262.925781 285.949219 260.339844 288.667969 259.113281 289.367188 C 258.675781 289.585938 258.410156 289.585938 258.0625 289.542969 C 257.625 289.457031 257.007812 289.238281 256.660156 288.886719 C 256.308594 288.535156 256.046875 287.964844 256 287.484375 C 256 286.957031 256.484375 285.996094 256.484375 285.996094 "/></clipPath><clipPath id="090b93b505"><path d="M 278.714844 242.589844 L 306.902344 242.589844 L 306.902344 288.421875 L 278.714844 288.421875 Z M 278.714844 242.589844 "/></clipPath><clipPath id="a2d1340cf8"><path d="M 282.949219 243.84375 C 306.828125 286.257812 306.785156 286.695312 306.523438 287.222656 C 306.214844 287.746094 305.296875 288.230469 304.769531 288.316406 C 304.417969 288.40625 304.066406 288.316406 303.761719 288.140625 C 303.367188 287.964844 302.929688 287.660156 302.710938 287.222656 C 302.445312 286.738281 302.359375 285.730469 302.621094 285.207031 C 302.886719 284.636719 303.675781 284.066406 304.289062 283.980469 C 304.902344 283.890625 305.820312 284.199219 306.214844 284.679688 C 306.609375 285.117188 306.871094 286.039062 306.742188 286.652344 C 306.609375 287.222656 305.910156 287.921875 305.382812 288.183594 C 304.945312 288.40625 304.417969 288.359375 303.980469 288.230469 C 303.542969 288.097656 303.105469 287.835938 302.839844 287.441406 C 302.535156 286.957031 302.402344 285.949219 302.535156 285.425781 C 302.667969 284.941406 303.015625 284.546875 303.410156 284.285156 C 303.761719 284.066406 304.289062 283.890625 304.769531 283.933594 C 305.339844 284.066406 306.257812 284.679688 306.566406 285.207031 C 306.828125 285.644531 306.828125 286.257812 306.695312 286.738281 C 306.566406 287.222656 306.171875 287.746094 305.777344 287.964844 C 305.382812 288.230469 304.726562 288.359375 304.242188 288.316406 C 303.761719 288.230469 303.5 288.140625 302.929688 287.527344 C 299.597656 284.199219 280.40625 250.285156 279.003906 245.726562 C 278.742188 244.894531 278.742188 244.632812 278.875 244.148438 C 279.003906 243.710938 279.355469 243.140625 279.839844 242.921875 C 280.320312 242.660156 281.285156 242.574219 281.851562 242.746094 C 282.335938 242.921875 282.949219 243.84375 282.949219 243.84375 "/></clipPath><clipPath id="7e9f5a9731"><path d="M 302.253906 252.792969 L 335.765625 252.792969 L 335.765625 288.183594 L 302.253906 288.183594 Z M 302.253906 252.792969 "/></clipPath><clipPath id="42b58956be"><path d="M 303.5 284.023438 C 311.5625 277.539062 318.089844 267.984375 322.644531 262.992188 C 326.152344 259.136719 330.664062 254.097656 332.546875 253.175781 C 333.164062 252.871094 333.511719 252.871094 333.90625 252.957031 C 334.34375 253.042969 334.871094 253.308594 335.132812 253.613281 C 335.441406 253.964844 335.703125 254.445312 335.703125 254.886719 C 335.746094 255.324219 335.617188 255.894531 335.398438 256.242188 C 335.175781 256.636719 334.785156 257.03125 334.34375 257.164062 C 333.777344 257.296875 332.769531 257.207031 332.285156 256.902344 C 331.890625 256.679688 331.585938 256.242188 331.453125 255.761719 C 331.320312 255.234375 331.496094 254.226562 331.804688 253.746094 C 332.066406 253.351562 332.503906 253.089844 332.988281 253 C 333.554688 252.871094 334.519531 253.132812 335.003906 253.4375 C 335.351562 253.746094 335.617188 254.226562 335.703125 254.664062 C 335.792969 255.105469 335.792969 255.453125 335.527344 256.066406 C 334.652344 257.820312 330.183594 261.152344 326.941406 264.742188 C 322.164062 270 314.191406 281.4375 310.113281 285.03125 C 308.230469 286.652344 306.609375 287.570312 305.425781 287.964844 C 304.8125 288.183594 304.375 288.230469 303.894531 288.097656 C 303.410156 287.964844 302.886719 287.570312 302.621094 287.222656 C 302.402344 286.914062 302.316406 286.5625 302.273438 286.214844 C 302.226562 285.863281 302.273438 285.511719 302.445312 285.160156 C 302.621094 284.769531 303.5 284.023438 303.5 284.023438 "/></clipPath><clipPath id="bb5f402ca1"><path d="M 320.152344 252.886719 L 335.714844 252.886719 L 335.714844 305.078125 L 320.152344 305.078125 Z M 320.152344 252.886719 "/></clipPath><clipPath id="b31707b0ae"><path d="M 335.703125 255.410156 C 324.179688 304.046875 324.179688 304.222656 323.785156 304.527344 C 323.347656 304.835938 322.339844 305.097656 321.769531 304.96875 C 321.332031 304.921875 320.894531 304.617188 320.628906 304.222656 C 320.28125 303.738281 320.0625 302.777344 320.238281 302.207031 C 320.410156 301.636719 321.199219 300.980469 321.726562 300.761719 C 322.164062 300.585938 322.691406 300.671875 323.128906 300.804688 C 323.523438 300.980469 323.960938 301.285156 324.179688 301.679688 C 324.441406 302.207031 324.53125 303.214844 324.355469 303.738281 C 324.179688 304.179688 323.785156 304.574219 323.390625 304.792969 C 322.996094 305.011719 322.472656 305.097656 322.03125 305.011719 C 321.59375 304.96875 321.070312 304.746094 320.761719 304.398438 C 320.410156 303.960938 320.238281 303.519531 320.191406 302.425781 C 320.015625 297.035156 329.261719 258.566406 331.496094 254.316406 C 331.890625 253.570312 332.109375 253.394531 332.546875 253.175781 C 332.988281 252.957031 333.601562 252.871094 334.082031 253 C 334.5625 253.089844 335.089844 253.484375 335.351562 253.878906 C 335.617188 254.273438 335.703125 255.410156 335.703125 255.410156 "/></clipPath><clipPath id="01eacd69bb"><path d="M 293.398438 251.621094 L 317 251.621094 L 317 275.660156 L 293.398438 275.660156 Z M 293.398438 251.621094 "/></clipPath><clipPath id="2516aeed28"><path d="M 294.035156 268.292969 C 301.308594 259.574219 303.894531 254.359375 305.558594 252.824219 C 306.304688 252.125 306.828125 251.6875 307.484375 251.6875 C 308.1875 251.6875 308.886719 252.167969 309.5 252.871094 C 310.597656 254.097656 311.296875 256.636719 312.304688 259.179688 C 313.707031 262.945312 316.863281 271.054688 316.90625 273.289062 C 316.949219 273.988281 316.863281 274.296875 316.554688 274.644531 C 316.207031 275.085938 315.285156 275.566406 314.714844 275.609375 C 314.277344 275.652344 313.75 275.433594 313.402344 275.171875 C 313.050781 274.910156 312.699219 274.472656 312.613281 273.988281 C 312.523438 273.464844 312.65625 272.457031 313.050781 272.015625 C 313.445312 271.535156 314.363281 271.183594 314.976562 271.230469 C 315.59375 271.316406 316.378906 271.929688 316.6875 272.410156 C 316.90625 272.804688 316.949219 273.332031 316.90625 273.769531 C 316.820312 274.207031 316.601562 274.734375 316.25 274.996094 C 315.8125 275.347656 314.847656 275.699219 314.277344 275.566406 C 313.664062 275.433594 313.183594 274.953125 312.699219 274.207031 C 311.691406 272.675781 311.121094 268.554688 310.027344 265.53125 C 308.800781 262.160156 304.902344 255.671875 305.644531 254.886719 C 306.039062 254.492188 308.363281 255.191406 308.625 256.023438 C 309.152344 257.734375 303.148438 264.4375 300.957031 267.199219 C 299.554688 268.949219 298.242188 270.527344 297.234375 271.273438 C 296.707031 271.667969 296.3125 271.929688 295.832031 271.972656 C 295.347656 272.015625 294.734375 271.796875 294.339844 271.578125 C 294.035156 271.359375 293.816406 271.054688 293.683594 270.746094 C 293.507812 270.441406 293.421875 270.089844 293.464844 269.738281 C 293.464844 269.300781 294.035156 268.292969 294.035156 268.292969 "/></clipPath><clipPath id="06dae03274"><path d="M 246.242188 252.617188 L 268.683594 252.617188 L 268.683594 273.628906 L 246.242188 273.628906 Z M 246.242188 252.617188 "/></clipPath><clipPath id="9d323cf13e"><path d="M 246.273438 268.90625 C 247.71875 263.253906 251.226562 255.71875 252.933594 253.832031 C 253.636719 253.089844 254.207031 252.695312 254.863281 252.652344 C 255.519531 252.605469 256.222656 253 256.921875 253.527344 C 257.886719 254.226562 258.761719 255.367188 259.902344 256.855469 C 261.960938 259.53125 266.253906 266.015625 267.570312 268.511719 C 268.140625 269.605469 268.488281 270.308594 268.578125 271.054688 C 268.621094 271.535156 268.578125 272.015625 268.359375 272.410156 C 268.050781 272.894531 267.261719 273.507812 266.648438 273.550781 C 266.035156 273.636719 265.117188 273.289062 264.722656 272.804688 C 264.328125 272.367188 264.109375 271.402344 264.28125 270.835938 C 264.457031 270.222656 265.117188 269.519531 265.683594 269.300781 C 266.253906 269.125 267.261719 269.300781 267.746094 269.652344 C 268.226562 270 268.621094 270.921875 268.578125 271.492188 C 268.578125 272.105469 268.007812 272.9375 267.527344 273.289062 C 267.175781 273.550781 266.605469 273.636719 266.167969 273.59375 C 265.730469 273.507812 265.378906 273.417969 264.898438 272.980469 C 263.539062 271.753906 261.304688 266.363281 259.289062 263.515625 C 257.535156 260.933594 253.460938 256.636719 253.679688 256.417969 C 253.765625 256.332031 255.5625 257.121094 255.738281 257.953125 C 256.132812 259.484375 252.410156 263.910156 251.488281 266.144531 C 250.875 267.679688 250.917969 269.214844 250.351562 270.046875 C 250.042969 270.570312 249.605469 270.878906 249.167969 271.054688 C 248.726562 271.230469 248.027344 271.140625 247.632812 271.007812 C 247.28125 270.878906 246.976562 270.660156 246.757812 270.394531 C 246.492188 270.046875 246.273438 268.90625 246.273438 268.90625 "/></clipPath><clipPath id="d3bd6fba15"><path d="M 191.21875 254.8125 L 214.785156 254.8125 L 214.785156 276.164062 L 191.21875 276.164062 Z M 191.21875 254.8125 "/></clipPath><clipPath id="dd7485cbe4"><path d="M 191.417969 272.851562 C 196.238281 265.3125 198.558594 257.425781 200.488281 255.71875 C 201.320312 255.015625 202.195312 254.796875 202.898438 254.929688 C 203.597656 255.058594 203.992188 255.761719 204.648438 256.460938 C 205.832031 257.6875 207.453125 259.878906 208.898438 262.070312 C 210.738281 264.917969 214.15625 270.351562 214.59375 272.238281 C 214.769531 272.894531 214.683594 273.199219 214.550781 273.636719 C 214.375 274.03125 214.070312 274.515625 213.675781 274.734375 C 213.148438 274.996094 212.140625 275.039062 211.617188 274.867188 C 211.179688 274.734375 210.785156 274.382812 210.566406 273.945312 C 210.34375 273.417969 210.257812 272.410156 210.519531 271.886719 C 210.828125 271.359375 211.660156 270.835938 212.230469 270.703125 C 212.667969 270.613281 213.195312 270.746094 213.585938 270.964844 C 213.980469 271.183594 214.375 271.578125 214.507812 272.015625 C 214.683594 272.542969 214.683594 273.550781 214.332031 274.078125 C 214.027344 274.558594 213.148438 275.039062 212.535156 275.039062 C 211.921875 275.085938 211.398438 274.777344 210.695312 274.121094 C 209.117188 272.628906 206.839844 266.890625 205 264.085938 C 203.554688 261.941406 200.574219 258.828125 200.792969 258.609375 C 200.96875 258.433594 202.851562 259.136719 203.117188 259.96875 C 203.640625 261.71875 200.179688 267.417969 198.515625 270.222656 C 197.15625 272.5 195.230469 275.304688 194.175781 275.917969 C 193.78125 276.136719 193.519531 276.09375 193.125 276.046875 C 192.6875 275.960938 192.074219 275.652344 191.765625 275.304688 C 191.503906 275.085938 191.328125 274.777344 191.242188 274.382812 C 191.199219 273.945312 191.417969 272.851562 191.417969 272.851562 "/></clipPath><clipPath id="e39e537a74"><path d="M 176.9375 303.5625 L 225.742188 303.5625 L 225.742188 315.75 L 176.9375 315.75 Z M 176.9375 303.5625 "/></clipPath><clipPath id="1d21b597e2"><path d="M 179.5 303.609375 C 208.199219 310.136719 221.476562 310.3125 224.234375 311.40625 C 224.890625 311.671875 225.113281 311.890625 225.332031 312.242188 C 225.59375 312.636719 225.769531 313.160156 225.726562 313.597656 C 225.679688 314.035156 225.550781 314.5625 225.199219 314.914062 C 224.804688 315.308594 223.882812 315.746094 223.316406 315.65625 C 222.703125 315.613281 221.871094 315.042969 221.605469 314.519531 C 221.300781 313.992188 221.386719 312.984375 221.605469 312.460938 C 221.78125 312.019531 222.175781 311.671875 222.613281 311.496094 C 223.140625 311.320312 224.148438 311.363281 224.671875 311.628906 C 225.066406 311.800781 225.417969 312.285156 225.59375 312.679688 C 225.726562 313.074219 225.769531 313.640625 225.636719 314.082031 C 225.550781 314.519531 225.199219 314.957031 224.847656 315.21875 C 224.5 315.484375 224.277344 315.613281 223.535156 315.703125 C 220.511719 316.007812 206.445312 314.167969 199.699219 313.074219 C 194.570312 312.195312 190.191406 311.144531 186.335938 310.136719 C 183.265625 309.390625 179.675781 308.605469 178.273438 307.769531 C 177.660156 307.421875 177.351562 307.15625 177.132812 306.71875 C 176.957031 306.238281 176.914062 305.625 177.046875 305.140625 C 177.175781 304.703125 177.570312 304.179688 177.964844 303.914062 C 178.402344 303.652344 179.5 303.609375 179.5 303.609375 "/></clipPath><clipPath id="4bb2c422d7"><path d="M 219.945312 311.164062 L 258.796875 311.164062 L 258.796875 316.441406 L 219.945312 316.441406 Z M 219.945312 311.164062 "/></clipPath><clipPath id="bfea55328a"><path d="M 222.21875 311.1875 C 240.972656 311.933594 254.25 310.882812 257.097656 311.757812 C 257.84375 312.019531 258.105469 312.285156 258.367188 312.679688 C 258.632812 313.074219 258.804688 313.6875 258.761719 314.167969 C 258.675781 314.648438 258.367188 315.21875 258.015625 315.527344 C 257.667969 315.878906 257.097656 316.140625 256.570312 316.097656 C 255.957031 316.050781 254.996094 315.4375 254.644531 314.957031 C 254.378906 314.5625 254.292969 314.035156 254.425781 313.554688 C 254.554688 313.027344 255.082031 312.195312 255.652344 311.933594 C 256.175781 311.671875 257.183594 311.714844 257.710938 312.019531 C 258.238281 312.328125 258.71875 313.160156 258.761719 313.773438 C 258.804688 314.386719 258.367188 315.265625 257.886719 315.65625 C 257.402344 316.007812 256.441406 316.183594 255.871094 315.964844 C 255.300781 315.789062 254.644531 315.089844 254.46875 314.519531 C 254.292969 313.90625 254.554688 312.941406 254.90625 312.503906 C 255.167969 312.109375 255.652344 311.847656 256.089844 311.757812 C 256.527344 311.671875 257.492188 311.933594 257.492188 311.933594 C 257.492188 311.890625 256.570312 311.671875 256.570312 311.714844 C 256.570312 311.757812 257.667969 311.890625 258.015625 312.285156 C 258.410156 312.679688 258.761719 313.597656 258.761719 314.167969 C 258.71875 314.695312 258.324219 315.21875 258.015625 315.527344 C 257.753906 315.789062 257.625 315.921875 257.097656 316.050781 C 254.554688 316.664062 240.886719 316.359375 234.3125 316.140625 C 229.316406 316.007812 222.921875 316.226562 221.082031 315.308594 C 220.46875 314.957031 220.246094 314.5625 220.074219 314.125 C 219.941406 313.640625 219.941406 312.984375 220.117188 312.546875 C 220.292969 312.109375 220.816406 311.628906 221.167969 311.40625 C 221.519531 311.234375 222.21875 311.1875 222.21875 311.1875 "/></clipPath><clipPath id="c65c5b502f"><path d="M 251.164062 309.636719 L 284.550781 309.636719 L 284.550781 316.105469 L 251.164062 316.105469 Z M 251.164062 309.636719 "/></clipPath><clipPath id="808ef2f3dc"><path d="M 253.328125 311.582031 C 267.832031 311.011719 274.625 310.09375 277.253906 309.917969 C 278.347656 309.832031 279.003906 309.65625 279.574219 309.832031 C 280.011719 309.960938 280.144531 310.53125 280.539062 310.574219 C 281.019531 310.621094 281.722656 309.613281 282.335938 309.65625 C 282.949219 309.65625 283.78125 310.179688 284.132812 310.621094 C 284.4375 310.96875 284.570312 311.496094 284.527344 311.976562 C 284.4375 312.503906 283.914062 313.378906 283.429688 313.730469 C 283.035156 313.992188 282.511719 314.035156 282.074219 313.992188 C 281.632812 313.949219 281.109375 313.730469 280.800781 313.421875 C 280.496094 313.117188 280.1875 312.636719 280.144531 312.152344 C 280.101562 311.582031 280.40625 310.621094 280.84375 310.226562 C 281.285156 309.832031 282.246094 309.613281 282.816406 309.699219 C 283.253906 309.742188 283.738281 310.09375 284 310.398438 C 284.308594 310.75 284.484375 311.277344 284.527344 311.714844 C 284.527344 312.152344 284.484375 312.722656 284.132812 313.074219 C 283.429688 313.730469 281.589844 313.863281 279.617188 314.210938 C 275.894531 314.824219 268.226562 315.4375 263.449219 315.703125 C 259.683594 315.921875 255.167969 316.273438 253.328125 315.964844 C 252.628906 315.832031 252.234375 315.746094 251.882812 315.394531 C 251.488281 315 251.136719 314.082031 251.183594 313.511719 C 251.183594 312.984375 251.53125 312.460938 251.882812 312.109375 C 252.234375 311.800781 253.328125 311.582031 253.328125 311.582031 "/></clipPath><clipPath id="236a9de349"><path d="M 275.828125 301.132812 L 324.351562 301.132812 L 324.351562 314.429688 L 275.828125 314.429688 Z M 275.828125 301.132812 "/></clipPath><clipPath id="099d67dcf5"><path d="M 278.085938 309.917969 C 290.265625 309.347656 296.839844 308.648438 301.878906 307.726562 C 306.566406 306.894531 311.691406 305.800781 315.285156 304.484375 C 317.871094 303.519531 320.28125 301.460938 321.726562 301.242188 C 322.382812 301.15625 322.820312 301.242188 323.257812 301.503906 C 323.652344 301.769531 324.046875 302.25 324.222656 302.730469 C 324.355469 303.171875 324.355469 303.828125 324.136719 304.265625 C 323.960938 304.703125 323.523438 305.1875 323.039062 305.359375 C 322.558594 305.582031 321.859375 305.667969 321.332031 305.449219 C 320.804688 305.1875 320.191406 304.441406 320.015625 303.871094 C 319.84375 303.433594 319.929688 302.90625 320.148438 302.511719 C 320.410156 301.988281 321.15625 301.332031 321.769531 301.242188 C 322.339844 301.109375 323.257812 301.503906 323.699219 301.855469 C 324.046875 302.164062 324.3125 302.644531 324.3125 303.125 C 324.3125 303.695312 323.960938 304.660156 323.566406 305.054688 C 323.257812 305.359375 322.734375 305.535156 322.296875 305.582031 C 321.8125 305.625 321.289062 305.492188 320.9375 305.230469 C 320.457031 304.878906 319.972656 303.960938 319.929688 303.433594 C 319.886719 302.953125 320.0625 302.425781 320.367188 302.074219 C 320.761719 301.636719 322.253906 301.285156 322.207031 301.199219 C 322.207031 301.15625 321.199219 301.375 321.199219 301.417969 C 321.199219 301.460938 322.734375 301.242188 323.257812 301.503906 C 323.699219 301.722656 324.046875 302.292969 324.222656 302.730469 C 324.355469 303.082031 324.355469 303.390625 324.3125 303.785156 C 324.179688 304.179688 323.875 304.703125 323.480469 305.097656 C 323.039062 305.625 322.472656 306.019531 321.507812 306.542969 C 319.667969 307.550781 315.765625 308.910156 312.789062 309.832031 C 309.851562 310.664062 307.355469 311.1875 303.847656 311.800781 C 298.941406 312.679688 290.835938 313.6875 286.058594 314.035156 C 282.859375 314.300781 279.664062 314.5625 278.085938 314.300781 C 277.382812 314.167969 276.988281 314.125 276.59375 313.730469 C 276.199219 313.335938 275.851562 312.414062 275.894531 311.847656 C 275.9375 311.320312 276.246094 310.792969 276.59375 310.488281 C 276.988281 310.136719 278.085938 309.917969 278.085938 309.917969 "/></clipPath></defs><g id="14d8f3cc9c"><g clip-rule="nonzero" clip-path="url(#bd060c5879)"><g clip-rule="nonzero" clip-path="url(#79b0736edd)"><path style=" stroke:none;fill-rule:nonzero;fill:currentColor;fill-opacity:1;" d="M 95.113281 141.203125 L 111.535156 141.203125 L 111.535156 267.757812 L 95.113281 267.757812 Z M 95.113281 141.203125 "/></g></g><g clip-rule="nonzero" clip-path="url(#80bbf7b53d)"><g clip-rule="nonzero" clip-path="url(#d2dd3ece96)"><path style=" stroke:none;fill-rule:nonzero;fill:currentColor;fill-opacity:1;" d="M 39.464844 138.324219 L 110.753906 138.324219 L 110.753906 153.484375 L 39.464844 153.484375 Z M 39.464844 138.324219 "/></g></g><g clip-rule="nonzero" clip-path="url(#26489a693a)"><g clip-rule="nonzero" clip-path="url(#a8089a92bb)"><path style=" stroke:none;fill-rule:nonzero;fill:currentColor;fill-opacity:1;" d="M 37.570312 114.253906 L 52.167969 114.253906 L 52.167969 151.65625 L 37.570312 151.65625 Z M 37.570312 114.253906 "/></g></g><g clip-rule="nonzero" clip-path="url(#f43187a23f)"><g clip-rule="nonzero" clip-path="url(#e7ab8a0366)"><path style=" stroke:none;fill-rule:nonzero;fill:currentColor;fill-opacity:1;" d="M 37.5 111.238281 L 108.636719 111.238281 L 108.636719 126.816406 L 37.5 126.816406 Z M 37.5 111.238281 "/></g></g><g clip-rule="nonzero" clip-path="url(#9da0bb41ef)"><g clip-rule="nonzero" clip-path="url(#8559c82b99)"><path style=" stroke:none;fill-rule:nonzero;fill:currentColor;fill-opacity:1;" d="M 95.882812 60.082031 L 109.21875 60.082031 L 109.21875 123.726562 L 95.882812 123.726562 Z M 95.882812 60.082031 "/></g></g><g clip-rule="nonzero" clip-path="url(#d2b599f1e2)"><g clip-rule="nonzero" clip-path="url(#9ff5af25fb)"><path style=" stroke:none;fill-rule:nonzero;fill:currentColor;fill-opacity:1;" d="M 97.710938 57.0625 L 137.210938 57.0625 L 137.210938 72.429688 L 97.710938 72.429688 Z M 97.710938 57.0625 "/></g></g><g clip-rule="nonzero" clip-path="url(#81e65d915e)"><g clip-rule="nonzero" clip-path="url(#e1926cf461)"><path style=" stroke:none;fill-rule:nonzero;fill:currentColor;fill-opacity:1;" d="M 123.535156 58.117188 L 138.761719 58.117188 L 138.761719 122.65625 L 123.535156 122.65625 Z M 123.535156 58.117188 "/></g></g><g clip-rule="nonzero" clip-path="url(#e0b36f69b2)"><g clip-rule="nonzero" clip-path="url(#cba0194fc8)"><path style=" stroke:none;fill-rule:nonzero;fill:currentColor;fill-opacity:1;" d="M 126.128906 109.554688 L 196.320312 109.554688 L 196.320312 124.078125 L 126.128906 124.078125 Z M 126.128906 109.554688 "/></g></g><g clip-rule="nonzero" clip-path="url(#4bc79b535b)"><g clip-rule="nonzero" clip-path="url(#061980399b)"><path style=" stroke:none;fill-rule:nonzero;fill:currentColor;fill-opacity:1;" d="M 183.109375 111.449219 L 199.601562 111.449219 L 199.601562 150.421875 L 183.109375 150.421875 Z M 183.109375 111.449219 "/></g></g><g clip-rule="nonzero" clip-path="url(#9f7fd3c3d0)"><g clip-rule="nonzero" clip-path="url(#2118a51a82)"><path style=" stroke:none;fill-rule:nonzero;fill:currentColor;fill-opacity:1;" d="M 96.09375 255.023438 L 136.015625 255.023438 L 136.015625 268.078125 L 96.09375 268.078125 Z M 96.09375 255.023438 "/></g></g><g clip-rule="nonzero" clip-path="url(#f21df823d7)"><g clip-rule="nonzero" clip-path="url(#e98072cb4c)"><path style=" stroke:none;fill-rule:nonzero;fill:currentColor;fill-opacity:1;" d="M 123.253906 146.183594 L 137.707031 146.183594 L 137.707031 267.648438 L 123.253906 267.648438 Z M 123.253906 146.183594 "/></g></g><g clip-rule="nonzero" clip-path="url(#d23e8895f3)"><g clip-rule="nonzero" clip-path="url(#2ea227a1c2)"><path style=" stroke:none;fill-rule:nonzero;fill:currentColor;fill-opacity:1;" d="M 125.007812 142.535156 L 149.105469 142.535156 L 149.105469 163.445312 L 125.007812 163.445312 Z M 125.007812 142.535156 "/></g></g><g clip-rule="nonzero" clip-path="url(#240106e660)"><g clip-rule="nonzero" clip-path="url(#61e5e83854)"><path style=" stroke:none;fill-rule:nonzero;fill:currentColor;fill-opacity:1;" d="M 136.445312 113.625 L 198.167969 113.625 L 198.167969 155.097656 L 136.445312 155.097656 Z M 136.445312 113.625 "/></g></g><g clip-rule="nonzero" clip-path="url(#6ed9bebb9e)"><g clip-rule="nonzero" clip-path="url(#04854609f4)"><path style=" stroke:none;fill-rule:nonzero;fill:currentColor;fill-opacity:1;" d="M 183.25 112.921875 L 199.953125 112.921875 L 199.953125 154.480469 L 183.25 154.480469 Z M 183.25 112.921875 "/></g></g><g clip-rule="nonzero" clip-path="url(#2e038306d6)"><g clip-rule="nonzero" clip-path="url(#c22c5c13c3)"><path style=" stroke:none;fill-rule:nonzero;fill:currentColor;fill-opacity:1;" d="M 169.773438 251.203125 L 183.179688 251.203125 L 183.179688 308.660156 L 169.773438 308.660156 Z M 169.773438 251.203125 "/></g></g><g clip-rule="nonzero" clip-path="url(#1f49910ed8)"><g clip-rule="nonzero" clip-path="url(#11378d55e6)"><path style=" stroke:none;fill-rule:nonzero;fill:currentColor;fill-opacity:1;" d="M 169.859375 251.203125 L 208.855469 251.203125 L 208.855469 293.09375 L 169.859375 293.09375 Z M 169.859375 251.203125 "/></g></g><g clip-rule="nonzero" clip-path="url(#51c89d7466)"><g clip-rule="nonzero" clip-path="url(#6c70d33c69)"><path style=" stroke:none;fill-rule:nonzero;fill:currentColor;fill-opacity:1;" d="M 201.011719 238.015625 L 235.277344 238.015625 L 235.277344 293.027344 L 201.011719 293.027344 Z M 201.011719 238.015625 "/></g></g><g clip-rule="nonzero" clip-path="url(#9c552c6709)"><g clip-rule="nonzero" clip-path="url(#b5de00d0ea)"><path style=" stroke:none;fill-rule:nonzero;fill:currentColor;fill-opacity:1;" d="M 227.433594 238.015625 L 262.136719 238.015625 L 262.136719 291.289062 L 227.433594 291.289062 Z M 227.433594 238.015625 "/></g></g><g clip-rule="nonzero" clip-path="url(#7d204505fc)"><g clip-rule="nonzero" clip-path="url(#868ec16472)"><path style=" stroke:none;fill-rule:nonzero;fill:currentColor;fill-opacity:1;" d="M 254.25 240.863281 L 284.875 240.863281 L 284.875 291.351562 L 254.25 291.351562 Z M 254.25 240.863281 "/></g></g><g clip-rule="nonzero" clip-path="url(#090b93b505)"><g clip-rule="nonzero" clip-path="url(#a2d1340cf8)"><path style=" stroke:none;fill-rule:nonzero;fill:currentColor;fill-opacity:1;" d="M 277.121094 240.996094 L 308.492188 240.996094 L 308.492188 290.015625 L 277.121094 290.015625 Z M 277.121094 240.996094 "/></g></g><g clip-rule="nonzero" clip-path="url(#7e9f5a9731)"><g clip-rule="nonzero" clip-path="url(#42b58956be)"><path style=" stroke:none;fill-rule:nonzero;fill:currentColor;fill-opacity:1;" d="M 300.519531 251.203125 L 337.5 251.203125 L 337.5 289.917969 L 300.519531 289.917969 Z M 300.519531 251.203125 "/></g></g><g clip-rule="nonzero" clip-path="url(#bb5f402ca1)"><g clip-rule="nonzero" clip-path="url(#b31707b0ae)"><path style=" stroke:none;fill-rule:nonzero;fill:currentColor;fill-opacity:1;" d="M 318.441406 251.25 L 337.5 251.25 L 337.5 306.789062 L 318.441406 306.789062 Z M 318.441406 251.25 "/></g></g><g clip-rule="nonzero" clip-path="url(#01eacd69bb)"><g clip-rule="nonzero" clip-path="url(#2516aeed28)"><path style=" stroke:none;fill-rule:nonzero;fill:currentColor;fill-opacity:1;" d="M 291.710938 249.933594 L 318.703125 249.933594 L 318.703125 277.347656 L 291.710938 277.347656 Z M 291.710938 249.933594 "/></g></g><g clip-rule="nonzero" clip-path="url(#06dae03274)"><g clip-rule="nonzero" clip-path="url(#9d323cf13e)"><path style=" stroke:none;fill-rule:nonzero;fill:currentColor;fill-opacity:1;" d="M 244.523438 250.898438 L 270.402344 250.898438 L 270.402344 275.347656 L 244.523438 275.347656 Z M 244.523438 250.898438 "/></g></g><g clip-rule="nonzero" clip-path="url(#d3bd6fba15)"><g clip-rule="nonzero" clip-path="url(#dd7485cbe4)"><path style=" stroke:none;fill-rule:nonzero;fill:currentColor;fill-opacity:1;" d="M 189.488281 253.175781 L 216.324219 253.175781 L 216.324219 277.800781 L 189.488281 277.800781 Z M 189.488281 253.175781 "/></g></g><g clip-rule="nonzero" clip-path="url(#e39e537a74)"><g clip-rule="nonzero" clip-path="url(#1d21b597e2)"><path style=" stroke:none;fill-rule:nonzero;fill:currentColor;fill-opacity:1;" d="M 175.292969 301.855469 L 227.511719 301.855469 L 227.511719 317.453125 L 175.292969 317.453125 Z M 175.292969 301.855469 "/></g></g><g clip-rule="nonzero" clip-path="url(#4bb2c422d7)"><g clip-rule="nonzero" clip-path="url(#bfea55328a)"><path style=" stroke:none;fill-rule:nonzero;fill:currentColor;fill-opacity:1;" d="M 218.320312 309.4375 L 260.523438 309.4375 L 260.523438 317.9375 L 218.320312 317.9375 Z M 218.320312 309.4375 "/></g></g><g clip-rule="nonzero" clip-path="url(#c65c5b502f)"><g clip-rule="nonzero" clip-path="url(#808ef2f3dc)"><path style=" stroke:none;fill-rule:nonzero;fill:currentColor;fill-opacity:1;" d="M 249.429688 307.902344 L 286.324219 307.902344 L 286.324219 317.761719 L 249.429688 317.761719 Z M 249.429688 307.902344 "/></g></g><g clip-rule="nonzero" clip-path="url(#236a9de349)"><g clip-rule="nonzero" clip-path="url(#099d67dcf5)"><path style=" stroke:none;fill-rule:nonzero;fill:currentColor;fill-opacity:1;" d="M 274.140625 299.445312 L 326.101562 299.445312 L 326.101562 316.050781 L 274.140625 316.050781 Z M 274.140625 299.445312 "/></g></g></g></svg>