<svg xmlns="http://www.w3.org/2000/svg" xmlns:xlink="http://www.w3.org/1999/xlink" width="500" zoomAndPan="magnify" viewBox="0 0 375 374.999991" height="500" preserveAspectRatio="xMidYMid meet" version="1.2"><defs><clipPath id="d054bd708c"><path d="M 99.746094 134.703125 L 111.585938 134.703125 L 111.585938 259.371094 L 99.746094 259.371094 Z M 99.746094 134.703125 "/></clipPath><clipPath id="4654dfe4c8"><path d="M 99.796875 255.730469 C 100.230469 223.027344 101.246094 215.5 101.75 204.359375 C 102.621094 187.066406 101.679688 146.039062 103.703125 138.371094 C 104.210938 136.632812 104.5 135.910156 105.296875 135.332031 C 106.164062 134.824219 107.757812 134.609375 108.695312 134.96875 C 109.636719 135.40625 110.652344 136.632812 110.867188 137.574219 C 111.085938 138.589844 110.652344 140.109375 110 140.832031 C 109.277344 141.554688 107.757812 142.0625 106.742188 141.917969 C 105.804688 141.773438 104.5 140.757812 104.066406 139.890625 C 103.632812 138.949219 103.703125 137.359375 104.210938 136.488281 C 104.789062 135.621094 106.238281 134.898438 107.175781 134.753906 C 107.902344 134.609375 108.769531 134.898438 109.347656 135.332031 C 110.070312 135.984375 110.578125 136.632812 110.941406 138.371094 C 112.820312 146.332031 109.710938 192.277344 108.839844 209.351562 C 108.335938 219.046875 107.46875 224.472656 107.175781 232.144531 C 106.886719 239.957031 107.757812 251.96875 107.03125 255.730469 C 106.816406 257.03125 106.671875 257.539062 106.164062 258.191406 C 105.585938 258.769531 104.644531 259.277344 103.847656 259.347656 C 103.054688 259.421875 102.039062 259.277344 101.390625 258.769531 C 100.664062 258.117188 99.796875 255.730469 99.796875 255.730469 "/></clipPath><clipPath id="91570e10f6"><path d="M 42.394531 131.457031 L 110.160156 131.457031 L 110.160156 141.652344 L 42.394531 141.652344 Z M 42.394531 131.457031 "/></clipPath><clipPath id="23d0e74e18"><path d="M 106.527344 141.628906 C 94.585938 141.335938 84.601562 139.382812 76.066406 139.023438 C 66.371094 138.589844 48.859375 140.832031 44.878906 139.527344 C 43.792969 139.167969 43.433594 138.734375 43 138.152344 C 42.636719 137.574219 42.347656 136.632812 42.421875 135.910156 C 42.421875 135.1875 42.78125 134.320312 43.289062 133.8125 C 43.722656 133.234375 44.519531 132.726562 45.242188 132.582031 C 45.964844 132.4375 46.90625 132.4375 47.558594 132.871094 C 48.351562 133.304688 49.4375 134.535156 49.582031 135.550781 C 49.726562 136.488281 49.148438 138.082031 48.496094 138.734375 C 47.992188 139.3125 47.125 139.671875 46.398438 139.746094 C 45.675781 139.816406 44.808594 139.601562 44.15625 139.238281 C 43.503906 138.878906 42.925781 138.226562 42.636719 137.429688 C 42.421875 136.5625 42.566406 134.898438 43 134.101562 C 43.433594 133.449219 43.941406 133.089844 44.878906 132.726562 C 46.6875 132.003906 50.378906 132.003906 54.140625 131.785156 C 60.074219 131.496094 69.554688 131.351562 77.222656 131.785156 C 84.820312 132.222656 94.515625 134.03125 100.085938 134.390625 C 103.199219 134.609375 105.730469 133.957031 107.394531 134.464844 C 108.40625 134.824219 109.058594 135.261719 109.492188 135.910156 C 110 136.632812 110.214844 137.648438 110.144531 138.445312 C 110 139.238281 109.566406 140.179688 108.914062 140.6875 C 108.335938 141.265625 106.527344 141.628906 106.527344 141.628906 "/></clipPath><clipPath id="eb024446d5"><path d="M 40.394531 106.898438 L 49.683594 106.898438 L 49.683594 139.757812 L 40.394531 139.757812 Z M 40.394531 106.898438 "/></clipPath><clipPath id="cf24315952"><path d="M 42.421875 136.417969 C 40.828125 108.417969 41.191406 108.054688 41.839844 107.621094 C 42.636719 107.113281 44.300781 106.898438 45.167969 107.113281 C 45.964844 107.332031 46.617188 107.980469 47.050781 108.5625 C 47.414062 109.210938 47.703125 110.007812 47.628906 110.804688 C 47.484375 111.746094 46.617188 113.121094 45.820312 113.699219 C 45.167969 114.132812 44.300781 114.277344 43.578125 114.132812 C 42.636719 113.914062 41.261719 112.976562 40.757812 112.179688 C 40.394531 111.527344 40.320312 110.660156 40.464844 109.9375 C 40.539062 109.210938 41.046875 108.34375 41.550781 107.910156 C 42.058594 107.402344 42.925781 107.042969 43.648438 106.96875 C 44.375 106.898438 45.3125 107.113281 45.894531 107.476562 C 46.542969 107.835938 46.976562 108.273438 47.414062 109.285156 C 48.425781 111.960938 47.628906 121.441406 48.136719 126.289062 C 48.496094 129.90625 49.800781 133.667969 49.65625 135.839844 C 49.582031 136.925781 49.4375 137.648438 48.933594 138.296875 C 48.425781 138.949219 47.558594 139.527344 46.761719 139.671875 C 45.820312 139.816406 44.230469 139.382812 43.503906 138.734375 C 42.925781 138.226562 42.421875 136.417969 42.421875 136.417969 "/></clipPath><clipPath id="6c4563c774"><path d="M 40.324219 103.722656 L 108 103.722656 L 108 114.390625 L 40.324219 114.390625 Z M 40.324219 103.722656 "/></clipPath><clipPath id="7cdbdf82c7"><path d="M 44.011719 106.898438 C 82.144531 104.21875 99.582031 103.425781 104.066406 103.859375 C 105.222656 104.003906 105.65625 104.003906 106.308594 104.4375 C 107.03125 105.015625 107.902344 106.460938 107.972656 107.402344 C 108.046875 108.199219 107.683594 108.996094 107.320312 109.574219 C 106.886719 110.226562 106.164062 110.804688 105.441406 110.949219 C 104.5 111.164062 102.835938 110.949219 102.113281 110.296875 C 101.316406 109.71875 100.738281 108.125 100.738281 107.1875 C 100.738281 106.460938 101.171875 105.59375 101.679688 105.089844 C 102.113281 104.507812 102.980469 104.074219 103.703125 103.929688 C 104.355469 103.785156 105.296875 103.929688 105.949219 104.292969 C 106.597656 104.582031 107.320312 105.160156 107.613281 105.882812 C 107.972656 106.753906 107.902344 108.417969 107.46875 109.285156 C 107.175781 110.007812 106.886719 110.371094 105.804688 110.804688 C 101.460938 112.613281 79.25 111.527344 68.105469 112.179688 C 59.132812 112.757812 48.136719 115 44.011719 114.132812 C 42.492188 113.84375 41.625 113.335938 41.046875 112.613281 C 40.539062 111.960938 40.320312 110.875 40.394531 110.082031 C 40.464844 109.285156 40.972656 108.34375 41.625 107.835938 C 42.203125 107.332031 44.011719 106.898438 44.011719 106.898438 "/></clipPath><clipPath id="7986374863"><path d="M 100.546875 51.0625 L 109 51.0625 L 109 111.101562 L 100.546875 111.101562 Z M 100.546875 51.0625 "/></clipPath><clipPath id="32680b4a4f"><path d="M 100.59375 107.476562 C 101.75 52.992188 102.113281 52.339844 102.835938 51.761719 C 103.488281 51.257812 104.355469 51.039062 105.078125 51.113281 C 106.019531 51.257812 107.46875 52.125 107.972656 52.847656 C 108.480469 53.5 108.625 54.367188 108.480469 55.089844 C 108.335938 56.03125 107.46875 57.480469 106.597656 57.914062 C 105.730469 58.417969 104.066406 58.273438 103.199219 57.914062 C 102.472656 57.625 101.894531 56.972656 101.605469 56.25 C 101.316406 55.378906 101.390625 53.714844 101.824219 52.847656 C 102.113281 52.195312 102.910156 51.617188 103.558594 51.328125 C 104.210938 51.113281 105.152344 51.039062 105.875 51.257812 C 106.597656 51.402344 107.320312 51.980469 107.757812 52.558594 C 108.191406 53.136719 108.335938 53.5 108.550781 54.730469 C 109.347656 59.722656 108.914062 84.613281 108.550781 94.597656 C 108.261719 100.675781 108.550781 106.824219 107.394531 109.210938 C 106.886719 110.152344 106.238281 110.585938 105.441406 110.875 C 104.71875 111.164062 103.632812 111.164062 102.910156 110.875 C 102.183594 110.585938 101.390625 109.792969 100.953125 109.210938 C 100.664062 108.632812 100.59375 107.476562 100.59375 107.476562 "/></clipPath><clipPath id="85029a74d3"><path d="M 102.425781 47.890625 L 137.460938 47.890625 L 137.460938 58.042969 L 102.425781 58.042969 Z M 102.425781 47.890625 "/></clipPath><clipPath id="3acbab57b6"><path d="M 105.804688 50.820312 C 123.601562 48.363281 131.054688 47.636719 133.804688 48 C 134.890625 48.144531 135.394531 48.21875 135.976562 48.722656 C 136.699219 49.375 137.421875 50.894531 137.421875 51.835938 C 137.421875 52.558594 137.132812 53.425781 136.554688 53.933594 C 135.902344 54.65625 134.382812 55.234375 133.441406 55.234375 C 132.644531 55.164062 131.851562 54.730469 131.34375 54.222656 C 130.765625 53.714844 130.257812 52.992188 130.257812 52.195312 C 130.1875 51.257812 130.621094 49.664062 131.34375 49.011719 C 132.066406 48.289062 133.660156 47.929688 134.601562 48.074219 C 135.324219 48.21875 136.121094 48.722656 136.554688 49.300781 C 137.058594 49.808594 137.347656 50.675781 137.421875 51.402344 C 137.421875 52.125 137.203125 53.066406 136.769531 53.644531 C 136.410156 54.222656 135.976562 54.65625 134.960938 55.019531 C 132.429688 55.960938 124.6875 55.378906 119.765625 55.886719 C 115.136719 56.394531 108.914062 58.203125 106.238281 57.984375 C 105.078125 57.914062 104.429688 57.769531 103.847656 57.261719 C 103.199219 56.753906 102.621094 55.886719 102.472656 55.089844 C 102.328125 54.148438 102.835938 52.558594 103.488281 51.835938 C 103.992188 51.257812 105.804688 50.820312 105.804688 50.820312 "/></clipPath><clipPath id="1115c6dcf9"><path d="M 129.027344 48.828125 L 139.085938 48.828125 L 139.085938 109.855469 L 129.027344 109.855469 Z M 129.027344 48.828125 "/></clipPath><clipPath id="a50cb74973"><path d="M 136.769531 52.484375 C 136.625 79.765625 138.289062 88.664062 138.578125 95.101562 C 138.796875 99.949219 139.519531 105.738281 138.507812 107.910156 C 138.074219 108.851562 137.277344 109.285156 136.625 109.574219 C 136.046875 109.863281 135.46875 109.863281 134.890625 109.792969 C 134.308594 109.71875 133.730469 109.574219 133.296875 109.210938 C 132.71875 108.707031 131.996094 107.835938 131.851562 107.113281 C 131.632812 106.390625 131.707031 105.59375 131.921875 104.941406 C 132.210938 104.292969 132.71875 103.496094 133.371094 103.132812 C 134.238281 102.699219 135.828125 102.484375 136.769531 102.917969 C 137.710938 103.277344 138.722656 104.582031 138.867188 105.523438 C 139.085938 106.535156 138.578125 108.054688 137.855469 108.777344 C 137.132812 109.5 135.613281 109.9375 134.601562 109.792969 C 133.660156 109.574219 132.355469 108.5625 131.996094 107.621094 C 131.632812 106.679688 131.777344 105.089844 132.285156 104.21875 C 132.863281 103.425781 134.308594 102.699219 135.25 102.628906 C 136.046875 102.484375 136.84375 102.773438 137.421875 103.277344 C 138.144531 103.859375 138.867188 105.304688 138.941406 106.246094 C 139.011719 107.042969 138.578125 107.980469 138.074219 108.632812 C 137.492188 109.210938 136.554688 109.71875 135.757812 109.792969 C 134.960938 109.9375 133.949219 109.644531 133.296875 109.210938 C 132.644531 108.707031 132.210938 108.199219 131.851562 107.113281 C 130.980469 104.582031 131.707031 98.359375 131.273438 93.582031 C 130.910156 88.230469 129.609375 81.789062 129.246094 76.652344 C 128.957031 72.382812 129.027344 69.054688 129.101562 65.003906 C 129.171875 60.515625 128.8125 53.136719 129.96875 50.75 C 130.402344 49.808594 131.125 49.375 131.851562 49.085938 C 132.574219 48.796875 133.660156 48.796875 134.457031 49.085938 C 135.179688 49.375 135.976562 50.171875 136.335938 50.75 C 136.625 51.328125 136.769531 52.484375 136.769531 52.484375 "/></clipPath><clipPath id="46165afcd0"><path d="M 131.691406 102 L 198.445312 102 L 198.445312 111.6875 L 131.691406 111.6875 Z M 131.691406 102 "/></clipPath><clipPath id="add57827f5"><path d="M 138.21875 103.425781 C 139.664062 104.652344 140.679688 103.785156 142.632812 103.570312 C 150.011719 102.84375 190.167969 101.542969 196.101562 104.292969 C 197.621094 105.015625 198.054688 106.027344 198.273438 106.898438 C 198.5625 107.621094 198.34375 108.5625 198.054688 109.210938 C 197.765625 109.863281 197.113281 110.515625 196.464844 110.875 C 195.8125 111.238281 194.945312 111.457031 194.21875 111.238281 C 193.28125 111.019531 191.90625 110.082031 191.472656 109.210938 C 191.109375 108.273438 191.179688 106.679688 191.6875 105.8125 C 192.195312 104.941406 193.570312 104.148438 194.582031 104.074219 C 195.59375 104.003906 197.042969 104.652344 197.621094 105.449219 C 198.273438 106.246094 198.417969 107.910156 198.199219 108.851562 C 198.054688 109.574219 197.402344 110.226562 196.824219 110.660156 C 196.171875 111.09375 195.8125 111.09375 194.582031 111.308594 C 188.503906 112.105469 147.480469 111.382812 139.882812 111.238281 C 137.929688 111.164062 137.277344 111.457031 136.121094 111.019531 C 134.960938 110.585938 133.804688 109.574219 133.082031 108.632812 C 132.429688 107.910156 131.851562 106.96875 131.777344 106.101562 C 131.632812 105.304688 131.851562 104.292969 132.285156 103.640625 C 132.71875 102.917969 133.585938 102.339844 134.382812 102.121094 C 135.179688 101.90625 136.265625 102.050781 136.914062 102.339844 C 137.496094 102.554688 138.21875 103.425781 138.21875 103.425781 "/></clipPath><clipPath id="b0155cbd8c"><path d="M 190.425781 104.035156 L 201.785156 104.035156 L 201.785156 138.507812 L 190.425781 138.507812 Z M 190.425781 104.035156 "/></clipPath><clipPath id="5956b48918"><path d="M 197.765625 107.476562 C 200.804688 129.976562 199.355469 130.703125 199.503906 131.425781 C 199.574219 132.078125 200.875 132.292969 201.238281 132.945312 C 201.601562 133.597656 201.816406 134.464844 201.746094 135.1875 C 201.671875 135.910156 201.3125 136.78125 200.730469 137.285156 C 200.082031 137.9375 198.488281 138.445312 197.546875 138.371094 C 196.753906 138.296875 196.027344 137.792969 195.523438 137.285156 C 195.015625 136.78125 194.582031 135.910156 194.507812 135.1875 C 194.4375 134.464844 194.582031 133.597656 195.015625 132.945312 C 195.59375 132.148438 196.96875 131.28125 197.910156 131.207031 C 198.921875 131.136719 200.371094 131.929688 201.023438 132.65625 C 201.527344 133.234375 201.816406 134.03125 201.746094 134.824219 C 201.671875 135.765625 200.875 137.214844 200.152344 137.792969 C 199.574219 138.296875 198.5625 138.371094 197.910156 138.445312 C 197.476562 138.445312 197.1875 138.445312 196.753906 138.152344 C 195.957031 137.503906 194.945312 135.476562 194.148438 133.089844 C 192.484375 127.953125 189.878906 112.105469 190.53125 107.835938 C 190.746094 106.316406 191.253906 105.449219 191.976562 104.796875 C 192.628906 104.292969 193.640625 104.003906 194.4375 104.074219 C 195.234375 104.148438 196.171875 104.582031 196.753906 105.160156 C 197.332031 105.738281 197.765625 107.476562 197.765625 107.476562 "/></clipPath><clipPath id="4024d673a3"><path d="M 100.753906 252.058594 L 136.1875 252.058594 L 136.1875 260.46875 L 100.753906 260.46875 Z M 100.753906 252.058594 "/></clipPath><clipPath id="9c30881998"><path d="M 104.429688 252.546875 C 135.105469 252.835938 135.683594 253.847656 136.046875 254.71875 C 136.265625 255.441406 136.191406 256.308594 135.902344 257.03125 C 135.613281 257.683594 135.035156 258.40625 134.382812 258.769531 C 133.804688 259.132812 132.9375 259.421875 132.140625 259.277344 C 131.199219 259.132812 129.824219 258.191406 129.316406 257.394531 C 128.882812 256.742188 128.8125 255.804688 128.957031 255.078125 C 129.101562 254.355469 129.460938 253.558594 130.042969 253.054688 C 130.765625 252.472656 132.355469 252.039062 133.296875 252.113281 C 134.09375 252.257812 134.816406 252.765625 135.324219 253.34375 C 135.757812 253.921875 136.121094 254.789062 136.121094 255.511719 C 136.191406 256.238281 136.046875 257.105469 135.539062 257.683594 C 134.960938 258.40625 134.09375 258.914062 132.5 259.277344 C 128.015625 260.503906 108.914062 260.867188 104.429688 259.78125 C 102.835938 259.421875 102.039062 258.988281 101.460938 258.261719 C 100.882812 257.613281 100.738281 256.527344 100.808594 255.730469 C 100.882812 254.933594 101.390625 253.992188 102.039062 253.488281 C 102.621094 252.980469 104.429688 252.546875 104.429688 252.546875 "/></clipPath><clipPath id="5ed9d1771b"><path d="M 128.769531 139.734375 L 138.726562 139.734375 L 138.726562 259.324219 L 128.769531 259.324219 Z M 128.769531 139.734375 "/></clipPath><clipPath id="b488716eef"><path d="M 128.8125 255.65625 C 129.316406 178.167969 128.378906 155.808594 130.402344 146.980469 C 131.199219 143.507812 132.355469 140.613281 133.660156 139.890625 C 134.3125 139.527344 135.25 139.890625 135.902344 140.253906 C 136.699219 140.757812 137.710938 142.0625 137.855469 143.074219 C 138 144.085938 137.277344 145.535156 136.625 146.257812 C 136.121094 146.765625 135.25 147.125 134.527344 147.125 C 133.585938 147.054688 132.066406 146.402344 131.417969 145.679688 C 130.910156 145.101562 130.621094 144.230469 130.621094 143.507812 C 130.621094 142.785156 130.835938 141.917969 131.34375 141.335938 C 131.996094 140.613281 133.441406 139.816406 134.457031 139.890625 C 135.394531 139.890625 136.769531 140.832031 137.347656 141.628906 C 137.785156 142.207031 137.929688 143.148438 137.855469 143.871094 C 137.785156 144.59375 137.421875 145.390625 136.914062 145.96875 C 136.410156 146.476562 134.890625 146.980469 134.890625 147.054688 C 134.890625 147.125 136.914062 145.605469 137.640625 146.183594 C 140.605469 148.355469 136.554688 177.949219 136.335938 195.097656 C 135.976562 214.199219 137.277344 249 136.046875 255.65625 C 135.828125 257.03125 135.683594 257.46875 135.105469 258.046875 C 134.601562 258.695312 133.660156 259.203125 132.863281 259.277344 C 132.066406 259.347656 131.054688 259.203125 130.402344 258.625 C 129.609375 258.046875 128.8125 255.65625 128.8125 255.65625 "/></clipPath><clipPath id="e7675e5f32"><path d="M 130.589844 135.761719 L 149.710938 135.761719 L 149.710938 151.847656 L 130.589844 151.847656 Z M 130.589844 135.761719 "/></clipPath><clipPath id="adfafc565b"><path d="M 130.621094 147.921875 C 131.34375 140.6875 131.851562 139.457031 132.71875 138.515625 C 133.515625 137.574219 134.527344 136.851562 136.046875 136.417969 C 138.578125 135.621094 145.089844 135.550781 147.191406 136.273438 C 148.128906 136.5625 148.636719 137.070312 149 137.648438 C 149.433594 138.226562 149.722656 139.09375 149.648438 139.890625 C 149.503906 140.757812 148.710938 142.277344 147.914062 142.785156 C 147.046875 143.292969 145.378906 143.363281 144.511719 142.929688 C 143.570312 142.496094 142.632812 141.265625 142.488281 140.253906 C 142.269531 139.238281 142.777344 137.71875 143.570312 137.070312 C 144.296875 136.34375 145.886719 135.984375 146.828125 136.128906 C 147.550781 136.273438 148.273438 136.78125 148.78125 137.359375 C 149.289062 137.863281 149.578125 138.734375 149.648438 139.457031 C 149.648438 140.179688 149.433594 141.121094 149 141.699219 C 148.636719 142.277344 148.128906 142.710938 147.191406 143.074219 C 145.378906 143.796875 139.449219 142.351562 138 143.796875 C 136.914062 144.882812 138.21875 148.066406 137.640625 149.367188 C 137.277344 150.308594 136.625 150.960938 136.046875 151.394531 C 135.539062 151.683594 134.960938 151.828125 134.382812 151.828125 C 133.585938 151.828125 132.5 151.613281 131.921875 151.035156 C 131.199219 150.382812 130.621094 147.921875 130.621094 147.921875 "/></clipPath><clipPath id="98dd3f560c"><path d="M 142.359375 106.261719 L 200.488281 106.261719 L 200.488281 143.511719 L 142.359375 143.511719 Z M 142.359375 106.261719 "/></clipPath><clipPath id="c0753e7f3a"><path d="M 146.03125 136.054688 C 166.796875 134.609375 188.433594 137.214844 191.976562 134.535156 C 193.136719 133.597656 192.773438 132.65625 192.988281 130.917969 C 193.496094 126.722656 191.253906 112.035156 192.265625 108.777344 C 192.554688 107.765625 192.988281 107.332031 193.640625 106.96875 C 194.4375 106.460938 196.101562 106.316406 197.042969 106.609375 C 197.765625 106.824219 198.417969 107.476562 198.777344 108.054688 C 199.140625 108.707031 199.355469 109.644531 199.285156 110.371094 C 199.210938 111.09375 198.777344 111.890625 198.273438 112.46875 C 197.839844 112.976562 197.042969 113.480469 196.246094 113.480469 C 195.304688 113.625 193.785156 113.046875 193.0625 112.46875 C 192.484375 111.890625 192.195312 111.09375 192.050781 110.371094 C 191.976562 109.574219 192.121094 108.707031 192.554688 108.054688 C 193.136719 107.332031 194.582031 106.460938 195.449219 106.316406 C 196.246094 106.246094 197.113281 106.535156 197.691406 106.96875 C 198.34375 107.332031 198.707031 107.765625 199.140625 108.777344 C 200.082031 111.308594 199.9375 119.195312 200.082031 123.898438 C 200.226562 127.953125 200.515625 132.511719 200.226562 135.261719 C 200.007812 136.851562 200.007812 137.9375 199.355469 138.949219 C 198.777344 140.035156 198.273438 140.832031 196.609375 141.480469 C 191.253906 143.652344 167.882812 141.773438 158.621094 142.277344 C 153.265625 142.496094 148.710938 143.871094 146.03125 143.292969 C 144.65625 143 143.644531 142.496094 143.066406 141.699219 C 142.558594 141.046875 142.34375 140.035156 142.414062 139.238281 C 142.558594 138.445312 142.992188 137.503906 143.644531 136.925781 C 144.222656 136.417969 146.03125 136.054688 146.03125 136.054688 "/></clipPath><clipPath id="e0597b75f6"><path d="M 190.605469 105.527344 L 202.511719 105.527344 L 202.511719 142.589844 L 190.605469 142.589844 Z M 190.605469 105.527344 "/></clipPath><clipPath id="0609b1d3ee"><path d="M 199.648438 109.210938 C 200.296875 122.886719 201.671875 126.9375 202.035156 130.339844 C 202.324219 133.160156 202.757812 136.273438 202.105469 138.152344 C 201.671875 139.527344 200.875 140.46875 199.71875 141.191406 C 198.273438 142.0625 195.234375 142.710938 193.785156 142.566406 C 192.84375 142.421875 192.195312 141.988281 191.6875 141.484375 C 191.179688 140.976562 190.820312 140.109375 190.746094 139.382812 C 190.601562 138.660156 190.820312 137.792969 191.179688 137.140625 C 191.542969 136.488281 192.265625 135.910156 192.917969 135.621094 C 193.640625 135.332031 194.507812 135.261719 195.234375 135.476562 C 196.101562 135.765625 197.402344 136.851562 197.691406 137.792969 C 198.054688 138.734375 197.839844 140.324219 197.1875 141.121094 C 196.609375 141.917969 195.160156 142.640625 194.148438 142.566406 C 193.136719 142.566406 191.761719 141.628906 191.253906 140.902344 C 190.746094 140.253906 190.601562 139.382812 190.675781 138.660156 C 190.746094 137.9375 191.109375 137.214844 191.6875 136.488281 C 192.410156 135.550781 194.4375 135.332031 195.015625 133.8125 C 196.101562 130.992188 193.0625 123.539062 192.628906 119.050781 C 192.339844 115.21875 191.832031 110.515625 192.484375 108.34375 C 192.84375 107.332031 193.28125 106.679688 193.929688 106.246094 C 194.582031 105.8125 195.667969 105.523438 196.464844 105.59375 C 197.257812 105.738281 198.199219 106.246094 198.707031 106.824219 C 199.285156 107.402344 199.648438 109.210938 199.648438 109.210938 "/></clipPath><clipPath id="bed992a5f8"><path d="M 219.800781 295.113281 L 269.386719 295.113281 L 269.386719 327 L 219.800781 327 Z M 219.800781 295.113281 "/></clipPath><clipPath id="a917ccff63"><path d="M 229.402344 299.722656 C 227.160156 309.632812 227.015625 310.648438 227.304688 311.804688 C 227.59375 312.964844 228.101562 314.191406 229.113281 315.0625 C 230.632812 316.4375 233.597656 317.304688 236.277344 318.027344 C 239.605469 318.894531 244.164062 319.113281 247.5625 319.332031 C 250.386719 319.546875 252.554688 319.765625 255.378906 319.546875 C 258.777344 319.402344 264.277344 317.59375 266.449219 318.027344 C 267.386719 318.246094 267.96875 318.605469 268.402344 319.257812 C 268.980469 319.980469 269.414062 321.574219 269.195312 322.515625 C 268.90625 323.527344 267.75 324.613281 266.882812 325.046875 C 266.160156 325.335938 265.21875 325.261719 264.566406 325.046875 C 263.84375 324.828125 263.121094 324.324219 262.683594 323.671875 C 262.25 322.804688 262.035156 321.140625 262.324219 320.269531 C 262.539062 319.546875 263.191406 318.894531 263.769531 318.535156 C 264.421875 318.101562 265.289062 317.882812 266.011719 318.027344 C 266.953125 318.171875 268.328125 319.113281 268.835938 319.910156 C 269.269531 320.558594 269.34375 321.429688 269.269531 322.152344 C 269.125 322.875 268.90625 323.597656 268.183594 324.179688 C 266.664062 325.40625 262.46875 326.347656 258.996094 326.710938 C 254.582031 327.289062 247.851562 326.566406 243.582031 326.203125 C 240.542969 325.988281 238.300781 325.769531 235.769531 325.261719 C 233.238281 324.757812 230.632812 324.25 228.390625 323.019531 C 226.074219 321.789062 223.46875 319.691406 222.023438 318.027344 C 221.007812 316.796875 220.503906 315.785156 220.140625 314.265625 C 219.632812 312.238281 219.777344 309.273438 220.066406 306.667969 C 220.429688 303.847656 221.515625 299.867188 222.382812 297.984375 C 222.816406 296.972656 223.179688 296.320312 223.832031 295.886719 C 224.480469 295.378906 225.566406 295.234375 226.363281 295.234375 C 226.941406 295.308594 227.519531 295.527344 227.953125 295.886719 C 228.390625 296.175781 228.824219 296.609375 229.113281 297.191406 C 229.402344 297.839844 229.402344 299.722656 229.402344 299.722656 "/></clipPath><clipPath id="d6874b860e"><path d="M 128.847656 284.675781 L 170.558594 284.675781 L 170.558594 327.125 L 128.847656 327.125 Z M 128.847656 284.675781 "/></clipPath><clipPath id="8d2b640418"><path d="M 161.027344 292.777344 C 134.761719 292.050781 133.242188 289.953125 133.386719 289.664062 C 133.53125 289.449219 135.847656 290.027344 137.003906 290.824219 C 138.597656 292.050781 139.320312 295.234375 141.347656 297.40625 C 144.167969 300.519531 150.027344 302.976562 153.210938 306.742188 C 156.46875 310.574219 160.882812 320.34375 160.738281 320.488281 C 160.664062 320.488281 158.929688 318.824219 158.710938 317.449219 C 158.277344 314.988281 161.171875 309.996094 161.96875 306.449219 C 162.691406 303.121094 162.546875 298.636719 163.34375 296.683594 C 163.777344 295.816406 164.136719 295.308594 164.789062 294.875 C 165.367188 294.441406 166.238281 294.152344 166.960938 294.222656 C 167.902344 294.367188 169.347656 295.164062 169.855469 296.03125 C 170.433594 296.828125 170.503906 298.492188 170.070312 299.359375 C 169.636719 300.300781 168.335938 301.242188 167.394531 301.457031 C 166.382812 301.601562 164.863281 301.097656 164.136719 300.375 C 163.488281 299.648438 163.054688 298.058594 163.269531 297.117188 C 163.488281 296.105469 164.574219 294.945312 165.441406 294.511719 C 166.164062 294.152344 167.03125 294.152344 167.757812 294.367188 C 168.480469 294.585938 169.203125 295.089844 169.636719 295.671875 C 170.070312 296.25 170.289062 296.972656 170.433594 297.839844 C 170.578125 299.359375 170.289062 301.3125 169.855469 303.847656 C 169.058594 308.332031 166.527344 318.824219 165.007812 322.585938 C 164.355469 324.324219 164.066406 325.40625 162.980469 326.203125 C 161.824219 327 159.578125 327.289062 158.132812 327 C 156.902344 326.78125 155.816406 325.84375 154.949219 325.046875 C 154.007812 324.179688 153.574219 323.382812 152.777344 322.007812 C 151.332031 319.621094 150.246094 314.554688 147.714844 311.371094 C 144.820312 307.753906 138.8125 304.929688 135.847656 302.039062 C 133.75 300.082031 132.230469 298.203125 131 296.464844 C 130.058594 295.089844 129.191406 293.933594 128.972656 292.703125 C 128.757812 291.546875 129.046875 290.171875 129.550781 289.085938 C 130.132812 287.855469 130.78125 286.625 132.519531 285.902344 C 136.933594 283.875 156.539062 284.890625 160.808594 285.539062 C 162.113281 285.757812 162.617188 285.902344 163.199219 286.410156 C 163.847656 286.914062 164.425781 287.785156 164.5 288.652344 C 164.574219 289.59375 164.066406 291.113281 163.414062 291.835938 C 162.835938 292.414062 161.027344 292.777344 161.027344 292.777344 "/></clipPath><clipPath id="c9979c5608"><path d="M 159.269531 243.679688 L 188.769531 243.679688 L 188.769531 301.050781 L 159.269531 301.050781 Z M 159.269531 243.679688 "/></clipPath><clipPath id="d2231d16fe"><path d="M 168.914062 301.023438 C 163.054688 298.417969 162.257812 297.480469 161.535156 296.464844 C 160.738281 295.453125 159.941406 294.367188 159.652344 293.136719 C 159.289062 291.835938 159.144531 290.386719 159.578125 288.867188 C 160.160156 286.84375 161.96875 285.46875 163.777344 282.355469 C 167.902344 275.121094 178.175781 248.929688 182.445312 244.949219 C 183.675781 243.863281 184.613281 243.574219 185.628906 243.71875 C 186.566406 243.792969 187.941406 244.734375 188.378906 245.601562 C 188.882812 246.46875 188.882812 248.132812 188.449219 249 C 187.941406 249.871094 186.640625 250.808594 185.628906 250.882812 C 184.613281 251.027344 183.09375 250.449219 182.445312 249.652344 C 181.792969 248.929688 181.574219 247.265625 181.71875 246.324219 C 181.863281 245.601562 182.445312 244.878906 183.023438 244.441406 C 183.601562 244.007812 184.398438 243.648438 185.195312 243.71875 C 186.132812 243.792969 187.652344 244.441406 188.230469 245.238281 C 188.738281 246.105469 188.882812 246.976562 188.59375 248.640625 C 187.582031 254.355469 174.917969 277.726562 170.722656 284.746094 C 168.914062 287.785156 166.238281 289.449219 166.382812 291.039062 C 166.453125 292.125 168.046875 293.066406 168.984375 293.714844 C 169.855469 294.222656 171.15625 294.078125 171.808594 294.65625 C 172.457031 295.164062 173.039062 296.03125 173.183594 296.828125 C 173.253906 297.769531 172.820312 299.359375 172.167969 300.011719 C 171.445312 300.734375 168.914062 301.023438 168.914062 301.023438 "/></clipPath><clipPath id="e1fb8283bf"><path d="M 181.640625 214.171875 L 259.652344 214.171875 L 259.652344 251.105469 L 181.640625 251.105469 Z M 181.640625 214.171875 "/></clipPath><clipPath id="146834daaa"><path d="M 181.71875 246.542969 C 187.363281 235.183594 190.1875 231.347656 192.644531 228.886719 C 194.597656 227.003906 196.261719 226.066406 198.722656 224.546875 C 202.269531 222.375 207.40625 219.335938 212.109375 217.746094 C 216.8125 216.078125 222.09375 215.355469 227.085938 214.851562 C 232.078125 214.269531 237.433594 214.054688 242.0625 214.414062 C 246.117188 214.777344 250.3125 215.285156 253.351562 216.585938 C 255.8125 217.671875 258.851562 219.625 259.429688 221 C 259.792969 221.796875 259.429688 222.664062 259.140625 223.316406 C 258.777344 223.964844 258.199219 224.691406 257.476562 224.980469 C 256.609375 225.269531 254.941406 225.269531 254.074219 224.835938 C 253.425781 224.546875 252.84375 223.820312 252.554688 223.171875 C 252.265625 222.449219 252.121094 221.578125 252.339844 220.855469 C 252.699219 219.914062 253.785156 218.683594 254.652344 218.324219 C 255.304688 217.960938 256.246094 218.035156 256.96875 218.25 C 257.621094 218.46875 258.417969 218.972656 258.851562 219.625 C 259.285156 220.421875 259.5 222.085938 259.285156 222.953125 C 259.066406 223.675781 258.417969 224.402344 257.835938 224.761719 C 257.1875 225.125 256.316406 225.414062 255.59375 225.339844 C 254.871094 225.269531 254.003906 224.90625 253.496094 224.402344 C 252.917969 223.894531 252.554688 222.375 252.339844 222.375 C 252.195312 222.449219 252.554688 223.53125 252.195312 223.820312 C 251.109375 224.617188 244.597656 221.941406 241.195312 221.652344 C 238.375 221.363281 236.492188 221.363281 233.308594 221.652344 C 228.316406 222.011719 219.128906 223.171875 214.425781 224.617188 C 211.457031 225.484375 209.867188 226.570312 207.332031 227.945312 C 204.367188 229.539062 200.605469 231.347656 197.929688 233.878906 C 195.105469 236.484375 192.71875 240.246094 190.835938 243.285156 C 189.316406 245.746094 188.449219 249.363281 187.292969 250.375 C 186.710938 250.882812 186.277344 250.953125 185.628906 251.027344 C 184.902344 251.027344 183.746094 250.738281 183.167969 250.375 C 182.660156 250.085938 182.226562 249.652344 182.011719 249.074219 C 181.71875 248.421875 181.71875 246.542969 181.71875 246.542969 "/></clipPath><clipPath id="c9dd4a1f0d"><path d="M 224.078125 218.011719 L 260.824219 218.011719 L 260.824219 279.308594 L 224.078125 279.308594 Z M 224.078125 218.011719 "/></clipPath><clipPath id="045f609156"><path d="M 259.429688 220.929688 C 260.804688 227.511719 260.804688 228.667969 260.515625 230.480469 C 260.007812 233.371094 258.199219 238.21875 256.96875 241.332031 C 255.957031 243.863281 255.234375 245.382812 253.785156 247.988281 C 251.324219 252.328125 246.332031 259.636719 243.003906 264.195312 C 240.398438 267.742188 237.503906 271.214844 235.550781 273.242188 C 234.46875 274.398438 233.671875 275.339844 232.875 275.773438 C 232.367188 275.988281 231.933594 275.628906 231.5 275.917969 C 230.847656 276.351562 230.414062 278.234375 229.621094 278.738281 C 228.96875 279.171875 228.101562 279.246094 227.375 279.171875 C 226.652344 279.027344 225.855469 278.59375 225.351562 278.089844 C 224.84375 277.582031 224.335938 276.785156 224.335938 275.988281 C 224.265625 275.050781 224.769531 273.457031 225.566406 272.804688 C 226.289062 272.15625 227.882812 271.792969 228.894531 272.082031 C 229.835938 272.300781 230.992188 273.53125 231.355469 274.398438 C 231.644531 275.121094 231.644531 275.988281 231.355469 276.714844 C 230.992188 277.582031 229.765625 278.738281 228.894531 279.027344 C 228.171875 279.316406 227.304688 279.246094 226.582031 278.957031 C 225.785156 278.523438 224.699219 277.074219 224.410156 276.351562 C 224.191406 275.917969 224.121094 275.773438 224.335938 275.195312 C 225.0625 273.023438 232.441406 266.292969 236.347656 261.15625 C 240.617188 255.367188 245.753906 247.699219 248.648438 242.054688 C 250.746094 238.003906 252.339844 234.746094 253.0625 230.914062 C 253.640625 227.296875 251.832031 221.867188 252.699219 219.914062 C 253.132812 218.972656 254.003906 218.539062 254.726562 218.324219 C 255.234375 218.035156 255.8125 218.035156 256.460938 218.105469 C 257.1875 218.324219 258.125 218.828125 258.632812 219.410156 C 259.066406 219.84375 259.429688 220.929688 259.429688 220.929688 "/></clipPath><clipPath id="ddd0bf856a"><path d="M 165.578125 264.769531 L 238.949219 264.769531 L 238.949219 301.703125 L 165.578125 301.703125 Z M 165.578125 264.769531 "/></clipPath><clipPath id="c3d9273271"><path d="M 169.273438 294.152344 C 181.214844 293.714844 182.804688 293.210938 185.773438 292.34375 C 191.199219 290.894531 202.269531 287.855469 208.058594 285.179688 C 212.109375 283.226562 214.351562 281.5625 217.898438 278.882812 C 222.527344 275.410156 230.199219 267.234375 233.164062 265.570312 C 234.105469 264.992188 234.613281 264.847656 235.335938 264.847656 C 236.058594 264.847656 236.925781 265.136719 237.503906 265.570312 C 238.085938 266.003906 238.664062 266.726562 238.808594 267.453125 C 238.953125 268.390625 238.589844 270.058594 238.011719 270.78125 C 237.578125 271.429688 236.78125 271.792969 236.058594 271.9375 C 235.335938 272.15625 234.46875 272.082031 233.742188 271.722656 C 232.949219 271.214844 231.933594 269.910156 231.71875 268.972656 C 231.574219 268.246094 231.789062 267.378906 232.152344 266.726562 C 232.441406 266.078125 233.09375 265.425781 233.816406 265.136719 C 234.683594 264.847656 236.347656 264.847656 237.214844 265.355469 C 238.011719 265.859375 238.878906 267.164062 238.878906 268.246094 C 238.953125 269.621094 237.867188 271.140625 236.421875 272.878906 C 233.671875 276.277344 226.363281 281.851562 221.371094 285.324219 C 216.957031 288.433594 213.121094 290.824219 208.203125 292.992188 C 202.558594 295.378906 194.816406 297.40625 189.390625 298.855469 C 185.339844 299.9375 182.011719 300.953125 178.535156 301.3125 C 175.351562 301.675781 171.300781 301.746094 169.273438 301.386719 C 168.191406 301.167969 167.464844 301.023438 166.816406 300.519531 C 166.238281 299.9375 165.800781 298.925781 165.65625 298.203125 C 165.511719 297.625 165.65625 297.046875 165.875 296.464844 C 166.089844 295.960938 166.382812 295.453125 166.816406 295.089844 C 167.394531 294.585938 169.273438 294.152344 169.273438 294.152344 "/></clipPath><clipPath id="4ca7b649b0"><path d="M 262 257.652344 L 335 257.652344 L 335 325.507812 L 262 325.507812 Z M 262 257.652344 "/></clipPath><clipPath id="5b6380a2d2"><path d="M 265.652344 317.957031 C 280.628906 313.976562 290.109375 308.984375 296.332031 305.582031 C 301.324219 302.761719 305.734375 300.15625 309.570312 297.261719 C 312.898438 294.875 315.792969 292.269531 318.179688 289.808594 C 320.136719 287.855469 321.65625 286.046875 323.101562 283.875 C 324.476562 281.777344 325.996094 279.460938 326.71875 277.074219 C 327.371094 274.757812 327.730469 272.15625 327.371094 269.695312 C 326.863281 267.019531 323.824219 263.761719 323.753906 261.734375 C 323.753906 260.433594 324.332031 259.203125 324.984375 258.550781 C 325.5625 257.972656 326.355469 257.683594 327.152344 257.683594 C 328.09375 257.683594 329.613281 258.335938 330.191406 259.058594 C 330.769531 259.636719 330.988281 260.507812 330.988281 261.230469 C 330.988281 261.953125 330.769531 262.820312 330.265625 263.398438 C 329.6875 264.125 328.238281 264.917969 327.226562 264.917969 C 326.210938 264.847656 324.839844 264.050781 324.332031 263.183594 C 323.753906 262.316406 323.753906 260.722656 324.042969 259.78125 C 324.332031 259.058594 324.984375 258.480469 325.632812 258.117188 C 326.285156 257.757812 327.152344 257.613281 327.875 257.683594 C 328.601562 257.828125 329.25 258.046875 329.976562 258.769531 C 331.351562 260.144531 333.664062 264.050781 334.460938 266.875 C 335.113281 269.40625 334.75 272.515625 334.535156 274.613281 C 334.390625 276.132812 334.242188 277.074219 333.808594 278.523438 C 333.160156 280.476562 332.144531 282.863281 330.769531 285.179688 C 329.035156 288.074219 326.792969 291.402344 324.042969 294.367188 C 320.859375 297.769531 316.15625 301.457031 312.320312 304.28125 C 308.992188 306.742188 306.53125 308.1875 302.480469 310.429688 C 296.257812 313.976562 283.957031 320.125 278.167969 322.515625 C 275.058594 323.742188 273.175781 324.46875 270.863281 324.902344 C 268.761719 325.261719 266.230469 325.550781 264.785156 325.117188 C 263.84375 324.828125 263.191406 324.324219 262.683594 323.671875 C 262.25 323.019531 261.960938 321.933594 262.105469 321.140625 C 262.179688 320.34375 262.683594 319.402344 263.265625 318.894531 C 263.914062 318.316406 265.652344 317.957031 265.652344 317.957031 "/></clipPath><clipPath id="cfa0862a01"><path d="M 255.6875 252.0625 L 331 252.0625 L 331 270.878906 L 255.6875 270.878906 Z M 255.6875 252.0625 "/></clipPath><clipPath id="d7f7c74014"><path d="M 325.707031 264.484375 C 317.097656 261.085938 309.644531 260 305.375 259.636719 C 302.40625 259.347656 300.597656 259.132812 297.847656 259.421875 C 294.375 259.78125 290.324219 260.796875 286.34375 262.023438 C 281.785156 263.398438 276.070312 266.511719 271.945312 267.667969 C 268.90625 268.539062 266.160156 268.539062 263.988281 269.1875 C 262.394531 269.621094 261.164062 270.636719 260.082031 270.78125 C 259.210938 270.851562 258.417969 270.851562 257.765625 270.417969 C 256.96875 269.910156 256.027344 268.539062 255.8125 267.667969 C 255.667969 266.875 255.957031 266.003906 256.316406 265.355469 C 256.679688 264.773438 257.332031 264.125 258.054688 263.835938 C 258.996094 263.617188 260.660156 263.761719 261.457031 264.195312 C 262.105469 264.558594 262.613281 265.355469 262.828125 266.078125 C 263.121094 266.726562 263.191406 267.667969 262.902344 268.320312 C 262.539062 269.1875 261.308594 270.347656 260.441406 270.707031 C 259.71875 270.996094 258.777344 270.851562 258.125 270.5625 C 257.476562 270.347656 256.679688 269.765625 256.316406 269.117188 C 255.957031 268.246094 255.8125 266.582031 256.171875 265.714844 C 256.390625 264.992188 256.96875 264.558594 257.691406 264.050781 C 258.851562 263.253906 260.660156 262.675781 262.46875 262.097656 C 264.640625 261.519531 266.953125 261.589844 269.921875 260.722656 C 274.625 259.421875 282.292969 255.511719 287.574219 254.066406 C 291.628906 252.980469 295.316406 252.402344 298.644531 252.183594 C 301.324219 251.96875 302.988281 252.039062 306.027344 252.402344 C 310.800781 252.910156 320.28125 254.355469 324.476562 255.804688 C 326.863281 256.597656 328.671875 257.46875 329.757812 258.550781 C 330.480469 259.277344 330.914062 260 330.988281 260.796875 C 331.058594 261.734375 330.335938 263.328125 329.832031 263.980469 C 329.394531 264.414062 328.890625 264.703125 328.238281 264.773438 C 327.515625 264.917969 325.707031 264.484375 325.707031 264.484375 "/></clipPath><clipPath id="687e344771"><path d="M 221.808594 262.246094 L 266.195312 262.246094 L 266.195312 303.699219 L 221.808594 303.699219 Z M 221.808594 262.246094 "/></clipPath><clipPath id="c77ea4bc39"><path d="M 221.949219 299.433594 C 225.132812 291.691406 227.449219 289.011719 230.777344 285.683594 C 236.710938 279.96875 252.265625 267.8125 257.621094 264.484375 C 259.644531 263.253906 260.804688 262.386719 262.179688 262.386719 C 263.335938 262.386719 264.640625 262.964844 265.289062 263.691406 C 265.867188 264.195312 266.085938 265.0625 266.160156 265.859375 C 266.160156 266.582031 265.941406 267.453125 265.507812 268.03125 C 265.074219 268.683594 264.347656 269.1875 263.625 269.40625 C 262.976562 269.621094 262.035156 269.621094 261.308594 269.40625 C 260.660156 269.1875 259.9375 268.609375 259.5 267.957031 C 259.140625 267.378906 258.777344 266.511719 258.921875 265.714844 C 259.066406 264.847656 259.9375 263.398438 260.730469 262.894531 C 261.308594 262.386719 262.25 262.316406 262.976562 262.386719 C 263.699219 262.460938 264.566406 262.820312 265.074219 263.398438 C 265.652344 264.125 266.160156 265.644531 266.085938 266.582031 C 266.011719 267.378906 265.722656 267.8125 265 268.609375 C 262.828125 271.140625 253.570312 276.496094 248.574219 280.332031 C 244.089844 283.730469 239.460938 287.347656 236.347656 290.316406 C 234.175781 292.414062 232.65625 293.933594 231.210938 295.960938 C 229.765625 298.058594 228.894531 301.675781 227.808594 302.761719 C 227.304688 303.265625 226.871094 303.414062 226.289062 303.484375 C 225.566406 303.628906 224.410156 303.414062 223.757812 303.121094 C 223.179688 302.832031 222.746094 302.472656 222.457031 301.894531 C 222.09375 301.242188 221.949219 299.433594 221.949219 299.433594 "/></clipPath><clipPath id="ca4ad7466a"><path d="M 224.523438 284.921875 L 257 284.921875 L 257 314.285156 L 224.523438 314.285156 Z M 224.523438 284.921875 "/></clipPath><clipPath id="57710c8121"><path d="M 228.605469 297.839844 C 237.652344 300.445312 250.601562 303.992188 251.46875 306.449219 C 251.832031 307.535156 250.53125 309.632812 249.589844 309.707031 C 247.851562 309.78125 243.582031 300.878906 240.980469 297.769531 C 239.171875 295.453125 237.503906 293.425781 235.914062 292.195312 C 234.828125 291.402344 233.527344 291.402344 232.949219 290.53125 C 232.441406 289.738281 232.367188 288.074219 232.65625 287.132812 C 232.875 286.410156 233.597656 285.828125 234.175781 285.46875 C 234.828125 285.105469 235.769531 284.890625 236.492188 284.960938 C 237.214844 285.105469 238.011719 285.394531 238.519531 285.976562 C 239.171875 286.699219 239.75 288.289062 239.53125 289.230469 C 239.386719 290.242188 238.230469 291.472656 237.433594 291.90625 C 236.78125 292.269531 235.839844 292.34375 235.117188 292.125 C 234.25 291.761719 232.949219 290.75 232.585938 289.808594 C 232.222656 288.941406 232.441406 287.277344 233.019531 286.480469 C 233.597656 285.683594 234.902344 284.890625 236.058594 284.960938 C 237.796875 285.035156 240.109375 286.914062 242.136719 288.578125 C 244.742188 290.675781 247.5625 294.222656 249.949219 297.335938 C 252.339844 300.300781 255.449219 304.207031 256.390625 306.742188 C 256.96875 308.261719 257.113281 309.417969 256.824219 310.648438 C 256.460938 311.804688 255.449219 313.398438 254.363281 313.902344 C 253.277344 314.480469 252.121094 314.191406 250.167969 313.757812 C 245.390625 312.816406 229.113281 306.378906 226.289062 304.496094 C 225.496094 303.992188 225.351562 303.773438 225.0625 303.195312 C 224.769531 302.542969 224.554688 301.457031 224.699219 300.664062 C 224.917969 299.867188 225.496094 299 226.144531 298.492188 C 226.796875 298.058594 228.605469 297.839844 228.605469 297.839844 "/></clipPath><clipPath id="c6895c4144"><path d="M 240.863281 267.625 L 282.136719 267.625 L 282.136719 300.34375 L 240.863281 300.34375 Z M 240.863281 267.625 "/></clipPath><clipPath id="55877715c8"><path d="M 244.453125 279.609375 C 251.757812 280.1875 253.859375 280.835938 256.753906 282.066406 C 261.671875 284.164062 275.273438 293.933594 276.070312 292.921875 C 276.792969 292.125 269.703125 284.164062 266.230469 280.765625 C 263.121094 277.652344 257.476562 275.265625 256.390625 272.878906 C 255.8125 271.722656 255.957031 270.417969 256.460938 269.550781 C 256.96875 268.683594 258.273438 267.742188 259.285156 267.667969 C 260.296875 267.597656 261.816406 268.246094 262.394531 268.972656 C 263.046875 269.765625 263.335938 271.359375 263.046875 272.300781 C 262.828125 273.242188 261.601562 274.398438 260.730469 274.757812 C 260.007812 275.050781 259.066406 274.90625 258.417969 274.6875 C 257.691406 274.46875 256.96875 273.964844 256.605469 273.242188 C 256.101562 272.445312 255.882812 270.78125 256.316406 269.839844 C 256.679688 268.972656 257.765625 267.886719 258.921875 267.742188 C 260.585938 267.523438 263.410156 269.261719 265.796875 270.925781 C 269.195312 273.167969 273.753906 277.507812 276.433594 281.125 C 278.820312 284.382812 280.917969 288.722656 281.640625 291.402344 C 282.078125 292.921875 282.078125 293.933594 281.859375 295.164062 C 281.714844 296.464844 281.425781 298.058594 280.558594 298.855469 C 279.6875 299.722656 277.953125 300.15625 276.722656 300.230469 C 275.417969 300.375 274.625 300.082031 272.960938 299.433594 C 268.90625 297.914062 258.996094 290.605469 253.277344 288.507812 C 249.371094 287.058594 244.597656 287.347656 242.789062 286.410156 C 242.0625 286.121094 241.847656 285.828125 241.484375 285.324219 C 241.125 284.671875 240.761719 283.585938 240.90625 282.792969 C 240.980469 281.996094 241.484375 281.054688 242.0625 280.546875 C 242.644531 279.96875 244.453125 279.609375 244.453125 279.609375 "/></clipPath><clipPath id="3c04f36807"><path d="M 267.128906 256.121094 L 305.699219 256.121094 L 305.699219 288.988281 L 267.128906 288.988281 Z M 267.128906 256.121094 "/></clipPath><clipPath id="0c4906a087"><path d="M 273.175781 261.664062 C 295.75 280.980469 297.199219 281.921875 297.632812 281.5625 C 298.066406 281.199219 297.199219 278.957031 296.691406 277.726562 C 296.183594 276.570312 295.824219 275.773438 294.8125 274.398438 C 292.640625 271.429688 284.535156 264.125 283.304688 261.519531 C 282.800781 260.503906 282.800781 259.925781 282.871094 259.203125 C 283.015625 258.480469 283.449219 257.683594 283.957031 257.175781 C 284.464844 256.671875 285.261719 256.164062 286.054688 256.164062 C 286.996094 256.164062 288.515625 256.671875 289.167969 257.394531 C 289.816406 258.191406 290.179688 259.710938 289.964844 260.722656 C 289.671875 261.664062 288.589844 262.894531 287.648438 263.183594 C 286.707031 263.542969 285.113281 263.183594 284.320312 262.675781 C 283.667969 262.242188 283.160156 261.445312 283.015625 260.796875 C 282.800781 260.070312 282.800781 259.132812 283.089844 258.480469 C 283.378906 257.757812 283.957031 257.03125 284.609375 256.671875 C 285.1875 256.308594 286.128906 256.09375 286.851562 256.164062 C 287.574219 256.238281 288.007812 256.453125 288.949219 257.105469 C 291.335938 258.839844 297.269531 265.355469 300.164062 269.476562 C 302.480469 272.878906 304.578125 277.074219 305.300781 279.679688 C 305.664062 281.199219 305.664062 282.210938 305.445312 283.371094 C 305.230469 284.527344 304.867188 285.902344 304.070312 286.769531 C 303.203125 287.710938 301.757812 288.433594 300.453125 288.796875 C 299.222656 289.085938 297.777344 288.941406 296.476562 288.796875 C 295.246094 288.652344 294.085938 288.289062 292.929688 287.785156 C 291.84375 287.277344 291.335938 286.914062 289.890625 285.828125 C 285.910156 282.792969 270.933594 270.417969 268.328125 267.019531 C 267.53125 266.003906 267.171875 265.570312 267.171875 264.703125 C 267.097656 263.761719 267.675781 262.242188 268.402344 261.589844 C 268.980469 261.011719 269.992188 260.722656 270.789062 260.722656 C 271.585938 260.722656 273.175781 261.664062 273.175781 261.664062 "/></clipPath><clipPath id="e686bfef7d"><path d="M 294.417969 254.578125 L 324.886719 254.578125 L 324.886719 276.777344 L 294.417969 276.777344 Z M 294.417969 254.578125 "/></clipPath><clipPath id="ce3ce74854"><path d="M 300.019531 255.152344 C 315.578125 267.308594 319.410156 269.839844 319.554688 269.621094 C 319.699219 269.476562 317.746094 268.03125 317.023438 266.945312 C 316.300781 265.644531 316.15625 263.472656 315.359375 262.460938 C 314.851562 261.734375 313.914062 261.664062 313.550781 261.085938 C 313.117188 260.433594 312.828125 259.566406 312.898438 258.839844 C 312.898438 258.117188 313.261719 257.25 313.695312 256.671875 C 314.203125 256.09375 314.996094 255.65625 315.722656 255.511719 C 316.445312 255.296875 317.3125 255.441406 317.964844 255.730469 C 318.6875 256.019531 319.410156 256.597656 319.699219 257.320312 C 320.0625 258.117188 320.207031 259.78125 319.699219 260.652344 C 319.265625 261.589844 317.890625 262.460938 316.953125 262.605469 C 315.9375 262.75 314.417969 262.097656 313.769531 261.375 C 313.117188 260.652344 312.828125 258.988281 313.042969 258.046875 C 313.117188 257.320312 313.621094 256.597656 314.273438 256.164062 C 315.070312 255.65625 316.515625 255.222656 317.601562 255.585938 C 319.121094 256.019531 320.859375 258.480469 321.871094 259.925781 C 322.738281 261.085938 323.171875 262.023438 323.609375 263.472656 C 324.257812 265.570312 325.054688 269.332031 324.691406 271.429688 C 324.402344 272.878906 323.824219 274.035156 322.882812 274.90625 C 321.871094 275.84375 320.136719 276.640625 318.832031 276.714844 C 317.601562 276.785156 316.589844 276.207031 315.285156 275.554688 C 313.476562 274.6875 311.523438 273.386719 309.136719 271.574219 C 305.300781 268.828125 296.546875 262.75 295.027344 260.070312 C 294.375 259.058594 294.449219 258.261719 294.59375 257.539062 C 294.664062 256.960938 294.882812 256.382812 295.316406 255.949219 C 295.824219 255.441406 296.691406 254.789062 297.488281 254.644531 C 298.285156 254.574219 300.019531 255.152344 300.019531 255.152344 "/></clipPath></defs><g id="df0b07adef"><g clip-rule="nonzero" clip-path="url(#d054bd708c)"><g clip-rule="nonzero" clip-path="url(#4654dfe4c8)"><path style=" stroke:none;fill-rule:nonzero;fill:currentColor;fill-opacity:1;" d="M 96.902344 131.859375 L 113.835938 131.859375 L 113.835938 262.347656 L 96.902344 262.347656 Z M 96.902344 131.859375 "/></g></g><g clip-rule="nonzero" clip-path="url(#91570e10f6)"><g clip-rule="nonzero" clip-path="url(#23d0e74e18)"><path style=" stroke:none;fill-rule:nonzero;fill:currentColor;fill-opacity:1;" d="M 39.527344 128.894531 L 113.027344 128.894531 L 113.027344 144.519531 L 39.527344 144.519531 Z M 39.527344 128.894531 "/></g></g><g clip-rule="nonzero" clip-path="url(#eb024446d5)"><g clip-rule="nonzero" clip-path="url(#cf24315952)"><path style=" stroke:none;fill-rule:nonzero;fill:currentColor;fill-opacity:1;" d="M 37.574219 104.074219 L 52.621094 104.074219 L 52.621094 142.640625 L 37.574219 142.640625 Z M 37.574219 104.074219 "/></g></g><g clip-rule="nonzero" clip-path="url(#6c4563c774)"><g clip-rule="nonzero" clip-path="url(#7cdbdf82c7)"><path style=" stroke:none;fill-rule:nonzero;fill:currentColor;fill-opacity:1;" d="M 37.5 100.964844 L 110.847656 100.964844 L 110.847656 117.027344 L 37.5 117.027344 Z M 37.5 100.964844 "/></g></g><g clip-rule="nonzero" clip-path="url(#7986374863)"><g clip-rule="nonzero" clip-path="url(#32680b4a4f)"><path style=" stroke:none;fill-rule:nonzero;fill:currentColor;fill-opacity:1;" d="M 97.699219 48.21875 L 111.445312 48.21875 L 111.445312 113.839844 L 97.699219 113.839844 Z M 97.699219 48.21875 "/></g></g><g clip-rule="nonzero" clip-path="url(#85029a74d3)"><g clip-rule="nonzero" clip-path="url(#3acbab57b6)"><path style=" stroke:none;fill-rule:nonzero;fill:currentColor;fill-opacity:1;" d="M 99.582031 45.105469 L 140.308594 45.105469 L 140.308594 60.953125 L 99.582031 60.953125 Z M 99.582031 45.105469 "/></g></g><g clip-rule="nonzero" clip-path="url(#1115c6dcf9)"><g clip-rule="nonzero" clip-path="url(#a50cb74973)"><path style=" stroke:none;fill-rule:nonzero;fill:currentColor;fill-opacity:1;" d="M 126.207031 46.191406 L 141.90625 46.191406 L 141.90625 112.738281 L 126.207031 112.738281 Z M 126.207031 46.191406 "/></g></g><g clip-rule="nonzero" clip-path="url(#46165afcd0)"><g clip-rule="nonzero" clip-path="url(#add57827f5)"><path style=" stroke:none;fill-rule:nonzero;fill:currentColor;fill-opacity:1;" d="M 128.882812 99.226562 L 201.253906 99.226562 L 201.253906 114.203125 L 128.882812 114.203125 Z M 128.882812 99.226562 "/></g></g><g clip-rule="nonzero" clip-path="url(#b0155cbd8c)"><g clip-rule="nonzero" clip-path="url(#5956b48918)"><path style=" stroke:none;fill-rule:nonzero;fill:currentColor;fill-opacity:1;" d="M 187.636719 101.179688 L 204.640625 101.179688 L 204.640625 141.363281 L 187.636719 141.363281 Z M 187.636719 101.179688 "/></g></g><g clip-rule="nonzero" clip-path="url(#4024d673a3)"><g clip-rule="nonzero" clip-path="url(#9c30881998)"><path style=" stroke:none;fill-rule:nonzero;fill:currentColor;fill-opacity:1;" d="M 97.917969 249.21875 L 139.078125 249.21875 L 139.078125 262.675781 L 97.917969 262.675781 Z M 97.917969 249.21875 "/></g></g><g clip-rule="nonzero" clip-path="url(#5ed9d1771b)"><g clip-rule="nonzero" clip-path="url(#b488716eef)"><path style=" stroke:none;fill-rule:nonzero;fill:currentColor;fill-opacity:1;" d="M 125.917969 136.996094 L 140.824219 136.996094 L 140.824219 262.234375 L 125.917969 262.234375 Z M 125.917969 136.996094 "/></g></g><g clip-rule="nonzero" clip-path="url(#e7675e5f32)"><g clip-rule="nonzero" clip-path="url(#adfafc565b)"><path style=" stroke:none;fill-rule:nonzero;fill:currentColor;fill-opacity:1;" d="M 127.726562 133.234375 L 152.574219 133.234375 L 152.574219 154.796875 L 127.726562 154.796875 Z M 127.726562 133.234375 "/></g></g><g clip-rule="nonzero" clip-path="url(#98dd3f560c)"><g clip-rule="nonzero" clip-path="url(#c0753e7f3a)"><path style=" stroke:none;fill-rule:nonzero;fill:currentColor;fill-opacity:1;" d="M 139.519531 103.425781 L 203.160156 103.425781 L 203.160156 146.183594 L 139.519531 146.183594 Z M 139.519531 103.425781 "/></g></g><g clip-rule="nonzero" clip-path="url(#e0597b75f6)"><g clip-rule="nonzero" clip-path="url(#0609b1d3ee)"><path style=" stroke:none;fill-rule:nonzero;fill:currentColor;fill-opacity:1;" d="M 187.78125 102.699219 L 205 102.699219 L 205 145.550781 L 187.78125 145.550781 Z M 187.78125 102.699219 "/></g></g><g clip-rule="nonzero" clip-path="url(#bed992a5f8)"><g clip-rule="nonzero" clip-path="url(#a917ccff63)"><path style=" stroke:none;fill-rule:nonzero;fill:currentColor;fill-opacity:1;" d="M 217.175781 292.34375 L 272.15625 292.34375 L 272.15625 329.675781 L 217.175781 329.675781 Z M 217.175781 292.34375 "/></g></g><g clip-rule="nonzero" clip-path="url(#d6874b860e)"><g clip-rule="nonzero" clip-path="url(#8d2b640418)"><path style=" stroke:none;fill-rule:nonzero;fill:currentColor;fill-opacity:1;" d="M 126.078125 282.644531 L 173.328125 282.644531 L 173.328125 329.894531 L 126.078125 329.894531 Z M 126.078125 282.644531 "/></g></g><g clip-rule="nonzero" clip-path="url(#c9979c5608)"><g clip-rule="nonzero" clip-path="url(#d2231d16fe)"><path style=" stroke:none;fill-rule:nonzero;fill:currentColor;fill-opacity:1;" d="M 156.6875 240.824219 L 191.488281 240.824219 L 191.488281 304.042969 L 156.6875 304.042969 Z M 156.6875 240.824219 "/></g></g><g clip-rule="nonzero" clip-path="url(#e1fb8283bf)"><g clip-rule="nonzero" clip-path="url(#146834daaa)"><path style=" stroke:none;fill-rule:nonzero;fill:currentColor;fill-opacity:1;" d="M 178.828125 211.523438 L 262.464844 211.523438 L 262.464844 253.921875 L 178.828125 253.921875 Z M 178.828125 211.523438 "/></g></g><g clip-rule="nonzero" clip-path="url(#c9dd4a1f0d)"><g clip-rule="nonzero" clip-path="url(#045f609156)"><path style=" stroke:none;fill-rule:nonzero;fill:currentColor;fill-opacity:1;" d="M 221.441406 215.210938 L 263.625 215.210938 L 263.625 282.109375 L 221.441406 282.109375 Z M 221.441406 215.210938 "/></g></g><g clip-rule="nonzero" clip-path="url(#ddd0bf856a)"><g clip-rule="nonzero" clip-path="url(#c3d9273271)"><path style=" stroke:none;fill-rule:nonzero;fill:currentColor;fill-opacity:1;" d="M 162.761719 261.953125 L 241.765625 261.953125 L 241.765625 304.351562 L 162.761719 304.351562 Z M 162.761719 261.953125 "/></g></g><g clip-rule="nonzero" clip-path="url(#4ca7b649b0)"><g clip-rule="nonzero" clip-path="url(#5b6380a2d2)"><path style=" stroke:none;fill-rule:nonzero;fill:currentColor;fill-opacity:1;" d="M 259.210938 254.789062 L 337.375 254.789062 L 337.375 328.085938 L 259.210938 328.085938 Z M 259.210938 254.789062 "/></g></g><g clip-rule="nonzero" clip-path="url(#cfa0862a01)"><g clip-rule="nonzero" clip-path="url(#d7f7c74014)"><path style=" stroke:none;fill-rule:nonzero;fill:currentColor;fill-opacity:1;" d="M 252.917969 249.289062 L 333.925781 249.289062 L 333.925781 273.746094 L 252.917969 273.746094 Z M 252.917969 249.289062 "/></g></g><g clip-rule="nonzero" clip-path="url(#687e344771)"><g clip-rule="nonzero" clip-path="url(#c77ea4bc39)"><path style=" stroke:none;fill-rule:nonzero;fill:currentColor;fill-opacity:1;" d="M 219.054688 259.492188 L 269.132812 259.492188 L 269.132812 306.449219 L 219.054688 306.449219 Z M 219.054688 259.492188 "/></g></g><g clip-rule="nonzero" clip-path="url(#ca4ad7466a)"><g clip-rule="nonzero" clip-path="url(#57710c8121)"><path style=" stroke:none;fill-rule:nonzero;fill:currentColor;fill-opacity:1;" d="M 221.804688 282.066406 L 259.734375 282.066406 L 259.734375 316.871094 L 221.804688 316.871094 Z M 221.804688 282.066406 "/></g></g><g clip-rule="nonzero" clip-path="url(#c6895c4144)"><g clip-rule="nonzero" clip-path="url(#55877715c8)"><path style=" stroke:none;fill-rule:nonzero;fill:currentColor;fill-opacity:1;" d="M 238.011719 264.773438 L 284.835938 264.773438 L 284.835938 303.195312 L 238.011719 303.195312 Z M 238.011719 264.773438 "/></g></g><g clip-rule="nonzero" clip-path="url(#3c04f36807)"><g clip-rule="nonzero" clip-path="url(#0c4906a087)"><path style=" stroke:none;fill-rule:nonzero;fill:currentColor;fill-opacity:1;" d="M 264.277344 253.269531 L 308.402344 253.269531 L 308.402344 291.691406 L 264.277344 291.691406 Z M 264.277344 253.269531 "/></g></g><g clip-rule="nonzero" clip-path="url(#e686bfef7d)"><g clip-rule="nonzero" clip-path="url(#ce3ce74854)"><path style=" stroke:none;fill-rule:nonzero;fill:currentColor;fill-opacity:1;" d="M 291.699219 251.75 L 327.609375 251.75 L 327.609375 279.609375 L 291.699219 279.609375 Z M 291.699219 251.75 "/></g></g></g></svg>