<svg xmlns="http://www.w3.org/2000/svg" xmlns:xlink="http://www.w3.org/1999/xlink" width="500" zoomAndPan="magnify" viewBox="0 0 375 374.999991" height="500" preserveAspectRatio="xMidYMid meet" version="1.2"><defs><clipPath id="71c31d4d86"><path d="M 95.828125 121.453125 L 106.921875 121.453125 L 106.921875 238.269531 L 95.828125 238.269531 Z M 95.828125 121.453125 "/></clipPath><clipPath id="873550c47d"><path d="M 95.875 234.859375 C 96.28125 204.214844 97.230469 197.164062 97.703125 186.722656 C 98.519531 170.519531 97.636719 132.078125 99.535156 124.890625 C 100.011719 123.265625 100.28125 122.585938 101.027344 122.042969 C 101.839844 121.570312 103.332031 121.367188 104.214844 121.707031 C 105.09375 122.113281 106.042969 123.265625 106.246094 124.144531 C 106.449219 125.09375 106.042969 126.519531 105.433594 127.195312 C 104.753906 127.875 103.332031 128.347656 102.382812 128.214844 C 101.5 128.078125 100.28125 127.128906 99.875 126.316406 C 99.46875 125.433594 99.535156 123.941406 100.011719 123.128906 C 100.550781 122.316406 101.910156 121.636719 102.789062 121.5 C 103.46875 121.367188 104.28125 121.636719 104.824219 122.042969 C 105.5 122.65625 105.976562 123.265625 106.316406 124.890625 C 108.078125 132.347656 105.164062 175.402344 104.347656 191.402344 C 103.875 200.488281 103.0625 205.570312 102.789062 212.757812 C 102.519531 220.082031 103.332031 231.335938 102.652344 234.859375 C 102.449219 236.082031 102.316406 236.554688 101.839844 237.164062 C 101.296875 237.707031 100.417969 238.183594 99.671875 238.25 C 98.925781 238.316406 97.976562 238.183594 97.367188 237.707031 C 96.6875 237.097656 95.875 234.859375 95.875 234.859375 "/></clipPath><clipPath id="3448da4b3c"><path d="M 42.085938 118.414062 L 105.585938 118.414062 L 105.585938 127.964844 L 42.085938 127.964844 Z M 42.085938 118.414062 "/></clipPath><clipPath id="bc440934d8"><path d="M 102.179688 127.941406 C 90.992188 127.671875 81.636719 125.839844 73.636719 125.503906 C 64.550781 125.09375 48.144531 127.195312 44.414062 125.976562 C 43.398438 125.636719 43.058594 125.230469 42.652344 124.6875 C 42.3125 124.144531 42.042969 123.265625 42.109375 122.585938 C 42.109375 121.910156 42.449219 121.09375 42.925781 120.621094 C 43.332031 120.078125 44.078125 119.605469 44.753906 119.46875 C 45.433594 119.332031 46.3125 119.332031 46.925781 119.738281 C 47.667969 120.144531 48.6875 121.296875 48.824219 122.246094 C 48.957031 123.128906 48.414062 124.621094 47.804688 125.230469 C 47.332031 125.773438 46.515625 126.113281 45.839844 126.179688 C 45.160156 126.246094 44.347656 126.042969 43.738281 125.707031 C 43.128906 125.367188 42.585938 124.757812 42.3125 124.011719 C 42.109375 123.195312 42.246094 121.636719 42.652344 120.890625 C 43.058594 120.28125 43.535156 119.941406 44.414062 119.605469 C 46.109375 118.925781 49.566406 118.925781 53.09375 118.722656 C 58.652344 118.449219 67.535156 118.316406 74.722656 118.722656 C 81.839844 119.128906 90.925781 120.824219 96.144531 121.164062 C 99.0625 121.367188 101.433594 120.757812 102.992188 121.230469 C 103.941406 121.570312 104.550781 121.976562 104.960938 122.585938 C 105.433594 123.265625 105.636719 124.214844 105.570312 124.960938 C 105.433594 125.707031 105.027344 126.585938 104.417969 127.0625 C 103.875 127.605469 102.179688 127.941406 102.179688 127.941406 "/></clipPath><clipPath id="844eb06812"><path d="M 40.210938 95.398438 L 48.914062 95.398438 L 48.914062 126.191406 L 40.210938 126.191406 Z M 40.210938 95.398438 "/></clipPath><clipPath id="4545d6718e"><path d="M 42.109375 123.0625 C 40.617188 96.824219 40.957031 96.484375 41.566406 96.078125 C 42.3125 95.601562 43.871094 95.398438 44.6875 95.601562 C 45.433594 95.804688 46.042969 96.417969 46.449219 96.957031 C 46.789062 97.570312 47.058594 98.316406 46.992188 99.0625 C 46.855469 99.941406 46.042969 101.230469 45.296875 101.773438 C 44.6875 102.179688 43.871094 102.316406 43.195312 102.179688 C 42.3125 101.976562 41.027344 101.09375 40.550781 100.347656 C 40.210938 99.738281 40.144531 98.925781 40.28125 98.246094 C 40.347656 97.570312 40.820312 96.753906 41.296875 96.347656 C 41.769531 95.875 42.585938 95.535156 43.261719 95.46875 C 43.941406 95.398438 44.820312 95.601562 45.363281 95.941406 C 45.976562 96.28125 46.382812 96.6875 46.789062 97.636719 C 47.738281 100.144531 46.992188 109.027344 47.464844 113.570312 C 47.804688 116.960938 49.027344 120.484375 48.890625 122.519531 C 48.824219 123.535156 48.6875 124.214844 48.210938 124.824219 C 47.738281 125.433594 46.925781 125.976562 46.179688 126.113281 C 45.296875 126.246094 43.804688 125.839844 43.128906 125.230469 C 42.585938 124.757812 42.109375 123.0625 42.109375 123.0625 "/></clipPath><clipPath id="062b20f6d6"><path d="M 40.144531 92.425781 L 103.585938 92.425781 L 103.585938 102.421875 L 40.144531 102.421875 Z M 40.144531 92.425781 "/></clipPath><clipPath id="2652f2d1e1"><path d="M 43.601562 95.398438 C 79.332031 92.890625 95.671875 92.144531 99.875 92.550781 C 100.960938 92.6875 101.367188 92.6875 101.976562 93.09375 C 102.652344 93.636719 103.46875 94.992188 103.535156 95.875 C 103.601562 96.621094 103.265625 97.367188 102.925781 97.90625 C 102.519531 98.519531 101.839844 99.0625 101.164062 99.195312 C 100.28125 99.398438 98.722656 99.195312 98.042969 98.585938 C 97.296875 98.042969 96.753906 96.550781 96.753906 95.671875 C 96.753906 94.992188 97.164062 94.179688 97.636719 93.703125 C 98.042969 93.164062 98.855469 92.753906 99.535156 92.621094 C 100.144531 92.484375 101.027344 92.621094 101.636719 92.957031 C 102.246094 93.230469 102.925781 93.773438 103.195312 94.449219 C 103.535156 95.265625 103.46875 96.824219 103.0625 97.636719 C 102.789062 98.316406 102.519531 98.652344 101.5 99.0625 C 97.433594 100.753906 76.621094 99.738281 66.179688 100.347656 C 57.773438 100.890625 47.464844 102.992188 43.601562 102.179688 C 42.179688 101.910156 41.363281 101.433594 40.820312 100.753906 C 40.347656 100.144531 40.144531 99.128906 40.210938 98.382812 C 40.28125 97.636719 40.753906 96.753906 41.363281 96.28125 C 41.90625 95.804688 43.601562 95.398438 43.601562 95.398438 "/></clipPath><clipPath id="eba4d01e3c"><path d="M 96.574219 43.082031 L 104.523438 43.082031 L 104.523438 99.339844 L 96.574219 99.339844 Z M 96.574219 43.082031 "/></clipPath><clipPath id="365a08239e"><path d="M 96.621094 95.941406 C 97.703125 44.890625 98.042969 44.28125 98.722656 43.738281 C 99.332031 43.261719 100.144531 43.058594 100.824219 43.128906 C 101.703125 43.261719 103.0625 44.078125 103.535156 44.753906 C 104.011719 45.363281 104.144531 46.179688 104.011719 46.855469 C 103.875 47.738281 103.0625 49.09375 102.246094 49.5 C 101.433594 49.976562 99.875 49.839844 99.0625 49.5 C 98.382812 49.230469 97.839844 48.617188 97.570312 47.941406 C 97.296875 47.128906 97.367188 45.566406 97.773438 44.753906 C 98.042969 44.144531 98.789062 43.601562 99.398438 43.332031 C 100.011719 43.128906 100.890625 43.058594 101.570312 43.261719 C 102.246094 43.398438 102.925781 43.941406 103.332031 44.484375 C 103.738281 45.027344 103.875 45.363281 104.078125 46.515625 C 104.824219 51.195312 104.417969 74.519531 104.078125 83.875 C 103.804688 89.570312 104.078125 95.332031 102.992188 97.570312 C 102.519531 98.449219 101.910156 98.855469 101.164062 99.128906 C 100.484375 99.398438 99.46875 99.398438 98.789062 99.128906 C 98.113281 98.855469 97.367188 98.113281 96.957031 97.570312 C 96.6875 97.027344 96.621094 95.941406 96.621094 95.941406 "/></clipPath><clipPath id="f6e99dc54b"><path d="M 98.339844 40.109375 L 131.167969 40.109375 L 131.167969 49.621094 L 98.339844 49.621094 Z M 98.339844 40.109375 "/></clipPath><clipPath id="829a4b7253"><path d="M 101.5 42.855469 C 118.179688 40.550781 125.164062 39.871094 127.738281 40.210938 C 128.757812 40.347656 129.230469 40.414062 129.773438 40.890625 C 130.453125 41.5 131.128906 42.925781 131.128906 43.804688 C 131.128906 44.484375 130.859375 45.296875 130.316406 45.769531 C 129.707031 46.449219 128.28125 46.992188 127.398438 46.992188 C 126.65625 46.925781 125.910156 46.515625 125.433594 46.042969 C 124.890625 45.566406 124.417969 44.890625 124.417969 44.144531 C 124.347656 43.261719 124.757812 41.769531 125.433594 41.160156 C 126.113281 40.484375 127.605469 40.144531 128.484375 40.28125 C 129.164062 40.414062 129.910156 40.890625 130.316406 41.433594 C 130.789062 41.90625 131.0625 42.71875 131.128906 43.398438 C 131.128906 44.078125 130.925781 44.957031 130.519531 45.5 C 130.179688 46.042969 129.773438 46.449219 128.824219 46.789062 C 126.449219 47.667969 119.195312 47.128906 114.585938 47.601562 C 110.246094 48.078125 104.417969 49.769531 101.910156 49.566406 C 100.824219 49.5 100.214844 49.363281 99.671875 48.890625 C 99.0625 48.414062 98.519531 47.601562 98.382812 46.855469 C 98.246094 45.976562 98.722656 44.484375 99.332031 43.804688 C 99.804688 43.261719 101.5 42.855469 101.5 42.855469 "/></clipPath><clipPath id="f6747179e9"><path d="M 123.265625 41 L 132.6875 41 L 132.6875 98.171875 L 123.265625 98.171875 Z M 123.265625 41 "/></clipPath><clipPath id="640e4fd3fe"><path d="M 130.519531 44.414062 C 130.382812 69.976562 131.941406 78.3125 132.214844 84.347656 C 132.417969 88.890625 133.09375 94.316406 132.144531 96.347656 C 131.738281 97.230469 130.992188 97.636719 130.382812 97.90625 C 129.839844 98.179688 129.296875 98.179688 128.757812 98.113281 C 128.214844 98.042969 127.671875 97.90625 127.265625 97.570312 C 126.722656 97.09375 126.042969 96.28125 125.910156 95.601562 C 125.707031 94.925781 125.773438 94.179688 125.976562 93.570312 C 126.246094 92.957031 126.722656 92.214844 127.332031 91.875 C 128.144531 91.46875 129.636719 91.265625 130.519531 91.671875 C 131.402344 92.007812 132.347656 93.230469 132.484375 94.113281 C 132.6875 95.0625 132.214844 96.484375 131.535156 97.164062 C 130.859375 97.839844 129.433594 98.246094 128.484375 98.113281 C 127.605469 97.90625 126.382812 96.957031 126.042969 96.078125 C 125.707031 95.195312 125.839844 93.703125 126.316406 92.890625 C 126.859375 92.144531 128.214844 91.46875 129.09375 91.398438 C 129.839844 91.265625 130.585938 91.535156 131.128906 92.007812 C 131.808594 92.550781 132.484375 93.90625 132.554688 94.789062 C 132.621094 95.535156 132.214844 96.417969 131.738281 97.027344 C 131.195312 97.570312 130.316406 98.042969 129.570312 98.113281 C 128.824219 98.246094 127.875 97.976562 127.265625 97.570312 C 126.65625 97.09375 126.246094 96.621094 125.910156 95.601562 C 125.09375 93.230469 125.773438 87.398438 125.367188 82.925781 C 125.027344 77.90625 123.808594 71.875 123.46875 67.058594 C 123.195312 63.058594 123.265625 59.941406 123.332031 56.144531 C 123.398438 51.941406 123.0625 45.027344 124.144531 42.789062 C 124.554688 41.90625 125.230469 41.5 125.910156 41.230469 C 126.585938 40.957031 127.605469 40.957031 128.347656 41.230469 C 129.027344 41.5 129.773438 42.246094 130.113281 42.789062 C 130.382812 43.332031 130.519531 44.414062 130.519531 44.414062 "/></clipPath><clipPath id="8a73a1ee97"><path d="M 125.761719 90.789062 L 188.3125 90.789062 L 188.3125 99.890625 L 125.761719 99.890625 Z M 125.761719 90.789062 "/></clipPath><clipPath id="a0838f895d"><path d="M 131.875 92.144531 C 133.230469 93.296875 134.179688 92.484375 136.011719 92.28125 C 142.925781 91.601562 180.554688 90.382812 186.113281 92.957031 C 187.539062 93.636719 187.945312 94.585938 188.148438 95.398438 C 188.417969 96.078125 188.214844 96.957031 187.945312 97.570312 C 187.671875 98.179688 187.0625 98.789062 186.453125 99.128906 C 185.84375 99.46875 185.027344 99.671875 184.351562 99.46875 C 183.46875 99.265625 182.179688 98.382812 181.773438 97.570312 C 181.433594 96.6875 181.503906 95.195312 181.976562 94.382812 C 182.453125 93.570312 183.742188 92.824219 184.691406 92.753906 C 185.640625 92.6875 186.996094 93.296875 187.539062 94.042969 C 188.148438 94.789062 188.28125 96.347656 188.078125 97.230469 C 187.945312 97.90625 187.332031 98.519531 186.792969 98.925781 C 186.179688 99.332031 185.84375 99.332031 184.691406 99.535156 C 178.996094 100.28125 140.554688 99.601562 133.433594 99.46875 C 131.605469 99.398438 130.992188 99.671875 129.910156 99.265625 C 128.824219 98.855469 127.738281 97.90625 127.0625 97.027344 C 126.449219 96.347656 125.910156 95.46875 125.839844 94.652344 C 125.707031 93.90625 125.910156 92.957031 126.316406 92.347656 C 126.722656 91.671875 127.535156 91.128906 128.28125 90.925781 C 129.027344 90.722656 130.042969 90.855469 130.65625 91.128906 C 131.195312 91.332031 131.875 92.144531 131.875 92.144531 "/></clipPath><clipPath id="2e64c480f9"><path d="M 180.796875 92.71875 L 191.4375 92.71875 L 191.4375 125 L 180.796875 125 Z M 180.796875 92.71875 "/></clipPath><clipPath id="ddbfd0340e"><path d="M 187.671875 95.941406 C 190.519531 117.027344 189.164062 117.707031 189.300781 118.382812 C 189.367188 118.992188 190.589844 119.195312 190.925781 119.808594 C 191.265625 120.417969 191.46875 121.230469 191.402344 121.910156 C 191.332031 122.585938 190.996094 123.398438 190.453125 123.875 C 189.84375 124.484375 188.351562 124.960938 187.46875 124.890625 C 186.722656 124.824219 186.046875 124.347656 185.570312 123.875 C 185.097656 123.398438 184.691406 122.585938 184.621094 121.910156 C 184.554688 121.230469 184.691406 120.417969 185.097656 119.808594 C 185.640625 119.0625 186.925781 118.246094 187.808594 118.179688 C 188.757812 118.113281 190.113281 118.859375 190.722656 119.535156 C 191.199219 120.078125 191.46875 120.824219 191.402344 121.570312 C 191.332031 122.449219 190.589844 123.808594 189.910156 124.347656 C 189.367188 124.824219 188.417969 124.890625 187.808594 124.960938 C 187.402344 124.960938 187.128906 124.960938 186.722656 124.6875 C 185.976562 124.078125 185.027344 122.179688 184.28125 119.941406 C 182.722656 115.128906 180.28125 100.28125 180.894531 96.28125 C 181.097656 94.855469 181.570312 94.042969 182.25 93.433594 C 182.859375 92.957031 183.808594 92.6875 184.554688 92.753906 C 185.300781 92.824219 186.179688 93.230469 186.722656 93.773438 C 187.265625 94.316406 187.671875 95.941406 187.671875 95.941406 "/></clipPath><clipPath id="9243055ff6"><path d="M 96.769531 231.417969 L 129.972656 231.417969 L 129.972656 239.300781 L 96.769531 239.300781 Z M 96.769531 231.417969 "/></clipPath><clipPath id="29b5729eb7"><path d="M 100.214844 231.878906 C 128.960938 232.148438 129.503906 233.097656 129.839844 233.910156 C 130.042969 234.589844 129.976562 235.402344 129.707031 236.082031 C 129.433594 236.691406 128.890625 237.367188 128.28125 237.707031 C 127.738281 238.046875 126.925781 238.316406 126.179688 238.183594 C 125.296875 238.046875 124.011719 237.164062 123.535156 236.417969 C 123.128906 235.808594 123.0625 234.929688 123.195312 234.25 C 123.332031 233.570312 123.671875 232.828125 124.214844 232.351562 C 124.890625 231.808594 126.382812 231.402344 127.265625 231.46875 C 128.011719 231.605469 128.6875 232.082031 129.164062 232.621094 C 129.570312 233.164062 129.910156 233.980469 129.910156 234.65625 C 129.976562 235.335938 129.839844 236.148438 129.367188 236.691406 C 128.824219 237.367188 128.011719 237.84375 126.519531 238.183594 C 122.316406 239.335938 104.417969 239.675781 100.214844 238.65625 C 98.722656 238.316406 97.976562 237.910156 97.433594 237.234375 C 96.890625 236.625 96.753906 235.605469 96.824219 234.859375 C 96.890625 234.113281 97.367188 233.234375 97.976562 232.757812 C 98.519531 232.285156 100.214844 231.878906 100.214844 231.878906 "/></clipPath><clipPath id="33617526ee"><path d="M 123.023438 126.167969 L 132.351562 126.167969 L 132.351562 238.226562 L 123.023438 238.226562 Z M 123.023438 126.167969 "/></clipPath><clipPath id="ba7748d2ca"><path d="M 123.0625 234.792969 C 123.535156 162.179688 122.65625 141.230469 124.554688 132.960938 C 125.296875 129.707031 126.382812 126.992188 127.605469 126.316406 C 128.214844 125.976562 129.09375 126.316406 129.707031 126.65625 C 130.453125 127.128906 131.402344 128.347656 131.535156 129.296875 C 131.671875 130.246094 130.992188 131.605469 130.382812 132.28125 C 129.910156 132.757812 129.09375 133.09375 128.417969 133.09375 C 127.535156 133.027344 126.113281 132.417969 125.503906 131.738281 C 125.027344 131.195312 124.757812 130.382812 124.757812 129.707031 C 124.757812 129.027344 124.960938 128.214844 125.433594 127.671875 C 126.042969 126.992188 127.398438 126.246094 128.347656 126.316406 C 129.230469 126.316406 130.519531 127.195312 131.0625 127.941406 C 131.46875 128.484375 131.605469 129.367188 131.535156 130.042969 C 131.46875 130.722656 131.128906 131.46875 130.65625 132.011719 C 130.179688 132.484375 128.757812 132.960938 128.757812 133.027344 C 128.757812 133.09375 130.65625 131.671875 131.332031 132.214844 C 134.113281 134.246094 130.316406 161.976562 130.113281 178.046875 C 129.773438 195.945312 130.992188 228.554688 129.839844 234.792969 C 129.636719 236.082031 129.503906 236.488281 128.960938 237.03125 C 128.484375 237.640625 127.605469 238.113281 126.859375 238.183594 C 126.113281 238.25 125.164062 238.113281 124.554688 237.574219 C 123.808594 237.03125 123.0625 234.792969 123.0625 234.792969 "/></clipPath><clipPath id="826a6d5d2b"><path d="M 124.726562 122.445312 L 142.644531 122.445312 L 142.644531 137.519531 L 124.726562 137.519531 Z M 124.726562 122.445312 "/></clipPath><clipPath id="aaa32cab9c"><path d="M 124.757812 133.839844 C 125.433594 127.0625 125.910156 125.910156 126.722656 125.027344 C 127.46875 124.144531 128.417969 123.46875 129.839844 123.0625 C 132.214844 122.316406 138.316406 122.246094 140.28125 122.925781 C 141.164062 123.195312 141.636719 123.671875 141.976562 124.214844 C 142.382812 124.757812 142.65625 125.570312 142.585938 126.316406 C 142.453125 127.128906 141.707031 128.554688 140.960938 129.027344 C 140.144531 129.503906 138.585938 129.570312 137.773438 129.164062 C 136.890625 128.757812 136.011719 127.605469 135.875 126.65625 C 135.671875 125.707031 136.144531 124.28125 136.890625 123.671875 C 137.570312 122.992188 139.0625 122.65625 139.941406 122.789062 C 140.621094 122.925781 141.300781 123.398438 141.773438 123.941406 C 142.25 124.417969 142.519531 125.230469 142.585938 125.910156 C 142.585938 126.585938 142.382812 127.46875 141.976562 128.011719 C 141.636719 128.554688 141.164062 128.960938 140.28125 129.296875 C 138.585938 129.976562 133.027344 128.621094 131.671875 129.976562 C 130.65625 130.992188 131.875 133.976562 131.332031 135.195312 C 130.992188 136.078125 130.382812 136.6875 129.839844 137.09375 C 129.367188 137.367188 128.824219 137.503906 128.28125 137.503906 C 127.535156 137.503906 126.519531 137.296875 125.976562 136.757812 C 125.296875 136.144531 124.757812 133.839844 124.757812 133.839844 "/></clipPath><clipPath id="809c26dead"><path d="M 135.757812 94.804688 L 190.222656 94.804688 L 190.222656 129.710938 L 135.757812 129.710938 Z M 135.757812 94.804688 "/></clipPath><clipPath id="3738e13b4c"><path d="M 139.195312 122.722656 C 158.65625 121.367188 178.925781 123.808594 182.25 121.296875 C 183.332031 120.417969 182.996094 119.535156 183.199219 117.910156 C 183.671875 113.976562 181.570312 100.214844 182.519531 97.164062 C 182.792969 96.214844 183.199219 95.804688 183.808594 95.46875 C 184.554688 94.992188 186.113281 94.855469 186.996094 95.128906 C 187.671875 95.332031 188.28125 95.941406 188.621094 96.484375 C 188.960938 97.09375 189.164062 97.976562 189.097656 98.652344 C 189.027344 99.332031 188.621094 100.078125 188.148438 100.621094 C 187.742188 101.09375 186.996094 101.570312 186.25 101.570312 C 185.367188 101.703125 183.945312 101.164062 183.265625 100.621094 C 182.722656 100.078125 182.453125 99.332031 182.316406 98.652344 C 182.25 97.90625 182.382812 97.09375 182.792969 96.484375 C 183.332031 95.804688 184.691406 94.992188 185.503906 94.855469 C 186.25 94.789062 187.0625 95.0625 187.605469 95.46875 C 188.214844 95.804688 188.554688 96.214844 188.960938 97.164062 C 189.84375 99.535156 189.707031 106.925781 189.84375 111.332031 C 189.976562 115.128906 190.25 119.398438 189.976562 121.976562 C 189.773438 123.46875 189.773438 124.484375 189.164062 125.433594 C 188.621094 126.449219 188.148438 127.195312 186.589844 127.808594 C 181.570312 129.839844 159.671875 128.078125 150.992188 128.554688 C 145.976562 128.757812 141.707031 130.042969 139.195312 129.503906 C 137.910156 129.230469 136.960938 128.757812 136.417969 128.011719 C 135.941406 127.398438 135.738281 126.449219 135.808594 125.707031 C 135.941406 124.960938 136.351562 124.078125 136.960938 123.535156 C 137.503906 123.0625 139.195312 122.722656 139.195312 122.722656 "/></clipPath><clipPath id="e9e34714e1"><path d="M 181 94.113281 L 192.121094 94.113281 L 192.121094 128.84375 L 181 128.84375 Z M 181 94.113281 "/></clipPath><clipPath id="8d6054d22d"><path d="M 189.4375 97.570312 C 190.046875 110.382812 191.332031 114.179688 191.671875 117.367188 C 191.945312 120.011719 192.351562 122.925781 191.742188 124.6875 C 191.332031 125.976562 190.589844 126.859375 189.503906 127.535156 C 188.148438 128.347656 185.300781 128.960938 183.945312 128.824219 C 183.0625 128.6875 182.453125 128.28125 181.976562 127.808594 C 181.503906 127.332031 181.164062 126.519531 181.097656 125.839844 C 180.960938 125.164062 181.164062 124.347656 181.503906 123.738281 C 181.84375 123.128906 182.519531 122.585938 183.128906 122.316406 C 183.808594 122.042969 184.621094 121.976562 185.300781 122.179688 C 186.113281 122.449219 187.332031 123.46875 187.605469 124.347656 C 187.945312 125.230469 187.742188 126.722656 187.128906 127.46875 C 186.589844 128.214844 185.230469 128.890625 184.28125 128.824219 C 183.332031 128.824219 182.046875 127.941406 181.570312 127.265625 C 181.097656 126.65625 180.960938 125.839844 181.027344 125.164062 C 181.097656 124.484375 181.433594 123.808594 181.976562 123.128906 C 182.65625 122.246094 184.554688 122.042969 185.097656 120.621094 C 186.113281 117.976562 183.265625 110.992188 182.859375 106.789062 C 182.589844 103.195312 182.113281 98.789062 182.722656 96.753906 C 183.0625 95.804688 183.46875 95.195312 184.078125 94.789062 C 184.691406 94.382812 185.707031 94.113281 186.453125 94.179688 C 187.199219 94.316406 188.078125 94.789062 188.554688 95.332031 C 189.097656 95.875 189.4375 97.570312 189.4375 97.570312 "/></clipPath><clipPath id="4d58afea70"><path d="M 229.796875 232.050781 L 244.542969 232.050781 L 244.542969 334.8125 L 229.796875 334.8125 Z M 229.796875 232.050781 "/></clipPath><clipPath id="0b61dbc359"><path d="M 237.738281 331.941406 C 232.042969 288.007812 230.6875 269.429688 230.28125 257.089844 C 230.007812 248.277344 229.332031 237.632812 230.484375 234.378906 C 230.824219 233.429688 231.230469 233.023438 231.773438 232.683594 C 232.316406 232.277344 233.195312 232.074219 233.875 232.074219 C 234.550781 232.140625 235.367188 232.480469 235.839844 232.886719 C 236.382812 233.363281 236.855469 234.039062 236.992188 234.71875 C 237.128906 235.597656 236.652344 237.089844 236.109375 237.835938 C 235.703125 238.378906 234.890625 238.71875 234.214844 238.855469 C 233.535156 238.921875 232.722656 238.855469 232.109375 238.445312 C 231.367188 237.972656 230.417969 236.753906 230.28125 235.871094 C 230.210938 234.921875 230.824219 233.496094 231.5 232.886719 C 231.976562 232.414062 232.789062 232.140625 233.46875 232.074219 C 234.144531 232.074219 235.027344 232.210938 235.570312 232.683594 C 236.246094 233.226562 236.722656 234.039062 237.058594 235.464844 C 238.078125 239.464844 236.855469 252.414062 237.058594 259.398438 C 237.265625 264.820312 237.46875 267.871094 237.941406 273.90625 C 238.6875 284.074219 240.449219 304.144531 241.804688 314.789062 C 242.621094 321.703125 244.925781 328.753906 244.449219 331.738281 C 244.316406 332.820312 243.976562 333.363281 243.433594 333.90625 C 242.890625 334.382812 241.941406 334.789062 241.195312 334.789062 C 240.449219 334.855469 239.5 334.515625 238.957031 334.042969 C 238.347656 333.566406 237.738281 331.941406 237.738281 331.941406 "/></clipPath><clipPath id="bc9f8469a5"><path d="M 237.570312 226 L 260.101562 226 L 260.101562 334 L 237.570312 334 Z M 237.570312 226 "/></clipPath><clipPath id="4c6926227b"><path d="M 237.671875 330.515625 C 238.144531 314.378906 239.703125 305.703125 241.398438 295.125 C 244.179688 278.175781 250.417969 236.414062 253.332031 229.160156 C 253.941406 227.597656 254.28125 226.988281 255.027344 226.515625 C 255.636719 226.109375 256.449219 225.972656 257.128906 226.109375 C 257.808594 226.175781 258.621094 226.515625 259.09375 227.058594 C 259.636719 227.734375 260.179688 229.226562 259.976562 230.109375 C 259.839844 231.058594 258.753906 232.140625 258.011719 232.546875 C 257.332031 232.886719 256.519531 232.886719 255.839844 232.75 C 255.164062 232.546875 254.417969 232.140625 254.011719 231.53125 C 253.535156 230.851562 253.265625 229.292969 253.46875 228.414062 C 253.601562 227.734375 254.144531 227.058594 254.753906 226.71875 C 255.296875 226.3125 256.113281 226.039062 256.789062 226.039062 C 257.46875 226.109375 258.28125 226.3125 258.824219 226.851562 C 259.433594 227.464844 259.839844 228.074219 260.042969 229.769531 C 260.925781 237.632812 250.28125 282.785156 247.570312 299.398438 C 246.078125 308.617188 244.925781 315.058594 244.449219 320.957031 C 244.113281 325.023438 244.992188 329.296875 244.382812 331.332031 C 244.042969 332.347656 243.636719 332.890625 242.957031 333.363281 C 242.347656 333.769531 241.398438 333.972656 240.652344 333.90625 C 239.90625 333.839844 239.027344 333.363281 238.550781 332.820312 C 238.007812 332.210938 237.671875 330.515625 237.671875 330.515625 "/></clipPath><clipPath id="50f39fb93a"><path d="M 253.277344 214.457031 L 300.320312 214.457031 L 300.320312 232.851562 L 253.277344 232.851562 Z M 253.277344 214.457031 "/></clipPath><clipPath id="09e6af08aa"><path d="M 255.433594 226.3125 C 274.417969 218.648438 277.0625 217.769531 280.789062 216.953125 C 285.332031 215.871094 293.402344 214.648438 296.25 214.582031 C 297.265625 214.582031 297.738281 214.582031 298.351562 214.921875 C 298.960938 215.191406 299.570312 215.800781 299.910156 216.414062 C 300.179688 217.023438 300.382812 217.902344 300.179688 218.582031 C 299.976562 219.394531 298.960938 220.617188 298.214844 221.023438 C 297.535156 221.363281 296.722656 221.429688 296.042969 221.226562 C 295.230469 220.953125 294.078125 219.871094 293.671875 219.125 C 293.402344 218.445312 293.332031 217.632812 293.605469 216.953125 C 293.941406 216.140625 295.027344 214.988281 295.839844 214.71875 C 296.519531 214.445312 297.402344 214.515625 298.011719 214.71875 C 298.6875 214.988281 299.367188 215.53125 299.707031 216.074219 C 300.113281 216.683594 300.382812 217.496094 300.25 218.175781 C 300.113281 219.058594 299.636719 220.140625 298.554688 220.886719 C 296.179688 222.445312 287.976562 222.242188 283.976562 223.125 C 280.992188 223.800781 279.433594 224.277344 276.316406 225.292969 C 271.367188 226.988281 260.519531 232.546875 257.195312 232.820312 C 256.042969 232.886719 255.433594 232.683594 254.824219 232.277344 C 254.214844 231.871094 253.601562 231.058594 253.398438 230.3125 C 253.195312 229.632812 253.332031 228.617188 253.671875 227.9375 C 253.941406 227.261719 255.433594 226.3125 255.433594 226.3125 "/></clipPath><clipPath id="eb4b4d2e33"><path d="M 253.203125 204.707031 L 300.285156 204.707031 L 300.285156 221.320312 L 253.203125 221.320312 Z M 253.203125 204.707031 "/></clipPath><clipPath id="cccbd6080f"><path d="M 296.722656 221.292969 C 279.773438 218.109375 258.078125 213.363281 254.550781 210.851562 C 253.671875 210.242188 253.535156 209.699219 253.332031 209.089844 C 253.195312 208.414062 253.195312 207.53125 253.46875 206.921875 C 253.738281 206.242188 254.28125 205.632812 254.890625 205.226562 C 255.433594 204.886719 256.246094 204.683594 256.992188 204.820312 C 257.875 204.953125 259.164062 205.769531 259.636719 206.582031 C 260.042969 207.394531 260.042969 208.886719 259.636719 209.769531 C 259.164062 210.582031 257.875 211.328125 256.992188 211.53125 C 256.316406 211.667969 255.5 211.394531 254.890625 211.054688 C 254.28125 210.71875 253.738281 210.039062 253.46875 209.429688 C 253.195312 208.75 253.195312 207.9375 253.332031 207.261719 C 253.535156 206.582031 254.011719 205.902344 254.550781 205.429688 C 255.09375 205.023438 255.5 204.820312 256.652344 204.75 C 260.789062 204.617188 279.839844 211.125 287.367188 212.75 C 291.773438 213.769531 295.773438 213.769531 297.808594 214.648438 C 298.824219 215.125 299.367188 215.53125 299.773438 216.140625 C 300.113281 216.75 300.316406 217.769531 300.179688 218.515625 C 300.113281 219.261719 299.570312 220.074219 299.027344 220.546875 C 298.417969 221.023438 296.722656 221.292969 296.722656 221.292969 "/></clipPath><clipPath id="21f2ef6167"><path d="M 241.320312 154.90625 L 260 154.90625 L 260 211.601562 L 241.320312 211.601562 Z M 241.320312 154.90625 "/></clipPath><clipPath id="dc4119d302"><path d="M 253.265625 208.546875 C 241.46875 157.15625 241.875 156.410156 242.550781 155.800781 C 243.027344 155.257812 243.839844 155.054688 244.519531 154.988281 C 245.195312 154.917969 246.011719 155.121094 246.621094 155.53125 C 247.164062 155.9375 247.773438 156.546875 247.976562 157.226562 C 248.179688 158.105469 248.042969 159.597656 247.5 160.34375 C 246.890625 161.15625 245.46875 161.699219 244.585938 161.765625 C 243.90625 161.765625 243.09375 161.429688 242.621094 160.953125 C 242.078125 160.546875 241.601562 159.800781 241.46875 159.125 C 241.265625 158.445312 241.398438 157.632812 241.671875 156.953125 C 241.941406 156.34375 242.484375 155.664062 243.09375 155.394531 C 243.90625 155.054688 245.46875 154.988281 246.28125 155.328125 C 246.957031 155.597656 247.230469 155.867188 247.773438 156.886719 C 250.550781 161.902344 260.042969 201.769531 259.976562 207.800781 C 259.976562 209.023438 259.910156 209.496094 259.433594 210.105469 C 258.824219 210.785156 257.46875 211.53125 256.585938 211.53125 C 255.839844 211.597656 254.890625 211.191406 254.347656 210.648438 C 253.804688 210.175781 253.265625 208.546875 253.265625 208.546875 "/></clipPath><clipPath id="d068ddde7c"><path d="M 231.378906 154.953125 L 248.128906 154.953125 L 248.128906 213.746094 L 231.378906 213.746094 Z M 231.378906 154.953125 "/></clipPath><clipPath id="6b81b515c2"><path d="M 248.113281 158.378906 C 245.804688 176.820312 240.316406 206.921875 238.007812 211.597656 C 237.46875 212.617188 237.195312 212.820312 236.585938 213.226562 C 235.976562 213.566406 235.160156 213.769531 234.484375 213.632812 C 233.601562 213.429688 232.316406 212.546875 231.839844 211.800781 C 231.5 211.191406 231.367188 210.378906 231.570312 209.699219 C 231.773438 208.820312 232.722656 207.597656 233.46875 207.191406 C 234.144531 206.851562 234.957031 206.785156 235.636719 206.988281 C 236.316406 207.125 237.058594 207.53125 237.46875 208.140625 C 238.007812 208.820312 238.28125 210.378906 238.144531 211.191406 C 238.007812 211.9375 237.46875 212.617188 236.855469 213.023438 C 236.316406 213.429688 235.5 213.632812 234.824219 213.632812 C 234.144531 213.632812 233.332031 213.429688 232.789062 212.953125 C 232.109375 212.34375 231.636719 211.464844 231.5 210.039062 C 231.09375 206.648438 233.332031 198.582031 234.621094 192.140625 C 236.179688 184.613281 239.296875 174.105469 240.382812 167.664062 C 241.058594 163.597656 240.722656 159.597656 241.46875 157.5625 C 241.804688 156.546875 242.214844 156.003906 242.824219 155.597656 C 243.433594 155.121094 244.382812 154.917969 245.128906 154.988281 C 245.875 155.054688 246.753906 155.53125 247.296875 156.140625 C 247.773438 156.683594 248.113281 158.378906 248.113281 158.378906 "/></clipPath><clipPath id="30168bc6f3"><path d="M 190.511719 206.578125 L 238.257812 206.578125 L 238.257812 221.679688 L 190.511719 221.679688 Z M 190.511719 206.578125 "/></clipPath><clipPath id="c0d37ac339"><path d="M 234.890625 213.632812 C 226.210938 214.105469 223.027344 216.003906 218.753906 217.089844 C 212.3125 218.71875 198.078125 222.175781 194.007812 221.566406 C 192.515625 221.292969 191.703125 220.75 191.160156 220.074219 C 190.6875 219.53125 190.550781 218.648438 190.550781 217.972656 C 190.617188 217.292969 190.820312 216.480469 191.363281 216.003906 C 191.976562 215.328125 193.398438 214.785156 194.28125 214.785156 C 195.027344 214.785156 195.769531 215.191406 196.246094 215.667969 C 196.789062 216.140625 197.195312 216.886719 197.261719 217.566406 C 197.398438 218.242188 197.261719 219.125 196.992188 219.734375 C 196.652344 220.34375 196.109375 220.953125 195.433594 221.226562 C 194.550781 221.496094 193.058594 221.566406 192.246094 221.089844 C 191.433594 220.617188 190.6875 219.261719 190.550781 218.378906 C 190.484375 217.632812 190.753906 216.820312 191.160156 216.277344 C 191.5 215.667969 191.90625 215.394531 192.855469 214.921875 C 195.769531 213.632812 206.007812 212.953125 212.246094 211.53125 C 218.144531 210.175781 224.855469 207.394531 229.195312 206.851562 C 231.839844 206.515625 234.210938 206.515625 235.703125 206.988281 C 236.585938 207.261719 237.265625 207.734375 237.671875 208.34375 C 238.078125 208.953125 238.28125 209.972656 238.214844 210.648438 C 238.214844 211.261719 238.078125 211.734375 237.671875 212.210938 C 237.128906 212.820312 234.890625 213.632812 234.890625 213.632812 "/></clipPath><clipPath id="b18c09e582"><path d="M 230.472656 225.726562 L 237.605469 225.726562 L 237.605469 239.511719 L 230.472656 239.511719 Z M 230.472656 225.726562 "/></clipPath><clipPath id="f4a6e60e0c"><path d="M 230.484375 236.210938 C 231.773438 226.3125 232.449219 226.039062 233.058594 225.835938 C 233.738281 225.699219 234.621094 225.699219 235.230469 225.972656 C 235.90625 226.242188 236.519531 226.785156 236.925781 227.394531 C 237.265625 227.9375 237.535156 228.75 237.398438 229.496094 C 237.195312 230.378906 236.382812 231.667969 235.570312 232.140625 C 234.753906 232.546875 233.265625 232.546875 232.382812 232.140625 C 231.570312 231.667969 230.753906 230.378906 230.621094 229.496094 C 230.550781 228.546875 231.09375 227.125 231.773438 226.515625 C 232.519531 225.902344 234.007812 225.699219 234.890625 225.835938 C 235.636719 225.972656 236.316406 226.515625 236.722656 227.058594 C 237.128906 227.597656 237.265625 228.210938 237.398438 229.089844 C 237.671875 230.71875 237.601562 234.515625 237.265625 236.210938 C 237.058594 237.160156 236.855469 237.90625 236.449219 238.445312 C 236.042969 238.855469 235.636719 239.191406 235.09375 239.328125 C 234.417969 239.53125 233.398438 239.597656 232.652344 239.328125 C 231.976562 239.125 231.230469 238.378906 230.890625 237.769531 C 230.621094 237.292969 230.484375 236.210938 230.484375 236.210938 "/></clipPath><clipPath id="ffb4d56f23"><path d="M 192.152344 215.117188 L 236.359375 215.117188 L 236.359375 231.609375 L 192.152344 231.609375 Z M 192.152344 215.117188 "/></clipPath><clipPath id="2b314a7065"><path d="M 195.90625 215.191406 C 218.621094 219.597656 231.09375 223.261719 234.214844 225.023438 C 235.160156 225.496094 235.5 225.835938 235.90625 226.378906 C 236.246094 226.988281 236.449219 227.800781 236.316406 228.480469 C 236.179688 229.363281 235.367188 230.71875 234.550781 231.125 C 233.738281 231.597656 232.179688 231.464844 231.367188 231.125 C 230.6875 230.855469 230.144531 230.175781 229.875 229.566406 C 229.601562 228.957031 229.46875 228.074219 229.671875 227.394531 C 229.941406 226.582031 230.957031 225.363281 231.703125 224.957031 C 232.382812 224.683594 233.195312 224.683594 233.875 224.886719 C 234.550781 225.089844 235.296875 225.496094 235.703125 226.109375 C 236.109375 226.851562 236.382812 228.34375 236.179688 229.226562 C 235.976562 229.90625 235.433594 230.582031 234.890625 230.921875 C 234.28125 231.328125 233.804688 231.53125 232.789062 231.53125 C 229.398438 231.464844 218.347656 226.515625 211.636719 224.886719 C 205.667969 223.394531 197.195312 223.058594 194.484375 221.769531 C 193.464844 221.292969 192.992188 220.886719 192.652344 220.210938 C 192.246094 219.597656 192.109375 218.582031 192.3125 217.835938 C 192.449219 217.089844 192.992188 216.277344 193.601562 215.871094 C 194.210938 215.394531 195.90625 215.191406 195.90625 215.191406 "/></clipPath><clipPath id="b0738f34fb"><path d="M 256.117188 224.03125 L 298.519531 224.03125 L 298.519531 258.894531 L 256.117188 258.894531 Z M 256.117188 224.03125 "/></clipPath><clipPath id="cebd486366"><path d="M 260.992188 232.683594 C 296.992188 252.480469 297.535156 252.886719 297.941406 253.703125 C 298.351562 254.449219 298.554688 255.328125 298.351562 256.074219 C 298.214844 256.820312 297.738281 257.703125 297.128906 258.109375 C 296.382812 258.652344 295.09375 258.855469 294.011719 258.652344 C 292.789062 258.449219 291.773438 257.769531 290.214844 256.683594 C 287.027344 254.515625 281.128906 249.292969 276.859375 244.886719 C 272.316406 240.277344 265.46875 232.480469 263.707031 229.699219 C 263.164062 228.75 262.890625 228.414062 262.890625 227.667969 C 262.890625 226.785156 263.5 225.363281 264.179688 224.75 C 264.652344 224.277344 265.46875 224.074219 266.214844 224.074219 C 266.890625 224.007812 267.707031 224.277344 268.246094 224.683594 C 268.789062 225.089844 269.332031 225.769531 269.535156 226.445312 C 269.671875 227.328125 269.46875 228.820312 268.859375 229.566406 C 268.316406 230.3125 266.824219 230.785156 265.941406 230.785156 C 265.265625 230.785156 264.449219 230.378906 263.976562 229.972656 C 263.5 229.496094 263.027344 228.75 262.890625 228.074219 C 262.824219 227.191406 263.296875 225.699219 263.839844 225.023438 C 264.316406 224.480469 265.0625 224.074219 265.808594 224.074219 C 266.6875 224.007812 267.636719 224.34375 268.789062 225.160156 C 271.5 227.058594 275.636719 234.039062 279.636719 238.175781 C 283.839844 242.515625 290.351562 248.140625 293.671875 250.582031 C 295.230469 251.804688 296.65625 252.140625 297.46875 253.089844 C 298.078125 253.769531 298.417969 254.515625 298.417969 255.261719 C 298.484375 256.007812 298.148438 256.957031 297.671875 257.566406 C 297.199219 258.175781 296.382812 258.652344 295.636719 258.785156 C 294.890625 258.921875 294.214844 258.71875 293.265625 258.3125 C 291.570312 257.632812 289.808594 255.734375 286.824219 253.972656 C 280.65625 250.242188 260.859375 241.566406 257.535156 238.445312 C 256.652344 237.632812 256.449219 237.160156 256.316406 236.414062 C 256.179688 235.667969 256.316406 234.648438 256.722656 234.039062 C 257.128906 233.363281 257.875 232.75 258.621094 232.546875 C 259.296875 232.277344 260.992188 232.683594 260.992188 232.683594 "/></clipPath><clipPath id="768ca66855"><path d="M 253.359375 176.710938 L 298.269531 176.710938 L 298.269531 204.238281 L 253.359375 204.238281 Z M 253.359375 176.710938 "/></clipPath><clipPath id="d88c3a49cc"><path d="M 255.367188 197.699219 C 295.027344 176.75 295.839844 176.953125 296.65625 177.359375 C 297.265625 177.699219 297.738281 178.445312 298.011719 179.054688 C 298.214844 179.734375 298.28125 180.546875 298.011719 181.226562 C 297.671875 182.039062 296.585938 183.125 295.773438 183.460938 C 295.09375 183.734375 294.214844 183.597656 293.605469 183.394531 C 292.992188 183.125 292.25 182.648438 291.910156 182.039062 C 291.503906 181.226562 291.300781 179.664062 291.707031 178.851562 C 292.042969 177.972656 293.332031 177.089844 294.214844 176.886719 C 294.890625 176.683594 295.707031 176.886719 296.316406 177.15625 C 296.925781 177.496094 297.535156 178.105469 297.875 178.714844 C 298.148438 179.328125 298.28125 180.207031 298.148438 180.886719 C 298.011719 181.5625 297.875 181.972656 297.0625 182.71875 C 293.332031 186.308594 263.976562 202.582031 258.144531 203.871094 C 256.585938 204.277344 255.773438 204.140625 255.027344 203.734375 C 254.28125 203.394531 253.738281 202.582031 253.535156 201.835938 C 253.265625 201.089844 253.332031 200.140625 253.671875 199.464844 C 253.941406 198.785156 255.367188 197.699219 255.367188 197.699219 "/></clipPath><clipPath id="44d452f081"><path d="M 264.785156 176.675781 L 298.355469 176.675781 L 298.355469 210.703125 L 264.785156 210.703125 Z M 264.785156 176.675781 "/></clipPath><clipPath id="b1e963ff02"><path d="M 297.332031 182.445312 C 276.449219 202.71875 272.519531 209.15625 269.808594 210.3125 C 268.585938 210.851562 267.367188 210.582031 266.621094 210.175781 C 265.941406 209.902344 265.46875 209.226562 265.195312 208.546875 C 264.925781 207.9375 264.859375 207.054688 264.992188 206.445312 C 265.195312 205.769531 265.601562 205.023438 266.214844 204.617188 C 266.890625 204.140625 268.449219 203.734375 269.332031 204.003906 C 270.214844 204.277344 271.296875 205.363281 271.570312 206.3125 C 271.839844 207.191406 271.433594 208.683594 270.890625 209.429688 C 270.484375 209.972656 269.738281 210.378906 269.0625 210.582031 C 268.449219 210.71875 267.570312 210.648438 266.960938 210.378906 C 266.28125 210.105469 265.671875 209.496094 265.332031 208.886719 C 264.992188 208.277344 264.722656 207.734375 264.925781 206.785156 C 265.601562 204.140625 271.636719 198.039062 275.910156 193.566406 C 280.992188 188.207031 290.757812 178.378906 293.605469 177.023438 C 294.351562 176.683594 294.6875 176.75 295.230469 176.820312 C 295.910156 176.953125 296.859375 177.429688 297.332031 177.972656 C 297.875 178.511719 298.214844 179.460938 298.214844 180.207031 C 298.214844 180.953125 297.332031 182.445312 297.332031 182.445312 "/></clipPath><clipPath id="5adcc5761c"><path d="M 190.070312 176.136719 L 226.082031 176.136719 L 226.082031 211.984375 L 190.070312 211.984375 Z M 190.070312 176.136719 "/></clipPath><clipPath id="3909336dd8"><path d="M 220.925781 211.53125 C 213.671875 206.582031 210.957031 204.207031 207.839844 201.023438 C 203.09375 196.140625 192.789062 184.953125 190.890625 181.699219 C 190.347656 180.75 190.210938 180.34375 190.210938 179.664062 C 190.210938 178.921875 190.484375 178.105469 190.957031 177.5625 C 191.5 176.953125 192.925781 176.277344 193.804688 176.277344 C 194.550781 176.277344 195.296875 176.613281 195.839844 177.089844 C 196.382812 177.496094 196.855469 178.242188 196.925781 178.921875 C 197.058594 179.800781 196.71875 181.292969 196.109375 181.972656 C 195.433594 182.648438 193.941406 183.054688 193.058594 182.988281 C 192.3125 182.921875 191.636719 182.445312 191.160156 181.972656 C 190.6875 181.496094 190.28125 180.75 190.28125 180.003906 C 190.210938 179.125 190.820312 177.699219 191.433594 177.089844 C 191.976562 176.546875 192.789062 176.277344 193.464844 176.277344 C 194.144531 176.207031 194.617188 176.277344 195.566406 176.820312 C 198.824219 178.921875 208.3125 192.140625 213.941406 197.496094 C 218.078125 201.429688 224.179688 204.546875 225.535156 206.851562 C 226.078125 207.800781 226.144531 208.480469 226.007812 209.226562 C 225.875 209.972656 225.261719 210.851562 224.789062 211.261719 C 224.3125 211.667969 223.839844 211.871094 223.296875 211.9375 C 222.621094 212.074219 220.925781 211.53125 220.925781 211.53125 "/></clipPath><clipPath id="50571cec4c"><path d="M 190.15625 176.210938 L 236.671875 176.210938 L 236.671875 203.1875 L 190.15625 203.1875 Z M 190.15625 176.210938 "/></clipPath><clipPath id="ab8f367e99"><path d="M 194.007812 176.277344 C 202.957031 178.785156 209.671875 181.699219 215.230469 184.683594 C 221.738281 188.074219 232.855469 194.582031 235.433594 197.15625 C 236.179688 197.902344 236.382812 198.308594 236.585938 198.988281 C 236.722656 199.667969 236.652344 200.480469 236.382812 201.15625 C 236.042969 201.769531 235.5 202.378906 234.890625 202.71875 C 234.28125 203.054688 233.46875 203.257812 232.722656 203.125 C 231.90625 202.921875 230.621094 201.972656 230.210938 201.226562 C 229.804688 200.617188 229.738281 199.734375 229.941406 199.054688 C 230.210938 198.242188 231.09375 196.953125 231.976562 196.617188 C 232.789062 196.277344 234.347656 196.410156 235.09375 196.886719 C 235.90625 197.429688 236.585938 198.851562 236.652344 199.734375 C 236.722656 200.414062 236.382812 201.226562 235.976562 201.769531 C 235.570312 202.308594 234.890625 202.785156 234.214844 202.988281 C 233.535156 203.191406 233.058594 203.191406 232.042969 202.921875 C 228.925781 201.972656 220.382812 195.125 214.550781 191.9375 C 209.058594 188.953125 202.210938 185.972656 198.007812 184.34375 C 195.433594 183.394531 192.855469 183.191406 191.703125 182.445312 C 191.09375 182.039062 190.890625 181.769531 190.617188 181.226562 C 190.347656 180.613281 190.144531 179.597656 190.347656 178.851562 C 190.484375 178.105469 191.09375 177.292969 191.703125 176.886719 C 192.3125 176.410156 194.007812 176.277344 194.007812 176.277344 "/></clipPath><clipPath id="6e3608cea5"><path d="M 191.046875 225.113281 L 227.410156 225.113281 L 227.410156 262.125 L 191.046875 262.125 Z M 191.046875 225.113281 "/></clipPath><clipPath id="f59394953a"><path d="M 225.941406 231.394531 C 200.71875 255.53125 198.144531 260.480469 196.109375 261.632812 C 195.296875 262.109375 194.617188 262.039062 193.941406 261.972656 C 193.261719 261.835938 192.515625 261.429688 192.042969 260.886719 C 191.636719 260.414062 191.160156 259.667969 191.160156 258.921875 C 191.160156 258.039062 191.636719 256.617188 192.382812 256.007812 C 193.128906 255.394531 194.617188 255.191406 195.5 255.328125 C 196.179688 255.464844 196.855469 256.007812 197.261719 256.550781 C 197.667969 257.160156 198.007812 257.90625 197.941406 258.652344 C 197.875 259.53125 197.128906 260.886719 196.449219 261.429688 C 195.839844 261.90625 195.027344 262.039062 194.347656 261.972656 C 193.667969 261.972656 192.855469 261.703125 192.3125 261.160156 C 191.703125 260.550781 191.027344 259.464844 191.160156 258.175781 C 191.566406 255.53125 196.109375 250.785156 199.90625 246.515625 C 205.398438 240.34375 218.347656 227.800781 222.144531 225.835938 C 223.160156 225.226562 223.703125 225.160156 224.449219 225.226562 C 225.195312 225.363281 226.078125 225.769531 226.550781 226.378906 C 227.09375 227.125 227.5 228.617188 227.296875 229.429688 C 227.160156 230.242188 225.941406 231.394531 225.941406 231.394531 "/></clipPath><clipPath id="6368de8136"><path d="M 191.085938 236 L 234.585938 236 L 234.585938 262.117188 L 191.085938 262.117188 Z M 191.085938 236 "/></clipPath><clipPath id="37e7813a21"><path d="M 193.601562 255.464844 C 222.007812 239.53125 227.976562 236.414062 230.550781 236.074219 C 231.570312 235.9375 232.042969 236.074219 232.652344 236.414062 C 233.398438 236.886719 234.28125 238.242188 234.484375 239.058594 C 234.621094 239.804688 234.347656 240.617188 234.007812 241.160156 C 233.601562 241.769531 232.992188 242.3125 232.316406 242.582031 C 231.703125 242.855469 230.824219 242.921875 230.144531 242.71875 C 229.332031 242.378906 228.179688 241.292969 227.839844 240.480469 C 227.570312 239.871094 227.570312 238.988281 227.90625 238.3125 C 228.246094 237.566406 229.332031 236.480469 230.210938 236.140625 C 230.890625 235.9375 231.703125 236.007812 232.316406 236.277344 C 232.992188 236.546875 233.671875 237.089844 234.007812 237.699219 C 234.347656 238.3125 234.550781 239.125 234.484375 239.804688 C 234.347656 240.480469 234.214844 241.089844 233.535156 241.769531 C 231.570312 243.804688 223.230469 246.378906 217.875 249.292969 C 211.976562 252.480469 204.042969 258.242188 199.769531 260.277344 C 197.535156 261.292969 195.839844 262.109375 194.484375 262.109375 C 193.601562 262.109375 192.789062 261.835938 192.246094 261.292969 C 191.566406 260.683594 191.09375 259.191406 191.09375 258.378906 C 191.09375 257.769531 191.296875 257.292969 191.636719 256.820312 C 192.042969 256.277344 193.601562 255.464844 193.601562 255.464844 "/></clipPath></defs><g id="155eb54afb"><g clip-rule="nonzero" clip-path="url(#71c31d4d86)"><g clip-rule="nonzero" clip-path="url(#873550c47d)"><path style=" stroke:none;fill-rule:nonzero;fill:currentColor;fill-opacity:1;" d="M 93.164062 118.789062 L 109.027344 118.789062 L 109.027344 241.058594 L 93.164062 241.058594 Z M 93.164062 118.789062 "/></g></g><g clip-rule="nonzero" clip-path="url(#3448da4b3c)"><g clip-rule="nonzero" clip-path="url(#bc440934d8)"><path style=" stroke:none;fill-rule:nonzero;fill:currentColor;fill-opacity:1;" d="M 39.398438 116.011719 L 108.273438 116.011719 L 108.273438 130.65625 L 39.398438 130.65625 Z M 39.398438 116.011719 "/></g></g><g clip-rule="nonzero" clip-path="url(#844eb06812)"><g clip-rule="nonzero" clip-path="url(#4545d6718e)"><path style=" stroke:none;fill-rule:nonzero;fill:currentColor;fill-opacity:1;" d="M 37.566406 92.753906 L 51.667969 92.753906 L 51.667969 128.890625 L 37.566406 128.890625 Z M 37.566406 92.753906 "/></g></g><g clip-rule="nonzero" clip-path="url(#062b20f6d6)"><g clip-rule="nonzero" clip-path="url(#2652f2d1e1)"><path style=" stroke:none;fill-rule:nonzero;fill:currentColor;fill-opacity:1;" d="M 37.5 89.839844 L 106.230469 89.839844 L 106.230469 104.890625 L 37.5 104.890625 Z M 37.5 89.839844 "/></g></g><g clip-rule="nonzero" clip-path="url(#eba4d01e3c)"><g clip-rule="nonzero" clip-path="url(#365a08239e)"><path style=" stroke:none;fill-rule:nonzero;fill:currentColor;fill-opacity:1;" d="M 93.90625 40.414062 L 106.789062 40.414062 L 106.789062 101.90625 L 93.90625 101.90625 Z M 93.90625 40.414062 "/></g></g><g clip-rule="nonzero" clip-path="url(#f6e99dc54b)"><g clip-rule="nonzero" clip-path="url(#829a4b7253)"><path style=" stroke:none;fill-rule:nonzero;fill:currentColor;fill-opacity:1;" d="M 95.671875 37.5 L 133.835938 37.5 L 133.835938 52.347656 L 95.671875 52.347656 Z M 95.671875 37.5 "/></g></g><g clip-rule="nonzero" clip-path="url(#f6747179e9)"><g clip-rule="nonzero" clip-path="url(#640e4fd3fe)"><path style=" stroke:none;fill-rule:nonzero;fill:currentColor;fill-opacity:1;" d="M 120.621094 38.515625 L 135.332031 38.515625 L 135.332031 100.871094 L 120.621094 100.871094 Z M 120.621094 38.515625 "/></g></g><g clip-rule="nonzero" clip-path="url(#8a73a1ee97)"><g clip-rule="nonzero" clip-path="url(#a0838f895d)"><path style=" stroke:none;fill-rule:nonzero;fill:currentColor;fill-opacity:1;" d="M 123.128906 88.214844 L 190.941406 88.214844 L 190.941406 102.246094 L 123.128906 102.246094 Z M 123.128906 88.214844 "/></g></g><g clip-rule="nonzero" clip-path="url(#2e64c480f9)"><g clip-rule="nonzero" clip-path="url(#ddbfd0340e)"><path style=" stroke:none;fill-rule:nonzero;fill:currentColor;fill-opacity:1;" d="M 178.179688 90.042969 L 194.113281 90.042969 L 194.113281 127.695312 L 178.179688 127.695312 Z M 178.179688 90.042969 "/></g></g><g clip-rule="nonzero" clip-path="url(#9243055ff6)"><g clip-rule="nonzero" clip-path="url(#29b5729eb7)"><path style=" stroke:none;fill-rule:nonzero;fill:currentColor;fill-opacity:1;" d="M 94.113281 228.757812 L 132.683594 228.757812 L 132.683594 241.367188 L 94.113281 241.367188 Z M 94.113281 228.757812 "/></g></g><g clip-rule="nonzero" clip-path="url(#33617526ee)"><g clip-rule="nonzero" clip-path="url(#ba7748d2ca)"><path style=" stroke:none;fill-rule:nonzero;fill:currentColor;fill-opacity:1;" d="M 120.347656 123.605469 L 134.316406 123.605469 L 134.316406 240.953125 L 120.347656 240.953125 Z M 120.347656 123.605469 "/></g></g><g clip-rule="nonzero" clip-path="url(#826a6d5d2b)"><g clip-rule="nonzero" clip-path="url(#aaa32cab9c)"><path style=" stroke:none;fill-rule:nonzero;fill:currentColor;fill-opacity:1;" d="M 122.042969 120.078125 L 145.324219 120.078125 L 145.324219 140.28125 L 122.042969 140.28125 Z M 122.042969 120.078125 "/></g></g><g clip-rule="nonzero" clip-path="url(#809c26dead)"><g clip-rule="nonzero" clip-path="url(#3738e13b4c)"><path style=" stroke:none;fill-rule:nonzero;fill:currentColor;fill-opacity:1;" d="M 133.09375 92.144531 L 192.730469 92.144531 L 192.730469 132.214844 L 133.09375 132.214844 Z M 133.09375 92.144531 "/></g></g><g clip-rule="nonzero" clip-path="url(#e9e34714e1)"><g clip-rule="nonzero" clip-path="url(#8d6054d22d)"><path style=" stroke:none;fill-rule:nonzero;fill:currentColor;fill-opacity:1;" d="M 178.316406 91.46875 L 194.453125 91.46875 L 194.453125 131.617188 L 178.316406 131.617188 Z M 178.316406 91.46875 "/></g></g><g clip-rule="nonzero" clip-path="url(#4d58afea70)"><g clip-rule="nonzero" clip-path="url(#0b61dbc359)"><path style=" stroke:none;fill-rule:nonzero;fill:currentColor;fill-opacity:1;" d="M 227.570312 229.363281 L 247.230469 229.363281 L 247.230469 337.5 L 227.570312 337.5 Z M 227.570312 229.363281 "/></g></g><g clip-rule="nonzero" clip-path="url(#bc9f8469a5)"><g clip-rule="nonzero" clip-path="url(#4c6926227b)"><path style=" stroke:none;fill-rule:nonzero;fill:currentColor;fill-opacity:1;" d="M 234.957031 223.328125 L 262.824219 223.328125 L 262.824219 336.636719 L 234.957031 336.636719 Z M 234.957031 223.328125 "/></g></g><g clip-rule="nonzero" clip-path="url(#50f39fb93a)"><g clip-rule="nonzero" clip-path="url(#09e6af08aa)"><path style=" stroke:none;fill-rule:nonzero;fill:currentColor;fill-opacity:1;" d="M 250.6875 211.871094 L 303.003906 211.871094 L 303.003906 235.53125 L 250.6875 235.53125 Z M 250.6875 211.871094 "/></g></g><g clip-rule="nonzero" clip-path="url(#eb4b4d2e33)"><g clip-rule="nonzero" clip-path="url(#cccbd6080f)"><path style=" stroke:none;fill-rule:nonzero;fill:currentColor;fill-opacity:1;" d="M 250.621094 202.039062 L 302.953125 202.039062 L 302.953125 224.074219 L 250.621094 224.074219 Z M 250.621094 202.039062 "/></g></g><g clip-rule="nonzero" clip-path="url(#21f2ef6167)"><g clip-rule="nonzero" clip-path="url(#dc4119d302)"><path style=" stroke:none;fill-rule:nonzero;fill:currentColor;fill-opacity:1;" d="M 238.6875 152.277344 L 262.757812 152.277344 L 262.757812 214.328125 L 238.6875 214.328125 Z M 238.6875 152.277344 "/></g></g><g clip-rule="nonzero" clip-path="url(#d068ddde7c)"><g clip-rule="nonzero" clip-path="url(#6b81b515c2)"><path style=" stroke:none;fill-rule:nonzero;fill:currentColor;fill-opacity:1;" d="M 228.789062 152.277344 L 250.890625 152.277344 L 250.890625 216.421875 L 228.789062 216.421875 Z M 228.789062 152.277344 "/></g></g><g clip-rule="nonzero" clip-path="url(#30168bc6f3)"><g clip-rule="nonzero" clip-path="url(#c0d37ac339)"><path style=" stroke:none;fill-rule:nonzero;fill:currentColor;fill-opacity:1;" d="M 187.839844 204.140625 L 241.011719 204.140625 L 241.011719 224.277344 L 187.839844 224.277344 Z M 187.839844 204.140625 "/></g></g><g clip-rule="nonzero" clip-path="url(#b18c09e582)"><g clip-rule="nonzero" clip-path="url(#f4a6e60e0c)"><path style=" stroke:none;fill-rule:nonzero;fill:currentColor;fill-opacity:1;" d="M 227.773438 223.125 L 240.113281 223.125 L 240.113281 242.117188 L 227.773438 242.117188 Z M 227.773438 223.125 "/></g></g><g clip-rule="nonzero" clip-path="url(#ffb4d56f23)"><g clip-rule="nonzero" clip-path="url(#2b314a7065)"><path style=" stroke:none;fill-rule:nonzero;fill:currentColor;fill-opacity:1;" d="M 189.601562 212.480469 L 239.078125 212.480469 L 239.078125 234.242188 L 189.601562 234.242188 Z M 189.601562 212.480469 "/></g></g><g clip-rule="nonzero" clip-path="url(#b0738f34fb)"><g clip-rule="nonzero" clip-path="url(#cebd486366)"><path style=" stroke:none;fill-rule:nonzero;fill:currentColor;fill-opacity:1;" d="M 253.601562 221.363281 L 301.1875 221.363281 L 301.1875 261.566406 L 253.601562 261.566406 Z M 253.601562 221.363281 "/></g></g><g clip-rule="nonzero" clip-path="url(#768ca66855)"><g clip-rule="nonzero" clip-path="url(#d88c3a49cc)"><path style=" stroke:none;fill-rule:nonzero;fill:currentColor;fill-opacity:1;" d="M 250.824219 174.175781 L 300.933594 174.175781 L 300.933594 206.648438 L 250.824219 206.648438 Z M 250.824219 174.175781 "/></g></g><g clip-rule="nonzero" clip-path="url(#44d452f081)"><g clip-rule="nonzero" clip-path="url(#b1e963ff02)"><path style=" stroke:none;fill-rule:nonzero;fill:currentColor;fill-opacity:1;" d="M 262.214844 174.105469 L 300.925781 174.105469 L 300.925781 213.273438 L 262.214844 213.273438 Z M 262.214844 174.105469 "/></g></g><g clip-rule="nonzero" clip-path="url(#5adcc5761c)"><g clip-rule="nonzero" clip-path="url(#3909336dd8)"><path style=" stroke:none;fill-rule:nonzero;fill:currentColor;fill-opacity:1;" d="M 187.5 173.5625 L 228.652344 173.5625 L 228.652344 214.71875 L 187.5 214.71875 Z M 187.5 173.5625 "/></g></g><g clip-rule="nonzero" clip-path="url(#50571cec4c)"><g clip-rule="nonzero" clip-path="url(#ab8f367e99)"><path style=" stroke:none;fill-rule:nonzero;fill:currentColor;fill-opacity:1;" d="M 187.636719 173.5625 L 239.445312 173.5625 L 239.445312 205.835938 L 187.636719 205.835938 Z M 187.636719 173.5625 "/></g></g><g clip-rule="nonzero" clip-path="url(#6e3608cea5)"><g clip-rule="nonzero" clip-path="url(#f59394953a)"><path style=" stroke:none;fill-rule:nonzero;fill:currentColor;fill-opacity:1;" d="M 188.449219 222.515625 L 230.007812 222.515625 L 230.007812 264.722656 L 188.449219 264.722656 Z M 188.449219 222.515625 "/></g></g><g clip-rule="nonzero" clip-path="url(#6368de8136)"><g clip-rule="nonzero" clip-path="url(#37e7813a21)"><path style=" stroke:none;fill-rule:nonzero;fill:currentColor;fill-opacity:1;" d="M 188.382812 233.363281 L 237.167969 233.363281 L 237.167969 264.820312 L 188.382812 264.820312 Z M 188.382812 233.363281 "/></g></g></g></svg>