<svg xmlns="http://www.w3.org/2000/svg" xmlns:xlink="http://www.w3.org/1999/xlink" width="500" zoomAndPan="magnify" viewBox="0 0 375 374.999991" height="500" preserveAspectRatio="xMidYMid meet" version="1.2"><defs><clipPath id="5e23a1aa8c"><path d="M 99.914062 132.191406 L 111.78125 132.191406 L 111.78125 257.191406 L 99.914062 257.191406 Z M 99.914062 132.191406 "/></clipPath><clipPath id="811f112cd9"><path d="M 99.964844 253.539062 C 100.398438 220.75 101.414062 213.203125 101.921875 202.03125 C 102.792969 184.691406 101.851562 143.558594 103.882812 135.867188 C 104.390625 134.128906 104.679688 133.402344 105.476562 132.820312 C 106.347656 132.3125 107.945312 132.097656 108.886719 132.457031 C 109.828125 132.894531 110.84375 134.128906 111.0625 135.070312 C 111.28125 136.085938 110.84375 137.609375 110.191406 138.335938 C 109.46875 139.0625 107.945312 139.570312 106.929688 139.421875 C 105.984375 139.277344 104.679688 138.261719 104.242188 137.390625 C 103.808594 136.449219 103.882812 134.851562 104.390625 133.980469 C 104.96875 133.113281 106.421875 132.386719 107.363281 132.242188 C 108.089844 132.097656 108.960938 132.386719 109.539062 132.820312 C 110.265625 133.472656 110.773438 134.128906 111.136719 135.867188 C 113.023438 143.847656 109.902344 189.917969 109.03125 207.039062 C 108.523438 216.757812 107.652344 222.199219 107.363281 229.890625 C 107.074219 237.726562 107.945312 249.769531 107.21875 253.539062 C 107 254.847656 106.855469 255.355469 106.347656 256.007812 C 105.765625 256.585938 104.824219 257.097656 104.027344 257.167969 C 103.226562 257.242188 102.210938 257.097656 101.558594 256.585938 C 100.835938 255.933594 99.964844 253.539062 99.964844 253.539062 "/></clipPath><clipPath id="d8ef89d088"><path d="M 42.410156 128.9375 L 110.355469 128.9375 L 110.355469 139.160156 L 42.410156 139.160156 Z M 42.410156 128.9375 "/></clipPath><clipPath id="fc1f1b858e"><path d="M 106.710938 139.132812 C 94.738281 138.84375 84.726562 136.882812 76.167969 136.523438 C 66.445312 136.085938 48.890625 138.335938 44.898438 137.03125 C 43.8125 136.667969 43.449219 136.230469 43.011719 135.652344 C 42.652344 135.070312 42.359375 134.128906 42.433594 133.402344 C 42.433594 132.675781 42.796875 131.804688 43.304688 131.296875 C 43.738281 130.71875 44.539062 130.210938 45.261719 130.066406 C 45.988281 129.917969 46.929688 129.917969 47.585938 130.355469 C 48.382812 130.789062 49.46875 132.023438 49.617188 133.039062 C 49.761719 133.980469 49.179688 135.578125 48.527344 136.230469 C 48.019531 136.8125 47.148438 137.175781 46.421875 137.246094 C 45.699219 137.320312 44.828125 137.101562 44.175781 136.738281 C 43.519531 136.375 42.941406 135.722656 42.652344 134.925781 C 42.433594 134.054688 42.578125 132.386719 43.011719 131.589844 C 43.449219 130.933594 43.957031 130.574219 44.898438 130.210938 C 46.714844 129.484375 50.414062 129.484375 54.1875 129.265625 C 60.136719 128.976562 69.636719 128.832031 77.328125 129.265625 C 84.945312 129.703125 94.667969 131.515625 100.253906 131.878906 C 103.375 132.097656 105.914062 131.441406 107.582031 131.949219 C 108.597656 132.3125 109.25 132.75 109.683594 133.402344 C 110.191406 134.128906 110.410156 135.144531 110.335938 135.941406 C 110.191406 136.738281 109.757812 137.683594 109.105469 138.191406 C 108.523438 138.769531 106.710938 139.132812 106.710938 139.132812 "/></clipPath><clipPath id="1ee92099a6"><path d="M 40.402344 104.308594 L 49.714844 104.308594 L 49.714844 137.261719 L 40.402344 137.261719 Z M 40.402344 104.308594 "/></clipPath><clipPath id="572c4489a7"><path d="M 42.433594 133.910156 C 40.835938 105.832031 41.199219 105.472656 41.851562 105.035156 C 42.652344 104.527344 44.320312 104.308594 45.191406 104.527344 C 45.988281 104.746094 46.640625 105.398438 47.078125 105.980469 C 47.4375 106.632812 47.730469 107.429688 47.65625 108.226562 C 47.511719 109.171875 46.640625 110.550781 45.84375 111.128906 C 45.191406 111.566406 44.320312 111.710938 43.59375 111.566406 C 42.652344 111.347656 41.273438 110.40625 40.765625 109.605469 C 40.402344 108.953125 40.328125 108.082031 40.472656 107.359375 C 40.546875 106.632812 41.054688 105.761719 41.5625 105.324219 C 42.070312 104.816406 42.941406 104.457031 43.667969 104.382812 C 44.390625 104.308594 45.335938 104.527344 45.914062 104.890625 C 46.570312 105.253906 47.003906 105.6875 47.4375 106.703125 C 48.453125 109.390625 47.65625 118.890625 48.164062 123.753906 C 48.527344 127.378906 49.832031 131.152344 49.6875 133.328125 C 49.617188 134.417969 49.46875 135.144531 48.960938 135.796875 C 48.453125 136.449219 47.585938 137.03125 46.785156 137.175781 C 45.84375 137.320312 44.246094 136.882812 43.519531 136.230469 C 42.941406 135.722656 42.433594 133.910156 42.433594 133.910156 "/></clipPath><clipPath id="6c057102dd"><path d="M 40.332031 101.128906 L 108.214844 101.128906 L 108.214844 111.824219 L 40.332031 111.824219 Z M 40.332031 101.128906 "/></clipPath><clipPath id="3b6f629c5d"><path d="M 44.027344 104.308594 C 82.261719 101.625 99.746094 100.828125 104.242188 101.261719 C 105.40625 101.410156 105.839844 101.410156 106.492188 101.84375 C 107.21875 102.425781 108.089844 103.875 108.160156 104.816406 C 108.234375 105.617188 107.871094 106.414062 107.507812 106.996094 C 107.074219 107.648438 106.347656 108.226562 105.621094 108.375 C 104.679688 108.589844 103.011719 108.375 102.285156 107.71875 C 101.488281 107.140625 100.90625 105.542969 100.90625 104.601562 C 100.90625 103.875 101.34375 103.003906 101.851562 102.496094 C 102.285156 101.917969 103.15625 101.480469 103.882812 101.335938 C 104.535156 101.191406 105.476562 101.335938 106.128906 101.699219 C 106.78125 101.988281 107.507812 102.570312 107.796875 103.292969 C 108.160156 104.164062 108.089844 105.832031 107.652344 106.703125 C 107.363281 107.429688 107.074219 107.792969 105.984375 108.226562 C 101.632812 110.042969 79.359375 108.953125 68.1875 109.605469 C 59.191406 110.1875 48.164062 112.4375 44.027344 111.566406 C 42.503906 111.273438 41.636719 110.765625 41.054688 110.042969 C 40.546875 109.390625 40.328125 108.300781 40.402344 107.503906 C 40.472656 106.703125 40.980469 105.761719 41.636719 105.253906 C 42.214844 104.746094 44.027344 104.308594 44.027344 104.308594 "/></clipPath><clipPath id="fc57829612"><path d="M 100.714844 48.328125 L 109.21875 48.328125 L 109.21875 108.527344 L 100.714844 108.527344 Z M 100.714844 48.328125 "/></clipPath><clipPath id="0649f5cf4a"><path d="M 100.761719 104.890625 C 101.921875 50.261719 102.285156 49.609375 103.011719 49.027344 C 103.664062 48.519531 104.535156 48.304688 105.257812 48.375 C 106.203125 48.519531 107.652344 49.390625 108.160156 50.117188 C 108.667969 50.769531 108.8125 51.640625 108.667969 52.367188 C 108.523438 53.308594 107.652344 54.761719 106.78125 55.195312 C 105.914062 55.703125 104.242188 55.558594 103.375 55.195312 C 102.648438 54.90625 102.066406 54.253906 101.777344 53.527344 C 101.488281 52.65625 101.558594 50.988281 101.996094 50.117188 C 102.285156 49.464844 103.082031 48.882812 103.734375 48.59375 C 104.390625 48.375 105.332031 48.304688 106.058594 48.519531 C 106.78125 48.667969 107.507812 49.246094 107.945312 49.828125 C 108.378906 50.40625 108.523438 50.769531 108.742188 52.003906 C 109.539062 57.007812 109.105469 81.964844 108.742188 91.976562 C 108.453125 98.070312 108.742188 104.238281 107.582031 106.632812 C 107.074219 107.574219 106.421875 108.011719 105.621094 108.300781 C 104.898438 108.589844 103.808594 108.589844 103.082031 108.300781 C 102.359375 108.011719 101.558594 107.210938 101.125 106.632812 C 100.835938 106.050781 100.761719 104.890625 100.761719 104.890625 "/></clipPath><clipPath id="b5dde7d3a5"><path d="M 102.601562 45.148438 L 137.726562 45.148438 L 137.726562 55.324219 L 102.601562 55.324219 Z M 102.601562 45.148438 "/></clipPath><clipPath id="b6035660f8"><path d="M 105.984375 48.085938 C 123.832031 45.621094 131.304688 44.894531 134.0625 45.257812 C 135.148438 45.402344 135.65625 45.472656 136.238281 45.980469 C 136.960938 46.636719 137.6875 48.160156 137.6875 49.101562 C 137.6875 49.828125 137.398438 50.699219 136.816406 51.207031 C 136.164062 51.929688 134.640625 52.511719 133.699219 52.511719 C 132.898438 52.4375 132.101562 52.003906 131.59375 51.496094 C 131.015625 50.988281 130.507812 50.261719 130.507812 49.464844 C 130.433594 48.519531 130.867188 46.925781 131.59375 46.273438 C 132.320312 45.546875 133.914062 45.183594 134.859375 45.328125 C 135.585938 45.472656 136.382812 45.980469 136.816406 46.5625 C 137.324219 47.070312 137.617188 47.941406 137.6875 48.667969 C 137.6875 49.390625 137.46875 50.335938 137.035156 50.914062 C 136.671875 51.496094 136.238281 51.929688 135.222656 52.292969 C 132.683594 53.238281 124.917969 52.65625 119.988281 53.164062 C 115.34375 53.671875 109.105469 55.484375 106.421875 55.269531 C 105.257812 55.195312 104.605469 55.050781 104.027344 54.542969 C 103.375 54.035156 102.792969 53.164062 102.648438 52.367188 C 102.503906 51.421875 103.011719 49.828125 103.664062 49.101562 C 104.171875 48.519531 105.984375 48.085938 105.984375 48.085938 "/></clipPath><clipPath id="5d81b1cebd"><path d="M 129.273438 46.085938 L 139.359375 46.085938 L 139.359375 107.273438 L 129.273438 107.273438 Z M 129.273438 46.085938 "/></clipPath><clipPath id="3a1f139538"><path d="M 137.035156 49.753906 C 136.890625 77.105469 138.558594 86.027344 138.847656 92.484375 C 139.066406 97.347656 139.792969 103.148438 138.777344 105.324219 C 138.339844 106.269531 137.542969 106.703125 136.890625 106.996094 C 136.308594 107.285156 135.730469 107.285156 135.148438 107.210938 C 134.570312 107.140625 133.988281 106.996094 133.554688 106.632812 C 132.972656 106.125 132.246094 105.253906 132.101562 104.527344 C 131.882812 103.800781 131.957031 103.003906 132.175781 102.351562 C 132.464844 101.699219 132.972656 100.902344 133.625 100.539062 C 134.496094 100.101562 136.09375 99.886719 137.035156 100.320312 C 137.976562 100.683594 138.992188 101.988281 139.140625 102.933594 C 139.355469 103.949219 138.847656 105.472656 138.125 106.195312 C 137.398438 106.921875 135.875 107.359375 134.859375 107.210938 C 133.914062 106.996094 132.609375 105.980469 132.246094 105.035156 C 131.882812 104.09375 132.03125 102.496094 132.539062 101.625 C 133.117188 100.828125 134.570312 100.101562 135.511719 100.03125 C 136.308594 99.886719 137.109375 100.175781 137.6875 100.683594 C 138.414062 101.261719 139.140625 102.714844 139.210938 103.65625 C 139.285156 104.457031 138.847656 105.398438 138.339844 106.050781 C 137.761719 106.632812 136.816406 107.140625 136.019531 107.210938 C 135.222656 107.359375 134.207031 107.066406 133.554688 106.632812 C 132.898438 106.125 132.464844 105.617188 132.101562 104.527344 C 131.230469 101.988281 131.957031 95.75 131.523438 90.960938 C 131.160156 85.59375 129.851562 79.136719 129.492188 73.984375 C 129.199219 69.707031 129.273438 66.367188 129.34375 62.304688 C 129.417969 57.808594 129.054688 50.40625 130.214844 48.011719 C 130.652344 47.070312 131.375 46.636719 132.101562 46.34375 C 132.828125 46.054688 133.914062 46.054688 134.714844 46.34375 C 135.4375 46.636719 136.238281 47.433594 136.601562 48.011719 C 136.890625 48.59375 137.035156 49.753906 137.035156 49.753906 "/></clipPath><clipPath id="772f3cd008"><path d="M 131.945312 99.378906 L 198.875 99.378906 L 198.875 109.117188 L 131.945312 109.117188 Z M 131.945312 99.378906 "/></clipPath><clipPath id="e46fca82e6"><path d="M 138.484375 100.828125 C 139.9375 102.0625 140.953125 101.191406 142.910156 100.972656 C 150.3125 100.246094 190.574219 98.941406 196.523438 101.699219 C 198.046875 102.425781 198.484375 103.441406 198.699219 104.308594 C 198.992188 105.035156 198.773438 105.980469 198.484375 106.632812 C 198.191406 107.285156 197.539062 107.9375 196.886719 108.300781 C 196.234375 108.664062 195.363281 108.882812 194.636719 108.664062 C 193.695312 108.445312 192.316406 107.503906 191.882812 106.632812 C 191.519531 105.6875 191.589844 104.09375 192.097656 103.222656 C 192.605469 102.351562 193.984375 101.554688 195 101.480469 C 196.015625 101.410156 197.46875 102.0625 198.046875 102.859375 C 198.699219 103.65625 198.847656 105.324219 198.628906 106.269531 C 198.484375 106.996094 197.832031 107.648438 197.25 108.082031 C 196.597656 108.519531 196.234375 108.519531 195 108.734375 C 188.90625 109.535156 147.773438 108.808594 140.15625 108.664062 C 138.195312 108.589844 137.542969 108.882812 136.382812 108.445312 C 135.222656 108.011719 134.0625 106.996094 133.335938 106.050781 C 132.683594 105.324219 132.101562 104.382812 132.03125 103.511719 C 131.882812 102.714844 132.101562 101.699219 132.539062 101.046875 C 132.972656 100.320312 133.84375 99.738281 134.640625 99.523438 C 135.4375 99.304688 136.527344 99.449219 137.179688 99.738281 C 137.761719 99.957031 138.484375 100.828125 138.484375 100.828125 "/></clipPath><clipPath id="a1888c6dfd"><path d="M 190.832031 101.441406 L 202.222656 101.441406 L 202.222656 136 L 190.832031 136 Z M 190.832031 101.441406 "/></clipPath><clipPath id="1b52f390c3"><path d="M 198.191406 104.890625 C 201.238281 127.453125 199.789062 128.179688 199.933594 128.902344 C 200.007812 129.558594 201.3125 129.773438 201.675781 130.425781 C 202.039062 131.082031 202.253906 131.949219 202.183594 132.675781 C 202.109375 133.402344 201.746094 134.273438 201.167969 134.78125 C 200.515625 135.433594 198.917969 135.941406 197.976562 135.867188 C 197.175781 135.796875 196.453125 135.289062 195.945312 134.78125 C 195.4375 134.273438 195 133.402344 194.929688 132.675781 C 194.855469 131.949219 195 131.082031 195.4375 130.425781 C 196.015625 129.628906 197.394531 128.757812 198.339844 128.6875 C 199.355469 128.613281 200.804688 129.410156 201.457031 130.136719 C 201.964844 130.71875 202.253906 131.515625 202.183594 132.3125 C 202.109375 133.257812 201.3125 134.707031 200.585938 135.289062 C 200.007812 135.796875 198.992188 135.867188 198.339844 135.941406 C 197.902344 135.941406 197.613281 135.941406 197.175781 135.652344 C 196.378906 135 195.363281 132.96875 194.566406 130.574219 C 192.898438 125.421875 190.285156 109.535156 190.9375 105.253906 C 191.15625 103.730469 191.664062 102.859375 192.390625 102.207031 C 193.042969 101.699219 194.058594 101.410156 194.855469 101.480469 C 195.652344 101.554688 196.597656 101.988281 197.175781 102.570312 C 197.757812 103.148438 198.191406 104.890625 198.191406 104.890625 "/></clipPath><clipPath id="fdd68c65a4"><path d="M 100.921875 249.859375 L 136.449219 249.859375 L 136.449219 258.292969 L 100.921875 258.292969 Z M 100.921875 249.859375 "/></clipPath><clipPath id="a9c18abcc7"><path d="M 104.605469 250.347656 C 135.367188 250.640625 135.945312 251.65625 136.308594 252.523438 C 136.527344 253.25 136.453125 254.121094 136.164062 254.847656 C 135.875 255.5 135.292969 256.226562 134.640625 256.589844 C 134.0625 256.949219 133.191406 257.242188 132.390625 257.097656 C 131.449219 256.949219 130.070312 256.007812 129.5625 255.210938 C 129.128906 254.554688 129.054688 253.613281 129.199219 252.886719 C 129.34375 252.164062 129.707031 251.363281 130.289062 250.855469 C 131.015625 250.277344 132.609375 249.839844 133.554688 249.914062 C 134.351562 250.058594 135.078125 250.566406 135.585938 251.148438 C 136.019531 251.726562 136.382812 252.597656 136.382812 253.324219 C 136.453125 254.046875 136.308594 254.917969 135.800781 255.5 C 135.222656 256.226562 134.351562 256.734375 132.753906 257.097656 C 128.257812 258.328125 109.105469 258.691406 104.605469 257.605469 C 103.011719 257.242188 102.210938 256.804688 101.632812 256.082031 C 101.050781 255.425781 100.90625 254.339844 100.980469 253.539062 C 101.050781 252.742188 101.558594 251.800781 102.210938 251.292969 C 102.792969 250.785156 104.605469 250.347656 104.605469 250.347656 "/></clipPath><clipPath id="f15360a13c"><path d="M 129.015625 137.234375 L 138.996094 137.234375 L 138.996094 257.144531 L 129.015625 257.144531 Z M 129.015625 137.234375 "/></clipPath><clipPath id="79ae52623c"><path d="M 129.054688 253.46875 C 129.5625 175.769531 128.621094 153.351562 130.652344 144.5 C 131.449219 141.019531 132.609375 138.117188 133.914062 137.390625 C 134.570312 137.03125 135.511719 137.390625 136.164062 137.753906 C 136.960938 138.261719 137.976562 139.570312 138.125 140.585938 C 138.269531 141.601562 137.542969 143.050781 136.890625 143.777344 C 136.382812 144.285156 135.511719 144.648438 134.785156 144.648438 C 133.84375 144.574219 132.320312 143.921875 131.667969 143.195312 C 131.160156 142.617188 130.867188 141.746094 130.867188 141.019531 C 130.867188 140.292969 131.085938 139.421875 131.59375 138.84375 C 132.246094 138.117188 133.699219 137.320312 134.714844 137.390625 C 135.65625 137.390625 137.035156 138.335938 137.617188 139.132812 C 138.050781 139.714844 138.195312 140.65625 138.125 141.382812 C 138.050781 142.109375 137.6875 142.90625 137.179688 143.484375 C 136.671875 143.992188 135.148438 144.5 135.148438 144.574219 C 135.148438 144.648438 137.179688 143.125 137.90625 143.703125 C 140.878906 145.878906 136.816406 175.550781 136.601562 192.746094 C 136.238281 211.898438 137.542969 246.792969 136.308594 253.46875 C 136.09375 254.847656 135.945312 255.28125 135.367188 255.863281 C 134.859375 256.515625 133.914062 257.023438 133.117188 257.097656 C 132.320312 257.167969 131.304688 257.023438 130.652344 256.441406 C 129.851562 255.863281 129.054688 253.46875 129.054688 253.46875 "/></clipPath><clipPath id="008498e2da"><path d="M 130.839844 133.25 L 150 133.25 L 150 149.382812 L 130.839844 149.382812 Z M 130.839844 133.25 "/></clipPath><clipPath id="390b7cc73b"><path d="M 130.867188 145.445312 C 131.59375 138.191406 132.101562 136.957031 132.972656 136.015625 C 133.769531 135.070312 134.785156 134.34375 136.308594 133.910156 C 138.847656 133.113281 145.378906 133.039062 147.480469 133.765625 C 148.425781 134.054688 148.933594 134.5625 149.296875 135.144531 C 149.730469 135.722656 150.019531 136.59375 149.949219 137.390625 C 149.804688 138.261719 149.003906 139.785156 148.207031 140.292969 C 147.335938 140.800781 145.667969 140.875 144.796875 140.4375 C 143.855469 140.003906 142.910156 138.769531 142.765625 137.753906 C 142.550781 136.738281 143.058594 135.214844 143.855469 134.5625 C 144.582031 133.835938 146.175781 133.472656 147.121094 133.621094 C 147.84375 133.765625 148.570312 134.273438 149.078125 134.851562 C 149.585938 135.359375 149.875 136.230469 149.949219 136.957031 C 149.949219 137.683594 149.730469 138.625 149.296875 139.207031 C 148.933594 139.785156 148.425781 140.222656 147.480469 140.585938 C 145.667969 141.308594 139.71875 139.859375 138.269531 141.308594 C 137.179688 142.398438 138.484375 145.589844 137.90625 146.894531 C 137.542969 147.839844 136.890625 148.492188 136.308594 148.925781 C 135.800781 149.21875 135.222656 149.363281 134.640625 149.363281 C 133.84375 149.363281 132.753906 149.144531 132.175781 148.566406 C 131.449219 147.910156 130.867188 145.445312 130.867188 145.445312 "/></clipPath><clipPath id="cca544a82f"><path d="M 142.640625 103.675781 L 200.921875 103.675781 L 200.921875 141 L 142.640625 141 Z M 142.640625 103.675781 "/></clipPath><clipPath id="8f5a1649f2"><path d="M 146.320312 133.546875 C 167.144531 132.097656 188.835938 134.707031 192.390625 132.023438 C 193.550781 131.082031 193.1875 130.136719 193.40625 128.394531 C 193.914062 124.1875 191.664062 109.460938 192.679688 106.195312 C 192.96875 105.179688 193.40625 104.746094 194.058594 104.382812 C 194.855469 103.875 196.523438 103.730469 197.46875 104.019531 C 198.191406 104.238281 198.847656 104.890625 199.207031 105.472656 C 199.570312 106.125 199.789062 107.066406 199.714844 107.792969 C 199.644531 108.519531 199.207031 109.316406 198.699219 109.898438 C 198.265625 110.40625 197.46875 110.914062 196.667969 110.914062 C 195.726562 111.058594 194.203125 110.476562 193.476562 109.898438 C 192.898438 109.316406 192.605469 108.519531 192.460938 107.792969 C 192.390625 106.996094 192.535156 106.125 192.96875 105.472656 C 193.550781 104.746094 195 103.875 195.871094 103.730469 C 196.667969 103.65625 197.539062 103.949219 198.121094 104.382812 C 198.773438 104.746094 199.136719 105.179688 199.570312 106.195312 C 200.515625 108.734375 200.371094 116.644531 200.515625 121.359375 C 200.660156 125.421875 200.949219 129.992188 200.660156 132.75 C 200.441406 134.34375 200.441406 135.433594 199.789062 136.449219 C 199.207031 137.539062 198.699219 138.335938 197.03125 138.988281 C 191.664062 141.164062 168.230469 139.277344 158.945312 139.785156 C 153.578125 140.003906 149.003906 141.382812 146.320312 140.800781 C 144.941406 140.511719 143.925781 140.003906 143.347656 139.207031 C 142.839844 138.554688 142.621094 137.539062 142.695312 136.738281 C 142.839844 135.941406 143.273438 134.996094 143.925781 134.417969 C 144.507812 133.910156 146.320312 133.546875 146.320312 133.546875 "/></clipPath><clipPath id="75ed17d98e"><path d="M 191.015625 102.933594 L 202.953125 102.933594 L 202.953125 140.097656 L 191.015625 140.097656 Z M 191.015625 102.933594 "/></clipPath><clipPath id="51cb634fa6"><path d="M 200.078125 106.632812 C 200.730469 120.34375 202.109375 124.40625 202.472656 127.816406 C 202.761719 130.644531 203.199219 133.765625 202.546875 135.652344 C 202.109375 137.03125 201.3125 137.972656 200.152344 138.699219 C 198.699219 139.570312 195.652344 140.222656 194.203125 140.078125 C 193.257812 139.929688 192.605469 139.496094 192.097656 138.988281 C 191.589844 138.480469 191.226562 137.609375 191.15625 136.882812 C 191.011719 136.160156 191.226562 135.289062 191.589844 134.636719 C 191.953125 133.980469 192.679688 133.402344 193.332031 133.113281 C 194.058594 132.820312 194.929688 132.75 195.652344 132.964844 C 196.523438 133.257812 197.832031 134.34375 198.121094 135.289062 C 198.484375 136.230469 198.265625 137.828125 197.613281 138.625 C 197.03125 139.421875 195.582031 140.148438 194.566406 140.078125 C 193.550781 140.078125 192.171875 139.132812 191.664062 138.40625 C 191.15625 137.753906 191.011719 136.882812 191.082031 136.160156 C 191.15625 135.433594 191.519531 134.707031 192.097656 133.980469 C 192.824219 133.039062 194.855469 132.820312 195.4375 131.296875 C 196.523438 128.46875 193.476562 120.996094 193.042969 116.5 C 192.75 112.652344 192.242188 107.9375 192.898438 105.761719 C 193.257812 104.746094 193.695312 104.09375 194.347656 103.65625 C 195 103.222656 196.089844 102.933594 196.886719 103.003906 C 197.683594 103.148438 198.628906 103.65625 199.136719 104.238281 C 199.714844 104.816406 200.078125 106.632812 200.078125 106.632812 "/></clipPath><clipPath id="0838829052"><path d="M 177.113281 248.859375 L 194.925781 248.859375 L 194.925781 302.113281 L 177.113281 302.113281 Z M 177.113281 248.859375 "/></clipPath><clipPath id="6452c8eb4f"><path d="M 177.167969 298.320312 C 184.714844 261.03125 186.09375 254.066406 187.835938 251.238281 C 188.632812 250.003906 189.503906 249.277344 190.375 248.988281 C 191.097656 248.769531 192.042969 248.914062 192.695312 249.207031 C 193.347656 249.496094 194.074219 250.078125 194.4375 250.730469 C 194.796875 251.382812 194.945312 252.253906 194.871094 252.980469 C 194.726562 253.703125 194.4375 254.574219 193.855469 255.082031 C 193.128906 255.664062 191.535156 256.242188 190.589844 256.097656 C 189.574219 255.878906 188.34375 254.792969 187.90625 253.921875 C 187.542969 253.269531 187.542969 252.324219 187.761719 251.601562 C 187.90625 250.949219 188.414062 250.148438 188.996094 249.714844 C 189.574219 249.207031 190.445312 248.914062 191.171875 248.914062 C 191.898438 248.84375 192.765625 249.0625 193.421875 249.570312 C 194.074219 250.148438 194.726562 251.09375 194.871094 252.617188 C 195.234375 256.535156 190.734375 266.761719 189.066406 274.234375 C 187.179688 282.289062 185.875 295.636719 184.351562 299.335938 C 183.84375 300.496094 183.480469 301.003906 182.828125 301.441406 C 182.175781 301.875 181.085938 302.09375 180.363281 302.019531 C 179.5625 301.875 178.621094 301.367188 178.039062 300.789062 C 177.53125 300.132812 177.167969 298.320312 177.167969 298.320312 "/></clipPath><clipPath id="9637c2b9f4"><path d="M 187.179688 242.761719 L 203.722656 242.761719 L 203.722656 286.183594 L 187.179688 286.183594 Z M 187.179688 242.761719 "/></clipPath><clipPath id="dfc24ddaab"><path d="M 188.125 250.148438 C 195.960938 243.402344 196.976562 242.820312 198.355469 242.820312 C 199.878906 242.894531 202.34375 243.765625 203.214844 244.851562 C 203.867188 245.796875 203.578125 246.957031 203.578125 248.625 C 203.433594 252.035156 202.417969 258.710938 201.253906 264.296875 C 199.804688 270.679688 197.265625 282.214844 195.234375 284.828125 C 194.582031 285.699219 194 285.84375 193.273438 285.988281 C 192.550781 286.132812 191.605469 286.058594 190.953125 285.769531 C 190.300781 285.480469 189.648438 284.828125 189.285156 284.175781 C 188.921875 283.519531 188.703125 282.652344 188.921875 281.851562 C 189.140625 280.980469 190.15625 279.605469 190.953125 279.167969 C 191.605469 278.804688 192.550781 278.734375 193.273438 278.949219 C 194.144531 279.167969 195.453125 280.257812 195.886719 281.128906 C 196.175781 281.851562 196.25 282.722656 195.960938 283.449219 C 195.667969 284.320312 194.507812 285.550781 193.636719 285.914062 C 192.914062 286.207031 192.042969 286.132812 191.316406 285.914062 C 190.664062 285.699219 189.867188 285.117188 189.503906 284.535156 C 189.066406 283.882812 188.851562 283.375 188.851562 282.289062 C 188.851562 278.949219 192.765625 268.867188 194.144531 262.773438 C 195.308594 257.550781 194.871094 248.769531 196.613281 247.898438 C 197.554688 247.464844 200.167969 249.277344 200.09375 249.929688 C 200.09375 250.511719 197.699219 250.875 196.613281 251.671875 C 195.234375 252.6875 193.855469 254.9375 192.765625 255.664062 C 192.1875 256.027344 191.75 256.242188 191.171875 256.242188 C 190.375 256.242188 189.285156 255.953125 188.632812 255.589844 C 188.125 255.226562 187.761719 254.792969 187.542969 254.210938 C 187.253906 253.558594 187.179688 252.398438 187.328125 251.671875 C 187.398438 251.09375 188.125 250.148438 188.125 250.148438 "/></clipPath><clipPath id="181adc55df"><path d="M 177.039062 295 L 267.527344 295 L 267.527344 326.671875 L 177.039062 326.671875 Z M 177.039062 295 "/></clipPath><clipPath id="0bacc255ef"><path d="M 180.871094 295.128906 C 204.230469 296.578125 208.511719 297.59375 214.167969 299.335938 C 221.421875 301.65625 231.433594 306.011719 238.761719 309.566406 C 244.929688 312.613281 251.75 317.765625 255.375 318.925781 C 256.972656 319.433594 257.769531 319.503906 259.003906 319.359375 C 260.308594 319.289062 261.90625 318.125 263.140625 317.980469 C 264.007812 317.910156 264.734375 317.980469 265.386719 318.273438 C 266.039062 318.5625 266.765625 319.214844 267.054688 319.867188 C 267.417969 320.8125 267.347656 322.480469 266.984375 323.277344 C 266.695312 324.003906 265.96875 324.582031 265.242188 324.875 C 264.589844 325.164062 263.648438 325.234375 262.992188 325.019531 C 262.269531 324.875 261.46875 324.4375 261.035156 323.785156 C 260.453125 323.058594 260.089844 321.464844 260.382812 320.449219 C 260.671875 319.503906 261.832031 318.417969 262.703125 318.054688 C 263.429688 317.765625 264.371094 317.765625 265.023438 318.125 C 265.894531 318.488281 267.054688 319.648438 267.347656 320.664062 C 267.5625 321.609375 267.128906 323.058594 266.546875 323.929688 C 265.894531 324.875 264.589844 325.527344 263.5 325.960938 C 262.339844 326.398438 261.105469 326.613281 259.582031 326.613281 C 257.480469 326.6875 254.941406 326.542969 252.113281 325.527344 C 247.46875 323.929688 241.519531 318.996094 235.207031 315.949219 C 227.734375 312.394531 217.433594 307.96875 209.960938 305.722656 C 204.300781 304.050781 199.804688 303.328125 194.726562 302.746094 C 189.71875 302.164062 182.394531 303.179688 179.78125 302.238281 C 178.691406 301.875 178.113281 301.367188 177.75 300.714844 C 177.316406 300.0625 177.097656 298.972656 177.167969 298.175781 C 177.316406 297.378906 177.824219 296.433594 178.476562 295.925781 C 179.054688 295.417969 180.871094 295.128906 180.871094 295.128906 "/></clipPath><clipPath id="66512a12d5"><path d="M 258.378906 295.011719 L 334.648438 295.011719 L 334.648438 326 L 258.378906 326 Z M 258.378906 295.011719 "/></clipPath><clipPath id="29a251bbe8"><path d="M 260.960938 318.925781 C 280.621094 308.40625 285.484375 305.503906 292.519531 303.179688 C 302.605469 299.84375 325.675781 295.054688 330.609375 295.054688 C 331.839844 295.054688 332.277344 295.203125 332.929688 295.5625 C 333.511719 295.925781 334.164062 296.578125 334.378906 297.304688 C 334.671875 298.25 334.597656 299.917969 334.019531 300.714844 C 333.4375 301.511719 331.988281 302.3125 331.042969 302.3125 C 330.027344 302.3125 328.578125 301.511719 327.996094 300.714844 C 327.414062 299.84375 327.269531 298.25 327.632812 297.304688 C 327.996094 296.363281 329.300781 295.347656 330.246094 295.128906 C 331.1875 294.910156 332.785156 295.347656 333.511719 296.070312 C 334.234375 296.726562 334.742188 298.25 334.597656 299.265625 C 334.453125 300.28125 333.945312 301.078125 332.566406 301.949219 C 327.851562 304.921875 306.667969 305.9375 294.914062 310 C 283.597656 313.992188 267.925781 324.800781 263.210938 325.816406 C 261.90625 326.105469 261.324219 326.035156 260.597656 325.671875 C 259.875 325.382812 259.074219 324.582031 258.785156 323.859375 C 258.421875 323.132812 258.277344 322.117188 258.566406 321.320312 C 258.929688 320.449219 260.960938 318.925781 260.960938 318.925781 "/></clipPath><clipPath id="e7c71c924f"><path d="M 314.953125 245.859375 L 334 245.859375 L 334 302.820312 L 314.953125 302.820312 Z M 314.953125 245.859375 "/></clipPath><clipPath id="d1665871dd"><path d="M 326.835938 299.84375 C 315.011719 248.40625 315.15625 248.046875 315.589844 247.464844 C 316.027344 246.882812 316.75 246.304688 317.476562 246.085938 C 318.203125 245.867188 319.074219 245.796875 319.796875 246.085938 C 320.667969 246.523438 321.757812 247.683594 322.121094 248.625 C 322.335938 249.351562 322.265625 250.222656 321.902344 250.949219 C 321.539062 251.746094 320.304688 252.90625 319.289062 253.050781 C 318.347656 253.269531 316.75 252.761719 316.027344 252.109375 C 315.445312 251.601562 315.082031 250.800781 315.011719 250.078125 C 314.863281 249.351562 315.011719 248.40625 315.371094 247.753906 C 315.953125 247.03125 317.257812 246.015625 318.273438 245.941406 C 319.21875 245.796875 320.597656 246.375 321.394531 247.246094 C 322.410156 248.335938 322.484375 249.929688 323.207031 252.6875 C 325.457031 260.597656 333.871094 292.878906 333.945312 298.683594 C 334.019531 299.988281 333.871094 300.496094 333.4375 301.222656 C 333.074219 301.875 332.203125 302.527344 331.40625 302.746094 C 330.460938 302.964844 328.867188 302.601562 328.140625 302.09375 C 327.414062 301.585938 326.835938 299.84375 326.835938 299.84375 "/></clipPath><clipPath id="58fd3a0fff"><path d="M 188.917969 279 L 260.34375 279 L 260.34375 321.539062 L 188.917969 321.539062 Z M 188.917969 279 "/></clipPath><clipPath id="40f63bcdea"><path d="M 193.058594 279.023438 C 214.3125 283.230469 220.117188 285.042969 224.179688 286.351562 C 227.082031 287.292969 228.894531 287.800781 231.433594 288.960938 C 234.554688 290.414062 239.054688 293.242188 241.445312 294.839844 C 242.824219 295.78125 243.332031 296.070312 244.566406 297.234375 C 247.105469 299.554688 252.039062 304.996094 254.722656 308.550781 C 256.898438 311.308594 259.511719 314.28125 260.019531 316.386719 C 260.382812 317.691406 260.164062 318.996094 259.730469 319.796875 C 259.367188 320.519531 258.640625 321.027344 257.914062 321.246094 C 257.261719 321.464844 256.320312 321.535156 255.59375 321.320312 C 254.941406 321.101562 254.144531 320.519531 253.78125 319.941406 C 253.34375 319.359375 252.980469 318.488281 253.054688 317.691406 C 253.199219 316.75 253.996094 315.296875 254.796875 314.789062 C 255.375 314.28125 256.246094 314.0625 257.042969 314.207031 C 257.988281 314.355469 259.367188 315.222656 259.875 316.09375 C 260.382812 316.964844 260.308594 318.5625 259.945312 319.433594 C 259.65625 320.15625 258.929688 320.738281 258.277344 321.101562 C 257.625 321.390625 256.683594 321.535156 256.027344 321.390625 C 255.304688 321.246094 254.722656 320.882812 253.996094 320.230469 C 252.691406 318.996094 251.386719 316.023438 249.5 313.554688 C 246.886719 310.21875 242.824219 305.285156 239.269531 302.238281 C 236.152344 299.625 233.464844 297.957031 229.621094 296.144531 C 224.6875 293.75 218.015625 291.792969 211.773438 290.125 C 205.027344 288.238281 193.273438 287.511719 190.445312 285.550781 C 189.503906 284.898438 189.210938 284.175781 188.996094 283.449219 C 188.851562 282.652344 188.996094 281.5625 189.359375 280.835938 C 189.71875 280.183594 190.664062 279.457031 191.316406 279.167969 C 191.898438 278.949219 193.058594 279.023438 193.058594 279.023438 "/></clipPath><clipPath id="6daae1ea0f"><path d="M 252.875 278.335938 L 328 278.335938 L 328 321.570312 L 252.875 321.570312 Z M 252.875 278.335938 "/></clipPath><clipPath id="1e7c4bc925"><path d="M 253.417969 315.878906 C 261.90625 305.9375 264.515625 303.6875 267.855469 301.148438 C 272.28125 297.8125 278.664062 293.53125 283.886719 290.632812 C 288.53125 288.019531 292.375 285.988281 297.597656 284.175781 C 304.054688 281.925781 317.550781 277.574219 319.945312 279.023438 C 320.742188 279.53125 320.304688 281.636719 320.597656 281.707031 C 320.8125 281.707031 320.886719 280.113281 321.46875 279.53125 C 322.191406 278.878906 323.644531 278.226562 324.660156 278.371094 C 325.675781 278.441406 326.980469 279.386719 327.414062 280.328125 C 327.921875 281.199219 327.851562 282.796875 327.34375 283.667969 C 326.90625 284.609375 325.53125 285.480469 324.515625 285.550781 C 323.5 285.625 322.046875 285.042969 321.394531 284.246094 C 320.742188 283.449219 320.453125 281.851562 320.742188 280.910156 C 321.03125 279.964844 322.121094 278.804688 323.136719 278.515625 C 324.078125 278.152344 325.675781 278.441406 326.472656 279.097656 C 327.269531 279.75 328.140625 281.273438 327.851562 282.214844 C 327.269531 283.738281 323.570312 285.042969 320.453125 286.207031 C 315.664062 288.019531 307.175781 288.527344 301.371094 290.484375 C 296.292969 292.226562 292.15625 294.332031 287.441406 296.941406 C 282.21875 299.84375 275.90625 304.050781 271.554688 307.460938 C 268.21875 310.074219 265.53125 312.613281 263.210938 315.078125 C 261.253906 317.039062 259.65625 320.085938 258.351562 320.957031 C 257.699219 321.390625 257.261719 321.464844 256.683594 321.464844 C 255.882812 321.464844 254.796875 321.171875 254.214844 320.664062 C 253.5625 320.15625 253.054688 319.214844 252.910156 318.417969 C 252.765625 317.617188 253.417969 315.878906 253.417969 315.878906 "/></clipPath><clipPath id="b30ee3f745"><path d="M 312.699219 245.515625 L 325.664062 245.515625 L 325.664062 284.261719 L 312.699219 284.261719 Z M 312.699219 245.515625 "/></clipPath><clipPath id="cc727e8652"><path d="M 318.273438 280.621094 C 316.605469 265.167969 312.398438 252.253906 312.761719 248.769531 C 312.90625 247.683594 313.269531 247.175781 313.777344 246.667969 C 314.285156 246.160156 315.082031 245.652344 315.808594 245.652344 C 316.75 245.578125 318.347656 246.085938 319.074219 246.738281 C 319.652344 247.246094 319.945312 248.117188 320.015625 248.84375 C 320.089844 249.570312 319.945312 250.511719 319.4375 251.09375 C 318.929688 251.890625 317.550781 252.761719 316.535156 252.832031 C 315.519531 252.90625 314.066406 252.109375 313.488281 251.382812 C 312.980469 250.800781 312.6875 249.933594 312.761719 249.132812 C 312.832031 248.191406 313.632812 246.738281 314.355469 246.160156 C 315.011719 245.722656 315.878906 245.578125 316.605469 245.578125 C 317.332031 245.652344 318.203125 246.015625 318.78125 246.449219 C 319.289062 246.957031 319.507812 247.390625 319.945312 248.480469 C 321.25 251.890625 324.152344 265.382812 324.949219 271.332031 C 325.53125 275.105469 325.820312 278.515625 325.53125 280.621094 C 325.382812 281.707031 325.167969 282.433594 324.585938 283.011719 C 324.078125 283.59375 323.136719 284.101562 322.335938 284.175781 C 321.539062 284.320312 320.523438 284.101562 319.871094 283.59375 C 319.074219 283.011719 318.273438 280.621094 318.273438 280.621094 "/></clipPath><clipPath id="5e0c944d9e"><path d="M 299.488281 231.144531 L 321.191406 231.144531 L 321.191406 252.535156 L 299.488281 252.535156 Z M 299.488281 231.144531 "/></clipPath><clipPath id="4f70bf88d7"><path d="M 314.863281 251.308594 C 299.339844 235.203125 299.414062 234.550781 299.628906 233.898438 C 299.847656 233.171875 300.355469 232.375 300.9375 231.941406 C 301.515625 231.503906 302.386719 231.140625 303.183594 231.214844 C 304.128906 231.359375 305.578125 232.011719 306.160156 232.882812 C 306.667969 233.679688 306.886719 235.277344 306.523438 236.21875 C 306.085938 237.164062 304.855469 238.179688 303.910156 238.398438 C 302.894531 238.613281 301.371094 238.179688 300.644531 237.453125 C 299.921875 236.800781 299.414062 235.277344 299.558594 234.261719 C 299.703125 233.246094 300.71875 232.011719 301.660156 231.578125 C 302.53125 231.140625 303.691406 231.214844 305 231.792969 C 307.828125 232.957031 313.339844 239.195312 316.171875 242.097656 C 318.058594 243.984375 319.945312 245.578125 320.597656 247.03125 C 321.03125 247.972656 321.25 248.769531 321.03125 249.570312 C 320.742188 250.511719 319.726562 251.746094 318.855469 252.179688 C 318.128906 252.542969 317.042969 252.472656 316.316406 252.253906 C 315.734375 252.109375 314.863281 251.308594 314.863281 251.308594 "/></clipPath><clipPath id="bf0db429a3"><path d="M 294.3125 221.402344 L 313.238281 221.402344 L 313.238281 275.296875 L 294.3125 275.296875 Z M 294.3125 221.402344 "/></clipPath><clipPath id="f4131a86e3"><path d="M 301.445312 224.175781 C 308.480469 249.714844 313.339844 266.980469 313.125 271.476562 C 313.050781 272.710938 312.832031 273.292969 312.324219 273.871094 C 311.816406 274.523438 310.875 275.03125 310.078125 275.179688 C 309.351562 275.324219 308.261719 275.179688 307.609375 274.671875 C 306.8125 274.164062 306.015625 273 305.941406 272.058594 C 305.796875 271.042969 306.449219 269.519531 307.175781 268.867188 C 307.683594 268.359375 308.554688 268.070312 309.277344 267.996094 C 310.003906 267.921875 310.949219 268.214844 311.527344 268.578125 C 312.109375 269.011719 312.6875 269.738281 312.980469 270.460938 C 313.195312 271.117188 313.269531 272.058594 312.980469 272.710938 C 312.617188 273.582031 311.382812 274.742188 310.511719 275.105469 C 309.785156 275.394531 308.917969 275.25 308.191406 275.03125 C 307.539062 274.742188 306.8125 274.234375 306.449219 273.507812 C 306.015625 272.710938 305.871094 271.042969 306.230469 270.101562 C 306.449219 269.375 307.175781 268.792969 307.753906 268.429688 C 308.410156 268.070312 309.351562 267.921875 310.078125 268.070312 C 310.800781 268.140625 311.601562 268.648438 312.109375 269.085938 C 312.542969 269.519531 312.832031 270.027344 312.980469 270.609375 C 313.195312 271.332031 313.125 272.421875 312.832031 273.148438 C 312.472656 273.871094 311.746094 274.671875 310.949219 274.960938 C 310.078125 275.25 308.410156 275.179688 307.609375 274.671875 C 306.886719 274.308594 306.59375 273.800781 306.015625 272.640625 C 304.128906 268.578125 301.371094 251.164062 299.121094 242.605469 C 297.527344 236.21875 294.40625 229.253906 294.335938 225.847656 C 294.335938 224.324219 294.625 223.304688 295.203125 222.582031 C 295.710938 221.929688 296.726562 221.492188 297.527344 221.421875 C 298.324219 221.347656 299.339844 221.566406 299.992188 222.074219 C 300.644531 222.507812 301.445312 224.175781 301.445312 224.175781 "/></clipPath><clipPath id="82947e65f6"><path d="M 255 267.816406 L 313.191406 267.816406 L 313.191406 317.4375 L 255 317.4375 Z M 255 267.816406 "/></clipPath><clipPath id="0e0edab35e"><path d="M 310.367188 275.179688 C 283.816406 285.769531 280.1875 287.511719 277.867188 289.035156 C 276.488281 289.90625 275.90625 290.414062 274.820312 291.429688 C 273.222656 292.808594 271.191406 294.910156 269.667969 296.941406 C 268.070312 298.972656 266.546875 301.148438 265.316406 303.398438 C 264.15625 305.648438 263.210938 308.113281 262.484375 310.363281 C 261.90625 312.324219 262.269531 315.007812 261.398438 316.09375 C 260.816406 316.894531 259.875 317.183594 259.074219 317.257812 C 258.277344 317.328125 257.261719 317.109375 256.609375 316.601562 C 255.957031 316.167969 255.375 315.296875 255.160156 314.5 C 255.011719 313.554688 255.230469 312.175781 255.8125 311.453125 C 256.464844 310.726562 257.914062 310 258.929688 310.074219 C 259.945312 310.074219 261.324219 310.945312 261.832031 311.816406 C 262.339844 312.683594 262.414062 314.28125 262.050781 315.152344 C 261.613281 316.09375 260.308594 317.109375 259.292969 317.257812 C 258.351562 317.402344 256.828125 316.820312 256.101562 316.167969 C 255.519531 315.660156 255.230469 314.789062 255.085938 314.0625 C 255.011719 313.339844 255.160156 312.46875 255.59375 311.816406 C 256.175781 311.015625 257.625 310.144531 258.496094 310.074219 C 259.292969 309.929688 260.164062 310.21875 260.746094 310.652344 C 261.398438 311.089844 261.90625 311.816406 262.195312 312.539062 C 262.414062 313.121094 262.414062 313.917969 262.195312 314.570312 C 261.976562 315.371094 261.398438 316.238281 260.746094 316.675781 C 260.089844 317.109375 259.003906 317.402344 258.207031 317.257812 C 257.40625 317.183594 256.464844 316.601562 255.957031 316.023438 C 255.449219 315.441406 255.230469 314.570312 255.085938 313.628906 C 254.941406 312.324219 255.085938 310.582031 255.304688 309.128906 C 255.519531 307.753906 255.8125 306.808594 256.464844 305.214844 C 257.550781 302.527344 259.875 298.03125 262.121094 294.839844 C 264.371094 291.648438 266.695312 288.671875 269.886719 286.058594 C 273.511719 283.085938 277.792969 280.835938 282.871094 278.226562 C 289.617188 274.886719 302.820312 269.519531 307.175781 268.429688 C 308.769531 268.070312 309.496094 267.777344 310.441406 268.140625 C 311.382812 268.429688 312.542969 269.519531 312.90625 270.390625 C 313.269531 271.117188 313.269531 272.203125 312.90625 272.929688 C 312.472656 273.800781 310.367188 275.179688 310.367188 275.179688 "/></clipPath><clipPath id="176497ffeb"><path d="M 201.097656 264.0625 L 261.382812 264.0625 L 261.382812 315.675781 L 201.097656 315.675781 Z M 201.097656 264.0625 "/></clipPath><clipPath id="257ec941ae"><path d="M 254.359375 313.339844 C 248.410156 301.222656 245.074219 295.203125 242.390625 291.863281 C 240.503906 289.398438 239.34375 288.238281 236.730469 286.207031 C 232.234375 282.796875 222.003906 277.066406 217 274.742188 C 214.242188 273.4375 212.355469 272.929688 210.105469 272.347656 C 208.074219 271.839844 205.753906 272.132812 204.230469 271.40625 C 203.070312 270.96875 201.980469 270.171875 201.546875 269.375 C 201.183594 268.648438 201.109375 267.777344 201.328125 267.054688 C 201.617188 266.109375 202.707031 264.875 203.578125 264.515625 C 204.230469 264.152344 205.171875 264.078125 205.898438 264.367188 C 206.769531 264.730469 208.003906 265.820312 208.292969 266.761719 C 208.582031 267.707031 208.292969 269.300781 207.710938 270.101562 C 207.058594 270.898438 205.535156 271.476562 204.59375 271.476562 C 203.792969 271.476562 202.996094 271.117188 202.488281 270.609375 C 201.910156 270.101562 201.472656 269.300781 201.328125 268.578125 C 201.109375 267.851562 201.253906 266.980469 201.546875 266.328125 C 201.910156 265.601562 202.5625 264.949219 203.214844 264.660156 C 203.867188 264.296875 204.519531 264.296875 205.464844 264.296875 C 207.347656 264.367188 210.757812 264.949219 213.660156 265.820312 C 217.070312 266.90625 220.699219 268.429688 224.617188 270.390625 C 229.621094 272.929688 236.660156 276.917969 240.9375 280.328125 C 244.277344 283.011719 246.523438 285.261719 248.992188 288.527344 C 251.964844 292.371094 255.085938 298.25 257.191406 302.3125 C 258.859375 305.359375 260.597656 308.550781 261.035156 310.582031 C 261.324219 311.667969 261.46875 312.394531 261.105469 313.121094 C 260.746094 314.0625 259.582031 315.152344 258.640625 315.441406 C 257.84375 315.730469 256.828125 315.585938 256.101562 315.222656 C 255.375 314.863281 254.359375 313.339844 254.359375 313.339844 "/></clipPath><clipPath id="a39e9f60b0"><path d="M 201.175781 222.210938 L 219.617188 222.210938 L 219.617188 271.511719 L 201.175781 271.511719 Z M 201.175781 222.210938 "/></clipPath><clipPath id="afad6cbc18"><path d="M 201.253906 267.851562 C 202.632812 255.445312 203.285156 252.035156 204.519531 247.609375 C 206.261719 241.226562 210.613281 227.804688 212.574219 224.539062 C 213.152344 223.523438 213.445312 223.160156 214.097656 222.796875 C 214.675781 222.4375 215.621094 222.144531 216.34375 222.363281 C 217.289062 222.507812 218.59375 223.523438 219.101562 224.324219 C 219.539062 224.976562 219.609375 225.847656 219.464844 226.570312 C 219.320312 227.296875 218.957031 228.167969 218.304688 228.601562 C 217.578125 229.183594 215.984375 229.691406 215.039062 229.472656 C 214.097656 229.253906 212.863281 228.023438 212.5 227.222656 C 212.136719 226.5 212.210938 225.554688 212.429688 224.902344 C 212.644531 224.175781 213.152344 223.453125 213.734375 223.015625 C 214.3125 222.582031 215.257812 222.289062 215.984375 222.289062 C 216.707031 222.289062 217.578125 222.582031 218.160156 223.089844 C 218.8125 223.742188 219.464844 224.613281 219.539062 226.207031 C 219.683594 230.5625 212.863281 243.984375 210.90625 251.816406 C 209.308594 258.203125 209.527344 266.835938 208.074219 269.519531 C 207.496094 270.609375 206.914062 270.96875 206.117188 271.261719 C 205.390625 271.550781 204.300781 271.550781 203.578125 271.261719 C 202.777344 270.96875 201.980469 270.171875 201.617188 269.519531 C 201.328125 269.011719 201.253906 267.851562 201.253906 267.851562 "/></clipPath><clipPath id="c12330b4a2"><path d="M 195.078125 232.800781 L 212.726562 232.800781 L 212.726562 250.902344 L 195.078125 250.902344 Z M 195.078125 232.800781 "/></clipPath><clipPath id="cc0b30b76d"><path d="M 195.816406 245.144531 C 208.511719 232.664062 209.164062 232.738281 209.816406 232.882812 C 210.542969 233.101562 211.339844 233.609375 211.773438 234.117188 C 212.28125 234.695312 212.574219 235.566406 212.644531 236.292969 C 212.644531 237.019531 212.5 237.960938 211.992188 238.542969 C 211.339844 239.265625 209.890625 239.992188 208.945312 240.066406 C 208.148438 240.136719 207.347656 239.847656 206.769531 239.265625 C 206.042969 238.6875 205.390625 237.164062 205.390625 236.21875 C 205.390625 235.421875 205.753906 234.625 206.261719 234.042969 C 206.988281 233.390625 208.511719 232.808594 209.453125 232.882812 C 210.25 232.882812 211.050781 233.316406 211.558594 233.824219 C 212.066406 234.332031 212.5 235.203125 212.574219 235.929688 C 212.71875 236.65625 212.644531 237.234375 212.210938 238.179688 C 210.832031 240.789062 202.707031 249.207031 200.457031 250.511719 C 199.660156 250.875 199.371094 250.949219 198.714844 250.875 C 197.992188 250.800781 196.902344 250.511719 196.324219 249.929688 C 195.742188 249.421875 195.234375 248.40625 195.160156 247.609375 C 195.089844 246.8125 195.816406 245.144531 195.816406 245.144531 "/></clipPath><clipPath id="2a66c2c856"><path d="M 213.261719 222.476562 L 260.386719 222.476562 L 260.386719 255.40625 L 213.261719 255.40625 Z M 213.261719 222.476562 "/></clipPath><clipPath id="796bc0311f"><path d="M 217 222.507812 C 232.667969 224.46875 234.480469 225.628906 236.949219 227.007812 C 239.921875 228.601562 243.769531 231.070312 246.453125 233.171875 C 248.773438 234.914062 250.441406 236.148438 252.402344 238.398438 C 255.011719 241.445312 259.222656 247.390625 259.945312 250.222656 C 260.308594 251.601562 260.238281 252.761719 259.730469 253.632812 C 259.222656 254.503906 257.769531 255.300781 256.753906 255.300781 C 255.8125 255.371094 254.289062 254.648438 253.707031 253.847656 C 253.128906 253.050781 252.910156 251.457031 253.199219 250.511719 C 253.5625 249.570312 254.722656 248.480469 255.738281 248.191406 C 256.683594 247.972656 258.277344 248.40625 259.003906 248.988281 C 259.65625 249.425781 260.019531 250.222656 260.164062 250.949219 C 260.308594 251.671875 260.308594 252.617188 259.875 253.269531 C 259.4375 254.066406 258.058594 255.082031 257.191406 255.300781 C 256.390625 255.445312 255.738281 255.445312 254.867188 254.863281 C 252.621094 253.488281 249.210938 245.578125 245.871094 242.097656 C 242.96875 239.195312 239.851562 237.089844 236.515625 235.132812 C 233.25 233.171875 229.621094 231.140625 226.140625 230.269531 C 222.800781 229.472656 218.015625 230.125 216.128906 229.617188 C 215.402344 229.402344 215.039062 229.253906 214.605469 228.820312 C 214.097656 228.3125 213.515625 227.296875 213.445312 226.570312 C 213.296875 225.992188 213.445312 225.339844 213.589844 224.832031 C 213.804688 224.324219 214.167969 223.816406 214.605469 223.378906 C 215.183594 222.945312 217 222.507812 217 222.507812 "/></clipPath><clipPath id="46764bcb5a"><path d="M 253.222656 221.660156 L 301.566406 221.660156 L 301.566406 255.640625 L 253.222656 255.640625 Z M 253.222656 221.660156 "/></clipPath><clipPath id="e802642062"><path d="M 253.34375 250.875 C 256.683594 244.5625 258.277344 242.605469 260.453125 240.429688 C 263.429688 237.527344 268.21875 233.390625 272.207031 230.925781 C 275.617188 228.746094 278.589844 227.441406 282.507812 225.992188 C 287.078125 224.25 295.277344 221.636719 298.035156 221.78125 C 299.121094 221.855469 299.628906 222.144531 300.210938 222.582031 C 300.789062 223.089844 301.296875 223.886719 301.445312 224.613281 C 301.589844 225.265625 301.515625 226.207031 301.226562 226.863281 C 300.9375 227.585938 300.355469 228.238281 299.628906 228.601562 C 298.757812 228.964844 297.089844 229.109375 296.21875 228.601562 C 295.351562 228.167969 294.40625 226.789062 294.335938 225.847656 C 294.1875 224.832031 294.84375 223.308594 295.496094 222.652344 C 296.074219 222.074219 296.875 221.78125 297.671875 221.78125 C 298.613281 221.78125 300.136719 222.363281 300.789062 223.160156 C 301.371094 223.960938 301.660156 225.554688 301.371094 226.5 C 301.007812 227.441406 300.210938 228.167969 298.90625 228.894531 C 296.292969 230.417969 289.253906 231.140625 285.046875 232.738281 C 281.277344 234.261719 277.792969 235.855469 274.601562 238.035156 C 271.335938 240.136719 268.21875 242.75 265.53125 245.578125 C 262.921875 248.40625 260.453125 253.703125 258.785156 254.9375 C 258.132812 255.445312 257.769531 255.519531 257.191406 255.519531 C 256.390625 255.519531 255.304688 255.226562 254.652344 254.792969 C 254.144531 254.503906 253.78125 253.996094 253.5625 253.488281 C 253.273438 252.761719 253.34375 250.875 253.34375 250.875 "/></clipPath><clipPath id="d8452d0ce9"><path d="M 253 248.917969 L 262.425781 248.917969 L 262.425781 307.367188 L 253 307.367188 Z M 253 248.917969 "/></clipPath><clipPath id="e257a5698a"><path d="M 260.671875 252.542969 C 262.195312 305.066406 261.976562 305.503906 261.46875 306.082031 C 260.960938 306.738281 260.019531 307.171875 259.222656 307.316406 C 258.421875 307.390625 257.335938 307.171875 256.683594 306.664062 C 255.957031 306.082031 255.085938 304.703125 255.160156 303.6875 C 255.230469 302.601562 256.753906 300.789062 257.550781 300.28125 C 257.914062 300.0625 258.277344 300.0625 258.714844 300.0625 C 259.292969 300.132812 260.308594 300.28125 260.890625 300.789062 C 261.613281 301.367188 262.414062 302.820312 262.414062 303.835938 C 262.339844 304.851562 261.46875 306.230469 260.671875 306.808594 C 260.089844 307.246094 259.222656 307.460938 258.421875 307.316406 C 257.480469 307.171875 256.101562 306.230469 255.59375 305.429688 C 255.160156 304.851562 255.085938 303.90625 255.160156 303.179688 C 255.304688 302.457031 255.59375 301.585938 256.246094 301.148438 C 256.972656 300.496094 258.566406 300.0625 259.4375 300.132812 C 260.238281 300.207031 260.960938 300.789062 261.46875 301.296875 C 261.976562 301.875 262.339844 302.671875 262.414062 303.472656 C 262.414062 304.269531 262.050781 305.429688 261.46875 306.082031 C 260.960938 306.738281 260.019531 307.171875 259.222656 307.316406 C 258.421875 307.390625 257.40625 307.171875 256.683594 306.664062 C 256.027344 306.230469 255.667969 305.867188 255.230469 304.558594 C 253.34375 298.828125 252.402344 258.710938 253.417969 252.542969 C 253.636719 251.238281 253.78125 250.800781 254.289062 250.148438 C 254.867188 249.570312 255.8125 249.0625 256.609375 248.988281 C 257.40625 248.84375 258.421875 249.0625 259.074219 249.570312 C 259.875 250.148438 260.671875 252.542969 260.671875 252.542969 "/></clipPath></defs><g id="6e6a80ae78"><g clip-rule="nonzero" clip-path="url(#5e23a1aa8c)"><g clip-rule="nonzero" clip-path="url(#811f112cd9)"><path style=" stroke:none;fill-rule:nonzero;fill:currentColor;fill-opacity:1;" d="M 97.0625 129.339844 L 114.039062 129.339844 L 114.039062 260.175781 L 97.0625 260.175781 Z M 97.0625 129.339844 "/></g></g><g clip-rule="nonzero" clip-path="url(#d8ef89d088)"><g clip-rule="nonzero" clip-path="url(#fc1f1b858e)"><path style=" stroke:none;fill-rule:nonzero;fill:currentColor;fill-opacity:1;" d="M 39.53125 126.363281 L 113.230469 126.363281 L 113.230469 142.035156 L 39.53125 142.035156 Z M 39.53125 126.363281 "/></g></g><g clip-rule="nonzero" clip-path="url(#1ee92099a6)"><g clip-rule="nonzero" clip-path="url(#572c4489a7)"><path style=" stroke:none;fill-rule:nonzero;fill:currentColor;fill-opacity:1;" d="M 37.574219 101.480469 L 52.664062 101.480469 L 52.664062 140.148438 L 37.574219 140.148438 Z M 37.574219 101.480469 "/></g></g><g clip-rule="nonzero" clip-path="url(#6c057102dd)"><g clip-rule="nonzero" clip-path="url(#3b6f629c5d)"><path style=" stroke:none;fill-rule:nonzero;fill:currentColor;fill-opacity:1;" d="M 37.5 98.363281 L 111.042969 98.363281 L 111.042969 114.46875 L 37.5 114.46875 Z M 37.5 98.363281 "/></g></g><g clip-rule="nonzero" clip-path="url(#fc57829612)"><g clip-rule="nonzero" clip-path="url(#0649f5cf4a)"><path style=" stroke:none;fill-rule:nonzero;fill:currentColor;fill-opacity:1;" d="M 97.859375 45.472656 L 111.644531 45.472656 L 111.644531 111.273438 L 97.859375 111.273438 Z M 97.859375 45.472656 "/></g></g><g clip-rule="nonzero" clip-path="url(#b5dde7d3a5)"><g clip-rule="nonzero" clip-path="url(#b6035660f8)"><path style=" stroke:none;fill-rule:nonzero;fill:currentColor;fill-opacity:1;" d="M 99.746094 42.355469 L 140.582031 42.355469 L 140.582031 58.242188 L 99.746094 58.242188 Z M 99.746094 42.355469 "/></g></g><g clip-rule="nonzero" clip-path="url(#5d81b1cebd)"><g clip-rule="nonzero" clip-path="url(#3a1f139538)"><path style=" stroke:none;fill-rule:nonzero;fill:currentColor;fill-opacity:1;" d="M 126.445312 43.441406 L 142.1875 43.441406 L 142.1875 110.164062 L 126.445312 110.164062 Z M 126.445312 43.441406 "/></g></g><g clip-rule="nonzero" clip-path="url(#772f3cd008)"><g clip-rule="nonzero" clip-path="url(#e46fca82e6)"><path style=" stroke:none;fill-rule:nonzero;fill:currentColor;fill-opacity:1;" d="M 129.128906 96.621094 L 201.691406 96.621094 L 201.691406 111.636719 L 129.128906 111.636719 Z M 129.128906 96.621094 "/></g></g><g clip-rule="nonzero" clip-path="url(#a1888c6dfd)"><g clip-rule="nonzero" clip-path="url(#1b52f390c3)"><path style=" stroke:none;fill-rule:nonzero;fill:currentColor;fill-opacity:1;" d="M 188.035156 98.578125 L 205.085938 98.578125 L 205.085938 138.871094 L 188.035156 138.871094 Z M 188.035156 98.578125 "/></g></g><g clip-rule="nonzero" clip-path="url(#fdd68c65a4)"><g clip-rule="nonzero" clip-path="url(#a9c18abcc7)"><path style=" stroke:none;fill-rule:nonzero;fill:currentColor;fill-opacity:1;" d="M 98.078125 247.011719 L 139.347656 247.011719 L 139.347656 260.503906 L 98.078125 260.503906 Z M 98.078125 247.011719 "/></g></g><g clip-rule="nonzero" clip-path="url(#f15360a13c)"><g clip-rule="nonzero" clip-path="url(#79ae52623c)"><path style=" stroke:none;fill-rule:nonzero;fill:currentColor;fill-opacity:1;" d="M 126.152344 134.488281 L 141.097656 134.488281 L 141.097656 260.0625 L 126.152344 260.0625 Z M 126.152344 134.488281 "/></g></g><g clip-rule="nonzero" clip-path="url(#008498e2da)"><g clip-rule="nonzero" clip-path="url(#390b7cc73b)"><path style=" stroke:none;fill-rule:nonzero;fill:currentColor;fill-opacity:1;" d="M 127.96875 130.71875 L 152.878906 130.71875 L 152.878906 152.335938 L 127.96875 152.335938 Z M 127.96875 130.71875 "/></g></g><g clip-rule="nonzero" clip-path="url(#cca544a82f)"><g clip-rule="nonzero" clip-path="url(#8f5a1649f2)"><path style=" stroke:none;fill-rule:nonzero;fill:currentColor;fill-opacity:1;" d="M 139.792969 100.828125 L 203.601562 100.828125 L 203.601562 143.703125 L 139.792969 143.703125 Z M 139.792969 100.828125 "/></g></g><g clip-rule="nonzero" clip-path="url(#75ed17d98e)"><g clip-rule="nonzero" clip-path="url(#51cb634fa6)"><path style=" stroke:none;fill-rule:nonzero;fill:currentColor;fill-opacity:1;" d="M 188.179688 100.101562 L 205.449219 100.101562 L 205.449219 143.066406 L 188.179688 143.066406 Z M 188.179688 100.101562 "/></g></g><g clip-rule="nonzero" clip-path="url(#0838829052)"><g clip-rule="nonzero" clip-path="url(#6452c8eb4f)"><path style=" stroke:none;fill-rule:nonzero;fill:currentColor;fill-opacity:1;" d="M 174.269531 246.015625 L 197.773438 246.015625 L 197.773438 304.960938 L 174.269531 304.960938 Z M 174.269531 246.015625 "/></g></g><g clip-rule="nonzero" clip-path="url(#9637c2b9f4)"><g clip-rule="nonzero" clip-path="url(#dfc24ddaab)"><path style=" stroke:none;fill-rule:nonzero;fill:currentColor;fill-opacity:1;" d="M 184.425781 239.921875 L 206.480469 239.921875 L 206.480469 288.851562 L 184.425781 288.851562 Z M 184.425781 239.921875 "/></g></g><g clip-rule="nonzero" clip-path="url(#181adc55df)"><g clip-rule="nonzero" clip-path="url(#0bacc255ef)"><path style=" stroke:none;fill-rule:nonzero;fill:currentColor;fill-opacity:1;" d="M 174.269531 292.226562 L 270.300781 292.226562 L 270.300781 329.589844 L 174.269531 329.589844 Z M 174.269531 292.226562 "/></g></g><g clip-rule="nonzero" clip-path="url(#66512a12d5)"><g clip-rule="nonzero" clip-path="url(#29a251bbe8)"><path style=" stroke:none;fill-rule:nonzero;fill:currentColor;fill-opacity:1;" d="M 255.667969 292.15625 L 337.507812 292.15625 L 337.507812 328.71875 L 255.667969 328.71875 Z M 255.667969 292.15625 "/></g></g><g clip-rule="nonzero" clip-path="url(#e7c71c924f)"><g clip-rule="nonzero" clip-path="url(#d1665871dd)"><path style=" stroke:none;fill-rule:nonzero;fill:currentColor;fill-opacity:1;" d="M 312.035156 243.039062 L 336.917969 243.039062 L 336.917969 305.734375 L 312.035156 305.734375 Z M 312.035156 243.039062 "/></g></g><g clip-rule="nonzero" clip-path="url(#58fd3a0fff)"><g clip-rule="nonzero" clip-path="url(#40f63bcdea)"><path style=" stroke:none;fill-rule:nonzero;fill:currentColor;fill-opacity:1;" d="M 186.09375 276.121094 L 262.980469 276.121094 L 262.980469 324.367188 L 186.09375 324.367188 Z M 186.09375 276.121094 "/></g></g><g clip-rule="nonzero" clip-path="url(#6daae1ea0f)"><g clip-rule="nonzero" clip-path="url(#1e7c4bc925)"><path style=" stroke:none;fill-rule:nonzero;fill:currentColor;fill-opacity:1;" d="M 250.007812 275.46875 L 330.730469 275.46875 L 330.730469 324.4375 L 250.007812 324.4375 Z M 250.007812 275.46875 "/></g></g><g clip-rule="nonzero" clip-path="url(#b30ee3f745)"><g clip-rule="nonzero" clip-path="url(#cc727e8652)"><path style=" stroke:none;fill-rule:nonzero;fill:currentColor;fill-opacity:1;" d="M 309.859375 242.675781 L 328.503906 242.675781 L 328.503906 287.175781 L 309.859375 287.175781 Z M 309.859375 242.675781 "/></g></g><g clip-rule="nonzero" clip-path="url(#5e0c944d9e)"><g clip-rule="nonzero" clip-path="url(#4f70bf88d7)"><path style=" stroke:none;fill-rule:nonzero;fill:currentColor;fill-opacity:1;" d="M 296.65625 228.3125 L 323.917969 228.3125 L 323.917969 255.15625 L 296.65625 255.15625 Z M 296.65625 228.3125 "/></g></g><g clip-rule="nonzero" clip-path="url(#bf0db429a3)"><g clip-rule="nonzero" clip-path="url(#f4131a86e3)"><path style=" stroke:none;fill-rule:nonzero;fill:currentColor;fill-opacity:1;" d="M 291.433594 218.519531 L 316.027344 218.519531 L 316.027344 278.175781 L 291.433594 278.175781 Z M 291.433594 218.519531 "/></g></g><g clip-rule="nonzero" clip-path="url(#82947e65f6)"><g clip-rule="nonzero" clip-path="url(#0e0edab35e)"><path style=" stroke:none;fill-rule:nonzero;fill:currentColor;fill-opacity:1;" d="M 252.183594 265.238281 L 315.980469 265.238281 L 315.980469 320.230469 L 252.183594 320.230469 Z M 252.183594 265.238281 "/></g></g><g clip-rule="nonzero" clip-path="url(#176497ffeb)"><g clip-rule="nonzero" clip-path="url(#257ec941ae)"><path style=" stroke:none;fill-rule:nonzero;fill:currentColor;fill-opacity:1;" d="M 198.425781 261.394531 L 264.050781 261.394531 L 264.050781 318.34375 L 198.425781 318.34375 Z M 198.425781 261.394531 "/></g></g><g clip-rule="nonzero" clip-path="url(#a39e9f60b0)"><g clip-rule="nonzero" clip-path="url(#afad6cbc18)"><path style=" stroke:none;fill-rule:nonzero;fill:currentColor;fill-opacity:1;" d="M 198.355469 219.390625 L 222.441406 219.390625 L 222.441406 274.148438 L 198.355469 274.148438 Z M 198.355469 219.390625 "/></g></g><g clip-rule="nonzero" clip-path="url(#c12330b4a2)"><g clip-rule="nonzero" clip-path="url(#cc0b30b76d)"><path style=" stroke:none;fill-rule:nonzero;fill:currentColor;fill-opacity:1;" d="M 192.257812 229.980469 L 215.546875 229.980469 L 215.546875 253.816406 L 192.257812 253.816406 Z M 192.257812 229.980469 "/></g></g><g clip-rule="nonzero" clip-path="url(#2a66c2c856)"><g clip-rule="nonzero" clip-path="url(#796bc0311f)"><path style=" stroke:none;fill-rule:nonzero;fill:currentColor;fill-opacity:1;" d="M 210.542969 219.605469 L 263.105469 219.605469 L 263.105469 258.273438 L 210.542969 258.273438 Z M 210.542969 219.605469 "/></g></g><g clip-rule="nonzero" clip-path="url(#46764bcb5a)"><g clip-rule="nonzero" clip-path="url(#e802642062)"><path style=" stroke:none;fill-rule:nonzero;fill:currentColor;fill-opacity:1;" d="M 250.441406 218.882812 L 304.34375 218.882812 L 304.34375 258.417969 L 250.441406 258.417969 Z M 250.441406 218.882812 "/></g></g><g clip-rule="nonzero" clip-path="url(#d8452d0ce9)"><g clip-rule="nonzero" clip-path="url(#e257a5698a)"><path style=" stroke:none;fill-rule:nonzero;fill:currentColor;fill-opacity:1;" d="M 250.515625 246.085938 L 265.316406 246.085938 L 265.316406 310.316406 L 250.515625 310.316406 Z M 250.515625 246.085938 "/></g></g></g></svg>