<svg xmlns="http://www.w3.org/2000/svg" xmlns:xlink="http://www.w3.org/1999/xlink" width="500" zoomAndPan="magnify" viewBox="0 0 375 374.999991" height="500" preserveAspectRatio="xMidYMid meet" version="1.2"><defs><clipPath id="d5f062f460"><path d="M 137.382812 226.691406 L 160.679688 226.691406 L 160.679688 333 L 137.382812 333 Z M 137.382812 226.691406 "/></clipPath><clipPath id="83ba1813de"><path d="M 148.941406 330.660156 C 141.9375 319.257812 141.285156 317.140625 140.554688 313.964844 C 139.496094 309.488281 138.597656 302.808594 138.109375 297.027344 C 137.621094 291.082031 136.96875 286.035156 137.785156 278.949219 C 138.925781 268.363281 143.484375 249.390625 147.070312 240.1875 C 149.1875 234.570312 151.628906 229.195312 153.988281 227.566406 C 155.292969 226.667969 156.757812 226.589844 157.816406 226.914062 C 158.875 227.238281 160.097656 228.625 160.421875 229.683594 C 160.75 230.742188 160.34375 232.53125 159.609375 233.429688 C 158.875 234.242188 157.167969 234.976562 156.027344 234.8125 C 154.96875 234.730469 153.421875 233.671875 152.851562 232.695312 C 152.363281 231.71875 152.363281 229.84375 152.929688 228.867188 C 153.421875 227.890625 155.050781 226.914062 156.027344 226.75 C 156.921875 226.589844 157.898438 226.832031 158.550781 227.320312 C 159.285156 227.726562 159.933594 228.542969 160.261719 229.273438 C 160.585938 230.007812 160.667969 230.660156 160.421875 231.882812 C 159.851562 234.648438 155.945312 239.78125 153.910156 245.480469 C 150.894531 254.195312 146.90625 270.804688 145.929688 279.683594 C 145.277344 285.21875 145.601562 288.476562 145.929688 293.199219 C 146.253906 298.574219 147.148438 305.660156 148.128906 310.300781 C 148.859375 313.558594 149.429688 315.839844 150.652344 318.363281 C 151.871094 320.96875 154.558594 323.574219 155.539062 325.53125 C 156.1875 326.832031 156.675781 327.972656 156.675781 328.949219 C 156.675781 329.683594 156.515625 330.253906 156.1875 330.824219 C 155.699219 331.554688 154.804688 332.371094 153.988281 332.695312 C 153.09375 333.019531 151.871094 332.941406 151.058594 332.613281 C 150.246094 332.289062 148.941406 330.660156 148.941406 330.660156 "/></clipPath><clipPath id="0d7c71cd87"><path d="M 151.722656 226.699219 L 170.960938 226.699219 L 170.960938 273.394531 L 151.722656 273.394531 Z M 151.722656 226.699219 "/></clipPath><clipPath id="996881d45e"><path d="M 160.585938 230.902344 C 160.261719 247.191406 160.421875 247.597656 161.074219 249.390625 C 162.621094 253.460938 170.683594 265.757812 170.929688 269.257812 C 171.007812 270.398438 170.601562 271.050781 170.113281 271.703125 C 169.625 272.351562 168.8125 273.003906 167.996094 273.167969 C 166.9375 273.332031 165.148438 273.085938 164.25 272.351562 C 163.355469 271.621094 162.785156 269.910156 162.785156 268.851562 C 162.867188 267.957031 163.273438 267.058594 163.925781 266.492188 C 164.65625 265.757812 166.367188 265.023438 167.507812 265.1875 C 168.648438 265.429688 170.03125 266.570312 170.519531 267.550781 C 171.007812 268.28125 171.007812 269.257812 170.847656 270.074219 C 170.683594 270.886719 170.113281 271.785156 169.542969 272.351562 C 168.890625 272.84375 167.996094 273.332031 167.101562 273.332031 C 166.042969 273.25 164.902344 272.921875 163.679688 271.703125 C 160.503906 268.769531 154.070312 254.765625 152.605469 250.203125 C 151.953125 248.167969 151.953125 247.597656 151.871094 245.644531 C 151.710938 241.980469 151.546875 232.53125 152.605469 229.601562 C 153.011719 228.460938 153.582031 227.808594 154.316406 227.320312 C 155.050781 226.832031 156.269531 226.589844 157.167969 226.75 C 158.0625 226.914062 159.039062 227.484375 159.609375 228.214844 C 160.179688 228.867188 160.585938 230.902344 160.585938 230.902344 "/></clipPath><clipPath id="a511ac2ab4"><path d="M 162.644531 188.175781 L 213.414062 188.175781 L 213.414062 273.457031 L 162.644531 273.457031 Z M 162.644531 188.175781 "/></clipPath><clipPath id="f3f465d815"><path d="M 162.785156 269.257812 C 164.007812 243.445312 166.53125 237.175781 168.324219 232.695312 C 169.625 229.519531 170.441406 227.648438 172.230469 224.796875 C 174.835938 220.726562 178.746094 215.675781 182.816406 211.035156 C 187.460938 205.742188 194.300781 198.492188 198.695312 194.828125 C 201.382812 192.550781 205.375 189.699219 205.78125 190.023438 C 206.027344 190.1875 205.128906 191.980469 205.128906 191.980469 C 205.128906 191.980469 205.539062 190.1875 206.109375 189.617188 C 206.675781 188.964844 207.492188 188.394531 208.386719 188.3125 C 209.445312 188.152344 211.238281 188.558594 212.050781 189.371094 C 212.867188 190.1875 213.355469 191.898438 213.191406 193.039062 C 212.949219 194.097656 211.808594 195.5625 210.832031 196.050781 C 209.773438 196.457031 207.980469 196.292969 207.003906 195.726562 C 206.027344 195.15625 205.128906 193.527344 205.128906 192.386719 C 205.050781 191.328125 205.863281 189.617188 206.757812 188.964844 C 207.65625 188.3125 209.527344 188.152344 210.585938 188.476562 C 211.402344 188.722656 212.132812 189.371094 212.621094 190.105469 C 213.03125 190.757812 213.4375 191.652344 213.191406 192.628906 C 212.949219 193.933594 211.074219 195.726562 209.445312 197.191406 C 207.574219 198.980469 204.722656 200.367188 202.199219 202.484375 C 199.265625 205.089844 196.335938 208.183594 193.078125 211.765625 C 188.84375 216.488281 182.328125 224.0625 179.316406 228.785156 C 177.441406 231.800781 176.792969 233.753906 175.570312 236.765625 C 174.105469 240.351562 172.3125 244.339844 171.5 249.144531 C 170.359375 255.414062 171.988281 267.875 170.441406 271.132812 C 169.949219 272.273438 169.136719 272.761719 168.324219 273.085938 C 167.507812 273.332031 166.285156 273.332031 165.390625 273.085938 C 164.578125 272.761719 163.679688 271.863281 163.273438 271.132812 C 162.949219 270.5625 162.785156 269.257812 162.785156 269.257812 "/></clipPath><clipPath id="e389f29d2e"><path d="M 193.441406 189.730469 L 218.453125 189.730469 L 218.453125 278 L 193.441406 278 Z M 193.441406 189.730469 "/></clipPath><clipPath id="8f9f192c32"><path d="M 212.378906 195.804688 C 204.96875 211.441406 204.480469 213.964844 203.828125 216.734375 C 203.175781 219.421875 202.605469 221.863281 202.28125 224.878906 C 201.871094 228.625 201.304688 233.347656 201.953125 237.582031 C 202.605469 241.980469 204.316406 245.96875 206.433594 250.855469 C 209.285156 257.449219 217.589844 269.097656 218.242188 273.085938 C 218.484375 274.390625 218.242188 275.121094 217.832031 275.9375 C 217.34375 276.667969 216.449219 277.484375 215.636719 277.808594 C 214.738281 278.054688 213.519531 278.054688 212.703125 277.726562 C 211.890625 277.320312 210.910156 276.589844 210.585938 275.691406 C 210.179688 274.632812 210.421875 272.273438 211.15625 271.292969 C 211.890625 270.398438 213.597656 269.746094 214.738281 269.910156 C 215.878906 269.992188 217.34375 271.050781 217.832031 272.027344 C 218.402344 273.085938 218.402344 274.878906 217.832031 275.855469 C 217.34375 276.832031 215.796875 277.890625 214.65625 277.972656 C 213.519531 278.054688 211.890625 277.320312 211.15625 276.507812 C 210.503906 275.9375 210.179688 274.960938 210.179688 274.144531 C 210.261719 273.085938 210.992188 271.375 211.808594 270.644531 C 212.460938 270.074219 213.4375 269.828125 214.332031 269.828125 C 215.148438 269.828125 216.125 270.15625 216.773438 270.726562 C 217.507812 271.457031 218.242188 274.226562 218.324219 274.144531 C 218.402344 274.144531 217.914062 272.109375 217.914062 272.109375 C 217.832031 272.109375 218.402344 274.144531 218.160156 275.039062 C 217.914062 275.855469 217.265625 276.832031 216.449219 277.320312 C 215.714844 277.808594 214.578125 278.054688 213.679688 277.972656 C 212.785156 277.808594 212.050781 277.484375 211.15625 276.507812 C 208.792969 274.226562 205.050781 266.980469 202.363281 261.441406 C 199.265625 255.089844 195.277344 247.027344 194.054688 240.1875 C 192.996094 234.160156 193.566406 228.460938 194.382812 222.679688 C 195.113281 216.816406 196.578125 210.707031 198.695312 205.332031 C 200.652344 200.039062 204.070312 192.46875 206.433594 190.59375 C 207.410156 189.863281 208.304688 189.78125 209.203125 189.863281 C 210.097656 189.941406 211.238281 190.59375 211.808594 191.164062 C 212.296875 191.652344 212.621094 192.222656 212.703125 192.875 C 212.867188 193.6875 212.378906 195.804688 212.378906 195.804688 "/></clipPath><clipPath id="ba27613550"><path d="M 210.109375 269.765625 L 226.707031 269.765625 L 226.707031 334.289062 L 210.109375 334.289062 Z M 210.109375 269.765625 "/></clipPath><clipPath id="46c3ddbf12"><path d="M 218.324219 273.492188 C 226.792969 302.238281 227.117188 311.277344 226.382812 316.652344 C 225.894531 319.992188 225 321.945312 223.777344 324.550781 C 222.476562 327.402344 220.601562 331.71875 218.730469 333.101562 C 217.589844 334 216.207031 334.242188 215.148438 334.078125 C 214.167969 334 213.191406 333.183594 212.703125 332.53125 C 212.296875 331.960938 211.96875 331.472656 211.96875 330.742188 C 211.96875 329.683594 212.621094 327.566406 213.597656 326.832031 C 214.496094 326.179688 216.285156 325.9375 217.34375 326.261719 C 218.402344 326.667969 219.625 328.054688 219.949219 329.113281 C 220.195312 330.171875 219.707031 331.960938 219.054688 332.859375 C 218.484375 333.511719 217.589844 334 216.773438 334.160156 C 215.960938 334.324219 214.984375 334.242188 214.167969 333.835938 C 213.273438 333.265625 212.214844 331.71875 211.96875 330.742188 C 211.726562 329.84375 211.96875 328.867188 212.460938 328.136719 C 213.03125 327.238281 214.496094 326.179688 215.636719 326.097656 C 216.773438 326.019531 218.402344 326.832031 219.136719 327.566406 C 219.707031 328.214844 220.03125 329.113281 220.03125 330.007812 C 220.03125 330.984375 219.460938 332.449219 218.730469 333.101562 C 218.078125 333.753906 217.019531 334.160156 216.125 334.242188 C 215.148438 334.242188 214.089844 333.835938 213.355469 333.265625 C 212.703125 332.695312 212.132812 331.554688 211.96875 330.742188 C 211.808594 330.089844 211.890625 328.949219 212.132812 328.785156 C 212.296875 328.707031 212.539062 329.03125 212.785156 328.949219 C 213.925781 328.378906 217.425781 320.886719 218.242188 317.304688 C 218.890625 314.292969 218.324219 311.929688 218.242188 308.835938 C 218.160156 305.089844 218.402344 300.773438 217.507812 296.375 C 216.449219 291.246094 212.785156 284.324219 211.5625 280.007812 C 210.832031 277.320312 209.933594 275.039062 210.261719 273.332031 C 210.421875 272.273438 210.910156 271.375 211.644531 270.804688 C 212.296875 270.234375 213.4375 269.828125 214.332031 269.828125 C 215.226562 269.910156 216.367188 270.316406 217.019531 270.96875 C 217.671875 271.539062 218.324219 273.492188 218.324219 273.492188 "/></clipPath><clipPath id="c17b8c1be5"><path d="M 211.886719 248.652344 L 286.730469 248.652344 L 286.730469 334.597656 L 211.886719 334.597656 Z M 211.886719 248.652344 "/></clipPath><clipPath id="dd156951f6"><path d="M 215.960938 326.097656 C 224.429688 324.632812 227.6875 323.492188 230.292969 322.191406 C 232.734375 320.886719 234.363281 319.503906 237.050781 317.304688 C 241.367188 313.804688 248.617188 307.695312 253.09375 302.644531 C 257.003906 298.167969 259.933594 293.6875 262.867188 288.882812 C 265.796875 283.917969 268.242188 278.949219 270.765625 273.167969 C 273.695312 266.410156 276.304688 254.113281 278.988281 250.773438 C 280.050781 249.46875 281.1875 248.902344 282.167969 248.738281 C 283.0625 248.574219 284.039062 248.902344 284.691406 249.390625 C 285.421875 249.796875 286.15625 250.527344 286.402344 251.34375 C 286.644531 252.402344 286.480469 254.273438 285.832031 255.171875 C 285.179688 256.066406 283.46875 256.800781 282.410156 256.882812 C 281.597656 256.882812 280.617188 256.472656 279.96875 255.984375 C 279.316406 255.414062 278.828125 254.601562 278.582031 253.785156 C 278.421875 252.972656 278.5 251.914062 278.828125 251.179688 C 279.152344 250.449219 279.804688 249.632812 280.539062 249.226562 C 281.269531 248.820312 282.246094 248.574219 283.0625 248.738281 C 284.121094 248.980469 285.667969 250.039062 286.15625 250.9375 C 286.644531 251.75 286.644531 252.484375 286.5625 253.542969 C 286.402344 255.660156 285.015625 259.160156 283.875 262.335938 C 282.574219 266.328125 280.78125 270.804688 278.746094 275.285156 C 276.546875 280.253906 273.371094 286.605469 270.929688 290.921875 C 269.21875 294.097656 267.996094 296.132812 266.125 298.902344 C 263.84375 302.15625 261.480469 305.496094 258.226562 309 C 253.910156 313.640625 246.417969 320.234375 242.019531 323.820312 C 239.167969 326.097656 236.96875 327.726562 234.773438 328.949219 C 233.144531 329.925781 231.921875 330.414062 230.128906 331.066406 C 227.851562 331.960938 224.753906 333.183594 222.148438 333.671875 C 219.707031 334.160156 216.695312 334.566406 214.984375 334.078125 C 213.925781 333.753906 213.109375 333.183594 212.621094 332.449219 C 212.132812 331.71875 211.808594 330.496094 211.96875 329.683594 C 212.050781 328.785156 212.621094 327.648438 213.273438 327.078125 C 213.925781 326.507812 215.960938 326.097656 215.960938 326.097656 "/></clipPath><clipPath id="9fba5247f2"><path d="M 263.941406 153.070312 L 289.234375 153.070312 L 289.234375 256.457031 L 263.941406 256.457031 Z M 263.941406 153.070312 "/></clipPath><clipPath id="59c6d85fb4"><path d="M 278.664062 252.320312 C 280.863281 221.863281 281.433594 216.492188 280.699219 209.8125 C 279.886719 202.078125 277.441406 191.492188 275 184.8125 C 273.207031 180.007812 270.683594 177.238281 268.890625 172.921875 C 266.9375 168.117188 263.761719 160.546875 264.007812 157.289062 C 264.089844 155.742188 264.902344 154.601562 265.714844 153.867188 C 266.367188 153.378906 267.425781 153.136719 268.242188 153.136719 C 269.054688 153.214844 270.03125 153.460938 270.683594 154.113281 C 271.417969 154.84375 272.148438 156.554688 272.148438 157.613281 C 272.148438 158.429688 271.660156 159.40625 271.089844 159.976562 C 270.519531 160.546875 269.625 161.117188 268.8125 161.195312 C 267.996094 161.359375 266.9375 161.195312 266.207031 160.871094 C 265.472656 160.464844 264.738281 159.8125 264.414062 159 C 264.007812 158.019531 264.089844 156.148438 264.578125 155.171875 C 264.902344 154.4375 265.714844 153.785156 266.449219 153.460938 C 267.265625 153.136719 268.242188 152.972656 269.054688 153.296875 C 270.113281 153.625 271.089844 154.519531 271.90625 155.824219 C 273.371094 158.183594 273.777344 162.988281 275.324219 166.980469 C 277.199219 171.863281 280.863281 176.667969 282.980469 182.777344 C 285.585938 190.351562 288.03125 201.425781 288.84375 209.488281 C 289.578125 216 289.007812 220.96875 288.761719 227.484375 C 288.4375 235.300781 288.03125 249.308594 286.644531 253.296875 C 286.15625 254.601562 285.75 255.171875 285.015625 255.660156 C 284.285156 256.148438 283.144531 256.472656 282.246094 256.3125 C 281.351562 256.230469 280.292969 255.660156 279.640625 255.007812 C 279.070312 254.355469 278.664062 252.320312 278.664062 252.320312 "/></clipPath><clipPath id="3cf0b5ad12"><path d="M 256 153.046875 L 272.222656 153.046875 L 272.222656 199.386719 L 256 199.386719 Z M 256 153.046875 "/></clipPath><clipPath id="6e24e2405e"><path d="M 272.148438 157.125 C 271.90625 171.621094 271.578125 176.261719 270.601562 180.496094 C 269.625 184.730469 267.753906 189.699219 266.207031 192.792969 C 265.226562 194.992188 264.496094 196.863281 263.191406 197.921875 C 262.132812 198.820312 260.75 199.390625 259.609375 199.308594 C 258.550781 199.144531 257.085938 197.921875 256.515625 197.109375 C 256.109375 196.539062 256.027344 195.886719 256.027344 195.234375 C 256.109375 194.421875 257.167969 192.550781 257.085938 192.550781 C 257.085938 192.550781 256.1875 194.015625 256.269531 194.015625 C 256.269531 194.097656 257.085938 192.386719 257.734375 191.898438 C 258.46875 191.492188 259.363281 191.082031 260.261719 191.164062 C 261.320312 191.328125 262.949219 192.140625 263.597656 193.039062 C 264.167969 194.015625 264.332031 195.804688 263.84375 196.863281 C 263.4375 197.921875 261.96875 199.0625 260.910156 199.226562 C 259.773438 199.472656 258.0625 198.902344 257.246094 198.085938 C 256.433594 197.351562 255.945312 195.5625 256.109375 194.503906 C 256.351562 193.363281 257.492188 191.980469 258.550781 191.492188 C 259.609375 191.082031 261.402344 191.246094 262.378906 191.816406 C 263.273438 192.46875 264.167969 194.015625 264.167969 195.15625 C 264.25 196.292969 263.355469 197.921875 262.460938 198.574219 C 261.5625 199.226562 259.691406 199.390625 258.714844 199.0625 C 257.816406 198.738281 256.921875 197.84375 256.515625 197.109375 C 256.1875 196.539062 256.027344 196.132812 256.027344 195.234375 C 256.269531 192.710938 260.832031 185.382812 262.050781 181.148438 C 263.027344 177.890625 263.191406 175.691406 263.597656 172.273438 C 264.089844 167.46875 263.109375 157.941406 264.496094 155.171875 C 264.984375 154.03125 265.796875 153.625 266.613281 153.296875 C 267.425781 152.972656 268.648438 152.972656 269.542969 153.296875 C 270.359375 153.625 271.253906 154.519531 271.660156 155.171875 C 271.988281 155.742188 272.148438 157.125 272.148438 157.125 "/></clipPath><clipPath id="0e5eb9ae89"><path d="M 176.460938 40.507812 L 234.613281 40.507812 L 234.613281 98.410156 L 176.460938 98.410156 Z M 176.460938 40.507812 "/></clipPath><clipPath id="0571e5f59b"><path d="M 181.675781 40.757812 C 200.40625 48.902344 206.027344 53.625 209.609375 56.71875 C 212.050781 58.917969 213.273438 60.21875 215.308594 62.746094 C 218.324219 66.246094 222.3125 71.457031 225.40625 76.34375 C 228.664062 81.390625 233.226562 89.371094 234.121094 92.710938 C 234.445312 94.015625 234.445312 94.746094 234.203125 95.5625 C 234.039062 96.214844 233.714844 96.785156 233.144531 97.191406 C 232.410156 97.761719 230.617188 98.492188 229.558594 98.25 C 228.421875 98.003906 227.035156 96.863281 226.628906 95.804688 C 226.222656 94.910156 226.222656 93.28125 226.792969 92.386719 C 227.28125 91.410156 228.828125 90.351562 229.886719 90.1875 C 231.027344 90.105469 232.734375 90.839844 233.46875 91.570312 C 234.039062 92.222656 234.363281 93.199219 234.445312 94.015625 C 234.445312 94.828125 234.285156 95.804688 233.714844 96.539062 C 233.0625 97.351562 231.515625 98.332031 230.375 98.332031 C 229.234375 98.332031 227.6875 97.351562 227.035156 96.539062 C 226.464844 95.886719 226.222656 94.910156 226.304688 94.015625 C 226.304688 93.199219 226.710938 92.222656 227.28125 91.652344 C 227.769531 91 228.664062 90.429688 229.480469 90.269531 C 230.292969 90.105469 231.351562 90.1875 232.085938 90.59375 C 232.816406 90.921875 233.550781 91.570312 233.957031 92.304688 C 234.363281 93.039062 234.363281 94.910156 234.363281 94.910156 C 234.445312 94.910156 234.445312 93.609375 234.363281 93.609375 C 234.285156 93.609375 234.203125 95.726562 233.792969 96.457031 C 233.46875 97.027344 232.898438 97.515625 232.410156 97.761719 C 231.839844 98.085938 231.1875 98.332031 230.539062 98.332031 C 229.722656 98.332031 228.828125 98.25 227.769531 97.433594 C 225 95.15625 221.007812 84.324219 217.34375 78.785156 C 214.007812 73.820312 211.074219 69.585938 206.921875 65.351562 C 202.117188 60.628906 195.113281 55.007812 189.820312 52.15625 C 185.910156 50.039062 180.78125 49.46875 178.828125 48.332031 C 178.09375 47.84375 177.769531 47.597656 177.363281 47.027344 C 177.035156 46.539062 176.710938 45.886719 176.710938 45.234375 C 176.628906 44.421875 176.953125 43.117188 177.363281 42.46875 C 177.6875 41.816406 178.175781 41.410156 178.746094 41.082031 C 179.558594 40.757812 181.675781 40.757812 181.675781 40.757812 "/></clipPath><clipPath id="b569c949c2"><path d="M 226.28125 90.085938 L 263.691406 90.085938 L 263.691406 198 L 226.28125 198 Z M 226.28125 90.085938 "/></clipPath><clipPath id="46f6c0cad9"><path d="M 234.285156 93.117188 C 246.824219 121.703125 252.199219 138.640625 255.699219 152.648438 C 259.121094 166.246094 264.007812 188.070312 263.597656 193.6875 C 263.519531 195.15625 263.273438 195.726562 262.703125 196.375 C 262.132812 197.109375 261.074219 197.679688 260.179688 197.84375 C 259.285156 198.003906 258.144531 197.761719 257.328125 197.273438 C 256.515625 196.621094 255.457031 195.074219 255.457031 193.933594 C 255.457031 192.792969 256.515625 190.839844 257.574219 190.269531 C 258.550781 189.699219 260.421875 189.78125 261.402344 190.1875 C 262.214844 190.511719 262.867188 191.328125 263.191406 192.058594 C 263.597656 192.792969 263.761719 193.769531 263.519531 194.585938 C 263.273438 195.644531 262.132812 197.109375 261.15625 197.597656 C 260.097656 198.003906 258.226562 197.84375 257.328125 197.191406 C 256.351562 196.621094 255.617188 194.910156 255.457031 193.851562 C 255.375 193.039062 255.78125 192.058594 256.269531 191.410156 C 256.757812 190.757812 257.574219 190.105469 258.386719 189.941406 C 259.445312 189.699219 261.238281 189.941406 262.132812 190.675781 C 263.027344 191.488281 263.679688 193.527344 263.519531 194.667969 C 263.4375 195.5625 262.621094 196.539062 261.96875 197.109375 C 261.480469 197.515625 260.910156 197.84375 260.179688 197.84375 C 259.203125 197.84375 257.492188 197.433594 256.597656 196.621094 C 255.539062 195.644531 255.292969 194.421875 254.558594 191.980469 C 252.363281 185.058594 249.753906 162.988281 246.5 149.796875 C 243.484375 137.988281 239.738281 126.34375 236.074219 116.652344 C 232.980469 108.671875 226.953125 99.632812 226.464844 95.398438 C 226.304688 93.6875 226.628906 92.546875 227.199219 91.652344 C 227.769531 90.921875 228.828125 90.351562 229.722656 90.269531 C 230.617188 90.105469 231.757812 90.351562 232.574219 90.839844 C 233.304688 91.328125 234.285156 93.117188 234.285156 93.117188 "/></clipPath><clipPath id="702d5a0926"><path d="M 138.777344 117.644531 L 183.453125 117.644531 L 183.453125 192.4375 L 138.777344 192.4375 Z M 138.777344 117.644531 "/></clipPath><clipPath id="bc18d11992"><path d="M 139.332031 186.117188 C 152.199219 169.421875 155.863281 163.882812 159.691406 156.636719 C 165.066406 146.539062 172.800781 122.679688 176.382812 118.933594 C 177.28125 117.957031 177.929688 117.875 178.746094 117.792969 C 179.558594 117.628906 180.539062 117.792969 181.269531 118.199219 C 182.003906 118.609375 182.734375 119.421875 183.0625 120.15625 C 183.386719 120.886719 183.46875 121.945312 183.304688 122.761719 C 183.0625 123.492188 182.65625 124.46875 181.921875 124.960938 C 181.027344 125.527344 179.234375 125.9375 178.175781 125.691406 C 177.28125 125.527344 176.464844 124.960938 176.058594 124.226562 C 175.488281 123.332031 175.246094 121.457031 175.488281 120.398438 C 175.734375 119.585938 176.382812 118.851562 177.117188 118.363281 C 177.769531 117.957031 178.828125 117.628906 179.640625 117.710938 C 180.457031 117.792969 181.433594 118.117188 182.003906 118.769531 C 182.734375 119.503906 183.304688 120.96875 183.386719 122.273438 C 183.46875 123.980469 182.734375 125.527344 181.757812 128.214844 C 179.398438 134.730469 171.90625 151.179688 167.101562 160.136719 C 163.4375 166.980469 160.015625 172.433594 156.269531 177.808594 C 152.851562 182.695312 148.289062 189.128906 145.765625 191.082031 C 144.707031 191.898438 143.972656 192.222656 143.078125 192.304688 C 142.183594 192.304688 141.042969 191.980469 140.308594 191.410156 C 139.65625 190.839844 139.007812 189.863281 138.84375 188.964844 C 138.679688 188.070312 139.332031 186.117188 139.332031 186.117188 "/></clipPath><clipPath id="5a81360398"><path d="M 175.390625 42.601562 L 190.988281 42.601562 L 190.988281 125.804688 L 175.390625 125.804688 Z M 175.390625 42.601562 "/></clipPath><clipPath id="9bf4b0a327"><path d="M 175.40625 121.375 C 180.539062 94.910156 182.167969 84.324219 182.574219 76.425781 C 182.816406 70.15625 182.980469 64.617188 182.085938 59.324219 C 181.1875 54.4375 177.035156 48.492188 177.605469 45.726562 C 177.929688 44.257812 179.070312 43.28125 180.128906 42.875 C 181.1875 42.46875 183.0625 42.710938 183.957031 43.363281 C 184.851562 44.015625 185.667969 45.644531 185.667969 46.785156 C 185.667969 47.921875 184.773438 49.46875 183.792969 50.121094 C 182.816406 50.691406 181.027344 50.773438 179.96875 50.449219 C 179.152344 50.121094 178.421875 49.390625 178.011719 48.738281 C 177.605469 48.003906 177.363281 47.027344 177.523438 46.132812 C 177.769531 45.15625 178.746094 43.527344 179.722656 43.039062 C 180.78125 42.546875 182.410156 42.46875 183.550781 43.117188 C 185.34375 44.175781 186.96875 48.25 188.109375 50.9375 C 189.167969 53.542969 189.984375 55.742188 190.472656 59 C 191.125 63.640625 191.042969 70.074219 190.714844 76.589844 C 190.226562 84.566406 188.679688 95.234375 187.378906 103.460938 C 186.15625 110.464844 184.851562 119.667969 183.304688 122.921875 C 182.734375 124.144531 182.328125 124.714844 181.515625 125.121094 C 180.78125 125.609375 179.558594 125.855469 178.664062 125.691406 C 177.851562 125.449219 176.792969 124.878906 176.222656 124.144531 C 175.652344 123.410156 175.40625 121.375 175.40625 121.375 "/></clipPath><clipPath id="14cab0952e"><path d="M 108.09375 134.601562 L 146.304688 134.601562 L 146.304688 190.527344 L 108.09375 190.527344 Z M 108.09375 134.601562 "/></clipPath><clipPath id="d1812a5b07"><path d="M 138.109375 187.09375 C 133.632812 173.332031 131.921875 169.910156 128.910156 165.429688 C 124.265625 158.347656 109.609375 144.828125 108.386719 139.941406 C 107.980469 138.3125 108.46875 137.09375 109.203125 136.195312 C 109.851562 135.382812 111.5625 134.648438 112.703125 134.730469 C 113.761719 134.894531 115.308594 135.953125 115.878906 136.847656 C 116.367188 137.582031 116.449219 138.558594 116.367188 139.371094 C 116.207031 140.1875 115.714844 141.164062 115.148438 141.734375 C 114.578125 142.304688 113.597656 142.792969 112.785156 142.875 C 111.96875 142.957031 110.992188 142.875 110.261719 142.304688 C 109.363281 141.734375 108.386719 140.1875 108.226562 139.128906 C 108.144531 138.234375 108.46875 137.253906 108.875 136.605469 C 109.363281 135.871094 110.097656 135.21875 110.910156 134.976562 C 111.96875 134.730469 113.273438 134.8125 114.738281 135.546875 C 117.507812 137.011719 121.5 142.46875 124.835938 146.457031 C 128.421875 150.691406 132.410156 155.902344 135.34375 160.300781 C 137.785156 164.128906 139.738281 167.304688 141.53125 171.292969 C 143.402344 175.691406 145.929688 182.695312 146.171875 185.628906 C 146.253906 186.929688 146.171875 187.664062 145.601562 188.476562 C 145.03125 189.371094 143.484375 190.269531 142.425781 190.429688 C 141.449219 190.59375 140.390625 190.105469 139.65625 189.617188 C 138.925781 189.046875 138.109375 187.09375 138.109375 187.09375 "/></clipPath><clipPath id="82e59b27c3"><path d="M 87.316406 134.753906 L 116.371094 134.753906 L 116.371094 239.984375 L 87.316406 239.984375 Z M 87.316406 134.753906 "/></clipPath><clipPath id="4e0d5d4e5e"><path d="M 116.367188 138.804688 C 115.472656 168.363281 114.820312 173.003906 113.191406 178.949219 C 111.238281 186.359375 107.085938 194.175781 104.316406 202.972656 C 100.976562 213.476562 97.070312 234 94.949219 237.824219 C 94.460938 238.722656 94.21875 238.882812 93.648438 239.292969 C 92.914062 239.699219 91.773438 240.023438 90.796875 239.863281 C 89.738281 239.617188 88.273438 238.476562 87.785156 237.664062 C 87.378906 236.929688 87.296875 236.117188 87.378906 235.382812 C 87.460938 234.570312 87.867188 233.589844 88.519531 233.019531 C 89.332031 232.289062 91.042969 231.71875 92.101562 231.800781 C 92.996094 231.882812 93.890625 232.449219 94.382812 233.101562 C 94.949219 233.671875 95.441406 234.570312 95.441406 235.464844 C 95.519531 236.523438 94.871094 238.234375 93.972656 238.964844 C 93.160156 239.699219 91.285156 239.941406 90.308594 239.78125 C 89.414062 239.535156 88.597656 238.882812 88.109375 238.234375 C 87.621094 237.582031 87.296875 236.6875 87.378906 235.789062 C 87.460938 234.730469 88.355469 233.101562 89.167969 232.449219 C 89.902344 231.882812 90.796875 231.636719 91.695312 231.800781 C 92.753906 231.960938 94.382812 232.859375 94.949219 233.753906 C 95.441406 234.648438 95.601562 236.035156 95.359375 236.929688 C 95.113281 237.824219 94.300781 238.722656 93.648438 239.292969 C 93.078125 239.617188 92.507812 239.941406 91.773438 239.863281 C 90.796875 239.863281 89.007812 239.210938 88.273438 238.476562 C 87.621094 237.746094 87.460938 236.847656 87.378906 235.707031 C 87.214844 234.078125 87.703125 232.371094 88.355469 229.601562 C 89.738281 223.492188 93.566406 209.570312 96.660156 200.203125 C 99.429688 191.570312 103.910156 182.449219 105.78125 175.449219 C 107.085938 170.480469 107.492188 167.386719 107.898438 162.335938 C 108.550781 155.496094 107.167969 141.652344 108.386719 137.824219 C 108.792969 136.523438 109.285156 135.953125 110.015625 135.464844 C 110.75 134.976562 111.890625 134.648438 112.785156 134.8125 C 113.679688 134.894531 114.738281 135.464844 115.390625 136.117188 C 115.960938 136.765625 116.367188 138.804688 116.367188 138.804688 "/></clipPath><clipPath id="3a0828e7b9"><path d="M 85.464844 231.566406 L 154.90625 231.566406 L 154.90625 330.429688 L 85.464844 330.429688 Z M 85.464844 231.566406 "/></clipPath><clipPath id="31cc4274f3"><path d="M 95.441406 236.117188 C 94.054688 250.609375 93.8125 255.414062 94.460938 259.730469 C 95.195312 264.046875 96.660156 268.039062 98.453125 272.351562 C 100.40625 277.238281 103.257812 282.53125 106.269531 287.253906 C 109.285156 292.140625 113.4375 297.597656 116.53125 301.179688 C 118.648438 303.625 119.871094 305.007812 122.476562 307.042969 C 126.222656 309.894531 132.085938 313.3125 137.132812 316 C 142.34375 318.769531 151.058594 321.132812 153.421875 323.332031 C 154.398438 324.144531 154.722656 324.960938 154.804688 325.855469 C 154.96875 326.75 154.640625 327.890625 154.152344 328.625 C 153.664062 329.355469 152.6875 330.089844 151.792969 330.332031 C 150.8125 330.496094 149.265625 330.332031 148.453125 329.683594 C 147.558594 329.03125 146.660156 327.402344 146.742188 326.261719 C 146.742188 325.121094 147.636719 323.574219 148.535156 322.921875 C 149.511719 322.351562 151.382812 322.273438 152.363281 322.597656 C 153.175781 322.921875 153.910156 323.65625 154.316406 324.308594 C 154.722656 325.039062 154.96875 326.019531 154.804688 326.914062 C 154.558594 327.890625 153.582031 329.519531 152.605469 330.007812 C 151.628906 330.496094 149.753906 330.496094 148.777344 329.925781 C 147.800781 329.355469 146.90625 327.726562 146.742188 326.75 C 146.578125 325.855469 146.90625 324.878906 147.3125 324.226562 C 147.800781 323.492188 148.535156 322.761719 149.347656 322.515625 C 150.40625 322.273438 152.523438 322.515625 153.421875 323.332031 C 154.316406 323.980469 154.886719 325.773438 154.804688 326.832031 C 154.804688 327.726562 154.234375 328.785156 153.5 329.355469 C 152.6875 330.089844 151.382812 330.414062 149.835938 330.332031 C 146.742188 330.089844 141.207031 327.320312 136.480469 324.960938 C 130.699219 322.027344 122.148438 316.980469 117.671875 313.558594 C 114.820312 311.441406 113.679688 310.300781 111.320312 307.695312 C 107.734375 303.707031 102.441406 296.539062 98.859375 290.839844 C 95.601562 285.628906 92.832031 280.414062 90.636719 274.960938 C 88.597656 269.667969 86.726562 263.882812 86.074219 258.753906 C 85.421875 254.355469 85.910156 250.203125 86.15625 246.132812 C 86.402344 242.222656 86.5625 236.847656 87.539062 234.570312 C 88.03125 233.429688 88.597656 232.777344 89.332031 232.371094 C 90.148438 231.882812 91.285156 231.636719 92.183594 231.882812 C 93.078125 232.042969 94.136719 232.613281 94.625 233.347656 C 95.195312 234.078125 95.441406 236.117188 95.441406 236.117188 "/></clipPath></defs><g id="bcb998e9fe"><g clip-rule="nonzero" clip-path="url(#d5f062f460)"><g clip-rule="nonzero" clip-path="url(#83ba1813de)"><path style=" stroke:none;fill-rule:nonzero;fill:currentColor;fill-opacity:1;" d="M 134.527344 223.492188 L 163.761719 223.492188 L 163.761719 335.976562 L 134.527344 335.976562 Z M 134.527344 223.492188 "/></g></g><g clip-rule="nonzero" clip-path="url(#0d7c71cd87)"><g clip-rule="nonzero" clip-path="url(#996881d45e)"><path style=" stroke:none;fill-rule:nonzero;fill:currentColor;fill-opacity:1;" d="M 148.617188 223.492188 L 174.265625 223.492188 L 174.265625 276.601562 L 148.617188 276.601562 Z M 148.617188 223.492188 "/></g></g><g clip-rule="nonzero" clip-path="url(#a511ac2ab4)"><g clip-rule="nonzero" clip-path="url(#f3f465d815)"><path style=" stroke:none;fill-rule:nonzero;fill:currentColor;fill-opacity:1;" d="M 159.527344 185.058594 L 216.53125 185.058594 L 216.53125 276.351562 L 159.527344 276.351562 Z M 159.527344 185.058594 "/></g></g><g clip-rule="nonzero" clip-path="url(#e389f29d2e)"><g clip-rule="nonzero" clip-path="url(#8f9f192c32)"><path style=" stroke:none;fill-rule:nonzero;fill:currentColor;fill-opacity:1;" d="M 190.796875 186.605469 L 221.578125 186.605469 L 221.578125 281.234375 L 190.796875 281.234375 Z M 190.796875 186.605469 "/></g></g><g clip-rule="nonzero" clip-path="url(#ba27613550)"><g clip-rule="nonzero" clip-path="url(#46c3ddbf12)"><path style=" stroke:none;fill-rule:nonzero;fill:currentColor;fill-opacity:1;" d="M 207.003906 266.570312 L 229.722656 266.570312 L 229.722656 337.484375 L 207.003906 337.484375 Z M 207.003906 266.570312 "/></g></g><g clip-rule="nonzero" clip-path="url(#c17b8c1be5)"><g clip-rule="nonzero" clip-path="url(#dd156951f6)"><path style=" stroke:none;fill-rule:nonzero;fill:currentColor;fill-opacity:1;" d="M 208.714844 245.480469 L 289.902344 245.480469 L 289.902344 337.453125 L 208.714844 337.453125 Z M 208.714844 245.480469 "/></g></g><g clip-rule="nonzero" clip-path="url(#9fba5247f2)"><g clip-rule="nonzero" clip-path="url(#59c6d85fb4)"><path style=" stroke:none;fill-rule:nonzero;fill:currentColor;fill-opacity:1;" d="M 260.75 149.878906 L 292.183594 149.878906 L 292.183594 259.648438 L 260.75 259.648438 Z M 260.75 149.878906 "/></g></g><g clip-rule="nonzero" clip-path="url(#3cf0b5ad12)"><g clip-rule="nonzero" clip-path="url(#6e24e2405e)"><path style=" stroke:none;fill-rule:nonzero;fill:currentColor;fill-opacity:1;" d="M 252.769531 150.039062 L 275.40625 150.039062 L 275.40625 202.65625 L 252.769531 202.65625 Z M 252.769531 150.039062 "/></g></g><g clip-rule="nonzero" clip-path="url(#0e5eb9ae89)"><g clip-rule="nonzero" clip-path="url(#0571e5f59b)"><path style=" stroke:none;fill-rule:nonzero;fill:currentColor;fill-opacity:1;" d="M 173.453125 37.5 L 237.871094 37.5 L 237.871094 101.667969 L 173.453125 101.667969 Z M 173.453125 37.5 "/></g></g><g clip-rule="nonzero" clip-path="url(#b569c949c2)"><g clip-rule="nonzero" clip-path="url(#46f6c0cad9)"><path style=" stroke:none;fill-rule:nonzero;fill:currentColor;fill-opacity:1;" d="M 223.207031 87.011719 L 266.9375 87.011719 L 266.9375 201.117188 L 223.207031 201.117188 Z M 223.207031 87.011719 "/></g></g><g clip-rule="nonzero" clip-path="url(#702d5a0926)"><g clip-rule="nonzero" clip-path="url(#bc18d11992)"><path style=" stroke:none;fill-rule:nonzero;fill:currentColor;fill-opacity:1;" d="M 135.585938 114.453125 L 186.644531 114.453125 L 186.644531 195.628906 L 135.585938 195.628906 Z M 135.585938 114.453125 "/></g></g><g clip-rule="nonzero" clip-path="url(#5a81360398)"><g clip-rule="nonzero" clip-path="url(#9bf4b0a327)"><path style=" stroke:none;fill-rule:nonzero;fill:currentColor;fill-opacity:1;" d="M 172.148438 39.617188 L 193.972656 39.617188 L 193.972656 128.960938 L 172.148438 128.960938 Z M 172.148438 39.617188 "/></g></g><g clip-rule="nonzero" clip-path="url(#14cab0952e)"><g clip-rule="nonzero" clip-path="url(#d1812a5b07)"><path style=" stroke:none;fill-rule:nonzero;fill:currentColor;fill-opacity:1;" d="M 104.96875 131.472656 L 149.429688 131.472656 L 149.429688 193.652344 L 104.96875 193.652344 Z M 104.96875 131.472656 "/></g></g><g clip-rule="nonzero" clip-path="url(#82e59b27c3)"><g clip-rule="nonzero" clip-path="url(#4e0d5d4e5e)"><path style=" stroke:none;fill-rule:nonzero;fill:currentColor;fill-opacity:1;" d="M 84.121094 131.554688 L 119.707031 131.554688 L 119.707031 243.179688 L 84.121094 243.179688 Z M 84.121094 131.554688 "/></g></g><g clip-rule="nonzero" clip-path="url(#3a0828e7b9)"><g clip-rule="nonzero" clip-path="url(#31cc4274f3)"><path style=" stroke:none;fill-rule:nonzero;fill:currentColor;fill-opacity:1;" d="M 82.816406 228.625 L 158.144531 228.625 L 158.144531 333.667969 L 82.816406 333.667969 Z M 82.816406 228.625 "/></g></g></g></svg>