<svg xmlns="http://www.w3.org/2000/svg" xmlns:xlink="http://www.w3.org/1999/xlink" width="500" zoomAndPan="magnify" viewBox="0 0 375 374.999991" height="500" preserveAspectRatio="xMidYMid meet" version="1.2"><defs><clipPath id="deb743f6e2"><path d="M 61.445312 77.117188 L 104.542969 77.117188 L 104.542969 124.832031 L 61.445312 124.832031 Z M 61.445312 77.117188 "/></clipPath><clipPath id="6140054564"><path d="M 97.546875 123.613281 C 63.246094 85.632812 62.527344 84.835938 62.046875 83.394531 C 61.648438 82.195312 61.40625 80.675781 61.726562 79.71875 C 61.96875 78.917969 62.6875 78.199219 63.40625 77.796875 C 64.125 77.398438 65.085938 77.160156 65.886719 77.320312 C 66.683594 77.398438 67.644531 77.71875 68.203125 78.4375 C 68.84375 79.15625 69.402344 80.917969 69.324219 81.957031 C 69.242188 82.835938 68.683594 83.636719 68.125 84.195312 C 67.484375 84.753906 66.605469 85.234375 65.726562 85.234375 C 64.683594 85.234375 63.007812 84.59375 62.285156 83.796875 C 61.566406 82.914062 61.328125 81.078125 61.566406 80.117188 C 61.726562 79.238281 62.367188 78.519531 63.007812 78.039062 C 63.726562 77.558594 64.683594 77.238281 65.484375 77.238281 C 66.285156 77.238281 67.085938 77.558594 67.882812 78.117188 C 69.003906 78.996094 69.402344 80.515625 71.082031 82.675781 C 76.28125 89.152344 101.386719 113.378906 103.945312 118.898438 C 104.585938 120.175781 104.585938 120.816406 104.34375 121.695312 C 104.183594 122.574219 103.542969 123.535156 102.824219 124.09375 C 102.105469 124.574219 100.984375 124.894531 100.105469 124.8125 C 99.226562 124.734375 97.546875 123.613281 97.546875 123.613281 "/></clipPath><clipPath id="01e38c1cdc"><path d="M 61.390625 40.285156 L 229.710938 40.285156 L 229.710938 85.25 L 61.390625 85.25 Z M 61.390625 40.285156 "/></clipPath><clipPath id="f03a3664e6"><path d="M 62.125 78.917969 C 77.878906 63.804688 88.351562 59.25 97.707031 55.410156 C 107.863281 51.171875 121.375 47.09375 130.492188 44.777344 C 136.808594 43.175781 140.246094 42.378906 146.960938 41.65625 C 157.355469 40.617188 177.027344 40.058594 187.019531 40.699219 C 192.9375 41.019531 196.136719 41.496094 201.253906 42.777344 C 207.570312 44.375 216.765625 47.734375 221.800781 50.214844 C 224.921875 51.730469 228.039062 53.332031 229.078125 54.851562 C 229.636719 55.730469 229.71875 56.53125 229.636719 57.328125 C 229.558594 58.128906 229.15625 59.089844 228.597656 59.726562 C 228.039062 60.289062 227.160156 60.769531 226.359375 60.925781 C 225.558594 61.007812 224.519531 60.925781 223.800781 60.527344 C 222.921875 59.96875 221.882812 58.449219 221.722656 57.410156 C 221.5625 56.609375 221.800781 55.648438 222.203125 54.929688 C 222.679688 54.210938 223.320312 53.492188 224.199219 53.25 C 225.160156 52.933594 227 53.089844 227.878906 53.652344 C 228.679688 54.050781 229.238281 54.851562 229.476562 55.648438 C 229.71875 56.691406 229.398438 58.449219 228.839844 59.328125 C 228.4375 60.046875 227.558594 60.609375 226.757812 60.769531 C 225.960938 61.007812 225 61.007812 224.199219 60.6875 C 223.480469 60.367188 223.320312 59.648438 222.28125 59.007812 C 219.324219 57.25 209.566406 53.492188 203.972656 51.730469 C 199.492188 50.375 196.773438 49.574219 191.339844 49.015625 C 181.503906 47.972656 160.714844 48.375 149.921875 49.414062 C 142.882812 50.054688 139.125 50.851562 132.648438 52.453125 C 123.933594 54.609375 111.941406 58.289062 102.664062 61.96875 C 94.191406 65.324219 83.476562 70.84375 79.078125 73.320312 C 77.320312 74.359375 76.839844 74.601562 75.558594 75.800781 C 73.402344 77.71875 69.722656 82.914062 68.042969 84.273438 C 67.324219 84.835938 66.925781 84.996094 66.285156 85.15625 C 65.484375 85.316406 64.207031 85.074219 63.484375 84.753906 C 62.925781 84.515625 62.445312 84.035156 62.046875 83.476562 C 61.648438 82.753906 61.40625 81.554688 61.40625 80.675781 C 61.488281 80.039062 62.125 78.917969 62.125 78.917969 "/></clipPath><clipPath id="a63518e089"><path d="M 217.007812 50.296875 L 293 50.296875 L 293 148.257812 L 217.007812 148.257812 Z M 217.007812 50.296875 "/></clipPath><clipPath id="7a130b8b46"><path d="M 221.960938 50.613281 C 235.875 55.890625 241.550781 59.410156 246.347656 62.6875 C 250.984375 65.964844 255.625 69.644531 259.703125 73.320312 C 263.460938 76.757812 266.738281 79.957031 269.855469 83.957031 C 273.132812 88.273438 276.011719 93.710938 278.492188 98.347656 C 280.808594 102.585938 282.890625 106.503906 284.566406 110.742188 C 286.328125 114.898438 287.527344 118.738281 288.804688 123.535156 C 290.40625 129.53125 293.445312 140.246094 292.882812 144.164062 C 292.644531 145.761719 291.925781 146.800781 291.125 147.441406 C 290.484375 148 289.445312 148.242188 288.644531 148.160156 C 287.847656 148.082031 286.886719 147.839844 286.328125 147.203125 C 285.527344 146.480469 284.808594 144.804688 284.886719 143.761719 C 285.046875 142.644531 286.007812 141.125 286.96875 140.644531 C 287.925781 140.085938 289.765625 140.085938 290.726562 140.644531 C 291.683594 141.125 292.722656 142.644531 292.804688 143.761719 C 292.964844 144.804688 292.324219 146.480469 291.445312 147.203125 C 290.644531 147.921875 288.886719 148.320312 287.847656 148 C 286.726562 147.761719 285.847656 146.882812 285.046875 145.441406 C 283.289062 142.164062 282.808594 132.25 281.371094 126.652344 C 280.171875 122.015625 279.449219 118.976562 277.371094 114.179688 C 274.253906 106.984375 267.136719 93.949219 263.058594 88.351562 C 260.902344 85.316406 259.78125 84.273438 257.144531 81.875 C 253.144531 78.039062 246.027344 72.042969 240.511719 68.285156 C 235.632812 64.925781 229.957031 61.808594 225.878906 60.046875 C 223.160156 58.847656 220.203125 58.769531 218.761719 57.648438 C 217.964844 57.007812 217.484375 56.128906 217.324219 55.25 C 217.164062 54.371094 217.402344 53.171875 217.804688 52.453125 C 218.125 51.890625 218.601562 51.414062 219.164062 51.09375 C 219.882812 50.691406 221.960938 50.613281 221.960938 50.613281 "/></clipPath><clipPath id="898c36d11f"><path d="M 282.472656 137.464844 L 299 137.464844 L 299 267.480469 L 282.472656 267.480469 Z M 282.472656 137.464844 "/></clipPath><clipPath id="f0597a95b8"><path d="M 292.644531 141.125 C 299.441406 171.027344 299.039062 176.707031 298.878906 182.222656 C 298.71875 187.101562 298.480469 190.136719 297.761719 196.054688 C 296.480469 207.007812 291.523438 230.675781 290.644531 242.191406 C 290.164062 248.988281 290.484375 254.585938 290.804688 258.582031 C 291.042969 260.902344 292.003906 262.660156 291.765625 264.097656 C 291.605469 265.058594 291.042969 266.019531 290.40625 266.578125 C 289.925781 267.058594 289.367188 267.378906 288.726562 267.378906 C 287.765625 267.539062 285.925781 267.058594 285.128906 266.496094 C 284.566406 266.097656 284.25 265.539062 284.089844 264.898438 C 283.847656 264.097656 283.6875 262.980469 284.089844 262.179688 C 284.488281 261.222656 285.769531 259.941406 286.808594 259.621094 C 287.925781 259.382812 289.605469 259.78125 290.484375 260.5 C 291.285156 261.222656 291.925781 262.898438 291.765625 264.019531 C 291.683594 265.136719 290.644531 266.578125 289.605469 267.058594 C 288.644531 267.617188 286.808594 267.457031 285.847656 266.976562 C 285.128906 266.65625 284.488281 265.859375 284.167969 265.136719 C 283.847656 264.417969 283.6875 263.378906 283.929688 262.578125 C 284.25 261.621094 285.367188 260.179688 286.40625 259.78125 C 287.445312 259.382812 289.207031 259.621094 290.164062 260.261719 C 291.042969 260.902344 291.683594 263.621094 291.84375 263.621094 C 291.925781 263.539062 291.605469 262.179688 291.605469 262.179688 C 291.523438 262.179688 291.84375 264.179688 291.523438 264.980469 C 291.203125 265.859375 290.484375 266.738281 289.605469 267.058594 C 288.644531 267.539062 286.886719 267.457031 285.925781 267.058594 C 285.046875 266.65625 284.488281 265.859375 284.089844 264.898438 C 283.449219 263.621094 283.207031 262.101562 282.96875 259.703125 C 282.488281 254.984375 282.328125 245.550781 283.050781 237.632812 C 283.929688 228.4375 287.046875 217.5625 288.328125 207.96875 C 289.605469 199.09375 290.566406 190.058594 290.886719 182.222656 C 291.125 175.585938 291.445312 170.308594 290.566406 163.914062 C 289.605469 156.636719 284.25 144.722656 284.726562 140.964844 C 284.886719 139.683594 285.449219 139.046875 286.085938 138.484375 C 286.726562 137.925781 287.847656 137.527344 288.726562 137.527344 C 289.605469 137.527344 290.726562 137.925781 291.363281 138.566406 C 292.003906 139.125 292.644531 141.125 292.644531 141.125 "/></clipPath><clipPath id="a28f4d197c"><path d="M 282.882812 256.464844 L 313.628906 256.464844 L 313.628906 319.683594 L 282.882812 319.683594 Z M 282.882812 256.464844 "/></clipPath><clipPath id="bc5d1c0612"><path d="M 291.125 260.5 C 292.5625 273.535156 293.203125 275.371094 294.804688 279.050781 C 298.160156 286.808594 313.433594 307.597656 313.511719 313.992188 C 313.59375 316.3125 312.632812 317.910156 311.195312 318.871094 C 309.355469 320.070312 305.039062 319.429688 302.71875 319.269531 C 301.039062 319.191406 299.839844 318.789062 298.402344 318.46875 C 297.042969 318.148438 295.601562 317.992188 294.164062 317.269531 C 292.324219 316.230469 289.125 313.992188 288.566406 312.472656 C 288.328125 311.59375 288.644531 310.714844 289.125 309.996094 C 289.683594 309.113281 291.203125 308.074219 292.324219 307.996094 C 293.445312 307.914062 295.042969 308.714844 295.761719 309.59375 C 296.402344 310.472656 296.722656 312.234375 296.320312 313.273438 C 296.003906 314.3125 294.644531 315.511719 293.683594 315.832031 C 292.882812 316.152344 291.84375 315.992188 291.125 315.75 C 290.324219 315.429688 289.527344 314.871094 289.125 314.074219 C 288.644531 313.191406 288.484375 311.355469 288.886719 310.394531 C 289.367188 309.355469 290.886719 308.316406 291.84375 308.074219 C 292.722656 307.835938 293.683594 307.996094 294.402344 308.476562 C 295.28125 309.035156 296.320312 311.671875 296.5625 311.515625 C 296.722656 311.515625 295.84375 309.753906 296.160156 309.433594 C 296.640625 309.035156 298.480469 310.394531 300.078125 310.632812 C 302.398438 311.113281 308.554688 310.554688 308.714844 311.355469 C 308.875 311.832031 306.398438 313.992188 305.039062 313.671875 C 301.597656 312.871094 295.28125 297.761719 291.925781 291.363281 C 289.527344 286.808594 287.847656 283.367188 286.328125 279.210938 C 284.96875 275.214844 283.6875 270.574219 283.207031 266.976562 C 282.890625 264.179688 282.730469 261.21875 283.289062 259.542969 C 283.609375 258.421875 284.167969 257.703125 284.886719 257.222656 C 285.609375 256.664062 286.726562 256.421875 287.605469 256.503906 C 288.484375 256.582031 289.527344 257.144531 290.164062 257.863281 C 290.726562 258.503906 291.125 260.5 291.125 260.5 "/></clipPath><clipPath id="996e38764d"><path d="M 96 107.589844 L 250.621094 107.589844 L 250.621094 169.390625 L 96 169.390625 Z M 96 107.589844 "/></clipPath><clipPath id="770f28481c"><path d="M 99.785156 116.097656 C 124.492188 109.863281 131.210938 108.902344 139.527344 108.421875 C 150.480469 107.703125 166.871094 107.460938 177.664062 108.582031 C 185.742188 109.460938 192.457031 110.902344 198.773438 113.140625 C 204.292969 115.136719 209.007812 117.617188 213.644531 120.734375 C 218.363281 123.933594 222.761719 128.089844 227 132.007812 C 230.996094 135.6875 235.394531 140.003906 238.351562 143.523438 C 240.589844 146.242188 241.949219 148.160156 243.710938 151.199219 C 245.949219 154.957031 250.027344 161.914062 250.425781 164.632812 C 250.585938 165.832031 250.425781 166.472656 249.945312 167.191406 C 249.386719 168.070312 247.949219 169.109375 246.828125 169.269531 C 245.707031 169.351562 244.03125 168.628906 243.390625 167.832031 C 242.671875 166.949219 242.269531 165.191406 242.589844 164.152344 C 242.910156 163.113281 244.191406 161.753906 245.230469 161.433594 C 246.269531 161.113281 248.027344 161.433594 248.90625 162.074219 C 249.785156 162.792969 250.425781 164.472656 250.425781 165.511719 C 250.425781 166.390625 250.027344 167.269531 249.46875 167.910156 C 248.90625 168.46875 248.109375 169.109375 247.226562 169.191406 C 246.1875 169.269531 244.910156 169.109375 243.628906 168.148438 C 240.589844 165.75 236.914062 154.878906 233.15625 149.761719 C 230.117188 145.683594 227.238281 142.882812 223.640625 139.445312 C 219.484375 135.609375 214.285156 130.96875 209.648438 127.773438 C 205.730469 125.132812 201.730469 122.894531 197.972656 121.375 C 194.777344 120.015625 192.136719 119.457031 188.78125 118.738281 C 184.78125 117.777344 181.183594 116.976562 175.828125 116.496094 C 166.949219 115.777344 150.71875 115.699219 140.40625 116.417969 C 132.25 116.898438 125.53125 117.855469 118.578125 119.214844 C 112.179688 120.496094 103.863281 124.414062 100.1875 124.09375 C 98.585938 123.933594 97.546875 123.292969 96.828125 122.496094 C 96.269531 121.855469 95.949219 120.65625 96.027344 119.777344 C 96.109375 118.898438 96.589844 117.855469 97.226562 117.21875 C 97.867188 116.578125 99.785156 116.097656 99.785156 116.097656 "/></clipPath><clipPath id="14e8f8a7e6"><path d="M 240.011719 156.777344 L 267.691406 156.777344 L 267.691406 275.300781 L 240.011719 275.300781 Z M 240.011719 156.777344 "/></clipPath><clipPath id="cea1dfd204"><path d="M 247.949219 159.835938 C 255.222656 177.664062 256.742188 181.902344 257.78125 186.699219 C 258.902344 191.898438 259.382812 196.695312 259.941406 203.332031 C 260.820312 213.007812 260.421875 227.558594 261.78125 239.152344 C 262.980469 250.1875 267.9375 266.417969 267.539062 271.136719 C 267.378906 272.574219 267.136719 273.132812 266.496094 273.773438 C 265.9375 274.492188 264.898438 275.054688 264.019531 275.132812 C 263.140625 275.292969 262.019531 274.972656 261.300781 274.492188 C 260.582031 274.015625 259.78125 273.132812 259.621094 272.175781 C 259.460938 271.054688 260.019531 268.976562 260.902344 268.175781 C 261.699219 267.378906 263.460938 267.058594 264.578125 267.296875 C 265.617188 267.617188 266.898438 268.816406 267.296875 269.855469 C 267.617188 270.894531 267.378906 272.734375 266.738281 273.613281 C 266.019531 274.492188 264.417969 275.214844 263.300781 275.214844 C 262.261719 275.132812 260.660156 274.253906 260.101562 273.292969 C 259.542969 272.335938 259.382812 270.574219 259.863281 269.535156 C 260.339844 268.578125 261.859375 267.539062 262.820312 267.21875 C 263.621094 267.058594 264.660156 267.21875 265.378906 267.617188 C 266.257812 268.175781 267.296875 269.695312 267.457031 270.734375 C 267.617188 271.535156 267.457031 272.335938 267.058594 272.972656 C 266.65625 273.773438 265.777344 274.574219 264.980469 274.894531 C 264.179688 275.214844 262.980469 275.214844 262.179688 274.972656 C 261.300781 274.652344 260.660156 274.253906 260.019531 273.132812 C 258.023438 269.777344 256.261719 257.0625 255.0625 249.867188 C 254.105469 243.789062 253.542969 239.074219 253.144531 232.675781 C 252.503906 224.679688 252.90625 213.566406 252.183594 205.648438 C 251.707031 199.492188 251.144531 194.296875 250.105469 189.179688 C 249.066406 184.542969 247.707031 180.625 246.1875 176.144531 C 244.429688 171.1875 240.113281 163.832031 240.03125 160.792969 C 240.03125 159.59375 240.433594 158.796875 241.070312 158.15625 C 241.632812 157.515625 242.671875 156.957031 243.550781 156.796875 C 244.429688 156.714844 245.550781 157.035156 246.269531 157.515625 C 247.066406 157.996094 247.949219 159.835938 247.949219 159.835938 "/></clipPath><clipPath id="2693e85bfd"><path d="M 259.019531 261.101562 L 294.519531 261.101562 L 294.519531 316.703125 L 259.019531 316.703125 Z M 259.019531 261.101562 "/></clipPath><clipPath id="2b17e665b1"><path d="M 267.21875 265.136719 C 271.214844 276.652344 271.933594 277.691406 272.972656 279.371094 C 274.332031 281.449219 275.691406 283.609375 277.933594 286.328125 C 281.289062 290.644531 289.367188 297.363281 291.925781 301.917969 C 293.601562 304.796875 294.164062 307.515625 294.402344 309.753906 C 294.5625 311.433594 294.5625 313.03125 293.921875 314.152344 C 293.203125 315.273438 291.523438 316.152344 290.164062 316.472656 C 288.804688 316.710938 287.605469 316.3125 285.765625 315.75 C 282.089844 314.550781 273.535156 310.074219 270.015625 307.996094 C 268.097656 306.875 266.578125 306.078125 265.777344 304.957031 C 265.21875 304.15625 264.980469 303.277344 265.058594 302.480469 C 265.058594 301.679688 265.378906 300.71875 265.9375 300.078125 C 266.65625 299.359375 268.335938 298.640625 269.375 298.640625 C 270.253906 298.640625 271.136719 299.121094 271.695312 299.679688 C 272.335938 300.238281 272.894531 301.039062 272.972656 301.917969 C 273.054688 302.957031 272.496094 304.71875 271.855469 305.4375 C 271.296875 306.15625 270.335938 306.476562 269.535156 306.636719 C 268.738281 306.714844 267.777344 306.554688 267.058594 306.078125 C 266.179688 305.515625 265.136719 304.078125 265.058594 302.957031 C 264.980469 301.839844 265.699219 300.160156 266.578125 299.519531 C 267.378906 298.800781 268.65625 298.5625 270.253906 298.800781 C 273.375 299.359375 280.96875 304.078125 283.6875 306.238281 C 285.046875 307.355469 286.328125 309.355469 286.488281 309.273438 C 286.648438 309.113281 283.847656 304.476562 281.769531 301.757812 C 278.890625 298.082031 273.375 293.683594 270.253906 289.605469 C 267.457031 286.085938 265.296875 282.328125 263.539062 278.972656 C 262.101562 276.253906 260.820312 273.613281 260.179688 271.054688 C 259.542969 268.738281 258.902344 265.9375 259.300781 264.339844 C 259.542969 263.300781 260.179688 262.5 260.902344 261.941406 C 261.621094 261.460938 262.738281 261.140625 263.621094 261.21875 C 264.5 261.300781 265.539062 261.859375 266.179688 262.5 C 266.738281 263.140625 267.21875 265.136719 267.21875 265.136719 "/></clipPath><clipPath id="ee9d88ab26"><path d="M 231.257812 210.707031 L 274.265625 210.707031 L 274.265625 307.8125 L 231.257812 307.8125 Z M 231.257812 210.707031 "/></clipPath><clipPath id="3567f5ce6e"><path d="M 267.296875 306.636719 C 256.101562 294.484375 253.386719 291.363281 251.625 287.285156 C 249.46875 282.488281 248.585938 277.371094 247.386719 270.574219 C 245.550781 260.339844 245.308594 239.3125 243.070312 231.476562 C 242.109375 227.878906 240.832031 225.960938 239.632812 223.960938 C 238.753906 222.519531 238.03125 221.402344 236.992188 220.441406 C 235.792969 219.402344 233.796875 218.921875 232.835938 218.042969 C 232.117188 217.324219 231.554688 216.683594 231.398438 215.886719 C 231.238281 214.84375 231.554688 213.085938 232.277344 212.207031 C 232.996094 211.40625 234.675781 210.847656 235.714844 210.847656 C 236.59375 210.925781 237.472656 211.40625 238.03125 211.96875 C 238.59375 212.527344 239.152344 213.40625 239.230469 214.207031 C 239.3125 215.246094 238.832031 217.003906 238.03125 217.804688 C 237.234375 218.523438 235.472656 219.003906 234.355469 218.761719 C 233.316406 218.523438 231.957031 217.324219 231.554688 216.285156 C 231.15625 215.246094 231.398438 213.484375 231.957031 212.605469 C 232.597656 211.648438 234.113281 210.925781 235.316406 210.847656 C 236.753906 210.769531 238.832031 212.125 240.273438 213.007812 C 241.550781 213.804688 242.589844 214.527344 243.710938 215.804688 C 245.230469 217.5625 246.75 220.28125 248.027344 222.679688 C 249.308594 225.238281 250.347656 227.078125 251.226562 230.835938 C 253.144531 238.351562 253.304688 256.421875 254.824219 265.859375 C 255.785156 272.253906 256.664062 277.773438 258.261719 281.929688 C 259.300781 284.886719 260.179688 286.40625 262.019531 288.964844 C 264.738281 292.882812 272.816406 299.519531 273.855469 302.480469 C 274.253906 303.679688 274.09375 304.476562 273.773438 305.355469 C 273.375 306.15625 272.574219 306.957031 271.773438 307.355469 C 270.976562 307.757812 269.777344 307.757812 268.976562 307.597656 C 268.335938 307.4375 267.296875 306.636719 267.296875 306.636719 "/></clipPath><clipPath id="7e81180129"><path d="M 101.570312 119.207031 L 128.660156 119.207031 L 128.660156 156.929688 L 101.570312 156.929688 Z M 101.570312 119.207031 "/></clipPath><clipPath id="3f3338bf40"><path d="M 108.582031 120.574219 C 120.816406 134.808594 122.574219 138.484375 124.332031 142.085938 C 125.933594 145.363281 128.171875 149.761719 128.492188 152.078125 C 128.652344 153.117188 128.570312 153.835938 128.25 154.558594 C 127.933594 155.277344 127.210938 156.078125 126.492188 156.476562 C 125.773438 156.796875 124.734375 156.957031 123.933594 156.875 C 123.132812 156.714844 122.253906 156.316406 121.695312 155.675781 C 121.054688 154.878906 120.574219 153.117188 120.734375 152.078125 C 120.816406 151.199219 121.296875 150.398438 122.015625 149.839844 C 122.816406 149.28125 124.574219 148.800781 125.691406 149.039062 C 126.730469 149.359375 128.011719 150.640625 128.410156 151.597656 C 128.730469 152.398438 128.652344 153.4375 128.410156 154.15625 C 128.171875 154.957031 127.53125 155.757812 126.890625 156.238281 C 126.171875 156.636719 125.214844 156.957031 124.414062 156.875 C 123.613281 156.875 122.894531 156.796875 122.015625 155.996094 C 119.457031 153.679688 115.859375 142.085938 112.179688 136.726562 C 109.140625 132.167969 103.386719 127.933594 102.183594 125.214844 C 101.625 124.09375 101.546875 123.292969 101.785156 122.414062 C 101.945312 121.535156 102.585938 120.574219 103.304688 120.097656 C 104.023438 119.535156 105.144531 119.214844 106.023438 119.296875 C 106.902344 119.375 108.582031 120.574219 108.582031 120.574219 "/></clipPath><clipPath id="19296b19f8"><path d="M 105.691406 143.28125 L 237.769531 143.28125 L 237.769531 216.933594 L 105.691406 216.933594 Z M 105.691406 143.28125 "/></clipPath><clipPath id="135de6cd3c"><path d="M 107.304688 162.074219 C 126.652344 149.679688 128.890625 148.960938 132.089844 147.921875 C 135.847656 146.722656 139.527344 145.523438 144.5625 144.804688 C 152.320312 143.683594 167.429688 143.203125 174.148438 143.683594 C 177.585938 143.921875 179.34375 144.402344 182.0625 145.121094 C 184.941406 145.84375 187.578125 146.722656 190.777344 148.160156 C 195.097656 150.078125 200.53125 152.878906 205.25 156.398438 C 210.6875 160.472656 216.765625 166.949219 221.003906 171.75 C 224.28125 175.507812 226.917969 178.945312 229.078125 182.382812 C 230.917969 185.339844 232.4375 188.140625 233.636719 191.097656 C 234.753906 193.898438 235.472656 196.457031 236.113281 199.652344 C 236.832031 203.410156 237.875 209.648438 237.394531 212.527344 C 237.152344 214.046875 236.832031 215.246094 235.953125 215.964844 C 235.15625 216.683594 233.394531 217.003906 232.277344 216.683594 C 231.238281 216.363281 229.957031 215.164062 229.636719 214.125 C 229.316406 213.007812 229.636719 211.246094 230.277344 210.367188 C 230.996094 209.566406 232.597656 208.847656 233.714844 208.929688 C 234.835938 209.007812 236.355469 209.886719 236.914062 210.847656 C 237.472656 211.808594 237.554688 213.644531 237.074219 214.605469 C 236.59375 215.644531 234.996094 216.605469 234.035156 216.84375 C 233.15625 217.003906 232.195312 216.765625 231.476562 216.363281 C 230.835938 215.964844 230.195312 215.484375 229.796875 214.527344 C 228.839844 212.445312 229.238281 206.769531 228.679688 203.410156 C 228.117188 200.453125 227.636719 197.816406 226.679688 195.097656 C 225.71875 192.378906 224.359375 189.898438 222.601562 187.101562 C 220.523438 183.660156 217.5625 179.984375 214.367188 176.386719 C 210.6875 172.226562 206.210938 167.191406 201.492188 163.59375 C 196.933594 160.15625 191.496094 157.195312 186.621094 155.117188 C 182.382812 153.359375 179.183594 152.238281 174.148438 151.679688 C 166.472656 150.800781 153.039062 151.4375 144.722656 152.878906 C 138.40625 153.917969 133.769531 155.355469 128.332031 157.835938 C 122.253906 160.632812 113.378906 168.46875 110.339844 169.191406 C 109.460938 169.429688 109.0625 169.269531 108.421875 169.03125 C 107.703125 168.710938 106.664062 167.992188 106.261719 167.269531 C 105.785156 166.472656 105.625 165.351562 105.785156 164.472656 C 105.945312 163.59375 107.304688 162.074219 107.304688 162.074219 "/></clipPath><clipPath id="4608ba32e0"><path d="M 93.445312 161.65625 L 233.808594 161.65625 L 233.808594 216.703125 L 93.445312 216.703125 Z M 93.445312 161.65625 "/></clipPath><clipPath id="21aaee869d"><path d="M 94.109375 206.289062 C 93.070312 175.585938 93.46875 173.425781 94.507812 170.867188 C 95.46875 168.390625 97.066406 165.351562 98.746094 163.832031 C 99.945312 162.792969 101.386719 162.3125 102.824219 161.992188 C 104.183594 161.671875 105.542969 161.832031 106.902344 161.992188 C 108.261719 162.074219 109.140625 162.074219 110.902344 162.792969 C 114.738281 164.472656 123.933594 171.828125 128.652344 174.46875 C 131.609375 176.066406 132.890625 176.707031 136.007812 177.984375 C 141.125 180.0625 148.878906 182.703125 156.714844 184.863281 C 166.792969 187.578125 180.382812 189.257812 191.65625 192.457031 C 202.371094 195.414062 216.125 200.054688 222.761719 203.171875 C 226.121094 204.691406 228.039062 205.648438 229.957031 207.410156 C 231.554688 208.929688 233.476562 211.007812 233.636719 212.605469 C 233.714844 213.804688 232.835938 215.324219 231.957031 215.964844 C 231.078125 216.605469 229.238281 216.683594 228.199219 216.445312 C 227.398438 216.203125 226.679688 215.484375 226.277344 214.765625 C 225.800781 214.125 225.480469 213.167969 225.640625 212.285156 C 225.800781 211.328125 226.757812 209.726562 227.71875 209.167969 C 228.679688 208.609375 230.4375 208.609375 231.398438 209.089844 C 232.4375 209.566406 233.476562 211.085938 233.636719 212.125 C 233.714844 213.246094 233.074219 214.925781 232.277344 215.644531 C 231.476562 216.363281 229.636719 216.683594 228.679688 216.523438 C 227.796875 216.363281 227 215.804688 226.519531 215.164062 C 226.039062 214.527344 226.519531 213.644531 225.640625 212.765625 C 222.363281 209.488281 202.371094 203.890625 190.859375 200.613281 C 179.902344 197.496094 167.832031 195.976562 158.15625 193.335938 C 150.320312 191.257812 143.125 189.019531 137.207031 186.78125 C 132.570312 185.019531 129.449219 183.820312 125.214844 181.503906 C 119.695312 178.625 111.0625 170.46875 107.144531 169.988281 C 105.382812 169.75 104.183594 170.230469 103.226562 171.269531 C 101.785156 172.707031 101.304688 175.667969 100.828125 179.105469 C 100.027344 185.582031 103.144531 203.171875 101.945312 207.25 C 101.546875 208.609375 101.066406 209.089844 100.347656 209.566406 C 99.625 210.128906 98.507812 210.367188 97.628906 210.289062 C 96.75 210.207031 95.707031 209.648438 95.070312 208.929688 C 94.507812 208.289062 94.109375 206.289062 94.109375 206.289062 "/></clipPath><clipPath id="bddc3ce78a"><path d="M 217.445312 208.671875 L 233.714844 208.671875 L 233.714844 265.203125 L 217.445312 265.203125 Z M 217.445312 208.671875 "/></clipPath><clipPath id="aa6ad032d4"><path d="M 233.636719 212.6875 C 233.554688 234.035156 227.558594 245.867188 226.199219 252.503906 C 225.398438 256.503906 226.4375 260.339844 225.398438 262.421875 C 224.761719 263.78125 223.640625 264.660156 222.679688 265.058594 C 221.882812 265.296875 220.84375 265.21875 220.121094 264.898438 C 219.402344 264.578125 218.601562 263.9375 218.203125 263.21875 C 217.804688 262.578125 217.5625 261.539062 217.644531 260.742188 C 217.722656 259.941406 218.042969 258.980469 218.683594 258.421875 C 219.484375 257.703125 221.160156 257.0625 222.28125 257.222656 C 223.320312 257.382812 224.761719 258.582031 225.238281 259.542969 C 225.640625 260.261719 225.71875 261.222656 225.480469 262.019531 C 225.320312 262.820312 224.921875 263.699219 224.199219 264.257812 C 223.320312 264.820312 221.5625 265.21875 220.523438 265.058594 C 219.722656 264.898438 218.921875 264.257812 218.445312 263.621094 C 217.964844 262.980469 217.722656 262.261719 217.644531 261.222656 C 217.324219 259.0625 217.484375 255.382812 218.285156 251.464844 C 219.5625 244.988281 225.480469 233.957031 226.4375 226.679688 C 227.238281 221.082031 225 214.445312 225.71875 211.726562 C 226.121094 210.527344 226.597656 209.886719 227.398438 209.410156 C 228.117188 208.847656 229.238281 208.609375 230.117188 208.6875 C 230.996094 208.847656 232.035156 209.328125 232.597656 210.046875 C 233.234375 210.6875 233.636719 212.6875 233.636719 212.6875 "/></clipPath><clipPath id="51c4d70aba"><path d="M 98 80.050781 L 120.453125 80.050781 L 120.453125 117.078125 L 98 117.078125 Z M 98 80.050781 "/></clipPath><clipPath id="e12db54520"><path d="M 105.542969 82.195312 C 115.859375 100.265625 119.9375 108.421875 120.175781 112.019531 C 120.335938 113.621094 119.9375 114.820312 119.375 115.699219 C 118.816406 116.339844 117.9375 116.816406 117.136719 116.976562 C 116.339844 117.136719 115.296875 116.976562 114.578125 116.65625 C 113.859375 116.257812 113.140625 115.617188 112.738281 114.898438 C 112.339844 113.9375 112.421875 112.101562 112.820312 111.140625 C 113.140625 110.339844 113.9375 109.703125 114.738281 109.382812 C 115.457031 109.0625 116.417969 108.902344 117.21875 109.140625 C 118.257812 109.460938 119.617188 110.660156 120.097656 111.621094 C 120.414062 112.339844 120.414062 113.378906 120.175781 114.179688 C 119.9375 114.898438 119.375 115.777344 118.738281 116.257812 C 118.097656 116.738281 117.136719 117.136719 116.257812 117.058594 C 115.21875 116.976562 114.097656 116.417969 112.980469 115.21875 C 110.742188 112.660156 108.980469 104.425781 106.503906 99.386719 C 104.023438 94.351562 98.828125 88.03125 98.1875 85.074219 C 97.949219 83.796875 98.109375 83.074219 98.507812 82.277344 C 98.90625 81.476562 99.785156 80.675781 100.585938 80.355469 C 101.464844 80.039062 102.585938 80.039062 103.464844 80.355469 C 104.265625 80.675781 105.542969 82.195312 105.542969 82.195312 "/></clipPath><clipPath id="5dce59a7c7"><path d="M 104 54.332031 L 119.164062 54.332031 L 119.164062 76.679688 L 104 76.679688 Z M 104 54.332031 "/></clipPath><clipPath id="4b3abaf8af"><path d="M 111.699219 56.609375 C 119.296875 73.160156 119.054688 73.800781 118.65625 74.519531 C 118.335938 75.238281 117.539062 75.878906 116.816406 76.277344 C 116.097656 76.597656 115.058594 76.679688 114.339844 76.519531 C 113.539062 76.359375 112.578125 75.878906 112.101562 75.238281 C 111.539062 74.359375 110.980469 72.601562 111.300781 71.5625 C 111.621094 70.523438 112.898438 69.242188 113.859375 68.84375 C 114.660156 68.523438 115.617188 68.601562 116.417969 68.84375 C 117.21875 69.082031 118.015625 69.722656 118.417969 70.363281 C 118.898438 71.003906 119.214844 72.042969 119.136719 72.839844 C 119.136719 73.640625 118.816406 74.601562 118.175781 75.238281 C 117.457031 75.960938 115.777344 76.597656 114.738281 76.597656 C 113.859375 76.597656 113.21875 76.359375 112.421875 75.558594 C 110.179688 73.402344 105.222656 63.085938 104.425781 59.886719 C 104.023438 58.609375 103.945312 57.890625 104.183594 57.089844 C 104.503906 56.210938 105.144531 55.25 105.945312 54.851562 C 106.902344 54.289062 108.660156 54.210938 109.703125 54.609375 C 110.5 54.929688 111.699219 56.609375 111.699219 56.609375 "/></clipPath><clipPath id="3634c961bf"><path d="M 73.800781 205.035156 L 102.402344 205.035156 L 102.402344 274.300781 L 73.800781 274.300781 Z M 73.800781 205.035156 "/></clipPath><clipPath id="e5d540febf"><path d="M 100.667969 209.25 C 90.03125 252.265625 87.792969 259.621094 85.234375 264.820312 C 83.554688 268.335938 79.71875 272.816406 80.039062 273.132812 C 80.117188 273.214844 81.316406 272.253906 81.398438 272.253906 C 81.398438 272.253906 80.039062 273.773438 79.15625 274.015625 C 78.117188 274.332031 76.359375 274.09375 75.480469 273.453125 C 74.601562 272.734375 73.878906 271.296875 73.878906 270.097656 C 73.960938 268.496094 75.640625 266.417969 77.078125 264.660156 C 78.839844 262.660156 81.476562 261.140625 83.796875 258.902344 C 86.433594 256.261719 88.914062 251.945312 91.949219 249.628906 C 94.589844 247.546875 98.90625 244.910156 100.585938 245.308594 C 101.386719 245.46875 101.867188 246.589844 102.105469 247.308594 C 102.34375 248.109375 102.425781 249.066406 102.105469 249.867188 C 101.707031 250.828125 100.425781 252.1875 99.386719 252.425781 C 98.269531 252.746094 96.507812 252.34375 95.707031 251.625 C 94.910156 250.90625 94.191406 249.226562 94.351562 248.109375 C 94.429688 247.066406 95.550781 245.628906 96.429688 245.070312 C 97.148438 244.589844 98.1875 244.507812 98.988281 244.667969 C 99.785156 244.75 100.667969 245.230469 101.226562 245.867188 C 101.867188 246.667969 102.425781 248.425781 102.183594 249.46875 C 101.945312 250.585938 100.828125 251.945312 99.785156 252.34375 C 98.746094 252.746094 96.109375 251.625 96.027344 251.867188 C 95.949219 252.105469 98.828125 252.664062 98.988281 253.542969 C 99.226562 254.902344 96.109375 257.542969 93.871094 260.019531 C 90.433594 263.859375 83.394531 272.09375 80.039062 273.613281 C 78.597656 274.332031 77.320312 274.253906 76.359375 273.933594 C 75.480469 273.613281 74.679688 272.65625 74.28125 271.933594 C 73.960938 271.375 73.800781 270.976562 73.878906 270.097656 C 74.199219 267.21875 78.996094 260.261719 81.476562 253.066406 C 85.472656 241.550781 90.03125 211.96875 93.230469 207.007812 C 93.949219 205.808594 94.589844 205.570312 95.390625 205.25 C 96.269531 205.011719 97.46875 205.089844 98.269531 205.410156 C 98.90625 205.652344 99.386719 206.050781 99.785156 206.609375 C 100.265625 207.25 100.667969 209.25 100.667969 209.25 "/></clipPath><clipPath id="823b3861f8"><path d="M 70.558594 245.203125 L 102.707031 245.203125 L 102.707031 334.292969 L 70.558594 334.292969 Z M 70.558594 245.203125 "/></clipPath><clipPath id="0b1c82857c"><path d="M 102.664062 249.308594 C 102.183594 263.140625 101.785156 264.5 100.585938 268.578125 C 97.308594 279.929688 82.277344 325.90625 78.199219 332.0625 C 77.320312 333.34375 76.917969 333.660156 76.039062 333.980469 C 75.238281 334.300781 74.039062 334.300781 73.242188 333.980469 C 72.441406 333.742188 71.5625 332.863281 71.082031 332.144531 C 70.761719 331.582031 70.601562 330.945312 70.601562 330.304688 C 70.683594 329.585938 70.84375 328.542969 71.402344 327.90625 C 72.121094 327.105469 73.71875 326.226562 74.839844 326.304688 C 75.878906 326.304688 77.480469 327.265625 78.039062 328.144531 C 78.597656 329.105469 78.597656 330.945312 78.277344 331.902344 C 77.957031 332.703125 77.238281 333.421875 76.519531 333.820312 C 75.800781 334.140625 74.839844 334.382812 73.960938 334.222656 C 73 333.980469 71.480469 332.941406 71.003906 331.984375 C 70.523438 330.945312 70.761719 329.183594 71.160156 328.226562 C 71.5625 327.425781 72.363281 326.867188 73.082031 326.546875 C 73.878906 326.226562 74.839844 326.144531 75.640625 326.386719 C 76.679688 326.785156 77.957031 328.066406 78.4375 328.945312 C 78.757812 329.664062 78.679688 330.464844 78.519531 331.183594 C 78.277344 331.984375 77.558594 333.023438 76.917969 333.503906 C 76.4375 333.980469 75.800781 334.222656 75.160156 334.222656 C 74.359375 334.300781 73.082031 334.0625 72.363281 333.582031 C 71.640625 333.101562 71.003906 332.0625 70.761719 331.261719 C 70.523438 330.625 70.523438 330.382812 70.761719 329.34375 C 71.722656 323.265625 88.59375 279.929688 92.109375 268.816406 C 93.390625 264.660156 93.949219 263.378906 94.429688 260.179688 C 95.070312 256.34375 94.03125 249.707031 95.148438 247.386719 C 95.628906 246.347656 96.429688 245.867188 97.226562 245.550781 C 98.109375 245.230469 99.308594 245.308594 100.105469 245.550781 C 100.746094 245.707031 101.226562 246.109375 101.707031 246.667969 C 102.183594 247.308594 102.664062 249.308594 102.664062 249.308594 "/></clipPath><clipPath id="f2f8383995"><path d="M 70.664062 266 L 160.613281 266 L 160.613281 333.917969 L 70.664062 333.917969 Z M 70.664062 266 "/></clipPath><clipPath id="85e69c025e"><path d="M 73.71875 326.066406 C 84.515625 319.828125 92.671875 311.914062 100.667969 305.515625 C 110.582031 297.601562 125.691406 285.6875 134.808594 279.292969 C 140.484375 275.214844 145.363281 272.253906 149.121094 269.9375 C 151.519531 268.496094 153.519531 266.898438 155.117188 266.496094 C 156.078125 266.179688 156.875 266.097656 157.675781 266.417969 C 158.636719 266.738281 159.914062 268.097656 160.316406 269.054688 C 160.632812 269.855469 160.554688 270.816406 160.234375 271.617188 C 159.996094 272.335938 159.433594 273.214844 158.636719 273.613281 C 157.753906 274.09375 155.917969 274.253906 154.878906 273.855469 C 154.078125 273.613281 153.359375 272.972656 153.039062 272.175781 C 152.558594 271.214844 152.398438 269.457031 152.878906 268.417969 C 153.4375 267.457031 154.957031 266.496094 155.917969 266.257812 C 156.796875 266.097656 157.753906 266.339844 158.476562 266.738281 C 159.195312 267.136719 159.835938 267.855469 160.15625 268.65625 C 160.472656 269.375 160.554688 270.414062 160.394531 271.214844 C 160.15625 271.933594 159.914062 272.414062 158.957031 273.292969 C 156.238281 276.09375 146.003906 281.210938 138.328125 286.648438 C 128.011719 293.921875 113.378906 305.515625 103.226562 313.671875 C 95.070312 320.230469 86.832031 328.703125 81.636719 331.664062 C 79.15625 333.101562 77.160156 333.664062 75.480469 333.820312 C 74.441406 333.980469 73.402344 333.820312 72.679688 333.421875 C 72.121094 333.183594 71.640625 332.703125 71.320312 332.144531 C 70.84375 331.421875 70.601562 330.222656 70.683594 329.425781 C 70.683594 328.703125 70.921875 328.144531 71.402344 327.585938 C 71.882812 326.945312 73.71875 326.066406 73.71875 326.066406 "/></clipPath><clipPath id="c315de00e7"><path d="M 152.472656 224 L 190.738281 224 L 190.738281 274.15625 L 152.472656 274.15625 Z M 152.472656 224 "/></clipPath><clipPath id="80377e3afe"><path d="M 152.480469 270.175781 C 152.878906 242.429688 154.476562 238.191406 156.398438 234.675781 C 157.914062 231.796875 159.753906 229.316406 161.992188 227.636719 C 164.230469 226.039062 167.03125 225 169.75 224.519531 C 172.46875 224.039062 175.585938 223.800781 178.304688 224.921875 C 181.582031 226.277344 185.660156 231.078125 187.5 233.476562 C 188.621094 234.996094 189.019531 235.792969 189.5 237.394531 C 190.21875 239.632812 190.539062 243.148438 190.617188 245.550781 C 190.699219 247.546875 190.859375 248.746094 190.457031 250.828125 C 189.820312 254.023438 187.660156 259.78125 186.140625 262.820312 C 185.019531 264.820312 184.140625 266.976562 182.703125 267.617188 C 181.664062 268.257812 179.984375 268.175781 179.023438 267.617188 C 177.984375 267.136719 177.105469 265.539062 176.867188 264.5 C 176.785156 263.699219 177.027344 262.738281 177.503906 262.019531 C 177.90625 261.378906 178.625 260.660156 179.425781 260.421875 C 180.382812 260.101562 182.222656 260.179688 183.101562 260.820312 C 184.0625 261.460938 184.78125 263.058594 184.863281 264.097656 C 184.941406 264.980469 184.542969 265.9375 184.0625 266.578125 C 183.582031 267.21875 182.78125 267.777344 181.902344 267.9375 C 180.945312 268.175781 179.105469 267.777344 178.304688 267.136719 C 177.585938 266.65625 177.105469 266.019531 176.945312 264.980469 C 176.707031 262.101562 181.984375 253.625 182.621094 249.066406 C 183.101562 245.789062 183.101562 242.992188 182.144531 240.433594 C 181.183594 237.875 178.703125 235.074219 176.945312 233.796875 C 175.667969 232.835938 174.386719 232.4375 173.027344 232.277344 C 171.667969 232.117188 170.070312 232.4375 168.710938 232.996094 C 167.511719 233.554688 166.3125 234.59375 165.351562 235.554688 C 164.390625 236.59375 163.832031 237.632812 163.113281 239.074219 C 162.074219 241.152344 160.953125 243.628906 160.316406 247.066406 C 159.273438 253.066406 161.59375 268.578125 159.996094 272.09375 C 159.515625 273.214844 158.714844 273.613281 157.914062 273.933594 C 157.117188 274.253906 155.835938 274.171875 155.039062 273.933594 C 154.398438 273.773438 153.917969 273.375 153.519531 272.894531 C 152.957031 272.253906 152.480469 270.175781 152.480469 270.175781 "/></clipPath><clipPath id="eafe7277cf"><path d="M 176.863281 258.070312 L 231.546875 258.070312 L 231.546875 278.867188 L 176.863281 278.867188 Z M 176.863281 258.070312 "/></clipPath><clipPath id="e543f19037"><path d="M 180.863281 260.101562 C 192.855469 261.378906 201.890625 266.097656 208.527344 267.855469 C 214.367188 269.375 224.839844 271.933594 225.398438 270.734375 C 225.878906 269.777344 217.722656 265.457031 216.765625 263.460938 C 216.285156 262.5 216.445312 261.699219 216.683594 260.902344 C 216.925781 260.179688 217.5625 259.300781 218.203125 258.820312 C 218.84375 258.421875 219.804688 258.101562 220.683594 258.101562 C 221.480469 258.183594 222.441406 258.421875 223 259.0625 C 223.800781 259.78125 224.601562 261.378906 224.519531 262.5 C 224.359375 263.621094 223.402344 265.058594 222.441406 265.617188 C 221.480469 266.179688 219.644531 266.179688 218.683594 265.699219 C 217.722656 265.21875 216.765625 263.621094 216.523438 262.660156 C 216.363281 261.78125 216.605469 260.820312 217.003906 260.101562 C 217.484375 259.460938 218.042969 258.742188 218.921875 258.421875 C 220.203125 258.023438 222.519531 258.261719 224.199219 259.140625 C 226.277344 260.179688 228.917969 263.300781 230.039062 265.21875 C 230.835938 266.578125 231.15625 267.855469 231.398438 269.214844 C 231.554688 270.574219 231.554688 271.933594 231.15625 273.292969 C 230.675781 274.734375 229.796875 276.574219 228.597656 277.453125 C 227.558594 278.332031 226.519531 278.652344 224.679688 278.730469 C 221.082031 279.050781 213.566406 277.453125 207.730469 275.933594 C 201.171875 274.171875 192.695312 269.855469 187.339844 268.578125 C 183.980469 267.777344 180.703125 268.496094 179.023438 267.617188 C 178.066406 267.136719 177.425781 266.339844 177.105469 265.539062 C 176.867188 264.738281 176.867188 263.460938 177.105469 262.660156 C 177.34375 262.019531 177.664062 261.539062 178.226562 261.140625 C 178.863281 260.582031 180.863281 260.101562 180.863281 260.101562 "/></clipPath><clipPath id="11c01ba917"><path d="M 93.550781 201.894531 L 146.933594 201.894531 L 146.933594 217.242188 L 93.550781 217.242188 Z M 93.550781 201.894531 "/></clipPath><clipPath id="a3abee880f"><path d="M 97.546875 201.972656 C 120.015625 202.933594 133.527344 205.808594 138.246094 207.089844 C 140.164062 207.570312 140.886719 207.648438 142.164062 208.449219 C 143.683594 209.328125 146.320312 211.246094 146.722656 212.605469 C 147.042969 213.484375 146.722656 214.445312 146.242188 215.085938 C 145.683594 215.964844 144.164062 217.003906 143.042969 217.164062 C 142.003906 217.246094 140.324219 216.363281 139.605469 215.644531 C 139.046875 215.003906 138.726562 214.046875 138.804688 213.246094 C 138.804688 212.207031 139.683594 210.527344 140.484375 209.886719 C 141.125 209.328125 142.085938 209.089844 142.882812 209.167969 C 143.683594 209.167969 144.644531 209.410156 145.28125 210.046875 C 146.082031 210.769531 146.800781 212.445312 146.722656 213.484375 C 146.722656 214.367188 146.320312 215.246094 145.761719 215.804688 C 144.960938 216.523438 143.285156 217.164062 142.242188 217.085938 C 141.363281 217.085938 140.484375 216.523438 139.925781 215.964844 C 139.367188 215.40625 139.046875 213.644531 138.804688 213.644531 C 138.566406 213.726562 139.046875 215.164062 138.484375 215.566406 C 136.328125 217.085938 120.257812 211.167969 112.578125 210.289062 C 106.664062 209.566406 99.46875 210.769531 96.589844 209.808594 C 95.390625 209.410156 94.75 208.929688 94.269531 208.207031 C 93.789062 207.488281 93.46875 206.289062 93.628906 205.410156 C 93.710938 204.609375 94.269531 203.492188 94.910156 202.933594 C 95.550781 202.371094 97.546875 201.972656 97.546875 201.972656 "/></clipPath><clipPath id="3d2d3f5fc4"><path d="M 92.890625 209.550781 L 147.941406 209.550781 L 147.941406 300.347656 L 92.890625 300.347656 Z M 92.890625 209.550781 "/></clipPath><clipPath id="3df5331d88"><path d="M 147.839844 214.605469 C 139.84375 233.476562 129.53125 253.945312 122.09375 266.976562 C 115.457031 278.652344 106.421875 295.84375 101.867188 299.121094 C 100.425781 300.160156 99.308594 300.320312 98.269531 300.078125 C 97.226562 299.839844 96.1875 298.960938 95.46875 297.679688 C 94.191406 295.363281 94.109375 289.925781 93.789062 286.167969 C 93.46875 282.328125 92.429688 277.210938 93.390625 274.8125 C 93.871094 273.453125 95.070312 272.574219 96.027344 272.175781 C 96.828125 271.855469 97.789062 271.933594 98.585938 272.253906 C 99.308594 272.496094 100.1875 273.054688 100.585938 273.855469 C 101.066406 274.734375 101.304688 276.574219 100.90625 277.53125 C 100.425781 278.570312 99.066406 279.691406 97.949219 279.929688 C 96.910156 280.171875 95.148438 279.53125 94.429688 278.8125 C 93.710938 278.25 93.390625 277.371094 93.230469 276.574219 C 93.148438 275.773438 93.308594 274.734375 93.710938 274.015625 C 94.109375 273.375 94.910156 272.65625 95.628906 272.335938 C 96.347656 272.015625 97.308594 271.855469 98.1875 272.09375 C 99.148438 272.414062 100.1875 273.132812 100.984375 274.574219 C 102.585938 277.851562 102.746094 289.367188 102.984375 293.363281 C 103.066406 295.28125 103.226562 296.5625 102.90625 297.519531 C 102.746094 298.242188 102.425781 298.722656 101.867188 299.121094 C 101.226562 299.679688 100.105469 300.160156 99.226562 300.160156 C 98.347656 300.160156 97.226562 299.761719 96.589844 299.199219 C 95.867188 298.640625 95.390625 297.519531 95.230469 296.722656 C 95.070312 296.003906 95.070312 295.683594 95.46875 294.722656 C 96.988281 290.246094 109.382812 273.054688 115.859375 261.699219 C 122.414062 250.027344 130.089844 234.914062 134.488281 225.640625 C 137.125 219.960938 138.644531 214.125 140.40625 211.726562 C 141.203125 210.6875 141.765625 210.128906 142.5625 209.886719 C 143.363281 209.566406 144.5625 209.566406 145.363281 209.886719 C 146.242188 210.207031 147.121094 211.007812 147.519531 211.808594 C 147.921875 212.527344 147.839844 214.605469 147.839844 214.605469 "/></clipPath><clipPath id="03f5b5bb3a"><path d="M 107.480469 181.40625 L 218.925781 181.40625 L 218.925781 228 L 107.480469 228 Z M 107.480469 181.40625 "/></clipPath><clipPath id="0833bccc0c"><path d="M 114.578125 182.78125 C 124.414062 191.738281 126.730469 192.539062 129.851562 193.738281 C 134.25 195.414062 140.644531 197.65625 146.160156 198.695312 C 151.679688 199.652344 158.554688 199.09375 163.191406 199.652344 C 166.472656 200.054688 168.710938 200.453125 171.429688 201.253906 C 174.308594 202.050781 176.546875 203.089844 179.984375 204.609375 C 185.179688 207.089844 192.9375 212.207031 199.414062 215.085938 C 205.492188 217.722656 215.40625 219.164062 217.722656 221.320312 C 218.601562 222.121094 218.683594 222.839844 218.761719 223.722656 C 218.761719 224.519531 218.601562 225.480469 218.125 226.121094 C 217.484375 227 215.886719 227.878906 214.84375 227.957031 C 213.964844 228.117188 213.085938 227.71875 212.445312 227.238281 C 211.726562 226.757812 211.085938 225.960938 210.925781 225.160156 C 210.6875 224.121094 211.085938 222.363281 211.648438 221.480469 C 212.125 220.761719 213.007812 220.28125 213.804688 220.121094 C 214.605469 219.882812 215.566406 220.042969 216.363281 220.363281 C 217.085938 220.683594 217.804688 221.320312 218.203125 222.042969 C 218.601562 222.761719 218.921875 223.722656 218.683594 224.519531 C 218.445312 225.558594 217.5625 227 216.523438 227.558594 C 215.164062 228.277344 213.167969 227.957031 211.007812 227.636719 C 207.730469 227.160156 203.730469 225.640625 199.171875 223.722656 C 192.457031 220.921875 181.101562 213.804688 175.105469 211.167969 C 171.667969 209.726562 170.230469 208.929688 166.792969 208.210938 C 161.433594 207.007812 152.160156 207.890625 145.523438 206.691406 C 139.367188 205.570312 132.730469 203.171875 128.011719 201.574219 C 124.734375 200.453125 122.574219 200.054688 119.777344 198.214844 C 116.019531 195.894531 109.542969 190.058594 108.183594 187.421875 C 107.621094 186.300781 107.542969 185.5 107.78125 184.621094 C 107.941406 183.742188 108.582031 182.78125 109.300781 182.304688 C 110.019531 181.742188 111.21875 181.421875 112.101562 181.503906 C 112.980469 181.664062 114.578125 182.78125 114.578125 182.78125 "/></clipPath><clipPath id="de09606e42"><path d="M 133.886719 73.3125 L 151.515625 73.3125 L 151.515625 112.523438 L 133.886719 112.523438 Z M 133.886719 73.3125 "/></clipPath><clipPath id="64996a517b"><path d="M 142.242188 77.160156 C 143.601562 88.113281 147.601562 94.988281 149.121094 99.46875 C 150.238281 102.824219 151.519531 106.34375 151.4375 108.421875 C 151.359375 109.542969 150.878906 110.421875 150.398438 111.0625 C 150 111.621094 149.519531 111.941406 148.878906 112.179688 C 148.082031 112.421875 146.800781 112.421875 146.003906 112.179688 C 145.363281 112.019531 144.882812 111.621094 144.402344 111.140625 C 144.003906 110.660156 143.523438 110.101562 143.523438 109.460938 C 143.601562 108.183594 145.84375 104.902344 147.121094 104.425781 C 147.921875 104.183594 148.878906 104.664062 149.601562 105.0625 C 150.238281 105.542969 150.960938 106.261719 151.199219 107.144531 C 151.4375 108.101562 151.28125 109.941406 150.640625 110.820312 C 150 111.699219 148.402344 112.5 147.28125 112.421875 C 146.160156 112.421875 144.644531 111.378906 144.003906 110.582031 C 143.523438 109.863281 143.285156 108.902344 143.445312 108.101562 C 143.601562 107.0625 144.644531 105.542969 145.441406 104.984375 C 146.160156 104.503906 147.121094 104.265625 148 104.503906 C 148.960938 104.742188 150.558594 105.703125 151.039062 106.742188 C 151.519531 107.703125 151.28125 109.542969 150.878906 110.421875 C 150.480469 111.21875 149.121094 112.261719 148.960938 112.101562 C 148.71875 111.941406 150.960938 107.382812 151.28125 107.460938 C 151.4375 107.460938 151.519531 108.742188 151.28125 109.382812 C 151.039062 110.179688 150.398438 111.21875 149.679688 111.699219 C 148.960938 112.261719 147.839844 112.5 146.960938 112.421875 C 146.082031 112.339844 145.363281 112.101562 144.402344 111.140625 C 141.605469 107.863281 135.449219 89.871094 134.328125 83.554688 C 133.769531 80.355469 133.847656 77.957031 134.410156 76.199219 C 134.726562 75.160156 135.207031 74.359375 136.007812 73.878906 C 136.886719 73.320312 138.726562 73.242188 139.683594 73.480469 C 140.324219 73.640625 140.804688 74.039062 141.285156 74.519531 C 141.765625 75.160156 142.242188 77.160156 142.242188 77.160156 "/></clipPath><clipPath id="37d7b3cf5d"><path d="M 145.054688 44.296875 L 156.632812 44.296875 L 156.632812 67.109375 L 145.054688 67.109375 Z M 145.054688 44.296875 "/></clipPath><clipPath id="c540b49587"><path d="M 153.199219 48.453125 C 154.636719 57.570312 156.636719 60.847656 156.554688 62.847656 C 156.476562 64.207031 155.757812 65.566406 154.957031 66.285156 C 154.316406 66.84375 153.4375 67.164062 152.558594 67.085938 C 151.519531 67.003906 149.921875 66.285156 149.28125 65.324219 C 148.640625 64.445312 148.402344 62.6875 148.800781 61.648438 C 149.199219 60.609375 150.71875 59.488281 151.679688 59.167969 C 152.480469 58.929688 153.519531 59.089844 154.238281 59.488281 C 154.957031 59.808594 155.675781 60.527344 156.078125 61.167969 C 156.476562 61.886719 156.714844 62.925781 156.476562 63.726562 C 156.238281 64.765625 155.117188 66.203125 154.238281 66.683594 C 153.519531 67.164062 152.480469 67.164062 151.679688 67.003906 C 150.960938 66.84375 150.238281 66.523438 149.519531 65.726562 C 148.082031 63.886719 146.320312 58.128906 145.683594 54.929688 C 145.203125 52.453125 144.960938 49.894531 145.203125 48.132812 C 145.441406 47.09375 145.683594 46.136719 146.320312 45.574219 C 147.121094 44.855469 148.800781 44.214844 149.839844 44.375 C 150.800781 44.457031 151.757812 45.097656 152.320312 45.734375 C 152.878906 46.457031 153.199219 48.453125 153.199219 48.453125 "/></clipPath><clipPath id="e55b78d4c5"><path d="M 168.371094 74.625 L 179.402344 74.625 L 179.402344 112.386719 L 168.371094 112.386719 Z M 168.371094 74.625 "/></clipPath><clipPath id="1ddf51868b"><path d="M 176.625 78.679688 C 177.984375 103.464844 177.183594 103.945312 177.34375 104.902344 C 177.503906 106.023438 179.265625 106.984375 179.34375 108.101562 C 179.425781 109.222656 178.542969 110.820312 177.824219 111.539062 C 177.183594 112.101562 176.226562 112.339844 175.425781 112.339844 C 174.625 112.421875 173.667969 112.101562 172.949219 111.621094 C 172.308594 111.140625 171.667969 110.339844 171.507812 109.460938 C 171.347656 108.503906 171.589844 106.664062 172.308594 105.863281 C 172.949219 104.984375 174.707031 104.34375 175.746094 104.425781 C 176.625 104.425781 177.503906 104.902344 178.066406 105.464844 C 178.625 105.945312 179.183594 106.824219 179.265625 107.703125 C 179.425781 108.742188 178.945312 110.5 178.144531 111.21875 C 177.34375 112.019531 175.425781 112.339844 174.546875 112.261719 C 174.066406 112.261719 173.746094 112.179688 173.347656 111.859375 C 172.46875 110.902344 171.347656 107.78125 170.707031 105.464844 C 169.988281 102.90625 169.667969 100.507812 169.351562 97.226562 C 168.871094 92.269531 168.070312 82.035156 168.628906 78.679688 C 168.871094 77.320312 169.03125 76.679688 169.667969 75.960938 C 170.230469 75.320312 171.269531 74.761719 172.148438 74.679688 C 173.027344 74.601562 174.226562 74.761719 174.945312 75.398438 C 175.746094 76.039062 176.625 78.679688 176.625 78.679688 "/></clipPath><clipPath id="e93eebe523"><path d="M 191.546875 43.652344 L 202.425781 43.652344 L 202.425781 78.503906 L 191.546875 78.503906 Z M 191.546875 43.652344 "/></clipPath><clipPath id="8f9d4c67cd"><path d="M 202.371094 47.65625 C 201.730469 64.285156 201.09375 72.921875 199.414062 75.960938 C 198.613281 77.320312 197.496094 78.039062 196.535156 78.359375 C 195.734375 78.597656 194.777344 78.4375 193.976562 78.117188 C 193.257812 77.796875 192.457031 77.160156 192.136719 76.359375 C 191.738281 75.398438 191.738281 73.5625 192.136719 72.601562 C 192.457031 71.800781 193.257812 71.160156 193.976562 70.84375 C 194.695312 70.523438 195.65625 70.28125 196.535156 70.523438 C 197.496094 70.84375 198.933594 72.042969 199.414062 73 C 199.734375 73.71875 199.734375 74.761719 199.492188 75.480469 C 199.332031 76.28125 198.773438 77.160156 198.132812 77.636719 C 197.496094 78.117188 196.457031 78.4375 195.65625 78.4375 C 194.855469 78.4375 193.898438 78.199219 193.257812 77.636719 C 192.457031 77 191.898438 75.878906 191.65625 74.28125 C 191.257812 71.003906 193.65625 63.886719 194.214844 59.007812 C 194.695312 54.449219 193.738281 48.054688 194.855469 45.734375 C 195.335938 44.695312 196.136719 44.214844 197.015625 43.898438 C 197.816406 43.578125 199.015625 43.65625 199.8125 43.898438 C 200.453125 44.054688 201.011719 44.457031 201.414062 44.9375 C 201.890625 45.65625 202.371094 47.65625 202.371094 47.65625 "/></clipPath><clipPath id="2439da0010"><path d="M 197.769531 89.589844 L 212.089844 89.589844 L 212.089844 118.46875 L 197.769531 118.46875 Z M 197.769531 89.589844 "/></clipPath><clipPath id="995b5683f7"><path d="M 197.816406 114.5 C 198.695312 104.265625 202.691406 94.589844 204.449219 91.871094 C 205.089844 90.910156 205.492188 90.433594 206.210938 90.03125 C 206.929688 89.710938 207.96875 89.550781 208.769531 89.710938 C 209.566406 89.792969 210.449219 90.273438 211.007812 90.910156 C 211.566406 91.472656 212.046875 92.351562 212.046875 93.230469 C 212.046875 94.269531 211.328125 95.949219 210.609375 96.667969 C 209.96875 97.308594 209.089844 97.628906 208.207031 97.628906 C 207.167969 97.546875 205.492188 96.910156 204.851562 96.027344 C 204.210938 95.148438 204.050781 93.308594 204.292969 92.269531 C 204.53125 91.472656 205.171875 90.75 205.890625 90.273438 C 206.53125 89.871094 207.488281 89.550781 208.289062 89.632812 C 209.167969 89.710938 210.046875 90.03125 210.6875 90.589844 C 211.328125 91.152344 211.886719 91.871094 211.96875 92.832031 C 212.207031 94.429688 210.925781 97.226562 210.046875 99.546875 C 209.089844 102.183594 207.089844 104.984375 206.289062 107.863281 C 205.570312 110.582031 206.210938 114.578125 205.332031 116.339844 C 204.769531 117.296875 204.050781 117.9375 203.171875 118.257812 C 202.371094 118.496094 201.171875 118.496094 200.375 118.257812 C 199.734375 118.015625 199.171875 117.695312 198.773438 117.136719 C 198.292969 116.496094 197.816406 114.5 197.816406 114.5 "/></clipPath><clipPath id="f3c26ba096"><path d="M 227.5 66.800781 L 245.753906 66.800781 L 245.753906 94.613281 L 227.5 94.613281 Z M 227.5 66.800781 "/></clipPath><clipPath id="bbdca6973d"><path d="M 245.550781 72.359375 C 233.316406 94.347656 232.117188 94.589844 231.078125 94.589844 C 230.195312 94.507812 229.316406 94.03125 228.757812 93.46875 C 228.199219 92.910156 227.71875 91.949219 227.636719 91.152344 C 227.480469 90.351562 227.636719 89.390625 228.039062 88.671875 C 228.4375 87.953125 229.15625 87.234375 229.957031 86.914062 C 230.917969 86.59375 232.753906 86.753906 233.714844 87.234375 C 234.433594 87.632812 234.996094 88.433594 235.316406 89.230469 C 235.554688 89.953125 235.714844 90.910156 235.394531 91.710938 C 234.996094 92.75 233.796875 94.109375 232.753906 94.429688 C 231.714844 94.75 229.957031 94.347656 229.078125 93.710938 C 228.359375 93.230469 227.878906 92.351562 227.71875 91.632812 C 227.480469 90.832031 227.558594 90.273438 227.878906 89.074219 C 228.917969 85.3125 236.433594 70.28125 239.3125 67.722656 C 240.351562 66.925781 241.152344 66.84375 242.03125 66.84375 C 242.671875 66.84375 243.308594 67.003906 243.871094 67.324219 C 244.507812 67.804688 245.390625 68.683594 245.628906 69.484375 C 245.949219 70.363281 245.550781 72.359375 245.550781 72.359375 "/></clipPath><clipPath id="8d4d5ab31f"><path d="M 220.761719 104.34375 L 250.777344 104.34375 L 250.777344 131.238281 L 220.761719 131.238281 Z M 220.761719 104.34375 "/></clipPath><clipPath id="65fa0a2ae4"><path d="M 222.203125 124.171875 C 245.628906 104.425781 246.1875 104.265625 246.988281 104.425781 C 248.027344 104.585938 249.546875 105.625 250.105469 106.421875 C 250.585938 107.144531 250.828125 108.101562 250.585938 108.980469 C 250.347656 109.941406 249.308594 111.460938 248.347656 112.019531 C 247.628906 112.421875 246.667969 112.5 245.867188 112.339844 C 245.070312 112.179688 244.191406 111.699219 243.628906 111.0625 C 242.992188 110.179688 242.511719 108.421875 242.75 107.382812 C 243.070312 106.34375 244.351562 105.0625 245.308594 104.585938 C 246.109375 104.265625 247.066406 104.34375 247.867188 104.585938 C 248.585938 104.824219 249.46875 105.464844 249.945312 106.101562 C 250.347656 106.742188 250.667969 107.703125 250.667969 108.503906 C 250.585938 109.300781 250.425781 109.863281 249.707031 110.902344 C 247.226562 114.5 231.316406 128.011719 227.398438 130.25 C 226.121094 130.96875 225.558594 131.210938 224.679688 131.210938 C 223.800781 131.210938 222.679688 130.808594 222.042969 130.171875 C 221.320312 129.371094 220.761719 127.691406 220.84375 126.652344 C 220.921875 125.773438 222.203125 124.171875 222.203125 124.171875 "/></clipPath><clipPath id="25790b745b"><path d="M 256.464844 109.820312 L 282.785156 109.820312 L 282.785156 128.992188 L 256.464844 128.992188 Z M 256.464844 109.820312 "/></clipPath><clipPath id="b5514d73d4"><path d="M 258.421875 121.535156 C 270.65625 114.339844 273.535156 114.097656 274.8125 113.058594 C 275.53125 112.421875 275.453125 111.378906 276.09375 110.902344 C 276.730469 110.339844 277.613281 109.863281 278.492188 109.941406 C 279.53125 109.941406 281.210938 110.582031 281.851562 111.460938 C 282.570312 112.339844 282.890625 114.097656 282.488281 115.140625 C 282.167969 116.179688 280.808594 117.378906 279.851562 117.777344 C 279.050781 118.015625 278.011719 117.9375 277.292969 117.617188 C 276.492188 117.296875 275.691406 116.738281 275.292969 116.019531 C 274.8125 115.058594 274.652344 113.21875 275.054688 112.261719 C 275.53125 111.222656 276.972656 110.179688 278.011719 109.941406 C 279.132812 109.78125 280.808594 110.339844 281.609375 111.140625 C 282.328125 111.941406 282.96875 113.460938 282.648438 114.738281 C 282.089844 116.65625 278.652344 118.738281 275.773438 120.734375 C 271.855469 123.453125 263.859375 128.570312 260.820312 128.890625 C 259.621094 129.050781 258.820312 128.652344 258.101562 128.089844 C 257.460938 127.53125 256.824219 126.492188 256.582031 125.691406 C 256.421875 125.054688 256.503906 124.414062 256.664062 123.773438 C 256.984375 123.054688 258.421875 121.535156 258.421875 121.535156 "/></clipPath><clipPath id="85ab726ef5"><path d="M 241.101562 141.640625 L 276.402344 141.640625 L 276.402344 157.332031 L 241.101562 157.332031 Z M 241.101562 141.640625 "/></clipPath><clipPath id="c501d8e8f8"><path d="M 245.148438 149.039062 C 260.582031 146.882812 268.175781 141.765625 271.613281 141.683594 C 273.214844 141.605469 274.414062 141.925781 275.132812 142.722656 C 275.933594 143.523438 276.492188 145.203125 276.253906 146.320312 C 276.09375 147.363281 274.972656 148.800781 273.933594 149.199219 C 272.894531 149.679688 271.136719 149.519531 270.175781 148.960938 C 269.296875 148.320312 268.496094 146.722656 268.335938 145.683594 C 268.257812 144.800781 268.65625 143.921875 269.136719 143.285156 C 269.535156 142.5625 270.335938 141.925781 271.136719 141.765625 C 272.175781 141.523438 274.015625 141.765625 274.8125 142.484375 C 275.691406 143.125 276.414062 144.800781 276.332031 145.921875 C 276.253906 146.960938 275.53125 148 274.332031 149.039062 C 271.855469 151.121094 264.257812 153.597656 260.101562 154.957031 C 257.0625 155.996094 254.425781 156.714844 251.785156 157.035156 C 249.46875 157.277344 246.828125 157.355469 245.148438 157.035156 C 244.03125 156.796875 243.148438 156.554688 242.511719 155.996094 C 241.871094 155.4375 241.3125 154.398438 241.230469 153.519531 C 241.070312 152.636719 241.3125 151.4375 241.871094 150.71875 C 242.511719 149.921875 245.148438 149.039062 245.148438 149.039062 "/></clipPath><clipPath id="5ffe63cae9"><path d="M 270 155.148438 L 296.78125 155.148438 L 296.78125 168.671875 L 270 168.671875 Z M 270 155.148438 "/></clipPath><clipPath id="f31c11aee2"><path d="M 274.015625 160.472656 C 283.050781 159.113281 289.683594 155.039062 292.644531 155.199219 C 294.082031 155.277344 295.28125 156.078125 296.003906 156.875 C 296.5625 157.515625 296.722656 158.476562 296.722656 159.273438 C 296.722656 160.074219 296.402344 161.035156 295.84375 161.671875 C 295.363281 162.3125 294.5625 162.953125 293.761719 163.03125 C 292.722656 163.273438 290.886719 162.953125 290.085938 162.152344 C 289.285156 161.433594 288.644531 159.753906 288.804688 158.714844 C 288.886719 157.597656 290.085938 156.15625 290.964844 155.597656 C 291.683594 155.199219 292.644531 155.039062 293.445312 155.277344 C 294.484375 155.515625 295.921875 156.714844 296.402344 157.597656 C 296.800781 158.316406 296.800781 159.355469 296.640625 160.15625 C 296.402344 160.953125 296.160156 161.59375 295.28125 162.3125 C 293.042969 164.152344 284.726562 167.191406 280.808594 168.070312 C 278.171875 168.628906 275.691406 168.710938 274.015625 168.46875 C 272.894531 168.308594 272.015625 168.070312 271.375 167.429688 C 270.734375 166.871094 270.175781 165.832031 270.015625 164.953125 C 269.9375 164.074219 270.175781 162.953125 270.734375 162.234375 C 271.375 161.355469 274.015625 160.472656 274.015625 160.472656 "/></clipPath><clipPath id="e45de5e169"><path d="M 254.855469 182.265625 L 281.15625 182.265625 L 281.15625 192.828125 L 254.855469 192.828125 Z M 254.855469 182.265625 "/></clipPath><clipPath id="d4d63b5275"><path d="M 258.902344 184.703125 C 268.417969 184.382812 274.253906 181.984375 277.050781 182.382812 C 278.492188 182.542969 279.691406 183.183594 280.410156 183.980469 C 280.96875 184.621094 281.210938 185.582031 281.128906 186.378906 C 281.050781 187.421875 280.171875 189.019531 279.371094 189.660156 C 278.652344 190.21875 277.691406 190.378906 276.890625 190.296875 C 276.09375 190.296875 275.132812 189.898438 274.492188 189.339844 C 273.933594 188.78125 273.375 187.898438 273.214844 187.101562 C 273.054688 186.378906 273.132812 185.339844 273.535156 184.621094 C 274.09375 183.742188 275.613281 182.621094 276.574219 182.382812 C 277.453125 182.222656 278.410156 182.460938 279.132812 182.863281 C 279.769531 183.261719 280.492188 183.980469 280.808594 184.703125 C 281.128906 185.421875 281.210938 186.460938 281.050781 187.261719 C 280.890625 188.058594 280.570312 188.78125 279.691406 189.417969 C 277.933594 190.699219 272.972656 191.578125 269.457031 192.136719 C 266.019531 192.617188 261.21875 193.015625 258.902344 192.699219 C 257.703125 192.539062 256.902344 192.296875 256.261719 191.65625 C 255.542969 191.097656 255.0625 190.058594 254.902344 189.179688 C 254.824219 188.300781 255.0625 187.179688 255.625 186.460938 C 256.261719 185.582031 258.902344 184.703125 258.902344 184.703125 "/></clipPath><clipPath id="ea3c6c3550"><path d="M 272.183594 203.257812 L 292.816406 203.257812 L 292.816406 211.730469 L 272.183594 211.730469 Z M 272.183594 203.257812 "/></clipPath><clipPath id="64eb2f6749"><path d="M 276.171875 203.410156 C 291.042969 203.730469 291.605469 204.210938 292.085938 204.851562 C 292.5625 205.492188 292.882812 206.53125 292.804688 207.328125 C 292.804688 208.128906 292.484375 209.089844 292.003906 209.726562 C 291.523438 210.367188 290.726562 211.007812 289.84375 211.085938 C 288.804688 211.328125 287.046875 211.007812 286.167969 210.289062 C 285.367188 209.488281 284.808594 207.808594 284.886719 206.769531 C 284.886719 205.890625 285.449219 205.011719 286.007812 204.449219 C 286.566406 203.890625 287.445312 203.410156 288.246094 203.332031 C 289.046875 203.171875 290.085938 203.332031 290.804688 203.730469 C 291.445312 204.132812 292.164062 204.851562 292.484375 205.648438 C 292.804688 206.371094 292.882812 207.410156 292.722656 208.207031 C 292.5625 208.929688 292.003906 209.808594 291.363281 210.367188 C 290.726562 210.847656 290.164062 211.007812 288.964844 211.246094 C 286.488281 211.726562 278.8125 211.886719 276.171875 211.40625 C 274.972656 211.167969 274.253906 211.007812 273.535156 210.367188 C 272.894531 209.808594 272.335938 208.769531 272.253906 207.890625 C 272.09375 207.007812 272.335938 205.890625 272.894531 205.171875 C 273.535156 204.289062 276.171875 203.410156 276.171875 203.410156 "/></clipPath><clipPath id="dd6ffc142d"><path d="M 257.710938 222.929688 L 279.496094 222.929688 L 279.496094 231.84375 L 257.710938 231.84375 Z M 257.710938 222.929688 "/></clipPath><clipPath id="cbfbf4c8a6"><path d="M 261.699219 223.640625 C 274.332031 223.71875 275.375 222.839844 276.414062 223 C 277.292969 223.160156 278.089844 223.800781 278.570312 224.441406 C 279.050781 225.078125 279.449219 225.960938 279.449219 226.839844 C 279.371094 227.878906 278.570312 229.476562 277.773438 230.195312 C 277.132812 230.675781 276.09375 230.917969 275.292969 230.917969 C 274.492188 230.835938 273.535156 230.597656 272.894531 230.039062 C 272.175781 229.316406 271.457031 227.558594 271.457031 226.519531 C 271.457031 225.71875 271.933594 224.839844 272.496094 224.199219 C 273.054688 223.640625 273.933594 223.082031 274.734375 223 C 275.53125 222.839844 276.492188 223 277.210938 223.320312 C 277.933594 223.71875 278.652344 224.441406 279.050781 225.160156 C 279.371094 225.878906 279.53125 226.917969 279.371094 227.636719 C 279.210938 228.4375 278.8125 229.316406 278.089844 229.878906 C 277.050781 230.675781 275.292969 230.996094 273.292969 231.316406 C 270.257812 231.796875 264.179688 232.035156 261.699219 231.636719 C 260.5 231.398438 259.703125 231.238281 259.0625 230.597656 C 258.421875 230.039062 257.863281 228.996094 257.78125 228.117188 C 257.621094 227.238281 257.863281 226.039062 258.421875 225.320312 C 259.0625 224.519531 261.699219 223.640625 261.699219 223.640625 "/></clipPath><clipPath id="1467d4ca5a"><path d="M 270.796875 239.890625 L 289.746094 239.890625 L 289.746094 249.066406 L 270.796875 249.066406 Z M 270.796875 239.890625 "/></clipPath><clipPath id="455b81db71"><path d="M 274.8125 240.992188 C 287.6875 240.273438 288.246094 240.75 288.804688 241.390625 C 289.285156 242.03125 289.683594 242.992188 289.683594 243.789062 C 289.765625 244.589844 289.445312 245.550781 288.964844 246.1875 C 288.484375 246.910156 287.765625 247.546875 286.886719 247.707031 C 285.925781 247.949219 284.089844 247.628906 283.207031 247.066406 C 282.488281 246.589844 282.007812 245.707031 281.851562 244.910156 C 281.609375 244.191406 281.609375 243.148438 282.007812 242.429688 C 282.488281 241.472656 283.929688 240.273438 284.886719 240.03125 C 285.769531 239.792969 286.726562 239.953125 287.445312 240.351562 C 288.167969 240.671875 288.886719 241.390625 289.285156 242.109375 C 289.605469 242.832031 289.765625 243.871094 289.605469 244.667969 C 289.527344 245.46875 288.964844 246.347656 288.40625 246.910156 C 287.847656 247.386719 287.207031 247.628906 286.085938 247.949219 C 283.769531 248.507812 277.210938 249.308594 274.8125 248.988281 C 273.613281 248.828125 272.816406 248.507812 272.175781 247.949219 C 271.457031 247.386719 270.894531 246.347656 270.816406 245.46875 C 270.734375 244.589844 270.894531 243.390625 271.535156 242.671875 C 272.175781 241.871094 274.8125 240.992188 274.8125 240.992188 "/></clipPath><clipPath id="d69754bfe9"><path d="M 263.585938 261.34375 L 280.390625 261.34375 L 280.390625 271.890625 L 263.585938 271.890625 Z M 263.585938 261.34375 "/></clipPath><clipPath id="e09a2b073e"><path d="M 266.816406 264.019531 C 277.453125 261.378906 278.089844 261.699219 278.730469 262.179688 C 279.449219 262.660156 280.011719 263.460938 280.171875 264.257812 C 280.410156 265.296875 280.011719 267.136719 279.371094 267.9375 C 278.890625 268.65625 278.011719 269.054688 277.210938 269.296875 C 276.414062 269.457031 275.375 269.296875 274.652344 268.976562 C 273.933594 268.65625 273.214844 267.9375 272.816406 267.21875 C 272.414062 266.496094 272.175781 265.539062 272.414062 264.738281 C 272.65625 263.699219 273.773438 262.261719 274.652344 261.699219 C 275.453125 261.300781 276.414062 261.300781 277.210938 261.460938 C 278.011719 261.621094 278.890625 262.179688 279.371094 262.738281 C 279.929688 263.378906 280.332031 264.339844 280.332031 265.136719 C 280.410156 265.9375 280.089844 266.898438 279.691406 267.617188 C 279.210938 268.257812 278.652344 268.65625 277.613281 269.136719 C 275.691406 270.097656 270.734375 271.855469 268.335938 271.855469 C 266.898438 271.855469 265.617188 271.457031 264.820312 270.816406 C 264.097656 270.175781 263.621094 269.054688 263.621094 268.175781 C 263.539062 267.296875 263.859375 266.179688 264.417969 265.457031 C 264.898438 264.820312 266.816406 264.019531 266.816406 264.019531 "/></clipPath></defs><g id="1e24ecc870"><g clip-rule="nonzero" clip-path="url(#deb743f6e2)"><g clip-rule="nonzero" clip-path="url(#6140054564)"><path style=" stroke:none;fill-rule:nonzero;fill:currentColor;fill-opacity:1;" d="M 58.367188 74.039062 L 107.621094 74.039062 L 107.621094 128.105469 L 58.367188 128.105469 Z M 58.367188 74.039062 "/></g></g><g clip-rule="nonzero" clip-path="url(#01e38c1cdc)"><g clip-rule="nonzero" clip-path="url(#f03a3664e6)"><path style=" stroke:none;fill-rule:nonzero;fill:currentColor;fill-opacity:1;" d="M 58.207031 37.5 L 232.894531 37.5 L 232.894531 88.433594 L 58.207031 88.433594 Z M 58.207031 37.5 "/></g></g><g clip-rule="nonzero" clip-path="url(#a63518e089)"><g clip-rule="nonzero" clip-path="url(#7a130b8b46)"><path style=" stroke:none;fill-rule:nonzero;fill:currentColor;fill-opacity:1;" d="M 214.125 47.414062 L 296.082031 47.414062 L 296.082031 151.460938 L 214.125 151.460938 Z M 214.125 47.414062 "/></g></g><g clip-rule="nonzero" clip-path="url(#898c36d11f)"><g clip-rule="nonzero" clip-path="url(#f0597a95b8)"><path style=" stroke:none;fill-rule:nonzero;fill:currentColor;fill-opacity:1;" d="M 279.769531 134.328125 L 302.078125 134.328125 L 302.078125 270.617188 L 279.769531 270.617188 Z M 279.769531 134.328125 "/></g></g><g clip-rule="nonzero" clip-path="url(#a28f4d197c)"><g clip-rule="nonzero" clip-path="url(#bc5d1c0612)"><path style=" stroke:none;fill-rule:nonzero;fill:currentColor;fill-opacity:1;" d="M 280.011719 253.304688 L 316.792969 253.304688 L 316.792969 322.554688 L 280.011719 322.554688 Z M 280.011719 253.304688 "/></g></g><g clip-rule="nonzero" clip-path="url(#996e38764d)"><g clip-rule="nonzero" clip-path="url(#770f28481c)"><path style=" stroke:none;fill-rule:nonzero;fill:currentColor;fill-opacity:1;" d="M 92.832031 105.222656 L 253.777344 105.222656 L 253.777344 172.546875 L 92.832031 172.546875 Z M 92.832031 105.222656 "/></g></g><g clip-rule="nonzero" clip-path="url(#14e8f8a7e6)"><g clip-rule="nonzero" clip-path="url(#cea1dfd204)"><path style=" stroke:none;fill-rule:nonzero;fill:currentColor;fill-opacity:1;" d="M 236.832031 153.597656 L 270.734375 153.597656 L 270.734375 278.347656 L 236.832031 278.347656 Z M 236.832031 153.597656 "/></g></g><g clip-rule="nonzero" clip-path="url(#2693e85bfd)"><g clip-rule="nonzero" clip-path="url(#2b17e665b1)"><path style=" stroke:none;fill-rule:nonzero;fill:currentColor;fill-opacity:1;" d="M 256.101562 258.023438 L 297.601562 258.023438 L 297.601562 319.621094 L 256.101562 319.621094 Z M 256.101562 258.023438 "/></g></g><g clip-rule="nonzero" clip-path="url(#ee9d88ab26)"><g clip-rule="nonzero" clip-path="url(#3567f5ce6e)"><path style=" stroke:none;fill-rule:nonzero;fill:currentColor;fill-opacity:1;" d="M 228.199219 207.648438 L 277.132812 207.648438 L 277.132812 310.871094 L 228.199219 310.871094 Z M 228.199219 207.648438 "/></g></g><g clip-rule="nonzero" clip-path="url(#7e81180129)"><g clip-rule="nonzero" clip-path="url(#3f3338bf40)"><path style=" stroke:none;fill-rule:nonzero;fill:currentColor;fill-opacity:1;" d="M 98.585938 116.097656 L 131.769531 116.097656 L 131.769531 160.167969 L 98.585938 160.167969 Z M 98.585938 116.097656 "/></g></g><g clip-rule="nonzero" clip-path="url(#19296b19f8)"><g clip-rule="nonzero" clip-path="url(#135de6cd3c)"><path style=" stroke:none;fill-rule:nonzero;fill:currentColor;fill-opacity:1;" d="M 102.585938 140.484375 L 240.566406 140.484375 L 240.566406 220.042969 L 102.585938 220.042969 Z M 102.585938 140.484375 "/></g></g><g clip-rule="nonzero" clip-path="url(#4608ba32e0)"><g clip-rule="nonzero" clip-path="url(#21aaee869d)"><path style=" stroke:none;fill-rule:nonzero;fill:currentColor;fill-opacity:1;" d="M 89.632812 158.796875 L 236.90625 158.796875 L 236.90625 219.800781 L 89.632812 219.800781 Z M 89.632812 158.796875 "/></g></g><g clip-rule="nonzero" clip-path="url(#bddc3ce78a)"><g clip-rule="nonzero" clip-path="url(#aa6ad032d4)"><path style=" stroke:none;fill-rule:nonzero;fill:currentColor;fill-opacity:1;" d="M 214.445312 205.492188 L 237.714844 205.492188 L 237.714844 268.292969 L 214.445312 268.292969 Z M 214.445312 205.492188 "/></g></g><g clip-rule="nonzero" clip-path="url(#51c4d70aba)"><g clip-rule="nonzero" clip-path="url(#e12db54520)"><path style=" stroke:none;fill-rule:nonzero;fill:currentColor;fill-opacity:1;" d="M 94.988281 77.160156 L 123.453125 77.160156 L 123.453125 120.300781 L 94.988281 120.300781 Z M 94.988281 77.160156 "/></g></g><g clip-rule="nonzero" clip-path="url(#5dce59a7c7)"><g clip-rule="nonzero" clip-path="url(#4b3abaf8af)"><path style=" stroke:none;fill-rule:nonzero;fill:currentColor;fill-opacity:1;" d="M 100.984375 51.414062 L 122.335938 51.414062 L 122.335938 79.847656 L 100.984375 79.847656 Z M 100.984375 51.414062 "/></g></g><g clip-rule="nonzero" clip-path="url(#3634c961bf)"><g clip-rule="nonzero" clip-path="url(#e5d540febf)"><path style=" stroke:none;fill-rule:nonzero;fill:currentColor;fill-opacity:1;" d="M 70.683594 202.050781 L 105.382812 202.050781 L 105.382812 277.285156 L 70.683594 277.285156 Z M 70.683594 202.050781 "/></g></g><g clip-rule="nonzero" clip-path="url(#823b3861f8)"><g clip-rule="nonzero" clip-path="url(#0b1c82857c)"><path style=" stroke:none;fill-rule:nonzero;fill:currentColor;fill-opacity:1;" d="M 67.402344 242.351562 L 105.863281 242.351562 L 105.863281 337.449219 L 67.402344 337.449219 Z M 67.402344 242.351562 "/></g></g><g clip-rule="nonzero" clip-path="url(#f2f8383995)"><g clip-rule="nonzero" clip-path="url(#85e69c025e)"><path style=" stroke:none;fill-rule:nonzero;fill:currentColor;fill-opacity:1;" d="M 67.484375 263.058594 L 163.503906 263.058594 L 163.503906 337.101562 L 67.484375 337.101562 Z M 67.484375 263.058594 "/></g></g><g clip-rule="nonzero" clip-path="url(#c315de00e7)"><g clip-rule="nonzero" clip-path="url(#80377e3afe)"><path style=" stroke:none;fill-rule:nonzero;fill:currentColor;fill-opacity:1;" d="M 148.960938 221.320312 L 193.898438 221.320312 L 193.898438 277.140625 L 148.960938 277.140625 Z M 148.960938 221.320312 "/></g></g><g clip-rule="nonzero" clip-path="url(#eafe7277cf)"><g clip-rule="nonzero" clip-path="url(#e543f19037)"><path style=" stroke:none;fill-rule:nonzero;fill:currentColor;fill-opacity:1;" d="M 173.90625 254.902344 L 234.609375 254.902344 L 234.609375 281.929688 L 173.90625 281.929688 Z M 173.90625 254.902344 "/></g></g><g clip-rule="nonzero" clip-path="url(#11c01ba917)"><g clip-rule="nonzero" clip-path="url(#a3abee880f)"><path style=" stroke:none;fill-rule:nonzero;fill:currentColor;fill-opacity:1;" d="M 90.433594 198.773438 L 149.96875 198.773438 L 149.96875 220.363281 L 90.433594 220.363281 Z M 90.433594 198.773438 "/></g></g><g clip-rule="nonzero" clip-path="url(#3d2d3f5fc4)"><g clip-rule="nonzero" clip-path="url(#3df5331d88)"><path style=" stroke:none;fill-rule:nonzero;fill:currentColor;fill-opacity:1;" d="M 90.03125 206.691406 L 151.039062 206.691406 L 151.039062 303.445312 L 90.03125 303.445312 Z M 90.03125 206.691406 "/></g></g><g clip-rule="nonzero" clip-path="url(#03f5b5bb3a)"><g clip-rule="nonzero" clip-path="url(#0833bccc0c)"><path style=" stroke:none;fill-rule:nonzero;fill:currentColor;fill-opacity:1;" d="M 104.585938 178.304688 L 222.027344 178.304688 L 222.027344 231.238281 L 104.585938 231.238281 Z M 104.585938 178.304688 "/></g></g><g clip-rule="nonzero" clip-path="url(#de09606e42)"><g clip-rule="nonzero" clip-path="url(#64996a517b)"><path style=" stroke:none;fill-rule:nonzero;fill:currentColor;fill-opacity:1;" d="M 131.128906 70.28125 L 154.636719 70.28125 L 154.636719 115.738281 L 131.128906 115.738281 Z M 131.128906 70.28125 "/></g></g><g clip-rule="nonzero" clip-path="url(#37d7b3cf5d)"><g clip-rule="nonzero" clip-path="url(#c540b49587)"><path style=" stroke:none;fill-rule:nonzero;fill:currentColor;fill-opacity:1;" d="M 142.003906 41.179688 L 159.753906 41.179688 L 159.753906 70.371094 L 142.003906 70.371094 Z M 142.003906 41.179688 "/></g></g><g clip-rule="nonzero" clip-path="url(#e55b78d4c5)"><g clip-rule="nonzero" clip-path="url(#1ddf51868b)"><path style=" stroke:none;fill-rule:nonzero;fill:currentColor;fill-opacity:1;" d="M 165.433594 71.480469 L 182.542969 71.480469 L 182.542969 115.597656 L 165.433594 115.597656 Z M 165.433594 71.480469 "/></g></g><g clip-rule="nonzero" clip-path="url(#e93eebe523)"><g clip-rule="nonzero" clip-path="url(#8f9d4c67cd)"><path style=" stroke:none;fill-rule:nonzero;fill:currentColor;fill-opacity:1;" d="M 188.460938 40.699219 L 205.648438 40.699219 L 205.648438 81.726562 L 188.460938 81.726562 Z M 188.460938 40.699219 "/></g></g><g clip-rule="nonzero" clip-path="url(#2439da0010)"><g clip-rule="nonzero" clip-path="url(#995b5683f7)"><path style=" stroke:none;fill-rule:nonzero;fill:currentColor;fill-opacity:1;" d="M 194.617188 86.433594 L 215.324219 86.433594 L 215.324219 121.460938 L 194.617188 121.460938 Z M 194.617188 86.433594 "/></g></g><g clip-rule="nonzero" clip-path="url(#f3c26ba096)"><g clip-rule="nonzero" clip-path="url(#bbdca6973d)"><path style=" stroke:none;fill-rule:nonzero;fill:currentColor;fill-opacity:1;" d="M 224.441406 63.644531 L 248.90625 63.644531 L 248.90625 97.765625 L 224.441406 97.765625 Z M 224.441406 63.644531 "/></g></g><g clip-rule="nonzero" clip-path="url(#8d4d5ab31f)"><g clip-rule="nonzero" clip-path="url(#65fa0a2ae4)"><path style=" stroke:none;fill-rule:nonzero;fill:currentColor;fill-opacity:1;" d="M 217.644531 101.226562 L 253.894531 101.226562 L 253.894531 134.488281 L 217.644531 134.488281 Z M 217.644531 101.226562 "/></g></g><g clip-rule="nonzero" clip-path="url(#25790b745b)"><g clip-rule="nonzero" clip-path="url(#b5514d73d4)"><path style=" stroke:none;fill-rule:nonzero;fill:currentColor;fill-opacity:1;" d="M 253.386719 106.742188 L 285.863281 106.742188 L 285.863281 132.167969 L 253.386719 132.167969 Z M 253.386719 106.742188 "/></g></g><g clip-rule="nonzero" clip-path="url(#85ab726ef5)"><g clip-rule="nonzero" clip-path="url(#c501d8e8f8)"><path style=" stroke:none;fill-rule:nonzero;fill:currentColor;fill-opacity:1;" d="M 238.03125 138.484375 L 279.644531 138.484375 L 279.644531 160.3125 L 238.03125 160.3125 Z M 238.03125 138.484375 "/></g></g><g clip-rule="nonzero" clip-path="url(#5ffe63cae9)"><g clip-rule="nonzero" clip-path="url(#f31c11aee2)"><path style=" stroke:none;fill-rule:nonzero;fill:currentColor;fill-opacity:1;" d="M 266.816406 152 L 299.933594 152 L 299.933594 171.667969 L 266.816406 171.667969 Z M 266.816406 152 "/></g></g><g clip-rule="nonzero" clip-path="url(#e45de5e169)"><g clip-rule="nonzero" clip-path="url(#d4d63b5275)"><path style=" stroke:none;fill-rule:nonzero;fill:currentColor;fill-opacity:1;" d="M 251.707031 179.183594 L 284.433594 179.183594 L 284.433594 195.976562 L 251.707031 195.976562 Z M 251.707031 179.183594 "/></g></g><g clip-rule="nonzero" clip-path="url(#ea3c6c3550)"><g clip-rule="nonzero" clip-path="url(#64eb2f6749)"><path style=" stroke:none;fill-rule:nonzero;fill:currentColor;fill-opacity:1;" d="M 269.054688 200.132812 L 296.058594 200.132812 L 296.058594 214.683594 L 269.054688 214.683594 Z M 269.054688 200.132812 "/></g></g><g clip-rule="nonzero" clip-path="url(#dd6ffc142d)"><g clip-rule="nonzero" clip-path="url(#cbfbf4c8a6)"><path style=" stroke:none;fill-rule:nonzero;fill:currentColor;fill-opacity:1;" d="M 254.585938 219.800781 L 282.742188 219.800781 L 282.742188 234.914062 L 254.585938 234.914062 Z M 254.585938 219.800781 "/></g></g><g clip-rule="nonzero" clip-path="url(#1467d4ca5a)"><g clip-rule="nonzero" clip-path="url(#455b81db71)"><path style=" stroke:none;fill-rule:nonzero;fill:currentColor;fill-opacity:1;" d="M 267.617188 236.832031 L 292.984375 236.832031 L 292.984375 252.183594 L 267.617188 252.183594 Z M 267.617188 236.832031 "/></g></g><g clip-rule="nonzero" clip-path="url(#d69754bfe9)"><g clip-rule="nonzero" clip-path="url(#e09a2b073e)"><path style=" stroke:none;fill-rule:nonzero;fill:currentColor;fill-opacity:1;" d="M 260.421875 258.183594 L 283.617188 258.183594 L 283.617188 275.054688 L 260.421875 275.054688 Z M 260.421875 258.183594 "/></g></g></g></svg>