<svg xmlns="http://www.w3.org/2000/svg" xmlns:xlink="http://www.w3.org/1999/xlink" width="500" zoomAndPan="magnify" viewBox="0 0 375 374.999991" height="500" preserveAspectRatio="xMidYMid meet" version="1.2"><defs><clipPath id="9f90194143"><path d="M 67.09375 256.082031 L 104.914062 256.082031 L 104.914062 288.851562 L 67.09375 288.851562 Z M 67.09375 256.082031 "/></clipPath><clipPath id="95cfd92d6e"><path d="M 94.21875 288.816406 C 76.53125 287.371094 73.722656 285.5 71.769531 284.054688 C 70.40625 283.035156 69.472656 282.101562 68.792969 280.824219 C 68.027344 279.632812 67.601562 278.273438 67.433594 276.828125 C 67.175781 275.128906 67.09375 273.34375 67.601562 271.386719 C 68.199219 269.003906 70.152344 265.519531 71.597656 263.648438 C 72.617188 262.289062 73.300781 261.4375 75 260.5 C 77.804688 258.972656 83.503906 257.269531 87.839844 256.589844 C 92.09375 255.996094 97.960938 255.996094 100.59375 256.421875 C 101.785156 256.675781 102.464844 256.761719 103.144531 257.269531 C 103.828125 257.867188 104.421875 258.714844 104.675781 259.566406 C 104.933594 260.417969 104.847656 261.4375 104.507812 262.289062 C 104.25 263.050781 103.488281 263.902344 102.804688 264.328125 C 102.039062 264.753906 101.019531 265.09375 100.085938 264.921875 C 99.066406 264.753906 97.363281 263.734375 96.855469 262.710938 C 96.257812 261.691406 96.429688 259.738281 96.855469 258.714844 C 97.195312 257.867188 98.042969 257.183594 98.808594 256.84375 C 99.574219 256.503906 100.679688 256.335938 101.53125 256.503906 C 102.296875 256.761719 103.316406 257.183594 103.828125 257.949219 C 104.507812 258.800781 104.847656 260.757812 104.675781 261.863281 C 104.507812 262.710938 103.828125 263.5625 103.144531 264.074219 C 102.464844 264.582031 101.785156 264.753906 100.59375 264.921875 C 97.960938 265.433594 90.730469 264.753906 87.585938 265.179688 C 85.628906 265.433594 84.4375 265.859375 82.992188 266.453125 C 81.460938 267.050781 79.59375 267.644531 78.488281 268.664062 C 77.382812 269.683594 76.699219 271.046875 76.277344 272.40625 C 75.851562 273.683594 75.511719 275.636719 76.105469 276.742188 C 76.699219 277.847656 78.488281 278.445312 79.761719 279.039062 C 81.121094 279.632812 82.398438 280.058594 84.183594 280.316406 C 86.988281 280.738281 93.199219 279.890625 95.238281 280.398438 C 96.171875 280.65625 96.597656 280.910156 97.109375 281.335938 C 97.535156 281.84375 98.042969 282.355469 98.214844 283.035156 C 98.46875 283.886719 98.46875 285.246094 98.214844 286.097656 C 98.042969 286.777344 97.617188 287.289062 97.109375 287.710938 C 96.34375 288.222656 94.21875 288.816406 94.21875 288.816406 "/></clipPath><clipPath id="3b542c582e"><path d="M 93.6875 249.597656 L 270.109375 249.597656 L 270.109375 265.375 L 93.6875 265.375 Z M 93.6875 249.597656 "/></clipPath><clipPath id="feed394397"><path d="M 97.960938 256.421875 C 161.734375 254.71875 197.195312 252.082031 217.433594 251.574219 C 230.273438 251.148438 240.304688 251.914062 249.148438 251.402344 C 255.527344 251.0625 262.328125 249.445312 265.476562 249.617188 C 266.75 249.703125 267.347656 249.789062 268.113281 250.296875 C 268.960938 250.976562 269.898438 252.679688 270.066406 253.785156 C 270.152344 254.71875 269.726562 255.65625 269.21875 256.421875 C 268.707031 257.101562 267.941406 257.78125 267.007812 257.949219 C 265.988281 258.207031 264.03125 257.949219 263.09375 257.183594 C 262.246094 256.421875 261.566406 254.632812 261.566406 253.527344 C 261.566406 252.59375 262.074219 251.65625 262.671875 251.0625 C 263.265625 250.382812 264.199219 249.871094 265.050781 249.703125 C 265.902344 249.53125 266.921875 249.703125 267.6875 250.042969 C 268.453125 250.46875 269.21875 251.234375 269.644531 252 C 269.984375 252.761719 270.238281 253.867188 269.984375 254.71875 C 269.644531 255.738281 268.960938 257.015625 267.433594 257.78125 C 264.199219 259.566406 255.101562 259.566406 248.042969 259.992188 C 239.625 260.417969 232.058594 259.652344 220.40625 259.992188 C 200.59375 260.5 162.328125 263.222656 139.796875 264.074219 C 123.640625 264.667969 103.65625 265.945312 97.960938 264.921875 C 96.429688 264.667969 95.832031 264.5 95.152344 263.902344 C 94.386719 263.222656 93.878906 262.117188 93.707031 261.183594 C 93.621094 260.246094 93.878906 259.054688 94.472656 258.289062 C 95.152344 257.441406 97.960938 256.421875 97.960938 256.421875 "/></clipPath><clipPath id="73c2547cad"><path d="M 258.144531 178 L 307.457031 178 L 307.457031 257.6875 L 258.144531 257.6875 Z M 258.144531 178 "/></clipPath><clipPath id="5f676b8670"><path d="M 261.480469 249.363281 C 274.40625 242.730469 278.488281 240.347656 281.972656 237.542969 C 285.460938 234.652344 289.882812 230.398438 291.835938 227.847656 C 292.941406 226.316406 293.195312 225.550781 293.960938 224.023438 C 294.984375 221.8125 296.257812 218.578125 297.023438 215.6875 C 297.875 212.796875 298.214844 209.90625 298.554688 206.503906 C 298.894531 202.421875 299.234375 197.066406 298.554688 192.898438 C 297.960938 189.074219 294.984375 184.652344 295.066406 182.269531 C 295.066406 181.164062 295.40625 180.398438 295.917969 179.71875 C 296.511719 179.039062 297.363281 178.445312 298.214844 178.273438 C 299.066406 178.019531 300.171875 178.105469 300.933594 178.445312 C 301.699219 178.785156 302.550781 179.378906 302.976562 180.230469 C 303.488281 181.164062 303.65625 183.121094 303.144531 184.226562 C 302.636719 185.246094 301.019531 186.265625 299.914062 186.523438 C 299.066406 186.777344 297.960938 186.523438 297.277344 186.097656 C 296.511719 185.671875 295.75 184.820312 295.40625 184.054688 C 295.066406 183.289062 294.984375 182.183594 295.152344 181.335938 C 295.324219 180.570312 295.917969 179.632812 296.597656 179.039062 C 297.277344 178.527344 298.300781 178.105469 299.148438 178.105469 C 300 178.105469 301.019531 178.359375 301.699219 178.867188 C 302.464844 179.378906 302.804688 179.972656 303.316406 181.078125 C 304.421875 183.121094 306.292969 188.476562 306.886719 191.199219 C 307.3125 192.984375 307.226562 193.835938 307.3125 195.535156 C 307.398438 198 307.566406 201.234375 307.3125 204.550781 C 306.972656 208.546875 306.378906 213.734375 305.1875 218.070312 C 304.082031 222.40625 302.804688 226.574219 300.253906 230.570312 C 297.363281 235.078125 293.027344 239.414062 288.265625 243.324219 C 282.824219 247.746094 273.722656 253.1875 269.21875 255.484375 C 266.835938 256.675781 265.304688 257.527344 263.519531 257.609375 C 262.160156 257.695312 260.542969 257.269531 259.695312 256.675781 C 259.097656 256.335938 258.757812 255.738281 258.589844 255.058594 C 258.25 254.210938 258.164062 252.933594 258.503906 252 C 259.011719 250.976562 261.480469 249.363281 261.480469 249.363281 "/></clipPath><clipPath id="49254b1740"><path d="M 163.210938 146.757812 L 305.632812 146.757812 L 305.632812 191.054688 L 163.210938 191.054688 Z M 163.210938 146.757812 "/></clipPath><clipPath id="bc7cc1e100"><path d="M 297.195312 188.050781 C 290.644531 175.46875 288.945312 173.597656 286.566406 171.554688 C 283.589844 169.089844 278.996094 166.199219 275.425781 164.582031 C 272.449219 163.222656 270.492188 162.96875 266.75 162.117188 C 260.460938 160.757812 248.722656 158.632812 240.730469 157.867188 C 234.183594 157.269531 228.65625 157.867188 222.535156 157.527344 C 216.410156 157.101562 211.394531 155.996094 204.167969 155.65625 C 193.878906 155.230469 172.195312 158.121094 166.75 156.164062 C 164.964844 155.570312 164.117188 154.804688 163.691406 153.699219 C 163.179688 152.59375 163.519531 150.722656 164.03125 149.703125 C 164.457031 148.9375 165.222656 148.257812 166.15625 148 C 167.175781 147.746094 169.132812 147.917969 170.066406 148.597656 C 171.003906 149.277344 171.769531 151.0625 171.855469 152.167969 C 171.855469 153.105469 171.511719 154.039062 170.832031 154.71875 C 170.152344 155.484375 168.28125 156.25 167.175781 156.25 C 166.328125 156.25 165.390625 155.738281 164.710938 155.144531 C 164.117188 154.632812 163.519531 153.613281 163.433594 152.761719 C 163.265625 152 163.351562 150.894531 163.777344 150.128906 C 164.117188 149.363281 164.796875 148.683594 165.730469 148.171875 C 166.921875 147.578125 168.539062 147.40625 171.003906 147.152344 C 176.53125 146.640625 188.011719 146.726562 198.300781 146.980469 C 211.480469 147.320312 230.355469 148.085938 243.621094 149.703125 C 254.082031 150.894531 264.796875 152.847656 271.429688 154.550781 C 275.171875 155.484375 277.382812 156.25 280.1875 157.441406 C 282.90625 158.632812 285.203125 159.738281 287.839844 161.605469 C 291.070312 163.988281 295.066406 167.644531 297.703125 170.875 C 300.085938 173.683594 301.871094 176.742188 303.230469 179.550781 C 304.335938 181.929688 305.441406 184.738281 305.441406 186.523438 C 305.527344 187.710938 305.1875 188.734375 304.59375 189.414062 C 303.996094 190.179688 302.890625 190.773438 301.957031 190.945312 C 301.019531 191.113281 299.828125 190.945312 298.980469 190.433594 C 298.214844 189.921875 297.195312 188.050781 297.195312 188.050781 "/></clipPath><clipPath id="f08653244d"><path d="M 78.371094 147.894531 L 177.785156 147.894531 L 177.785156 158.339844 L 78.371094 158.339844 Z M 78.371094 147.894531 "/></clipPath><clipPath id="a8bc25cdc7"><path d="M 173.554688 156.929688 C 125.511719 157.183594 114.371094 158.375 104.761719 158.289062 C 96.769531 158.207031 86.566406 157.527344 82.824219 156.84375 C 81.460938 156.589844 80.867188 156.675781 80.1875 156.078125 C 79.335938 155.398438 78.488281 153.613281 78.402344 152.507812 C 78.316406 151.65625 78.65625 150.636719 79.335938 149.957031 C 80.015625 149.191406 81.800781 148.257812 82.90625 148.34375 C 84.097656 148.425781 85.714844 149.53125 86.308594 150.46875 C 86.820312 151.234375 87.074219 152.253906 86.90625 153.105469 C 86.648438 154.210938 85.542969 155.824219 84.609375 156.421875 C 83.84375 156.84375 82.738281 157.015625 81.886719 156.761719 C 80.867188 156.503906 79.25 155.398438 78.742188 154.292969 C 78.316406 153.273438 78.570312 151.316406 79.082031 150.382812 C 79.421875 149.53125 80.1875 149.023438 81.121094 148.597656 C 82.484375 148.085938 84.269531 148.171875 86.648438 148.257812 C 90.902344 148.257812 97.875 149.617188 104.761719 149.789062 C 113.859375 149.957031 125.511719 148.683594 136.480469 148.425781 C 148.382812 148.171875 168.195312 147.40625 173.554688 148.425781 C 175.085938 148.683594 175.679688 148.851562 176.359375 149.445312 C 177.039062 150.128906 177.636719 151.234375 177.722656 152.167969 C 177.890625 153.105469 177.636719 154.292969 177.039062 155.058594 C 176.359375 155.996094 173.554688 156.929688 173.554688 156.929688 "/></clipPath><clipPath id="29857a0010"><path d="M 62.011719 148.304688 L 106.949219 148.304688 L 106.949219 192.453125 L 62.011719 192.453125 Z M 62.011719 148.304688 "/></clipPath><clipPath id="7f6ff067e0"><path d="M 85.800781 149.703125 C 99.320312 164.328125 103.0625 167.898438 104.761719 172.066406 C 106.378906 176.0625 107.3125 181.929688 106.546875 184.992188 C 106.121094 187.03125 104.761719 188.394531 103.488281 189.582031 C 102.296875 190.605469 101.019531 191.285156 99.320312 191.710938 C 97.023438 192.304688 92.941406 192.644531 90.644531 192.21875 C 89.03125 191.878906 88.09375 191.367188 86.566406 190.519531 C 84.4375 189.242188 81.800781 187.203125 79.25 184.992188 C 76.191406 182.355469 72.449219 178.613281 69.472656 175.296875 C 66.75 172.238281 62.753906 168.496094 62.246094 166.027344 C 61.988281 164.5 62.585938 163.050781 63.433594 162.203125 C 64.285156 161.351562 66.070312 160.84375 67.261719 161.011719 C 68.453125 161.265625 69.898438 162.457031 70.324219 163.5625 C 70.832031 164.582031 70.664062 166.539062 69.984375 167.472656 C 69.386719 168.496094 67.601562 169.34375 66.582031 169.429688 C 65.644531 169.515625 64.625 169.175781 63.945312 168.664062 C 63.265625 168.15625 62.585938 167.21875 62.414062 166.453125 C 62.160156 165.605469 62.160156 164.5 62.5 163.734375 C 62.753906 162.882812 63.351562 162.03125 64.199219 161.605469 C 65.136719 161.097656 66.496094 160.671875 68.113281 161.265625 C 72.277344 162.882812 81.039062 176.0625 86.140625 179.71875 C 89.117188 181.929688 91.921875 183.632812 94.132812 183.714844 C 95.664062 183.714844 97.449219 183.035156 98.042969 182.015625 C 98.640625 180.996094 97.960938 179.125 97.535156 177.761719 C 97.195312 176.234375 96.855469 175.210938 95.664062 173.425781 C 92.941406 169.089844 79.847656 157.015625 78.570312 153.699219 C 78.144531 152.761719 78.316406 152.339844 78.488281 151.65625 C 78.742188 150.808594 79.421875 149.703125 80.1875 149.191406 C 80.953125 148.597656 82.144531 148.257812 83.078125 148.34375 C 84.011719 148.425781 85.800781 149.703125 85.800781 149.703125 "/></clipPath><clipPath id="86b6e6be5e"><path d="M 40.714844 104.023438 L 75.441406 104.023438 L 75.441406 171.707031 L 40.714844 171.707031 Z M 40.714844 104.023438 "/></clipPath><clipPath id="0d5e3224c0"><path d="M 65.988281 170.449219 C 42.941406 147.492188 41.75 144.855469 41.15625 142.558594 C 40.730469 140.945312 40.644531 139.921875 40.902344 138.222656 C 41.328125 135.84375 42.347656 132.695312 44.132812 129.71875 C 46.683594 125.382812 51.699219 119.941406 56.121094 115.6875 C 60.460938 111.4375 67.433594 104.972656 70.492188 104.210938 C 71.597656 103.867188 72.363281 104.292969 73.128906 104.632812 C 73.894531 105.058594 74.660156 105.910156 75 106.675781 C 75.339844 107.441406 75.425781 108.546875 75.253906 109.394531 C 75.085938 110.160156 74.574219 111.183594 73.808594 111.691406 C 72.960938 112.289062 71.003906 112.710938 69.898438 112.457031 C 69.046875 112.289062 68.199219 111.605469 67.6875 110.925781 C 67.175781 110.246094 66.835938 109.226562 66.835938 108.375 C 66.835938 107.527344 67.261719 106.503906 67.773438 105.824219 C 68.28125 105.144531 69.132812 104.464844 69.984375 104.292969 C 71.089844 104.125 73.042969 104.550781 73.894531 105.230469 C 74.660156 105.738281 75.171875 106.589844 75.253906 107.527344 C 75.425781 108.632812 75.085938 109.90625 74.148438 111.351562 C 72.363281 114.242188 65.5625 118.324219 61.90625 121.894531 C 58.589844 125.128906 55.101562 128.445312 52.976562 131.761719 C 51.277344 134.394531 49.488281 137.371094 49.40625 139.667969 C 49.40625 141.285156 50.253906 142.558594 50.933594 143.921875 C 51.617188 145.195312 52.210938 145.960938 53.65625 147.492188 C 56.972656 151.234375 70.152344 161.265625 72.277344 164.839844 C 73.042969 166.113281 73.128906 166.878906 73.042969 167.816406 C 72.875 168.75 72.363281 169.855469 71.597656 170.449219 C 70.917969 171.132812 69.726562 171.554688 68.792969 171.554688 C 67.855469 171.554688 65.988281 170.449219 65.988281 170.449219 "/></clipPath><clipPath id="0cbc7e337a"><path d="M 65.128906 84.472656 L 108.25 84.472656 L 108.25 117.160156 L 65.128906 117.160156 Z M 65.128906 84.472656 "/></clipPath><clipPath id="eb79828191"><path d="M 66.667969 106.421875 C 81.292969 92.390625 85.375 88.648438 88.351562 86.949219 C 90.050781 85.84375 91.410156 85.417969 92.941406 85.078125 C 94.386719 84.738281 95.832031 84.480469 97.277344 84.652344 C 98.808594 84.820312 100.59375 85.417969 101.957031 86.183594 C 103.230469 86.863281 104.421875 87.796875 105.355469 88.988281 C 106.378906 90.261719 107.398438 92.050781 107.824219 93.664062 C 108.25 95.027344 108.25 96.300781 108.078125 97.917969 C 107.738281 100.296875 107.058594 103.613281 105.527344 106.335938 C 103.570312 109.652344 99.066406 114.582031 96.511719 116.027344 C 95.066406 116.878906 93.707031 117.132812 92.601562 116.964844 C 91.75 116.792969 90.902344 116.113281 90.304688 115.433594 C 89.796875 114.753906 89.371094 113.734375 89.457031 112.882812 C 89.539062 111.777344 90.304688 109.992188 91.328125 109.3125 C 92.261719 108.632812 94.132812 108.460938 95.238281 108.886719 C 96.34375 109.3125 97.535156 110.84375 97.875 111.863281 C 98.128906 112.710938 97.960938 113.816406 97.617188 114.582031 C 97.195312 115.347656 96.511719 116.199219 95.75 116.539062 C 94.984375 116.964844 93.878906 117.132812 93.027344 117.050781 C 92.175781 116.878906 91.242188 116.367188 90.644531 115.773438 C 90.050781 115.179688 89.625 114.15625 89.457031 113.308594 C 89.371094 112.457031 89.539062 111.691406 90.050781 110.671875 C 91.242188 108.375 97.195312 103.953125 98.554688 101.316406 C 99.40625 99.789062 99.660156 98.511719 99.574219 97.152344 C 99.488281 95.789062 98.808594 93.664062 97.875 93.15625 C 96.855469 92.558594 95.324219 92.816406 93.539062 93.664062 C 88.777344 95.789062 75.59375 111.4375 71.511719 113.308594 C 70.152344 113.902344 69.386719 113.902344 68.453125 113.734375 C 67.601562 113.476562 66.582031 112.796875 65.988281 112.03125 C 65.476562 111.183594 65.136719 109.992188 65.304688 109.054688 C 65.390625 108.121094 66.667969 106.421875 66.667969 106.421875 "/></clipPath><clipPath id="c81d66ea61"><path d="M 76.125 106.1875 L 160.421875 106.1875 L 160.421875 134.644531 L 76.125 134.644531 Z M 76.125 106.1875 "/></clipPath><clipPath id="ffe483efc3"><path d="M 99.660156 114.074219 C 88.011719 123.511719 86.394531 128.359375 84.695312 128.445312 C 83.503906 128.445312 80.953125 125.550781 81.378906 124.789062 C 82.3125 122.660156 101.617188 125.808594 112.414062 125.636719 C 124.148438 125.46875 144.300781 121.132812 149.234375 123.425781 C 150.933594 124.191406 150.933594 126.828125 151.785156 126.742188 C 152.550781 126.742188 153.0625 124.105469 153.996094 123.511719 C 154.761719 123 155.867188 122.832031 156.71875 123.085938 C 157.824219 123.34375 159.355469 124.53125 159.863281 125.46875 C 160.289062 126.316406 160.375 127.339844 160.117188 128.1875 C 159.949219 129.039062 159.523438 129.972656 158.757812 130.484375 C 157.824219 131.164062 155.953125 131.675781 154.847656 131.335938 C 153.742188 130.996094 152.296875 129.71875 151.957031 128.613281 C 151.617188 127.507812 151.957031 125.636719 152.636719 124.703125 C 153.316406 123.765625 155.1875 123 156.292969 123 C 157.144531 123 158.164062 123.34375 158.757812 124.023438 C 159.523438 124.789062 160.628906 126.65625 160.203125 127.761719 C 159.609375 129.378906 156.039062 130.824219 152.125 131.84375 C 143.621094 134.140625 122.535156 134.140625 109.523438 134.140625 C 98.46875 134.226562 83.417969 135.757812 78.910156 132.78125 C 76.957031 131.589844 76.359375 129.292969 76.277344 127.59375 C 76.105469 126.148438 76.785156 124.957031 77.550781 123.511719 C 78.65625 121.386719 80.355469 118.921875 82.738281 116.539062 C 86.140625 113.222656 94.132812 107.015625 96.769531 106.335938 C 97.703125 106.164062 98.214844 106.335938 98.808594 106.589844 C 99.574219 107.015625 100.679688 107.78125 101.105469 108.632812 C 101.53125 109.480469 101.617188 110.757812 101.445312 111.605469 C 101.191406 112.542969 99.660156 114.074219 99.660156 114.074219 "/></clipPath><clipPath id="42a212d789"><path d="M 142.433594 122 L 231.335938 122 L 231.335938 132.503906 L 142.433594 132.503906 Z M 142.433594 122 "/></clipPath><clipPath id="9d8348522c"><path d="M 146.683594 123 C 228.65625 122.320312 229.167969 122.40625 229.847656 123.085938 C 230.695312 123.9375 231.378906 125.722656 231.292969 126.828125 C 231.207031 127.761719 230.613281 128.867188 229.847656 129.464844 C 229.167969 130.144531 228.0625 130.738281 227.039062 130.570312 C 225.679688 130.230469 223.128906 127.679688 222.789062 126.316406 C 222.617188 125.382812 223.042969 124.449219 223.640625 123.765625 C 224.40625 122.917969 226.191406 122.066406 227.296875 122.066406 C 228.230469 122.066406 229.167969 122.40625 229.847656 123.085938 C 230.613281 123.851562 231.292969 125.636719 231.292969 126.742188 C 231.292969 127.679688 230.695312 128.613281 230.101562 129.210938 C 229.59375 129.890625 228.65625 130.398438 227.722656 130.484375 C 226.617188 130.570312 224.828125 129.972656 223.980469 129.210938 C 223.300781 128.613281 222.960938 127.59375 222.789062 126.742188 C 222.703125 125.894531 222.875 124.871094 223.382812 124.105469 C 224.066406 123.257812 225.765625 122.238281 226.785156 122.066406 C 227.722656 121.894531 228.742188 122.320312 229.421875 122.746094 C 230.1875 123.257812 231.207031 124.871094 231.121094 124.957031 C 230.953125 125.128906 226.957031 122.238281 227.039062 122.066406 C 227.125 121.894531 229.167969 122.492188 229.847656 123.085938 C 230.613281 123.765625 231.121094 124.871094 231.292969 125.808594 C 231.378906 126.742188 231.121094 127.933594 230.527344 128.699219 C 229.847656 129.632812 229.082031 130.058594 227.039062 130.570312 C 217.941406 132.867188 155.101562 133.035156 146.683594 131.503906 C 145.066406 131.25 144.558594 131.078125 143.878906 130.398438 C 143.195312 129.804688 142.601562 128.699219 142.515625 127.761719 C 142.347656 126.828125 142.601562 125.636719 143.195312 124.871094 C 143.878906 123.9375 146.683594 123 146.683594 123 "/></clipPath><clipPath id="885b77e3eb"><path d="M 218.316406 122.097656 L 319.332031 122.097656 L 319.332031 162 L 218.316406 162 Z M 218.316406 122.097656 "/></clipPath><clipPath id="7a991d2b00"><path d="M 222.703125 122.238281 C 254.675781 122.492188 255.953125 122.746094 259.609375 123.597656 C 266.15625 125.042969 279.933594 129.210938 286.308594 131.503906 C 290.050781 132.867188 291.835938 133.375 295.066406 135.160156 C 299.574219 137.710938 306.800781 142.558594 310.375 146.132812 C 312.839844 148.597656 314.03125 151.828125 315.644531 153.359375 C 316.667969 154.210938 317.855469 154.210938 318.453125 155.058594 C 319.132812 155.996094 319.300781 157.867188 319.046875 158.972656 C 318.792969 159.820312 318.113281 160.671875 317.347656 161.097656 C 316.667969 161.605469 315.644531 161.949219 314.710938 161.777344 C 313.605469 161.605469 311.90625 160.671875 311.394531 159.652344 C 310.800781 158.632812 310.714844 156.761719 311.222656 155.65625 C 311.734375 154.632812 313.265625 153.527344 314.457031 153.359375 C 315.5625 153.1875 317.347656 153.953125 318.199219 154.632812 C 318.878906 155.316406 319.21875 156.335938 319.300781 157.183594 C 319.386719 158.035156 319.21875 159.054688 318.621094 159.820312 C 318.027344 160.671875 316.328125 161.691406 315.222656 161.777344 C 314.285156 161.863281 313.519531 161.605469 312.585938 161.011719 C 310.800781 159.90625 308.929688 156.675781 306.207031 154.210938 C 302.382812 150.722656 297.617188 145.960938 291.242188 142.644531 C 282.3125 137.882812 264.199219 133.207031 256.121094 131.503906 C 251.957031 130.65625 250.511719 130.824219 246.597656 130.570312 C 240.222656 130.316406 225.59375 131.84375 221.683594 130.65625 C 220.324219 130.230469 219.726562 129.71875 219.132812 128.867188 C 218.621094 128.105469 218.367188 126.914062 218.453125 125.976562 C 218.539062 125.042969 219.132812 123.9375 219.8125 123.34375 C 220.578125 122.660156 222.703125 122.238281 222.703125 122.238281 "/></clipPath><clipPath id="73edff2747"><path d="M 306 147.035156 L 334.246094 147.035156 L 334.246094 245.292969 L 306 245.292969 Z M 306 147.035156 "/></clipPath><clipPath id="f97f31adc7"><path d="M 314.117188 149.445312 C 325.253906 165.347656 326.699219 169.515625 328.402344 174.191406 C 330.355469 179.550781 332.738281 186.777344 333.589844 191.792969 C 334.183594 195.28125 334.011719 197.578125 334.097656 200.976562 C 334.097656 205.058594 334.269531 209.90625 333.503906 214.753906 C 332.652344 220.367188 329.847656 228.953125 328.488281 232.78125 C 327.804688 234.652344 327.550781 235.332031 326.617188 236.863281 C 325.171875 239.242188 321.9375 244.769531 319.898438 245.195312 C 318.621094 245.449219 317.007812 244.34375 316.328125 243.410156 C 315.644531 242.472656 315.476562 240.519531 315.816406 239.5 C 316.070312 238.5625 316.667969 237.796875 317.515625 237.371094 C 318.453125 236.863281 320.40625 236.605469 321.429688 237.03125 C 322.535156 237.457031 323.722656 238.988281 323.980469 240.179688 C 324.148438 241.285156 323.640625 243.15625 322.789062 243.921875 C 321.9375 244.769531 320.152344 245.367188 318.960938 245.109375 C 317.855469 244.855469 316.328125 243.664062 315.902344 242.644531 C 315.390625 241.539062 315.5625 239.667969 316.15625 238.648438 C 316.835938 237.628906 319.644531 237.203125 319.644531 236.691406 C 319.644531 236.351562 318.113281 236.4375 317.855469 235.757812 C 317.347656 234.480469 320.40625 230.316406 321.511719 227.167969 C 322.789062 223.34375 324.320312 218.664062 325 214.242188 C 325.679688 209.738281 325.679688 204.632812 325.59375 200.550781 C 325.511719 197.238281 325.511719 194.941406 324.828125 191.453125 C 323.808594 186.523438 320.917969 178.699219 319.132812 173.9375 C 317.855469 170.535156 317.261719 168.496094 315.5625 165.519531 C 313.265625 161.4375 306.886719 155.230469 306.207031 152.253906 C 305.867188 151.0625 306.121094 150.128906 306.632812 149.277344 C 307.058594 148.511719 307.992188 147.660156 308.929688 147.320312 C 309.777344 147.066406 311.054688 147.066406 311.90625 147.40625 C 312.839844 147.746094 314.117188 149.445312 314.117188 149.445312 "/></clipPath><clipPath id="f7a41a84b9"><path d="M 88.230469 280.535156 L 202.683594 280.535156 L 202.683594 290.511719 L 88.230469 290.511719 Z M 88.230469 280.535156 "/></clipPath><clipPath id="d85ea4f32f"><path d="M 92.515625 280.570312 C 200.511719 282.101562 201.277344 282.441406 201.871094 283.375 C 202.550781 284.394531 202.636719 286.265625 202.382812 287.371094 C 202.039062 288.222656 201.277344 288.988281 200.59375 289.414062 C 199.828125 289.839844 198.808594 290.179688 197.960938 290.007812 C 196.855469 289.839844 195.238281 288.734375 194.644531 287.796875 C 194.132812 287.03125 194.046875 285.925781 194.21875 285.078125 C 194.300781 284.226562 194.726562 283.289062 195.492188 282.695312 C 196.34375 282.015625 198.214844 281.503906 199.320312 281.675781 C 200.171875 281.761719 201.105469 282.355469 201.617188 283.035156 C 202.210938 283.714844 202.636719 284.652344 202.636719 285.585938 C 202.636719 286.691406 201.785156 288.476562 200.933594 289.15625 C 200.253906 289.753906 199.574219 289.839844 198.382812 290.007812 C 195.832031 290.519531 192.261719 290.261719 186.308594 290.347656 C 169.8125 290.433594 101.699219 290.859375 92.515625 289.074219 C 90.816406 288.734375 90.390625 288.648438 89.710938 287.96875 C 88.945312 287.371094 88.433594 286.265625 88.265625 285.332031 C 88.179688 284.394531 88.433594 283.207031 89.03125 282.441406 C 89.710938 281.503906 92.515625 280.570312 92.515625 280.570312 "/></clipPath><clipPath id="74a5f42d61"><path d="M 187.109375 264.023438 L 300.78125 264.023438 L 300.78125 290.441406 L 187.109375 290.441406 Z M 187.109375 264.023438 "/></clipPath><clipPath id="9ce2f8c423"><path d="M 191.410156 281.675781 C 207.992188 281.421875 214.796875 280.230469 221.34375 279.890625 C 228.488281 279.550781 236.734375 280.230469 243.878906 279.890625 C 250.339844 279.550781 257.484375 279.039062 262.414062 278.1875 C 265.816406 277.507812 267.433594 277.167969 271.003906 275.894531 C 277.125 273.597656 290.988281 264.414062 295.664062 264.15625 C 297.449219 263.988281 298.640625 264.582031 299.488281 265.347656 C 300.171875 265.945312 300.59375 266.878906 300.679688 267.730469 C 300.679688 268.835938 300 270.707031 299.234375 271.472656 C 298.640625 272.152344 297.617188 272.492188 296.769531 272.578125 C 295.917969 272.578125 294.8125 272.40625 294.132812 271.894531 C 293.28125 271.214844 292.347656 269.515625 292.175781 268.410156 C 292.09375 267.472656 292.433594 266.453125 293.027344 265.773438 C 293.707031 264.921875 295.492188 264.074219 296.597656 264.074219 C 297.535156 263.988281 298.46875 264.5 299.148438 265.007812 C 299.828125 265.519531 300.425781 266.453125 300.59375 267.304688 C 300.765625 268.15625 300.679688 269.261719 300.339844 270.027344 C 300 270.789062 299.488281 271.300781 298.46875 271.980469 C 296.511719 273.597656 292.09375 275.808594 287.925781 277.761719 C 282.226562 280.484375 274.40625 284.3125 267.09375 286.097656 C 259.695312 287.882812 251.53125 287.96875 243.878906 288.394531 C 236.308594 288.734375 228.570312 288.050781 221.429688 288.394531 C 214.882812 288.734375 208.078125 289.921875 202.550781 290.179688 C 198.382812 290.347656 193.878906 290.605469 191.410156 290.179688 C 190.136719 289.921875 189.285156 289.753906 188.605469 289.074219 C 187.839844 288.476562 187.246094 287.371094 187.160156 286.4375 C 187.074219 285.5 187.246094 284.3125 187.925781 283.460938 C 188.605469 282.609375 191.410156 281.675781 191.410156 281.675781 "/></clipPath><clipPath id="53544690ec"><path d="M 288.253906 225.828125 L 329.402344 225.828125 L 329.402344 275 L 288.253906 275 Z M 288.253906 225.828125 "/></clipPath><clipPath id="31ae2d60f4"><path d="M 290.730469 266.878906 C 306.207031 254.632812 309.695312 250.128906 311.648438 247.578125 C 312.839844 246.132812 313.351562 245.621094 314.285156 244.003906 C 315.816406 241.199219 317.6875 234.738281 319.386719 231.503906 C 320.578125 229.378906 321.597656 227.339844 322.875 226.488281 C 323.722656 225.894531 324.660156 225.808594 325.511719 225.894531 C 326.359375 226.0625 327.382812 226.402344 327.976562 227.082031 C 328.742188 227.933594 329.335938 229.804688 329.25 230.910156 C 329.167969 231.761719 328.65625 232.695312 327.890625 233.289062 C 327.039062 233.972656 325.171875 234.566406 324.066406 234.3125 C 322.960938 234.054688 321.511719 232.695312 321.089844 231.675781 C 320.664062 230.824219 320.664062 229.804688 320.917969 228.953125 C 321.34375 227.933594 322.703125 226.488281 323.722656 226.0625 C 324.574219 225.722656 325.59375 225.808594 326.445312 226.148438 C 327.210938 226.402344 328.144531 227.082031 328.570312 227.761719 C 329.082031 228.527344 329.421875 229.125 329.25 230.398438 C 328.910156 234.140625 323.128906 245.875 319.558594 251.488281 C 316.75 255.824219 314.199219 258.546875 310.714844 262.03125 C 306.546875 266.027344 299.320312 271.980469 295.917969 273.765625 C 294.472656 274.617188 293.539062 275.042969 292.433594 274.957031 C 291.242188 274.789062 289.625 273.9375 288.945312 273 C 288.351562 271.980469 288.265625 270.109375 288.691406 269.003906 C 288.945312 268.070312 290.730469 266.878906 290.730469 266.878906 "/></clipPath><clipPath id="964e495af3"><path d="M 135.285156 163.429688 L 183.679688 163.429688 L 183.679688 242 L 135.285156 242 Z M 135.285156 163.429688 "/></clipPath><clipPath id="98de67ed55"><path d="M 172.449219 240.261719 C 139.117188 204.464844 137.585938 200.894531 136.480469 196.386719 C 135.460938 191.964844 135.035156 186.863281 136.140625 182.695312 C 137.246094 178.527344 140.304688 174.105469 142.941406 171.214844 C 145.066406 168.75 147.875 166.964844 150 165.6875 C 151.445312 164.921875 152.382812 164.5 153.996094 164.074219 C 156.378906 163.5625 160.035156 163.308594 162.925781 163.648438 C 165.902344 164.074219 169.386719 165.347656 171.597656 166.367188 C 173.214844 167.050781 173.980469 167.390625 175.339844 168.496094 C 177.636719 170.367188 182.738281 175.042969 183.503906 177.59375 C 183.84375 179.039062 183.332031 180.570312 182.738281 181.503906 C 182.226562 182.269531 181.292969 182.695312 180.441406 182.949219 C 179.59375 183.121094 178.570312 183.121094 177.722656 182.695312 C 176.785156 182.183594 175.425781 180.738281 175.253906 179.632812 C 175 178.445312 175.59375 176.65625 176.359375 175.808594 C 177.210938 174.957031 179.082031 174.53125 180.1875 174.617188 C 181.121094 174.703125 181.972656 175.296875 182.566406 175.976562 C 183.164062 176.574219 183.589844 177.59375 183.671875 178.445312 C 183.671875 179.292969 183.503906 180.398438 182.992188 181.078125 C 182.3125 182.015625 180.613281 182.949219 179.507812 183.035156 C 178.65625 183.207031 177.976562 182.867188 176.957031 182.269531 C 174.746094 180.996094 171.34375 175.808594 168.199219 174.105469 C 165.476562 172.660156 161.90625 172.152344 159.523438 172.066406 C 157.824219 171.980469 156.632812 172.066406 155.015625 172.746094 C 152.890625 173.683594 149.828125 176.148438 148.042969 178.359375 C 146.257812 180.570312 144.726562 183.375 144.300781 186.183594 C 143.792969 188.988281 144.386719 192.304688 145.152344 195.195312 C 145.917969 198.085938 146.597656 200.128906 148.894531 203.613281 C 153.996094 211.183594 177.550781 230.738281 179.761719 236.097656 C 180.355469 237.457031 180.1875 238.222656 179.847656 239.074219 C 179.59375 240.007812 178.742188 240.945312 177.976562 241.453125 C 177.125 241.878906 175.933594 242.132812 175 241.878906 C 174.066406 241.710938 172.449219 240.261719 172.449219 240.261719 "/></clipPath><clipPath id="2fe81ca1e0"><path d="M 174 163 L 222.511719 163 L 222.511719 243 L 174 243 Z M 174 163 "/></clipPath><clipPath id="9a0da038a0"><path d="M 175.851562 176.488281 C 180.699219 170.28125 181.71875 169.515625 183.25 168.578125 C 185.289062 167.132812 188.011719 165.179688 191.070312 164.242188 C 194.898438 163.222656 200.851562 162.710938 204.761719 163.394531 C 207.824219 163.988281 210.375 165.261719 212.671875 166.964844 C 214.964844 168.664062 216.921875 171.046875 218.453125 173.9375 C 220.238281 177.339844 221.683594 183.289062 222.109375 186.523438 C 222.363281 188.394531 222.363281 189.328125 222.109375 191.113281 C 221.769531 193.664062 221.003906 197.40625 219.898438 200.296875 C 218.707031 203.1875 217.433594 205.484375 215.304688 208.375 C 212.414062 212.457031 208.164062 217.132812 203.316406 221.980469 C 197.109375 228.273438 184.609375 240.179688 180.527344 242.304688 C 179.335938 242.898438 178.742188 242.984375 177.890625 242.984375 C 177.039062 242.898438 176.019531 242.558594 175.425781 241.878906 C 174.660156 241.027344 173.980469 239.242188 174.066406 238.136719 C 174.148438 237.203125 174.660156 236.265625 175.253906 235.671875 C 175.933594 235.078125 176.871094 234.566406 177.722656 234.480469 C 178.570312 234.394531 179.675781 234.480469 180.355469 234.992188 C 181.292969 235.671875 182.3125 237.289062 182.484375 238.394531 C 182.652344 239.328125 182.3125 240.261719 181.886719 241.027344 C 181.378906 241.710938 180.613281 242.472656 179.761719 242.730469 C 178.65625 242.984375 176.699219 242.730469 175.765625 242.132812 C 175 241.710938 174.40625 240.859375 174.234375 239.921875 C 173.980469 238.816406 174.066406 237.628906 175 236.011719 C 177.464844 231.761719 190.816406 222.320312 196.429688 216.792969 C 200.253906 212.96875 203.144531 209.90625 205.78125 206.675781 C 208.078125 203.953125 210.203125 201.65625 211.480469 198.851562 C 212.753906 196.046875 213.351562 192.472656 213.605469 190.007812 C 213.777344 188.308594 213.777344 187.289062 213.433594 185.671875 C 213.011719 183.289062 211.648438 179.378906 210.460938 177.253906 C 209.523438 175.722656 208.503906 174.617188 207.3125 173.683594 C 206.121094 172.746094 204.933594 172.066406 203.230469 171.726562 C 200.933594 171.300781 197.023438 171.386719 194.21875 172.238281 C 191.496094 173 188.859375 174.703125 186.648438 176.488281 C 184.355469 178.273438 182.144531 182.183594 180.527344 182.949219 C 179.675781 183.289062 179.167969 183.121094 178.488281 182.949219 C 177.636719 182.695312 176.53125 182.015625 175.933594 181.335938 C 175.425781 180.570312 175.171875 179.210938 175.171875 178.359375 C 175.171875 177.679688 175.851562 176.488281 175.851562 176.488281 "/></clipPath></defs><g id="71122e5075"><g clip-rule="nonzero" clip-path="url(#9f90194143)"><g clip-rule="nonzero" clip-path="url(#95cfd92d6e)"><path style=" stroke:none;fill-rule:nonzero;fill:currentColor;fill-opacity:1;" d="M 64.03125 253.019531 L 108.132812 253.019531 L 108.132812 292.21875 L 64.03125 292.21875 Z M 64.03125 253.019531 "/></g></g><g clip-rule="nonzero" clip-path="url(#3b542c582e)"><g clip-rule="nonzero" clip-path="url(#feed394397)"><path style=" stroke:none;fill-rule:nonzero;fill:currentColor;fill-opacity:1;" d="M 90.304688 246.214844 L 273.492188 246.214844 L 273.492188 268.410156 L 90.304688 268.410156 Z M 90.304688 246.214844 "/></g></g><g clip-rule="nonzero" clip-path="url(#73c2547cad)"><g clip-rule="nonzero" clip-path="url(#5f676b8670)"><path style=" stroke:none;fill-rule:nonzero;fill:currentColor;fill-opacity:1;" d="M 255.101562 174.703125 L 310.714844 174.703125 L 310.714844 261.160156 L 255.101562 261.160156 Z M 255.101562 174.703125 "/></g></g><g clip-rule="nonzero" clip-path="url(#49254b1740)"><g clip-rule="nonzero" clip-path="url(#bc7cc1e100)"><path style=" stroke:none;fill-rule:nonzero;fill:currentColor;fill-opacity:1;" d="M 160.035156 143.578125 L 309.007812 143.578125 L 309.007812 194.429688 L 160.035156 194.429688 Z M 160.035156 143.578125 "/></g></g><g clip-rule="nonzero" clip-path="url(#f08653244d)"><g clip-rule="nonzero" clip-path="url(#a8bc25cdc7)"><path style=" stroke:none;fill-rule:nonzero;fill:currentColor;fill-opacity:1;" d="M 75 144.855469 L 181.222656 144.855469 L 181.222656 161.777344 L 75 161.777344 Z M 75 144.855469 "/></g></g><g clip-rule="nonzero" clip-path="url(#29857a0010)"><g clip-rule="nonzero" clip-path="url(#7f6ff067e0)"><path style=" stroke:none;fill-rule:nonzero;fill:currentColor;fill-opacity:1;" d="M 58.84375 144.941406 L 109.917969 144.941406 L 109.917969 195.621094 L 58.84375 195.621094 Z M 58.84375 144.941406 "/></g></g><g clip-rule="nonzero" clip-path="url(#86b6e6be5e)"><g clip-rule="nonzero" clip-path="url(#0d5e3224c0)"><path style=" stroke:none;fill-rule:nonzero;fill:currentColor;fill-opacity:1;" d="M 37.5 100.808594 L 78.65625 100.808594 L 78.65625 174.921875 L 37.5 174.921875 Z M 37.5 100.808594 "/></g></g><g clip-rule="nonzero" clip-path="url(#0cbc7e337a)"><g clip-rule="nonzero" clip-path="url(#eb79828191)"><path style=" stroke:none;fill-rule:nonzero;fill:currentColor;fill-opacity:1;" d="M 61.90625 81.25 L 111.625 81.25 L 111.625 120.535156 L 61.90625 120.535156 Z M 61.90625 81.25 "/></g></g><g clip-rule="nonzero" clip-path="url(#c81d66ea61)"><g clip-rule="nonzero" clip-path="url(#ffe483efc3)"><path style=" stroke:none;fill-rule:nonzero;fill:currentColor;fill-opacity:1;" d="M 72.875 102.933594 L 163.675781 102.933594 L 163.675781 137.628906 L 72.875 137.628906 Z M 72.875 102.933594 "/></g></g><g clip-rule="nonzero" clip-path="url(#42a212d789)"><g clip-rule="nonzero" clip-path="url(#9d8348522c)"><path style=" stroke:none;fill-rule:nonzero;fill:currentColor;fill-opacity:1;" d="M 139.117188 118.664062 L 234.777344 118.664062 L 234.777344 134.992188 L 139.117188 134.992188 Z M 139.117188 118.664062 "/></g></g><g clip-rule="nonzero" clip-path="url(#885b77e3eb)"><g clip-rule="nonzero" clip-path="url(#7a991d2b00)"><path style=" stroke:none;fill-rule:nonzero;fill:currentColor;fill-opacity:1;" d="M 215.050781 118.835938 L 322.78125 118.835938 L 322.78125 165.261719 L 215.050781 165.261719 Z M 215.050781 118.835938 "/></g></g><g clip-rule="nonzero" clip-path="url(#73edff2747)"><g clip-rule="nonzero" clip-path="url(#f97f31adc7)"><path style=" stroke:none;fill-rule:nonzero;fill:currentColor;fill-opacity:1;" d="M 302.804688 143.921875 L 337.5 143.921875 L 337.5 248.542969 L 302.804688 248.542969 Z M 302.804688 143.921875 "/></g></g><g clip-rule="nonzero" clip-path="url(#f7a41a84b9)"><g clip-rule="nonzero" clip-path="url(#d85ea4f32f)"><path style=" stroke:none;fill-rule:nonzero;fill:currentColor;fill-opacity:1;" d="M 84.863281 277.167969 L 206.050781 277.167969 L 206.050781 293.75 L 84.863281 293.75 Z M 84.863281 277.167969 "/></g></g><g clip-rule="nonzero" clip-path="url(#74a5f42d61)"><g clip-rule="nonzero" clip-path="url(#9ce2f8c423)"><path style=" stroke:none;fill-rule:nonzero;fill:currentColor;fill-opacity:1;" d="M 183.757812 260.671875 L 304.132812 260.671875 L 304.132812 293.664062 L 183.757812 293.664062 Z M 183.757812 260.671875 "/></g></g><g clip-rule="nonzero" clip-path="url(#53544690ec)"><g clip-rule="nonzero" clip-path="url(#31ae2d60f4)"><path style=" stroke:none;fill-rule:nonzero;fill:currentColor;fill-opacity:1;" d="M 285.289062 222.492188 L 332.738281 222.492188 L 332.738281 278.28125 L 285.289062 278.28125 Z M 285.289062 222.492188 "/></g></g><g clip-rule="nonzero" clip-path="url(#964e495af3)"><g clip-rule="nonzero" clip-path="url(#98de67ed55)"><path style=" stroke:none;fill-rule:nonzero;fill:currentColor;fill-opacity:1;" d="M 132.738281 160.246094 L 187.074219 160.246094 L 187.074219 245.359375 L 132.738281 245.359375 Z M 132.738281 160.246094 "/></g></g><g clip-rule="nonzero" clip-path="url(#2fe81ca1e0)"><g clip-rule="nonzero" clip-path="url(#9a0da038a0)"><path style=" stroke:none;fill-rule:nonzero;fill:currentColor;fill-opacity:1;" d="M 170.664062 159.992188 L 225.511719 159.992188 L 225.511719 246.332031 L 170.664062 246.332031 Z M 170.664062 159.992188 "/></g></g></g></svg>