<svg xmlns="http://www.w3.org/2000/svg" xmlns:xlink="http://www.w3.org/1999/xlink" width="500" zoomAndPan="magnify" viewBox="0 0 375 374.999991" height="500" preserveAspectRatio="xMidYMid meet" version="1.2"><defs><clipPath id="0ca6ddb4bb"><path d="M 54.734375 160.699219 L 76.761719 160.699219 L 76.761719 179.78125 L 54.734375 179.78125 Z M 54.734375 160.699219 "/></clipPath><clipPath id="23fe3d468d"><path d="M 70.53125 179.765625 C 60.230469 178.921875 58.597656 177.832031 57.457031 176.992188 C 56.664062 176.398438 56.121094 175.851562 55.722656 175.109375 C 55.277344 174.414062 55.03125 173.625 54.929688 172.78125 C 54.78125 171.792969 54.734375 170.75 55.03125 169.613281 C 55.378906 168.226562 56.515625 166.195312 57.359375 165.105469 C 57.953125 164.3125 58.347656 163.816406 59.339844 163.273438 C 60.972656 162.382812 64.292969 161.390625 66.816406 160.996094 C 69.292969 160.648438 72.710938 160.648438 74.246094 160.894531 C 74.9375 161.046875 75.335938 161.09375 75.730469 161.390625 C 76.125 161.738281 76.472656 162.234375 76.621094 162.730469 C 76.769531 163.222656 76.722656 163.816406 76.523438 164.3125 C 76.375 164.757812 75.929688 165.253906 75.53125 165.5 C 75.085938 165.75 74.492188 165.949219 73.949219 165.847656 C 73.351562 165.75 72.363281 165.15625 72.066406 164.5625 C 71.71875 163.964844 71.816406 162.828125 72.066406 162.234375 C 72.265625 161.738281 72.757812 161.34375 73.203125 161.144531 C 73.652344 160.945312 74.292969 160.847656 74.789062 160.945312 C 75.234375 161.09375 75.828125 161.34375 76.125 161.789062 C 76.523438 162.28125 76.722656 163.421875 76.621094 164.066406 C 76.523438 164.5625 76.125 165.054688 75.730469 165.351562 C 75.335938 165.652344 74.9375 165.75 74.246094 165.847656 C 72.710938 166.144531 68.5 165.75 66.667969 165.996094 C 65.527344 166.144531 64.835938 166.394531 63.992188 166.738281 C 63.101562 167.085938 62.011719 167.433594 61.371094 168.027344 C 60.726562 168.621094 60.328125 169.414062 60.082031 170.207031 C 59.835938 170.949219 59.636719 172.089844 59.984375 172.730469 C 60.328125 173.375 61.371094 173.722656 62.113281 174.070312 C 62.90625 174.414062 63.648438 174.664062 64.6875 174.8125 C 66.320312 175.058594 69.9375 174.5625 71.125 174.863281 C 71.667969 175.011719 71.917969 175.160156 72.214844 175.40625 C 72.460938 175.703125 72.757812 176 72.859375 176.398438 C 73.007812 176.890625 73.007812 177.683594 72.859375 178.179688 C 72.757812 178.574219 72.511719 178.871094 72.214844 179.121094 C 71.769531 179.417969 70.53125 179.765625 70.53125 179.765625 "/></clipPath><clipPath id="97e071a2c4"><path d="M 70.222656 156.921875 L 172.964844 156.921875 L 172.964844 166.113281 L 70.222656 166.113281 Z M 70.222656 156.921875 "/></clipPath><clipPath id="64c3d148c9"><path d="M 72.710938 160.894531 C 109.851562 159.90625 130.5 158.371094 142.285156 158.074219 C 149.765625 157.824219 155.609375 158.273438 160.757812 157.972656 C 164.472656 157.777344 168.433594 156.835938 170.265625 156.933594 C 171.007812 156.984375 171.355469 157.035156 171.800781 157.332031 C 172.296875 157.726562 172.839844 158.71875 172.941406 159.359375 C 172.992188 159.90625 172.742188 160.449219 172.445312 160.894531 C 172.148438 161.292969 171.703125 161.6875 171.15625 161.789062 C 170.5625 161.9375 169.425781 161.789062 168.878906 161.34375 C 168.386719 160.894531 167.988281 159.855469 167.988281 159.210938 C 167.988281 158.667969 168.285156 158.125 168.632812 157.777344 C 168.980469 157.378906 169.523438 157.082031 170.019531 156.984375 C 170.515625 156.886719 171.109375 156.984375 171.554688 157.183594 C 172 157.429688 172.445312 157.875 172.691406 158.320312 C 172.890625 158.765625 173.039062 159.410156 172.890625 159.90625 C 172.691406 160.5 172.296875 161.242188 171.40625 161.6875 C 169.523438 162.730469 164.226562 162.730469 160.113281 162.976562 C 155.210938 163.222656 150.804688 162.777344 144.019531 162.976562 C 132.480469 163.273438 110.199219 164.859375 97.074219 165.351562 C 87.664062 165.699219 76.027344 166.441406 72.710938 165.847656 C 71.816406 165.699219 71.472656 165.601562 71.074219 165.253906 C 70.628906 164.859375 70.332031 164.214844 70.234375 163.667969 C 70.183594 163.125 70.332031 162.429688 70.679688 161.984375 C 71.074219 161.492188 72.710938 160.894531 72.710938 160.894531 "/></clipPath><clipPath id="e9fb4e42b2"><path d="M 166 115.203125 L 194.714844 115.203125 L 194.714844 161.632812 L 166 161.632812 Z M 166 115.203125 "/></clipPath><clipPath id="cc18cb8f48"><path d="M 167.9375 156.785156 C 175.464844 152.921875 177.84375 151.535156 179.875 149.902344 C 181.902344 148.21875 184.480469 145.742188 185.617188 144.257812 C 186.261719 143.367188 186.410156 142.921875 186.855469 142.027344 C 187.449219 140.742188 188.191406 138.859375 188.640625 137.175781 C 189.132812 135.492188 189.332031 133.808594 189.53125 131.828125 C 189.726562 129.449219 189.925781 126.332031 189.53125 123.902344 C 189.183594 121.675781 187.449219 119.101562 187.5 117.714844 C 187.5 117.070312 187.699219 116.625 187.996094 116.226562 C 188.34375 115.832031 188.835938 115.484375 189.332031 115.386719 C 189.828125 115.238281 190.472656 115.289062 190.917969 115.484375 C 191.363281 115.683594 191.859375 116.03125 192.105469 116.523438 C 192.402344 117.070312 192.5 118.207031 192.203125 118.851562 C 191.90625 119.445312 190.964844 120.042969 190.324219 120.191406 C 189.828125 120.339844 189.183594 120.191406 188.789062 119.941406 C 188.34375 119.695312 187.894531 119.199219 187.699219 118.753906 C 187.5 118.308594 187.449219 117.664062 187.550781 117.167969 C 187.648438 116.722656 187.996094 116.179688 188.390625 115.832031 C 188.789062 115.535156 189.382812 115.289062 189.878906 115.289062 C 190.371094 115.289062 190.964844 115.4375 191.363281 115.734375 C 191.808594 116.03125 192.007812 116.375 192.304688 117.019531 C 192.949219 118.207031 194.035156 121.328125 194.382812 122.914062 C 194.632812 123.953125 194.582031 124.449219 194.632812 125.4375 C 194.679688 126.875 194.78125 128.757812 194.632812 130.6875 C 194.433594 133.015625 194.085938 136.035156 193.394531 138.5625 C 192.75 141.085938 192.007812 143.515625 190.519531 145.84375 C 188.835938 148.464844 186.3125 150.992188 183.539062 153.269531 C 180.367188 155.84375 175.070312 159.015625 172.445312 160.351562 C 171.058594 161.042969 170.167969 161.539062 169.128906 161.589844 C 168.335938 161.640625 167.394531 161.390625 166.898438 161.042969 C 166.550781 160.847656 166.355469 160.5 166.253906 160.105469 C 166.058594 159.609375 166.007812 158.867188 166.207031 158.320312 C 166.503906 157.726562 167.9375 156.785156 167.9375 156.785156 "/></clipPath><clipPath id="2143ef588c"><path d="M 110.710938 97.03125 L 193.652344 97.03125 L 193.652344 122.828125 L 110.710938 122.828125 Z M 110.710938 97.03125 "/></clipPath><clipPath id="95daaa8e64"><path d="M 188.738281 121.082031 C 184.925781 113.753906 183.933594 112.664062 182.546875 111.472656 C 180.816406 110.039062 178.140625 108.355469 176.0625 107.414062 C 174.328125 106.621094 173.1875 106.472656 171.007812 105.976562 C 167.34375 105.183594 160.511719 103.945312 155.855469 103.5 C 152.042969 103.15625 148.824219 103.5 145.257812 103.304688 C 141.691406 103.054688 138.769531 102.410156 134.5625 102.214844 C 128.570312 101.964844 115.941406 103.648438 112.773438 102.511719 C 111.734375 102.164062 111.238281 101.71875 110.988281 101.074219 C 110.691406 100.429688 110.890625 99.339844 111.1875 98.746094 C 111.433594 98.300781 111.882812 97.90625 112.425781 97.757812 C 113.019531 97.609375 114.160156 97.707031 114.703125 98.101562 C 115.25 98.5 115.695312 99.539062 115.742188 100.183594 C 115.742188 100.726562 115.546875 101.273438 115.148438 101.667969 C 114.753906 102.113281 113.664062 102.558594 113.019531 102.558594 C 112.523438 102.558594 111.980469 102.261719 111.582031 101.917969 C 111.238281 101.621094 110.890625 101.023438 110.839844 100.53125 C 110.742188 100.085938 110.792969 99.441406 111.039062 98.996094 C 111.238281 98.550781 111.632812 98.152344 112.179688 97.855469 C 112.871094 97.507812 113.8125 97.410156 115.25 97.261719 C 118.46875 96.964844 125.152344 97.015625 131.144531 97.164062 C 138.820312 97.359375 149.8125 97.804688 157.539062 98.746094 C 163.628906 99.441406 169.871094 100.578125 173.734375 101.570312 C 175.910156 102.113281 177.199219 102.558594 178.832031 103.253906 C 180.417969 103.945312 181.753906 104.589844 183.289062 105.679688 C 185.171875 107.066406 187.5 109.195312 189.035156 111.078125 C 190.421875 112.710938 191.460938 114.496094 192.253906 116.128906 C 192.898438 117.515625 193.542969 119.148438 193.542969 120.191406 C 193.589844 120.882812 193.394531 121.476562 193.046875 121.875 C 192.699219 122.320312 192.054688 122.664062 191.511719 122.765625 C 190.964844 122.863281 190.273438 122.765625 189.777344 122.46875 C 189.332031 122.171875 188.738281 121.082031 188.738281 121.082031 "/></clipPath><clipPath id="45730e9d52"><path d="M 61.300781 97.695312 L 119.199219 97.695312 L 119.199219 103.777344 L 61.300781 103.777344 Z M 61.300781 97.695312 "/></clipPath><clipPath id="8f16b1e93f"><path d="M 116.734375 102.957031 C 88.753906 103.105469 82.265625 103.796875 76.671875 103.75 C 72.015625 103.699219 66.074219 103.304688 63.894531 102.90625 C 63.101562 102.757812 62.757812 102.808594 62.359375 102.460938 C 61.863281 102.066406 61.371094 101.023438 61.320312 100.382812 C 61.269531 99.886719 61.46875 99.292969 61.863281 98.894531 C 62.261719 98.449219 63.300781 97.90625 63.945312 97.953125 C 64.636719 98.003906 65.578125 98.648438 65.925781 99.191406 C 66.222656 99.636719 66.371094 100.234375 66.273438 100.726562 C 66.125 101.371094 65.480469 102.3125 64.933594 102.660156 C 64.488281 102.90625 63.84375 103.007812 63.351562 102.859375 C 62.757812 102.707031 61.816406 102.066406 61.519531 101.421875 C 61.269531 100.828125 61.417969 99.6875 61.714844 99.144531 C 61.914062 98.648438 62.359375 98.351562 62.90625 98.101562 C 63.695312 97.804688 64.738281 97.855469 66.125 97.90625 C 68.597656 97.90625 72.660156 98.699219 76.671875 98.796875 C 81.96875 98.894531 88.753906 98.152344 95.144531 98.003906 C 102.074219 97.855469 113.613281 97.410156 116.734375 98.003906 C 117.625 98.152344 117.972656 98.253906 118.367188 98.597656 C 118.765625 98.996094 119.109375 99.636719 119.160156 100.183594 C 119.257812 100.726562 119.109375 101.421875 118.765625 101.867188 C 118.367188 102.410156 116.734375 102.957031 116.734375 102.957031 "/></clipPath><clipPath id="3116f53237"><path d="M 51.773438 97.933594 L 77.945312 97.933594 L 77.945312 123.644531 L 51.773438 123.644531 Z M 51.773438 97.933594 "/></clipPath><clipPath id="698ffce4cc"><path d="M 65.628906 98.746094 C 73.503906 107.265625 75.679688 109.34375 76.671875 111.769531 C 77.613281 114.097656 78.15625 117.515625 77.710938 119.296875 C 77.464844 120.488281 76.671875 121.28125 75.929688 121.972656 C 75.234375 122.566406 74.492188 122.964844 73.503906 123.210938 C 72.164062 123.558594 69.789062 123.753906 68.449219 123.507812 C 67.511719 123.308594 66.964844 123.011719 66.074219 122.515625 C 64.835938 121.773438 63.300781 120.585938 61.816406 119.296875 C 60.03125 117.761719 57.851562 115.585938 56.121094 113.652344 C 54.535156 111.871094 52.207031 109.691406 51.910156 108.253906 C 51.761719 107.363281 52.109375 106.523438 52.605469 106.027344 C 53.097656 105.53125 54.140625 105.234375 54.832031 105.332031 C 55.527344 105.480469 56.367188 106.175781 56.613281 106.820312 C 56.914062 107.414062 56.8125 108.550781 56.417969 109.097656 C 56.070312 109.691406 55.03125 110.1875 54.4375 110.234375 C 53.890625 110.285156 53.296875 110.085938 52.902344 109.789062 C 52.503906 109.492188 52.109375 108.949219 52.007812 108.503906 C 51.859375 108.007812 51.859375 107.363281 52.058594 106.917969 C 52.207031 106.421875 52.554688 105.925781 53.050781 105.679688 C 53.59375 105.382812 54.386719 105.136719 55.328125 105.480469 C 57.753906 106.421875 62.855469 114.097656 65.828125 116.226562 C 67.558594 117.515625 69.195312 118.507812 70.480469 118.554688 C 71.371094 118.554688 72.414062 118.160156 72.757812 117.566406 C 73.105469 116.972656 72.710938 115.882812 72.460938 115.089844 C 72.265625 114.199219 72.066406 113.605469 71.371094 112.5625 C 69.789062 110.039062 62.160156 103.007812 61.417969 101.074219 C 61.171875 100.53125 61.269531 100.28125 61.371094 99.886719 C 61.519531 99.390625 61.914062 98.746094 62.359375 98.449219 C 62.804688 98.101562 63.5 97.90625 64.042969 97.953125 C 64.589844 98.003906 65.628906 98.746094 65.628906 98.746094 "/></clipPath><clipPath id="7bc1372aa2"><path d="M 39.371094 72.144531 L 59.597656 72.144531 L 59.597656 111.5625 L 39.371094 111.5625 Z M 39.371094 72.144531 "/></clipPath><clipPath id="5704355bc4"><path d="M 54.089844 110.832031 C 40.667969 97.460938 39.976562 95.925781 39.628906 94.585938 C 39.382812 93.644531 39.332031 93.050781 39.480469 92.0625 C 39.726562 90.675781 40.324219 88.84375 41.363281 87.109375 C 42.847656 84.585938 45.769531 81.414062 48.34375 78.9375 C 50.871094 76.460938 54.929688 72.699219 56.714844 72.253906 C 57.359375 72.054688 57.804688 72.304688 58.25 72.5 C 58.695312 72.75 59.140625 73.242188 59.339844 73.6875 C 59.535156 74.136719 59.585938 74.777344 59.488281 75.273438 C 59.386719 75.71875 59.089844 76.3125 58.644531 76.609375 C 58.148438 76.957031 57.011719 77.207031 56.367188 77.058594 C 55.871094 76.957031 55.378906 76.5625 55.078125 76.164062 C 54.78125 75.769531 54.585938 75.175781 54.585938 74.679688 C 54.585938 74.183594 54.832031 73.589844 55.128906 73.195312 C 55.425781 72.796875 55.921875 72.402344 56.417969 72.304688 C 57.0625 72.203125 58.199219 72.453125 58.695312 72.847656 C 59.140625 73.144531 59.4375 73.640625 59.488281 74.183594 C 59.585938 74.828125 59.386719 75.570312 58.84375 76.414062 C 57.804688 78.097656 53.84375 80.472656 51.710938 82.554688 C 49.78125 84.433594 47.75 86.367188 46.511719 88.296875 C 45.523438 89.832031 44.484375 91.566406 44.433594 92.902344 C 44.433594 93.84375 44.929688 94.585938 45.324219 95.378906 C 45.71875 96.121094 46.066406 96.566406 46.910156 97.460938 C 48.839844 99.636719 56.515625 105.480469 57.753906 107.5625 C 58.199219 108.304688 58.25 108.75 58.199219 109.296875 C 58.101562 109.839844 57.804688 110.484375 57.359375 110.832031 C 56.960938 111.226562 56.269531 111.472656 55.722656 111.472656 C 55.179688 111.472656 54.089844 110.832031 54.089844 110.832031 "/></clipPath><clipPath id="c06059c01b"><path d="M 53.589844 60.757812 L 78.703125 60.757812 L 78.703125 79.796875 L 53.589844 79.796875 Z M 53.589844 60.757812 "/></clipPath><clipPath id="abc3061a39"><path d="M 54.484375 73.539062 C 63.003906 65.371094 65.378906 63.191406 67.113281 62.199219 C 68.105469 61.558594 68.898438 61.308594 69.789062 61.109375 C 70.628906 60.914062 71.472656 60.765625 72.3125 60.863281 C 73.203125 60.960938 74.246094 61.308594 75.039062 61.753906 C 75.78125 62.152344 76.472656 62.695312 77.019531 63.390625 C 77.613281 64.132812 78.207031 65.171875 78.453125 66.113281 C 78.703125 66.90625 78.703125 67.648438 78.601562 68.589844 C 78.40625 69.976562 78.007812 71.90625 77.117188 73.492188 C 75.976562 75.421875 73.351562 78.292969 71.867188 79.136719 C 71.027344 79.632812 70.234375 79.78125 69.589844 79.679688 C 69.09375 79.582031 68.597656 79.1875 68.253906 78.789062 C 67.957031 78.394531 67.707031 77.800781 67.757812 77.304688 C 67.808594 76.660156 68.253906 75.621094 68.847656 75.222656 C 69.390625 74.828125 70.480469 74.730469 71.125 74.976562 C 71.769531 75.222656 72.460938 76.117188 72.660156 76.710938 C 72.808594 77.207031 72.710938 77.847656 72.511719 78.292969 C 72.265625 78.742188 71.867188 79.234375 71.421875 79.433594 C 70.976562 79.679688 70.332031 79.78125 69.835938 79.730469 C 69.34375 79.632812 68.796875 79.335938 68.449219 78.988281 C 68.105469 78.640625 67.855469 78.046875 67.757812 77.550781 C 67.707031 77.058594 67.808594 76.609375 68.105469 76.015625 C 68.796875 74.679688 72.265625 72.105469 73.054688 70.570312 C 73.550781 69.679688 73.699219 68.933594 73.652344 68.144531 C 73.601562 67.351562 73.203125 66.113281 72.660156 65.816406 C 72.066406 65.46875 71.175781 65.617188 70.132812 66.113281 C 67.363281 67.351562 59.6875 76.460938 57.308594 77.550781 C 56.515625 77.898438 56.070312 77.898438 55.527344 77.800781 C 55.03125 77.652344 54.4375 77.253906 54.089844 76.808594 C 53.792969 76.3125 53.59375 75.621094 53.695312 75.074219 C 53.742188 74.53125 54.484375 73.539062 54.484375 73.539062 "/></clipPath><clipPath id="83d95f77aa"><path d="M 60 73.40625 L 109.085938 73.40625 L 109.085938 89.980469 L 60 89.980469 Z M 60 73.40625 "/></clipPath><clipPath id="833282e664"><path d="M 73.699219 77.996094 C 66.914062 83.496094 65.976562 86.316406 64.984375 86.367188 C 64.292969 86.367188 62.804688 84.683594 63.054688 84.238281 C 63.597656 83 74.839844 84.832031 81.128906 84.734375 C 87.960938 84.632812 99.699219 82.109375 102.570312 83.445312 C 103.5625 83.890625 103.5625 85.425781 104.054688 85.375 C 104.503906 85.375 104.800781 83.839844 105.34375 83.496094 C 105.789062 83.199219 106.433594 83.097656 106.929688 83.246094 C 107.574219 83.394531 108.464844 84.089844 108.761719 84.632812 C 109.007812 85.128906 109.058594 85.722656 108.910156 86.21875 C 108.8125 86.714844 108.5625 87.257812 108.117188 87.554688 C 107.574219 87.953125 106.484375 88.25 105.839844 88.050781 C 105.195312 87.851562 104.355469 87.109375 104.15625 86.464844 C 103.957031 85.820312 104.15625 84.734375 104.550781 84.1875 C 104.949219 83.644531 106.039062 83.199219 106.679688 83.199219 C 107.175781 83.199219 107.769531 83.394531 108.117188 83.792969 C 108.5625 84.238281 109.207031 85.328125 108.960938 85.96875 C 108.613281 86.910156 106.53125 87.753906 104.253906 88.347656 C 99.300781 89.683594 87.019531 89.683594 79.445312 89.683594 C 73.007812 89.734375 64.242188 90.625 61.617188 88.890625 C 60.476562 88.199219 60.132812 86.863281 60.082031 85.871094 C 59.984375 85.03125 60.378906 84.335938 60.824219 83.496094 C 61.46875 82.257812 62.457031 80.820312 63.84375 79.433594 C 65.828125 77.503906 70.480469 73.886719 72.015625 73.492188 C 72.5625 73.390625 72.859375 73.492188 73.203125 73.640625 C 73.652344 73.886719 74.292969 74.332031 74.542969 74.828125 C 74.789062 75.324219 74.839844 76.066406 74.738281 76.5625 C 74.589844 77.105469 73.699219 77.996094 73.699219 77.996094 "/></clipPath><clipPath id="2c56a2631e"><path d="M 98.609375 82.601562 L 150.382812 82.601562 L 150.382812 88.730469 L 98.609375 88.730469 Z M 98.609375 82.601562 "/></clipPath><clipPath id="ab072682a2"><path d="M 101.085938 83.199219 C 148.824219 82.800781 149.121094 82.851562 149.515625 83.246094 C 150.011719 83.742188 150.410156 84.78125 150.359375 85.425781 C 150.308594 85.96875 149.964844 86.613281 149.515625 86.960938 C 149.121094 87.355469 148.476562 87.703125 147.882812 87.605469 C 147.089844 87.40625 145.605469 85.921875 145.40625 85.128906 C 145.308594 84.585938 145.554688 84.039062 145.902344 83.644531 C 146.347656 83.148438 147.386719 82.652344 148.03125 82.652344 C 148.578125 82.652344 149.121094 82.851562 149.515625 83.246094 C 149.964844 83.691406 150.359375 84.734375 150.359375 85.375 C 150.359375 85.921875 150.011719 86.464844 149.664062 86.8125 C 149.367188 87.207031 148.824219 87.503906 148.277344 87.554688 C 147.636719 87.605469 146.59375 87.257812 146.101562 86.8125 C 145.703125 86.464844 145.507812 85.871094 145.40625 85.375 C 145.355469 84.882812 145.457031 84.285156 145.753906 83.839844 C 146.148438 83.347656 147.140625 82.75 147.734375 82.652344 C 148.277344 82.554688 148.875 82.800781 149.269531 83.050781 C 149.714844 83.347656 150.308594 84.285156 150.261719 84.335938 C 150.160156 84.433594 147.832031 82.75 147.882812 82.652344 C 147.933594 82.554688 149.121094 82.898438 149.515625 83.246094 C 149.964844 83.644531 150.261719 84.285156 150.359375 84.832031 C 150.410156 85.375 150.261719 86.070312 149.914062 86.515625 C 149.515625 87.058594 149.070312 87.308594 147.882812 87.605469 C 142.585938 88.941406 105.988281 89.039062 101.085938 88.148438 C 100.144531 88 99.847656 87.902344 99.449219 87.503906 C 99.054688 87.160156 98.707031 86.515625 98.660156 85.96875 C 98.558594 85.425781 98.707031 84.734375 99.054688 84.285156 C 99.449219 83.742188 101.085938 83.199219 101.085938 83.199219 "/></clipPath><clipPath id="036e46636a"><path d="M 142.800781 82.671875 L 201.632812 82.671875 L 201.632812 105.910156 L 142.800781 105.910156 Z M 142.800781 82.671875 "/></clipPath><clipPath id="6855be323d"><path d="M 145.355469 82.75 C 163.976562 82.898438 164.71875 83.050781 166.851562 83.542969 C 170.664062 84.386719 178.683594 86.8125 182.398438 88.148438 C 184.578125 88.941406 185.617188 89.238281 187.5 90.277344 C 190.125 91.765625 194.335938 94.585938 196.414062 96.667969 C 197.851562 98.101562 198.542969 99.984375 199.484375 100.875 C 200.078125 101.371094 200.773438 101.371094 201.117188 101.867188 C 201.515625 102.410156 201.613281 103.5 201.464844 104.144531 C 201.316406 104.640625 200.921875 105.136719 200.476562 105.382812 C 200.078125 105.679688 199.484375 105.878906 198.941406 105.777344 C 198.296875 105.679688 197.304688 105.136719 197.007812 104.542969 C 196.660156 103.945312 196.613281 102.859375 196.910156 102.214844 C 197.207031 101.621094 198.097656 100.976562 198.789062 100.875 C 199.433594 100.777344 200.476562 101.222656 200.96875 101.621094 C 201.367188 102.015625 201.5625 102.609375 201.613281 103.105469 C 201.664062 103.601562 201.5625 104.195312 201.21875 104.640625 C 200.871094 105.136719 199.878906 105.730469 199.238281 105.777344 C 198.691406 105.828125 198.246094 105.679688 197.703125 105.332031 C 196.660156 104.691406 195.570312 102.808594 193.988281 101.371094 C 191.757812 99.339844 188.984375 96.566406 185.273438 94.636719 C 180.070312 91.863281 169.523438 89.140625 164.820312 88.148438 C 162.394531 87.65625 161.550781 87.753906 159.273438 87.605469 C 155.558594 87.457031 147.042969 88.347656 144.761719 87.65625 C 143.972656 87.40625 143.625 87.109375 143.277344 86.613281 C 142.980469 86.167969 142.832031 85.476562 142.882812 84.929688 C 142.929688 84.386719 143.277344 83.742188 143.671875 83.394531 C 144.121094 83 145.355469 82.75 145.355469 82.75 "/></clipPath><clipPath id="096721c02b"><path d="M 193.820312 97.195312 L 210.316406 97.195312 L 210.316406 154.414062 L 193.820312 154.414062 Z M 193.820312 97.195312 "/></clipPath><clipPath id="45dcaf9159"><path d="M 198.59375 98.597656 C 205.082031 107.859375 205.921875 110.285156 206.914062 113.007812 C 208.050781 116.128906 209.4375 120.339844 209.933594 123.261719 C 210.28125 125.289062 210.179688 126.628906 210.230469 128.609375 C 210.230469 130.984375 210.328125 133.808594 209.882812 136.632812 C 209.386719 139.898438 207.753906 144.902344 206.960938 147.128906 C 206.566406 148.21875 206.417969 148.613281 205.871094 149.507812 C 205.03125 150.894531 203.148438 154.113281 201.960938 154.359375 C 201.21875 154.507812 200.277344 153.863281 199.878906 153.320312 C 199.484375 152.773438 199.386719 151.636719 199.582031 151.042969 C 199.730469 150.496094 200.078125 150.050781 200.574219 149.804688 C 201.117188 149.507812 202.257812 149.359375 202.851562 149.605469 C 203.496094 149.851562 204.1875 150.746094 204.335938 151.4375 C 204.4375 152.082031 204.140625 153.171875 203.644531 153.617188 C 203.148438 154.113281 202.109375 154.457031 201.414062 154.308594 C 200.773438 154.160156 199.878906 153.46875 199.632812 152.875 C 199.335938 152.230469 199.433594 151.140625 199.78125 150.546875 C 200.175781 149.953125 201.8125 149.703125 201.8125 149.40625 C 201.8125 149.210938 200.921875 149.257812 200.773438 148.863281 C 200.476562 148.121094 202.257812 145.695312 202.902344 143.859375 C 203.644531 141.632812 204.535156 138.910156 204.929688 136.332031 C 205.328125 133.710938 205.328125 130.738281 205.277344 128.359375 C 205.230469 126.429688 205.230469 125.09375 204.832031 123.0625 C 204.238281 120.191406 202.554688 115.632812 201.515625 112.859375 C 200.773438 110.878906 200.425781 109.691406 199.433594 107.957031 C 198.097656 105.582031 194.382812 101.964844 193.988281 100.234375 C 193.789062 99.539062 193.9375 98.996094 194.234375 98.5 C 194.484375 98.054688 195.027344 97.558594 195.570312 97.359375 C 196.066406 97.210938 196.808594 97.210938 197.304688 97.410156 C 197.851562 97.609375 198.59375 98.597656 198.59375 98.597656 "/></clipPath><clipPath id="4186d04b27"><path d="M 67.042969 174.941406 L 133.699219 174.941406 L 133.699219 180.75 L 67.042969 180.75 Z M 67.042969 174.941406 "/></clipPath><clipPath id="ae6aaf4ee5"><path d="M 69.539062 174.960938 C 132.433594 175.851562 132.878906 176.050781 133.226562 176.59375 C 133.621094 177.1875 133.671875 178.277344 133.523438 178.921875 C 133.324219 179.417969 132.878906 179.863281 132.480469 180.109375 C 132.035156 180.359375 131.441406 180.554688 130.945312 180.457031 C 130.304688 180.359375 129.363281 179.714844 129.015625 179.167969 C 128.71875 178.722656 128.667969 178.082031 128.769531 177.585938 C 128.816406 177.089844 129.066406 176.546875 129.511719 176.199219 C 130.003906 175.800781 131.09375 175.503906 131.738281 175.605469 C 132.234375 175.652344 132.777344 176 133.074219 176.398438 C 133.421875 176.792969 133.671875 177.335938 133.671875 177.882812 C 133.671875 178.527344 133.175781 179.566406 132.679688 179.960938 C 132.285156 180.308594 131.886719 180.359375 131.195312 180.457031 C 129.707031 180.753906 127.628906 180.605469 124.164062 180.65625 C 114.554688 180.703125 74.886719 180.953125 69.539062 179.914062 C 68.550781 179.714844 68.300781 179.664062 67.90625 179.269531 C 67.460938 178.921875 67.164062 178.277344 67.0625 177.734375 C 67.015625 177.1875 67.164062 176.496094 67.511719 176.050781 C 67.90625 175.503906 69.539062 174.960938 69.539062 174.960938 "/></clipPath><clipPath id="d114c091e9"><path d="M 124.628906 165.324219 L 190.828125 165.324219 L 190.828125 180.710938 L 124.628906 180.710938 Z M 124.628906 165.324219 "/></clipPath><clipPath id="dcd6a55db0"><path d="M 127.132812 175.605469 C 136.789062 175.457031 140.75 174.761719 144.566406 174.5625 C 148.726562 174.367188 153.527344 174.761719 157.6875 174.5625 C 161.453125 174.367188 165.613281 174.070312 168.484375 173.574219 C 170.464844 173.175781 171.40625 172.980469 173.484375 172.238281 C 177.050781 170.898438 185.121094 165.550781 187.847656 165.402344 C 188.886719 165.304688 189.578125 165.652344 190.074219 166.097656 C 190.472656 166.441406 190.71875 166.988281 190.769531 167.484375 C 190.769531 168.125 190.371094 169.214844 189.925781 169.660156 C 189.578125 170.058594 188.984375 170.257812 188.492188 170.304688 C 187.996094 170.304688 187.351562 170.207031 186.957031 169.910156 C 186.460938 169.511719 185.914062 168.523438 185.816406 167.878906 C 185.765625 167.335938 185.964844 166.738281 186.3125 166.34375 C 186.707031 165.847656 187.746094 165.351562 188.390625 165.351562 C 188.9375 165.304688 189.480469 165.601562 189.878906 165.898438 C 190.273438 166.195312 190.621094 166.738281 190.71875 167.234375 C 190.816406 167.730469 190.769531 168.375 190.570312 168.820312 C 190.371094 169.265625 190.074219 169.5625 189.480469 169.957031 C 188.34375 170.898438 185.765625 172.1875 183.339844 173.328125 C 180.023438 174.910156 175.464844 177.140625 171.207031 178.179688 C 166.898438 179.21875 162.144531 179.269531 157.6875 179.515625 C 153.28125 179.714844 148.773438 179.316406 144.613281 179.515625 C 140.800781 179.714844 136.839844 180.40625 133.621094 180.554688 C 131.195312 180.65625 128.570312 180.804688 127.132812 180.554688 C 126.390625 180.40625 125.894531 180.308594 125.5 179.914062 C 125.054688 179.566406 124.707031 178.921875 124.65625 178.378906 C 124.609375 177.832031 124.707031 177.140625 125.101562 176.644531 C 125.5 176.148438 127.132812 175.605469 127.132812 175.605469 "/></clipPath><clipPath id="43c855e7da"><path d="M 183.53125 143.082031 L 207.496094 143.082031 L 207.496094 171.792969 L 183.53125 171.792969 Z M 183.53125 143.082031 "/></clipPath><clipPath id="d359937dcc"><path d="M 184.972656 166.988281 C 193.988281 159.855469 196.019531 157.230469 197.15625 155.746094 C 197.851562 154.90625 198.148438 154.605469 198.691406 153.667969 C 199.582031 152.03125 200.671875 148.269531 201.664062 146.386719 C 202.355469 145.148438 202.949219 143.960938 203.695312 143.464844 C 204.1875 143.117188 204.734375 143.070312 205.230469 143.117188 C 205.722656 143.21875 206.316406 143.414062 206.664062 143.8125 C 207.109375 144.308594 207.457031 145.394531 207.40625 146.039062 C 207.359375 146.535156 207.0625 147.078125 206.617188 147.425781 C 206.121094 147.824219 205.03125 148.167969 204.386719 148.019531 C 203.742188 147.871094 202.902344 147.078125 202.652344 146.484375 C 202.40625 145.992188 202.40625 145.394531 202.554688 144.902344 C 202.800781 144.308594 203.59375 143.464844 204.1875 143.21875 C 204.683594 143.019531 205.277344 143.070312 205.773438 143.265625 C 206.21875 143.414062 206.765625 143.8125 207.011719 144.207031 C 207.308594 144.652344 207.507812 145 207.40625 145.742188 C 207.210938 147.921875 203.84375 154.753906 201.761719 158.023438 C 200.128906 160.550781 198.640625 162.132812 196.613281 164.164062 C 194.183594 166.492188 189.976562 169.957031 187.996094 171 C 187.152344 171.492188 186.609375 171.742188 185.964844 171.691406 C 185.273438 171.59375 184.332031 171.097656 183.933594 170.554688 C 183.585938 169.957031 183.539062 168.871094 183.785156 168.226562 C 183.933594 167.679688 184.972656 166.988281 184.972656 166.988281 "/></clipPath><clipPath id="597ad5529c"><path d="M 94.445312 106.742188 L 122.628906 106.742188 L 122.628906 152.601562 L 94.445312 152.601562 Z M 94.445312 106.742188 "/></clipPath><clipPath id="1df52c5fc8"><path d="M 116.089844 151.488281 C 96.679688 130.640625 95.785156 128.558594 95.144531 125.933594 C 94.546875 123.359375 94.300781 120.386719 94.945312 117.960938 C 95.589844 115.535156 97.371094 112.960938 98.90625 111.277344 C 100.144531 109.839844 101.777344 108.800781 103.015625 108.058594 C 103.859375 107.613281 104.402344 107.363281 105.34375 107.117188 C 106.730469 106.820312 108.859375 106.671875 110.542969 106.867188 C 112.277344 107.117188 114.308594 107.859375 115.59375 108.453125 C 116.535156 108.847656 116.980469 109.046875 117.773438 109.691406 C 119.109375 110.78125 122.082031 113.503906 122.527344 114.988281 C 122.726562 115.832031 122.429688 116.722656 122.082031 117.269531 C 121.785156 117.714844 121.242188 117.960938 120.746094 118.109375 C 120.25 118.210938 119.65625 118.210938 119.160156 117.960938 C 118.617188 117.664062 117.824219 116.824219 117.722656 116.179688 C 117.574219 115.484375 117.921875 114.445312 118.367188 113.949219 C 118.863281 113.453125 119.953125 113.207031 120.597656 113.257812 C 121.140625 113.304688 121.636719 113.652344 121.984375 114.050781 C 122.328125 114.394531 122.578125 114.988281 122.628906 115.484375 C 122.628906 115.980469 122.527344 116.625 122.230469 117.019531 C 121.835938 117.566406 120.84375 118.109375 120.199219 118.160156 C 119.707031 118.257812 119.308594 118.058594 118.714844 117.714844 C 117.425781 116.972656 115.445312 113.949219 113.613281 112.960938 C 112.03125 112.117188 109.949219 111.820312 108.5625 111.769531 C 107.574219 111.722656 106.878906 111.769531 105.9375 112.167969 C 104.699219 112.710938 102.917969 114.148438 101.878906 115.4375 C 100.835938 116.722656 99.945312 118.359375 99.699219 119.992188 C 99.402344 121.625 99.75 123.558594 100.195312 125.242188 C 100.640625 126.925781 101.035156 128.113281 102.371094 130.144531 C 105.34375 134.550781 119.0625 145.941406 120.347656 149.0625 C 120.695312 149.851562 120.597656 150.296875 120.398438 150.792969 C 120.25 151.339844 119.753906 151.882812 119.308594 152.179688 C 118.8125 152.429688 118.121094 152.578125 117.574219 152.429688 C 117.03125 152.328125 116.089844 151.488281 116.089844 151.488281 "/></clipPath><clipPath id="18dadf3af9"><path d="M 117 106.484375 L 145.246094 106.484375 L 145.246094 153.148438 L 117 153.148438 Z M 117 106.484375 "/></clipPath><clipPath id="c648c33c82"><path d="M 118.070312 114.347656 C 120.894531 110.730469 121.488281 110.285156 122.378906 109.742188 C 123.566406 108.898438 125.152344 107.761719 126.933594 107.214844 C 129.164062 106.621094 132.628906 106.324219 134.910156 106.71875 C 136.691406 107.066406 138.175781 107.808594 139.515625 108.800781 C 140.851562 109.789062 141.988281 111.175781 142.882812 112.859375 C 143.921875 114.839844 144.761719 118.308594 145.011719 120.191406 C 145.160156 121.28125 145.160156 121.824219 145.011719 122.863281 C 144.8125 124.351562 144.367188 126.527344 143.722656 128.210938 C 143.03125 129.894531 142.285156 131.234375 141.050781 132.917969 C 139.367188 135.292969 136.890625 138.015625 134.066406 140.839844 C 130.453125 144.503906 123.171875 151.4375 120.792969 152.675781 C 120.101562 153.023438 119.753906 153.070312 119.257812 153.070312 C 118.765625 153.023438 118.171875 152.824219 117.824219 152.429688 C 117.378906 151.933594 116.980469 150.894531 117.03125 150.25 C 117.082031 149.703125 117.378906 149.160156 117.722656 148.8125 C 118.121094 148.464844 118.664062 148.167969 119.160156 148.121094 C 119.65625 148.070312 120.300781 148.121094 120.695312 148.417969 C 121.242188 148.8125 121.835938 149.753906 121.933594 150.398438 C 122.03125 150.941406 121.835938 151.488281 121.585938 151.933594 C 121.289062 152.328125 120.84375 152.773438 120.347656 152.921875 C 119.707031 153.070312 118.566406 152.921875 118.023438 152.578125 C 117.574219 152.328125 117.230469 151.835938 117.128906 151.289062 C 116.980469 150.644531 117.03125 149.953125 117.574219 149.011719 C 119.011719 146.535156 126.785156 141.039062 130.054688 137.820312 C 132.285156 135.589844 133.96875 133.808594 135.503906 131.925781 C 136.839844 130.339844 138.078125 129.003906 138.820312 127.371094 C 139.5625 125.734375 139.910156 123.65625 140.058594 122.21875 C 140.15625 121.230469 140.15625 120.636719 139.960938 119.695312 C 139.710938 118.308594 138.917969 116.03125 138.226562 114.792969 C 137.679688 113.902344 137.085938 113.257812 136.394531 112.710938 C 135.699219 112.167969 135.007812 111.769531 134.015625 111.574219 C 132.679688 111.324219 130.402344 111.375 128.769531 111.871094 C 127.183594 112.316406 125.648438 113.304688 124.359375 114.347656 C 123.023438 115.386719 121.734375 117.664062 120.792969 118.109375 C 120.300781 118.308594 120.003906 118.210938 119.605469 118.109375 C 119.109375 117.960938 118.46875 117.566406 118.121094 117.167969 C 117.824219 116.722656 117.675781 115.929688 117.675781 115.4375 C 117.675781 115.039062 118.070312 114.347656 118.070312 114.347656 "/></clipPath><clipPath id="0fec48a180"><path d="M 180.023438 294.179688 L 202 294.179688 L 202 313.265625 L 180.023438 313.265625 Z M 180.023438 294.179688 "/></clipPath><clipPath id="3b9c0024fe"><path d="M 195.820312 313.246094 C 185.519531 312.402344 183.886719 311.3125 182.746094 310.472656 C 181.953125 309.878906 181.410156 309.332031 181.011719 308.589844 C 180.566406 307.898438 180.320312 307.105469 180.21875 306.261719 C 180.070312 305.273438 180.023438 304.230469 180.320312 303.09375 C 180.664062 301.707031 181.804688 299.675781 182.648438 298.585938 C 183.242188 297.792969 183.636719 297.300781 184.628906 296.753906 C 186.261719 295.863281 189.578125 294.871094 192.105469 294.476562 C 194.582031 294.128906 198 294.128906 199.535156 294.378906 C 200.226562 294.527344 200.625 294.574219 201.019531 294.871094 C 201.414062 295.21875 201.761719 295.714844 201.910156 296.210938 C 202.058594 296.703125 202.007812 297.300781 201.8125 297.792969 C 201.664062 298.242188 201.21875 298.734375 200.820312 298.984375 C 200.375 299.230469 199.78125 299.429688 199.238281 299.328125 C 198.640625 299.230469 197.652344 298.636719 197.355469 298.042969 C 197.007812 297.449219 197.105469 296.308594 197.355469 295.714844 C 197.554688 295.21875 198.046875 294.824219 198.492188 294.625 C 198.9375 294.425781 199.582031 294.328125 200.078125 294.425781 C 200.523438 294.574219 201.117188 294.824219 201.414062 295.269531 C 201.8125 295.765625 202.007812 296.902344 201.910156 297.546875 C 201.8125 298.042969 201.414062 298.539062 201.019531 298.835938 C 200.625 299.132812 200.226562 299.230469 199.535156 299.328125 C 198 299.625 193.789062 299.230469 191.957031 299.476562 C 190.816406 299.625 190.125 299.875 189.28125 300.222656 C 188.390625 300.566406 187.300781 300.914062 186.65625 301.507812 C 186.015625 302.101562 185.617188 302.894531 185.371094 303.6875 C 185.121094 304.429688 184.925781 305.570312 185.269531 306.214844 C 185.617188 306.855469 186.65625 307.203125 187.402344 307.550781 C 188.191406 307.898438 188.9375 308.144531 189.976562 308.292969 C 191.609375 308.539062 195.226562 308.046875 196.414062 308.34375 C 196.957031 308.492188 197.207031 308.640625 197.503906 308.886719 C 197.75 309.183594 198.046875 309.480469 198.148438 309.878906 C 198.296875 310.371094 198.296875 311.164062 198.148438 311.660156 C 198.046875 312.058594 197.800781 312.355469 197.503906 312.601562 C 197.058594 312.898438 195.820312 313.246094 195.820312 313.246094 "/></clipPath><clipPath id="3e5a90e4ca"><path d="M 195.511719 290.402344 L 298.253906 290.402344 L 298.253906 299.59375 L 195.511719 299.59375 Z M 195.511719 290.402344 "/></clipPath><clipPath id="59c6e28238"><path d="M 198 294.378906 C 235.140625 293.386719 255.789062 291.851562 267.574219 291.554688 C 275.054688 291.308594 280.898438 291.753906 286.046875 291.457031 C 289.761719 291.257812 293.722656 290.316406 295.554688 290.414062 C 296.296875 290.464844 296.644531 290.515625 297.089844 290.8125 C 297.585938 291.207031 298.128906 292.199219 298.230469 292.84375 C 298.277344 293.386719 298.03125 293.933594 297.734375 294.378906 C 297.4375 294.773438 296.992188 295.171875 296.445312 295.269531 C 295.851562 295.417969 294.714844 295.269531 294.167969 294.824219 C 293.671875 294.378906 293.277344 293.335938 293.277344 292.695312 C 293.277344 292.148438 293.574219 291.605469 293.921875 291.257812 C 294.269531 290.863281 294.8125 290.5625 295.308594 290.464844 C 295.804688 290.367188 296.398438 290.464844 296.84375 290.664062 C 297.289062 290.910156 297.734375 291.355469 297.980469 291.800781 C 298.179688 292.25 298.328125 292.890625 298.179688 293.386719 C 297.980469 293.980469 297.585938 294.722656 296.695312 295.171875 C 294.8125 296.210938 289.515625 296.210938 285.402344 296.457031 C 280.5 296.707031 276.09375 296.257812 269.308594 296.457031 C 257.769531 296.753906 235.484375 298.339844 222.363281 298.835938 C 212.953125 299.179688 201.316406 299.925781 198 299.328125 C 197.105469 299.179688 196.761719 299.082031 196.363281 298.734375 C 195.917969 298.339844 195.621094 297.695312 195.523438 297.152344 C 195.472656 296.605469 195.621094 295.914062 195.96875 295.46875 C 196.363281 294.972656 198 294.378906 198 294.378906 "/></clipPath><clipPath id="e59b7ebc92"><path d="M 291.285156 248.683594 L 320 248.683594 L 320 295.113281 L 291.285156 295.113281 Z M 291.285156 248.683594 "/></clipPath><clipPath id="6416f1a518"><path d="M 293.226562 290.265625 C 300.753906 286.40625 303.132812 285.019531 305.164062 283.382812 C 307.191406 281.699219 309.769531 279.222656 310.90625 277.738281 C 311.550781 276.847656 311.699219 276.402344 312.144531 275.511719 C 312.738281 274.222656 313.480469 272.339844 313.929688 270.65625 C 314.421875 268.972656 314.621094 267.289062 314.820312 265.308594 C 315.015625 262.929688 315.214844 259.8125 314.820312 257.386719 C 314.472656 255.15625 312.738281 252.582031 312.789062 251.195312 C 312.789062 250.550781 312.988281 250.105469 313.285156 249.710938 C 313.628906 249.3125 314.125 248.964844 314.621094 248.867188 C 315.117188 248.71875 315.761719 248.769531 316.207031 248.964844 C 316.652344 249.164062 317.148438 249.511719 317.394531 250.007812 C 317.691406 250.550781 317.789062 251.691406 317.492188 252.335938 C 317.195312 252.929688 316.253906 253.523438 315.613281 253.671875 C 315.117188 253.820312 314.472656 253.671875 314.078125 253.421875 C 313.628906 253.175781 313.183594 252.679688 312.988281 252.234375 C 312.789062 251.789062 312.738281 251.144531 312.839844 250.648438 C 312.9375 250.203125 313.285156 249.660156 313.679688 249.3125 C 314.078125 249.015625 314.671875 248.769531 315.164062 248.769531 C 315.660156 248.769531 316.253906 248.917969 316.652344 249.214844 C 317.097656 249.511719 317.296875 249.859375 317.59375 250.5 C 318.234375 251.691406 319.324219 254.808594 319.671875 256.394531 C 319.917969 257.433594 319.871094 257.929688 319.917969 258.921875 C 319.96875 260.355469 320.070312 262.238281 319.917969 264.167969 C 319.722656 266.496094 319.375 269.519531 318.683594 272.042969 C 318.039062 274.570312 317.296875 276.996094 315.808594 279.324219 C 314.125 281.949219 311.601562 284.472656 308.828125 286.75 C 305.65625 289.328125 300.359375 292.496094 297.734375 293.832031 C 296.347656 294.527344 295.457031 295.019531 294.417969 295.070312 C 293.625 295.121094 292.683594 294.871094 292.1875 294.527344 C 291.839844 294.328125 291.644531 293.980469 291.542969 293.585938 C 291.347656 293.089844 291.296875 292.347656 291.496094 291.800781 C 291.792969 291.207031 293.226562 290.265625 293.226562 290.265625 "/></clipPath><clipPath id="aa514d39ac"><path d="M 236 230.511719 L 318.941406 230.511719 L 318.941406 256.308594 L 236 256.308594 Z M 236 230.511719 "/></clipPath><clipPath id="a873ff4fd2"><path d="M 314.027344 254.5625 C 310.214844 247.234375 309.222656 246.144531 307.835938 244.957031 C 306.101562 243.519531 303.429688 241.835938 301.347656 240.894531 C 299.617188 240.101562 298.476562 239.953125 296.296875 239.457031 C 292.632812 238.667969 285.800781 237.429688 281.144531 236.980469 C 277.332031 236.636719 274.113281 236.980469 270.546875 236.785156 C 266.980469 236.535156 264.058594 235.894531 259.851562 235.695312 C 253.859375 235.445312 241.230469 237.132812 238.0625 235.992188 C 237.019531 235.644531 236.527344 235.199219 236.277344 234.554688 C 235.980469 233.910156 236.179688 232.824219 236.476562 232.226562 C 236.722656 231.78125 237.167969 231.386719 237.714844 231.238281 C 238.308594 231.089844 239.449219 231.1875 239.992188 231.585938 C 240.539062 231.980469 240.984375 233.019531 241.03125 233.664062 C 241.03125 234.210938 240.835938 234.753906 240.4375 235.148438 C 240.042969 235.597656 238.953125 236.042969 238.308594 236.042969 C 237.8125 236.042969 237.269531 235.746094 236.871094 235.398438 C 236.527344 235.101562 236.179688 234.507812 236.128906 234.011719 C 236.03125 233.566406 236.082031 232.921875 236.328125 232.476562 C 236.527344 232.03125 236.921875 231.632812 237.46875 231.335938 C 238.160156 230.992188 239.101562 230.890625 240.539062 230.742188 C 243.757812 230.445312 250.441406 230.496094 256.433594 230.644531 C 264.109375 230.839844 275.101562 231.289062 282.828125 232.226562 C 288.917969 232.921875 295.160156 234.0625 299.023438 235.050781 C 301.199219 235.597656 302.488281 236.042969 304.121094 236.734375 C 305.707031 237.429688 307.042969 238.070312 308.578125 239.160156 C 310.460938 240.546875 312.789062 242.675781 314.324219 244.558594 C 315.710938 246.191406 316.75 247.976562 317.542969 249.609375 C 318.1875 250.996094 318.832031 252.632812 318.832031 253.671875 C 318.878906 254.363281 318.683594 254.957031 318.335938 255.355469 C 317.988281 255.800781 317.34375 256.148438 316.800781 256.246094 C 316.253906 256.34375 315.5625 256.246094 315.066406 255.949219 C 314.621094 255.652344 314.027344 254.5625 314.027344 254.5625 "/></clipPath><clipPath id="a5aa381d05"><path d="M 186.589844 231.175781 L 244.488281 231.175781 L 244.488281 237.257812 L 186.589844 237.257812 Z M 186.589844 231.175781 "/></clipPath><clipPath id="511253fd6e"><path d="M 242.023438 236.4375 C 214.042969 236.585938 207.554688 237.28125 201.960938 237.230469 C 197.304688 237.179688 191.363281 236.785156 189.183594 236.386719 C 188.390625 236.238281 188.042969 236.289062 187.648438 235.941406 C 187.152344 235.546875 186.65625 234.507812 186.609375 233.863281 C 186.558594 233.367188 186.757812 232.773438 187.152344 232.378906 C 187.550781 231.929688 188.589844 231.386719 189.234375 231.4375 C 189.925781 231.484375 190.867188 232.128906 191.214844 232.675781 C 191.511719 233.121094 191.660156 233.714844 191.5625 234.210938 C 191.414062 234.851562 190.769531 235.792969 190.222656 236.140625 C 189.777344 236.386719 189.132812 236.488281 188.640625 236.339844 C 188.042969 236.191406 187.105469 235.546875 186.804688 234.902344 C 186.558594 234.308594 186.707031 233.167969 187.003906 232.625 C 187.203125 232.128906 187.648438 231.832031 188.191406 231.585938 C 188.984375 231.289062 190.027344 231.335938 191.414062 231.386719 C 193.886719 231.386719 197.949219 232.179688 201.960938 232.277344 C 207.257812 232.378906 214.042969 231.632812 220.429688 231.484375 C 227.363281 231.335938 238.902344 230.890625 242.023438 231.484375 C 242.914062 231.632812 243.261719 231.734375 243.65625 232.078125 C 244.054688 232.476562 244.398438 233.121094 244.449219 233.664062 C 244.546875 234.210938 244.398438 234.902344 244.054688 235.347656 C 243.65625 235.894531 242.023438 236.4375 242.023438 236.4375 "/></clipPath><clipPath id="a4694ffd77"><path d="M 177.0625 231.414062 L 203.234375 231.414062 L 203.234375 257.125 L 177.0625 257.125 Z M 177.0625 231.414062 "/></clipPath><clipPath id="22e3d081ce"><path d="M 190.917969 232.226562 C 198.789062 240.746094 200.96875 242.824219 201.960938 245.253906 C 202.902344 247.578125 203.445312 250.996094 203 252.78125 C 202.753906 253.96875 201.960938 254.761719 201.21875 255.453125 C 200.523438 256.046875 199.78125 256.445312 198.789062 256.691406 C 197.453125 257.039062 195.078125 257.238281 193.738281 256.988281 C 192.796875 256.789062 192.253906 256.492188 191.363281 256 C 190.125 255.253906 188.589844 254.066406 187.105469 252.78125 C 185.320312 251.246094 183.140625 249.066406 181.410156 247.132812 C 179.824219 245.351562 177.496094 243.171875 177.199219 241.738281 C 177.050781 240.84375 177.398438 240.003906 177.894531 239.507812 C 178.386719 239.011719 179.429688 238.714844 180.121094 238.816406 C 180.816406 238.964844 181.65625 239.65625 181.902344 240.300781 C 182.199219 240.894531 182.101562 242.035156 181.707031 242.578125 C 181.359375 243.171875 180.320312 243.667969 179.726562 243.71875 C 179.179688 243.765625 178.585938 243.570312 178.191406 243.273438 C 177.792969 242.972656 177.398438 242.429688 177.296875 241.984375 C 177.148438 241.488281 177.148438 240.84375 177.347656 240.398438 C 177.496094 239.902344 177.84375 239.410156 178.339844 239.160156 C 178.882812 238.863281 179.675781 238.617188 180.617188 238.964844 C 183.042969 239.902344 188.144531 247.578125 191.113281 249.710938 C 192.847656 250.996094 194.484375 251.988281 195.769531 252.035156 C 196.660156 252.035156 197.703125 251.640625 198.046875 251.046875 C 198.394531 250.453125 198 249.363281 197.75 248.570312 C 197.554688 247.679688 197.355469 247.085938 196.660156 246.042969 C 195.078125 243.519531 187.449219 236.488281 186.707031 234.554688 C 186.460938 234.011719 186.558594 233.761719 186.65625 233.367188 C 186.804688 232.871094 187.203125 232.226562 187.648438 231.929688 C 188.09375 231.585938 188.789062 231.386719 189.332031 231.4375 C 189.878906 231.484375 190.917969 232.226562 190.917969 232.226562 "/></clipPath><clipPath id="f7739be0d2"><path d="M 164.660156 205.625 L 184.882812 205.625 L 184.882812 245 L 164.660156 245 Z M 164.660156 205.625 "/></clipPath><clipPath id="c988426bd9"><path d="M 179.378906 244.3125 C 165.957031 230.941406 165.265625 229.40625 164.917969 228.070312 C 164.671875 227.128906 164.621094 226.535156 164.769531 225.542969 C 165.015625 224.15625 165.613281 222.324219 166.652344 220.589844 C 168.136719 218.066406 171.058594 214.894531 173.632812 212.417969 C 176.160156 209.945312 180.21875 206.179688 182.003906 205.734375 C 182.648438 205.535156 183.09375 205.785156 183.539062 205.980469 C 183.984375 206.230469 184.429688 206.726562 184.628906 207.171875 C 184.824219 207.617188 184.875 208.261719 184.777344 208.753906 C 184.675781 209.199219 184.378906 209.796875 183.933594 210.09375 C 183.4375 210.4375 182.300781 210.6875 181.65625 210.539062 C 181.160156 210.4375 180.664062 210.042969 180.367188 209.648438 C 180.070312 209.25 179.875 208.65625 179.875 208.160156 C 179.875 207.664062 180.121094 207.070312 180.417969 206.675781 C 180.714844 206.277344 181.210938 205.882812 181.707031 205.785156 C 182.351562 205.683594 183.488281 205.933594 183.984375 206.328125 C 184.429688 206.625 184.726562 207.121094 184.777344 207.664062 C 184.875 208.308594 184.675781 209.050781 184.132812 209.894531 C 183.09375 211.578125 179.128906 213.953125 177 216.035156 C 175.070312 217.917969 173.039062 219.847656 171.800781 221.78125 C 170.8125 223.316406 169.769531 225.046875 169.722656 226.386719 C 169.722656 227.324219 170.21875 228.070312 170.613281 228.859375 C 171.007812 229.605469 171.355469 230.050781 172.199219 230.941406 C 174.128906 233.121094 181.804688 238.964844 183.042969 241.042969 C 183.488281 241.785156 183.539062 242.230469 183.488281 242.777344 C 183.390625 243.320312 183.09375 243.964844 182.648438 244.3125 C 182.25 244.707031 181.558594 244.957031 181.011719 244.957031 C 180.46875 244.957031 179.378906 244.3125 179.378906 244.3125 "/></clipPath><clipPath id="528de2d5f3"><path d="M 178.878906 194.242188 L 203.992188 194.242188 L 203.992188 213.277344 L 178.878906 213.277344 Z M 178.878906 194.242188 "/></clipPath><clipPath id="e8da9bf5cd"><path d="M 179.773438 207.023438 C 188.292969 198.851562 190.667969 196.671875 192.402344 195.683594 C 193.394531 195.039062 194.183594 194.789062 195.078125 194.59375 C 195.917969 194.394531 196.761719 194.246094 197.601562 194.34375 C 198.492188 194.445312 199.535156 194.789062 200.324219 195.234375 C 201.070312 195.632812 201.761719 196.175781 202.308594 196.871094 C 202.902344 197.613281 203.496094 198.652344 203.742188 199.59375 C 203.992188 200.386719 203.992188 201.128906 203.890625 202.070312 C 203.695312 203.457031 203.296875 205.386719 202.40625 206.972656 C 201.265625 208.902344 198.640625 211.777344 197.15625 212.617188 C 196.316406 213.113281 195.523438 213.261719 194.878906 213.164062 C 194.382812 213.0625 193.886719 212.667969 193.542969 212.269531 C 193.246094 211.875 192.996094 211.28125 193.046875 210.785156 C 193.097656 210.140625 193.542969 209.101562 194.136719 208.707031 C 194.679688 208.308594 195.769531 208.210938 196.414062 208.457031 C 197.058594 208.707031 197.75 209.597656 197.949219 210.191406 C 198.097656 210.6875 198 211.332031 197.800781 211.777344 C 197.554688 212.222656 197.15625 212.71875 196.710938 212.914062 C 196.265625 213.164062 195.621094 213.261719 195.125 213.210938 C 194.632812 213.113281 194.085938 212.816406 193.738281 212.46875 C 193.394531 212.121094 193.144531 211.527344 193.046875 211.035156 C 192.996094 210.539062 193.097656 210.09375 193.394531 209.5 C 194.085938 208.160156 197.554688 205.585938 198.34375 204.050781 C 198.839844 203.160156 198.988281 202.417969 198.9375 201.625 C 198.890625 200.832031 198.492188 199.59375 197.949219 199.296875 C 197.355469 198.949219 196.464844 199.097656 195.421875 199.59375 C 192.648438 200.832031 184.972656 209.945312 182.597656 211.035156 C 181.804688 211.378906 181.359375 211.378906 180.816406 211.28125 C 180.320312 211.132812 179.726562 210.734375 179.378906 210.289062 C 179.082031 209.796875 178.882812 209.101562 178.980469 208.558594 C 179.03125 208.011719 179.773438 207.023438 179.773438 207.023438 "/></clipPath><clipPath id="3d9a569bd7"><path d="M 185.285156 206.886719 L 234.375 206.886719 L 234.375 223.460938 L 185.285156 223.460938 Z M 185.285156 206.886719 "/></clipPath><clipPath id="5a119976e9"><path d="M 198.988281 211.480469 C 192.203125 216.976562 191.261719 219.796875 190.273438 219.847656 C 189.578125 219.847656 188.09375 218.164062 188.339844 217.71875 C 188.886719 216.480469 200.128906 218.3125 206.417969 218.214844 C 213.25 218.113281 224.988281 215.589844 227.859375 216.925781 C 228.851562 217.371094 228.851562 218.90625 229.34375 218.859375 C 229.792969 218.859375 230.089844 217.324219 230.632812 216.976562 C 231.078125 216.679688 231.722656 216.578125 232.21875 216.726562 C 232.863281 216.875 233.753906 217.570312 234.050781 218.113281 C 234.296875 218.609375 234.347656 219.203125 234.199219 219.699219 C 234.097656 220.195312 233.851562 220.738281 233.40625 221.035156 C 232.863281 221.433594 231.773438 221.730469 231.128906 221.53125 C 230.484375 221.332031 229.644531 220.589844 229.445312 219.945312 C 229.246094 219.304688 229.445312 218.214844 229.839844 217.667969 C 230.238281 217.125 231.328125 216.679688 231.96875 216.679688 C 232.464844 216.679688 233.058594 216.875 233.40625 217.273438 C 233.851562 217.71875 234.496094 218.808594 234.246094 219.453125 C 233.902344 220.394531 231.820312 221.234375 229.542969 221.828125 C 224.589844 223.164062 212.308594 223.164062 204.734375 223.164062 C 198.296875 223.214844 189.53125 224.105469 186.90625 222.375 C 185.765625 221.679688 185.421875 220.34375 185.371094 219.351562 C 185.269531 218.511719 185.667969 217.816406 186.113281 216.976562 C 186.757812 215.738281 187.746094 214.300781 189.132812 212.914062 C 191.113281 210.984375 195.769531 207.367188 197.304688 206.972656 C 197.851562 206.875 198.148438 206.972656 198.492188 207.121094 C 198.9375 207.367188 199.582031 207.8125 199.832031 208.308594 C 200.078125 208.804688 200.128906 209.546875 200.027344 210.042969 C 199.878906 210.585938 198.988281 211.480469 198.988281 211.480469 "/></clipPath><clipPath id="4efc2af0f0"><path d="M 223.898438 216.085938 L 275.671875 216.085938 L 275.671875 222.210938 L 223.898438 222.210938 Z M 223.898438 216.085938 "/></clipPath><clipPath id="87973ec16f"><path d="M 226.375 216.679688 C 274.113281 216.28125 274.410156 216.332031 274.804688 216.726562 C 275.300781 217.222656 275.699219 218.261719 275.648438 218.90625 C 275.597656 219.453125 275.25 220.09375 274.804688 220.441406 C 274.410156 220.839844 273.765625 221.183594 273.171875 221.085938 C 272.378906 220.886719 270.894531 219.402344 270.695312 218.609375 C 270.597656 218.066406 270.84375 217.519531 271.191406 217.125 C 271.636719 216.628906 272.675781 216.132812 273.320312 216.132812 C 273.863281 216.132812 274.410156 216.332031 274.804688 216.726562 C 275.25 217.175781 275.648438 218.214844 275.648438 218.859375 C 275.648438 219.402344 275.300781 219.945312 274.953125 220.292969 C 274.65625 220.691406 274.113281 220.988281 273.566406 221.035156 C 272.925781 221.085938 271.882812 220.738281 271.390625 220.292969 C 270.992188 219.945312 270.792969 219.351562 270.695312 218.859375 C 270.644531 218.363281 270.746094 217.769531 271.042969 217.324219 C 271.4375 216.828125 272.429688 216.234375 273.023438 216.132812 C 273.566406 216.035156 274.164062 216.28125 274.558594 216.53125 C 275.003906 216.828125 275.597656 217.769531 275.546875 217.816406 C 275.449219 217.917969 273.121094 216.234375 273.171875 216.132812 C 273.222656 216.035156 274.410156 216.382812 274.804688 216.726562 C 275.25 217.125 275.546875 217.769531 275.648438 218.3125 C 275.699219 218.859375 275.546875 219.550781 275.203125 219.996094 C 274.804688 220.542969 274.359375 220.789062 273.171875 221.085938 C 267.871094 222.421875 231.277344 222.523438 226.375 221.628906 C 225.433594 221.480469 225.136719 221.382812 224.738281 220.988281 C 224.34375 220.640625 223.996094 219.996094 223.949219 219.453125 C 223.847656 218.90625 223.996094 218.214844 224.34375 217.769531 C 224.738281 217.222656 226.375 216.679688 226.375 216.679688 "/></clipPath><clipPath id="155d5a24bb"><path d="M 268.089844 216.152344 L 326.921875 216.152344 L 326.921875 239.390625 L 268.089844 239.390625 Z M 268.089844 216.152344 "/></clipPath><clipPath id="791f787244"><path d="M 270.644531 216.234375 C 289.265625 216.382812 290.007812 216.53125 292.136719 217.023438 C 295.953125 217.867188 303.972656 220.292969 307.6875 221.628906 C 309.867188 222.421875 310.90625 222.71875 312.789062 223.761719 C 315.414062 225.246094 319.621094 228.070312 321.703125 230.148438 C 323.140625 231.585938 323.832031 233.464844 324.773438 234.359375 C 325.367188 234.851562 326.0625 234.851562 326.40625 235.347656 C 326.804688 235.894531 326.902344 236.980469 326.753906 237.625 C 326.605469 238.121094 326.210938 238.617188 325.761719 238.863281 C 325.367188 239.160156 324.773438 239.359375 324.226562 239.261719 C 323.585938 239.160156 322.59375 238.617188 322.296875 238.023438 C 321.949219 237.429688 321.902344 236.339844 322.199219 235.695312 C 322.496094 235.101562 323.386719 234.457031 324.078125 234.359375 C 324.722656 234.257812 325.761719 234.703125 326.257812 235.101562 C 326.65625 235.496094 326.851562 236.089844 326.902344 236.585938 C 326.953125 237.082031 326.851562 237.675781 326.507812 238.121094 C 326.160156 238.617188 325.167969 239.210938 324.527344 239.261719 C 323.980469 239.308594 323.535156 239.160156 322.992188 238.816406 C 321.949219 238.171875 320.859375 236.289062 319.277344 234.851562 C 317.046875 232.824219 314.273438 230.050781 310.558594 228.117188 C 305.359375 225.34375 294.8125 222.621094 290.109375 221.628906 C 287.679688 221.136719 286.839844 221.234375 284.5625 221.085938 C 280.847656 220.9375 272.328125 221.828125 270.050781 221.136719 C 269.257812 220.886719 268.914062 220.589844 268.566406 220.09375 C 268.269531 219.648438 268.121094 218.957031 268.171875 218.410156 C 268.21875 217.867188 268.566406 217.222656 268.960938 216.875 C 269.40625 216.480469 270.644531 216.234375 270.644531 216.234375 "/></clipPath><clipPath id="6db303897b"><path d="M 319.109375 230.675781 L 335.605469 230.675781 L 335.605469 287.898438 L 319.109375 287.898438 Z M 319.109375 230.675781 "/></clipPath><clipPath id="40f5f875f2"><path d="M 323.882812 232.078125 C 330.367188 241.339844 331.210938 243.765625 332.203125 246.492188 C 333.339844 249.609375 334.726562 253.820312 335.222656 256.742188 C 335.570312 258.773438 335.46875 260.109375 335.519531 262.089844 C 335.519531 264.464844 335.617188 267.289062 335.171875 270.113281 C 334.675781 273.378906 333.042969 278.382812 332.25 280.609375 C 331.855469 281.699219 331.707031 282.097656 331.160156 282.988281 C 330.320312 284.375 328.4375 287.59375 327.25 287.839844 C 326.507812 287.988281 325.566406 287.34375 325.167969 286.800781 C 324.773438 286.257812 324.675781 285.117188 324.871094 284.523438 C 325.019531 283.976562 325.367188 283.53125 325.863281 283.285156 C 326.40625 282.988281 327.546875 282.839844 328.140625 283.085938 C 328.785156 283.335938 329.476562 284.226562 329.625 284.917969 C 329.726562 285.5625 329.429688 286.652344 328.933594 287.097656 C 328.4375 287.59375 327.398438 287.941406 326.703125 287.792969 C 326.0625 287.644531 325.167969 286.949219 324.921875 286.355469 C 324.625 285.710938 324.722656 284.621094 325.070312 284.027344 C 325.464844 283.433594 327.101562 283.1875 327.101562 282.890625 C 327.101562 282.691406 326.210938 282.738281 326.0625 282.34375 C 325.761719 281.601562 327.546875 279.175781 328.191406 277.34375 C 328.933594 275.113281 329.824219 272.390625 330.21875 269.816406 C 330.617188 267.191406 330.617188 264.21875 330.566406 261.84375 C 330.515625 259.910156 330.515625 258.574219 330.121094 256.542969 C 329.527344 253.671875 327.84375 249.113281 326.804688 246.34375 C 326.0625 244.359375 325.714844 243.171875 324.722656 241.4375 C 323.386719 239.0625 319.671875 235.449219 319.277344 233.714844 C 319.078125 233.019531 319.226562 232.476562 319.523438 231.980469 C 319.769531 231.535156 320.316406 231.039062 320.859375 230.84375 C 321.355469 230.691406 322.097656 230.691406 322.59375 230.890625 C 323.140625 231.089844 323.882812 232.078125 323.882812 232.078125 "/></clipPath><clipPath id="5c0ca06fa0"><path d="M 192.332031 308.421875 L 258.988281 308.421875 L 258.988281 314.230469 L 192.332031 314.230469 Z M 192.332031 308.421875 "/></clipPath><clipPath id="08e72d0ad7"><path d="M 194.828125 308.441406 C 257.722656 309.332031 258.167969 309.53125 258.511719 310.074219 C 258.910156 310.671875 258.960938 311.757812 258.8125 312.402344 C 258.613281 312.898438 258.167969 313.34375 257.769531 313.59375 C 257.324219 313.839844 256.730469 314.039062 256.234375 313.9375 C 255.589844 313.839844 254.652344 313.195312 254.304688 312.652344 C 254.007812 312.207031 253.957031 311.5625 254.054688 311.066406 C 254.105469 310.570312 254.355469 310.027344 254.800781 309.679688 C 255.292969 309.285156 256.382812 308.988281 257.027344 309.085938 C 257.523438 309.136719 258.066406 309.480469 258.363281 309.878906 C 258.710938 310.273438 258.960938 310.820312 258.960938 311.363281 C 258.960938 312.007812 258.464844 313.046875 257.96875 313.441406 C 257.574219 313.789062 257.175781 313.839844 256.484375 313.9375 C 254.996094 314.234375 252.917969 314.085938 249.449219 314.136719 C 239.84375 314.1875 200.175781 314.433594 194.828125 313.394531 C 193.839844 313.195312 193.589844 313.144531 193.195312 312.75 C 192.75 312.402344 192.453125 311.757812 192.351562 311.214844 C 192.304688 310.671875 192.453125 309.976562 192.796875 309.53125 C 193.195312 308.988281 194.828125 308.441406 194.828125 308.441406 "/></clipPath><clipPath id="083993d8d5"><path d="M 249.917969 298.804688 L 316.117188 298.804688 L 316.117188 314.191406 L 249.917969 314.191406 Z M 249.917969 298.804688 "/></clipPath><clipPath id="14c060b4cf"><path d="M 252.421875 309.085938 C 262.078125 308.9375 266.039062 308.242188 269.855469 308.046875 C 274.011719 307.847656 278.816406 308.242188 282.976562 308.046875 C 286.742188 307.847656 290.902344 307.550781 293.773438 307.054688 C 295.753906 306.660156 296.695312 306.460938 298.773438 305.71875 C 302.339844 304.382812 310.410156 299.03125 313.136719 298.882812 C 314.175781 298.785156 314.867188 299.132812 315.363281 299.578125 C 315.761719 299.925781 316.007812 300.46875 316.058594 300.964844 C 316.058594 301.609375 315.660156 302.695312 315.214844 303.144531 C 314.867188 303.539062 314.273438 303.738281 313.777344 303.785156 C 313.285156 303.785156 312.640625 303.6875 312.242188 303.390625 C 311.75 302.996094 311.203125 302.003906 311.105469 301.359375 C 311.054688 300.816406 311.253906 300.222656 311.601562 299.824219 C 311.996094 299.328125 313.035156 298.835938 313.679688 298.835938 C 314.226562 298.785156 314.769531 299.082031 315.164062 299.378906 C 315.5625 299.675781 315.910156 300.222656 316.007812 300.714844 C 316.105469 301.210938 316.058594 301.855469 315.859375 302.300781 C 315.660156 302.746094 315.363281 303.042969 314.769531 303.441406 C 313.628906 304.382812 311.054688 305.667969 308.628906 306.808594 C 305.3125 308.390625 300.753906 310.621094 296.496094 311.660156 C 292.1875 312.699219 287.433594 312.75 282.976562 312.996094 C 278.570312 313.195312 274.0625 312.800781 269.902344 312.996094 C 266.089844 313.195312 262.128906 313.890625 258.910156 314.039062 C 256.484375 314.136719 253.859375 314.285156 252.421875 314.039062 C 251.679688 313.890625 251.183594 313.789062 250.789062 313.394531 C 250.34375 313.046875 249.996094 312.402344 249.945312 311.859375 C 249.898438 311.3125 249.996094 310.621094 250.390625 310.125 C 250.789062 309.628906 252.421875 309.085938 252.421875 309.085938 "/></clipPath><clipPath id="b0f4a09e1b"><path d="M 308.820312 276.5625 L 332.785156 276.5625 L 332.785156 305.273438 L 308.820312 305.273438 Z M 308.820312 276.5625 "/></clipPath><clipPath id="3de90a58fe"><path d="M 310.261719 300.46875 C 319.277344 293.335938 321.304688 290.714844 322.445312 289.226562 C 323.140625 288.386719 323.4375 288.089844 323.980469 287.148438 C 324.871094 285.511719 325.960938 281.75 326.953125 279.867188 C 327.644531 278.628906 328.238281 277.441406 328.980469 276.945312 C 329.476562 276.597656 330.023438 276.550781 330.515625 276.597656 C 331.011719 276.699219 331.605469 276.898438 331.953125 277.292969 C 332.398438 277.789062 332.746094 278.878906 332.695312 279.519531 C 332.648438 280.015625 332.351562 280.5625 331.902344 280.90625 C 331.410156 281.304688 330.320312 281.652344 329.675781 281.503906 C 329.03125 281.355469 328.191406 280.5625 327.941406 279.96875 C 327.695312 279.472656 327.695312 278.878906 327.84375 278.382812 C 328.089844 277.789062 328.882812 276.945312 329.476562 276.699219 C 329.972656 276.5 330.566406 276.550781 331.0625 276.75 C 331.507812 276.898438 332.050781 277.292969 332.300781 277.6875 C 332.597656 278.132812 332.796875 278.480469 332.695312 279.222656 C 332.5 281.402344 329.132812 288.238281 327.050781 291.503906 C 325.417969 294.03125 323.929688 295.617188 321.902344 297.644531 C 319.472656 299.972656 315.265625 303.441406 313.285156 304.480469 C 312.441406 304.976562 311.898438 305.222656 311.253906 305.171875 C 310.558594 305.074219 309.621094 304.578125 309.222656 304.035156 C 308.875 303.441406 308.828125 302.351562 309.074219 301.707031 C 309.222656 301.160156 310.261719 300.46875 310.261719 300.46875 "/></clipPath><clipPath id="c909a65827"><path d="M 219.734375 240.222656 L 247.917969 240.222656 L 247.917969 286 L 219.734375 286 Z M 219.734375 240.222656 "/></clipPath><clipPath id="1c550bf06b"><path d="M 241.378906 284.96875 C 221.964844 264.121094 221.074219 262.039062 220.429688 259.414062 C 219.835938 256.839844 219.589844 253.871094 220.234375 251.441406 C 220.878906 249.015625 222.660156 246.441406 224.195312 244.757812 C 225.433594 243.320312 227.066406 242.28125 228.304688 241.539062 C 229.148438 241.09375 229.691406 240.84375 230.632812 240.597656 C 232.019531 240.300781 234.148438 240.152344 235.832031 240.351562 C 237.566406 240.597656 239.597656 241.339844 240.882812 241.933594 C 241.824219 242.332031 242.269531 242.527344 243.0625 243.171875 C 244.398438 244.261719 247.371094 246.984375 247.816406 248.472656 C 248.015625 249.3125 247.71875 250.203125 247.371094 250.75 C 247.074219 251.195312 246.53125 251.441406 246.035156 251.589844 C 245.539062 251.691406 244.945312 251.691406 244.449219 251.441406 C 243.90625 251.144531 243.113281 250.304688 243.011719 249.660156 C 242.863281 248.964844 243.210938 247.925781 243.65625 247.429688 C 244.152344 246.9375 245.242188 246.6875 245.886719 246.738281 C 246.429688 246.789062 246.925781 247.132812 247.273438 247.53125 C 247.617188 247.878906 247.867188 248.472656 247.914062 248.964844 C 247.914062 249.460938 247.816406 250.105469 247.519531 250.5 C 247.125 251.046875 246.132812 251.589844 245.488281 251.640625 C 244.996094 251.738281 244.597656 251.542969 244.003906 251.195312 C 242.714844 250.453125 240.734375 247.429688 238.902344 246.441406 C 237.320312 245.597656 235.238281 245.300781 233.851562 245.253906 C 232.863281 245.203125 232.167969 245.253906 231.226562 245.648438 C 229.988281 246.195312 228.207031 247.628906 227.167969 248.917969 C 226.125 250.203125 225.234375 251.839844 224.988281 253.472656 C 224.691406 255.105469 225.035156 257.039062 225.484375 258.722656 C 225.929688 260.40625 226.324219 261.59375 227.660156 263.625 C 230.632812 268.03125 244.351562 279.421875 245.636719 282.542969 C 245.984375 283.335938 245.886719 283.78125 245.6875 284.273438 C 245.539062 284.820312 245.042969 285.363281 244.597656 285.660156 C 244.101562 285.910156 243.410156 286.058594 242.863281 285.910156 C 242.320312 285.808594 241.378906 284.96875 241.378906 284.96875 "/></clipPath><clipPath id="6fa1c59116"><path d="M 242.210938 240 L 270.535156 240 L 270.535156 286.632812 L 242.210938 286.632812 Z M 242.210938 240 "/></clipPath><clipPath id="b5db649323"><path d="M 243.359375 247.828125 C 246.183594 244.210938 246.777344 243.765625 247.667969 243.222656 C 248.855469 242.378906 250.441406 241.242188 252.222656 240.695312 C 254.453125 240.101562 257.917969 239.804688 260.195312 240.203125 C 261.980469 240.546875 263.464844 241.289062 264.800781 242.28125 C 266.140625 243.273438 267.277344 244.660156 268.171875 246.34375 C 269.210938 248.324219 270.050781 251.789062 270.300781 253.671875 C 270.449219 254.761719 270.449219 255.304688 270.300781 256.34375 C 270.101562 257.832031 269.65625 260.011719 269.011719 261.695312 C 268.320312 263.378906 267.574219 264.714844 266.335938 266.398438 C 264.652344 268.773438 262.179688 271.5 259.355469 274.320312 C 255.742188 277.984375 248.460938 284.917969 246.082031 286.15625 C 245.390625 286.503906 245.042969 286.554688 244.546875 286.554688 C 244.054688 286.503906 243.460938 286.304688 243.113281 285.910156 C 242.667969 285.414062 242.269531 284.375 242.320312 283.730469 C 242.371094 283.1875 242.667969 282.640625 243.011719 282.292969 C 243.410156 281.949219 243.953125 281.652344 244.449219 281.601562 C 244.945312 281.550781 245.589844 281.601562 245.984375 281.898438 C 246.53125 282.292969 247.125 283.234375 247.222656 283.878906 C 247.320312 284.425781 247.125 284.96875 246.875 285.414062 C 246.578125 285.808594 246.132812 286.257812 245.636719 286.40625 C 244.996094 286.554688 243.855469 286.40625 243.308594 286.058594 C 242.863281 285.808594 242.519531 285.316406 242.417969 284.769531 C 242.269531 284.125 242.320312 283.433594 242.863281 282.492188 C 244.300781 280.015625 252.074219 274.519531 255.34375 271.300781 C 257.574219 269.074219 259.257812 267.289062 260.792969 265.40625 C 262.128906 263.824219 263.367188 262.484375 264.109375 260.851562 C 264.851562 259.21875 265.199219 257.136719 265.347656 255.703125 C 265.445312 254.710938 265.445312 254.117188 265.25 253.175781 C 265 251.789062 264.207031 249.511719 263.515625 248.273438 C 262.96875 247.382812 262.375 246.738281 261.683594 246.195312 C 260.988281 245.648438 260.296875 245.253906 259.304688 245.054688 C 257.96875 244.808594 255.691406 244.855469 254.054688 245.351562 C 252.472656 245.796875 250.9375 246.789062 249.648438 247.828125 C 248.3125 248.867188 247.023438 251.144531 246.082031 251.589844 C 245.589844 251.789062 245.292969 251.691406 244.894531 251.589844 C 244.398438 251.441406 243.757812 251.046875 243.410156 250.648438 C 243.113281 250.203125 242.964844 249.414062 242.964844 248.917969 C 242.964844 248.519531 243.359375 247.828125 243.359375 247.828125 "/></clipPath></defs><g id="512c5f43ed"><g clip-rule="nonzero" clip-path="url(#0ca6ddb4bb)"><g clip-rule="nonzero" clip-path="url(#23fe3d468d)"><path style=" stroke:none;fill-rule:nonzero;fill:currentColor;fill-opacity:1;" d="M 52.949219 158.914062 L 78.632812 158.914062 L 78.632812 181.746094 L 52.949219 181.746094 Z M 52.949219 158.914062 "/></g></g><g clip-rule="nonzero" clip-path="url(#97e071a2c4)"><g clip-rule="nonzero" clip-path="url(#64c3d148c9)"><path style=" stroke:none;fill-rule:nonzero;fill:currentColor;fill-opacity:1;" d="M 68.253906 154.953125 L 174.933594 154.953125 L 174.933594 167.878906 L 68.253906 167.878906 Z M 68.253906 154.953125 "/></g></g><g clip-rule="nonzero" clip-path="url(#e9fb4e42b2)"><g clip-rule="nonzero" clip-path="url(#cc18cb8f48)"><path style=" stroke:none;fill-rule:nonzero;fill:currentColor;fill-opacity:1;" d="M 164.226562 113.304688 L 196.613281 113.304688 L 196.613281 163.65625 L 164.226562 163.65625 Z M 164.226562 113.304688 "/></g></g><g clip-rule="nonzero" clip-path="url(#2143ef588c)"><g clip-rule="nonzero" clip-path="url(#95daaa8e64)"><path style=" stroke:none;fill-rule:nonzero;fill:currentColor;fill-opacity:1;" d="M 108.859375 95.179688 L 195.621094 95.179688 L 195.621094 124.796875 L 108.859375 124.796875 Z M 108.859375 95.179688 "/></g></g><g clip-rule="nonzero" clip-path="url(#45730e9d52)"><g clip-rule="nonzero" clip-path="url(#8f16b1e93f)"><path style=" stroke:none;fill-rule:nonzero;fill:currentColor;fill-opacity:1;" d="M 59.339844 95.925781 L 121.199219 95.925781 L 121.199219 105.777344 L 59.339844 105.777344 Z M 59.339844 95.925781 "/></g></g><g clip-rule="nonzero" clip-path="url(#3116f53237)"><g clip-rule="nonzero" clip-path="url(#698ffce4cc)"><path style=" stroke:none;fill-rule:nonzero;fill:currentColor;fill-opacity:1;" d="M 49.929688 95.972656 L 79.675781 95.972656 L 79.675781 125.488281 L 49.929688 125.488281 Z M 49.929688 95.972656 "/></g></g><g clip-rule="nonzero" clip-path="url(#7bc1372aa2)"><g clip-rule="nonzero" clip-path="url(#5704355bc4)"><path style=" stroke:none;fill-rule:nonzero;fill:currentColor;fill-opacity:1;" d="M 37.5 70.273438 L 61.46875 70.273438 L 61.46875 113.433594 L 37.5 113.433594 Z M 37.5 70.273438 "/></g></g><g clip-rule="nonzero" clip-path="url(#c06059c01b)"><g clip-rule="nonzero" clip-path="url(#abc3061a39)"><path style=" stroke:none;fill-rule:nonzero;fill:currentColor;fill-opacity:1;" d="M 51.710938 58.882812 L 80.667969 58.882812 L 80.667969 81.761719 L 51.710938 81.761719 Z M 51.710938 58.882812 "/></g></g><g clip-rule="nonzero" clip-path="url(#83d95f77aa)"><g clip-rule="nonzero" clip-path="url(#833282e664)"><path style=" stroke:none;fill-rule:nonzero;fill:currentColor;fill-opacity:1;" d="M 58.101562 71.511719 L 110.980469 71.511719 L 110.980469 91.714844 L 58.101562 91.714844 Z M 58.101562 71.511719 "/></g></g><g clip-rule="nonzero" clip-path="url(#2c56a2631e)"><g clip-rule="nonzero" clip-path="url(#ab072682a2)"><path style=" stroke:none;fill-rule:nonzero;fill:currentColor;fill-opacity:1;" d="M 96.679688 80.671875 L 152.390625 80.671875 L 152.390625 90.179688 L 96.679688 90.179688 Z M 96.679688 80.671875 "/></g></g><g clip-rule="nonzero" clip-path="url(#036e46636a)"><g clip-rule="nonzero" clip-path="url(#6855be323d)"><path style=" stroke:none;fill-rule:nonzero;fill:currentColor;fill-opacity:1;" d="M 140.902344 80.769531 L 203.636719 80.769531 L 203.636719 107.808594 L 140.902344 107.808594 Z M 140.902344 80.769531 "/></g></g><g clip-rule="nonzero" clip-path="url(#096721c02b)"><g clip-rule="nonzero" clip-path="url(#45dcaf9159)"><path style=" stroke:none;fill-rule:nonzero;fill:currentColor;fill-opacity:1;" d="M 192.007812 95.378906 L 212.210938 95.378906 L 212.210938 156.308594 L 192.007812 156.308594 Z M 192.007812 95.378906 "/></g></g><g clip-rule="nonzero" clip-path="url(#4186d04b27)"><g clip-rule="nonzero" clip-path="url(#ae6aaf4ee5)"><path style=" stroke:none;fill-rule:nonzero;fill:currentColor;fill-opacity:1;" d="M 65.082031 172.980469 L 135.660156 172.980469 L 135.660156 182.636719 L 65.082031 182.636719 Z M 65.082031 172.980469 "/></g></g><g clip-rule="nonzero" clip-path="url(#d114c091e9)"><g clip-rule="nonzero" clip-path="url(#dcd6a55db0)"><path style=" stroke:none;fill-rule:nonzero;fill:currentColor;fill-opacity:1;" d="M 122.675781 163.371094 L 192.777344 163.371094 L 192.777344 182.585938 L 122.675781 182.585938 Z M 122.675781 163.371094 "/></g></g><g clip-rule="nonzero" clip-path="url(#43c855e7da)"><g clip-rule="nonzero" clip-path="url(#d359937dcc)"><path style=" stroke:none;fill-rule:nonzero;fill:currentColor;fill-opacity:1;" d="M 181.804688 141.136719 L 209.4375 141.136719 L 209.4375 173.628906 L 181.804688 173.628906 Z M 181.804688 141.136719 "/></g></g><g clip-rule="nonzero" clip-path="url(#597ad5529c)"><g clip-rule="nonzero" clip-path="url(#1df52c5fc8)"><path style=" stroke:none;fill-rule:nonzero;fill:currentColor;fill-opacity:1;" d="M 92.964844 104.886719 L 124.609375 104.886719 L 124.609375 154.457031 L 92.964844 154.457031 Z M 92.964844 104.886719 "/></g></g><g clip-rule="nonzero" clip-path="url(#18dadf3af9)"><g clip-rule="nonzero" clip-path="url(#c648c33c82)"><path style=" stroke:none;fill-rule:nonzero;fill:currentColor;fill-opacity:1;" d="M 115.050781 104.738281 L 146.992188 104.738281 L 146.992188 155.023438 L 115.050781 155.023438 Z M 115.050781 104.738281 "/></g></g><g clip-rule="nonzero" clip-path="url(#0fec48a180)"><g clip-rule="nonzero" clip-path="url(#3b9c0024fe)"><path style=" stroke:none;fill-rule:nonzero;fill:currentColor;fill-opacity:1;" d="M 178.238281 292.398438 L 203.921875 292.398438 L 203.921875 315.226562 L 178.238281 315.226562 Z M 178.238281 292.398438 "/></g></g><g clip-rule="nonzero" clip-path="url(#3e5a90e4ca)"><g clip-rule="nonzero" clip-path="url(#59c6e28238)"><path style=" stroke:none;fill-rule:nonzero;fill:currentColor;fill-opacity:1;" d="M 193.542969 288.433594 L 300.222656 288.433594 L 300.222656 301.359375 L 193.542969 301.359375 Z M 193.542969 288.433594 "/></g></g><g clip-rule="nonzero" clip-path="url(#e59b7ebc92)"><g clip-rule="nonzero" clip-path="url(#6416f1a518)"><path style=" stroke:none;fill-rule:nonzero;fill:currentColor;fill-opacity:1;" d="M 289.515625 246.789062 L 321.902344 246.789062 L 321.902344 297.140625 L 289.515625 297.140625 Z M 289.515625 246.789062 "/></g></g><g clip-rule="nonzero" clip-path="url(#aa514d39ac)"><g clip-rule="nonzero" clip-path="url(#a873ff4fd2)"><path style=" stroke:none;fill-rule:nonzero;fill:currentColor;fill-opacity:1;" d="M 234.148438 228.664062 L 320.90625 228.664062 L 320.90625 258.277344 L 234.148438 258.277344 Z M 234.148438 228.664062 "/></g></g><g clip-rule="nonzero" clip-path="url(#a5aa381d05)"><g clip-rule="nonzero" clip-path="url(#511253fd6e)"><path style=" stroke:none;fill-rule:nonzero;fill:currentColor;fill-opacity:1;" d="M 184.628906 229.40625 L 246.488281 229.40625 L 246.488281 239.261719 L 184.628906 239.261719 Z M 184.628906 229.40625 "/></g></g><g clip-rule="nonzero" clip-path="url(#a4694ffd77)"><g clip-rule="nonzero" clip-path="url(#22e3d081ce)"><path style=" stroke:none;fill-rule:nonzero;fill:currentColor;fill-opacity:1;" d="M 175.21875 229.457031 L 204.964844 229.457031 L 204.964844 258.96875 L 175.21875 258.96875 Z M 175.21875 229.457031 "/></g></g><g clip-rule="nonzero" clip-path="url(#f7739be0d2)"><g clip-rule="nonzero" clip-path="url(#c988426bd9)"><path style=" stroke:none;fill-rule:nonzero;fill:currentColor;fill-opacity:1;" d="M 162.789062 203.753906 L 186.757812 203.753906 L 186.757812 246.914062 L 162.789062 246.914062 Z M 162.789062 203.753906 "/></g></g><g clip-rule="nonzero" clip-path="url(#528de2d5f3)"><g clip-rule="nonzero" clip-path="url(#e8da9bf5cd)"><path style=" stroke:none;fill-rule:nonzero;fill:currentColor;fill-opacity:1;" d="M 177 192.363281 L 205.957031 192.363281 L 205.957031 215.242188 L 177 215.242188 Z M 177 192.363281 "/></g></g><g clip-rule="nonzero" clip-path="url(#3d9a569bd7)"><g clip-rule="nonzero" clip-path="url(#5a119976e9)"><path style=" stroke:none;fill-rule:nonzero;fill:currentColor;fill-opacity:1;" d="M 183.390625 204.992188 L 236.269531 204.992188 L 236.269531 225.195312 L 183.390625 225.195312 Z M 183.390625 204.992188 "/></g></g><g clip-rule="nonzero" clip-path="url(#4efc2af0f0)"><g clip-rule="nonzero" clip-path="url(#87973ec16f)"><path style=" stroke:none;fill-rule:nonzero;fill:currentColor;fill-opacity:1;" d="M 221.964844 214.152344 L 277.679688 214.152344 L 277.679688 223.660156 L 221.964844 223.660156 Z M 221.964844 214.152344 "/></g></g><g clip-rule="nonzero" clip-path="url(#155d5a24bb)"><g clip-rule="nonzero" clip-path="url(#791f787244)"><path style=" stroke:none;fill-rule:nonzero;fill:currentColor;fill-opacity:1;" d="M 266.1875 214.253906 L 328.925781 214.253906 L 328.925781 241.289062 L 266.1875 241.289062 Z M 266.1875 214.253906 "/></g></g><g clip-rule="nonzero" clip-path="url(#6db303897b)"><g clip-rule="nonzero" clip-path="url(#40f5f875f2)"><path style=" stroke:none;fill-rule:nonzero;fill:currentColor;fill-opacity:1;" d="M 317.296875 228.859375 L 337.5 228.859375 L 337.5 289.789062 L 317.296875 289.789062 Z M 317.296875 228.859375 "/></g></g><g clip-rule="nonzero" clip-path="url(#5c0ca06fa0)"><g clip-rule="nonzero" clip-path="url(#08e72d0ad7)"><path style=" stroke:none;fill-rule:nonzero;fill:currentColor;fill-opacity:1;" d="M 190.371094 306.460938 L 260.949219 306.460938 L 260.949219 316.117188 L 190.371094 316.117188 Z M 190.371094 306.460938 "/></g></g><g clip-rule="nonzero" clip-path="url(#083993d8d5)"><g clip-rule="nonzero" clip-path="url(#14c060b4cf)"><path style=" stroke:none;fill-rule:nonzero;fill:currentColor;fill-opacity:1;" d="M 247.964844 296.855469 L 318.066406 296.855469 L 318.066406 316.066406 L 247.964844 316.066406 Z M 247.964844 296.855469 "/></g></g><g clip-rule="nonzero" clip-path="url(#b0f4a09e1b)"><g clip-rule="nonzero" clip-path="url(#3de90a58fe)"><path style=" stroke:none;fill-rule:nonzero;fill:currentColor;fill-opacity:1;" d="M 307.09375 274.617188 L 334.726562 274.617188 L 334.726562 307.109375 L 307.09375 307.109375 Z M 307.09375 274.617188 "/></g></g><g clip-rule="nonzero" clip-path="url(#c909a65827)"><g clip-rule="nonzero" clip-path="url(#1c550bf06b)"><path style=" stroke:none;fill-rule:nonzero;fill:currentColor;fill-opacity:1;" d="M 218.253906 238.367188 L 249.898438 238.367188 L 249.898438 287.9375 L 218.253906 287.9375 Z M 218.253906 238.367188 "/></g></g><g clip-rule="nonzero" clip-path="url(#6fa1c59116)"><g clip-rule="nonzero" clip-path="url(#b5db649323)"><path style=" stroke:none;fill-rule:nonzero;fill:currentColor;fill-opacity:1;" d="M 240.339844 238.21875 L 272.28125 238.21875 L 272.28125 288.503906 L 240.339844 288.503906 Z M 240.339844 238.21875 "/></g></g></g></svg>