<svg xmlns="http://www.w3.org/2000/svg" xmlns:xlink="http://www.w3.org/1999/xlink" width="500" zoomAndPan="magnify" viewBox="0 0 375 374.999991" height="500" preserveAspectRatio="xMidYMid meet" version="1.2"><defs><clipPath id="b91aa69d07"><path d="M 80.160156 171.8125 L 154.621094 171.8125 L 154.621094 213.800781 L 80.160156 213.800781 Z M 80.160156 171.8125 "/></clipPath><clipPath id="a19c9f0e75"><path d="M 147 210.261719 C 144.75 196.085938 142.273438 190.914062 140.699219 188.4375 C 139.875 187.085938 139.574219 186.488281 138.300781 185.511719 C 136.050781 183.789062 131.324219 181.164062 127.199219 180.1875 C 122.476562 178.988281 114.675781 178.988281 111.226562 179.4375 C 109.425781 179.738281 108.824219 180.113281 107.398438 180.710938 C 105.300781 181.539062 102.976562 182.738281 100.125 184.386719 C 95.773438 186.863281 87.675781 194.210938 84.300781 194.585938 C 82.875 194.664062 81.75 193.914062 81.074219 193.238281 C 80.476562 192.636719 80.175781 191.8125 80.175781 190.988281 C 80.175781 190.011719 80.851562 188.4375 81.675781 187.835938 C 82.5 187.238281 84.148438 187.011719 85.125 187.238281 C 85.875 187.460938 86.625 188.136719 87 188.738281 C 87.449219 189.335938 87.75 190.238281 87.675781 191.0625 C 87.523438 192.039062 86.625 193.460938 85.800781 194.0625 C 85.199219 194.511719 84.226562 194.664062 83.476562 194.511719 C 82.726562 194.4375 81.898438 194.0625 81.300781 193.539062 C 80.773438 193.011719 80.25 192.1875 80.175781 191.4375 C 80.101562 190.460938 80.398438 189.335938 81.375 188.0625 C 83.476562 185.289062 91.5 180.636719 96.226562 177.9375 C 100.050781 175.761719 103.351562 173.664062 107.175781 172.6875 C 110.925781 171.710938 114.976562 171.863281 118.875 172.011719 C 122.851562 172.164062 126.976562 172.238281 130.800781 173.363281 C 134.625 174.488281 139.199219 177.113281 141.675781 178.761719 C 143.101562 179.664062 143.625 180.113281 144.75 181.460938 C 146.625 183.710938 149.625 188.664062 151.125 191.960938 C 152.324219 194.664062 152.925781 196.835938 153.449219 199.613281 C 154.125 202.914062 154.949219 208.386719 154.425781 210.636719 C 154.125 211.761719 153.675781 212.4375 153 212.886719 C 152.398438 213.414062 151.351562 213.789062 150.523438 213.710938 C 149.699219 213.710938 148.648438 213.261719 148.050781 212.664062 C 147.449219 212.0625 147 210.261719 147 210.261719 "/></clipPath><clipPath id="5d1ee5e7b8"><path d="M 40.203125 184.390625 L 92.246094 184.390625 L 92.246094 292.082031 L 40.203125 292.082031 Z M 40.203125 184.390625 "/></clipPath><clipPath id="889cf39284"><path d="M 90.148438 191.363281 C 82.050781 197.960938 76.726562 203.960938 72.449219 209.738281 C 67.273438 216.789062 61.273438 225.789062 57.300781 234.5625 C 53.324219 243.1875 50.175781 253.3125 48.675781 261.863281 C 47.476562 269.136719 47.699219 277.539062 47.925781 282.488281 C 48.074219 285.261719 49.273438 287.363281 48.75 289.011719 C 48.449219 290.210938 47.476562 291.261719 46.574219 291.710938 C 45.75 292.085938 44.699219 292.085938 43.875 291.789062 C 42.976562 291.414062 41.851562 290.210938 41.476562 289.238281 C 41.25 288.414062 41.324219 287.289062 41.773438 286.539062 C 42.226562 285.710938 43.648438 284.738281 44.625 284.511719 C 45.375 284.363281 46.351562 284.585938 46.949219 284.960938 C 47.625 285.335938 48.300781 286.085938 48.601562 286.761719 C 48.898438 287.4375 48.898438 288.414062 48.75 289.164062 C 48.601562 289.914062 48.148438 290.738281 47.476562 291.1875 C 46.648438 291.710938 44.925781 292.011719 44.023438 291.789062 C 43.199219 291.636719 42.523438 291.039062 42.074219 290.363281 C 41.625 289.761719 41.324219 288.863281 41.398438 288.113281 C 41.398438 287.363281 41.699219 286.460938 42.226562 285.863281 C 42.675781 285.261719 43.425781 284.738281 44.25 284.585938 C 45.226562 284.4375 46.875 284.738281 47.625 285.414062 C 48.375 286.164062 48.675781 288.789062 48.824219 288.710938 C 48.898438 288.710938 48.75 287.210938 48.75 287.210938 C 48.675781 287.210938 48.824219 289.085938 48.523438 289.835938 C 48.148438 290.585938 47.398438 291.414062 46.574219 291.710938 C 45.601562 292.011719 43.949219 291.863281 43.125 291.414062 C 42.300781 290.960938 41.925781 290.136719 41.476562 289.238281 C 41.023438 288.113281 40.726562 286.988281 40.5 285.1875 C 40.050781 281.585938 40.273438 274.238281 40.574219 269.363281 C 40.875 265.085938 41.023438 261.9375 41.925781 257.363281 C 43.351562 250.914062 45.675781 242.136719 49.199219 234.1875 C 53.25 225.039062 60.074219 213.9375 66 205.835938 C 71.023438 198.9375 77.773438 191.4375 81.75 187.988281 C 83.699219 186.261719 85.125 185.210938 86.699219 184.6875 C 87.898438 184.386719 89.324219 184.238281 90.226562 184.761719 C 91.125 185.210938 91.949219 186.710938 92.175781 187.613281 C 92.324219 188.210938 92.175781 188.8125 91.949219 189.414062 C 91.648438 190.085938 90.148438 191.363281 90.148438 191.363281 "/></clipPath><clipPath id="22cb5fb83e"><path d="M 40.71875 278 L 127.707031 278 L 127.707031 315.042969 L 40.71875 315.042969 Z M 40.71875 278 "/></clipPath><clipPath id="889988ff63"><path d="M 48.375 282.9375 C 49.273438 290.210938 49.648438 291.039062 50.324219 292.6875 C 51.523438 295.3125 54.148438 301.011719 56.023438 303.1875 C 57.074219 304.386719 58.050781 304.988281 59.175781 305.585938 C 60.300781 306.1875 61.273438 306.5625 62.851562 306.863281 C 65.625 307.386719 70.875 307.761719 74.773438 307.386719 C 78.675781 307.011719 82.050781 306.335938 86.175781 304.761719 C 91.574219 302.738281 98.699219 298.6875 103.949219 295.238281 C 108.601562 292.164062 113.023438 288.5625 116.175781 285.414062 C 118.574219 283.085938 120.226562 279.5625 121.875 278.585938 C 122.699219 278.0625 123.449219 277.988281 124.199219 278.0625 C 124.949219 278.136719 125.851562 278.511719 126.375 279.113281 C 127.050781 279.789062 127.648438 281.363281 127.5 282.414062 C 127.351562 283.460938 126.300781 284.738281 125.398438 285.1875 C 124.425781 285.636719 122.773438 285.5625 121.875 285.039062 C 120.976562 284.511719 120.226562 283.011719 120.074219 282.039062 C 119.925781 281.210938 120.300781 280.3125 120.675781 279.710938 C 121.125 279.113281 121.800781 278.4375 122.625 278.289062 C 123.523438 277.988281 125.25 278.210938 126.074219 278.8125 C 126.898438 279.414062 127.5 281.0625 127.574219 282.039062 C 127.574219 282.789062 127.199219 283.3125 126.675781 284.210938 C 125.625 286.085938 123.074219 289.238281 120.523438 291.789062 C 117.226562 295.011719 112.351562 298.6875 107.925781 301.613281 C 103.574219 304.539062 98.101562 307.460938 94.125 309.414062 C 91.351562 310.835938 89.476562 311.8125 86.625 312.636719 C 83.175781 313.6875 78.75 314.585938 74.773438 314.886719 C 70.800781 315.1875 65.773438 314.960938 62.851562 314.511719 C 61.125 314.289062 60.148438 313.914062 58.800781 313.460938 C 57.375 313.011719 56.101562 312.5625 54.75 311.585938 C 52.875 310.386719 50.625 308.738281 48.824219 306.335938 C 46.273438 302.960938 43.5 296.4375 42.226562 292.386719 C 41.324219 289.460938 40.949219 286.6875 40.875 284.585938 C 40.875 283.238281 40.800781 282.113281 41.324219 281.210938 C 41.851562 280.3125 43.199219 279.414062 44.175781 279.261719 C 45 279.113281 46.125 279.335938 46.800781 279.863281 C 47.550781 280.460938 48.375 282.9375 48.375 282.9375 "/></clipPath><clipPath id="60e7c81c1e"><path d="M 115.664062 236.675781 L 149.386719 236.675781 L 149.386719 291.746094 L 115.664062 291.746094 Z M 115.664062 236.675781 "/></clipPath><clipPath id="555a220523"><path d="M 116.25 286.011719 C 135.976562 257.738281 137.175781 254.210938 138.75 250.164062 C 140.324219 246.113281 141.226562 239.8125 142.800781 238.011719 C 143.398438 237.1875 144.074219 236.886719 144.898438 236.8125 C 145.800781 236.738281 147.449219 237.261719 148.199219 237.863281 C 148.800781 238.386719 149.175781 239.289062 149.25 240.039062 C 149.398438 240.789062 149.25 241.6875 148.800781 242.363281 C 148.273438 243.1875 146.851562 244.164062 145.800781 244.238281 C 144.824219 244.3125 143.25 243.636719 142.648438 242.8125 C 141.976562 242.0625 141.75 240.335938 141.976562 239.363281 C 142.125 238.613281 142.800781 237.863281 143.398438 237.488281 C 144 237.039062 144.898438 236.738281 145.648438 236.738281 C 146.398438 236.8125 147.375 237.039062 147.898438 237.636719 C 148.648438 238.3125 149.175781 239.363281 149.25 240.863281 C 149.476562 243.710938 147.074219 249.5625 145.351562 253.988281 C 143.476562 258.863281 141.375 263.511719 138.226562 268.761719 C 134.175781 275.511719 125.324219 287.960938 122.101562 290.585938 C 121.050781 291.414062 120.449219 291.636719 119.625 291.710938 C 118.800781 291.710938 117.75 291.414062 117.148438 290.886719 C 116.476562 290.363281 115.875 289.386719 115.726562 288.636719 C 115.574219 287.8125 116.25 286.011719 116.25 286.011719 "/></clipPath><clipPath id="60ba4a93b9"><path d="M 65.332031 236.667969 L 128.828125 236.667969 L 128.828125 290.429688 L 65.332031 290.429688 Z M 65.332031 236.667969 "/></clipPath><clipPath id="3e0f33611f"><path d="M 128.175781 242.664062 C 114.898438 264.414062 113.925781 265.613281 111.976562 268.011719 C 109.125 271.386719 104.773438 276.488281 101.101562 279.789062 C 97.875 282.710938 95.023438 285.335938 91.5 287.0625 C 88.050781 288.789062 83.625 289.835938 80.175781 290.210938 C 77.398438 290.4375 74.324219 290.363281 72.449219 289.539062 C 71.101562 288.9375 70.273438 287.886719 69.523438 286.835938 C 68.699219 285.789062 68.101562 284.738281 67.574219 283.164062 C 66.75 280.914062 65.476562 276.1875 65.550781 274.238281 C 65.625 273.1875 65.851562 272.585938 66.226562 271.914062 C 66.675781 271.3125 67.425781 270.710938 68.175781 270.5625 C 69.148438 270.335938 70.875 270.636719 71.625 271.164062 C 72.300781 271.613281 72.824219 272.363281 72.976562 273.1875 C 73.125 274.164062 72.824219 275.8125 72.148438 276.5625 C 71.398438 277.386719 69.824219 277.988281 68.851562 277.835938 C 67.800781 277.6875 66.449219 276.636719 65.925781 275.8125 C 65.550781 275.136719 65.476562 274.164062 65.625 273.414062 C 65.773438 272.664062 66.226562 271.835938 66.824219 271.3125 C 67.351562 270.789062 68.25 270.414062 69 270.335938 C 69.75 270.335938 70.648438 270.5625 71.324219 270.9375 C 71.925781 271.3125 72.375 271.914062 72.824219 272.8125 C 73.574219 274.386719 73.351562 278.664062 74.476562 280.3125 C 75.300781 281.585938 76.726562 282.414062 78 282.710938 C 79.125 283.011719 80.25 282.636719 81.75 282.335938 C 83.851562 281.886719 86.773438 281.136719 89.25 279.710938 C 92.324219 277.988281 95.25 274.988281 98.25 272.0625 C 101.773438 268.539062 105.300781 264.710938 108.898438 259.914062 C 113.398438 253.835938 119.476562 240.414062 122.550781 237.863281 C 123.523438 237.039062 124.199219 236.886719 125.023438 236.886719 C 125.851562 236.886719 126.898438 237.261719 127.5 237.789062 C 128.175781 238.3125 128.699219 239.289062 128.773438 240.113281 C 128.925781 240.9375 128.175781 242.664062 128.175781 242.664062 "/></clipPath><clipPath id="522127b368"><path d="M 65.734375 195 L 135.566406 195 L 135.566406 281.328125 L 65.734375 281.328125 Z M 65.734375 195 "/></clipPath><clipPath id="caec5d0fab"><path d="M 66.601562 277.613281 C 65.773438 261.636719 65.550781 259.835938 66.226562 256.6875 C 67.351562 251.511719 71.101562 241.835938 73.425781 237.113281 C 74.851562 234.113281 75.824219 232.914062 77.699219 230.210938 C 80.773438 225.9375 86.550781 218.738281 90.375 214.238281 C 93.300781 210.863281 95.550781 208.3125 98.550781 205.613281 C 101.550781 202.835938 105.226562 199.6875 108.449219 197.960938 C 111.148438 196.539062 114.074219 195.710938 116.25 195.261719 C 117.824219 195.039062 119.023438 195.113281 120.375 195.261719 C 121.726562 195.414062 123 195.488281 124.425781 196.164062 C 126.375 196.988281 129.148438 199.238281 130.726562 200.664062 C 131.925781 201.789062 132.675781 202.6875 133.425781 203.8125 C 134.101562 204.9375 134.550781 206.0625 134.925781 207.414062 C 135.300781 209.0625 135.75 211.539062 135.449219 213.1875 C 135.226562 214.386719 134.550781 215.664062 133.800781 216.261719 C 133.199219 216.789062 132.300781 216.9375 131.550781 216.9375 C 130.800781 216.863281 129.898438 216.636719 129.300781 216.039062 C 128.625 215.363281 127.875 213.789062 127.949219 212.8125 C 128.101562 211.761719 129 210.335938 129.898438 209.886719 C 130.875 209.363281 132.523438 209.363281 133.425781 209.886719 C 134.324219 210.335938 135.300781 211.6875 135.449219 212.738281 C 135.523438 213.789062 134.851562 215.363281 134.175781 216.039062 C 133.574219 216.5625 132.675781 216.863281 131.925781 216.9375 C 131.175781 216.9375 130.273438 216.710938 129.601562 216.261719 C 129 215.886719 128.625 215.289062 128.175781 214.386719 C 127.273438 212.664062 127.050781 208.238281 125.925781 206.363281 C 125.101562 205.164062 124.125 204.414062 123 203.8125 C 121.875 203.210938 120.375 202.914062 119.101562 202.761719 C 117.824219 202.6875 116.476562 202.835938 115.199219 203.136719 C 114 203.511719 113.023438 203.960938 111.675781 204.710938 C 109.875 205.761719 107.476562 207.488281 105.300781 209.4375 C 102.675781 211.761719 100.273438 214.3125 97.199219 217.914062 C 92.398438 223.460938 84 233.664062 80.25 240.1875 C 77.699219 244.6875 76.5 248.664062 75.226562 252.335938 C 74.324219 255.261719 73.574219 257.136719 73.273438 260.4375 C 72.675781 265.386719 74.925781 276.488281 73.648438 279.335938 C 73.199219 280.386719 72.449219 280.761719 71.699219 281.0625 C 70.875 281.363281 69.75 281.289062 69 281.0625 C 68.398438 280.914062 67.949219 280.539062 67.5 280.085938 C 67.050781 279.488281 66.601562 277.613281 66.601562 277.613281 "/></clipPath><clipPath id="298082af26"><path d="M 97.570312 209.582031 L 188.613281 209.582031 L 188.613281 241.53125 L 97.570312 241.53125 Z M 97.570312 209.582031 "/></clipPath><clipPath id="c5b70345be"><path d="M 104.773438 211.6875 C 117.449219 228.5625 119.101562 230.4375 120.824219 231.636719 C 122.101562 232.539062 122.773438 232.914062 124.351562 233.289062 C 127.050781 233.886719 131.476562 234.039062 135.976562 233.511719 C 142.351562 232.761719 153 228.863281 158.625 227.8125 C 162 227.210938 163.800781 227.511719 166.648438 226.914062 C 170.175781 226.164062 174.976562 224.585938 178.125 223.3125 C 180.523438 222.414062 182.625 220.6875 184.199219 220.460938 C 185.101562 220.3125 185.851562 220.460938 186.523438 220.835938 C 187.199219 221.136719 187.949219 221.8125 188.25 222.5625 C 188.550781 223.460938 188.476562 225.1875 188.101562 226.011719 C 187.726562 226.761719 186.976562 227.363281 186.300781 227.585938 C 185.550781 227.886719 184.648438 228.039062 183.898438 227.8125 C 183 227.4375 181.726562 226.3125 181.273438 225.414062 C 180.976562 224.664062 181.050781 223.761719 181.273438 223.011719 C 181.5 222.261719 182.101562 221.511719 182.699219 221.0625 C 183.300781 220.613281 184.199219 220.386719 185.023438 220.386719 C 185.773438 220.460938 186.675781 220.761719 187.199219 221.289062 C 187.800781 221.738281 188.324219 222.5625 188.476562 223.3125 C 188.699219 224.0625 188.550781 224.960938 188.25 225.710938 C 187.949219 226.386719 187.5 226.835938 186.675781 227.4375 C 184.800781 228.789062 181.050781 230.363281 176.398438 231.9375 C 167.699219 234.789062 146.699219 239.738281 137.324219 240.863281 C 132.148438 241.460938 128.625 241.613281 125.101562 241.011719 C 122.175781 240.5625 119.398438 239.511719 117.523438 238.460938 C 116.175781 237.710938 115.648438 237.1875 114.300781 235.914062 C 111.300781 232.988281 104.023438 224.4375 101.175781 220.386719 C 99.523438 217.988281 98.101562 215.960938 97.800781 214.238281 C 97.574219 213.261719 97.800781 212.363281 98.175781 211.613281 C 98.398438 211.085938 98.773438 210.636719 99.375 210.335938 C 99.976562 209.886719 101.101562 209.511719 101.925781 209.664062 C 102.898438 209.886719 104.773438 211.6875 104.773438 211.6875 "/></clipPath><clipPath id="2f29180ac3"><path d="M 130.277344 201.785156 L 204.25 201.785156 L 204.25 233.363281 L 130.277344 233.363281 Z M 130.277344 201.785156 "/></clipPath><clipPath id="779ddad84e"><path d="M 133.949219 212.136719 C 148.574219 210.863281 173.25 201.414062 180.148438 201.863281 C 182.625 202.085938 184.351562 202.835938 185.175781 203.960938 C 185.851562 204.9375 185.773438 206.511719 185.398438 207.9375 C 184.800781 209.960938 182.023438 214.386719 180.75 214.386719 C 179.925781 214.386719 178.5 212.210938 178.648438 211.3125 C 178.726562 210.335938 180.074219 209.210938 181.574219 208.613281 C 184.199219 207.5625 191.175781 208.011719 194.101562 208.238281 C 195.75 208.386719 196.949219 208.3125 197.851562 209.0625 C 198.824219 209.886719 199.800781 212.0625 199.574219 213.335938 C 199.425781 214.539062 198.226562 215.511719 197.023438 216.488281 C 195.375 217.835938 190.949219 220.761719 190.199219 220.164062 C 189.601562 219.789062 190.273438 217.164062 190.949219 216.039062 C 191.550781 214.988281 192.675781 213.863281 193.800781 213.5625 C 195 213.1875 196.5 213.789062 197.773438 214.164062 C 199.050781 214.460938 200.476562 214.835938 201.523438 215.585938 C 202.574219 216.414062 204 217.6875 204.148438 218.886719 C 204.300781 220.238281 203.476562 221.886719 202.050781 223.238281 C 199.425781 225.789062 191.699219 228.113281 186.449219 229.761719 C 181.425781 231.335938 174.523438 233.210938 171.300781 233.136719 C 169.800781 233.136719 168.675781 232.835938 167.925781 232.238281 C 167.324219 231.789062 166.949219 230.886719 166.800781 230.136719 C 166.648438 229.386719 166.800781 228.488281 167.175781 227.8125 C 167.476562 227.136719 168.148438 226.386719 168.898438 226.085938 C 169.800781 225.789062 171.523438 225.789062 172.351562 226.3125 C 173.25 226.835938 174.074219 228.335938 174.226562 229.238281 C 174.375 230.0625 174.074219 230.960938 173.625 231.5625 C 173.023438 232.3125 171.449219 233.136719 170.550781 233.289062 C 169.726562 233.363281 168.824219 232.988281 168.226562 232.539062 C 167.625 232.085938 167.101562 231.261719 166.875 230.511719 C 166.648438 229.835938 166.726562 228.863281 166.949219 228.1875 C 167.25 227.4375 167.550781 226.914062 168.523438 226.3125 C 171 224.8125 180.300781 223.914062 184.726562 222.335938 C 187.949219 221.210938 190.5 219.261719 192.824219 218.511719 C 194.550781 217.988281 196.5 217.164062 197.324219 217.761719 C 198.074219 218.363281 198.300781 221.511719 197.699219 222.039062 C 197.101562 222.5625 195.375 221.210938 193.875 221.0625 C 191.773438 220.6875 187.648438 221.886719 186.148438 220.835938 C 184.875 219.9375 184.050781 217.539062 184.351562 216.1875 C 184.726562 214.914062 186.675781 213.710938 188.023438 212.886719 C 189.375 212.136719 191.550781 210.9375 192.300781 211.460938 C 193.125 211.988281 193.5 215.0625 192.675781 215.960938 C 191.550781 217.164062 186.898438 215.8125 183.976562 216.113281 C 181.050781 216.414062 176.851562 218.8125 175.050781 217.835938 C 173.699219 217.164062 172.875 214.835938 173.101562 213.113281 C 173.324219 210.9375 177.148438 205.914062 178.050781 206.0625 C 178.726562 206.210938 179.398438 209.0625 178.949219 209.960938 C 178.5 210.789062 177.074219 210.636719 175.199219 211.164062 C 169.949219 212.738281 151.273438 217.613281 144.375 218.8125 C 140.851562 219.414062 138.601562 219.636719 136.351562 219.636719 C 134.773438 219.636719 133.273438 219.789062 132.226562 219.261719 C 131.398438 218.8125 130.726562 218.0625 130.5 217.238281 C 130.199219 216.261719 130.351562 214.613281 130.875 213.789062 C 131.476562 212.960938 133.949219 212.136719 133.949219 212.136719 "/></clipPath><clipPath id="33d3ea3fc4"><path d="M 119.1875 146 L 176.402344 146 L 176.402344 175.152344 L 119.1875 175.152344 Z M 119.1875 146 "/></clipPath><clipPath id="9919dacea3"><path d="M 120.75 168.414062 C 143.625 154.085938 155.699219 149.886719 162.75 148.011719 C 167.175781 146.886719 171.675781 145.835938 173.773438 146.363281 C 174.75 146.585938 175.273438 147.1875 175.726562 147.789062 C 176.101562 148.386719 176.476562 149.289062 176.324219 150.113281 C 176.175781 151.085938 175.425781 152.585938 174.523438 153.113281 C 173.625 153.636719 171.976562 153.710938 171 153.261719 C 170.101562 152.886719 169.050781 151.539062 168.898438 150.488281 C 168.75 149.511719 169.351562 147.863281 170.023438 147.1875 C 170.550781 146.585938 171.449219 146.210938 172.199219 146.136719 C 172.949219 146.0625 173.851562 146.210938 174.523438 146.664062 C 175.351562 147.261719 176.25 148.6875 176.324219 149.664062 C 176.398438 150.710938 175.949219 151.988281 174.898438 152.886719 C 172.574219 154.835938 164.851562 155.210938 159.898438 156.789062 C 154.875 158.363281 149.023438 160.539062 144.898438 162.261719 C 141.824219 163.539062 140.023438 164.210938 137.175781 165.789062 C 133.199219 168.039062 126.523438 174.414062 123.675781 175.011719 C 122.550781 175.3125 121.800781 175.011719 121.050781 174.5625 C 120.375 174.113281 119.699219 173.136719 119.476562 172.460938 C 119.25 171.863281 119.175781 171.261719 119.324219 170.664062 C 119.550781 169.914062 120.75 168.414062 120.75 168.414062 "/></clipPath><clipPath id="8232a6fe42"><path d="M 141.320312 167.179688 L 186.621094 167.179688 L 186.621094 186 L 141.320312 186 Z M 141.320312 167.179688 "/></clipPath><clipPath id="65b016b8a4"><path d="M 145.050781 178.386719 C 152.699219 178.164062 153.449219 177.9375 155.476562 177.261719 C 160.574219 175.6875 177.898438 167.886719 182.023438 167.363281 C 183.148438 167.210938 183.675781 167.210938 184.351562 167.585938 C 185.25 168.113281 186.226562 169.460938 186.449219 170.4375 C 186.675781 171.1875 186.449219 172.085938 186.074219 172.761719 C 185.699219 173.4375 185.101562 174.113281 184.351562 174.414062 C 183.449219 174.710938 181.726562 174.636719 180.824219 174.1875 C 180.148438 173.886719 179.550781 173.136719 179.324219 172.386719 C 179.023438 171.488281 179.101562 169.761719 179.699219 168.863281 C 180.300781 168.039062 181.800781 167.363281 182.773438 167.289062 C 183.601562 167.210938 184.425781 167.585938 185.101562 168.039062 C 185.699219 168.488281 186.226562 169.3125 186.375 169.988281 C 186.601562 170.738281 186.523438 171.710938 186.300781 172.386719 C 186 173.136719 185.699219 173.511719 184.726562 174.261719 C 181.125 176.738281 160.800781 183.710938 155.398438 185.210938 C 153.375 185.738281 152.773438 185.738281 151.125 185.886719 C 148.949219 185.960938 144.898438 186.1875 143.324219 185.4375 C 142.351562 184.988281 141.824219 184.238281 141.523438 183.414062 C 141.226562 182.664062 141.300781 181.539062 141.523438 180.789062 C 141.75 180.1875 142.050781 179.664062 142.574219 179.289062 C 143.175781 178.835938 145.050781 178.386719 145.050781 178.386719 "/></clipPath><clipPath id="2b57a7e2a5"><path d="M 167.4375 145.25 L 186.886719 145.25 L 186.886719 174.574219 L 167.4375 174.574219 Z M 167.4375 145.25 "/></clipPath><clipPath id="b6614a13c4"><path d="M 181.425781 174.488281 C 171 168.789062 169.648438 165.789062 170.324219 164.136719 C 171.074219 162.335938 175.800781 160.238281 177.675781 160.460938 C 179.023438 160.613281 180.898438 162.789062 180.75 163.164062 C 180.601562 163.460938 178.125 162.863281 176.925781 162.414062 C 175.726562 161.960938 174.226562 161.511719 173.476562 160.460938 C 172.5 159.113281 171.675781 155.886719 172.273438 154.539062 C 172.726562 153.488281 174.601562 152.511719 175.648438 152.664062 C 177 152.8125 179.699219 155.8125 179.476562 156.335938 C 179.324219 156.789062 176.925781 156.5625 175.726562 156.261719 C 174.449219 156.039062 173.398438 155.4375 172.199219 154.6875 C 170.773438 153.710938 168.523438 152.210938 167.851562 150.789062 C 167.398438 149.664062 167.476562 148.164062 167.925781 147.261719 C 168.226562 146.511719 168.976562 145.914062 169.648438 145.613281 C 170.324219 145.3125 171.300781 145.238281 172.050781 145.386719 C 172.800781 145.539062 173.625 145.988281 174.074219 146.664062 C 174.675781 147.414062 174.976562 149.136719 174.824219 150.039062 C 174.675781 150.863281 174.148438 151.613281 173.476562 152.0625 C 172.648438 152.585938 170.925781 152.8125 169.949219 152.585938 C 169.199219 152.363281 168.523438 151.761719 168.074219 151.085938 C 167.699219 150.488281 167.398438 149.585938 167.476562 148.835938 C 167.476562 148.085938 167.851562 147.1875 168.375 146.585938 C 168.824219 145.988281 169.648438 145.539062 170.398438 145.386719 C 171.148438 145.238281 171.976562 145.3125 172.800781 145.613281 C 174.074219 146.136719 175.574219 148.460938 177.074219 148.988281 C 178.351562 149.4375 179.699219 148.835938 180.898438 149.136719 C 182.101562 149.511719 183.675781 150.113281 184.273438 151.164062 C 184.949219 152.363281 184.875 154.835938 184.273438 156.1875 C 183.675781 157.386719 182.324219 158.738281 181.125 159.039062 C 180 159.414062 177.523438 159.039062 177.300781 158.4375 C 177.074219 157.835938 178.800781 155.738281 179.851562 155.4375 C 180.898438 155.0625 182.476562 155.738281 183.523438 156.261719 C 184.726562 156.9375 186.300781 157.988281 186.675781 159.1875 C 187.050781 160.386719 186.601562 162.261719 185.699219 163.539062 C 184.574219 165.335938 181.125 167.511719 179.175781 168.113281 C 177.75 168.5625 175.5 168.5625 175.273438 168.039062 C 175.050781 167.585938 176.851562 165.414062 178.050781 165.1875 C 179.773438 164.886719 183.601562 166.914062 184.875 168.113281 C 185.625 168.789062 186 169.613281 186.074219 170.4375 C 186.148438 171.261719 185.773438 172.386719 185.398438 173.0625 C 185.101562 173.585938 184.648438 173.960938 184.050781 174.1875 C 183.375 174.488281 181.425781 174.488281 181.425781 174.488281 "/></clipPath><clipPath id="e1418cf4f6"><path d="M 219.414062 209.175781 L 242.699219 209.175781 L 242.699219 234 L 219.414062 234 Z M 219.414062 209.175781 "/></clipPath><clipPath id="c0ba5e0520"><path d="M 225.074219 230.738281 C 220.574219 225.414062 220.199219 224.511719 219.898438 223.011719 C 219.449219 220.761719 219.148438 216.488281 219.824219 214.386719 C 220.273438 212.960938 221.101562 212.0625 222.074219 211.238281 C 223.050781 210.414062 224.175781 209.886719 225.75 209.585938 C 227.851562 209.0625 231.898438 208.988281 233.925781 209.664062 C 235.351562 210.1875 236.101562 210.9375 237.148438 212.136719 C 238.648438 213.789062 240.601562 216.5625 241.5 219.113281 C 242.398438 221.511719 242.773438 224.886719 242.550781 226.988281 C 242.398438 228.488281 242.101562 229.613281 241.351562 230.664062 C 240.449219 231.863281 238.875 232.914062 237.523438 233.4375 C 236.324219 233.886719 234.898438 234.039062 233.625 233.960938 C 232.351562 233.960938 230.925781 234.039062 229.875 233.210938 C 228.523438 232.164062 226.949219 228.863281 226.726562 227.289062 C 226.574219 226.386719 226.648438 225.636719 227.101562 224.960938 C 227.625 224.136719 228.976562 223.085938 229.949219 222.9375 C 231 222.863281 232.574219 223.460938 233.25 224.210938 C 233.925781 225.039062 234.300781 226.6875 234 227.664062 C 233.773438 228.710938 232.5 229.835938 231.601562 230.210938 C 230.851562 230.585938 229.949219 230.511719 229.199219 230.210938 C 228.523438 229.988281 227.699219 229.460938 227.324219 228.789062 C 226.800781 227.960938 226.648438 226.238281 226.949219 225.335938 C 227.175781 224.511719 227.773438 223.835938 228.449219 223.460938 C 229.125 223.085938 230.023438 222.863281 230.773438 222.9375 C 231.523438 223.011719 232.351562 223.386719 232.949219 223.988281 C 233.773438 224.738281 234.75 227.511719 235.050781 227.4375 C 235.351562 227.363281 235.125 224.886719 234.898438 223.613281 C 234.675781 222.261719 234.226562 220.914062 233.625 219.710938 C 232.949219 218.585938 232.050781 217.460938 231 216.789062 C 229.875 216.1875 227.773438 215.511719 227.101562 216.039062 C 226.5 216.488281 226.800781 218.363281 227.175781 219.789062 C 227.699219 222.113281 231.300781 226.386719 231.300781 228.335938 C 231.300781 229.386719 230.625 230.136719 230.101562 230.664062 C 229.648438 231.113281 229.125 231.488281 228.523438 231.5625 C 227.625 231.710938 225.074219 230.738281 225.074219 230.738281 "/></clipPath><clipPath id="db20cb3ec1"><path d="M 183.835938 139.625 L 200.226562 139.625 L 200.226562 162.257812 L 183.835938 162.257812 Z M 183.835938 139.625 "/></clipPath><clipPath id="a2472ca274"><path d="M 193.351562 162.1875 C 186.300781 157.835938 184.800781 154.238281 184.199219 152.136719 C 183.824219 150.636719 183.75 149.4375 183.976562 148.164062 C 184.199219 146.886719 184.574219 145.613281 185.550781 144.414062 C 186.898438 142.761719 190.050781 140.210938 192.148438 139.761719 C 193.800781 139.460938 195.75 139.6875 196.949219 140.886719 C 198.898438 142.835938 199.574219 149.511719 199.949219 153.113281 C 200.175781 155.886719 200.324219 159.113281 199.5 160.613281 C 199.125 161.4375 198.449219 161.886719 197.625 162.039062 C 196.726562 162.261719 195 162.113281 194.175781 161.511719 C 193.351562 160.835938 192.601562 159.335938 192.675781 158.289062 C 192.75 157.3125 193.574219 155.8125 194.476562 155.289062 C 195.375 154.761719 197.023438 154.6875 198 155.0625 C 198.898438 155.511719 199.875 156.9375 200.101562 157.914062 C 200.324219 158.664062 200.101562 159.5625 199.726562 160.238281 C 199.425781 160.914062 198.675781 161.585938 198 161.886719 C 197.324219 162.1875 196.351562 162.335938 195.601562 162.1875 C 194.925781 162.039062 194.175781 161.8125 193.574219 160.914062 C 192.074219 158.738281 189.898438 145.613281 190.875 145.011719 C 191.398438 144.789062 193.648438 146.738281 193.726562 147.636719 C 193.800781 148.613281 191.550781 149.664062 191.476562 150.789062 C 191.398438 151.914062 192.523438 153.710938 193.425781 154.539062 C 194.25 155.289062 195.824219 155.0625 196.574219 155.664062 C 197.25 156.261719 197.773438 157.164062 197.851562 157.988281 C 197.925781 159.039062 197.476562 160.613281 196.726562 161.289062 C 195.976562 162.039062 193.351562 162.1875 193.351562 162.1875 "/></clipPath><clipPath id="27600e293d"><path d="M 202.703125 144.765625 L 227.199219 144.765625 L 227.199219 172.675781 L 202.703125 172.675781 Z M 202.703125 144.765625 "/></clipPath><clipPath id="b681585e48"><path d="M 204.300781 165.039062 C 206.101562 150.863281 208.273438 148.988281 210.449219 147.5625 C 212.625 146.136719 216 145.164062 218.101562 144.9375 C 219.601562 144.789062 220.800781 144.863281 221.925781 145.386719 C 223.199219 146.0625 224.324219 147.488281 225.148438 149.0625 C 226.125 151.085938 226.5 154.164062 226.800781 156.789062 C 227.175781 159.335938 227.25 162.414062 227.023438 164.585938 C 226.875 166.011719 226.726562 167.136719 226.125 168.261719 C 225.449219 169.460938 224.699219 170.8125 223.199219 171.5625 C 220.648438 172.761719 214.574219 172.761719 211.050781 172.238281 C 208.125 171.789062 204.300781 170.664062 203.25 169.3125 C 202.648438 168.636719 202.726562 167.738281 202.875 166.988281 C 203.023438 166.238281 203.398438 165.335938 204.074219 164.886719 C 204.824219 164.289062 206.398438 163.761719 207.449219 163.988281 C 208.425781 164.210938 209.699219 165.335938 210.074219 166.3125 C 210.449219 167.289062 210.226562 168.9375 209.625 169.761719 C 209.101562 170.585938 207.601562 171.414062 206.550781 171.414062 C 205.5 171.335938 204 170.585938 203.476562 169.6875 C 202.875 168.789062 202.726562 167.136719 203.101562 166.164062 C 203.550781 165.261719 204.898438 164.210938 205.800781 163.988281 C 206.625 163.761719 207.523438 163.914062 208.199219 164.210938 C 208.875 164.585938 209.398438 165.9375 209.925781 165.9375 C 210.375 165.9375 210.523438 164.960938 211.125 164.664062 C 212.023438 164.289062 213.976562 164.960938 215.398438 164.8125 C 216.75 164.585938 218.773438 164.664062 219.523438 163.613281 C 220.5 162.261719 219.75 157.914062 219.226562 155.886719 C 218.851562 154.539062 218.25 152.886719 217.351562 152.664062 C 216.449219 152.363281 214.5 153.5625 213.601562 154.539062 C 212.699219 155.4375 212.101562 156.5625 211.800781 157.988281 C 211.273438 159.863281 212.101562 163.3125 211.800781 165.039062 C 211.574219 166.164062 211.273438 166.914062 210.824219 167.511719 C 210.449219 168.039062 209.925781 168.414062 209.324219 168.5625 C 208.648438 168.789062 207.449219 168.789062 206.699219 168.5625 C 206.101562 168.414062 205.574219 168.039062 205.199219 167.511719 C 204.75 166.914062 204.300781 165.039062 204.300781 165.039062 "/></clipPath><clipPath id="a5b34cf0f0"><path d="M 220.621094 126.011719 L 293.648438 126.011719 L 293.648438 214.320312 L 220.621094 214.320312 Z M 220.621094 126.011719 "/></clipPath><clipPath id="c8d6b08ee2"><path d="M 229.351562 194.511719 C 223.875 196.238281 224.324219 192.039062 225.226562 190.914062 C 225.976562 189.9375 227.476562 189.710938 228.898438 189.636719 C 230.925781 189.636719 234.449219 190.835938 236.324219 191.960938 C 237.75 192.789062 239.175781 193.835938 239.625 195.113281 C 240.074219 196.386719 239.925781 198.039062 239.175781 199.386719 C 238.199219 201.1875 234.675781 204.414062 233.175781 204.1875 C 231.976562 204.039062 230.398438 201.488281 230.550781 200.363281 C 230.625 199.386719 232.050781 198.261719 233.324219 197.886719 C 235.273438 197.289062 239.699219 197.886719 241.425781 198.9375 C 242.625 199.6875 243.523438 200.886719 243.75 202.011719 C 243.976562 203.210938 243.523438 205.011719 242.851562 206.0625 C 242.25 207.1875 241.199219 208.460938 240.074219 208.6875 C 238.726562 208.914062 235.125 207.335938 235.125 206.664062 C 235.050781 205.988281 237 205.3125 238.574219 204.5625 C 241.800781 203.0625 249.300781 201.414062 253.726562 199.386719 C 257.476562 197.585938 260.550781 195.710938 263.699219 193.386719 C 266.925781 190.988281 270.300781 187.914062 272.773438 185.136719 C 274.875 182.738281 276.375 180.335938 277.949219 178.011719 C 279.375 175.761719 280.648438 173.664062 281.773438 171.261719 C 282.824219 168.710938 283.726562 166.085938 284.398438 163.085938 C 285.148438 159.636719 286.199219 154.835938 285.898438 151.386719 C 285.601562 148.539062 285 146.4375 283.351562 143.8125 C 280.875 139.914062 271.425781 133.988281 270.300781 131.289062 C 269.851562 130.3125 269.925781 129.636719 270.226562 128.886719 C 270.601562 127.988281 271.800781 126.710938 272.773438 126.414062 C 273.75 126.113281 275.398438 126.488281 276.226562 127.164062 C 276.976562 127.835938 277.648438 129.335938 277.574219 130.386719 C 277.425781 131.4375 276.449219 132.789062 275.625 133.3125 C 274.949219 133.761719 273.976562 133.835938 273.226562 133.761719 C 272.476562 133.613281 271.648438 133.238281 271.125 132.636719 C 270.523438 131.886719 270 130.238281 270.148438 129.261719 C 270.226562 128.511719 270.75 127.6875 271.351562 127.238281 C 271.949219 126.710938 272.773438 126.335938 273.601562 126.261719 C 274.351562 126.261719 274.949219 126.414062 275.851562 126.9375 C 277.800781 127.914062 281.550781 131.136719 283.875 133.3125 C 285.976562 135.261719 287.851562 137.0625 289.273438 139.3125 C 290.773438 141.710938 291.976562 144.9375 292.648438 147.261719 C 293.101562 148.914062 293.324219 150.039062 293.398438 151.761719 C 293.476562 154.011719 293.324219 156.789062 292.875 159.636719 C 292.273438 163.164062 291.300781 167.210938 289.726562 171.1875 C 287.925781 175.6875 285.375 180.863281 282.300781 185.136719 C 279.300781 189.335938 275.175781 193.539062 271.5 196.6875 C 268.425781 199.386719 265.199219 201.414062 262.199219 203.210938 C 259.648438 204.710938 257.925781 205.613281 254.851562 206.960938 C 250.199219 209.0625 240.300781 214.164062 236.476562 214.011719 C 234.675781 213.9375 233.324219 213.1875 232.574219 212.210938 C 231.824219 211.238281 231.75 209.363281 231.898438 208.085938 C 232.125 206.8125 232.875 205.539062 233.699219 204.488281 C 234.523438 203.4375 236.101562 201.636719 236.699219 201.789062 C 237.375 202.011719 238.125 204.9375 237.675781 205.539062 C 237.148438 206.136719 234.75 205.011719 233.550781 205.386719 C 232.351562 205.6875 231.523438 207.335938 230.324219 207.488281 C 229.125 207.710938 227.175781 207.335938 226.351562 206.4375 C 225.523438 205.460938 225.226562 203.136719 225.601562 201.789062 C 225.976562 200.511719 227.101562 199.238281 228.148438 198.636719 C 229.273438 198.113281 232.199219 198.710938 232.273438 198.414062 C 232.273438 198.039062 222.601562 197.8125 221.175781 195.863281 C 220.199219 194.4375 220.648438 191.363281 221.625 189.9375 C 222.675781 188.4375 226.125 187.386719 227.773438 187.238281 C 228.75 187.164062 229.648438 187.460938 230.324219 187.914062 C 231 188.4375 231.601562 189.335938 231.75 190.164062 C 231.976562 190.988281 231.75 192.113281 231.375 192.789062 C 231 193.539062 229.351562 194.511719 229.351562 194.511719 "/></clipPath><clipPath id="70c817c6ce"><path d="M 223.589844 150.472656 L 271.496094 150.472656 L 271.496094 194.304688 L 223.589844 194.304688 Z M 223.589844 150.472656 "/></clipPath><clipPath id="63c9a4b7f5"><path d="M 226.5 186.863281 C 236.25 183.113281 244.648438 178.164062 249.601562 175.085938 C 253.351562 172.6875 256.949219 170.8125 259.199219 168.261719 C 261 166.164062 262.125 163.914062 262.875 161.4375 C 263.699219 158.886719 263.023438 154.988281 263.925781 153.113281 C 264.523438 151.914062 265.5 150.9375 266.476562 150.710938 C 267.523438 150.414062 269.175781 150.863281 269.925781 151.460938 C 270.601562 151.914062 270.976562 152.8125 271.125 153.488281 C 271.351562 154.238281 271.273438 155.210938 270.898438 155.886719 C 270.449219 156.710938 269.023438 157.761719 268.125 157.988281 C 267.300781 158.210938 266.398438 157.988281 265.726562 157.613281 C 265.050781 157.238281 264.375 156.5625 264.074219 155.886719 C 263.773438 155.210938 263.699219 154.238281 263.851562 153.488281 C 264 152.738281 264.523438 151.914062 265.050781 151.460938 C 265.648438 150.9375 266.550781 150.636719 267.300781 150.5625 C 268.050781 150.5625 268.949219 150.789062 269.625 151.238281 C 270.226562 151.613281 270.75 152.210938 271.050781 153.113281 C 271.574219 154.539062 271.5 157.085938 271.050781 159.414062 C 270.523438 162.636719 268.425781 167.886719 267 170.363281 C 266.175781 171.863281 265.726562 172.386719 264.523438 173.511719 C 262.425781 175.539062 258.601562 178.164062 254.773438 180.5625 C 249.976562 183.789062 242.175781 188.210938 237.523438 190.539062 C 234.601562 191.960938 232.199219 193.164062 230.175781 193.6875 C 228.75 194.0625 227.550781 194.363281 226.5 194.136719 C 225.675781 193.914062 224.773438 193.386719 224.324219 192.636719 C 223.800781 191.8125 223.574219 190.164062 223.875 189.1875 C 224.25 188.210938 226.5 186.863281 226.5 186.863281 "/></clipPath><clipPath id="3c8851bc26"><path d="M 216.613281 121.851562 L 244.9375 121.851562 L 244.9375 159.390625 L 216.613281 159.390625 Z M 216.613281 121.851562 "/></clipPath><clipPath id="97ee41dd68"><path d="M 242.398438 129.1875 C 221.625 135.261719 222.824219 132.636719 223.800781 131.738281 C 224.699219 130.914062 226.425781 130.539062 227.699219 130.613281 C 229.050781 130.761719 230.476562 131.8125 231.601562 132.789062 C 232.726562 133.761719 234 135.039062 234.449219 136.386719 C 234.824219 137.8125 234.601562 139.613281 233.925781 141.1875 C 233.023438 143.210938 229.800781 147.414062 228.898438 147.113281 C 228.226562 146.960938 227.699219 143.960938 228.074219 142.761719 C 228.449219 141.636719 229.726562 140.4375 230.851562 140.0625 C 231.898438 139.6875 233.476562 140.136719 234.601562 140.511719 C 235.800781 140.960938 237.226562 141.710938 237.898438 142.6875 C 238.574219 143.664062 239.023438 145.011719 238.875 146.4375 C 238.726562 148.386719 237.226562 152.738281 235.875 153.335938 C 234.898438 153.710938 232.351562 152.511719 232.273438 151.835938 C 232.199219 151.164062 234 149.738281 235.199219 149.289062 C 236.550781 148.835938 239.175781 149.0625 240.226562 149.738281 C 240.976562 150.113281 241.351562 150.9375 241.574219 151.6875 C 241.800781 152.4375 241.726562 153.335938 241.5 154.085938 C 241.199219 154.761719 240.601562 155.511719 239.925781 155.886719 C 239.324219 156.335938 238.425781 156.5625 237.601562 156.488281 C 236.699219 156.261719 235.199219 155.363281 234.675781 154.539062 C 234.226562 153.863281 234.148438 152.886719 234.300781 152.136719 C 234.375 151.386719 234.75 150.5625 235.351562 150.039062 C 236.101562 149.4375 237.75 148.835938 238.726562 149.0625 C 239.773438 149.289062 241.050781 150.414062 241.425781 151.3125 C 241.800781 151.988281 241.800781 152.960938 241.648438 153.710938 C 241.425781 154.386719 241.050781 155.0625 240.300781 155.664062 C 238.726562 156.9375 233.625 159.488281 231.449219 159.261719 C 230.101562 159.113281 228.898438 158.0625 228.300781 157.085938 C 227.699219 156.113281 227.773438 154.539062 227.925781 153.261719 C 228.074219 152.0625 228.523438 150.5625 229.351562 149.664062 C 230.175781 148.761719 233.023438 148.238281 232.949219 148.011719 C 232.875 147.710938 227.25 149.886719 225.375 149.289062 C 223.949219 148.835938 222.523438 147.5625 222.226562 146.136719 C 221.851562 144.113281 226.726562 139.460938 225.898438 137.886719 C 225.148438 136.3125 219.75 137.363281 218.25 136.164062 C 217.199219 135.335938 216.601562 133.835938 216.675781 132.710938 C 216.675781 131.585938 217.273438 130.460938 218.550781 129.335938 C 221.851562 126.636719 237 122.0625 240.75 121.914062 C 242.023438 121.835938 242.699219 122.136719 243.375 122.585938 C 244.050781 123.113281 244.648438 124.011719 244.800781 124.835938 C 245.023438 125.664062 244.875 126.710938 244.425781 127.460938 C 244.050781 128.210938 242.398438 129.1875 242.398438 129.1875 "/></clipPath><clipPath id="c30717599b"><path d="M 237.378906 59.515625 L 335 59.515625 L 335 197 L 237.378906 197 Z M 237.378906 59.515625 "/></clipPath><clipPath id="1a2d11b887"><path d="M 240.226562 176.4375 C 237.675781 148.386719 237.148438 143.0625 238.125 137.289062 C 239.175781 130.835938 241.351562 124.835938 244.648438 117.710938 C 249 108.113281 258.375 92.886719 263.699219 85.613281 C 266.699219 81.414062 268.5 79.539062 271.726562 76.386719 C 275.851562 72.414062 282.375 66.5625 286.800781 64.011719 C 289.648438 62.289062 291.449219 61.539062 294.523438 60.863281 C 298.875 59.960938 306.226562 59.585938 310.574219 60.113281 C 313.648438 60.488281 315.976562 61.238281 318.375 62.4375 C 320.625 63.636719 322.5 65.136719 324.523438 67.164062 C 326.925781 69.710938 330.226562 74.136719 331.5 76.6875 C 332.25 78.1875 332.25 78.863281 332.625 80.585938 C 333.300781 84.039062 334.125 90.414062 334.5 96.113281 C 334.949219 103.238281 334.726562 114.261719 334.5 120.1875 C 334.351562 123.5625 334.425781 125.363281 333.824219 128.289062 C 333.074219 131.738281 331.726562 135.1875 330 139.386719 C 327.601562 145.460938 322.949219 155.960938 320.175781 160.914062 C 318.523438 163.761719 317.851562 164.8125 315.75 167.363281 C 312.074219 171.863281 302.398438 181.835938 298.875 184.835938 C 297.449219 186.113281 297.074219 186.1875 295.648438 187.164062 C 292.726562 189.113281 285.898438 193.460938 282.300781 195.113281 C 280.125 196.085938 278.25 196.988281 276.601562 196.988281 C 275.324219 196.914062 273.976562 196.386719 273.375 195.636719 C 272.699219 194.8125 272.476562 193.085938 272.625 192.1875 C 272.773438 191.363281 273.375 190.6875 274.050781 190.238281 C 274.648438 189.789062 275.550781 189.488281 276.300781 189.488281 C 277.050781 189.488281 277.949219 189.789062 278.550781 190.238281 C 279.148438 190.761719 279.75 191.511719 279.898438 192.261719 C 280.050781 193.238281 279.675781 194.886719 279.074219 195.710938 C 278.550781 196.3125 277.800781 196.835938 276.976562 196.914062 C 276 196.988281 274.351562 196.539062 273.601562 195.9375 C 273 195.414062 272.550781 194.585938 272.550781 193.761719 C 272.476562 192.789062 272.773438 191.4375 273.675781 190.460938 C 275.25 188.8125 279.675781 188.210938 282.675781 186.636719 C 285.976562 184.835938 289.273438 182.886719 292.800781 180.113281 C 297.300781 176.4375 303.675781 169.6875 307.199219 165.863281 C 309.375 163.460938 310.5 162.488281 312.226562 159.789062 C 315 155.4375 318.675781 147.039062 321 141.710938 C 322.800781 137.585938 324.300781 133.988281 325.273438 130.613281 C 326.101562 127.835938 326.625 126.335938 327 123.039062 C 327.675781 116.664062 327.675781 103.085938 327 95.0625 C 326.476562 88.914062 326.324219 83.363281 324.300781 79.011719 C 322.574219 75.335938 318.898438 71.738281 316.648438 70.011719 C 315.300781 69.039062 314.324219 68.8125 313.050781 68.4375 C 311.773438 68.0625 310.800781 67.761719 309.074219 67.613281 C 306.074219 67.386719 300.300781 67.238281 296.773438 68.0625 C 294.074219 68.664062 292.273438 69.5625 289.726562 71.136719 C 285.976562 73.460938 280.574219 78.1875 277.050781 81.710938 C 274.050781 84.636719 272.324219 86.363281 269.476562 90.335938 C 264.375 97.460938 254.773438 113.4375 250.726562 122.4375 C 248.023438 128.4375 246.300781 134.585938 245.550781 138.113281 C 245.25 139.914062 245.324219 140.585938 245.25 142.238281 C 245.175781 144.5625 245.101562 147.1875 245.25 150.863281 C 245.550781 157.3125 248.625 173.511719 247.648438 177.335938 C 247.273438 178.613281 246.824219 179.0625 246.074219 179.585938 C 245.398438 180.039062 244.351562 180.261719 243.523438 180.1875 C 242.699219 180.113281 241.726562 179.585938 241.199219 178.988281 C 240.601562 178.3125 240.226562 176.4375 240.226562 176.4375 "/></clipPath><clipPath id="f8eb626d18"><path d="M 260.535156 82.566406 L 320.863281 82.566406 L 320.863281 163.519531 L 260.535156 163.519531 Z M 260.535156 82.566406 "/></clipPath><clipPath id="390a5c1069"><path d="M 260.699219 158.0625 C 262.425781 138.039062 264.976562 129.039062 266.773438 123.9375 C 267.898438 120.710938 268.726562 119.136719 270.226562 116.289062 C 272.324219 112.3125 275.699219 106.835938 278.550781 102.789062 C 280.949219 99.261719 283.050781 96.113281 285.976562 93.335938 C 288.976562 90.5625 293.175781 87.9375 296.476562 86.210938 C 299.023438 84.789062 301.273438 83.738281 303.75 83.210938 C 306.226562 82.6875 309.226562 82.761719 311.398438 82.988281 C 313.050781 83.210938 314.476562 83.4375 315.601562 84.113281 C 316.800781 84.789062 317.773438 85.988281 318.449219 87.113281 C 319.199219 88.386719 319.351562 89.511719 319.726562 91.386719 C 320.324219 94.914062 320.925781 101.664062 320.699219 106.835938 C 320.476562 112.011719 319.425781 117.414062 318.375 122.289062 C 317.398438 126.636719 316.199219 130.613281 314.699219 134.511719 C 313.199219 138.335938 311.699219 141.636719 309.523438 145.3125 C 307.050781 149.511719 303.523438 154.988281 300.375 158.136719 C 297.976562 160.460938 294.898438 163.011719 292.875 163.238281 C 291.601562 163.386719 290.25 162.789062 289.574219 162.039062 C 288.898438 161.210938 288.523438 159.5625 288.824219 158.585938 C 289.050781 157.613281 290.175781 156.335938 291.226562 156.039062 C 292.199219 155.664062 293.851562 155.960938 294.675781 156.5625 C 295.5 157.164062 296.175781 158.664062 296.175781 159.710938 C 296.101562 160.761719 295.199219 162.1875 294.375 162.710938 C 293.699219 163.238281 292.800781 163.386719 292.050781 163.3125 C 291.300781 163.238281 290.398438 162.863281 289.875 162.261719 C 289.199219 161.585938 288.675781 159.9375 288.75 158.960938 C 288.75 158.210938 289.199219 157.613281 289.800781 156.863281 C 290.773438 155.738281 293.023438 154.761719 294.601562 153.335938 C 296.324219 151.613281 297.976562 149.210938 299.476562 147.039062 C 301.050781 144.863281 302.550781 142.761719 303.898438 140.136719 C 305.550781 136.988281 307.199219 133.539062 308.550781 129.414062 C 310.351562 124.011719 312.523438 116.363281 313.199219 110.210938 C 313.726562 104.664062 313.5 97.613281 312.601562 94.164062 C 312.226562 92.4375 311.925781 91.164062 310.800781 90.488281 C 309.226562 89.664062 305.851562 90.335938 303.226562 91.238281 C 299.851562 92.289062 294.976562 95.664062 292.648438 97.460938 C 291.300781 98.511719 290.851562 98.886719 289.726562 100.3125 C 287.324219 103.164062 282.824219 109.835938 280.125 114.261719 C 277.800781 118.085938 276 121.011719 274.273438 125.289062 C 272.175781 130.613281 270.148438 138.113281 269.101562 144.1875 C 268.125 149.585938 269.023438 157.3125 267.75 159.863281 C 267.226562 160.835938 266.550781 161.289062 265.800781 161.585938 C 264.976562 161.886719 263.851562 161.8125 263.101562 161.585938 C 262.5 161.4375 262.050781 161.0625 261.675781 160.613281 C 261.148438 159.9375 260.699219 158.0625 260.699219 158.0625 "/></clipPath></defs><g id="cb73a4a01b"><g clip-rule="nonzero" clip-path="url(#b91aa69d07)"><g clip-rule="nonzero" clip-path="url(#a19c9f0e75)"><path style=" stroke:none;fill-rule:nonzero;fill:currentColor;fill-opacity:1;" d="M 77.175781 169.011719 L 157.421875 169.011719 L 157.421875 216.789062 L 77.175781 216.789062 Z M 77.175781 169.011719 "/></g></g><g clip-rule="nonzero" clip-path="url(#5d1ee5e7b8)"><g clip-rule="nonzero" clip-path="url(#889cf39284)"><path style=" stroke:none;fill-rule:nonzero;fill:currentColor;fill-opacity:1;" d="M 37.5 181.6875 L 95.175781 181.6875 L 95.175781 294.785156 L 37.5 294.785156 Z M 37.5 181.6875 "/></g></g><g clip-rule="nonzero" clip-path="url(#22cb5fb83e)"><g clip-rule="nonzero" clip-path="url(#889988ff63)"><path style=" stroke:none;fill-rule:nonzero;fill:currentColor;fill-opacity:1;" d="M 37.875 275.0625 L 130.550781 275.0625 L 130.550781 317.886719 L 37.875 317.886719 Z M 37.875 275.0625 "/></g></g><g clip-rule="nonzero" clip-path="url(#60e7c81c1e)"><g clip-rule="nonzero" clip-path="url(#555a220523)"><path style=" stroke:none;fill-rule:nonzero;fill:currentColor;fill-opacity:1;" d="M 112.726562 233.738281 L 152.324219 233.738281 L 152.324219 294.683594 L 112.726562 294.683594 Z M 112.726562 233.738281 "/></g></g><g clip-rule="nonzero" clip-path="url(#60ba4a93b9)"><g clip-rule="nonzero" clip-path="url(#3e0f33611f)"><path style=" stroke:none;fill-rule:nonzero;fill:currentColor;fill-opacity:1;" d="M 62.550781 233.886719 L 131.839844 233.886719 L 131.839844 293.210938 L 62.550781 293.210938 Z M 62.550781 233.886719 "/></g></g><g clip-rule="nonzero" clip-path="url(#522127b368)"><g clip-rule="nonzero" clip-path="url(#caec5d0fab)"><path style=" stroke:none;fill-rule:nonzero;fill:currentColor;fill-opacity:1;" d="M 62.773438 192.261719 L 138.523438 192.261719 L 138.523438 283.992188 L 62.773438 283.992188 Z M 62.773438 192.261719 "/></g></g><g clip-rule="nonzero" clip-path="url(#298082af26)"><g clip-rule="nonzero" clip-path="url(#c5b70345be)"><path style=" stroke:none;fill-rule:nonzero;fill:currentColor;fill-opacity:1;" d="M 94.800781 206.664062 L 191.53125 206.664062 L 191.53125 244.011719 L 94.800781 244.011719 Z M 94.800781 206.664062 "/></g></g><g clip-rule="nonzero" clip-path="url(#2f29180ac3)"><g clip-rule="nonzero" clip-path="url(#779ddad84e)"><path style=" stroke:none;fill-rule:nonzero;fill:currentColor;fill-opacity:1;" d="M 127.5 198.863281 L 207.175781 198.863281 L 207.175781 236.289062 L 127.5 236.289062 Z M 127.5 198.863281 "/></g></g><g clip-rule="nonzero" clip-path="url(#33d3ea3fc4)"><g clip-rule="nonzero" clip-path="url(#9919dacea3)"><path style=" stroke:none;fill-rule:nonzero;fill:currentColor;fill-opacity:1;" d="M 116.324219 143.136719 L 179.261719 143.136719 L 179.261719 178.011719 L 116.324219 178.011719 Z M 116.324219 143.136719 "/></g></g><g clip-rule="nonzero" clip-path="url(#8232a6fe42)"><g clip-rule="nonzero" clip-path="url(#65b016b8a4)"><path style=" stroke:none;fill-rule:nonzero;fill:currentColor;fill-opacity:1;" d="M 138.523438 164.289062 L 189.511719 164.289062 L 189.511719 188.960938 L 138.523438 188.960938 Z M 138.523438 164.289062 "/></g></g><g clip-rule="nonzero" clip-path="url(#2b57a7e2a5)"><g clip-rule="nonzero" clip-path="url(#b6614a13c4)"><path style=" stroke:none;fill-rule:nonzero;fill:currentColor;fill-opacity:1;" d="M 164.476562 142.386719 L 189.75 142.386719 L 189.75 177.535156 L 164.476562 177.535156 Z M 164.476562 142.386719 "/></g></g><g clip-rule="nonzero" clip-path="url(#e1418cf4f6)"><g clip-rule="nonzero" clip-path="url(#c0ba5e0520)"><path style=" stroke:none;fill-rule:nonzero;fill:currentColor;fill-opacity:1;" d="M 216.824219 206.585938 L 245.625 206.585938 L 245.625 237.074219 L 216.824219 237.074219 Z M 216.824219 206.585938 "/></g></g><g clip-rule="nonzero" clip-path="url(#db20cb3ec1)"><g clip-rule="nonzero" clip-path="url(#a2472ca274)"><path style=" stroke:none;fill-rule:nonzero;fill:currentColor;fill-opacity:1;" d="M 180.976562 136.761719 L 203.175781 136.761719 L 203.175781 165.292969 L 180.976562 165.292969 Z M 180.976562 136.761719 "/></g></g><g clip-rule="nonzero" clip-path="url(#27600e293d)"><g clip-rule="nonzero" clip-path="url(#b681585e48)"><path style=" stroke:none;fill-rule:nonzero;fill:currentColor;fill-opacity:1;" d="M 199.875 141.9375 L 230.023438 141.9375 L 230.023438 175.265625 L 199.875 175.265625 Z M 199.875 141.9375 "/></g></g><g clip-rule="nonzero" clip-path="url(#a5b34cf0f0)"><g clip-rule="nonzero" clip-path="url(#c8d6b08ee2)"><path style=" stroke:none;fill-rule:nonzero;fill:currentColor;fill-opacity:1;" d="M 218.175781 123.261719 L 296.398438 123.261719 L 296.398438 217.070312 L 218.175781 217.070312 Z M 218.175781 123.261719 "/></g></g><g clip-rule="nonzero" clip-path="url(#70c817c6ce)"><g clip-rule="nonzero" clip-path="url(#63c9a4b7f5)"><path style=" stroke:none;fill-rule:nonzero;fill:currentColor;fill-opacity:1;" d="M 220.875 147.5625 L 274.210938 147.5625 L 274.210938 197.210938 L 220.875 197.210938 Z M 220.875 147.5625 "/></g></g><g clip-rule="nonzero" clip-path="url(#3c8851bc26)"><g clip-rule="nonzero" clip-path="url(#97ee41dd68)"><path style=" stroke:none;fill-rule:nonzero;fill:currentColor;fill-opacity:1;" d="M 213.675781 118.914062 L 247.875 118.914062 L 247.875 162.332031 L 213.675781 162.332031 Z M 213.675781 118.914062 "/></g></g><g clip-rule="nonzero" clip-path="url(#c30717599b)"><g clip-rule="nonzero" clip-path="url(#1a2d11b887)"><path style=" stroke:none;fill-rule:nonzero;fill:currentColor;fill-opacity:1;" d="M 234.976562 57.113281 L 337.5 57.113281 L 337.5 200.085938 L 234.976562 200.085938 Z M 234.976562 57.113281 "/></g></g><g clip-rule="nonzero" clip-path="url(#f8eb626d18)"><g clip-rule="nonzero" clip-path="url(#390a5c1069)"><path style=" stroke:none;fill-rule:nonzero;fill:currentColor;fill-opacity:1;" d="M 257.699219 79.988281 L 323.699219 79.988281 L 323.699219 166.355469 L 257.699219 166.355469 Z M 257.699219 79.988281 "/></g></g></g></svg>