<svg xmlns="http://www.w3.org/2000/svg" xmlns:xlink="http://www.w3.org/1999/xlink" width="500" zoomAndPan="magnify" viewBox="0 0 375 374.999991" height="500" preserveAspectRatio="xMidYMid meet" version="1.2"><defs><clipPath id="abd482281f"><path d="M 93.550781 237.867188 L 136 237.867188 L 136 313.886719 L 93.550781 313.886719 Z M 93.550781 237.867188 "/></clipPath><clipPath id="d9a28e0910"><path d="M 135.707031 266.945312 C 124.203125 295.410156 124.285156 297.613281 123.144531 300.144531 C 122.003906 302.671875 120.125 305.445312 118.660156 307.238281 C 117.597656 308.542969 116.863281 309.277344 115.476562 310.175781 C 113.4375 311.480469 109.605469 313.03125 107.074219 313.519531 C 105.28125 313.847656 103.648438 313.847656 102.183594 313.4375 C 100.714844 313.113281 99.488281 312.460938 98.347656 311.316406 C 96.796875 309.6875 95.167969 306.585938 94.433594 303.976562 C 93.617188 301.367188 93.453125 299 93.78125 295.65625 C 94.269531 290.109375 96.960938 281.628906 99.246094 274.285156 C 101.773438 266.292969 105.6875 256.015625 108.542969 249.488281 C 110.5 245.085938 112.296875 240.355469 114.007812 238.804688 C 114.90625 238.070312 115.640625 237.90625 116.539062 237.90625 C 117.351562 237.90625 118.332031 238.152344 118.984375 238.722656 C 119.800781 239.375 120.617188 241.089844 120.617188 242.148438 C 120.699219 243.046875 120.289062 243.945312 119.71875 244.597656 C 118.984375 245.332031 117.273438 246.144531 116.210938 246.0625 C 115.070312 245.902344 113.601562 244.839844 113.03125 243.945312 C 112.539062 243.210938 112.378906 242.230469 112.539062 241.414062 C 112.621094 240.597656 113.03125 239.621094 113.683594 239.050781 C 114.5 238.398438 116.292969 237.828125 117.351562 237.988281 C 118.25 238.070312 119.148438 238.558594 119.636719 239.292969 C 120.289062 240.109375 120.617188 241.171875 120.535156 243.046875 C 120.125 248.675781 110.011719 267.433594 106.996094 276.894531 C 104.792969 283.421875 103.324219 289.210938 102.671875 293.863281 C 102.183594 297.125 101.609375 300.144531 102.34375 302.183594 C 102.914062 303.648438 104.058594 305.199219 105.363281 305.445312 C 107.238281 305.769531 111.152344 303.160156 112.785156 301.773438 C 114.007812 300.714844 114.253906 300.0625 115.152344 298.265625 C 117.351562 293.78125 121.269531 279.425781 123.878906 272.980469 C 125.589844 268.902344 126.976562 264.90625 128.609375 263.113281 C 129.34375 262.132812 130.078125 261.644531 130.976562 261.480469 C 131.871094 261.316406 133.09375 261.480469 133.828125 261.886719 C 134.644531 262.296875 135.460938 263.191406 135.707031 264.089844 C 136.03125 264.90625 135.707031 266.945312 135.707031 266.945312 "/></clipPath><clipPath id="8723df9d78"><path d="M 112.464844 218.777344 L 156.140625 218.777344 L 156.140625 251.6875 L 112.464844 251.6875 Z M 112.464844 218.777344 "/></clipPath><clipPath id="4d7bd69b4e"><path d="M 128.773438 226.976562 C 121.511719 228.527344 121.269531 230.320312 121.023438 231.789062 C 120.859375 233.257812 120.371094 235.054688 121.429688 236.441406 C 123.308594 238.96875 131.628906 240.761719 137.011719 241.984375 C 142.476562 243.292969 151.203125 242.558594 153.894531 243.945312 C 154.957031 244.515625 155.28125 245.085938 155.609375 245.902344 C 155.933594 246.636719 156.097656 247.695312 155.851562 248.429688 C 155.6875 249.246094 155.117188 250.144531 154.464844 250.714844 C 153.894531 251.203125 152.914062 251.53125 152.019531 251.609375 C 151.203125 251.609375 150.222656 251.449219 149.570312 250.875 C 148.757812 250.144531 147.777344 248.59375 147.859375 247.449219 C 147.859375 246.308594 148.757812 244.757812 149.652344 244.105469 C 150.632812 243.453125 152.425781 243.292969 153.488281 243.78125 C 154.546875 244.1875 155.609375 245.738281 155.933594 246.71875 C 156.179688 247.53125 155.933594 248.59375 155.609375 249.328125 C 155.199219 250.0625 154.464844 250.796875 153.730469 251.121094 C 152.996094 251.53125 152.34375 251.53125 151.203125 251.53125 C 148.59375 251.609375 142.230469 251.121094 138.558594 250.550781 C 135.460938 250.0625 133.421875 249.734375 130.320312 248.675781 C 125.917969 247.125 117.679688 243.617188 114.988281 241.171875 C 113.683594 239.945312 113.355469 238.886719 112.949219 237.582031 C 112.539062 236.277344 112.378906 234.972656 112.539062 233.339844 C 112.703125 231.054688 113.519531 227.140625 114.5 225.101562 C 115.152344 223.632812 115.804688 222.738281 116.945312 221.757812 C 118.167969 220.699219 119.964844 219.800781 121.921875 219.390625 C 124.367188 218.820312 129.015625 218.738281 130.648438 219.3125 C 131.464844 219.636719 131.789062 220.042969 132.117188 220.617188 C 132.523438 221.351562 132.933594 222.492188 132.851562 223.390625 C 132.6875 224.285156 132.117188 225.347656 131.464844 226 C 130.8125 226.570312 128.773438 226.976562 128.773438 226.976562 "/></clipPath><clipPath id="50333aace8"><path d="M 147.613281 243.441406 L 225.535156 243.441406 L 225.535156 254.710938 L 147.613281 254.710938 Z M 147.613281 243.441406 "/></clipPath><clipPath id="a2e31baea1"><path d="M 151.773438 243.453125 C 207.320312 246.390625 218.820312 244.433594 222.492188 245.492188 C 223.714844 245.820312 224.203125 246.226562 224.695312 246.960938 C 225.265625 247.859375 225.511719 249.652344 225.265625 250.714844 C 225.101562 251.53125 224.367188 252.34375 223.714844 252.753906 C 223.0625 253.242188 222.003906 253.570312 221.1875 253.488281 C 220.371094 253.488281 219.390625 253.160156 218.820312 252.507812 C 218.003906 251.773438 217.273438 250.144531 217.351562 249 C 217.515625 247.859375 218.578125 246.390625 219.472656 245.820312 C 220.207031 245.332031 221.1875 245.167969 222.085938 245.410156 C 223.0625 245.65625 224.613281 246.796875 225.101562 247.695312 C 225.511719 248.429688 225.589844 249.492188 225.429688 250.304688 C 225.265625 251.121094 224.9375 251.9375 224.042969 252.507812 C 222.003906 253.894531 216.78125 254.222656 210.746094 254.546875 C 197.941406 255.199219 157.320312 253.730469 150.796875 251.449219 C 149.328125 250.957031 148.917969 250.550781 148.429688 249.816406 C 147.859375 249.082031 147.613281 247.941406 147.695312 247.042969 C 147.777344 246.144531 148.347656 245.085938 149.082031 244.433594 C 149.734375 243.863281 151.773438 243.453125 151.773438 243.453125 "/></clipPath><clipPath id="bf1e512997"><path d="M 217 217.941406 L 265.207031 217.941406 L 265.207031 253.550781 L 217 253.550781 Z M 217 217.941406 "/></clipPath><clipPath id="07fecfcde9"><path d="M 221.105469 245.332031 C 248.511719 240.519531 253.648438 239.867188 255.6875 237.335938 C 257.320312 235.214844 257.566406 230.648438 256.75 228.933594 C 256.179688 227.710938 254.710938 227.222656 253.324219 226.734375 C 251.53125 226.082031 248.265625 226.570312 246.71875 225.917969 C 245.820312 225.507812 245.167969 225.019531 244.757812 224.203125 C 244.269531 223.308594 244.105469 221.429688 244.515625 220.371094 C 245.003906 219.390625 246.472656 218.25 247.613281 218.085938 C 248.675781 217.925781 250.46875 218.496094 251.203125 219.3125 C 252.019531 220.125 252.507812 221.921875 252.261719 222.980469 C 252.019531 224.125 250.796875 225.507812 249.734375 225.917969 C 248.675781 226.324219 246.878906 226 245.984375 225.507812 C 245.167969 225.101562 244.679688 224.203125 244.351562 223.390625 C 244.105469 222.65625 244.023438 221.59375 244.351562 220.777344 C 244.839844 219.882812 245.902344 218.65625 247.207031 218.167969 C 248.917969 217.597656 252.425781 218.25 254.464844 218.65625 C 256.015625 218.984375 257.15625 219.472656 258.382812 220.125 C 259.6875 220.859375 261.074219 221.921875 262.132812 222.980469 C 263.113281 224.042969 264.089844 225.019531 264.578125 226.570312 C 265.3125 228.773438 265.070312 232.933594 264.90625 235.296875 C 264.742188 237.011719 264.660156 238.234375 264.089844 239.621094 C 263.519531 241.007812 262.703125 242.3125 261.152344 243.453125 C 258.542969 245.492188 253.648438 247.371094 248.675781 248.917969 C 241.742188 251.039062 227.550781 253.40625 222.816406 253.488281 C 221.105469 253.570312 220.207031 253.648438 219.230469 252.996094 C 218.25 252.425781 217.191406 251.039062 217.109375 249.898438 C 216.945312 248.835938 217.679688 247.125 218.414062 246.390625 C 219.066406 245.738281 221.105469 245.332031 221.105469 245.332031 "/></clipPath><clipPath id="61f28c4818"><path d="M 126.757812 209.546875 L 191.753906 209.546875 L 191.753906 234.742188 L 126.757812 234.742188 Z M 126.757812 209.546875 "/></clipPath><clipPath id="9d9d97b844"><path d="M 135.132812 213.601562 C 135.867188 220.453125 137.5 220.941406 139.292969 221.675781 C 142.3125 222.898438 148.105469 224.203125 152.019531 224.855469 C 155.28125 225.429688 157.320312 225.589844 161.234375 225.835938 C 168.003906 226.242188 184.808594 224.53125 188.96875 226.488281 C 190.519531 227.222656 191.171875 228.363281 191.578125 229.34375 C 191.824219 230.160156 191.660156 231.21875 191.332031 231.953125 C 191.007812 232.6875 190.273438 233.503906 189.539062 233.910156 C 188.886719 234.320312 187.828125 234.480469 187.011719 234.320312 C 186.195312 234.238281 185.296875 233.746094 184.644531 233.175781 C 184.074219 232.605469 183.585938 231.707031 183.503906 230.8125 C 183.503906 229.75 183.992188 228.039062 184.890625 227.304688 C 185.707031 226.488281 187.582031 226.164062 188.558594 226.324219 C 189.457031 226.488281 190.273438 227.140625 190.761719 227.792969 C 191.253906 228.445312 191.742188 229.34375 191.660156 230.242188 C 191.578125 231.300781 190.761719 232.933594 189.945312 233.667969 C 189.292969 234.238281 188.722656 234.238281 187.417969 234.402344 C 183.339844 234.972656 168.167969 234.480469 160.992188 233.992188 C 156.015625 233.667969 152.589844 233.175781 148.429688 232.359375 C 144.269531 231.546875 139.457031 230.648438 135.867188 229.179688 C 132.933594 227.875 129.589844 226.324219 128.203125 224.367188 C 127.140625 222.898438 127.222656 221.023438 126.976562 219.230469 C 126.816406 217.109375 126.652344 214.171875 127.140625 212.621094 C 127.46875 211.5625 127.957031 210.746094 128.773438 210.257812 C 129.667969 209.6875 131.546875 209.441406 132.523438 209.765625 C 133.421875 210.011719 134.238281 210.992188 134.726562 211.726562 C 135.054688 212.296875 135.132812 213.601562 135.132812 213.601562 "/></clipPath><clipPath id="fd052e5b9c"><path d="M 183 199.15625 L 253.179688 199.15625 L 253.179688 234.8125 L 183 234.8125 Z M 183 199.15625 "/></clipPath><clipPath id="6484f90f21"><path d="M 187.09375 226.242188 C 214.988281 225.429688 230.894531 224.367188 236.277344 223.46875 C 238.316406 223.144531 239.292969 223.144531 240.4375 222.410156 C 241.496094 221.675781 242.3125 220.941406 243.046875 219.3125 C 244.679688 215.804688 244.105469 203.488281 245.738281 200.875 C 246.308594 199.898438 247.042969 199.652344 247.859375 199.410156 C 248.675781 199.246094 249.652344 199.164062 250.46875 199.570312 C 251.449219 200.0625 252.589844 201.449219 252.914062 202.507812 C 253.160156 203.324219 253.078125 204.300781 252.671875 205.035156 C 252.101562 206.015625 250.714844 207.238281 249.652344 207.402344 C 248.511719 207.566406 246.796875 206.996094 245.984375 206.179688 C 245.25 205.363281 244.839844 203.570312 245.003906 202.507812 C 245.085938 201.609375 245.65625 200.796875 246.308594 200.222656 C 246.960938 199.734375 247.941406 199.328125 248.757812 199.328125 C 249.570312 199.246094 250.550781 199.488281 251.285156 199.980469 C 251.9375 200.46875 252.507812 201.039062 252.835938 202.019531 C 253.324219 203.730469 252.835938 206.832031 252.507812 209.6875 C 252.183594 213.4375 251.285156 219.472656 250.304688 222.574219 C 249.734375 224.367188 249.246094 225.507812 248.347656 226.652344 C 247.449219 227.792969 246.554688 228.609375 244.921875 229.425781 C 242.230469 230.648438 237.5 231.300781 232.523438 231.953125 C 225.347656 233.015625 213.847656 233.667969 205.6875 233.992188 C 198.917969 234.320312 190.761719 235.214844 187.09375 234.402344 C 185.460938 233.992188 184.402344 233.503906 183.746094 232.605469 C 183.175781 231.871094 182.933594 230.730469 183.015625 229.832031 C 183.175781 228.933594 183.746094 227.875 184.402344 227.304688 C 185.054688 226.652344 187.09375 226.242188 187.09375 226.242188 "/></clipPath><clipPath id="8a5abe5cef"><path d="M 126.488281 200.039062 L 135.785156 200.039062 L 135.785156 215.703125 L 126.488281 215.703125 Z M 126.488281 200.039062 "/></clipPath><clipPath id="7b6144220a"><path d="M 127.550781 211.886719 C 126.734375 202.589844 127.140625 201.855469 127.710938 201.285156 C 128.28125 200.714844 129.179688 200.144531 129.996094 200.144531 C 131.054688 200.0625 132.851562 200.632812 133.585938 201.367188 C 134.238281 201.9375 134.644531 202.917969 134.726562 203.730469 C 134.808594 204.546875 134.5625 205.609375 134.074219 206.261719 C 133.667969 206.996094 132.851562 207.648438 132.117188 207.972656 C 131.300781 208.21875 130.320312 208.382812 129.507812 208.054688 C 128.527344 207.648438 127.140625 206.34375 126.734375 205.363281 C 126.40625 204.628906 126.488281 203.570312 126.816406 202.835938 C 127.058594 202.019531 127.710938 201.203125 128.363281 200.714844 C 129.097656 200.304688 130.078125 199.980469 130.894531 200.0625 C 131.707031 200.144531 132.6875 200.550781 133.339844 201.039062 C 133.910156 201.609375 134.238281 202.261719 134.644531 203.324219 C 135.214844 205.117188 135.949219 209.195312 135.707031 211.234375 C 135.460938 212.703125 134.972656 214.007812 134.15625 214.742188 C 133.503906 215.394531 132.359375 215.722656 131.464844 215.640625 C 130.484375 215.640625 129.425781 215.152344 128.773438 214.5 C 128.121094 213.925781 127.550781 211.886719 127.550781 211.886719 "/></clipPath><clipPath id="59ea04a803"><path d="M 116.761719 127.019531 L 134.441406 127.019531 L 134.441406 210.445312 L 116.761719 210.445312 Z M 116.761719 127.019531 "/></clipPath><clipPath id="cf0b15812d"><path d="M 129.75 210.421875 C 123.226562 207.972656 122.164062 207.484375 121.105469 206.261719 C 119.636719 204.464844 118.167969 202.019531 117.351562 198.105469 C 115.640625 189.621094 118.496094 167.925781 118.414062 155.6875 C 118.332031 146.390625 116.945312 135.054688 117.515625 131.136719 C 117.679688 129.832031 117.761719 129.34375 118.332031 128.691406 C 119.066406 127.875 120.699219 127.058594 121.757812 127.058594 C 122.65625 127.058594 123.550781 127.46875 124.203125 128.039062 C 124.855469 128.527344 125.429688 129.425781 125.589844 130.242188 C 125.671875 131.300781 125.347656 133.09375 124.53125 133.910156 C 123.796875 134.726562 122.003906 135.214844 120.941406 135.132812 C 120.042969 135.132812 119.148438 134.5625 118.578125 133.910156 C 118.085938 133.339844 117.597656 132.359375 117.515625 131.546875 C 117.433594 130.730469 117.597656 129.75 118.085938 129.015625 C 118.660156 128.203125 120.289062 127.222656 121.351562 127.058594 C 122.246094 126.976562 123.144531 127.222656 123.878906 127.792969 C 124.695312 128.445312 125.183594 129.589844 125.671875 131.136719 C 126.40625 133.910156 126.40625 138.070312 126.570312 143.371094 C 126.734375 153.40625 125.429688 176.324219 125.511719 186.441406 C 125.589844 191.90625 124.855469 196.554688 126.082031 199.164062 C 126.816406 200.714844 128.28125 201.53125 129.507812 202.183594 C 130.566406 202.753906 132.035156 202.507812 132.851562 203.160156 C 133.585938 203.730469 134.238281 204.628906 134.402344 205.609375 C 134.5625 206.667969 134.074219 208.460938 133.339844 209.277344 C 132.605469 210.011719 129.75 210.421875 129.75 210.421875 "/></clipPath><clipPath id="3c16f5c807"><path d="M 247.257812 127.433594 L 262.332031 127.433594 L 262.332031 209 L 247.257812 209 Z M 247.257812 127.433594 "/></clipPath><clipPath id="314b304493"><path d="M 250.144531 201.039062 C 252.425781 199.734375 252.183594 198.429688 252.34375 196.144531 C 252.914062 187.253906 252.589844 138.480469 253.8125 131.464844 C 254.058594 130.078125 254.140625 129.667969 254.628906 129.015625 C 255.117188 128.363281 255.933594 127.710938 256.75 127.550781 C 257.808594 127.386719 259.6875 127.628906 260.5 128.363281 C 261.398438 129.097656 262.050781 130.8125 261.96875 131.953125 C 261.808594 133.015625 260.746094 134.5625 259.765625 135.054688 C 258.789062 135.625 256.996094 135.625 255.933594 135.054688 C 254.957031 134.5625 253.976562 133.015625 253.8125 131.953125 C 253.730469 130.8125 254.382812 129.097656 255.199219 128.363281 C 256.097656 127.628906 257.890625 127.386719 258.953125 127.550781 C 259.847656 127.710938 260.664062 128.363281 261.152344 129.015625 C 261.644531 129.667969 261.726562 130.160156 261.96875 131.464844 C 262.621094 135.789062 262.132812 149.328125 261.886719 159.6875 C 261.644531 172.410156 261.96875 195.984375 260.257812 202.425781 C 259.765625 204.464844 259.441406 205.28125 258.300781 206.261719 C 256.667969 207.648438 252.507812 209.113281 250.714844 208.953125 C 249.652344 208.789062 248.757812 208.136719 248.183594 207.484375 C 247.613281 206.75 247.289062 205.609375 247.289062 204.710938 C 247.371094 203.8125 247.941406 202.671875 248.511719 202.019531 C 248.917969 201.53125 250.144531 201.039062 250.144531 201.039062 "/></clipPath><clipPath id="3bce907bfe"><path d="M 127.90625 196.511719 L 252.964844 196.511719 L 252.964844 208.839844 L 127.90625 208.839844 Z M 127.90625 196.511719 "/></clipPath><clipPath id="0c201427c2"><path d="M 131.953125 198.265625 C 161.96875 198.59375 180.730469 200.386719 190.191406 200.632812 C 195.492188 200.714844 197.289062 200.632812 202.835938 200.386719 C 213.355469 199.898438 243.128906 195.902344 248.835938 196.636719 C 250.222656 196.796875 250.632812 196.878906 251.285156 197.449219 C 252.101562 198.183594 252.914062 199.898438 252.914062 200.957031 C 252.914062 201.773438 252.589844 202.753906 251.9375 203.324219 C 251.203125 204.140625 249.488281 204.792969 248.429688 204.792969 C 247.53125 204.710938 246.636719 204.300781 246.0625 203.648438 C 245.332031 202.914062 244.757812 201.121094 244.839844 200.0625 C 244.921875 199.164062 245.332031 198.265625 246.0625 197.777344 C 246.878906 197.125 248.675781 196.554688 249.734375 196.71875 C 250.550781 196.878906 251.449219 197.449219 251.9375 198.105469 C 252.507812 198.675781 252.835938 199.652344 252.914062 200.46875 C 252.996094 201.285156 252.671875 202.34375 252.183594 202.996094 C 251.773438 203.648438 251.367188 204.058594 250.144531 204.546875 C 244.757812 206.667969 213.683594 207.972656 202.835938 208.542969 C 197.125 208.871094 195.25 208.871094 189.785156 208.789062 C 180.320312 208.542969 162.050781 206.832031 151.285156 206.421875 C 143.453125 206.179688 134.402344 207.402344 130.976562 206.339844 C 129.75 205.933594 129.179688 205.445312 128.609375 204.710938 C 128.121094 203.976562 127.792969 202.753906 127.957031 201.855469 C 128.039062 200.957031 128.609375 199.898438 129.261719 199.328125 C 129.996094 198.757812 131.953125 198.265625 131.953125 198.265625 "/></clipPath><clipPath id="69afd9043e"><path d="M 239.71875 96.902344 L 277.445312 96.902344 L 277.445312 134.96875 L 239.71875 134.96875 Z M 239.71875 96.902344 "/></clipPath><clipPath id="ebed576767"><path d="M 254.546875 134.808594 C 241.007812 125.265625 240.84375 124.367188 240.4375 122.492188 C 239.867188 119.390625 239.539062 112.378906 240.273438 109.359375 C 240.679688 107.648438 241.171875 106.832031 242.148438 105.527344 C 243.617188 103.570312 246.472656 100.796875 249.164062 99.410156 C 251.691406 98.105469 254.875 97.777344 257.726562 97.449219 C 260.582031 97.042969 264.089844 96.71875 266.292969 97.289062 C 267.925781 97.777344 268.984375 98.757812 270.207031 99.734375 C 271.59375 100.875 272.980469 102.101562 274.042969 103.8125 C 275.347656 105.933594 276.570312 109.113281 276.976562 111.886719 C 277.46875 114.578125 277.304688 117.761719 276.976562 120.125 C 276.652344 121.921875 276.164062 123.226562 275.347656 124.777344 C 274.53125 126.40625 273.390625 128.121094 271.757812 129.425781 C 269.800781 130.976562 266.699219 132.199219 263.925781 132.933594 C 261.074219 133.746094 256.832031 134.726562 254.792969 133.910156 C 253.488281 133.503906 252.507812 132.28125 252.183594 131.136719 C 251.855469 130.078125 252.425781 128.28125 252.996094 127.46875 C 253.488281 126.734375 254.382812 126.242188 255.199219 126.082031 C 256.261719 125.917969 258.054688 126.488281 258.953125 127.140625 C 259.605469 127.628906 260.09375 128.527344 260.175781 129.425781 C 260.257812 130.484375 259.605469 132.28125 258.953125 133.015625 C 258.300781 133.667969 257.402344 134.074219 256.585938 134.15625 C 255.527344 134.15625 253.730469 133.503906 252.996094 132.6875 C 252.425781 132.117188 252.101562 131.136719 252.019531 130.320312 C 252.019531 129.507812 252.261719 128.445312 252.753906 127.792969 C 253.160156 127.140625 253.976562 126.488281 254.792969 126.242188 C 255.933594 125.835938 257.320312 126.488281 258.871094 126.164062 C 261.152344 125.671875 265.3125 124.53125 266.945312 123.0625 C 268.085938 122.085938 268.332031 120.699219 268.738281 119.390625 C 269.148438 118.003906 269.472656 116.457031 269.390625 114.988281 C 269.3125 113.4375 268.738281 111.726562 268.167969 110.339844 C 267.597656 109.035156 267.027344 107.726562 266.046875 106.832031 C 265.070312 106.015625 263.847656 105.363281 262.296875 105.199219 C 260.09375 104.875 256.097656 105.609375 253.8125 106.503906 C 252.183594 107.074219 250.714844 107.890625 249.734375 109.035156 C 248.835938 110.09375 248.347656 111.316406 248.105469 112.949219 C 247.695312 115.234375 247.207031 119.390625 248.675781 121.675781 C 250.222656 124.367188 256.179688 125.835938 257.972656 127.46875 C 258.871094 128.28125 259.441406 128.933594 259.6875 129.75 C 260.011719 130.648438 259.847656 131.871094 259.523438 132.6875 C 259.277344 133.257812 258.871094 133.828125 258.300781 134.15625 C 257.402344 134.644531 254.546875 134.808594 254.546875 134.808594 "/></clipPath><clipPath id="22ff47fb99"><path d="M 101.414062 98.558594 L 139 98.558594 L 139 134.679688 L 101.414062 134.679688 Z M 101.414062 98.558594 "/></clipPath><clipPath id="aba081dbe2"><path d="M 120.941406 134.480469 C 112.785156 134.074219 111.398438 133.828125 110.09375 133.175781 C 108.789062 132.523438 107.648438 131.464844 106.667969 130.402344 C 105.6875 129.34375 105.035156 128.363281 104.300781 126.894531 C 103.324219 124.855469 102.019531 121.351562 101.691406 118.984375 C 101.449219 117.273438 101.609375 115.886719 101.855469 114.417969 C 102.183594 112.949219 102.671875 111.886719 103.40625 110.421875 C 104.382812 108.21875 106.261719 104.628906 107.890625 102.835938 C 108.953125 101.609375 109.847656 100.875 111.398438 100.222656 C 113.519531 99.328125 117.273438 98.59375 119.554688 98.675781 C 121.1875 98.675781 122.164062 99 123.714844 99.570312 C 125.917969 100.386719 129.097656 101.855469 131.300781 103.570312 C 133.421875 105.363281 135.296875 107.648438 136.601562 110.175781 C 137.828125 112.621094 138.480469 116.292969 138.722656 118.578125 C 138.96875 120.207031 139.050781 121.429688 138.804688 122.816406 C 138.640625 124.125 138.152344 125.507812 137.5 126.734375 C 136.847656 127.957031 136.195312 129.015625 134.972656 129.996094 C 133.257812 131.382812 130.078125 132.769531 127.304688 133.503906 C 124.203125 134.238281 119.472656 135.132812 117.433594 134.320312 C 116.046875 133.746094 115.152344 132.523438 114.824219 131.464844 C 114.578125 130.402344 115.152344 128.609375 115.804688 127.792969 C 116.292969 127.058594 117.191406 126.652344 118.003906 126.488281 C 118.820312 126.324219 119.882812 126.40625 120.617188 126.816406 C 121.511719 127.386719 122.65625 128.773438 122.816406 129.914062 C 122.980469 131.054688 122.328125 132.769531 121.511719 133.503906 C 120.699219 134.238281 118.902344 134.726562 117.84375 134.402344 C 116.699219 134.15625 115.394531 132.933594 114.988281 131.871094 C 114.578125 130.8125 114.90625 129.015625 115.476562 128.121094 C 115.964844 127.386719 116.699219 126.894531 117.597656 126.570312 C 118.984375 126.082031 121.675781 126.40625 123.46875 126 C 124.855469 125.753906 126.082031 125.347656 127.304688 124.613281 C 128.527344 123.878906 130.160156 122.980469 130.648438 121.839844 C 131.136719 120.699219 130.730469 119.066406 130.484375 117.761719 C 130.242188 116.375 129.75 114.90625 129.097656 113.683594 C 128.363281 112.460938 127.792969 111.234375 126.488281 110.257812 C 124.695312 108.871094 121.023438 106.996094 118.820312 106.832031 C 117.273438 106.667969 115.964844 106.832031 114.742188 107.648438 C 113.03125 108.953125 111.074219 112.867188 110.339844 115.070312 C 109.847656 116.539062 109.765625 117.84375 109.929688 119.148438 C 110.09375 120.535156 110.746094 121.921875 111.480469 123.0625 C 112.296875 124.203125 113.191406 125.347656 114.578125 126 C 116.375 126.734375 120.207031 125.835938 121.921875 126.40625 C 123.0625 126.816406 123.796875 127.304688 124.285156 128.039062 C 124.855469 128.773438 125.101562 130.078125 125.019531 130.894531 C 124.9375 131.546875 124.777344 132.199219 124.285156 132.6875 C 123.632812 133.421875 120.941406 134.480469 120.941406 134.480469 "/></clipPath><clipPath id="82cd2de5e4"><path d="M 107 41.546875 L 135.4375 41.546875 L 135.4375 109.714844 L 107 109.714844 Z M 107 41.546875 "/></clipPath><clipPath id="658b4f1643"><path d="M 108.21875 100.714844 C 107.074219 72.980469 106.421875 58.625 107.890625 52.019531 C 108.625 48.511719 109.6875 45.984375 111.152344 44.269531 C 112.214844 43.046875 113.273438 42.394531 114.824219 41.984375 C 116.945312 41.332031 120.777344 41.578125 122.980469 41.984375 C 124.53125 42.230469 125.753906 42.71875 126.976562 43.453125 C 128.121094 44.1875 129.097656 45.003906 129.996094 46.390625 C 131.21875 48.265625 132.28125 52.019531 132.851562 54.300781 C 133.175781 55.933594 133.09375 56.421875 133.257812 58.625 C 133.828125 65.886719 136.195312 100.0625 135.132812 105.769531 C 134.890625 107.15625 134.644531 107.566406 134.074219 108.21875 C 133.585938 108.789062 132.605469 109.359375 131.871094 109.523438 C 131.054688 109.6875 129.996094 109.605469 129.261719 109.195312 C 128.363281 108.625 127.140625 107.15625 126.976562 106.097656 C 126.816406 104.957031 127.550781 103.242188 128.28125 102.507812 C 128.9375 101.855469 129.832031 101.53125 130.730469 101.449219 C 131.546875 101.367188 132.523438 101.53125 133.257812 102.019531 C 134.074219 102.671875 134.972656 104.300781 135.132812 105.363281 C 135.214844 106.261719 134.808594 107.15625 134.402344 107.890625 C 133.910156 108.542969 133.015625 109.113281 132.28125 109.359375 C 131.464844 109.605469 130.402344 109.605469 129.667969 109.359375 C 128.855469 109.035156 128.203125 108.871094 127.628906 107.726562 C 125.101562 102.753906 126.488281 68.167969 125.101562 58.789062 C 124.53125 54.875 124.53125 52.019531 123.144531 50.632812 C 122.164062 49.652344 120.289062 49.410156 119.066406 49.734375 C 117.925781 50.0625 116.699219 51.367188 116.128906 52.507812 C 115.476562 53.648438 115.558594 54.464844 115.476562 56.585938 C 114.988281 63.601562 117.925781 96.144531 116.292969 101.691406 C 115.804688 103.078125 115.394531 103.570312 114.578125 104.058594 C 113.847656 104.628906 112.703125 104.875 111.808594 104.792969 C 110.910156 104.628906 109.847656 104.140625 109.277344 103.40625 C 108.625 102.753906 108.21875 100.714844 108.21875 100.714844 "/></clipPath><clipPath id="f5c3766794"><path d="M 242.457031 41.425781 L 270.960938 41.425781 L 270.960938 105.652344 L 242.457031 105.652344 Z M 242.457031 41.425781 "/></clipPath><clipPath id="ddae6c7685"><path d="M 242.882812 101.609375 C 242.394531 72.898438 242.558594 66.78125 243.128906 62.050781 C 243.453125 58.707031 243.699219 56.261719 244.597656 53.40625 C 245.410156 50.550781 246.796875 47.125 248.183594 45.085938 C 249.164062 43.699219 249.898438 42.558594 251.449219 41.90625 C 253.40625 41.089844 257.402344 41.496094 259.6875 41.824219 C 261.316406 41.984375 262.539062 42.230469 263.765625 42.882812 C 265.070312 43.535156 266.292969 44.679688 267.191406 45.738281 C 268.003906 46.796875 268.578125 47.777344 269.066406 49.410156 C 269.964844 52.34375 270.371094 57.074219 270.699219 62.050781 C 271.105469 69.148438 270.941406 80.648438 270.535156 88.070312 C 270.125 93.617188 270.453125 100.304688 268.738281 102.671875 C 267.84375 103.894531 266.292969 104.222656 265.3125 104.300781 C 264.417969 104.300781 263.519531 103.8125 262.867188 103.324219 C 262.214844 102.753906 261.726562 101.855469 261.5625 101.039062 C 261.316406 100.304688 261.398438 99.246094 261.808594 98.511719 C 262.296875 97.53125 263.847656 96.472656 264.824219 96.144531 C 265.722656 95.984375 266.699219 96.144531 267.433594 96.636719 C 268.332031 97.207031 269.472656 98.675781 269.554688 99.816406 C 269.71875 100.875 268.902344 102.589844 268.167969 103.324219 C 267.515625 103.976562 266.539062 104.222656 265.722656 104.300781 C 264.90625 104.300781 263.925781 104.058594 263.191406 103.570312 C 262.539062 103.078125 262.050781 102.753906 261.644531 101.53125 C 259.929688 96.308594 262.867188 64.171875 262.378906 57.320312 C 262.296875 55.28125 262.378906 54.464844 261.808594 53.242188 C 261.316406 52.019531 260.421875 50.632812 259.277344 49.980469 C 258.136719 49.328125 256.179688 48.917969 255.199219 49.410156 C 254.140625 49.980469 253.730469 51.691406 253.160156 53.324219 C 252.34375 55.527344 251.773438 58.300781 251.367188 61.5625 C 250.714844 66.128906 250.550781 72.328125 250.46875 78.445312 C 250.304688 85.707031 252.019531 98.59375 250.957031 102.34375 C 250.550781 103.730469 250.0625 104.300781 249.328125 104.792969 C 248.59375 105.363281 247.449219 105.6875 246.554688 105.527344 C 245.65625 105.445312 244.597656 104.957031 243.945312 104.300781 C 243.371094 103.648438 242.882812 101.609375 242.882812 101.609375 "/></clipPath><clipPath id="25759806f7"><path d="M 264 55.625 L 334.5 55.625 L 334.5 120 L 264 120 Z M 264 55.625 "/></clipPath><clipPath id="7d80ab204d"><path d="M 268.085938 55.851562 C 283.257812 57.238281 289.457031 59.277344 294.679688 61.398438 C 299.898438 63.601562 305.445312 66.457031 309.765625 69.390625 C 313.601562 72.003906 316.539062 74.449219 319.636719 77.792969 C 323.308594 81.871094 327.875 87.988281 330.078125 92.394531 C 331.628906 95.574219 332.28125 97.695312 332.933594 101.121094 C 333.746094 105.609375 334.808594 114.417969 333.992188 117.191406 C 333.667969 118.332031 333.09375 118.820312 332.359375 119.230469 C 331.707031 119.71875 330.730469 119.964844 329.914062 119.964844 C 329.097656 119.882812 328.039062 119.636719 327.46875 118.984375 C 326.734375 118.25 325.917969 116.539062 326.082031 115.476562 C 326.164062 114.335938 327.304688 112.867188 328.203125 112.296875 C 328.933594 111.808594 329.914062 111.726562 330.730469 111.886719 C 331.546875 111.96875 332.523438 112.460938 333.09375 113.113281 C 333.667969 113.683594 334.074219 114.660156 334.15625 115.476562 C 334.238281 116.292969 334.074219 117.273438 333.585938 118.003906 C 333.015625 118.820312 331.382812 119.800781 330.320312 119.964844 C 329.425781 120.042969 328.527344 119.71875 327.792969 119.230469 C 327.140625 118.820312 326.652344 118.25 326.242188 117.191406 C 325.347656 114.90625 325.835938 108.625 325.183594 104.957031 C 324.613281 101.9375 324.367188 99.652344 322.980469 96.71875 C 321.023438 92.476562 316.128906 86.113281 312.949219 82.605469 C 310.746094 80.160156 309.277344 78.855469 306.585938 76.976562 C 302.589844 74.285156 296.0625 70.859375 291.089844 68.738281 C 286.847656 66.945312 282.851562 65.640625 278.609375 64.824219 C 274.53125 63.925781 268.25 64.417969 266.210938 63.519531 C 265.394531 63.191406 265.152344 62.867188 264.742188 62.214844 C 264.335938 61.5625 263.925781 60.339844 264.089844 59.441406 C 264.171875 58.542969 264.742188 57.484375 265.394531 56.914062 C 266.046875 56.261719 268.085938 55.851562 268.085938 55.851562 "/></clipPath><clipPath id="57ffc561ab"><path d="M 272.84375 113.953125 L 333.636719 113.953125 L 333.636719 129.152344 L 272.84375 129.152344 Z M 272.84375 113.953125 "/></clipPath><clipPath id="8ae88ad474"><path d="M 278.527344 115.394531 C 301.203125 120.859375 304.957031 121.1875 309.195312 120.941406 C 313.519531 120.699219 319.3125 119.800781 322.246094 118.738281 C 323.960938 118.085938 325.101562 117.433594 325.917969 116.617188 C 326.570312 116.046875 326.488281 115.230469 327.058594 114.824219 C 327.710938 114.253906 329.015625 114.007812 329.832031 114.007812 C 330.566406 114.007812 331.136719 114.253906 331.707031 114.660156 C 332.359375 115.152344 333.175781 116.210938 333.421875 117.027344 C 333.585938 117.679688 333.667969 118.332031 333.421875 118.984375 C 333.257812 119.71875 332.769531 121.023438 331.871094 121.351562 C 330.566406 121.921875 326.816406 121.023438 325.917969 120.042969 C 325.265625 119.390625 325.265625 118.332031 325.429688 117.515625 C 325.671875 116.457031 326.816406 114.90625 327.710938 114.417969 C 328.445312 113.925781 329.507812 113.925781 330.320312 114.089844 C 331.054688 114.253906 332.035156 114.742188 332.523438 115.394531 C 333.09375 116.046875 333.503906 116.945312 333.503906 117.761719 C 333.585938 118.65625 333.421875 119.636719 332.851562 120.289062 C 332.199219 121.1875 330.566406 122.082031 329.507812 122.164062 C 328.691406 122.246094 327.710938 121.921875 327.058594 121.351562 C 326.242188 120.699219 325.347656 119.066406 325.429688 117.925781 C 325.429688 116.78125 326.324219 115.230469 327.304688 114.578125 C 328.28125 114.007812 330.242188 114.089844 331.136719 114.335938 C 331.628906 114.5 332.28125 114.90625 332.199219 115.070312 C 332.117188 115.394531 327.058594 114.90625 327.058594 114.824219 C 327.058594 114.660156 329.75 113.847656 330.8125 114.253906 C 331.871094 114.578125 333.09375 115.964844 333.421875 117.027344 C 333.746094 117.925781 333.503906 118.902344 333.09375 119.882812 C 332.605469 121.105469 331.628906 122.328125 330.320312 123.390625 C 328.527344 124.855469 325.671875 126.082031 322.738281 126.976562 C 319.148438 128.121094 314.578125 128.855469 310.011719 129.097656 C 304.792969 129.261719 298.675781 128.773438 293.210938 127.875 C 287.664062 126.976562 280.160156 125.019531 276.894531 123.632812 C 275.347656 122.980469 274.285156 122.65625 273.632812 121.675781 C 272.980469 120.699219 272.65625 118.984375 272.980469 117.925781 C 273.144531 117.027344 273.878906 116.128906 274.695312 115.640625 C 275.671875 115.152344 278.527344 115.394531 278.527344 115.394531 "/></clipPath><clipPath id="3ab0e8c2ee"><path d="M 259.773438 120.019531 L 328.242188 120.019531 L 328.242188 149.679688 L 259.773438 149.679688 Z M 259.773438 120.019531 "/></clipPath><clipPath id="0c30c9084a"><path d="M 265.886719 129.507812 C 285.785156 138.804688 287.582031 139.375 290.84375 139.945312 C 295.492188 140.84375 302.425781 141.414062 307.648438 141.496094 C 312.132812 141.578125 318.25 143.128906 320.207031 140.925781 C 322.164062 138.722656 318.167969 128.9375 319.066406 128.039062 C 319.3125 127.710938 320.042969 128.121094 320.125 128.039062 C 320.125 127.792969 318.496094 127.058594 318.085938 126.40625 C 317.597656 125.671875 317.273438 124.695312 317.433594 123.878906 C 317.597656 122.816406 318.496094 121.1875 319.472656 120.617188 C 320.453125 120.125 322.328125 120.042969 323.308594 120.535156 C 324.285156 121.023438 325.347656 122.574219 325.511719 123.632812 C 325.671875 124.777344 325.019531 126.488281 324.203125 127.222656 C 323.390625 127.957031 321.59375 128.445312 320.535156 128.121094 C 319.390625 127.875 318.085938 126.570312 317.679688 125.589844 C 317.273438 124.777344 317.351562 123.796875 317.597656 122.980469 C 317.84375 122.246094 318.332031 121.351562 319.148438 120.859375 C 320.042969 120.371094 321.757812 119.800781 322.898438 120.371094 C 324.695312 121.1875 326.570312 125.753906 327.386719 127.957031 C 327.957031 129.589844 328.039062 130.566406 328.121094 132.199219 C 328.28125 134.5625 328.121094 138.480469 327.792969 140.761719 C 327.628906 142.394531 327.550781 143.617188 326.976562 144.839844 C 326.324219 146.066406 325.265625 147.289062 324.125 148.023438 C 322.980469 148.757812 321.921875 148.835938 320.042969 149.082031 C 315.722656 149.652344 305.363281 149.816406 298.757812 149.246094 C 292.882812 148.757812 287.988281 148.023438 282.363281 146.226562 C 275.589844 144.023438 263.847656 138.722656 261.152344 136.03125 C 260.175781 135.054688 259.929688 134.320312 259.847656 133.421875 C 259.765625 132.523438 260.09375 131.382812 260.582031 130.648438 C 261.152344 129.914062 262.132812 129.261719 263.03125 129.097656 C 263.925781 128.855469 265.886719 129.507812 265.886719 129.507812 "/></clipPath><clipPath id="75e48bab17"><path d="M 40.5625 55.734375 L 111 55.734375 L 111 120.898438 L 40.5625 120.898438 Z M 40.5625 55.734375 "/></clipPath><clipPath id="42023cff53"><path d="M 106.75 64.089844 C 91.660156 65.886719 84.972656 67.597656 80.242188 69.71875 C 76.082031 71.511719 72.492188 74.285156 69.390625 76.488281 C 66.945312 78.363281 65.234375 79.589844 63.03125 81.953125 C 60.011719 85.378906 55.6875 91.007812 53.40625 95.738281 C 51.367188 99.898438 50.46875 104.382812 49.570312 108.460938 C 48.757812 112.132812 49.164062 117.273438 48.023438 119.066406 C 47.449219 119.964844 46.636719 120.289062 45.820312 120.535156 C 45.085938 120.777344 44.023438 120.777344 43.210938 120.371094 C 42.3125 119.964844 41.089844 118.496094 40.761719 117.515625 C 40.519531 116.617188 40.597656 115.640625 41.089844 114.90625 C 41.578125 114.007812 42.964844 112.785156 44.105469 112.539062 C 45.167969 112.378906 46.960938 113.113281 47.695312 113.765625 C 48.347656 114.417969 48.675781 115.3125 48.835938 116.128906 C 48.917969 116.945312 48.757812 118.003906 48.265625 118.738281 C 47.613281 119.554688 45.984375 120.535156 45.003906 120.699219 C 44.105469 120.777344 43.128906 120.453125 42.476562 119.964844 C 41.742188 119.554688 41.171875 118.820312 40.84375 117.925781 C 40.4375 116.539062 40.597656 114.417969 40.761719 112.378906 C 41.007812 109.929688 41.332031 107.402344 42.230469 104.300781 C 43.371094 99.816406 45.25 93.371094 47.941406 88.480469 C 50.714844 83.667969 55.117188 78.527344 58.460938 75.183594 C 60.828125 72.65625 62.785156 71.269531 65.394531 69.390625 C 68.496094 67.109375 71.757812 64.578125 76.082031 62.621094 C 81.628906 60.09375 90.761719 57.648438 96.472656 56.667969 C 100.46875 55.933594 104.464844 55.609375 106.75 55.933594 C 107.972656 56.097656 108.789062 56.34375 109.441406 56.996094 C 110.175781 57.566406 110.664062 58.707031 110.828125 59.523438 C 110.910156 60.175781 110.828125 60.910156 110.582031 61.480469 C 110.339844 62.050781 110.011719 62.621094 109.441406 63.113281 C 108.789062 63.601562 106.75 64.089844 106.75 64.089844 "/></clipPath><clipPath id="409e9308e7"><path d="M 40.628906 111.683594 L 108.308594 111.683594 L 108.308594 128.8125 L 40.628906 128.8125 Z M 40.628906 111.683594 "/></clipPath><clipPath id="9fade57d8d"><path d="M 47.941406 114.089844 C 54.058594 118.167969 56.421875 119.3125 59.6875 119.964844 C 64.824219 120.941406 74.367188 121.351562 80.320312 120.535156 C 85.132812 119.882812 88.886719 118.25 92.882812 116.699219 C 96.636719 115.234375 101.039062 111.808594 103.730469 111.726562 C 105.199219 111.644531 106.585938 112.214844 107.320312 113.03125 C 108.054688 113.925781 108.460938 115.722656 108.136719 116.78125 C 107.890625 117.84375 106.503906 119.148438 105.609375 119.636719 C 104.792969 119.964844 103.730469 119.882812 102.996094 119.636719 C 102.183594 119.390625 101.285156 118.820312 100.875 118.085938 C 100.304688 117.191406 100.144531 115.3125 100.386719 114.253906 C 100.632812 113.4375 101.367188 112.703125 102.101562 112.296875 C 102.753906 111.886719 103.8125 111.644531 104.628906 111.726562 C 105.445312 111.808594 106.421875 112.214844 106.996094 112.785156 C 107.566406 113.273438 108.136719 114.171875 108.21875 115.070312 C 108.300781 116.128906 107.890625 117.679688 107.074219 118.660156 C 106.097656 119.882812 104.464844 120.453125 102.425781 121.511719 C 98.757812 123.308594 91.253906 126.488281 86.683594 127.628906 C 83.421875 128.445312 81.546875 128.609375 78.039062 128.691406 C 72.65625 128.9375 62.539062 128.855469 57.238281 127.792969 C 53.8125 127.140625 51.609375 126.164062 49.082031 124.855469 C 46.636719 123.550781 43.535156 121.429688 42.148438 119.882812 C 41.332031 119.066406 40.925781 118.25 40.761719 117.351562 C 40.597656 116.457031 40.761719 115.3125 41.253906 114.5 C 41.742188 113.765625 42.71875 113.03125 43.535156 112.703125 C 44.105469 112.460938 44.757812 112.460938 45.492188 112.621094 C 46.226562 112.785156 47.941406 114.089844 47.941406 114.089844 "/></clipPath><clipPath id="27122ccf49"><path d="M 51.761719 123.945312 L 120.734375 123.945312 L 120.734375 151.378906 L 51.761719 151.378906 Z M 51.761719 123.945312 "/></clipPath><clipPath id="b387163990"><path d="M 60.5 128.039062 C 60.339844 142.558594 57.808594 139.539062 58.054688 139.210938 C 58.300781 138.804688 63.273438 141.578125 66.046875 142.230469 C 68.820312 142.882812 71.839844 142.882812 74.777344 143.046875 C 77.628906 143.128906 80.566406 143.292969 83.421875 143.046875 C 86.195312 142.71875 88.558594 142.230469 91.742188 141.253906 C 96.226562 139.945312 102.996094 137.011719 107.402344 134.890625 C 110.664062 133.257812 113.519531 130.320312 115.804688 130.078125 C 117.273438 129.914062 118.660156 130.320312 119.472656 131.136719 C 120.289062 131.871094 120.859375 133.585938 120.699219 134.726562 C 120.453125 135.867188 119.390625 137.253906 118.332031 137.746094 C 117.351562 138.234375 115.476562 138.152344 114.5 137.5 C 113.601562 136.929688 112.703125 135.296875 112.621094 134.238281 C 112.460938 133.421875 112.867188 132.441406 113.273438 131.707031 C 113.765625 131.054688 114.5 130.402344 115.394531 130.160156 C 116.375 129.914062 118.25 130.160156 119.148438 130.8125 C 120.042969 131.464844 120.699219 133.257812 120.699219 134.320312 C 120.777344 135.132812 120.289062 135.949219 119.71875 136.683594 C 119.066406 137.582031 118.25 138.152344 116.78125 139.132812 C 113.191406 141.332031 103.570312 145.902344 97.777344 147.859375 C 93.210938 149.488281 89.457031 150.46875 85.132812 151.039062 C 80.8125 151.53125 76.164062 151.449219 71.839844 151.039062 C 67.679688 150.714844 62.460938 149.898438 59.605469 148.917969 C 57.972656 148.429688 56.914062 148.023438 55.851562 147.042969 C 54.546875 145.984375 53.324219 144.597656 52.671875 142.476562 C 51.53125 138.804688 51.53125 128.773438 52.753906 126.082031 C 53.324219 125.019531 54.140625 124.53125 54.957031 124.203125 C 55.769531 123.878906 56.996094 123.878906 57.808594 124.203125 C 58.707031 124.53125 59.605469 125.429688 60.011719 126.082031 C 60.339844 126.734375 60.5 128.039062 60.5 128.039062 "/></clipPath><clipPath id="0008b2396a"><path d="M 126.789062 52.644531 L 189.875 52.644531 L 189.875 78.636719 L 126.789062 78.636719 Z M 126.789062 52.644531 "/></clipPath><clipPath id="e130da6c32"><path d="M 130.976562 55.6875 C 155.851562 52.753906 156.832031 52.507812 158.300781 52.753906 C 159.6875 52.996094 160.746094 53.242188 162.378906 54.222656 C 165.558594 56.097656 171.105469 63.113281 174.855469 65.886719 C 177.550781 67.761719 179.75 68.820312 182.199219 69.800781 C 184.402344 70.699219 187.746094 70.535156 188.886719 71.757812 C 189.703125 72.738281 189.867188 74.53125 189.621094 75.507812 C 189.457031 76.40625 188.804688 77.140625 188.152344 77.628906 C 187.5 78.121094 186.519531 78.527344 185.707031 78.445312 C 184.644531 78.363281 182.933594 77.550781 182.359375 76.570312 C 181.707031 75.671875 181.546875 73.878906 181.953125 72.816406 C 182.441406 71.757812 183.910156 70.699219 184.972656 70.371094 C 185.785156 70.125 186.765625 70.289062 187.5 70.699219 C 188.398438 71.269531 189.621094 72.65625 189.785156 73.796875 C 189.945312 74.9375 189.210938 76.570312 188.480469 77.386719 C 187.90625 78.039062 187.09375 78.28125 186.113281 78.445312 C 184.808594 78.609375 183.257812 78.527344 181.464844 77.957031 C 178.445312 77.140625 173.878906 75.101562 170.289062 72.574219 C 165.964844 69.636719 163.191406 62.621094 157.808594 60.910156 C 151.203125 58.707031 137.011719 63.925781 132.523438 63.847656 C 130.8125 63.847656 129.914062 63.765625 129.015625 63.4375 C 128.445312 63.113281 127.957031 62.703125 127.628906 62.132812 C 127.140625 61.398438 126.816406 60.175781 126.894531 59.277344 C 126.976562 58.378906 127.550781 57.320312 128.28125 56.75 C 128.9375 56.179688 130.976562 55.6875 130.976562 55.6875 "/></clipPath><clipPath id="6a7990bd76"><path d="M 181.597656 51.699219 L 249.769531 51.699219 L 249.769531 78.734375 L 181.597656 78.734375 Z M 181.597656 51.699219 "/></clipPath><clipPath id="b2401ba716"><path d="M 185.707031 70.289062 C 194.269531 69.71875 197.042969 69.230469 199.816406 67.925781 C 203.242188 66.375 207.402344 63.113281 210.257812 60.582031 C 212.621094 58.460938 214.007812 55.363281 215.964844 54.058594 C 217.433594 53.160156 218.496094 53.078125 220.289062 52.671875 C 223.46875 52.101562 229.015625 51.855469 233.421875 51.855469 C 237.988281 51.855469 244.597656 51.53125 247.125 52.835938 C 248.511719 53.570312 249.328125 54.792969 249.570312 55.769531 C 249.816406 56.667969 249.652344 57.648438 249.246094 58.382812 C 248.917969 59.113281 248.265625 59.929688 247.449219 60.257812 C 246.472656 60.664062 244.597656 60.582031 243.617188 60.175781 C 242.800781 59.847656 242.230469 59.035156 241.824219 58.300781 C 241.496094 57.484375 241.332031 56.503906 241.660156 55.6875 C 241.984375 54.628906 243.210938 53.242188 244.105469 52.835938 C 244.921875 52.425781 245.902344 52.425781 246.71875 52.671875 C 247.695312 53.078125 249.082031 54.382812 249.488281 55.363281 C 249.816406 56.179688 249.734375 57.238281 249.410156 57.972656 C 249.164062 58.789062 248.511719 59.605469 247.859375 60.011719 C 247.125 60.5 246.554688 60.582031 245.332031 60.664062 C 242.148438 61.074219 232.769531 59.847656 228.121094 60.09375 C 224.855469 60.257812 222.164062 60.09375 219.882812 61.316406 C 217.597656 62.621094 216.617188 65.640625 214.335938 67.761719 C 211.5625 70.207031 207.890625 73.0625 204.222656 74.855469 C 200.386719 76.652344 195.25 77.875 191.660156 78.363281 C 189.050781 78.773438 186.359375 78.855469 184.726562 78.363281 C 183.667969 78.039062 182.851562 77.46875 182.359375 76.734375 C 181.789062 75.917969 181.546875 74.695312 181.628906 73.878906 C 181.707031 73.226562 181.871094 72.574219 182.359375 72.085938 C 183.015625 71.351562 185.707031 70.289062 185.707031 70.289062 "/></clipPath><clipPath id="65c57c3373"><path d="M 139.140625 53.441406 L 236.988281 53.441406 L 236.988281 95.644531 L 139.140625 95.644531 Z M 139.140625 53.441406 "/></clipPath><clipPath id="5b43f2ee4a"><path d="M 146.878906 58.625 C 158.953125 77.304688 160.910156 78.933594 163.273438 80.484375 C 165.558594 82.117188 168.085938 83.257812 170.699219 84.238281 C 173.226562 85.296875 175.511719 86.113281 178.691406 86.601562 C 183.257812 87.335938 191.007812 87.664062 195.65625 87.171875 C 198.835938 86.929688 201.121094 86.195312 203.730469 85.296875 C 206.421875 84.480469 209.113281 83.503906 211.5625 82.199219 C 214.007812 80.8125 216.617188 78.691406 218.414062 77.140625 C 219.71875 76.082031 220.453125 75.429688 221.511719 74.203125 C 222.898438 72.410156 224.695312 69.882812 225.917969 67.109375 C 227.46875 63.683594 227.875 56.996094 229.667969 54.953125 C 230.648438 53.894531 232.035156 53.40625 233.175781 53.488281 C 234.320312 53.570312 235.867188 54.546875 236.359375 55.527344 C 236.929688 56.503906 236.929688 58.378906 236.441406 59.359375 C 235.949219 60.421875 234.480469 61.480469 233.339844 61.5625 C 232.199219 61.726562 230.484375 61.074219 229.75 60.257812 C 229.015625 59.441406 228.609375 57.648438 228.855469 56.503906 C 229.179688 55.445312 230.402344 54.058594 231.464844 53.730469 C 232.523438 53.324219 234.320312 53.730469 235.214844 54.222656 C 235.949219 54.710938 236.441406 55.445312 236.765625 56.339844 C 237.171875 57.808594 236.929688 60.257812 236.441406 62.296875 C 235.949219 64.824219 234.890625 67.679688 233.503906 70.453125 C 231.789062 73.714844 229.75 77.550781 226.652344 80.730469 C 223.0625 84.480469 216.699219 88.722656 212.460938 90.84375 C 209.441406 92.476562 206.914062 92.964844 204.140625 93.78125 C 201.367188 94.515625 198.757812 95.085938 195.65625 95.332031 C 191.90625 95.65625 187.011719 95.492188 183.257812 95.25 C 180.160156 95.003906 177.550781 94.757812 174.777344 94.105469 C 172.003906 93.453125 169.390625 92.71875 166.539062 91.414062 C 163.113281 89.867188 158.789062 87.582031 155.527344 84.890625 C 152.261719 82.117188 149.652344 78.773438 147.042969 75.101562 C 144.1875 71.1875 140.027344 64.660156 139.375 61.726562 C 139.132812 60.5 139.210938 59.6875 139.621094 58.871094 C 140.027344 58.054688 140.925781 57.238281 141.742188 56.914062 C 142.558594 56.503906 143.78125 56.503906 144.597656 56.75 C 145.492188 57.074219 146.878906 58.625 146.878906 58.625 "/></clipPath><clipPath id="82c08b931b"><path d="M 127.882812 260.710938 L 158.808594 260.710938 L 158.808594 271.535156 L 127.882812 271.535156 Z M 127.882812 260.710938 "/></clipPath><clipPath id="5646cff344"><path d="M 132.117188 260.746094 C 146.796875 261.5625 154.222656 262.378906 156.585938 263.765625 C 157.726562 264.335938 158.21875 265.152344 158.542969 265.886719 C 158.789062 266.539062 158.871094 267.191406 158.707031 267.84375 C 158.542969 268.660156 158.054688 269.800781 157.402344 270.371094 C 156.667969 271.023438 155.609375 271.511719 154.628906 271.429688 C 153.488281 271.269531 151.691406 270.289062 151.121094 269.230469 C 150.550781 268.25 150.550781 266.457031 151.121094 265.394531 C 151.609375 264.417969 153.160156 263.355469 154.222656 263.273438 C 155.363281 263.113281 157.074219 263.847656 157.808594 264.660156 C 158.542969 265.558594 158.953125 267.351562 158.625 268.414062 C 158.300781 269.472656 157.074219 270.859375 156.015625 271.1875 C 154.957031 271.511719 153.160156 271.269531 152.261719 270.617188 C 151.367188 269.882812 150.550781 268.25 150.632812 267.109375 C 150.714844 265.964844 151.691406 264.417969 152.589844 263.847656 C 153.324219 263.355469 154.300781 263.191406 155.117188 263.273438 C 155.933594 263.355469 157.484375 264.417969 157.484375 264.335938 C 157.484375 264.335938 155.6875 263.355469 155.6875 263.355469 C 155.6875 263.4375 157.566406 264.417969 158.054688 265.070312 C 158.460938 265.558594 158.707031 266.210938 158.707031 266.863281 C 158.789062 267.679688 158.542969 268.902344 158.054688 269.71875 C 157.484375 270.453125 156.914062 270.941406 155.609375 271.269531 C 151.691406 272.246094 133.503906 270.289062 129.996094 268.414062 C 128.855469 267.761719 128.445312 267.027344 128.121094 266.210938 C 127.875 265.3125 127.875 264.171875 128.203125 263.273438 C 128.609375 262.460938 129.507812 261.644531 130.242188 261.234375 C 130.8125 260.828125 132.117188 260.746094 132.117188 260.746094 "/></clipPath><clipPath id="26c4934d56"><path d="M 150.3125 263.117188 L 163.839844 263.117188 L 163.839844 305 L 150.3125 305 Z M 150.3125 263.117188 "/></clipPath><clipPath id="3ff0a2fd07"><path d="M 158.382812 266.128906 C 162.703125 286.765625 164.171875 297.289062 163.765625 300.875 C 163.601562 302.261719 163.355469 302.914062 162.703125 303.570312 C 162.132812 304.300781 161.074219 304.792969 160.175781 304.957031 C 159.277344 305.035156 158.136719 304.792969 157.402344 304.222656 C 156.585938 303.730469 155.933594 302.835938 155.6875 301.855469 C 155.527344 300.875 155.769531 299.164062 156.503906 298.347656 C 157.15625 297.449219 158.953125 296.796875 160.011719 296.796875 C 160.828125 296.796875 161.808594 297.207031 162.378906 297.859375 C 163.113281 298.59375 163.847656 300.304688 163.683594 301.449219 C 163.519531 302.589844 162.378906 303.976562 161.480469 304.546875 C 160.746094 305.035156 159.6875 305.035156 158.871094 304.875 C 158.136719 304.710938 157.15625 304.222656 156.667969 303.648438 C 156.097656 302.996094 155.609375 302.101562 155.609375 301.203125 C 155.609375 300.144531 156.339844 298.429688 157.074219 297.695312 C 157.726562 297.125 158.707031 296.878906 159.523438 296.796875 C 160.339844 296.796875 161.398438 297.042969 162.050781 297.613281 C 162.867188 298.265625 163.683594 299.898438 163.765625 301.039062 C 163.765625 301.9375 163.355469 302.914062 162.703125 303.570312 C 162.132812 304.222656 161.074219 304.792969 160.175781 304.957031 C 159.277344 305.035156 158.136719 304.792969 157.402344 304.222656 C 156.585938 303.730469 156.179688 303.160156 155.6875 301.855469 C 154.464844 298.59375 154.628906 288.640625 153.648438 282.605469 C 152.835938 277.222656 150.222656 270.289062 150.386719 267.273438 C 150.46875 265.964844 150.796875 265.234375 151.367188 264.578125 C 151.9375 263.847656 152.996094 263.273438 153.894531 263.191406 C 154.792969 263.03125 156.015625 263.355469 156.75 263.847656 C 157.484375 264.335938 158.382812 266.210938 158.382812 266.210938 "/></clipPath><clipPath id="3a5ce86fb5"><path d="M 155.402344 296.429688 L 191.617188 296.429688 L 191.617188 334.300781 L 155.402344 334.300781 Z M 155.402344 296.429688 "/></clipPath><clipPath id="7868ca86a3"><path d="M 163.601562 299.570312 C 180.078125 319.148438 189.050781 324.777344 190.84375 327.792969 C 191.496094 328.9375 191.660156 329.75 191.496094 330.648438 C 191.414062 331.546875 190.84375 332.605469 190.109375 333.175781 C 189.457031 333.746094 188.316406 334.238281 187.417969 334.15625 C 186.359375 334.074219 184.808594 333.257812 184.15625 332.523438 C 183.585938 331.789062 183.257812 330.894531 183.421875 329.996094 C 183.503906 328.9375 184.320312 327.304688 185.214844 326.652344 C 186.195312 326.082031 187.988281 325.917969 189.050781 326.324219 C 190.109375 326.816406 191.171875 328.28125 191.496094 329.34375 C 191.742188 330.160156 191.496094 331.136719 191.089844 331.871094 C 190.761719 332.605469 190.109375 333.421875 189.292969 333.746094 C 188.316406 334.15625 186.441406 334.238281 185.460938 333.667969 C 184.480469 333.09375 183.503906 331.546875 183.421875 330.484375 C 183.339844 329.34375 183.992188 327.628906 184.890625 326.894531 C 185.785156 326.242188 187.582031 326 188.640625 326.164062 C 189.539062 326.40625 190.355469 327.222656 190.84375 327.792969 C 191.253906 328.363281 191.414062 329.015625 191.496094 329.667969 C 191.578125 330.320312 191.578125 330.976562 191.253906 331.628906 C 190.925781 332.363281 190.191406 333.339844 189.292969 333.746094 C 188.316406 334.15625 187.09375 334.238281 185.542969 333.667969 C 181.871094 332.28125 174.449219 324.855469 169.71875 320.207031 C 165.394531 315.886719 160.257812 309.929688 158.054688 306.667969 C 156.914062 305.117188 156.421875 304.140625 156.015625 302.835938 C 155.6875 301.773438 155.363281 300.550781 155.6875 299.492188 C 156.097656 298.429688 157.238281 297.125 158.300781 296.71875 C 159.113281 296.308594 160.339844 296.390625 161.152344 296.71875 C 162.132812 297.207031 163.601562 299.570312 163.601562 299.570312 "/></clipPath><clipPath id="722c20600b"><path d="M 183.078125 292.785156 L 224.945312 292.785156 L 224.945312 334 L 183.078125 334 Z M 183.078125 292.785156 "/></clipPath><clipPath id="8568b35f41"><path d="M 186.847656 325.835938 C 189.945312 325.265625 191.089844 324.367188 192.394531 323.390625 C 194.269531 322.003906 196.472656 320.535156 199.164062 317.84375 C 204.140625 312.785156 214.660156 296.308594 218.25 293.699219 C 219.3125 292.964844 219.882812 292.800781 220.699219 292.882812 C 221.757812 292.964844 223.46875 293.78125 224.125 294.679688 C 224.695312 295.332031 224.855469 296.308594 224.855469 297.125 C 224.777344 297.941406 224.53125 298.917969 223.878906 299.570312 C 223.144531 300.304688 221.511719 301.121094 220.371094 301.039062 C 219.230469 300.875 217.679688 299.898438 217.191406 298.917969 C 216.617188 297.941406 216.617188 296.0625 217.109375 295.085938 C 217.679688 294.105469 219.148438 293.046875 220.289062 292.882812 C 221.429688 292.800781 223.144531 293.453125 223.878906 294.269531 C 224.613281 295.167969 224.9375 296.636719 224.695312 298.023438 C 224.367188 300.0625 222.410156 302.183594 220.289062 305.035156 C 216.617188 310.09375 208.707031 319.882812 203.648438 324.855469 C 200.144531 328.28125 196.878906 331.382812 193.78125 332.851562 C 191.660156 333.828125 189.292969 333.992188 187.664062 333.910156 C 186.519531 333.910156 185.625 333.746094 184.890625 333.175781 C 184.074219 332.523438 183.175781 330.894531 183.175781 329.832031 C 183.09375 328.855469 183.667969 327.792969 184.238281 327.140625 C 184.890625 326.488281 186.847656 325.835938 186.847656 325.835938 "/></clipPath><clipPath id="6b091882f9"><path d="M 216.363281 262.527344 L 226.367188 262.527344 L 226.367188 301.082031 L 216.363281 301.082031 Z M 216.363281 262.527344 "/></clipPath><clipPath id="1de52ed013"><path d="M 216.375 296.960938 C 218.660156 264.089844 219.066406 263.683594 219.71875 263.273438 C 220.453125 262.785156 221.429688 262.460938 222.246094 262.539062 C 223.308594 262.703125 224.9375 263.683594 225.511719 264.5 C 226.082031 265.234375 226.164062 266.292969 226.082031 267.109375 C 226 267.925781 225.671875 268.820312 225.019531 269.472656 C 224.203125 270.125 222.492188 270.859375 221.351562 270.617188 C 220.289062 270.453125 218.820312 269.230469 218.332031 268.332031 C 217.925781 267.597656 217.84375 266.539062 218.085938 265.722656 C 218.25 264.90625 218.660156 264.007812 219.390625 263.519531 C 220.289062 262.867188 222.085938 262.539062 223.144531 262.703125 C 223.960938 262.867188 224.777344 263.519531 225.265625 264.171875 C 225.753906 264.824219 225.917969 265.3125 226.082031 266.617188 C 226.734375 271.1875 225.917969 293.535156 224.449219 297.941406 C 223.960938 299.246094 223.550781 299.816406 222.816406 300.304688 C 222.085938 300.796875 220.859375 301.121094 219.964844 301.039062 C 219.066406 300.875 218.003906 300.304688 217.433594 299.652344 C 216.863281 299 216.375 296.960938 216.375 296.960938 "/></clipPath><clipPath id="dd4076ffe2"><path d="M 217.992188 259.382812 L 250.28125 259.382812 L 250.28125 270.722656 L 217.992188 270.722656 Z M 217.992188 259.382812 "/></clipPath><clipPath id="e0556170ca"><path d="M 222.003906 262.539062 C 240.191406 259.523438 245.25 259.035156 247.449219 259.6875 C 248.511719 260.09375 249.082031 260.582031 249.488281 261.316406 C 249.980469 261.96875 250.222656 262.949219 250.222656 263.847656 C 250.144531 264.660156 249.898438 265.640625 249.246094 266.210938 C 248.511719 266.945312 246.71875 267.679688 245.65625 267.679688 C 244.839844 267.597656 243.945312 267.109375 243.292969 266.539062 C 242.71875 265.964844 242.148438 265.152344 242.148438 264.253906 C 241.984375 263.191406 242.476562 261.398438 243.371094 260.664062 C 244.1875 259.847656 245.984375 259.441406 247.042969 259.605469 C 247.859375 259.6875 248.675781 260.339844 249.246094 260.910156 C 249.816406 261.5625 250.144531 262.539062 250.222656 263.355469 C 250.222656 264.171875 249.980469 265.234375 249.488281 265.886719 C 249.082031 266.539062 248.511719 267.027344 247.449219 267.433594 C 245.332031 268.25 240.597656 267.597656 236.765625 268.085938 C 232.199219 268.578125 225.019531 270.941406 222.085938 270.699219 C 220.777344 270.617188 220.042969 270.289062 219.390625 269.71875 C 218.660156 269.148438 218.085938 268.085938 218.003906 267.191406 C 217.925781 266.128906 218.578125 264.417969 219.3125 263.601562 C 219.964844 262.949219 222.003906 262.539062 222.003906 262.539062 "/></clipPath><clipPath id="88804e13c6"><path d="M 242 259.515625 L 267.320312 259.515625 L 267.320312 307.972656 L 242 307.972656 Z M 242 259.515625 "/></clipPath><clipPath id="b301fc04f6"><path d="M 249.816406 261.886719 C 259.441406 282.359375 266.945312 298.101562 267.191406 303.078125 C 267.273438 304.875 266.863281 305.933594 266.128906 306.75 C 265.3125 307.566406 263.601562 308.054688 262.460938 307.890625 C 261.398438 307.726562 259.929688 306.667969 259.441406 305.609375 C 259.035156 304.546875 259.195312 302.507812 259.847656 301.527344 C 260.421875 300.632812 262.132812 299.816406 263.191406 299.816406 C 264.335938 299.816406 265.886719 300.796875 266.539062 301.609375 C 267.109375 302.34375 267.273438 303.324219 267.273438 304.140625 C 267.191406 304.953125 266.863281 305.933594 266.210938 306.585938 C 265.476562 307.320312 263.765625 308.054688 262.703125 307.890625 C 261.5625 307.808594 260.09375 306.75 259.523438 305.769531 C 259.035156 304.710938 259.035156 302.914062 259.605469 301.9375 C 260.09375 300.957031 261.644531 299.898438 262.785156 299.816406 C 263.925781 299.734375 265.558594 300.386719 266.292969 301.285156 C 267.027344 302.183594 267.351562 303.976562 267.109375 305.035156 C 266.863281 305.933594 266.046875 306.832031 265.3125 307.320312 C 264.742188 307.726562 264.171875 307.972656 263.4375 307.972656 C 262.621094 307.972656 261.5625 307.726562 260.664062 307.15625 C 259.605469 306.261719 258.953125 304.792969 257.890625 302.589844 C 255.445312 297.695312 251.609375 284.890625 248.59375 277.957031 C 246.390625 272.738281 242.558594 267.273438 242.148438 264.335938 C 241.984375 263.113281 242.148438 262.296875 242.636719 261.480469 C 243.046875 260.746094 244.023438 260.011719 244.839844 259.6875 C 245.738281 259.441406 246.960938 259.523438 247.777344 259.847656 C 248.59375 260.175781 249.816406 261.886719 249.816406 261.886719 "/></clipPath><clipPath id="c0adbb26b3"><path d="M 258.738281 286.714844 L 283.550781 286.714844 L 283.550781 313.574219 L 258.738281 313.574219 Z M 258.738281 286.714844 "/></clipPath><clipPath id="e70fbf7209"><path d="M 266.78125 302.019531 C 267.761719 303.976562 269.472656 305.117188 270.777344 305.363281 C 272.085938 305.527344 274.125 305.363281 274.9375 304.382812 C 276 302.914062 273.796875 297.289062 274.613281 295.902344 C 275.019531 295.167969 276.652344 295.332031 276.652344 294.839844 C 276.734375 294.269531 274.125 293.535156 273.714844 292.476562 C 273.226562 291.496094 273.46875 289.621094 273.960938 288.722656 C 274.367188 287.90625 275.183594 287.335938 275.917969 287.011719 C 276.734375 286.765625 277.710938 286.601562 278.527344 286.929688 C 279.507812 287.335938 280.976562 288.558594 281.300781 289.621094 C 281.628906 290.679688 281.21875 292.476562 280.648438 293.371094 C 280.160156 294.105469 279.261719 294.675781 278.445312 294.757812 C 277.386719 295.003906 275.589844 294.675781 274.695312 293.945312 C 273.878906 293.210938 273.308594 291.414062 273.390625 290.355469 C 273.390625 289.457031 273.796875 288.558594 274.449219 287.988281 C 275.265625 287.335938 276.976562 286.441406 278.121094 286.847656 C 279.667969 287.335938 281.382812 290.273438 282.28125 292.71875 C 283.503906 296.144531 283.828125 302.671875 283.175781 305.769531 C 282.769531 307.566406 281.871094 308.707031 280.894531 309.847656 C 279.996094 310.910156 278.855469 311.804688 277.628906 312.460938 C 276.40625 313.03125 275.183594 313.355469 273.632812 313.519531 C 271.351562 313.683594 267.433594 313.4375 265.3125 312.539062 C 263.765625 311.804688 262.785156 310.664062 261.808594 309.605469 C 260.828125 308.542969 260.011719 307.238281 259.523438 306.015625 C 259.113281 304.953125 258.707031 303.8125 258.871094 302.835938 C 259.035156 301.9375 259.605469 300.875 260.257812 300.304688 C 260.992188 299.734375 262.050781 299.328125 262.949219 299.328125 C 263.925781 299.328125 265.070312 299.816406 265.640625 300.386719 C 266.210938 300.796875 266.78125 302.019531 266.78125 302.019531 "/></clipPath><clipPath id="f756fb9088"><path d="M 257.367188 234.246094 L 281.5 234.246094 L 281.5 295.179688 L 257.367188 295.179688 Z M 257.367188 234.246094 "/></clipPath><clipPath id="140548e5df"><path d="M 273.226562 291.089844 C 263.03125 252.753906 258.054688 243.128906 257.484375 239.457031 C 257.320312 238.152344 257.320312 237.582031 257.726562 236.847656 C 258.21875 235.867188 259.6875 234.726562 260.664062 234.402344 C 261.480469 234.238281 262.539062 234.320312 263.273438 234.808594 C 264.171875 235.296875 265.3125 236.765625 265.476562 237.90625 C 265.640625 238.96875 264.90625 240.679688 264.171875 241.496094 C 263.601562 242.066406 262.621094 242.394531 261.808594 242.476562 C 260.992188 242.558594 259.929688 242.394531 259.277344 241.90625 C 258.460938 241.253906 257.484375 239.621094 257.402344 238.558594 C 257.320312 237.664062 257.648438 236.765625 258.136719 236.03125 C 258.625 235.378906 259.441406 234.808594 260.257812 234.5625 C 260.992188 234.320312 262.050781 234.320312 262.867188 234.644531 C 263.601562 234.890625 264.171875 235.214844 264.90625 236.195312 C 267.191406 239.375 271.1875 251.773438 273.796875 259.769531 C 276.488281 268.003906 279.589844 279.425781 280.648438 284.972656 C 281.21875 287.664062 281.546875 289.457031 281.382812 291.089844 C 281.21875 292.148438 280.976562 293.128906 280.320312 293.78125 C 279.75 294.433594 278.691406 295.003906 277.792969 295.085938 C 276.894531 295.25 275.753906 295.003906 275.019531 294.433594 C 274.125 293.78125 273.226562 291.089844 273.226562 291.089844 "/></clipPath><clipPath id="2b813b31fc"><path d="M 269.851562 273.113281 L 282.238281 273.113281 L 282.238281 301.253906 L 269.851562 301.253906 Z M 269.851562 273.113281 "/></clipPath><clipPath id="4fbe47908b"><path d="M 273.960938 297.371094 C 270.699219 279.015625 270.042969 278.609375 269.964844 277.792969 C 269.800781 276.976562 269.964844 276 270.453125 275.265625 C 271.023438 274.367188 272.65625 273.390625 273.632812 273.226562 C 274.53125 273.0625 275.507812 273.390625 276.164062 273.878906 C 276.894531 274.285156 277.550781 275.019531 277.792969 275.917969 C 278.121094 276.894531 277.875 278.773438 277.304688 279.667969 C 276.816406 280.402344 276 280.976562 275.183594 281.21875 C 274.367188 281.464844 273.390625 281.464844 272.574219 281.136719 C 271.59375 280.648438 270.371094 279.261719 270.042969 278.28125 C 269.71875 277.46875 269.882812 276.40625 270.207031 275.671875 C 270.535156 274.9375 271.269531 274.125 272.003906 273.714844 C 272.738281 273.308594 273.714844 273.144531 274.53125 273.226562 C 275.347656 273.390625 276.164062 273.550781 276.894531 274.367188 C 278.691406 276.570312 280.566406 285.867188 281.382812 290.109375 C 281.953125 292.800781 282.359375 295.167969 282.117188 296.960938 C 282.035156 298.105469 281.789062 299 281.21875 299.734375 C 280.648438 300.386719 279.667969 301.039062 278.773438 301.203125 C 277.875 301.285156 276.652344 301.121094 275.917969 300.632812 C 275.019531 299.980469 273.960938 297.371094 273.960938 297.371094 "/></clipPath></defs><g id="1cb8096f07"><g clip-rule="nonzero" clip-path="url(#abd482281f)"><g clip-rule="nonzero" clip-path="url(#d9a28e0910)"><path style=" stroke:none;fill-rule:nonzero;fill:currentColor;fill-opacity:1;" d="M 90.519531 234.644531 L 139.050781 234.644531 L 139.050781 316.921875 L 90.519531 316.921875 Z M 90.519531 234.644531 "/></g></g><g clip-rule="nonzero" clip-path="url(#8723df9d78)"><g clip-rule="nonzero" clip-path="url(#4d7bd69b4e)"><path style=" stroke:none;fill-rule:nonzero;fill:currentColor;fill-opacity:1;" d="M 109.277344 216.046875 L 159.175781 216.046875 L 159.175781 254.875 L 109.277344 254.875 Z M 109.277344 216.046875 "/></g></g><g clip-rule="nonzero" clip-path="url(#50333aace8)"><g clip-rule="nonzero" clip-path="url(#a2e31baea1)"><path style=" stroke:none;fill-rule:nonzero;fill:currentColor;fill-opacity:1;" d="M 144.433594 240.191406 L 228.714844 240.191406 L 228.714844 257.890625 L 144.433594 257.890625 Z M 144.433594 240.191406 "/></g></g><g clip-rule="nonzero" clip-path="url(#bf1e512997)"><g clip-rule="nonzero" clip-path="url(#07fecfcde9)"><path style=" stroke:none;fill-rule:nonzero;fill:currentColor;fill-opacity:1;" d="M 213.847656 214.824219 L 268.324219 214.824219 L 268.324219 256.832031 L 213.847656 256.832031 Z M 213.847656 214.824219 "/></g></g><g clip-rule="nonzero" clip-path="url(#61f28c4818)"><g clip-rule="nonzero" clip-path="url(#9d9d97b844)"><path style=" stroke:none;fill-rule:nonzero;fill:currentColor;fill-opacity:1;" d="M 123.714844 206.503906 L 194.917969 206.503906 L 194.917969 237.664062 L 123.714844 237.664062 Z M 123.714844 206.503906 "/></g></g><g clip-rule="nonzero" clip-path="url(#fd052e5b9c)"><g clip-rule="nonzero" clip-path="url(#6484f90f21)"><path style=" stroke:none;fill-rule:nonzero;fill:currentColor;fill-opacity:1;" d="M 179.75 196.0625 L 256.109375 196.0625 L 256.109375 237.746094 L 179.75 237.746094 Z M 179.75 196.0625 "/></g></g><g clip-rule="nonzero" clip-path="url(#8a5abe5cef)"><g clip-rule="nonzero" clip-path="url(#7b6144220a)"><path style=" stroke:none;fill-rule:nonzero;fill:currentColor;fill-opacity:1;" d="M 123.308594 196.796875 L 138.96875 196.796875 L 138.96875 219.003906 L 123.308594 219.003906 Z M 123.308594 196.796875 "/></g></g><g clip-rule="nonzero" clip-path="url(#59ea04a803)"><g clip-rule="nonzero" clip-path="url(#cf0b15812d)"><path style=" stroke:none;fill-rule:nonzero;fill:currentColor;fill-opacity:1;" d="M 114.089844 123.796875 L 137.664062 123.796875 L 137.664062 213.757812 L 114.089844 213.757812 Z M 114.089844 123.796875 "/></g></g><g clip-rule="nonzero" clip-path="url(#3c16f5c807)"><g clip-rule="nonzero" clip-path="url(#314b304493)"><path style=" stroke:none;fill-rule:nonzero;fill:currentColor;fill-opacity:1;" d="M 244.023438 124.285156 L 265.234375 124.285156 L 265.234375 212.179688 L 244.023438 212.179688 Z M 244.023438 124.285156 "/></g></g><g clip-rule="nonzero" clip-path="url(#3bce907bfe)"><g clip-rule="nonzero" clip-path="url(#0c201427c2)"><path style=" stroke:none;fill-rule:nonzero;fill:currentColor;fill-opacity:1;" d="M 124.695312 193.371094 L 256.246094 193.371094 L 256.246094 212.050781 L 124.695312 212.050781 Z M 124.695312 193.371094 "/></g></g><g clip-rule="nonzero" clip-path="url(#69afd9043e)"><g clip-rule="nonzero" clip-path="url(#ebed576767)"><path style=" stroke:none;fill-rule:nonzero;fill:currentColor;fill-opacity:1;" d="M 237.011719 94.023438 L 280.320312 94.023438 L 280.320312 138.011719 L 237.011719 138.011719 Z M 237.011719 94.023438 "/></g></g><g clip-rule="nonzero" clip-path="url(#22ff47fb99)"><g clip-rule="nonzero" clip-path="url(#aba081dbe2)"><path style=" stroke:none;fill-rule:nonzero;fill:currentColor;fill-opacity:1;" d="M 98.429688 95.410156 L 142.167969 95.410156 L 142.167969 137.828125 L 98.429688 137.828125 Z M 98.429688 95.410156 "/></g></g><g clip-rule="nonzero" clip-path="url(#82cd2de5e4)"><g clip-rule="nonzero" clip-path="url(#658b4f1643)"><path style=" stroke:none;fill-rule:nonzero;fill:currentColor;fill-opacity:1;" d="M 103.976562 38.722656 L 138.398438 38.722656 L 138.398438 112.808594 L 103.976562 112.808594 Z M 103.976562 38.722656 "/></g></g><g clip-rule="nonzero" clip-path="url(#f5c3766794)"><g clip-rule="nonzero" clip-path="url(#ddae6c7685)"><path style=" stroke:none;fill-rule:nonzero;fill:currentColor;fill-opacity:1;" d="M 239.050781 38.558594 L 273.960938 38.558594 L 273.960938 108.925781 L 239.050781 108.925781 Z M 239.050781 38.558594 "/></g></g><g clip-rule="nonzero" clip-path="url(#25759806f7)"><g clip-rule="nonzero" clip-path="url(#7d80ab204d)"><path style=" stroke:none;fill-rule:nonzero;fill:currentColor;fill-opacity:1;" d="M 260.828125 52.589844 L 337.535156 52.589844 L 337.535156 123.226562 L 260.828125 123.226562 Z M 260.828125 52.589844 "/></g></g><g clip-rule="nonzero" clip-path="url(#57ffc561ab)"><g clip-rule="nonzero" clip-path="url(#8ae88ad474)"><path style=" stroke:none;fill-rule:nonzero;fill:currentColor;fill-opacity:1;" d="M 269.71875 110.746094 L 336.84375 110.746094 L 336.84375 132.359375 L 269.71875 132.359375 Z M 269.71875 110.746094 "/></g></g><g clip-rule="nonzero" clip-path="url(#3ab0e8c2ee)"><g clip-rule="nonzero" clip-path="url(#0c30c9084a)"><path style=" stroke:none;fill-rule:nonzero;fill:currentColor;fill-opacity:1;" d="M 256.585938 117.109375 L 331.429688 117.109375 L 331.429688 152.589844 L 256.585938 152.589844 Z M 256.585938 117.109375 "/></g></g><g clip-rule="nonzero" clip-path="url(#75e48bab17)"><g clip-rule="nonzero" clip-path="url(#42023cff53)"><path style=" stroke:none;fill-rule:nonzero;fill:currentColor;fill-opacity:1;" d="M 37.5 52.671875 L 114.078125 52.671875 L 114.078125 123.960938 L 37.5 123.960938 Z M 37.5 52.671875 "/></g></g><g clip-rule="nonzero" clip-path="url(#409e9308e7)"><g clip-rule="nonzero" clip-path="url(#9fade57d8d)"><path style=" stroke:none;fill-rule:nonzero;fill:currentColor;fill-opacity:1;" d="M 37.5 108.460938 L 111.53125 108.460938 L 111.53125 132.035156 L 37.5 132.035156 Z M 37.5 108.460938 "/></g></g><g clip-rule="nonzero" clip-path="url(#27122ccf49)"><g clip-rule="nonzero" clip-path="url(#b387163990)"><path style=" stroke:none;fill-rule:nonzero;fill:currentColor;fill-opacity:1;" d="M 49.410156 120.941406 L 124 120.941406 L 124 154.382812 L 49.410156 154.382812 Z M 49.410156 120.941406 "/></g></g><g clip-rule="nonzero" clip-path="url(#0008b2396a)"><g clip-rule="nonzero" clip-path="url(#e130da6c32)"><path style=" stroke:none;fill-rule:nonzero;fill:currentColor;fill-opacity:1;" d="M 123.632812 49.488281 L 193.027344 49.488281 L 193.027344 81.789062 L 123.632812 81.789062 Z M 123.632812 49.488281 "/></g></g><g clip-rule="nonzero" clip-path="url(#6a7990bd76)"><g clip-rule="nonzero" clip-path="url(#b2401ba716)"><path style=" stroke:none;fill-rule:nonzero;fill:currentColor;fill-opacity:1;" d="M 178.363281 48.59375 L 252.875 48.59375 L 252.875 81.707031 L 178.363281 81.707031 Z M 178.363281 48.59375 "/></g></g><g clip-rule="nonzero" clip-path="url(#65c57c3373)"><g clip-rule="nonzero" clip-path="url(#5b43f2ee4a)"><path style=" stroke:none;fill-rule:nonzero;fill:currentColor;fill-opacity:1;" d="M 136.113281 50.222656 L 240.015625 50.222656 L 240.015625 98.675781 L 136.113281 98.675781 Z M 136.113281 50.222656 "/></g></g><g clip-rule="nonzero" clip-path="url(#82c08b931b)"><g clip-rule="nonzero" clip-path="url(#5646cff344)"><path style=" stroke:none;fill-rule:nonzero;fill:currentColor;fill-opacity:1;" d="M 124.855469 257.484375 L 162.035156 257.484375 L 162.035156 274.695312 L 124.855469 274.695312 Z M 124.855469 257.484375 "/></g></g><g clip-rule="nonzero" clip-path="url(#26c4934d56)"><g clip-rule="nonzero" clip-path="url(#3ff0a2fd07)"><path style=" stroke:none;fill-rule:nonzero;fill:currentColor;fill-opacity:1;" d="M 147.125 259.929688 L 167.027344 259.929688 L 167.027344 308.285156 L 147.125 308.285156 Z M 147.125 259.929688 "/></g></g><g clip-rule="nonzero" clip-path="url(#3a5ce86fb5)"><g clip-rule="nonzero" clip-path="url(#7868ca86a3)"><path style=" stroke:none;fill-rule:nonzero;fill:currentColor;fill-opacity:1;" d="M 152.425781 293.453125 L 194.757812 293.453125 L 194.757812 337.441406 L 152.425781 337.441406 Z M 152.425781 293.453125 "/></g></g><g clip-rule="nonzero" clip-path="url(#722c20600b)"><g clip-rule="nonzero" clip-path="url(#8568b35f41)"><path style=" stroke:none;fill-rule:nonzero;fill:currentColor;fill-opacity:1;" d="M 179.914062 289.621094 L 228.105469 289.621094 L 228.105469 337.253906 L 179.914062 337.253906 Z M 179.914062 289.621094 "/></g></g><g clip-rule="nonzero" clip-path="url(#6b091882f9)"><g clip-rule="nonzero" clip-path="url(#1de52ed013)"><path style=" stroke:none;fill-rule:nonzero;fill:currentColor;fill-opacity:1;" d="M 213.113281 259.277344 L 229.425781 259.277344 L 229.425781 304.332031 L 213.113281 304.332031 Z M 213.113281 259.277344 "/></g></g><g clip-rule="nonzero" clip-path="url(#dd4076ffe2)"><g clip-rule="nonzero" clip-path="url(#e0556170ca)"><path style=" stroke:none;fill-rule:nonzero;fill:currentColor;fill-opacity:1;" d="M 214.742188 256.339844 L 253.460938 256.339844 L 253.460938 274.042969 L 214.742188 274.042969 Z M 214.742188 256.339844 "/></g></g><g clip-rule="nonzero" clip-path="url(#88804e13c6)"><g clip-rule="nonzero" clip-path="url(#b301fc04f6)"><path style=" stroke:none;fill-rule:nonzero;fill:currentColor;fill-opacity:1;" d="M 238.886719 256.421875 L 270.535156 256.421875 L 270.535156 311.1875 L 238.886719 311.1875 Z M 238.886719 256.421875 "/></g></g><g clip-rule="nonzero" clip-path="url(#c0adbb26b3)"><g clip-rule="nonzero" clip-path="url(#e70fbf7209)"><path style=" stroke:none;fill-rule:nonzero;fill:currentColor;fill-opacity:1;" d="M 255.609375 283.585938 L 286.441406 283.585938 L 286.441406 316.824219 L 255.609375 316.824219 Z M 255.609375 283.585938 "/></g></g><g clip-rule="nonzero" clip-path="url(#f756fb9088)"><g clip-rule="nonzero" clip-path="url(#140548e5df)"><path style=" stroke:none;fill-rule:nonzero;fill:currentColor;fill-opacity:1;" d="M 254.140625 231.136719 L 284.726562 231.136719 L 284.726562 298.40625 L 254.140625 298.40625 Z M 254.140625 231.136719 "/></g></g><g clip-rule="nonzero" clip-path="url(#2b813b31fc)"><g clip-rule="nonzero" clip-path="url(#4fbe47908b)"><path style=" stroke:none;fill-rule:nonzero;fill:currentColor;fill-opacity:1;" d="M 266.699219 269.964844 L 285.460938 269.964844 L 285.460938 304.480469 L 266.699219 304.480469 Z M 266.699219 269.964844 "/></g></g></g></svg>