<svg xmlns="http://www.w3.org/2000/svg" xmlns:xlink="http://www.w3.org/1999/xlink" width="500" zoomAndPan="magnify" viewBox="0 0 375 374.999991" height="500" preserveAspectRatio="xMidYMid meet" version="1.2"><defs><clipPath id="c2da2a39c1"><path d="M 49.660156 243 L 146 243 L 146 332.867188 L 49.660156 332.867188 Z M 49.660156 243 "/></clipPath><clipPath id="53667fece6"><path d="M 50.085938 327.367188 C 49.765625 291.429688 50.191406 285.882812 51.898438 280.335938 C 53.605469 274.898438 56.375 269.777344 59.574219 265.085938 C 62.777344 260.394531 66.292969 255.382812 70.878906 252.183594 C 75.464844 248.980469 81.972656 247.488281 86.878906 245.996094 C 90.824219 244.824219 94.238281 243.96875 97.863281 243.542969 C 101.488281 243.117188 105.113281 243.117188 108.742188 243.4375 C 112.261719 243.648438 115.78125 243.863281 119.511719 245.144531 C 124.203125 246.847656 130.285156 250.582031 134.230469 253.78125 C 137.535156 256.449219 140.203125 259.328125 142.226562 262.207031 C 143.933594 264.660156 145.960938 267.433594 145.960938 269.566406 C 145.855469 271.164062 144.679688 273.085938 143.402344 273.9375 C 142.226562 274.683594 139.773438 274.792969 138.496094 274.257812 C 137.109375 273.617188 135.722656 271.589844 135.402344 270.3125 C 135.082031 269.140625 135.402344 267.859375 135.828125 266.898438 C 136.363281 265.9375 137.214844 264.980469 138.28125 264.554688 C 139.5625 264.019531 142.015625 264.125 143.292969 264.765625 C 144.359375 265.191406 145.214844 266.257812 145.535156 267.324219 C 145.960938 268.605469 145.746094 271.058594 145.109375 272.339844 C 144.574219 273.296875 143.402344 274.042969 142.441406 274.363281 C 141.375 274.792969 140.308594 275.003906 139.027344 274.472656 C 136.148438 273.191406 132.097656 265.726562 128.46875 262.632812 C 125.269531 259.859375 121.433594 257.726562 118.550781 256.339844 C 116.527344 255.488281 115.566406 254.953125 113.328125 254.632812 C 109.273438 253.996094 101.703125 253.886719 96.15625 254.742188 C 90.503906 255.59375 84 257.195312 79.625 259.648438 C 76.105469 261.566406 73.652344 264.125 71.199219 266.898438 C 68.960938 269.671875 67.148438 272.976562 65.546875 276.175781 C 63.949219 279.484375 62.457031 283.003906 61.496094 286.628906 C 60.535156 290.253906 60.324219 293.242188 60.003906 297.933594 C 59.574219 305.824219 61.710938 325.769531 60.109375 329.929688 C 59.683594 331.101562 59.148438 331.3125 58.402344 331.847656 C 57.550781 332.378906 55.949219 332.808594 54.777344 332.699219 C 53.605469 332.59375 52.21875 331.847656 51.363281 330.996094 C 50.617188 330.035156 50.085938 327.367188 50.085938 327.367188 "/></clipPath><clipPath id="6c3df5d45a"><path d="M 135.265625 244.140625 L 240 244.140625 L 240 333.324219 L 135.265625 333.324219 Z M 135.265625 244.140625 "/></clipPath><clipPath id="46ecaa772d"><path d="M 135.296875 326.730469 C 135.402344 286.734375 136.042969 284.070312 137.109375 280.550781 C 138.070312 276.925781 139.988281 272.65625 141.375 269.777344 C 142.226562 267.859375 142.65625 266.898438 144.042969 265.085938 C 146.601562 261.886719 152.144531 256.449219 156.945312 253.25 C 161.53125 250.050781 168.25 247.0625 172.089844 245.78125 C 174.222656 245.035156 175.074219 244.824219 177.316406 244.609375 C 181.367188 244.183594 189.046875 244.183594 194.273438 244.609375 C 198.644531 244.824219 202.484375 244.824219 206.644531 246.210938 C 211.335938 247.808594 216.453125 251.117188 220.828125 254.421875 C 225.199219 257.835938 230.320312 263.167969 232.773438 266.257812 C 234.265625 268.074219 234.90625 268.710938 235.757812 270.84375 C 237.25 274.578125 238.425781 280.976562 239.171875 287.589844 C 240.128906 296.761719 239.917969 313.71875 239.597656 321.078125 C 239.492188 324.59375 239.597656 326.835938 238.851562 328.863281 C 238.425781 330.246094 237.890625 331.421875 236.824219 332.0625 C 235.652344 332.808594 233.304688 333.234375 231.917969 332.808594 C 230.53125 332.382812 229.039062 330.460938 228.507812 329.179688 C 228.1875 328.328125 227.972656 327.476562 228.507812 326.621094 C 229.253906 325.234375 233.410156 322.460938 235.226562 322.675781 C 236.71875 322.890625 238.210938 324.914062 238.746094 326.195312 C 239.171875 327.261719 239.0625 328.542969 238.636719 329.609375 C 238.316406 330.566406 237.570312 331.742188 236.609375 332.273438 C 235.332031 332.914062 232.984375 333.234375 231.597656 332.699219 C 230.210938 332.0625 228.71875 330.246094 228.398438 328.753906 C 228.1875 327.367188 228.824219 325.023438 229.890625 323.957031 C 230.957031 322.996094 233.199219 322.25 234.691406 322.570312 C 236.078125 322.78125 237.890625 324.382812 238.53125 325.660156 C 239.0625 326.621094 239.0625 328.007812 238.851562 329.074219 C 238.636719 330.035156 237.890625 331.207031 237.039062 331.953125 C 236.183594 332.59375 233.945312 333.339844 233.839844 333.128906 C 233.625 332.808594 238.636719 328.648438 238.851562 328.863281 C 239.0625 328.96875 237.785156 331.3125 236.824219 332.0625 C 235.863281 332.699219 234.265625 333.128906 233.199219 333.128906 C 232.34375 333.019531 231.492188 332.808594 230.851562 332.273438 C 229.890625 331.632812 229.144531 330.996094 228.507812 329.179688 C 226.585938 323.421875 229.574219 297.082031 228.613281 287.589844 C 228.078125 282.578125 227.546875 279.164062 226.375 276.285156 C 225.519531 274.152344 224.558594 273.085938 223.171875 271.378906 C 221.148438 268.925781 218.054688 265.9375 215.175781 263.59375 C 212.1875 261.246094 209.097656 258.582031 205.683594 257.195312 C 202.269531 255.808594 198.644531 255.59375 194.59375 255.273438 C 189.578125 254.742188 183.179688 253.996094 177.847656 255.167969 C 172.515625 256.339844 166.863281 259.113281 162.382812 262.3125 C 158.011719 265.511719 153.851562 269.457031 151.1875 273.9375 C 148.414062 278.628906 147.027344 283.324219 146.066406 289.828125 C 144.46875 299.746094 147.558594 322.460938 145.746094 328.007812 C 145.214844 329.820312 144.574219 330.460938 143.613281 331.101562 C 142.65625 331.847656 141.054688 332.167969 139.988281 332.0625 C 138.816406 331.953125 137.320312 331.207031 136.574219 330.246094 C 135.828125 329.394531 135.296875 326.730469 135.296875 326.730469 "/></clipPath><clipPath id="9253433373"><path d="M 225.414062 245.621094 L 325.820312 245.621094 L 325.820312 332.96875 L 225.414062 332.96875 Z M 225.414062 245.621094 "/></clipPath><clipPath id="8a31d627c3"><path d="M 227.332031 266.898438 C 240.769531 255.59375 243.648438 253.675781 246.847656 252.074219 C 250.050781 250.367188 253.675781 249.195312 257.195312 248.128906 C 260.820312 247.0625 264.019531 246.101562 268.5 245.78125 C 274.578125 245.355469 284.070312 245.78125 290.683594 247.597656 C 296.332031 249.195312 302.414062 252.820312 305.824219 255.167969 C 307.851562 256.449219 308.707031 257.300781 310.304688 259.007812 C 312.4375 261.460938 315.105469 265.191406 317.128906 269.03125 C 319.582031 273.722656 322.144531 278.738281 323.527344 285.242188 C 325.554688 294.308594 325.554688 312.117188 325.554688 318.835938 C 325.660156 321.824219 325.769531 323.101562 325.34375 325.128906 C 325.023438 327.15625 324.59375 329.609375 323.316406 330.886719 C 322.25 332.0625 320.117188 332.808594 318.730469 332.699219 C 317.558594 332.699219 316.382812 331.953125 315.636719 331.207031 C 314.890625 330.460938 314.144531 329.394531 314.039062 328.222656 C 313.929688 326.835938 314.570312 324.488281 315.742188 323.527344 C 316.808594 322.460938 319.050781 321.929688 320.542969 322.25 C 321.929688 322.570312 323.742188 324.167969 324.277344 325.554688 C 324.808594 326.835938 324.488281 329.289062 323.742188 330.460938 C 322.890625 331.632812 320.648438 332.699219 319.261719 332.808594 C 318.089844 332.808594 316.917969 332.273438 316.0625 331.632812 C 315.210938 330.996094 314.570312 330.355469 314.144531 328.753906 C 312.972656 324.59375 315.210938 310.304688 314.785156 302.625 C 314.464844 296.441406 314.039062 290.894531 312.757812 286.097656 C 311.796875 282.042969 310.304688 278.84375 308.597656 275.539062 C 306.890625 272.230469 304.652344 268.605469 302.519531 266.472656 C 301.027344 264.871094 299.851562 264.339844 297.933594 263.167969 C 295.265625 261.566406 291.429688 259.007812 287.910156 257.835938 C 284.390625 256.769531 280.761719 256.554688 277.136719 256.449219 C 273.40625 256.234375 269.992188 256.128906 266.046875 256.875 C 261.140625 257.835938 255.167969 259.433594 250.15625 262.207031 C 244.714844 265.191406 237.996094 272.65625 234.585938 274.792969 C 233.09375 275.644531 232.238281 276.175781 231.066406 276.175781 C 229.890625 276.175781 228.398438 275.539062 227.546875 274.898438 C 226.800781 274.363281 226.265625 273.722656 226.054688 272.871094 C 225.625 271.804688 225.625 270.097656 225.945312 269.03125 C 226.160156 268.179688 227.332031 266.898438 227.332031 266.898438 "/></clipPath><clipPath id="d4430ddca5"><path d="M 69.839844 186.796875 L 134.808594 186.796875 L 134.808594 254 L 69.839844 254 Z M 69.839844 186.796875 "/></clipPath><clipPath id="a5800d83d8"><path d="M 93.488281 253.78125 C 80.050781 246.53125 78.558594 244.824219 77.28125 243.117188 C 76.214844 241.515625 75.679688 240.238281 74.828125 238.105469 C 73.332031 234.265625 70.773438 225.839844 70.242188 221.894531 C 69.921875 219.546875 69.921875 218.480469 70.132812 216.347656 C 70.5625 213.253906 71.199219 208.667969 72.695312 205.257812 C 74.082031 201.949219 75.679688 198.644531 78.664062 196.085938 C 82.398438 192.777344 89.4375 189.898438 94.34375 188.40625 C 98.183594 187.234375 101.59375 186.914062 105.222656 186.808594 C 108.847656 186.808594 112.792969 186.808594 116.097656 188.085938 C 119.617188 189.472656 123.457031 192.671875 125.699219 195.019531 C 127.402344 196.726562 128.152344 197.898438 129.324219 200.246094 C 131.136719 203.976562 133.484375 211.015625 134.230469 215.921875 C 134.761719 220.082031 134.550781 224.667969 133.804688 227.652344 C 133.269531 229.679688 132.523438 230.746094 131.457031 232.453125 C 129.75 234.90625 127.191406 237.890625 124.203125 240.558594 C 120.367188 243.863281 115.140625 248.554688 110.019531 250.476562 C 105.007812 252.394531 97.863281 252.609375 93.808594 252.394531 C 91.355469 252.289062 89.757812 251.863281 87.945312 251.007812 C 86.023438 250.15625 83.570312 248.769531 82.503906 247.277344 C 81.546875 245.890625 81.117188 243.757812 81.4375 242.371094 C 81.652344 241.195312 82.503906 240.238281 83.359375 239.492188 C 84.210938 238.851562 85.492188 238.425781 86.558594 238.425781 C 87.625 238.425781 88.902344 238.957031 89.757812 239.597656 C 90.609375 240.238281 91.464844 241.304688 91.675781 242.371094 C 91.996094 243.757812 91.464844 246.101562 90.609375 247.277344 C 89.96875 248.234375 88.691406 248.769531 87.730469 248.980469 C 86.664062 249.195312 85.277344 249.195312 84.316406 248.664062 C 83.144531 247.914062 81.546875 246.101562 81.332031 244.609375 C 81.117188 243.222656 81.867188 240.878906 82.933594 239.917969 C 84 238.957031 86.132812 238.316406 87.730469 238.636719 C 89.4375 238.851562 90.71875 241.304688 92.851562 241.730469 C 95.835938 242.371094 101.167969 241.089844 104.261719 240.449219 C 106.609375 239.917969 107.992188 239.703125 110.128906 238.425781 C 113.753906 236.292969 120.792969 231.066406 122.816406 226.800781 C 124.523438 223.171875 124.097656 218.90625 123.457031 215.175781 C 122.925781 211.550781 121.539062 207.601562 119.511719 204.617188 C 117.484375 201.738281 114.5 198.644531 111.300781 197.472656 C 108.101562 196.296875 104.367188 196.726562 100.527344 197.683594 C 95.621094 198.75 87.945312 201.417969 84.746094 204.832031 C 82.078125 207.601562 81.332031 211.65625 80.800781 215.175781 C 80.371094 218.695312 81.011719 222.640625 81.867188 226.160156 C 82.71875 229.679688 84.105469 233.839844 85.8125 236.398438 C 87.089844 238.316406 88.371094 239.382812 90.183594 240.558594 C 92.421875 242.050781 96.582031 242.902344 98.289062 244.398438 C 99.460938 245.25 100.207031 246.316406 100.421875 247.488281 C 100.742188 248.554688 100.527344 250.261719 99.996094 251.222656 C 99.675781 252.074219 99.140625 252.714844 98.394531 253.140625 C 97.222656 253.78125 93.488281 253.78125 93.488281 253.78125 "/></clipPath><clipPath id="b357e6617f"><path d="M 155.929688 186.644531 L 219 186.644531 L 219 253.609375 L 155.929688 253.609375 Z M 155.929688 186.644531 "/></clipPath><clipPath id="90cf86c128"><path d="M 182.222656 253.460938 C 172.621094 250.796875 171.234375 250.046875 169.53125 248.664062 C 167.078125 246.742188 164.199219 243.757812 162.171875 240.238281 C 159.613281 235.972656 157.265625 229.039062 156.414062 224.132812 C 155.773438 220.1875 155.878906 216.242188 156.304688 213.148438 C 156.625 210.910156 157.050781 209.523438 158.011719 207.496094 C 159.292969 204.617188 162.277344 200.671875 164.089844 198.113281 C 165.371094 196.296875 166.222656 194.910156 167.609375 193.738281 C 168.996094 192.460938 170.277344 191.5 172.515625 190.539062 C 176.355469 189.046875 183.820312 187.445312 188.726562 187.019531 C 192.777344 186.699219 196.296875 186.59375 199.710938 187.660156 C 203.015625 188.726562 206.324219 190.964844 208.988281 193.417969 C 211.761719 196.085938 214.109375 199.816406 215.707031 203.335938 C 217.09375 206.644531 217.734375 210.269531 218.269531 213.789062 C 218.800781 217.414062 219.121094 221.789062 218.90625 224.773438 C 218.800781 226.90625 218.480469 228.078125 217.839844 230.105469 C 216.882812 232.984375 215.386719 237.25 213.148438 240.128906 C 210.800781 243.011719 207.390625 245.144531 204.082031 247.167969 C 200.777344 249.300781 196.832031 251.433594 193.097656 252.394531 C 189.472656 253.25 185.421875 253.355469 182.007812 252.714844 C 179.023438 252.074219 174.96875 250.6875 174.007812 248.769531 C 173.15625 247.488281 173.582031 245.035156 174.4375 243.863281 C 175.183594 242.582031 177.316406 241.410156 178.808594 241.410156 C 180.195312 241.410156 182.328125 242.476562 183.179688 243.648438 C 184.035156 244.824219 184.355469 247.167969 183.820312 248.554688 C 183.394531 249.941406 181.582031 251.542969 180.089844 251.863281 C 178.703125 252.289062 176.355469 251.648438 175.289062 250.6875 C 174.222656 249.730469 173.476562 247.382812 173.582031 245.996094 C 173.6875 244.824219 174.222656 243.648438 175.074219 242.902344 C 176.140625 242.050781 178.488281 241.195312 179.875 241.515625 C 181.367188 241.835938 183.394531 244.929688 183.820312 244.609375 C 184.140625 244.503906 182.859375 242.476562 183.289062 242.050781 C 183.925781 241.304688 186.699219 242.371094 188.726562 242.050781 C 191.710938 241.515625 196.726562 239.703125 199.390625 238.210938 C 201.3125 237.144531 202.484375 236.292969 203.871094 234.585938 C 205.578125 232.238281 207.601562 228.1875 208.242188 224.773438 C 208.882812 221.253906 208.136719 216.882812 207.710938 213.789062 C 207.28125 211.550781 207.175781 210.054688 206.109375 208.03125 C 204.722656 205.148438 202.269531 200.5625 199.285156 198.964844 C 196.085938 197.257812 191.394531 197.683594 187.554688 198.003906 C 183.605469 198.21875 179.128906 198.539062 176.035156 200.5625 C 173.050781 202.378906 170.808594 206.535156 169.210938 209.203125 C 168.144531 211.121094 167.398438 212.828125 166.96875 214.75 C 166.648438 216.453125 166.757812 218.054688 166.96875 220.082031 C 167.289062 223.066406 167.71875 227.546875 169.101562 230.957031 C 170.703125 234.476562 173.261719 239.0625 176.25 241.089844 C 178.703125 242.796875 182.859375 242.15625 184.886719 243.222656 C 186.167969 243.863281 187.125 244.609375 187.660156 245.78125 C 188.191406 247.0625 188.191406 249.410156 187.660156 250.6875 C 187.125 251.753906 185.742188 252.714844 184.78125 253.140625 C 183.925781 253.566406 182.222656 253.460938 182.222656 253.460938 "/></clipPath><clipPath id="c0a7cdc75e"><path d="M 240.152344 187.597656 L 303.691406 187.597656 L 303.691406 253 L 240.152344 253 Z M 240.152344 187.597656 "/></clipPath><clipPath id="bbd6a1d1c2"><path d="M 271.699219 252.820312 C 262.101562 251.542969 260.820312 250.6875 259.007812 249.515625 C 256.449219 247.914062 252.394531 245.25 250.15625 243.222656 C 248.664062 241.730469 248.023438 240.769531 246.847656 239.0625 C 245.144531 236.503906 242.476562 232.878906 241.515625 228.933594 C 240.238281 224.238281 240.023438 217.09375 241.089844 212.296875 C 242.050781 208.242188 244.183594 204.9375 246.316406 201.84375 C 248.34375 198.859375 251.117188 195.765625 253.566406 193.84375 C 255.382812 192.246094 256.554688 191.394531 259.007812 190.539062 C 262.738281 189.046875 270.953125 188.300781 274.898438 187.980469 C 277.136719 187.765625 278.417969 187.660156 280.230469 187.980469 C 282.257812 188.300781 284.28125 188.832031 286.308594 190.007812 C 289.082031 191.605469 292.816406 195.125 294.839844 197.363281 C 296.441406 199.070312 297.1875 200.136719 298.253906 202.058594 C 299.640625 204.832031 301.027344 208.667969 301.878906 212.722656 C 302.945312 217.628906 304.011719 225.625 303.480469 229.679688 C 303.265625 232.132812 302.945312 233.304688 301.558594 235.4375 C 299.320312 238.957031 292.28125 245.355469 288.761719 247.382812 C 286.84375 248.554688 285.882812 248.554688 283.644531 249.089844 C 279.269531 250.050781 267.753906 252.183594 264.339844 251.222656 C 262.847656 250.796875 262.207031 250.050781 261.566406 249.195312 C 261.035156 248.234375 260.605469 246.957031 260.714844 245.890625 C 260.714844 244.824219 261.246094 243.542969 261.992188 242.691406 C 262.632812 241.945312 263.699219 241.089844 264.871094 240.984375 C 266.257812 240.769531 268.605469 241.304688 269.671875 242.261719 C 270.738281 243.328125 271.484375 245.570312 271.273438 247.0625 C 271.058594 248.449219 269.566406 250.367188 268.285156 251.007812 C 266.898438 251.648438 264.554688 251.542969 263.273438 250.6875 C 261.992188 249.941406 260.820312 247.914062 260.714844 246.421875 C 260.605469 245.035156 261.246094 243.117188 262.847656 241.945312 C 265.621094 239.8125 275.324219 240.128906 279.378906 238.957031 C 281.828125 238.210938 283.109375 237.890625 285.03125 236.609375 C 287.589844 234.90625 291.75 231.597656 292.816406 229.144531 C 293.5625 227.332031 292.921875 225.734375 292.816406 223.601562 C 292.496094 220.402344 291.855469 214.855469 290.894531 211.867188 C 290.253906 209.734375 289.828125 208.5625 288.65625 206.75 C 286.949219 204.296875 283.429688 199.816406 280.871094 198.644531 C 279.058594 197.792969 277.777344 198.113281 275.539062 198.324219 C 271.589844 198.644531 263.699219 199.816406 259.753906 202.378906 C 256.339844 204.617188 253.675781 208.777344 252.5 211.65625 C 251.648438 213.574219 251.648438 215.070312 251.542969 217.203125 C 251.433594 220.292969 251.007812 224.878906 252.289062 228.1875 C 253.566406 231.597656 256.339844 234.90625 259.113281 237.25 C 261.886719 239.597656 266.472656 241.730469 268.925781 242.261719 C 270.3125 242.582031 271.378906 241.945312 272.445312 242.261719 C 273.617188 242.582031 275.003906 243.328125 275.644531 244.289062 C 276.390625 245.25 276.816406 246.847656 276.710938 247.914062 C 276.710938 248.769531 276.496094 249.621094 275.964844 250.367188 C 275.109375 251.328125 271.699219 252.820312 271.699219 252.820312 "/></clipPath><clipPath id="aadc924793"><path d="M 83.375 81.667969 L 157.890625 81.667969 L 157.890625 165.820312 L 83.375 165.820312 Z M 83.375 81.667969 "/></clipPath><clipPath id="81d7d59897"><path d="M 152.359375 165.796875 C 117.484375 165.371094 116.527344 165.265625 114.179688 164.625 C 110.980469 163.769531 106.179688 161.636719 103.300781 160.359375 C 101.382812 159.503906 100.207031 159.183594 98.503906 157.90625 C 96.050781 156.09375 92.851562 152.894531 90.609375 149.375 C 87.945312 145.320312 85.597656 139.667969 84.425781 134.441406 C 83.25 129.109375 83.359375 121.75 83.785156 117.804688 C 83.890625 115.460938 84 114.5 84.957031 112.367188 C 86.453125 108.632812 90.609375 101.808594 93.917969 97.863281 C 96.582031 94.664062 99.570312 92.421875 102.769531 90.289062 C 105.859375 88.265625 108.953125 86.664062 112.898438 85.386719 C 117.914062 83.679688 126.65625 81.332031 130.601562 81.757812 C 132.628906 81.972656 134.230469 82.824219 135.1875 83.785156 C 135.9375 84.636719 136.253906 85.917969 136.253906 86.984375 C 136.363281 88.050781 136.042969 89.4375 135.296875 90.289062 C 134.335938 91.25 132.203125 92.421875 130.816406 92.421875 C 129.324219 92.316406 127.296875 91.039062 126.445312 89.972656 C 125.804688 89.011719 125.589844 87.730469 125.699219 86.558594 C 125.804688 85.492188 126.230469 84.320312 127.085938 83.464844 C 128.042969 82.503906 130.390625 81.757812 131.777344 81.867188 C 132.84375 81.867188 134.015625 82.613281 134.761719 83.359375 C 135.507812 84.105469 136.253906 85.277344 136.253906 86.453125 C 136.363281 87.835938 135.828125 89.863281 134.441406 91.144531 C 132.203125 93.0625 125.378906 92.636719 121.324219 93.917969 C 117.699219 94.984375 114.074219 96.691406 111.40625 97.96875 C 109.378906 98.824219 108.101562 99.25 106.394531 100.527344 C 103.941406 102.449219 101.0625 105.859375 99.035156 108.953125 C 97.117188 112.046875 95.195312 115.671875 94.449219 119.191406 C 93.597656 122.605469 93.917969 126.976562 94.238281 129.855469 C 94.449219 131.988281 94.769531 133.164062 95.515625 135.1875 C 96.582031 138.175781 99.035156 143.292969 100.957031 145.855469 C 102.234375 147.558594 103.300781 148.308594 105.113281 149.480469 C 107.566406 151.078125 112.046875 153 115.03125 153.851562 C 117.273438 154.492188 118.125 154.707031 121.003906 155.027344 C 127.617188 155.664062 150.226562 153.53125 154.917969 155.773438 C 156.414062 156.519531 156.945312 157.480469 157.371094 158.546875 C 157.796875 159.71875 157.796875 161.210938 157.371094 162.382812 C 156.945312 163.449219 155.773438 164.625 154.917969 165.15625 C 154.171875 165.691406 152.359375 165.796875 152.359375 165.796875 "/></clipPath><clipPath id="98e82aad81"><path d="M 125.488281 41 L 239 41 L 239 92.527344 L 125.488281 92.527344 Z M 125.488281 41 "/></clipPath><clipPath id="51ef919fb0"><path d="M 125.589844 86.984375 C 127.191406 74.082031 127.722656 73.121094 129.003906 71.199219 C 131.136719 67.679688 135.828125 61.816406 139.988281 57.871094 C 144.148438 54.03125 148.839844 50.617188 153.851562 47.84375 C 158.972656 45.179688 163.878906 42.9375 170.277344 41.765625 C 178.382812 40.378906 191.710938 41.234375 198.859375 41.765625 C 203.335938 42.191406 206.644531 42.726562 209.523438 43.578125 C 211.550781 44.21875 212.828125 45.070312 214.429688 45.925781 C 216.136719 46.777344 217.308594 47.203125 219.335938 48.804688 C 223.171875 51.789062 232.132812 60.429688 235.117188 64.480469 C 236.71875 66.613281 237.25 67.894531 237.890625 69.921875 C 238.636719 72.160156 239.277344 75.574219 238.851562 77.707031 C 238.53125 79.519531 237.570312 81.332031 236.503906 82.183594 C 235.652344 82.933594 234.265625 83.144531 233.199219 83.039062 C 232.132812 83.039062 230.851562 82.613281 230.105469 81.867188 C 229.039062 80.800781 228.078125 78.664062 228.1875 77.171875 C 228.398438 75.679688 229.679688 73.761719 231.066406 73.015625 C 232.34375 72.375 234.691406 72.480469 235.972656 73.015625 C 237.039062 73.441406 237.890625 74.507812 238.316406 75.464844 C 238.851562 76.53125 239.0625 77.8125 238.746094 78.878906 C 238.316406 80.265625 236.824219 82.183594 235.4375 82.71875 C 234.160156 83.25 231.707031 82.824219 230.53125 82.183594 C 229.574219 81.652344 228.933594 80.585938 228.507812 79.414062 C 227.972656 78.027344 228.613281 75.785156 228.078125 74.082031 C 227.546875 72.375 226.90625 71.09375 225.519531 69.28125 C 222.960938 66.082031 216.027344 59.574219 212.722656 57.125 C 210.800781 55.84375 209.84375 55.308594 207.921875 54.5625 C 205.042969 53.496094 201.523438 52.75 197.257812 52.324219 C 191.074219 51.683594 179.449219 51.789062 174.4375 52.21875 C 171.984375 52.324219 171.023438 52.429688 168.890625 53.070312 C 165.902344 53.921875 161.636719 55.738281 158.226562 57.550781 C 154.8125 59.574219 151.613281 61.710938 148.414062 64.695312 C 144.679688 68.109375 139.5625 73.121094 137.640625 77.492188 C 136.042969 81.011719 137.109375 86.023438 136.148438 88.476562 C 135.507812 89.863281 134.761719 90.824219 133.910156 91.570312 C 133.269531 92.105469 132.417969 92.316406 131.5625 92.421875 C 130.496094 92.421875 128.789062 92.210938 127.832031 91.464844 C 126.765625 90.503906 125.589844 86.984375 125.589844 86.984375 "/></clipPath><clipPath id="dca6c82900"><path d="M 144.339844 152.445312 L 261.582031 152.445312 L 261.582031 167.175781 L 144.339844 167.175781 Z M 144.339844 152.445312 "/></clipPath><clipPath id="e1924db7c3"><path d="M 149.480469 155.453125 C 258.582031 153 259.648438 153.425781 260.5 154.597656 C 261.351562 155.878906 261.671875 158.226562 261.246094 159.613281 C 260.714844 161 258.902344 162.597656 257.515625 162.917969 C 256.128906 163.34375 253.78125 162.703125 252.609375 161.746094 C 251.542969 160.785156 250.6875 158.546875 250.902344 157.050781 C 251.117188 155.664062 252.5 153.640625 253.78125 153 C 255.0625 152.359375 257.515625 152.359375 258.792969 153.105469 C 260.074219 153.851562 261.246094 155.984375 261.460938 157.265625 C 261.671875 158.4375 261.351562 159.71875 260.714844 160.679688 C 259.859375 161.746094 258.902344 162.382812 256.339844 163.132812 C 244.609375 166.4375 161.851562 168.570312 149.90625 166.011719 C 147.347656 165.476562 146.28125 164.945312 145.425781 163.878906 C 144.679688 163.023438 144.253906 161.425781 144.359375 160.25 C 144.46875 159.078125 145.214844 157.691406 146.066406 156.839844 C 146.921875 156.09375 149.480469 155.453125 149.480469 155.453125 "/></clipPath><clipPath id="b44cfaaafb"><path d="M 228 69.109375 L 293 69.109375 L 293 163.144531 L 228 163.144531 Z M 228 69.109375 "/></clipPath><clipPath id="e9682a4c7c"><path d="M 255.703125 152.464844 C 267.433594 149.691406 268.820312 148.945312 270.3125 147.773438 C 271.804688 146.707031 272.976562 145.855469 274.257812 143.722656 C 276.816406 139.5625 280.65625 128.257812 281.722656 122.070312 C 282.46875 117.699219 282.257812 113.753906 281.9375 110.554688 C 281.722656 108.3125 281.722656 106.925781 280.761719 104.6875 C 279.164062 100.847656 274.042969 93.808594 271.164062 90.929688 C 269.457031 89.222656 268.5 88.796875 266.367188 87.519531 C 262.738281 85.492188 254.847656 81.652344 250.902344 80.585938 C 248.664062 80.050781 247.167969 80.050781 245.355469 80.050781 C 243.542969 80.160156 241.515625 80.050781 239.917969 80.691406 C 238.210938 81.4375 236.71875 83.890625 235.226562 84.425781 C 234.050781 84.851562 232.878906 84.746094 231.8125 84.425781 C 230.851562 84.105469 229.679688 83.359375 229.144531 82.398438 C 228.398438 81.226562 228.1875 78.773438 228.613281 77.386719 C 228.933594 76.320312 229.890625 75.359375 230.746094 74.828125 C 231.707031 74.292969 232.984375 73.867188 234.050781 74.082031 C 235.4375 74.292969 237.570312 75.574219 238.210938 76.851562 C 238.957031 78.132812 238.957031 80.585938 238.210938 81.867188 C 237.570312 83.144531 235.542969 84.53125 234.160156 84.636719 C 232.664062 84.851562 230.425781 83.785156 229.464844 82.824219 C 228.71875 82.078125 228.292969 80.800781 228.1875 79.730469 C 228.1875 78.664062 228.398438 77.492188 229.144531 76.425781 C 230.320312 74.507812 234.160156 71.734375 236.609375 70.5625 C 238.53125 69.707031 240.023438 69.601562 242.15625 69.386719 C 245.25 69.175781 250.261719 69.707031 253.25 70.242188 C 255.59375 70.667969 256.660156 70.988281 259.007812 71.945312 C 263.058594 73.546875 271.378906 77.597656 274.898438 80.050781 C 276.925781 81.546875 277.671875 82.183594 279.269531 84 C 282.148438 87.199219 287.164062 93.382812 289.402344 97.96875 C 291.214844 101.703125 292.066406 104.792969 292.496094 108.847656 C 293.132812 113.859375 293.027344 120.152344 291.960938 125.589844 C 291 131.136719 288.441406 137.109375 286.523438 141.90625 C 284.921875 145.746094 283.324219 149.585938 281.511719 152.039062 C 280.335938 153.746094 279.484375 154.597656 277.671875 155.878906 C 275.003906 157.796875 270.097656 160.359375 266.472656 161.53125 C 263.167969 162.597656 259.21875 163.238281 256.769531 163.132812 C 255.167969 163.023438 253.996094 162.8125 253.035156 162.0625 C 252.074219 161.425781 251.222656 160.144531 251.007812 158.972656 C 250.796875 157.585938 251.433594 155.238281 252.289062 154.171875 C 253.035156 153.210938 255.703125 152.464844 255.703125 152.464844 "/></clipPath></defs><g id="ffbd742548"><g clip-rule="nonzero" clip-path="url(#c2da2a39c1)"><g clip-rule="nonzero" clip-path="url(#53667fece6)"><path style=" stroke:none;fill-rule:nonzero;fill:currentColor;fill-opacity:1;" d="M 45.070312 239.171875 L 150.242188 239.171875 L 150.242188 337.074219 L 45.070312 337.074219 Z M 45.070312 239.171875 "/></g></g><g clip-rule="nonzero" clip-path="url(#6c3df5d45a)"><g clip-rule="nonzero" clip-path="url(#46ecaa772d)"><path style=" stroke:none;fill-rule:nonzero;fill:currentColor;fill-opacity:1;" d="M 130.710938 240.34375 L 243.804688 240.34375 L 243.804688 337.5 L 130.710938 337.5 Z M 130.710938 240.34375 "/></g></g><g clip-rule="nonzero" clip-path="url(#9253433373)"><g clip-rule="nonzero" clip-path="url(#8a31d627c3)"><path style=" stroke:none;fill-rule:nonzero;fill:currentColor;fill-opacity:1;" d="M 221.679688 241.515625 L 329.929688 241.515625 L 329.929688 337.074219 L 221.679688 337.074219 Z M 221.679688 241.515625 "/></g></g><g clip-rule="nonzero" clip-path="url(#d4430ddca5)"><g clip-rule="nonzero" clip-path="url(#a5800d83d8)"><path style=" stroke:none;fill-rule:nonzero;fill:currentColor;fill-opacity:1;" d="M 65.867188 182.539062 L 138.496094 182.539062 L 138.496094 258.003906 L 65.867188 258.003906 Z M 65.867188 182.539062 "/></g></g><g clip-rule="nonzero" clip-path="url(#b357e6617f)"><g clip-rule="nonzero" clip-path="url(#90cf86c128)"><path style=" stroke:none;fill-rule:nonzero;fill:currentColor;fill-opacity:1;" d="M 152.039062 182.753906 L 223.171875 182.753906 L 223.171875 257.777344 L 152.039062 257.777344 Z M 152.039062 182.753906 "/></g></g><g clip-rule="nonzero" clip-path="url(#c0a7cdc75e)"><g clip-rule="nonzero" clip-path="url(#bbd6a1d1c2)"><path style=" stroke:none;fill-rule:nonzero;fill:currentColor;fill-opacity:1;" d="M 236.824219 183.714844 L 307.851562 183.714844 L 307.851562 257.238281 L 236.824219 257.238281 Z M 236.824219 183.714844 "/></g></g><g clip-rule="nonzero" clip-path="url(#aadc924793)"><g clip-rule="nonzero" clip-path="url(#81d7d59897)"><path style=" stroke:none;fill-rule:nonzero;fill:currentColor;fill-opacity:1;" d="M 79.519531 77.492188 L 161.746094 77.492188 L 161.746094 169.996094 L 79.519531 169.996094 Z M 79.519531 77.492188 "/></g></g><g clip-rule="nonzero" clip-path="url(#98e82aad81)"><g clip-rule="nonzero" clip-path="url(#51ef919fb0)"><path style=" stroke:none;fill-rule:nonzero;fill:currentColor;fill-opacity:1;" d="M 121.324219 37.5 L 243.171875 37.5 L 243.171875 96.691406 L 121.324219 96.691406 Z M 121.324219 37.5 "/></g></g><g clip-rule="nonzero" clip-path="url(#dca6c82900)"><g clip-rule="nonzero" clip-path="url(#e1924db7c3)"><path style=" stroke:none;fill-rule:nonzero;fill:currentColor;fill-opacity:1;" d="M 140.09375 148.199219 L 265.824219 148.199219 L 265.824219 170.382812 L 140.09375 170.382812 Z M 140.09375 148.199219 "/></g></g><g clip-rule="nonzero" clip-path="url(#b44cfaaafb)"><g clip-rule="nonzero" clip-path="url(#e9682a4c7c)"><path style=" stroke:none;fill-rule:nonzero;fill:currentColor;fill-opacity:1;" d="M 223.921875 65.121094 L 296.867188 65.121094 L 296.867188 167.417969 L 223.921875 167.417969 Z M 223.921875 65.121094 "/></g></g></g></svg>