<svg xmlns="http://www.w3.org/2000/svg" xmlns:xlink="http://www.w3.org/1999/xlink" width="500" zoomAndPan="magnify" viewBox="0 0 375 374.999991" height="500" preserveAspectRatio="xMidYMid meet" version="1.2"><defs><clipPath id="667ce30cff"><path d="M 40.277344 51.527344 L 84.132812 51.527344 L 84.132812 74.289062 L 40.277344 74.289062 Z M 40.277344 51.527344 "/></clipPath><clipPath id="4195150fb2"><path d="M 67.5 74.210938 C 51.148438 73.914062 47.925781 73.761719 46.050781 72.789062 C 44.699219 72.1875 43.949219 71.210938 43.199219 70.164062 C 42.449219 69.039062 42 67.613281 41.550781 66.335938 C 41.101562 65.0625 40.648438 63.789062 40.5 62.4375 C 40.351562 61.011719 40.199219 59.289062 40.800781 58.011719 C 41.324219 56.8125 42.449219 55.761719 43.800781 54.9375 C 45.75 53.886719 48.75 53.511719 51.675781 52.988281 C 55.199219 52.386719 59.25 52.085938 63.601562 51.9375 C 68.699219 51.636719 77.398438 51.335938 80.324219 51.863281 C 81.449219 52.011719 82.050781 52.164062 82.648438 52.613281 C 83.25 53.0625 83.773438 53.8125 84 54.5625 C 84.148438 55.539062 83.851562 57.1875 83.175781 58.011719 C 82.574219 58.835938 80.925781 59.363281 79.949219 59.289062 C 79.125 59.289062 78.300781 58.835938 77.773438 58.3125 C 77.25 57.789062 76.800781 56.960938 76.648438 56.210938 C 76.5 55.460938 76.648438 54.488281 77.023438 53.8125 C 77.398438 53.136719 78 52.460938 78.75 52.164062 C 79.726562 51.863281 81.375 51.9375 82.273438 52.386719 C 83.023438 52.761719 83.550781 53.511719 83.851562 54.1875 C 84.148438 54.9375 84.226562 55.835938 84 56.585938 C 83.625 57.488281 83.023438 58.460938 81.523438 59.136719 C 77.625 60.9375 60.148438 59.664062 55.351562 60.113281 C 53.550781 60.1875 52.726562 60.039062 51.601562 60.5625 C 50.398438 61.085938 48.523438 62.210938 48.300781 63.1875 C 48.226562 64.164062 49.050781 65.664062 50.398438 66.414062 C 53.476562 68.0625 66.675781 66.113281 69.300781 67.085938 C 70.050781 67.460938 70.273438 67.761719 70.648438 68.289062 C 71.023438 68.960938 71.324219 70.085938 71.25 70.914062 C 71.175781 71.738281 70.648438 72.710938 70.050781 73.238281 C 69.375 73.761719 67.5 74.210938 67.5 74.210938 "/></clipPath><clipPath id="1f1fd62e6b"><path d="M 71.117188 50.546875 L 192.664062 50.546875 L 192.664062 60.1875 L 71.117188 60.1875 Z M 71.117188 50.546875 "/></clipPath><clipPath id="627c0173fa"><path d="M 74.851562 51.710938 C 112.648438 50.511719 119.476562 50.4375 125.925781 50.738281 C 131.550781 50.960938 135 51.636719 141.675781 51.9375 C 153.226562 52.3125 183.300781 50.664062 188.925781 51.5625 C 190.199219 51.789062 190.574219 51.789062 191.175781 52.3125 C 191.925781 52.988281 192.601562 54.5625 192.601562 55.539062 C 192.675781 56.363281 192.226562 57.1875 191.699219 57.789062 C 191.25 58.3125 190.5 58.914062 189.675781 58.988281 C 188.699219 59.136719 187.050781 58.613281 186.300781 58.011719 C 185.699219 57.488281 185.324219 56.664062 185.175781 55.914062 C 185.101562 55.164062 185.175781 54.1875 185.550781 53.511719 C 186.148438 52.6875 187.574219 51.789062 188.476562 51.5625 C 189.300781 51.414062 190.199219 51.710938 190.875 52.085938 C 191.476562 52.539062 192.074219 53.210938 192.375 53.960938 C 192.675781 54.636719 192.75 55.613281 192.523438 56.363281 C 192.148438 57.261719 191.625 58.238281 190.050781 58.914062 C 184.574219 61.238281 158.101562 59.664062 145.574219 59.4375 C 136.425781 59.210938 131.101562 58.3125 121.875 58.164062 C 108.898438 57.9375 81.226562 60.636719 74.851562 59.210938 C 73.125 58.761719 72.375 58.3125 71.773438 57.5625 C 71.25 56.886719 71.023438 55.835938 71.175781 55.011719 C 71.25 54.1875 71.773438 53.210938 72.375 52.613281 C 72.976562 52.085938 74.851562 51.710938 74.851562 51.710938 "/></clipPath><clipPath id="0d87cf9ecb"><path d="M 181.542969 51.570312 L 309.75 51.570312 L 309.75 60.65625 L 181.542969 60.65625 Z M 181.542969 51.570312 "/></clipPath><clipPath id="18cbe079f1"><path d="M 185.324219 51.863281 C 238.273438 50.886719 258.074219 53.289062 268.199219 53.0625 C 273.523438 52.914062 275.699219 52.085938 280.351562 51.863281 C 286.351562 51.636719 296.625 51.636719 301.351562 51.9375 C 303.824219 52.085938 305.550781 52.085938 306.898438 52.613281 C 307.800781 52.914062 308.476562 53.289062 308.925781 53.960938 C 309.449219 54.789062 309.824219 56.4375 309.523438 57.414062 C 309.148438 58.386719 307.875 59.511719 306.976562 59.8125 C 306.226562 60.113281 305.324219 60.039062 304.574219 59.738281 C 303.675781 59.289062 302.550781 58.085938 302.25 57.039062 C 302.023438 56.0625 302.625 54.414062 303.226562 53.664062 C 303.675781 53.0625 304.574219 52.6875 305.324219 52.539062 C 306.074219 52.386719 306.976562 52.460938 307.648438 52.914062 C 308.476562 53.4375 309.523438 54.789062 309.675781 55.835938 C 309.824219 56.8125 309.074219 58.386719 308.398438 59.0625 C 307.800781 59.664062 307.351562 59.738281 306.148438 59.960938 C 302.023438 60.710938 284.324219 59.0625 277.574219 59.4375 C 273.976562 59.664062 273.074219 60.414062 269.175781 60.5625 C 260.101562 60.9375 238.5 58.386719 224.023438 58.238281 C 210.601562 58.085938 190.949219 60.710938 185.324219 59.363281 C 183.601562 58.988281 182.851562 58.539062 182.175781 57.789062 C 181.648438 57.113281 181.5 55.988281 181.574219 55.164062 C 181.648438 54.335938 182.175781 53.363281 182.773438 52.835938 C 183.449219 52.3125 185.324219 51.863281 185.324219 51.863281 "/></clipPath><clipPath id="41137793e0"><path d="M 285.042969 52 L 331 52 L 331 74.160156 L 285.042969 74.160156 Z M 285.042969 52 "/></clipPath><clipPath id="6fea5924be"><path d="M 300.976562 52.011719 C 325.648438 53.738281 327.148438 54.414062 328.199219 55.539062 C 329.101562 56.511719 329.324219 57.710938 329.773438 59.210938 C 330.375 61.238281 331.199219 64.539062 330.898438 66.636719 C 330.601562 68.4375 330.226562 70.011719 328.726562 71.136719 C 325.949219 73.164062 318.601562 73.085938 312.75 73.613281 C 305.625 74.136719 292.574219 74.363281 288.824219 73.761719 C 287.625 73.539062 287.175781 73.460938 286.574219 72.9375 C 285.976562 72.488281 285.449219 71.738281 285.226562 70.988281 C 285 70.238281 285 69.335938 285.375 68.585938 C 285.75 67.761719 287.023438 66.5625 288 66.335938 C 289.050781 66.113281 290.625 66.636719 291.375 67.238281 C 292.050781 67.761719 292.425781 68.664062 292.5 69.414062 C 292.648438 70.164062 292.574219 71.0625 292.125 71.738281 C 291.601562 72.5625 290.175781 73.539062 289.199219 73.6875 C 288.449219 73.835938 287.550781 73.613281 286.875 73.238281 C 286.273438 72.789062 285.601562 72.113281 285.375 71.363281 C 285.074219 70.6875 284.925781 69.710938 285.226562 68.960938 C 285.523438 68.0625 286.199219 67.085938 287.625 66.414062 C 291.675781 64.613281 308.699219 66.5625 315.074219 65.960938 C 318.601562 65.585938 321.976562 65.886719 323.101562 64.613281 C 323.925781 63.710938 324.226562 61.613281 323.324219 60.636719 C 321.148438 58.164062 302.25 60.335938 299.25 59.136719 C 298.425781 58.761719 298.199219 58.460938 297.898438 57.9375 C 297.523438 57.261719 297.148438 56.136719 297.226562 55.3125 C 297.375 54.488281 297.898438 53.511719 298.5 52.988281 C 299.101562 52.460938 300.976562 52.011719 300.976562 52.011719 "/></clipPath><clipPath id="3544d56ea7"><path d="M 61.902344 63.34375 L 172.0625 63.34375 L 172.0625 74.441406 L 61.902344 74.441406 Z M 61.902344 63.34375 "/></clipPath><clipPath id="9289620ef2"><path d="M 65.699219 66.5625 C 89.398438 66.261719 106.050781 64.6875 120.226562 64.164062 C 135.523438 63.636719 162.523438 62.886719 168.226562 63.710938 C 169.5 63.863281 169.875 63.863281 170.476562 64.386719 C 171.226562 64.988281 172.125 66.488281 172.050781 67.539062 C 172.050781 68.585938 171.148438 70.011719 170.324219 70.613281 C 169.726562 71.0625 168.75 71.210938 168 71.210938 C 167.25 71.136719 166.425781 70.761719 165.824219 70.238281 C 165.300781 69.710938 164.773438 68.886719 164.625 68.136719 C 164.476562 67.386719 164.550781 66.488281 164.925781 65.8125 C 165.449219 64.914062 166.800781 63.863281 167.773438 63.710938 C 168.824219 63.5625 170.398438 64.164062 171.074219 64.914062 C 171.824219 65.664062 172.199219 67.3125 171.976562 68.363281 C 171.75 69.335938 170.699219 70.386719 169.648438 70.988281 C 168.375 71.664062 167.101562 71.511719 164.550781 71.664062 C 157.125 72.1875 134.699219 71.289062 120.226562 71.664062 C 106.351562 72.113281 89.398438 73.761719 79.425781 74.0625 C 73.648438 74.210938 68.550781 74.8125 65.699219 74.0625 C 64.199219 73.6875 63.226562 73.238281 62.625 72.414062 C 62.023438 71.738281 61.875 70.6875 61.949219 69.863281 C 62.023438 69.039062 62.550781 68.0625 63.226562 67.539062 C 63.824219 66.9375 65.699219 66.5625 65.699219 66.5625 "/></clipPath><clipPath id="82f641baf4"><path d="M 161.09375 62.371094 L 250.1875 62.371094 L 250.1875 71.910156 L 161.09375 71.910156 Z M 161.09375 62.371094 "/></clipPath><clipPath id="dc52d85ed9"><path d="M 164.773438 63.488281 C 226.425781 63.863281 231 62.886719 236.101562 62.664062 C 240.300781 62.511719 245.476562 62.0625 247.574219 62.8125 C 248.550781 63.1875 249.074219 63.636719 249.523438 64.3125 C 249.898438 64.914062 250.199219 65.8125 250.125 66.5625 C 250.125 67.3125 249.75 68.210938 249.300781 68.8125 C 248.773438 69.414062 248.023438 69.9375 247.199219 70.011719 C 246.226562 70.164062 244.574219 69.710938 243.824219 69.113281 C 243.226562 68.585938 242.773438 67.761719 242.699219 67.011719 C 242.625 66.039062 243.148438 64.386719 243.824219 63.636719 C 244.351562 63.039062 245.175781 62.664062 246 62.664062 C 246.976562 62.664062 248.550781 63.261719 249.300781 63.9375 C 249.824219 64.539062 250.125 65.4375 250.125 66.1875 C 250.199219 66.9375 249.976562 67.835938 249.523438 68.511719 C 248.925781 69.261719 248.023438 69.710938 246.375 70.164062 C 241.875 71.363281 228.976562 71.363281 219.226562 71.664062 C 207.976562 71.960938 193.125 71.960938 182.851562 71.664062 C 175.273438 71.4375 165.976562 72.039062 163.050781 70.613281 C 162 70.085938 161.625 69.414062 161.324219 68.585938 C 161.023438 67.835938 161.101562 66.636719 161.324219 65.960938 C 161.476562 65.363281 161.851562 64.835938 162.300781 64.460938 C 162.898438 64.011719 164.773438 63.488281 164.773438 63.488281 "/></clipPath><clipPath id="e0d5ed417c"><path d="M 238.160156 62.621094 L 300.898438 62.621094 L 300.898438 73.078125 L 238.160156 73.078125 Z M 238.160156 62.621094 "/></clipPath><clipPath id="ca64bd35af"><path d="M 241.949219 62.664062 C 270.375 63.1875 293.25 63.789062 297.898438 65.289062 C 299.101562 65.664062 299.550781 65.886719 300 66.488281 C 300.523438 67.3125 300.898438 68.960938 300.75 69.9375 C 300.601562 70.6875 300 71.4375 299.398438 71.886719 C 298.800781 72.414062 297.898438 72.710938 297.148438 72.710938 C 296.398438 72.710938 295.5 72.488281 294.898438 71.960938 C 294.148438 71.289062 293.398438 69.710938 293.398438 68.738281 C 293.398438 67.914062 293.699219 67.085938 294.300781 66.488281 C 294.976562 65.8125 296.550781 65.210938 297.523438 65.210938 C 298.351562 65.210938 299.175781 65.664062 299.699219 66.1875 C 300.226562 66.710938 300.675781 67.613281 300.824219 68.363281 C 300.976562 69.039062 300.898438 70.011719 300.449219 70.6875 C 299.925781 71.511719 299.175781 72.1875 297.523438 72.636719 C 291.824219 74.210938 266.550781 70.460938 256.199219 70.164062 C 249.898438 69.9375 243.75 70.914062 241.050781 70.011719 C 239.925781 69.636719 239.324219 69.1875 238.875 68.511719 C 238.425781 67.835938 238.125 66.789062 238.199219 65.960938 C 238.351562 65.136719 238.875 64.164062 239.476562 63.5625 C 240.074219 63.039062 241.949219 62.664062 241.949219 62.664062 "/></clipPath><clipPath id="d55b9ce684"><path d="M 64.679688 70.929688 L 73.394531 70.929688 L 73.394531 198.828125 L 64.679688 198.828125 Z M 64.679688 70.929688 "/></clipPath><clipPath id="f5c25d3128"><path d="M 72.523438 74.738281 C 73.5 181.011719 73.875 192.9375 72.300781 196.539062 C 71.851562 197.664062 71.324219 197.960938 70.726562 198.335938 C 70.050781 198.710938 69.074219 198.863281 68.324219 198.710938 C 67.574219 198.636719 66.75 198.261719 66.226562 197.664062 C 65.550781 196.914062 65.023438 195.261719 65.25 194.289062 C 65.398438 193.238281 66.601562 192.039062 67.425781 191.585938 C 68.175781 191.210938 69.074219 191.210938 69.824219 191.4375 C 70.574219 191.585938 71.398438 192.039062 71.851562 192.710938 C 72.375 193.539062 72.675781 195.261719 72.449219 196.164062 C 72.300781 196.988281 71.625 197.664062 71.023438 198.113281 C 70.425781 198.5625 69.523438 198.789062 68.773438 198.789062 C 67.949219 198.710938 67.050781 198.488281 66.523438 197.886719 C 65.773438 197.210938 65.476562 196.3125 65.175781 194.664062 C 64.351562 190.164062 66.074219 177.636719 66.226562 168.488281 C 66.449219 158.4375 66.449219 149.0625 66.375 136.6875 C 66.148438 119.511719 63.898438 81.5625 65.023438 74.738281 C 65.324219 73.3125 65.476562 72.863281 66 72.261719 C 66.523438 71.585938 67.5 71.0625 68.324219 70.988281 C 69.148438 70.914062 70.273438 71.0625 70.949219 71.664062 C 71.699219 72.261719 72.523438 74.738281 72.523438 74.738281 "/></clipPath><clipPath id="a9e9400f9b"><path d="M 63.21875 188.769531 L 72.808594 188.769531 L 72.808594 307.605469 L 63.21875 307.605469 Z M 63.21875 188.769531 "/></clipPath><clipPath id="6ce0248c99"><path d="M 72.75 192.488281 C 70.875 256.011719 73.949219 295.914062 72 303.789062 C 71.625 305.585938 71.175781 306.335938 70.351562 306.9375 C 69.75 307.460938 68.851562 307.6875 68.101562 307.539062 C 67.125 307.460938 65.625 306.5625 65.101562 305.738281 C 64.574219 305.136719 64.425781 304.238281 64.574219 303.414062 C 64.726562 302.4375 65.699219 301.011719 66.523438 300.488281 C 67.199219 300.113281 68.101562 299.960938 68.851562 300.113281 C 69.824219 300.335938 71.175781 301.386719 71.699219 302.210938 C 72.074219 302.960938 72.074219 303.863281 71.925781 304.613281 C 71.773438 305.363281 71.25 306.1875 70.726562 306.710938 C 70.125 307.164062 69.226562 307.539062 68.476562 307.539062 C 67.726562 307.613281 66.824219 307.460938 66.148438 306.9375 C 65.398438 306.335938 64.949219 305.585938 64.5 303.789062 C 62.550781 296.210938 63.449219 259.761719 63.675781 239.960938 C 63.824219 222.710938 63.523438 197.210938 65.398438 191.585938 C 65.851562 190.3125 66.226562 189.863281 66.898438 189.414062 C 67.574219 188.960938 68.625 188.664062 69.449219 188.8125 C 70.273438 188.886719 71.25 189.414062 71.851562 190.011719 C 72.375 190.613281 72.75 192.488281 72.75 192.488281 "/></clipPath><clipPath id="75d9872b16"><path d="M 104.300781 68.066406 L 114.757812 68.066406 L 114.757812 188.792969 L 104.300781 188.792969 Z M 104.300781 68.066406 "/></clipPath><clipPath id="d098a454c7"><path d="M 112.050781 71.886719 C 112.351562 86.511719 113.398438 90.488281 113.773438 98.136719 C 114.675781 115.613281 115.351562 176.664062 113.773438 185.0625 C 113.550781 186.488281 113.398438 186.9375 112.875 187.539062 C 112.273438 188.136719 111.375 188.738281 110.476562 188.738281 C 109.5 188.8125 107.925781 188.289062 107.25 187.539062 C 106.574219 186.710938 106.199219 184.835938 106.5 183.863281 C 106.800781 182.8125 108.074219 181.6875 109.050781 181.386719 C 110.023438 181.164062 111.675781 181.539062 112.5 182.210938 C 113.25 182.8125 113.851562 184.386719 113.773438 185.4375 C 113.625 186.488281 112.726562 187.835938 111.824219 188.363281 C 110.851562 188.8125 109.199219 188.8125 108.300781 188.363281 C 107.398438 187.835938 106.425781 186.488281 106.351562 185.4375 C 106.199219 184.386719 106.949219 182.886719 107.625 182.210938 C 108.148438 181.613281 109.050781 181.3125 109.875 181.3125 C 110.625 181.238281 111.523438 181.460938 112.125 181.914062 C 112.875 182.511719 113.773438 184.011719 113.773438 185.0625 C 113.773438 186.039062 113.023438 187.539062 112.199219 188.136719 C 111.300781 188.738281 109.574219 188.738281 108.675781 188.511719 C 108.074219 188.363281 107.625 187.988281 107.25 187.539062 C 106.800781 186.9375 106.574219 186.488281 106.273438 185.0625 C 104.773438 176.664062 107.175781 115.460938 106.273438 98.210938 C 105.898438 90.789062 104.851562 87.113281 104.625 82.386719 C 104.398438 78.488281 104.101562 74.136719 104.550781 71.886719 C 104.773438 70.761719 104.925781 70.011719 105.449219 69.414062 C 106.050781 68.8125 107.023438 68.289062 107.851562 68.136719 C 108.675781 68.0625 109.726562 68.289062 110.398438 68.8125 C 111.226562 69.414062 112.050781 71.886719 112.050781 71.886719 "/></clipPath><clipPath id="09a52770a8"><path d="M 104.898438 181.285156 L 113.816406 181.285156 L 113.816406 308.207031 L 104.898438 308.207031 Z M 104.898438 181.285156 "/></clipPath><clipPath id="2ec4df846e"><path d="M 113.773438 185.0625 C 112.648438 255.710938 113.773438 285.9375 113.175781 297.113281 C 112.949219 301.3125 112.875 304.085938 112.125 305.886719 C 111.675781 306.789062 111.148438 307.3125 110.476562 307.6875 C 109.875 308.0625 108.898438 308.210938 108.148438 308.136719 C 107.398438 308.0625 106.5 307.6875 105.976562 307.085938 C 105.375 306.414062 104.773438 304.761719 104.925781 303.789062 C 105.148438 302.738281 106.199219 301.386719 107.101562 301.011719 C 108.074219 300.5625 109.726562 300.710938 110.625 301.238281 C 111.523438 301.761719 112.351562 303.261719 112.351562 304.3125 C 112.425781 305.363281 111.675781 306.863281 110.851562 307.460938 C 110.023438 308.0625 108.300781 308.210938 107.398438 307.988281 C 106.574219 307.761719 105.898438 307.085938 105.523438 306.488281 C 105.074219 305.886719 105 305.210938 104.925781 304.164062 C 104.773438 302.289062 105.523438 299.960938 105.675781 295.988281 C 106.125 285.261719 105.148438 255.414062 105.300781 236.210938 C 105.449219 218.511719 105.074219 191.136719 106.273438 185.0625 C 106.574219 183.636719 106.648438 183.1875 107.25 182.511719 C 107.773438 181.914062 108.75 181.386719 109.574219 181.3125 C 110.398438 181.238281 111.523438 181.386719 112.199219 181.914062 C 112.949219 182.585938 113.773438 185.0625 113.773438 185.0625 "/></clipPath><clipPath id="d2706935d8"><path d="M 143.347656 68.050781 L 153.402344 68.050781 L 153.402344 205.390625 L 143.347656 205.390625 Z M 143.347656 68.050781 "/></clipPath><clipPath id="5eb9f89958"><path d="M 152.25 71.8125 C 152.398438 172.3125 153.300781 186.039062 153.300781 193.988281 C 153.300781 197.8125 153.601562 200.664062 152.925781 202.539062 C 152.625 203.585938 152.023438 204.261719 151.425781 204.710938 C 150.976562 205.085938 150.449219 205.386719 149.773438 205.386719 C 148.875 205.386719 147.148438 204.9375 146.476562 204.113281 C 145.800781 203.289062 145.425781 201.488281 145.800781 200.4375 C 146.101562 199.460938 147.300781 198.335938 148.351562 198.039062 C 149.324219 197.738281 150.976562 198.113281 151.726562 198.789062 C 152.550781 199.460938 153.148438 201.039062 153.074219 202.085938 C 152.925781 203.0625 152.023438 204.488281 151.050781 204.9375 C 150.148438 205.460938 148.5 205.460938 147.601562 204.9375 C 146.625 204.488281 145.800781 202.988281 145.574219 202.011719 C 145.425781 201.261719 145.726562 200.363281 146.101562 199.6875 C 146.476562 199.085938 147.148438 198.414062 147.898438 198.1875 C 148.875 197.886719 150.601562 197.960938 151.425781 198.5625 C 152.25 199.085938 153.074219 200.585938 153.074219 201.636719 C 153.074219 202.6875 152.101562 204.113281 151.425781 204.710938 C 150.976562 205.164062 150.375 205.3125 149.773438 205.386719 C 149.023438 205.386719 147.898438 205.238281 147.148438 204.710938 C 146.398438 204.113281 146.023438 203.511719 145.574219 201.636719 C 142.726562 190.164062 142.875 82.3125 144.75 71.8125 C 144.976562 70.3125 145.125 69.9375 145.648438 69.335938 C 146.25 68.738281 147.226562 68.210938 148.050781 68.136719 C 148.875 67.988281 149.925781 68.210938 150.601562 68.738281 C 151.351562 69.335938 152.25 71.8125 152.25 71.8125 "/></clipPath><clipPath id="3e6a624f6a"><path d="M 144.4375 196.957031 L 153.121094 196.957031 L 153.121094 309.386719 L 144.4375 309.386719 Z M 144.4375 196.957031 "/></clipPath><clipPath id="9f077466b2"><path d="M 153.074219 200.738281 C 152.476562 303.113281 152.476562 305.210938 151.800781 306.9375 C 151.425781 307.835938 151.050781 308.4375 150.375 308.8125 C 149.476562 309.335938 147.824219 309.488281 146.851562 309.1875 C 146.101562 308.960938 145.425781 308.289062 145.050781 307.613281 C 144.675781 307.011719 144.375 306.113281 144.523438 305.289062 C 144.75 304.3125 145.574219 302.886719 146.550781 302.363281 C 147.449219 301.914062 149.101562 301.914062 150 302.4375 C 150.976562 302.886719 151.875 304.3125 152.023438 305.289062 C 152.101562 306.335938 151.5 307.914062 150.675781 308.585938 C 149.925781 309.261719 148.199219 309.488281 147.226562 309.335938 C 146.476562 309.1875 145.726562 308.585938 145.273438 307.988281 C 144.824219 307.386719 144.675781 306.789062 144.523438 305.738281 C 144.226562 303.414062 145.125 300.113281 145.351562 294.636719 C 146.023438 278.664062 144 209.4375 145.574219 200.738281 C 145.875 199.238281 145.949219 198.863281 146.550781 198.1875 C 147.074219 197.585938 148.050781 197.0625 148.875 196.988281 C 149.699219 196.914062 150.75 197.0625 151.425781 197.585938 C 152.25 198.261719 153.074219 200.738281 153.074219 200.738281 "/></clipPath><clipPath id="66747ec8a8"><path d="M 183.078125 66.613281 L 194 66.613281 L 194 239.6875 L 183.078125 239.6875 Z M 183.078125 66.613281 "/></clipPath><clipPath id="396c8ec9d9"><path d="M 191.175781 70.386719 C 191.773438 138.261719 193.425781 156.863281 193.800781 169.3125 C 194.023438 177.335938 194.023438 182.664062 193.800781 189.335938 C 193.574219 196.085938 192.601562 202.3125 192.449219 209.4375 C 192.226562 217.6875 193.574219 231.9375 192.976562 235.914062 C 192.824219 237.113281 192.75 237.5625 192.226562 238.164062 C 191.550781 238.835938 190.050781 239.585938 189.074219 239.664062 C 188.25 239.664062 187.351562 239.289062 186.824219 238.761719 C 186.148438 238.085938 185.476562 236.4375 185.550781 235.460938 C 185.550781 234.636719 186 233.886719 186.523438 233.289062 C 187.050781 232.761719 187.800781 232.238281 188.625 232.164062 C 189.601562 232.085938 191.25 232.539062 192 233.289062 C 192.675781 234.039062 193.050781 235.6875 192.898438 236.664062 C 192.824219 237.488281 192.226562 238.238281 191.699219 238.761719 C 191.101562 239.210938 190.199219 239.585938 189.449219 239.664062 C 188.699219 239.664062 187.800781 239.511719 187.125 238.988281 C 186.375 238.386719 185.925781 237.488281 185.476562 235.914062 C 184.351562 231.5625 184.726562 218.585938 184.949219 210.488281 C 185.101562 203.136719 186.074219 196.3125 186.300781 189.335938 C 186.523438 182.664062 186.523438 177.636719 186.300781 169.613281 C 185.925781 157.238281 184.273438 138.414062 183.824219 122.210938 C 183.375 105.335938 182.550781 76.539062 183.675781 70.386719 C 183.898438 68.960938 184.050781 68.511719 184.574219 67.914062 C 185.175781 67.238281 186.148438 66.789062 186.976562 66.636719 C 187.800781 66.5625 188.851562 66.789062 189.523438 67.3125 C 190.351562 67.914062 191.175781 70.386719 191.175781 70.386719 "/></clipPath><clipPath id="c05e0d6f9e"><path d="M 182.710938 227.5625 L 193.152344 227.5625 L 193.152344 307.359375 L 182.710938 307.359375 Z M 182.710938 227.5625 "/></clipPath><clipPath id="4445b13ecc"><path d="M 193.125 231.335938 C 192.824219 257.511719 191.476562 266.738281 191.023438 275.585938 C 190.574219 284.738281 191.625 298.988281 190.425781 303.5625 C 190.050781 305.210938 189.523438 306.113281 188.773438 306.710938 C 188.175781 307.164062 187.273438 307.460938 186.449219 307.3125 C 185.550781 307.238281 184.050781 306.335938 183.449219 305.511719 C 183 304.835938 182.773438 303.9375 182.925781 303.1875 C 183.148438 302.210938 184.125 300.789062 184.949219 300.261719 C 185.625 299.8125 186.523438 299.664062 187.273438 299.886719 C 188.25 300.113281 189.601562 301.164062 190.125 301.988281 C 190.5 302.738281 190.5 303.636719 190.351562 304.386719 C 190.199219 305.136719 189.675781 305.960938 189.148438 306.488281 C 188.550781 306.9375 187.726562 307.386719 186.898438 307.3125 C 185.925781 307.3125 184.351562 306.5625 183.675781 305.886719 C 183.148438 305.289062 183.148438 304.6875 182.925781 303.5625 C 182.550781 301.238281 182.773438 296.960938 182.925781 291.863281 C 183.226562 282.113281 185.25 260.886719 185.625 249.5625 C 185.851562 241.914062 184.726562 233.585938 185.699219 230.4375 C 186.074219 229.238281 186.523438 228.710938 187.273438 228.1875 C 187.949219 227.738281 189 227.511719 189.824219 227.585938 C 190.648438 227.664062 191.625 228.1875 192.148438 228.789062 C 192.75 229.460938 193.125 231.335938 193.125 231.335938 "/></clipPath><clipPath id="b3d7adb6db"><path d="M 221.28125 67.636719 L 230.664062 67.636719 L 230.664062 204.566406 L 221.28125 204.566406 Z M 221.28125 67.636719 "/></clipPath><clipPath id="87b239bbf3"><path d="M 230.550781 71.4375 C 230.25 202.6875 229.800781 203.289062 229.050781 203.886719 C 228.449219 204.414062 227.550781 204.636719 226.726562 204.488281 C 225.75 204.414062 224.324219 203.511719 223.726562 202.6875 C 223.273438 202.085938 223.125 201.113281 223.199219 200.363281 C 223.273438 199.613281 223.726562 198.710938 224.25 198.1875 C 224.773438 197.664062 225.523438 197.136719 226.351562 197.0625 C 227.324219 196.988281 228.976562 197.4375 229.648438 198.1875 C 230.398438 198.9375 230.699219 200.585938 230.625 201.5625 C 230.476562 202.386719 229.949219 203.136719 229.351562 203.664062 C 228.824219 204.113281 227.925781 204.488281 227.175781 204.488281 C 226.351562 204.5625 225.449219 204.414062 224.851562 203.886719 C 224.101562 203.289062 223.648438 202.6875 223.199219 200.738281 C 220.351562 189.261719 221.101562 81.9375 223.050781 71.4375 C 223.273438 69.9375 223.425781 69.5625 223.949219 68.960938 C 224.550781 68.363281 225.523438 67.835938 226.351562 67.6875 C 227.175781 67.613281 228.226562 67.835938 228.898438 68.363281 C 229.648438 68.960938 230.550781 71.4375 230.550781 71.4375 "/></clipPath><clipPath id="6a4c77b633"><path d="M 222.273438 191.789062 L 230.746094 191.789062 L 230.746094 309.371094 L 222.273438 309.371094 Z M 222.273438 191.789062 "/></clipPath><clipPath id="326cf99988"><path d="M 230.699219 195.5625 C 230.699219 299.136719 230.550781 305.4375 229.050781 307.835938 C 228.523438 308.738281 227.851562 308.960938 227.101562 309.1875 C 226.351562 309.414062 225.375 309.335938 224.699219 309.039062 C 224.023438 308.738281 223.273438 308.136719 222.898438 307.460938 C 222.523438 306.863281 222.300781 305.886719 222.375 305.136719 C 222.449219 304.386719 222.75 303.488281 223.351562 302.960938 C 224.101562 302.363281 225.675781 301.6875 226.726562 301.835938 C 227.699219 302.0625 229.050781 303.039062 229.5 304.011719 C 229.949219 304.914062 229.726562 306.636719 229.273438 307.539062 C 228.976562 308.210938 228.148438 308.738281 227.476562 309.039062 C 226.800781 309.335938 225.824219 309.414062 225.074219 309.1875 C 224.324219 308.960938 223.574219 308.4375 223.125 307.835938 C 222.675781 307.238281 222.523438 306.710938 222.375 305.585938 C 221.925781 302.4375 223.425781 295.914062 223.726562 287.585938 C 224.324219 268.835938 221.625 204.1875 223.199219 195.5625 C 223.425781 194.136719 223.574219 193.761719 224.101562 193.085938 C 224.699219 192.488281 225.675781 191.960938 226.5 191.886719 C 227.324219 191.738281 228.375 191.960938 229.050781 192.488281 C 229.875 193.085938 230.699219 195.5625 230.699219 195.5625 "/></clipPath><clipPath id="7586d1c269"><path d="M 260.695312 66.386719 L 271.277344 66.386719 L 271.277344 238.53125 L 260.695312 238.53125 Z M 260.695312 66.386719 "/></clipPath><clipPath id="4c928433eb"><path d="M 268.949219 70.164062 C 269.851562 123.039062 270.675781 129.488281 270.976562 138.414062 C 271.273438 148.761719 271.351562 161.289062 270.976562 172.164062 C 270.601562 182.289062 269.25 191.4375 268.800781 201.5625 C 268.351562 212.289062 269.699219 229.613281 268.425781 234.710938 C 267.976562 236.363281 267.601562 237.261719 266.773438 237.863281 C 265.875 238.386719 264.226562 238.539062 263.25 238.238281 C 262.5 238.011719 261.824219 237.335938 261.449219 236.664062 C 261.074219 235.988281 260.773438 235.085938 260.925781 234.335938 C 261.074219 233.363281 262.050781 231.9375 262.875 231.414062 C 263.550781 230.960938 264.523438 230.886719 265.273438 231.039062 C 266.023438 231.1875 266.851562 231.5625 267.375 232.164062 C 267.976562 232.914062 268.425781 234.5625 268.351562 235.539062 C 268.199219 236.363281 267.675781 237.113281 267.074219 237.5625 C 266.476562 238.085938 265.648438 238.539062 264.824219 238.460938 C 263.851562 238.460938 262.351562 237.710938 261.675781 237.039062 C 261.148438 236.4375 261.074219 235.761719 260.925781 234.710938 C 260.550781 232.6875 260.851562 229.386719 260.925781 225.335938 C 261 217.761719 261.148438 202.386719 261.675781 192.710938 C 262.050781 185.0625 263.175781 179.8125 263.476562 172.164062 C 263.925781 162.261719 263.773438 148.761719 263.476562 138.414062 C 263.175781 129.5625 262.351562 123.261719 261.976562 113.886719 C 261.523438 101.4375 260.476562 75.789062 261.449219 70.164062 C 261.675781 68.8125 261.824219 68.363281 262.351562 67.6875 C 262.949219 67.085938 263.925781 66.5625 264.75 66.488281 C 265.574219 66.335938 266.625 66.5625 267.300781 67.085938 C 268.050781 67.6875 268.949219 70.164062 268.949219 70.164062 "/></clipPath><clipPath id="56fee1615f"><path d="M 260.546875 227.738281 L 270.660156 227.738281 L 270.660156 307.382812 L 260.546875 307.382812 Z M 260.546875 227.738281 "/></clipPath><clipPath id="4de83e3466"><path d="M 268.425781 231.5625 C 268.648438 266.960938 271.425781 297.488281 270.449219 303.5625 C 270.226562 304.988281 270.148438 305.4375 269.550781 306.039062 C 268.875 306.789062 267.300781 307.386719 266.324219 307.3125 C 265.425781 307.238281 264.449219 306.710938 263.925781 306.113281 C 263.398438 305.511719 262.949219 304.460938 262.949219 303.636719 C 263.023438 302.585938 263.773438 301.085938 264.601562 300.488281 C 265.5 299.886719 267.148438 299.738281 268.125 300.113281 C 269.101562 300.488281 270.148438 301.761719 270.375 302.8125 C 270.601562 303.789062 270.148438 305.4375 269.398438 306.1875 C 268.726562 306.9375 267.148438 307.460938 266.101562 307.3125 C 265.050781 307.085938 263.773438 306.113281 263.324219 305.136719 C 262.875 304.238281 262.949219 302.511719 263.476562 301.6875 C 264 300.789062 265.5 299.886719 266.476562 299.8125 C 267.523438 299.8125 269.023438 300.5625 269.699219 301.3125 C 270.226562 301.914062 270.523438 302.8125 270.449219 303.5625 C 270.375 304.539062 269.625 306.039062 268.875 306.636719 C 268.199219 307.164062 267.148438 307.386719 266.324219 307.3125 C 265.5 307.238281 264.449219 306.710938 263.925781 306.113281 C 263.398438 305.511719 263.25 304.988281 262.949219 303.636719 C 261.675781 297.5625 261.148438 266.960938 260.925781 253.613281 C 260.699219 244.761719 260.25 235.164062 260.925781 231.5625 C 261.148438 230.289062 261.300781 229.6875 261.824219 229.011719 C 262.425781 228.414062 263.398438 227.886719 264.226562 227.8125 C 265.050781 227.738281 266.101562 227.886719 266.773438 228.414062 C 267.601562 229.085938 268.425781 231.5625 268.425781 231.5625 "/></clipPath><clipPath id="c2da4b8a3c"><path d="M 300.292969 70.863281 L 312.433594 70.863281 L 312.433594 235.839844 L 300.292969 235.839844 Z M 300.292969 70.863281 "/></clipPath><clipPath id="c0dd33a6a9"><path d="M 308.175781 74.585938 C 310.351562 153.1875 311.398438 159.039062 311.851562 170.511719 C 312.375 187.238281 312.75 225.488281 311.699219 232.011719 C 311.476562 233.363281 311.476562 233.738281 310.949219 234.335938 C 310.273438 235.011719 308.699219 235.761719 307.726562 235.761719 C 306.898438 235.835938 306.074219 235.460938 305.476562 234.863281 C 304.800781 234.1875 304.125 232.6875 304.199219 231.636719 C 304.351562 230.585938 305.324219 229.238281 306.148438 228.710938 C 306.824219 228.261719 307.800781 228.1875 308.550781 228.335938 C 309.300781 228.488281 310.125 228.9375 310.648438 229.460938 C 311.175781 229.988281 311.550781 230.886719 311.699219 231.636719 C 311.773438 232.386719 311.625 233.289062 311.175781 233.960938 C 310.574219 234.789062 309.074219 235.613281 308.175781 235.761719 C 307.351562 235.914062 306.449219 235.613281 305.851562 235.164062 C 305.101562 234.5625 304.648438 233.8125 304.199219 232.011719 C 302.324219 224.585938 304.875 187.835938 304.351562 170.8125 C 303.976562 158.585938 302.851562 151.761719 302.25 139.460938 C 301.5 121.6875 299.476562 81.636719 300.675781 74.585938 C 300.898438 73.164062 301.050781 72.710938 301.574219 72.113281 C 302.175781 71.511719 303.148438 70.988281 303.976562 70.914062 C 304.800781 70.761719 305.851562 70.988281 306.523438 71.511719 C 307.351562 72.113281 308.175781 74.585938 308.175781 74.585938 "/></clipPath><clipPath id="5fab7f363b"><path d="M 301.320312 224.886719 L 311.863281 224.886719 L 311.863281 309.957031 L 301.320312 309.957031 Z M 301.320312 224.886719 "/></clipPath><clipPath id="7ab85b7edc"><path d="M 311.851562 228.636719 C 309.523438 307.539062 309.523438 307.835938 309 308.4375 C 308.324219 309.1875 306.824219 310.011719 305.851562 309.9375 C 304.800781 309.863281 303.375 308.886719 302.773438 308.136719 C 302.324219 307.460938 302.175781 306.5625 302.324219 305.8125 C 302.476562 304.835938 303.449219 303.414062 304.273438 302.886719 C 304.949219 302.4375 305.851562 302.289062 306.601562 302.511719 C 307.574219 302.738281 308.925781 303.789062 309.449219 304.613281 C 309.824219 305.289062 309.824219 306.261719 309.675781 307.011719 C 309.523438 307.761719 309 308.585938 308.476562 309.039062 C 307.875 309.5625 306.976562 309.863281 306.226562 309.9375 C 305.476562 309.9375 304.574219 309.789062 303.898438 309.261719 C 303.148438 308.664062 302.699219 307.988281 302.25 306.1875 C 300.226562 297.5625 302.023438 235.164062 304.425781 227.738281 C 304.875 226.386719 305.25 226.085938 305.925781 225.5625 C 306.601562 225.113281 307.726562 224.8125 308.550781 224.960938 C 309.375 225.039062 310.351562 225.5625 310.875 226.164062 C 311.476562 226.835938 311.851562 228.636719 311.851562 228.636719 "/></clipPath><clipPath id="d535f0b07a"><path d="M 225.265625 157.429688 L 268.800781 157.429688 L 268.800781 166.4375 L 225.265625 166.4375 Z M 225.265625 157.429688 "/></clipPath><clipPath id="088033e570"><path d="M 229.050781 158.210938 C 267.75 158.210938 268.273438 159.261719 268.648438 160.164062 C 268.875 160.914062 268.800781 161.8125 268.5 162.5625 C 268.199219 163.238281 267.601562 163.988281 266.925781 164.363281 C 266.324219 164.738281 265.425781 165.039062 264.601562 164.886719 C 263.625 164.664062 262.199219 163.6875 261.675781 162.863281 C 261.300781 162.1875 261.226562 161.289062 261.300781 160.539062 C 261.449219 159.789062 261.824219 158.886719 262.425781 158.4375 C 263.175781 157.835938 264.824219 157.3125 265.800781 157.460938 C 266.625 157.613281 267.375 158.136719 267.898438 158.738281 C 268.351562 159.261719 268.726562 160.164062 268.726562 160.914062 C 268.800781 161.664062 268.648438 162.636719 268.125 163.238281 C 267.523438 163.988281 266.699219 164.4375 265.050781 164.886719 C 259.648438 166.3125 234.375 166.988281 229.050781 165.710938 C 227.398438 165.335938 226.574219 164.886719 225.976562 164.136719 C 225.449219 163.460938 225.226562 162.335938 225.300781 161.511719 C 225.449219 160.6875 225.898438 159.710938 226.574219 159.1875 C 227.175781 158.664062 229.050781 158.210938 229.050781 158.210938 "/></clipPath><clipPath id="7446c85003"><path d="M 227.207031 198.125 L 266.871094 198.125 L 266.871094 206.726562 L 227.207031 206.726562 Z M 227.207031 198.125 "/></clipPath><clipPath id="4e65a9359c"><path d="M 231 198.5625 C 264.898438 198.414062 265.351562 198.710938 265.875 199.3125 C 266.324219 199.835938 266.773438 200.738281 266.851562 201.488281 C 266.851562 202.238281 266.625 203.136719 266.25 203.8125 C 265.875 204.414062 265.199219 205.085938 264.375 205.3125 C 263.476562 205.613281 261.75 205.460938 260.925781 204.863281 C 260.101562 204.261719 259.425781 202.6875 259.351562 201.710938 C 259.273438 200.960938 259.648438 200.0625 260.175781 199.460938 C 260.625 198.863281 261.375 198.335938 262.125 198.1875 C 263.101562 198.039062 264.75 198.414062 265.574219 199.011719 C 266.175781 199.460938 266.625 200.363281 266.773438 201.039062 C 266.925781 201.789062 266.773438 202.761719 266.476562 203.4375 C 266.101562 204.113281 265.5 204.710938 264.75 205.164062 C 263.773438 205.6875 262.726562 205.6875 260.699219 205.914062 C 255.375 206.4375 235.726562 207.261719 231 206.0625 C 229.351562 205.6875 228.523438 205.238281 227.925781 204.488281 C 227.398438 203.8125 227.175781 202.6875 227.25 201.863281 C 227.324219 201.039062 227.851562 200.0625 228.523438 199.539062 C 229.125 199.011719 231 198.5625 231 198.5625 "/></clipPath><clipPath id="a12fe75446"><path d="M 238.1875 178.46875 L 246.078125 178.46875 L 246.078125 194.945312 L 238.1875 194.945312 Z M 238.1875 178.46875 "/></clipPath><clipPath id="b325f04c4f"><path d="M 238.199219 191.289062 C 238.5 181.085938 238.648438 180.488281 239.175781 179.886719 C 239.851562 179.210938 241.351562 178.386719 242.398438 178.539062 C 243.449219 178.613281 244.875 179.511719 245.324219 180.414062 C 245.851562 181.3125 245.851562 183.039062 245.476562 183.9375 C 245.175781 184.6875 244.425781 185.289062 243.75 185.585938 C 243.074219 185.960938 242.175781 186.113281 241.351562 185.960938 C 240.449219 185.664062 239.101562 184.613281 238.648438 183.710938 C 238.273438 183.039062 238.273438 182.0625 238.425781 181.3125 C 238.648438 180.636719 239.101562 179.738281 239.773438 179.289062 C 240.523438 178.761719 242.25 178.460938 243.226562 178.6875 C 243.976562 178.835938 244.726562 179.4375 245.175781 180.039062 C 245.550781 180.636719 245.699219 181.3125 245.851562 182.363281 C 246.148438 184.3125 246.074219 189.1875 245.699219 191.289062 C 245.476562 192.335938 245.25 193.164062 244.800781 193.761719 C 244.351562 194.210938 243.898438 194.585938 243.300781 194.738281 C 242.550781 194.960938 241.425781 195.039062 240.601562 194.738281 C 239.851562 194.4375 239.023438 193.613281 238.648438 193.011719 C 238.351562 192.488281 238.199219 191.289062 238.199219 191.289062 "/></clipPath><clipPath id="c1a87617a8"><path d="M 233.28125 164.34375 L 257.511719 164.34375 L 257.511719 184.109375 L 233.28125 184.109375 Z M 233.28125 164.34375 "/></clipPath><clipPath id="094e6ddaa1"><path d="M 241.574219 184.011719 C 235.648438 181.6875 234.898438 180.488281 234.375 179.289062 C 233.851562 178.164062 233.476562 176.8125 233.398438 175.539062 C 233.25 174.1875 233.324219 172.835938 233.699219 171.636719 C 234.074219 170.4375 234.898438 169.3125 235.726562 168.335938 C 236.550781 167.4375 237.449219 166.539062 238.574219 165.9375 C 239.699219 165.261719 240.898438 164.886719 242.398438 164.664062 C 244.574219 164.289062 248.25 164.289062 250.351562 164.738281 C 251.773438 165.039062 252.898438 165.488281 253.949219 166.238281 C 255 167.136719 255.976562 168.1875 256.574219 169.6875 C 257.324219 171.710938 257.773438 175.238281 257.175781 177.488281 C 256.648438 179.4375 254.925781 181.460938 253.574219 182.511719 C 252.601562 183.335938 251.324219 183.863281 250.351562 183.789062 C 249.523438 183.789062 248.699219 183.335938 248.175781 182.8125 C 247.574219 182.289062 247.125 181.460938 247.050781 180.636719 C 246.976562 179.738281 247.425781 178.085938 248.175781 177.335938 C 248.925781 176.664062 250.574219 176.210938 251.550781 176.4375 C 252.601562 176.664062 253.875 177.710938 254.25 178.6875 C 254.625 179.664062 254.324219 181.386719 253.800781 182.210938 C 253.425781 182.886719 252.675781 183.414062 251.925781 183.636719 C 251.175781 183.863281 250.273438 183.863281 249.523438 183.636719 C 248.773438 183.414062 248.023438 182.8125 247.648438 182.136719 C 247.199219 181.539062 246.976562 180.636719 246.976562 179.886719 C 247.050781 179.136719 247.425781 178.3125 247.875 177.636719 C 248.398438 176.960938 249.601562 176.738281 249.898438 175.988281 C 250.273438 175.011719 250.050781 172.914062 249.375 172.238281 C 248.625 171.5625 246.75 171.789062 245.476562 171.9375 C 244.273438 172.011719 242.550781 171.9375 241.800781 172.761719 C 241.125 173.511719 240.75 175.613281 241.273438 176.4375 C 241.726562 177.261719 243.976562 177.039062 244.648438 177.710938 C 245.324219 178.3125 245.699219 179.363281 245.699219 180.1875 C 245.699219 181.011719 245.398438 182.0625 244.800781 182.664062 C 244.125 183.414062 241.574219 184.011719 241.574219 184.011719 "/></clipPath><clipPath id="957d325c31"><path d="M 246.378906 176.3125 L 254.5 176.3125 L 254.5 196.148438 L 246.378906 196.148438 Z M 246.378906 176.3125 "/></clipPath><clipPath id="62d1240521"><path d="M 254.476562 180.113281 C 253.875 193.460938 253.800781 194.0625 253.351562 194.664062 C 252.898438 195.261719 252.074219 195.789062 251.324219 196.011719 C 250.648438 196.164062 249.675781 196.164062 248.925781 195.863281 C 248.25 195.5625 247.5 194.960938 247.125 194.289062 C 246.75 193.6875 246.523438 192.710938 246.601562 191.960938 C 246.675781 191.210938 247.050781 190.3125 247.648438 189.789062 C 248.324219 189.113281 249.898438 188.511719 250.949219 188.664062 C 252 188.8125 253.273438 189.863281 253.726562 190.761719 C 254.175781 191.738281 253.949219 193.460938 253.574219 194.289062 C 253.199219 195.039062 252.449219 195.5625 251.699219 195.863281 C 251.023438 196.164062 250.050781 196.164062 249.300781 196.011719 C 248.625 195.789062 247.800781 195.261719 247.351562 194.664062 C 246.898438 194.0625 246.75 193.460938 246.601562 192.335938 C 246.226562 189.710938 246.300781 180.710938 247.425781 178.3125 C 247.949219 177.335938 248.625 176.886719 249.375 176.585938 C 250.199219 176.289062 251.324219 176.289062 252.074219 176.585938 C 252.824219 176.886719 253.648438 177.710938 254.101562 178.3125 C 254.398438 178.914062 254.476562 180.113281 254.476562 180.113281 "/></clipPath><clipPath id="783274a1b4"><path d="M 238.769531 188.398438 L 254.148438 188.398438 L 254.148438 196.140625 L 238.769531 196.140625 Z M 238.769531 188.398438 "/></clipPath><clipPath id="879259c098"><path d="M 250.351562 196.085938 C 241.199219 195.710938 240 195.261719 239.476562 194.4375 C 238.875 193.539062 238.800781 191.886719 239.101562 190.914062 C 239.324219 190.164062 240 189.488281 240.601562 189.113281 C 241.273438 188.738281 242.175781 188.4375 242.925781 188.585938 C 243.898438 188.738281 245.324219 189.710938 245.851562 190.539062 C 246.300781 191.210938 246.375 192.1875 246.226562 192.9375 C 246.148438 193.6875 245.773438 194.511719 245.101562 195.039062 C 244.351562 195.636719 242.699219 196.085938 241.726562 196.011719 C 240.976562 195.863281 240.148438 195.335938 239.699219 194.738281 C 239.175781 194.136719 238.800781 193.3125 238.800781 192.488281 C 238.800781 191.511719 239.398438 190.011719 240.300781 189.335938 C 241.351562 188.511719 243.601562 188.664062 245.398438 188.585938 C 247.273438 188.4375 249.824219 188.289062 251.25 188.738281 C 252.226562 189.039062 252.976562 189.5625 253.425781 190.238281 C 253.875 190.914062 254.101562 192.039062 254.101562 192.789062 C 254.023438 193.460938 253.875 193.988281 253.425781 194.511719 C 252.824219 195.1875 250.351562 196.085938 250.351562 196.085938 "/></clipPath><clipPath id="4237f88a70"><path d="M 43.453125 303.773438 L 80.761719 303.773438 L 80.761719 323.855469 L 43.453125 323.855469 Z M 43.453125 303.773438 "/></clipPath><clipPath id="7beae1e30f"><path d="M 70.351562 311.738281 C 51.226562 313.6875 51.148438 316.3125 51.75 316.835938 C 52.351562 317.289062 53.851562 315.9375 55.648438 315.636719 C 59.925781 315.113281 73.5 315.261719 76.949219 315.863281 C 78.148438 316.011719 78.601562 316.085938 79.199219 316.613281 C 79.949219 317.289062 80.773438 318.789062 80.699219 319.835938 C 80.625 320.8125 79.800781 322.3125 78.898438 322.835938 C 78 323.363281 76.273438 323.363281 75.375 322.988281 C 74.625 322.761719 74.023438 322.011719 73.648438 321.335938 C 73.273438 320.664062 73.050781 319.761719 73.273438 319.011719 C 73.5 318.039062 74.476562 316.613281 75.375 316.164062 C 76.351562 315.789062 78 315.9375 78.898438 316.386719 C 79.574219 316.761719 80.175781 317.511719 80.398438 318.1875 C 80.699219 318.9375 80.851562 319.835938 80.550781 320.585938 C 80.25 321.488281 79.5 322.539062 78.148438 323.136719 C 75.523438 324.335938 68.851562 323.664062 63.976562 323.511719 C 58.875 323.289062 51.074219 323.363281 48.074219 321.9375 C 46.648438 321.1875 46.125 320.210938 45.375 319.085938 C 44.625 317.886719 43.648438 316.613281 43.5 315.039062 C 43.351562 313.011719 43.875 309.414062 45.375 307.6875 C 46.875 305.960938 49.726562 305.511719 52.800781 304.914062 C 57.523438 303.9375 68.101562 303.414062 71.25 304.3125 C 72.375 304.6875 72.898438 305.136719 73.425781 305.886719 C 73.875 306.5625 74.175781 307.613281 74.023438 308.4375 C 73.949219 309.261719 73.425781 310.238281 72.824219 310.761719 C 72.148438 311.363281 70.351562 311.738281 70.351562 311.738281 "/></clipPath><clipPath id="ff7576e8d0"><path d="M 63.3125 300.632812 L 196.550781 300.632812 L 196.550781 311.039062 L 63.3125 311.039062 Z M 63.3125 300.632812 "/></clipPath><clipPath id="c3da5776ef"><path d="M 67.125 303.113281 C 119.851562 301.914062 146.773438 302.511719 163.425781 302.136719 C 174.976562 301.914062 188.023438 299.886719 192.75 300.9375 C 194.398438 301.3125 195.226562 301.835938 195.824219 302.585938 C 196.351562 303.1875 196.574219 304.085938 196.5 304.914062 C 196.351562 305.886719 195.449219 307.3125 194.625 307.914062 C 194.023438 308.363281 193.050781 308.511719 192.300781 308.4375 C 191.550781 308.363281 190.726562 307.914062 190.125 307.386719 C 189.601562 306.863281 189.074219 306.113281 189 305.289062 C 188.925781 304.3125 189.523438 302.664062 190.125 301.988281 C 190.648438 301.386719 191.550781 301.085938 192.300781 300.9375 C 193.050781 300.863281 194.023438 301.011719 194.625 301.460938 C 195.449219 302.0625 196.351562 303.5625 196.5 304.460938 C 196.574219 305.289062 196.351562 306.1875 195.824219 306.789062 C 195.226562 307.539062 194.324219 307.988281 192.75 308.4375 C 188.175781 309.710938 176.175781 309.335938 165.074219 309.5625 C 148.574219 309.9375 121.050781 309.414062 103.199219 309.636719 C 89.550781 309.863281 72.449219 311.886719 67.125 310.613281 C 65.398438 310.238281 64.648438 309.789062 64.050781 308.960938 C 63.449219 308.289062 63.300781 307.238281 63.375 306.414062 C 63.449219 305.585938 63.976562 304.613281 64.648438 304.011719 C 65.25 303.488281 67.125 303.113281 67.125 303.113281 "/></clipPath><clipPath id="e8625ba0f5"><path d="M 185.503906 300.125 L 261.496094 300.125 L 261.496094 309.671875 L 185.503906 309.671875 Z M 185.503906 300.125 "/></clipPath><clipPath id="9eb28dd2c4"><path d="M 189.300781 301.085938 C 259.050781 300.261719 259.425781 300.335938 259.949219 300.863281 C 260.699219 301.539062 261.523438 303.039062 261.449219 304.011719 C 261.375 305.0625 260.476562 306.488281 259.648438 307.085938 C 258.976562 307.539062 258.074219 307.6875 257.324219 307.539062 C 256.351562 307.386719 254.925781 306.414062 254.398438 305.585938 C 253.949219 304.914062 253.875 304.011719 254.023438 303.261719 C 254.175781 302.511719 254.476562 301.613281 255.148438 301.085938 C 255.898438 300.488281 257.550781 300.039062 258.523438 300.1875 C 259.351562 300.261719 260.101562 300.863281 260.550781 301.386719 C 261.074219 301.988281 261.449219 302.886719 261.449219 303.636719 C 261.523438 304.386719 261.300781 305.289062 260.851562 305.960938 C 260.175781 306.710938 259.5 307.164062 257.699219 307.613281 C 249.75 309.636719 197.175781 310.460938 189.300781 308.585938 C 187.5 308.136719 186.824219 307.761719 186.226562 306.9375 C 185.699219 306.261719 185.476562 305.210938 185.550781 304.386719 C 185.699219 303.5625 186.148438 302.585938 186.824219 302.0625 C 187.425781 301.460938 189.300781 301.085938 189.300781 301.085938 "/></clipPath><clipPath id="5a4545e8bb"><path d="M 249.960938 300.324219 L 327 300.324219 L 327 310.199219 L 249.960938 310.199219 Z M 249.960938 300.324219 "/></clipPath><clipPath id="1f15746de7"><path d="M 253.726562 300.335938 C 322.800781 301.835938 325.199219 301.914062 326.324219 303.113281 C 327.074219 304.011719 327 305.664062 326.699219 306.636719 C 326.476562 307.386719 325.800781 308.0625 325.125 308.4375 C 324.523438 308.886719 323.625 309.113281 322.800781 308.960938 C 321.824219 308.8125 320.398438 307.835938 319.875 307.011719 C 319.425781 306.335938 319.273438 305.4375 319.5 304.6875 C 319.726562 303.710938 320.773438 302.363281 321.601562 301.835938 C 322.273438 301.460938 323.25 301.386719 324 301.613281 C 324.898438 301.835938 326.25 302.960938 326.699219 303.863281 C 327.074219 304.539062 327 305.511719 326.851562 306.261719 C 326.625 306.9375 326.101562 307.761719 325.5 308.210938 C 324.898438 308.664062 324 309.039062 323.25 309.039062 C 322.273438 308.960938 320.773438 307.164062 320.101562 307.386719 C 319.648438 307.539062 319.949219 308.4375 319.199219 308.8125 C 314.550781 311.363281 259.574219 309.9375 252.824219 307.761719 C 251.476562 307.3125 251.101562 306.9375 250.648438 306.261719 C 250.125 305.585938 249.898438 304.460938 249.976562 303.636719 C 250.125 302.8125 250.574219 301.835938 251.25 301.3125 C 251.851562 300.789062 253.726562 300.335938 253.726562 300.335938 "/></clipPath><clipPath id="ea5ad1167d"><path d="M 246.554688 301.191406 L 332.375 301.191406 L 332.375 324.496094 L 246.554688 324.496094 Z M 246.554688 301.191406 "/></clipPath><clipPath id="a6c31aa146"><path d="M 319.949219 301.238281 C 327.449219 301.761719 328.800781 302.136719 329.773438 303.261719 C 331.125 304.761719 332.023438 308.210938 332.25 310.761719 C 332.550781 313.3125 332.324219 316.761719 331.425781 318.5625 C 330.824219 319.835938 330 320.4375 328.726562 321.261719 C 326.925781 322.386719 324.148438 323.289062 321.074219 323.8125 C 316.726562 324.636719 310.574219 324.414062 304.875 324.335938 C 298.425781 324.261719 292.050781 323.363281 284.398438 322.988281 C 274.425781 322.613281 255.375 323.960938 250.199219 322.539062 C 248.550781 322.085938 247.726562 321.636719 247.125 320.738281 C 246.601562 319.914062 246.601562 318.1875 246.898438 317.289062 C 247.199219 316.539062 247.875 315.863281 248.550781 315.488281 C 249.148438 315.113281 250.125 314.886719 250.875 315.039062 C 251.851562 315.261719 253.273438 316.238281 253.726562 317.136719 C 254.175781 318.039062 254.023438 319.761719 253.574219 320.664062 C 253.273438 321.414062 252.449219 321.9375 251.773438 322.238281 C 251.101562 322.539062 250.125 322.6875 249.375 322.386719 C 248.476562 322.085938 247.125 321.039062 246.824219 320.0625 C 246.449219 319.085938 246.675781 317.363281 247.273438 316.539062 C 247.949219 315.710938 248.773438 315.414062 250.5 315.039062 C 255.824219 313.835938 275.398438 315.113281 285.449219 315.5625 C 292.949219 315.863281 298.949219 316.761719 305.175781 316.835938 C 310.800781 316.914062 317.773438 316.835938 321.148438 316.164062 C 322.875 315.789062 324.226562 315.636719 324.824219 314.8125 C 325.425781 313.914062 325.273438 311.960938 324.75 310.914062 C 324.226562 309.9375 322.800781 309.1875 321.675781 308.738281 C 320.625 308.363281 319.125 308.886719 318.226562 308.289062 C 317.25 307.761719 316.351562 306.488281 316.199219 305.4375 C 316.050781 304.460938 316.726562 302.886719 317.476562 302.210938 C 318.074219 301.613281 319.949219 301.238281 319.949219 301.238281 "/></clipPath><clipPath id="6d9a1f2dc4"><path d="M 69.03125 315 L 173.835938 315 L 173.835938 324.40625 L 69.03125 324.40625 Z M 69.03125 315 "/></clipPath><clipPath id="a7fef4f711"><path d="M 72.824219 315.1875 C 99.226562 315.335938 101.25 315.9375 107.101562 316.164062 C 120.148438 316.613281 164.550781 313.835938 170.925781 315.636719 C 172.199219 316.011719 172.5 316.3125 172.949219 316.914062 C 173.398438 317.511719 173.851562 318.335938 173.773438 319.164062 C 173.773438 320.136719 173.101562 321.710938 172.273438 322.3125 C 171.375 322.914062 169.726562 323.0625 168.75 322.835938 C 168 322.613281 167.324219 321.9375 166.875 321.335938 C 166.5 320.664062 166.199219 319.761719 166.273438 319.011719 C 166.425781 318.039062 167.398438 316.613281 168.148438 316.011719 C 168.824219 315.5625 169.800781 315.488281 170.550781 315.5625 C 171.300781 315.636719 172.125 316.085938 172.648438 316.613281 C 173.25 317.136719 173.625 318.039062 173.773438 318.789062 C 173.851562 319.539062 173.773438 320.4375 173.324219 321.113281 C 172.800781 321.9375 172.125 322.539062 170.398438 323.0625 C 162.976562 325.238281 120.074219 324.113281 107.101562 323.664062 C 101.25 323.4375 99.226562 322.835938 94.425781 322.6875 C 87.976562 322.386719 75.375 323.664062 71.925781 322.539062 C 70.726562 322.164062 70.199219 321.710938 69.75 321.039062 C 69.226562 320.363281 69 319.3125 69.074219 318.488281 C 69.148438 317.664062 69.675781 316.6875 70.351562 316.085938 C 70.949219 315.5625 72.824219 315.1875 72.824219 315.1875 "/></clipPath><clipPath id="ba6d467324"><path d="M 161.910156 315.28125 L 267.941406 315.28125 L 267.941406 323.933594 L 161.910156 323.933594 Z M 161.910156 315.28125 "/></clipPath><clipPath id="3a33728b09"><path d="M 165.675781 315.863281 C 256.648438 314.738281 263.925781 315.414062 266.476562 316.988281 C 267.375 317.511719 267.601562 318.1875 267.824219 318.9375 C 267.976562 319.6875 267.976562 320.664062 267.675781 321.335938 C 267.375 322.011719 266.773438 322.761719 266.101562 323.136719 C 265.5 323.585938 264.601562 323.8125 263.773438 323.664062 C 262.800781 323.511719 261.375 322.613281 260.851562 321.710938 C 260.398438 320.8125 260.476562 319.085938 260.851562 318.1875 C 261.226562 317.4375 261.898438 316.835938 262.648438 316.539062 C 263.550781 316.238281 265.273438 316.3125 266.101562 316.761719 C 266.851562 317.0625 267.375 317.886719 267.675781 318.5625 C 267.976562 319.238281 267.976562 320.210938 267.824219 320.960938 C 267.601562 321.710938 267.074219 322.460938 266.476562 322.914062 C 265.875 323.363281 265.273438 323.585938 264.226562 323.664062 C 261.300781 323.960938 255.675781 322.085938 248.324219 321.636719 C 231.523438 320.738281 174.523438 325.386719 165.675781 323.363281 C 163.875 322.914062 163.199219 322.460938 162.601562 321.710938 C 162.074219 321.039062 161.851562 319.988281 161.925781 319.164062 C 162.074219 318.335938 162.523438 317.363281 163.199219 316.761719 C 163.800781 316.238281 165.675781 315.863281 165.675781 315.863281 "/></clipPath></defs><g id="b40ba6e1fa"><g clip-rule="nonzero" clip-path="url(#667ce30cff)"><g clip-rule="nonzero" clip-path="url(#4195150fb2)"><path style=" stroke:none;fill-rule:nonzero;fill:currentColor;fill-opacity:1;" d="M 37.5 48.863281 L 87.023438 48.863281 L 87.023438 77.289062 L 37.5 77.289062 Z M 37.5 48.863281 "/></g></g><g clip-rule="nonzero" clip-path="url(#1f1fd62e6b)"><g clip-rule="nonzero" clip-path="url(#627c0173fa)"><path style=" stroke:none;fill-rule:nonzero;fill:currentColor;fill-opacity:1;" d="M 68.175781 47.664062 L 195.667969 47.664062 L 195.667969 62.4375 L 68.175781 62.4375 Z M 68.175781 47.664062 "/></g></g><g clip-rule="nonzero" clip-path="url(#0d87cf9ecb)"><g clip-rule="nonzero" clip-path="url(#18cbe079f1)"><path style=" stroke:none;fill-rule:nonzero;fill:currentColor;fill-opacity:1;" d="M 178.574219 47.738281 L 312.65625 47.738281 L 312.65625 63.5625 L 178.574219 63.5625 Z M 178.574219 47.738281 "/></g></g><g clip-rule="nonzero" clip-path="url(#41137793e0)"><g clip-rule="nonzero" clip-path="url(#6fea5924be)"><path style=" stroke:none;fill-rule:nonzero;fill:currentColor;fill-opacity:1;" d="M 282.226562 49.011719 L 333.929688 49.011719 L 333.929688 76.761719 L 282.226562 76.761719 Z M 282.226562 49.011719 "/></g></g><g clip-rule="nonzero" clip-path="url(#3544d56ea7)"><g clip-rule="nonzero" clip-path="url(#9289620ef2)"><path style=" stroke:none;fill-rule:nonzero;fill:currentColor;fill-opacity:1;" d="M 58.949219 60.710938 L 175.144531 60.710938 L 175.144531 77.136719 L 58.949219 77.136719 Z M 58.949219 60.710938 "/></g></g><g clip-rule="nonzero" clip-path="url(#82f641baf4)"><g clip-rule="nonzero" clip-path="url(#dc52d85ed9)"><path style=" stroke:none;fill-rule:nonzero;fill:currentColor;fill-opacity:1;" d="M 158.324219 59.664062 L 253.191406 59.664062 L 253.191406 74.738281 L 158.324219 74.738281 Z M 158.324219 59.664062 "/></g></g><g clip-rule="nonzero" clip-path="url(#e0d5ed417c)"><g clip-rule="nonzero" clip-path="url(#ca64bd35af)"><path style=" stroke:none;fill-rule:nonzero;fill:currentColor;fill-opacity:1;" d="M 235.199219 59.664062 L 303.792969 59.664062 L 303.792969 75.789062 L 235.199219 75.789062 Z M 235.199219 59.664062 "/></g></g><g clip-rule="nonzero" clip-path="url(#d55b9ce684)"><g clip-rule="nonzero" clip-path="url(#f5c25d3128)"><path style=" stroke:none;fill-rule:nonzero;fill:currentColor;fill-opacity:1;" d="M 62.023438 67.988281 L 76.800781 67.988281 L 76.800781 201.769531 L 62.023438 201.769531 Z M 62.023438 67.988281 "/></g></g><g clip-rule="nonzero" clip-path="url(#a9e9400f9b)"><g clip-rule="nonzero" clip-path="url(#6ce0248c99)"><path style=" stroke:none;fill-rule:nonzero;fill:currentColor;fill-opacity:1;" d="M 60.675781 185.8125 L 75.824219 185.8125 L 75.824219 310.621094 L 60.675781 310.621094 Z M 60.675781 185.8125 "/></g></g><g clip-rule="nonzero" clip-path="url(#75d9872b16)"><g clip-rule="nonzero" clip-path="url(#d098a454c7)"><path style=" stroke:none;fill-rule:nonzero;fill:currentColor;fill-opacity:1;" d="M 101.550781 65.136719 L 116.851562 65.136719 L 116.851562 191.722656 L 101.550781 191.722656 Z M 101.550781 65.136719 "/></g></g><g clip-rule="nonzero" clip-path="url(#09a52770a8)"><g clip-rule="nonzero" clip-path="url(#2ec4df846e)"><path style=" stroke:none;fill-rule:nonzero;fill:currentColor;fill-opacity:1;" d="M 101.925781 178.3125 L 116.851562 178.3125 L 116.851562 311.238281 L 101.925781 311.238281 Z M 101.925781 178.3125 "/></g></g><g clip-rule="nonzero" clip-path="url(#d2706935d8)"><g clip-rule="nonzero" clip-path="url(#5eb9f89958)"><path style=" stroke:none;fill-rule:nonzero;fill:currentColor;fill-opacity:1;" d="M 141.75 65.136719 L 156.375 65.136719 L 156.375 208.472656 L 141.75 208.472656 Z M 141.75 65.136719 "/></g></g><g clip-rule="nonzero" clip-path="url(#3e6a624f6a)"><g clip-rule="nonzero" clip-path="url(#9f077466b2)"><path style=" stroke:none;fill-rule:nonzero;fill:currentColor;fill-opacity:1;" d="M 141.523438 193.988281 L 156.148438 193.988281 L 156.148438 312.359375 L 141.523438 312.359375 Z M 141.523438 193.988281 "/></g></g><g clip-rule="nonzero" clip-path="url(#66747ec8a8)"><g clip-rule="nonzero" clip-path="url(#396c8ec9d9)"><path style=" stroke:none;fill-rule:nonzero;fill:currentColor;fill-opacity:1;" d="M 180.675781 63.636719 L 196.875 63.636719 L 196.875 242.660156 L 180.675781 242.660156 Z M 180.675781 63.636719 "/></g></g><g clip-rule="nonzero" clip-path="url(#c05e0d6f9e)"><g clip-rule="nonzero" clip-path="url(#4445b13ecc)"><path style=" stroke:none;fill-rule:nonzero;fill:currentColor;fill-opacity:1;" d="M 179.925781 224.585938 L 196.125 224.585938 L 196.125 310.398438 L 179.925781 310.398438 Z M 179.925781 224.585938 "/></g></g><g clip-rule="nonzero" clip-path="url(#b3d7adb6db)"><g clip-rule="nonzero" clip-path="url(#87b239bbf3)"><path style=" stroke:none;fill-rule:nonzero;fill:currentColor;fill-opacity:1;" d="M 220.050781 64.6875 L 233.773438 64.6875 L 233.773438 207.511719 L 220.050781 207.511719 Z M 220.050781 64.6875 "/></g></g><g clip-rule="nonzero" clip-path="url(#6a4c77b633)"><g clip-rule="nonzero" clip-path="url(#326cf99988)"><path style=" stroke:none;fill-rule:nonzero;fill:currentColor;fill-opacity:1;" d="M 219.375 188.886719 L 234.226562 188.886719 L 234.226562 312.269531 L 219.375 312.269531 Z M 219.375 188.886719 "/></g></g><g clip-rule="nonzero" clip-path="url(#7586d1c269)"><g clip-rule="nonzero" clip-path="url(#4c928433eb)"><path style=" stroke:none;fill-rule:nonzero;fill:currentColor;fill-opacity:1;" d="M 257.925781 63.488281 L 274.050781 63.488281 L 274.050781 241.554688 L 257.925781 241.554688 Z M 257.925781 63.488281 "/></g></g><g clip-rule="nonzero" clip-path="url(#56fee1615f)"><g clip-rule="nonzero" clip-path="url(#4de83e3466)"><path style=" stroke:none;fill-rule:nonzero;fill:currentColor;fill-opacity:1;" d="M 257.925781 224.8125 L 273.523438 224.8125 L 273.523438 310.367188 L 257.925781 310.367188 Z M 257.925781 224.8125 "/></g></g><g clip-rule="nonzero" clip-path="url(#c2da4b8a3c)"><g clip-rule="nonzero" clip-path="url(#c0dd33a6a9)"><path style=" stroke:none;fill-rule:nonzero;fill:currentColor;fill-opacity:1;" d="M 297.675781 67.914062 L 314.851562 67.914062 L 314.851562 238.855469 L 297.675781 238.855469 Z M 297.675781 67.914062 "/></g></g><g clip-rule="nonzero" clip-path="url(#5fab7f363b)"><g clip-rule="nonzero" clip-path="url(#7ab85b7edc)"><path style=" stroke:none;fill-rule:nonzero;fill:currentColor;fill-opacity:1;" d="M 299.25 221.960938 L 314.851562 221.960938 L 314.851562 313.003906 L 299.25 313.003906 Z M 299.25 221.960938 "/></g></g><g clip-rule="nonzero" clip-path="url(#d535f0b07a)"><g clip-rule="nonzero" clip-path="url(#088033e570)"><path style=" stroke:none;fill-rule:nonzero;fill:currentColor;fill-opacity:1;" d="M 222.300781 154.460938 L 271.820312 154.460938 L 271.820312 168.789062 L 222.300781 168.789062 Z M 222.300781 154.460938 "/></g></g><g clip-rule="nonzero" clip-path="url(#7446c85003)"><g clip-rule="nonzero" clip-path="url(#4e65a9359c)"><path style=" stroke:none;fill-rule:nonzero;fill:currentColor;fill-opacity:1;" d="M 224.25 195.113281 L 269.832031 195.113281 L 269.832031 209.136719 L 224.25 209.136719 Z M 224.25 195.113281 "/></g></g><g clip-rule="nonzero" clip-path="url(#a12fe75446)"><g clip-rule="nonzero" clip-path="url(#b325f04c4f)"><path style=" stroke:none;fill-rule:nonzero;fill:currentColor;fill-opacity:1;" d="M 235.199219 175.539062 L 248.851562 175.539062 L 248.851562 197.824219 L 235.199219 197.824219 Z M 235.199219 175.539062 "/></g></g><g clip-rule="nonzero" clip-path="url(#c1a87617a8)"><g clip-rule="nonzero" clip-path="url(#094e6ddaa1)"><path style=" stroke:none;fill-rule:nonzero;fill:currentColor;fill-opacity:1;" d="M 230.398438 161.664062 L 260.292969 161.664062 L 260.292969 187.085938 L 230.398438 187.085938 Z M 230.398438 161.664062 "/></g></g><g clip-rule="nonzero" clip-path="url(#957d325c31)"><g clip-rule="nonzero" clip-path="url(#62d1240521)"><path style=" stroke:none;fill-rule:nonzero;fill:currentColor;fill-opacity:1;" d="M 243.601562 173.585938 L 257.550781 173.585938 L 257.550781 199.035156 L 243.601562 199.035156 Z M 243.601562 173.585938 "/></g></g><g clip-rule="nonzero" clip-path="url(#783274a1b4)"><g clip-rule="nonzero" clip-path="url(#879259c098)"><path style=" stroke:none;fill-rule:nonzero;fill:currentColor;fill-opacity:1;" d="M 235.800781 185.585938 L 257.117188 185.585938 L 257.117188 199.164062 L 235.800781 199.164062 Z M 235.800781 185.585938 "/></g></g><g clip-rule="nonzero" clip-path="url(#4237f88a70)"><g clip-rule="nonzero" clip-path="url(#7beae1e30f)"><path style=" stroke:none;fill-rule:nonzero;fill:currentColor;fill-opacity:1;" d="M 40.5 301.3125 L 83.714844 301.3125 L 83.714844 326.511719 L 40.5 326.511719 Z M 40.5 301.3125 "/></g></g><g clip-rule="nonzero" clip-path="url(#ff7576e8d0)"><g clip-rule="nonzero" clip-path="url(#c3da5776ef)"><path style=" stroke:none;fill-rule:nonzero;fill:currentColor;fill-opacity:1;" d="M 60.375 297.9375 L 199.492188 297.9375 L 199.492188 313.613281 L 60.375 313.613281 Z M 60.375 297.9375 "/></g></g><g clip-rule="nonzero" clip-path="url(#e8625ba0f5)"><g clip-rule="nonzero" clip-path="url(#9eb28dd2c4)"><path style=" stroke:none;fill-rule:nonzero;fill:currentColor;fill-opacity:1;" d="M 182.550781 297.113281 L 264.449219 297.113281 L 264.449219 311.664062 L 182.550781 311.664062 Z M 182.550781 297.113281 "/></g></g><g clip-rule="nonzero" clip-path="url(#5a4545e8bb)"><g clip-rule="nonzero" clip-path="url(#1f15746de7)"><path style=" stroke:none;fill-rule:nonzero;fill:currentColor;fill-opacity:1;" d="M 246.976562 297.335938 L 329.835938 297.335938 L 329.835938 312.039062 L 246.976562 312.039062 Z M 246.976562 297.335938 "/></g></g><g clip-rule="nonzero" clip-path="url(#ea5ad1167d)"><g clip-rule="nonzero" clip-path="url(#a6c31aa146)"><path style=" stroke:none;fill-rule:nonzero;fill:currentColor;fill-opacity:1;" d="M 243.824219 298.238281 L 335.332031 298.238281 L 335.332031 327.335938 L 243.824219 327.335938 Z M 243.824219 298.238281 "/></g></g><g clip-rule="nonzero" clip-path="url(#6d9a1f2dc4)"><g clip-rule="nonzero" clip-path="url(#a7fef4f711)"><path style=" stroke:none;fill-rule:nonzero;fill:currentColor;fill-opacity:1;" d="M 66.074219 312.1875 L 176.847656 312.1875 L 176.847656 326.738281 L 66.074219 326.738281 Z M 66.074219 312.1875 "/></g></g><g clip-rule="nonzero" clip-path="url(#ba6d467324)"><g clip-rule="nonzero" clip-path="url(#3a33728b09)"><path style=" stroke:none;fill-rule:nonzero;fill:currentColor;fill-opacity:1;" d="M 158.925781 311.136719 L 270.804688 311.136719 L 270.804688 326.738281 L 158.925781 326.738281 Z M 158.925781 311.136719 "/></g></g></g></svg>