<svg xmlns="http://www.w3.org/2000/svg" xmlns:xlink="http://www.w3.org/1999/xlink" width="500" zoomAndPan="magnify" viewBox="0 0 375 374.999991" height="500" preserveAspectRatio="xMidYMid meet" version="1.2"><defs><clipPath id="f2f3097ad5"><path d="M 40.554688 181.582031 L 121 181.582031 L 121 324.84375 L 40.554688 324.84375 Z M 40.554688 181.582031 "/></clipPath><clipPath id="79cef76f83"><path d="M 75.800781 324.257812 C 66.203125 318.570312 60.070312 311.730469 56.78125 307.640625 C 54.382812 304.710938 52.960938 302.308594 51.363281 299.464844 C 49.761719 296.625 48.519531 294.222656 47.1875 290.402344 C 45.140625 284.625 42.296875 274.851562 41.320312 267.652344 C 40.433594 261.257812 40.519531 254.234375 41.054688 249.257812 C 41.410156 245.792969 42.121094 243.75 43.097656 240.460938 C 44.34375 236.375 46.386719 231.308594 48.519531 226.511719 C 51.007812 221.179688 54.382812 214.425781 57.316406 210.070312 C 59.359375 207.050781 60.960938 205.183594 63.535156 202.695312 C 66.558594 199.675781 71.355469 196.03125 74.734375 193.453125 C 77.488281 191.320312 79.53125 189.542969 82.199219 188.121094 C 85.042969 186.613281 87.886719 185.722656 91.261719 184.746094 C 95.527344 183.589844 101.125 182.433594 105.746094 182.078125 C 109.921875 181.722656 115.433594 181.367188 117.832031 182.257812 C 118.988281 182.613281 119.609375 183.234375 120.054688 183.945312 C 120.585938 184.65625 120.941406 185.722656 120.851562 186.699219 C 120.675781 187.855469 119.609375 189.542969 118.71875 190.253906 C 117.921875 190.789062 116.855469 191.054688 115.964844 190.875 C 114.808594 190.609375 113.03125 189.632812 112.5 188.476562 C 111.878906 187.410156 112.054688 185.457031 112.5 184.390625 C 112.855469 183.5 113.65625 182.703125 114.542969 182.433594 C 115.609375 181.992188 117.652344 182.078125 118.71875 182.613281 C 119.519531 183.058594 120.230469 183.945312 120.585938 184.835938 C 120.851562 185.632812 120.941406 186.789062 120.675781 187.589844 C 120.496094 188.476562 119.785156 189.453125 119.074219 189.988281 C 118.363281 190.519531 117.652344 190.609375 116.410156 190.875 C 113.65625 191.410156 107.523438 190.789062 103.082031 191.320312 C 98.371094 191.941406 93.660156 192.386719 88.773438 194.699219 C 82.554688 197.542969 73.402344 205.894531 69.757812 209.003906 C 68.15625 210.425781 67.714844 210.691406 66.558594 212.203125 C 64.425781 214.871094 61.757812 219.667969 59.359375 224.464844 C 56.339844 230.777344 51.894531 239.75 50.386719 247.039062 C 49.050781 253.613281 49.320312 260.011719 50.03125 266.320312 C 50.828125 272.71875 53.230469 280.183594 54.917969 285.25 C 56.074219 288.714844 57.050781 291.113281 58.558594 293.867188 C 59.980469 296.625 61.402344 299.023438 63.535156 301.777344 C 66.203125 305.242188 70.378906 309.773438 73.667969 312.617188 C 76.242188 314.929688 80.242188 316.527344 81.308594 318.128906 C 81.84375 318.839844 81.929688 319.371094 81.84375 320.171875 C 81.753906 321.058594 81.398438 322.394531 80.6875 323.105469 C 80.066406 323.816406 78.820312 324.347656 77.933594 324.527344 C 77.222656 324.703125 75.800781 324.257812 75.800781 324.257812 "/></clipPath><clipPath id="b7727434a0"><path d="M 71.085938 241.257812 L 191 241.257812 L 191 334.394531 L 71.085938 334.394531 Z M 71.085938 241.257812 "/></clipPath><clipPath id="54c1ea2c77"><path d="M 77.664062 315.996094 C 100.058594 324.082031 102.546875 324.4375 106.191406 324.792969 C 110.367188 325.148438 114.988281 325.59375 119.875 324.96875 C 125.5625 324.347656 132.316406 322.394531 138.179688 320.4375 C 143.957031 318.394531 150.089844 315.90625 154.886719 312.972656 C 159.152344 310.398438 162.261719 307.730469 165.816406 304.175781 C 169.90625 299.910156 175.238281 293.425781 177.726562 288.890625 C 179.414062 285.691406 179.859375 283.472656 180.570312 280.09375 C 181.457031 276.007812 181.8125 270.230469 181.992188 265.964844 C 182.167969 262.589844 182.167969 260.101562 181.992188 256.8125 C 181.636719 253.082031 179.503906 247.570312 180.214844 244.992188 C 180.65625 243.394531 181.636719 242.238281 182.789062 241.707031 C 183.855469 241.171875 185.902344 241.351562 186.878906 241.972656 C 187.945312 242.59375 189.011719 244.28125 189.011719 245.4375 C 189.097656 246.769531 187.945312 248.902344 186.878906 249.613281 C 185.8125 250.238281 183.769531 250.148438 182.703125 249.792969 C 181.8125 249.4375 181.101562 248.546875 180.65625 247.75 C 180.214844 247.039062 180.035156 245.882812 180.214844 244.992188 C 180.570312 243.839844 181.636719 242.238281 182.789062 241.707031 C 183.945312 241.171875 185.902344 241.351562 186.96875 241.972656 C 187.945312 242.59375 189.011719 244.371094 189.011719 245.527344 C 189.097656 246.769531 188.121094 248.546875 187.234375 249.347656 C 186.523438 249.96875 185.457031 250.238281 184.566406 250.238281 C 183.679688 250.148438 182.613281 249.882812 181.902344 249.257812 C 181.011719 248.460938 180.035156 246.683594 180.214844 245.4375 C 180.300781 244.195312 181.636719 242.238281 182.789062 241.707031 C 183.855469 241.171875 185.902344 241.441406 186.878906 241.972656 C 187.855469 242.417969 188.300781 243.128906 188.832031 244.460938 C 190.078125 247.304688 190.609375 255.300781 190.875 260.367188 C 191.054688 265.164062 190.875 269.609375 190.34375 274.230469 C 189.808594 278.851562 188.921875 284.269531 187.589844 288.269531 C 186.523438 291.46875 185.277344 293.691406 183.5 296.535156 C 181.28125 300.089844 177.546875 304.265625 174.792969 307.464844 C 172.394531 310.128906 170.4375 312.441406 168.039062 314.484375 C 165.640625 316.617188 162.886719 318.394531 160.21875 320.082031 C 157.640625 321.683594 155.597656 323.015625 152.308594 324.4375 C 147.601562 326.660156 139.871094 329.589844 134.09375 331.191406 C 129.207031 332.523438 124.851562 333.5 120.230469 333.855469 C 115.609375 334.300781 110.988281 334.125 106.367188 333.679688 C 101.660156 333.234375 97.214844 332.523438 92.238281 331.101562 C 86.464844 329.503906 76.867188 326.035156 73.84375 323.992188 C 72.601562 323.191406 72.066406 322.570312 71.625 321.683594 C 71.269531 320.792969 71.179688 319.460938 71.535156 318.570312 C 71.980469 317.417969 73.488281 316.085938 74.554688 315.730469 C 75.53125 315.375 77.664062 315.996094 77.664062 315.996094 "/></clipPath><clipPath id="391cf9896a"><path d="M 118.050781 167 L 204.601562 167 L 204.601562 245.820312 L 118.050781 245.820312 Z M 118.050781 167 "/></clipPath><clipPath id="d716ebfd28"><path d="M 141.734375 178.257812 C 133.472656 176.660156 129.828125 179.414062 128.316406 181.28125 C 127.339844 182.613281 126.984375 184.035156 126.808594 185.546875 C 126.71875 186.96875 126.984375 188.476562 127.695312 190.078125 C 128.761719 192.386719 131.074219 194.785156 133.738281 197.628906 C 137.738281 202.164062 143.601562 208.558594 150 213.890625 C 157.730469 220.46875 170.882812 229.796875 177.546875 233.441406 C 180.925781 235.308594 183.5 236.996094 185.8125 236.820312 C 187.679688 236.640625 189.277344 235.042969 190.519531 233.976562 C 191.675781 232.910156 192.652344 231.753906 193.363281 230.421875 C 194.074219 229.085938 194.519531 227.488281 194.875 225.976562 C 195.140625 224.46875 195.675781 222.777344 195.410156 221.355469 C 195.230469 219.933594 194.699219 219.136719 193.277344 217.269531 C 188.566406 211.492188 165.90625 193.007812 156.753906 186.167969 C 151.777344 182.433594 146.179688 180.214844 144.578125 178.082031 C 143.957031 177.28125 144.402344 176.125 143.867188 175.769531 C 143.335938 175.503906 142.003906 176.660156 141.113281 176.570312 C 140.226562 176.570312 139.160156 176.214844 138.535156 175.503906 C 137.648438 174.703125 136.847656 172.925781 136.9375 171.683594 C 137.027344 170.4375 138.269531 168.839844 139.246094 168.21875 C 140.046875 167.683594 141.203125 167.59375 142.089844 167.773438 C 142.980469 167.863281 143.957031 168.304688 144.578125 169.105469 C 145.289062 169.992188 146 171.859375 145.734375 173.105469 C 145.46875 174.257812 144.136719 175.769531 143.070312 176.304688 C 141.914062 176.746094 139.871094 176.480469 138.890625 175.859375 C 137.824219 175.148438 136.9375 173.371094 136.9375 172.125 C 136.9375 170.972656 137.648438 169.105469 138.890625 168.484375 C 140.402344 167.59375 143.601562 168.128906 146.269531 169.015625 C 149.910156 170.171875 153.375 172.75 158.351562 176.304688 C 167.417969 182.703125 187.679688 199.851562 194.964844 206.425781 C 198.164062 209.359375 200.117188 211.046875 201.71875 213.179688 C 202.875 214.691406 203.761719 215.582031 204.207031 217.359375 C 204.738281 219.667969 204.296875 223.3125 203.671875 226.332031 C 203.050781 229.441406 202.074219 232.820312 200.472656 235.574219 C 198.964844 238.328125 196.296875 241.261719 194.34375 242.949219 C 193.007812 244.105469 192.121094 244.816406 190.433594 245.261719 C 188.03125 245.882812 183.589844 245.617188 181.101562 244.992188 C 179.148438 244.636719 178.4375 244.105469 176.304688 242.949219 C 171.328125 240.195312 158.265625 231.132812 152.578125 227.132812 C 149.46875 224.910156 148.222656 224.199219 145.289062 221.710938 C 140.136719 217.269531 130.007812 207.136719 125.5625 201.894531 C 122.808594 198.695312 120.851562 196.207031 119.699219 193.808594 C 118.898438 192.210938 118.542969 191.144531 118.277344 189.453125 C 117.921875 186.96875 118.007812 182.703125 118.632812 180.300781 C 119.164062 178.613281 120.054688 177.457031 120.941406 176.304688 C 121.832031 175.058594 122.71875 174.171875 124.050781 173.105469 C 126.097656 171.503906 129.738281 169.105469 132.136719 168.128906 C 133.828125 167.507812 135.160156 167.238281 136.757812 167.152344 C 138.179688 166.972656 139.601562 166.972656 141.203125 167.507812 C 143.246094 168.128906 146.445312 170.261719 147.691406 171.683594 C 148.402344 172.660156 148.757812 173.636719 148.757812 174.613281 C 148.757812 175.679688 148.3125 176.835938 147.601562 177.636719 C 146.980469 178.347656 145.824219 178.96875 144.847656 179.058594 C 143.867188 179.148438 141.734375 178.257812 141.734375 178.257812 "/></clipPath><clipPath id="7f63586c8e"><path d="M 79 221.09375 L 153.625 221.09375 L 153.625 296 L 79 296 Z M 79 221.09375 "/></clipPath><clipPath id="ca3574ee92"><path d="M 92.328125 289.425781 C 86.285156 284.894531 85.574219 283.472656 84.773438 282.050781 C 83.886719 280.714844 83.175781 279.652344 82.464844 277.960938 C 81.488281 275.5625 80.507812 272.363281 79.976562 268.632812 C 79.265625 263.386719 78.464844 254.503906 79.621094 249.4375 C 80.421875 245.792969 82.109375 243.394531 84.0625 240.460938 C 86.375 236.996094 89.128906 233.175781 92.863281 230.242188 C 97.304688 226.777344 103.96875 223.046875 109.300781 221.800781 C 113.921875 220.734375 118.453125 221.355469 122.898438 222.246094 C 127.339844 223.132812 132.847656 225.710938 135.960938 227.222656 C 137.824219 228.199219 138.714844 228.730469 140.226562 229.886719 C 142.269531 231.574219 145.023438 233.796875 146.890625 236.550781 C 149.199219 239.929688 151.242188 244.90625 152.308594 249.347656 C 153.375 253.703125 153.730469 258.945312 153.464844 263.03125 C 153.199219 266.320312 152.488281 268.988281 151.421875 271.832031 C 150.355469 274.761719 148.84375 277.695312 147.15625 280.273438 C 145.558594 282.761719 143.691406 285.335938 141.46875 287.292969 C 139.246094 289.335938 136.847656 290.9375 133.828125 292.269531 C 130.09375 293.867188 124.585938 295.023438 120.585938 295.558594 C 117.210938 296 113.832031 295.914062 111.34375 295.644531 C 109.566406 295.46875 108.855469 295.289062 106.992188 294.667969 C 103.082031 293.425781 92.0625 290.136719 89.839844 287.382812 C 88.863281 286.046875 88.683594 284.449219 89.039062 283.292969 C 89.394531 282.136719 90.816406 280.714844 91.972656 280.273438 C 93.128906 279.917969 95.082031 280.449219 96.058594 281.070312 C 96.859375 281.605469 97.394531 282.582031 97.570312 283.472656 C 97.835938 284.269531 97.835938 285.425781 97.394531 286.226562 C 96.859375 287.292969 95.347656 288.625 94.195312 288.890625 C 92.949219 289.160156 91.085938 288.449219 90.195312 287.738281 C 89.484375 287.113281 89.039062 286.046875 88.953125 285.160156 C 88.773438 284.269531 88.863281 283.203125 89.394531 282.40625 C 90.019531 281.425781 91.171875 280.363281 92.949219 280.09375 C 96.769531 279.652344 106.546875 286.136719 112.589844 286.847656 C 117.476562 287.382812 122.363281 286.671875 126.273438 285.515625 C 129.382812 284.625 131.871094 283.472656 134.269531 281.605469 C 136.671875 279.828125 139.070312 276.71875 140.402344 274.585938 C 141.378906 273.074219 141.824219 271.832031 142.445312 270.410156 C 142.980469 268.988281 143.601562 267.742188 143.957031 265.875 C 144.492188 263.386719 145.023438 259.921875 144.667969 256.636719 C 144.222656 252.636719 142.179688 246.414062 140.667969 243.484375 C 139.78125 241.707031 139.070312 240.90625 137.738281 239.574219 C 135.871094 237.886719 133.027344 235.839844 130.363281 234.417969 C 127.695312 232.996094 124.675781 231.84375 121.652344 231.132812 C 118.71875 230.507812 115.875 229.796875 112.675781 230.332031 C 108.769531 231.042969 102.902344 234.507812 99.96875 236.285156 C 98.191406 237.351562 97.394531 237.796875 95.972656 239.21875 C 93.660156 241.707031 89.75 246.59375 88.507812 250.769531 C 87.261719 254.945312 87.972656 260.277344 88.417969 264.367188 C 88.683594 267.652344 89.394531 270.941406 90.195312 273.339844 C 90.816406 275.03125 91.261719 276.097656 92.238281 277.519531 C 93.574219 279.296875 96.949219 281.425781 98.015625 282.9375 C 98.460938 283.648438 98.726562 284.09375 98.726562 284.894531 C 98.816406 285.960938 98.191406 287.914062 97.394531 288.714844 C 96.683594 289.515625 95.347656 289.871094 94.460938 289.957031 C 93.660156 289.957031 92.328125 289.425781 92.328125 289.425781 "/></clipPath><clipPath id="13d251f179"><path d="M 57.855469 302 L 93.121094 302 L 93.121094 330.5625 L 57.855469 330.5625 Z M 57.855469 302 "/></clipPath><clipPath id="27fc39a2b2"><path d="M 65.847656 303.730469 C 78.464844 317.417969 81.132812 318.925781 83.707031 320.082031 C 85.929688 321.058594 88.597656 321.148438 90.195312 321.949219 C 91.171875 322.394531 91.882812 322.925781 92.328125 323.726562 C 92.863281 324.4375 93.128906 325.503906 93.039062 326.480469 C 92.949219 327.371094 92.507812 328.347656 91.882812 329.058594 C 91.351562 329.679688 90.375 330.300781 89.484375 330.480469 C 88.328125 330.570312 86.375 329.945312 85.484375 329.234375 C 84.773438 328.613281 84.242188 327.636719 84.242188 326.660156 C 84.152344 325.503906 84.863281 323.636719 85.664062 322.75 C 86.285156 322.039062 87.351562 321.683594 88.242188 321.683594 C 89.394531 321.683594 91.261719 322.480469 92.0625 323.28125 C 92.773438 323.992188 93.128906 324.96875 93.039062 325.949219 C 93.039062 327.101562 92.328125 328.96875 91.171875 329.679688 C 89.839844 330.570312 87.085938 330.570312 84.863281 330.125 C 82.109375 329.679688 78.730469 327.8125 75.976562 326.214844 C 73.3125 324.613281 71.179688 323.015625 68.691406 320.617188 C 65.492188 317.683594 60.425781 311.90625 58.914062 309.242188 C 58.203125 307.996094 57.847656 307.199219 57.9375 306.21875 C 57.9375 305.242188 58.472656 304.085938 59.183594 303.375 C 59.894531 302.664062 61.046875 302.042969 62.027344 302.042969 C 63.179688 302.042969 65.847656 303.730469 65.847656 303.730469 "/></clipPath><clipPath id="65af0cbc07"><path d="M 147 113.097656 L 202.988281 113.097656 L 202.988281 179.945312 L 147 179.945312 Z M 147 113.097656 "/></clipPath><clipPath id="844f71d270"><path d="M 148.3125 172.304688 C 196.207031 113.65625 196.476562 113.300781 197.453125 113.210938 C 198.519531 113.03125 200.5625 113.386719 201.453125 114.1875 C 202.339844 115.078125 202.960938 117.03125 202.875 118.1875 C 202.785156 119.074219 202.164062 120.054688 201.539062 120.675781 C 200.917969 121.296875 199.941406 121.917969 199.050781 121.917969 C 197.898438 122.007812 195.941406 121.207031 195.140625 120.410156 C 194.429688 119.785156 194.074219 118.71875 193.988281 117.832031 C 193.988281 116.941406 194.253906 115.789062 194.699219 115.078125 C 195.230469 114.367188 196.03125 113.566406 196.917969 113.300781 C 198.074219 113.03125 200.117188 113.300781 201.097656 113.921875 C 201.894531 114.453125 202.519531 115.34375 202.695312 116.230469 C 202.960938 117.386719 202.785156 118.363281 201.894531 120.320312 C 197.984375 128.671875 162.175781 173.28125 154.710938 178.4375 C 152.933594 179.679688 151.953125 179.859375 150.800781 179.769531 C 149.734375 179.679688 148.667969 178.96875 148.046875 178.167969 C 147.421875 177.457031 146.980469 176.214844 147.066406 175.238281 C 147.066406 174.257812 148.3125 172.304688 148.3125 172.304688 "/></clipPath><clipPath id="e6f7b8c20c"><path d="M 191.597656 45 L 257.070312 45 L 257.070312 125.582031 L 191.597656 125.582031 Z M 191.597656 45 "/></clipPath><clipPath id="d39e8b941b"><path d="M 192.386719 118.808594 C 244.28125 52.25 244.816406 49.851562 246.59375 47.984375 C 247.925781 46.652344 249.347656 45.675781 250.859375 45.320312 C 252.191406 45.054688 253.96875 45.140625 254.945312 45.675781 C 255.835938 46.121094 256.457031 47.007812 256.722656 47.898438 C 257.078125 48.695312 257.167969 49.851562 256.8125 50.742188 C 256.367188 51.808594 255.035156 53.316406 253.878906 53.671875 C 252.726562 54.027344 250.769531 53.671875 249.792969 52.875 C 248.816406 52.164062 248.015625 50.296875 248.191406 49.050781 C 248.28125 47.808594 249.347656 46.121094 250.414062 45.585938 C 251.480469 44.964844 253.523438 45.054688 254.589844 45.410156 C 255.480469 45.765625 256.191406 46.5625 256.546875 47.453125 C 256.992188 48.519531 257.078125 50.386719 256.457031 51.628906 C 255.835938 52.960938 253.703125 53.316406 252.457031 54.828125 C 250.679688 56.78125 250.148438 59.09375 247.394531 63.003906 C 239.75 74.023438 205.984375 118.988281 199.320312 124.230469 C 197.984375 125.296875 197.363281 125.472656 196.386719 125.472656 C 195.410156 125.5625 194.164062 125.207031 193.453125 124.585938 C 192.652344 123.964844 191.941406 122.808594 191.765625 121.917969 C 191.585938 120.941406 192.386719 118.808594 192.386719 118.808594 "/></clipPath><clipPath id="7ac97e7765"><path d="M 246.433594 40.835938 L 307.519531 40.835938 L 307.519531 71.164062 L 246.433594 71.164062 Z M 246.433594 40.835938 "/></clipPath><clipPath id="2e45fe85cf"><path d="M 248.371094 46.832031 C 255.570312 42.652344 259.125 41.410156 262.234375 41.054688 C 265.253906 40.699219 268.988281 41.054688 271.476562 41.5 C 273.164062 41.765625 273.964844 42.121094 275.828125 42.832031 C 279.472656 44.429688 287.46875 48.609375 291.734375 51.363281 C 294.757812 53.316406 296.800781 54.828125 299.199219 56.960938 C 301.777344 59.183594 305.597656 62.292969 306.753906 64.335938 C 307.285156 65.402344 307.464844 66.203125 307.375 67.089844 C 307.285156 67.980469 306.84375 69.046875 306.21875 69.667969 C 305.597656 70.289062 304.621094 70.914062 303.730469 71 C 302.84375 71.179688 301.6875 71 300.886719 70.558594 C 300.089844 70.203125 299.289062 69.402344 298.933594 68.601562 C 298.578125 67.714844 298.402344 66.648438 298.578125 65.757812 C 298.757812 64.871094 299.289062 63.890625 300 63.269531 C 300.976562 62.648438 302.933594 62.027344 304.085938 62.382812 C 305.242188 62.648438 306.664062 64.160156 307.109375 65.226562 C 307.554688 66.023438 307.464844 67.179688 307.199219 68.070312 C 306.929688 68.867188 306.308594 69.847656 305.507812 70.289062 C 304.441406 70.914062 303.019531 71.269531 301.332031 70.824219 C 297.957031 69.757812 292.800781 62.738281 287.914062 59.449219 C 282.9375 56.074219 276.453125 52.25 271.742188 50.828125 C 268.453125 49.851562 265.164062 49.675781 262.765625 49.941406 C 261.078125 50.03125 260.011719 50.472656 258.5 51.097656 C 256.636719 51.894531 254.324219 54.117188 252.636719 54.5625 C 251.480469 54.917969 250.414062 54.917969 249.4375 54.652344 C 248.546875 54.296875 247.570312 53.316406 247.039062 52.605469 C 246.683594 51.894531 246.414062 51.273438 246.503906 50.472656 C 246.683594 49.40625 248.371094 46.832031 248.371094 46.832031 "/></clipPath><clipPath id="1e742b6d77"><path d="M 290.78125 62.417969 L 332.667969 62.417969 L 332.667969 133 L 290.78125 133 Z M 290.78125 62.417969 "/></clipPath><clipPath id="6f0303e3f0"><path d="M 306.84375 68.957031 C 299.644531 83.621094 299.378906 84.773438 299.910156 86.285156 C 300.621094 88.507812 303.199219 91.085938 305.597656 93.394531 C 308.53125 96.238281 313.242188 98.902344 316.707031 101.925781 C 320.171875 104.945312 324.082031 108.5 326.480469 111.789062 C 328.523438 114.453125 329.945312 117.03125 330.925781 119.785156 C 331.902344 122.363281 332.433594 125.742188 332.433594 127.695312 C 332.523438 128.851562 332.523438 129.738281 332.078125 130.539062 C 331.457031 131.515625 329.859375 132.761719 328.613281 132.9375 C 327.371094 133.027344 325.503906 132.316406 324.703125 131.425781 C 323.902344 130.449219 323.546875 128.496094 323.816406 127.339844 C 323.992188 126.363281 324.613281 125.472656 325.324219 124.941406 C 326.304688 124.320312 328.347656 123.964844 329.503906 124.230469 C 330.390625 124.496094 331.191406 125.207031 331.722656 125.917969 C 332.257812 126.71875 332.613281 127.695312 332.523438 128.671875 C 332.347656 129.828125 331.367188 131.605469 330.390625 132.226562 C 329.679688 132.847656 328.523438 133.027344 327.636719 132.9375 C 326.746094 132.847656 325.769531 132.582031 325.058594 131.78125 C 323.726562 130.183594 323.371094 124.675781 322.304688 122.273438 C 321.683594 120.585938 321.328125 119.875 320.171875 118.363281 C 318.214844 115.609375 313.863281 111.34375 310.308594 108.144531 C 306.84375 105.125 302.308594 102.546875 299.289062 99.613281 C 296.800781 97.214844 294.667969 94.460938 293.246094 92.238281 C 292.179688 90.730469 291.46875 89.75 291.113281 87.972656 C 290.667969 85.398438 290.847656 81.488281 291.824219 78.019531 C 293.15625 73.667969 297.335938 66.292969 299.464844 64.070312 C 300.53125 63.09375 301.332031 62.738281 302.222656 62.558594 C 303.199219 62.46875 304.53125 62.738281 305.332031 63.269531 C 306.132812 63.804688 306.929688 64.871094 307.199219 65.847656 C 307.464844 66.734375 306.84375 68.957031 306.84375 68.957031 "/></clipPath><clipPath id="d31f92b1c6"><path d="M 252.390625 117.21875 L 332.691406 117.21875 L 332.691406 152.667969 L 252.390625 152.667969 Z M 252.390625 117.21875 "/></clipPath><clipPath id="db52b8c1ac"><path d="M 332.613281 126.453125 C 331.8125 135.335938 330.035156 138.269531 328.347656 140.757812 C 326.480469 143.425781 323.546875 146.445312 321.503906 148.132812 C 320.082031 149.378906 319.015625 150.175781 317.59375 150.710938 C 316.261719 151.242188 314.929688 151.332031 313.242188 151.511719 C 310.753906 151.6875 306.664062 151.867188 304.265625 151.421875 C 302.488281 150.976562 301.867188 150.621094 299.910156 149.554688 C 294.757812 146.625 280.007812 134.183594 273.695312 130.273438 C 270.410156 128.230469 267.921875 126.097656 265.875 126.183594 C 264.367188 126.273438 262.855469 127.519531 262.054688 128.671875 C 261.34375 129.828125 261.167969 131.78125 261.523438 133.117188 C 261.789062 134.539062 262.765625 135.515625 263.921875 136.847656 C 266.054688 139.160156 272.007812 143.070312 273.695312 145.113281 C 274.40625 146.089844 274.851562 146.710938 274.941406 147.691406 C 274.941406 148.84375 274.40625 150.800781 273.429688 151.597656 C 272.542969 152.398438 270.585938 152.84375 269.429688 152.578125 C 268.1875 152.222656 266.765625 150.886719 266.320312 149.734375 C 265.875 148.578125 266.230469 146.625 266.941406 145.644531 C 267.652344 144.667969 269.519531 143.867188 270.675781 143.78125 C 271.5625 143.78125 272.628906 144.222656 273.339844 144.847656 C 273.964844 145.378906 274.585938 146.355469 274.851562 147.246094 C 275.03125 148.046875 274.941406 149.199219 274.585938 150 C 274.230469 150.886719 273.519531 151.777344 272.71875 152.132812 C 271.652344 152.578125 270.140625 152.84375 268.542969 152.222656 C 265.433594 151.15625 259.835938 145.644531 257.078125 142.269531 C 255.035156 139.78125 253.4375 137.027344 252.8125 134.539062 C 252.28125 132.582031 252.457031 130.71875 252.8125 129.027344 C 253.082031 127.519531 253.613281 126.097656 254.414062 124.851562 C 255.125 123.519531 255.835938 122.1875 257.257812 121.121094 C 259.210938 119.609375 263.121094 117.832031 265.519531 117.476562 C 267.121094 117.210938 268.453125 117.566406 269.964844 117.921875 C 271.386719 118.363281 272.1875 118.71875 274.140625 119.875 C 279.738281 123.164062 298.488281 139.335938 304.441406 141.914062 C 306.664062 142.890625 307.730469 142.800781 309.332031 142.980469 C 310.839844 143.070312 312.351562 143.425781 313.863281 142.800781 C 315.996094 141.914062 318.839844 138.449219 320.4375 136.582031 C 321.59375 135.25 322.394531 134.359375 322.925781 132.761719 C 323.636719 130.804688 323.191406 127.429688 323.816406 125.652344 C 324.257812 124.496094 324.613281 123.609375 325.503906 122.984375 C 326.480469 122.363281 328.4375 122.097656 329.589844 122.453125 C 330.570312 122.71875 331.546875 123.695312 331.992188 124.40625 C 332.433594 125.03125 332.613281 126.453125 332.613281 126.453125 "/></clipPath><clipPath id="7a973fb82a"><path d="M 213.601562 142.007812 L 292.679688 142.007812 L 292.679688 195.667969 L 213.601562 195.667969 Z M 213.601562 142.007812 "/></clipPath><clipPath id="c48797d858"><path d="M 269.964844 142.714844 C 287.914062 157.109375 289.425781 160.042969 290.492188 162.351562 C 291.203125 163.953125 291.558594 165.019531 291.914062 166.882812 C 292.359375 169.371094 292.800781 173.460938 292.535156 175.949219 C 292.269531 177.8125 291.648438 179.058594 291.023438 180.570312 C 290.402344 182.078125 289.871094 183.414062 288.714844 184.921875 C 287.203125 186.96875 284.625 189.632812 282.136719 191.320312 C 279.652344 193.097656 276.097656 194.609375 273.609375 195.140625 C 271.917969 195.585938 270.765625 195.496094 269.074219 195.320312 C 266.585938 195.054688 263.832031 194.699219 260.277344 193.007812 C 253.082031 189.632812 236.375 172.835938 230.507812 171.683594 C 228.289062 171.328125 227.042969 172.125 225.621094 172.925781 C 224.113281 173.726562 221.710938 176.125 221.890625 176.390625 C 221.890625 176.480469 222.421875 176.125 222.511719 176.304688 C 222.691406 176.390625 222.421875 177.191406 222.15625 177.636719 C 221.800781 178.347656 221.179688 179.414062 220.289062 179.769531 C 219.222656 180.300781 217.179688 180.300781 216.113281 179.859375 C 215.226562 179.503906 214.515625 178.703125 214.160156 177.902344 C 213.714844 177.101562 213.449219 175.949219 213.714844 175.058594 C 214.070312 173.992188 215.3125 172.394531 216.378906 171.859375 C 217.179688 171.414062 218.335938 171.414062 219.136719 171.59375 C 220.023438 171.769531 221 172.304688 221.535156 173.105469 C 222.246094 174.082031 222.601562 176.125 222.335938 177.191406 C 222.15625 178.167969 221.445312 178.96875 220.644531 179.503906 C 219.933594 180.035156 218.957031 180.480469 217.980469 180.390625 C 216.824219 180.214844 215.046875 179.234375 214.335938 178.257812 C 213.804688 177.546875 213.535156 176.660156 213.625 175.503906 C 213.980469 173.546875 216.648438 169.726562 218.070312 167.773438 C 219.136719 166.351562 219.933594 165.375 221.179688 164.484375 C 222.335938 163.597656 223.757812 162.972656 225.175781 162.617188 C 226.6875 162.175781 228.019531 161.996094 229.710938 162.261719 C 232.199219 162.707031 235.21875 164.21875 238.152344 165.996094 C 241.796875 168.21875 245.261719 172.039062 249.4375 175.058594 C 254.234375 178.613281 261.789062 184.125 265.519531 185.632812 C 267.386719 186.34375 268.453125 186.433594 269.964844 186.433594 C 271.476562 186.433594 273.074219 186.167969 274.40625 185.632812 C 275.828125 185.101562 276.984375 184.125 278.140625 183.144531 C 279.296875 182.257812 280.539062 181.191406 281.425781 179.945312 C 282.316406 178.703125 283.292969 177.101562 283.648438 175.59375 C 284.003906 174.082031 283.914062 172.75 283.648438 171.058594 C 283.203125 168.570312 282.582031 165.460938 280.539062 162.441406 C 277.339844 157.910156 265.164062 150.976562 263.65625 148.046875 C 263.210938 147.15625 263.300781 146.710938 263.476562 146 C 263.65625 145.113281 264.277344 143.867188 264.988281 143.15625 C 265.519531 142.714844 266.144531 142.359375 266.855469 142.269531 C 267.742188 142.089844 269.964844 142.714844 269.964844 142.714844 "/></clipPath><clipPath id="ef0eea1fa9"><path d="M 188.433594 166.128906 L 227.886719 166.128906 L 227.886719 210.085938 L 188.433594 210.085938 Z M 188.433594 166.128906 "/></clipPath><clipPath id="de4792a156"><path d="M 225.976562 174.257812 C 207.050781 194.253906 199.230469 206.695312 195.765625 209.09375 C 194.699219 209.894531 193.988281 209.980469 193.097656 210.070312 C 192.210938 210.070312 191.144531 209.714844 190.433594 209.183594 C 189.722656 208.648438 189.011719 207.671875 188.742188 206.871094 C 188.566406 205.984375 188.476562 204.828125 188.921875 204.027344 C 189.367188 202.960938 190.964844 201.628906 192.03125 201.273438 C 192.921875 201.007812 193.988281 201.097656 194.875 201.539062 C 195.851562 202.074219 197.1875 203.585938 197.453125 204.828125 C 197.628906 205.984375 196.917969 207.9375 196.121094 208.738281 C 195.496094 209.539062 194.519531 209.894531 193.632812 209.980469 C 192.742188 210.070312 191.585938 209.894531 190.789062 209.449219 C 190.078125 209.003906 189.277344 208.117188 188.921875 207.316406 C 188.566406 206.425781 188.386719 205.71875 188.742188 204.472656 C 189.988281 200.296875 200.472656 188.121094 206.425781 181.457031 C 211.492188 175.769531 218.246094 167.949219 221.710938 166.527344 C 222.957031 165.996094 223.933594 166.171875 224.824219 166.441406 C 225.710938 166.796875 226.777344 167.683594 227.222656 168.484375 C 227.664062 169.371094 227.933594 170.617188 227.664062 171.59375 C 227.488281 172.570312 225.976562 174.257812 225.976562 174.257812 "/></clipPath></defs><g id="144cf50ef2"><g clip-rule="nonzero" clip-path="url(#f2f3097ad5)"><g clip-rule="nonzero" clip-path="url(#79cef76f83)"><path style=" stroke:none;fill-rule:nonzero;fill:currentColor;fill-opacity:1;" d="M 37.5 178.523438 L 124.40625 178.523438 L 124.40625 328.238281 L 37.5 328.238281 Z M 37.5 178.523438 "/></g></g><g clip-rule="nonzero" clip-path="url(#b7727434a0)"><g clip-rule="nonzero" clip-path="url(#54c1ea2c77)"><path style=" stroke:none;fill-rule:nonzero;fill:currentColor;fill-opacity:1;" d="M 67.980469 238.152344 L 194.492188 238.152344 L 194.492188 337.5 L 67.980469 337.5 Z M 67.980469 238.152344 "/></g></g><g clip-rule="nonzero" clip-path="url(#391cf9896a)"><g clip-rule="nonzero" clip-path="url(#d716ebfd28)"><path style=" stroke:none;fill-rule:nonzero;fill:currentColor;fill-opacity:1;" d="M 114.722656 163.597656 L 207.597656 163.597656 L 207.597656 248.816406 L 114.722656 248.816406 Z M 114.722656 163.597656 "/></g></g><g clip-rule="nonzero" clip-path="url(#7f63586c8e)"><g clip-rule="nonzero" clip-path="url(#ca3574ee92)"><path style=" stroke:none;fill-rule:nonzero;fill:currentColor;fill-opacity:1;" d="M 76.066406 218.246094 L 157.109375 218.246094 L 157.109375 299.289062 L 76.066406 299.289062 Z M 76.066406 218.246094 "/></g></g><g clip-rule="nonzero" clip-path="url(#13d251f179)"><g clip-rule="nonzero" clip-path="url(#27fc39a2b2)"><path style=" stroke:none;fill-rule:nonzero;fill:currentColor;fill-opacity:1;" d="M 54.382812 298.488281 L 96.734375 298.488281 L 96.734375 334.035156 L 54.382812 334.035156 Z M 54.382812 298.488281 "/></g></g><g clip-rule="nonzero" clip-path="url(#65af0cbc07)"><g clip-rule="nonzero" clip-path="url(#844f71d270)"><path style=" stroke:none;fill-rule:nonzero;fill:currentColor;fill-opacity:1;" d="M 143.511719 109.65625 L 206.425781 109.65625 L 206.425781 183.382812 L 143.511719 183.382812 Z M 143.511719 109.65625 "/></g></g><g clip-rule="nonzero" clip-path="url(#e6f7b8c20c)"><g clip-rule="nonzero" clip-path="url(#d39e8b941b)"><path style=" stroke:none;fill-rule:nonzero;fill:currentColor;fill-opacity:1;" d="M 188.210938 41.765625 L 260.457031 41.765625 L 260.457031 129.25 L 188.210938 129.25 Z M 188.210938 41.765625 "/></g></g><g clip-rule="nonzero" clip-path="url(#7ac97e7765)"><g clip-rule="nonzero" clip-path="url(#2e45fe85cf)"><path style=" stroke:none;fill-rule:nonzero;fill:currentColor;fill-opacity:1;" d="M 242.949219 37.5 L 311 37.5 L 311 74.644531 L 242.949219 74.644531 Z M 242.949219 37.5 "/></g></g><g clip-rule="nonzero" clip-path="url(#1e742b6d77)"><g clip-rule="nonzero" clip-path="url(#6f0303e3f0)"><path style=" stroke:none;fill-rule:nonzero;fill:currentColor;fill-opacity:1;" d="M 287.558594 59.003906 L 336.078125 59.003906 L 336.078125 136.519531 L 287.558594 136.519531 Z M 287.558594 59.003906 "/></g></g><g clip-rule="nonzero" clip-path="url(#d31f92b1c6)"><g clip-rule="nonzero" clip-path="url(#db52b8c1ac)"><path style=" stroke:none;fill-rule:nonzero;fill:currentColor;fill-opacity:1;" d="M 249.257812 113.921875 L 336.152344 113.921875 L 336.152344 156.132812 L 249.257812 156.132812 Z M 249.257812 113.921875 "/></g></g><g clip-rule="nonzero" clip-path="url(#7a973fb82a)"><g clip-rule="nonzero" clip-path="url(#c48797d858)"><path style=" stroke:none;fill-rule:nonzero;fill:currentColor;fill-opacity:1;" d="M 210.070312 138.714844 L 295.972656 138.714844 L 295.972656 198.964844 L 210.070312 198.964844 Z M 210.070312 138.714844 "/></g></g><g clip-rule="nonzero" clip-path="url(#ef0eea1fa9)"><g clip-rule="nonzero" clip-path="url(#de4792a156)"><path style=" stroke:none;fill-rule:nonzero;fill:currentColor;fill-opacity:1;" d="M 185.191406 162.886719 L 231.308594 162.886719 L 231.308594 213.6875 L 185.191406 213.6875 Z M 185.191406 162.886719 "/></g></g></g></svg>