<svg xmlns="http://www.w3.org/2000/svg" xmlns:xlink="http://www.w3.org/1999/xlink" width="500" zoomAndPan="magnify" viewBox="0 0 375 374.999991" height="500" preserveAspectRatio="xMidYMid meet" version="1.2"><defs><clipPath id="2864767fb3"><path d="M 40.132812 83.378906 L 67.667969 83.378906 L 67.667969 108.761719 L 40.132812 108.761719 Z M 40.132812 83.378906 "/></clipPath><clipPath id="190f4970fa"><path d="M 54.410156 105.523438 C 48.492188 108.484375 47.292969 108.835938 46.167969 108.625 C 44.898438 108.34375 43.347656 107.710938 42.503906 106.582031 C 41.304688 105.101562 41.023438 102.003906 40.671875 99.675781 C 40.246094 97.210938 40.105469 94.179688 40.316406 92.136719 C 40.460938 90.589844 40.671875 89.460938 41.304688 88.332031 C 41.9375 87.136719 42.996094 86.078125 44.050781 85.304688 C 45.109375 84.597656 46.238281 83.964844 47.433594 83.683594 C 48.5625 83.402344 50.042969 83.261719 51.097656 83.683594 C 52.085938 84.035156 52.71875 85.515625 53.703125 86.007812 C 54.761719 86.574219 55.890625 86.574219 57.296875 86.785156 C 59.480469 87.136719 63.570312 86.574219 65.257812 87.417969 C 66.386719 87.910156 67.300781 88.828125 67.585938 89.8125 C 67.796875 90.730469 67.515625 92.277344 66.878906 92.984375 C 66.246094 93.757812 64.765625 94.324219 63.78125 94.253906 C 62.792969 94.109375 61.523438 93.265625 61.03125 92.351562 C 60.609375 91.503906 60.609375 89.953125 61.03125 89.109375 C 61.523438 88.191406 62.792969 87.347656 63.78125 87.207031 C 64.765625 87.136719 66.246094 87.699219 66.878906 88.476562 C 67.515625 89.179688 67.726562 90.800781 67.585938 91.644531 C 67.445312 92.421875 66.878906 93.125 66.316406 93.546875 C 65.753906 93.96875 65.046875 94.109375 64.132812 94.253906 C 62.863281 94.464844 60.890625 94.394531 59.058594 94.253906 C 56.945312 94.039062 53.917969 93.617188 52.085938 92.84375 C 50.675781 92.277344 49.40625 90.375 48.632812 90.660156 C 47.925781 90.871094 47.644531 92.632812 47.363281 93.96875 C 47.011719 95.941406 46.308594 101.015625 47.292969 101.578125 C 48.140625 102.144531 50.816406 99.113281 52.226562 98.902344 C 53.140625 98.761719 54.058594 98.972656 54.691406 99.253906 C 55.183594 99.535156 55.605469 99.957031 55.890625 100.453125 C 56.242188 101.085938 56.59375 102.074219 56.382812 102.917969 C 56.171875 103.832031 54.410156 105.523438 54.410156 105.523438 "/></clipPath><clipPath id="fceab73e83"><path d="M 60.289062 86.507812 L 178.816406 86.507812 L 178.816406 95.457031 L 60.289062 95.457031 Z M 60.289062 86.507812 "/></clipPath><clipPath id="4c122538fe"><path d="M 63.78125 86.714844 C 146.636719 88.261719 170.027344 85.304688 175.875 87.207031 C 177.425781 87.699219 177.988281 88.402344 178.480469 89.25 C 178.832031 89.882812 178.832031 90.730469 178.691406 91.433594 C 178.550781 92.136719 178.128906 92.914062 177.496094 93.40625 C 176.789062 93.898438 175.171875 94.253906 174.253906 94.039062 C 173.550781 93.898438 172.84375 93.335938 172.421875 92.773438 C 172 92.207031 171.71875 91.363281 171.71875 90.660156 C 171.71875 89.953125 172 89.109375 172.492188 88.546875 C 172.914062 87.980469 173.621094 87.417969 174.324219 87.277344 C 175.242188 87.136719 176.789062 87.347656 177.566406 87.980469 C 178.269531 88.617188 178.761719 90.164062 178.761719 91.082031 C 178.691406 91.855469 178.269531 92.632812 177.777344 93.125 C 177.285156 93.617188 176.933594 93.828125 175.804688 94.179688 C 170.800781 95.449219 149.523438 95.308594 133.671875 95.308594 C 113.167969 95.378906 69.769531 95.871094 62.933594 93.6875 C 61.667969 93.265625 61.382812 92.914062 60.890625 92.207031 C 60.46875 91.574219 60.1875 90.589844 60.328125 89.8125 C 60.398438 89.039062 60.890625 88.121094 61.453125 87.628906 C 62.089844 87.066406 63.78125 86.714844 63.78125 86.714844 "/></clipPath><clipPath id="8c0ebbbf1f"><path d="M 166.769531 87.097656 L 291.460938 87.097656 L 291.460938 94.785156 L 166.769531 94.785156 Z M 166.769531 87.097656 "/></clipPath><clipPath id="a05c47e377"><path d="M 170.308594 87.136719 C 286.703125 87.207031 287.546875 86.996094 288.816406 87.558594 C 289.800781 87.980469 290.859375 88.828125 291.210938 89.671875 C 291.5625 90.589844 291.421875 92.136719 290.859375 92.984375 C 290.292969 93.757812 287.96875 94.464844 287.96875 94.464844 C 287.898438 94.464844 290.929688 92.492188 291 92.632812 C 291.070312 92.703125 290.71875 93.265625 290.363281 93.546875 C 289.660156 93.96875 288.109375 94.605469 287.125 94.394531 C 286.207031 94.179688 285.011719 93.125 284.660156 92.207031 C 284.304688 91.292969 284.515625 89.742188 285.082031 88.96875 C 285.574219 88.121094 286.984375 87.417969 287.96875 87.417969 C 288.957031 87.417969 290.363281 88.191406 290.859375 89.039062 C 291.421875 89.8125 291.5625 91.363281 291.210938 92.277344 C 290.859375 93.195312 289.589844 94.179688 288.675781 94.394531 C 287.6875 94.605469 286.207031 94.179688 285.503906 93.476562 C 284.800781 92.773438 284.164062 91.292969 284.445312 90.304688 C 284.800781 89.25 286.773438 87.558594 287.96875 87.417969 C 288.886719 87.347656 290.292969 88.332031 290.859375 88.96875 C 291.28125 89.390625 291.421875 89.953125 291.421875 90.519531 C 291.492188 91.222656 291.351562 92.277344 290.859375 92.984375 C 290.292969 93.6875 289.449219 94.109375 287.96875 94.464844 C 283.882812 95.378906 274.582031 93.828125 263.945312 93.6875 C 242.949219 93.40625 178.761719 95.730469 170.308594 94.179688 C 168.898438 93.96875 168.546875 93.828125 167.914062 93.335938 C 167.351562 92.773438 166.855469 91.855469 166.785156 91.082031 C 166.714844 90.304688 166.855469 89.320312 167.351562 88.6875 C 167.984375 87.910156 170.308594 87.136719 170.308594 87.136719 "/></clipPath><clipPath id="6cb16121c1"><path d="M 277.507812 72.480469 L 328.789062 72.480469 L 328.789062 94.855469 L 277.507812 94.855469 Z M 277.507812 72.480469 "/></clipPath><clipPath id="9feffd2248"><path d="M 281.066406 87.417969 C 297.480469 86.714844 300.863281 86.148438 304.597656 84.8125 C 308.824219 83.332031 313.96875 80.441406 317.5625 78.1875 C 320.378906 76.355469 322.84375 73.1875 324.605469 72.691406 C 325.453125 72.410156 326.15625 72.691406 326.789062 72.972656 C 327.425781 73.257812 328.058594 73.890625 328.410156 74.59375 C 328.691406 75.230469 328.90625 76.074219 328.691406 76.777344 C 328.480469 77.695312 327.425781 78.964844 326.648438 79.386719 C 325.945312 79.738281 325.101562 79.808594 324.394531 79.527344 C 323.550781 79.246094 322.28125 78.257812 321.929688 77.34375 C 321.578125 76.425781 321.789062 74.875 322.351562 74.101562 C 322.914062 73.257812 324.394531 72.691406 325.3125 72.621094 C 326.085938 72.550781 326.933594 72.832031 327.425781 73.398438 C 328.128906 74.03125 328.761719 75.511719 328.761719 76.425781 C 328.761719 77.203125 328.339844 77.765625 327.847656 78.46875 C 327.214844 79.457031 326.226562 80.300781 324.886719 81.359375 C 322.632812 83.121094 318.6875 85.796875 315.375 87.628906 C 311.925781 89.390625 308.191406 91.082031 304.527344 92.207031 C 300.933594 93.265625 297.339844 93.898438 293.535156 94.253906 C 289.308594 94.675781 282.683594 95.097656 280.21875 94.394531 C 279.164062 94.039062 278.597656 93.617188 278.175781 92.984375 C 277.683594 92.277344 277.472656 91.292969 277.542969 90.519531 C 277.683594 89.742188 278.105469 88.828125 278.738281 88.332031 C 279.304688 87.769531 281.066406 87.417969 281.066406 87.417969 "/></clipPath><clipPath id="4383774002"><path d="M 302 72.859375 L 335.261719 72.859375 L 335.261719 119.84375 L 302 119.84375 Z M 302 72.859375 "/></clipPath><clipPath id="e7effe9113"><path d="M 323.902344 72.902344 C 331.230469 74.03125 332.355469 79.878906 333.273438 83.121094 C 334.046875 85.9375 334.328125 87.910156 334.609375 91.152344 C 335.035156 96.152344 335.667969 105.734375 334.683594 110.457031 C 334.117188 113.273438 333.0625 115.53125 331.792969 117.007812 C 330.808594 118.207031 329.609375 118.980469 328.269531 119.40625 C 326.929688 119.828125 325.453125 120.039062 323.761719 119.40625 C 320.660156 118.277344 316.574219 111.9375 312.839844 109.46875 C 309.742188 107.496094 304.949219 106.933594 303.398438 105.3125 C 302.484375 104.328125 302.132812 103.128906 302.132812 102.214844 C 302.203125 101.4375 302.625 100.664062 303.117188 100.171875 C 303.609375 99.675781 304.386719 99.253906 305.089844 99.113281 C 305.796875 99.042969 306.710938 99.113281 307.34375 99.535156 C 308.121094 100.03125 309.035156 101.296875 309.175781 102.285156 C 309.246094 103.199219 308.683594 104.679688 307.910156 105.3125 C 307.203125 105.949219 305.582031 106.160156 304.667969 106.019531 C 303.964844 105.878906 303.257812 105.3125 302.835938 104.75 C 302.414062 104.1875 302.132812 103.339844 302.132812 102.566406 C 302.132812 101.859375 302.414062 101.015625 302.835938 100.453125 C 303.328125 99.886719 303.894531 99.394531 304.738281 99.253906 C 306.148438 98.972656 308.824219 99.816406 310.796875 100.59375 C 313.050781 101.367188 315.375 102.777344 317.421875 104.1875 C 319.464844 105.523438 321.929688 107.144531 323.199219 108.765625 C 324.113281 109.964844 324.183594 112.429688 324.957031 112.570312 C 325.664062 112.710938 326.929688 111.585938 327.566406 110.246094 C 328.976562 107.003906 328.269531 97 327.566406 91.222656 C 327.003906 86.148438 323.128906 78.117188 324.183594 77.273438 C 324.746094 76.847656 327.566406 78.609375 327.566406 78.964844 C 327.496094 79.316406 325.804688 79.808594 324.957031 79.667969 C 323.972656 79.457031 322.703125 78.609375 322.210938 77.835938 C 321.71875 77.203125 321.578125 76.144531 321.789062 75.371094 C 322.070312 74.523438 323.902344 72.902344 323.902344 72.902344 "/></clipPath><clipPath id="8853f6cc3a"><path d="M 179.585938 97.46875 L 312.785156 97.46875 L 312.785156 107.75 L 179.585938 107.75 Z M 179.585938 97.46875 "/></clipPath><clipPath id="d58ba5a662"><path d="M 309.175781 107.710938 C 249.078125 103.90625 212.019531 104.539062 197.152344 105.242188 C 190.460938 105.59375 185.597656 107.214844 182.78125 106.511719 C 181.371094 106.160156 180.523438 105.453125 180.03125 104.679688 C 179.609375 104.046875 179.539062 103.128906 179.679688 102.425781 C 179.75 101.71875 180.171875 100.945312 180.664062 100.453125 C 181.230469 99.957031 182.003906 99.535156 182.710938 99.535156 C 183.625 99.464844 185.175781 100.101562 185.808594 100.734375 C 186.371094 101.226562 186.65625 102.074219 186.65625 102.777344 C 186.65625 103.691406 186.019531 105.242188 185.246094 105.808594 C 184.46875 106.371094 182.921875 106.652344 182.003906 106.371094 C 181.089844 106.019531 180.03125 104.820312 179.75 103.976562 C 179.46875 103.269531 179.609375 102.355469 179.820312 101.71875 C 180.101562 101.015625 180.59375 100.453125 181.300781 99.957031 C 182.355469 99.324219 183.484375 99.183594 186.019531 98.832031 C 196.730469 97.421875 254.855469 97.421875 269.722656 97.5625 C 275.148438 97.632812 276.203125 97.632812 280.785156 97.914062 C 288.179688 98.410156 306.148438 99.324219 310.164062 100.804688 C 311.289062 101.226562 311.785156 101.648438 312.207031 102.285156 C 312.628906 102.917969 312.839844 103.976562 312.699219 104.75 C 312.628906 105.523438 312.136719 106.441406 311.5 106.933594 C 310.9375 107.425781 309.175781 107.710938 309.175781 107.710938 "/></clipPath><clipPath id="366314e084"><path d="M 51.199219 97.734375 L 193.84375 97.734375 L 193.84375 106.863281 L 51.199219 106.863281 Z M 51.199219 97.734375 "/></clipPath><clipPath id="fc607a17a7"><path d="M 54.761719 99.535156 C 98.164062 97.84375 124.371094 98.972656 142.691406 98.832031 C 157.910156 98.691406 177.988281 97.632812 184.398438 97.773438 C 186.300781 97.84375 186.796875 97.5625 188.132812 97.984375 C 189.894531 98.621094 193.347656 100.523438 193.769531 101.933594 C 194.050781 102.917969 193.136719 104.328125 192.433594 104.960938 C 191.867188 105.453125 191.09375 105.734375 190.316406 105.734375 C 189.402344 105.664062 187.992188 104.890625 187.359375 104.1875 C 186.867188 103.621094 186.726562 102.777344 186.726562 102.074219 C 186.726562 101.367188 187.007812 100.523438 187.5 99.957031 C 188.132812 99.324219 189.613281 98.621094 190.53125 98.691406 C 191.515625 98.761719 192.855469 99.746094 193.347656 100.453125 C 193.769531 101.085938 193.839844 102.003906 193.769531 102.707031 C 193.628906 103.410156 193.207031 104.1875 192.714844 104.679688 C 192.21875 105.171875 191.375 105.59375 190.671875 105.664062 C 189.964844 105.734375 189.121094 105.664062 188.488281 105.242188 C 187.710938 104.75 186.796875 102.425781 186.726562 102.425781 C 186.726562 102.496094 188.414062 104.46875 187.992188 105.101562 C 187.007812 106.652344 176.15625 104.75 169.394531 104.820312 C 161.289062 104.890625 153.46875 105.734375 142.691406 105.878906 C 126.484375 106.089844 97.808594 104.890625 81.605469 105.242188 C 70.824219 105.453125 59.128906 107.566406 54.761719 106.582031 C 53.210938 106.300781 52.4375 105.808594 51.871094 105.101562 C 51.378906 104.46875 51.167969 103.410156 51.238281 102.636719 C 51.378906 101.859375 51.871094 100.945312 52.4375 100.453125 C 53 99.957031 54.761719 99.535156 54.761719 99.535156 "/></clipPath><clipPath id="90fd2c33eb"><path d="M 179.6875 101.203125 L 188.800781 101.203125 L 188.800781 228.714844 L 179.6875 228.714844 Z M 179.6875 101.203125 "/></clipPath><clipPath id="71401a568a"><path d="M 187.710938 104.75 C 189.613281 166.398438 188.488281 209.375 188.0625 218.183594 C 187.992188 220.085938 188.203125 220.367188 187.78125 221.707031 C 187.148438 223.679688 185.035156 228.046875 183.695312 228.609375 C 182.992188 228.894531 182.074219 228.46875 181.511719 227.976562 C 180.808594 227.414062 179.960938 226.074219 179.960938 225.089844 C 179.960938 224.101562 180.734375 222.761719 181.441406 222.199219 C 182.074219 221.707031 182.851562 221.425781 183.625 221.566406 C 184.539062 221.636719 185.949219 222.480469 186.441406 223.257812 C 186.9375 223.820312 187.078125 224.664062 186.9375 225.441406 C 186.796875 226.285156 185.878906 227.695312 185.105469 228.1875 C 184.46875 228.609375 183.625 228.679688 182.921875 228.539062 C 182.214844 228.46875 181.441406 228.046875 180.949219 227.484375 C 180.453125 226.992188 179.960938 226.214844 179.960938 225.441406 C 179.960938 224.59375 180.523438 223.042969 181.160156 222.410156 C 181.722656 221.847656 183.273438 221.636719 183.273438 221.566406 C 183.203125 221.496094 181.371094 222.691406 180.734375 222.128906 C 177.777344 219.664062 182.074219 186.621094 182.285156 172.667969 C 182.496094 162.59375 182.566406 156.183594 182.355469 146.460938 C 182.074219 134.128906 179.75 110.035156 180.664062 104.75 C 180.878906 103.480469 181.019531 102.988281 181.511719 102.425781 C 182.003906 101.859375 182.992188 101.367188 183.765625 101.296875 C 184.46875 101.15625 185.527344 101.367188 186.160156 101.859375 C 186.867188 102.425781 187.710938 104.75 187.710938 104.75 "/></clipPath><clipPath id="bd281c2274"><path d="M 179.304688 214.824219 L 187.828125 214.824219 L 187.828125 299.171875 L 179.304688 299.171875 Z M 179.304688 214.824219 "/></clipPath><clipPath id="67dcc22864"><path d="M 186.867188 218.394531 C 187.570312 261.371094 188.558594 289.34375 186.9375 295.683594 C 186.511719 297.304688 186.089844 298.007812 185.386719 298.574219 C 184.753906 299.066406 183.90625 299.207031 183.203125 299.136719 C 182.496094 299.136719 181.652344 298.855469 181.089844 298.363281 C 180.453125 297.65625 179.890625 296.179688 179.890625 295.261719 C 179.890625 294.488281 180.382812 293.710938 180.878906 293.21875 C 181.371094 292.726562 182.074219 292.230469 182.851562 292.160156 C 183.765625 292.089844 185.316406 292.515625 185.949219 293.21875 C 186.65625 293.921875 186.9375 295.542969 186.867188 296.390625 C 186.726562 297.164062 186.230469 297.867188 185.667969 298.363281 C 185.105469 298.785156 184.328125 299.136719 183.554688 299.136719 C 182.851562 299.207031 182.003906 299.066406 181.441406 298.574219 C 180.734375 298.007812 180.242188 297.304688 179.890625 295.613281 C 178.339844 289.34375 180.523438 261.441406 180.453125 247.351562 C 180.382812 236.5 179.046875 222.621094 179.820312 218.394531 C 180.03125 217.125 180.171875 216.632812 180.664062 216.070312 C 181.230469 215.4375 182.144531 214.941406 182.921875 214.871094 C 183.695312 214.800781 184.683594 215.011719 185.316406 215.507812 C 186.019531 216.070312 186.867188 218.394531 186.867188 218.394531 "/></clipPath><clipPath id="edfaa39d17"><path d="M 179.78125 261.683594 L 228.707031 261.683594 L 228.707031 302.488281 L 179.78125 302.488281 Z M 179.78125 261.683594 "/></clipPath><clipPath id="5489605bcc"><path d="M 181.371094 295.894531 C 202.578125 279.621094 212.792969 269.050781 218.148438 265.316406 C 220.824219 263.414062 222.867188 261.867188 224.628906 261.796875 C 225.828125 261.726562 227.097656 262.21875 227.730469 262.992188 C 228.363281 263.699219 228.644531 265.246094 228.503906 266.164062 C 228.363281 266.9375 227.800781 267.644531 227.238281 268.066406 C 226.671875 268.488281 225.828125 268.839844 225.125 268.769531 C 224.207031 268.699219 222.726562 267.996094 222.164062 267.289062 C 221.671875 266.726562 221.53125 265.8125 221.53125 265.105469 C 221.601562 264.402344 221.8125 263.558594 222.375 262.992188 C 223.007812 262.359375 224.488281 261.726562 225.40625 261.796875 C 226.179688 261.796875 226.957031 262.21875 227.449219 262.710938 C 228.011719 263.203125 228.503906 263.910156 228.574219 264.683594 C 228.644531 265.601562 228.292969 266.867188 227.519531 267.785156 C 226.53125 269.121094 224.417969 269.40625 222.234375 271.09375 C 218.148438 274.195312 211.453125 281.3125 205.535156 286.242188 C 199.195312 291.527344 188.980469 299.980469 185.457031 301.671875 C 184.328125 302.238281 183.765625 302.378906 182.992188 302.308594 C 182.214844 302.238281 181.300781 301.742188 180.808594 301.179688 C 180.242188 300.546875 179.820312 299.628906 179.890625 298.855469 C 179.960938 297.9375 181.371094 295.894531 181.371094 295.894531 "/></clipPath><clipPath id="8269492c8d"><path d="M 221.503906 261.769531 L 270.535156 261.769531 L 270.535156 300.855469 L 221.503906 300.855469 Z M 221.503906 261.769531 "/></clipPath><clipPath id="fa31f15b82"><path d="M 227.027344 262.289062 C 263.378906 290.894531 268.3125 293.21875 269.792969 295.191406 C 270.355469 296.035156 270.496094 296.601562 270.425781 297.375 C 270.355469 298.292969 269.511719 299.699219 268.804688 300.265625 C 268.242188 300.6875 267.328125 300.828125 266.621094 300.757812 C 265.917969 300.757812 265.070312 300.476562 264.578125 299.910156 C 263.945312 299.207031 263.378906 297.726562 263.378906 296.8125 C 263.449219 296.035156 263.875 295.261719 264.4375 294.769531 C 264.929688 294.277344 265.636719 293.851562 266.410156 293.78125 C 267.328125 293.710938 268.875 294.277344 269.511719 294.910156 C 270.074219 295.402344 270.355469 296.25 270.425781 296.953125 C 270.496094 297.65625 270.285156 298.574219 269.863281 299.136719 C 269.511719 299.769531 268.875 300.40625 268.101562 300.546875 C 267.253906 300.828125 266.199219 300.6875 264.859375 300.125 C 261.902344 298.996094 257.179688 295.050781 252.109375 291.246094 C 244.214844 285.398438 225.476562 271.660156 222.515625 267.644531 C 221.742188 266.65625 221.601562 266.164062 221.53125 265.390625 C 221.53125 264.613281 221.882812 263.628906 222.375 262.992188 C 222.867188 262.429688 223.785156 261.9375 224.558594 261.796875 C 225.335938 261.65625 227.027344 262.289062 227.027344 262.289062 "/></clipPath><clipPath id="6deef7c9ac"><path d="M 263.0625 162.382812 L 271.253906 162.382812 L 271.253906 298.765625 L 263.0625 298.765625 Z M 263.0625 162.382812 "/></clipPath><clipPath id="76ad52c317"><path d="M 263.378906 295.191406 C 263.167969 179.785156 262.675781 170.0625 263.875 165.90625 C 264.226562 164.425781 264.578125 163.582031 265.425781 163.015625 C 266.269531 162.453125 267.820312 162.3125 268.734375 162.664062 C 269.582031 163.085938 270.636719 164.285156 270.847656 165.199219 C 270.988281 166.1875 270.566406 167.667969 269.933594 168.371094 C 269.226562 169.074219 267.75 169.570312 266.761719 169.429688 C 265.777344 169.214844 264.578125 168.300781 264.15625 167.386719 C 263.734375 166.539062 263.875 164.917969 264.367188 164.074219 C 264.859375 163.296875 266.339844 162.523438 267.183594 162.453125 C 267.960938 162.3125 268.804688 162.59375 269.371094 163.085938 C 270.074219 163.652344 270.566406 164.425781 270.917969 165.976562 C 271.90625 170.414062 270.214844 181.054688 270.074219 192.890625 C 269.722656 216 272.046875 286.3125 270.425781 295.191406 C 270.144531 296.601562 270.074219 296.953125 269.511719 297.585938 C 269.015625 298.152344 268.101562 298.644531 267.328125 298.714844 C 266.550781 298.785156 265.566406 298.644531 264.859375 298.152344 C 264.15625 297.515625 263.378906 295.191406 263.378906 295.191406 "/></clipPath><clipPath id="e122d51898"><path d="M 262.589844 98.328125 L 270.953125 98.328125 L 270.953125 177.644531 L 262.589844 177.644531 Z M 262.589844 98.328125 "/></clipPath><clipPath id="9783b760f6"><path d="M 263.664062 174.078125 C 262.464844 105.382812 262.394531 102.496094 262.886719 100.804688 C 263.097656 100.101562 263.308594 99.746094 263.734375 99.394531 C 264.296875 98.902344 265.210938 98.339844 266.058594 98.339844 C 266.972656 98.339844 268.453125 98.902344 269.015625 99.605469 C 269.652344 100.382812 269.933594 102.003906 269.652344 102.917969 C 269.300781 103.832031 268.171875 104.960938 267.253906 105.242188 C 266.269531 105.453125 264.71875 105.171875 264.015625 104.539062 C 263.238281 103.90625 262.675781 102.425781 262.746094 101.4375 C 262.886719 100.523438 263.734375 99.183594 264.578125 98.761719 C 265.496094 98.269531 267.042969 98.269531 267.890625 98.691406 C 268.734375 99.183594 269.582031 100.523438 269.792969 101.4375 C 269.933594 102.144531 269.722656 102.988281 269.300781 103.621094 C 268.734375 104.398438 267.46875 105.3125 266.480469 105.3125 C 265.496094 105.382812 264.085938 104.679688 263.449219 103.976562 C 262.957031 103.410156 262.746094 102.566406 262.746094 101.859375 C 262.746094 101.015625 263.167969 99.957031 263.734375 99.394531 C 264.296875 98.761719 265.28125 98.339844 266.058594 98.339844 C 266.832031 98.269531 267.820312 98.550781 268.453125 99.042969 C 269.015625 99.535156 269.371094 99.957031 269.722656 101.15625 C 270.917969 105.382812 269.300781 121.09375 269.441406 132.226562 C 269.582031 145.191406 271.625 168.792969 270.707031 174.078125 C 270.496094 175.417969 270.355469 175.839844 269.863281 176.472656 C 269.371094 177.039062 268.382812 177.53125 267.609375 177.601562 C 266.832031 177.671875 265.847656 177.53125 265.210938 177.039062 C 264.507812 176.402344 263.664062 174.078125 263.664062 174.078125 "/></clipPath></defs><g id="b08d86ef34"><g clip-rule="nonzero" clip-path="url(#2864767fb3)"><g clip-rule="nonzero" clip-path="url(#190f4970fa)"><path style=" stroke:none;fill-rule:nonzero;fill:currentColor;fill-opacity:1;" d="M 37.5 80.867188 L 70.421875 80.867188 L 70.421875 111.511719 L 37.5 111.511719 Z M 37.5 80.867188 "/></g></g><g clip-rule="nonzero" clip-path="url(#fceab73e83)"><g clip-rule="nonzero" clip-path="url(#4c122538fe)"><path style=" stroke:none;fill-rule:nonzero;fill:currentColor;fill-opacity:1;" d="M 57.507812 83.894531 L 181.652344 83.894531 L 181.652344 98.128906 L 57.507812 98.128906 Z M 57.507812 83.894531 "/></g></g><g clip-rule="nonzero" clip-path="url(#8c0ebbbf1f)"><g clip-rule="nonzero" clip-path="url(#a05c47e377)"><path style=" stroke:none;fill-rule:nonzero;fill:currentColor;fill-opacity:1;" d="M 163.96875 84.246094 L 294.3125 84.246094 L 294.3125 97.28125 L 163.96875 97.28125 Z M 163.96875 84.246094 "/></g></g><g clip-rule="nonzero" clip-path="url(#6cb16121c1)"><g clip-rule="nonzero" clip-path="url(#9feffd2248)"><path style=" stroke:none;fill-rule:nonzero;fill:currentColor;fill-opacity:1;" d="M 274.722656 69.804688 L 331.574219 69.804688 L 331.574219 97.210938 L 274.722656 97.210938 Z M 274.722656 69.804688 "/></g></g><g clip-rule="nonzero" clip-path="url(#4383774002)"><g clip-rule="nonzero" clip-path="url(#e7effe9113)"><path style=" stroke:none;fill-rule:nonzero;fill:currentColor;fill-opacity:1;" d="M 299.3125 69.875 L 337.5 69.875 L 337.5 122.230469 L 299.3125 122.230469 Z M 299.3125 69.875 "/></g></g><g clip-rule="nonzero" clip-path="url(#8853f6cc3a)"><g clip-rule="nonzero" clip-path="url(#d58ba5a662)"><path style=" stroke:none;fill-rule:nonzero;fill:currentColor;fill-opacity:1;" d="M 176.859375 94.746094 L 315.570312 94.746094 L 315.570312 110.597656 L 176.859375 110.597656 Z M 176.859375 94.746094 "/></g></g><g clip-rule="nonzero" clip-path="url(#366314e084)"><g clip-rule="nonzero" clip-path="url(#fc607a17a7)"><path style=" stroke:none;fill-rule:nonzero;fill:currentColor;fill-opacity:1;" d="M 48.421875 94.957031 L 196.5625 94.957031 L 196.5625 109.46875 L 48.421875 109.46875 Z M 48.421875 94.957031 "/></g></g><g clip-rule="nonzero" clip-path="url(#90fd2c33eb)"><g clip-rule="nonzero" clip-path="url(#71401a568a)"><path style=" stroke:none;fill-rule:nonzero;fill:currentColor;fill-opacity:1;" d="M 177.144531 98.480469 L 192.289062 98.480469 L 192.289062 231.4375 L 177.144531 231.4375 Z M 177.144531 98.480469 "/></g></g><g clip-rule="nonzero" clip-path="url(#bd281c2274)"><g clip-rule="nonzero" clip-path="url(#67dcc22864)"><path style=" stroke:none;fill-rule:nonzero;fill:currentColor;fill-opacity:1;" d="M 177.003906 212.054688 L 190.390625 212.054688 L 190.390625 302.046875 L 177.003906 302.046875 Z M 177.003906 212.054688 "/></g></g><g clip-rule="nonzero" clip-path="url(#edfaa39d17)"><g clip-rule="nonzero" clip-path="url(#5489605bcc)"><path style=" stroke:none;fill-rule:nonzero;fill:currentColor;fill-opacity:1;" d="M 177.074219 258.976562 L 231.414062 258.976562 L 231.414062 305.195312 L 177.074219 305.195312 Z M 177.074219 258.976562 "/></g></g><g clip-rule="nonzero" clip-path="url(#8269492c8d)"><g clip-rule="nonzero" clip-path="url(#fa31f15b82)"><path style=" stroke:none;fill-rule:nonzero;fill:currentColor;fill-opacity:1;" d="M 218.710938 258.976562 L 273.328125 258.976562 L 273.328125 303.644531 L 218.710938 303.644531 Z M 218.710938 258.976562 "/></g></g><g clip-rule="nonzero" clip-path="url(#6deef7c9ac)"><g clip-rule="nonzero" clip-path="url(#76ad52c317)"><path style=" stroke:none;fill-rule:nonzero;fill:currentColor;fill-opacity:1;" d="M 260.210938 159.636719 L 273.738281 159.636719 L 273.738281 301.621094 L 260.210938 301.621094 Z M 260.210938 159.636719 "/></g></g><g clip-rule="nonzero" clip-path="url(#e122d51898)"><g clip-rule="nonzero" clip-path="url(#9783b760f6)"><path style=" stroke:none;fill-rule:nonzero;fill:currentColor;fill-opacity:1;" d="M 259.503906 95.519531 L 273.597656 95.519531 L 273.597656 180.507812 L 259.503906 180.507812 Z M 259.503906 95.519531 "/></g></g></g></svg>