<svg xmlns="http://www.w3.org/2000/svg" xmlns:xlink="http://www.w3.org/1999/xlink" width="500" zoomAndPan="magnify" viewBox="0 0 375 374.999991" height="500" preserveAspectRatio="xMidYMid meet" version="1.2"><defs><clipPath id="fee65d1f07"><path d="M 38.917969 88.824219 L 53.726562 88.824219 L 53.726562 102.472656 L 38.917969 102.472656 Z M 38.917969 88.824219 "/></clipPath><clipPath id="4a1b20ad45"><path d="M 46.59375 100.734375 C 43.410156 102.324219 42.765625 102.515625 42.160156 102.402344 C 41.480469 102.25 40.644531 101.90625 40.191406 101.300781 C 39.546875 100.507812 39.394531 98.839844 39.207031 97.589844 C 38.976562 96.261719 38.902344 94.632812 39.015625 93.535156 C 39.089844 92.699219 39.207031 92.09375 39.546875 91.488281 C 39.886719 90.84375 40.457031 90.273438 41.023438 89.859375 C 41.59375 89.480469 42.199219 89.136719 42.84375 88.988281 C 43.449219 88.835938 44.246094 88.757812 44.8125 88.988281 C 45.34375 89.175781 45.683594 89.972656 46.214844 90.238281 C 46.785156 90.539062 47.390625 90.539062 48.148438 90.652344 C 49.324219 90.84375 51.519531 90.539062 52.429688 90.996094 C 53.035156 91.261719 53.527344 91.753906 53.679688 92.285156 C 53.792969 92.777344 53.640625 93.609375 53.300781 93.988281 C 52.960938 94.40625 52.164062 94.707031 51.632812 94.671875 C 51.101562 94.59375 50.421875 94.140625 50.15625 93.648438 C 49.929688 93.191406 49.929688 92.359375 50.15625 91.90625 C 50.421875 91.410156 51.101562 90.957031 51.632812 90.882812 C 52.164062 90.84375 52.960938 91.148438 53.300781 91.5625 C 53.640625 91.941406 53.757812 92.8125 53.679688 93.269531 C 53.605469 93.683594 53.300781 94.0625 53 94.292969 C 52.695312 94.519531 52.316406 94.59375 51.824219 94.671875 C 51.140625 94.785156 50.082031 94.746094 49.09375 94.671875 C 47.957031 94.558594 46.328125 94.328125 45.34375 93.914062 C 44.585938 93.609375 43.902344 92.585938 43.488281 92.738281 C 43.109375 92.851562 42.957031 93.800781 42.804688 94.519531 C 42.617188 95.578125 42.238281 98.308594 42.765625 98.613281 C 43.222656 98.914062 44.660156 97.285156 45.417969 97.171875 C 45.914062 97.09375 46.40625 97.210938 46.746094 97.359375 C 47.011719 97.511719 47.238281 97.738281 47.390625 98.003906 C 47.578125 98.347656 47.769531 98.875 47.65625 99.332031 C 47.542969 99.824219 46.59375 100.734375 46.59375 100.734375 "/></clipPath><clipPath id="7600183cc4"><path d="M 49.757812 90.503906 L 113.503906 90.503906 L 113.503906 95.320312 L 49.757812 95.320312 Z M 49.757812 90.503906 "/></clipPath><clipPath id="8ff4017a38"><path d="M 51.632812 90.617188 C 96.195312 91.449219 108.777344 89.859375 111.921875 90.882812 C 112.753906 91.148438 113.058594 91.527344 113.324219 91.980469 C 113.511719 92.320312 113.511719 92.777344 113.4375 93.15625 C 113.359375 93.535156 113.132812 93.949219 112.792969 94.214844 C 112.414062 94.480469 111.542969 94.671875 111.050781 94.558594 C 110.671875 94.480469 110.292969 94.179688 110.0625 93.875 C 109.835938 93.570312 109.683594 93.117188 109.683594 92.738281 C 109.683594 92.359375 109.835938 91.90625 110.101562 91.601562 C 110.328125 91.296875 110.707031 90.996094 111.085938 90.917969 C 111.578125 90.84375 112.414062 90.957031 112.832031 91.296875 C 113.210938 91.640625 113.476562 92.472656 113.476562 92.964844 C 113.4375 93.382812 113.210938 93.800781 112.945312 94.0625 C 112.679688 94.328125 112.488281 94.441406 111.882812 94.632812 C 109.191406 95.316406 97.75 95.238281 89.222656 95.238281 C 78.195312 95.277344 54.855469 95.542969 51.179688 94.367188 C 50.496094 94.140625 50.34375 93.949219 50.082031 93.570312 C 49.851562 93.230469 49.703125 92.699219 49.777344 92.285156 C 49.816406 91.867188 50.082031 91.375 50.382812 91.109375 C 50.722656 90.804688 51.632812 90.617188 51.632812 90.617188 "/></clipPath><clipPath id="945bcd9f17"><path d="M 107.023438 90.824219 L 174.085938 90.824219 L 174.085938 94.957031 L 107.023438 94.957031 Z M 107.023438 90.824219 "/></clipPath><clipPath id="2a89415a0a"><path d="M 108.925781 90.84375 C 171.527344 90.882812 171.980469 90.769531 172.664062 91.070312 C 173.195312 91.296875 173.761719 91.753906 173.953125 92.207031 C 174.140625 92.699219 174.066406 93.535156 173.761719 93.988281 C 173.457031 94.40625 172.207031 94.785156 172.207031 94.785156 C 172.171875 94.785156 173.800781 93.722656 173.835938 93.800781 C 173.875 93.835938 173.6875 94.140625 173.496094 94.292969 C 173.117188 94.519531 172.285156 94.859375 171.753906 94.746094 C 171.261719 94.632812 170.617188 94.0625 170.425781 93.570312 C 170.238281 93.078125 170.351562 92.246094 170.65625 91.828125 C 170.917969 91.375 171.675781 90.996094 172.207031 90.996094 C 172.738281 90.996094 173.496094 91.410156 173.761719 91.867188 C 174.066406 92.285156 174.140625 93.117188 173.953125 93.609375 C 173.761719 94.101562 173.078125 94.632812 172.585938 94.746094 C 172.054688 94.859375 171.261719 94.632812 170.882812 94.253906 C 170.503906 93.875 170.160156 93.078125 170.3125 92.546875 C 170.503906 91.980469 171.5625 91.070312 172.207031 90.996094 C 172.699219 90.957031 173.457031 91.488281 173.761719 91.828125 C 173.988281 92.054688 174.066406 92.359375 174.066406 92.664062 C 174.101562 93.042969 174.027344 93.609375 173.761719 93.988281 C 173.457031 94.367188 173.003906 94.59375 172.207031 94.785156 C 170.011719 95.277344 165.007812 94.441406 159.285156 94.367188 C 147.996094 94.214844 113.476562 95.464844 108.925781 94.632812 C 108.167969 94.519531 107.980469 94.441406 107.640625 94.179688 C 107.335938 93.875 107.070312 93.382812 107.03125 92.964844 C 106.996094 92.546875 107.070312 92.019531 107.335938 91.675781 C 107.675781 91.261719 108.925781 90.84375 108.925781 90.84375 "/></clipPath><clipPath id="cce0482c3d"><path d="M 166.582031 83 L 194.160156 83 L 194.160156 94.996094 L 166.582031 94.996094 Z M 166.582031 83 "/></clipPath><clipPath id="f27099af1e"><path d="M 168.496094 90.996094 C 177.324219 90.617188 179.140625 90.3125 181.152344 89.59375 C 183.425781 88.796875 186.191406 87.242188 188.125 86.03125 C 189.640625 85.046875 190.964844 83.339844 191.914062 83.074219 C 192.367188 82.925781 192.746094 83.074219 193.085938 83.226562 C 193.429688 83.378906 193.769531 83.71875 193.957031 84.097656 C 194.109375 84.441406 194.222656 84.894531 194.109375 85.273438 C 193.996094 85.765625 193.429688 86.449219 193.011719 86.675781 C 192.632812 86.863281 192.175781 86.902344 191.796875 86.75 C 191.34375 86.597656 190.660156 86.070312 190.472656 85.578125 C 190.28125 85.082031 190.398438 84.25 190.699219 83.832031 C 191.003906 83.378906 191.796875 83.074219 192.292969 83.039062 C 192.707031 83 193.164062 83.152344 193.429688 83.453125 C 193.808594 83.796875 194.148438 84.589844 194.148438 85.082031 C 194.148438 85.5 193.921875 85.804688 193.65625 86.183594 C 193.3125 86.714844 192.785156 87.167969 192.0625 87.734375 C 190.851562 88.683594 188.730469 90.125 186.949219 91.109375 C 185.089844 92.054688 183.082031 92.964844 181.113281 93.570312 C 179.179688 94.140625 177.246094 94.480469 175.203125 94.671875 C 172.929688 94.898438 169.367188 95.125 168.039062 94.746094 C 167.472656 94.558594 167.167969 94.328125 166.941406 93.988281 C 166.675781 93.609375 166.5625 93.078125 166.601562 92.664062 C 166.675781 92.246094 166.902344 91.753906 167.246094 91.488281 C 167.546875 91.183594 168.496094 90.996094 168.496094 90.996094 "/></clipPath><clipPath id="e1ce6a9c4d"><path d="M 179.753906 83.164062 L 197.644531 83.164062 L 197.644531 108.433594 L 179.753906 108.433594 Z M 179.753906 83.164062 "/></clipPath><clipPath id="5c6d3b1a44"><path d="M 191.535156 83.1875 C 195.472656 83.796875 196.082031 86.941406 196.574219 88.683594 C 196.988281 90.199219 197.140625 91.261719 197.292969 93.003906 C 197.519531 95.695312 197.863281 100.847656 197.332031 103.386719 C 197.027344 104.902344 196.460938 106.113281 195.777344 106.910156 C 195.246094 107.554688 194.601562 107.972656 193.882812 108.199219 C 193.164062 108.425781 192.367188 108.539062 191.457031 108.199219 C 189.789062 107.59375 187.59375 104.179688 185.585938 102.855469 C 183.917969 101.792969 181.339844 101.492188 180.507812 100.621094 C 180.015625 100.089844 179.824219 99.445312 179.824219 98.953125 C 179.863281 98.535156 180.089844 98.117188 180.355469 97.855469 C 180.621094 97.589844 181.039062 97.359375 181.417969 97.285156 C 181.796875 97.246094 182.289062 97.285156 182.628906 97.511719 C 183.046875 97.777344 183.539062 98.460938 183.613281 98.992188 C 183.652344 99.484375 183.347656 100.277344 182.933594 100.621094 C 182.554688 100.960938 181.679688 101.074219 181.1875 101 C 180.808594 100.921875 180.429688 100.621094 180.203125 100.316406 C 179.976562 100.011719 179.824219 99.558594 179.824219 99.140625 C 179.824219 98.761719 179.976562 98.308594 180.203125 98.003906 C 180.46875 97.703125 180.773438 97.4375 181.226562 97.359375 C 181.984375 97.210938 183.425781 97.664062 184.484375 98.082031 C 185.699219 98.496094 186.949219 99.253906 188.046875 100.011719 C 189.144531 100.734375 190.472656 101.605469 191.15625 102.476562 C 191.648438 103.121094 191.683594 104.445312 192.101562 104.523438 C 192.480469 104.597656 193.164062 103.992188 193.503906 103.273438 C 194.261719 101.527344 193.882812 96.148438 193.503906 93.042969 C 193.199219 90.3125 191.117188 85.992188 191.683594 85.539062 C 191.988281 85.3125 193.503906 86.257812 193.503906 86.449219 C 193.464844 86.636719 192.554688 86.902344 192.101562 86.828125 C 191.570312 86.714844 190.890625 86.257812 190.625 85.839844 C 190.359375 85.5 190.28125 84.933594 190.398438 84.515625 C 190.546875 84.0625 191.535156 83.1875 191.535156 83.1875 "/></clipPath><clipPath id="ebbbe64ae6"><path d="M 113.917969 96.402344 L 185.554688 96.402344 L 185.554688 101.929688 L 113.917969 101.929688 Z M 113.917969 96.402344 "/></clipPath><clipPath id="f7c09ab09e"><path d="M 183.613281 101.90625 C 151.292969 99.863281 131.359375 100.203125 123.363281 100.582031 C 119.765625 100.769531 117.148438 101.644531 115.632812 101.265625 C 114.875 101.074219 114.421875 100.695312 114.15625 100.277344 C 113.929688 99.9375 113.890625 99.445312 113.96875 99.066406 C 114.003906 98.6875 114.234375 98.269531 114.496094 98.003906 C 114.800781 97.738281 115.21875 97.511719 115.597656 97.511719 C 116.089844 97.476562 116.921875 97.816406 117.265625 98.15625 C 117.566406 98.421875 117.71875 98.875 117.71875 99.253906 C 117.71875 99.75 117.378906 100.582031 116.960938 100.886719 C 116.542969 101.1875 115.710938 101.339844 115.21875 101.1875 C 114.726562 101 114.15625 100.355469 114.003906 99.898438 C 113.855469 99.519531 113.929688 99.027344 114.042969 98.6875 C 114.195312 98.308594 114.460938 98.003906 114.839844 97.738281 C 115.40625 97.398438 116.011719 97.324219 117.378906 97.132812 C 123.136719 96.375 154.398438 96.375 162.394531 96.453125 C 165.3125 96.488281 165.878906 96.488281 168.34375 96.640625 C 172.320312 96.90625 181.984375 97.398438 184.144531 98.195312 C 184.75 98.421875 185.015625 98.648438 185.242188 98.992188 C 185.46875 99.332031 185.585938 99.898438 185.507812 100.316406 C 185.46875 100.734375 185.207031 101.226562 184.863281 101.492188 C 184.5625 101.757812 183.613281 101.90625 183.613281 101.90625 "/></clipPath><clipPath id="646ddd1bd4"><path d="M 44.867188 96.542969 L 121.585938 96.542969 L 121.585938 101.453125 L 44.867188 101.453125 Z M 44.867188 96.542969 "/></clipPath><clipPath id="44c35faee7"><path d="M 46.785156 97.511719 C 70.125 96.601562 84.222656 97.210938 94.074219 97.132812 C 102.257812 97.058594 113.058594 96.488281 116.507812 96.566406 C 117.527344 96.601562 117.792969 96.453125 118.515625 96.679688 C 119.460938 97.019531 121.320312 98.042969 121.546875 98.800781 C 121.699219 99.332031 121.203125 100.089844 120.824219 100.429688 C 120.523438 100.695312 120.105469 100.847656 119.6875 100.847656 C 119.195312 100.808594 118.4375 100.390625 118.097656 100.011719 C 117.832031 99.710938 117.757812 99.253906 117.757812 98.875 C 117.757812 98.496094 117.90625 98.042969 118.171875 97.738281 C 118.515625 97.398438 119.308594 97.019531 119.800781 97.058594 C 120.332031 97.09375 121.054688 97.625 121.320312 98.003906 C 121.546875 98.347656 121.582031 98.839844 121.546875 99.21875 C 121.46875 99.597656 121.242188 100.011719 120.976562 100.277344 C 120.710938 100.542969 120.257812 100.769531 119.878906 100.808594 C 119.5 100.847656 119.042969 100.808594 118.703125 100.582031 C 118.285156 100.316406 117.792969 99.066406 117.757812 99.066406 C 117.757812 99.105469 118.664062 100.164062 118.4375 100.507812 C 117.90625 101.339844 112.074219 100.316406 108.433594 100.355469 C 104.078125 100.390625 99.871094 100.847656 94.074219 100.921875 C 85.359375 101.035156 69.9375 100.390625 61.222656 100.582031 C 55.421875 100.695312 49.132812 101.832031 46.785156 101.300781 C 45.949219 101.148438 45.535156 100.886719 45.230469 100.507812 C 44.964844 100.164062 44.851562 99.597656 44.890625 99.179688 C 44.964844 98.761719 45.230469 98.269531 45.535156 98.003906 C 45.835938 97.738281 46.785156 97.511719 46.785156 97.511719 "/></clipPath><clipPath id="d63cf76bd2"><path d="M 113.972656 98.40625 L 118.871094 98.40625 L 118.871094 166.988281 L 113.972656 166.988281 Z M 113.972656 98.40625 "/></clipPath><clipPath id="416c59b8ef"><path d="M 118.285156 100.316406 C 119.308594 133.472656 118.703125 156.585938 118.476562 161.324219 C 118.4375 162.347656 118.550781 162.5 118.324219 163.21875 C 117.984375 164.277344 116.847656 166.628906 116.128906 166.933594 C 115.75 167.082031 115.253906 166.855469 114.953125 166.589844 C 114.574219 166.289062 114.117188 165.566406 114.117188 165.035156 C 114.117188 164.507812 114.535156 163.785156 114.914062 163.484375 C 115.253906 163.21875 115.671875 163.066406 116.089844 163.140625 C 116.582031 163.179688 117.339844 163.636719 117.605469 164.050781 C 117.871094 164.355469 117.945312 164.808594 117.871094 165.226562 C 117.792969 165.679688 117.300781 166.4375 116.886719 166.703125 C 116.542969 166.933594 116.089844 166.96875 115.710938 166.894531 C 115.332031 166.855469 114.914062 166.628906 114.648438 166.324219 C 114.382812 166.058594 114.117188 165.644531 114.117188 165.226562 C 114.117188 164.773438 114.421875 163.9375 114.761719 163.597656 C 115.066406 163.292969 115.898438 163.179688 115.898438 163.140625 C 115.863281 163.105469 114.875 163.75 114.535156 163.445312 C 112.945312 162.121094 115.253906 144.347656 115.371094 136.84375 C 115.484375 131.425781 115.519531 127.976562 115.40625 122.75 C 115.253906 116.117188 114.003906 103.160156 114.496094 100.316406 C 114.613281 99.632812 114.6875 99.371094 114.953125 99.066406 C 115.21875 98.761719 115.75 98.496094 116.164062 98.460938 C 116.542969 98.382812 117.113281 98.496094 117.453125 98.761719 C 117.832031 99.066406 118.285156 100.316406 118.285156 100.316406 "/></clipPath><clipPath id="0357f5edc2"><path d="M 113.765625 159.515625 L 118.347656 159.515625 L 118.347656 204.878906 L 113.765625 204.878906 Z M 113.765625 159.515625 "/></clipPath><clipPath id="73fe7ab7ac"><path d="M 117.832031 161.4375 C 118.210938 184.550781 118.742188 199.59375 117.871094 203.003906 C 117.644531 203.878906 117.414062 204.257812 117.035156 204.558594 C 116.695312 204.824219 116.242188 204.898438 115.863281 204.863281 C 115.484375 204.863281 115.027344 204.710938 114.726562 204.445312 C 114.382812 204.066406 114.082031 203.269531 114.082031 202.777344 C 114.082031 202.359375 114.347656 201.945312 114.613281 201.679688 C 114.875 201.414062 115.253906 201.148438 115.671875 201.109375 C 116.164062 201.074219 117 201.300781 117.339844 201.679688 C 117.71875 202.058594 117.871094 202.929688 117.832031 203.382812 C 117.757812 203.800781 117.492188 204.179688 117.1875 204.445312 C 116.886719 204.671875 116.46875 204.863281 116.050781 204.863281 C 115.671875 204.898438 115.21875 204.824219 114.914062 204.558594 C 114.535156 204.257812 114.269531 203.878906 114.082031 202.96875 C 113.246094 199.59375 114.421875 184.589844 114.382812 177.011719 C 114.347656 171.175781 113.625 163.710938 114.042969 161.4375 C 114.15625 160.753906 114.234375 160.488281 114.496094 160.1875 C 114.800781 159.847656 115.292969 159.582031 115.710938 159.542969 C 116.128906 159.503906 116.65625 159.617188 117 159.882812 C 117.378906 160.1875 117.832031 161.4375 117.832031 161.4375 "/></clipPath><clipPath id="e911d2e862"><path d="M 114.023438 184.71875 L 140.335938 184.71875 L 140.335938 206.664062 L 114.023438 206.664062 Z M 114.023438 184.71875 "/></clipPath><clipPath id="1a864dbb29"><path d="M 114.875 203.117188 C 126.28125 194.367188 131.777344 188.683594 134.65625 186.671875 C 136.097656 185.652344 137.195312 184.816406 138.144531 184.777344 C 138.785156 184.742188 139.46875 185.007812 139.808594 185.421875 C 140.152344 185.800781 140.300781 186.636719 140.226562 187.128906 C 140.152344 187.546875 139.847656 187.925781 139.542969 188.152344 C 139.242188 188.378906 138.785156 188.566406 138.40625 188.53125 C 137.914062 188.492188 137.121094 188.113281 136.816406 187.734375 C 136.550781 187.429688 136.476562 186.9375 136.476562 186.558594 C 136.511719 186.179688 136.628906 185.726562 136.929688 185.421875 C 137.269531 185.082031 138.066406 184.742188 138.558594 184.777344 C 138.976562 184.777344 139.394531 185.007812 139.660156 185.273438 C 139.960938 185.535156 140.226562 185.914062 140.265625 186.332031 C 140.300781 186.824219 140.113281 187.507812 139.695312 188 C 139.164062 188.71875 138.027344 188.871094 136.855469 189.78125 C 134.65625 191.449219 131.058594 195.273438 127.875 197.929688 C 124.464844 200.769531 118.96875 205.316406 117.074219 206.226562 C 116.46875 206.53125 116.164062 206.605469 115.75 206.566406 C 115.332031 206.53125 114.839844 206.265625 114.574219 205.960938 C 114.269531 205.621094 114.042969 205.128906 114.082031 204.710938 C 114.117188 204.21875 114.875 203.117188 114.875 203.117188 "/></clipPath><clipPath id="e5a95431eb"><path d="M 136.460938 184.765625 L 162.832031 184.765625 L 162.832031 205.785156 L 136.460938 205.785156 Z M 136.460938 184.765625 "/></clipPath><clipPath id="5e96f3857a"><path d="M 139.429688 185.042969 C 158.984375 200.429688 161.636719 201.679688 162.433594 202.738281 C 162.734375 203.195312 162.8125 203.496094 162.773438 203.914062 C 162.734375 204.40625 162.28125 205.164062 161.902344 205.46875 C 161.597656 205.695312 161.105469 205.773438 160.726562 205.734375 C 160.347656 205.734375 159.894531 205.582031 159.628906 205.277344 C 159.285156 204.898438 158.984375 204.105469 158.984375 203.613281 C 159.023438 203.195312 159.25 202.777344 159.550781 202.511719 C 159.816406 202.246094 160.195312 202.019531 160.613281 201.980469 C 161.105469 201.945312 161.9375 202.246094 162.28125 202.589844 C 162.582031 202.855469 162.734375 203.308594 162.773438 203.6875 C 162.8125 204.066406 162.695312 204.558594 162.46875 204.863281 C 162.28125 205.203125 161.9375 205.542969 161.523438 205.621094 C 161.066406 205.773438 160.5 205.695312 159.78125 205.394531 C 158.1875 204.785156 155.648438 202.664062 152.921875 200.617188 C 148.675781 197.472656 138.597656 190.085938 137.007812 187.925781 C 136.589844 187.394531 136.511719 187.128906 136.476562 186.710938 C 136.476562 186.292969 136.664062 185.765625 136.929688 185.421875 C 137.195312 185.121094 137.6875 184.855469 138.105469 184.777344 C 138.523438 184.703125 139.429688 185.042969 139.429688 185.042969 "/></clipPath><clipPath id="06ef9e1a44"><path d="M 158.8125 131.3125 L 163.21875 131.3125 L 163.21875 204.664062 L 158.8125 204.664062 Z M 158.8125 131.3125 "/></clipPath><clipPath id="f92988b7e4"><path d="M 158.984375 202.738281 C 158.871094 140.671875 158.605469 135.441406 159.25 133.207031 C 159.4375 132.410156 159.628906 131.957031 160.082031 131.652344 C 160.539062 131.351562 161.371094 131.273438 161.863281 131.464844 C 162.316406 131.691406 162.886719 132.335938 163 132.828125 C 163.074219 133.359375 162.847656 134.15625 162.507812 134.535156 C 162.128906 134.914062 161.332031 135.175781 160.800781 135.101562 C 160.273438 134.988281 159.628906 134.496094 159.402344 134.003906 C 159.171875 133.546875 159.25 132.675781 159.515625 132.222656 C 159.78125 131.804688 160.574219 131.386719 161.03125 131.351562 C 161.445312 131.273438 161.902344 131.425781 162.203125 131.691406 C 162.582031 131.996094 162.847656 132.410156 163.039062 133.246094 C 163.570312 135.632812 162.660156 141.355469 162.582031 147.71875 C 162.394531 160.148438 163.644531 197.964844 162.773438 202.738281 C 162.621094 203.496094 162.582031 203.6875 162.28125 204.027344 C 162.015625 204.332031 161.523438 204.597656 161.105469 204.636719 C 160.6875 204.671875 160.160156 204.597656 159.78125 204.332031 C 159.402344 203.992188 158.984375 202.738281 158.984375 202.738281 "/></clipPath><clipPath id="8bf77636b4"><path d="M 158.558594 96.863281 L 163.058594 96.863281 L 163.058594 139.519531 L 158.558594 139.519531 Z M 158.558594 96.863281 "/></clipPath><clipPath id="61709face0"><path d="M 159.136719 137.601562 C 158.492188 100.65625 158.453125 99.105469 158.71875 98.195312 C 158.832031 97.816406 158.945312 97.625 159.171875 97.4375 C 159.476562 97.171875 159.96875 96.867188 160.421875 96.867188 C 160.917969 96.867188 161.710938 97.171875 162.015625 97.550781 C 162.355469 97.96875 162.507812 98.839844 162.355469 99.332031 C 162.167969 99.824219 161.558594 100.429688 161.066406 100.582031 C 160.539062 100.695312 159.703125 100.542969 159.324219 100.203125 C 158.90625 99.863281 158.605469 99.066406 158.644531 98.535156 C 158.71875 98.042969 159.171875 97.324219 159.628906 97.097656 C 160.121094 96.832031 160.953125 96.832031 161.410156 97.058594 C 161.863281 97.324219 162.316406 98.042969 162.433594 98.535156 C 162.507812 98.914062 162.394531 99.371094 162.167969 99.710938 C 161.863281 100.128906 161.179688 100.621094 160.652344 100.621094 C 160.121094 100.65625 159.363281 100.277344 159.023438 99.898438 C 158.757812 99.597656 158.644531 99.140625 158.644531 98.761719 C 158.644531 98.308594 158.871094 97.738281 159.171875 97.4375 C 159.476562 97.097656 160.007812 96.867188 160.421875 96.867188 C 160.839844 96.832031 161.371094 96.980469 161.710938 97.246094 C 162.015625 97.511719 162.203125 97.738281 162.394531 98.382812 C 163.039062 100.65625 162.167969 109.109375 162.242188 115.09375 C 162.316406 122.066406 163.417969 134.761719 162.925781 137.601562 C 162.8125 138.324219 162.734375 138.550781 162.46875 138.890625 C 162.203125 139.195312 161.675781 139.460938 161.257812 139.496094 C 160.839844 139.535156 160.308594 139.460938 159.96875 139.195312 C 159.589844 138.851562 159.136719 137.601562 159.136719 137.601562 "/></clipPath><clipPath id="d51e041c74"><path d="M 177.570312 174.179688 L 192.378906 174.179688 L 192.378906 187.832031 L 177.570312 187.832031 Z M 177.570312 174.179688 "/></clipPath><clipPath id="c36258c5da"><path d="M 185.246094 186.089844 C 182.066406 187.683594 181.421875 187.871094 180.8125 187.757812 C 180.132812 187.605469 179.296875 187.265625 178.84375 186.660156 C 178.199219 185.863281 178.046875 184.195312 177.859375 182.945312 C 177.632812 181.621094 177.554688 179.988281 177.667969 178.890625 C 177.746094 178.058594 177.859375 177.449219 178.199219 176.84375 C 178.539062 176.199219 179.109375 175.632812 179.675781 175.214844 C 180.246094 174.835938 180.851562 174.496094 181.496094 174.34375 C 182.101562 174.191406 182.898438 174.117188 183.464844 174.34375 C 183.996094 174.535156 184.339844 175.328125 184.867188 175.59375 C 185.4375 175.898438 186.042969 175.898438 186.800781 176.011719 C 187.976562 176.199219 190.171875 175.898438 191.082031 176.351562 C 191.6875 176.617188 192.183594 177.109375 192.332031 177.640625 C 192.445312 178.132812 192.296875 178.964844 191.953125 179.34375 C 191.613281 179.761719 190.816406 180.066406 190.289062 180.027344 C 189.757812 179.953125 189.074219 179.496094 188.808594 179.003906 C 188.582031 178.550781 188.582031 177.714844 188.808594 177.261719 C 189.074219 176.769531 189.757812 176.3125 190.289062 176.238281 C 190.816406 176.199219 191.613281 176.503906 191.953125 176.921875 C 192.296875 177.300781 192.410156 178.171875 192.332031 178.625 C 192.257812 179.042969 191.953125 179.421875 191.652344 179.648438 C 191.347656 179.875 190.96875 179.953125 190.476562 180.027344 C 189.792969 180.140625 188.734375 180.101562 187.75 180.027344 C 186.613281 179.914062 184.980469 179.6875 183.996094 179.269531 C 183.238281 178.964844 182.558594 177.945312 182.140625 178.09375 C 181.761719 178.207031 181.609375 179.15625 181.457031 179.875 C 181.269531 180.9375 180.890625 183.664062 181.421875 183.96875 C 181.875 184.273438 183.316406 182.640625 184.074219 182.527344 C 184.566406 182.453125 185.058594 182.566406 185.398438 182.71875 C 185.664062 182.871094 185.890625 183.097656 186.042969 183.363281 C 186.234375 183.703125 186.421875 184.234375 186.308594 184.6875 C 186.195312 185.179688 185.246094 186.089844 185.246094 186.089844 "/></clipPath><clipPath id="eb4e2646d5"><path d="M 188.410156 175.863281 L 252.15625 175.863281 L 252.15625 180.675781 L 188.410156 180.675781 Z M 188.410156 175.863281 "/></clipPath><clipPath id="615527daa4"><path d="M 190.289062 175.972656 C 234.847656 176.808594 247.429688 175.214844 250.574219 176.238281 C 251.40625 176.503906 251.710938 176.882812 251.976562 177.335938 C 252.164062 177.679688 252.164062 178.132812 252.089844 178.511719 C 252.015625 178.890625 251.785156 179.308594 251.445312 179.574219 C 251.066406 179.839844 250.195312 180.027344 249.703125 179.914062 C 249.324219 179.839844 248.945312 179.535156 248.71875 179.230469 C 248.492188 178.929688 248.339844 178.472656 248.339844 178.09375 C 248.339844 177.714844 248.492188 177.261719 248.753906 176.957031 C 248.984375 176.65625 249.363281 176.351562 249.742188 176.277344 C 250.234375 176.199219 251.066406 176.3125 251.484375 176.65625 C 251.863281 176.996094 252.128906 177.828125 252.128906 178.324219 C 252.089844 178.738281 251.863281 179.15625 251.597656 179.421875 C 251.332031 179.6875 251.144531 179.800781 250.535156 179.988281 C 247.847656 180.671875 236.402344 180.597656 227.875 180.597656 C 216.851562 180.632812 193.507812 180.898438 189.832031 179.726562 C 189.152344 179.496094 189 179.308594 188.734375 178.929688 C 188.507812 178.585938 188.355469 178.058594 188.429688 177.640625 C 188.46875 177.222656 188.734375 176.730469 189.035156 176.464844 C 189.378906 176.164062 190.289062 175.972656 190.289062 175.972656 "/></clipPath><clipPath id="39005b9128"><path d="M 245.675781 176.179688 L 312.738281 176.179688 L 312.738281 180.316406 L 245.675781 180.316406 Z M 245.675781 176.179688 "/></clipPath><clipPath id="79e3d634d0"><path d="M 247.582031 176.199219 C 310.179688 176.238281 310.632812 176.125 311.316406 176.429688 C 311.847656 176.65625 312.414062 177.109375 312.605469 177.566406 C 312.792969 178.058594 312.71875 178.890625 312.414062 179.34375 C 312.113281 179.761719 310.863281 180.140625 310.863281 180.140625 C 310.824219 180.140625 312.453125 179.082031 312.492188 179.15625 C 312.527344 179.195312 312.339844 179.496094 312.148438 179.648438 C 311.769531 179.875 310.9375 180.21875 310.40625 180.101562 C 309.914062 179.988281 309.269531 179.421875 309.082031 178.929688 C 308.890625 178.4375 309.003906 177.601562 309.308594 177.1875 C 309.574219 176.730469 310.332031 176.351562 310.863281 176.351562 C 311.390625 176.351562 312.148438 176.769531 312.414062 177.222656 C 312.71875 177.640625 312.792969 178.472656 312.605469 178.964844 C 312.414062 179.460938 311.734375 179.988281 311.242188 180.101562 C 310.710938 180.21875 309.914062 179.988281 309.535156 179.609375 C 309.15625 179.230469 308.816406 178.4375 308.96875 177.90625 C 309.15625 177.335938 310.21875 176.429688 310.863281 176.351562 C 311.355469 176.3125 312.113281 176.84375 312.414062 177.1875 C 312.640625 177.414062 312.71875 177.714844 312.71875 178.019531 C 312.757812 178.398438 312.679688 178.964844 312.414062 179.34375 C 312.113281 179.722656 311.65625 179.953125 310.863281 180.140625 C 308.664062 180.632812 303.660156 179.800781 297.941406 179.722656 C 286.648438 179.574219 252.128906 180.824219 247.582031 179.988281 C 246.824219 179.875 246.632812 179.800781 246.292969 179.535156 C 245.988281 179.230469 245.722656 178.738281 245.6875 178.324219 C 245.648438 177.90625 245.722656 177.375 245.988281 177.035156 C 246.332031 176.617188 247.582031 176.199219 247.582031 176.199219 "/></clipPath><clipPath id="ad1facac72"><path d="M 305.234375 168.320312 L 332.816406 168.320312 L 332.816406 180.351562 L 305.234375 180.351562 Z M 305.234375 168.320312 "/></clipPath><clipPath id="fd939d725e"><path d="M 307.148438 176.351562 C 315.976562 175.972656 317.796875 175.671875 319.804688 174.949219 C 322.078125 174.15625 324.84375 172.601562 326.777344 171.386719 C 328.292969 170.402344 329.617188 168.699219 330.566406 168.433594 C 331.019531 168.28125 331.398438 168.433594 331.742188 168.585938 C 332.082031 168.734375 332.421875 169.078125 332.613281 169.457031 C 332.761719 169.796875 332.878906 170.25 332.761719 170.628906 C 332.648438 171.121094 332.082031 171.804688 331.664062 172.03125 C 331.285156 172.222656 330.832031 172.261719 330.453125 172.109375 C 329.996094 171.957031 329.316406 171.425781 329.125 170.933594 C 328.9375 170.441406 329.050781 169.605469 329.351562 169.191406 C 329.65625 168.734375 330.453125 168.433594 330.945312 168.394531 C 331.363281 168.355469 331.816406 168.507812 332.082031 168.8125 C 332.460938 169.152344 332.800781 169.949219 332.800781 170.441406 C 332.800781 170.859375 332.574219 171.160156 332.308594 171.539062 C 331.96875 172.070312 331.4375 172.523438 330.71875 173.09375 C 329.503906 174.039062 327.382812 175.480469 325.601562 176.464844 C 323.746094 177.414062 321.738281 178.324219 319.765625 178.929688 C 317.832031 179.496094 315.902344 179.839844 313.855469 180.027344 C 311.582031 180.253906 308.019531 180.484375 306.691406 180.105469 C 306.125 179.914062 305.820312 179.6875 305.59375 179.34375 C 305.328125 178.964844 305.214844 178.4375 305.253906 178.019531 C 305.328125 177.601562 305.554688 177.109375 305.898438 176.84375 C 306.199219 176.542969 307.148438 176.351562 307.148438 176.351562 "/></clipPath><clipPath id="2595dbf843"><path d="M 318.40625 168.519531 L 336.296875 168.519531 L 336.296875 193.792969 L 318.40625 193.792969 Z M 318.40625 168.519531 "/></clipPath><clipPath id="46f6f4d267"><path d="M 330.1875 168.546875 C 334.128906 169.152344 334.734375 172.296875 335.226562 174.039062 C 335.644531 175.554688 335.792969 176.617188 335.945312 178.359375 C 336.171875 181.050781 336.515625 186.203125 335.984375 188.742188 C 335.679688 190.257812 335.113281 191.472656 334.429688 192.265625 C 333.898438 192.910156 333.257812 193.328125 332.535156 193.554688 C 331.816406 193.78125 331.019531 193.894531 330.109375 193.554688 C 328.445312 192.949219 326.246094 189.539062 324.238281 188.210938 C 322.570312 187.152344 319.992188 186.847656 319.160156 185.976562 C 318.667969 185.445312 318.476562 184.800781 318.476562 184.308594 C 318.515625 183.894531 318.742188 183.476562 319.007812 183.210938 C 319.273438 182.945312 319.691406 182.71875 320.070312 182.640625 C 320.449219 182.605469 320.941406 182.640625 321.28125 182.871094 C 321.699219 183.136719 322.191406 183.816406 322.265625 184.347656 C 322.304688 184.839844 322 185.636719 321.585938 185.976562 C 321.207031 186.316406 320.335938 186.429688 319.84375 186.355469 C 319.464844 186.28125 319.085938 185.976562 318.855469 185.671875 C 318.628906 185.371094 318.476562 184.914062 318.476562 184.5 C 318.476562 184.121094 318.628906 183.664062 318.855469 183.363281 C 319.121094 183.058594 319.425781 182.792969 319.878906 182.71875 C 320.636719 182.566406 322.078125 183.019531 323.136719 183.4375 C 324.351562 183.855469 325.601562 184.613281 326.699219 185.371094 C 327.800781 186.089844 329.125 186.960938 329.808594 187.832031 C 330.300781 188.476562 330.339844 189.804688 330.753906 189.878906 C 331.132812 189.957031 331.816406 189.347656 332.15625 188.628906 C 332.914062 186.886719 332.535156 181.503906 332.15625 178.398438 C 331.855469 175.671875 329.769531 171.351562 330.339844 170.894531 C 330.640625 170.667969 332.15625 171.617188 332.15625 171.804688 C 332.121094 171.996094 331.210938 172.261719 330.753906 172.183594 C 330.222656 172.070312 329.542969 171.617188 329.277344 171.199219 C 329.011719 170.859375 328.9375 170.289062 329.050781 169.871094 C 329.203125 169.417969 330.1875 168.546875 330.1875 168.546875 "/></clipPath><clipPath id="e7b228dd8e"><path d="M 252.570312 181.757812 L 324.207031 181.757812 L 324.207031 187.285156 L 252.570312 187.285156 Z M 252.570312 181.757812 "/></clipPath><clipPath id="52f5ce29b3"><path d="M 322.265625 187.265625 C 289.945312 185.21875 270.011719 185.558594 262.019531 185.9375 C 258.417969 186.128906 255.804688 187 254.289062 186.621094 C 253.53125 186.429688 253.074219 186.050781 252.808594 185.636719 C 252.582031 185.292969 252.542969 184.800781 252.621094 184.421875 C 252.660156 184.042969 252.886719 183.628906 253.152344 183.363281 C 253.453125 183.097656 253.871094 182.871094 254.25 182.871094 C 254.742188 182.832031 255.574219 183.171875 255.917969 183.515625 C 256.21875 183.777344 256.371094 184.234375 256.371094 184.613281 C 256.371094 185.105469 256.03125 185.9375 255.613281 186.242188 C 255.195312 186.546875 254.363281 186.695312 253.871094 186.546875 C 253.378906 186.355469 252.808594 185.710938 252.660156 185.257812 C 252.507812 184.878906 252.582031 184.386719 252.695312 184.042969 C 252.847656 183.664062 253.113281 183.363281 253.492188 183.097656 C 254.058594 182.757812 254.667969 182.679688 256.03125 182.492188 C 261.789062 181.734375 293.050781 181.734375 301.046875 181.808594 C 303.964844 181.847656 304.535156 181.847656 306.996094 182 C 310.976562 182.261719 320.636719 182.757812 322.796875 183.550781 C 323.402344 183.777344 323.667969 184.007812 323.898438 184.347656 C 324.125 184.6875 324.238281 185.257812 324.160156 185.671875 C 324.125 186.089844 323.859375 186.582031 323.519531 186.847656 C 323.214844 187.113281 322.265625 187.265625 322.265625 187.265625 "/></clipPath><clipPath id="c969dcebfe"><path d="M 183.519531 181.902344 L 260.238281 181.902344 L 260.238281 186.808594 L 183.519531 186.808594 Z M 183.519531 181.902344 "/></clipPath><clipPath id="cb7eaabec4"><path d="M 185.4375 182.871094 C 208.777344 181.960938 222.875 182.566406 232.726562 182.492188 C 240.910156 182.414062 251.710938 181.847656 255.160156 181.921875 C 256.183594 181.960938 256.449219 181.808594 257.167969 182.035156 C 258.113281 182.378906 259.972656 183.398438 260.199219 184.15625 C 260.351562 184.6875 259.859375 185.445312 259.480469 185.789062 C 259.175781 186.050781 258.757812 186.203125 258.34375 186.203125 C 257.851562 186.167969 257.09375 185.75 256.75 185.371094 C 256.484375 185.066406 256.410156 184.613281 256.410156 184.234375 C 256.410156 183.855469 256.5625 183.398438 256.828125 183.097656 C 257.167969 182.757812 257.964844 182.378906 258.457031 182.414062 C 258.988281 182.453125 259.707031 182.984375 259.972656 183.363281 C 260.199219 183.703125 260.238281 184.195312 260.199219 184.574219 C 260.125 184.953125 259.894531 185.371094 259.628906 185.636719 C 259.367188 185.902344 258.910156 186.128906 258.53125 186.167969 C 258.152344 186.203125 257.699219 186.167969 257.355469 185.9375 C 256.941406 185.671875 256.449219 184.421875 256.410156 184.421875 C 256.410156 184.460938 257.320312 185.523438 257.09375 185.863281 C 256.5625 186.695312 250.726562 185.671875 247.089844 185.710938 C 242.730469 185.75 238.523438 186.203125 232.726562 186.28125 C 224.011719 186.394531 208.589844 185.75 199.875 185.9375 C 194.078125 186.050781 187.785156 187.191406 185.4375 186.660156 C 184.601562 186.507812 184.1875 186.242188 183.882812 185.863281 C 183.617188 185.523438 183.503906 184.953125 183.542969 184.535156 C 183.617188 184.121094 183.882812 183.628906 184.1875 183.363281 C 184.488281 183.097656 185.4375 182.871094 185.4375 182.871094 "/></clipPath><clipPath id="af9e162d8b"><path d="M 252.625 183.765625 L 257.527344 183.765625 L 257.527344 252.34375 L 252.625 252.34375 Z M 252.625 183.765625 "/></clipPath><clipPath id="915b767398"><path d="M 256.941406 185.671875 C 257.964844 218.828125 257.355469 241.945312 257.128906 246.679688 C 257.09375 247.703125 257.207031 247.855469 256.976562 248.574219 C 256.636719 249.636719 255.5 251.984375 254.78125 252.289062 C 254.402344 252.441406 253.910156 252.214844 253.605469 251.949219 C 253.226562 251.644531 252.773438 250.925781 252.773438 250.394531 C 252.773438 249.863281 253.1875 249.144531 253.566406 248.839844 C 253.910156 248.574219 254.324219 248.425781 254.742188 248.5 C 255.234375 248.539062 255.992188 248.992188 256.257812 249.410156 C 256.523438 249.710938 256.597656 250.167969 256.523438 250.582031 C 256.449219 251.039062 255.957031 251.796875 255.539062 252.0625 C 255.199219 252.289062 254.742188 252.328125 254.363281 252.25 C 253.984375 252.214844 253.566406 251.984375 253.300781 251.683594 C 253.039062 251.417969 252.773438 251 252.773438 250.582031 C 252.773438 250.128906 253.074219 249.296875 253.417969 248.953125 C 253.71875 248.652344 254.554688 248.539062 254.554688 248.5 C 254.515625 248.460938 253.53125 249.105469 253.1875 248.804688 C 251.597656 247.476562 253.910156 229.703125 254.023438 222.203125 C 254.136719 216.785156 254.175781 213.335938 254.058594 208.105469 C 253.910156 201.476562 252.660156 188.515625 253.152344 185.671875 C 253.265625 184.992188 253.339844 184.726562 253.605469 184.421875 C 253.871094 184.121094 254.402344 183.855469 254.816406 183.816406 C 255.199219 183.742188 255.765625 183.855469 256.105469 184.121094 C 256.484375 184.421875 256.941406 185.671875 256.941406 185.671875 "/></clipPath><clipPath id="9652618c95"><path d="M 252.417969 244.875 L 257 244.875 L 257 290.238281 L 252.417969 290.238281 Z M 252.417969 244.875 "/></clipPath><clipPath id="4ebb543667"><path d="M 256.484375 246.792969 C 256.863281 269.910156 257.394531 284.953125 256.523438 288.363281 C 256.296875 289.234375 256.070312 289.613281 255.691406 289.917969 C 255.347656 290.179688 254.894531 290.257812 254.515625 290.21875 C 254.136719 290.21875 253.679688 290.066406 253.378906 289.800781 C 253.039062 289.421875 252.734375 288.628906 252.734375 288.136719 C 252.734375 287.71875 253 287.300781 253.265625 287.035156 C 253.53125 286.769531 253.910156 286.507812 254.324219 286.46875 C 254.816406 286.429688 255.652344 286.65625 255.992188 287.035156 C 256.371094 287.414062 256.523438 288.285156 256.484375 288.742188 C 256.410156 289.160156 256.144531 289.539062 255.839844 289.800781 C 255.539062 290.03125 255.121094 290.21875 254.703125 290.21875 C 254.324219 290.257812 253.871094 290.179688 253.566406 289.917969 C 253.1875 289.613281 252.921875 289.234375 252.734375 288.324219 C 251.902344 284.953125 253.074219 269.945312 253.039062 262.367188 C 253 256.53125 252.28125 249.066406 252.695312 246.792969 C 252.808594 246.113281 252.886719 245.847656 253.152344 245.542969 C 253.453125 245.203125 253.945312 244.9375 254.363281 244.898438 C 254.78125 244.863281 255.3125 244.976562 255.652344 245.242188 C 256.03125 245.542969 256.484375 246.792969 256.484375 246.792969 "/></clipPath><clipPath id="f1260bf56a"><path d="M 252.675781 270.078125 L 278.988281 270.078125 L 278.988281 292 L 252.675781 292 Z M 252.675781 270.078125 "/></clipPath><clipPath id="40232a7532"><path d="M 253.53125 288.476562 C 264.9375 279.722656 270.429688 274.039062 273.308594 272.03125 C 274.75 271.007812 275.847656 270.175781 276.796875 270.136719 C 277.441406 270.097656 278.121094 270.363281 278.464844 270.78125 C 278.804688 271.160156 278.957031 271.992188 278.878906 272.484375 C 278.804688 272.902344 278.5 273.28125 278.199219 273.507812 C 277.894531 273.734375 277.441406 273.925781 277.0625 273.886719 C 276.570312 273.851562 275.773438 273.472656 275.46875 273.09375 C 275.203125 272.789062 275.128906 272.296875 275.128906 271.917969 C 275.167969 271.539062 275.28125 271.082031 275.582031 270.78125 C 275.925781 270.441406 276.71875 270.097656 277.210938 270.136719 C 277.628906 270.136719 278.046875 270.363281 278.3125 270.628906 C 278.613281 270.894531 278.878906 271.273438 278.917969 271.691406 C 278.957031 272.183594 278.765625 272.863281 278.351562 273.355469 C 277.820312 274.078125 276.683594 274.230469 275.507812 275.136719 C 273.308594 276.804688 269.710938 280.632812 266.527344 283.285156 C 263.117188 286.128906 257.621094 290.675781 255.726562 291.582031 C 255.121094 291.886719 254.816406 291.960938 254.402344 291.925781 C 253.984375 291.886719 253.492188 291.621094 253.226562 291.316406 C 252.921875 290.976562 252.695312 290.484375 252.734375 290.066406 C 252.773438 289.574219 253.53125 288.476562 253.53125 288.476562 "/></clipPath><clipPath id="ae660bd2c1"><path d="M 275.113281 270.121094 L 301.484375 270.121094 L 301.484375 291.144531 L 275.113281 291.144531 Z M 275.113281 270.121094 "/></clipPath><clipPath id="2d511b9f48"><path d="M 278.085938 270.402344 C 297.636719 285.785156 300.289062 287.035156 301.085938 288.097656 C 301.386719 288.550781 301.464844 288.855469 301.425781 289.273438 C 301.386719 289.765625 300.933594 290.523438 300.554688 290.824219 C 300.25 291.054688 299.757812 291.128906 299.378906 291.089844 C 299 291.089844 298.546875 290.9375 298.28125 290.636719 C 297.941406 290.257812 297.636719 289.460938 297.636719 288.96875 C 297.675781 288.550781 297.902344 288.136719 298.207031 287.871094 C 298.46875 287.605469 298.847656 287.378906 299.265625 287.339844 C 299.757812 287.300781 300.59375 287.605469 300.933594 287.945312 C 301.238281 288.210938 301.386719 288.664062 301.425781 289.042969 C 301.464844 289.421875 301.351562 289.917969 301.125 290.21875 C 300.933594 290.558594 300.59375 290.902344 300.175781 290.976562 C 299.722656 291.128906 299.152344 291.054688 298.433594 290.75 C 296.839844 290.144531 294.300781 288.023438 291.574219 285.976562 C 287.332031 282.832031 277.25 275.441406 275.660156 273.28125 C 275.242188 272.75 275.167969 272.484375 275.128906 272.070312 C 275.128906 271.652344 275.316406 271.121094 275.582031 270.78125 C 275.847656 270.476562 276.339844 270.210938 276.757812 270.136719 C 277.175781 270.0625 278.085938 270.402344 278.085938 270.402344 "/></clipPath><clipPath id="7ad5a0974b"><path d="M 297.464844 216.667969 L 301.871094 216.667969 L 301.871094 290 L 297.464844 290 Z M 297.464844 216.667969 "/></clipPath><clipPath id="6428011a6f"><path d="M 297.636719 288.097656 C 297.523438 226.03125 297.257812 220.800781 297.902344 218.566406 C 298.089844 217.769531 298.28125 217.3125 298.734375 217.011719 C 299.191406 216.707031 300.023438 216.632812 300.515625 216.820312 C 300.972656 217.046875 301.539062 217.691406 301.652344 218.1875 C 301.730469 218.714844 301.503906 219.511719 301.160156 219.890625 C 300.78125 220.269531 299.984375 220.535156 299.457031 220.460938 C 298.925781 220.34375 298.28125 219.851562 298.054688 219.359375 C 297.828125 218.90625 297.902344 218.035156 298.167969 217.578125 C 298.433594 217.164062 299.226562 216.746094 299.683594 216.707031 C 300.101562 216.632812 300.554688 216.785156 300.859375 217.046875 C 301.238281 217.351562 301.503906 217.769531 301.691406 218.601562 C 302.222656 220.988281 301.3125 226.710938 301.238281 233.078125 C 301.046875 245.507812 302.296875 283.324219 301.425781 288.097656 C 301.273438 288.855469 301.238281 289.042969 300.933594 289.386719 C 300.667969 289.6875 300.175781 289.953125 299.757812 289.992188 C 299.34375 290.03125 298.8125 289.953125 298.433594 289.6875 C 298.054688 289.347656 297.636719 288.097656 297.636719 288.097656 "/></clipPath><clipPath id="056ffc11f0"><path d="M 297.210938 182.21875 L 301.710938 182.21875 L 301.710938 224.878906 L 297.210938 224.878906 Z M 297.210938 182.21875 "/></clipPath><clipPath id="154614c45b"><path d="M 297.789062 222.960938 C 297.144531 186.015625 297.105469 184.460938 297.371094 183.550781 C 297.484375 183.171875 297.597656 182.984375 297.828125 182.792969 C 298.128906 182.527344 298.621094 182.226562 299.078125 182.226562 C 299.570312 182.226562 300.363281 182.527344 300.667969 182.90625 C 301.007812 183.324219 301.160156 184.195312 301.007812 184.6875 C 300.820312 185.179688 300.214844 185.789062 299.722656 185.9375 C 299.191406 186.050781 298.355469 185.902344 297.976562 185.558594 C 297.5625 185.21875 297.257812 184.421875 297.296875 183.894531 C 297.371094 183.398438 297.828125 182.679688 298.28125 182.453125 C 298.773438 182.1875 299.605469 182.1875 300.0625 182.414062 C 300.515625 182.679688 300.972656 183.398438 301.085938 183.894531 C 301.160156 184.273438 301.046875 184.726562 300.820312 185.066406 C 300.515625 185.484375 299.835938 185.976562 299.304688 185.976562 C 298.773438 186.015625 298.015625 185.636719 297.675781 185.257812 C 297.410156 184.953125 297.296875 184.5 297.296875 184.121094 C 297.296875 183.664062 297.523438 183.097656 297.828125 182.792969 C 298.128906 182.453125 298.660156 182.226562 299.078125 182.226562 C 299.492188 182.1875 300.023438 182.339844 300.363281 182.605469 C 300.667969 182.871094 300.859375 183.097656 301.046875 183.742188 C 301.691406 186.015625 300.820312 194.464844 300.894531 200.453125 C 300.972656 207.425781 302.070312 220.117188 301.578125 222.960938 C 301.464844 223.679688 301.386719 223.90625 301.125 224.25 C 300.859375 224.550781 300.328125 224.816406 299.910156 224.855469 C 299.492188 224.890625 298.964844 224.816406 298.621094 224.550781 C 298.242188 224.210938 297.789062 222.960938 297.789062 222.960938 "/></clipPath></defs><g id="a1015ae5c9"><g clip-rule="nonzero" clip-path="url(#fee65d1f07)"><g clip-rule="nonzero" clip-path="url(#4a1b20ad45)"><path style=" stroke:none;fill-rule:nonzero;fill:currentColor;fill-opacity:1;" d="M 37.5 87.472656 L 55.207031 87.472656 L 55.207031 103.953125 L 37.5 103.953125 Z M 37.5 87.472656 "/></g></g><g clip-rule="nonzero" clip-path="url(#7600183cc4)"><g clip-rule="nonzero" clip-path="url(#8ff4017a38)"><path style=" stroke:none;fill-rule:nonzero;fill:currentColor;fill-opacity:1;" d="M 48.261719 89.101562 L 115.027344 89.101562 L 115.027344 96.753906 L 48.261719 96.753906 Z M 48.261719 89.101562 "/></g></g><g clip-rule="nonzero" clip-path="url(#945bcd9f17)"><g clip-rule="nonzero" clip-path="url(#2a89415a0a)"><path style=" stroke:none;fill-rule:nonzero;fill:currentColor;fill-opacity:1;" d="M 105.515625 89.289062 L 175.617188 89.289062 L 175.617188 96.300781 L 105.515625 96.300781 Z M 105.515625 89.289062 "/></g></g><g clip-rule="nonzero" clip-path="url(#cce0482c3d)"><g clip-rule="nonzero" clip-path="url(#f27099af1e)"><path style=" stroke:none;fill-rule:nonzero;fill:currentColor;fill-opacity:1;" d="M 165.085938 81.523438 L 195.660156 81.523438 L 195.660156 96.261719 L 165.085938 96.261719 Z M 165.085938 81.523438 "/></g></g><g clip-rule="nonzero" clip-path="url(#e1ce6a9c4d)"><g clip-rule="nonzero" clip-path="url(#5c6d3b1a44)"><path style=" stroke:none;fill-rule:nonzero;fill:currentColor;fill-opacity:1;" d="M 178.308594 81.558594 L 198.847656 81.558594 L 198.847656 109.71875 L 178.308594 109.71875 Z M 178.308594 81.558594 "/></g></g><g clip-rule="nonzero" clip-path="url(#ebbbe64ae6)"><g clip-rule="nonzero" clip-path="url(#f7c09ab09e)"><path style=" stroke:none;fill-rule:nonzero;fill:currentColor;fill-opacity:1;" d="M 112.453125 94.9375 L 187.050781 94.9375 L 187.050781 103.460938 L 112.453125 103.460938 Z M 112.453125 94.9375 "/></g></g><g clip-rule="nonzero" clip-path="url(#646ddd1bd4)"><g clip-rule="nonzero" clip-path="url(#44c35faee7)"><path style=" stroke:none;fill-rule:nonzero;fill:currentColor;fill-opacity:1;" d="M 43.375 95.050781 L 123.046875 95.050781 L 123.046875 102.855469 L 43.375 102.855469 Z M 43.375 95.050781 "/></g></g><g clip-rule="nonzero" clip-path="url(#d63cf76bd2)"><g clip-rule="nonzero" clip-path="url(#416c59b8ef)"><path style=" stroke:none;fill-rule:nonzero;fill:currentColor;fill-opacity:1;" d="M 112.601562 96.945312 L 120.75 96.945312 L 120.75 168.453125 L 112.601562 168.453125 Z M 112.601562 96.945312 "/></g></g><g clip-rule="nonzero" clip-path="url(#0357f5edc2)"><g clip-rule="nonzero" clip-path="url(#73fe7ab7ac)"><path style=" stroke:none;fill-rule:nonzero;fill:currentColor;fill-opacity:1;" d="M 112.527344 158.027344 L 119.726562 158.027344 L 119.726562 206.425781 L 112.527344 206.425781 Z M 112.527344 158.027344 "/></g></g><g clip-rule="nonzero" clip-path="url(#e911d2e862)"><g clip-rule="nonzero" clip-path="url(#1a864dbb29)"><path style=" stroke:none;fill-rule:nonzero;fill:currentColor;fill-opacity:1;" d="M 112.566406 183.261719 L 141.792969 183.261719 L 141.792969 208.121094 L 112.566406 208.121094 Z M 112.566406 183.261719 "/></g></g><g clip-rule="nonzero" clip-path="url(#e5a95431eb)"><g clip-rule="nonzero" clip-path="url(#5e96f3857a)"><path style=" stroke:none;fill-rule:nonzero;fill:currentColor;fill-opacity:1;" d="M 134.960938 183.261719 L 164.332031 183.261719 L 164.332031 207.289062 L 134.960938 207.289062 Z M 134.960938 183.261719 "/></g></g><g clip-rule="nonzero" clip-path="url(#06ef9e1a44)"><g clip-rule="nonzero" clip-path="url(#f92988b7e4)"><path style=" stroke:none;fill-rule:nonzero;fill:currentColor;fill-opacity:1;" d="M 157.277344 129.835938 L 164.554688 129.835938 L 164.554688 206.199219 L 157.277344 206.199219 Z M 157.277344 129.835938 "/></g></g><g clip-rule="nonzero" clip-path="url(#8bf77636b4)"><g clip-rule="nonzero" clip-path="url(#61709face0)"><path style=" stroke:none;fill-rule:nonzero;fill:currentColor;fill-opacity:1;" d="M 156.898438 95.351562 L 164.476562 95.351562 L 164.476562 141.0625 L 156.898438 141.0625 Z M 156.898438 95.351562 "/></g></g><g clip-rule="nonzero" clip-path="url(#d51e041c74)"><g clip-rule="nonzero" clip-path="url(#c36258c5da)"><path style=" stroke:none;fill-rule:nonzero;fill:currentColor;fill-opacity:1;" d="M 176.152344 172.828125 L 193.859375 172.828125 L 193.859375 189.3125 L 176.152344 189.3125 Z M 176.152344 172.828125 "/></g></g><g clip-rule="nonzero" clip-path="url(#eb4e2646d5)"><g clip-rule="nonzero" clip-path="url(#615527daa4)"><path style=" stroke:none;fill-rule:nonzero;fill:currentColor;fill-opacity:1;" d="M 186.914062 174.457031 L 253.679688 174.457031 L 253.679688 182.113281 L 186.914062 182.113281 Z M 186.914062 174.457031 "/></g></g><g clip-rule="nonzero" clip-path="url(#39005b9128)"><g clip-rule="nonzero" clip-path="url(#79e3d634d0)"><path style=" stroke:none;fill-rule:nonzero;fill:currentColor;fill-opacity:1;" d="M 244.171875 174.648438 L 314.273438 174.648438 L 314.273438 181.65625 L 244.171875 181.65625 Z M 244.171875 174.648438 "/></g></g><g clip-rule="nonzero" clip-path="url(#ad1facac72)"><g clip-rule="nonzero" clip-path="url(#fd939d725e)"><path style=" stroke:none;fill-rule:nonzero;fill:currentColor;fill-opacity:1;" d="M 303.738281 166.878906 L 334.3125 166.878906 L 334.3125 181.621094 L 303.738281 181.621094 Z M 303.738281 166.878906 "/></g></g><g clip-rule="nonzero" clip-path="url(#2595dbf843)"><g clip-rule="nonzero" clip-path="url(#46f6f4d267)"><path style=" stroke:none;fill-rule:nonzero;fill:currentColor;fill-opacity:1;" d="M 316.960938 166.917969 L 337.5 166.917969 L 337.5 195.074219 L 316.960938 195.074219 Z M 316.960938 166.917969 "/></g></g><g clip-rule="nonzero" clip-path="url(#e7b228dd8e)"><g clip-rule="nonzero" clip-path="url(#52f5ce29b3)"><path style=" stroke:none;fill-rule:nonzero;fill:currentColor;fill-opacity:1;" d="M 251.105469 180.292969 L 325.707031 180.292969 L 325.707031 188.820312 L 251.105469 188.820312 Z M 251.105469 180.292969 "/></g></g><g clip-rule="nonzero" clip-path="url(#c969dcebfe)"><g clip-rule="nonzero" clip-path="url(#cb7eaabec4)"><path style=" stroke:none;fill-rule:nonzero;fill:currentColor;fill-opacity:1;" d="M 182.027344 180.40625 L 261.703125 180.40625 L 261.703125 188.210938 L 182.027344 188.210938 Z M 182.027344 180.40625 "/></g></g><g clip-rule="nonzero" clip-path="url(#af9e162d8b)"><g clip-rule="nonzero" clip-path="url(#915b767398)"><path style=" stroke:none;fill-rule:nonzero;fill:currentColor;fill-opacity:1;" d="M 251.257812 182.300781 L 259.402344 182.300781 L 259.402344 253.808594 L 251.257812 253.808594 Z M 251.257812 182.300781 "/></g></g><g clip-rule="nonzero" clip-path="url(#9652618c95)"><g clip-rule="nonzero" clip-path="url(#4ebb543667)"><path style=" stroke:none;fill-rule:nonzero;fill:currentColor;fill-opacity:1;" d="M 251.179688 243.382812 L 258.378906 243.382812 L 258.378906 291.785156 L 251.179688 291.785156 Z M 251.179688 243.382812 "/></g></g><g clip-rule="nonzero" clip-path="url(#f1260bf56a)"><g clip-rule="nonzero" clip-path="url(#40232a7532)"><path style=" stroke:none;fill-rule:nonzero;fill:currentColor;fill-opacity:1;" d="M 251.21875 268.621094 L 280.445312 268.621094 L 280.445312 293.476562 L 251.21875 293.476562 Z M 251.21875 268.621094 "/></g></g><g clip-rule="nonzero" clip-path="url(#ae660bd2c1)"><g clip-rule="nonzero" clip-path="url(#2d511b9f48)"><path style=" stroke:none;fill-rule:nonzero;fill:currentColor;fill-opacity:1;" d="M 273.613281 268.621094 L 302.984375 268.621094 L 302.984375 292.644531 L 273.613281 292.644531 Z M 273.613281 268.621094 "/></g></g><g clip-rule="nonzero" clip-path="url(#7ad5a0974b)"><g clip-rule="nonzero" clip-path="url(#6428011a6f)"><path style=" stroke:none;fill-rule:nonzero;fill:currentColor;fill-opacity:1;" d="M 295.933594 215.191406 L 303.207031 215.191406 L 303.207031 291.554688 L 295.933594 291.554688 Z M 295.933594 215.191406 "/></g></g><g clip-rule="nonzero" clip-path="url(#056ffc11f0)"><g clip-rule="nonzero" clip-path="url(#154614c45b)"><path style=" stroke:none;fill-rule:nonzero;fill:currentColor;fill-opacity:1;" d="M 295.554688 180.710938 L 303.132812 180.710938 L 303.132812 226.417969 L 295.554688 226.417969 Z M 295.554688 180.710938 "/></g></g></g></svg>