<svg xmlns="http://www.w3.org/2000/svg" xmlns:xlink="http://www.w3.org/1999/xlink" width="500" zoomAndPan="magnify" viewBox="0 0 375 374.999991" height="500" preserveAspectRatio="xMidYMid meet" version="1.2"><defs><clipPath id="baf84657c1"><path d="M 74.132812 235.6875 L 86.917969 235.6875 L 86.917969 316.085938 L 74.132812 316.085938 Z M 74.132812 235.6875 "/></clipPath><clipPath id="5ebd6ef089"><path d="M 81.21875 239.234375 C 86.769531 313.90625 86.703125 314.183594 86.148438 314.738281 C 85.523438 315.433594 84.066406 316.054688 83.164062 316.054688 C 82.46875 316.054688 81.636719 315.710938 81.148438 315.222656 C 80.527344 314.53125 79.96875 313.074219 79.96875 312.171875 C 80.039062 311.40625 80.457031 310.644531 80.941406 310.15625 C 81.429688 309.671875 82.191406 309.1875 82.953125 309.1875 C 83.855469 309.117188 85.382812 309.535156 86.007812 310.226562 C 86.632812 310.992188 86.980469 312.515625 86.839844 313.417969 C 86.703125 314.113281 86.148438 314.808594 85.660156 315.292969 C 85.105469 315.710938 84.34375 316.125 83.578125 316.054688 C 82.675781 316.054688 81.289062 315.363281 80.664062 314.667969 C 79.96875 313.976562 79.761719 313.210938 79.484375 311.824219 C 78.722656 308.285156 79.277344 300.511719 78.789062 292.53125 C 77.957031 279.136719 73.445312 245.273438 74.28125 239.234375 C 74.488281 237.917969 74.695312 237.5 75.183594 236.875 C 75.667969 236.320312 76.570312 235.835938 77.332031 235.765625 C 78.097656 235.695312 79.136719 235.835938 79.761719 236.320312 C 80.457031 236.945312 81.21875 239.234375 81.21875 239.234375 "/></clipPath><clipPath id="c165eeca37"><path d="M 40.195312 195.019531 L 136.648438 195.019531 L 136.648438 266.308594 L 40.195312 266.308594 Z M 40.195312 195.019531 "/></clipPath><clipPath id="46d761d163"><path d="M 41.316406 260.332031 C 56.582031 247.355469 66.714844 241.246094 75.042969 235.277344 C 83.855469 228.964844 93.085938 221.398438 101.96875 215.15625 C 110.226562 209.1875 121.332031 201.832031 126.535156 198.5 C 128.894531 196.972656 130.28125 195.792969 131.671875 195.308594 C 132.574219 195.03125 133.199219 194.960938 133.890625 195.097656 C 134.585938 195.238281 135.347656 195.722656 135.765625 196.277344 C 136.25 196.832031 136.597656 197.597656 136.597656 198.359375 C 136.527344 199.261719 135.972656 200.71875 135.210938 201.273438 C 134.445312 201.832031 132.917969 202.109375 132.019531 201.761719 C 131.117188 201.484375 130.074219 200.234375 129.796875 199.402344 C 129.519531 198.707031 129.660156 197.804688 129.9375 197.179688 C 130.214844 196.554688 130.699219 195.792969 131.394531 195.515625 C 132.15625 195.097656 133.753906 194.960938 134.585938 195.375 C 135.488281 195.792969 136.390625 197.042969 136.527344 197.945312 C 136.738281 198.914062 136.460938 199.816406 135.488281 200.996094 C 132.296875 205.09375 115.710938 213.835938 106.339844 220.496094 C 97.179688 227.019531 88.160156 234.445312 79.691406 240.484375 C 72.265625 245.828125 64.425781 250.40625 58.320312 255.058594 C 53.324219 258.734375 48.1875 264.5625 45.410156 265.8125 C 44.441406 266.300781 43.746094 266.367188 42.980469 266.230469 C 42.289062 266.089844 41.386719 265.535156 40.96875 264.910156 C 40.484375 264.285156 40.207031 263.316406 40.277344 262.550781 C 40.277344 261.789062 41.316406 260.332031 41.316406 260.332031 "/></clipPath><clipPath id="93e1b1415c"><path d="M 43.417969 308.957031 L 128.523438 308.957031 L 128.523438 317.621094 L 43.417969 317.621094 Z M 43.417969 308.957031 "/></clipPath><clipPath id="b827c972c7"><path d="M 46.867188 310.296875 C 79.347656 309.878906 82.328125 310.503906 88.230469 310.574219 C 97.734375 310.644531 120.152344 308.355469 125.078125 309.117188 C 126.328125 309.324219 126.8125 309.535156 127.367188 310.019531 C 127.921875 310.503906 128.410156 311.40625 128.476562 312.171875 C 128.617188 312.933594 128.410156 313.976562 127.921875 314.597656 C 127.367188 315.292969 125.980469 316.054688 125.078125 316.054688 C 124.105469 316.054688 122.71875 315.292969 122.164062 314.53125 C 121.746094 313.976562 121.46875 313.140625 121.609375 312.449219 C 121.675781 311.546875 122.441406 310.15625 123.273438 309.671875 C 124.105469 309.117188 125.632812 309.046875 126.535156 309.464844 C 127.367188 309.878906 128.339844 311.128906 128.476562 312.03125 C 128.617188 313.003906 128.132812 314.460938 127.4375 315.15625 C 126.742188 315.777344 125.21875 316.195312 124.316406 315.988281 C 123.34375 315.777344 122.164062 314.808594 121.816406 313.90625 C 121.46875 313.003906 121.746094 311.476562 122.164062 310.644531 C 122.578125 310.019531 123.273438 309.535156 123.96875 309.324219 C 124.523438 309.117188 125.285156 309.046875 125.910156 309.253906 C 126.605469 309.464844 127.507812 310.089844 127.921875 310.644531 C 128.269531 311.128906 128.476562 311.613281 128.476562 312.171875 C 128.546875 312.933594 128.339844 313.976562 127.921875 314.597656 C 127.507812 315.222656 127.089844 315.570312 125.910156 315.988281 C 120.984375 317.652344 93.917969 317.652344 84.691406 317.515625 C 79.96875 317.445312 78.445312 316.890625 74.070312 316.75 C 66.992188 316.542969 49.921875 318.347656 46.035156 317.167969 C 44.925781 316.820312 44.441406 316.402344 44.023438 315.777344 C 43.605469 315.15625 43.328125 314.113281 43.46875 313.351562 C 43.539062 312.585938 44.023438 311.683594 44.578125 311.199219 C 45.132812 310.644531 46.867188 310.296875 46.867188 310.296875 "/></clipPath><clipPath id="25474583ee"><path d="M 164.148438 259.335938 L 172.347656 259.335938 L 172.347656 317.757812 L 164.148438 317.757812 Z M 164.148438 259.335938 "/></clipPath><clipPath id="a87031610e"><path d="M 165.257812 314.253906 C 163.871094 278.859375 164.078125 268.9375 164.425781 264.910156 C 164.566406 263.382812 164.496094 262.621094 164.980469 261.71875 C 165.398438 260.816406 166.367188 259.777344 167.339844 259.5 C 168.242188 259.222656 169.769531 259.566406 170.464844 260.191406 C 171.226562 260.816406 171.78125 262.273438 171.710938 263.246094 C 171.574219 264.21875 170.601562 265.464844 169.839844 265.953125 C 169.214844 266.300781 168.3125 266.367188 167.6875 266.300781 C 166.992188 266.160156 166.160156 265.746094 165.675781 265.257812 C 165.1875 264.703125 164.84375 263.871094 164.773438 263.175781 C 164.703125 262.484375 164.84375 261.648438 165.257812 261.023438 C 165.8125 260.332031 167.132812 259.429688 168.035156 259.359375 C 169.007812 259.359375 170.394531 260.125 171.019531 260.746094 C 171.503906 261.304688 171.574219 261.789062 171.710938 262.898438 C 172.199219 266.507812 170.878906 278.582031 170.949219 286.839844 C 171.019531 295.652344 172.824219 310.15625 172.199219 314.253906 C 171.988281 315.5 171.851562 315.988281 171.296875 316.542969 C 170.808594 317.097656 169.90625 317.582031 169.144531 317.722656 C 168.382812 317.792969 167.339844 317.582031 166.714844 317.097656 C 166.023438 316.542969 165.257812 314.253906 165.257812 314.253906 "/></clipPath><clipPath id="414206fbfd"><path d="M 164.710938 234.039062 L 210 234.039062 L 210 270.914062 L 164.710938 270.914062 Z M 164.710938 234.039062 "/></clipPath><clipPath id="e0795ccf82"><path d="M 164.84375 266.089844 C 165.121094 258.527344 165.746094 255.960938 166.4375 253.667969 C 167.132812 251.378906 167.964844 249.160156 169.007812 247.007812 C 170.046875 244.855469 171.503906 242.425781 172.753906 240.902344 C 173.65625 239.71875 174.210938 239.027344 175.390625 238.195312 C 177.054688 237.015625 179.761719 235.765625 182.050781 235.070312 C 184.34375 234.445312 187.117188 234.167969 189.0625 234.167969 C 190.449219 234.097656 191.558594 234.167969 192.671875 234.585938 C 193.851562 234.933594 194.683594 235.558594 195.792969 236.390625 C 197.390625 237.640625 199.472656 239.789062 200.996094 241.664062 C 202.59375 243.539062 203.980469 245.34375 205.160156 247.703125 C 206.617188 250.546875 207.9375 254.570312 208.769531 257.972656 C 209.464844 261.164062 210.019531 265.605469 209.878906 267.410156 C 209.878906 268.171875 209.8125 268.519531 209.535156 269.007812 C 209.117188 269.628906 208.355469 270.394531 207.660156 270.671875 C 206.964844 270.949219 205.855469 270.878906 205.230469 270.671875 C 204.675781 270.464844 204.191406 270.1875 203.84375 269.699219 C 203.425781 269.144531 202.941406 268.242188 202.941406 267.410156 C 203.011719 266.507812 203.566406 265.1875 204.328125 264.632812 C 205.09375 264.078125 206.617188 263.800781 207.589844 264.148438 C 208.492188 264.425781 209.535156 265.605469 209.8125 266.507812 C 210.019531 267.410156 209.671875 268.9375 209.046875 269.699219 C 208.421875 270.394531 206.964844 270.949219 206.0625 270.878906 C 205.09375 270.742188 203.84375 269.769531 203.355469 269.007812 C 202.941406 268.382812 202.871094 267.546875 203.011719 266.855469 C 203.148438 266.160156 203.496094 265.328125 204.050781 264.910156 C 204.746094 264.355469 206.273438 263.800781 207.171875 264.007812 C 208.144531 264.21875 209.253906 265.328125 209.671875 266.160156 C 210.019531 266.785156 209.949219 267.6875 209.742188 268.382812 C 209.601562 269.074219 209.046875 269.839844 208.421875 270.253906 C 207.796875 270.671875 206.757812 270.949219 205.992188 270.878906 C 205.230469 270.742188 204.46875 270.53125 203.84375 269.699219 C 202.523438 267.894531 202.523438 261.371094 201.554688 257.972656 C 200.789062 255.265625 200.304688 253.113281 198.914062 250.753906 C 197.390625 247.980469 194.265625 244.023438 192.324219 242.496094 C 191.144531 241.59375 190.171875 241.316406 189.0625 241.109375 C 187.882812 240.832031 186.492188 240.96875 185.246094 241.246094 C 184.132812 241.523438 183.023438 242.21875 181.984375 242.703125 C 180.871094 243.261719 179.625 243.605469 178.789062 244.371094 C 177.886719 245.0625 177.472656 245.898438 176.777344 247.144531 C 175.460938 249.4375 173.445312 253.808594 172.613281 257.207031 C 171.851562 260.402344 172.265625 265.121094 171.710938 266.925781 C 171.503906 267.6875 171.296875 267.964844 170.949219 268.382812 C 170.601562 268.796875 170.117188 269.144531 169.5625 269.351562 C 168.867188 269.5625 167.757812 269.5625 167.132812 269.351562 C 166.578125 269.144531 166.089844 268.867188 165.746094 268.382812 C 165.328125 267.828125 164.84375 266.089844 164.84375 266.089844 "/></clipPath><clipPath id="5f54b47f46"><path d="M 203.003906 259.328125 L 212.671875 259.328125 L 212.671875 316.242188 L 203.003906 316.242188 Z M 203.003906 259.328125 "/></clipPath><clipPath id="1867c503ae"><path d="M 210.089844 262.828125 C 212.449219 295.929688 213.210938 308.5625 212.238281 312.726562 C 211.824219 314.253906 211.40625 315.015625 210.714844 315.570312 C 210.089844 316.054688 209.253906 316.265625 208.5625 316.195312 C 207.660156 316.054688 206.273438 315.222656 205.785156 314.53125 C 205.300781 313.90625 205.230469 313.074219 205.300781 312.378906 C 205.371094 311.683594 205.714844 310.851562 206.203125 310.367188 C 206.6875 309.8125 207.453125 309.394531 208.144531 309.324219 C 209.046875 309.253906 210.574219 309.671875 211.269531 310.367188 C 211.894531 311.058594 212.238281 312.585938 212.101562 313.488281 C 212.03125 314.183594 211.546875 314.945312 210.992188 315.363281 C 210.433594 315.847656 209.601562 316.125 208.910156 316.195312 C 208.214844 316.265625 207.382812 316.054688 206.757812 315.570312 C 206.0625 315.015625 205.648438 314.253906 205.300781 312.726562 C 204.257812 308.5625 205.507812 296.210938 205.160156 287.882812 C 204.8125 279.554688 202.59375 266.644531 203.148438 262.828125 C 203.355469 261.582031 203.496094 261.09375 204.050781 260.539062 C 204.535156 259.914062 205.4375 259.429688 206.203125 259.359375 C 206.964844 259.289062 208.007812 259.429688 208.632812 259.984375 C 209.324219 260.539062 210.089844 262.828125 210.089844 262.828125 "/></clipPath><clipPath id="f83a908352"><path d="M 117.015625 309.519531 L 173 309.519531 L 173 318.128906 L 117.015625 318.128906 Z M 117.015625 309.519531 "/></clipPath><clipPath id="4cbdaf5049"><path d="M 120.496094 309.535156 C 171.574219 311.128906 171.921875 311.476562 172.335938 312.101562 C 172.824219 312.726562 173.03125 313.695312 172.960938 314.460938 C 172.824219 315.222656 172.40625 316.125 171.78125 316.679688 C 171.226562 317.167969 169.5625 317.652344 169.492188 317.515625 C 169.421875 317.445312 172.546875 315.5 172.613281 315.570312 C 172.683594 315.640625 171.78125 316.890625 171.085938 317.167969 C 170.253906 317.515625 168.660156 317.445312 167.824219 317.097656 C 167.132812 316.820312 166.578125 316.195312 166.300781 315.5 C 166.023438 314.597656 166.023438 313.003906 166.578125 312.238281 C 167.0625 311.40625 168.449219 310.644531 169.351562 310.574219 C 170.324219 310.574219 171.710938 311.269531 172.265625 312.03125 C 172.890625 312.796875 173.101562 314.320312 172.753906 315.222656 C 172.476562 316.125 171.296875 317.167969 170.394531 317.445312 C 169.421875 317.652344 167.894531 317.304688 167.203125 316.679688 C 166.507812 316.054688 165.8125 314.597656 166.089844 313.628906 C 166.367188 312.515625 168.726562 310.851562 169.492188 310.574219 C 169.839844 310.503906 169.976562 310.574219 170.324219 310.714844 C 170.878906 310.921875 171.921875 311.476562 172.335938 312.101562 C 172.824219 312.726562 173.03125 313.695312 172.960938 314.460938 C 172.824219 315.222656 172.40625 316.125 171.78125 316.679688 C 171.226562 317.167969 170.808594 317.304688 169.492188 317.515625 C 163.664062 318.554688 125.148438 318.136719 119.664062 316.335938 C 118.417969 315.988281 118.070312 315.570312 117.652344 314.945312 C 117.234375 314.320312 116.957031 313.351562 117.027344 312.585938 C 117.167969 311.824219 117.652344 310.921875 118.207031 310.433594 C 118.761719 309.878906 120.496094 309.535156 120.496094 309.535156 "/></clipPath><clipPath id="252b336e27"><path d="M 160.433594 310.777344 L 223 310.777344 L 223 318.5625 L 160.433594 318.5625 Z M 160.433594 310.777344 "/></clipPath><clipPath id="41f19ac5b1"><path d="M 163.941406 311.40625 C 215.847656 310.433594 218.347656 310.78125 220.152344 311.40625 C 221.121094 311.753906 221.816406 312.171875 222.234375 312.726562 C 222.648438 313.140625 222.855469 313.628906 222.925781 314.183594 C 222.996094 314.945312 222.925781 315.988281 222.441406 316.613281 C 221.957031 317.375 219.664062 318.207031 219.664062 318.277344 C 219.734375 318.347656 221.816406 317.445312 221.816406 317.445312 C 221.816406 317.445312 220.429688 318.207031 219.734375 318.277344 C 219.039062 318.347656 218.207031 318.070312 217.582031 317.722656 C 217.027344 317.304688 216.402344 316.679688 216.265625 315.988281 C 215.988281 315.085938 216.125 313.558594 216.679688 312.726562 C 217.304688 311.960938 218.761719 311.40625 219.664062 311.335938 C 220.359375 311.335938 221.191406 311.683594 221.675781 312.101562 C 222.234375 312.585938 222.789062 313.28125 222.855469 313.976562 C 222.996094 314.875 222.648438 316.472656 222.09375 317.167969 C 221.609375 317.722656 220.84375 318.070312 220.152344 318.207031 C 219.457031 318.347656 218.554688 318.207031 217.929688 317.929688 C 217.304688 317.582031 216.679688 317.027344 216.402344 316.335938 C 216.054688 315.5 215.988281 313.90625 216.472656 313.074219 C 217.097656 312.171875 219.109375 311.335938 220.152344 311.40625 C 220.984375 311.476562 221.816406 312.101562 222.234375 312.726562 C 222.71875 313.28125 222.996094 314.253906 222.996094 315.015625 C 222.925781 315.777344 222.511719 316.75 221.957031 317.304688 C 221.398438 317.792969 220.636719 318.136719 219.664062 318.277344 C 218.277344 318.417969 216.613281 317.445312 214.253906 317.234375 C 210.019531 316.820312 203.148438 317.027344 196.277344 317.167969 C 187.117188 317.304688 168.449219 319.109375 163.941406 318.347656 C 162.691406 318.207031 162.203125 318 161.648438 317.515625 C 161.023438 317.027344 160.609375 316.054688 160.46875 315.292969 C 160.402344 314.53125 160.609375 313.558594 161.09375 312.933594 C 161.648438 312.238281 163.941406 311.40625 163.941406 311.40625 "/></clipPath><clipPath id="3babf29d26"><path d="M 131.773438 226.535156 L 140.414062 226.535156 L 140.414062 313.296875 L 131.773438 313.296875 Z M 131.773438 226.535156 "/></clipPath><clipPath id="72940067b7"><path d="M 132.503906 309.8125 C 132.085938 228.339844 132.503906 227.714844 133.199219 227.160156 C 133.820312 226.742188 134.65625 226.464844 135.347656 226.605469 C 136.25 226.675781 137.640625 227.507812 138.125 228.269531 C 138.609375 228.894531 138.679688 229.726562 138.609375 230.421875 C 138.539062 231.117188 138.195312 231.949219 137.707031 232.433594 C 137.222656 232.917969 136.460938 233.40625 135.765625 233.476562 C 134.863281 233.542969 133.335938 233.128906 132.640625 232.433594 C 132.019531 231.738281 131.671875 230.214844 131.808594 229.3125 C 131.878906 228.546875 132.363281 227.855469 132.917969 227.4375 C 133.476562 226.953125 134.308594 226.605469 135 226.605469 C 135.695312 226.535156 136.527344 226.742188 137.152344 227.160156 C 137.847656 227.714844 138.195312 228.339844 138.679688 230.074219 C 140.761719 238.472656 140.832031 302.175781 139.441406 309.8125 C 139.234375 311.199219 139.097656 311.546875 138.609375 312.171875 C 138.054688 312.726562 137.152344 313.210938 136.390625 313.28125 C 135.625 313.351562 134.65625 313.210938 134.03125 312.726562 C 133.265625 312.101562 132.503906 309.8125 132.503906 309.8125 "/></clipPath><clipPath id="b63943682f"><path d="M 129.734375 161.324219 L 139.539062 161.324219 L 139.539062 244.976562 L 129.734375 244.976562 Z M 129.734375 161.324219 "/></clipPath><clipPath id="0806132533"><path d="M 132.433594 241.523438 C 129.726562 192.253906 129.101562 170.464844 130.492188 164.84375 C 130.90625 163.246094 131.324219 162.550781 132.019531 161.996094 C 132.640625 161.511719 133.40625 161.304688 134.167969 161.371094 C 135.070312 161.511719 136.460938 162.34375 136.945312 163.039062 C 137.359375 163.664062 137.5 164.496094 137.429688 165.1875 C 137.359375 165.882812 137.015625 166.714844 136.527344 167.203125 C 136.042969 167.757812 135.28125 168.171875 134.515625 168.242188 C 133.613281 168.3125 132.085938 167.894531 131.460938 167.203125 C 130.839844 166.507812 130.492188 164.980469 130.558594 164.078125 C 130.699219 163.382812 131.183594 162.621094 131.738281 162.203125 C 132.296875 161.71875 133.128906 161.441406 133.820312 161.371094 C 134.515625 161.304688 135.347656 161.511719 135.902344 161.996094 C 136.597656 162.550781 137.082031 163.246094 137.429688 164.84375 C 138.75 170.253906 136.667969 190.589844 136.945312 203.355469 C 137.292969 216.125 140.136719 236.527344 139.375 241.523438 C 139.164062 242.773438 139.027344 243.261719 138.539062 243.816406 C 137.984375 244.371094 137.082031 244.855469 136.320312 244.925781 C 135.558594 245.0625 134.585938 244.855469 133.960938 244.371094 C 133.199219 243.816406 132.433594 241.523438 132.433594 241.523438 "/></clipPath><clipPath id="dbe36d7832"><path d="M 209.070312 310.667969 L 285.8125 310.667969 L 285.8125 318.804688 L 209.070312 318.804688 Z M 209.070312 310.667969 "/></clipPath><clipPath id="6142cf4eba"><path d="M 212.585938 310.714844 C 283.996094 311.824219 284.621094 312.171875 285.175781 312.933594 C 285.660156 313.488281 285.871094 314.320312 285.800781 315.015625 C 285.660156 315.917969 284.828125 317.304688 284.132812 317.792969 C 283.507812 318.277344 282.675781 318.414062 281.914062 318.277344 C 281.082031 318.136719 279.761719 317.234375 279.277344 316.472656 C 278.859375 315.847656 278.789062 314.945312 278.859375 314.253906 C 279 313.628906 279.347656 312.792969 279.902344 312.308594 C 280.59375 311.753906 282.191406 311.335938 283.09375 311.476562 C 283.789062 311.546875 284.480469 312.101562 284.96875 312.585938 C 285.382812 313.140625 285.730469 313.972656 285.800781 314.667969 C 285.800781 315.363281 285.589844 316.195312 285.175781 316.820312 C 284.757812 317.375 284.480469 317.792969 283.441406 318.136719 C 279.554688 319.457031 264.007812 318.414062 253.113281 318.347656 C 240.414062 318.207031 216.679688 319.109375 211.753906 317.515625 C 210.503906 317.167969 210.15625 316.75 209.671875 316.125 C 209.253906 315.5 209.046875 314.53125 209.117188 313.765625 C 209.1875 313.003906 209.671875 312.101562 210.226562 311.546875 C 210.851562 311.058594 212.585938 310.714844 212.585938 310.714844 "/></clipPath><clipPath id="619349583a"><path d="M 273.390625 311.664062 L 334.8125 311.664062 L 334.8125 319.304688 L 273.390625 319.304688 Z M 273.390625 311.664062 "/></clipPath><clipPath id="c9ed24d57f"><path d="M 276.917969 311.683594 C 328.894531 311.683594 330.976562 311.824219 332.503906 312.449219 C 333.335938 312.792969 333.890625 313.140625 334.238281 313.835938 C 334.722656 314.597656 334.933594 316.125 334.585938 317.027344 C 334.238281 317.929688 333.058594 318.902344 332.15625 319.109375 C 331.183594 319.316406 329.660156 318.832031 328.964844 318.277344 C 328.410156 317.792969 328.0625 317.027344 327.921875 316.335938 C 327.855469 315.640625 327.921875 314.738281 328.339844 314.113281 C 328.824219 313.351562 330.074219 312.378906 330.976562 312.308594 C 331.949219 312.171875 333.40625 312.792969 334.03125 313.488281 C 334.65625 314.253906 334.863281 315.777344 334.722656 316.679688 C 334.585938 317.445312 334.03125 318.070312 333.476562 318.484375 C 332.917969 318.972656 332.226562 319.179688 331.394531 319.25 C 330.003906 319.316406 328.6875 318.554688 325.910156 318.347656 C 317.652344 317.722656 281.566406 320.21875 276.085938 318.484375 C 274.90625 318.136719 274.488281 317.722656 274.070312 317.097656 C 273.65625 316.472656 273.378906 315.5 273.445312 314.738281 C 273.585938 313.972656 274.070312 313.074219 274.628906 312.515625 C 275.183594 312.03125 276.917969 311.683594 276.917969 311.683594 "/></clipPath><clipPath id="4bf7c4d3b8"><path d="M 293.546875 237.542969 L 301.738281 237.542969 L 301.738281 318.734375 L 293.546875 318.734375 Z M 293.546875 237.542969 "/></clipPath><clipPath id="804963aa10"><path d="M 293.570312 315.222656 C 294.542969 252.765625 293.570312 244.371094 294.128906 240.96875 C 294.335938 239.859375 294.472656 239.304688 294.960938 238.679688 C 295.515625 238.125 296.347656 237.640625 297.179688 237.570312 C 298.082031 237.5 299.539062 238.054688 300.164062 238.679688 C 300.71875 239.234375 301.207031 240.207031 301.066406 240.96875 C 300.859375 242.082031 298.777344 244.160156 297.667969 244.441406 C 296.972656 244.648438 296.140625 244.300781 295.585938 243.816406 C 294.890625 243.261719 294.128906 241.871094 294.128906 240.902344 C 294.128906 239.929688 294.890625 238.609375 295.722656 238.054688 C 296.554688 237.570312 298.082031 237.429688 298.984375 237.847656 C 299.816406 238.195312 300.789062 239.441406 300.996094 240.34375 C 301.207031 241.316406 300.71875 242.773438 300.027344 243.46875 C 299.332031 244.160156 297.804688 244.507812 296.902344 244.441406 C 296.210938 244.300781 295.445312 243.816406 295.03125 243.328125 C 294.542969 242.773438 294.195312 242.011719 294.128906 241.316406 C 294.058594 240.554688 294.265625 239.722656 294.683594 239.164062 C 295.03125 238.539062 296.347656 237.707031 296.417969 237.777344 C 296.417969 237.777344 294.265625 240.207031 294.195312 240.207031 C 294.195312 240.136719 295.03125 238.609375 295.585938 238.125 C 296.070312 237.777344 296.625 237.570312 297.179688 237.570312 C 297.875 237.5 298.984375 237.777344 299.539062 238.125 C 300.027344 238.472656 300.371094 238.820312 300.652344 239.375 C 301.136719 240.34375 301.273438 241.734375 301.414062 243.539062 C 301.761719 246.867188 301.550781 251.449219 301.550781 257.765625 C 301.484375 270.601562 302.386719 310.019531 300.441406 316.054688 C 300.027344 317.304688 299.679688 317.652344 299.054688 318.136719 C 298.429688 318.554688 297.390625 318.761719 296.625 318.695312 C 295.863281 318.625 294.960938 318.136719 294.472656 317.582031 C 293.988281 316.957031 293.570312 315.222656 293.570312 315.222656 "/></clipPath><clipPath id="b0492af687"><path d="M 237.183594 217.613281 L 246.117188 217.613281 L 246.117188 318.410156 L 237.183594 318.410156 Z M 237.183594 217.613281 "/></clipPath><clipPath id="079b65f84f"><path d="M 237.222656 314.875 C 237.640625 243.816406 237.847656 232.019531 238.402344 225.839844 C 238.609375 222.996094 238.609375 220.984375 239.304688 219.664062 C 239.652344 218.902344 240.136719 218.347656 240.832031 218.070312 C 241.664062 217.722656 243.261719 217.652344 244.09375 218.070312 C 244.925781 218.554688 245.6875 219.875 245.898438 220.777344 C 246.035156 221.539062 245.828125 222.371094 245.410156 222.925781 C 244.855469 223.691406 243.539062 224.453125 242.636719 224.59375 C 241.871094 224.730469 241.039062 224.453125 240.484375 224.039062 C 239.789062 223.414062 239.027344 222.023438 238.957031 221.121094 C 238.886719 220.359375 239.164062 219.597656 239.652344 219.039062 C 240.277344 218.347656 241.734375 217.722656 242.636719 217.652344 C 243.398438 217.652344 244.160156 218.070312 244.71875 218.484375 C 245.203125 218.972656 245.550781 219.316406 245.828125 220.429688 C 246.867188 224.59375 244.71875 240.554688 244.371094 253.183594 C 243.953125 270.53125 245.339844 308.285156 244.160156 314.875 C 243.882812 316.265625 243.746094 316.613281 243.261719 317.234375 C 242.773438 317.792969 241.871094 318.277344 241.109375 318.347656 C 240.34375 318.417969 239.304688 318.277344 238.679688 317.792969 C 237.984375 317.167969 237.222656 314.875 237.222656 314.875 "/></clipPath><clipPath id="110d4dab1b"><path d="M 238.386719 160.648438 L 246.414062 160.648438 L 246.414062 236.03125 L 238.386719 236.03125 Z M 238.386719 160.648438 "/></clipPath><clipPath id="e49323e7b1"><path d="M 238.472656 232.574219 C 239.234375 180.527344 237.777344 168.449219 238.820312 164.148438 C 239.164062 162.691406 239.652344 161.859375 240.34375 161.304688 C 240.902344 160.816406 241.734375 160.609375 242.425781 160.679688 C 243.328125 160.816406 244.71875 161.648438 245.273438 162.34375 C 245.6875 162.96875 245.898438 163.800781 245.6875 164.5625 C 245.550781 165.398438 244.648438 166.714844 243.882812 167.203125 C 243.261719 167.617188 242.425781 167.6875 241.734375 167.617188 C 241.039062 167.480469 240.207031 167.132812 239.71875 166.578125 C 239.164062 165.882812 238.75 164.285156 238.886719 163.382812 C 238.957031 162.691406 239.511719 161.996094 240 161.511719 C 240.554688 161.09375 241.386719 160.746094 242.082031 160.679688 C 242.773438 160.679688 243.675781 160.886719 244.230469 161.304688 C 244.785156 161.71875 245.203125 162.066406 245.550781 163.039062 C 246.730469 166.367188 246.105469 177.402344 246.105469 186.632812 C 246.175781 199.539062 247.007812 228.0625 245.273438 233.40625 C 244.855469 234.585938 244.507812 235 243.882812 235.417969 C 243.261719 235.835938 242.21875 236.113281 241.523438 235.972656 C 240.761719 235.902344 239.789062 235.417969 239.304688 234.863281 C 238.820312 234.308594 238.472656 232.574219 238.472656 232.574219 "/></clipPath><clipPath id="efdd83fffd"><path d="M 239.761719 190.074219 L 324.890625 190.074219 L 324.890625 260.914062 L 239.761719 260.914062 Z M 239.761719 190.074219 "/></clipPath><clipPath id="655ff95c05"><path d="M 245.339844 190.796875 C 283.09375 222.441406 314.667969 245.550781 321.46875 252.558594 C 323.414062 254.503906 324.316406 255.820312 324.660156 256.792969 C 324.800781 257.277344 324.800781 257.484375 324.660156 257.972656 C 324.453125 258.664062 323.550781 260.125 322.71875 260.539062 C 321.816406 260.886719 320.21875 260.746094 319.457031 260.332031 C 318.761719 259.984375 318.207031 259.359375 318 258.597656 C 317.722656 257.765625 317.859375 256.167969 318.414062 255.402344 C 318.902344 254.640625 320.359375 253.945312 321.261719 253.878906 C 322.023438 253.808594 322.789062 254.085938 323.34375 254.640625 C 324.039062 255.195312 324.660156 256.652344 324.730469 257.554688 C 324.730469 258.320312 324.316406 259.082031 323.898438 259.636719 C 323.414062 260.125 322.71875 260.679688 321.957031 260.746094 C 321.054688 260.886719 319.527344 260.46875 318.832031 259.84375 C 318.277344 259.429688 318.625 258.875 317.792969 257.902344 C 313.488281 252.765625 279.136719 228.132812 264.980469 216.542969 C 255.265625 208.632812 243.261719 199.539062 240.691406 195.863281 C 240 194.820312 239.859375 194.335938 239.859375 193.570312 C 239.859375 192.808594 240.277344 191.835938 240.761719 191.28125 C 241.246094 190.726562 242.21875 190.242188 242.980469 190.171875 C 243.746094 190.101562 245.339844 190.796875 245.339844 190.796875 "/></clipPath><clipPath id="2d70942b26"><path d="M 102.667969 117.050781 L 188.652344 117.050781 L 188.652344 187.375 L 102.667969 187.375 Z M 102.667969 117.050781 "/></clipPath><clipPath id="bbce2e6c77"><path d="M 104.605469 180.804688 C 120.914062 168.726562 140.691406 151.101562 152.835938 141.246094 C 162.550781 133.335938 175.597656 122.371094 179.554688 120.21875 C 180.527344 119.734375 181.011719 119.941406 181.566406 119.527344 C 182.121094 119.179688 182.328125 118.207031 182.886719 117.792969 C 183.441406 117.375 184.34375 117.167969 185.035156 117.167969 C 185.730469 117.234375 186.5625 117.445312 187.050781 118 C 187.742188 118.625 188.296875 120.082031 188.296875 120.984375 C 188.296875 121.746094 187.882812 122.511719 187.394531 122.996094 C 186.910156 123.550781 186.148438 123.96875 185.453125 124.039062 C 184.550781 124.175781 183.023438 123.621094 182.328125 123.066406 C 181.773438 122.578125 181.429688 121.816406 181.429688 121.054688 C 181.359375 120.152344 181.984375 118.625 182.609375 118 C 183.09375 117.515625 183.925781 117.234375 184.621094 117.167969 C 185.3125 117.167969 186.214844 117.375 186.769531 117.792969 C 187.394531 118.136719 187.882812 118.832031 188.160156 119.527344 C 188.367188 120.152344 188.644531 120.707031 188.160156 121.746094 C 184.96875 128.546875 129.378906 171.574219 116.335938 181.082031 C 111.824219 184.34375 108.632812 186.839844 106.6875 187.1875 C 105.992188 187.328125 105.578125 187.1875 105.09375 186.910156 C 104.46875 186.632812 103.632812 185.9375 103.289062 185.246094 C 102.941406 184.550781 102.871094 183.507812 103.078125 182.746094 C 103.289062 182.050781 104.605469 180.804688 104.605469 180.804688 "/></clipPath><clipPath id="c7e522abb2"><path d="M 181 116.425781 L 281.128906 116.425781 L 281.128906 189.941406 L 181 189.941406 Z M 181 116.425781 "/></clipPath><clipPath id="8b180a9aff"><path d="M 185.871094 116.75 C 199.191406 125.21875 206.617188 132.085938 214.042969 137.429688 C 222.648438 143.539062 232.640625 149.089844 242.496094 155.890625 C 253.738281 163.664062 272.335938 177.402344 277.609375 181.773438 C 279.277344 183.164062 280.25 183.71875 280.734375 184.6875 C 281.148438 185.453125 281.21875 186.214844 281.011719 186.910156 C 280.804688 187.742188 279.761719 188.992188 278.929688 189.410156 C 278.304688 189.753906 277.472656 189.824219 276.777344 189.546875 C 275.875 189.269531 274.695312 188.296875 274.347656 187.394531 C 274.003906 186.492188 274.347656 184.898438 274.835938 184.132812 C 275.25 183.507812 275.945312 183.023438 276.640625 182.886719 C 277.542969 182.675781 279.066406 183.023438 279.832031 183.507812 C 280.457031 183.925781 280.871094 184.757812 281.011719 185.382812 C 281.148438 186.078125 281.148438 186.980469 280.804688 187.605469 C 280.386719 188.4375 279.136719 189.410156 278.234375 189.617188 C 277.542969 189.824219 277.125 189.753906 276.015625 189.269531 C 271.085938 187.257812 250.269531 169.699219 238.609375 161.648438 C 228.757812 154.78125 219.457031 149.78125 210.714844 143.539062 C 202.59375 137.777344 192.671875 128.964844 187.742188 125.703125 C 185.523438 124.246094 183.855469 123.898438 182.746094 122.925781 C 181.984375 122.234375 181.496094 121.609375 181.289062 120.914062 C 181.148438 120.152344 181.21875 119.109375 181.566406 118.417969 C 181.914062 117.792969 182.675781 117.097656 183.441406 116.820312 C 184.132812 116.542969 185.871094 116.75 185.871094 116.75 "/></clipPath><clipPath id="3ce33d997f"><path d="M 180.714844 55.683594 L 188.835938 55.683594 L 188.835938 125.371094 L 180.714844 125.371094 Z M 180.714844 55.683594 "/></clipPath><clipPath id="71cc1974d6"><path d="M 180.734375 121.886719 C 181.914062 57.554688 182.328125 56.863281 183.023438 56.304688 C 183.578125 55.820312 184.410156 55.613281 185.175781 55.75 C 186.007812 55.820312 187.394531 56.652344 187.949219 57.417969 C 188.367188 57.972656 188.574219 58.804688 188.4375 59.566406 C 188.230469 60.46875 187.328125 61.789062 186.5625 62.273438 C 185.9375 62.621094 185.105469 62.691406 184.410156 62.621094 C 183.71875 62.484375 182.886719 62.136719 182.46875 61.582031 C 181.84375 60.886719 181.359375 59.359375 181.566406 58.457031 C 181.773438 57.484375 182.816406 56.304688 183.648438 55.960938 C 184.550781 55.613281 186.148438 55.890625 186.910156 56.304688 C 187.535156 56.652344 187.949219 57.277344 188.230469 58.109375 C 188.644531 59.152344 188.367188 60.125 188.4375 62.414062 C 188.574219 70.878906 189.546875 116.542969 187.535156 122.71875 C 187.1875 123.96875 186.769531 124.246094 186.148438 124.730469 C 185.523438 125.148438 184.550781 125.425781 183.789062 125.285156 C 183.023438 125.21875 182.121094 124.730469 181.566406 124.175781 C 181.082031 123.621094 180.734375 121.886719 180.734375 121.886719 "/></clipPath><clipPath id="87808afe3a"><path d="M 160.09375 81.511719 L 211.914062 81.511719 L 211.914062 90.835938 L 160.09375 90.835938 Z M 160.09375 81.511719 "/></clipPath><clipPath id="e9cbf8fbfe"><path d="M 163.453125 81.566406 C 176.988281 81.707031 184.34375 83.164062 190.589844 83.507812 C 196.765625 83.855469 206.203125 82.675781 209.253906 83.648438 C 210.367188 83.996094 210.851562 84.410156 211.269531 85.035156 C 211.683594 85.660156 211.960938 86.632812 211.894531 87.394531 C 211.753906 88.160156 211.269531 89.0625 210.714844 89.617188 C 210.15625 90.101562 209.253906 90.519531 208.421875 90.449219 C 207.519531 90.378906 206.132812 89.617188 205.578125 88.921875 C 205.09375 88.367188 204.882812 87.535156 204.953125 86.839844 C 205.09375 85.9375 205.785156 84.550781 206.617188 83.996094 C 207.453125 83.507812 208.976562 83.441406 209.878906 83.855469 C 210.78125 84.273438 211.683594 85.523438 211.824219 86.425781 C 212.03125 87.394531 211.476562 88.851562 210.78125 89.546875 C 210.089844 90.171875 208.632812 90.589844 207.660156 90.378906 C 206.757812 90.171875 205.578125 89.199219 205.230469 88.296875 C 204.8125 87.394531 205.09375 85.867188 205.578125 85.035156 C 205.925781 84.410156 206.6875 83.925781 207.3125 83.71875 C 207.9375 83.507812 208.632812 83.441406 209.253906 83.648438 C 209.949219 83.855469 210.851562 84.410156 211.269531 85.035156 C 211.683594 85.660156 211.960938 86.632812 211.894531 87.394531 C 211.753906 88.160156 211.269531 89.0625 210.714844 89.617188 C 210.15625 90.101562 209.601562 90.242188 208.421875 90.449219 C 205.300781 91.074219 196.277344 90.796875 190.242188 90.449219 C 184.273438 90.101562 177.332031 88.644531 172.335938 88.367188 C 168.660156 88.160156 164.84375 88.992188 162.828125 88.4375 C 161.859375 88.089844 161.234375 87.671875 160.816406 87.117188 C 160.332031 86.492188 160.054688 85.523438 160.125 84.757812 C 160.191406 83.996094 160.609375 83.023438 161.164062 82.539062 C 161.71875 81.984375 163.453125 81.566406 163.453125 81.566406 "/></clipPath></defs><g id="9dc5a5b6f7"><g clip-rule="nonzero" clip-path="url(#baf84657c1)"><g clip-rule="nonzero" clip-path="url(#5ebd6ef089)"><path style=" stroke:none;fill-rule:nonzero;fill:currentColor;fill-opacity:1;" d="M 71.503906 232.988281 L 89.6875 232.988281 L 89.6875 318.925781 L 71.503906 318.925781 Z M 71.503906 232.988281 "/></g></g><g clip-rule="nonzero" clip-path="url(#c165eeca37)"><g clip-rule="nonzero" clip-path="url(#46d761d163)"><path style=" stroke:none;fill-rule:nonzero;fill:currentColor;fill-opacity:1;" d="M 37.5 192.324219 L 139.34375 192.324219 L 139.34375 269.003906 L 37.5 269.003906 Z M 37.5 192.324219 "/></g></g><g clip-rule="nonzero" clip-path="url(#93e1b1415c)"><g clip-rule="nonzero" clip-path="url(#b827c972c7)"><path style=" stroke:none;fill-rule:nonzero;fill:currentColor;fill-opacity:1;" d="M 40.691406 306.339844 L 131.304688 306.339844 L 131.304688 320.289062 L 40.691406 320.289062 Z M 40.691406 306.339844 "/></g></g><g clip-rule="nonzero" clip-path="url(#25474583ee)"><g clip-rule="nonzero" clip-path="url(#a87031610e)"><path style=" stroke:none;fill-rule:nonzero;fill:currentColor;fill-opacity:1;" d="M 161.234375 256.582031 L 175.042969 256.582031 L 175.042969 320.507812 L 161.234375 320.507812 Z M 161.234375 256.582031 "/></g></g><g clip-rule="nonzero" clip-path="url(#414206fbfd)"><g clip-rule="nonzero" clip-path="url(#e0795ccf82)"><path style=" stroke:none;fill-rule:nonzero;fill:currentColor;fill-opacity:1;" d="M 162.066406 231.394531 L 212.664062 231.394531 L 212.664062 273.726562 L 162.066406 273.726562 Z M 162.066406 231.394531 "/></g></g><g clip-rule="nonzero" clip-path="url(#5f54b47f46)"><g clip-rule="nonzero" clip-path="url(#1867c503ae)"><path style=" stroke:none;fill-rule:nonzero;fill:currentColor;fill-opacity:1;" d="M 200.371094 256.582031 L 215.015625 256.582031 L 215.015625 318.988281 L 200.371094 318.988281 Z M 200.371094 256.582031 "/></g></g><g clip-rule="nonzero" clip-path="url(#f83a908352)"><g clip-rule="nonzero" clip-path="url(#4cbdaf5049)"><path style=" stroke:none;fill-rule:nonzero;fill:currentColor;fill-opacity:1;" d="M 114.253906 306.757812 L 175.726562 306.757812 L 175.726562 320.359375 L 114.253906 320.359375 Z M 114.253906 306.757812 "/></g></g><g clip-rule="nonzero" clip-path="url(#252b336e27)"><g clip-rule="nonzero" clip-path="url(#41f19ac5b1)"><path style=" stroke:none;fill-rule:nonzero;fill:currentColor;fill-opacity:1;" d="M 157.695312 307.453125 L 225.753906 307.453125 L 225.753906 321.191406 L 157.695312 321.191406 Z M 157.695312 307.453125 "/></g></g><g clip-rule="nonzero" clip-path="url(#3babf29d26)"><g clip-rule="nonzero" clip-path="url(#72940067b7)"><path style=" stroke:none;fill-rule:nonzero;fill:currentColor;fill-opacity:1;" d="M 128.964844 223.828125 L 142.289062 223.828125 L 142.289062 316.109375 L 128.964844 316.109375 Z M 128.964844 223.828125 "/></g></g><g clip-rule="nonzero" clip-path="url(#b63943682f)"><g clip-rule="nonzero" clip-path="url(#0806132533)"><path style=" stroke:none;fill-rule:nonzero;fill:currentColor;fill-opacity:1;" d="M 127.296875 158.597656 L 142.148438 158.597656 L 142.148438 247.757812 L 127.296875 247.757812 Z M 127.296875 158.597656 "/></g></g><g clip-rule="nonzero" clip-path="url(#dbe36d7832)"><g clip-rule="nonzero" clip-path="url(#6142cf4eba)"><path style=" stroke:none;fill-rule:nonzero;fill:currentColor;fill-opacity:1;" d="M 206.339844 307.9375 L 288.59375 307.9375 L 288.59375 321.121094 L 206.339844 321.121094 Z M 206.339844 307.9375 "/></g></g><g clip-rule="nonzero" clip-path="url(#619349583a)"><g clip-rule="nonzero" clip-path="url(#c9ed24d57f)"><path style=" stroke:none;fill-rule:nonzero;fill:currentColor;fill-opacity:1;" d="M 270.671875 308.632812 L 337.480469 308.632812 L 337.480469 322.023438 L 270.671875 322.023438 Z M 270.671875 308.632812 "/></g></g><g clip-rule="nonzero" clip-path="url(#4bf7c4d3b8)"><g clip-rule="nonzero" clip-path="url(#804963aa10)"><path style=" stroke:none;fill-rule:nonzero;fill:currentColor;fill-opacity:1;" d="M 290.796875 234.792969 L 304.328125 234.792969 L 304.328125 321.539062 L 290.796875 321.539062 Z M 290.796875 234.792969 "/></g></g><g clip-rule="nonzero" clip-path="url(#b0492af687)"><g clip-rule="nonzero" clip-path="url(#079b65f84f)"><path style=" stroke:none;fill-rule:nonzero;fill:currentColor;fill-opacity:1;" d="M 234.445312 214.875 L 248.742188 214.875 L 248.742188 321.144531 L 234.445312 321.144531 Z M 234.445312 214.875 "/></g></g><g clip-rule="nonzero" clip-path="url(#110d4dab1b)"><g clip-rule="nonzero" clip-path="url(#e49323e7b1)"><path style=" stroke:none;fill-rule:nonzero;fill:currentColor;fill-opacity:1;" d="M 235.695312 157.902344 L 248.949219 157.902344 L 248.949219 238.828125 L 235.695312 238.828125 Z M 235.695312 157.902344 "/></g></g><g clip-rule="nonzero" clip-path="url(#efdd83fffd)"><g clip-rule="nonzero" clip-path="url(#655ff95c05)"><path style=" stroke:none;fill-rule:nonzero;fill:currentColor;fill-opacity:1;" d="M 237.082031 187.394531 L 327.566406 187.394531 L 327.566406 263.59375 L 237.082031 263.59375 Z M 237.082031 187.394531 "/></g></g><g clip-rule="nonzero" clip-path="url(#2d70942b26)"><g clip-rule="nonzero" clip-path="url(#bbce2e6c77)"><path style=" stroke:none;fill-rule:nonzero;fill:currentColor;fill-opacity:1;" d="M 100.304688 114.390625 L 191.015625 114.390625 L 191.015625 190.03125 L 100.304688 190.03125 Z M 100.304688 114.390625 "/></g></g><g clip-rule="nonzero" clip-path="url(#c7e522abb2)"><g clip-rule="nonzero" clip-path="url(#8b180a9aff)"><path style=" stroke:none;fill-rule:nonzero;fill:currentColor;fill-opacity:1;" d="M 178.511719 113.976562 L 283.886719 113.976562 L 283.886719 192.390625 L 178.511719 192.390625 Z M 178.511719 113.976562 "/></g></g><g clip-rule="nonzero" clip-path="url(#3ce33d997f)"><g clip-rule="nonzero" clip-path="url(#71cc1974d6)"><path style=" stroke:none;fill-rule:nonzero;fill:currentColor;fill-opacity:1;" d="M 177.957031 52.976562 L 191.28125 52.976562 L 191.28125 128.132812 L 177.957031 128.132812 Z M 177.957031 52.976562 "/></g></g><g clip-rule="nonzero" clip-path="url(#87808afe3a)"><g clip-rule="nonzero" clip-path="url(#e9cbf8fbfe)"><path style=" stroke:none;fill-rule:nonzero;fill:currentColor;fill-opacity:1;" d="M 157.347656 78.652344 L 214.660156 78.652344 L 214.660156 93.292969 L 157.347656 93.292969 Z M 157.347656 78.652344 "/></g></g></g></svg>