<svg xmlns="http://www.w3.org/2000/svg" xmlns:xlink="http://www.w3.org/1999/xlink" width="500" zoomAndPan="magnify" viewBox="0 0 375 374.999991" height="500" preserveAspectRatio="xMidYMid meet" version="1.2"><defs><clipPath id="b54390be76"><path d="M 58.957031 162.722656 L 66.445312 162.722656 L 66.445312 209.816406 L 58.957031 209.816406 Z M 58.957031 162.722656 "/></clipPath><clipPath id="a41a064a66"><path d="M 63.109375 164.796875 C 66.359375 208.539062 66.320312 208.699219 65.996094 209.023438 C 65.628906 209.429688 64.777344 209.796875 64.246094 209.796875 C 63.839844 209.796875 63.351562 209.59375 63.070312 209.308594 C 62.703125 208.902344 62.378906 208.050781 62.378906 207.519531 C 62.417969 207.074219 62.660156 206.625 62.945312 206.34375 C 63.230469 206.058594 63.679688 205.773438 64.125 205.773438 C 64.652344 205.730469 65.546875 205.976562 65.914062 206.382812 C 66.28125 206.828125 66.484375 207.722656 66.402344 208.253906 C 66.320312 208.660156 65.996094 209.066406 65.710938 209.351562 C 65.386719 209.59375 64.9375 209.839844 64.492188 209.796875 C 63.960938 209.796875 63.148438 209.390625 62.785156 208.984375 C 62.378906 208.578125 62.253906 208.128906 62.09375 207.316406 C 61.644531 205.246094 61.972656 200.691406 61.6875 196.015625 C 61.199219 188.171875 58.554688 168.335938 59.042969 164.796875 C 59.167969 164.027344 59.289062 163.78125 59.574219 163.417969 C 59.855469 163.089844 60.386719 162.804688 60.832031 162.765625 C 61.28125 162.726562 61.890625 162.804688 62.253906 163.089844 C 62.660156 163.457031 63.109375 164.796875 63.109375 164.796875 "/></clipPath><clipPath id="33f3fc5f38"><path d="M 39.078125 138.898438 L 95.578125 138.898438 L 95.578125 180.65625 L 39.078125 180.65625 Z M 39.078125 138.898438 "/></clipPath><clipPath id="4aefbec512"><path d="M 39.734375 177.15625 C 48.679688 169.554688 54.613281 165.976562 59.492188 162.480469 C 64.652344 158.78125 70.058594 154.351562 75.261719 150.691406 C 80.101562 147.195312 86.605469 142.886719 89.652344 140.9375 C 91.035156 140.042969 91.847656 139.351562 92.660156 139.066406 C 93.191406 138.90625 93.554688 138.863281 93.960938 138.945312 C 94.367188 139.027344 94.816406 139.3125 95.058594 139.636719 C 95.34375 139.960938 95.546875 140.410156 95.546875 140.855469 C 95.507812 141.382812 95.179688 142.238281 94.734375 142.5625 C 94.289062 142.886719 93.394531 143.050781 92.863281 142.847656 C 92.335938 142.683594 91.726562 141.953125 91.5625 141.464844 C 91.402344 141.058594 91.484375 140.53125 91.644531 140.164062 C 91.808594 139.800781 92.09375 139.351562 92.5 139.1875 C 92.945312 138.945312 93.878906 138.863281 94.367188 139.109375 C 94.898438 139.351562 95.425781 140.082031 95.507812 140.613281 C 95.628906 141.179688 95.464844 141.710938 94.898438 142.402344 C 93.027344 144.800781 83.3125 149.921875 77.824219 153.824219 C 72.457031 157.644531 67.175781 161.992188 62.214844 165.53125 C 57.867188 168.660156 53.273438 171.34375 49.695312 174.066406 C 46.769531 176.222656 43.761719 179.636719 42.132812 180.367188 C 41.566406 180.652344 41.160156 180.691406 40.710938 180.609375 C 40.304688 180.53125 39.777344 180.203125 39.53125 179.839844 C 39.246094 179.472656 39.085938 178.902344 39.125 178.457031 C 39.125 178.007812 39.734375 177.15625 39.734375 177.15625 "/></clipPath><clipPath id="cf77639cfb"><path d="M 40.964844 205.636719 L 90.820312 205.636719 L 90.820312 210.714844 L 40.964844 210.714844 Z M 40.964844 205.636719 "/></clipPath><clipPath id="184bf7964b"><path d="M 42.988281 206.421875 C 62.011719 206.179688 63.757812 206.546875 67.214844 206.585938 C 72.785156 206.625 85.914062 205.285156 88.800781 205.730469 C 89.53125 205.855469 89.816406 205.976562 90.140625 206.261719 C 90.464844 206.546875 90.75 207.074219 90.792969 207.519531 C 90.871094 207.96875 90.75 208.578125 90.464844 208.945312 C 90.140625 209.351562 89.328125 209.796875 88.800781 209.796875 C 88.230469 209.796875 87.417969 209.351562 87.09375 208.902344 C 86.847656 208.578125 86.6875 208.089844 86.765625 207.683594 C 86.808594 207.15625 87.253906 206.34375 87.742188 206.058594 C 88.230469 205.730469 89.125 205.691406 89.652344 205.9375 C 90.140625 206.179688 90.710938 206.910156 90.792969 207.441406 C 90.871094 208.007812 90.589844 208.863281 90.183594 209.269531 C 89.773438 209.632812 88.882812 209.878906 88.351562 209.757812 C 87.785156 209.632812 87.09375 209.066406 86.890625 208.539062 C 86.6875 208.007812 86.847656 207.113281 87.09375 206.625 C 87.335938 206.261719 87.742188 205.976562 88.148438 205.855469 C 88.472656 205.730469 88.921875 205.691406 89.289062 205.8125 C 89.695312 205.9375 90.222656 206.300781 90.464844 206.625 C 90.667969 206.910156 90.792969 207.195312 90.792969 207.519531 C 90.832031 207.96875 90.710938 208.578125 90.464844 208.945312 C 90.222656 209.308594 89.976562 209.511719 89.289062 209.757812 C 86.402344 210.730469 70.546875 210.730469 65.140625 210.652344 C 62.378906 210.609375 61.484375 210.285156 58.921875 210.203125 C 54.777344 210.082031 44.777344 211.140625 42.5 210.449219 C 41.847656 210.246094 41.566406 210 41.320312 209.632812 C 41.078125 209.269531 40.914062 208.660156 40.996094 208.210938 C 41.035156 207.765625 41.320312 207.238281 41.644531 206.953125 C 41.972656 206.625 42.988281 206.421875 42.988281 206.421875 "/></clipPath><clipPath id="5a585fd16f"><path d="M 111.683594 176.570312 L 116.488281 176.570312 L 116.488281 210.792969 L 111.683594 210.792969 Z M 111.683594 176.570312 "/></clipPath><clipPath id="637d79b978"><path d="M 112.335938 208.742188 C 111.523438 188.007812 111.644531 182.195312 111.847656 179.839844 C 111.929688 178.945312 111.886719 178.496094 112.171875 177.96875 C 112.417969 177.441406 112.984375 176.832031 113.554688 176.667969 C 114.082031 176.503906 114.976562 176.707031 115.382812 177.074219 C 115.832031 177.441406 116.15625 178.292969 116.117188 178.863281 C 116.035156 179.433594 115.464844 180.164062 115.019531 180.449219 C 114.652344 180.652344 114.125 180.691406 113.757812 180.652344 C 113.351562 180.570312 112.863281 180.328125 112.578125 180.042969 C 112.296875 179.714844 112.089844 179.230469 112.050781 178.824219 C 112.011719 178.414062 112.089844 177.929688 112.335938 177.5625 C 112.660156 177.15625 113.433594 176.628906 113.960938 176.585938 C 114.53125 176.585938 115.34375 177.035156 115.710938 177.398438 C 115.992188 177.726562 116.035156 178.007812 116.117188 178.660156 C 116.402344 180.773438 115.628906 187.847656 115.667969 192.683594 C 115.710938 197.847656 116.765625 206.34375 116.402344 208.742188 C 116.277344 209.472656 116.199219 209.757812 115.871094 210.082031 C 115.585938 210.40625 115.058594 210.691406 114.613281 210.773438 C 114.164062 210.8125 113.554688 210.691406 113.1875 210.40625 C 112.78125 210.082031 112.335938 208.742188 112.335938 208.742188 "/></clipPath><clipPath id="379a2d68e9"><path d="M 112.015625 161.753906 L 138.554688 161.753906 L 138.554688 183.355469 L 112.015625 183.355469 Z M 112.015625 161.753906 "/></clipPath><clipPath id="8e1cba7760"><path d="M 112.089844 180.53125 C 112.253906 176.097656 112.621094 174.59375 113.027344 173.253906 C 113.433594 171.910156 113.921875 170.609375 114.53125 169.351562 C 115.140625 168.089844 115.992188 166.667969 116.726562 165.773438 C 117.253906 165.082031 117.578125 164.675781 118.269531 164.1875 C 119.246094 163.496094 120.832031 162.765625 122.171875 162.359375 C 123.515625 161.992188 125.140625 161.832031 126.277344 161.832031 C 127.089844 161.789062 127.742188 161.832031 128.390625 162.074219 C 129.082031 162.277344 129.570312 162.644531 130.222656 163.132812 C 131.15625 163.863281 132.375 165.125 133.269531 166.222656 C 134.203125 167.320312 135.019531 168.375 135.710938 169.757812 C 136.5625 171.425781 137.335938 173.78125 137.824219 175.773438 C 138.230469 177.644531 138.554688 180.246094 138.472656 181.300781 C 138.472656 181.75 138.433594 181.953125 138.269531 182.238281 C 138.027344 182.601562 137.578125 183.050781 137.171875 183.210938 C 136.765625 183.375 136.117188 183.335938 135.75 183.210938 C 135.425781 183.089844 135.140625 182.929688 134.9375 182.644531 C 134.691406 182.316406 134.410156 181.789062 134.410156 181.300781 C 134.449219 180.773438 134.773438 180 135.222656 179.675781 C 135.667969 179.351562 136.5625 179.1875 137.132812 179.390625 C 137.660156 179.554688 138.269531 180.246094 138.433594 180.773438 C 138.554688 181.300781 138.351562 182.195312 137.984375 182.644531 C 137.621094 183.050781 136.765625 183.375 136.238281 183.335938 C 135.667969 183.253906 134.9375 182.683594 134.652344 182.238281 C 134.410156 181.871094 134.367188 181.382812 134.449219 180.976562 C 134.53125 180.570312 134.734375 180.082031 135.058594 179.839844 C 135.464844 179.511719 136.359375 179.1875 136.886719 179.308594 C 137.457031 179.433594 138.105469 180.082031 138.351562 180.570312 C 138.554688 180.9375 138.515625 181.464844 138.390625 181.871094 C 138.3125 182.277344 137.984375 182.726562 137.621094 182.96875 C 137.253906 183.210938 136.644531 183.375 136.195312 183.335938 C 135.75 183.253906 135.300781 183.132812 134.9375 182.644531 C 134.164062 181.585938 134.164062 177.765625 133.59375 175.773438 C 133.148438 174.1875 132.863281 172.929688 132.050781 171.546875 C 131.15625 169.921875 129.328125 167.601562 128.1875 166.707031 C 127.496094 166.179688 126.929688 166.019531 126.277344 165.894531 C 125.585938 165.734375 124.773438 165.816406 124.042969 165.976562 C 123.390625 166.140625 122.742188 166.546875 122.132812 166.832031 C 121.480469 167.15625 120.75 167.359375 120.261719 167.804688 C 119.734375 168.214844 119.488281 168.699219 119.082031 169.433594 C 118.3125 170.773438 117.132812 173.335938 116.644531 175.328125 C 116.199219 177.195312 116.441406 179.960938 116.117188 181.015625 C 115.992188 181.464844 115.871094 181.628906 115.667969 181.871094 C 115.464844 182.113281 115.179688 182.316406 114.855469 182.441406 C 114.449219 182.5625 113.800781 182.5625 113.433594 182.441406 C 113.109375 182.316406 112.824219 182.15625 112.621094 181.871094 C 112.375 181.546875 112.089844 180.53125 112.089844 180.53125 "/></clipPath><clipPath id="e61284ac62"><path d="M 134.445312 176.570312 L 140.109375 176.570312 L 140.109375 209.90625 L 134.445312 209.90625 Z M 134.445312 176.570312 "/></clipPath><clipPath id="d801eaad87"><path d="M 138.59375 178.617188 C 139.976562 198.007812 140.425781 205.40625 139.855469 207.847656 C 139.613281 208.742188 139.367188 209.1875 138.960938 209.511719 C 138.59375 209.796875 138.105469 209.917969 137.699219 209.878906 C 137.171875 209.796875 136.359375 209.308594 136.074219 208.902344 C 135.789062 208.539062 135.75 208.050781 135.789062 207.644531 C 135.832031 207.238281 136.035156 206.75 136.320312 206.464844 C 136.601562 206.140625 137.050781 205.894531 137.457031 205.855469 C 137.984375 205.8125 138.878906 206.058594 139.285156 206.464844 C 139.652344 206.871094 139.855469 207.765625 139.773438 208.292969 C 139.734375 208.699219 139.449219 209.148438 139.125 209.390625 C 138.796875 209.675781 138.3125 209.839844 137.902344 209.878906 C 137.496094 209.917969 137.011719 209.796875 136.644531 209.511719 C 136.238281 209.1875 135.992188 208.742188 135.789062 207.847656 C 135.179688 205.40625 135.914062 198.171875 135.710938 193.292969 C 135.503906 188.414062 134.203125 180.855469 134.53125 178.617188 C 134.652344 177.886719 134.734375 177.601562 135.058594 177.277344 C 135.34375 176.910156 135.871094 176.628906 136.320312 176.585938 C 136.765625 176.546875 137.375 176.628906 137.742188 176.953125 C 138.148438 177.277344 138.59375 178.617188 138.59375 178.617188 "/></clipPath><clipPath id="57e89b37dc"><path d="M 84.078125 205.96875 L 116.878906 205.96875 L 116.878906 211 L 84.078125 211 Z M 84.078125 205.96875 "/></clipPath><clipPath id="790c2134ab"><path d="M 86.117188 205.976562 C 116.035156 206.910156 116.238281 207.113281 116.480469 207.480469 C 116.765625 207.847656 116.886719 208.414062 116.847656 208.863281 C 116.765625 209.308594 116.523438 209.839844 116.15625 210.164062 C 115.832031 210.449219 114.855469 210.730469 114.816406 210.652344 C 114.773438 210.609375 116.605469 209.472656 116.644531 209.511719 C 116.683594 209.554688 116.15625 210.285156 115.75 210.449219 C 115.261719 210.652344 114.328125 210.609375 113.839844 210.40625 C 113.433594 210.246094 113.109375 209.878906 112.945312 209.472656 C 112.78125 208.945312 112.78125 208.007812 113.109375 207.5625 C 113.390625 207.074219 114.207031 206.625 114.734375 206.585938 C 115.304688 206.585938 116.117188 206.992188 116.441406 207.441406 C 116.808594 207.886719 116.929688 208.78125 116.726562 209.308594 C 116.5625 209.839844 115.871094 210.449219 115.34375 210.609375 C 114.773438 210.730469 113.878906 210.527344 113.472656 210.164062 C 113.066406 209.796875 112.660156 208.945312 112.824219 208.375 C 112.984375 207.722656 114.367188 206.75 114.816406 206.585938 C 115.019531 206.546875 115.101562 206.585938 115.304688 206.667969 C 115.628906 206.789062 116.238281 207.113281 116.480469 207.480469 C 116.765625 207.847656 116.886719 208.414062 116.847656 208.863281 C 116.765625 209.308594 116.523438 209.839844 116.15625 210.164062 C 115.832031 210.449219 115.585938 210.527344 114.816406 210.652344 C 111.402344 211.261719 88.839844 211.015625 85.628906 209.960938 C 84.898438 209.757812 84.695312 209.511719 84.449219 209.148438 C 84.207031 208.78125 84.042969 208.210938 84.085938 207.765625 C 84.164062 207.316406 84.449219 206.789062 84.773438 206.503906 C 85.101562 206.179688 86.117188 205.976562 86.117188 205.976562 "/></clipPath><clipPath id="81322c409a"><path d="M 109.507812 206.707031 L 146.167969 206.707031 L 146.167969 211.265625 L 109.507812 211.265625 Z M 109.507812 206.707031 "/></clipPath><clipPath id="7b95517586"><path d="M 111.5625 207.074219 C 141.96875 206.503906 143.433594 206.707031 144.488281 207.074219 C 145.058594 207.277344 145.464844 207.519531 145.707031 207.847656 C 145.953125 208.089844 146.074219 208.375 146.117188 208.699219 C 146.15625 209.148438 146.117188 209.757812 145.832031 210.121094 C 145.546875 210.570312 144.203125 211.058594 144.203125 211.097656 C 144.246094 211.140625 145.464844 210.609375 145.464844 210.609375 C 145.464844 210.609375 144.652344 211.058594 144.246094 211.097656 C 143.839844 211.140625 143.351562 210.976562 142.984375 210.773438 C 142.660156 210.527344 142.292969 210.164062 142.214844 209.757812 C 142.050781 209.226562 142.132812 208.332031 142.457031 207.847656 C 142.824219 207.398438 143.675781 207.074219 144.203125 207.03125 C 144.609375 207.03125 145.097656 207.238281 145.382812 207.480469 C 145.707031 207.765625 146.035156 208.171875 146.074219 208.578125 C 146.15625 209.105469 145.953125 210.042969 145.628906 210.449219 C 145.34375 210.773438 144.894531 210.976562 144.488281 211.058594 C 144.082031 211.140625 143.554688 211.058594 143.1875 210.894531 C 142.824219 210.691406 142.457031 210.367188 142.292969 209.960938 C 142.089844 209.472656 142.050781 208.539062 142.335938 208.050781 C 142.699219 207.519531 143.878906 207.03125 144.488281 207.074219 C 144.976562 207.113281 145.464844 207.480469 145.707031 207.847656 C 145.992188 208.171875 146.15625 208.742188 146.15625 209.1875 C 146.117188 209.632812 145.871094 210.203125 145.546875 210.527344 C 145.222656 210.8125 144.773438 211.015625 144.203125 211.097656 C 143.390625 211.179688 142.417969 210.609375 141.035156 210.488281 C 138.554688 210.246094 134.53125 210.367188 130.507812 210.449219 C 125.140625 210.527344 114.207031 211.585938 111.5625 211.140625 C 110.832031 211.058594 110.546875 210.933594 110.222656 210.652344 C 109.855469 210.367188 109.613281 209.796875 109.53125 209.351562 C 109.488281 208.902344 109.613281 208.332031 109.898438 207.96875 C 110.222656 207.5625 111.5625 207.074219 111.5625 207.074219 "/></clipPath><clipPath id="0f8809b232"><path d="M 92.722656 157.359375 L 97.78125 157.359375 L 97.78125 208.179688 L 92.722656 208.179688 Z M 92.722656 157.359375 "/></clipPath><clipPath id="671633a13b"><path d="M 93.148438 206.140625 C 92.90625 158.417969 93.148438 158.050781 93.554688 157.726562 C 93.921875 157.480469 94.410156 157.320312 94.816406 157.398438 C 95.34375 157.441406 96.15625 157.929688 96.441406 158.375 C 96.726562 158.742188 96.765625 159.230469 96.726562 159.636719 C 96.6875 160.042969 96.480469 160.53125 96.199219 160.816406 C 95.914062 161.097656 95.464844 161.382812 95.058594 161.425781 C 94.53125 161.464844 93.636719 161.222656 93.230469 160.816406 C 92.863281 160.40625 92.660156 159.515625 92.742188 158.984375 C 92.785156 158.539062 93.066406 158.132812 93.394531 157.886719 C 93.71875 157.601562 94.207031 157.398438 94.613281 157.398438 C 95.019531 157.359375 95.507812 157.480469 95.871094 157.726562 C 96.277344 158.050781 96.480469 158.417969 96.765625 159.433594 C 97.988281 164.351562 98.027344 201.667969 97.214844 206.140625 C 97.09375 206.953125 97.011719 207.15625 96.726562 207.519531 C 96.402344 207.847656 95.871094 208.128906 95.425781 208.171875 C 94.976562 208.210938 94.410156 208.128906 94.042969 207.847656 C 93.597656 207.480469 93.148438 206.140625 93.148438 206.140625 "/></clipPath><clipPath id="c34fe3a63e"><path d="M 91.527344 119.160156 L 97.269531 119.160156 L 97.269531 168.160156 L 91.527344 168.160156 Z M 91.527344 119.160156 "/></clipPath><clipPath id="3583d82071"><path d="M 93.109375 166.140625 C 91.523438 137.277344 91.15625 124.515625 91.96875 121.222656 C 92.214844 120.289062 92.457031 119.878906 92.863281 119.554688 C 93.230469 119.269531 93.675781 119.148438 94.125 119.191406 C 94.652344 119.269531 95.464844 119.757812 95.75 120.164062 C 95.996094 120.53125 96.074219 121.019531 96.035156 121.425781 C 95.996094 121.832031 95.792969 122.320312 95.507812 122.605469 C 95.222656 122.929688 94.773438 123.171875 94.328125 123.214844 C 93.800781 123.253906 92.90625 123.011719 92.539062 122.605469 C 92.171875 122.199219 91.96875 121.304688 92.011719 120.773438 C 92.09375 120.367188 92.375 119.921875 92.703125 119.675781 C 93.027344 119.394531 93.515625 119.230469 93.921875 119.191406 C 94.328125 119.148438 94.816406 119.269531 95.140625 119.554688 C 95.546875 119.878906 95.832031 120.289062 96.035156 121.222656 C 96.808594 124.394531 95.589844 136.304688 95.75 143.78125 C 95.953125 151.261719 97.621094 163.214844 97.171875 166.140625 C 97.050781 166.871094 96.96875 167.15625 96.6875 167.480469 C 96.359375 167.804688 95.832031 168.089844 95.386719 168.132812 C 94.9375 168.214844 94.367188 168.089844 94.003906 167.804688 C 93.554688 167.480469 93.109375 166.140625 93.109375 166.140625 "/></clipPath><clipPath id="76ffea0a78"><path d="M 138 206.640625 L 182.953125 206.640625 L 182.953125 211.40625 L 138 211.40625 Z M 138 206.640625 "/></clipPath><clipPath id="ab0b8da455"><path d="M 140.058594 206.667969 C 181.886719 207.316406 182.253906 207.519531 182.578125 207.96875 C 182.863281 208.292969 182.984375 208.78125 182.945312 209.1875 C 182.863281 209.714844 182.375 210.527344 181.96875 210.8125 C 181.601562 211.097656 181.113281 211.179688 180.667969 211.097656 C 180.179688 211.015625 179.40625 210.488281 179.121094 210.042969 C 178.878906 209.675781 178.839844 209.148438 178.878906 208.742188 C 178.960938 208.375 179.164062 207.886719 179.488281 207.601562 C 179.894531 207.277344 180.828125 207.03125 181.359375 207.113281 C 181.765625 207.15625 182.171875 207.480469 182.457031 207.765625 C 182.699219 208.089844 182.902344 208.578125 182.945312 208.984375 C 182.945312 209.390625 182.820312 209.878906 182.578125 210.246094 C 182.335938 210.570312 182.171875 210.8125 181.5625 211.015625 C 179.285156 211.789062 170.179688 211.179688 163.796875 211.140625 C 156.359375 211.058594 142.457031 211.585938 139.570312 210.652344 C 138.839844 210.449219 138.636719 210.203125 138.351562 209.839844 C 138.105469 209.472656 137.984375 208.902344 138.027344 208.457031 C 138.066406 208.007812 138.351562 207.480469 138.675781 207.15625 C 139.042969 206.871094 140.058594 206.667969 140.058594 206.667969 "/></clipPath><clipPath id="52a9544f6e"><path d="M 175.675781 207.226562 L 211.652344 207.226562 L 211.652344 211.699219 L 175.675781 211.699219 Z M 175.675781 207.226562 "/></clipPath><clipPath id="45330fa3ec"><path d="M 177.742188 207.238281 C 208.1875 207.238281 209.40625 207.316406 210.300781 207.683594 C 210.789062 207.886719 211.113281 208.089844 211.316406 208.496094 C 211.601562 208.945312 211.722656 209.839844 211.519531 210.367188 C 211.316406 210.894531 210.625 211.464844 210.097656 211.585938 C 209.527344 211.707031 208.632812 211.421875 208.226562 211.097656 C 207.902344 210.8125 207.699219 210.367188 207.617188 209.960938 C 207.578125 209.554688 207.617188 209.023438 207.863281 208.660156 C 208.144531 208.210938 208.878906 207.644531 209.40625 207.601562 C 209.976562 207.519531 210.828125 207.886719 211.195312 208.292969 C 211.5625 208.742188 211.683594 209.632812 211.601562 210.164062 C 211.519531 210.609375 211.195312 210.976562 210.871094 211.21875 C 210.542969 211.503906 210.136719 211.625 209.652344 211.667969 C 208.835938 211.707031 208.066406 211.261719 206.4375 211.140625 C 201.601562 210.773438 180.464844 212.234375 177.253906 211.21875 C 176.5625 211.015625 176.316406 210.773438 176.074219 210.40625 C 175.832031 210.042969 175.667969 209.472656 175.707031 209.023438 C 175.789062 208.578125 176.074219 208.050781 176.398438 207.722656 C 176.722656 207.441406 177.742188 207.238281 177.742188 207.238281 "/></clipPath><clipPath id="7fe7b53539"><path d="M 187.480469 163.808594 L 192.28125 163.808594 L 192.28125 211.367188 L 187.480469 211.367188 Z M 187.480469 163.808594 "/></clipPath><clipPath id="28cb939e17"><path d="M 187.496094 209.308594 C 188.066406 172.726562 187.496094 167.804688 187.820312 165.816406 C 187.945312 165.164062 188.023438 164.839844 188.308594 164.472656 C 188.632812 164.148438 189.121094 163.863281 189.609375 163.824219 C 190.140625 163.78125 190.992188 164.105469 191.359375 164.472656 C 191.683594 164.796875 191.96875 165.367188 191.886719 165.816406 C 191.765625 166.464844 190.546875 167.683594 189.894531 167.847656 C 189.488281 167.96875 189 167.765625 188.675781 167.480469 C 188.269531 167.15625 187.820312 166.34375 187.820312 165.773438 C 187.820312 165.203125 188.269531 164.433594 188.757812 164.105469 C 189.246094 163.824219 190.140625 163.742188 190.667969 163.984375 C 191.15625 164.1875 191.722656 164.921875 191.847656 165.449219 C 191.96875 166.019531 191.683594 166.871094 191.277344 167.277344 C 190.871094 167.683594 189.976562 167.886719 189.449219 167.847656 C 189.042969 167.765625 188.59375 167.480469 188.351562 167.195312 C 188.066406 166.871094 187.863281 166.425781 187.820312 166.019531 C 187.78125 165.570312 187.902344 165.082031 188.148438 164.757812 C 188.351562 164.390625 189.121094 163.902344 189.164062 163.945312 C 189.164062 163.945312 187.902344 165.367188 187.863281 165.367188 C 187.863281 165.328125 188.351562 164.433594 188.675781 164.148438 C 188.960938 163.945312 189.285156 163.824219 189.609375 163.824219 C 190.015625 163.78125 190.667969 163.945312 190.992188 164.148438 C 191.277344 164.351562 191.480469 164.554688 191.644531 164.878906 C 191.925781 165.449219 192.007812 166.261719 192.089844 167.320312 C 192.292969 169.269531 192.171875 171.953125 192.171875 175.652344 C 192.128906 183.171875 192.660156 206.261719 191.519531 209.796875 C 191.277344 210.527344 191.074219 210.730469 190.707031 211.015625 C 190.34375 211.261719 189.730469 211.382812 189.285156 211.34375 C 188.839844 211.300781 188.308594 211.015625 188.023438 210.691406 C 187.742188 210.324219 187.496094 209.308594 187.496094 209.308594 "/></clipPath><clipPath id="4aa6c348af"><path d="M 154.464844 152.132812 L 159.699219 152.132812 L 159.699219 211.175781 L 154.464844 211.175781 Z M 154.464844 152.132812 "/></clipPath><clipPath id="35e82dfa9c"><path d="M 154.488281 209.105469 C 154.734375 167.480469 154.855469 160.570312 155.179688 156.953125 C 155.300781 155.285156 155.300781 154.109375 155.707031 153.335938 C 155.910156 152.886719 156.195312 152.5625 156.601562 152.398438 C 157.089844 152.195312 158.027344 152.15625 158.511719 152.398438 C 159 152.683594 159.449219 153.457031 159.570312 153.984375 C 159.652344 154.433594 159.53125 154.921875 159.285156 155.246094 C 158.960938 155.691406 158.1875 156.140625 157.660156 156.222656 C 157.210938 156.300781 156.726562 156.140625 156.398438 155.894531 C 155.992188 155.53125 155.546875 154.71875 155.503906 154.1875 C 155.464844 153.742188 155.628906 153.292969 155.910156 152.96875 C 156.277344 152.5625 157.132812 152.195312 157.660156 152.15625 C 158.105469 152.15625 158.554688 152.398438 158.878906 152.644531 C 159.164062 152.929688 159.367188 153.132812 159.53125 153.78125 C 160.140625 156.222656 158.878906 165.570312 158.675781 172.96875 C 158.433594 183.132812 159.246094 205.246094 158.554688 209.105469 C 158.390625 209.917969 158.308594 210.121094 158.027344 210.488281 C 157.742188 210.8125 157.210938 211.097656 156.765625 211.140625 C 156.316406 211.179688 155.707031 211.097656 155.34375 210.8125 C 154.9375 210.449219 154.488281 209.105469 154.488281 209.105469 "/></clipPath><clipPath id="dc05ccc542"><path d="M 155.171875 118.765625 L 159.871094 118.765625 L 159.871094 162.921875 L 155.171875 162.921875 Z M 155.171875 118.765625 "/></clipPath><clipPath id="bf3cd06b67"><path d="M 155.222656 160.894531 C 155.667969 130.410156 154.8125 123.335938 155.425781 120.816406 C 155.628906 119.960938 155.910156 119.472656 156.316406 119.148438 C 156.644531 118.863281 157.132812 118.742188 157.539062 118.785156 C 158.066406 118.863281 158.878906 119.351562 159.203125 119.757812 C 159.449219 120.125 159.570312 120.613281 159.449219 121.058594 C 159.367188 121.546875 158.839844 122.320312 158.390625 122.605469 C 158.027344 122.847656 157.539062 122.890625 157.132812 122.847656 C 156.726562 122.765625 156.238281 122.5625 155.953125 122.238281 C 155.628906 121.832031 155.382812 120.898438 155.464844 120.367188 C 155.503906 119.960938 155.832031 119.554688 156.113281 119.269531 C 156.441406 119.027344 156.929688 118.824219 157.335938 118.785156 C 157.742188 118.785156 158.269531 118.90625 158.59375 119.148438 C 158.917969 119.394531 159.164062 119.597656 159.367188 120.164062 C 160.058594 122.117188 159.691406 128.578125 159.691406 133.984375 C 159.734375 141.546875 160.222656 158.253906 159.203125 161.382812 C 158.960938 162.074219 158.757812 162.320312 158.390625 162.5625 C 158.027344 162.804688 157.414062 162.96875 157.007812 162.886719 C 156.5625 162.847656 155.992188 162.5625 155.707031 162.238281 C 155.425781 161.914062 155.222656 160.894531 155.222656 160.894531 "/></clipPath><clipPath id="ce8f939b8f"><path d="M 156 136.003906 L 205.839844 136.003906 L 205.839844 177.496094 L 156 177.496094 Z M 156 136.003906 "/></clipPath><clipPath id="a60f1e4601"><path d="M 159.246094 136.425781 C 181.359375 154.960938 199.855469 168.496094 203.835938 172.601562 C 204.976562 173.742188 205.503906 174.511719 205.707031 175.082031 C 205.789062 175.367188 205.789062 175.488281 205.707031 175.773438 C 205.585938 176.179688 205.058594 177.035156 204.570312 177.277344 C 204.039062 177.480469 203.105469 177.398438 202.660156 177.15625 C 202.253906 176.953125 201.925781 176.585938 201.804688 176.140625 C 201.640625 175.652344 201.722656 174.71875 202.050781 174.269531 C 202.332031 173.824219 203.1875 173.417969 203.714844 173.375 C 204.164062 173.335938 204.609375 173.496094 204.933594 173.824219 C 205.339844 174.148438 205.707031 175 205.75 175.53125 C 205.75 175.976562 205.503906 176.425781 205.261719 176.75 C 204.976562 177.035156 204.570312 177.359375 204.121094 177.398438 C 203.59375 177.480469 202.699219 177.238281 202.292969 176.871094 C 201.96875 176.628906 202.171875 176.300781 201.683594 175.734375 C 199.164062 172.726562 179.042969 158.292969 170.75 151.507812 C 165.058594 146.871094 158.027344 141.546875 156.523438 139.390625 C 156.113281 138.78125 156.035156 138.5 156.035156 138.050781 C 156.035156 137.605469 156.277344 137.035156 156.5625 136.710938 C 156.847656 136.382812 157.414062 136.101562 157.863281 136.058594 C 158.308594 136.019531 159.246094 136.425781 159.246094 136.425781 "/></clipPath><clipPath id="b0fa399569"><path d="M 75.671875 93.226562 L 126 93.226562 L 126 134.421875 L 75.671875 134.421875 Z M 75.671875 93.226562 "/></clipPath><clipPath id="b1b5e0896d"><path d="M 76.808594 130.570312 C 86.359375 123.5 97.945312 113.171875 105.058594 107.402344 C 110.75 102.765625 118.390625 96.34375 120.710938 95.085938 C 121.277344 94.800781 121.5625 94.921875 121.886719 94.679688 C 122.214844 94.476562 122.335938 93.90625 122.660156 93.660156 C 122.984375 93.417969 123.515625 93.296875 123.921875 93.296875 C 124.328125 93.335938 124.816406 93.457031 125.097656 93.785156 C 125.507812 94.148438 125.832031 95.003906 125.832031 95.53125 C 125.832031 95.980469 125.585938 96.425781 125.304688 96.710938 C 125.019531 97.035156 124.570312 97.28125 124.164062 97.320312 C 123.636719 97.402344 122.742188 97.078125 122.335938 96.75 C 122.011719 96.464844 121.808594 96.019531 121.808594 95.574219 C 121.765625 95.042969 122.132812 94.148438 122.496094 93.785156 C 122.78125 93.5 123.269531 93.335938 123.675781 93.296875 C 124.082031 93.296875 124.613281 93.417969 124.9375 93.660156 C 125.304688 93.863281 125.585938 94.273438 125.75 94.679688 C 125.871094 95.042969 126.035156 95.371094 125.75 95.980469 C 123.878906 99.960938 91.320312 125.164062 83.679688 130.734375 C 81.035156 132.644531 79.164062 134.109375 78.027344 134.3125 C 77.621094 134.394531 77.378906 134.3125 77.09375 134.148438 C 76.726562 133.984375 76.238281 133.578125 76.035156 133.171875 C 75.832031 132.765625 75.792969 132.15625 75.914062 131.710938 C 76.035156 131.304688 76.808594 130.570312 76.808594 130.570312 "/></clipPath><clipPath id="a0008f9f43"><path d="M 121.535156 93 L 180.207031 93 L 180.207031 135.925781 L 121.535156 135.925781 Z M 121.535156 93 "/></clipPath><clipPath id="00d9ea0d18"><path d="M 124.410156 93.050781 C 132.214844 98.011719 136.5625 102.035156 140.914062 105.164062 C 145.953125 108.742188 151.804688 111.996094 157.578125 115.976562 C 164.164062 120.53125 175.058594 128.578125 178.148438 131.140625 C 179.121094 131.953125 179.691406 132.277344 179.976562 132.847656 C 180.21875 133.296875 180.261719 133.742188 180.140625 134.148438 C 180.015625 134.636719 179.40625 135.367188 178.917969 135.613281 C 178.554688 135.816406 178.066406 135.855469 177.660156 135.695312 C 177.132812 135.53125 176.441406 134.960938 176.238281 134.433594 C 176.035156 133.90625 176.238281 132.96875 176.519531 132.523438 C 176.765625 132.15625 177.171875 131.871094 177.578125 131.792969 C 178.105469 131.667969 179 131.871094 179.449219 132.15625 C 179.8125 132.402344 180.058594 132.886719 180.140625 133.253906 C 180.21875 133.660156 180.21875 134.1875 180.015625 134.554688 C 179.773438 135.042969 179.042969 135.613281 178.511719 135.734375 C 178.105469 135.855469 177.863281 135.816406 177.210938 135.53125 C 174.324219 134.351562 162.132812 124.066406 155.300781 119.351562 C 149.53125 115.328125 144.082031 112.402344 138.960938 108.742188 C 134.203125 105.367188 128.390625 100.207031 125.507812 98.296875 C 124.207031 97.441406 123.230469 97.238281 122.578125 96.671875 C 122.132812 96.261719 121.847656 95.898438 121.726562 95.492188 C 121.644531 95.042969 121.683594 94.433594 121.886719 94.027344 C 122.089844 93.660156 122.539062 93.253906 122.984375 93.09375 C 123.390625 92.929688 124.410156 93.050781 124.410156 93.050781 "/></clipPath><clipPath id="81509ff1bb"><path d="M 121.390625 57.28125 L 126.144531 57.28125 L 126.144531 98.101562 L 121.390625 98.101562 Z M 121.390625 57.28125 "/></clipPath><clipPath id="3417b43736"><path d="M 121.402344 96.058594 C 122.089844 58.378906 122.335938 57.972656 122.742188 57.644531 C 123.066406 57.363281 123.554688 57.238281 124.003906 57.320312 C 124.488281 57.363281 125.304688 57.851562 125.628906 58.296875 C 125.871094 58.621094 125.992188 59.109375 125.914062 59.558594 C 125.789062 60.085938 125.261719 60.859375 124.816406 61.140625 C 124.449219 61.34375 123.960938 61.386719 123.554688 61.34375 C 123.148438 61.265625 122.660156 61.0625 122.417969 60.734375 C 122.050781 60.328125 121.765625 59.433594 121.886719 58.90625 C 122.011719 58.335938 122.621094 57.644531 123.109375 57.441406 C 123.636719 57.238281 124.570312 57.402344 125.019531 57.644531 C 125.382812 57.851562 125.628906 58.214844 125.789062 58.703125 C 126.035156 59.3125 125.871094 59.882812 125.914062 61.222656 C 125.992188 66.183594 126.5625 92.929688 125.382812 96.546875 C 125.179688 97.28125 124.9375 97.441406 124.570312 97.726562 C 124.207031 97.96875 123.636719 98.132812 123.1875 98.050781 C 122.742188 98.011719 122.214844 97.726562 121.886719 97.402344 C 121.605469 97.078125 121.402344 96.058594 121.402344 96.058594 "/></clipPath><clipPath id="89faa6c0fd"><path d="M 109.308594 72.410156 L 139.664062 72.410156 L 139.664062 77.871094 L 109.308594 77.871094 Z M 109.308594 72.410156 "/></clipPath><clipPath id="bd7116d5ba"><path d="M 111.277344 72.441406 C 119.207031 72.523438 123.515625 73.378906 127.171875 73.582031 C 130.789062 73.785156 136.320312 73.09375 138.105469 73.664062 C 138.757812 73.867188 139.042969 74.109375 139.285156 74.476562 C 139.53125 74.839844 139.691406 75.410156 139.652344 75.859375 C 139.570312 76.304688 139.285156 76.832031 138.960938 77.160156 C 138.636719 77.441406 138.105469 77.6875 137.621094 77.644531 C 137.089844 77.605469 136.277344 77.160156 135.953125 76.75 C 135.667969 76.425781 135.546875 75.9375 135.585938 75.53125 C 135.667969 75.003906 136.074219 74.191406 136.5625 73.867188 C 137.050781 73.582031 137.945312 73.539062 138.472656 73.785156 C 139 74.027344 139.53125 74.761719 139.613281 75.289062 C 139.734375 75.859375 139.40625 76.710938 139 77.117188 C 138.59375 77.484375 137.742188 77.726562 137.171875 77.605469 C 136.644531 77.484375 135.953125 76.914062 135.75 76.386719 C 135.503906 75.859375 135.667969 74.964844 135.953125 74.476562 C 136.15625 74.109375 136.601562 73.824219 136.96875 73.703125 C 137.335938 73.582031 137.742188 73.539062 138.105469 73.664062 C 138.515625 73.785156 139.042969 74.109375 139.285156 74.476562 C 139.53125 74.839844 139.691406 75.410156 139.652344 75.859375 C 139.570312 76.304688 139.285156 76.832031 138.960938 77.160156 C 138.636719 77.441406 138.3125 77.523438 137.621094 77.644531 C 135.789062 78.011719 130.507812 77.847656 126.96875 77.644531 C 123.472656 77.441406 119.410156 76.589844 116.480469 76.425781 C 114.328125 76.304688 112.089844 76.792969 110.914062 76.46875 C 110.34375 76.265625 109.976562 76.019531 109.734375 75.695312 C 109.449219 75.328125 109.285156 74.761719 109.328125 74.3125 C 109.367188 73.867188 109.613281 73.296875 109.9375 73.011719 C 110.261719 72.6875 111.277344 72.441406 111.277344 72.441406 "/></clipPath><clipPath id="0681267ad3"><path d="M 201.816406 274.824219 L 208.402344 274.824219 L 208.402344 316.246094 L 201.816406 316.246094 Z M 201.816406 274.824219 "/></clipPath><clipPath id="a74b4e6eed"><path d="M 205.46875 276.652344 C 208.328125 315.121094 208.292969 315.265625 208.007812 315.550781 C 207.6875 315.910156 206.933594 316.230469 206.46875 316.230469 C 206.113281 316.230469 205.683594 316.050781 205.433594 315.800781 C 205.113281 315.445312 204.824219 314.691406 204.824219 314.226562 C 204.863281 313.835938 205.074219 313.441406 205.328125 313.191406 C 205.578125 312.941406 205.96875 312.691406 206.363281 312.691406 C 206.828125 312.65625 207.613281 312.871094 207.9375 313.226562 C 208.257812 313.621094 208.4375 314.40625 208.363281 314.871094 C 208.292969 315.230469 208.007812 315.585938 207.757812 315.835938 C 207.472656 316.050781 207.078125 316.265625 206.683594 316.230469 C 206.21875 316.230469 205.503906 315.871094 205.183594 315.515625 C 204.824219 315.15625 204.71875 314.765625 204.574219 314.050781 C 204.183594 312.226562 204.46875 308.222656 204.21875 304.109375 C 203.789062 297.210938 201.464844 279.761719 201.894531 276.652344 C 202 275.972656 202.109375 275.757812 202.359375 275.4375 C 202.609375 275.152344 203.074219 274.902344 203.46875 274.867188 C 203.859375 274.828125 204.398438 274.902344 204.71875 275.152344 C 205.074219 275.472656 205.46875 276.652344 205.46875 276.652344 "/></clipPath><clipPath id="69d629fdab"><path d="M 184.335938 253.875 L 234 253.875 L 234 290.601562 L 184.335938 290.601562 Z M 184.335938 253.875 "/></clipPath><clipPath id="2f2516c84d"><path d="M 184.914062 287.523438 C 192.777344 280.835938 197.996094 277.691406 202.289062 274.617188 C 206.828125 271.363281 211.582031 267.464844 216.160156 264.246094 C 220.414062 261.171875 226.132812 257.382812 228.816406 255.667969 C 230.03125 254.878906 230.746094 254.273438 231.460938 254.023438 C 231.925781 253.878906 232.246094 253.84375 232.605469 253.914062 C 232.960938 253.988281 233.355469 254.238281 233.570312 254.523438 C 233.820312 254.808594 234 255.203125 234 255.59375 C 233.964844 256.058594 233.675781 256.8125 233.285156 257.097656 C 232.890625 257.382812 232.105469 257.527344 231.640625 257.347656 C 231.175781 257.203125 230.636719 256.5625 230.496094 256.132812 C 230.351562 255.773438 230.425781 255.308594 230.566406 254.988281 C 230.710938 254.664062 230.960938 254.273438 231.316406 254.128906 C 231.710938 253.914062 232.535156 253.84375 232.960938 254.058594 C 233.425781 254.273438 233.890625 254.917969 233.964844 255.382812 C 234.070312 255.882812 233.925781 256.347656 233.425781 256.953125 C 231.78125 259.0625 223.238281 263.566406 218.410156 267 C 213.691406 270.359375 209.042969 274.1875 204.683594 277.296875 C 200.855469 280.050781 196.816406 282.410156 193.671875 284.804688 C 191.097656 286.699219 188.453125 289.703125 187.023438 290.347656 C 186.519531 290.597656 186.164062 290.632812 185.769531 290.558594 C 185.414062 290.488281 184.949219 290.203125 184.734375 289.882812 C 184.484375 289.558594 184.339844 289.058594 184.375 288.664062 C 184.375 288.273438 184.914062 287.523438 184.914062 287.523438 "/></clipPath><clipPath id="16cd9848a8"><path d="M 186 312.574219 L 229.839844 312.574219 L 229.839844 317.035156 L 186 317.035156 Z M 186 312.574219 "/></clipPath><clipPath id="a155daf8c2"><path d="M 187.773438 313.261719 C 204.503906 313.046875 206.042969 313.371094 209.082031 313.40625 C 213.976562 313.441406 225.527344 312.261719 228.0625 312.65625 C 228.707031 312.761719 228.957031 312.871094 229.242188 313.121094 C 229.53125 313.371094 229.78125 313.835938 229.816406 314.226562 C 229.886719 314.621094 229.78125 315.15625 229.53125 315.480469 C 229.242188 315.835938 228.527344 316.230469 228.0625 316.230469 C 227.5625 316.230469 226.847656 315.835938 226.5625 315.445312 C 226.347656 315.15625 226.207031 314.730469 226.277344 314.371094 C 226.3125 313.90625 226.707031 313.191406 227.136719 312.941406 C 227.5625 312.65625 228.351562 312.621094 228.816406 312.832031 C 229.242188 313.046875 229.746094 313.691406 229.816406 314.15625 C 229.886719 314.65625 229.636719 315.40625 229.28125 315.765625 C 228.921875 316.085938 228.136719 316.300781 227.671875 316.195312 C 227.171875 316.085938 226.5625 315.585938 226.382812 315.121094 C 226.207031 314.65625 226.347656 313.871094 226.5625 313.441406 C 226.777344 313.121094 227.136719 312.871094 227.492188 312.761719 C 227.777344 312.65625 228.171875 312.621094 228.492188 312.726562 C 228.851562 312.832031 229.316406 313.15625 229.53125 313.441406 C 229.707031 313.691406 229.816406 313.941406 229.816406 314.226562 C 229.851562 314.621094 229.746094 315.15625 229.53125 315.480469 C 229.316406 315.800781 229.101562 315.980469 228.492188 316.195312 C 225.953125 317.050781 212.011719 317.050781 207.257812 316.980469 C 204.824219 316.945312 204.039062 316.660156 201.785156 316.585938 C 198.140625 316.480469 189.34375 317.410156 187.34375 316.800781 C 186.769531 316.625 186.519531 316.410156 186.304688 316.085938 C 186.09375 315.765625 185.949219 315.230469 186.019531 314.835938 C 186.054688 314.441406 186.304688 313.976562 186.59375 313.726562 C 186.878906 313.441406 187.773438 313.261719 187.773438 313.261719 "/></clipPath><clipPath id="ebd48a197f"><path d="M 248.191406 287.007812 L 252.414062 287.007812 L 252.414062 317.105469 L 248.191406 317.105469 Z M 248.191406 287.007812 "/></clipPath><clipPath id="a7553a7014"><path d="M 248.765625 315.300781 C 248.050781 297.066406 248.15625 291.953125 248.335938 289.882812 C 248.40625 289.09375 248.371094 288.703125 248.621094 288.238281 C 248.835938 287.773438 249.335938 287.234375 249.835938 287.09375 C 250.300781 286.949219 251.089844 287.128906 251.445312 287.449219 C 251.839844 287.773438 252.125 288.523438 252.089844 289.023438 C 252.019531 289.523438 251.515625 290.167969 251.125 290.417969 C 250.800781 290.597656 250.335938 290.632812 250.015625 290.597656 C 249.660156 290.523438 249.230469 290.308594 248.980469 290.058594 C 248.730469 289.773438 248.550781 289.34375 248.515625 288.988281 C 248.476562 288.628906 248.550781 288.199219 248.765625 287.878906 C 249.050781 287.523438 249.730469 287.058594 250.195312 287.019531 C 250.695312 287.019531 251.410156 287.414062 251.730469 287.734375 C 251.980469 288.023438 252.019531 288.273438 252.089844 288.84375 C 252.339844 290.703125 251.660156 296.925781 251.695312 301.179688 C 251.730469 305.71875 252.660156 313.191406 252.339844 315.300781 C 252.234375 315.945312 252.160156 316.195312 251.875 316.480469 C 251.625 316.765625 251.160156 317.015625 250.765625 317.089844 C 250.375 317.125 249.835938 317.015625 249.515625 316.765625 C 249.15625 316.480469 248.765625 315.300781 248.765625 315.300781 "/></clipPath><clipPath id="ace4c9cb48"><path d="M 248.484375 274 L 271.824219 274 L 271.824219 292.972656 L 248.484375 292.972656 Z M 248.484375 274 "/></clipPath><clipPath id="b81d60484a"><path d="M 248.550781 290.488281 C 248.691406 286.59375 249.015625 285.269531 249.371094 284.089844 C 249.730469 282.910156 250.160156 281.765625 250.695312 280.65625 C 251.230469 279.550781 251.980469 278.296875 252.625 277.511719 C 253.089844 276.902344 253.375 276.546875 253.984375 276.117188 C 254.84375 275.507812 256.238281 274.867188 257.417969 274.507812 C 258.597656 274.1875 260.027344 274.042969 261.027344 274.042969 C 261.742188 274.007812 262.3125 274.042969 262.886719 274.257812 C 263.496094 274.4375 263.921875 274.757812 264.496094 275.1875 C 265.316406 275.832031 266.390625 276.9375 267.175781 277.902344 C 268 278.871094 268.714844 279.800781 269.320312 281.015625 C 270.074219 282.480469 270.75 284.554688 271.179688 286.304688 C 271.539062 287.949219 271.824219 290.238281 271.753906 291.167969 C 271.753906 291.5625 271.71875 291.738281 271.574219 291.992188 C 271.359375 292.3125 270.964844 292.707031 270.609375 292.847656 C 270.25 292.992188 269.679688 292.957031 269.359375 292.847656 C 269.070312 292.742188 268.820312 292.597656 268.640625 292.347656 C 268.429688 292.0625 268.175781 291.597656 268.175781 291.167969 C 268.214844 290.703125 268.5 290.023438 268.894531 289.738281 C 269.285156 289.453125 270.074219 289.308594 270.574219 289.488281 C 271.039062 289.628906 271.574219 290.238281 271.71875 290.703125 C 271.824219 291.167969 271.644531 291.953125 271.324219 292.347656 C 271.003906 292.707031 270.25 292.992188 269.785156 292.957031 C 269.285156 292.882812 268.640625 292.382812 268.390625 291.992188 C 268.175781 291.667969 268.140625 291.238281 268.214844 290.882812 C 268.285156 290.523438 268.464844 290.09375 268.75 289.882812 C 269.105469 289.59375 269.894531 289.308594 270.359375 289.417969 C 270.859375 289.523438 271.429688 290.09375 271.644531 290.523438 C 271.824219 290.847656 271.789062 291.3125 271.679688 291.667969 C 271.609375 292.027344 271.324219 292.417969 271.003906 292.632812 C 270.679688 292.847656 270.144531 292.992188 269.75 292.957031 C 269.359375 292.882812 268.964844 292.777344 268.640625 292.347656 C 267.964844 291.417969 267.964844 288.058594 267.460938 286.304688 C 267.070312 284.910156 266.820312 283.804688 266.105469 282.585938 C 265.316406 281.15625 263.707031 279.121094 262.707031 278.332031 C 262.101562 277.867188 261.597656 277.726562 261.027344 277.617188 C 260.417969 277.476562 259.703125 277.546875 259.0625 277.691406 C 258.488281 277.832031 257.917969 278.191406 257.378906 278.441406 C 256.808594 278.726562 256.164062 278.90625 255.734375 279.296875 C 255.269531 279.65625 255.058594 280.085938 254.699219 280.730469 C 254.019531 281.910156 252.984375 284.160156 252.554688 285.914062 C 252.160156 287.558594 252.375 289.988281 252.089844 290.917969 C 251.980469 291.3125 251.875 291.453125 251.695312 291.667969 C 251.515625 291.882812 251.265625 292.0625 250.980469 292.167969 C 250.625 292.277344 250.050781 292.277344 249.730469 292.167969 C 249.445312 292.0625 249.195312 291.917969 249.015625 291.667969 C 248.800781 291.382812 248.550781 290.488281 248.550781 290.488281 "/></clipPath><clipPath id="20bbe9379f"><path d="M 268.210938 287.003906 L 273.191406 287.003906 L 273.191406 316.324219 L 268.210938 316.324219 Z M 268.210938 287.003906 "/></clipPath><clipPath id="d4e06b4aac"><path d="M 271.859375 288.808594 C 273.074219 305.863281 273.46875 312.367188 272.96875 314.515625 C 272.753906 315.300781 272.539062 315.695312 272.183594 315.980469 C 271.859375 316.230469 271.429688 316.335938 271.074219 316.300781 C 270.609375 316.230469 269.894531 315.800781 269.644531 315.445312 C 269.394531 315.121094 269.355469 314.691406 269.394531 314.335938 C 269.429688 313.976562 269.609375 313.546875 269.859375 313.296875 C 270.109375 313.011719 270.5 312.796875 270.859375 312.761719 C 271.324219 312.726562 272.109375 312.941406 272.46875 313.296875 C 272.789062 313.65625 272.96875 314.441406 272.898438 314.90625 C 272.859375 315.265625 272.609375 315.65625 272.324219 315.871094 C 272.039062 316.121094 271.609375 316.265625 271.253906 316.300781 C 270.894531 316.335938 270.464844 316.230469 270.144531 315.980469 C 269.785156 315.695312 269.570312 315.300781 269.394531 314.515625 C 268.855469 312.367188 269.5 306.003906 269.320312 301.714844 C 269.144531 297.425781 268 290.773438 268.285156 288.808594 C 268.390625 288.164062 268.464844 287.914062 268.75 287.628906 C 269 287.308594 269.464844 287.058594 269.859375 287.019531 C 270.25 286.984375 270.789062 287.058594 271.109375 287.34375 C 271.464844 287.628906 271.859375 288.808594 271.859375 288.808594 "/></clipPath><clipPath id="512ce3f272"><path d="M 223.910156 312.863281 L 252.761719 312.863281 L 252.761719 317.296875 L 223.910156 317.296875 Z M 223.910156 312.863281 "/></clipPath><clipPath id="1050ecb6d4"><path d="M 225.703125 312.871094 C 252.019531 313.691406 252.195312 313.871094 252.410156 314.191406 C 252.660156 314.515625 252.769531 315.015625 252.734375 315.40625 C 252.660156 315.800781 252.445312 316.265625 252.125 316.550781 C 251.839844 316.800781 250.980469 317.050781 250.945312 316.980469 C 250.910156 316.945312 252.519531 315.945312 252.554688 315.980469 C 252.589844 316.015625 252.125 316.660156 251.769531 316.800781 C 251.339844 316.980469 250.515625 316.945312 250.085938 316.765625 C 249.730469 316.625 249.445312 316.300781 249.300781 315.945312 C 249.15625 315.480469 249.15625 314.65625 249.445312 314.265625 C 249.695312 313.835938 250.410156 313.441406 250.875 313.40625 C 251.375 313.40625 252.089844 313.761719 252.375 314.15625 C 252.695312 314.550781 252.804688 315.335938 252.625 315.800781 C 252.484375 316.265625 251.875 316.800781 251.410156 316.945312 C 250.910156 317.050781 250.125 316.875 249.765625 316.550781 C 249.40625 316.230469 249.050781 315.480469 249.195312 314.980469 C 249.335938 314.40625 250.550781 313.546875 250.945312 313.40625 C 251.125 313.371094 251.195312 313.40625 251.375 313.476562 C 251.660156 313.585938 252.195312 313.871094 252.410156 314.191406 C 252.660156 314.515625 252.769531 315.015625 252.734375 315.40625 C 252.660156 315.800781 252.445312 316.265625 252.125 316.550781 C 251.839844 316.800781 251.625 316.875 250.945312 316.980469 C 247.941406 317.515625 228.101562 317.300781 225.277344 316.375 C 224.632812 316.195312 224.453125 315.980469 224.238281 315.65625 C 224.023438 315.335938 223.882812 314.835938 223.917969 314.441406 C 223.988281 314.050781 224.238281 313.585938 224.523438 313.335938 C 224.8125 313.046875 225.703125 312.871094 225.703125 312.871094 "/></clipPath><clipPath id="79865f1bd5"><path d="M 246.277344 313.511719 L 278.519531 313.511719 L 278.519531 317.519531 L 246.277344 317.519531 Z M 246.277344 313.511719 "/></clipPath><clipPath id="fbe2c2d13c"><path d="M 248.085938 313.835938 C 274.828125 313.335938 276.113281 313.511719 277.042969 313.835938 C 277.542969 314.011719 277.902344 314.226562 278.117188 314.515625 C 278.332031 314.726562 278.4375 314.980469 278.472656 315.265625 C 278.511719 315.65625 278.472656 316.195312 278.222656 316.515625 C 277.972656 316.910156 276.792969 317.339844 276.792969 317.375 C 276.828125 317.410156 277.902344 316.945312 277.902344 316.945312 C 277.902344 316.945312 277.1875 317.339844 276.828125 317.375 C 276.472656 317.410156 276.042969 317.265625 275.722656 317.089844 C 275.433594 316.875 275.113281 316.550781 275.042969 316.195312 C 274.898438 315.730469 274.96875 314.941406 275.257812 314.515625 C 275.578125 314.121094 276.328125 313.835938 276.792969 313.800781 C 277.152344 313.800781 277.582031 313.976562 277.832031 314.191406 C 278.117188 314.441406 278.402344 314.800781 278.4375 315.15625 C 278.511719 315.621094 278.332031 316.445312 278.046875 316.800781 C 277.792969 317.089844 277.402344 317.265625 277.042969 317.339844 C 276.6875 317.410156 276.222656 317.339844 275.898438 317.195312 C 275.578125 317.015625 275.257812 316.730469 275.113281 316.375 C 274.933594 315.945312 274.898438 315.121094 275.148438 314.691406 C 275.472656 314.226562 276.507812 313.800781 277.042969 313.835938 C 277.472656 313.871094 277.902344 314.191406 278.117188 314.515625 C 278.367188 314.800781 278.511719 315.300781 278.511719 315.695312 C 278.472656 316.085938 278.257812 316.585938 277.972656 316.875 C 277.6875 317.125 277.292969 317.300781 276.792969 317.375 C 276.078125 317.445312 275.21875 316.945312 274.003906 316.835938 C 271.824219 316.625 268.285156 316.730469 264.746094 316.800781 C 260.027344 316.875 250.410156 317.804688 248.085938 317.410156 C 247.441406 317.339844 247.191406 317.230469 246.90625 316.980469 C 246.582031 316.730469 246.371094 316.230469 246.296875 315.835938 C 246.261719 315.445312 246.371094 314.941406 246.621094 314.621094 C 246.90625 314.265625 248.085938 313.835938 248.085938 313.835938 "/></clipPath><clipPath id="ee174cceb8"><path d="M 231.515625 270.109375 L 235.964844 270.109375 L 235.964844 314.808594 L 231.515625 314.808594 Z M 231.515625 270.109375 "/></clipPath><clipPath id="393a60413f"><path d="M 231.890625 313.011719 C 231.675781 271.039062 231.890625 270.71875 232.246094 270.433594 C 232.570312 270.21875 233 270.074219 233.355469 270.144531 C 233.820312 270.183594 234.535156 270.609375 234.785156 271.003906 C 235.035156 271.324219 235.070312 271.753906 235.035156 272.113281 C 235 272.46875 234.820312 272.898438 234.570312 273.148438 C 234.320312 273.398438 233.925781 273.648438 233.570312 273.6875 C 233.105469 273.722656 232.320312 273.507812 231.960938 273.148438 C 231.640625 272.792969 231.460938 272.003906 231.53125 271.539062 C 231.566406 271.148438 231.816406 270.789062 232.105469 270.574219 C 232.390625 270.324219 232.820312 270.144531 233.175781 270.144531 C 233.535156 270.109375 233.964844 270.21875 234.285156 270.433594 C 234.644531 270.71875 234.820312 271.039062 235.070312 271.933594 C 236.144531 276.261719 236.179688 309.078125 235.464844 313.011719 C 235.359375 313.726562 235.285156 313.90625 235.035156 314.226562 C 234.75 314.515625 234.285156 314.765625 233.890625 314.800781 C 233.5 314.835938 233 314.765625 232.675781 314.515625 C 232.28125 314.191406 231.890625 313.011719 231.890625 313.011719 "/></clipPath><clipPath id="4e5e60e3ae"><path d="M 230.464844 236.515625 L 235.515625 236.515625 L 235.515625 279.609375 L 230.464844 279.609375 Z M 230.464844 236.515625 "/></clipPath><clipPath id="6ba8f20d06"><path d="M 231.855469 277.832031 C 230.460938 252.449219 230.136719 241.222656 230.851562 238.328125 C 231.066406 237.503906 231.28125 237.148438 231.640625 236.863281 C 231.960938 236.609375 232.355469 236.503906 232.746094 236.539062 C 233.210938 236.609375 233.925781 237.039062 234.179688 237.398438 C 234.390625 237.71875 234.464844 238.148438 234.429688 238.507812 C 234.390625 238.863281 234.214844 239.292969 233.964844 239.542969 C 233.714844 239.828125 233.320312 240.042969 232.925781 240.078125 C 232.460938 240.113281 231.675781 239.898438 231.351562 239.542969 C 231.03125 239.183594 230.851562 238.398438 230.890625 237.933594 C 230.960938 237.578125 231.210938 237.183594 231.496094 236.96875 C 231.78125 236.71875 232.210938 236.574219 232.570312 236.539062 C 232.925781 236.503906 233.355469 236.609375 233.640625 236.863281 C 234 237.148438 234.25 237.503906 234.429688 238.328125 C 235.105469 241.117188 234.035156 251.589844 234.179688 258.167969 C 234.355469 264.746094 235.824219 275.257812 235.429688 277.832031 C 235.320312 278.476562 235.25 278.726562 235 279.011719 C 234.714844 279.296875 234.25 279.550781 233.855469 279.585938 C 233.460938 279.65625 232.960938 279.550781 232.640625 279.296875 C 232.246094 279.011719 231.855469 277.832031 231.855469 277.832031 "/></clipPath><clipPath id="2ff73fba37"><path d="M 271.335938 313.453125 L 310.871094 313.453125 L 310.871094 317.644531 L 271.335938 317.644531 Z M 271.335938 313.453125 "/></clipPath><clipPath id="4357c6ef17"><path d="M 273.148438 313.476562 C 309.933594 314.050781 310.257812 314.226562 310.542969 314.621094 C 310.792969 314.90625 310.902344 315.335938 310.863281 315.695312 C 310.792969 316.160156 310.363281 316.875 310.007812 317.125 C 309.683594 317.375 309.257812 317.445312 308.863281 317.375 C 308.433594 317.300781 307.753906 316.839844 307.503906 316.445312 C 307.289062 316.121094 307.253906 315.65625 307.289062 315.300781 C 307.363281 314.980469 307.539062 314.550781 307.828125 314.300781 C 308.183594 314.011719 309.007812 313.800781 309.472656 313.871094 C 309.828125 313.90625 310.1875 314.191406 310.4375 314.441406 C 310.652344 314.730469 310.828125 315.15625 310.863281 315.515625 C 310.863281 315.871094 310.757812 316.300781 310.542969 316.625 C 310.328125 316.910156 310.1875 317.125 309.648438 317.300781 C 307.648438 317.980469 299.640625 317.445312 294.027344 317.410156 C 287.484375 317.339844 275.257812 317.804688 272.71875 316.980469 C 272.074219 316.800781 271.894531 316.585938 271.644531 316.265625 C 271.429688 315.945312 271.324219 315.445312 271.359375 315.050781 C 271.394531 314.65625 271.644531 314.191406 271.929688 313.90625 C 272.253906 313.65625 273.148438 313.476562 273.148438 313.476562 "/></clipPath><clipPath id="f59c745e4f"><path d="M 304.472656 313.96875 L 336.117188 313.96875 L 336.117188 317.902344 L 304.472656 317.902344 Z M 304.472656 313.96875 "/></clipPath><clipPath id="73462ec270"><path d="M 306.289062 313.976562 C 333.066406 313.976562 334.140625 314.050781 334.925781 314.371094 C 335.355469 314.550781 335.640625 314.726562 335.820312 315.085938 C 336.070312 315.480469 336.175781 316.265625 336 316.730469 C 335.820312 317.195312 335.210938 317.695312 334.746094 317.804688 C 334.246094 317.910156 333.460938 317.660156 333.101562 317.375 C 332.816406 317.125 332.636719 316.730469 332.566406 316.375 C 332.53125 316.015625 332.566406 315.550781 332.78125 315.230469 C 333.03125 314.835938 333.675781 314.335938 334.140625 314.300781 C 334.640625 314.226562 335.390625 314.550781 335.710938 314.90625 C 336.035156 315.300781 336.140625 316.085938 336.070312 316.550781 C 336 316.945312 335.710938 317.265625 335.425781 317.480469 C 335.140625 317.730469 334.78125 317.839844 334.355469 317.875 C 333.640625 317.910156 332.960938 317.515625 331.53125 317.410156 C 327.273438 317.089844 308.683594 318.375 305.859375 317.480469 C 305.253906 317.300781 305.039062 317.089844 304.824219 316.765625 C 304.609375 316.445312 304.464844 315.945312 304.5 315.550781 C 304.574219 315.15625 304.824219 314.691406 305.109375 314.40625 C 305.394531 314.15625 306.289062 313.976562 306.289062 313.976562 "/></clipPath><clipPath id="939f7168fe"><path d="M 314.855469 275.78125 L 319.078125 275.78125 L 319.078125 317.609375 L 314.855469 317.609375 Z M 314.855469 275.78125 "/></clipPath><clipPath id="7dc0bb09e2"><path d="M 314.871094 315.800781 C 315.371094 283.625 314.871094 279.296875 315.15625 277.546875 C 315.261719 276.976562 315.332031 276.6875 315.585938 276.367188 C 315.871094 276.082031 316.300781 275.832031 316.726562 275.796875 C 317.191406 275.757812 317.945312 276.046875 318.265625 276.367188 C 318.550781 276.652344 318.800781 277.152344 318.730469 277.546875 C 318.625 278.117188 317.550781 279.191406 316.980469 279.335938 C 316.621094 279.441406 316.191406 279.261719 315.90625 279.011719 C 315.546875 278.726562 315.15625 278.011719 315.15625 277.511719 C 315.15625 277.011719 315.546875 276.332031 315.976562 276.046875 C 316.40625 275.796875 317.191406 275.722656 317.65625 275.9375 C 318.085938 276.117188 318.585938 276.761719 318.695312 277.226562 C 318.800781 277.726562 318.550781 278.476562 318.195312 278.832031 C 317.835938 279.191406 317.050781 279.371094 316.585938 279.335938 C 316.226562 279.261719 315.835938 279.011719 315.621094 278.761719 C 315.371094 278.476562 315.191406 278.082031 315.15625 277.726562 C 315.121094 277.332031 315.226562 276.902344 315.441406 276.617188 C 315.621094 276.296875 316.300781 275.867188 316.335938 275.902344 C 316.335938 275.902344 315.226562 277.152344 315.191406 277.152344 C 315.191406 277.117188 315.621094 276.332031 315.90625 276.082031 C 316.15625 275.902344 316.441406 275.796875 316.726562 275.796875 C 317.085938 275.757812 317.65625 275.902344 317.945312 276.082031 C 318.195312 276.257812 318.371094 276.4375 318.515625 276.722656 C 318.765625 277.226562 318.835938 277.941406 318.910156 278.871094 C 319.089844 280.585938 318.980469 282.945312 318.980469 286.199219 C 318.945312 292.8125 319.410156 313.121094 318.410156 316.230469 C 318.195312 316.875 318.015625 317.050781 317.695312 317.300781 C 317.371094 317.515625 316.835938 317.625 316.441406 317.589844 C 316.050781 317.554688 315.585938 317.300781 315.332031 317.015625 C 315.082031 316.695312 314.871094 315.800781 314.871094 315.800781 "/></clipPath><clipPath id="fb13569313"><path d="M 285.820312 265.515625 L 290.421875 265.515625 L 290.421875 317.441406 L 285.820312 317.441406 Z M 285.820312 265.515625 "/></clipPath><clipPath id="f446324e88"><path d="M 285.839844 315.621094 C 286.054688 279.011719 286.160156 272.933594 286.445312 269.753906 C 286.554688 268.289062 286.554688 267.25 286.910156 266.570312 C 287.089844 266.179688 287.339844 265.890625 287.699219 265.75 C 288.128906 265.570312 288.949219 265.535156 289.378906 265.75 C 289.808594 266 290.199219 266.679688 290.308594 267.144531 C 290.378906 267.535156 290.273438 267.964844 290.058594 268.25 C 289.773438 268.644531 289.09375 269.039062 288.628906 269.109375 C 288.234375 269.179688 287.804688 269.039062 287.519531 268.824219 C 287.160156 268.5 286.769531 267.785156 286.734375 267.320312 C 286.695312 266.929688 286.839844 266.535156 287.089844 266.25 C 287.410156 265.890625 288.164062 265.570312 288.628906 265.535156 C 289.019531 265.535156 289.414062 265.75 289.699219 265.964844 C 289.949219 266.214844 290.128906 266.390625 290.273438 266.964844 C 290.808594 269.109375 289.699219 277.332031 289.519531 283.839844 C 289.308594 292.777344 290.023438 312.226562 289.414062 315.621094 C 289.269531 316.335938 289.199219 316.515625 288.949219 316.835938 C 288.699219 317.125 288.234375 317.375 287.839844 317.410156 C 287.449219 317.445312 286.910156 317.375 286.589844 317.125 C 286.230469 316.800781 285.839844 315.621094 285.839844 315.621094 "/></clipPath><clipPath id="05bf1d666c"><path d="M 286.441406 236.164062 L 290.574219 236.164062 L 290.574219 275 L 286.441406 275 Z M 286.441406 236.164062 "/></clipPath><clipPath id="2307398aec"><path d="M 286.484375 273.222656 C 286.875 246.40625 286.125 240.1875 286.660156 237.96875 C 286.839844 237.21875 287.089844 236.789062 287.449219 236.503906 C 287.734375 236.253906 288.164062 236.148438 288.519531 236.183594 C 288.984375 236.253906 289.699219 236.683594 289.984375 237.039062 C 290.199219 237.363281 290.308594 237.792969 290.199219 238.183594 C 290.128906 238.613281 289.664062 239.292969 289.269531 239.542969 C 288.949219 239.757812 288.519531 239.792969 288.164062 239.757812 C 287.804688 239.6875 287.375 239.507812 287.125 239.222656 C 286.839844 238.863281 286.625 238.042969 286.695312 237.578125 C 286.734375 237.21875 287.019531 236.863281 287.269531 236.609375 C 287.554688 236.398438 287.984375 236.21875 288.339844 236.183594 C 288.699219 236.183594 289.164062 236.289062 289.449219 236.503906 C 289.734375 236.71875 289.949219 236.898438 290.128906 237.398438 C 290.738281 239.113281 290.414062 244.796875 290.414062 249.554688 C 290.449219 256.203125 290.878906 270.898438 289.984375 273.648438 C 289.773438 274.257812 289.59375 274.472656 289.269531 274.6875 C 288.949219 274.902344 288.414062 275.042969 288.054688 274.972656 C 287.664062 274.9375 287.160156 274.6875 286.910156 274.402344 C 286.660156 274.113281 286.484375 273.222656 286.484375 273.222656 "/></clipPath><clipPath id="85f5aabb4e"><path d="M 287.148438 251.328125 L 331 251.328125 L 331 287.820312 L 287.148438 287.820312 Z M 287.148438 251.328125 "/></clipPath><clipPath id="89ed1c175f"><path d="M 290.023438 251.699219 C 309.472656 268 325.738281 279.90625 329.242188 283.515625 C 330.242188 284.519531 330.707031 285.199219 330.886719 285.699219 C 330.957031 285.949219 330.957031 286.054688 330.886719 286.304688 C 330.777344 286.664062 330.3125 287.414062 329.886719 287.628906 C 329.421875 287.808594 328.597656 287.734375 328.203125 287.523438 C 327.847656 287.34375 327.5625 287.019531 327.453125 286.628906 C 327.3125 286.199219 327.382812 285.375 327.667969 284.984375 C 327.917969 284.589844 328.667969 284.230469 329.132812 284.195312 C 329.527344 284.160156 329.921875 284.304688 330.207031 284.589844 C 330.5625 284.875 330.886719 285.625 330.921875 286.089844 C 330.921875 286.484375 330.707031 286.878906 330.492188 287.164062 C 330.242188 287.414062 329.886719 287.699219 329.492188 287.734375 C 329.027344 287.808594 328.242188 287.59375 327.882812 287.269531 C 327.597656 287.058594 327.777344 286.769531 327.347656 286.269531 C 325.128906 283.625 307.433594 270.933594 300.140625 264.960938 C 295.132812 260.886719 288.949219 256.203125 287.625 254.308594 C 287.269531 253.773438 287.199219 253.523438 287.199219 253.128906 C 287.199219 252.734375 287.410156 252.234375 287.664062 251.949219 C 287.914062 251.664062 288.414062 251.414062 288.804688 251.375 C 289.199219 251.339844 290.023438 251.699219 290.023438 251.699219 "/></clipPath><clipPath id="fbce7e9fb5"><path d="M 216.519531 213.707031 L 260.816406 213.707031 L 260.816406 249.933594 L 216.519531 249.933594 Z M 216.519531 213.707031 "/></clipPath><clipPath id="160844e095"><path d="M 217.519531 246.550781 C 225.917969 240.328125 236.109375 231.25 242.363281 226.171875 C 247.371094 222.097656 254.089844 216.449219 256.128906 215.339844 C 256.628906 215.089844 256.878906 215.195312 257.167969 214.980469 C 257.453125 214.804688 257.558594 214.300781 257.84375 214.085938 C 258.132812 213.875 258.597656 213.765625 258.953125 213.765625 C 259.3125 213.800781 259.742188 213.910156 259.992188 214.195312 C 260.347656 214.515625 260.632812 215.265625 260.632812 215.730469 C 260.632812 216.125 260.417969 216.519531 260.167969 216.769531 C 259.917969 217.054688 259.527344 217.269531 259.167969 217.304688 C 258.703125 217.375 257.917969 217.089844 257.558594 216.804688 C 257.273438 216.554688 257.09375 216.160156 257.09375 215.769531 C 257.058594 215.304688 257.378906 214.515625 257.703125 214.195312 C 257.953125 213.945312 258.382812 213.800781 258.738281 213.765625 C 259.097656 213.765625 259.5625 213.875 259.847656 214.085938 C 260.167969 214.265625 260.417969 214.625 260.5625 214.980469 C 260.667969 215.304688 260.8125 215.589844 260.5625 216.125 C 258.917969 219.628906 230.28125 241.796875 223.558594 246.691406 C 221.234375 248.375 219.589844 249.660156 218.589844 249.839844 C 218.234375 249.910156 218.019531 249.839844 217.769531 249.695312 C 217.445312 249.554688 217.015625 249.195312 216.839844 248.839844 C 216.660156 248.480469 216.625 247.945312 216.730469 247.550781 C 216.839844 247.195312 217.519531 246.550781 217.519531 246.550781 "/></clipPath><clipPath id="a49aaf7c87"><path d="M 256.855469 213.382812 L 308.460938 213.382812 L 308.460938 251.257812 L 256.855469 251.257812 Z M 256.855469 213.382812 "/></clipPath><clipPath id="cf5d198eac"><path d="M 259.382812 213.550781 C 266.246094 217.914062 270.074219 221.453125 273.898438 224.207031 C 278.332031 227.351562 283.480469 230.210938 288.554688 233.714844 C 294.347656 237.71875 303.929688 244.796875 306.644531 247.050781 C 307.503906 247.765625 308.003906 248.050781 308.253906 248.550781 C 308.46875 248.945312 308.503906 249.339844 308.398438 249.695312 C 308.289062 250.125 307.753906 250.769531 307.324219 250.984375 C 307.003906 251.164062 306.574219 251.199219 306.21875 251.054688 C 305.753906 250.910156 305.144531 250.410156 304.964844 249.945312 C 304.789062 249.480469 304.964844 248.660156 305.214844 248.265625 C 305.429688 247.945312 305.789062 247.695312 306.144531 247.621094 C 306.609375 247.515625 307.398438 247.695312 307.789062 247.945312 C 308.113281 248.160156 308.328125 248.589844 308.398438 248.910156 C 308.46875 249.265625 308.46875 249.730469 308.289062 250.054688 C 308.078125 250.484375 307.433594 250.984375 306.96875 251.089844 C 306.609375 251.199219 306.394531 251.164062 305.824219 250.910156 C 303.285156 249.875 292.558594 240.828125 286.554688 236.683594 C 281.476562 233.144531 276.6875 230.570312 272.183594 227.351562 C 268 224.382812 262.886719 219.84375 260.347656 218.164062 C 259.203125 217.414062 258.347656 217.234375 257.773438 216.734375 C 257.378906 216.375 257.128906 216.054688 257.023438 215.695312 C 256.953125 215.304688 256.988281 214.765625 257.167969 214.410156 C 257.34375 214.085938 257.738281 213.730469 258.132812 213.585938 C 258.488281 213.445312 259.382812 213.550781 259.382812 213.550781 "/></clipPath><clipPath id="8639de6046"><path d="M 256.726562 182.089844 L 260.910156 182.089844 L 260.910156 217.992188 L 256.726562 217.992188 Z M 256.726562 182.089844 "/></clipPath><clipPath id="e37feacb17"><path d="M 256.738281 216.195312 C 257.34375 183.054688 257.558594 182.699219 257.917969 182.410156 C 258.203125 182.160156 258.632812 182.054688 259.023438 182.125 C 259.453125 182.160156 260.167969 182.589844 260.457031 182.984375 C 260.667969 183.269531 260.777344 183.699219 260.707031 184.09375 C 260.597656 184.558594 260.132812 185.234375 259.742188 185.488281 C 259.417969 185.664062 258.988281 185.699219 258.632812 185.664062 C 258.273438 185.59375 257.84375 185.414062 257.632812 185.128906 C 257.308594 184.773438 257.058594 183.984375 257.167969 183.519531 C 257.273438 183.019531 257.808594 182.410156 258.238281 182.234375 C 258.703125 182.054688 259.527344 182.199219 259.917969 182.410156 C 260.242188 182.589844 260.457031 182.914062 260.597656 183.339844 C 260.8125 183.878906 260.667969 184.378906 260.707031 185.558594 C 260.777344 189.917969 261.277344 213.445312 260.242188 216.625 C 260.0625 217.269531 259.847656 217.414062 259.527344 217.664062 C 259.203125 217.878906 258.703125 218.019531 258.308594 217.949219 C 257.917969 217.914062 257.453125 217.664062 257.167969 217.378906 C 256.914062 217.089844 256.738281 216.195312 256.738281 216.195312 "/></clipPath><clipPath id="7dc7950c04"><path d="M 246.101562 195.398438 L 272.800781 195.398438 L 272.800781 200.199219 L 246.101562 200.199219 Z M 246.101562 195.398438 "/></clipPath><clipPath id="486b464a42"><path d="M 247.835938 195.425781 C 254.804688 195.496094 258.597656 196.246094 261.8125 196.425781 C 264.996094 196.605469 269.859375 195.996094 271.429688 196.496094 C 272.003906 196.675781 272.253906 196.890625 272.46875 197.214844 C 272.683594 197.535156 272.824219 198.035156 272.789062 198.429688 C 272.71875 198.820312 272.46875 199.285156 272.183594 199.574219 C 271.894531 199.824219 271.429688 200.039062 271.003906 200 C 270.539062 199.964844 269.820312 199.574219 269.535156 199.214844 C 269.285156 198.929688 269.179688 198.5 269.214844 198.140625 C 269.285156 197.679688 269.644531 196.960938 270.074219 196.675781 C 270.5 196.425781 271.289062 196.390625 271.753906 196.605469 C 272.21875 196.820312 272.683594 197.464844 272.753906 197.929688 C 272.859375 198.429688 272.574219 199.179688 272.21875 199.535156 C 271.859375 199.859375 271.109375 200.074219 270.609375 199.964844 C 270.144531 199.859375 269.535156 199.359375 269.359375 198.894531 C 269.144531 198.429688 269.285156 197.640625 269.535156 197.214844 C 269.714844 196.890625 270.109375 196.640625 270.429688 196.535156 C 270.75 196.425781 271.109375 196.390625 271.429688 196.496094 C 271.789062 196.605469 272.253906 196.890625 272.46875 197.214844 C 272.683594 197.535156 272.824219 198.035156 272.789062 198.429688 C 272.71875 198.820312 272.46875 199.285156 272.183594 199.574219 C 271.894531 199.824219 271.609375 199.894531 271.003906 200 C 269.394531 200.324219 264.746094 200.179688 261.636719 200 C 258.558594 199.824219 254.984375 199.070312 252.410156 198.929688 C 250.515625 198.820312 248.550781 199.25 247.511719 198.964844 C 247.011719 198.785156 246.691406 198.570312 246.476562 198.285156 C 246.226562 197.964844 246.082031 197.464844 246.117188 197.070312 C 246.15625 196.675781 246.371094 196.175781 246.65625 195.925781 C 246.941406 195.640625 247.835938 195.425781 247.835938 195.425781 "/></clipPath></defs><g id="5d5fe249a4"><g clip-rule="nonzero" clip-path="url(#b54390be76)"><g clip-rule="nonzero" clip-path="url(#a41a064a66)"><path style=" stroke:none;fill-rule:nonzero;fill:currentColor;fill-opacity:1;" d="M 57.417969 161.140625 L 68.070312 161.140625 L 68.070312 211.480469 L 57.417969 211.480469 Z M 57.417969 161.140625 "/></g></g><g clip-rule="nonzero" clip-path="url(#33f3fc5f38)"><g clip-rule="nonzero" clip-path="url(#4aefbec512)"><path style=" stroke:none;fill-rule:nonzero;fill:currentColor;fill-opacity:1;" d="M 37.5 137.320312 L 97.15625 137.320312 L 97.15625 182.238281 L 37.5 182.238281 Z M 37.5 137.320312 "/></g></g><g clip-rule="nonzero" clip-path="url(#cf77639cfb)"><g clip-rule="nonzero" clip-path="url(#184bf7964b)"><path style=" stroke:none;fill-rule:nonzero;fill:currentColor;fill-opacity:1;" d="M 39.371094 204.105469 L 92.445312 204.105469 L 92.445312 212.277344 L 39.371094 212.277344 Z M 39.371094 204.105469 "/></g></g><g clip-rule="nonzero" clip-path="url(#5a585fd16f)"><g clip-rule="nonzero" clip-path="url(#637d79b978)"><path style=" stroke:none;fill-rule:nonzero;fill:currentColor;fill-opacity:1;" d="M 109.976562 174.960938 L 118.066406 174.960938 L 118.066406 212.40625 L 109.976562 212.40625 Z M 109.976562 174.960938 "/></g></g><g clip-rule="nonzero" clip-path="url(#379a2d68e9)"><g clip-rule="nonzero" clip-path="url(#8e1cba7760)"><path style=" stroke:none;fill-rule:nonzero;fill:currentColor;fill-opacity:1;" d="M 110.464844 160.203125 L 140.105469 160.203125 L 140.105469 185 L 110.464844 185 Z M 110.464844 160.203125 "/></g></g><g clip-rule="nonzero" clip-path="url(#e61284ac62)"><g clip-rule="nonzero" clip-path="url(#d801eaad87)"><path style=" stroke:none;fill-rule:nonzero;fill:currentColor;fill-opacity:1;" d="M 132.902344 174.960938 L 141.480469 174.960938 L 141.480469 211.511719 L 132.902344 211.511719 Z M 132.902344 174.960938 "/></g></g><g clip-rule="nonzero" clip-path="url(#57e89b37dc)"><g clip-rule="nonzero" clip-path="url(#790c2134ab)"><path style=" stroke:none;fill-rule:nonzero;fill:currentColor;fill-opacity:1;" d="M 82.457031 204.351562 L 118.464844 204.351562 L 118.464844 212.316406 L 82.457031 212.316406 Z M 82.457031 204.351562 "/></g></g><g clip-rule="nonzero" clip-path="url(#81322c409a)"><g clip-rule="nonzero" clip-path="url(#7b95517586)"><path style=" stroke:none;fill-rule:nonzero;fill:currentColor;fill-opacity:1;" d="M 107.90625 204.757812 L 147.769531 204.757812 L 147.769531 212.804688 L 107.90625 212.804688 Z M 107.90625 204.757812 "/></g></g><g clip-rule="nonzero" clip-path="url(#0f8809b232)"><g clip-rule="nonzero" clip-path="url(#671633a13b)"><path style=" stroke:none;fill-rule:nonzero;fill:currentColor;fill-opacity:1;" d="M 91.074219 155.773438 L 98.878906 155.773438 L 98.878906 209.828125 L 91.074219 209.828125 Z M 91.074219 155.773438 "/></g></g><g clip-rule="nonzero" clip-path="url(#c34fe3a63e)"><g clip-rule="nonzero" clip-path="url(#3583d82071)"><path style=" stroke:none;fill-rule:nonzero;fill:currentColor;fill-opacity:1;" d="M 90.101562 117.5625 L 98.800781 117.5625 L 98.800781 169.792969 L 90.101562 169.792969 Z M 90.101562 117.5625 "/></g></g><g clip-rule="nonzero" clip-path="url(#76ffea0a78)"><g clip-rule="nonzero" clip-path="url(#ab0b8da455)"><path style=" stroke:none;fill-rule:nonzero;fill:currentColor;fill-opacity:1;" d="M 136.398438 205.042969 L 184.582031 205.042969 L 184.582031 212.765625 L 136.398438 212.765625 Z M 136.398438 205.042969 "/></g></g><g clip-rule="nonzero" clip-path="url(#52a9544f6e)"><g clip-rule="nonzero" clip-path="url(#45330fa3ec)"><path style=" stroke:none;fill-rule:nonzero;fill:currentColor;fill-opacity:1;" d="M 174.082031 205.449219 L 213.21875 205.449219 L 213.21875 213.292969 L 174.082031 213.292969 Z M 174.082031 205.449219 "/></g></g><g clip-rule="nonzero" clip-path="url(#7fe7b53539)"><g clip-rule="nonzero" clip-path="url(#28cb939e17)"><path style=" stroke:none;fill-rule:nonzero;fill:currentColor;fill-opacity:1;" d="M 185.871094 162.195312 L 193.796875 162.195312 L 193.796875 213.007812 L 185.871094 213.007812 Z M 185.871094 162.195312 "/></g></g><g clip-rule="nonzero" clip-path="url(#4aa6c348af)"><g clip-rule="nonzero" clip-path="url(#35e82dfa9c)"><path style=" stroke:none;fill-rule:nonzero;fill:currentColor;fill-opacity:1;" d="M 152.863281 150.53125 L 161.238281 150.53125 L 161.238281 212.777344 L 152.863281 212.777344 Z M 152.863281 150.53125 "/></g></g><g clip-rule="nonzero" clip-path="url(#dc05ccc542)"><g clip-rule="nonzero" clip-path="url(#bf3cd06b67)"><path style=" stroke:none;fill-rule:nonzero;fill:currentColor;fill-opacity:1;" d="M 153.59375 117.15625 L 161.359375 117.15625 L 161.359375 164.558594 L 153.59375 164.558594 Z M 153.59375 117.15625 "/></g></g><g clip-rule="nonzero" clip-path="url(#ce8f939b8f)"><g clip-rule="nonzero" clip-path="url(#a60f1e4601)"><path style=" stroke:none;fill-rule:nonzero;fill:currentColor;fill-opacity:1;" d="M 154.40625 134.433594 L 207.410156 134.433594 L 207.410156 179.066406 L 154.40625 179.066406 Z M 154.40625 134.433594 "/></g></g><g clip-rule="nonzero" clip-path="url(#b0fa399569)"><g clip-rule="nonzero" clip-path="url(#b1b5e0896d)"><path style=" stroke:none;fill-rule:nonzero;fill:currentColor;fill-opacity:1;" d="M 74.289062 91.671875 L 127.421875 91.671875 L 127.421875 135.976562 L 74.289062 135.976562 Z M 74.289062 91.671875 "/></g></g><g clip-rule="nonzero" clip-path="url(#a0008f9f43)"><g clip-rule="nonzero" clip-path="url(#00d9ea0d18)"><path style=" stroke:none;fill-rule:nonzero;fill:currentColor;fill-opacity:1;" d="M 120.101562 91.425781 L 181.824219 91.425781 L 181.824219 137.359375 L 120.101562 137.359375 Z M 120.101562 91.425781 "/></g></g><g clip-rule="nonzero" clip-path="url(#81509ff1bb)"><g clip-rule="nonzero" clip-path="url(#3417b43736)"><path style=" stroke:none;fill-rule:nonzero;fill:currentColor;fill-opacity:1;" d="M 119.773438 55.695312 L 127.578125 55.695312 L 127.578125 99.71875 L 119.773438 99.71875 Z M 119.773438 55.695312 "/></g></g><g clip-rule="nonzero" clip-path="url(#89faa6c0fd)"><g clip-rule="nonzero" clip-path="url(#bd7116d5ba)"><path style=" stroke:none;fill-rule:nonzero;fill:currentColor;fill-opacity:1;" d="M 107.703125 70.734375 L 141.273438 70.734375 L 141.273438 79.3125 L 107.703125 79.3125 Z M 107.703125 70.734375 "/></g></g><g clip-rule="nonzero" clip-path="url(#0681267ad3)"><g clip-rule="nonzero" clip-path="url(#a74b4e6eed)"><path style=" stroke:none;fill-rule:nonzero;fill:currentColor;fill-opacity:1;" d="M 200.464844 273.433594 L 209.832031 273.433594 L 209.832031 317.707031 L 200.464844 317.707031 Z M 200.464844 273.433594 "/></g></g><g clip-rule="nonzero" clip-path="url(#69d629fdab)"><g clip-rule="nonzero" clip-path="url(#2f2516c84d)"><path style=" stroke:none;fill-rule:nonzero;fill:currentColor;fill-opacity:1;" d="M 182.945312 252.484375 L 235.414062 252.484375 L 235.414062 291.992188 L 182.945312 291.992188 Z M 182.945312 252.484375 "/></g></g><g clip-rule="nonzero" clip-path="url(#16cd9848a8)"><g clip-rule="nonzero" clip-path="url(#a155daf8c2)"><path style=" stroke:none;fill-rule:nonzero;fill:currentColor;fill-opacity:1;" d="M 184.589844 311.226562 L 231.273438 311.226562 L 231.273438 318.410156 L 184.589844 318.410156 Z M 184.589844 311.226562 "/></g></g><g clip-rule="nonzero" clip-path="url(#ebd48a197f)"><g clip-rule="nonzero" clip-path="url(#a7553a7014)"><path style=" stroke:none;fill-rule:nonzero;fill:currentColor;fill-opacity:1;" d="M 246.691406 285.589844 L 253.804688 285.589844 L 253.804688 318.523438 L 246.691406 318.523438 Z M 246.691406 285.589844 "/></g></g><g clip-rule="nonzero" clip-path="url(#ace4c9cb48)"><g clip-rule="nonzero" clip-path="url(#b81d60484a)"><path style=" stroke:none;fill-rule:nonzero;fill:currentColor;fill-opacity:1;" d="M 247.121094 272.613281 L 273.1875 272.613281 L 273.1875 294.421875 L 247.121094 294.421875 Z M 247.121094 272.613281 "/></g></g><g clip-rule="nonzero" clip-path="url(#20bbe9379f)"><g clip-rule="nonzero" clip-path="url(#d4e06b4aac)"><path style=" stroke:none;fill-rule:nonzero;fill:currentColor;fill-opacity:1;" d="M 266.855469 285.589844 L 274.398438 285.589844 L 274.398438 317.738281 L 266.855469 317.738281 Z M 266.855469 285.589844 "/></g></g><g clip-rule="nonzero" clip-path="url(#512ce3f272)"><g clip-rule="nonzero" clip-path="url(#1050ecb6d4)"><path style=" stroke:none;fill-rule:nonzero;fill:currentColor;fill-opacity:1;" d="M 222.488281 311.4375 L 254.15625 311.4375 L 254.15625 318.445312 L 222.488281 318.445312 Z M 222.488281 311.4375 "/></g></g><g clip-rule="nonzero" clip-path="url(#79865f1bd5)"><g clip-rule="nonzero" clip-path="url(#fbe2c2d13c)"><path style=" stroke:none;fill-rule:nonzero;fill:currentColor;fill-opacity:1;" d="M 244.867188 311.796875 L 279.929688 311.796875 L 279.929688 318.875 L 244.867188 318.875 Z M 244.867188 311.796875 "/></g></g><g clip-rule="nonzero" clip-path="url(#ee174cceb8)"><g clip-rule="nonzero" clip-path="url(#393a60413f)"><path style=" stroke:none;fill-rule:nonzero;fill:currentColor;fill-opacity:1;" d="M 230.066406 268.714844 L 236.929688 268.714844 L 236.929688 316.257812 L 230.066406 316.257812 Z M 230.066406 268.714844 "/></g></g><g clip-rule="nonzero" clip-path="url(#4e5e60e3ae)"><g clip-rule="nonzero" clip-path="url(#6ba8f20d06)"><path style=" stroke:none;fill-rule:nonzero;fill:currentColor;fill-opacity:1;" d="M 229.207031 235.109375 L 236.859375 235.109375 L 236.859375 281.042969 L 229.207031 281.042969 Z M 229.207031 235.109375 "/></g></g><g clip-rule="nonzero" clip-path="url(#2ff73fba37)"><g clip-rule="nonzero" clip-path="url(#4357c6ef17)"><path style=" stroke:none;fill-rule:nonzero;fill:currentColor;fill-opacity:1;" d="M 269.929688 312.046875 L 312.304688 312.046875 L 312.304688 318.839844 L 269.929688 318.839844 Z M 269.929688 312.046875 "/></g></g><g clip-rule="nonzero" clip-path="url(#f59c745e4f)"><g clip-rule="nonzero" clip-path="url(#73462ec270)"><path style=" stroke:none;fill-rule:nonzero;fill:currentColor;fill-opacity:1;" d="M 303.070312 312.40625 L 337.492188 312.40625 L 337.492188 319.304688 L 303.070312 319.304688 Z M 303.070312 312.40625 "/></g></g><g clip-rule="nonzero" clip-path="url(#939f7168fe)"><g clip-rule="nonzero" clip-path="url(#7dc0bb09e2)"><path style=" stroke:none;fill-rule:nonzero;fill:currentColor;fill-opacity:1;" d="M 313.4375 274.363281 L 320.410156 274.363281 L 320.410156 319.054688 L 313.4375 319.054688 Z M 313.4375 274.363281 "/></g></g><g clip-rule="nonzero" clip-path="url(#fb13569313)"><g clip-rule="nonzero" clip-path="url(#f446324e88)"><path style=" stroke:none;fill-rule:nonzero;fill:currentColor;fill-opacity:1;" d="M 284.410156 264.105469 L 291.773438 264.105469 L 291.773438 318.851562 L 284.410156 318.851562 Z M 284.410156 264.105469 "/></g></g><g clip-rule="nonzero" clip-path="url(#05bf1d666c)"><g clip-rule="nonzero" clip-path="url(#2307398aec)"><path style=" stroke:none;fill-rule:nonzero;fill:currentColor;fill-opacity:1;" d="M 285.050781 234.753906 L 291.882812 234.753906 L 291.882812 276.445312 L 285.050781 276.445312 Z M 285.050781 234.753906 "/></g></g><g clip-rule="nonzero" clip-path="url(#85f5aabb4e)"><g clip-rule="nonzero" clip-path="url(#89ed1c175f)"><path style=" stroke:none;fill-rule:nonzero;fill:currentColor;fill-opacity:1;" d="M 285.765625 249.945312 L 332.382812 249.945312 L 332.382812 289.203125 L 285.765625 289.203125 Z M 285.765625 249.945312 "/></g></g><g clip-rule="nonzero" clip-path="url(#fbce7e9fb5)"><g clip-rule="nonzero" clip-path="url(#160844e095)"><path style=" stroke:none;fill-rule:nonzero;fill:currentColor;fill-opacity:1;" d="M 215.300781 212.335938 L 262.035156 212.335938 L 262.035156 251.304688 L 215.300781 251.304688 Z M 215.300781 212.335938 "/></g></g><g clip-rule="nonzero" clip-path="url(#a49aaf7c87)"><g clip-rule="nonzero" clip-path="url(#cf5d198eac)"><path style=" stroke:none;fill-rule:nonzero;fill:currentColor;fill-opacity:1;" d="M 255.59375 212.121094 L 309.878906 212.121094 L 309.878906 252.519531 L 255.59375 252.519531 Z M 255.59375 212.121094 "/></g></g><g clip-rule="nonzero" clip-path="url(#8639de6046)"><g clip-rule="nonzero" clip-path="url(#e37feacb17)"><path style=" stroke:none;fill-rule:nonzero;fill:currentColor;fill-opacity:1;" d="M 255.308594 180.695312 L 262.171875 180.695312 L 262.171875 219.414062 L 255.308594 219.414062 Z M 255.308594 180.695312 "/></g></g><g clip-rule="nonzero" clip-path="url(#7dc7950c04)"><g clip-rule="nonzero" clip-path="url(#486b464a42)"><path style=" stroke:none;fill-rule:nonzero;fill:currentColor;fill-opacity:1;" d="M 244.6875 193.925781 L 274.214844 193.925781 L 274.214844 201.46875 L 244.6875 201.46875 Z M 244.6875 193.925781 "/></g></g></g></svg>