<svg xmlns="http://www.w3.org/2000/svg" xmlns:xlink="http://www.w3.org/1999/xlink" width="500" zoomAndPan="magnify" viewBox="0 0 375 374.999991" height="500" preserveAspectRatio="xMidYMid meet" version="1.2"><defs><clipPath id="6f7007c434"><path d="M 80.21875 222.425781 L 139.53125 222.425781 L 139.53125 334.433594 L 80.21875 334.433594 Z M 80.21875 222.425781 "/></clipPath><clipPath id="836f177928"><path d="M 94.703125 334.25 C 85.265625 331.238281 82.414062 329.015625 81.222656 326.71875 C 80.113281 324.339844 80.273438 321.167969 80.589844 318.472656 C 80.828125 315.699219 81.9375 312.210938 82.96875 310.148438 C 83.679688 308.640625 84.394531 308.484375 85.503906 306.738281 C 88.515625 301.742188 95.335938 285.332031 100.332031 276.769531 C 104.53125 269.714844 108.574219 265.511719 113.015625 258.378906 C 118.882812 248.941406 128.714844 228.726562 131.964844 224.605469 C 132.757812 223.574219 132.996094 223.175781 133.785156 222.859375 C 134.738281 222.542969 136.5625 222.542969 137.511719 223.097656 C 138.386719 223.652344 139.257812 225.238281 139.414062 226.269531 C 139.496094 227.0625 139.257812 228.011719 138.703125 228.726562 C 138.066406 229.519531 136.5625 230.46875 135.453125 230.46875 C 134.34375 230.46875 132.835938 229.519531 132.203125 228.726562 C 131.644531 228.09375 131.410156 227.0625 131.488281 226.269531 C 131.488281 225.476562 131.804688 224.523438 132.4375 223.890625 C 133.152344 223.175781 134.738281 222.464844 135.847656 222.542969 C 136.957031 222.621094 138.464844 223.652344 138.941406 224.605469 C 139.496094 225.554688 139.414062 226.585938 138.941406 228.328125 C 137.433594 234.277344 125.066406 254.414062 118.960938 264.085938 C 114.601562 271.0625 110.636719 274.867188 106.753906 281.449219 C 102.152344 289.296875 96.921875 302.378906 93.589844 308.402344 C 91.769531 311.65625 89.863281 313.476562 89.074219 315.699219 C 88.515625 317.203125 88.4375 318.632812 88.515625 320.058594 C 88.597656 321.40625 88.515625 322.914062 89.46875 323.941406 C 90.816406 325.527344 96.050781 325.925781 97.636719 327.195312 C 98.507812 327.90625 99.0625 328.621094 99.140625 329.492188 C 99.300781 330.523438 98.902344 332.265625 98.191406 333.058594 C 97.476562 333.851562 94.703125 334.25 94.703125 334.25 "/></clipPath><clipPath id="fb186f9f4f"><path d="M 130.039062 92.417969 L 198.742188 92.417969 L 198.742188 233.609375 L 130.039062 233.609375 Z M 130.039062 92.417969 "/></clipPath><clipPath id="6c01fce0ac"><path d="M 130.296875 229.203125 C 132.675781 219.449219 135.609375 215.644531 137.75 211.125 C 140.527344 205.496094 142.269531 199.628906 146.234375 191.304688 C 153.527344 176.320312 173.585938 142.707031 179.53125 129.863281 C 182.070312 124.234375 182.703125 122.09375 184.289062 117.335938 C 186.429688 110.992188 189.046875 98.546875 190.710938 95.214844 C 191.265625 94.105469 191.582031 93.632812 192.296875 93.234375 C 193.167969 92.679688 194.992188 92.441406 196.023438 92.839844 C 196.972656 93.3125 198.085938 94.742188 198.320312 95.691406 C 198.558594 96.566406 198.480469 97.515625 198.085938 98.230469 C 197.527344 99.101562 196.101562 100.210938 195.070312 100.449219 C 194.199219 100.609375 193.246094 100.449219 192.535156 99.972656 C 191.742188 99.417969 190.710938 97.914062 190.550781 96.882812 C 190.394531 96.089844 190.710938 95.136719 191.105469 94.425781 C 191.503906 93.789062 192.296875 93.074219 193.089844 92.839844 C 193.804688 92.519531 194.832031 92.519531 195.546875 92.679688 C 196.339844 92.917969 197.210938 93.550781 197.6875 94.1875 C 198.164062 94.820312 198.402344 95.375 198.402344 96.566406 C 198.480469 100.289062 194.039062 112.976562 191.898438 119.398438 C 190.316406 124.234375 189.839844 126.296875 187.300781 131.925781 C 181.355469 145.164062 160.265625 180.445312 152.816406 195.902344 C 148.691406 204.464844 146.949219 210.332031 144.253906 216.121094 C 142.191406 220.480469 139.257812 224.761719 138.304688 227.617188 C 137.75 229.121094 138.226562 230.390625 137.671875 231.34375 C 137.273438 232.136719 136.246094 232.847656 135.53125 233.164062 C 134.898438 233.402344 134.261719 233.402344 133.628906 233.324219 C 132.835938 233.085938 131.726562 232.609375 131.171875 231.898438 C 130.617188 231.183594 130.296875 229.203125 130.296875 229.203125 "/></clipPath><clipPath id="483aaf6234"><path d="M 189.261719 40.21875 L 284.429688 40.21875 L 284.429688 104 L 189.261719 104 Z M 189.261719 40.21875 "/></clipPath><clipPath id="ca3173a338"><path d="M 189.441406 99.101562 C 195.46875 73.019531 196.578125 70.878906 198.003906 68.183594 C 199.511719 65.484375 201.015625 63.1875 203.316406 60.414062 C 206.410156 56.605469 212.433594 50.582031 215.527344 48.125 C 217.113281 46.855469 217.90625 46.457031 219.570312 45.664062 C 221.789062 44.636719 224.960938 43.761719 228.132812 42.96875 C 232.015625 42.019531 237.40625 41.066406 241.292969 40.75 C 244.304688 40.433594 247.316406 40.273438 249.539062 40.671875 C 251.203125 40.910156 252.152344 41.226562 253.738281 41.859375 C 255.878906 42.734375 258.574219 44.082031 261.113281 45.746094 C 264.203125 47.804688 268.804688 51.613281 270.945312 53.753906 C 272.132812 54.941406 272.527344 55.339844 273.480469 56.84375 C 275.460938 60.09375 279.03125 68.339844 280.695312 72.859375 C 281.804688 76.109375 282.597656 78.886719 283.074219 81.261719 C 283.390625 83.085938 283.707031 84.671875 283.46875 85.941406 C 283.230469 86.890625 282.121094 87.605469 282.203125 88.320312 C 282.359375 89.03125 283.628906 89.429688 283.945312 90.144531 C 284.34375 90.933594 284.421875 91.886719 284.261719 92.679688 C 284.105469 93.472656 283.550781 94.34375 282.914062 94.898438 C 282.359375 95.375 281.410156 95.851562 280.617188 95.773438 C 279.585938 95.773438 277.921875 95.136719 277.207031 94.265625 C 276.574219 93.394531 276.253906 91.570312 276.652344 90.539062 C 276.96875 89.507812 278.394531 88.398438 279.347656 88.003906 C 280.140625 87.765625 281.089844 87.765625 281.882812 88.160156 C 282.757812 88.636719 284.023438 89.90625 284.261719 91.015625 C 284.5 92.046875 283.867188 93.789062 283.230469 94.582031 C 282.757812 95.214844 281.804688 95.613281 281.011719 95.773438 C 280.21875 95.851562 279.269531 95.929688 278.554688 95.375 C 277.207031 94.1875 276.097656 89.507812 275.621094 87.128906 C 275.222656 85.386719 275.542969 84.195312 275.222656 82.453125 C 274.828125 80.152344 273.957031 77.535156 272.925781 74.605469 C 271.5 70.796875 269.039062 64.457031 267.296875 61.679688 C 266.265625 60.09375 265.710938 59.539062 264.523438 58.429688 C 262.777344 56.765625 259.84375 54.464844 257.464844 52.878906 C 255.085938 51.375 252.867188 49.789062 250.25 49.074219 C 247.554688 48.363281 244.859375 48.363281 241.53125 48.597656 C 237.011719 48.996094 229.164062 50.820312 225.675781 51.851562 C 223.851562 52.40625 222.820312 52.644531 221.628906 53.433594 C 220.441406 54.070312 219.886719 54.863281 218.617188 56.050781 C 216.320312 58.273438 211.484375 62.789062 208.945312 65.882812 C 206.964844 68.339844 205.695312 70.480469 204.425781 73.019531 C 203.15625 75.554688 202.207031 77.855469 201.335938 80.867188 C 200.222656 84.832031 199.828125 90.855469 198.796875 94.820312 C 198.085938 97.753906 197.527344 101.082031 196.339844 102.511719 C 195.625 103.382812 194.753906 103.777344 193.882812 103.859375 C 193.011719 104.015625 191.820312 103.699219 191.105469 103.304688 C 190.550781 102.984375 190.078125 102.511719 189.839844 101.875 C 189.441406 101.164062 189.441406 99.101562 189.441406 99.101562 "/></clipPath><clipPath id="033c6f5aa5"><path d="M 223.257812 84.691406 L 283.824219 84.691406 L 283.824219 164.578125 L 223.257812 164.578125 Z M 223.257812 84.691406 "/></clipPath><clipPath id="bca79041c1"><path d="M 283.785156 88.714844 C 283.3125 103.144531 283.230469 108.058594 280.535156 112.660156 C 276.652344 119.398438 264.285156 128.671875 259.050781 133.191406 C 256.277344 135.570312 253.898438 136.761719 252.234375 138.425781 C 251.125 139.535156 250.410156 140.40625 249.773438 141.597656 C 249.0625 142.863281 248.664062 144.054688 248.347656 145.878906 C 247.792969 148.890625 248.984375 155.46875 247.871094 158.324219 C 247.160156 160.148438 245.8125 161.335938 244.464844 162.210938 C 243.117188 163.082031 241.6875 163.476562 239.945312 163.792969 C 237.488281 164.269531 233.363281 164.585938 231.144531 164.03125 C 229.480469 163.558594 228.289062 162.765625 227.257812 161.8125 C 226.308594 160.863281 225.753906 159.832031 225.117188 158.402344 C 224.324219 156.34375 223.136719 152.535156 223.296875 150.476562 C 223.453125 149.046875 223.929688 147.699219 224.800781 147.066406 C 225.675781 146.351562 227.417969 146.035156 228.449219 146.351562 C 229.480469 146.671875 230.667969 148.019531 231.066406 148.96875 C 231.382812 149.761719 231.382812 150.714844 230.984375 151.507812 C 230.589844 152.457031 229.320312 153.726562 228.210938 153.964844 C 227.179688 154.203125 225.4375 153.726562 224.644531 153.09375 C 223.929688 152.535156 223.535156 151.664062 223.375 150.871094 C 223.214844 150.078125 223.375 149.046875 223.691406 148.335938 C 224.089844 147.621094 224.800781 146.90625 225.515625 146.589844 C 226.230469 146.195312 227.179688 146.035156 228.050781 146.273438 C 229.003906 146.511719 230.273438 147.382812 230.90625 148.574219 C 231.859375 150.238281 230.511719 155.074219 232.015625 156.183594 C 233.601562 157.375 238.992188 156.660156 240.65625 154.835938 C 242.5625 152.695312 240.421875 145.957031 241.292969 142.390625 C 242.003906 139.457031 242.640625 137.632812 244.703125 134.855469 C 248.347656 130.019531 258.8125 123.042969 264.125 118.128906 C 268.011719 114.480469 271.972656 111.945312 273.875 108.378906 C 275.460938 105.445312 275.542969 102.113281 275.859375 98.863281 C 276.175781 95.535156 275.460938 91.015625 275.859375 88.714844 C 276.097656 87.527344 276.335938 86.734375 276.808594 86.097656 C 277.285156 85.542969 277.761719 85.226562 278.394531 84.988281 C 279.1875 84.75 280.457031 84.75 281.25 84.988281 C 281.804688 85.226562 282.359375 85.542969 282.757812 86.097656 C 283.230469 86.734375 283.785156 88.714844 283.785156 88.714844 "/></clipPath><clipPath id="f68b414eee"><path d="M 210.355469 63.804688 L 265 63.804688 L 265 157.5 L 210.355469 157.5 Z M 210.355469 63.804688 "/></clipPath><clipPath id="8ab81d8d68"><path d="M 224.167969 153.804688 C 222.105469 141.4375 221.949219 139.695312 222.34375 137.472656 C 222.742188 134.777344 223.929688 130.972656 225.039062 128.753906 C 225.832031 127.246094 226.148438 126.691406 227.578125 125.183594 C 230.984375 121.617188 243.195312 113.769531 247.554688 109.488281 C 250.09375 107.109375 251.597656 105.046875 252.867188 103.144531 C 253.820312 101.796875 254.375 100.925781 254.929688 99.417969 C 255.800781 97.199219 256.515625 93.867188 256.832031 91.09375 C 257.148438 88.320312 257.308594 85.386719 256.832031 82.691406 C 256.277344 80.074219 255.246094 76.507812 253.820312 74.921875 C 252.789062 73.8125 251.679688 73.492188 250.171875 73.019531 C 247.953125 72.304688 243.988281 71.671875 241.6875 71.828125 C 240.101562 71.90625 239.230469 72.226562 237.644531 72.9375 C 234.871094 74.285156 229.398438 78.011719 227.101562 80.234375 C 225.753906 81.582031 225.199219 82.453125 224.324219 84.039062 C 223.058594 86.179688 221.867188 89.191406 220.679688 92.125 C 219.410156 95.613281 218.617188 102.035156 217.113281 103.777344 C 216.398438 104.570312 215.605469 104.730469 214.8125 104.808594 C 214.019531 104.890625 212.988281 104.730469 212.355469 104.253906 C 211.484375 103.621094 210.609375 102.035156 210.453125 101.003906 C 210.371094 100.210938 210.609375 99.261719 211.164062 98.625 C 211.878906 97.832031 213.464844 96.960938 214.496094 96.882812 C 215.367188 96.882812 216.238281 97.277344 216.875 97.753906 C 217.507812 98.230469 218.140625 99.023438 218.300781 99.894531 C 218.460938 100.925781 218.140625 102.667969 217.429688 103.460938 C 216.714844 104.335938 214.972656 104.890625 213.941406 104.808594 C 213.066406 104.730469 212.195312 104.335938 211.640625 103.699219 C 211.007812 102.90625 210.609375 101.558594 210.53125 100.132812 C 210.453125 97.992188 211.5625 94.820312 212.511719 91.886719 C 213.703125 88.160156 216 82.769531 217.585938 79.835938 C 218.539062 78.011719 219.171875 77.0625 220.441406 75.714844 C 222.027344 73.890625 224.644531 72.066406 226.941406 70.402344 C 229.164062 68.816406 231.460938 67.070312 233.917969 65.960938 C 236.375 64.929688 239.46875 64.058594 241.6875 63.902344 C 243.433594 63.742188 244.542969 63.902344 246.445312 64.296875 C 249.457031 64.851562 255.5625 65.882812 258.101562 67.625 C 259.765625 68.816406 260.320312 70.242188 261.269531 71.988281 C 262.460938 74.128906 263.808594 76.664062 264.441406 79.597656 C 265.15625 83.246094 265.078125 88.398438 264.679688 92.046875 C 264.363281 95.136719 263.648438 97.753906 262.777344 100.371094 C 261.90625 102.90625 260.953125 105.363281 259.527344 107.585938 C 258.101562 109.964844 256.59375 111.707031 254.054688 114.085938 C 250.09375 117.890625 241.132812 123.441406 237.167969 127.167969 C 234.710938 129.546875 232.808594 131.527344 231.699219 133.507812 C 230.90625 134.855469 230.511719 135.96875 230.273438 137.472656 C 229.953125 139.136719 230.035156 141.121094 230.273438 143.261719 C 230.511719 146.035156 232.09375 150.554688 232.015625 152.773438 C 231.9375 153.964844 231.859375 154.835938 231.304688 155.550781 C 230.828125 156.261719 229.796875 156.898438 229.003906 157.136719 C 228.371094 157.375 227.734375 157.375 227.101562 157.136719 C 226.386719 156.898438 225.277344 156.183594 224.800781 155.550781 C 224.40625 154.996094 224.167969 153.804688 224.167969 153.804688 "/></clipPath><clipPath id="d165dc9fd6"><path d="M 147.789062 91.777344 L 220 91.777344 L 220 239 L 147.789062 239 Z M 147.789062 91.777344 "/></clipPath><clipPath id="bc46f3b2b0"><path d="M 219.886719 96.007812 C 217.429688 107.425781 212.988281 120.03125 209.023438 129.863281 C 204.585938 141.042969 198.640625 154.757812 193.40625 164.984375 C 189.125 173.308594 184.050781 180.285156 180.5625 187.105469 C 177.628906 192.734375 176.28125 197.25 173.347656 202.960938 C 169.78125 209.9375 163.597656 219.449219 160.347656 225.871094 C 158.046875 230.3125 156.621094 235.542969 154.953125 237.445312 C 154.242188 238.238281 153.605469 238.636719 152.894531 238.792969 C 152.101562 239.03125 151.070312 238.953125 150.355469 238.636719 C 149.644531 238.320312 148.851562 237.683594 148.453125 236.972656 C 148.058594 236.257812 147.742188 235.304688 147.976562 234.515625 C 148.136719 233.484375 149.089844 231.976562 150.117188 231.421875 C 151.070312 230.945312 152.894531 231.105469 153.765625 231.5 C 154.558594 231.816406 155.191406 232.609375 155.511719 233.402344 C 155.828125 234.355469 155.828125 236.179688 155.273438 237.050781 C 154.636719 238.003906 153.132812 238.875 152.023438 238.953125 C 150.910156 238.953125 149.324219 238.082031 148.691406 237.289062 C 148.136719 236.65625 147.898438 235.863281 147.898438 234.910156 C 147.976562 233.324219 148.929688 231.421875 150.117188 228.566406 C 152.972656 222.304688 162.167969 207.714844 166.292969 199.390625 C 169.226562 193.523438 170.8125 188.609375 173.269531 183.933594 C 175.410156 179.890625 177.707031 177.273438 180.085938 173.070312 C 183.257812 167.601562 186.824219 160.863281 190.234375 153.726562 C 194.199219 145.324219 198.640625 134.777344 202.207031 125.660156 C 205.457031 117.257812 209.105469 107.109375 210.769531 101.242188 C 211.71875 97.992188 211.800781 95.058594 212.59375 93.632812 C 212.988281 92.917969 213.386719 92.601562 213.941406 92.363281 C 214.652344 91.964844 215.84375 91.726562 216.714844 91.886719 C 217.585938 92.046875 218.617188 92.679688 219.09375 93.3125 C 219.648438 94.027344 219.886719 96.007812 219.886719 96.007812 "/></clipPath><clipPath id="39036af08c"><path d="M 93.285156 229.765625 L 155.628906 229.765625 L 155.628906 333.050781 L 93.285156 333.050781 Z M 93.285156 229.765625 "/></clipPath><clipPath id="4f2ee379ed"><path d="M 155.589844 234.988281 C 145.601562 255.523438 127.046875 283.191406 118.328125 298.8125 C 111.984375 310.226562 106.433594 324.023438 102.867188 329.015625 C 101.519531 330.917969 100.726562 331.949219 99.457031 332.503906 C 98.347656 332.980469 96.683594 332.980469 95.730469 332.664062 C 95.097656 332.503906 94.621094 332.03125 94.304688 331.472656 C 93.828125 330.839844 93.355469 329.730469 93.511719 328.777344 C 93.671875 327.75 94.703125 326.003906 95.730469 325.527344 C 96.761719 325.054688 98.507812 325.132812 99.457031 325.6875 C 100.410156 326.242188 101.359375 327.75 101.359375 328.859375 C 101.441406 329.96875 100.726562 331.554688 99.855469 332.265625 C 98.984375 332.902344 97.160156 333.140625 96.207031 332.824219 C 95.335938 332.664062 94.621094 332.03125 94.144531 331.316406 C 93.671875 330.683594 93.355469 329.730469 93.511719 328.859375 C 93.589844 327.90625 94.464844 326.242188 95.414062 325.6875 C 96.285156 325.132812 98.109375 325.054688 99.0625 325.527344 C 100.09375 325.925781 101.125 327.351562 101.359375 328.460938 C 101.519531 329.492188 100.964844 331.15625 100.171875 331.949219 C 99.378906 332.664062 97.714844 333.21875 96.683594 332.980469 C 95.574219 332.742188 94.304688 331.632812 93.828125 330.683594 C 93.355469 329.890625 93.355469 328.621094 93.671875 327.828125 C 93.988281 327.113281 94.78125 327.195312 95.652344 326.082031 C 98.585938 322.199219 104.613281 307.054688 110.953125 295.640625 C 119.59375 280.101562 137.910156 252.667969 143.777344 241.726562 C 146.234375 237.128906 146.949219 233.5625 148.453125 231.660156 C 149.167969 230.707031 149.800781 230.234375 150.675781 229.996094 C 151.464844 229.757812 152.65625 229.835938 153.449219 230.152344 C 154.242188 230.550781 155.113281 231.421875 155.429688 232.214844 C 155.746094 233.007812 155.589844 234.988281 155.589844 234.988281 "/></clipPath><clipPath id="6ad6e2dbc0"><path d="M 99.316406 106 L 189.921875 106 L 189.921875 247.21875 L 99.316406 247.21875 Z M 99.316406 106 "/></clipPath><clipPath id="684dfcf663"><path d="M 117.21875 246.089844 C 110.796875 239.191406 107.070312 233.800781 105.324219 230.152344 C 103.898438 227.21875 103.265625 224.683594 102.550781 221.988281 C 101.914062 219.292969 101.679688 217.230469 101.28125 213.902344 C 100.726562 208.589844 100.09375 199.550781 99.855469 193.050781 C 99.695312 187.261719 99.300781 181.632812 100.011719 176.636719 C 100.566406 172.199219 101.835938 168.394531 103.183594 164.507812 C 104.613281 160.542969 106.515625 156.421875 108.257812 153.011719 C 109.765625 150.160156 111.035156 148.097656 113.015625 145.402344 C 115.394531 141.992188 118.167969 138.34375 121.972656 134.460938 C 127.128906 129.308594 136.640625 121.300781 141.875 117.734375 C 144.964844 115.671875 146.949219 114.800781 149.644531 113.609375 C 152.339844 112.421875 154.558594 111.46875 158.046875 110.519531 C 163.4375 109.011719 174.0625 106.871094 179.136719 106.394531 C 181.910156 106.078125 184.128906 106.078125 185.796875 106.394531 C 186.824219 106.554688 187.539062 106.632812 188.175781 107.1875 C 188.964844 107.902344 189.839844 109.488281 189.757812 110.519531 C 189.679688 111.628906 188.730469 113.132812 187.855469 113.769531 C 186.90625 114.324219 185.082031 114.324219 184.128906 113.925781 C 183.335938 113.609375 182.625 112.894531 182.308594 112.183594 C 181.910156 111.46875 181.671875 110.519531 181.910156 109.726562 C 182.148438 108.695312 183.257812 107.265625 184.128906 106.710938 C 184.84375 106.316406 185.875 106.316406 186.667969 106.476562 C 187.382812 106.632812 188.332031 107.109375 188.808594 107.742188 C 189.441406 108.613281 189.917969 110.359375 189.601562 111.390625 C 189.285156 112.421875 188.332031 113.453125 187.0625 114.085938 C 184.921875 115.117188 180.878906 114.402344 177.234375 114.878906 C 172.476562 115.511719 166.132812 116.304688 160.820312 117.96875 C 155.351562 119.636719 150.117188 121.695312 144.886719 125.105469 C 138.625 129.070312 131.011719 136.441406 126.253906 141.4375 C 122.847656 145.003906 120.546875 148.335938 118.40625 151.507812 C 116.664062 154.121094 115.472656 155.945312 114.046875 158.957031 C 112.0625 163.238281 109.449219 169.1875 108.417969 174.894531 C 107.226562 181.238281 107.78125 188.925781 107.941406 195.585938 C 108.101562 201.851562 108.417969 208.351562 109.210938 213.664062 C 109.84375 218.101562 110.398438 221.828125 111.984375 225.554688 C 113.492188 229.28125 116.34375 233.246094 118.484375 236.019531 C 120.070312 238.082031 122.371094 239.667969 123.164062 240.933594 C 123.640625 241.648438 123.796875 242.046875 123.796875 242.679688 C 123.875 243.550781 123.558594 244.742188 123.085938 245.453125 C 122.765625 246.007812 122.210938 246.40625 121.65625 246.644531 C 121.101562 246.960938 120.46875 247.121094 119.832031 247.121094 C 119.039062 247.039062 117.21875 246.089844 117.21875 246.089844 "/></clipPath><clipPath id="276411351c"><path d="M 212.542969 108.273438 L 239.675781 108.273438 L 239.675781 125.777344 L 212.542969 125.777344 Z M 212.542969 108.273438 "/></clipPath><clipPath id="0573972669"><path d="M 216.792969 108.296875 C 229.003906 111.707031 231.777344 113.453125 234 114.957031 C 235.742188 116.226562 237.566406 117.496094 238.4375 118.921875 C 239.230469 120.03125 239.785156 121.378906 239.628906 122.410156 C 239.390625 123.519531 238.199219 124.867188 237.328125 125.34375 C 236.535156 125.738281 235.585938 125.738281 234.792969 125.582031 C 234 125.421875 233.125 124.945312 232.652344 124.234375 C 232.015625 123.363281 231.699219 121.617188 231.859375 120.585938 C 232.09375 119.792969 232.730469 119 233.363281 118.523438 C 234 118.050781 234.949219 117.652344 235.742188 117.734375 C 236.773438 117.890625 238.4375 118.683594 238.992188 119.554688 C 239.628906 120.507812 239.707031 122.25 239.390625 123.28125 C 239.074219 124.074219 238.359375 124.789062 237.644531 125.183594 C 237.011719 125.582031 236.296875 125.898438 235.1875 125.660156 C 232.492188 125.183594 225.910156 118.84375 221.949219 117.097656 C 218.933594 115.828125 215.050781 116.066406 213.703125 115.035156 C 213.066406 114.5625 212.910156 114.085938 212.75 113.371094 C 212.511719 112.578125 212.671875 111.3125 212.910156 110.597656 C 213.148438 109.964844 213.542969 109.488281 214.097656 109.089844 C 214.8125 108.695312 216.792969 108.296875 216.792969 108.296875 "/></clipPath><clipPath id="ce58799925"><path d="M 137 233.140625 L 260.515625 233.140625 L 260.515625 278.34375 L 137 278.34375 Z M 137 233.140625 "/></clipPath><clipPath id="25810533d3"><path d="M 142.585938 258.613281 C 161.140625 267.257812 166.132812 268.605469 172.160156 269.476562 C 179.613281 270.507812 191.34375 270.507812 197.527344 270.03125 C 201.097656 269.792969 202.683594 269.476562 205.855469 268.683594 C 210.214844 267.652344 216.238281 266.066406 221.15625 263.769531 C 226.230469 261.46875 232.09375 257.664062 235.902344 254.808594 C 238.597656 252.667969 239.945312 251.164062 242.324219 248.625 C 245.890625 244.742188 251.996094 235.148438 254.769531 233.640625 C 255.800781 233.085938 256.515625 233.085938 257.308594 233.324219 C 258.257812 233.640625 259.683594 234.832031 260.082031 235.78125 C 260.476562 236.574219 260.476562 237.527344 260.242188 238.320312 C 260.003906 239.113281 259.449219 239.90625 258.8125 240.378906 C 258.179688 240.855469 257.226562 241.171875 256.433594 241.171875 C 255.640625 241.171875 254.613281 240.933594 253.976562 240.378906 C 253.265625 239.667969 252.390625 238.082031 252.472656 236.972656 C 252.550781 235.941406 253.421875 234.355469 254.375 233.800781 C 255.324219 233.246094 257.148438 233.164062 258.101562 233.640625 C 259.128906 234.117188 260.160156 235.464844 260.320312 236.574219 C 260.558594 238.003906 259.527344 239.585938 258.496094 241.410156 C 256.910156 244.1875 253.5 248.070312 250.648438 251.242188 C 247.792969 254.492188 244.9375 257.664062 241.449219 260.597656 C 237.488281 263.769531 232.96875 266.941406 227.734375 269.476562 C 221.789062 272.410156 212.832031 275.105469 207.359375 276.453125 C 203.792969 277.40625 202.046875 277.722656 198.480469 277.960938 C 192.929688 278.433594 182.703125 278.117188 177.3125 277.722656 C 173.902344 277.5625 172.078125 277.40625 169.066406 276.851562 C 165.261719 276.214844 160.109375 274.710938 156.460938 273.597656 C 153.605469 272.726562 151.625 272.015625 148.929688 270.824219 C 145.519531 269.238281 139.496094 266.621094 137.910156 264.71875 C 137.117188 263.847656 137.039062 262.816406 137.039062 262.023438 C 137.039062 261.390625 137.195312 260.753906 137.59375 260.199219 C 137.988281 259.566406 138.941406 258.773438 139.8125 258.457031 C 140.605469 258.21875 142.585938 258.613281 142.585938 258.613281 "/></clipPath><clipPath id="1be20f34be"><path d="M 248.285156 134.203125 L 273.984375 134.203125 L 273.984375 242.644531 L 248.285156 242.644531 Z M 248.285156 134.203125 "/></clipPath><clipPath id="1b1a9bb014"><path d="M 254.375 134.9375 C 260.636719 140.566406 261.113281 141.4375 262.0625 143.261719 C 263.886719 146.828125 267.136719 153.488281 268.960938 159.355469 C 271.101562 165.933594 272.847656 174.101562 273.558594 180.761719 C 274.113281 186.546875 273.796875 191.941406 273.558594 197.015625 C 273.320312 201.53125 273.320312 205.257812 272.292969 209.777344 C 271.179688 215.089844 268.328125 222.144531 266.425781 226.664062 C 265.078125 229.835938 264.125 232.054688 262.539062 234.515625 C 260.796875 237.289062 258.019531 241.570312 256.195312 242.363281 C 255.246094 242.757812 254.375 242.601562 253.660156 242.285156 C 252.867188 242.046875 252.074219 241.410156 251.679688 240.699219 C 251.28125 240.0625 251.042969 239.03125 251.042969 238.238281 C 251.125 237.445312 251.441406 236.496094 252.074219 235.941406 C 252.867188 235.226562 254.53125 234.59375 255.5625 234.671875 C 256.433594 234.671875 257.308594 235.226562 257.863281 235.78125 C 258.417969 236.335938 258.8125 237.289062 258.972656 238.082031 C 259.050781 238.875 258.894531 239.824219 258.496094 240.539062 C 258.101562 241.253906 257.386719 241.964844 256.59375 242.203125 C 255.640625 242.519531 253.820312 242.363281 252.867188 241.886719 C 252.152344 241.492188 251.597656 240.699219 251.28125 239.90625 C 251.042969 239.191406 250.886719 238.160156 251.203125 237.367188 C 251.597656 236.417969 253.027344 235.941406 253.898438 234.75 C 255.085938 233.164062 256.117188 230.867188 257.308594 228.328125 C 258.894531 225 261.035156 219.925781 262.300781 216.277344 C 263.253906 213.425781 264.046875 211.441406 264.601562 208.507812 C 265.316406 204.703125 265.472656 200.105469 265.632812 195.507812 C 265.789062 190.355469 266.1875 184.488281 265.550781 178.9375 C 264.839844 173.308594 263.410156 167.441406 261.589844 162.050781 C 259.84375 156.660156 257.464844 150.476562 254.847656 146.433594 C 252.945312 143.417969 249.140625 141.359375 248.507812 139.375 C 248.109375 138.34375 248.425781 137.316406 248.664062 136.601562 C 248.902344 135.96875 249.300781 135.492188 249.855469 135.09375 C 250.566406 134.699219 251.757812 134.300781 252.628906 134.300781 C 253.265625 134.382812 254.375 134.9375 254.375 134.9375 "/></clipPath><clipPath id="55a3891c73"><path d="M 238.332031 271.917969 L 263.90625 271.917969 L 263.90625 306.464844 L 238.332031 306.464844 Z M 238.332031 271.917969 "/></clipPath><clipPath id="5e05f3a399"><path d="M 245.574219 273.597656 C 264.046875 302.21875 263.964844 303.328125 263.492188 304.28125 C 263.175781 305.074219 262.382812 305.628906 261.667969 306.023438 C 260.953125 306.34375 259.921875 306.421875 259.128906 306.261719 C 258.335938 306.023438 257.542969 305.550781 256.988281 304.914062 C 256.515625 304.28125 256.039062 303.410156 256.117188 302.535156 C 256.117188 301.507812 256.832031 299.839844 257.703125 299.207031 C 258.574219 298.574219 260.398438 298.335938 261.351562 298.652344 C 262.222656 298.8125 262.9375 299.445312 263.332031 300.160156 C 263.886719 301.109375 264.046875 302.933594 263.730469 303.882812 C 263.492188 304.675781 262.777344 305.390625 262.0625 305.789062 C 261.351562 306.183594 260.398438 306.421875 259.605469 306.34375 C 258.8125 306.183594 258.257812 306.023438 257.308594 305.234375 C 253.738281 302.140625 240.101562 281.925781 238.675781 277.324219 C 238.28125 276.058594 238.359375 275.34375 238.675781 274.550781 C 238.914062 273.679688 239.707031 272.804688 240.5 272.410156 C 241.214844 272.015625 242.402344 271.855469 243.273438 272.015625 C 244.144531 272.25 245.574219 273.597656 245.574219 273.597656 "/></clipPath><clipPath id="437a835232"><path d="M 272.582031 231.871094 L 307.265625 231.871094 L 307.265625 253.332031 L 272.582031 253.332031 Z M 272.582031 231.871094 "/></clipPath><clipPath id="2359e282bd"><path d="M 277.285156 231.898438 C 290.289062 236.734375 292.191406 238.875 294.964844 240.617188 C 298.296875 242.679688 304.398438 244.503906 306.144531 246.644531 C 307.015625 247.753906 307.253906 249.179688 307.09375 250.210938 C 307.015625 251.082031 306.382812 251.875 305.828125 252.351562 C 305.191406 252.90625 304.242188 253.304688 303.449219 253.304688 C 302.65625 253.382812 301.703125 253.144531 300.992188 252.667969 C 300.199219 251.957031 299.324219 250.371094 299.246094 249.339844 C 299.246094 248.46875 299.5625 247.59375 300.117188 246.960938 C 300.753906 246.167969 302.417969 245.453125 303.449219 245.375 C 304.320312 245.375 305.191406 245.851562 305.828125 246.328125 C 306.460938 246.882812 306.9375 247.753906 307.09375 248.546875 C 307.253906 249.261719 307.175781 250.289062 306.859375 251.003906 C 306.539062 251.71875 305.828125 252.511719 305.113281 252.828125 C 304.398438 253.222656 303.6875 253.382812 302.578125 253.304688 C 300.515625 252.984375 296.710938 250.84375 293.617188 249.179688 C 290.050781 247.121094 286.164062 243.472656 282.597656 241.726562 C 279.664062 240.300781 275.621094 240.144531 274.035156 238.875 C 273.164062 238.160156 272.765625 237.367188 272.609375 236.496094 C 272.527344 235.625 272.765625 234.433594 273.164062 233.722656 C 273.480469 233.164062 273.957031 232.691406 274.511719 232.375 C 275.226562 232.054688 277.285156 231.898438 277.285156 231.898438 "/></clipPath><clipPath id="4462c5b875"><path d="M 285.148438 180.222656 L 319.128906 180.222656 L 319.128906 190.769531 L 285.148438 190.769531 Z M 285.148438 180.222656 "/></clipPath><clipPath id="5c41bc6137"><path d="M 289.097656 182.585938 C 304.242188 182.265625 312.488281 179.890625 315.421875 180.285156 C 316.53125 180.445312 317.164062 180.683594 317.71875 181.316406 C 318.433594 182.03125 319.144531 183.695312 318.988281 184.804688 C 318.828125 185.835938 317.71875 187.261719 316.847656 187.816406 C 316.132812 188.214844 315.101562 188.292969 314.308594 188.132812 C 313.515625 187.976562 312.644531 187.5 312.167969 186.867188 C 311.613281 186.3125 311.140625 185.359375 311.140625 184.566406 C 311.140625 183.535156 311.773438 181.792969 312.566406 181.15625 C 313.4375 180.445312 315.261719 180.207031 316.214844 180.445312 C 317.085938 180.601562 317.878906 181.238281 318.273438 181.949219 C 318.75 182.585938 319.066406 183.535156 319.066406 184.328125 C 318.988281 185.121094 318.671875 186.074219 318.195312 186.707031 C 317.640625 187.339844 317.164062 187.660156 316.054688 188.054688 C 313.199219 189.164062 304.398438 190.117188 299.484375 190.511719 C 295.679688 190.75 291.398438 190.910156 289.097656 190.511719 C 287.910156 190.273438 287.117188 190.117188 286.484375 189.480469 C 285.847656 188.925781 285.292969 187.894531 285.214844 187.023438 C 285.054688 186.152344 285.292969 184.964844 285.847656 184.25 C 286.484375 183.457031 289.097656 182.585938 289.097656 182.585938 "/></clipPath><clipPath id="ec03674cfa"><path d="M 267.9375 116.628906 L 298.25 116.628906 L 298.25 140.4375 L 267.9375 140.4375 Z M 267.9375 116.628906 "/></clipPath><clipPath id="5f3b9464df"><path d="M 269.59375 133.191406 C 293.777344 116.621094 294.332031 116.621094 295.125 116.859375 C 295.917969 117.019531 296.789062 117.574219 297.265625 118.128906 C 297.820312 118.761719 298.214844 119.714844 298.214844 120.507812 C 298.136719 121.539062 297.421875 123.203125 296.550781 123.917969 C 295.679688 124.550781 293.933594 124.710938 292.90625 124.472656 C 292.113281 124.234375 291.320312 123.519531 290.921875 122.886719 C 290.445312 122.171875 290.128906 121.300781 290.289062 120.429688 C 290.445312 119.398438 291.398438 117.890625 292.191406 117.257812 C 292.90625 116.78125 293.933594 116.621094 294.726562 116.78125 C 295.519531 116.859375 296.394531 117.257812 296.949219 117.890625 C 297.582031 118.445312 298.058594 119.238281 298.136719 120.109375 C 298.214844 121.140625 297.976562 122.25 296.867188 123.597656 C 294.015625 127.40625 277.601562 138.742188 273.402344 140.089844 C 272.132812 140.484375 271.417969 140.40625 270.625 140.089844 C 269.753906 139.851562 268.882812 139.058594 268.484375 138.265625 C 268.089844 137.554688 267.851562 136.363281 268.089844 135.492188 C 268.246094 134.621094 269.59375 133.191406 269.59375 133.191406 "/></clipPath><clipPath id="caceb6fc26"><path d="M 228.65625 73.757812 L 248.300781 73.757812 L 248.300781 103.632812 L 228.65625 103.632812 Z M 228.65625 73.757812 "/></clipPath><clipPath id="358c3eb071"><path d="M 228.925781 98.148438 C 242.480469 74.128906 243.671875 73.8125 244.703125 73.890625 C 245.574219 73.890625 246.445312 74.367188 247 74.921875 C 247.554688 75.476562 248.03125 76.347656 248.191406 77.140625 C 248.347656 77.933594 248.191406 78.964844 247.792969 79.675781 C 247.398438 80.390625 246.761719 81.105469 245.96875 81.421875 C 245.019531 81.738281 243.195312 81.660156 242.242188 81.183594 C 241.449219 80.867188 240.894531 79.996094 240.578125 79.28125 C 240.339844 78.566406 240.183594 77.535156 240.5 76.746094 C 240.816406 75.792969 242.085938 74.445312 243.035156 74.046875 C 243.828125 73.730469 244.78125 73.8125 245.574219 74.046875 C 246.285156 74.285156 247.160156 74.839844 247.554688 75.554688 C 248.03125 76.507812 248.269531 77.617188 247.953125 79.28125 C 247.078125 83.800781 238.28125 99.972656 235.1875 102.667969 C 234.15625 103.460938 233.445312 103.621094 232.570312 103.542969 C 231.621094 103.542969 230.589844 103.144531 229.953125 102.511719 C 229.320312 101.957031 228.765625 100.765625 228.6875 99.972656 C 228.605469 99.339844 228.925781 98.148438 228.925781 98.148438 "/></clipPath><clipPath id="125034615e"><path d="M 175.316406 61 L 184.738281 61 L 184.738281 94.894531 L 175.316406 94.894531 Z M 175.316406 61 "/></clipPath><clipPath id="1ea6d1a646"><path d="M 176.519531 90.855469 C 175.886719 62.554688 176.359375 62.15625 176.996094 61.679688 C 177.707031 61.203125 178.660156 60.886719 179.453125 61.046875 C 180.484375 61.125 182.070312 62.078125 182.625 62.949219 C 183.179688 63.582031 183.257812 64.613281 183.179688 65.40625 C 183.101562 66.199219 182.703125 67.070312 182.148438 67.707031 C 181.59375 68.261719 180.722656 68.816406 179.929688 68.894531 C 178.898438 68.976562 177.152344 68.5 176.359375 67.707031 C 175.648438 66.914062 175.25 65.167969 175.410156 64.136719 C 175.488281 63.265625 176.042969 62.472656 176.679688 61.917969 C 177.3125 61.441406 178.265625 61.046875 179.054688 61.046875 C 179.847656 60.96875 180.800781 61.203125 181.515625 61.679688 C 182.148438 62.15625 182.625 62.554688 183.019531 63.664062 C 184.449219 67.46875 185.160156 86.574219 184.449219 90.855469 C 184.289062 92.203125 184.050781 92.839844 183.496094 93.472656 C 182.941406 94.105469 181.832031 94.660156 181.039062 94.820312 C 180.167969 94.898438 178.976562 94.660156 178.265625 94.105469 C 177.472656 93.472656 176.519531 90.855469 176.519531 90.855469 "/></clipPath><clipPath id="21e84cec39"><path d="M 110.601562 81.542969 L 134.058594 81.542969 L 134.058594 110.460938 L 110.601562 110.460938 Z M 110.601562 81.542969 "/></clipPath><clipPath id="7747d32fe7"><path d="M 126.890625 108.851562 C 112.144531 88.875 110.714844 87.445312 110.636719 85.863281 C 110.636719 84.59375 111.429688 83.164062 112.144531 82.453125 C 112.777344 81.816406 113.730469 81.582031 114.523438 81.582031 C 115.316406 81.5 116.265625 81.738281 116.898438 82.292969 C 117.691406 82.929688 118.644531 84.515625 118.566406 85.625 C 118.566406 86.734375 117.691406 88.238281 116.742188 88.875 C 115.871094 89.429688 114.046875 89.585938 113.09375 89.191406 C 112.0625 88.714844 111.035156 87.289062 110.714844 86.257812 C 110.476562 85.464844 110.714844 84.515625 111.035156 83.800781 C 111.429688 83.007812 112.0625 82.292969 112.855469 81.976562 C 113.808594 81.582031 115.234375 81.421875 116.582031 82.054688 C 119.515625 83.5625 124.113281 91.492188 127.128906 95.535156 C 129.503906 98.703125 132.28125 102.035156 133.3125 104.097656 C 133.785156 105.207031 134.105469 106 134.023438 106.871094 C 133.945312 107.742188 133.390625 108.773438 132.835938 109.328125 C 132.359375 109.882812 131.804688 110.199219 131.171875 110.28125 C 130.378906 110.519531 129.109375 110.359375 128.394531 110.042969 C 127.761719 109.804688 126.890625 108.851562 126.890625 108.851562 "/></clipPath><clipPath id="2637c22318"><path d="M 68.003906 131.804688 L 100.789062 131.804688 L 100.789062 150.496094 L 68.003906 150.496094 Z M 68.003906 131.804688 "/></clipPath><clipPath id="ca1cf37562"><path d="M 72.582031 131.84375 C 82.570312 134.621094 90.261719 138.1875 94.226562 140.40625 C 96.683594 141.753906 99.140625 143.023438 100.09375 144.371094 C 100.648438 145.164062 100.804688 145.957031 100.726562 146.828125 C 100.726562 147.621094 100.410156 148.574219 99.773438 149.128906 C 99.0625 149.839844 97.398438 150.476562 96.367188 150.476562 C 95.496094 150.476562 94.621094 150 94.066406 149.367188 C 93.355469 148.652344 92.71875 146.90625 92.878906 145.878906 C 93.117188 144.765625 94.144531 143.339844 95.175781 142.945312 C 96.207031 142.46875 97.953125 142.707031 98.902344 143.183594 C 99.617188 143.578125 100.171875 144.371094 100.488281 145.085938 C 100.804688 145.878906 100.804688 146.828125 100.648438 147.621094 C 100.410156 148.414062 99.773438 149.207031 99.140625 149.683594 C 98.507812 150.160156 97.953125 150.554688 96.761719 150.476562 C 93.355469 150.316406 82.332031 143.417969 77.257812 141.4375 C 74.167969 140.25 71.15625 140.089844 69.648438 138.980469 C 68.777344 138.34375 68.300781 137.472656 68.140625 136.679688 C 67.90625 135.808594 68.0625 134.621094 68.539062 133.828125 C 68.933594 133.113281 69.886719 132.398438 70.679688 132.082031 C 71.3125 131.765625 72.582031 131.84375 72.582031 131.84375 "/></clipPath><clipPath id="ef1768ba5e"><path d="M 55.832031 195.664062 L 91.628906 195.664062 L 91.628906 204.941406 L 55.832031 204.941406 Z M 55.832031 195.664062 "/></clipPath><clipPath id="f4421ceddd"><path d="M 59.816406 196.617188 C 90.421875 196.457031 91.132812 197.570312 91.449219 198.519531 C 91.769531 199.3125 91.609375 200.34375 91.292969 201.058594 C 91.054688 201.851562 90.339844 202.5625 89.707031 203.039062 C 88.992188 203.433594 88.042969 203.753906 87.167969 203.59375 C 86.21875 203.355469 84.710938 202.324219 84.15625 201.453125 C 83.679688 200.738281 83.601562 199.789062 83.679688 198.996094 C 83.839844 198.203125 84.234375 197.25 84.871094 196.777344 C 85.742188 196.0625 87.488281 195.585938 88.515625 195.746094 C 89.308594 195.824219 90.101562 196.457031 90.65625 197.015625 C 91.132812 197.648438 91.53125 198.597656 91.609375 199.390625 C 91.609375 200.183594 91.449219 201.214844 90.894531 201.851562 C 90.261719 202.644531 89.308594 203.117188 87.644531 203.59375 C 82.96875 204.863281 64.179688 205.257812 59.816406 204.546875 C 58.46875 204.386719 57.835938 204.148438 57.203125 203.59375 C 56.488281 202.960938 56.011719 201.929688 55.855469 201.058594 C 55.773438 200.183594 56.011719 199.074219 56.566406 198.363281 C 57.203125 197.570312 59.816406 196.617188 59.816406 196.617188 "/></clipPath><clipPath id="0e259d93ce"><path d="M 74.195312 244.558594 L 108.289062 244.558594 L 108.289062 266.484375 L 74.195312 266.484375 Z M 74.195312 244.558594 "/></clipPath><clipPath id="eca061ab2d"><path d="M 76.230469 259.011719 C 89.945312 250.527344 99.933594 245.296875 103.265625 244.660156 C 104.453125 244.503906 105.085938 244.582031 105.800781 244.898438 C 106.515625 245.214844 107.308594 245.851562 107.703125 246.5625 C 108.101562 247.277344 108.335938 248.230469 108.179688 249.101562 C 107.941406 250.054688 106.910156 251.558594 105.960938 252.113281 C 105.246094 252.511719 104.292969 252.667969 103.5 252.429688 C 102.472656 252.113281 101.042969 251.082031 100.566406 250.054688 C 100.171875 249.101562 100.410156 247.277344 100.886719 246.40625 C 101.28125 245.613281 102.152344 245.058594 102.867188 244.820312 C 103.660156 244.503906 104.613281 244.503906 105.40625 244.742188 C 106.195312 244.980469 106.988281 245.613281 107.464844 246.246094 C 107.941406 246.882812 108.257812 247.832031 108.179688 248.625 C 108.179688 249.417969 108.101562 250.210938 107.308594 251.003906 C 105.324219 253.144531 96.84375 255.761719 92.085938 258.378906 C 87.726562 260.753906 82.652344 265.035156 79.953125 265.988281 C 78.765625 266.382812 78.050781 266.542969 77.179688 266.382812 C 76.386719 266.148438 75.355469 265.511719 74.882812 264.800781 C 74.324219 263.847656 74.089844 262.105469 74.40625 261.152344 C 74.644531 260.28125 76.230469 259.011719 76.230469 259.011719 "/></clipPath><clipPath id="f89754bea1"><path d="M 126.414062 279.226562 L 144.867188 279.226562 L 144.867188 310.4375 L 126.414062 310.4375 Z M 126.414062 279.226562 "/></clipPath><clipPath id="a6a71128bc"><path d="M 126.492188 305.628906 C 133.867188 287.789062 136.246094 282.242188 138.066406 280.417969 C 138.859375 279.703125 139.496094 279.386719 140.289062 279.308594 C 141.082031 279.148438 142.113281 279.386719 142.824219 279.785156 C 143.460938 280.101562 144.171875 280.894531 144.488281 281.605469 C 144.808594 282.320312 144.964844 283.351562 144.726562 284.144531 C 144.410156 285.09375 143.300781 286.523438 142.269531 286.917969 C 141.238281 287.316406 139.496094 287.078125 138.625 286.441406 C 137.671875 285.808594 136.957031 284.144531 136.878906 283.191406 C 136.878906 282.320312 137.273438 281.367188 137.75 280.734375 C 138.226562 280.179688 139.097656 279.625 139.890625 279.386719 C 140.683594 279.148438 141.636719 279.226562 142.429688 279.546875 C 143.140625 279.863281 143.933594 280.574219 144.332031 281.210938 C 144.726562 281.925781 144.964844 282.480469 144.808594 283.746094 C 144.332031 287.710938 136.402344 304.597656 133.945312 308.085938 C 133.152344 309.195312 132.675781 309.671875 131.882812 310.070312 C 131.089844 310.386719 129.902344 310.464844 129.109375 310.148438 C 128.238281 309.910156 127.363281 309.117188 126.890625 308.402344 C 126.492188 307.609375 126.492188 305.628906 126.492188 305.628906 "/></clipPath><clipPath id="599617ef7a"><path d="M 188.714844 287.054688 L 200.148438 287.054688 L 200.148438 324.699219 L 188.714844 324.699219 Z M 188.714844 287.054688 "/></clipPath><clipPath id="4a19b38945"><path d="M 192.058594 320.691406 C 191.105469 304.996094 188.253906 293.816406 188.808594 290.484375 C 189.046875 289.296875 189.363281 288.742188 189.996094 288.1875 C 190.789062 287.554688 192.535156 286.996094 193.566406 287.15625 C 194.359375 287.234375 195.230469 287.789062 195.707031 288.425781 C 196.261719 288.980469 196.734375 289.851562 196.734375 290.722656 C 196.734375 291.753906 195.945312 293.417969 195.230469 294.132812 C 194.59375 294.6875 193.644531 295.003906 192.851562 295.003906 C 192.058594 295.003906 191.105469 294.765625 190.394531 294.210938 C 189.679688 293.578125 188.886719 291.914062 188.808594 290.882812 C 188.730469 290.089844 189.125 289.136719 189.679688 288.503906 C 190.394531 287.789062 192.058594 287.078125 193.089844 287.078125 C 193.960938 287.078125 194.832031 287.554688 195.46875 288.109375 C 196.023438 288.664062 196.261719 289.136719 196.65625 290.328125 C 197.765625 293.5 198.957031 303.804688 199.511719 309.355469 C 199.90625 313.636719 200.382812 318.234375 199.988281 320.691406 C 199.75 321.882812 199.589844 322.675781 198.957031 323.308594 C 198.402344 323.941406 197.371094 324.496094 196.5 324.65625 C 195.625 324.734375 194.4375 324.496094 193.722656 323.941406 C 192.929688 323.308594 192.058594 320.691406 192.058594 320.691406 "/></clipPath></defs><g id="0f245c8413"><g clip-rule="nonzero" clip-path="url(#6f7007c434)"><g clip-rule="nonzero" clip-path="url(#836f177928)"><path style=" stroke:none;fill-rule:nonzero;fill:currentColor;fill-opacity:1;" d="M 77.417969 219.371094 L 142.585938 219.371094 L 142.585938 337.488281 L 77.417969 337.488281 Z M 77.417969 219.371094 "/></g></g><g clip-rule="nonzero" clip-path="url(#fb186f9f4f)"><g clip-rule="nonzero" clip-path="url(#6c01fce0ac)"><path style=" stroke:none;fill-rule:nonzero;fill:currentColor;fill-opacity:1;" d="M 127.128906 89.507812 L 201.652344 89.507812 L 201.652344 236.519531 L 127.128906 236.519531 Z M 127.128906 89.507812 "/></g></g><g clip-rule="nonzero" clip-path="url(#483aaf6234)"><g clip-rule="nonzero" clip-path="url(#ca3173a338)"><path style=" stroke:none;fill-rule:nonzero;fill:currentColor;fill-opacity:1;" d="M 186.269531 37.5 L 287.421875 37.5 L 287.421875 107.109375 L 186.269531 107.109375 Z M 186.269531 37.5 "/></g></g><g clip-rule="nonzero" clip-path="url(#033c6f5aa5)"><g clip-rule="nonzero" clip-path="url(#bca79041c1)"><path style=" stroke:none;fill-rule:nonzero;fill:currentColor;fill-opacity:1;" d="M 220.125 81.816406 L 286.957031 81.816406 L 286.957031 167.1875 L 220.125 167.1875 Z M 220.125 81.816406 "/></g></g><g clip-rule="nonzero" clip-path="url(#f68b414eee)"><g clip-rule="nonzero" clip-path="url(#8ab81d8d68)"><path style=" stroke:none;fill-rule:nonzero;fill:currentColor;fill-opacity:1;" d="M 207.28125 60.730469 L 267.851562 60.730469 L 267.851562 160.339844 L 207.28125 160.339844 Z M 207.28125 60.730469 "/></g></g><g clip-rule="nonzero" clip-path="url(#d165dc9fd6)"><g clip-rule="nonzero" clip-path="url(#bc46f3b2b0)"><path style=" stroke:none;fill-rule:nonzero;fill:currentColor;fill-opacity:1;" d="M 144.726562 88.714844 L 223.136719 88.714844 L 223.136719 242.164062 L 144.726562 242.164062 Z M 144.726562 88.714844 "/></g></g><g clip-rule="nonzero" clip-path="url(#39036af08c)"><g clip-rule="nonzero" clip-path="url(#4f2ee379ed)"><path style=" stroke:none;fill-rule:nonzero;fill:currentColor;fill-opacity:1;" d="M 90.339844 226.824219 L 158.839844 226.824219 L 158.839844 336.261719 L 90.339844 336.261719 Z M 90.339844 226.824219 "/></g></g><g clip-rule="nonzero" clip-path="url(#6ad6e2dbc0)"><g clip-rule="nonzero" clip-path="url(#684dfcf663)"><path style=" stroke:none;fill-rule:nonzero;fill:currentColor;fill-opacity:1;" d="M 96.683594 103.222656 L 192.929688 103.222656 L 192.929688 250.226562 L 96.683594 250.226562 Z M 96.683594 103.222656 "/></g></g><g clip-rule="nonzero" clip-path="url(#276411351c)"><g clip-rule="nonzero" clip-path="url(#0573972669)"><path style=" stroke:none;fill-rule:nonzero;fill:currentColor;fill-opacity:1;" d="M 209.578125 105.125 L 242.824219 105.125 L 242.824219 128.832031 L 209.578125 128.832031 Z M 209.578125 105.125 "/></g></g><g clip-rule="nonzero" clip-path="url(#ce58799925)"><g clip-rule="nonzero" clip-path="url(#25810533d3)"><path style=" stroke:none;fill-rule:nonzero;fill:currentColor;fill-opacity:1;" d="M 133.867188 230.152344 L 263.5 230.152344 L 263.5 281.132812 L 133.867188 281.132812 Z M 133.867188 230.152344 "/></g></g><g clip-rule="nonzero" clip-path="url(#1be20f34be)"><g clip-rule="nonzero" clip-path="url(#1b1a9bb014)"><path style=" stroke:none;fill-rule:nonzero;fill:currentColor;fill-opacity:1;" d="M 245.335938 131.132812 L 276.808594 131.132812 L 276.808594 245.472656 L 245.335938 245.472656 Z M 245.335938 131.132812 "/></g></g><g clip-rule="nonzero" clip-path="url(#55a3891c73)"><g clip-rule="nonzero" clip-path="url(#5e05f3a399)"><path style=" stroke:none;fill-rule:nonzero;fill:currentColor;fill-opacity:1;" d="M 235.503906 268.84375 L 266.980469 268.84375 L 266.980469 309.539062 L 235.503906 309.539062 Z M 235.503906 268.84375 "/></g></g><g clip-rule="nonzero" clip-path="url(#437a835232)"><g clip-rule="nonzero" clip-path="url(#2359e282bd)"><path style=" stroke:none;fill-rule:nonzero;fill:currentColor;fill-opacity:1;" d="M 269.4375 228.726562 L 310.300781 228.726562 L 310.300781 256.472656 L 269.4375 256.472656 Z M 269.4375 228.726562 "/></g></g><g clip-rule="nonzero" clip-path="url(#4462c5b875)"><g clip-rule="nonzero" clip-path="url(#5c41bc6137)"><path style=" stroke:none;fill-rule:nonzero;fill:currentColor;fill-opacity:1;" d="M 282.042969 177.113281 L 322.300781 177.113281 L 322.300781 193.683594 L 282.042969 193.683594 Z M 282.042969 177.113281 "/></g></g><g clip-rule="nonzero" clip-path="url(#ec03674cfa)"><g clip-rule="nonzero" clip-path="url(#5f3b9464df)"><path style=" stroke:none;fill-rule:nonzero;fill:currentColor;fill-opacity:1;" d="M 264.917969 113.609375 L 301.382812 113.609375 L 301.382812 143.339844 L 264.917969 143.339844 Z M 264.917969 113.609375 "/></g></g><g clip-rule="nonzero" clip-path="url(#caceb6fc26)"><g clip-rule="nonzero" clip-path="url(#358c3eb071)"><path style=" stroke:none;fill-rule:nonzero;fill:currentColor;fill-opacity:1;" d="M 225.515625 70.71875 L 251.441406 70.71875 L 251.441406 106.769531 L 225.515625 106.769531 Z M 225.515625 70.71875 "/></g></g><g clip-rule="nonzero" clip-path="url(#125034615e)"><g clip-rule="nonzero" clip-path="url(#1ea6d1a646)"><path style=" stroke:none;fill-rule:nonzero;fill:currentColor;fill-opacity:1;" d="M 172.238281 57.875 L 187.699219 57.875 L 187.699219 98.09375 L 172.238281 98.09375 Z M 172.238281 57.875 "/></g></g><g clip-rule="nonzero" clip-path="url(#21e84cec39)"><g clip-rule="nonzero" clip-path="url(#7747d32fe7)"><path style=" stroke:none;fill-rule:nonzero;fill:currentColor;fill-opacity:1;" d="M 107.464844 78.410156 L 137.195312 78.410156 L 137.195312 113.480469 L 107.464844 113.480469 Z M 107.464844 78.410156 "/></g></g><g clip-rule="nonzero" clip-path="url(#2637c22318)"><g clip-rule="nonzero" clip-path="url(#ca1cf37562)"><path style=" stroke:none;fill-rule:nonzero;fill:currentColor;fill-opacity:1;" d="M 64.972656 128.671875 L 104.019531 128.671875 L 104.019531 153.726562 L 64.972656 153.726562 Z M 64.972656 128.671875 "/></g></g><g clip-rule="nonzero" clip-path="url(#ef1768ba5e)"><g clip-rule="nonzero" clip-path="url(#f4421ceddd)"><path style=" stroke:none;fill-rule:nonzero;fill:currentColor;fill-opacity:1;" d="M 52.683594 192.574219 L 94.78125 192.574219 L 94.78125 207.796875 L 52.683594 207.796875 Z M 52.683594 192.574219 "/></g></g><g clip-rule="nonzero" clip-path="url(#0e259d93ce)"><g clip-rule="nonzero" clip-path="url(#eca061ab2d)"><path style=" stroke:none;fill-rule:nonzero;fill:currentColor;fill-opacity:1;" d="M 71.234375 241.492188 L 111.46875 241.492188 L 111.46875 269.554688 L 71.234375 269.554688 Z M 71.234375 241.492188 "/></g></g><g clip-rule="nonzero" clip-path="url(#f89754bea1)"><g clip-rule="nonzero" clip-path="url(#a6a71128bc)"><path style=" stroke:none;fill-rule:nonzero;fill:currentColor;fill-opacity:1;" d="M 123.320312 276.136719 L 148.058594 276.136719 L 148.058594 313.433594 L 123.320312 313.433594 Z M 123.320312 276.136719 "/></g></g><g clip-rule="nonzero" clip-path="url(#599617ef7a)"><g clip-rule="nonzero" clip-path="url(#4a19b38945)"><path style=" stroke:none;fill-rule:nonzero;fill:currentColor;fill-opacity:1;" d="M 185.636719 283.90625 L 203.15625 283.90625 L 203.15625 327.84375 L 185.636719 327.84375 Z M 185.636719 283.90625 "/></g></g></g></svg>