<svg xmlns="http://www.w3.org/2000/svg" xmlns:xlink="http://www.w3.org/1999/xlink" width="500" zoomAndPan="magnify" viewBox="0 0 375 374.999991" height="500" preserveAspectRatio="xMidYMid meet" version="1.2"><defs><clipPath id="271da6d859"><path d="M 246.167969 108.570312 L 268.339844 108.570312 L 268.339844 142.265625 L 246.167969 142.265625 Z M 246.167969 108.570312 "/></clipPath><clipPath id="e749b362a3"><path d="M 255.148438 141.1875 C 247.800781 133.238281 246.75 130.011719 246.449219 127.835938 C 246.148438 126.335938 246.226562 125.210938 246.523438 123.9375 C 246.824219 122.738281 247.199219 121.613281 248.023438 120.335938 C 249.226562 118.613281 251.398438 116.664062 253.648438 114.9375 C 256.425781 112.835938 261.148438 109.164062 263.699219 108.789062 C 265.050781 108.5625 266.324219 109.085938 267.074219 109.6875 C 267.675781 110.136719 268.050781 111.039062 268.199219 111.789062 C 268.351562 112.539062 268.273438 113.4375 267.824219 114.113281 C 267.375 114.9375 265.949219 115.914062 264.976562 116.136719 C 264.148438 116.289062 263.25 116.0625 262.648438 115.613281 C 261.976562 115.238281 261.300781 114.636719 261.074219 113.8125 C 260.773438 112.914062 260.851562 111.1875 261.375 110.363281 C 261.976562 109.460938 263.476562 108.789062 264.449219 108.636719 C 265.273438 108.5625 266.175781 108.9375 266.773438 109.386719 C 267.375 109.835938 267.898438 110.664062 268.125 111.335938 C 268.351562 112.085938 268.273438 113.0625 268.050781 113.738281 C 267.75 114.488281 267.300781 114.863281 266.476562 115.613281 C 264.601562 117.335938 257.925781 120.5625 255.898438 122.664062 C 254.773438 123.789062 254.101562 124.761719 253.875 125.886719 C 253.726562 127.011719 254.101562 128.210938 254.851562 129.5625 C 255.898438 131.585938 259.949219 134.8125 260.925781 136.460938 C 261.300781 137.136719 261.449219 137.585938 261.449219 138.113281 C 261.523438 138.710938 261.523438 139.3125 261.226562 139.914062 C 260.851562 140.585938 260.023438 141.488281 259.425781 141.863281 C 258.824219 142.164062 258.300781 142.3125 257.625 142.238281 C 256.875 142.164062 255.148438 141.1875 255.148438 141.1875 "/></clipPath><clipPath id="baca46107c"><path d="M 256.152344 98.515625 L 292.96875 98.515625 L 292.96875 119 L 256.152344 119 Z M 256.152344 98.515625 "/></clipPath><clipPath id="eff667b3da"><path d="M 258.148438 112.011719 C 276.300781 99.113281 277.125 98.960938 278.398438 98.8125 C 279.675781 98.585938 281.101562 98.511719 282.375 98.738281 C 283.648438 99.039062 284.699219 99.414062 285.976562 100.238281 C 287.699219 101.363281 290.25 103.835938 291.449219 105.636719 C 292.273438 106.914062 293.023438 108.261719 292.875 109.460938 C 292.800781 110.585938 291.976562 111.9375 291.226562 112.539062 C 290.625 113.0625 289.648438 113.210938 288.898438 113.210938 C 288.148438 113.136719 287.25 112.835938 286.726562 112.238281 C 286.050781 111.5625 285.300781 109.988281 285.449219 109.011719 C 285.601562 107.960938 286.5 106.539062 287.476562 106.085938 C 288.375 105.636719 290.101562 105.789062 291 106.164062 C 291.675781 106.460938 292.273438 107.210938 292.574219 107.886719 C 292.875 108.636719 292.949219 109.539062 292.800781 110.289062 C 292.648438 111.039062 292.125 111.863281 291.523438 112.3125 C 291 112.835938 290.101562 113.136719 289.273438 113.210938 C 288.523438 113.210938 287.851562 113.0625 287.023438 112.539062 C 285.601562 111.5625 284.101562 107.664062 282.375 106.835938 C 281.101562 106.164062 279.976562 106.011719 278.25 106.539062 C 274.648438 107.585938 265.875 116.289062 262.800781 118.011719 C 261.601562 118.6875 261 118.988281 260.101562 118.988281 C 259.273438 119.0625 258.226562 118.6875 257.625 118.164062 C 256.949219 117.636719 256.425781 116.664062 256.273438 115.835938 C 256.125 115.011719 256.425781 113.886719 256.800781 113.210938 C 257.101562 112.6875 258.148438 112.011719 258.148438 112.011719 "/></clipPath><clipPath id="27c1cb445d"><path d="M 284.261719 103.546875 L 326.054688 103.546875 L 326.054688 157.972656 L 284.261719 157.972656 Z M 284.261719 103.546875 "/></clipPath><clipPath id="69b90be4b9"><path d="M 291.375 105.488281 C 308.476562 131.511719 323.550781 148.3125 325.5 152.210938 C 325.949219 153.039062 326.023438 153.261719 326.023438 153.9375 C 326.023438 154.6875 325.574219 155.8125 325.125 156.414062 C 324.75 156.9375 324.300781 157.3125 323.699219 157.539062 C 323.023438 157.761719 321.824219 157.988281 321.074219 157.613281 C 320.101562 157.164062 318.824219 155.664062 318.601562 154.613281 C 318.375 153.863281 318.601562 152.960938 318.976562 152.289062 C 319.351562 151.613281 319.949219 150.9375 320.699219 150.636719 C 321.601562 150.335938 323.324219 150.414062 324.226562 150.863281 C 324.898438 151.164062 325.5 151.988281 325.726562 152.664062 C 326.023438 153.335938 326.101562 154.3125 325.875 155.0625 C 325.648438 155.8125 325.125 156.5625 324.523438 157.011719 C 323.925781 157.460938 323.101562 157.835938 322.273438 157.761719 C 321.300781 157.6875 319.800781 156.9375 319.199219 156.113281 C 318.675781 155.511719 318.449219 154.613281 318.523438 153.863281 C 318.675781 152.886719 319.726562 151.386719 320.324219 150.863281 C 320.699219 150.488281 321 150.335938 321.449219 150.414062 C 322.425781 150.414062 324.898438 151.238281 325.5 152.210938 C 326.101562 153.039062 326.023438 154.761719 325.648438 155.664062 C 325.351562 156.488281 324.449219 157.164062 323.699219 157.539062 C 322.949219 157.835938 321.824219 157.761719 321.074219 157.613281 C 320.476562 157.460938 320.175781 157.164062 319.574219 156.636719 C 318 155.210938 315.375 151.613281 312.601562 148.164062 C 308.175781 142.613281 300.75 133.539062 295.875 126.636719 C 291.675781 120.636719 286.125 112.460938 284.851562 109.164062 C 284.398438 107.960938 284.25 107.363281 284.476562 106.539062 C 284.773438 105.5625 285.824219 104.289062 286.726562 103.835938 C 287.476562 103.460938 288.601562 103.539062 289.351562 103.761719 C 290.175781 104.0625 291.375 105.488281 291.375 105.488281 "/></clipPath><clipPath id="4801887815"><path d="M 317.441406 148.355469 L 330.484375 148.355469 L 330.484375 173.554688 L 317.441406 173.554688 Z M 317.441406 148.355469 "/></clipPath><clipPath id="3742872807"><path d="M 323.925781 149.585938 C 330 159.488281 330.601562 162.488281 330.449219 164.511719 C 330.375 165.9375 330.148438 166.988281 329.398438 168.1875 C 328.425781 169.835938 325.800781 172.238281 324.375 172.988281 C 323.550781 173.4375 322.800781 173.585938 322.050781 173.511719 C 321.300781 173.511719 320.398438 173.136719 319.875 172.613281 C 319.199219 171.863281 318.523438 170.289062 318.675781 169.238281 C 318.824219 168.261719 319.800781 166.914062 320.773438 166.460938 C 321.675781 166.011719 323.398438 166.085938 324.300781 166.539062 C 325.199219 167.0625 325.949219 168.5625 326.101562 169.539062 C 326.25 170.363281 325.949219 171.261719 325.5 171.863281 C 325.125 172.539062 324.449219 173.136719 323.625 173.363281 C 322.726562 173.585938 321 173.363281 320.175781 172.835938 C 319.5 172.386719 318.976562 171.5625 318.824219 170.886719 C 318.601562 170.136719 318.601562 169.386719 318.898438 168.488281 C 319.425781 166.835938 322.574219 164.210938 322.800781 162.414062 C 322.949219 161.0625 322.199219 160.011719 321.523438 158.738281 C 320.625 157.238281 318.523438 155.4375 317.925781 154.011719 C 317.550781 153.039062 317.324219 152.210938 317.550781 151.386719 C 317.773438 150.414062 318.898438 149.136719 319.726562 148.6875 C 320.550781 148.3125 321.675781 148.386719 322.425781 148.613281 C 323.023438 148.761719 323.925781 149.585938 323.925781 149.585938 "/></clipPath><clipPath id="392e8f926b"><path d="M 295.921875 163.886719 L 328.296875 163.886719 L 328.296875 190.339844 L 295.921875 190.339844 Z M 295.921875 163.886719 "/></clipPath><clipPath id="99d50c709a"><path d="M 297.675781 183.261719 C 316.125 170.363281 320.324219 165.5625 322.648438 164.4375 C 323.625 163.988281 324.226562 163.835938 324.976562 163.988281 C 325.949219 164.210938 327.375 165.113281 327.824219 166.085938 C 328.273438 166.988281 328.125 168.710938 327.75 169.613281 C 327.375 170.289062 326.699219 170.960938 325.949219 171.1875 C 324.976562 171.488281 323.25 171.335938 322.425781 170.886719 C 321.75 170.511719 321.226562 169.6875 320.925781 169.011719 C 320.699219 168.261719 320.699219 167.289062 320.925781 166.613281 C 321.148438 165.863281 321.675781 165.113281 322.273438 164.664062 C 322.949219 164.210938 323.773438 163.914062 324.601562 163.988281 C 325.574219 164.0625 327.074219 164.960938 327.675781 165.710938 C 328.125 166.386719 328.273438 167.289062 328.199219 168.039062 C 328.125 168.789062 327.824219 169.386719 327.226562 170.210938 C 325.949219 172.011719 322.726562 174.710938 319.5 177.261719 C 314.851562 180.9375 304.875 188.363281 301.5 189.710938 C 300.300781 190.164062 299.699219 190.3125 298.875 190.164062 C 298.050781 190.011719 297.074219 189.488281 296.625 188.738281 C 296.023438 187.914062 295.800781 186.261719 296.023438 185.289062 C 296.25 184.460938 297.675781 183.261719 297.675781 183.261719 "/></clipPath><clipPath id="550aa853f7"><path d="M 251.707031 131.574219 L 290 131.574219 L 290 182.652344 L 251.707031 182.652344 Z M 251.707031 131.574219 "/></clipPath><clipPath id="071462a2e9"><path d="M 258.75 133.460938 C 271.726562 154.914062 281.476562 168.113281 285.523438 172.835938 C 287.175781 174.863281 288.75 175.460938 289.351562 176.886719 C 289.875 177.9375 290.023438 179.363281 289.648438 180.335938 C 289.199219 181.238281 287.925781 182.289062 286.875 182.511719 C 285.898438 182.738281 284.25 182.289062 283.574219 181.539062 C 282.824219 180.710938 282.300781 178.914062 282.523438 177.863281 C 282.824219 176.886719 283.949219 175.613281 284.925781 175.3125 C 285.898438 174.9375 287.550781 175.238281 288.375 175.835938 C 289.273438 176.4375 289.949219 177.9375 289.949219 178.988281 C 289.875 180.039062 289.050781 181.460938 288.148438 181.988281 C 287.25 182.585938 285.601562 182.585938 284.625 182.289062 C 283.875 181.988281 283.199219 181.386719 282.898438 180.636719 C 282.523438 179.738281 282.449219 178.011719 282.824219 177.113281 C 283.125 176.363281 283.800781 175.761719 284.550781 175.460938 C 285.449219 175.085938 287.175781 175.085938 288.074219 175.613281 C 288.976562 176.136719 289.726562 177.636719 289.949219 178.539062 C 290.023438 179.210938 289.875 179.738281 289.648438 180.335938 C 289.273438 181.011719 288.449219 181.835938 287.773438 182.210938 C 287.175781 182.511719 286.648438 182.664062 285.976562 182.585938 C 285.226562 182.511719 284.476562 182.136719 283.574219 181.539062 C 282.148438 180.5625 280.199219 178.460938 278.851562 176.585938 C 277.273438 174.636719 276.675781 172.6875 274.875 170.0625 C 271.648438 165.414062 264.601562 157.613281 260.625 151.539062 C 257.101562 146.210938 252.226562 138.335938 251.773438 135.636719 C 251.625 134.8125 251.851562 134.4375 252.074219 133.835938 C 252.449219 133.164062 253.273438 132.335938 254.023438 131.960938 C 254.773438 131.664062 255.824219 131.585938 256.648438 131.8125 C 257.476562 132.113281 258.75 133.460938 258.75 133.460938 "/></clipPath><clipPath id="c1bf19117d"><path d="M 280.113281 172.875 L 306.3125 172.875 L 306.3125 192.5 L 280.113281 192.5 Z M 280.113281 172.875 "/></clipPath><clipPath id="503b198e07"><path d="M 287.023438 174.488281 C 296.851562 185.0625 298.050781 184.085938 299.101562 183.488281 C 300.148438 182.960938 300.898438 181.539062 301.949219 181.386719 C 302.925781 181.238281 304.5 181.761719 305.25 182.511719 C 305.925781 183.261719 306.375 184.914062 306.148438 185.886719 C 305.925781 186.863281 304.949219 188.289062 303.898438 188.585938 C 302.773438 188.886719 300.226562 188.0625 299.398438 187.238281 C 298.875 186.710938 298.726562 185.738281 298.726562 184.988281 C 298.800781 184.238281 299.101562 183.335938 299.550781 182.738281 C 300.074219 182.136719 300.898438 181.613281 301.574219 181.460938 C 302.324219 181.238281 303.300781 181.238281 303.976562 181.6875 C 304.875 182.136719 305.925781 183.488281 306.148438 184.386719 C 306.375 185.210938 306.148438 186.113281 305.851562 186.789062 C 305.476562 187.460938 304.875 188.136719 304.125 188.4375 C 303.226562 188.8125 301.5 188.886719 300.601562 188.363281 C 299.699219 187.835938 298.800781 186.414062 298.726562 185.363281 C 298.648438 184.3125 299.476562 182.8125 300.148438 182.136719 C 300.75 181.613281 301.648438 181.386719 302.398438 181.3125 C 303.148438 181.3125 304.726562 181.988281 304.726562 182.0625 C 304.648438 182.136719 301.050781 181.761719 301.050781 181.613281 C 301.050781 181.539062 302.175781 181.238281 302.851562 181.386719 C 303.75 181.539062 305.25 182.363281 305.773438 183.261719 C 306.300781 184.164062 306.375 185.585938 305.851562 186.710938 C 305.175781 188.4375 302.175781 190.914062 300.375 191.8125 C 299.101562 192.414062 297.898438 192.414062 296.699219 192.414062 C 295.425781 192.414062 294.148438 192.414062 292.800781 191.738281 C 290.851562 190.835938 288.523438 188.511719 286.574219 186.335938 C 284.324219 183.9375 281.101562 180.039062 280.425781 177.9375 C 280.050781 176.8125 280.125 175.988281 280.425781 175.238281 C 280.726562 174.488281 281.476562 173.664062 282.148438 173.289062 C 282.898438 172.914062 284.023438 172.761719 284.851562 172.988281 C 285.601562 173.136719 287.023438 174.488281 287.023438 174.488281 "/></clipPath><clipPath id="d6e352ce84"><path d="M 144.386719 130.851562 L 236.898438 130.851562 L 236.898438 150.398438 L 144.386719 150.398438 Z M 144.386719 130.851562 "/></clipPath><clipPath id="1d054c81c5"><path d="M 146.023438 143.4375 C 157.5 136.835938 160.574219 135.636719 165.148438 134.585938 C 172.050781 132.9375 183.976562 131.886719 192.300781 131.289062 C 199.273438 130.835938 205.050781 130.914062 211.574219 130.988281 C 218.25 131.0625 227.625 130.761719 231.898438 131.886719 C 234.074219 132.488281 235.800781 133.164062 236.398438 134.289062 C 237 135.261719 236.699219 136.988281 236.25 137.8125 C 235.949219 138.5625 235.199219 139.085938 234.449219 139.386719 C 233.773438 139.6875 232.800781 139.835938 232.050781 139.539062 C 231.148438 139.238281 229.875 138.113281 229.5 137.136719 C 229.125 136.164062 229.5 134.511719 230.023438 133.6875 C 230.476562 133.011719 231.300781 132.5625 231.976562 132.335938 C 232.726562 132.113281 233.699219 132.1875 234.375 132.414062 C 235.125 132.710938 235.875 133.3125 236.25 133.988281 C 236.625 134.585938 236.925781 135.488281 236.773438 136.3125 C 236.625 137.289062 235.726562 138.710938 234.824219 139.238281 C 233.925781 139.6875 232.199219 139.613281 231.300781 139.238281 C 230.550781 138.9375 230.25 137.585938 229.648438 137.511719 C 228.976562 137.4375 228.675781 138.5625 227.398438 138.9375 C 222.824219 140.210938 202.125 138.414062 192.148438 138.863281 C 184.875 139.164062 178.726562 139.613281 173.25 140.585938 C 168.976562 141.261719 165.375 142.238281 162.074219 143.363281 C 159.300781 144.261719 156.976562 145.3125 154.648438 146.511719 C 152.476562 147.636719 150.074219 149.886719 148.574219 150.261719 C 147.898438 150.414062 147.375 150.261719 146.851562 150.039062 C 146.101562 149.738281 145.199219 148.988281 144.824219 148.238281 C 144.449219 147.5625 144.300781 146.4375 144.523438 145.613281 C 144.675781 144.789062 146.023438 143.4375 146.023438 143.4375 "/></clipPath><clipPath id="f88a024780"><path d="M 223.578125 131.664062 L 258.289062 131.664062 L 258.289062 167.644531 L 223.578125 167.644531 Z M 223.578125 131.664062 "/></clipPath><clipPath id="af088a0d1b"><path d="M 227.398438 131.8125 C 234.523438 132.789062 237.300781 134.960938 238.875 136.386719 C 240.074219 137.363281 240.375 137.960938 241.5 139.386719 C 244.125 142.613281 250.425781 150.9375 253.425781 155.585938 C 255.449219 158.886719 258.375 162.1875 258.226562 164.289062 C 258.148438 165.488281 257.023438 166.613281 256.199219 167.136719 C 255.523438 167.585938 254.625 167.664062 253.875 167.511719 C 253.125 167.363281 252.300781 166.914062 251.773438 166.386719 C 251.25 165.789062 250.800781 164.960938 250.800781 164.136719 C 250.800781 163.238281 251.324219 161.585938 252.148438 160.914062 C 252.898438 160.238281 254.550781 159.9375 255.523438 160.238281 C 256.574219 160.460938 257.773438 161.664062 258.074219 162.636719 C 258.375 163.613281 258.074219 165.261719 257.476562 166.085938 C 256.800781 166.914062 255.300781 167.585938 254.25 167.585938 C 253.199219 167.511719 251.851562 166.539062 251.25 165.710938 C 250.800781 165.039062 251.25 163.914062 250.800781 163.386719 C 250.351562 162.789062 249.523438 163.085938 248.625 162.335938 C 245.550781 159.789062 236.773438 143.4375 232.273438 140.511719 C 230.101562 139.085938 227.925781 139.835938 226.5 139.238281 C 225.601562 138.789062 224.773438 138.335938 224.324219 137.664062 C 223.875 136.988281 223.648438 135.863281 223.726562 135.113281 C 223.726562 134.511719 223.875 133.914062 224.324219 133.460938 C 224.925781 132.710938 227.398438 131.8125 227.398438 131.8125 "/></clipPath><clipPath id="badd7ab0c9"><path d="M 246.769531 155.007812 L 281.832031 155.007812 L 281.832031 196.445312 L 246.769531 196.445312 Z M 246.769531 155.007812 "/></clipPath><clipPath id="7d53495bac"><path d="M 253.800781 157.011719 C 281.773438 192.039062 281.851562 192.5625 281.699219 193.386719 C 281.476562 194.210938 280.949219 195.113281 280.273438 195.636719 C 279.601562 196.164062 278.550781 196.460938 277.726562 196.386719 C 276.824219 196.3125 275.625 195.789062 275.023438 195.039062 C 274.425781 194.210938 274.199219 192.488281 274.425781 191.585938 C 274.574219 190.761719 275.175781 190.085938 275.773438 189.636719 C 276.449219 189.1875 277.273438 188.8125 278.101562 188.886719 C 279.074219 189.039062 280.574219 189.789062 281.175781 190.6875 C 281.699219 191.511719 281.773438 193.238281 281.398438 194.136719 C 281.175781 194.960938 280.5 195.5625 279.824219 195.9375 C 279.148438 196.3125 278.25 196.460938 277.5 196.386719 C 276.75 196.3125 275.851562 195.9375 275.324219 195.335938 C 274.726562 194.585938 274.125 192.9375 274.273438 191.960938 C 274.5 190.914062 275.625 189.636719 276.523438 189.1875 C 277.199219 188.8125 278.175781 188.886719 278.925781 189.039062 C 279.601562 189.1875 280.199219 189.5625 280.648438 190.011719 C 281.175781 190.613281 281.699219 191.664062 281.699219 192.488281 C 281.773438 193.3125 281.398438 194.363281 280.875 195.039062 C 280.425781 195.636719 279.449219 196.238281 278.625 196.386719 C 277.648438 196.460938 276.75 196.3125 275.324219 195.261719 C 270.226562 191.8125 249.75 165.9375 247.425781 160.835938 C 246.824219 159.5625 246.75 159.039062 246.898438 158.210938 C 247.050781 157.386719 247.648438 156.488281 248.324219 155.960938 C 249 155.4375 249.976562 155.0625 250.875 155.136719 C 251.851562 155.289062 253.800781 157.011719 253.800781 157.011719 "/></clipPath><clipPath id="1bf43d9100"><path d="M 258.347656 183.386719 L 284.597656 183.386719 L 284.597656 203.996094 L 258.347656 203.996094 Z M 258.347656 183.386719 "/></clipPath><clipPath id="3d201da1eb"><path d="M 275.773438 184.164062 C 282.898438 191.8125 283.648438 193.085938 284.023438 194.4375 C 284.398438 195.636719 284.625 196.988281 284.476562 198.1875 C 284.324219 199.386719 283.800781 200.738281 282.976562 201.636719 C 282.148438 202.539062 280.726562 203.363281 279.449219 203.664062 C 278.175781 204.039062 276.976562 204.113281 275.324219 203.664062 C 271.949219 202.613281 264.675781 197.210938 261.824219 195.039062 C 260.398438 193.914062 259.351562 193.3125 258.824219 192.1875 C 258.375 191.136719 258.300781 189.5625 258.75 188.664062 C 259.199219 187.761719 260.625 186.789062 261.675781 186.636719 C 262.648438 186.488281 264.226562 187.085938 264.898438 187.914062 C 265.574219 188.664062 266.023438 190.3125 265.726562 191.289062 C 265.5 192.335938 264.300781 193.539062 263.324219 193.914062 C 262.351562 194.210938 260.699219 193.988281 259.875 193.386719 C 259.050781 192.789062 258.300781 191.289062 258.375 190.238281 C 258.375 189.1875 259.351562 187.761719 260.101562 187.164062 C 260.773438 186.710938 261.449219 186.488281 262.425781 186.636719 C 264.375 186.9375 268.199219 189.863281 270.675781 191.664062 C 273 193.3125 276.75 197.210938 276.976562 196.988281 C 277.199219 196.761719 270.523438 189.863281 269.851562 187.914062 C 269.625 187.164062 269.699219 186.710938 269.925781 186.113281 C 270.148438 185.4375 270.824219 184.460938 271.5 184.011719 C 272.175781 183.5625 273.300781 183.335938 274.125 183.414062 C 274.726562 183.488281 275.773438 184.164062 275.773438 184.164062 "/></clipPath><clipPath id="2175738176"><path d="M 223.015625 163.128906 L 267.339844 163.128906 L 267.339844 195.148438 L 223.015625 195.148438 Z M 223.015625 163.128906 "/></clipPath><clipPath id="1caa2e73fd"><path d="M 261.675781 194.738281 C 251.175781 187.6875 248.925781 185.136719 245.25 182.4375 C 239.773438 178.613281 226.574219 172.3125 224.101562 169.539062 C 223.273438 168.636719 223.125 168.113281 223.050781 167.363281 C 222.976562 166.613281 223.050781 165.636719 223.5 165.039062 C 224.101562 164.210938 225.449219 163.238281 226.5 163.164062 C 227.550781 163.085938 229.050781 163.835938 229.726562 164.585938 C 230.25 165.1875 230.476562 166.085938 230.476562 166.835938 C 230.550781 167.585938 230.25 168.488281 229.800781 169.085938 C 229.351562 169.6875 228.523438 170.289062 227.851562 170.511719 C 227.101562 170.664062 226.125 170.738281 225.449219 170.363281 C 224.550781 169.988281 223.425781 168.636719 223.125 167.738281 C 222.898438 166.988281 223.050781 166.085938 223.351562 165.335938 C 223.648438 164.664062 224.25 163.914062 224.925781 163.613281 C 225.824219 163.238281 226.875 163.085938 228.449219 163.539062 C 232.5 164.664062 242.101562 171.335938 248.398438 175.613281 C 254.550781 179.738281 263.625 185.8125 265.949219 188.585938 C 266.773438 189.5625 267.074219 190.164062 267.226562 190.988281 C 267.300781 191.8125 267 192.863281 266.550781 193.539062 C 266.101562 194.210938 265.125 194.886719 264.375 195.039062 C 263.550781 195.261719 261.675781 194.738281 261.675781 194.738281 "/></clipPath><clipPath id="0205518f8b"><path d="M 181.0625 151.773438 L 233.816406 151.773438 L 233.816406 172.644531 L 181.0625 172.644531 Z M 181.0625 151.773438 "/></clipPath><clipPath id="957ec720c4"><path d="M 227.398438 171.488281 C 215.625 163.835938 207.226562 160.835938 201.449219 159.863281 C 196.800781 159.039062 190.949219 158.664062 188.398438 159.636719 C 187.050781 160.164062 186.824219 161.738281 185.773438 162.039062 C 184.800781 162.261719 183.148438 161.886719 182.398438 161.210938 C 181.574219 160.539062 181.125 158.886719 181.125 157.914062 C 181.199219 157.085938 181.648438 156.335938 182.175781 155.738281 C 182.699219 155.210938 183.523438 154.6875 184.273438 154.6875 C 185.25 154.613281 186.898438 155.210938 187.648438 155.8125 C 188.175781 156.414062 188.550781 157.3125 188.625 158.0625 C 188.625 158.8125 188.476562 159.710938 188.023438 160.386719 C 187.648438 160.988281 186.898438 161.585938 186.226562 161.886719 C 185.476562 162.1875 184.5 162.1875 183.824219 161.960938 C 183.074219 161.738281 182.25 161.210938 181.800781 160.613281 C 181.425781 160.011719 181.125 158.960938 181.125 158.289062 C 181.050781 157.835938 181.050781 157.613281 181.351562 157.164062 C 182.101562 155.960938 185.476562 153.636719 187.800781 152.8125 C 190.199219 151.914062 192.976562 151.835938 195.523438 151.835938 C 198.074219 151.761719 200.101562 151.835938 203.101562 152.511719 C 208.050781 153.636719 216.601562 156.488281 221.773438 159.039062 C 225.824219 160.988281 230.101562 163.6875 231.976562 165.488281 C 232.875 166.3125 233.476562 166.914062 233.699219 167.8125 C 233.925781 168.789062 233.699219 170.4375 233.023438 171.1875 C 232.425781 172.011719 230.851562 172.613281 229.875 172.613281 C 228.976562 172.613281 227.398438 171.488281 227.398438 171.488281 "/></clipPath><clipPath id="fcca41333c"><path d="M 153.792969 152.105469 L 196.144531 152.105469 L 196.144531 185.164062 L 153.792969 185.164062 Z M 153.792969 152.105469 "/></clipPath><clipPath id="c344b50c60"><path d="M 192.601562 159.710938 C 180.523438 163.988281 176.699219 166.164062 173.851562 168.335938 C 171.300781 170.210938 169.5 172.164062 167.398438 174.5625 C 164.851562 177.414062 161.925781 182.886719 159.976562 184.3125 C 159.148438 184.988281 158.550781 185.210938 157.726562 185.136719 C 156.75 185.136719 155.175781 184.460938 154.574219 183.5625 C 153.976562 182.738281 153.75 181.085938 154.125 180.113281 C 154.5 179.136719 155.851562 178.085938 156.75 177.789062 C 157.5 177.488281 158.476562 177.636719 159.148438 177.9375 C 159.824219 178.238281 160.574219 178.835938 160.949219 179.585938 C 161.324219 180.488281 161.476562 182.136719 161.023438 183.113281 C 160.574219 184.011719 159.148438 184.988281 158.175781 185.136719 C 157.125 185.289062 155.550781 184.613281 154.875 183.9375 C 154.273438 183.335938 153.976562 182.4375 153.898438 181.6875 C 153.824219 180.9375 154.050781 180.335938 154.5 179.363281 C 155.625 177.039062 159.601562 171.9375 162.601562 168.789062 C 165.449219 165.710938 168.226562 163.085938 171.824219 160.613281 C 176.023438 157.761719 182.625 154.539062 186.449219 153.261719 C 188.699219 152.511719 190.425781 151.988281 192 152.210938 C 193.273438 152.363281 194.550781 152.886719 195.226562 153.5625 C 195.824219 154.238281 196.050781 155.289062 196.050781 156.113281 C 195.976562 156.9375 195.523438 157.988281 195 158.585938 C 194.398438 159.1875 192.601562 159.710938 192.601562 159.710938 "/></clipPath><clipPath id="493b5a6563"><path d="M 136.289062 167.9375 L 163.496094 167.9375 L 163.496094 190.296875 L 136.289062 190.296875 Z M 136.289062 167.9375 "/></clipPath><clipPath id="9d47aa832e"><path d="M 162.300781 181.914062 C 155.023438 188.738281 153.976562 189.113281 152.773438 189.488281 C 151.574219 189.863281 150.449219 190.3125 148.949219 190.164062 C 146.773438 190.011719 142.949219 188.4375 141.226562 187.164062 C 140.023438 186.335938 139.351562 185.4375 138.675781 184.3125 C 138.074219 183.261719 137.699219 181.988281 137.25 180.710938 C 136.875 179.4375 136.5 178.238281 136.425781 176.886719 C 136.273438 175.238281 136.199219 173.0625 136.648438 171.5625 C 137.023438 170.363281 137.625 169.164062 138.449219 168.5625 C 139.050781 168.113281 140.023438 167.960938 140.773438 168.039062 C 141.523438 168.039062 142.425781 168.488281 142.949219 168.9375 C 143.476562 169.460938 144 170.289062 144.074219 171.039062 C 144.226562 172.011719 143.773438 173.664062 143.023438 174.414062 C 142.273438 175.164062 140.699219 175.613281 139.648438 175.386719 C 138.675781 175.238281 137.398438 174.039062 136.949219 173.210938 C 136.574219 172.460938 136.574219 171.5625 136.800781 170.8125 C 136.949219 170.0625 137.476562 169.238281 138.074219 168.789062 C 138.675781 168.335938 139.574219 167.960938 140.324219 167.960938 C 141.300781 168.039062 142.726562 168.5625 143.476562 169.613281 C 144.675781 171.261719 143.625 176.4375 144.523438 178.613281 C 145.050781 179.960938 145.875 181.085938 146.925781 181.6875 C 147.898438 182.289062 149.324219 182.664062 150.675781 182.210938 C 152.851562 181.613281 156.148438 176.886719 157.800781 175.988281 C 158.550781 175.613281 158.925781 175.539062 159.523438 175.460938 C 160.125 175.460938 160.726562 175.539062 161.25 175.835938 C 161.925781 176.210938 162.824219 176.960938 163.125 177.789062 C 163.5 178.539062 163.425781 179.664062 163.273438 180.414062 C 163.125 181.011719 162.300781 181.914062 162.300781 181.914062 "/></clipPath><clipPath id="defb973442"><path d="M 136.199219 139.085938 L 156 139.085938 L 156 179.800781 L 136.199219 179.800781 Z M 136.199219 139.085938 "/></clipPath><clipPath id="0eee2be64c"><path d="M 136.273438 175.914062 C 138.375 154.539062 139.351562 150.710938 141 147.789062 C 142.273438 145.3125 144 143.289062 145.949219 141.789062 C 147.675781 140.511719 150.226562 139.386719 151.726562 139.164062 C 152.699219 139.085938 153.449219 139.238281 154.125 139.613281 C 154.800781 139.988281 155.398438 140.738281 155.699219 141.414062 C 156 142.085938 156.074219 143.0625 155.925781 143.8125 C 155.699219 144.5625 155.25 145.386719 154.574219 145.835938 C 153.824219 146.363281 152.101562 146.664062 151.125 146.511719 C 150.375 146.289062 149.625 145.761719 149.25 145.085938 C 148.726562 144.261719 148.351562 142.613281 148.726562 141.636719 C 149.101562 140.664062 150.375 139.539062 151.351562 139.238281 C 152.398438 139.011719 153.976562 139.386719 154.800781 140.136719 C 155.550781 140.8125 156 142.460938 156 143.4375 C 155.925781 144.1875 155.550781 144.9375 154.875 145.539062 C 153.976562 146.511719 151.574219 146.960938 150.300781 148.085938 C 149.101562 149.0625 148.273438 150.113281 147.449219 151.613281 C 146.398438 153.636719 145.726562 156.1875 145.050781 159.335938 C 144.074219 164.136719 144.75 175.085938 143.25 177.863281 C 142.726562 178.914062 141.976562 179.289062 141.226562 179.511719 C 140.398438 179.8125 139.273438 179.738281 138.523438 179.4375 C 137.925781 179.289062 137.476562 178.914062 137.101562 178.386719 C 136.648438 177.789062 136.273438 175.914062 136.273438 175.914062 "/></clipPath><clipPath id="136801eafe"><path d="M 146.089844 134.128906 L 173.109375 134.128906 L 173.109375 147.867188 L 146.089844 147.867188 Z M 146.089844 134.128906 "/></clipPath><clipPath id="d375295ad2"><path d="M 147.523438 141.113281 C 159.523438 135.1875 166.425781 133.761719 169.351562 134.210938 C 170.773438 134.4375 171.824219 135.039062 172.425781 135.863281 C 173.023438 136.6875 173.175781 138.414062 172.800781 139.3125 C 172.425781 140.289062 171.074219 141.335938 170.175781 141.636719 C 169.351562 141.863281 168.449219 141.710938 167.773438 141.335938 C 167.101562 141.039062 166.351562 140.363281 166.050781 139.6875 C 165.675781 139.011719 165.523438 138.113281 165.601562 137.363281 C 165.75 136.613281 166.125 135.710938 166.726562 135.261719 C 167.550781 134.664062 169.125 134.0625 170.175781 134.289062 C 171.148438 134.511719 172.351562 135.710938 172.800781 136.539062 C 173.175781 137.289062 173.175781 138.261719 172.949219 138.9375 C 172.726562 139.6875 172.425781 140.363281 171.601562 140.960938 C 169.726562 142.164062 163.648438 141.863281 159.898438 143.0625 C 156.226562 144.1875 151.726562 147.863281 149.476562 147.863281 C 148.351562 147.863281 147.601562 147.1875 147.074219 146.664062 C 146.625 146.289062 146.324219 145.761719 146.175781 145.164062 C 146.023438 144.414062 146.101562 143.210938 146.398438 142.460938 C 146.625 141.9375 147.523438 141.113281 147.523438 141.113281 "/></clipPath><clipPath id="799a7b10e9"><path d="M 104.371094 144.472656 L 135.238281 144.472656 L 135.238281 186.117188 L 104.371094 186.117188 Z M 104.371094 144.472656 "/></clipPath><clipPath id="5eb11877e2"><path d="M 104.398438 170.886719 C 104.550781 155.585938 105.976562 153.488281 108 151.6875 C 110.476562 149.511719 114.675781 147.9375 118.199219 146.738281 C 121.800781 145.539062 126.675781 144.488281 129.523438 144.5625 C 131.324219 144.636719 132.976562 144.789062 133.875 145.613281 C 134.699219 146.4375 134.925781 147.5625 135.074219 149.210938 C 135.375 153.1875 132.148438 163.011719 131.925781 168.9375 C 131.699219 173.8125 133.5 179.511719 132.898438 182.363281 C 132.601562 183.789062 132 184.835938 131.25 185.4375 C 130.648438 185.960938 129.675781 186.113281 128.925781 186.113281 C 128.175781 186.039062 127.273438 185.8125 126.675781 185.210938 C 126 184.539062 125.324219 182.960938 125.398438 181.988281 C 125.476562 180.9375 126.523438 179.585938 127.351562 179.0625 C 128.023438 178.613281 129 178.539062 129.75 178.613281 C 130.5 178.761719 131.324219 179.210938 131.851562 179.738281 C 132.375 180.335938 132.75 181.164062 132.824219 181.914062 C 132.976562 182.664062 132.75 183.636719 132.375 184.238281 C 131.925781 184.914062 131.324219 185.585938 130.5 185.8125 C 129.601562 186.113281 127.875 185.960938 127.050781 185.4375 C 126.300781 185.0625 126 184.460938 125.550781 183.5625 C 124.875 181.914062 124.425781 178.386719 124.273438 175.761719 C 124.050781 173.210938 124.199219 171.1875 124.5 168.039062 C 124.949219 163.085938 125.625 149.8125 127.574219 149.0625 C 128.550781 148.6875 131.25 151.238281 131.023438 151.914062 C 130.800781 152.738281 126 152.210938 123.300781 153.039062 C 119.851562 154.011719 113.925781 156.039062 112.199219 158.0625 C 111.226562 159.1875 111.300781 160.3125 111.226562 161.8125 C 111 164.210938 112.199219 168.789062 111.898438 170.886719 C 111.75 171.9375 111.375 172.761719 110.925781 173.363281 C 110.550781 173.8125 110.023438 174.1875 109.425781 174.335938 C 108.75 174.5625 107.550781 174.5625 106.800781 174.335938 C 106.199219 174.1875 105.675781 173.8125 105.300781 173.363281 C 104.851562 172.761719 104.398438 170.886719 104.398438 170.886719 "/></clipPath><clipPath id="e2fe5cd294"><path d="M 125.289062 174.675781 L 183.777344 174.675781 L 183.777344 203.246094 L 125.289062 203.246094 Z M 125.289062 174.675781 "/></clipPath><clipPath id="db579b4df5"><path d="M 132.824219 178.238281 C 136.875 189.414062 138.449219 191.886719 140.550781 193.3125 C 142.648438 194.738281 146.023438 195.1875 148.125 195.488281 C 149.625 195.710938 150.449219 195.863281 151.875 195.636719 C 154.050781 195.261719 157.574219 193.6875 159.449219 192.636719 C 160.875 191.886719 161.25 191.511719 162.675781 190.238281 C 166.050781 187.460938 174.824219 176.4375 178.425781 175.085938 C 179.851562 174.5625 181.050781 174.789062 181.949219 175.386719 C 182.773438 175.914062 183.601562 177.414062 183.675781 178.386719 C 183.75 179.210938 183.449219 180.113281 183 180.710938 C 182.550781 181.3125 181.875 181.914062 181.050781 182.136719 C 180.148438 182.363281 178.425781 182.136719 177.601562 181.460938 C 176.773438 180.863281 176.101562 179.289062 176.175781 178.3125 C 176.25 177.261719 177.300781 175.835938 178.050781 175.3125 C 178.726562 174.863281 179.625 174.710938 180.375 174.863281 C 181.199219 174.9375 182.023438 175.3125 182.550781 175.835938 C 183.074219 176.4375 183.601562 177.1875 183.675781 178.011719 C 183.675781 178.988281 183.300781 179.960938 182.476562 181.3125 C 180.601562 184.3125 173.476562 190.914062 169.949219 194.0625 C 167.550781 196.085938 166.273438 197.4375 163.726562 198.863281 C 160.5 200.585938 155.925781 202.761719 151.949219 203.136719 C 148.125 203.511719 143.550781 202.460938 140.324219 201.335938 C 137.699219 200.4375 135.675781 199.386719 133.726562 197.511719 C 131.25 195.113281 128.773438 190.835938 127.425781 187.460938 C 126.148438 184.539062 125.25 180.636719 125.324219 178.613281 C 125.398438 177.488281 125.550781 176.738281 126.148438 176.0625 C 126.824219 175.386719 128.324219 174.636719 129.300781 174.710938 C 130.199219 174.710938 131.175781 175.164062 131.773438 175.761719 C 132.300781 176.363281 132.824219 178.238281 132.824219 178.238281 "/></clipPath><clipPath id="7d07214f09"><path d="M 172.617188 168.871094 L 233.539062 168.871094 L 233.539062 190.984375 L 172.617188 190.984375 Z M 172.617188 168.871094 "/></clipPath><clipPath id="3f73b79f0c"><path d="M 174.449219 177.9375 C 184.5 171.636719 186.449219 170.511719 189.074219 169.914062 C 192.449219 169.085938 196.949219 168.5625 200.773438 169.164062 C 204.675781 169.835938 208.050781 171.789062 212.324219 173.738281 C 218.101562 176.4375 229.125 181.6875 231.824219 184.085938 C 232.800781 184.988281 233.175781 185.511719 233.324219 186.335938 C 233.550781 187.085938 233.398438 188.210938 233.023438 188.960938 C 232.648438 189.636719 231.824219 190.386719 231 190.6875 C 230.25 190.988281 228.375 190.6875 228.375 190.6875 C 228.375 190.6875 231.375 190.539062 231.375 190.539062 C 231.375 190.460938 228.75 190.988281 227.851562 190.460938 C 226.949219 189.9375 226.125 188.4375 225.976562 187.460938 C 225.824219 186.710938 226.125 185.8125 226.574219 185.136719 C 226.949219 184.539062 227.625 183.863281 228.375 183.636719 C 229.351562 183.414062 231.074219 183.5625 231.898438 184.164062 C 232.726562 184.761719 233.476562 186.261719 233.476562 187.238281 C 233.398438 188.289062 232.574219 189.789062 231.75 190.3125 C 230.851562 190.914062 229.199219 191.0625 228.226562 190.613281 C 227.25 190.238281 226.199219 188.886719 226.050781 187.914062 C 225.824219 186.863281 226.273438 185.210938 227.023438 184.539062 C 227.851562 183.789062 230.023438 183.414062 231.074219 183.710938 C 231.898438 183.9375 232.648438 184.6875 233.023438 185.4375 C 233.398438 186.1875 233.550781 187.3125 233.324219 188.0625 C 233.175781 188.886719 232.5 189.789062 231.824219 190.3125 C 231.148438 190.761719 230.476562 191.0625 229.199219 190.914062 C 224.925781 190.386719 206.925781 178.988281 201.976562 177.261719 C 200.25 176.664062 199.800781 176.585938 198.300781 176.511719 C 196.273438 176.363281 193.5 176.363281 190.648438 177.261719 C 186.601562 178.460938 179.625 184.460938 176.851562 184.761719 C 175.648438 184.914062 174.976562 184.539062 174.300781 184.085938 C 173.625 183.5625 173.023438 182.585938 172.800781 181.835938 C 172.648438 181.238281 172.648438 180.636719 172.875 180.039062 C 173.101562 179.363281 174.449219 177.9375 174.449219 177.9375 "/></clipPath><clipPath id="9e0054ee82"><path d="M 224.023438 182.136719 L 274.648438 182.136719 L 274.648438 216.78125 L 224.023438 216.78125 Z M 224.023438 182.136719 "/></clipPath><clipPath id="da2d54b757"><path d="M 229.125 182.289062 C 251.550781 194.960938 265.648438 204.1875 270.449219 208.011719 C 272.398438 209.585938 273.75 210.710938 274.273438 211.613281 C 274.5 212.0625 274.574219 212.363281 274.5 212.8125 C 274.425781 213.636719 273.824219 215.363281 273 216.039062 C 272.175781 216.636719 270.523438 216.789062 269.550781 216.5625 C 268.800781 216.335938 268.050781 215.8125 267.675781 215.0625 C 267.148438 214.238281 266.925781 212.585938 267.300781 211.613281 C 267.675781 210.636719 269.023438 209.664062 270 209.363281 C 270.75 209.136719 271.648438 209.210938 272.324219 209.585938 C 273.226562 210.113281 274.273438 211.460938 274.5 212.4375 C 274.648438 213.1875 274.5 214.085938 274.050781 214.761719 C 273.523438 215.585938 272.101562 216.5625 271.125 216.710938 C 270.375 216.863281 269.476562 216.636719 268.800781 216.1875 C 268.199219 215.8125 268.199219 215.210938 267.300781 214.386719 C 263.925781 211.460938 248.925781 202.085938 241.351562 197.511719 C 235.5 194.0625 228.074219 191.0625 225.675781 188.886719 C 224.773438 188.0625 224.398438 187.539062 224.175781 186.710938 C 223.949219 185.886719 224.101562 184.835938 224.476562 184.085938 C 224.925781 183.335938 225.75 182.585938 226.5 182.289062 C 227.25 181.988281 229.125 182.289062 229.125 182.289062 "/></clipPath><clipPath id="82358d9333"><path d="M 252.855469 207.785156 L 280.558594 207.785156 L 280.558594 231.863281 L 252.855469 231.863281 Z M 252.855469 207.785156 "/></clipPath><clipPath id="bc9479c84e"><path d="M 271.875 208.613281 C 279.75 216.414062 280.125 217.238281 280.425781 218.664062 C 280.726562 220.6875 280.425781 224.363281 279.75 226.3125 C 279.226562 227.585938 278.398438 228.488281 277.425781 229.238281 C 276.375 230.0625 275.175781 230.4375 273.675781 230.886719 C 271.574219 231.414062 268.5 231.9375 265.949219 231.710938 C 263.398438 231.5625 260.625 230.585938 258.523438 229.613281 C 256.800781 228.789062 255.074219 227.664062 254.175781 226.613281 C 253.574219 225.9375 253.125 225.335938 253.050781 224.511719 C 252.976562 223.539062 253.425781 221.886719 254.175781 221.210938 C 254.925781 220.460938 256.574219 220.011719 257.550781 220.238281 C 258.601562 220.460938 259.875 221.585938 260.25 222.5625 C 260.625 223.539062 260.398438 225.1875 259.875 226.011719 C 259.273438 226.914062 257.699219 227.585938 256.726562 227.664062 C 255.898438 227.738281 255.074219 227.363281 254.476562 226.914062 C 253.875 226.460938 253.351562 225.636719 253.125 224.886719 C 252.898438 224.136719 252.898438 223.238281 253.273438 222.488281 C 253.726562 221.664062 254.699219 220.460938 255.976562 220.238281 C 258.226562 219.863281 263.550781 223.835938 266.175781 224.210938 C 267.75 224.511719 269.023438 224.511719 270.148438 224.0625 C 271.273438 223.613281 272.851562 222.5625 273.074219 221.585938 C 273.300781 220.613281 272.324219 219.1875 271.5 218.0625 C 270.449219 216.636719 267.675781 215.136719 266.773438 214.011719 C 266.324219 213.414062 266.101562 213.039062 266.023438 212.363281 C 265.875 211.613281 266.023438 210.414062 266.398438 209.738281 C 266.699219 209.210938 267.148438 208.761719 267.601562 208.460938 C 268.125 208.164062 268.726562 207.863281 269.324219 207.863281 C 270.074219 207.863281 271.875 208.613281 271.875 208.613281 "/></clipPath><clipPath id="d777dcd947"><path d="M 217.703125 199.304688 L 261.816406 199.304688 L 261.816406 228.894531 L 217.703125 228.894531 Z M 217.703125 199.304688 "/></clipPath><clipPath id="5541f4d0dd"><path d="M 256.273438 228.488281 C 245.851562 221.0625 222.449219 209.289062 219 205.761719 C 218.175781 204.9375 217.949219 204.414062 217.800781 203.738281 C 217.648438 202.988281 217.800781 202.011719 218.175781 201.335938 C 218.476562 200.664062 219.074219 199.914062 219.824219 199.613281 C 220.726562 199.238281 222.449219 199.164062 223.351562 199.6875 C 224.25 200.210938 225.074219 201.710938 225.226562 202.613281 C 225.375 203.4375 225.074219 204.335938 224.699219 204.9375 C 224.25 205.613281 223.574219 206.289062 222.824219 206.511719 C 221.925781 206.738281 220.199219 206.511719 219.375 206.0625 C 218.625 205.613281 218.175781 204.789062 217.949219 204.113281 C 217.726562 203.363281 217.726562 202.386719 217.949219 201.710938 C 218.25 200.960938 218.773438 200.210938 219.449219 199.835938 C 220.351562 199.386719 221.324219 199.164062 222.976562 199.539062 C 228.375 200.738281 249.074219 214.164062 255.226562 218.289062 C 257.851562 220.011719 259.5 221.136719 260.550781 222.414062 C 261.226562 223.238281 261.675781 223.988281 261.75 224.8125 C 261.898438 225.636719 261.601562 226.6875 261.074219 227.363281 C 260.625 228.039062 259.726562 228.636719 258.898438 228.863281 C 258.074219 229.011719 256.273438 228.488281 256.273438 228.488281 "/></clipPath><clipPath id="2aac2fd79c"><path d="M 204.847656 198.394531 L 228.390625 198.394531 L 228.390625 222.96875 L 204.847656 222.96875 Z M 204.847656 198.394531 "/></clipPath><clipPath id="d7333b14d8"><path d="M 223.050781 208.386719 C 216.226562 205.835938 214.273438 205.386719 213.75 205.988281 C 213.226562 206.585938 213.75 208.539062 214.574219 209.886719 C 216.148438 212.289062 223.5 215.8125 224.625 217.3125 C 225 217.761719 225 217.988281 225 218.4375 C 225.074219 219.113281 225 220.164062 224.699219 220.835938 C 224.324219 221.511719 223.648438 222.1875 222.976562 222.488281 C 222.300781 222.863281 221.398438 222.9375 220.648438 222.789062 C 219.898438 222.710938 219 222.261719 218.550781 221.664062 C 217.949219 220.835938 217.425781 219.261719 217.726562 218.210938 C 217.949219 217.238281 219.148438 216.039062 220.050781 215.585938 C 220.800781 215.289062 221.699219 215.289062 222.449219 215.585938 C 223.351562 215.886719 224.550781 217.164062 224.925781 218.0625 C 225.226562 218.8125 225.148438 219.710938 224.851562 220.460938 C 224.625 221.136719 224.101562 221.960938 223.351562 222.335938 C 222.523438 222.789062 221.101562 222.863281 219.824219 222.5625 C 218.175781 222.1875 216.148438 220.6875 214.273438 219.414062 C 212.25 217.914062 209.773438 216.113281 208.273438 213.9375 C 206.699219 211.914062 205.273438 208.914062 204.976562 206.886719 C 204.824219 205.386719 205.125 204.039062 205.726562 202.988281 C 206.324219 201.863281 207.523438 201.113281 208.574219 200.363281 C 209.773438 199.6875 210.898438 198.9375 212.476562 198.636719 C 214.726562 198.261719 218.324219 198.5625 220.875 199.238281 C 223.125 199.835938 225.824219 200.960938 227.023438 202.085938 C 227.773438 202.761719 228.300781 203.511719 228.375 204.414062 C 228.449219 205.386719 227.851562 206.960938 227.25 207.710938 C 226.875 208.164062 226.351562 208.460938 225.75 208.613281 C 225 208.761719 223.050781 208.386719 223.050781 208.386719 "/></clipPath><clipPath id="9687193898"><path d="M 215.878906 214.191406 L 259.332031 214.191406 L 259.332031 244.285156 L 215.878906 244.285156 Z M 215.878906 214.191406 "/></clipPath><clipPath id="b30cb09a42"><path d="M 220.949219 214.460938 C 235.875 222.414062 250.800781 231.414062 255.449219 235.539062 C 257.476562 237.335938 258.824219 239.0625 259.199219 240.113281 C 259.351562 240.636719 259.273438 240.863281 259.125 241.3125 C 258.898438 241.914062 258.523438 242.886719 257.851562 243.335938 C 257.101562 243.9375 255.375 244.3125 254.398438 244.085938 C 253.648438 243.9375 252.898438 243.414062 252.449219 242.738281 C 251.925781 241.914062 251.625 240.261719 251.925781 239.289062 C 252.300781 238.3125 253.5 237.113281 254.476562 236.886719 C 255.523438 236.585938 257.175781 237.113281 257.925781 237.636719 C 258.601562 238.164062 259.050781 238.914062 259.125 239.738281 C 259.273438 240.710938 258.75 242.363281 258.148438 243.113281 C 257.625 243.710938 256.800781 244.085938 256.050781 244.164062 C 255.300781 244.3125 254.324219 244.238281 253.648438 243.789062 C 252.898438 243.261719 252.375 241.085938 251.773438 240.863281 C 251.324219 240.710938 251.175781 241.386719 250.574219 241.3125 C 246.976562 240.9375 220.273438 224.4375 216.976562 220.539062 C 216.074219 219.488281 216 218.886719 215.925781 218.0625 C 215.925781 217.238281 216.300781 216.1875 216.824219 215.585938 C 217.425781 214.914062 218.398438 214.386719 219.148438 214.238281 C 219.824219 214.164062 220.949219 214.460938 220.949219 214.460938 "/></clipPath><clipPath id="31b701ee9f"><path d="M 214.789062 229.109375 L 260.964844 229.109375 L 260.964844 253.363281 L 214.789062 253.363281 Z M 214.789062 229.109375 "/></clipPath><clipPath id="031eabf0eb"><path d="M 252.148438 233.511719 C 257.925781 238.085938 259.875 240.9375 260.476562 242.8125 C 261 244.238281 260.925781 245.4375 260.773438 246.636719 C 260.625 247.914062 260.398438 249.414062 259.648438 250.460938 C 258.824219 251.585938 257.625 252.789062 255.898438 253.164062 C 253.199219 253.761719 248.023438 252.1875 244.199219 251.0625 C 240.375 249.9375 237 248.4375 232.949219 246.335938 C 227.851562 243.710938 218.851562 238.6875 216.375 235.914062 C 215.324219 234.710938 214.800781 233.738281 214.875 232.761719 C 214.875 231.710938 215.773438 230.210938 216.675781 229.6875 C 217.5 229.164062 219.226562 229.011719 220.125 229.460938 C 221.101562 229.914062 222.148438 231.261719 222.300781 232.238281 C 222.449219 233.289062 221.851562 234.863281 221.25 235.613281 C 220.726562 236.210938 219.824219 236.511719 219.074219 236.585938 C 218.324219 236.738281 217.351562 236.511719 216.675781 236.136719 C 216.074219 235.761719 215.398438 235.011719 215.175781 234.335938 C 214.875 233.585938 214.800781 232.6875 214.949219 231.9375 C 215.175781 231.1875 215.625 230.363281 216.300781 229.914062 C 217.125 229.386719 218.324219 229.011719 219.75 229.3125 C 222.976562 229.988281 228.976562 235.914062 233.851562 238.460938 C 238.648438 240.9375 245.398438 244.386719 248.699219 244.539062 C 250.351562 244.613281 252.300781 244.164062 252.449219 243.488281 C 252.675781 242.585938 248.175781 240.5625 247.351562 238.988281 C 246.824219 237.863281 246.675781 236.511719 246.898438 235.539062 C 247.199219 234.710938 247.875 233.886719 248.699219 233.511719 C 249.601562 233.136719 252.148438 233.511719 252.148438 233.511719 "/></clipPath><clipPath id="95ea70da92"><path d="M 193.203125 222.117188 L 228 222.117188 L 228 255.710938 L 193.203125 255.710938 Z M 193.203125 222.117188 "/></clipPath><clipPath id="22b14851ac"><path d="M 219.75 238.3125 C 206.699219 230.664062 205.949219 230.210938 204.75 229.914062 C 203.550781 229.613281 201.601562 229.085938 200.925781 229.6875 C 200.25 230.289062 200.324219 232.460938 200.773438 233.511719 C 201.148438 234.5625 202.273438 235.011719 203.550781 235.988281 C 205.726562 237.710938 209.699219 240.636719 213 242.511719 C 216.375 244.386719 220.949219 245.8125 223.574219 247.386719 C 225.300781 248.363281 227.023438 249.113281 227.625 250.3125 C 228.074219 251.289062 227.925781 252.9375 227.398438 253.835938 C 226.875 254.738281 225.449219 255.5625 224.398438 255.636719 C 223.351562 255.710938 221.851562 254.960938 221.25 254.136719 C 220.574219 253.3125 220.351562 251.664062 220.648438 250.6875 C 220.949219 249.710938 222.300781 248.585938 223.199219 248.289062 C 223.949219 247.988281 224.851562 248.136719 225.601562 248.4375 C 226.273438 248.664062 227.023438 249.335938 227.398438 249.9375 C 227.773438 250.613281 228 251.511719 227.925781 252.261719 C 227.851562 253.011719 227.476562 253.914062 226.949219 254.4375 C 226.425781 255.039062 225.824219 255.5625 224.851562 255.5625 C 222.148438 255.710938 214.5 251.960938 210.226562 249.710938 C 206.550781 247.6875 203.25 245.210938 200.476562 243.039062 C 198.226562 241.3125 195.824219 239.585938 194.625 237.863281 C 193.800781 236.664062 193.425781 235.613281 193.273438 234.113281 C 193.050781 232.011719 193.574219 228.335938 194.476562 226.460938 C 195.148438 225.039062 196.125 224.0625 197.25 223.3125 C 198.300781 222.636719 199.5 222.335938 200.925781 222.1875 C 203.023438 222.039062 205.875 222.414062 208.5 223.238281 C 211.800781 224.363281 216.148438 227.136719 219.074219 228.9375 C 221.324219 230.363281 223.800781 231.636719 224.699219 232.988281 C 225.226562 233.886719 225.375 234.789062 225.300781 235.613281 C 225.148438 236.4375 224.625 237.414062 223.949219 237.9375 C 223.351562 238.460938 222.226562 238.761719 221.476562 238.835938 C 220.800781 238.835938 219.75 238.3125 219.75 238.3125 "/></clipPath><clipPath id="6e5eba5190"><path d="M 190.8125 244.21875 L 241.128906 244.21875 L 241.128906 268.902344 L 190.8125 268.902344 Z M 190.8125 244.21875 "/></clipPath><clipPath id="59eccacc0a"><path d="M 221.175781 246.5625 C 228.898438 249.710938 233.398438 252.039062 235.949219 254.363281 C 238.050781 256.238281 240 258.710938 240.675781 260.664062 C 241.199219 262.164062 241.125 263.738281 240.675781 264.9375 C 240.226562 266.0625 239.101562 267.039062 238.050781 267.710938 C 237 268.3125 235.875 268.613281 234.375 268.761719 C 232.273438 268.914062 229.5 268.761719 226.726562 268.085938 C 223.351562 267.335938 219.898438 265.835938 215.625 263.738281 C 209.175781 260.738281 194.925781 254.136719 192.074219 250.761719 C 191.101562 249.488281 190.875 248.363281 190.949219 247.386719 C 191.023438 246.636719 191.550781 245.8125 192.074219 245.289062 C 192.601562 244.761719 193.5 244.386719 194.25 244.238281 C 195 244.164062 195.898438 244.3125 196.574219 244.761719 C 197.398438 245.363281 198.375 246.710938 198.449219 247.761719 C 198.449219 248.8125 197.773438 250.3125 196.949219 250.988281 C 196.125 251.585938 194.476562 251.886719 193.5 251.585938 C 192.523438 251.210938 191.398438 249.9375 191.101562 249.039062 C 190.800781 248.289062 190.875 247.3125 191.175781 246.636719 C 191.476562 245.886719 192 245.136719 192.75 244.761719 C 193.574219 244.386719 194.625 244.238281 196.199219 244.613281 C 200.550781 245.585938 212.023438 253.835938 218.851562 257.0625 C 224.25 259.539062 233.175781 263.4375 233.625 262.761719 C 233.851562 262.460938 232.273438 260.960938 230.851562 259.914062 C 228.148438 257.8125 219.148438 254.738281 217.425781 252.5625 C 216.75 251.664062 216.675781 250.761719 216.675781 250.011719 C 216.675781 249.335938 216.898438 248.8125 217.199219 248.289062 C 217.648438 247.6875 218.625 246.9375 219.375 246.636719 C 219.976562 246.488281 221.175781 246.5625 221.175781 246.5625 "/></clipPath><clipPath id="32cc3aaeca"><path d="M 172.867188 244.832031 L 210.363281 244.832031 L 210.363281 276.34375 L 172.867188 276.34375 Z M 172.867188 244.832031 "/></clipPath><clipPath id="22b6cc1d7e"><path d="M 195.675781 252.414062 C 194.398438 252.710938 196.648438 253.761719 197.550781 254.664062 C 198.449219 255.5625 198.601562 256.6875 199.648438 257.8125 C 201.601562 259.761719 207.375 262.085938 209.023438 264.261719 C 210 265.613281 210.449219 267.039062 210.300781 268.3125 C 210.226562 269.585938 209.398438 270.789062 208.648438 271.835938 C 207.824219 272.8125 206.851562 273.789062 205.800781 274.539062 C 204.675781 275.210938 203.398438 275.738281 202.125 276.039062 C 200.851562 276.335938 199.5 276.261719 198.226562 276.1875 C 196.875 276.1875 195.675781 276.261719 194.101562 275.886719 C 191.925781 275.363281 189.300781 273.9375 186.601562 272.511719 C 183.074219 270.636719 177 267.414062 174.824219 265.386719 C 173.773438 264.335938 173.023438 263.4375 172.949219 262.460938 C 172.800781 261.414062 173.476562 259.835938 174.226562 259.164062 C 175.050781 258.488281 176.773438 258.261719 177.675781 258.488281 C 178.5 258.636719 179.25 259.238281 179.625 259.835938 C 180.074219 260.4375 180.449219 261.335938 180.375 262.085938 C 180.300781 263.0625 179.550781 264.636719 178.726562 265.238281 C 177.824219 265.761719 176.175781 265.914062 175.199219 265.539062 C 174.226562 265.164062 173.175781 263.8125 172.949219 262.835938 C 172.800781 261.789062 173.25 260.210938 173.925781 259.460938 C 174.675781 258.710938 175.800781 258.1875 177.300781 258.414062 C 180.824219 258.789062 190.199219 266.585938 193.949219 267.9375 C 195.675781 268.613281 196.648438 268.6875 198 268.6875 C 199.273438 268.761719 201.675781 268.761719 201.824219 268.238281 C 201.976562 267.488281 196.875 265.238281 195.226562 263.8125 C 194.023438 262.835938 193.273438 262.164062 192.449219 260.886719 C 191.25 259.164062 189.675781 256.011719 189.148438 253.988281 C 188.773438 252.5625 188.699219 251.363281 188.925781 250.085938 C 189.074219 248.886719 189.375 247.3125 190.273438 246.488281 C 191.175781 245.585938 193.199219 245.0625 194.476562 244.914062 C 195.523438 244.761719 196.574219 244.835938 197.398438 245.363281 C 198.300781 245.886719 199.199219 247.238281 199.425781 248.210938 C 199.574219 249.039062 199.273438 250.085938 198.75 250.761719 C 198.148438 251.585938 195.675781 252.414062 195.675781 252.414062 "/></clipPath><clipPath id="fce6190b90"><path d="M 104.390625 228.351562 L 181.65625 228.351562 L 181.65625 266.722656 L 104.390625 266.722656 Z M 104.390625 228.351562 "/></clipPath><clipPath id="252886f700"><path d="M 177.226562 266.585938 C 163.5 262.3125 135 247.011719 123 241.835938 C 116.175781 238.914062 109.273438 237.1875 106.726562 235.539062 C 105.75 234.863281 105.300781 234.488281 105 233.8125 C 104.625 233.136719 104.398438 232.238281 104.625 231.488281 C 104.851562 230.511719 105.824219 229.164062 106.800781 228.710938 C 107.699219 228.261719 109.425781 228.488281 110.25 228.9375 C 111 229.3125 111.523438 230.0625 111.824219 230.738281 C 112.125 231.488281 112.199219 232.386719 111.898438 233.136719 C 111.601562 234.039062 110.398438 235.3125 109.5 235.6875 C 108.75 235.988281 107.773438 235.914062 107.101562 235.6875 C 106.351562 235.386719 105.601562 234.863281 105.226562 234.1875 C 104.699219 233.363281 104.550781 231.636719 104.851562 230.664062 C 105.074219 229.914062 105.75 229.238281 106.425781 228.863281 C 107.101562 228.488281 107.625 228.335938 108.75 228.414062 C 111.75 228.636719 118.351562 231.710938 125.175781 234.636719 C 137.023438 239.664062 164.101562 254.0625 172.949219 257.585938 C 176.25 258.9375 178.5 258.789062 179.925781 259.835938 C 180.75 260.4375 181.199219 261.261719 181.351562 262.011719 C 181.574219 262.613281 181.574219 263.210938 181.351562 263.8125 C 181.125 264.5625 180.523438 265.539062 179.851562 265.988281 C 179.175781 266.4375 177.226562 266.585938 177.226562 266.585938 "/></clipPath><clipPath id="224c37eec6"><path d="M 104.015625 166.410156 L 112.089844 166.410156 L 112.089844 205.433594 L 104.015625 205.433594 Z M 104.015625 166.410156 "/></clipPath><clipPath id="f9267b6f72"><path d="M 112.050781 170.289062 C 110.925781 204.335938 109.875 204.9375 108.976562 205.238281 C 108.226562 205.539062 107.324219 205.386719 106.574219 205.085938 C 105.898438 204.863281 105.148438 204.261719 104.773438 203.585938 C 104.324219 202.6875 104.25 200.960938 104.625 200.0625 C 104.851562 199.3125 105.523438 198.636719 106.273438 198.335938 C 107.101562 197.960938 108.824219 197.8125 109.726562 198.335938 C 110.699219 198.789062 111.523438 200.289062 111.75 201.1875 C 111.898438 202.011719 111.601562 202.914062 111.226562 203.585938 C 110.851562 204.1875 110.101562 204.863281 109.351562 205.085938 C 108.675781 205.386719 107.699219 205.460938 107.023438 205.238281 C 106.273438 205.011719 105.449219 204.488281 105 203.886719 C 104.550781 203.289062 104.398438 202.6875 104.25 201.636719 C 103.875 199.238281 104.175781 194.4375 104.25 189.9375 C 104.324219 183.863281 103.574219 171.5625 105.074219 168.488281 C 105.523438 167.363281 106.351562 166.988281 107.023438 166.6875 C 107.625 166.460938 108.226562 166.386719 108.824219 166.539062 C 109.574219 166.6875 110.625 167.136719 111.148438 167.8125 C 111.75 168.414062 112.050781 170.289062 112.050781 170.289062 "/></clipPath><clipPath id="9bb12b9323"><path d="M 103.226562 195 L 115.632812 195 L 115.632812 237.351562 L 103.226562 237.351562 Z M 103.226562 195 "/></clipPath><clipPath id="7ccdbde1c9"><path d="M 111.601562 198.789062 C 112.5 229.914062 114.300781 230.289062 114.898438 231.414062 C 115.351562 232.238281 115.726562 232.914062 115.574219 233.738281 C 115.5 234.710938 114.675781 236.210938 113.851562 236.738281 C 112.949219 237.335938 111.226562 237.414062 110.324219 236.960938 C 109.351562 236.585938 108.300781 235.238281 108.148438 234.261719 C 108 233.210938 108.523438 231.636719 109.199219 230.886719 C 109.949219 230.136719 111.601562 229.6875 112.574219 229.914062 C 113.625 230.136719 114.898438 231.1875 115.273438 232.164062 C 115.726562 233.136719 115.574219 234.789062 114.976562 235.613281 C 114.375 236.511719 113.023438 237.261719 111.898438 237.335938 C 110.398438 237.414062 108.074219 236.210938 106.875 235.164062 C 105.75 234.261719 105.148438 233.585938 104.625 231.710938 C 102.976562 226.386719 102.898438 203.886719 104.101562 198.789062 C 104.476562 197.136719 104.925781 196.3125 105.675781 195.710938 C 106.351562 195.1875 107.476562 194.960938 108.300781 195.039062 C 109.125 195.1875 110.101562 195.710938 110.625 196.3125 C 111.148438 196.914062 111.601562 198.789062 111.601562 198.789062 "/></clipPath><clipPath id="3ced98ed49"><path d="M 166.140625 256.101562 L 182.082031 256.101562 L 182.082031 266.949219 L 166.140625 266.949219 Z M 166.140625 256.101562 "/></clipPath><clipPath id="47383fea69"><path d="M 170.625 256.164062 C 177.523438 258.636719 180.523438 259.914062 181.5 261.1875 C 182.023438 261.9375 182.101562 262.761719 182.023438 263.511719 C 181.949219 264.261719 181.648438 265.164062 181.050781 265.6875 C 180.375 266.363281 178.800781 267.039062 177.75 266.886719 C 176.773438 266.738281 175.425781 265.613281 174.898438 264.789062 C 174.523438 264.113281 174.375 263.210938 174.601562 262.460938 C 174.898438 261.488281 176.023438 260.136719 176.851562 259.6875 C 177.601562 259.3125 178.5 259.3125 179.25 259.539062 C 180 259.6875 180.75 260.210938 181.273438 260.8125 C 181.726562 261.414062 182.023438 262.3125 182.023438 263.0625 C 182.101562 263.886719 181.800781 264.789062 181.351562 265.386719 C 180.898438 265.988281 180.074219 266.511719 179.398438 266.738281 C 178.648438 266.960938 177.675781 266.960938 177 266.664062 C 176.25 266.4375 176.023438 265.613281 175.125 265.164062 C 173.625 264.335938 169.726562 263.960938 168.300781 263.210938 C 167.625 262.914062 167.25 262.613281 166.949219 262.085938 C 166.5 261.488281 166.125 260.289062 166.199219 259.539062 C 166.199219 258.9375 166.425781 258.335938 166.726562 257.886719 C 167.023438 257.363281 167.476562 256.914062 168 256.613281 C 168.675781 256.238281 170.625 256.164062 170.625 256.164062 "/></clipPath><clipPath id="0fdaea0cdf"><path d="M 41.246094 172.203125 L 50.195312 172.203125 L 50.195312 237.320312 L 41.246094 237.320312 Z M 41.246094 172.203125 "/></clipPath><clipPath id="f2dae28414"><path d="M 41.476562 233.511719 C 41.398438 174.710938 41.476562 174.335938 42 173.738281 C 42.601562 172.988281 44.175781 172.3125 45.148438 172.238281 C 45.976562 172.238281 46.800781 172.613281 47.398438 173.136719 C 48.074219 173.8125 48.824219 175.386719 48.675781 176.4375 C 48.601562 177.414062 47.550781 178.835938 46.726562 179.363281 C 46.050781 179.738281 45.074219 179.8125 44.324219 179.738281 C 43.574219 179.585938 42.75 179.210938 42.226562 178.613281 C 41.625 177.863281 41.175781 176.136719 41.324219 175.238281 C 41.398438 174.414062 41.925781 173.664062 42.523438 173.136719 C 43.125 172.6875 44.023438 172.3125 44.773438 172.238281 C 45.523438 172.238281 46.425781 172.386719 47.101562 172.914062 C 47.851562 173.511719 48.300781 174.261719 48.675781 175.988281 C 50.476562 183.1875 50.699219 226.386719 48.976562 233.511719 C 48.523438 235.3125 48.148438 235.988281 47.324219 236.664062 C 46.648438 237.1875 45.601562 237.335938 44.773438 237.261719 C 43.949219 237.1875 42.976562 236.664062 42.375 236.0625 C 41.851562 235.386719 41.476562 233.511719 41.476562 233.511719 "/></clipPath><clipPath id="64b8c6fe3b"><path d="M 40.542969 141.300781 L 73.535156 141.300781 L 73.535156 184.175781 L 40.542969 184.175781 Z M 40.542969 141.300781 "/></clipPath><clipPath id="205ee5a421"><path d="M 41.550781 180.261719 C 40.574219 149.4375 40.351562 148.539062 40.800781 147.261719 C 41.175781 145.988281 41.925781 144.636719 43.199219 143.738281 C 44.925781 142.460938 47.625 141.9375 50.773438 141.5625 C 55.875 141.039062 67.875 141.414062 70.949219 142.539062 C 72 142.914062 72.449219 143.4375 72.824219 144.039062 C 73.199219 144.710938 73.5 145.613281 73.425781 146.363281 C 73.351562 147.113281 73.050781 148.011719 72.449219 148.539062 C 71.773438 149.210938 70.125 149.8125 69.148438 149.8125 C 68.398438 149.738281 67.574219 149.289062 67.050781 148.6875 C 66.449219 148.164062 66 147.414062 65.925781 146.585938 C 65.925781 145.613281 66.375 143.960938 67.125 143.289062 C 67.949219 142.613281 69.601562 142.238281 70.574219 142.386719 C 71.324219 142.539062 72.074219 143.136719 72.601562 143.738281 C 73.050781 144.335938 73.425781 145.238281 73.425781 145.988281 C 73.425781 146.738281 73.125 147.636719 72.75 148.238281 C 72.300781 148.835938 71.851562 149.289062 70.800781 149.664062 C 67.726562 150.5625 55.574219 148.613281 51.75 149.0625 C 50.023438 149.289062 48.898438 148.914062 48 150.113281 C 45.523438 153.5625 50.175781 176.886719 48.898438 181.164062 C 48.523438 182.4375 48.074219 182.886719 47.398438 183.335938 C 46.726562 183.863281 45.675781 184.085938 44.851562 184.011719 C 44.023438 183.9375 43.050781 183.414062 42.449219 182.738281 C 41.925781 182.136719 41.550781 180.261719 41.550781 180.261719 "/></clipPath><clipPath id="00e3774832"><path d="M 61.304688 140.617188 L 97.398438 140.617188 L 97.398438 177.203125 L 61.304688 177.203125 Z M 61.304688 140.617188 "/></clipPath><clipPath id="b9e789e7cd"><path d="M 65.101562 142.085938 C 80.925781 140.511719 83.699219 140.511719 85.875 140.738281 C 87.375 140.886719 88.425781 141.039062 89.625 141.488281 C 90.824219 141.9375 92.25 142.613281 93.226562 143.585938 C 94.125 144.488281 94.800781 145.3125 95.398438 146.8125 C 96.375 149.4375 96.824219 154.914062 97.125 158.363281 C 97.351562 161.210938 97.351562 163.386719 97.273438 166.011719 C 97.199219 168.789062 97.125 172.761719 96.449219 174.5625 C 96.074219 175.460938 95.625 175.988281 95.023438 176.4375 C 94.351562 176.886719 93.449219 177.113281 92.699219 177.113281 C 91.949219 177.039062 91.050781 176.664062 90.449219 176.210938 C 89.925781 175.6875 89.398438 174.863281 89.25 174.113281 C 89.101562 173.4375 89.175781 172.460938 89.476562 171.789062 C 89.773438 171.113281 90.449219 170.363281 91.125 170.0625 C 91.800781 169.6875 92.699219 169.460938 93.523438 169.613281 C 94.425781 169.914062 95.851562 170.8125 96.300781 171.789062 C 96.75 172.6875 96.675781 174.414062 96.074219 175.3125 C 95.550781 176.136719 94.050781 176.960938 93.074219 177.113281 C 92.324219 177.1875 91.425781 176.886719 90.75 176.4375 C 90.148438 175.988281 89.699219 175.539062 89.324219 174.5625 C 88.5 171.9375 89.925781 163.238281 89.625 158.886719 C 89.476562 155.738281 89.398438 152.738281 88.425781 150.863281 C 87.824219 149.585938 87.226562 148.835938 85.648438 148.238281 C 82.050781 146.886719 67.574219 150.414062 64.199219 149.4375 C 63 149.136719 62.476562 148.613281 61.949219 147.9375 C 61.5 147.261719 61.273438 146.210938 61.351562 145.386719 C 61.425781 144.5625 61.949219 143.585938 62.550781 143.0625 C 63.226562 142.460938 65.101562 142.085938 65.101562 142.085938 "/></clipPath><clipPath id="f27b57b19b"><path d="M 88.054688 165.496094 L 97.0625 165.496094 L 97.0625 231.664062 L 88.054688 231.664062 Z M 88.054688 165.496094 "/></clipPath><clipPath id="107957f192"><path d="M 97.050781 169.238281 C 96.675781 229.238281 96.675781 229.613281 96.148438 230.210938 C 95.476562 230.886719 93.976562 231.710938 92.925781 231.636719 C 91.875 231.636719 90.523438 230.664062 89.925781 229.835938 C 89.476562 229.164062 89.324219 228.261719 89.398438 227.511719 C 89.476562 226.761719 89.851562 225.863281 90.449219 225.335938 C 91.125 224.664062 92.773438 224.136719 93.75 224.210938 C 94.574219 224.289062 95.324219 224.738281 95.851562 225.335938 C 96.449219 226.085938 96.898438 227.738281 96.824219 228.710938 C 96.675781 229.539062 96.148438 230.289062 95.550781 230.738281 C 95.023438 231.261719 94.125 231.636719 93.375 231.636719 C 92.550781 231.710938 91.648438 231.488281 91.050781 231.039062 C 90.300781 230.4375 89.851562 229.6875 89.398438 227.886719 C 87.601562 220.613281 87.675781 174.710938 89.625 168.335938 C 90.074219 167.0625 90.449219 166.613281 91.125 166.164062 C 91.800781 165.710938 92.925781 165.414062 93.75 165.5625 C 94.574219 165.636719 95.550781 166.164062 96.074219 166.761719 C 96.601562 167.363281 97.050781 169.238281 97.050781 169.238281 "/></clipPath><clipPath id="2b3d62cac9"><path d="M 41.214844 226.792969 L 72.570312 226.792969 L 72.570312 248.332031 L 41.214844 248.332031 Z M 41.214844 226.792969 "/></clipPath><clipPath id="c34f8dc176"><path d="M 48.976562 230.585938 C 49.800781 240.488281 51.074219 240.414062 52.800781 240.636719 C 56.476562 241.164062 67.800781 239.289062 70.425781 240.414062 C 71.476562 240.863281 71.773438 241.460938 72.148438 242.136719 C 72.449219 242.8125 72.523438 243.789062 72.375 244.539062 C 72.226562 245.289062 71.851562 246.113281 71.175781 246.5625 C 70.425781 247.164062 68.699219 247.539062 67.800781 247.386719 C 66.976562 247.238281 66.226562 246.636719 65.773438 246.039062 C 65.324219 245.4375 64.949219 244.613281 64.949219 243.789062 C 65.023438 242.8125 65.773438 241.238281 66.601562 240.636719 C 67.425781 240.039062 69.148438 239.960938 70.050781 240.261719 C 70.875 240.488281 71.550781 241.164062 71.925781 241.761719 C 72.300781 242.4375 72.523438 243.335938 72.449219 244.085938 C 72.375 244.835938 72 245.738281 71.476562 246.261719 C 70.949219 246.863281 70.425781 247.164062 69.375 247.460938 C 66.523438 248.210938 57.449219 248.4375 53.101562 248.136719 C 50.101562 247.988281 47.398438 247.914062 45.523438 246.863281 C 44.101562 246.113281 43.050781 244.835938 42.449219 243.5625 C 41.773438 242.363281 41.773438 241.011719 41.550781 239.363281 C 41.324219 236.8125 40.949219 231.710938 41.625 229.6875 C 41.925781 228.636719 42.449219 227.960938 43.125 227.511719 C 43.800781 227.0625 44.851562 226.761719 45.675781 226.914062 C 46.5 226.988281 47.476562 227.511719 48 228.113281 C 48.601562 228.710938 48.976562 230.585938 48.976562 230.585938 "/></clipPath><clipPath id="8f77459a34"><path d="M 59.363281 220.351562 L 96.375 220.351562 L 96.375 248.699219 L 59.363281 248.699219 Z M 59.363281 220.351562 "/></clipPath><clipPath id="faaf5be134"><path d="M 63.226562 240.710938 C 85.5 240.113281 86.476562 240.1875 87.449219 238.988281 C 89.398438 236.511719 88.125 224.363281 89.550781 221.960938 C 90.148438 221.0625 90.824219 220.835938 91.574219 220.613281 C 92.25 220.386719 93.226562 220.460938 93.976562 220.761719 C 94.648438 221.0625 95.398438 221.664062 95.773438 222.335938 C 96.148438 222.9375 96.449219 223.835938 96.300781 224.664062 C 96.074219 225.5625 95.101562 226.988281 94.351562 227.511719 C 93.601562 227.960938 92.699219 228.039062 91.949219 227.960938 C 91.199219 227.8125 90.375 227.363281 89.851562 226.835938 C 89.324219 226.238281 88.875 225.414062 88.800781 224.664062 C 88.726562 223.914062 88.875 222.9375 89.324219 222.261719 C 89.925781 221.511719 91.425781 220.613281 92.324219 220.460938 C 93.148438 220.386719 94.050781 220.6875 94.648438 221.136719 C 95.324219 221.585938 95.851562 222.1875 96.074219 223.011719 C 96.523438 224.289062 96.300781 226.164062 96.226562 228.261719 C 96.074219 231.414062 95.625 237.261719 94.949219 240.039062 C 94.574219 241.613281 94.273438 242.511719 93.601562 243.636719 C 93 244.6875 92.25 245.886719 91.199219 246.5625 C 90.226562 247.238281 89.324219 247.460938 87.449219 247.761719 C 82.875 248.511719 66.074219 249.1875 62.324219 248.0625 C 61.125 247.6875 60.601562 247.238281 60.148438 246.5625 C 59.699219 245.886719 59.398438 244.761719 59.476562 243.9375 C 59.625 243.1875 60.148438 242.136719 60.75 241.613281 C 61.351562 241.085938 63.226562 240.710938 63.226562 240.710938 "/></clipPath></defs><g id="53220ef886"><g clip-rule="nonzero" clip-path="url(#271da6d859)"><g clip-rule="nonzero" clip-path="url(#e749b362a3)"><path style=" stroke:none;fill-rule:nonzero;fill:currentColor;fill-opacity:1;" d="M 243.449219 105.636719 L 271.273438 105.636719 L 271.273438 145.199219 L 243.449219 145.199219 Z M 243.449219 105.636719 "/></g></g><g clip-rule="nonzero" clip-path="url(#baca46107c)"><g clip-rule="nonzero" clip-path="url(#eff667b3da)"><path style=" stroke:none;fill-rule:nonzero;fill:currentColor;fill-opacity:1;" d="M 253.273438 95.738281 L 295.949219 95.738281 L 295.949219 122.0625 L 253.273438 122.0625 Z M 253.273438 95.738281 "/></g></g><g clip-rule="nonzero" clip-path="url(#27c1cb445d)"><g clip-rule="nonzero" clip-path="url(#69b90be4b9)"><path style=" stroke:none;fill-rule:nonzero;fill:currentColor;fill-opacity:1;" d="M 281.476562 100.761719 L 329.023438 100.761719 L 329.023438 160.757812 L 281.476562 160.757812 Z M 281.476562 100.761719 "/></g></g><g clip-rule="nonzero" clip-path="url(#4801887815)"><g clip-rule="nonzero" clip-path="url(#3742872807)"><path style=" stroke:none;fill-rule:nonzero;fill:currentColor;fill-opacity:1;" d="M 314.550781 145.613281 L 333.523438 145.613281 L 333.523438 176.59375 L 314.550781 176.59375 Z M 314.550781 145.613281 "/></g></g><g clip-rule="nonzero" clip-path="url(#392e8f926b)"><g clip-rule="nonzero" clip-path="url(#99d50c709a)"><path style=" stroke:none;fill-rule:nonzero;fill:currentColor;fill-opacity:1;" d="M 293.023438 160.988281 L 331.320312 160.988281 L 331.320312 193.238281 L 293.023438 193.238281 Z M 293.023438 160.988281 "/></g></g><g clip-rule="nonzero" clip-path="url(#550aa853f7)"><g clip-rule="nonzero" clip-path="url(#071462a2e9)"><path style=" stroke:none;fill-rule:nonzero;fill:currentColor;fill-opacity:1;" d="M 248.773438 128.8125 L 292.949219 128.8125 L 292.949219 185.585938 L 248.773438 185.585938 Z M 248.773438 128.8125 "/></g></g><g clip-rule="nonzero" clip-path="url(#c1bf19117d)"><g clip-rule="nonzero" clip-path="url(#503b198e07)"><path style=" stroke:none;fill-rule:nonzero;fill:currentColor;fill-opacity:1;" d="M 277.425781 169.988281 L 309.199219 169.988281 L 309.199219 195.488281 L 277.425781 195.488281 Z M 277.425781 169.988281 "/></g></g><g clip-rule="nonzero" clip-path="url(#d6e352ce84)"><g clip-rule="nonzero" clip-path="url(#1d054c81c5)"><path style=" stroke:none;fill-rule:nonzero;fill:currentColor;fill-opacity:1;" d="M 141.523438 127.988281 L 239.859375 127.988281 L 239.859375 153.261719 L 141.523438 153.261719 Z M 141.523438 127.988281 "/></g></g><g clip-rule="nonzero" clip-path="url(#f88a024780)"><g clip-rule="nonzero" clip-path="url(#af088a0d1b)"><path style=" stroke:none;fill-rule:nonzero;fill:currentColor;fill-opacity:1;" d="M 220.726562 128.8125 L 261.300781 128.8125 L 261.300781 170.65625 L 220.726562 170.65625 Z M 220.726562 128.8125 "/></g></g><g clip-rule="nonzero" clip-path="url(#badd7ab0c9)"><g clip-rule="nonzero" clip-path="url(#7d53495bac)"><path style=" stroke:none;fill-rule:nonzero;fill:currentColor;fill-opacity:1;" d="M 243.898438 152.136719 L 284.699219 152.136719 L 284.699219 199.3125 L 243.898438 199.3125 Z M 243.898438 152.136719 "/></g></g><g clip-rule="nonzero" clip-path="url(#1bf43d9100)"><g clip-rule="nonzero" clip-path="url(#3d201da1eb)"><path style=" stroke:none;fill-rule:nonzero;fill:currentColor;fill-opacity:1;" d="M 255.375 180.414062 L 287.570312 180.414062 L 287.570312 206.664062 L 255.375 206.664062 Z M 255.375 180.414062 "/></g></g><g clip-rule="nonzero" clip-path="url(#2175738176)"><g clip-rule="nonzero" clip-path="url(#1caa2e73fd)"><path style=" stroke:none;fill-rule:nonzero;fill:currentColor;fill-opacity:1;" d="M 220.050781 160.164062 L 270.15625 160.164062 L 270.15625 198.113281 L 220.050781 198.113281 Z M 220.050781 160.164062 "/></g></g><g clip-rule="nonzero" clip-path="url(#0205518f8b)"><g clip-rule="nonzero" clip-path="url(#957ec720c4)"><path style=" stroke:none;fill-rule:nonzero;fill:currentColor;fill-opacity:1;" d="M 178.125 148.835938 L 236.648438 148.835938 L 236.648438 175.6875 L 178.125 175.6875 Z M 178.125 148.835938 "/></g></g><g clip-rule="nonzero" clip-path="url(#fcca41333c)"><g clip-rule="nonzero" clip-path="url(#c344b50c60)"><path style=" stroke:none;fill-rule:nonzero;fill:currentColor;fill-opacity:1;" d="M 150.898438 149.210938 L 199.039062 149.210938 L 199.039062 188.210938 L 150.898438 188.210938 Z M 150.898438 149.210938 "/></g></g><g clip-rule="nonzero" clip-path="url(#493b5a6563)"><g clip-rule="nonzero" clip-path="url(#9d47aa832e)"><path style=" stroke:none;fill-rule:nonzero;fill:currentColor;fill-opacity:1;" d="M 133.425781 164.960938 L 166.363281 164.960938 L 166.363281 193.164062 L 133.425781 193.164062 Z M 133.425781 164.960938 "/></g></g><g clip-rule="nonzero" clip-path="url(#defb973442)"><g clip-rule="nonzero" clip-path="url(#0eee2be64c)"><path style=" stroke:none;fill-rule:nonzero;fill:currentColor;fill-opacity:1;" d="M 133.273438 136.164062 L 159.074219 136.164062 L 159.074219 182.621094 L 133.273438 182.621094 Z M 133.273438 136.164062 "/></g></g><g clip-rule="nonzero" clip-path="url(#136801eafe)"><g clip-rule="nonzero" clip-path="url(#d375295ad2)"><path style=" stroke:none;fill-rule:nonzero;fill:currentColor;fill-opacity:1;" d="M 143.175781 131.210938 L 176.027344 131.210938 L 176.027344 150.863281 L 143.175781 150.863281 Z M 143.175781 131.210938 "/></g></g><g clip-rule="nonzero" clip-path="url(#799a7b10e9)"><g clip-rule="nonzero" clip-path="url(#5eb11877e2)"><path style=" stroke:none;fill-rule:nonzero;fill:currentColor;fill-opacity:1;" d="M 100.875 141.5625 L 138.148438 141.5625 L 138.148438 189.175781 L 100.875 189.175781 Z M 100.875 141.5625 "/></g></g><g clip-rule="nonzero" clip-path="url(#e2fe5cd294)"><g clip-rule="nonzero" clip-path="url(#db579b4df5)"><path style=" stroke:none;fill-rule:nonzero;fill:currentColor;fill-opacity:1;" d="M 122.324219 171.710938 L 186.742188 171.710938 L 186.742188 206.210938 L 122.324219 206.210938 Z M 122.324219 171.710938 "/></g></g><g clip-rule="nonzero" clip-path="url(#7d07214f09)"><g clip-rule="nonzero" clip-path="url(#3f73b79f0c)"><path style=" stroke:none;fill-rule:nonzero;fill:currentColor;fill-opacity:1;" d="M 169.800781 166.164062 L 236.464844 166.164062 L 236.464844 193.914062 L 169.800781 193.914062 Z M 169.800781 166.164062 "/></g></g><g clip-rule="nonzero" clip-path="url(#9e0054ee82)"><g clip-rule="nonzero" clip-path="url(#da2d54b757)"><path style=" stroke:none;fill-rule:nonzero;fill:currentColor;fill-opacity:1;" d="M 221.175781 179.289062 L 277.652344 179.289062 L 277.652344 219.789062 L 221.175781 219.789062 Z M 221.175781 179.289062 "/></g></g><g clip-rule="nonzero" clip-path="url(#82358d9333)"><g clip-rule="nonzero" clip-path="url(#bc9479c84e)"><path style=" stroke:none;fill-rule:nonzero;fill:currentColor;fill-opacity:1;" d="M 250.050781 204.863281 L 283.480469 204.863281 L 283.480469 234.789062 L 250.050781 234.789062 Z M 250.050781 204.863281 "/></g></g><g clip-rule="nonzero" clip-path="url(#d777dcd947)"><g clip-rule="nonzero" clip-path="url(#5541f4d0dd)"><path style=" stroke:none;fill-rule:nonzero;fill:currentColor;fill-opacity:1;" d="M 214.800781 196.539062 L 264.859375 196.539062 L 264.859375 231.9375 L 214.800781 231.9375 Z M 214.800781 196.539062 "/></g></g><g clip-rule="nonzero" clip-path="url(#2aac2fd79c)"><g clip-rule="nonzero" clip-path="url(#d7333b14d8)"><path style=" stroke:none;fill-rule:nonzero;fill:currentColor;fill-opacity:1;" d="M 201.976562 195.636719 L 231.375 195.636719 L 231.375 225.839844 L 201.976562 225.839844 Z M 201.976562 195.636719 "/></g></g><g clip-rule="nonzero" clip-path="url(#9687193898)"><g clip-rule="nonzero" clip-path="url(#b30cb09a42)"><path style=" stroke:none;fill-rule:nonzero;fill:currentColor;fill-opacity:1;" d="M 212.925781 211.238281 L 262.144531 211.238281 L 262.144531 247.238281 L 212.925781 247.238281 Z M 212.925781 211.238281 "/></g></g><g clip-rule="nonzero" clip-path="url(#31b701ee9f)"><g clip-rule="nonzero" clip-path="url(#031eabf0eb)"><path style=" stroke:none;fill-rule:nonzero;fill:currentColor;fill-opacity:1;" d="M 211.875 226.3125 L 263.878906 226.3125 L 263.878906 256.164062 L 211.875 256.164062 Z M 211.875 226.3125 "/></g></g><g clip-rule="nonzero" clip-path="url(#95ea70da92)"><g clip-rule="nonzero" clip-path="url(#22b14851ac)"><path style=" stroke:none;fill-rule:nonzero;fill:currentColor;fill-opacity:1;" d="M 190.273438 219.1875 L 230.957031 219.1875 L 230.957031 258.636719 L 190.273438 258.636719 Z M 190.273438 219.1875 "/></g></g><g clip-rule="nonzero" clip-path="url(#6e5eba5190)"><g clip-rule="nonzero" clip-path="url(#59eccacc0a)"><path style=" stroke:none;fill-rule:nonzero;fill:currentColor;fill-opacity:1;" d="M 187.949219 241.238281 L 243.753906 241.238281 L 243.753906 271.761719 L 187.949219 271.761719 Z M 187.949219 241.238281 "/></g></g><g clip-rule="nonzero" clip-path="url(#32cc3aaeca)"><g clip-rule="nonzero" clip-path="url(#22b6cc1d7e)"><path style=" stroke:none;fill-rule:nonzero;fill:currentColor;fill-opacity:1;" d="M 169.949219 241.914062 L 213.425781 241.914062 L 213.425781 279.261719 L 169.949219 279.261719 Z M 169.949219 241.914062 "/></g></g><g clip-rule="nonzero" clip-path="url(#fce6190b90)"><g clip-rule="nonzero" clip-path="url(#252886f700)"><path style=" stroke:none;fill-rule:nonzero;fill:currentColor;fill-opacity:1;" d="M 101.625 225.414062 L 184.421875 225.414062 L 184.421875 269.664062 L 101.625 269.664062 Z M 101.625 225.414062 "/></g></g><g clip-rule="nonzero" clip-path="url(#224c37eec6)"><g clip-rule="nonzero" clip-path="url(#f9267b6f72)"><path style=" stroke:none;fill-rule:nonzero;fill:currentColor;fill-opacity:1;" d="M 101.25 163.539062 L 115.125 163.539062 L 115.125 208.304688 L 101.25 208.304688 Z M 101.25 163.539062 "/></g></g><g clip-rule="nonzero" clip-path="url(#9bb12b9323)"><g clip-rule="nonzero" clip-path="url(#7ccdbde1c9)"><path style=" stroke:none;fill-rule:nonzero;fill:currentColor;fill-opacity:1;" d="M 101.101562 192.039062 L 118.648438 192.039062 L 118.648438 240.367188 L 101.101562 240.367188 Z M 101.101562 192.039062 "/></g></g><g clip-rule="nonzero" clip-path="url(#3ced98ed49)"><g clip-rule="nonzero" clip-path="url(#47383fea69)"><path style=" stroke:none;fill-rule:nonzero;fill:currentColor;fill-opacity:1;" d="M 163.199219 253.164062 L 185.085938 253.164062 L 185.085938 269.886719 L 163.199219 269.886719 Z M 163.199219 253.164062 "/></g></g><g clip-rule="nonzero" clip-path="url(#0fdaea0cdf)"><g clip-rule="nonzero" clip-path="url(#f2dae28414)"><path style=" stroke:none;fill-rule:nonzero;fill:currentColor;fill-opacity:1;" d="M 38.175781 169.238281 L 51.976562 169.238281 L 51.976562 240.285156 L 38.175781 240.285156 Z M 38.175781 169.238281 "/></g></g><g clip-rule="nonzero" clip-path="url(#64b8c6fe3b)"><g clip-rule="nonzero" clip-path="url(#205ee5a421)"><path style=" stroke:none;fill-rule:nonzero;fill:currentColor;fill-opacity:1;" d="M 37.5 138.5625 L 76.425781 138.5625 L 76.425781 187.066406 L 37.5 187.066406 Z M 37.5 138.5625 "/></g></g><g clip-rule="nonzero" clip-path="url(#00e3774832)"><g clip-rule="nonzero" clip-path="url(#b9e789e7cd)"><path style=" stroke:none;fill-rule:nonzero;fill:currentColor;fill-opacity:1;" d="M 58.351562 137.664062 L 100.351562 137.664062 L 100.351562 180.15625 L 58.351562 180.15625 Z M 58.351562 137.664062 "/></g></g><g clip-rule="nonzero" clip-path="url(#f27b57b19b)"><g clip-rule="nonzero" clip-path="url(#107957f192)"><path style=" stroke:none;fill-rule:nonzero;fill:currentColor;fill-opacity:1;" d="M 86.398438 162.5625 L 100.050781 162.5625 L 100.050781 234.703125 L 86.398438 234.703125 Z M 86.398438 162.5625 "/></g></g><g clip-rule="nonzero" clip-path="url(#2b3d62cac9)"><g clip-rule="nonzero" clip-path="url(#c34f8dc176)"><path style=" stroke:none;fill-rule:nonzero;fill:currentColor;fill-opacity:1;" d="M 38.550781 223.914062 L 75.449219 223.914062 L 75.449219 251.210938 L 38.550781 251.210938 Z M 38.550781 223.914062 "/></g></g><g clip-rule="nonzero" clip-path="url(#8f77459a34)"><g clip-rule="nonzero" clip-path="url(#faaf5be134)"><path style=" stroke:none;fill-rule:nonzero;fill:currentColor;fill-opacity:1;" d="M 56.476562 217.460938 L 99.261719 217.460938 L 99.261719 251.0625 L 56.476562 251.0625 Z M 56.476562 217.460938 "/></g></g></g></svg>