<svg xmlns="http://www.w3.org/2000/svg" xmlns:xlink="http://www.w3.org/1999/xlink" width="500" zoomAndPan="magnify" viewBox="0 0 375 374.999991" height="500" preserveAspectRatio="xMidYMid meet" version="1.2"><defs><clipPath id="fdc773a2ba"><path d="M 84.425781 305.523438 L 113.496094 305.523438 L 113.496094 333.417969 L 84.425781 333.417969 Z M 84.425781 305.523438 "/></clipPath><clipPath id="b66bab1dfd"><path d="M 98.023438 333.300781 C 90.449219 332.550781 89.101562 331.949219 88.050781 331.125 C 87.074219 330.300781 86.398438 329.476562 85.800781 328.050781 C 84.824219 325.5 84.300781 319.125 84.675781 316.425781 C 84.898438 314.925781 85.574219 314.101562 86.023438 312.976562 C 86.550781 311.773438 86.851562 310.425781 87.75 309.449219 C 88.648438 308.398438 90.074219 307.648438 91.351562 307.050781 C 92.625 306.449219 93.601562 306.226562 95.324219 305.925781 C 98.625 305.476562 107.023438 305.398438 109.726562 305.773438 C 110.773438 306 111.375 306.074219 111.976562 306.523438 C 112.574219 307.050781 113.101562 307.800781 113.324219 308.550781 C 113.550781 309.300781 113.476562 310.199219 113.175781 310.949219 C 112.875 311.625 112.351562 312.375 111.601562 312.75 C 110.773438 313.199219 109.050781 313.351562 108.148438 312.976562 C 107.175781 312.523438 106.199219 311.175781 105.976562 310.125 C 105.824219 309.148438 106.5 307.574219 107.101562 306.824219 C 107.625 306.226562 108.523438 305.925781 109.273438 305.851562 C 110.023438 305.699219 111 305.925781 111.601562 306.300781 C 112.273438 306.75 112.949219 307.351562 113.175781 308.175781 C 113.476562 309.074219 113.25 310.800781 112.800781 311.625 C 112.425781 312.375 111.976562 312.75 110.925781 313.125 C 108.074219 314.101562 96.148438 312.148438 93.601562 313.949219 C 92.398438 314.851562 92.398438 316.050781 92.175781 317.476562 C 91.800781 319.574219 91.050781 324.074219 92.398438 325.5 C 93.675781 326.851562 98.175781 325.273438 99.75 326.175781 C 100.800781 326.851562 101.550781 328.125 101.699219 329.101562 C 101.851562 329.925781 101.625 330.976562 101.101562 331.648438 C 100.5 332.398438 98.023438 333.300781 98.023438 333.300781 "/></clipPath><clipPath id="4cfa346030"><path d="M 103.523438 305.050781 L 214.628906 305.050781 L 214.628906 313.902344 L 103.523438 313.902344 Z M 103.523438 305.050781 "/></clipPath><clipPath id="8004f174af"><path d="M 107.324219 305.476562 C 209.851562 305.175781 211.199219 304.949219 212.476562 305.550781 C 213.300781 305.925781 213.898438 306.449219 214.199219 307.199219 C 214.574219 308.101562 214.648438 309.824219 214.125 310.726562 C 213.601562 311.625 212.101562 312.449219 211.199219 312.601562 C 210.375 312.75 209.476562 312.523438 208.875 312.074219 C 208.050781 311.476562 207.226562 309.976562 207.074219 309 C 207 308.175781 207.300781 307.351562 207.824219 306.675781 C 208.425781 306 209.925781 305.101562 210.898438 305.101562 C 211.949219 305.175781 213.375 306.074219 213.976562 306.824219 C 214.5 307.5 214.648438 308.398438 214.574219 309.148438 C 214.5 309.898438 214.125 310.800781 213.675781 311.398438 C 213.148438 311.925781 212.699219 312.300781 211.574219 312.601562 C 208.351562 313.351562 198.976562 312.148438 191.773438 312.226562 C 183.226562 312.300781 174.601562 313.125 163.574219 313.273438 C 147.824219 313.5 112.574219 314.773438 106.425781 312.824219 C 105.074219 312.449219 104.699219 312 104.25 311.324219 C 103.800781 310.648438 103.5 309.601562 103.574219 308.773438 C 103.726562 307.949219 104.25 306.976562 104.851562 306.375 C 105.449219 305.851562 107.324219 305.476562 107.324219 305.476562 "/></clipPath><clipPath id="17b54a51d0"><path d="M 202.097656 303.621094 L 281.734375 303.621094 L 281.734375 313.195312 L 202.097656 313.195312 Z M 202.097656 303.621094 "/></clipPath><clipPath id="634513eeff"><path d="M 205.800781 305.476562 C 234.824219 304.648438 237.074219 303.976562 242.175781 303.824219 C 250.875 303.449219 273 303.601562 277.949219 304.574219 C 279.300781 304.800781 279.824219 304.949219 280.425781 305.476562 C 281.101562 306.074219 281.625 306.976562 281.699219 307.875 C 281.773438 308.851562 281.25 310.425781 280.425781 311.101562 C 279.601562 311.851562 277.800781 312.226562 276.75 311.851562 C 275.773438 311.550781 274.648438 310.351562 274.351562 309.300781 C 274.050781 308.324219 274.425781 306.675781 275.101562 305.851562 C 275.773438 305.101562 277.351562 304.5 278.398438 304.574219 C 279.375 304.726562 280.800781 305.625 281.25 306.523438 C 281.773438 307.5 281.773438 309.148438 281.25 310.050781 C 280.800781 310.949219 279.375 311.925781 278.398438 312.074219 C 277.351562 312.148438 275.773438 311.398438 275.101562 310.726562 C 274.5 310.199219 274.273438 309.300781 274.199219 308.550781 C 274.199219 307.726562 274.351562 306.824219 274.875 306.226562 C 275.476562 305.476562 276.976562 304.648438 277.949219 304.574219 C 278.851562 304.5 279.824219 304.949219 280.425781 305.476562 C 281.101562 306.074219 281.625 306.976562 281.699219 307.875 C 281.773438 308.851562 281.175781 310.425781 280.425781 311.101562 C 279.824219 311.699219 279.300781 311.851562 277.949219 312.074219 C 273.300781 312.898438 256.726562 311.175781 245.324219 311.25 C 232.800781 311.398438 211.050781 313.875 205.800781 312.976562 C 204.449219 312.75 203.925781 312.675781 203.324219 312.074219 C 202.648438 311.324219 202.050781 309.75 202.125 308.773438 C 202.125 307.949219 202.726562 306.976562 203.324219 306.449219 C 203.925781 305.925781 205.800781 305.476562 205.800781 305.476562 "/></clipPath><clipPath id="e7fad0b221"><path d="M 261.035156 304.386719 L 290.851562 304.386719 L 290.851562 334.613281 L 261.035156 334.613281 Z M 261.035156 304.386719 "/></clipPath><clipPath id="fa541485e0"><path d="M 274.875 304.5 C 285.226562 306.226562 286.125 307.648438 287.101562 308.773438 C 287.925781 309.824219 288.675781 310.5 289.199219 312.148438 C 290.25 315.375 291.675781 324.074219 290.25 327.75 C 289.273438 330.375 287.25 332.175781 284.550781 333.375 C 280.800781 335.023438 272.398438 334.5 268.574219 334.5 C 266.398438 334.5 264.75 334.648438 263.550781 334.199219 C 262.726562 333.824219 262.125 333.300781 261.675781 332.625 C 261.300781 331.949219 261 331.050781 261.148438 330.300781 C 261.375 329.324219 262.351562 327.898438 263.175781 327.375 C 263.851562 326.925781 264.75 326.773438 265.5 327 C 266.476562 327.226562 267.898438 328.199219 268.273438 329.101562 C 268.726562 330.074219 268.648438 331.726562 268.125 332.625 C 267.601562 333.523438 266.101562 334.273438 265.125 334.425781 C 264.300781 334.574219 263.476562 334.273438 262.800781 333.824219 C 262.050781 333.226562 261.226562 331.648438 261.148438 330.675781 C 261.074219 329.925781 261.449219 329.023438 261.898438 328.425781 C 262.351562 327.824219 262.800781 327.449219 263.925781 327.074219 C 266.851562 326.101562 279.976562 328.5 282.226562 326.625 C 283.273438 325.726562 282.824219 324.300781 282.898438 322.800781 C 283.050781 320.625 283.050781 316.800781 282.226562 314.851562 C 281.699219 313.574219 280.875 312.523438 279.675781 312 C 278.25 311.324219 275.476562 312.449219 273.976562 311.851562 C 272.851562 311.398438 271.726562 310.5 271.351562 309.601562 C 270.976562 308.625 271.199219 306.976562 271.800781 306.074219 C 272.398438 305.25 274.875 304.5 274.875 304.5 "/></clipPath><clipPath id="2acc28fc3a"><path d="M 178.769531 325.164062 L 272.257812 325.164062 L 272.257812 334.175781 L 178.769531 334.175781 Z M 178.769531 325.164062 "/></clipPath><clipPath id="a6ea9496ca"><path d="M 268.574219 334.125 C 180.75 333.675781 180.074219 333.300781 179.476562 332.550781 C 178.949219 331.875 178.800781 330.976562 178.800781 330.226562 C 178.875 329.476562 179.175781 328.574219 179.699219 327.976562 C 180.375 327.300781 182.023438 326.625 183 326.699219 C 183.75 326.699219 184.574219 327.148438 185.175781 327.675781 C 185.699219 328.199219 186.226562 329.023438 186.300781 329.773438 C 186.375 330.75 185.925781 332.398438 185.175781 333.148438 C 184.425781 333.824219 182.699219 334.199219 181.800781 334.050781 C 180.976562 333.976562 180.226562 333.375 179.699219 332.851562 C 179.25 332.25 178.875 331.351562 178.800781 330.601562 C 178.800781 329.851562 178.949219 328.949219 179.476562 328.273438 C 180.074219 327.523438 180.75 327.148438 182.550781 326.625 C 191.625 324.375 260.25 325.125 268.574219 326.625 C 270 326.925781 270.449219 327 271.050781 327.601562 C 271.726562 328.273438 272.324219 329.851562 272.25 330.824219 C 272.25 331.726562 271.648438 332.699219 271.050781 333.226562 C 270.375 333.75 268.574219 334.125 268.574219 334.125 "/></clipPath><clipPath id="0f224193bb"><path d="M 92.878906 325.585938 L 170.175781 325.585938 L 170.175781 334.054688 L 92.878906 334.054688 Z M 92.878906 325.585938 "/></clipPath><clipPath id="c4e208b8db"><path d="M 96.675781 325.726562 C 135.601562 326.324219 148.875 325.425781 156.601562 325.648438 C 161.324219 325.800781 165.75 325.726562 167.773438 326.550781 C 168.75 327 169.199219 327.449219 169.648438 328.125 C 170.023438 328.800781 170.25 329.699219 170.101562 330.449219 C 170.023438 331.199219 169.648438 332.101562 169.125 332.625 C 168.601562 333.148438 167.773438 333.675781 167.023438 333.75 C 166.050781 333.824219 164.398438 333.300781 163.648438 332.625 C 163.050781 332.101562 162.675781 331.273438 162.675781 330.449219 C 162.675781 329.476562 163.273438 327.898438 163.949219 327.148438 C 164.550781 326.625 165.375 326.25 166.199219 326.324219 C 167.175781 326.324219 168.75 327.074219 169.425781 327.75 C 169.949219 328.351562 170.175781 329.324219 170.175781 330.074219 C 170.175781 330.824219 169.875 331.726562 169.351562 332.324219 C 168.898438 332.925781 168.523438 333.300781 167.398438 333.675781 C 163.726562 334.726562 149.773438 333.148438 141.300781 333.148438 C 133.273438 333.226562 125.625 333.898438 117.824219 333.824219 C 110.175781 333.75 98.175781 334.351562 94.949219 332.851562 C 93.824219 332.324219 93.523438 331.5 93.226562 330.824219 C 92.925781 330.226562 92.851562 329.625 93 329.023438 C 93.148438 328.273438 93.601562 327.226562 94.199219 326.699219 C 94.800781 326.175781 96.675781 325.726562 96.675781 325.726562 "/></clipPath><clipPath id="1624121710"><path d="M 157.289062 325.515625 L 202.523438 325.515625 L 202.523438 334.503906 L 157.289062 334.503906 Z M 157.289062 325.515625 "/></clipPath><clipPath id="bb6b2d8ce5"><path d="M 161.023438 326.550781 C 201.074219 326.023438 201.449219 326.398438 201.824219 327.148438 C 202.351562 327.976562 202.5 329.699219 202.199219 330.601562 C 201.976562 331.351562 201.300781 332.023438 200.699219 332.476562 C 200.023438 332.851562 199.050781 333.074219 198.300781 332.925781 C 197.550781 332.851562 196.726562 332.476562 196.125 331.949219 C 195.601562 331.425781 195.074219 330.675781 195 329.851562 C 194.925781 328.875 195.375 327.226562 196.125 326.476562 C 196.875 325.800781 198.601562 325.425781 199.574219 325.574219 C 200.324219 325.648438 201.074219 326.25 201.601562 326.773438 C 202.050781 327.375 202.425781 328.273438 202.5 329.023438 C 202.5 329.773438 202.351562 330.675781 201.824219 331.351562 C 201.226562 332.101562 200.398438 332.550781 198.75 333 C 193.199219 334.425781 166.199219 334.875 161.023438 334.050781 C 159.675781 333.824219 159.148438 333.675781 158.550781 333.074219 C 157.875 332.398438 157.273438 330.824219 157.351562 329.851562 C 157.425781 328.949219 157.949219 328.050781 158.550781 327.449219 C 159.226562 326.925781 161.101562 326.550781 161.101562 326.550781 "/></clipPath><clipPath id="820ad64abf"><path d="M 115.863281 253.113281 L 125 253.113281 L 125 309.425781 L 115.863281 309.425781 Z M 115.863281 253.113281 "/></clipPath><clipPath id="9e6219cd0c"><path d="M 115.875 305.699219 C 116.773438 255.523438 116.773438 255.148438 117.300781 254.550781 C 117.976562 253.875 119.550781 253.050781 120.523438 253.125 C 121.574219 253.199219 123 254.25 123.523438 255 C 123.976562 255.675781 124.125 256.574219 123.976562 257.398438 C 123.824219 258.300781 122.773438 259.726562 121.949219 260.25 C 121.273438 260.699219 120.375 260.773438 119.625 260.550781 C 118.648438 260.324219 117.300781 259.273438 116.851562 258.375 C 116.476562 257.699219 116.476562 256.726562 116.625 256.050781 C 116.773438 255.300781 117.300781 254.476562 117.898438 254.023438 C 118.5 253.5 119.398438 253.199219 120.148438 253.125 C 120.898438 253.125 121.800781 253.351562 122.476562 253.875 C 123.226562 254.476562 123.601562 255.226562 124.050781 256.949219 C 125.550781 263.550781 125.101562 300.898438 123.300781 306.601562 C 122.851562 307.875 122.476562 308.324219 121.800781 308.773438 C 121.125 309.226562 120 309.523438 119.175781 309.375 C 118.351562 309.300781 117.375 308.773438 116.851562 308.175781 C 116.324219 307.574219 115.875 305.699219 115.875 305.699219 "/></clipPath><clipPath id="835d3f9a46"><path d="M 133.222656 251.21875 L 141.695312 251.21875 L 141.695312 308.960938 L 133.222656 308.960938 Z M 133.222656 251.21875 "/></clipPath><clipPath id="2f9892ed8f"><path d="M 133.273438 305.175781 C 133.949219 252.675781 134.398438 252.375 135 251.925781 C 135.601562 251.476562 136.574219 251.25 137.324219 251.324219 C 138.074219 251.324219 138.976562 251.699219 139.574219 252.148438 C 140.101562 252.675781 140.699219 253.425781 140.773438 254.25 C 140.925781 255.226562 140.476562 256.875 139.800781 257.625 C 139.351562 258.226562 138.449219 258.601562 137.699219 258.75 C 136.949219 258.824219 136.050781 258.75 135.375 258.375 C 134.550781 257.851562 133.574219 256.425781 133.351562 255.449219 C 133.199219 254.625 133.5 253.726562 133.875 253.125 C 134.324219 252.449219 135 251.851562 135.75 251.550781 C 136.425781 251.25 137.398438 251.175781 138.148438 251.398438 C 139.050781 251.773438 140.023438 252.375 140.699219 253.800781 C 142.648438 258.449219 141.074219 277.648438 140.925781 287.324219 C 140.851562 294.75 141.675781 303.976562 140.324219 306.898438 C 139.800781 307.949219 139.050781 308.324219 138.375 308.699219 C 137.773438 308.925781 137.175781 309 136.574219 308.851562 C 135.824219 308.773438 134.773438 308.25 134.25 307.648438 C 133.648438 307.050781 133.273438 305.175781 133.273438 305.175781 "/></clipPath><clipPath id="b1924e16e1"><path d="M 231.867188 249.734375 L 242.042969 249.734375 L 242.042969 307.808594 L 231.867188 307.808594 Z M 231.867188 249.734375 "/></clipPath><clipPath id="b1056144e2"><path d="M 234.226562 304.050781 C 232.125 267.148438 231.449219 256.648438 232.125 253.199219 C 232.351562 252 232.574219 251.550781 233.101562 251.023438 C 233.625 250.425781 234.449219 249.898438 235.199219 249.824219 C 236.175781 249.75 237.824219 250.273438 238.574219 250.949219 C 239.175781 251.476562 239.476562 252.300781 239.625 253.050781 C 239.699219 253.800781 239.550781 254.773438 239.101562 255.449219 C 238.574219 256.199219 237.148438 257.175781 236.101562 257.25 C 235.125 257.324219 233.550781 256.574219 232.949219 255.824219 C 232.351562 255.226562 232.050781 254.398438 232.125 253.574219 C 232.199219 252.601562 232.949219 251.101562 233.699219 250.425781 C 234.375 249.976562 235.273438 249.75 236.023438 249.75 C 236.773438 249.824219 237.675781 250.125 238.273438 250.648438 C 238.875 251.101562 239.175781 251.476562 239.550781 252.675781 C 241.273438 258.300781 242.699219 297.898438 241.726562 304.050781 C 241.5 305.476562 241.351562 305.925781 240.75 306.523438 C 240.074219 307.199219 238.5 307.800781 237.523438 307.800781 C 236.625 307.726562 235.726562 307.125 235.125 306.523438 C 234.601562 305.925781 234.226562 304.050781 234.226562 304.050781 "/></clipPath><clipPath id="5603a0ab97"><path d="M 249.117188 247.664062 L 260.289062 247.664062 L 260.289062 308.359375 L 249.117188 308.359375 Z M 249.117188 247.664062 "/></clipPath><clipPath id="c984e5a37d"><path d="M 252.523438 304.574219 C 251.925781 280.949219 248.25 257.324219 249.375 251.550781 C 249.675781 249.898438 250.125 249.074219 250.875 248.398438 C 251.476562 247.875 252.375 247.574219 253.199219 247.726562 C 254.175781 247.800781 255.675781 248.625 256.273438 249.375 C 256.726562 250.050781 256.875 250.949219 256.875 251.699219 C 256.800781 252.449219 256.425781 253.351562 255.898438 253.949219 C 255.449219 254.476562 254.625 255 253.875 255.148438 C 253.125 255.300781 252.148438 255.226562 251.476562 254.851562 C 250.648438 254.324219 249.601562 252.898438 249.375 252 C 249.226562 251.175781 249.449219 250.273438 249.824219 249.601562 C 250.199219 248.925781 250.875 248.25 251.625 248.023438 C 252.523438 247.726562 254.25 247.800781 255.074219 248.25 C 255.824219 248.625 256.199219 249 256.648438 250.125 C 258.523438 254.773438 259.351562 280.648438 259.800781 290.699219 C 260.101562 296.550781 260.476562 301.875 260.023438 304.574219 C 259.800781 305.773438 259.726562 306.449219 259.050781 307.050781 C 258.375 307.800781 256.800781 308.398438 255.824219 308.324219 C 254.925781 308.25 254.023438 307.726562 253.5 307.050781 C 252.898438 306.449219 252.523438 304.574219 252.523438 304.574219 "/></clipPath><clipPath id="519f472cd5"><path d="M 225.640625 228.09375 L 269.8125 228.09375 L 269.8125 254.980469 L 225.640625 254.980469 Z M 225.640625 228.09375 "/></clipPath><clipPath id="8bc913c68c"><path d="M 265.949219 254.925781 C 234.601562 254.023438 233.699219 253.949219 232.425781 253.425781 C 231.226562 252.976562 230.101562 252.375 229.199219 251.476562 C 228.226562 250.574219 227.398438 249.601562 226.875 248.175781 C 226.050781 246.300781 225.898438 243.449219 225.824219 240.75 C 225.675781 237.449219 225.449219 231.824219 226.648438 229.875 C 227.398438 228.75 228.75 228.226562 229.726562 228.148438 C 230.550781 228.074219 231.375 228.375 232.050781 228.824219 C 232.648438 229.273438 233.25 229.949219 233.398438 230.773438 C 233.625 231.675781 233.324219 233.398438 232.800781 234.226562 C 232.351562 234.898438 231.523438 235.351562 230.773438 235.5 C 230.023438 235.726562 229.125 235.726562 228.375 235.351562 C 227.550781 234.898438 226.425781 233.550781 226.199219 232.574219 C 225.976562 231.824219 226.050781 230.925781 226.5 230.25 C 226.949219 229.351562 228.375 228.375 229.351562 228.148438 C 230.101562 228 231 228.226562 231.675781 228.601562 C 232.351562 228.976562 232.875 229.425781 233.324219 230.398438 C 234.226562 232.726562 232.050781 241.800781 233.398438 244.351562 C 234.148438 245.773438 234.898438 246.074219 236.699219 246.675781 C 241.574219 248.324219 262.648438 246.148438 266.851562 247.5 C 268.125 247.949219 268.574219 248.324219 269.101562 249 C 269.550781 249.675781 269.773438 250.800781 269.699219 251.625 C 269.625 252.449219 269.101562 253.425781 268.5 253.949219 C 267.824219 254.476562 265.949219 254.925781 265.949219 254.925781 "/></clipPath><clipPath id="d797adacd8"><path d="M 226.050781 214.539062 L 269.023438 214.539062 L 269.023438 237.710938 L 226.050781 237.710938 Z M 226.050781 214.539062 "/></clipPath><clipPath id="6df1b72b5d"><path d="M 226.125 234 C 226.425781 223.726562 226.726562 222.75 227.324219 221.625 C 228 220.425781 228.976562 219.300781 229.949219 218.398438 C 231 217.574219 231.898438 217.050781 233.324219 216.523438 C 235.351562 215.773438 237.976562 215.476562 241.199219 215.175781 C 246.226562 214.648438 256.050781 214.425781 260.773438 214.726562 C 263.476562 214.875 265.726562 214.726562 267.148438 215.625 C 268.125 216.300781 268.875 217.574219 268.949219 218.625 C 269.023438 219.675781 268.273438 221.175781 267.523438 221.851562 C 267 222.375 266.023438 222.601562 265.273438 222.601562 C 264.523438 222.601562 263.625 222.449219 263.023438 221.925781 C 262.273438 221.25 261.523438 219.675781 261.523438 218.699219 C 261.449219 217.949219 261.898438 217.050781 262.351562 216.449219 C 262.800781 215.925781 263.550781 215.324219 264.375 215.25 C 265.351562 215.101562 267 215.476562 267.75 216.074219 C 268.425781 216.601562 268.800781 217.425781 268.949219 218.175781 C 269.101562 218.925781 268.949219 219.898438 268.574219 220.574219 C 268.199219 221.25 267.898438 221.773438 266.851562 222.226562 C 263.175781 223.875 242.550781 221.925781 237.601562 223.273438 C 235.726562 223.726562 234.75 223.875 234 225.074219 C 232.875 226.800781 234 231.976562 233.625 234 C 233.398438 235.125 233.101562 235.875 232.648438 236.476562 C 232.273438 237 231.75 237.300781 231.148438 237.523438 C 230.476562 237.75 229.273438 237.75 228.523438 237.523438 C 227.925781 237.300781 227.398438 237 227.023438 236.476562 C 226.574219 235.875 226.125 234 226.125 234 "/></clipPath><clipPath id="28df34dece"><path d="M 258.644531 215.070312 L 272.507812 215.070312 L 272.507812 254.910156 L 258.644531 254.910156 Z M 258.644531 215.070312 "/></clipPath><clipPath id="a10340b56a"><path d="M 262.5 215.101562 C 268.648438 216.226562 269.625 217.351562 270.300781 218.476562 C 271.050781 219.675781 271.425781 221.023438 271.726562 222.675781 C 272.175781 224.851562 272.175781 227.175781 272.25 230.25 C 272.324219 235.199219 273 245.925781 271.648438 249.675781 C 271.050781 251.476562 270.300781 252.300781 269.023438 253.125 C 267.523438 254.175781 264.523438 254.851562 262.949219 254.851562 C 262.050781 254.851562 261.300781 254.699219 260.625 254.175781 C 259.875 253.574219 258.976562 252.148438 258.976562 251.101562 C 258.976562 250.050781 259.875 248.625 260.625 248.023438 C 261.226562 247.5 262.125 247.199219 262.949219 247.351562 C 263.851562 247.425781 265.351562 248.324219 265.949219 249.148438 C 266.398438 249.75 266.550781 250.726562 266.476562 251.476562 C 266.398438 252.226562 266.023438 253.125 265.5 253.648438 C 264.976562 254.175781 264.148438 254.699219 263.398438 254.773438 C 262.425781 254.851562 260.773438 254.324219 260.023438 253.648438 C 259.425781 253.125 259.050781 252.300781 259.050781 251.550781 C 258.976562 250.574219 259.5 249.074219 260.324219 248.25 C 261.226562 247.273438 263.773438 247.726562 264.75 246.226562 C 266.699219 243.148438 265.050781 230.851562 264.523438 226.800781 C 264.300781 224.851562 264.375 223.351562 263.550781 222.601562 C 262.949219 222 261.523438 222.675781 260.773438 222.226562 C 259.875 221.625 258.976562 220.273438 258.75 219.300781 C 258.601562 218.476562 258.898438 217.425781 259.425781 216.75 C 260.023438 215.925781 262.5 215.101562 262.5 215.101562 "/></clipPath><clipPath id="3210839427"><path d="M 106.457031 239.816406 L 147.75 239.816406 L 147.75 256.40625 L 106.457031 256.40625 Z M 106.457031 239.816406 "/></clipPath><clipPath id="d1f1411bb2"><path d="M 147.675781 243.601562 C 146.023438 251.175781 143.101562 253.726562 141.226562 254.851562 C 139.875 255.601562 138.976562 255.75 137.25 255.976562 C 134.398438 256.425781 129.601562 256.425781 125.324219 256.199219 C 120.300781 255.898438 111.824219 255.074219 109.125 253.949219 C 108.074219 253.574219 107.625 253.125 107.175781 252.523438 C 106.800781 251.925781 106.425781 251.023438 106.574219 250.199219 C 106.726562 249.226562 107.550781 247.800781 108.375 247.199219 C 109.050781 246.75 109.949219 246.523438 110.699219 246.675781 C 111.675781 246.898438 113.101562 247.875 113.625 248.699219 C 114.074219 249.375 114.148438 250.273438 114 251.023438 C 113.851562 251.773438 113.476562 252.675781 112.875 253.125 C 112.125 253.726562 110.476562 254.25 109.5 254.101562 C 108.675781 253.949219 107.925781 253.425781 107.476562 252.824219 C 106.949219 252.300781 106.574219 251.398438 106.574219 250.648438 C 106.5 249.898438 106.726562 248.925781 107.175781 248.324219 C 107.773438 247.574219 108.824219 246.976562 110.324219 246.675781 C 113.550781 246.074219 121.425781 248.625 126.300781 248.773438 C 130.5 248.925781 135.523438 249.375 137.851562 248.175781 C 139.125 247.425781 139.726562 246 140.175781 244.875 C 140.625 243.898438 140.101562 242.625 140.625 241.800781 C 141.148438 240.976562 142.5 240 143.476562 239.851562 C 144.523438 239.699219 146.023438 240.375 146.773438 241.050781 C 147.375 241.726562 147.675781 243.601562 147.675781 243.601562 "/></clipPath><clipPath id="94efd7054f"><path d="M 103.179688 217.21875 L 124.898438 217.21875 L 124.898438 253.992188 L 103.179688 253.992188 Z M 103.179688 217.21875 "/></clipPath><clipPath id="84b8ff8cb3"><path d="M 108.523438 253.726562 C 103.875 248.550781 103.800781 247.273438 103.5 245.625 C 103.199219 243.523438 103.125 241.050781 103.273438 238.050781 C 103.5 233.925781 104.324219 226.050781 105.601562 222.898438 C 106.273438 221.25 107.023438 220.425781 108.074219 219.601562 C 109.050781 218.851562 110.023438 218.398438 111.523438 218.023438 C 113.851562 217.5 118.949219 217.125 121.050781 217.425781 C 122.101562 217.574219 122.699219 217.648438 123.300781 218.175781 C 124.050781 218.851562 124.726562 220.425781 124.800781 221.398438 C 124.800781 222.148438 124.425781 222.976562 123.898438 223.574219 C 123.375 224.175781 122.625 224.699219 121.875 224.851562 C 120.898438 224.925781 119.25 224.625 118.5 223.875 C 117.75 223.199219 117.148438 221.550781 117.375 220.574219 C 117.523438 219.523438 118.5 218.175781 119.476562 217.726562 C 120.375 217.351562 122.101562 217.425781 123 217.949219 C 123.898438 218.476562 124.726562 219.898438 124.800781 220.949219 C 124.875 222 124.273438 223.425781 123.300781 224.175781 C 121.800781 225.226562 117.148438 224.398438 115.199219 225.148438 C 113.773438 225.675781 112.800781 226.050781 112.050781 227.324219 C 110.550781 230.101562 110.699219 239.476562 110.773438 242.925781 C 110.773438 244.574219 110.625 245.699219 111.148438 246.601562 C 111.601562 247.425781 112.949219 247.574219 113.398438 248.324219 C 113.851562 249.074219 114.148438 250.050781 114 250.949219 C 113.851562 251.925781 112.949219 253.273438 111.976562 253.800781 C 111.074219 254.25 108.523438 253.726562 108.523438 253.726562 "/></clipPath><clipPath id="be8ed39a0c"><path d="M 113.375 216.945312 L 147.902344 216.945312 L 147.902344 232.292969 L 113.375 232.292969 Z M 113.375 216.945312 "/></clipPath><clipPath id="9fe5be9539"><path d="M 117.148438 217.5 C 137.398438 216.601562 140.023438 216.898438 141.898438 217.726562 C 143.25 218.324219 144.074219 219 144.976562 220.199219 C 146.25 222.074219 147.824219 226.574219 147.824219 228.523438 C 147.824219 229.5 147.601562 230.175781 147.074219 230.773438 C 146.398438 231.523438 144.898438 232.273438 143.925781 232.273438 C 142.875 232.199219 141.449219 231.300781 140.851562 230.476562 C 140.324219 229.574219 140.25 227.851562 140.699219 226.949219 C 141.148438 225.976562 142.574219 225.074219 143.476562 224.773438 C 144.300781 224.625 145.199219 224.851562 145.875 225.226562 C 146.550781 225.523438 147.226562 226.199219 147.523438 226.949219 C 147.824219 227.851562 147.75 229.574219 147.300781 230.476562 C 146.925781 231.148438 146.175781 231.675781 145.5 231.976562 C 144.75 232.273438 143.851562 232.351562 143.101562 232.125 C 142.351562 231.898438 141.75 231.523438 141.074219 230.773438 C 140.023438 229.5 140.476562 225.601562 138.375 224.25 C 134.550781 221.773438 118.648438 225.976562 115.425781 224.550781 C 114.300781 224.023438 114 223.273438 113.699219 222.523438 C 113.398438 222 113.324219 221.398438 113.476562 220.800781 C 113.550781 220.050781 114.074219 219 114.675781 218.398438 C 115.273438 217.875 117.148438 217.5 117.148438 217.5 "/></clipPath><clipPath id="7420adab5b"><path d="M 139.804688 223.152344 L 147.871094 223.152344 L 147.871094 248.730469 L 139.804688 248.730469 Z M 139.804688 223.152344 "/></clipPath><clipPath id="a4c67dca56"><path d="M 147.824219 226.949219 C 147.074219 247.5 146.023438 248.25 145.125 248.550781 C 144.375 248.851562 143.398438 248.699219 142.726562 248.398438 C 141.976562 248.175781 141.300781 247.5 140.925781 246.898438 C 140.476562 246.226562 140.25 245.324219 140.398438 244.574219 C 140.550781 243.601562 141.523438 242.175781 142.351562 241.648438 C 143.023438 241.199219 144 241.125 144.75 241.273438 C 145.5 241.351562 146.324219 241.726562 146.851562 242.398438 C 147.449219 243.148438 147.898438 244.800781 147.75 245.773438 C 147.675781 246.523438 147.074219 247.351562 146.550781 247.800781 C 145.949219 248.324219 145.050781 248.625 144.300781 248.699219 C 143.550781 248.699219 142.648438 248.476562 141.976562 248.023438 C 141.375 247.648438 140.925781 247.199219 140.550781 246.148438 C 139.5 243.148438 139.726562 230.25 140.324219 226.949219 C 140.550781 225.675781 140.699219 225.074219 141.300781 224.398438 C 141.976562 223.726562 143.550781 223.125 144.523438 223.199219 C 145.425781 223.273438 146.324219 223.800781 146.925781 224.398438 C 147.449219 225.074219 147.824219 226.949219 147.824219 226.949219 "/></clipPath><clipPath id="c592f2153d"><path d="M 135.066406 254.933594 L 187.613281 254.933594 L 187.613281 263.460938 L 135.066406 263.460938 Z M 135.066406 254.933594 "/></clipPath><clipPath id="00a89f119b"><path d="M 138.824219 255.675781 C 167.699219 255 181.5 254.476562 185.023438 255.75 C 186.148438 256.125 186.601562 256.5 186.976562 257.175781 C 187.425781 258 187.648438 259.726562 187.351562 260.625 C 187.125 261.449219 186.449219 262.125 185.773438 262.5 C 185.175781 262.875 184.199219 263.101562 183.449219 263.023438 C 182.699219 262.949219 181.800781 262.5 181.273438 261.976562 C 180.75 261.449219 180.226562 260.699219 180.148438 259.875 C 180.074219 258.898438 180.523438 257.25 181.273438 256.574219 C 182.023438 255.824219 183.675781 255.449219 184.648438 255.601562 C 185.476562 255.75 186.226562 256.273438 186.75 256.875 C 187.199219 257.398438 187.574219 258.300781 187.574219 259.050781 C 187.648438 259.800781 187.425781 260.773438 186.976562 261.375 C 186.375 262.125 185.476562 262.648438 183.824219 263.023438 C 179.25 264.148438 163.726562 262.425781 155.550781 262.5 C 149.25 262.574219 141.898438 263.625 138.824219 263.175781 C 137.550781 262.949219 136.949219 262.800781 136.273438 262.199219 C 135.601562 261.523438 135 259.949219 135.074219 258.898438 C 135.148438 258.074219 135.675781 257.101562 136.273438 256.574219 C 136.949219 256.050781 138.824219 255.675781 138.824219 255.675781 "/></clipPath><clipPath id="4a386c44b1"><path d="M 177.582031 254.679688 L 237.488281 254.679688 L 237.488281 263.738281 L 177.582031 263.738281 Z M 177.582031 254.679688 "/></clipPath><clipPath id="602eec990d"><path d="M 181.351562 255.523438 C 235.425781 255.074219 236.175781 255.523438 236.773438 256.273438 C 237.300781 256.949219 237.523438 257.851562 237.449219 258.601562 C 237.300781 259.574219 236.398438 261.074219 235.648438 261.601562 C 234.976562 262.125 234.074219 262.273438 233.324219 262.199219 C 232.574219 262.050781 231.675781 261.75 231.148438 261.148438 C 230.476562 260.476562 229.949219 258.824219 230.023438 257.851562 C 230.023438 257.023438 230.550781 256.273438 231.074219 255.75 C 231.675781 255.226562 232.5 254.773438 233.25 254.699219 C 234 254.625 234.976562 254.773438 235.574219 255.226562 C 236.398438 255.75 237.300781 257.25 237.449219 258.226562 C 237.523438 258.976562 237.300781 259.875 236.773438 260.550781 C 236.175781 261.300781 235.425781 261.75 233.699219 262.199219 C 226.949219 263.925781 187.574219 264.074219 181.351562 263.023438 C 179.925781 262.800781 179.476562 262.726562 178.875 262.050781 C 178.199219 261.375 177.601562 259.800781 177.601562 258.824219 C 177.675781 257.925781 178.273438 257.023438 178.875 256.5 C 179.476562 255.898438 181.351562 255.523438 181.351562 255.523438 "/></clipPath><clipPath id="9c8a24e982"><path d="M 135.949219 272.578125 L 187.390625 272.578125 L 187.390625 281.28125 L 135.949219 281.28125 Z M 135.949219 272.578125 "/></clipPath><clipPath id="31f6abcc60"><path d="M 139.726562 273.074219 C 185.324219 273 186.074219 273.449219 186.675781 274.199219 C 187.199219 274.800781 187.351562 275.773438 187.351562 276.523438 C 187.273438 277.273438 187.050781 278.175781 186.449219 278.699219 C 185.773438 279.449219 184.199219 280.050781 183.226562 280.050781 C 182.398438 279.976562 181.574219 279.523438 181.050781 279 C 180.449219 278.476562 179.925781 277.726562 179.925781 276.898438 C 179.851562 275.925781 180.300781 274.273438 181.050781 273.601562 C 181.800781 272.851562 183.449219 272.550781 184.425781 272.625 C 185.175781 272.773438 186 273.300781 186.449219 273.898438 C 186.976562 274.425781 187.273438 275.324219 187.351562 276.074219 C 187.351562 276.824219 187.199219 277.800781 186.675781 278.398438 C 186.074219 279.148438 185.324219 279.601562 183.601562 280.050781 C 177.523438 281.625 145.273438 281.550781 139.726562 280.574219 C 138.300781 280.351562 137.851562 280.273438 137.175781 279.675781 C 136.5 278.925781 135.898438 277.351562 135.976562 276.375 C 136.050781 275.550781 136.574219 274.574219 137.175781 274.050781 C 137.851562 273.523438 139.726562 273.074219 139.726562 273.074219 "/></clipPath><clipPath id="2f7da69fc2"><path d="M 176.230469 271.96875 L 239.570312 271.96875 L 239.570312 280.460938 L 176.230469 280.460938 Z M 176.230469 271.96875 "/></clipPath><clipPath id="511227da51"><path d="M 180 272.550781 C 235.648438 272.175781 238.273438 273 239.175781 273.898438 C 239.476562 274.273438 239.550781 274.574219 239.550781 275.023438 C 239.550781 275.851562 239.023438 277.648438 238.425781 278.398438 C 237.898438 279 237 279.300781 236.25 279.375 C 235.5 279.449219 234.523438 279.300781 233.925781 278.851562 C 233.25 278.476562 232.648438 277.726562 232.351562 277.050781 C 232.050781 276.375 231.976562 275.398438 232.199219 274.648438 C 232.574219 273.75 233.625 272.476562 234.601562 272.101562 C 235.648438 271.800781 237.300781 272.023438 238.125 272.699219 C 238.949219 273.300781 239.550781 274.875 239.550781 275.851562 C 239.625 276.675781 239.175781 277.5 238.726562 278.101562 C 238.199219 278.699219 237.375 279.148438 236.625 279.300781 C 235.875 279.449219 234.976562 279.375 234.226562 279.074219 C 233.550781 278.773438 232.726562 277.273438 232.5 277.425781 C 232.351562 277.5 233.175781 278.773438 232.875 279.148438 C 232.425781 279.75 230.550781 279.300781 228.148438 279.375 C 220.5 279.675781 185.925781 281.101562 180 280.050781 C 178.648438 279.824219 178.125 279.75 177.523438 279.148438 C 176.851562 278.398438 176.25 276.824219 176.25 275.851562 C 176.324219 275.023438 176.925781 274.050781 177.523438 273.523438 C 178.125 272.925781 180 272.550781 180 272.550781 "/></clipPath><clipPath id="c77b05a70d"><path d="M 123.472656 124.890625 L 136.632812 124.890625 L 136.632812 220.855469 L 123.472656 220.855469 Z M 123.472656 124.890625 "/></clipPath><clipPath id="536d458292"><path d="M 129 217.050781 C 127.050781 190.574219 127.273438 177 126.675781 167.550781 C 126.148438 160.050781 124.949219 154.199219 124.574219 147.449219 C 124.199219 140.550781 122.550781 129.601562 124.351562 126.601562 C 125.023438 125.398438 126.449219 125.023438 127.425781 124.949219 C 128.25 124.875 129.074219 125.25 129.675781 125.699219 C 130.273438 126.148438 130.875 126.898438 131.023438 127.648438 C 131.25 128.625 130.875 130.351562 130.351562 131.101562 C 129.824219 131.773438 129 132.226562 128.25 132.375 C 127.574219 132.523438 126.601562 132.523438 125.925781 132.074219 C 125.023438 131.625 123.898438 130.351562 123.75 129.300781 C 123.601562 128.324219 124.199219 126.75 124.875 126 C 125.398438 125.398438 126.226562 125.023438 127.050781 124.949219 C 128.023438 124.949219 129.601562 125.550781 130.273438 126.226562 C 130.875 126.824219 131.175781 127.726562 131.175781 128.476562 C 131.25 129.226562 130.574219 129.898438 130.574219 130.800781 C 130.574219 132 131.699219 133.273438 132 135.148438 C 132.449219 138.226562 131.851562 143.175781 132.148438 147.898438 C 132.449219 153.75 133.726562 160.273438 134.175781 167.699219 C 134.851562 177.074219 134.550781 190.574219 135 199.574219 C 135.375 206.25 136.949219 213.898438 136.5 217.050781 C 136.351562 218.25 136.199219 218.925781 135.601562 219.523438 C 134.851562 220.273438 133.273438 220.800781 132.300781 220.800781 C 131.476562 220.726562 130.5 220.125 129.976562 219.523438 C 129.375 218.925781 129 217.050781 129 217.050781 "/></clipPath><clipPath id="717d7153d8"><path d="M 118.296875 63.398438 L 131.828125 63.398438 L 131.828125 137.167969 L 118.296875 137.167969 Z M 118.296875 63.398438 "/></clipPath><clipPath id="4f3c92035c"><path d="M 124.125 133.425781 C 118.425781 66 118.5 65.625 119.023438 65.023438 C 119.625 64.273438 121.199219 63.523438 122.175781 63.449219 C 123 63.449219 123.824219 63.824219 124.425781 64.351562 C 125.023438 64.800781 125.550781 65.550781 125.699219 66.375 C 125.851562 67.351562 125.476562 69 124.800781 69.75 C 124.125 70.5 122.476562 71.023438 121.5 70.949219 C 120.675781 70.875 119.851562 70.425781 119.324219 69.824219 C 118.800781 69.300781 118.351562 68.476562 118.351562 67.726562 C 118.273438 66.75 118.800781 65.101562 119.550781 64.425781 C 120.375 63.75 122.023438 63.449219 123 63.601562 C 123.75 63.75 124.5 64.273438 125.023438 64.949219 C 125.625 65.773438 125.773438 66.601562 126.226562 68.625 C 127.875 76.875 132.601562 126.375 131.625 133.425781 C 131.398438 134.851562 131.324219 135.300781 130.648438 135.898438 C 129.976562 136.574219 128.398438 137.175781 127.425781 137.101562 C 126.601562 137.101562 125.625 136.5 125.101562 135.898438 C 124.5 135.300781 124.125 133.425781 124.125 133.425781 "/></clipPath><clipPath id="afeba22391"><path d="M 118.28125 63.472656 L 161 63.472656 L 161 92 L 118.28125 92 Z M 118.28125 63.472656 "/></clipPath><clipPath id="92be464b3d"><path d="M 123.449219 63.75 C 160.875 86.851562 160.875 87.375 160.949219 88.125 C 160.949219 88.875 160.648438 89.773438 160.199219 90.449219 C 159.75 91.050781 158.925781 91.574219 158.25 91.800781 C 157.5 92.023438 156.523438 92.023438 155.851562 91.726562 C 154.949219 91.273438 153.824219 90 153.523438 89.023438 C 153.300781 88.273438 153.449219 87.375 153.75 86.699219 C 154.050781 85.949219 154.648438 85.199219 155.324219 84.898438 C 156.226562 84.523438 157.949219 84.449219 158.851562 84.824219 C 159.601562 85.125 160.199219 85.875 160.574219 86.550781 C 160.875 87.226562 161.023438 88.199219 160.875 88.949219 C 160.648438 89.699219 160.273438 90.523438 159.601562 91.050781 C 158.851562 91.574219 157.875 92.101562 156.226562 91.800781 C 150.449219 90.898438 123.824219 74.101562 119.851562 70.273438 C 118.875 69.300781 118.574219 68.851562 118.351562 68.023438 C 118.199219 67.199219 118.351562 66.148438 118.726562 65.398438 C 119.175781 64.648438 120 63.976562 120.824219 63.675781 C 121.574219 63.449219 123.449219 63.75 123.449219 63.75 "/></clipPath><clipPath id="163c6c9883"><path d="M 153.382812 44.054688 L 191.144531 44.054688 L 191.144531 91.976562 L 153.382812 91.976562 Z M 153.382812 44.054688 "/></clipPath><clipPath id="5a8b443343"><path d="M 153.675781 86.851562 C 168.449219 64.273438 181.050781 47.851562 184.800781 45.074219 C 185.773438 44.324219 186.300781 44.25 187.050781 44.175781 C 187.800781 44.101562 188.699219 44.398438 189.375 44.773438 C 189.976562 45.226562 190.574219 45.976562 190.800781 46.726562 C 191.023438 47.398438 191.101562 48.375 190.800781 49.125 C 190.425781 50.023438 189.226562 51.148438 188.25 51.523438 C 187.5 51.824219 186.601562 51.75 185.851562 51.375 C 185.023438 51 183.824219 49.726562 183.601562 48.75 C 183.375 47.699219 183.898438 46.125 184.5 45.375 C 185.023438 44.699219 185.925781 44.324219 186.601562 44.25 C 187.351562 44.101562 188.324219 44.175781 189 44.625 C 189.824219 45.148438 190.800781 46.574219 190.949219 47.476562 C 191.175781 48.300781 191.023438 48.75 190.5 49.800781 C 188.550781 53.925781 175.273438 67.875 169.726562 75.449219 C 165.601562 81.148438 161.699219 89.101562 159.601562 91.050781 C 159 91.648438 158.625 91.726562 158.023438 91.875 C 157.273438 91.949219 156.148438 91.875 155.398438 91.5 C 154.648438 91.125 153.898438 90.226562 153.675781 89.476562 C 153.375 88.726562 153.675781 86.851562 153.675781 86.851562 "/></clipPath><clipPath id="72754d6109"><path d="M 183.476562 44.054688 L 223.773438 44.054688 L 223.773438 88.664062 L 183.476562 88.664062 Z M 183.476562 44.054688 "/></clipPath><clipPath id="ee2507dfe9"><path d="M 190.125 45.523438 C 213.675781 73.351562 221.773438 80.023438 223.273438 83.023438 C 223.800781 84.074219 223.726562 84.675781 223.648438 85.425781 C 223.5 86.175781 222.976562 87 222.449219 87.523438 C 221.851562 88.050781 221.023438 88.425781 220.273438 88.5 C 219.523438 88.5 218.550781 88.351562 217.949219 87.898438 C 217.125 87.300781 216.300781 85.800781 216.148438 84.824219 C 216.074219 84.074219 216.449219 83.175781 216.898438 82.574219 C 217.273438 81.976562 218.023438 81.300781 218.773438 81.148438 C 219.75 80.925781 221.476562 81.148438 222.300781 81.824219 C 223.050781 82.425781 223.648438 84.074219 223.648438 85.050781 C 223.648438 85.800781 223.199219 86.625 222.75 87.226562 C 222.226562 87.824219 221.398438 88.273438 220.648438 88.425781 C 219.898438 88.574219 219.300781 88.648438 218.25 88.125 C 214.949219 86.398438 206.550781 76.5 200.851562 70.199219 C 195.074219 63.675781 185.476562 53.324219 183.898438 49.574219 C 183.375 48.375 183.449219 47.773438 183.601562 46.949219 C 183.824219 46.125 184.5 45.226562 185.175781 44.773438 C 185.851562 44.324219 186.976562 44.101562 187.800781 44.175781 C 188.625 44.324219 190.125 45.523438 190.125 45.523438 "/></clipPath><clipPath id="c3003998ea"><path d="M 216 59.542969 L 257.402344 59.542969 L 257.402344 87.679688 L 216 87.679688 Z M 216 59.542969 "/></clipPath><clipPath id="fcb2726651"><path d="M 217.949219 80.699219 C 253.199219 59.550781 253.5 59.550781 254.101562 59.625 C 254.851562 59.851562 255.898438 60.375 256.425781 60.976562 C 256.875 61.425781 257.101562 61.949219 257.175781 62.550781 C 257.324219 63.300781 257.175781 64.5 256.800781 65.175781 C 256.574219 65.773438 256.199219 66.300781 255.601562 66.523438 C 254.550781 66.824219 251.101562 66 250.351562 65.324219 C 249.976562 65.023438 249.898438 64.648438 249.898438 64.199219 C 249.824219 63.375 250.199219 61.574219 250.800781 60.824219 C 251.324219 60.148438 252.148438 59.773438 252.898438 59.699219 C 253.648438 59.550781 254.625 59.625 255.300781 60.074219 C 256.125 60.601562 257.101562 62.023438 257.25 62.925781 C 257.398438 63.75 257.175781 64.648438 256.800781 65.324219 C 256.351562 65.925781 255.675781 66.601562 254.925781 66.824219 C 254.25 67.125 253.273438 67.199219 252.523438 66.976562 C 251.851562 66.824219 251.023438 66.300781 250.574219 65.625 C 250.050781 64.800781 249.675781 63.148438 249.976562 62.175781 C 250.351562 61.199219 251.550781 60.074219 252.523438 59.773438 C 253.5 59.476562 255.976562 60.375 255.976562 60.523438 C 255.976562 60.601562 251.550781 60.449219 251.476562 60.226562 C 251.476562 60.074219 252.601562 59.699219 253.199219 59.625 C 253.726562 59.550781 254.398438 59.625 254.925781 59.925781 C 255.675781 60.226562 256.574219 60.898438 256.875 61.726562 C 257.324219 62.625 257.324219 64.199219 256.800781 65.175781 C 256.273438 66.375 255.074219 66.898438 253.199219 68.25 C 247.949219 72 226.5 85.425781 221.699219 87.148438 C 220.425781 87.601562 219.898438 87.75 219.074219 87.601562 C 218.25 87.449219 217.351562 86.851562 216.824219 86.175781 C 216.375 85.5 216 84.449219 216.074219 83.625 C 216.226562 82.648438 217.949219 80.699219 217.949219 80.699219 "/></clipPath><clipPath id="c70422ac9c"><path d="M 243.582031 59.605469 L 257.191406 59.605469 L 257.191406 136.53125 L 243.582031 136.53125 Z M 243.582031 59.605469 "/></clipPath><clipPath id="eb251eec6f"><path d="M 257.175781 63.375 C 250.648438 133.648438 250.125 135.226562 249.375 135.976562 C 249 136.351562 248.773438 136.425781 248.25 136.5 C 247.425781 136.5 245.625 136.273438 244.875 135.601562 C 244.050781 134.925781 243.601562 133.273438 243.675781 132.300781 C 243.675781 131.550781 244.125 130.726562 244.726562 130.199219 C 245.476562 129.523438 247.125 129.074219 248.101562 129.148438 C 248.851562 129.226562 249.675781 129.675781 250.199219 130.351562 C 250.726562 131.101562 251.175781 132.75 251.023438 133.726562 C 250.875 134.550781 250.351562 135.300781 249.675781 135.75 C 248.925781 136.273438 247.199219 136.648438 246.226562 136.425781 C 245.476562 136.273438 244.726562 135.601562 244.351562 135 C 243.898438 134.398438 243.523438 133.5 243.601562 132.75 C 243.75 131.773438 245.25 130.648438 245.324219 129.675781 C 245.398438 128.773438 244.574219 128.550781 244.351562 126.976562 C 243.300781 119.773438 247.351562 69.074219 249.75 62.476562 C 250.199219 61.125 250.574219 60.75 251.25 60.300781 C 251.925781 59.851562 253.050781 59.550781 253.875 59.625 C 254.699219 59.773438 255.675781 60.300781 256.199219 60.898438 C 256.726562 61.5 257.175781 63.375 257.175781 63.375 "/></clipPath><clipPath id="3430e80afc"><path d="M 240.753906 116.710938 L 251.613281 116.710938 L 251.613281 193.160156 L 240.753906 193.160156 Z M 240.753906 116.710938 "/></clipPath><clipPath id="bc21014ba7"><path d="M 251.550781 120.523438 C 248.175781 191.625 247.800781 192 247.125 192.449219 C 246.449219 192.976562 245.324219 193.199219 244.5 193.125 C 243.675781 192.976562 242.699219 192.523438 242.175781 191.851562 C 241.574219 191.25 241.125 190.273438 241.199219 189.375 C 241.273438 188.398438 242.101562 186.898438 242.851562 186.300781 C 243.449219 185.773438 244.351562 185.550781 245.175781 185.625 C 246.148438 185.773438 247.574219 186.675781 248.175781 187.425781 C 248.625 188.101562 248.851562 189 248.699219 189.75 C 248.550781 190.726562 247.574219 192.148438 246.75 192.675781 C 246.074219 193.125 245.101562 193.199219 244.351562 193.050781 C 243.601562 192.976562 242.773438 192.601562 242.25 192 C 241.648438 191.25 241.199219 189.523438 241.273438 188.625 C 241.425781 187.800781 241.949219 187.050781 242.550781 186.523438 C 243.074219 186.074219 243.976562 185.699219 244.726562 185.625 C 245.476562 185.625 246.449219 185.851562 247.050781 186.300781 C 247.648438 186.675781 248.324219 187.351562 248.550781 188.175781 C 248.773438 189.148438 248.324219 191.101562 247.800781 191.851562 C 247.425781 192.449219 246.898438 192.675781 246.300781 192.898438 C 245.550781 193.125 244.351562 193.125 243.601562 192.898438 C 243 192.675781 242.550781 192.375 242.175781 191.851562 C 241.726562 191.25 241.425781 190.800781 241.199219 189.375 C 240 182.023438 241.800781 126.523438 244.125 119.625 C 244.574219 118.273438 244.949219 117.898438 245.699219 117.449219 C 246.375 116.925781 247.425781 116.699219 248.25 116.773438 C 249.074219 116.851562 250.050781 117.375 250.574219 118.050781 C 251.175781 118.648438 251.550781 120.523438 251.550781 120.523438 "/></clipPath><clipPath id="825552028a"><path d="M 240.230469 182.011719 L 248.734375 182.011719 L 248.734375 219.054688 L 240.230469 219.054688 Z M 240.230469 182.011719 "/></clipPath><clipPath id="63a1bf1129"><path d="M 248.699219 185.773438 C 247.648438 211.875 247.199219 212.101562 247.125 213 C 247.050781 214.050781 248.101562 215.476562 247.800781 216.449219 C 247.5 217.425781 246.300781 218.625 245.324219 218.925781 C 244.273438 219.226562 242.625 218.925781 241.875 218.25 C 241.050781 217.574219 240.375 216.074219 240.449219 215.023438 C 240.523438 213.976562 241.425781 212.550781 242.324219 212.101562 C 243.226562 211.574219 244.949219 211.5 245.851562 211.949219 C 246.824219 212.476562 247.726562 213.898438 247.875 214.875 C 248.101562 215.625 247.800781 216.523438 247.425781 217.199219 C 247.050781 217.875 246.449219 218.550781 245.699219 218.773438 C 244.726562 219.074219 242.925781 218.851562 242.175781 218.476562 C 241.726562 218.324219 241.5 218.175781 241.273438 217.648438 C 240.675781 216.523438 240.523438 213.75 240.375 210.601562 C 240.148438 204.75 240.074219 188.699219 241.351562 184.875 C 241.726562 183.675781 242.175781 183.148438 242.851562 182.699219 C 243.523438 182.25 244.574219 181.949219 245.398438 182.101562 C 246.226562 182.175781 247.199219 182.699219 247.800781 183.300781 C 248.324219 183.898438 248.699219 185.773438 248.699219 185.773438 "/></clipPath><clipPath id="9f8c34387f"><path d="M 156.851562 123.371094 L 178.789062 123.371094 L 178.789062 144.675781 L 156.851562 144.675781 Z M 156.851562 123.371094 "/></clipPath><clipPath id="88421629f1"><path d="M 156.898438 133.425781 C 158.101562 128.101562 159.074219 126.898438 160.050781 126.074219 C 161.023438 125.25 162.300781 124.726562 163.5 124.273438 C 164.625 123.824219 165.976562 123.601562 167.175781 123.523438 C 168.449219 123.449219 169.800781 123.375 171 123.675781 C 172.199219 124.050781 173.476562 124.648438 174.449219 125.476562 C 175.425781 126.226562 176.175781 127.273438 176.851562 128.324219 C 177.449219 129.449219 177.976562 130.800781 178.351562 132.074219 C 178.648438 133.273438 178.800781 134.625 178.648438 135.824219 C 178.5 137.175781 178.050781 138.523438 177.449219 139.648438 C 176.773438 140.773438 175.875 141.75 174.824219 142.574219 C 173.851562 143.324219 172.648438 144 171.449219 144.300781 C 170.25 144.675781 168.898438 144.601562 167.625 144.449219 C 166.425781 144.375 165 144.300781 163.949219 143.851562 C 162.976562 143.398438 162.300781 142.351562 161.476562 141.824219 C 160.875 141.375 160.351562 141.375 159.75 140.851562 C 159 140.023438 157.949219 138.523438 157.5 137.324219 C 157.050781 136.125 156.898438 133.425781 156.898438 133.425781 M 164.398438 131.851562 C 165.074219 135.074219 165.148438 135.074219 165.148438 135.074219 C 165.148438 135.074219 168.523438 137.699219 169.5 137.398438 C 170.398438 137.023438 171.226562 134.851562 171 133.800781 C 170.851562 132.75 169.5 131.25 168.449219 130.875 C 167.324219 130.574219 164.398438 131.851562 164.398438 131.851562 "/></clipPath><clipPath id="e09057a1de"><path d="M 157.144531 157.039062 L 178.734375 157.039062 L 178.734375 179.691406 L 157.144531 179.691406 Z M 157.144531 157.039062 "/></clipPath><clipPath id="b760735d0f"><path d="M 159.898438 174.75 C 157.050781 168.675781 157.050781 167.476562 157.273438 166.199219 C 157.574219 164.773438 158.324219 163.125 159.148438 161.925781 C 160.050781 160.726562 161.25 159.601562 162.449219 158.851562 C 163.574219 158.101562 164.773438 157.574219 166.050781 157.351562 C 167.25 157.050781 168.601562 157.050781 169.800781 157.273438 C 171 157.425781 172.273438 157.949219 173.324219 158.625 C 174.523438 159.375 175.648438 160.351562 176.476562 161.398438 C 177.226562 162.449219 177.75 163.5 178.125 164.925781 C 178.648438 166.949219 178.949219 170.851562 178.425781 172.875 C 178.125 174.226562 177.375 175.199219 176.550781 176.175781 C 175.726562 177.148438 174.824219 178.199219 173.398438 178.800781 C 171.449219 179.550781 167.476562 179.851562 165.375 179.476562 C 163.875 179.25 162.976562 178.726562 161.773438 177.824219 C 160.199219 176.550781 157.574219 173.699219 157.273438 171.976562 C 157.050781 170.773438 157.648438 169.351562 158.398438 168.601562 C 159.148438 167.925781 160.800781 167.476562 161.773438 167.699219 C 162.824219 167.925781 164.101562 169.050781 164.476562 170.023438 C 164.851562 171 164.550781 172.648438 164.023438 173.550781 C 163.648438 174.226562 162.824219 174.675781 162.148438 174.976562 C 161.398438 175.199219 160.5 175.273438 159.75 174.898438 C 158.851562 174.523438 157.574219 173.324219 157.351562 172.351562 C 157.050781 171.375 157.425781 169.726562 158.101562 168.898438 C 158.773438 168.148438 160.425781 167.625 161.398438 167.625 C 162.226562 167.699219 162.898438 168.148438 163.574219 168.675781 C 164.476562 169.425781 164.925781 171.449219 165.976562 172.050781 C 167.023438 172.648438 168.898438 172.875 169.800781 172.351562 C 170.625 171.824219 171.226562 169.949219 171.226562 168.75 C 171.226562 167.625 170.699219 165.824219 169.875 165.226562 C 168.976562 164.699219 166.800781 164.699219 166.050781 165.300781 C 165.226562 165.976562 165.148438 168.074219 165.300781 169.351562 C 165.375 170.625 166.726562 171.824219 166.648438 172.875 C 166.648438 173.699219 166.125 174.675781 165.523438 175.199219 C 164.851562 175.800781 163.875 176.25 163.050781 176.25 C 162.074219 176.25 159.898438 174.75 159.898438 174.75 "/></clipPath><clipPath id="29cc0167fb"><path d="M 156.863281 192.484375 L 179.070312 192.484375 L 179.070312 213.746094 L 156.863281 213.746094 Z M 156.863281 192.484375 "/></clipPath><clipPath id="e6fdd6f52a"><path d="M 156.898438 206.625 C 157.800781 202.800781 157.800781 202.800781 157.726562 202.648438 C 157.726562 202.425781 157.800781 201.824219 157.875 201.449219 C 157.949219 201.226562 158.101562 201.148438 158.175781 200.851562 C 158.324219 200.324219 158.175781 199.273438 158.476562 198.449219 C 158.925781 197.476562 160.050781 196.351562 161.023438 195.523438 C 161.925781 194.699219 163.050781 193.800781 164.25 193.351562 C 165.375 192.824219 166.726562 192.601562 168 192.523438 C 169.351562 192.449219 170.851562 192.523438 172.125 192.976562 C 173.324219 193.425781 174.449219 194.25 175.273438 195.226562 C 176.175781 196.199219 176.550781 197.476562 177.148438 198.675781 C 177.75 199.875 178.574219 201.148438 178.875 202.425781 C 179.101562 203.625 179.023438 205.050781 178.726562 206.25 C 178.351562 207.449219 177.675781 208.726562 176.851562 209.699219 C 176.023438 210.75 174.898438 211.648438 173.773438 212.25 C 172.648438 212.925781 171.449219 213.226562 170.175781 213.449219 C 168.824219 213.675781 167.175781 213.824219 165.824219 213.601562 C 164.550781 213.375 163.273438 212.699219 162.148438 212.101562 C 161.023438 211.5 159.824219 210.898438 159 210 C 158.101562 209.101562 156.898438 206.625 156.898438 206.625 M 165.074219 205.199219 C 165.976562 205.5 168.300781 206.550781 169.199219 206.101562 C 170.101562 205.648438 171 203.699219 170.773438 202.648438 C 170.625 201.675781 168.976562 200.023438 168.074219 200.023438 C 167.175781 200.023438 165.675781 201.976562 165.375 202.726562 C 165.226562 203.101562 165.375 203.398438 165.375 203.699219 C 165.375 204.074219 165.300781 204.375 165.226562 204.601562 C 165.226562 204.824219 165.074219 205.199219 165.074219 205.199219 "/></clipPath><clipPath id="dcb9d71212"><path d="M 198.78125 123.730469 L 218.820312 123.730469 L 218.820312 144.570312 L 198.78125 144.570312 Z M 198.78125 123.730469 "/></clipPath><clipPath id="76235218b5"><path d="M 200.925781 140.175781 C 198.75 134.25 198.75 132.976562 198.976562 131.773438 C 199.199219 130.5 199.726562 129.148438 200.476562 128.023438 C 201.148438 126.976562 202.125 125.851562 203.25 125.101562 C 204.300781 124.425781 205.800781 123.976562 207.148438 123.824219 C 208.351562 123.675781 209.550781 123.75 210.824219 124.273438 C 212.699219 125.101562 215.398438 127.425781 216.675781 129.148438 C 217.726562 130.5 218.175781 131.925781 218.476562 133.351562 C 218.773438 134.699219 218.925781 136.273438 218.550781 137.550781 C 218.25 138.898438 217.351562 140.25 216.449219 141.226562 C 215.476562 142.273438 214.125 143.023438 212.925781 143.550781 C 211.726562 144.074219 210.375 144.375 209.023438 144.449219 C 207.601562 144.523438 205.949219 144.523438 204.601562 144.074219 C 203.476562 143.625 202.273438 142.949219 201.523438 142.125 C 200.851562 141.226562 200.175781 139.875 200.25 138.824219 C 200.398438 137.773438 201.300781 136.425781 202.273438 135.898438 C 203.175781 135.449219 204.824219 135.449219 205.726562 135.898438 C 206.699219 136.425781 207.601562 137.851562 207.75 138.824219 C 207.824219 139.875 207.226562 141.449219 206.398438 142.125 C 205.648438 142.800781 204 143.101562 202.949219 142.875 C 201.976562 142.574219 200.851562 141.300781 200.398438 140.398438 C 200.101562 139.648438 200.175781 138.75 200.476562 138 C 200.699219 137.324219 201.300781 136.574219 201.898438 136.125 C 202.5 135.675781 203.398438 135.449219 204.226562 135.523438 C 205.199219 135.601562 206.175781 136.726562 207.300781 136.949219 C 208.5 137.175781 210.601562 137.550781 211.125 136.949219 C 211.574219 136.273438 210.976562 133.949219 210.226562 133.125 C 209.476562 132.226562 206.925781 131.398438 206.398438 131.925781 C 205.800781 132.523438 207.824219 136.050781 207.976562 137.625 C 208.050781 138.675781 207.898438 139.574219 207.601562 140.25 C 207.300781 140.773438 206.925781 141.226562 206.398438 141.601562 C 205.726562 141.976562 204.675781 142.351562 203.773438 142.199219 C 202.800781 141.976562 200.925781 140.175781 200.925781 140.175781 "/></clipPath><clipPath id="0727783aa4"><path d="M 197.621094 158.671875 L 217.703125 158.671875 L 217.703125 178.351562 L 197.621094 178.351562 Z M 197.621094 158.671875 "/></clipPath><clipPath id="e094e8d300"><path d="M 197.625 169.425781 C 198.226562 164.324219 199.125 162.824219 200.101562 161.773438 C 201 160.800781 202.199219 159.976562 203.398438 159.523438 C 204.601562 159 205.949219 158.773438 207.226562 158.773438 C 208.425781 158.699219 209.773438 158.851562 210.898438 159.300781 C 212.175781 159.75 213.300781 160.574219 214.351562 161.476562 C 215.398438 162.449219 216.449219 163.875 216.976562 165.148438 C 217.5 166.273438 217.648438 167.625 217.648438 168.824219 C 217.648438 170.101562 217.425781 171.449219 216.976562 172.648438 C 216.523438 173.851562 215.851562 175.125 214.875 175.949219 C 213.898438 176.851562 212.550781 177.523438 211.273438 177.898438 C 210 178.273438 208.726562 178.351562 207.375 178.351562 C 206.023438 178.273438 204.375 178.199219 203.25 177.675781 C 202.351562 177.226562 201.675781 175.949219 201.148438 175.574219 C 200.925781 175.425781 200.773438 175.425781 200.625 175.273438 C 200.398438 175.125 200.101562 174.898438 199.949219 174.675781 C 199.726562 174.449219 199.351562 174 199.351562 174 C 199.351562 174 199.050781 173.476562 198.824219 173.023438 C 198.523438 172.199219 197.625 169.425781 197.625 169.425781 M 205.425781 169.425781 C 205.5 169.5 205.5 169.5 205.5 169.5 C 205.574219 169.574219 205.800781 169.800781 205.800781 169.800781 C 205.800781 169.800781 206.324219 170.773438 206.773438 170.851562 C 207.523438 170.925781 210 169.726562 210.148438 168.976562 C 210.226562 168.226562 208.273438 166.199219 207.523438 166.273438 C 206.699219 166.351562 205.425781 169.425781 205.425781 169.425781 "/></clipPath><clipPath id="16eccec202"><path d="M 196.746094 193.746094 L 217.355469 193.746094 L 217.355469 213 L 196.746094 213 Z M 196.746094 193.746094 "/></clipPath><clipPath id="64a5519075"><path d="M 196.800781 202.574219 C 198.148438 197.773438 199.199219 196.726562 200.324219 195.976562 C 201.375 195.148438 202.875 194.476562 204.148438 194.101562 C 205.425781 193.800781 206.699219 193.800781 207.976562 193.800781 C 209.25 193.875 210.675781 194.023438 211.875 194.476562 C 213.074219 195 214.351562 195.824219 215.25 196.800781 C 216.074219 197.773438 216.824219 199.050781 217.125 200.324219 C 217.425781 201.523438 217.351562 202.949219 217.125 204.226562 C 216.976562 205.425781 216.675781 206.773438 216.074219 207.898438 C 215.476562 209.023438 214.574219 210.074219 213.523438 210.898438 C 212.550781 211.726562 211.199219 212.324219 209.925781 212.699219 C 208.648438 213 207.300781 213.074219 206.101562 212.925781 C 204.824219 212.773438 203.625 212.324219 202.5 211.726562 C 201.300781 211.050781 200.023438 209.851562 199.351562 208.949219 C 198.898438 208.425781 198.601562 207.601562 198.449219 207.375 C 198.375 207.300781 198.375 207.226562 198.300781 207.226562 C 198.226562 207.074219 198.074219 207.074219 198 206.925781 C 197.851562 206.699219 197.550781 206.101562 197.476562 205.800781 C 197.398438 205.726562 197.398438 205.648438 197.398438 205.574219 C 197.398438 205.5 197.324219 205.5 197.324219 205.425781 C 197.324219 205.351562 197.324219 205.199219 197.324219 205.050781 C 197.324219 204.898438 197.25 204.75 197.25 204.601562 C 197.25 204.601562 197.25 204.601562 197.25 204.523438 C 197.25 204.300781 196.800781 202.574219 196.800781 202.574219 M 204.226562 202.5 C 204.824219 203.625 204.824219 203.925781 205.050781 204.074219 C 205.648438 204.601562 208.574219 205.574219 209.023438 205.125 C 209.476562 204.675781 208.726562 201.75 207.898438 201.300781 C 207.074219 200.925781 204.226562 202.5 204.226562 202.5 "/></clipPath><clipPath id="dbc23f596a"><path d="M 152.226562 275.914062 L 160.867188 275.914062 L 160.867188 309.746094 L 152.226562 309.746094 Z M 152.226562 275.914062 "/></clipPath><clipPath id="2601d9a9e1"><path d="M 160.125 279.675781 C 160.050781 308.625 159 309.226562 158.101562 309.601562 C 157.351562 309.824219 156.375 309.75 155.699219 309.449219 C 154.949219 309.148438 154.273438 308.550781 153.824219 307.875 C 153.449219 307.199219 153.226562 306.300781 153.375 305.550781 C 153.523438 304.574219 154.5 303.148438 155.324219 302.625 C 156 302.175781 156.898438 302.101562 157.648438 302.25 C 158.398438 302.398438 159.300781 302.851562 159.824219 303.375 C 160.351562 303.898438 160.726562 304.800781 160.800781 305.550781 C 160.875 306.300781 160.726562 307.199219 160.273438 307.875 C 159.75 308.699219 158.25 309.601562 157.273438 309.675781 C 156.449219 309.824219 155.625 309.523438 154.949219 309.074219 C 154.199219 308.476562 153.75 307.574219 153.300781 305.925781 C 152.175781 301.5 151.949219 283.726562 152.625 279.675781 C 152.851562 278.398438 153 277.800781 153.601562 277.199219 C 154.273438 276.449219 155.851562 275.925781 156.824219 275.925781 C 157.726562 276 158.625 276.601562 159.226562 277.199219 C 159.75 277.800781 160.125 279.675781 160.125 279.675781 "/></clipPath><clipPath id="7f416d8912"><path d="M 173.140625 278.132812 L 181.578125 278.132812 L 181.578125 311.441406 L 173.140625 311.441406 Z M 173.140625 278.132812 "/></clipPath><clipPath id="780b169bac"><path d="M 181.011719 281.925781 C 181.238281 309.449219 181.085938 309.75 180.636719 310.125 C 180.039062 310.726562 179.0625 311.324219 178.238281 311.398438 C 177.414062 311.476562 176.363281 311.175781 175.6875 310.800781 C 175.164062 310.425781 174.789062 309.898438 174.488281 309.449219 C 174.1875 308.925781 174.039062 308.324219 174.039062 307.648438 C 174.113281 306.976562 174.335938 306 174.789062 305.398438 C 175.3125 304.800781 176.0625 304.273438 176.8125 304.050781 C 177.5625 303.824219 178.460938 303.824219 179.210938 304.199219 C 180.039062 304.648438 181.164062 305.925781 181.460938 306.898438 C 181.6875 307.648438 181.539062 308.550781 181.238281 309.226562 C 180.863281 309.898438 180.261719 310.648438 179.585938 311.023438 C 178.914062 311.324219 177.9375 311.476562 177.1875 311.398438 C 176.4375 311.25 175.613281 310.875 175.085938 310.273438 C 174.488281 309.523438 174.039062 307.800781 174.113281 306.898438 C 174.261719 306.074219 174.789062 305.324219 175.386719 304.800781 C 175.988281 304.351562 176.8125 303.898438 177.636719 303.898438 C 178.613281 303.976562 180.113281 304.648438 180.789062 305.398438 C 181.3125 306 181.539062 306.976562 181.539062 307.648438 C 181.613281 308.25 181.386719 308.925781 181.164062 309.449219 C 180.863281 309.898438 180.488281 310.425781 179.960938 310.726562 C 179.289062 311.175781 178.164062 311.476562 177.335938 311.398438 C 176.511719 311.324219 175.539062 310.726562 175.011719 310.199219 C 174.5625 309.75 174.414062 309.449219 174.1875 308.550781 C 173.289062 305.101562 172.835938 286.050781 173.511719 281.925781 C 173.738281 280.648438 173.886719 280.050781 174.488281 279.449219 C 175.164062 278.699219 176.738281 278.101562 177.710938 278.175781 C 178.613281 278.25 179.511719 278.773438 180.113281 279.449219 C 180.636719 280.050781 181.011719 281.925781 181.011719 281.925781 "/></clipPath><clipPath id="64e686d240"><path d="M 193.664062 274.296875 L 201.972656 274.296875 L 201.972656 308.933594 L 193.664062 308.933594 Z M 193.664062 274.296875 "/></clipPath><clipPath id="32071e9388"><path d="M 201.75 278.101562 C 201.449219 307.574219 200.925781 307.949219 200.324219 308.324219 C 199.648438 308.699219 198.75 309 197.925781 308.851562 C 197.023438 308.699219 195.523438 307.726562 195 306.976562 C 194.550781 306.300781 194.398438 305.398438 194.625 304.574219 C 194.851562 303.675781 195.824219 302.25 196.648438 301.726562 C 197.398438 301.351562 198.300781 301.351562 199.050781 301.5 C 199.800781 301.648438 200.625 302.023438 201.148438 302.699219 C 201.675781 303.449219 202.125 305.101562 201.898438 306.074219 C 201.824219 306.898438 201.226562 307.648438 200.625 308.101562 C 200.023438 308.550781 199.125 308.851562 198.375 308.925781 C 197.625 308.925781 196.726562 308.625 196.050781 308.175781 C 195.449219 307.726562 195.074219 307.351562 194.699219 306.226562 C 193.425781 302.324219 193.5 282.375 194.25 278.101562 C 194.476562 276.75 194.550781 276.226562 195.148438 275.625 C 195.898438 274.875 197.476562 274.351562 198.449219 274.351562 C 199.273438 274.425781 200.25 275.023438 200.773438 275.625 C 201.300781 276.226562 201.75 278.101562 201.75 278.101562 "/></clipPath><clipPath id="8b4d82cc4c"><path d="M 213.257812 276.660156 L 221.46875 276.660156 L 221.46875 308.972656 L 213.257812 308.972656 Z M 213.257812 276.660156 "/></clipPath><clipPath id="9d78b8c12d"><path d="M 221.25 280.425781 C 220.875 307.273438 220.351562 307.800781 219.75 308.25 C 219.300781 308.625 218.699219 308.851562 218.101562 308.925781 C 217.351562 308.925781 216.148438 308.699219 215.476562 308.25 C 214.949219 307.949219 214.574219 307.425781 214.351562 306.898438 C 214.050781 306.449219 213.824219 305.773438 213.898438 305.175781 C 213.898438 304.5 214.199219 303.523438 214.648438 302.925781 C 215.101562 302.324219 215.925781 301.800781 216.601562 301.574219 C 217.351562 301.351562 218.324219 301.425781 219 301.726562 C 219.75 301.949219 220.425781 302.625 220.875 303.226562 C 221.25 303.898438 221.550781 304.800781 221.398438 305.625 C 221.175781 306.523438 220.199219 307.949219 219.375 308.476562 C 218.699219 308.925781 217.800781 309 217.050781 308.851562 C 216.300781 308.773438 215.398438 308.398438 214.949219 307.800781 C 214.273438 306.976562 213.824219 305.324219 213.976562 304.351562 C 214.050781 303.601562 214.648438 302.851562 215.175781 302.324219 C 215.773438 301.875 216.601562 301.425781 217.425781 301.425781 C 218.398438 301.5 219.976562 302.175781 220.648438 302.925781 C 221.175781 303.523438 221.324219 304.5 221.398438 305.175781 C 221.398438 305.773438 221.25 306.449219 220.949219 306.898438 C 220.648438 307.425781 220.273438 307.949219 219.75 308.25 C 219.148438 308.699219 218.023438 309 217.199219 308.925781 C 216.375 308.773438 215.398438 308.324219 214.800781 307.648438 C 214.273438 307.050781 214.125 306.449219 213.898438 305.175781 C 213.148438 301.273438 213.074219 284.398438 213.75 280.425781 C 213.976562 279.148438 214.125 278.550781 214.726562 277.949219 C 215.398438 277.273438 216.976562 276.675781 217.949219 276.675781 C 218.851562 276.75 219.75 277.351562 220.351562 277.949219 C 220.875 278.550781 221.25 280.425781 221.25 280.425781 "/></clipPath></defs><g id="41a2e28331"><g clip-rule="nonzero" clip-path="url(#fdc773a2ba)"><g clip-rule="nonzero" clip-path="url(#b66bab1dfd)"><path style=" stroke:none;fill-rule:nonzero;fill:currentColor;fill-opacity:1;" d="M 81.675781 302.773438 L 116.378906 302.773438 L 116.378906 336.300781 L 81.675781 336.300781 Z M 81.675781 302.773438 "/></g></g><g clip-rule="nonzero" clip-path="url(#4cfa346030)"><g clip-rule="nonzero" clip-path="url(#8004f174af)"><path style=" stroke:none;fill-rule:nonzero;fill:currentColor;fill-opacity:1;" d="M 100.574219 302.101562 L 217.582031 302.101562 L 217.582031 316.351562 L 100.574219 316.351562 Z M 100.574219 302.101562 "/></g></g><g clip-rule="nonzero" clip-path="url(#17b54a51d0)"><g clip-rule="nonzero" clip-path="url(#634513eeff)"><path style=" stroke:none;fill-rule:nonzero;fill:currentColor;fill-opacity:1;" d="M 199.125 300.824219 L 284.765625 300.824219 L 284.765625 316.050781 L 199.125 316.050781 Z M 199.125 300.824219 "/></g></g><g clip-rule="nonzero" clip-path="url(#e7fad0b221)"><g clip-rule="nonzero" clip-path="url(#fa541485e0)"><path style=" stroke:none;fill-rule:nonzero;fill:currentColor;fill-opacity:1;" d="M 258.148438 301.5 L 293.324219 301.5 L 293.324219 337.5 L 258.148438 337.5 Z M 258.148438 301.5 "/></g></g><g clip-rule="nonzero" clip-path="url(#2acc28fc3a)"><g clip-rule="nonzero" clip-path="url(#a6ea9496ca)"><path style=" stroke:none;fill-rule:nonzero;fill:currentColor;fill-opacity:1;" d="M 175.800781 323.625 L 275.226562 323.625 L 275.226562 337.199219 L 175.800781 337.199219 Z M 175.800781 323.625 "/></g></g><g clip-rule="nonzero" clip-path="url(#0f224193bb)"><g clip-rule="nonzero" clip-path="url(#c4e208b8db)"><path style=" stroke:none;fill-rule:nonzero;fill:currentColor;fill-opacity:1;" d="M 90 322.648438 L 173.167969 322.648438 L 173.167969 336.824219 L 90 336.824219 Z M 90 322.648438 "/></g></g><g clip-rule="nonzero" clip-path="url(#1624121710)"><g clip-rule="nonzero" clip-path="url(#bb6b2d8ce5)"><path style=" stroke:none;fill-rule:nonzero;fill:currentColor;fill-opacity:1;" d="M 154.351562 322.574219 L 205.519531 322.574219 L 205.519531 337.050781 L 154.351562 337.050781 Z M 154.351562 322.574219 "/></g></g><g clip-rule="nonzero" clip-path="url(#820ad64abf)"><g clip-rule="nonzero" clip-path="url(#9e6219cd0c)"><path style=" stroke:none;fill-rule:nonzero;fill:currentColor;fill-opacity:1;" d="M 112.875 250.125 L 127.050781 250.125 L 127.050781 312.472656 L 112.875 312.472656 Z M 112.875 250.125 "/></g></g><g clip-rule="nonzero" clip-path="url(#835d3f9a46)"><g clip-rule="nonzero" clip-path="url(#2f9892ed8f)"><path style=" stroke:none;fill-rule:nonzero;fill:currentColor;fill-opacity:1;" d="M 130.273438 248.324219 L 144 248.324219 L 144 311.910156 L 130.273438 311.910156 Z M 130.273438 248.324219 "/></g></g><g clip-rule="nonzero" clip-path="url(#b1924e16e1)"><g clip-rule="nonzero" clip-path="url(#b1056144e2)"><path style=" stroke:none;fill-rule:nonzero;fill:currentColor;fill-opacity:1;" d="M 229.125 246.75 L 244.726562 246.75 L 244.726562 310.796875 L 229.125 310.796875 Z M 229.125 246.75 "/></g></g><g clip-rule="nonzero" clip-path="url(#5603a0ab97)"><g clip-rule="nonzero" clip-path="url(#c984e5a37d)"><path style=" stroke:none;fill-rule:nonzero;fill:currentColor;fill-opacity:1;" d="M 246.375 244.726562 L 263.101562 244.726562 L 263.101562 311.429688 L 246.375 311.429688 Z M 246.375 244.726562 "/></g></g><g clip-rule="nonzero" clip-path="url(#519f472cd5)"><g clip-rule="nonzero" clip-path="url(#8bc913c68c)"><path style=" stroke:none;fill-rule:nonzero;fill:currentColor;fill-opacity:1;" d="M 222.824219 225.148438 L 272.753906 225.148438 L 272.753906 257.925781 L 222.824219 257.925781 Z M 222.824219 225.148438 "/></g></g><g clip-rule="nonzero" clip-path="url(#d797adacd8)"><g clip-rule="nonzero" clip-path="url(#6df1b72b5d)"><path style=" stroke:none;fill-rule:nonzero;fill:currentColor;fill-opacity:1;" d="M 223.125 211.726562 L 272.0625 211.726562 L 272.0625 240.523438 L 223.125 240.523438 Z M 223.125 211.726562 "/></g></g><g clip-rule="nonzero" clip-path="url(#28df34dece)"><g clip-rule="nonzero" clip-path="url(#a10340b56a)"><path style=" stroke:none;fill-rule:nonzero;fill:currentColor;fill-opacity:1;" d="M 255.75 212.101562 L 275.25 212.101562 L 275.25 257.878906 L 255.75 257.878906 Z M 255.75 212.101562 "/></g></g><g clip-rule="nonzero" clip-path="url(#3210839427)"><g clip-rule="nonzero" clip-path="url(#d1f1411bb2)"><path style=" stroke:none;fill-rule:nonzero;fill:currentColor;fill-opacity:1;" d="M 103.574219 236.851562 L 150.71875 236.851562 L 150.71875 259.199219 L 103.574219 259.199219 Z M 103.574219 236.851562 "/></g></g><g clip-rule="nonzero" clip-path="url(#94efd7054f)"><g clip-rule="nonzero" clip-path="url(#84b8ff8cb3)"><path style=" stroke:none;fill-rule:nonzero;fill:currentColor;fill-opacity:1;" d="M 100.273438 214.425781 L 127.800781 214.425781 L 127.800781 256.789062 L 100.273438 256.789062 Z M 100.273438 214.425781 "/></g></g><g clip-rule="nonzero" clip-path="url(#be8ed39a0c)"><g clip-rule="nonzero" clip-path="url(#9fe5be9539)"><path style=" stroke:none;fill-rule:nonzero;fill:currentColor;fill-opacity:1;" d="M 110.476562 213.449219 L 150.886719 213.449219 L 150.886719 235.273438 L 110.476562 235.273438 Z M 110.476562 213.449219 "/></g></g><g clip-rule="nonzero" clip-path="url(#7420adab5b)"><g clip-rule="nonzero" clip-path="url(#a4c67dca56)"><path style=" stroke:none;fill-rule:nonzero;fill:currentColor;fill-opacity:1;" d="M 137.324219 220.199219 L 150.824219 220.199219 L 150.824219 251.683594 L 137.324219 251.683594 Z M 137.324219 220.199219 "/></g></g><g clip-rule="nonzero" clip-path="url(#c592f2153d)"><g clip-rule="nonzero" clip-path="url(#00a89f119b)"><path style=" stroke:none;fill-rule:nonzero;fill:currentColor;fill-opacity:1;" d="M 132.074219 252 L 190.65625 252 L 190.65625 266.175781 L 132.074219 266.175781 Z M 132.074219 252 "/></g></g><g clip-rule="nonzero" clip-path="url(#4a386c44b1)"><g clip-rule="nonzero" clip-path="url(#602eec990d)"><path style=" stroke:none;fill-rule:nonzero;fill:currentColor;fill-opacity:1;" d="M 174.601562 251.699219 L 240.46875 251.699219 L 240.46875 266.101562 L 174.601562 266.101562 Z M 174.601562 251.699219 "/></g></g><g clip-rule="nonzero" clip-path="url(#9c8a24e982)"><g clip-rule="nonzero" clip-path="url(#31f6abcc60)"><path style=" stroke:none;fill-rule:nonzero;fill:currentColor;fill-opacity:1;" d="M 132.976562 269.550781 L 190.367188 269.550781 L 190.367188 283.648438 L 132.976562 283.648438 Z M 132.976562 269.550781 "/></g></g><g clip-rule="nonzero" clip-path="url(#2f7da69fc2)"><g clip-rule="nonzero" clip-path="url(#511227da51)"><path style=" stroke:none;fill-rule:nonzero;fill:currentColor;fill-opacity:1;" d="M 173.25 268.648438 L 242.550781 268.648438 L 242.550781 283.050781 L 173.25 283.050781 Z M 173.25 268.648438 "/></g></g><g clip-rule="nonzero" clip-path="url(#c77b05a70d)"><g clip-rule="nonzero" clip-path="url(#536d458292)"><path style=" stroke:none;fill-rule:nonzero;fill:currentColor;fill-opacity:1;" d="M 120.75 121.949219 L 139.574219 121.949219 L 139.574219 223.796875 L 120.75 223.796875 Z M 120.75 121.949219 "/></g></g><g clip-rule="nonzero" clip-path="url(#717d7153d8)"><g clip-rule="nonzero" clip-path="url(#4f3c92035c)"><path style=" stroke:none;fill-rule:nonzero;fill:currentColor;fill-opacity:1;" d="M 115.273438 60.449219 L 134.625 60.449219 L 134.625 140.117188 L 115.273438 140.117188 Z M 115.273438 60.449219 "/></g></g><g clip-rule="nonzero" clip-path="url(#afeba22391)"><g clip-rule="nonzero" clip-path="url(#92be464b3d)"><path style=" stroke:none;fill-rule:nonzero;fill:currentColor;fill-opacity:1;" d="M 115.351562 60.675781 L 164.003906 60.675781 L 164.003906 94.800781 L 115.351562 94.800781 Z M 115.351562 60.675781 "/></g></g><g clip-rule="nonzero" clip-path="url(#163c6c9883)"><g clip-rule="nonzero" clip-path="url(#5a8b443343)"><path style=" stroke:none;fill-rule:nonzero;fill:currentColor;fill-opacity:1;" d="M 150.675781 41.175781 L 194.023438 41.175781 L 194.023438 94.855469 L 150.675781 94.855469 Z M 150.675781 41.175781 "/></g></g><g clip-rule="nonzero" clip-path="url(#72754d6109)"><g clip-rule="nonzero" clip-path="url(#ee2507dfe9)"><path style=" stroke:none;fill-rule:nonzero;fill:currentColor;fill-opacity:1;" d="M 180.601562 41.175781 L 226.648438 41.175781 L 226.648438 91.542969 L 180.601562 91.542969 Z M 180.601562 41.175781 "/></g></g><g clip-rule="nonzero" clip-path="url(#c3003998ea)"><g clip-rule="nonzero" clip-path="url(#fcb2726651)"><path style=" stroke:none;fill-rule:nonzero;fill:currentColor;fill-opacity:1;" d="M 213.074219 56.625 L 260.1875 56.625 L 260.1875 90.601562 L 213.074219 90.601562 Z M 213.074219 56.625 "/></g></g><g clip-rule="nonzero" clip-path="url(#c70422ac9c)"><g clip-rule="nonzero" clip-path="url(#eb251eec6f)"><path style=" stroke:none;fill-rule:nonzero;fill:currentColor;fill-opacity:1;" d="M 240.601562 56.625 L 260.175781 56.625 L 260.175781 139.511719 L 240.601562 139.511719 Z M 240.601562 56.625 "/></g></g><g clip-rule="nonzero" clip-path="url(#3430e80afc)"><g clip-rule="nonzero" clip-path="url(#bc21014ba7)"><path style=" stroke:none;fill-rule:nonzero;fill:currentColor;fill-opacity:1;" d="M 238.199219 113.773438 L 254.550781 113.773438 L 254.550781 196.101562 L 238.199219 196.101562 Z M 238.199219 113.773438 "/></g></g><g clip-rule="nonzero" clip-path="url(#825552028a)"><g clip-rule="nonzero" clip-path="url(#63a1bf1129)"><path style=" stroke:none;fill-rule:nonzero;fill:currentColor;fill-opacity:1;" d="M 237.375 179.101562 L 251.699219 179.101562 L 251.699219 222.019531 L 237.375 222.019531 Z M 237.375 179.101562 "/></g></g><g clip-rule="nonzero" clip-path="url(#9f8c34387f)"><g clip-rule="nonzero" clip-path="url(#88421629f1)"><path style=" stroke:none;fill-rule:nonzero;fill:currentColor;fill-opacity:1;" d="M 153.898438 120.523438 L 181.742188 120.523438 L 181.742188 147.523438 L 153.898438 147.523438 Z M 153.898438 120.523438 "/></g></g><g clip-rule="nonzero" clip-path="url(#e09057a1de)"><g clip-rule="nonzero" clip-path="url(#b760735d0f)"><path style=" stroke:none;fill-rule:nonzero;fill:currentColor;fill-opacity:1;" d="M 154.273438 154.273438 L 181.5 154.273438 L 181.5 182.5625 L 154.273438 182.5625 Z M 154.273438 154.273438 "/></g></g><g clip-rule="nonzero" clip-path="url(#29cc0167fb)"><g clip-rule="nonzero" clip-path="url(#e6fdd6f52a)"><path style=" stroke:none;fill-rule:nonzero;fill:currentColor;fill-opacity:1;" d="M 153.898438 189.523438 L 181.925781 189.523438 L 181.925781 216.601562 L 153.898438 216.601562 Z M 153.898438 189.523438 "/></g></g><g clip-rule="nonzero" clip-path="url(#dcb9d71212)"><g clip-rule="nonzero" clip-path="url(#76235218b5)"><path style=" stroke:none;fill-rule:nonzero;fill:currentColor;fill-opacity:1;" d="M 195.976562 120.824219 L 221.625 120.824219 L 221.625 147.476562 L 195.976562 147.476562 Z M 195.976562 120.824219 "/></g></g><g clip-rule="nonzero" clip-path="url(#0727783aa4)"><g clip-rule="nonzero" clip-path="url(#e094e8d300)"><path style=" stroke:none;fill-rule:nonzero;fill:currentColor;fill-opacity:1;" d="M 194.625 155.773438 L 220.699219 155.773438 L 220.699219 181.351562 L 194.625 181.351562 Z M 194.625 155.773438 "/></g></g><g clip-rule="nonzero" clip-path="url(#16eccec202)"><g clip-rule="nonzero" clip-path="url(#64a5519075)"><path style=" stroke:none;fill-rule:nonzero;fill:currentColor;fill-opacity:1;" d="M 193.800781 190.800781 L 220.199219 190.800781 L 220.199219 215.925781 L 193.800781 215.925781 Z M 193.800781 190.800781 "/></g></g><g clip-rule="nonzero" clip-path="url(#dbc23f596a)"><g clip-rule="nonzero" clip-path="url(#2601d9a9e1)"><path style=" stroke:none;fill-rule:nonzero;fill:currentColor;fill-opacity:1;" d="M 149.625 272.925781 L 163.800781 272.925781 L 163.800781 312.679688 L 149.625 312.679688 Z M 149.625 272.925781 "/></g></g><g clip-rule="nonzero" clip-path="url(#7f416d8912)"><g clip-rule="nonzero" clip-path="url(#780b169bac)"><path style=" stroke:none;fill-rule:nonzero;fill:currentColor;fill-opacity:1;" d="M 170.511719 275.175781 L 184.539062 275.175781 L 184.539062 314.402344 L 170.511719 314.402344 Z M 170.511719 275.175781 "/></g></g><g clip-rule="nonzero" clip-path="url(#64e686d240)"><g clip-rule="nonzero" clip-path="url(#32071e9388)"><path style=" stroke:none;fill-rule:nonzero;fill:currentColor;fill-opacity:1;" d="M 191.25 271.351562 L 204.976562 271.351562 L 204.976562 311.933594 L 191.25 311.933594 Z M 191.25 271.351562 "/></g></g><g clip-rule="nonzero" clip-path="url(#8b4d82cc4c)"><g clip-rule="nonzero" clip-path="url(#9d78b8c12d)"><path style=" stroke:none;fill-rule:nonzero;fill:currentColor;fill-opacity:1;" d="M 210.75 273.675781 L 224.398438 273.675781 L 224.398438 311.90625 L 210.75 311.90625 Z M 210.75 273.675781 "/></g></g></g></svg>