<svg xmlns="http://www.w3.org/2000/svg" xmlns:xlink="http://www.w3.org/1999/xlink" width="500" zoomAndPan="magnify" viewBox="0 0 375 374.999991" height="500" preserveAspectRatio="xMidYMid meet" version="1.2"><defs><clipPath id="93921e75e6"><path d="M 118 95.703125 L 143.402344 95.703125 L 143.402344 209.679688 L 118 209.679688 Z M 118 95.703125 "/></clipPath><clipPath id="a3d41bc838"><path d="M 132.09375 208.113281 C 127.800781 201.359375 127.027344 199.320312 125.902344 196.433594 C 124.214844 191.933594 121.539062 184.472656 120.203125 178.847656 C 119.078125 173.78125 118.515625 168.785156 118.234375 164.140625 C 117.953125 159.992188 117.882812 156.753906 118.304688 152.320312 C 118.796875 146.691406 119.992188 139.867188 121.890625 133.042969 C 124.003906 125.09375 127.871094 114.398438 131.039062 107.714844 C 133.289062 103 136.035156 97.65625 137.933594 96.246094 C 138.777344 95.683594 139.410156 95.683594 140.113281 95.753906 C 140.820312 95.824219 141.664062 96.175781 142.226562 96.667969 C 142.71875 97.164062 143.140625 97.9375 143.28125 98.640625 C 143.421875 99.34375 143.28125 100.1875 142.929688 100.820312 C 142.648438 101.453125 142.085938 102.15625 141.382812 102.4375 C 140.464844 102.71875 138.917969 102.789062 138.074219 102.296875 C 137.230469 101.804688 136.386719 100.46875 136.316406 99.484375 C 136.246094 98.570312 136.878906 97.09375 137.652344 96.527344 C 138.425781 95.894531 139.972656 95.683594 140.890625 95.894531 C 141.59375 96.105469 142.296875 96.597656 142.71875 97.234375 C 143.140625 98.007812 143.351562 99.0625 143.140625 100.539062 C 142.507812 103.777344 137.371094 110.460938 135.050781 115.808594 C 132.65625 121.363281 130.6875 127.414062 129.140625 133.394531 C 127.519531 139.375 126.113281 145.988281 125.550781 151.898438 C 124.988281 157.175781 125.058594 162.3125 125.480469 167.027344 C 125.832031 171.105469 126.394531 174.34375 127.449219 178.566406 C 128.859375 183.910156 131.390625 191.511719 133.5 196.433594 C 135.050781 200.09375 138.144531 203.542969 138.425781 205.652344 C 138.566406 206.707031 138.214844 207.480469 137.863281 208.113281 C 137.582031 208.605469 137.160156 208.957031 136.597656 209.238281 C 135.964844 209.523438 134.910156 209.734375 134.132812 209.523438 C 133.359375 209.378906 132.09375 208.113281 132.09375 208.113281 "/></clipPath><clipPath id="3402545135"><path d="M 134.71875 66.367188 L 245 66.367188 L 245 112.828125 L 134.71875 112.828125 Z M 134.71875 66.367188 "/></clipPath><clipPath id="ec13ca599b"><path d="M 134.910156 102.507812 C 138.847656 92.800781 139.199219 92.378906 140.183594 91.113281 C 142.226562 88.507812 147.082031 82.808594 150.105469 79.925781 C 152.285156 77.882812 153.976562 76.476562 156.085938 75.070312 C 158.125 73.734375 159.957031 72.75 162.628906 71.691406 C 166.359375 70.285156 172.691406 68.667969 176.699219 67.824219 C 179.585938 67.191406 181.484375 66.839844 184.296875 66.628906 C 187.746094 66.347656 192.390625 66.277344 195.835938 66.558594 C 198.582031 66.769531 201.253906 67.191406 203.367188 67.753906 C 204.84375 68.175781 205.6875 68.597656 207.164062 69.160156 C 209.273438 70.003906 212.019531 71.128906 214.691406 72.398438 C 217.789062 74.015625 221.164062 75.5625 224.613281 78.238281 C 229.046875 81.613281 235.660156 88.015625 238.402344 92.097656 C 240.160156 94.558594 240.582031 96.316406 241.5 98.851562 C 242.695312 102.085938 245.296875 107.644531 244.804688 109.898438 C 244.523438 111.164062 243.539062 112.078125 242.625 112.429688 C 241.710938 112.78125 240.160156 112.570312 239.386719 112.078125 C 238.542969 111.515625 237.910156 110.039062 237.839844 109.121094 C 237.769531 108.347656 238.121094 107.574219 238.542969 107.011719 C 238.964844 106.449219 239.667969 105.886719 240.441406 105.746094 C 241.289062 105.605469 242.90625 105.957031 243.609375 106.449219 C 244.242188 106.941406 244.664062 107.714844 244.804688 108.417969 C 244.945312 109.121094 244.875 109.96875 244.523438 110.671875 C 244.101562 111.445312 242.835938 112.5 241.921875 112.640625 C 240.9375 112.78125 239.667969 112.429688 238.753906 111.585938 C 237.136719 109.898438 236.433594 104.339844 235.097656 101.242188 C 233.828125 98.570312 232.984375 96.527344 231.085938 94.066406 C 228.484375 90.761719 223.417969 86.1875 220.109375 83.652344 C 217.789062 81.824219 216.03125 80.980469 213.566406 79.714844 C 210.542969 78.09375 206.320312 76.054688 203.082031 75 C 200.480469 74.15625 198.722656 73.804688 195.835938 73.59375 C 191.40625 73.242188 184.085938 73.734375 179.234375 74.4375 C 175.222656 75.070312 171.703125 76.054688 168.46875 77.179688 C 165.796875 78.023438 163.753906 78.589844 161.222656 80.207031 C 157.773438 82.316406 153.058594 86.820312 150.246094 89.773438 C 148.207031 91.886719 147.011719 93.292969 145.53125 95.683594 C 143.632812 98.570312 141.875 104.761719 140.394531 106.167969 C 139.832031 106.660156 139.410156 106.730469 138.847656 106.800781 C 138.074219 106.800781 137.019531 106.660156 136.386719 106.238281 C 135.753906 105.816406 135.121094 104.902344 134.910156 104.199219 C 134.769531 103.636719 134.910156 102.507812 134.910156 102.507812 "/></clipPath><clipPath id="438b56b3a2"><path d="M 223.308594 100.21875 L 253.425781 100.21875 L 253.425781 219.578125 L 223.308594 219.578125 Z M 223.308594 100.21875 "/></clipPath><clipPath id="4b2edbdea2"><path d="M 243.679688 103.496094 C 250.855469 123.546875 251.839844 127.695312 252.472656 133.605469 C 253.460938 141.769531 253.53125 155.628906 253.25 163.15625 C 253.105469 167.800781 252.964844 170.050781 252.121094 174.414062 C 250.925781 180.675781 247.761719 191.792969 245.578125 197.070312 C 244.3125 200.09375 243.46875 201.5 241.851562 203.894531 C 239.738281 206.988281 236.433594 211.210938 233.898438 213.953125 C 231.929688 216.136719 230.03125 218.667969 228.34375 219.300781 C 227.144531 219.722656 225.808594 219.582031 225.035156 219.089844 C 224.191406 218.597656 223.488281 217.121094 223.347656 216.207031 C 223.277344 215.5 223.488281 214.65625 223.980469 214.09375 C 224.613281 213.390625 225.949219 212.546875 226.933594 212.617188 C 227.917969 212.617188 229.328125 213.390625 229.820312 214.164062 C 230.382812 215.007812 230.382812 216.558594 230.101562 217.472656 C 229.890625 218.175781 229.328125 218.808594 228.625 219.160156 C 227.847656 219.511719 226.230469 219.582031 225.386719 219.300781 C 224.683594 219.019531 224.050781 218.386719 223.769531 217.683594 C 223.417969 216.839844 223.277344 215.785156 223.769531 214.375 C 225.035156 211 233.828125 203.332031 236.574219 199.039062 C 238.261719 196.433594 238.824219 194.886719 239.878906 192.074219 C 241.429688 188.203125 243.328125 182.644531 244.382812 177.789062 C 245.4375 173.007812 245.929688 168.785156 246.210938 163.15625 C 246.632812 155.699219 246.210938 143.035156 245.789062 136.914062 C 245.507812 133.605469 245.367188 132.058594 244.875 129.316406 C 244.242188 126.078125 243.328125 122.28125 242.203125 118.902344 C 241.007812 115.453125 238.753906 111.65625 237.769531 108.839844 C 237.207031 107.011719 236.644531 105.394531 236.644531 104.058594 C 236.644531 103.144531 236.785156 102.296875 237.347656 101.664062 C 237.980469 100.960938 239.386719 100.328125 240.300781 100.257812 C 241.148438 100.257812 242.0625 100.75 242.625 101.242188 C 243.1875 101.804688 243.679688 103.496094 243.679688 103.496094 "/></clipPath><clipPath id="e0023ac63a"><path d="M 129.835938 200.386719 L 234.257812 200.386719 L 234.257812 236.386719 L 129.835938 236.386719 Z M 129.835938 200.386719 "/></clipPath><clipPath id="6251881501"><path d="M 136.105469 201.570312 C 147.222656 214.515625 149.964844 217.332031 153.058594 219.652344 C 156.085938 221.976562 159.605469 224.015625 162.699219 225.492188 C 165.300781 226.6875 167.273438 227.53125 170.226562 228.167969 C 174.308594 228.941406 180.429688 229.152344 185.003906 229.222656 C 189.011719 229.292969 191.96875 229.855469 196.1875 228.871094 C 202.238281 227.53125 211.457031 223.171875 217.367188 219.652344 C 222.222656 216.769531 226.652344 210.859375 229.539062 210.15625 C 230.875 209.875 232.070312 210.296875 232.773438 210.789062 C 233.40625 211.210938 233.828125 211.984375 234.039062 212.6875 C 234.179688 213.390625 234.109375 214.234375 233.828125 214.9375 C 233.546875 215.570312 232.984375 216.277344 232.351562 216.628906 C 231.71875 216.980469 230.875 217.121094 230.171875 217.050781 C 229.46875 216.910156 228.625 216.628906 228.128906 216.066406 C 227.496094 215.359375 226.933594 213.8125 227.144531 212.898438 C 227.355469 211.914062 228.414062 210.71875 229.1875 210.296875 C 229.890625 209.945312 230.734375 209.945312 231.4375 210.15625 C 232.140625 210.296875 232.914062 210.789062 233.335938 211.351562 C 233.757812 211.914062 234.109375 212.757812 234.109375 213.460938 C 234.109375 214.164062 234.039062 214.726562 233.476562 215.570312 C 232.28125 217.472656 227.144531 221.269531 224.964844 222.960938 C 223.628906 223.945312 223.347656 224.296875 221.726562 225.210938 C 217.859375 227.390625 206.320312 233.160156 201.113281 234.851562 C 198.019531 235.835938 196.75 236.046875 193.585938 236.257812 C 188.097656 236.679688 175.433594 235.625 171.140625 235.273438 C 169.453125 235.132812 168.960938 235.132812 167.625 234.78125 C 165.511719 234.285156 162.769531 233.371094 160.167969 232.105469 C 157 230.628906 153.058594 228.09375 150.175781 226.125 C 147.855469 224.507812 146.375 223.453125 144.054688 221.269531 C 140.253906 217.613281 131.742188 208.675781 130.335938 205.582031 C 129.914062 204.457031 129.84375 203.824219 130.054688 203.046875 C 130.265625 202.34375 130.828125 201.429688 131.460938 201.007812 C 132.09375 200.585938 133.078125 200.304688 133.851562 200.445312 C 134.628906 200.515625 136.105469 201.570312 136.105469 201.570312 "/></clipPath><clipPath id="6b0dc16b7f"><path d="M 121.46875 59 L 167 59 L 167 102.441406 L 121.46875 102.441406 Z M 121.46875 59 "/></clipPath><clipPath id="d278244865"><path d="M 121.679688 97.726562 C 128.082031 86.046875 130.476562 83.160156 132.9375 80.347656 C 135.472656 77.601562 138.003906 75 141.101562 72.398438 C 144.617188 69.441406 149.542969 65.996094 153.34375 63.742188 C 156.4375 61.84375 160.027344 59.875 162.066406 59.308594 C 162.980469 59.027344 163.613281 58.957031 164.246094 59.167969 C 164.949219 59.308594 165.726562 59.734375 166.148438 60.367188 C 166.710938 61.070312 166.992188 62.6875 166.78125 63.601562 C 166.640625 64.304688 166.148438 65.007812 165.511719 65.429688 C 164.738281 65.855469 163.121094 66.207031 162.207031 65.855469 C 161.292969 65.5 160.238281 64.375 160.027344 63.390625 C 159.816406 62.476562 160.238281 60.929688 160.800781 60.226562 C 161.292969 59.59375 161.996094 59.167969 162.769531 59.097656 C 163.683594 59.027344 165.230469 59.453125 165.9375 60.085938 C 166.5 60.578125 166.851562 61.351562 166.921875 62.054688 C 166.992188 62.96875 166.640625 64.234375 165.796875 65.148438 C 164.457031 66.699219 160.941406 67.332031 157.984375 69.160156 C 153.695312 71.832031 147.503906 75.914062 143 80.136719 C 138.355469 84.5 133.429688 90.761719 130.617188 94.910156 C 128.859375 97.515625 128.226562 100.820312 126.886719 101.804688 C 126.113281 102.367188 125.128906 102.296875 124.425781 102.226562 C 123.863281 102.15625 123.300781 101.945312 122.878906 101.523438 C 122.316406 101.101562 121.75 100.117188 121.609375 99.414062 C 121.46875 98.851562 121.679688 97.726562 121.679688 97.726562 "/></clipPath><clipPath id="22398cb3d4"><path d="M 108.890625 95.484375 L 127.976562 95.484375 L 127.976562 189.097656 L 108.890625 189.097656 Z M 108.890625 95.484375 "/></clipPath><clipPath id="19c676f3d0"><path d="M 127.871094 100.398438 C 122.597656 112.21875 120.835938 117.496094 119.640625 122.210938 C 118.375 126.992188 117.460938 131.003906 116.828125 136.703125 C 115.914062 144.863281 115.488281 157.667969 116.125 166.535156 C 116.6875 173.851562 120.203125 183.277344 119.570312 186.375 C 119.359375 187.429688 118.867188 187.851562 118.304688 188.273438 C 117.8125 188.695312 116.96875 189.046875 116.195312 189.046875 C 115.347656 188.976562 113.871094 188.273438 113.308594 187.570312 C 112.816406 187.007812 112.535156 186.164062 112.605469 185.390625 C 112.746094 184.476562 113.519531 183.066406 114.292969 182.503906 C 114.855469 182.082031 115.703125 181.871094 116.476562 182.011719 C 117.320312 182.152344 118.726562 182.925781 119.21875 183.769531 C 119.710938 184.617188 119.710938 186.234375 119.289062 187.078125 C 118.867188 187.921875 117.601562 188.835938 116.617188 188.976562 C 115.628906 189.117188 114.363281 188.835938 113.519531 187.851562 C 111.761719 185.882812 111.199219 178.917969 110.425781 174.765625 C 109.722656 170.894531 109.226562 168.222656 109.015625 163.578125 C 108.664062 156.191406 109.085938 141.628906 109.933594 134.238281 C 110.496094 129.667969 111.199219 127.203125 112.113281 123.335938 C 113.238281 118.972656 114.644531 113.835938 116.265625 109.40625 C 117.742188 105.253906 119.992188 99.835938 121.398438 97.65625 C 122.035156 96.738281 122.386719 96.175781 123.089844 95.824219 C 123.792969 95.542969 124.847656 95.402344 125.621094 95.613281 C 126.324219 95.824219 127.238281 96.457031 127.589844 97.164062 C 128.082031 97.9375 127.871094 100.398438 127.871094 100.398438 "/></clipPath><clipPath id="0651379f5c"><path d="M 112.429688 181 L 156.421875 181 L 156.421875 243.527344 L 112.429688 243.527344 Z M 112.429688 181 "/></clipPath><clipPath id="2dc9e7428a"><path d="M 119.78125 184.476562 C 119.992188 192.144531 120.34375 194.253906 121.257812 197.070312 C 122.738281 201.640625 125.339844 208.957031 128.859375 214.445312 C 132.726562 220.355469 139.058594 226.96875 144.054688 230.980469 C 147.855469 234.003906 153.554688 235.34375 155.242188 237.453125 C 156.085938 238.507812 156.296875 239.703125 156.226562 240.550781 C 156.15625 241.324219 155.664062 242.097656 155.101562 242.519531 C 154.609375 243.011719 153.835938 243.433594 153.058594 243.433594 C 152.144531 243.433594 150.597656 242.871094 150.035156 242.167969 C 149.402344 241.394531 149.121094 239.84375 149.402344 238.929688 C 149.683594 237.945312 150.808594 236.820312 151.722656 236.539062 C 152.636719 236.257812 154.1875 236.539062 154.960938 237.171875 C 155.734375 237.804688 156.367188 239.210938 156.296875 240.195312 C 156.15625 241.183594 155.242188 242.449219 154.46875 243.011719 C 153.90625 243.433594 153.273438 243.574219 152.285156 243.433594 C 149.894531 243.082031 143.84375 239.5625 140.75 237.382812 C 138.285156 235.695312 137.089844 234.214844 134.839844 231.894531 C 131.460938 228.378906 126.113281 223.171875 122.808594 218.035156 C 119.570312 212.898438 117.039062 206.214844 115.347656 201.078125 C 113.941406 197.070312 113.097656 193.128906 112.746094 189.960938 C 112.464844 187.570312 112.324219 185.179688 112.816406 183.699219 C 113.097656 182.714844 113.589844 182.082031 114.222656 181.589844 C 114.855469 181.167969 115.984375 180.957031 116.6875 181.027344 C 117.25 181.027344 117.8125 181.238281 118.234375 181.589844 C 118.867188 182.152344 119.78125 184.476562 119.78125 184.476562 "/></clipPath><clipPath id="8c120c8a30"><path d="M 145.003906 211.175781 L 251 211.175781 L 251 254.351562 L 145.003906 254.351562 Z M 145.003906 211.175781 "/></clipPath><clipPath id="0e44f372b6"><path d="M 149.894531 233.722656 C 164.316406 240.902344 167.90625 242.308594 171.988281 243.503906 C 176.628906 244.910156 182.398438 246.386719 187.113281 246.878906 C 191.265625 247.304688 194.78125 247.585938 198.722656 246.738281 C 203.367188 245.753906 208.289062 243.152344 213.003906 240.617188 C 218.210938 237.804688 224.683594 233.371094 228.554688 230.558594 C 230.945312 228.800781 232.070312 228.023438 234.179688 225.984375 C 237.417969 222.679688 242.414062 213.742188 245.296875 212.054688 C 246.492188 211.28125 247.550781 211.140625 248.535156 211.421875 C 249.449219 211.773438 250.503906 212.96875 250.785156 213.8125 C 251.066406 214.515625 250.996094 215.359375 250.714844 216.066406 C 250.503906 216.699219 250.011719 217.402344 249.308594 217.753906 C 248.535156 218.175781 246.917969 218.386719 246 218.035156 C 245.15625 217.613281 244.171875 216.417969 243.960938 215.429688 C 243.820312 214.445312 244.3125 212.96875 244.945312 212.265625 C 245.648438 211.632812 247.199219 211.140625 248.113281 211.351562 C 249.097656 211.5625 250.292969 212.546875 250.714844 213.460938 C 251.066406 214.304688 250.925781 215.359375 250.363281 216.699219 C 249.238281 219.652344 243.609375 225.773438 240.867188 228.941406 C 238.894531 231.121094 238.050781 232.175781 235.589844 234.144531 C 231.4375 237.523438 222.574219 243.222656 217.085938 246.316406 C 213.074219 248.640625 209.417969 250.257812 206.109375 251.59375 C 203.507812 252.648438 201.816406 253.566406 199.003906 253.917969 C 194.921875 254.550781 189.292969 254.199219 184.015625 253.496094 C 178.035156 252.648438 170.859375 250.679688 165.089844 248.710938 C 160.027344 246.953125 154.539062 244.347656 151.089844 242.519531 C 148.839844 241.324219 146.796875 240.265625 145.882812 239.28125 C 145.460938 238.71875 145.25 238.296875 145.179688 237.734375 C 145.039062 237.03125 145.109375 235.976562 145.53125 235.273438 C 145.882812 234.570312 146.65625 233.933594 147.433594 233.652344 C 148.136719 233.371094 149.894531 233.722656 149.894531 233.722656 "/></clipPath><clipPath id="561005b878"><path d="M 242.519531 142.335938 L 265.714844 142.335938 L 265.714844 221.488281 L 242.519531 221.488281 Z M 242.519531 142.335938 "/></clipPath><clipPath id="997ca9e966"><path d="M 242.835938 216.558594 C 254.375 190.523438 256.203125 184.898438 257.328125 177.507812 C 258.734375 168.082031 256.90625 148.875 258.3125 144.792969 C 258.734375 143.738281 259.085938 143.386719 259.722656 142.964844 C 260.285156 142.613281 261.128906 142.332031 261.902344 142.402344 C 262.605469 142.402344 263.378906 142.753906 263.941406 143.246094 C 264.503906 143.667969 264.996094 144.371094 265.136719 145.144531 C 265.207031 146.058594 264.785156 147.609375 264.222656 148.3125 C 263.730469 148.875 262.957031 149.226562 262.253906 149.367188 C 261.550781 149.507812 260.636719 149.4375 260.003906 149.015625 C 259.226562 148.523438 258.382812 147.1875 258.171875 146.269531 C 258.03125 145.496094 258.242188 144.722656 258.664062 144.089844 C 259.226562 143.316406 260.566406 142.472656 261.480469 142.402344 C 262.253906 142.261719 263.097656 142.542969 263.660156 142.964844 C 264.363281 143.527344 264.855469 144.371094 265.207031 145.917969 C 266.195312 150 265.488281 163.648438 265.066406 170.332031 C 264.714844 175.046875 264.433594 177.929688 263.519531 182.292969 C 262.324219 187.78125 260.425781 194.535156 258.101562 200.65625 C 255.640625 207.128906 251.207031 217.402344 248.886719 220.003906 C 248.042969 220.917969 247.550781 221.199219 246.773438 221.339844 C 246 221.550781 244.945312 221.339844 244.3125 220.988281 C 243.609375 220.566406 242.976562 219.792969 242.695312 219.019531 C 242.484375 218.316406 242.835938 216.558594 242.835938 216.558594 "/></clipPath><clipPath id="07d5b58e7d"><path d="M 210.824219 56.144531 L 265.957031 56.144531 L 265.957031 155.292969 L 210.824219 155.292969 Z M 210.824219 56.144531 "/></clipPath><clipPath id="a47315ad0f"><path d="M 215.535156 56.425781 C 230.03125 65.644531 234.109375 69.089844 237.488281 72.679688 C 240.9375 76.265625 243.960938 80.417969 246.703125 84.570312 C 249.449219 88.648438 251.769531 92.871094 253.953125 97.304688 C 256.132812 101.804688 258.382812 106.871094 259.863281 111.304688 C 261.128906 115.03125 261.902344 117.988281 262.675781 122.070312 C 263.660156 127.273438 264.433594 135.4375 264.644531 140.148438 C 264.855469 143.105469 264.433594 145.285156 264.714844 147.398438 C 264.925781 149.015625 266.054688 150.421875 265.914062 151.6875 C 265.773438 152.8125 265.066406 154.082031 264.363281 154.644531 C 263.730469 155.066406 262.886719 155.277344 262.183594 155.207031 C 261.480469 155.207031 260.636719 154.925781 260.074219 154.363281 C 259.441406 153.730469 258.804688 152.320312 258.875 151.335938 C 259.015625 150.351562 259.863281 149.085938 260.707031 148.59375 C 261.621094 148.171875 263.167969 148.171875 264.011719 148.59375 C 264.855469 149.085938 265.773438 150.351562 265.84375 151.335938 C 265.984375 152.320312 265.417969 153.800781 264.644531 154.363281 C 263.941406 154.996094 262.324219 155.277344 261.410156 155.136719 C 260.707031 154.996094 260.074219 154.503906 259.582031 153.871094 C 258.875 153.023438 258.523438 152.039062 258.101562 150.210938 C 256.90625 145.144531 256.625 127.203125 255.359375 120.800781 C 254.796875 117.636719 254.234375 116.511719 253.25 113.835938 C 251.910156 109.96875 249.449219 104.269531 247.410156 100.046875 C 245.578125 96.246094 244.03125 93.082031 241.710938 89.5625 C 239.175781 85.625 236.011719 81.332031 232.5625 77.671875 C 229.117188 74.015625 224.753906 70.566406 220.953125 67.753906 C 217.71875 65.359375 212.722656 63.460938 211.457031 61.632812 C 210.894531 60.789062 210.964844 59.875 211.035156 59.167969 C 211.105469 58.605469 211.316406 58.113281 211.667969 57.621094 C 212.160156 57.128906 213.144531 56.496094 213.847656 56.355469 C 214.410156 56.214844 215.535156 56.425781 215.535156 56.425781 "/></clipPath><clipPath id="66a8d218f5"><path d="M 159.253906 40.222656 L 189.816406 40.222656 L 189.816406 65.21875 L 159.253906 65.21875 Z M 159.253906 40.222656 "/></clipPath><clipPath id="ce40ff7e37"><path d="M 162.066406 58.113281 C 164.667969 57.128906 167.132812 53.613281 168.75 52.273438 C 169.875 51.289062 170.648438 50.796875 171.988281 50.09375 C 173.886719 49.179688 177.542969 48.546875 179.304688 47.492188 C 180.5 46.785156 181.273438 46.011719 181.90625 45.027344 C 182.679688 44.042969 182.820312 42.355469 183.523438 41.511719 C 184.085938 40.878906 184.722656 40.453125 185.425781 40.3125 C 186.339844 40.171875 187.957031 40.523438 188.660156 41.160156 C 189.363281 41.863281 189.855469 43.339844 189.714844 44.253906 C 189.574219 45.238281 188.660156 46.503906 187.816406 46.929688 C 186.902344 47.351562 185.355469 47.28125 184.511719 46.785156 C 183.664062 46.292969 182.890625 44.886719 182.75 43.972656 C 182.609375 43.269531 182.960938 42.425781 183.3125 41.863281 C 183.734375 41.230469 184.441406 40.667969 185.074219 40.453125 C 185.777344 40.171875 186.691406 40.171875 187.324219 40.382812 C 188.027344 40.59375 188.730469 41.160156 189.152344 41.722656 C 189.574219 42.355469 189.855469 42.988281 189.785156 43.902344 C 189.644531 45.519531 188.097656 48.828125 186.902344 50.375 C 185.988281 51.570312 185.285156 52.0625 183.875 52.976562 C 181.484375 54.527344 175.925781 55.722656 173.183594 57.691406 C 170.929688 59.308594 169.664062 62.125 168.046875 63.25 C 166.921875 64.09375 165.9375 64.515625 164.808594 64.726562 C 163.824219 65.007812 162.699219 65.289062 161.855469 64.9375 C 160.871094 64.65625 159.816406 63.601562 159.464844 62.6875 C 159.179688 61.984375 159.179688 60.929688 159.535156 60.226562 C 159.957031 59.378906 162.066406 58.113281 162.066406 58.113281 "/></clipPath><clipPath id="e2c2e0404a"><path d="M 183.046875 40.238281 L 221.484375 40.238281 L 221.484375 65.226562 L 183.046875 65.226562 Z M 183.046875 40.238281 "/></clipPath><clipPath id="ef9a6fc402"><path d="M 189.574219 41.652344 C 194.078125 46.855469 194.710938 47.351562 196.1875 48.125 C 199.214844 49.601562 206.53125 50.515625 210.753906 52.554688 C 214.550781 54.386719 219.335938 57.269531 220.671875 59.453125 C 221.375 60.578125 221.445312 61.773438 221.234375 62.6875 C 221.09375 63.390625 220.53125 64.09375 219.96875 64.515625 C 219.335938 64.867188 218.5625 65.21875 217.789062 65.148438 C 216.875 65.007812 215.464844 64.234375 214.902344 63.460938 C 214.480469 62.898438 214.339844 61.984375 214.410156 61.28125 C 214.480469 60.578125 214.832031 59.734375 215.324219 59.238281 C 215.820312 58.675781 216.59375 58.253906 217.296875 58.183594 C 218 58.042969 218.84375 58.113281 219.546875 58.464844 C 220.320312 58.957031 221.304688 60.226562 221.375 61.210938 C 221.515625 62.125 220.953125 63.601562 220.25 64.234375 C 219.476562 64.867188 218.351562 65.21875 217.015625 65.007812 C 214.410156 64.585938 210.050781 59.804688 206.320312 58.253906 C 202.941406 56.847656 198.371094 56.847656 195.90625 55.933594 C 194.5 55.441406 193.796875 54.878906 192.8125 54.316406 C 191.757812 53.683594 190.773438 53.261719 189.644531 52.273438 C 187.816406 50.515625 183.804688 46.082031 183.242188 44.324219 C 183.03125 43.621094 183.171875 43.199219 183.382812 42.636719 C 183.664062 42.003906 184.296875 41.089844 185.003906 40.738281 C 185.636719 40.3125 186.691406 40.171875 187.464844 40.3125 C 188.167969 40.453125 189.574219 41.652344 189.574219 41.652344 "/></clipPath><clipPath id="81678e72f0"><path d="M 131.242188 159.066406 L 159.898438 159.066406 L 159.898438 207.988281 L 131.242188 207.988281 Z M 131.242188 159.066406 "/></clipPath><clipPath id="eb28429012"><path d="M 138.425781 162.734375 C 140.183594 171.878906 143.632812 181.308594 145.882812 185.601562 C 147.292969 188.34375 148.277344 189.539062 150.035156 191.792969 C 152.355469 194.886719 157.5625 199.8125 158.96875 201.992188 C 159.535156 202.90625 159.816406 203.332031 159.886719 204.035156 C 159.886719 204.738281 159.675781 205.652344 159.320312 206.214844 C 158.96875 206.847656 158.335938 207.480469 157.5625 207.621094 C 156.71875 207.902344 155.101562 207.761719 154.328125 207.199219 C 153.554688 206.636719 152.847656 205.230469 152.847656 204.246094 C 152.847656 203.332031 153.695312 201.992188 154.46875 201.429688 C 155.03125 200.9375 155.875 200.726562 156.648438 200.867188 C 157.492188 201.007812 158.898438 201.851562 159.394531 202.625 C 159.816406 203.261719 159.957031 204.105469 159.816406 204.808594 C 159.746094 205.511719 159.320312 206.355469 158.828125 206.847656 C 158.335938 207.339844 157.5625 207.761719 156.859375 207.832031 C 156.15625 207.972656 155.523438 207.902344 154.609375 207.410156 C 152.496094 206.285156 148.488281 201.359375 145.8125 197.84375 C 142.929688 194.183594 140.253906 190.3125 138.003906 185.742188 C 135.472656 180.535156 132.867188 172.375 131.953125 168.152344 C 131.460938 165.832031 131.109375 164.210938 131.390625 162.734375 C 131.601562 161.539062 132.164062 160.414062 132.9375 159.78125 C 133.570312 159.285156 134.558594 159.144531 135.332031 159.214844 C 136.105469 159.285156 137.019531 159.78125 137.582031 160.34375 C 138.074219 160.976562 138.425781 162.734375 138.425781 162.734375 "/></clipPath><clipPath id="0c3c3c7516"><path d="M 163.1875 208 L 180.039062 208 L 180.039062 217.234375 L 163.1875 217.234375 Z M 163.1875 208 "/></clipPath><clipPath id="81ceae037f"><path d="M 167.273438 208.042969 C 178.601562 210.789062 179.023438 211.140625 179.445312 211.773438 C 179.867188 212.335938 180.078125 213.179688 180.007812 213.882812 C 180.007812 214.65625 179.65625 215.429688 179.164062 215.996094 C 178.742188 216.558594 177.964844 216.980469 177.261719 217.121094 C 176.558594 217.261719 175.644531 217.261719 175.011719 216.910156 C 174.238281 216.417969 173.183594 215.21875 173.042969 214.234375 C 172.902344 213.25 173.394531 211.773438 174.097656 211.140625 C 174.800781 210.4375 176.347656 210.085938 177.332031 210.296875 C 178.25 210.507812 179.445312 211.492188 179.796875 212.40625 C 180.148438 213.320312 179.867188 214.9375 179.445312 215.714844 C 179.023438 216.347656 178.460938 216.839844 177.613281 217.050781 C 176.207031 217.402344 173.464844 216.769531 171.421875 216.347656 C 169.3125 215.996094 166.570312 215.5 165.160156 214.726562 C 164.316406 214.234375 163.683594 213.671875 163.402344 212.96875 C 163.050781 212.054688 163.261719 210.4375 163.613281 209.664062 C 163.824219 209.097656 164.246094 208.746094 164.808594 208.464844 C 165.441406 208.183594 167.273438 208.042969 167.273438 208.042969 "/></clipPath><clipPath id="f9b470fd77"><path d="M 136.792969 232.523438 L 188.597656 232.523438 L 188.597656 308.5625 L 136.792969 308.5625 Z M 136.792969 232.523438 "/></clipPath><clipPath id="a373b66642"><path d="M 144.195312 236.1875 C 144.476562 242.027344 145.109375 242.941406 145.953125 244.066406 C 147.152344 245.613281 148.839844 247.445312 151.160156 248.921875 C 154.46875 250.960938 160.027344 252.4375 164.738281 253.917969 C 169.523438 255.394531 176.417969 256.449219 179.515625 257.714844 C 180.992188 258.347656 181.625 258.699219 182.609375 259.617188 C 184.085938 261.023438 185.917969 263.835938 186.832031 265.59375 C 187.464844 266.863281 187.746094 267.636719 188.027344 269.042969 C 188.378906 271.011719 188.449219 273.898438 188.378906 276.359375 C 188.308594 279.035156 188.027344 281.425781 187.394531 284.378906 C 186.621094 288.460938 185.214844 294.300781 183.3125 298.3125 C 181.625 301.898438 178.601562 306.261719 176.839844 307.597656 C 176.066406 308.230469 175.433594 308.371094 174.730469 308.371094 C 174.027344 308.371094 173.183594 308.160156 172.621094 307.667969 C 171.917969 307.035156 171.140625 305.628906 171.210938 304.714844 C 171.210938 303.730469 172.058594 302.320312 172.832031 301.828125 C 173.675781 301.335938 175.292969 301.335938 176.136719 301.617188 C 176.839844 301.898438 177.472656 302.53125 177.753906 303.167969 C 178.105469 303.800781 178.25 304.644531 178.179688 305.347656 C 178.035156 306.050781 177.683594 306.894531 177.121094 307.386719 C 176.628906 307.878906 175.785156 308.230469 175.082031 308.300781 C 174.378906 308.441406 173.535156 308.300781 172.902344 307.878906 C 172.199219 307.316406 171.210938 306.261719 171.210938 305.066406 C 171.140625 302.742188 175.996094 297.679688 177.121094 295.074219 C 177.824219 293.667969 177.894531 293.175781 178.320312 291.558594 C 179.164062 288.25 181.0625 280.722656 181.34375 276.640625 C 181.484375 273.828125 181.34375 271.292969 180.78125 269.394531 C 180.429688 268.128906 179.867188 267.144531 179.09375 266.300781 C 178.320312 265.382812 177.753906 264.820312 176.277344 264.046875 C 172.691406 262.148438 161.082031 260.25 155.3125 258.066406 C 151.160156 256.519531 147.433594 255.183594 144.6875 253.144531 C 142.578125 251.523438 141.171875 249.625 139.902344 247.585938 C 138.636719 245.542969 137.511719 242.941406 137.160156 240.761719 C 136.808594 238.929688 136.808594 236.679688 137.230469 235.34375 C 137.511719 234.429688 138.003906 233.722656 138.636719 233.300781 C 139.269531 232.878906 140.324219 232.667969 141.101562 232.667969 C 141.664062 232.738281 142.15625 232.878906 142.648438 233.300781 C 143.28125 233.863281 144.195312 236.1875 144.195312 236.1875 "/></clipPath><clipPath id="ef14b15f07"><path d="M 192.609375 228.105469 L 242.890625 228.105469 L 242.890625 309.074219 L 192.609375 309.074219 Z M 192.609375 228.105469 "/></clipPath><clipPath id="e221cbb679"><path d="M 242.835938 231.824219 C 242.625 237.734375 242.34375 238.578125 241.78125 239.84375 C 241.007812 241.746094 239.175781 244.769531 237.910156 246.386719 C 236.996094 247.585938 236.433594 248.078125 235.167969 248.992188 C 232.984375 250.609375 229.1875 252.507812 225.527344 254.339844 C 220.8125 256.589844 212.230469 259.6875 208.992188 261.375 C 207.515625 262.148438 206.953125 262.429688 205.96875 263.34375 C 204.492188 264.75 202.519531 267.074219 201.535156 269.324219 C 200.550781 271.503906 200.339844 273.898438 200.128906 276.640625 C 199.777344 279.878906 199.355469 283.535156 200.058594 287.476562 C 200.902344 292.613281 205.898438 301.265625 206.109375 304.714844 C 206.109375 306.191406 205.898438 307.175781 205.265625 307.878906 C 204.632812 308.582031 203.152344 309.144531 202.167969 309.003906 C 201.253906 308.863281 199.917969 308.019531 199.496094 307.105469 C 199.074219 306.121094 199.355469 304.011719 200.058594 303.167969 C 200.621094 302.390625 202.167969 301.898438 203.082031 302.039062 C 204.070312 302.179688 205.335938 303.09375 205.828125 303.941406 C 206.25 304.785156 206.109375 306.402344 205.757812 307.246094 C 205.40625 307.949219 204.703125 308.441406 204.070312 308.722656 C 203.4375 309.003906 202.519531 309.144531 201.816406 308.933594 C 200.972656 308.652344 199.777344 307.597656 199.355469 306.753906 C 199.003906 306.050781 199.074219 305.207031 199.285156 304.503906 C 199.496094 303.800781 199.917969 303.09375 200.621094 302.671875 C 201.394531 302.179688 202.941406 301.898438 203.859375 302.179688 C 204.773438 302.53125 205.757812 303.800781 206.039062 304.644531 C 206.320312 305.347656 205.898438 306.894531 205.898438 306.894531 C 205.898438 306.894531 206.109375 304.714844 206.109375 304.714844 C 206.039062 304.714844 206.039062 306.542969 205.757812 307.175781 C 205.476562 307.738281 205.195312 308.160156 204.632812 308.441406 C 203.859375 308.792969 202.308594 309.144531 201.394531 308.792969 C 200.269531 308.371094 199.496094 307.175781 198.582031 305.558594 C 196.820312 302.601562 194.710938 295.285156 193.796875 291.277344 C 193.164062 288.390625 192.882812 286.632812 192.8125 283.746094 C 192.742188 279.738281 193.515625 272.5625 194.148438 269.464844 C 194.5 267.917969 194.640625 267.285156 195.273438 266.019531 C 196.117188 264.257812 197.597656 261.796875 199.214844 260.039062 C 200.902344 258.207031 202.519531 257.011719 205.265625 255.394531 C 209.910156 252.648438 220.742188 249.0625 225.457031 246.597656 C 228.128906 245.191406 229.890625 244.488281 231.578125 242.871094 C 233.265625 241.253906 234.816406 238.929688 235.519531 236.890625 C 236.152344 234.992188 235.449219 232.386719 235.941406 230.980469 C 236.222656 230.066406 236.714844 229.363281 237.347656 228.941406 C 237.980469 228.519531 239.035156 228.308594 239.738281 228.308594 C 240.371094 228.378906 240.867188 228.519531 241.359375 228.941406 C 241.992188 229.503906 242.835938 231.824219 242.835938 231.824219 "/></clipPath><clipPath id="b26a949357"><path d="M 134.292969 283.765625 L 191.375 283.765625 L 191.375 325.566406 L 134.292969 325.566406 Z M 134.292969 283.765625 "/></clipPath><clipPath id="7f6cfd2d7a"><path d="M 180.359375 290.855469 C 162.558594 293.105469 157.140625 295.144531 152.847656 297.046875 C 149.121094 298.664062 144.617188 300.421875 142.859375 302.320312 C 141.875 303.378906 141.523438 304.574219 141.453125 305.699219 C 141.382812 306.824219 141.804688 308.089844 142.4375 309.074219 C 143 310.132812 143.773438 310.90625 144.898438 311.679688 C 146.585938 312.734375 148.769531 313.578125 151.792969 314.421875 C 157.140625 315.832031 167.835938 317.167969 174.589844 317.800781 C 179.9375 318.363281 186.550781 317.589844 189.011719 318.503906 C 189.925781 318.855469 190.347656 319.277344 190.773438 319.839844 C 191.195312 320.472656 191.476562 321.246094 191.335938 322.019531 C 191.265625 322.9375 190.488281 324.34375 189.644531 324.835938 C 188.871094 325.328125 187.253906 325.328125 186.410156 325.046875 C 185.707031 324.765625 185.074219 324.132812 184.722656 323.5 C 184.441406 322.867188 184.296875 321.949219 184.367188 321.246094 C 184.511719 320.542969 184.933594 319.769531 185.425781 319.277344 C 185.988281 318.785156 186.691406 318.363281 187.464844 318.363281 C 188.378906 318.292969 189.925781 318.785156 190.558594 319.558594 C 191.195312 320.261719 191.40625 321.878906 191.265625 322.796875 C 191.125 323.5 190.558594 324.203125 189.996094 324.625 C 189.433594 325.046875 188.871094 325.1875 187.886719 325.328125 C 185.355469 325.75 179.9375 325.398438 174.871094 324.976562 C 167.765625 324.273438 155.171875 322.65625 149.402344 321.035156 C 146.164062 320.191406 144.054688 319.207031 142.226562 318.222656 C 140.960938 317.519531 140.253906 317.097656 139.269531 316.113281 C 137.863281 314.773438 135.753906 312.3125 134.980469 310.554688 C 134.34375 309.285156 134.273438 308.230469 134.34375 306.753906 C 134.34375 304.785156 134.699219 301.617188 135.894531 299.648438 C 137.089844 297.679688 139.410156 296.199219 141.382812 294.863281 C 143.421875 293.457031 145.25 292.683594 147.996094 291.488281 C 152.496094 289.515625 160.660156 286.351562 166.21875 285.085938 C 170.507812 284.167969 175.292969 283.816406 178.179688 283.816406 C 179.796875 283.816406 181.0625 283.746094 182.046875 284.238281 C 182.75 284.664062 183.453125 285.367188 183.664062 286.140625 C 183.945312 286.984375 183.804688 288.601562 183.242188 289.375 C 182.75 290.148438 180.359375 290.855469 180.359375 290.855469 "/></clipPath><clipPath id="e52b6dbc22"><path d="M 178.605469 281.851562 L 239.433594 281.851562 L 239.433594 325.464844 L 178.605469 325.464844 Z M 178.605469 281.851562 "/></clipPath><clipPath id="ea6c2a65be"><path d="M 182.1875 318.222656 C 197.246094 317.378906 209.699219 315.40625 216.3125 313.789062 C 220.742188 312.664062 224.753906 311.328125 227.214844 310.203125 C 228.554688 309.570312 229.398438 309.214844 230.242188 308.371094 C 231.085938 307.597656 231.859375 306.402344 232.140625 305.277344 C 232.421875 304.152344 232.351562 302.742188 231.929688 301.617188 C 231.507812 300.5625 230.804688 299.71875 229.820312 298.664062 C 228.34375 297.1875 226.371094 295.425781 223.277344 294.089844 C 217.71875 291.628906 200.832031 290.855469 197.667969 288.25 C 196.539062 287.335938 196.257812 286.28125 196.328125 285.296875 C 196.328125 284.308594 197.175781 282.972656 198.019531 282.480469 C 198.863281 281.988281 200.480469 281.988281 201.324219 282.269531 C 202.027344 282.550781 202.589844 283.253906 202.941406 283.816406 C 203.226562 284.453125 203.4375 285.367188 203.296875 286.070312 C 203.15625 286.773438 202.730469 287.546875 202.238281 288.039062 C 201.675781 288.53125 200.902344 288.953125 200.199219 288.953125 C 199.285156 289.023438 197.738281 288.53125 197.105469 287.757812 C 196.46875 286.984375 196.257812 285.4375 196.398438 284.523438 C 196.539062 283.816406 197.105469 283.113281 197.667969 282.691406 C 198.230469 282.269531 198.722656 282.058594 199.847656 281.988281 C 202.871094 281.777344 212.300781 283.746094 217.578125 285.085938 C 221.796875 286.210938 225.949219 287.335938 229.046875 289.023438 C 231.507812 290.429688 233.617188 292.472656 235.097656 294.019531 C 236.152344 295.144531 236.714844 296.058594 237.347656 297.117188 C 238.050781 298.242188 238.753906 299.15625 239.035156 300.5625 C 239.457031 302.601562 239.457031 305.910156 238.683594 308.160156 C 237.910156 310.34375 236.011719 312.59375 234.605469 314 C 233.546875 314.984375 232.84375 315.265625 231.367188 315.972656 C 228.34375 317.378906 222.574219 319.417969 217.226562 320.824219 C 210.683594 322.445312 201.183594 323.921875 194.710938 324.625 C 189.996094 325.117188 184.722656 325.679688 182.1875 325.257812 C 181.0625 325.046875 180.429688 324.976562 179.867188 324.34375 C 179.234375 323.710938 178.671875 322.234375 178.742188 321.316406 C 178.742188 320.472656 179.304688 319.628906 179.867188 319.136719 C 180.429688 318.574219 182.1875 318.222656 182.1875 318.222656 "/></clipPath><clipPath id="3ef1e3257a"><path d="M 130.066406 296.105469 L 220.074219 296.105469 L 220.074219 334.75 L 130.066406 334.75 Z M 130.066406 296.105469 "/></clipPath><clipPath id="b2db468f7f"><path d="M 142.296875 302.53125 C 137.863281 306.824219 137.652344 308.019531 137.441406 309.214844 C 137.300781 310.34375 137.089844 311.46875 137.441406 312.734375 C 137.933594 314.5625 139.480469 317.238281 141.101562 318.925781 C 142.789062 320.613281 144.617188 321.667969 147.363281 322.796875 C 151.722656 324.484375 159.320312 325.679688 165.371094 326.523438 C 171.492188 327.296875 177.542969 327.578125 184.015625 327.578125 C 191.054688 327.648438 199.988281 327.507812 206.109375 326.453125 C 210.542969 325.679688 215.113281 322.726562 217.296875 323.007812 C 218.210938 323.148438 218.773438 323.640625 219.195312 324.203125 C 219.6875 324.695312 220.039062 325.539062 220.039062 326.242188 C 219.96875 327.15625 219.40625 328.636719 218.632812 329.269531 C 217.859375 329.832031 216.3125 330.042969 215.394531 329.761719 C 214.410156 329.410156 213.355469 328.285156 213.144531 327.367188 C 212.863281 326.382812 213.214844 324.90625 213.847656 324.132812 C 214.480469 323.429688 215.960938 322.796875 216.945312 322.9375 C 217.859375 323.078125 219.125 324.0625 219.617188 324.835938 C 220.039062 325.46875 220.109375 326.3125 219.96875 327.015625 C 219.828125 327.71875 219.617188 328.355469 218.914062 328.988281 C 217.296875 330.464844 210.894531 332.433594 208.21875 333.136719 C 206.742188 333.488281 206.179688 333.417969 204.5625 333.558594 C 201.183594 333.910156 194.359375 334.546875 189.363281 334.6875 C 184.367188 334.757812 179.726562 334.617188 174.589844 334.261719 C 168.820312 333.839844 161.574219 333.277344 156.296875 332.363281 C 152.214844 331.589844 148.558594 330.675781 145.460938 329.550781 C 143 328.636719 140.75 327.507812 139.058594 326.382812 C 137.792969 325.539062 136.949219 324.976562 135.894531 323.710938 C 134.132812 321.597656 131.320312 317.378906 130.476562 314.28125 C 129.84375 311.679688 130.195312 308.652344 130.617188 306.613281 C 130.898438 305.066406 131.460938 303.941406 132.164062 302.8125 C 132.796875 301.6875 133.5 300.773438 134.488281 299.859375 C 135.753906 298.664062 137.722656 296.761719 139.128906 296.339844 C 140.042969 296.058594 140.960938 296.128906 141.59375 296.339844 C 142.15625 296.550781 142.648438 296.835938 143 297.328125 C 143.421875 297.890625 143.914062 298.875 143.84375 299.648438 C 143.773438 300.5625 142.296875 302.53125 142.296875 302.53125 "/></clipPath><clipPath id="766aa7408d"><path d="M 211.28125 287 L 245.570312 287 L 245.570312 330.730469 L 211.28125 330.730469 Z M 211.28125 287 "/></clipPath><clipPath id="cdfda6e279"><path d="M 214.269531 323.710938 C 222.855469 321.246094 229.46875 318.644531 232.84375 316.535156 C 235.167969 315.054688 237.417969 313.578125 238.191406 311.890625 C 238.753906 310.695312 238.613281 309.5 238.261719 308.160156 C 237.769531 306.121094 235.941406 303.378906 234.394531 301.335938 C 232.84375 299.296875 231.015625 297.328125 229.117188 295.988281 C 227.496094 294.863281 225.175781 294.511719 223.980469 293.667969 C 223.277344 293.175781 222.644531 292.824219 222.363281 292.121094 C 222.082031 291.277344 222.082031 289.65625 222.503906 288.8125 C 222.785156 288.109375 223.488281 287.617188 224.121094 287.335938 C 224.824219 287.054688 225.667969 286.914062 226.371094 287.125 C 227.285156 287.40625 228.484375 288.390625 228.835938 289.304688 C 229.1875 290.21875 228.976562 291.769531 228.414062 292.613281 C 227.847656 293.386719 226.441406 294.089844 225.457031 294.089844 C 224.472656 294.019531 223.136719 293.246094 222.574219 292.472656 C 222.082031 291.628906 221.941406 290.078125 222.292969 289.164062 C 222.714844 288.25 223.699219 287.265625 224.894531 287.054688 C 226.582031 286.773438 229.75 288.109375 232.070312 289.445312 C 234.816406 291.136719 237.699219 294.230469 239.878906 297.117188 C 242.0625 299.929688 244.453125 303.589844 245.15625 306.613281 C 245.789062 309.144531 245.4375 312.101562 244.875 313.929688 C 244.523438 315.265625 243.890625 315.972656 242.976562 317.027344 C 241.710938 318.574219 240.019531 320.332031 237.558594 321.953125 C 233.546875 324.484375 224.683594 328 220.390625 329.410156 C 218 330.183594 215.960938 330.816406 214.480469 330.675781 C 213.566406 330.535156 212.792969 330.183594 212.230469 329.621094 C 211.738281 329.058594 211.386719 328 211.316406 327.296875 C 211.246094 326.734375 211.316406 326.171875 211.597656 325.679688 C 212.089844 324.90625 214.269531 323.710938 214.269531 323.710938 "/></clipPath></defs><g id="ea86c5be24"><g clip-rule="nonzero" clip-path="url(#93921e75e6)"><g clip-rule="nonzero" clip-path="url(#a3d41bc838)"><path style=" stroke:none;fill-rule:nonzero;fill:currentColor;fill-opacity:1;" d="M 115.417969 92.941406 L 146.164062 92.941406 L 146.164062 212.441406 L 115.417969 212.441406 Z M 115.417969 92.941406 "/></g></g><g clip-rule="nonzero" clip-path="url(#3402545135)"><g clip-rule="nonzero" clip-path="url(#ec13ca599b)"><path style=" stroke:none;fill-rule:nonzero;fill:currentColor;fill-opacity:1;" d="M 132.09375 63.742188 L 247.636719 63.742188 L 247.636719 115.453125 L 132.09375 115.453125 Z M 132.09375 63.742188 "/></g></g><g clip-rule="nonzero" clip-path="url(#438b56b3a2)"><g clip-rule="nonzero" clip-path="url(#4b2edbdea2)"><path style=" stroke:none;fill-rule:nonzero;fill:currentColor;fill-opacity:1;" d="M 220.53125 97.445312 L 256.0625 97.445312 L 256.0625 222.078125 L 220.53125 222.078125 Z M 220.53125 97.445312 "/></g></g><g clip-rule="nonzero" clip-path="url(#e0023ac63a)"><g clip-rule="nonzero" clip-path="url(#6251881501)"><path style=" stroke:none;fill-rule:nonzero;fill:currentColor;fill-opacity:1;" d="M 127.238281 197.632812 L 237.015625 197.632812 L 237.015625 239.140625 L 127.238281 239.140625 Z M 127.238281 197.632812 "/></g></g><g clip-rule="nonzero" clip-path="url(#6b0dc16b7f)"><g clip-rule="nonzero" clip-path="url(#d278244865)"><path style=" stroke:none;fill-rule:nonzero;fill:currentColor;fill-opacity:1;" d="M 118.796875 56.285156 L 169.722656 56.285156 L 169.722656 105.113281 L 118.796875 105.113281 Z M 118.796875 56.285156 "/></g></g><g clip-rule="nonzero" clip-path="url(#22398cb3d4)"><g clip-rule="nonzero" clip-path="url(#19c676f3d0)"><path style=" stroke:none;fill-rule:nonzero;fill:currentColor;fill-opacity:1;" d="M 106.203125 92.800781 L 130.757812 92.800781 L 130.757812 191.882812 L 106.203125 191.882812 Z M 106.203125 92.800781 "/></g></g><g clip-rule="nonzero" clip-path="url(#0651379f5c)"><g clip-rule="nonzero" clip-path="url(#2dc9e7428a)"><path style=" stroke:none;fill-rule:nonzero;fill:currentColor;fill-opacity:1;" d="M 109.933594 178.214844 L 159.109375 178.214844 L 159.109375 246.410156 L 109.933594 246.410156 Z M 109.933594 178.214844 "/></g></g><g clip-rule="nonzero" clip-path="url(#8c120c8a30)"><g clip-rule="nonzero" clip-path="url(#0e44f372b6)"><path style=" stroke:none;fill-rule:nonzero;fill:currentColor;fill-opacity:1;" d="M 142.367188 208.535156 L 253.601562 208.535156 L 253.601562 256.800781 L 142.367188 256.800781 Z M 142.367188 208.535156 "/></g></g><g clip-rule="nonzero" clip-path="url(#561005b878)"><g clip-rule="nonzero" clip-path="url(#997ca9e966)"><path style=" stroke:none;fill-rule:nonzero;fill:currentColor;fill-opacity:1;" d="M 239.878906 139.585938 L 268.023438 139.585938 L 268.023438 224.234375 L 239.878906 224.234375 Z M 239.878906 139.585938 "/></g></g><g clip-rule="nonzero" clip-path="url(#07d5b58e7d)"><g clip-rule="nonzero" clip-path="url(#a47315ad0f)"><path style=" stroke:none;fill-rule:nonzero;fill:currentColor;fill-opacity:1;" d="M 208.21875 53.542969 L 268.796875 53.542969 L 268.796875 158.132812 L 208.21875 158.132812 Z M 208.21875 53.542969 "/></g></g><g clip-rule="nonzero" clip-path="url(#66a8d218f5)"><g clip-rule="nonzero" clip-path="url(#ce40ff7e37)"><path style=" stroke:none;fill-rule:nonzero;fill:currentColor;fill-opacity:1;" d="M 156.648438 37.5 L 192.65625 37.5 L 192.65625 67.824219 L 156.648438 67.824219 Z M 156.648438 37.5 "/></g></g><g clip-rule="nonzero" clip-path="url(#e2c2e0404a)"><g clip-rule="nonzero" clip-path="url(#ef9a6fc402)"><path style=" stroke:none;fill-rule:nonzero;fill:currentColor;fill-opacity:1;" d="M 180.429688 37.5 L 224.222656 37.5 L 224.222656 67.964844 L 180.429688 67.964844 Z M 180.429688 37.5 "/></g></g><g clip-rule="nonzero" clip-path="url(#81678e72f0)"><g clip-rule="nonzero" clip-path="url(#eb28429012)"><path style=" stroke:none;fill-rule:nonzero;fill:currentColor;fill-opacity:1;" d="M 128.578125 156.402344 L 162.699219 156.402344 L 162.699219 210.652344 L 128.578125 210.652344 Z M 128.578125 156.402344 "/></g></g><g clip-rule="nonzero" clip-path="url(#0c3c3c7516)"><g clip-rule="nonzero" clip-path="url(#81ceae037f)"><path style=" stroke:none;fill-rule:nonzero;fill:currentColor;fill-opacity:1;" d="M 160.589844 205.230469 L 182.867188 205.230469 L 182.867188 220.003906 L 160.589844 220.003906 Z M 160.589844 205.230469 "/></g></g><g clip-rule="nonzero" clip-path="url(#f9b470fd77)"><g clip-rule="nonzero" clip-path="url(#a373b66642)"><path style=" stroke:none;fill-rule:nonzero;fill:currentColor;fill-opacity:1;" d="M 134.34375 229.855469 L 191.265625 229.855469 L 191.265625 311.230469 L 134.34375 311.230469 Z M 134.34375 229.855469 "/></g></g><g clip-rule="nonzero" clip-path="url(#ef14b15f07)"><g clip-rule="nonzero" clip-path="url(#e221cbb679)"><path style=" stroke:none;fill-rule:nonzero;fill:currentColor;fill-opacity:1;" d="M 189.996094 225.492188 L 245.71875 225.492188 L 245.71875 311.90625 L 189.996094 311.90625 Z M 189.996094 225.492188 "/></g></g><g clip-rule="nonzero" clip-path="url(#b26a949357)"><g clip-rule="nonzero" clip-path="url(#7f6cfd2d7a)"><path style=" stroke:none;fill-rule:nonzero;fill:currentColor;fill-opacity:1;" d="M 131.53125 281.003906 L 194.136719 281.003906 L 194.136719 328.140625 L 131.53125 328.140625 Z M 131.53125 281.003906 "/></g></g><g clip-rule="nonzero" clip-path="url(#e52b6dbc22)"><g clip-rule="nonzero" clip-path="url(#ea6c2a65be)"><path style=" stroke:none;fill-rule:nonzero;fill:currentColor;fill-opacity:1;" d="M 175.925781 279.175781 L 241.917969 279.175781 L 241.917969 328.140625 L 175.925781 328.140625 Z M 175.925781 279.175781 "/></g></g><g clip-rule="nonzero" clip-path="url(#3ef1e3257a)"><g clip-rule="nonzero" clip-path="url(#b2db468f7f)"><path style=" stroke:none;fill-rule:nonzero;fill:currentColor;fill-opacity:1;" d="M 127.660156 293.527344 L 222.820312 293.527344 L 222.820312 337.5 L 127.660156 337.5 Z M 127.660156 293.527344 "/></g></g><g clip-rule="nonzero" clip-path="url(#766aa7408d)"><g clip-rule="nonzero" clip-path="url(#cdfda6e279)"><path style=" stroke:none;fill-rule:nonzero;fill:currentColor;fill-opacity:1;" d="M 208.5 284.238281 L 248.042969 284.238281 L 248.042969 333.511719 L 208.5 333.511719 Z M 208.5 284.238281 "/></g></g></g></svg>