<svg xmlns="http://www.w3.org/2000/svg" xmlns:xlink="http://www.w3.org/1999/xlink" width="500" zoomAndPan="magnify" viewBox="0 0 375 374.999991" height="500" preserveAspectRatio="xMidYMid meet" version="1.2"><defs><clipPath id="376e53bdd0"><path d="M 40.765625 120.609375 L 52.222656 120.609375 L 52.222656 297.546875 L 40.765625 297.546875 Z M 40.765625 120.609375 "/></clipPath><clipPath id="946bd96622"><path d="M 42.386719 293.363281 C 43.230469 219.640625 41.207031 199.167969 40.871094 183.328125 C 40.703125 171.113281 40.871094 161.253906 41.375 150.894531 C 41.796875 141.371094 42.21875 127.386719 43.734375 123.425781 C 44.15625 122.246094 44.578125 121.742188 45.335938 121.320312 C 46.347656 120.816406 48.285156 120.648438 49.296875 120.984375 C 50.136719 121.238281 50.894531 121.996094 51.316406 122.667969 C 51.738281 123.425781 52.074219 124.4375 51.90625 125.363281 C 51.652344 126.375 50.558594 127.976562 49.632812 128.566406 C 48.875 129.070312 47.777344 129.15625 46.9375 128.988281 C 46.09375 128.820312 45.167969 128.398438 44.578125 127.722656 C 43.902344 126.796875 43.398438 124.945312 43.566406 123.847656 C 43.734375 123.003906 44.324219 122.164062 45 121.574219 C 45.671875 121.066406 46.683594 120.648438 47.527344 120.648438 C 48.367188 120.5625 49.378906 120.816406 50.136719 121.40625 C 50.980469 122.078125 51.484375 123.003906 51.90625 124.859375 C 53.253906 131.261719 49.546875 151.652344 49.296875 168.417969 C 48.957031 191.585938 51.824219 227.898438 51.90625 251.066406 C 51.90625 267.75 52.496094 288.894531 50.726562 294.371094 C 50.222656 295.804688 49.800781 296.308594 49.042969 296.816406 C 48.199219 297.320312 47.019531 297.660156 46.09375 297.488281 C 45.167969 297.40625 44.070312 296.816406 43.480469 296.140625 C 42.808594 295.46875 42.386719 293.363281 42.386719 293.363281 "/></clipPath><clipPath id="e31544bda7"><path d="M 43.308594 69.554688 L 180.578125 69.554688 L 180.578125 135.785156 L 43.308594 135.785156 Z M 43.308594 69.554688 "/></clipPath><clipPath id="27da2e1f01"><path d="M 43.566406 125.953125 C 46.515625 114.917969 49.042969 108.597656 52.328125 103.375 C 56.121094 97.394531 62.1875 89.980469 67.242188 85.683594 C 71.03125 82.3125 74.148438 80.710938 78.699219 78.4375 C 84.597656 75.574219 92.347656 71.867188 99.929688 70.433594 C 108.019531 68.917969 120.992188 69.84375 125.964844 70.097656 C 128.070312 70.179688 128.660156 70.179688 130.34375 70.601562 C 132.957031 71.277344 136.664062 72.875 140.117188 74.476562 C 144.078125 76.332031 149.300781 79.027344 152.839844 81.300781 C 155.621094 83.070312 157.304688 84.164062 159.75 86.523438 C 163.285156 89.980469 167.921875 95.707031 170.953125 100.847656 C 174.070312 105.988281 176.683594 111.882812 178.113281 117.359375 C 179.546875 122.5 180.980469 129.828125 179.96875 132.777344 C 179.464844 134.296875 178.199219 135.136719 177.105469 135.558594 C 176.347656 135.894531 175.25 135.8125 174.492188 135.476562 C 173.648438 135.136719 172.808594 134.546875 172.386719 133.789062 C 171.878906 132.777344 171.628906 130.925781 172.050781 129.828125 C 172.554688 128.734375 174.070312 127.640625 175.167969 127.386719 C 176.347656 127.21875 178.113281 127.722656 178.957031 128.566406 C 179.800781 129.410156 180.222656 131.261719 180.054688 132.359375 C 179.96875 133.285156 179.378906 134.125 178.703125 134.714844 C 178.113281 135.222656 177.1875 135.726562 176.261719 135.726562 C 175.167969 135.726562 173.566406 135.136719 172.640625 134.125 C 171.375 132.777344 170.699219 130 170.28125 127.640625 C 169.773438 124.945312 170.53125 122.078125 169.859375 119.046875 C 169.015625 115.171875 167.078125 110.535156 164.636719 106.410156 C 161.855469 101.605469 156.96875 95.539062 153.429688 92.085938 C 150.902344 89.726562 148.710938 88.460938 146.183594 86.945312 C 143.742188 85.429688 141.042969 84.417969 138.347656 83.070312 C 135.566406 81.722656 132.03125 79.699219 129.503906 79.027344 C 127.902344 78.605469 127.226562 78.605469 125.207031 78.519531 C 120.738281 78.269531 110.207031 77.257812 102.964844 78.519531 C 95.632812 79.871094 87.375 83.238281 81.480469 86.355469 C 76.761719 88.882812 73.222656 91.578125 69.769531 94.78125 C 66.566406 97.816406 63.953125 100.933594 61.34375 104.890625 C 58.308594 109.527344 54.941406 116.519531 53.253906 121.066406 C 52.074219 124.183594 52.242188 127.722656 51.0625 129.324219 C 50.390625 130.25 49.378906 130.671875 48.535156 130.839844 C 47.863281 131.007812 47.1875 131.007812 46.515625 130.757812 C 45.671875 130.417969 44.660156 129.746094 44.15625 128.902344 C 43.648438 128.144531 43.566406 125.953125 43.566406 125.953125 "/></clipPath><clipPath id="e3480711f9"><path d="M 170.484375 127.320312 L 180.964844 127.320312 L 180.964844 297.355469 L 170.484375 297.355469 Z M 170.484375 127.320312 "/></clipPath><clipPath id="90c2002b64"><path d="M 180.136719 131.515625 C 180.558594 236.070312 181.90625 283.421875 179.632812 292.941406 C 179.210938 294.960938 178.789062 295.804688 177.945312 296.480469 C 177.273438 297.070312 176.261719 297.40625 175.417969 297.320312 C 174.324219 297.238281 172.640625 296.308594 171.964844 295.382812 C 171.375 294.710938 171.121094 293.699219 171.289062 292.773438 C 171.375 291.761719 172.46875 290.074219 173.3125 289.484375 C 174.070312 288.980469 175.082031 288.726562 176.007812 288.894531 C 177.019531 289.148438 178.621094 290.246094 179.210938 291.171875 C 179.714844 291.929688 179.714844 293.023438 179.632812 293.867188 C 179.464844 294.710938 178.957031 295.636719 178.285156 296.226562 C 177.695312 296.816406 176.683594 297.238281 175.839844 297.320312 C 174.996094 297.40625 173.902344 297.152344 173.230469 296.648438 C 172.46875 296.226562 171.964844 295.890625 171.542969 294.625 C 169.605469 289.316406 171.039062 263.199219 171.121094 248.457031 C 171.289062 234.636719 172.050781 224.023438 172.132812 208.605469 C 172.386719 187.121094 170.28125 139.6875 171.710938 131.515625 C 172.050781 129.914062 172.132812 129.410156 172.808594 128.734375 C 173.566406 127.976562 175.335938 127.300781 176.429688 127.386719 C 177.441406 127.386719 178.453125 128.0625 179.125 128.734375 C 179.714844 129.410156 180.136719 131.515625 180.136719 131.515625 "/></clipPath><clipPath id="238c33dbe7"><path d="M 42.503906 287.910156 L 178.609375 287.910156 L 178.609375 305.417969 L 42.503906 305.417969 Z M 42.503906 287.910156 "/></clipPath><clipPath id="bf0dc3d2ed"><path d="M 48.707031 292.941406 C 59.066406 296.648438 66.820312 296.648438 76.59375 296.898438 C 94.960938 297.40625 143.066406 296.394531 156.292969 295.972656 C 160.675781 295.804688 162.695312 295.890625 165.054688 295.46875 C 166.742188 295.214844 168.089844 295.214844 169.183594 294.289062 C 170.53125 293.191406 170.617188 289.570312 171.964844 288.644531 C 173.058594 287.886719 174.828125 287.800781 175.925781 288.222656 C 176.9375 288.644531 178.199219 290.074219 178.453125 291.253906 C 178.703125 292.351562 178.199219 294.203125 177.355469 295.046875 C 176.597656 295.890625 174.746094 296.394531 173.648438 296.308594 C 172.722656 296.226562 171.878906 295.636719 171.289062 295.046875 C 170.699219 294.457031 170.195312 293.445312 170.109375 292.601562 C 170.027344 291.761719 170.28125 290.664062 170.699219 289.992188 C 171.121094 289.234375 171.964844 288.558594 172.808594 288.222656 C 173.566406 287.886719 174.660156 287.886719 175.503906 288.054688 C 176.261719 288.304688 177.1875 288.894531 177.695312 289.570312 C 178.199219 290.246094 178.453125 291.171875 178.535156 292.183594 C 178.703125 293.363281 178.535156 295.046875 178.03125 296.394531 C 177.523438 297.828125 176.765625 299.34375 175.417969 300.4375 C 173.566406 301.953125 169.941406 302.882812 166.992188 303.554688 C 163.960938 304.230469 162.277344 304.144531 157.390625 304.398438 C 142.308594 304.988281 81.480469 305.914062 64.460938 304.902344 C 57.972656 304.484375 54.855469 304.3125 51.148438 303.21875 C 48.285156 302.375 45.335938 301.195312 43.988281 299.847656 C 43.144531 299.007812 42.722656 298.164062 42.554688 297.238281 C 42.472656 296.308594 42.722656 295.046875 43.3125 294.289062 C 43.820312 293.53125 44.828125 292.855469 45.757812 292.601562 C 46.597656 292.351562 48.707031 292.941406 48.707031 292.941406 "/></clipPath><clipPath id="168f039001"><path d="M 61.066406 165.234375 L 159.5 165.234375 L 159.5 174.601562 L 61.066406 174.601562 Z M 61.066406 165.234375 "/></clipPath><clipPath id="190d3761e5"><path d="M 65.34375 165.300781 C 157.347656 165.804688 158.105469 166.3125 158.78125 167.152344 C 159.285156 167.828125 159.539062 168.921875 159.453125 169.765625 C 159.453125 170.609375 159.117188 171.617188 158.441406 172.207031 C 157.683594 172.964844 155.914062 173.726562 154.820312 173.726562 C 153.894531 173.640625 152.964844 173.21875 152.375 172.546875 C 151.617188 171.785156 150.945312 169.933594 151.113281 168.839844 C 151.28125 167.660156 152.542969 166.226562 153.472656 165.722656 C 154.3125 165.214844 155.324219 165.214844 156.167969 165.382812 C 157.011719 165.550781 157.9375 166.140625 158.441406 166.816406 C 159.03125 167.40625 159.453125 168.417969 159.453125 169.257812 C 159.539062 170.101562 159.199219 171.199219 158.78125 171.871094 C 158.273438 172.546875 157.9375 173.050781 156.589844 173.472656 C 151.027344 175.410156 123.648438 174.144531 107.808594 174.144531 C 92.894531 174.144531 69.808594 175.324219 64.332031 173.554688 C 62.902344 173.136719 62.394531 172.628906 61.890625 171.871094 C 61.300781 171.113281 61.046875 169.933594 61.132812 169.007812 C 61.300781 168.078125 61.804688 166.984375 62.566406 166.3125 C 63.238281 165.722656 65.34375 165.300781 65.34375 165.300781 "/></clipPath><clipPath id="3b58af4e6d"><path d="M 60.0625 211.496094 L 159.4375 211.496094 L 159.4375 220.890625 L 60.0625 220.890625 Z M 60.0625 211.496094 "/></clipPath><clipPath id="4ee6e9b602"><path d="M 64.332031 211.554688 C 157.179688 212.3125 157.9375 212.734375 158.609375 213.660156 C 159.199219 214.332031 159.453125 215.34375 159.371094 216.1875 C 159.199219 217.28125 158.191406 218.96875 157.261719 219.558594 C 156.589844 220.148438 155.492188 220.230469 154.652344 220.148438 C 153.808594 220.0625 152.796875 219.726562 152.207031 219.050781 C 151.535156 218.210938 150.859375 216.355469 150.945312 215.34375 C 151.027344 214.417969 151.535156 213.492188 152.207031 212.902344 C 153.050781 212.226562 154.988281 211.722656 156 211.890625 C 156.925781 211.976562 157.769531 212.648438 158.359375 213.238281 C 158.863281 213.914062 159.285156 214.921875 159.371094 215.765625 C 159.371094 216.609375 159.117188 217.621094 158.609375 218.378906 C 158.105469 219.050781 157.769531 219.558594 156.503906 219.980469 C 151.113281 221.746094 126.511719 220.230469 111.175781 220.230469 C 95.421875 220.148438 69.136719 221.664062 63.324219 219.808594 C 61.890625 219.390625 61.386719 218.882812 60.878906 218.125 C 60.289062 217.367188 60.039062 216.1875 60.121094 215.261719 C 60.207031 214.332031 60.796875 213.238281 61.554688 212.566406 C 62.226562 211.976562 64.332031 211.554688 64.332031 211.554688 "/></clipPath><clipPath id="55fa8cf18e"><path d="M 61.488281 234.550781 L 159.308594 234.550781 L 159.308594 244.160156 L 61.488281 244.160156 Z M 61.488281 234.550781 "/></clipPath><clipPath id="e6a5013e73"><path d="M 65.683594 234.554688 C 157.011719 235.3125 157.769531 235.734375 158.441406 236.578125 C 159.03125 237.25 159.371094 238.261719 159.285156 239.105469 C 159.199219 240.199219 158.273438 241.882812 157.429688 242.558594 C 156.757812 243.148438 155.664062 243.316406 154.820312 243.316406 C 153.976562 243.230469 152.964844 242.894531 152.375 242.304688 C 151.617188 241.460938 150.777344 239.777344 150.945312 238.597656 C 151.027344 237.417969 152.207031 235.902344 153.132812 235.3125 C 153.894531 234.890625 154.988281 234.808594 155.832031 234.976562 C 156.671875 235.058594 157.601562 235.566406 158.191406 236.238281 C 158.78125 236.828125 159.199219 237.839844 159.285156 238.683594 C 159.371094 239.523438 159.117188 240.535156 158.695312 241.292969 C 158.273438 242.050781 157.769531 242.558594 156.589844 242.980469 C 153.21875 244.328125 143.699219 243.402344 134.09375 243.484375 C 117.328125 243.652344 71.917969 245.167969 64.671875 242.894531 C 63.238281 242.390625 62.734375 241.96875 62.226562 241.210938 C 61.722656 240.453125 61.386719 239.1875 61.554688 238.261719 C 61.636719 237.335938 62.226562 236.238281 62.902344 235.648438 C 63.574219 235.058594 65.683594 234.554688 65.683594 234.554688 "/></clipPath><clipPath id="c596c35303"><path d="M 60.613281 188.496094 L 159.984375 188.496094 L 159.984375 197.890625 L 60.613281 197.890625 Z M 60.613281 188.496094 "/></clipPath><clipPath id="55b40e7aa2"><path d="M 64.882812 188.554688 C 157.726562 189.3125 158.484375 189.734375 159.160156 190.660156 C 159.75 191.332031 160 192.34375 159.917969 193.1875 C 159.75 194.28125 158.738281 195.96875 157.8125 196.558594 C 157.136719 197.148438 156.042969 197.230469 155.199219 197.148438 C 154.355469 197.0625 153.34375 196.726562 152.753906 196.050781 C 152.082031 195.210938 151.40625 193.355469 151.492188 192.34375 C 151.574219 191.417969 152.082031 190.492188 152.753906 189.902344 C 153.597656 189.226562 155.535156 188.722656 156.546875 188.890625 C 157.472656 188.972656 158.316406 189.648438 158.90625 190.238281 C 159.410156 190.914062 159.832031 191.921875 159.917969 192.765625 C 159.917969 193.609375 159.664062 194.621094 159.160156 195.378906 C 158.652344 196.050781 158.316406 196.558594 157.050781 196.976562 C 151.660156 198.746094 127.058594 197.230469 111.726562 197.230469 C 95.96875 197.148438 69.683594 198.664062 63.871094 196.808594 C 62.4375 196.386719 61.933594 195.882812 61.425781 195.125 C 60.835938 194.367188 60.585938 193.1875 60.667969 192.261719 C 60.753906 191.332031 61.34375 190.238281 62.101562 189.5625 C 62.773438 188.972656 64.882812 188.554688 64.882812 188.554688 "/></clipPath><clipPath id="46df70b11c"><path d="M 60.613281 257.75 L 159.984375 257.75 L 159.984375 267.144531 L 60.613281 267.144531 Z M 60.613281 257.75 "/></clipPath><clipPath id="df8bc6129a"><path d="M 64.882812 257.808594 C 157.726562 258.566406 158.484375 258.988281 159.160156 259.914062 C 159.75 260.585938 160 261.597656 159.917969 262.441406 C 159.75 263.535156 158.738281 265.222656 157.8125 265.8125 C 157.136719 266.402344 156.042969 266.484375 155.199219 266.402344 C 154.355469 266.316406 153.34375 265.980469 152.753906 265.304688 C 152.082031 264.464844 151.40625 262.609375 151.492188 261.597656 C 151.574219 260.671875 152.082031 259.746094 152.753906 259.15625 C 153.597656 258.480469 155.535156 257.976562 156.546875 258.144531 C 157.472656 258.230469 158.316406 258.902344 158.90625 259.492188 C 159.410156 260.167969 159.832031 261.175781 159.917969 262.019531 C 159.917969 262.863281 159.664062 263.875 159.160156 264.632812 C 158.652344 265.304688 158.316406 265.8125 157.050781 266.234375 C 151.660156 268 127.058594 266.484375 111.726562 266.484375 C 95.96875 266.402344 69.683594 267.917969 63.871094 266.0625 C 62.4375 265.644531 61.933594 265.136719 61.425781 264.378906 C 60.835938 263.621094 60.585938 262.441406 60.667969 261.515625 C 60.753906 260.585938 61.34375 259.492188 62.101562 258.820312 C 62.773438 258.230469 64.882812 257.808594 64.882812 257.808594 "/></clipPath><clipPath id="870c920911"><path d="M 61.664062 142.496094 L 161 142.496094 L 161 151.890625 L 61.664062 151.890625 Z M 61.664062 142.496094 "/></clipPath><clipPath id="1572555055"><path d="M 65.933594 142.550781 C 158.78125 143.308594 159.539062 143.730469 160.210938 144.660156 C 160.800781 145.332031 161.054688 146.34375 160.96875 147.1875 C 160.800781 148.28125 159.789062 149.964844 158.863281 150.554688 C 158.191406 151.144531 157.09375 151.230469 156.25 151.144531 C 155.410156 151.0625 154.398438 150.722656 153.808594 150.050781 C 153.132812 149.207031 152.460938 147.355469 152.542969 146.34375 C 152.628906 145.417969 153.132812 144.488281 153.808594 143.898438 C 154.652344 143.226562 156.589844 142.71875 157.601562 142.890625 C 158.527344 142.972656 159.371094 143.648438 159.960938 144.238281 C 160.464844 144.910156 160.886719 145.921875 160.96875 146.765625 C 160.96875 147.605469 160.71875 148.617188 160.210938 149.375 C 159.707031 150.050781 159.371094 150.554688 158.105469 150.976562 C 152.714844 152.746094 128.113281 151.230469 112.777344 151.230469 C 97.023438 151.144531 70.738281 152.664062 64.921875 150.808594 C 63.492188 150.386719 62.984375 149.882812 62.480469 149.125 C 61.890625 148.367188 61.636719 147.1875 61.722656 146.257812 C 61.804688 145.332031 62.394531 144.238281 63.15625 143.5625 C 63.828125 142.972656 65.933594 142.550781 65.933594 142.550781 "/></clipPath><clipPath id="6310f914a0"><path d="M 194.25 120.609375 L 205.707031 120.609375 L 205.707031 297.546875 L 194.25 297.546875 Z M 194.25 120.609375 "/></clipPath><clipPath id="9039ee7011"><path d="M 195.875 293.363281 C 196.714844 219.640625 194.695312 199.167969 194.355469 183.328125 C 194.1875 171.113281 194.355469 161.253906 194.863281 150.894531 C 195.285156 141.371094 195.707031 127.386719 197.222656 123.425781 C 197.644531 122.246094 198.0625 121.742188 198.824219 121.320312 C 199.832031 120.816406 201.769531 120.648438 202.78125 120.984375 C 203.625 121.238281 204.382812 121.996094 204.804688 122.667969 C 205.226562 123.425781 205.5625 124.4375 205.394531 125.363281 C 205.140625 126.375 204.046875 127.976562 203.121094 128.566406 C 202.359375 129.070312 201.265625 129.15625 200.421875 128.988281 C 199.582031 128.820312 198.652344 128.398438 198.0625 127.722656 C 197.390625 126.796875 196.886719 124.945312 197.054688 123.847656 C 197.222656 123.003906 197.8125 122.164062 198.484375 121.574219 C 199.160156 121.066406 200.171875 120.648438 201.011719 120.648438 C 201.855469 120.5625 202.867188 120.816406 203.625 121.40625 C 204.46875 122.078125 204.972656 123.003906 205.394531 124.859375 C 206.742188 131.261719 203.035156 151.652344 202.78125 168.417969 C 202.445312 191.585938 205.308594 227.898438 205.394531 251.066406 C 205.394531 267.75 205.984375 288.894531 204.214844 294.371094 C 203.710938 295.804688 203.289062 296.308594 202.53125 296.816406 C 201.6875 297.320312 200.507812 297.660156 199.582031 297.488281 C 198.652344 297.40625 197.558594 296.816406 196.96875 296.140625 C 196.296875 295.46875 195.875 293.363281 195.875 293.363281 "/></clipPath><clipPath id="011bbad4aa"><path d="M 197 69.554688 L 334 69.554688 L 334 135.785156 L 197 135.785156 Z M 197 69.554688 "/></clipPath><clipPath id="f22b17eb69"><path d="M 197.054688 125.953125 C 200.003906 114.917969 202.53125 108.597656 205.816406 103.375 C 209.605469 97.394531 215.671875 89.980469 220.726562 85.683594 C 224.519531 82.3125 227.636719 80.710938 232.1875 78.4375 C 238.082031 75.574219 245.835938 71.867188 253.417969 70.433594 C 261.503906 68.917969 274.480469 69.84375 279.449219 70.097656 C 281.558594 70.179688 282.148438 70.179688 283.832031 70.601562 C 286.445312 71.277344 290.152344 72.875 293.605469 74.476562 C 297.566406 76.332031 302.789062 79.027344 306.328125 81.300781 C 309.105469 83.070312 310.792969 84.164062 313.234375 86.523438 C 316.773438 89.980469 321.40625 95.707031 324.441406 100.847656 C 327.558594 105.988281 330.171875 111.882812 331.601562 117.359375 C 333.035156 122.5 334.46875 129.828125 333.457031 132.777344 C 332.949219 134.296875 331.6875 135.136719 330.589844 135.558594 C 329.832031 135.894531 328.738281 135.8125 327.980469 135.476562 C 327.136719 135.136719 326.292969 134.546875 325.875 133.789062 C 325.367188 132.777344 325.113281 130.925781 325.535156 129.828125 C 326.042969 128.734375 327.558594 127.640625 328.652344 127.386719 C 329.832031 127.21875 331.601562 127.722656 332.445312 128.566406 C 333.289062 129.410156 333.707031 131.261719 333.539062 132.359375 C 333.457031 133.285156 332.867188 134.125 332.191406 134.714844 C 331.601562 135.222656 330.675781 135.726562 329.75 135.726562 C 328.652344 135.726562 327.054688 135.136719 326.125 134.125 C 324.863281 132.777344 324.1875 130 323.765625 127.640625 C 323.261719 124.945312 324.019531 122.078125 323.347656 119.046875 C 322.503906 115.171875 320.566406 110.535156 318.121094 106.410156 C 315.34375 101.605469 310.457031 95.539062 306.917969 92.085938 C 304.390625 89.726562 302.199219 88.460938 299.671875 86.945312 C 297.226562 85.429688 294.53125 84.417969 291.835938 83.070312 C 289.054688 81.722656 285.515625 79.699219 282.988281 79.027344 C 281.390625 78.605469 280.714844 78.605469 278.691406 78.519531 C 274.226562 78.269531 263.695312 77.257812 256.449219 78.519531 C 249.121094 79.871094 240.863281 83.238281 234.964844 86.355469 C 230.25 88.882812 226.710938 91.578125 223.253906 94.78125 C 220.054688 97.816406 217.441406 100.933594 214.832031 104.890625 C 211.796875 109.527344 208.425781 116.519531 206.742188 121.066406 C 205.5625 124.183594 205.730469 127.722656 204.550781 129.324219 C 203.878906 130.25 202.867188 130.671875 202.023438 130.839844 C 201.351562 131.007812 200.675781 131.007812 200.003906 130.757812 C 199.160156 130.417969 198.148438 129.746094 197.644531 128.902344 C 197.136719 128.144531 197.054688 125.953125 197.054688 125.953125 "/></clipPath><clipPath id="b695de0db3"><path d="M 324 127.320312 L 334.449219 127.320312 L 334.449219 297.355469 L 324 297.355469 Z M 324 127.320312 "/></clipPath><clipPath id="0a77a1bad4"><path d="M 333.625 131.515625 C 334.046875 236.070312 335.394531 283.421875 333.117188 292.941406 C 332.699219 294.960938 332.277344 295.804688 331.433594 296.480469 C 330.761719 297.070312 329.75 297.40625 328.90625 297.320312 C 327.8125 297.238281 326.125 296.308594 325.453125 295.382812 C 324.863281 294.710938 324.609375 293.699219 324.777344 292.773438 C 324.863281 291.761719 325.957031 290.074219 326.800781 289.484375 C 327.558594 288.980469 328.570312 288.726562 329.496094 288.894531 C 330.507812 289.148438 332.109375 290.246094 332.699219 291.171875 C 333.203125 291.929688 333.203125 293.023438 333.117188 293.867188 C 332.949219 294.710938 332.445312 295.636719 331.769531 296.226562 C 331.179688 296.816406 330.171875 297.238281 329.328125 297.320312 C 328.484375 297.40625 327.390625 297.152344 326.714844 296.648438 C 325.957031 296.226562 325.453125 295.890625 325.03125 294.625 C 323.09375 289.316406 324.523438 263.199219 324.609375 248.457031 C 324.777344 234.636719 325.535156 224.023438 325.621094 208.605469 C 325.875 187.121094 323.765625 139.6875 325.199219 131.515625 C 325.535156 129.914062 325.621094 129.410156 326.292969 128.734375 C 327.054688 127.976562 328.820312 127.300781 329.917969 127.386719 C 330.929688 127.386719 331.9375 128.0625 332.613281 128.734375 C 333.203125 129.410156 333.625 131.515625 333.625 131.515625 "/></clipPath><clipPath id="959bd7c7d9"><path d="M 196 287.910156 L 332.09375 287.910156 L 332.09375 305.417969 L 196 305.417969 Z M 196 287.910156 "/></clipPath><clipPath id="219e216f35"><path d="M 202.191406 292.941406 C 212.554688 296.648438 220.308594 296.648438 230.078125 296.898438 C 248.445312 297.40625 296.554688 296.394531 309.78125 295.972656 C 314.164062 295.804688 316.183594 295.890625 318.542969 295.46875 C 320.226562 295.214844 321.578125 295.214844 322.671875 294.289062 C 324.019531 293.191406 324.105469 289.570312 325.453125 288.644531 C 326.546875 287.886719 328.316406 287.800781 329.410156 288.222656 C 330.421875 288.644531 331.6875 290.074219 331.9375 291.253906 C 332.191406 292.351562 331.6875 294.203125 330.84375 295.046875 C 330.085938 295.890625 328.230469 296.394531 327.136719 296.308594 C 326.210938 296.226562 325.367188 295.636719 324.777344 295.046875 C 324.1875 294.457031 323.683594 293.445312 323.597656 292.601562 C 323.515625 291.761719 323.765625 290.664062 324.1875 289.992188 C 324.609375 289.234375 325.453125 288.558594 326.292969 288.222656 C 327.054688 287.886719 328.148438 287.886719 328.992188 288.054688 C 329.75 288.304688 330.675781 288.894531 331.179688 289.570312 C 331.6875 290.246094 331.9375 291.171875 332.023438 292.183594 C 332.191406 293.363281 332.023438 295.046875 331.519531 296.394531 C 331.011719 297.828125 330.253906 299.34375 328.90625 300.4375 C 327.054688 301.953125 323.429688 302.882812 320.480469 303.554688 C 317.449219 304.230469 315.761719 304.144531 310.875 304.398438 C 295.796875 304.988281 234.964844 305.914062 217.949219 304.902344 C 211.460938 304.484375 208.34375 304.3125 204.636719 303.21875 C 201.769531 302.375 198.824219 301.195312 197.476562 299.847656 C 196.632812 299.007812 196.210938 298.164062 196.042969 297.238281 C 195.957031 296.308594 196.210938 295.046875 196.800781 294.289062 C 197.304688 293.53125 198.316406 292.855469 199.242188 292.601562 C 200.085938 292.351562 202.191406 292.941406 202.191406 292.941406 "/></clipPath><clipPath id="438286a192"><path d="M 214.554688 165.234375 L 312.988281 165.234375 L 312.988281 174.601562 L 214.554688 174.601562 Z M 214.554688 165.234375 "/></clipPath><clipPath id="94fd9b817d"><path d="M 218.832031 165.300781 C 310.835938 165.804688 311.59375 166.3125 312.265625 167.152344 C 312.773438 167.828125 313.023438 168.921875 312.941406 169.765625 C 312.941406 170.609375 312.605469 171.617188 311.929688 172.207031 C 311.171875 172.964844 309.402344 173.726562 308.308594 173.726562 C 307.378906 173.640625 306.453125 173.21875 305.863281 172.546875 C 305.105469 171.785156 304.429688 169.933594 304.601562 168.839844 C 304.769531 167.660156 306.03125 166.226562 306.957031 165.722656 C 307.800781 165.214844 308.8125 165.214844 309.65625 165.382812 C 310.496094 165.550781 311.425781 166.140625 311.929688 166.816406 C 312.519531 167.40625 312.941406 168.417969 312.941406 169.257812 C 313.023438 170.101562 312.6875 171.199219 312.265625 171.871094 C 311.761719 172.546875 311.425781 173.050781 310.078125 173.472656 C 304.515625 175.410156 277.132812 174.144531 261.292969 174.144531 C 246.382812 174.144531 223.296875 175.324219 217.820312 173.554688 C 216.390625 173.136719 215.882812 172.628906 215.378906 171.871094 C 214.789062 171.113281 214.535156 169.933594 214.621094 169.007812 C 214.789062 168.078125 215.292969 166.984375 216.050781 166.3125 C 216.726562 165.722656 218.832031 165.300781 218.832031 165.300781 "/></clipPath><clipPath id="433281308d"><path d="M 213.550781 211.496094 L 312.925781 211.496094 L 312.925781 220.890625 L 213.550781 220.890625 Z M 213.550781 211.496094 "/></clipPath><clipPath id="21885e4fb7"><path d="M 217.820312 211.554688 C 310.664062 212.3125 311.425781 212.734375 312.097656 213.660156 C 312.6875 214.332031 312.941406 215.34375 312.855469 216.1875 C 312.6875 217.28125 311.675781 218.96875 310.75 219.558594 C 310.078125 220.148438 308.980469 220.230469 308.136719 220.148438 C 307.296875 220.0625 306.285156 219.726562 305.695312 219.050781 C 305.019531 218.210938 304.347656 216.355469 304.429688 215.34375 C 304.515625 214.417969 305.019531 213.492188 305.695312 212.902344 C 306.539062 212.226562 308.476562 211.722656 309.488281 211.890625 C 310.414062 211.976562 311.253906 212.648438 311.84375 213.238281 C 312.351562 213.914062 312.773438 214.921875 312.855469 215.765625 C 312.855469 216.609375 312.605469 217.621094 312.097656 218.378906 C 311.59375 219.050781 311.253906 219.558594 309.992188 219.980469 C 304.601562 221.746094 280 220.230469 264.664062 220.230469 C 248.910156 220.148438 222.625 221.664062 216.808594 219.808594 C 215.378906 219.390625 214.871094 218.882812 214.367188 218.125 C 213.777344 217.367188 213.523438 216.1875 213.609375 215.261719 C 213.691406 214.332031 214.28125 213.238281 215.039062 212.566406 C 215.714844 211.976562 217.820312 211.554688 217.820312 211.554688 "/></clipPath><clipPath id="382e5d222d"><path d="M 214.976562 234.550781 L 312.796875 234.550781 L 312.796875 244.160156 L 214.976562 244.160156 Z M 214.976562 234.550781 "/></clipPath><clipPath id="293f40311e"><path d="M 219.167969 234.554688 C 310.496094 235.3125 311.253906 235.734375 311.929688 236.578125 C 312.519531 237.25 312.855469 238.261719 312.773438 239.105469 C 312.6875 240.199219 311.761719 241.882812 310.917969 242.558594 C 310.246094 243.148438 309.148438 243.316406 308.308594 243.316406 C 307.464844 243.230469 306.453125 242.894531 305.863281 242.304688 C 305.105469 241.460938 304.261719 239.777344 304.429688 238.597656 C 304.515625 237.417969 305.695312 235.902344 306.621094 235.3125 C 307.378906 234.890625 308.476562 234.808594 309.316406 234.976562 C 310.160156 235.058594 311.085938 235.566406 311.675781 236.238281 C 312.265625 236.828125 312.6875 237.839844 312.773438 238.683594 C 312.855469 239.523438 312.605469 240.535156 312.183594 241.292969 C 311.761719 242.050781 311.253906 242.558594 310.078125 242.980469 C 306.707031 244.328125 297.1875 243.402344 287.582031 243.484375 C 270.816406 243.652344 225.402344 245.167969 218.160156 242.894531 C 216.726562 242.390625 216.21875 241.96875 215.714844 241.210938 C 215.210938 240.453125 214.871094 239.1875 215.039062 238.261719 C 215.125 237.335938 215.714844 236.238281 216.390625 235.648438 C 217.0625 235.058594 219.167969 234.554688 219.167969 234.554688 "/></clipPath><clipPath id="061f0d2fd6"><path d="M 214.097656 188.496094 L 313.472656 188.496094 L 313.472656 197.890625 L 214.097656 197.890625 Z M 214.097656 188.496094 "/></clipPath><clipPath id="029b1dc58d"><path d="M 218.367188 188.554688 C 311.214844 189.3125 311.972656 189.734375 312.644531 190.660156 C 313.234375 191.332031 313.488281 192.34375 313.402344 193.1875 C 313.234375 194.28125 312.226562 195.96875 311.296875 196.558594 C 310.625 197.148438 309.527344 197.230469 308.6875 197.148438 C 307.84375 197.0625 306.832031 196.726562 306.242188 196.050781 C 305.570312 195.210938 304.894531 193.355469 304.980469 192.34375 C 305.0625 191.417969 305.570312 190.492188 306.242188 189.902344 C 307.085938 189.226562 309.023438 188.722656 310.035156 188.890625 C 310.960938 188.972656 311.804688 189.648438 312.394531 190.238281 C 312.898438 190.914062 313.320312 191.921875 313.402344 192.765625 C 313.402344 193.609375 313.152344 194.621094 312.644531 195.378906 C 312.140625 196.050781 311.804688 196.558594 310.539062 196.976562 C 305.148438 198.746094 280.546875 197.230469 265.210938 197.230469 C 249.457031 197.148438 223.171875 198.664062 217.359375 196.808594 C 215.925781 196.386719 215.421875 195.882812 214.914062 195.125 C 214.324219 194.367188 214.070312 193.1875 214.15625 192.261719 C 214.242188 191.332031 214.832031 190.238281 215.589844 189.5625 C 216.261719 188.972656 218.367188 188.554688 218.367188 188.554688 "/></clipPath><clipPath id="82943d8300"><path d="M 214.097656 257.75 L 313.472656 257.75 L 313.472656 267.144531 L 214.097656 267.144531 Z M 214.097656 257.75 "/></clipPath><clipPath id="bf6899633d"><path d="M 218.367188 257.808594 C 311.214844 258.566406 311.972656 258.988281 312.644531 259.914062 C 313.234375 260.585938 313.488281 261.597656 313.402344 262.441406 C 313.234375 263.535156 312.226562 265.222656 311.296875 265.8125 C 310.625 266.402344 309.527344 266.484375 308.6875 266.402344 C 307.84375 266.316406 306.832031 265.980469 306.242188 265.304688 C 305.570312 264.464844 304.894531 262.609375 304.980469 261.597656 C 305.0625 260.671875 305.570312 259.746094 306.242188 259.15625 C 307.085938 258.480469 309.023438 257.976562 310.035156 258.144531 C 310.960938 258.230469 311.804688 258.902344 312.394531 259.492188 C 312.898438 260.167969 313.320312 261.175781 313.402344 262.019531 C 313.402344 262.863281 313.152344 263.875 312.644531 264.632812 C 312.140625 265.304688 311.804688 265.8125 310.539062 266.234375 C 305.148438 268 280.546875 266.484375 265.210938 266.484375 C 249.457031 266.402344 223.171875 267.917969 217.359375 266.0625 C 215.925781 265.644531 215.421875 265.136719 214.914062 264.378906 C 214.324219 263.621094 214.070312 262.441406 214.15625 261.515625 C 214.242188 260.585938 214.832031 259.492188 215.589844 258.820312 C 216.261719 258.230469 218.367188 257.808594 218.367188 257.808594 "/></clipPath><clipPath id="8516e436d6"><path d="M 215.152344 142.496094 L 314.527344 142.496094 L 314.527344 151.890625 L 215.152344 151.890625 Z M 215.152344 142.496094 "/></clipPath><clipPath id="da5c57ac60"><path d="M 219.421875 142.550781 C 312.265625 143.308594 313.023438 143.730469 313.699219 144.660156 C 314.289062 145.332031 314.542969 146.34375 314.457031 147.1875 C 314.289062 148.28125 313.277344 149.964844 312.351562 150.554688 C 311.675781 151.144531 310.582031 151.230469 309.738281 151.144531 C 308.898438 151.0625 307.886719 150.722656 307.296875 150.050781 C 306.621094 149.207031 305.949219 147.355469 306.03125 146.34375 C 306.117188 145.417969 306.621094 144.488281 307.296875 143.898438 C 308.136719 143.226562 310.078125 142.71875 311.085938 142.890625 C 312.015625 142.972656 312.855469 143.648438 313.445312 144.238281 C 313.953125 144.910156 314.371094 145.921875 314.457031 146.765625 C 314.457031 147.605469 314.203125 148.617188 313.699219 149.375 C 313.195312 150.050781 312.855469 150.554688 311.59375 150.976562 C 306.199219 152.746094 281.597656 151.230469 266.265625 151.230469 C 250.511719 151.144531 224.222656 152.664062 218.410156 150.808594 C 216.980469 150.386719 216.472656 149.882812 215.96875 149.125 C 215.378906 148.367188 215.125 147.1875 215.210938 146.257812 C 215.292969 145.332031 215.882812 144.238281 216.640625 143.5625 C 217.316406 142.972656 219.421875 142.550781 219.421875 142.550781 "/></clipPath></defs><g id="9ef11702e9"><g clip-rule="nonzero" clip-path="url(#376e53bdd0)"><g clip-rule="nonzero" clip-path="url(#946bd96622)"><path style=" stroke:none;fill-rule:nonzero;fill:currentColor;fill-opacity:1;" d="M 37.5 117.277344 L 55.277344 117.277344 L 55.277344 300.949219 L 37.5 300.949219 Z M 37.5 117.277344 "/></g></g><g clip-rule="nonzero" clip-path="url(#e31544bda7)"><g clip-rule="nonzero" clip-path="url(#27da2e1f01)"><path style=" stroke:none;fill-rule:nonzero;fill:currentColor;fill-opacity:1;" d="M 40.195312 66.726562 L 183.410156 66.726562 L 183.410156 139.183594 L 40.195312 139.183594 Z M 40.195312 66.726562 "/></g></g><g clip-rule="nonzero" clip-path="url(#e3480711f9)"><g clip-rule="nonzero" clip-path="url(#90c2002b64)"><path style=" stroke:none;fill-rule:nonzero;fill:currentColor;fill-opacity:1;" d="M 167.753906 124.015625 L 184.011719 124.015625 L 184.011719 300.785156 L 167.753906 300.785156 Z M 167.753906 124.015625 "/></g></g><g clip-rule="nonzero" clip-path="url(#238c33dbe7)"><g clip-rule="nonzero" clip-path="url(#bf0dc3d2ed)"><path style=" stroke:none;fill-rule:nonzero;fill:currentColor;fill-opacity:1;" d="M 39.183594 284.683594 L 181.925781 284.683594 L 181.925781 308.273438 L 39.183594 308.273438 Z M 39.183594 284.683594 "/></g></g><g clip-rule="nonzero" clip-path="url(#168f039001)"><g clip-rule="nonzero" clip-path="url(#190d3761e5)"><path style=" stroke:none;fill-rule:nonzero;fill:currentColor;fill-opacity:1;" d="M 57.761719 161.929688 L 162.804688 161.929688 L 162.804688 177.601562 L 57.761719 177.601562 Z M 57.761719 161.929688 "/></g></g><g clip-rule="nonzero" clip-path="url(#3b58af4e6d)"><g clip-rule="nonzero" clip-path="url(#4ee6e9b602)"><path style=" stroke:none;fill-rule:nonzero;fill:currentColor;fill-opacity:1;" d="M 56.75 208.183594 L 162.75 208.183594 L 162.75 223.601562 L 56.75 223.601562 Z M 56.75 208.183594 "/></g></g><g clip-rule="nonzero" clip-path="url(#55fa8cf18e)"><g clip-rule="nonzero" clip-path="url(#e6a5013e73)"><path style=" stroke:none;fill-rule:nonzero;fill:currentColor;fill-opacity:1;" d="M 58.183594 231.183594 L 162.738281 231.183594 L 162.738281 246.855469 L 58.183594 246.855469 Z M 58.183594 231.183594 "/></g></g><g clip-rule="nonzero" clip-path="url(#c596c35303)"><g clip-rule="nonzero" clip-path="url(#55b40e7aa2)"><path style=" stroke:none;fill-rule:nonzero;fill:currentColor;fill-opacity:1;" d="M 57.300781 185.183594 L 163.296875 185.183594 L 163.296875 200.601562 L 57.300781 200.601562 Z M 57.300781 185.183594 "/></g></g><g clip-rule="nonzero" clip-path="url(#46df70b11c)"><g clip-rule="nonzero" clip-path="url(#df8bc6129a)"><path style=" stroke:none;fill-rule:nonzero;fill:currentColor;fill-opacity:1;" d="M 57.300781 254.4375 L 163.296875 254.4375 L 163.296875 269.855469 L 57.300781 269.855469 Z M 57.300781 254.4375 "/></g></g><g clip-rule="nonzero" clip-path="url(#870c920911)"><g clip-rule="nonzero" clip-path="url(#1572555055)"><path style=" stroke:none;fill-rule:nonzero;fill:currentColor;fill-opacity:1;" d="M 58.351562 139.183594 L 164.351562 139.183594 L 164.351562 154.601562 L 58.351562 154.601562 Z M 58.351562 139.183594 "/></g></g><g clip-rule="nonzero" clip-path="url(#6310f914a0)"><g clip-rule="nonzero" clip-path="url(#9039ee7011)"><path style=" stroke:none;fill-rule:nonzero;fill:currentColor;fill-opacity:1;" d="M 190.988281 117.277344 L 208.765625 117.277344 L 208.765625 300.949219 L 190.988281 300.949219 Z M 190.988281 117.277344 "/></g></g><g clip-rule="nonzero" clip-path="url(#011bbad4aa)"><g clip-rule="nonzero" clip-path="url(#f22b17eb69)"><path style=" stroke:none;fill-rule:nonzero;fill:currentColor;fill-opacity:1;" d="M 193.683594 66.726562 L 336.898438 66.726562 L 336.898438 139.183594 L 193.683594 139.183594 Z M 193.683594 66.726562 "/></g></g><g clip-rule="nonzero" clip-path="url(#b695de0db3)"><g clip-rule="nonzero" clip-path="url(#0a77a1bad4)"><path style=" stroke:none;fill-rule:nonzero;fill:currentColor;fill-opacity:1;" d="M 321.238281 124.015625 L 337.5 124.015625 L 337.5 300.785156 L 321.238281 300.785156 Z M 321.238281 124.015625 "/></g></g><g clip-rule="nonzero" clip-path="url(#959bd7c7d9)"><g clip-rule="nonzero" clip-path="url(#219e216f35)"><path style=" stroke:none;fill-rule:nonzero;fill:currentColor;fill-opacity:1;" d="M 192.671875 284.683594 L 335.414062 284.683594 L 335.414062 308.273438 L 192.671875 308.273438 Z M 192.671875 284.683594 "/></g></g><g clip-rule="nonzero" clip-path="url(#438286a192)"><g clip-rule="nonzero" clip-path="url(#94fd9b817d)"><path style=" stroke:none;fill-rule:nonzero;fill:currentColor;fill-opacity:1;" d="M 211.25 161.929688 L 316.292969 161.929688 L 316.292969 177.601562 L 211.25 177.601562 Z M 211.25 161.929688 "/></g></g><g clip-rule="nonzero" clip-path="url(#433281308d)"><g clip-rule="nonzero" clip-path="url(#21885e4fb7)"><path style=" stroke:none;fill-rule:nonzero;fill:currentColor;fill-opacity:1;" d="M 210.238281 208.183594 L 316.238281 208.183594 L 316.238281 223.601562 L 210.238281 223.601562 Z M 210.238281 208.183594 "/></g></g><g clip-rule="nonzero" clip-path="url(#382e5d222d)"><g clip-rule="nonzero" clip-path="url(#293f40311e)"><path style=" stroke:none;fill-rule:nonzero;fill:currentColor;fill-opacity:1;" d="M 211.671875 231.183594 L 316.222656 231.183594 L 316.222656 246.855469 L 211.671875 246.855469 Z M 211.671875 231.183594 "/></g></g><g clip-rule="nonzero" clip-path="url(#061f0d2fd6)"><g clip-rule="nonzero" clip-path="url(#029b1dc58d)"><path style=" stroke:none;fill-rule:nonzero;fill:currentColor;fill-opacity:1;" d="M 210.785156 185.183594 L 316.785156 185.183594 L 316.785156 200.601562 L 210.785156 200.601562 Z M 210.785156 185.183594 "/></g></g><g clip-rule="nonzero" clip-path="url(#82943d8300)"><g clip-rule="nonzero" clip-path="url(#bf6899633d)"><path style=" stroke:none;fill-rule:nonzero;fill:currentColor;fill-opacity:1;" d="M 210.785156 254.4375 L 316.785156 254.4375 L 316.785156 269.855469 L 210.785156 269.855469 Z M 210.785156 254.4375 "/></g></g><g clip-rule="nonzero" clip-path="url(#8516e436d6)"><g clip-rule="nonzero" clip-path="url(#da5c57ac60)"><path style=" stroke:none;fill-rule:nonzero;fill:currentColor;fill-opacity:1;" d="M 211.839844 139.183594 L 317.835938 139.183594 L 317.835938 154.601562 L 211.839844 154.601562 Z M 211.839844 139.183594 "/></g></g></g></svg>