<svg xmlns="http://www.w3.org/2000/svg" xmlns:xlink="http://www.w3.org/1999/xlink" width="500" zoomAndPan="magnify" viewBox="0 0 375 374.999991" height="500" preserveAspectRatio="xMidYMid meet" version="1.2"><defs><clipPath id="15ebefcf2c"><path d="M 73.171875 205 L 96.082031 205 L 96.082031 256.066406 L 73.171875 256.066406 Z M 73.171875 205 "/></clipPath><clipPath id="dc7aa2829a"><path d="M 91.652344 251.296875 C 88.042969 251.734375 84.167969 255.433594 81.527344 255.875 C 79.414062 256.3125 76.859375 255.960938 75.539062 254.90625 C 74.394531 254.023438 74.042969 252.441406 73.601562 250.765625 C 73.074219 248.300781 73.074219 245.484375 73.601562 241.433594 C 74.484375 233.773438 79.765625 213.078125 81.792969 208.5 C 82.320312 207.179688 82.582031 206.652344 83.199219 206.125 C 83.90625 205.507812 84.960938 205.15625 85.839844 205.066406 C 86.722656 205.066406 87.867188 205.332031 88.570312 205.859375 C 89.453125 206.652344 90.332031 208.414062 90.421875 209.558594 C 90.507812 210.527344 90.15625 211.496094 89.453125 212.199219 C 88.746094 213.078125 86.898438 213.960938 85.753906 213.871094 C 84.519531 213.785156 82.847656 212.640625 82.230469 211.671875 C 81.703125 210.964844 81.4375 209.820312 81.703125 208.941406 C 81.878906 207.796875 83.023438 206.210938 84.082031 205.59375 C 84.875 205.066406 85.929688 204.980469 86.808594 205.15625 C 87.691406 205.332031 88.660156 205.859375 89.277344 206.5625 C 89.890625 207.179688 90.332031 207.707031 90.421875 209.117188 C 90.859375 214.222656 79.324219 245.132812 81.261719 246.363281 C 81.878906 246.804688 83.464844 244.515625 84.875 243.808594 C 86.371094 243.105469 88.308594 242.578125 89.890625 242.488281 C 91.214844 242.402344 92.710938 242.488281 93.765625 243.019531 C 94.648438 243.457031 95.441406 244.425781 95.792969 245.308594 C 96.144531 246.277344 96.144531 247.597656 95.792969 248.476562 C 95.441406 249.359375 94.472656 250.328125 93.679688 250.765625 C 93.0625 251.207031 91.652344 251.296875 91.652344 251.296875 "/></clipPath><clipPath id="0e010b2270"><path d="M 81.441406 205.335938 L 122.378906 205.335938 L 122.378906 247.390625 L 81.441406 247.390625 Z M 81.441406 205.335938 "/></clipPath><clipPath id="06206c3c7e"><path d="M 87.425781 205.507812 C 104.859375 214.929688 106.796875 216.335938 109.265625 218.628906 C 112.347656 221.445312 116.132812 225.671875 118.421875 229.105469 C 120.183594 231.921875 122.207031 235.003906 122.207031 237.472656 C 122.207031 239.320312 121.414062 241.257812 120.007812 242.3125 C 118.15625 243.722656 113.050781 242.753906 110.671875 243.546875 C 109 244.074219 106.976562 245.925781 106.710938 245.570312 C 106.445312 245.394531 107.589844 243.546875 107.589844 243.546875 C 107.589844 243.546875 106.886719 245.394531 106.269531 246.011719 C 105.652344 246.628906 104.597656 247.15625 103.714844 247.246094 C 102.835938 247.332031 101.78125 247.15625 100.988281 246.714844 C 100.195312 246.1875 99.488281 245.394531 99.136719 244.601562 C 98.785156 243.722656 98.699219 242.664062 98.960938 241.785156 C 99.3125 240.640625 100.632812 239.144531 101.78125 238.703125 C 102.925781 238.351562 104.859375 238.617188 105.828125 239.320312 C 106.796875 240.113281 107.679688 241.875 107.589844 243.105469 C 107.589844 244.25 106.535156 246.011719 105.566406 246.628906 C 104.507812 247.246094 102.484375 247.246094 101.425781 246.890625 C 100.546875 246.539062 99.753906 245.746094 99.402344 244.957031 C 98.960938 244.25 98.519531 243.195312 98.875 242.226562 C 99.578125 240.289062 104.773438 236.324219 107.328125 235.445312 C 108.910156 234.828125 111.464844 236.0625 111.816406 235.355469 C 112.257812 234.300781 108.207031 230.339844 106.09375 228.050781 C 103.980469 225.671875 102.042969 223.734375 99.050781 221.621094 C 94.910156 218.628906 85.136719 215.191406 82.847656 212.726562 C 81.878906 211.671875 81.703125 210.703125 81.613281 209.820312 C 81.527344 209.117188 81.703125 208.414062 82.054688 207.796875 C 82.496094 207.003906 83.464844 205.949219 84.34375 205.59375 C 85.226562 205.242188 87.425781 205.507812 87.425781 205.507812 "/></clipPath><clipPath id="fd5fb5acb9"><path d="M 89.546875 242.730469 L 191 242.730469 L 191 334 L 89.546875 334 Z M 89.546875 242.730469 "/></clipPath><clipPath id="d7d4af22ab"><path d="M 98.433594 247.246094 C 101.78125 258.957031 107.503906 267.320312 112.167969 273.484375 C 116.925781 279.738281 123 286.429688 127.929688 291.183594 C 131.804688 294.882812 134.800781 297.257812 138.9375 300.253906 C 143.78125 303.6875 149.855469 307.210938 155.316406 310.378906 C 160.597656 313.460938 165.707031 316.367188 171.253906 319.007812 C 177.066406 321.738281 186.925781 324.027344 189.480469 326.230469 C 190.449219 327.109375 190.625 327.8125 190.800781 328.695312 C 190.976562 329.574219 190.890625 330.632812 190.449219 331.425781 C 190.097656 332.304688 189.394531 333.097656 188.511719 333.449219 C 187.457031 333.890625 185.429688 333.976562 184.375 333.363281 C 183.316406 332.746094 182.261719 331.160156 182.085938 329.925781 C 181.996094 328.695312 182.878906 326.933594 183.757812 326.140625 C 184.460938 325.4375 185.519531 325.171875 186.398438 325.171875 C 187.28125 325.085938 188.335938 325.347656 189.039062 325.964844 C 189.921875 326.667969 190.976562 328.429688 190.890625 329.664062 C 190.890625 330.808594 189.832031 332.570312 188.863281 333.183594 C 188.160156 333.800781 187.457031 333.976562 186.136719 333.890625 C 182.4375 333.714844 172.3125 329.222656 164.824219 325.613281 C 155.757812 321.296875 143.871094 314.519531 136.121094 309.148438 C 130.132812 305.007812 125.90625 301.398438 121.238281 296.996094 C 116.484375 292.503906 112.167969 288.015625 107.765625 282.378906 C 102.484375 275.597656 95 264.679688 92.179688 258.515625 C 90.597656 254.992188 89.890625 252.175781 89.628906 249.710938 C 89.539062 248.039062 89.539062 246.453125 90.066406 245.394531 C 90.507812 244.425781 91.476562 243.632812 92.359375 243.195312 C 93.238281 242.84375 94.558594 242.84375 95.441406 243.195312 C 96.40625 243.457031 97.375 244.425781 97.816406 245.21875 C 98.257812 245.835938 98.433594 247.246094 98.433594 247.246094 "/></clipPath><clipPath id="7a0b028a2a"><path d="M 182.074219 243.535156 L 285.929688 243.535156 L 285.929688 334 L 182.074219 334 Z M 182.074219 243.535156 "/></clipPath><clipPath id="c90ccbe74c"><path d="M 186.398438 325.171875 C 201.898438 320.683594 206.300781 318.390625 210.878906 316.015625 C 216.074219 313.460938 221.710938 310.378906 226.902344 307.035156 C 232.011719 303.773438 237.117188 300.078125 241.875 296.203125 C 246.539062 292.328125 251.207031 287.835938 255.082031 283.609375 C 258.515625 280 261.070312 277.09375 264.0625 272.691406 C 267.9375 266.96875 273.398438 256.753906 275.6875 251.734375 C 276.832031 249.003906 276.742188 246.714844 277.976562 245.394531 C 278.945312 244.339844 280.527344 243.632812 281.671875 243.632812 C 282.640625 243.632812 283.609375 244.074219 284.316406 244.691406 C 285.019531 245.21875 285.636719 246.1875 285.722656 247.070312 C 285.898438 248.214844 285.460938 250.152344 284.667969 251.03125 C 283.785156 251.910156 281.9375 252.527344 280.707031 252.351562 C 279.558594 252.175781 277.976562 250.941406 277.445312 249.886719 C 276.917969 248.742188 277.09375 246.804688 277.710938 245.746094 C 278.328125 244.691406 280 243.722656 281.234375 243.632812 C 282.464844 243.546875 284.226562 244.515625 284.933594 245.394531 C 285.636719 246.101562 285.8125 246.890625 285.898438 248.039062 C 285.898438 249.796875 284.933594 252.351562 283.785156 255.167969 C 281.9375 259.660156 278.328125 266.351562 275.070312 271.636719 C 271.722656 277.007812 268.289062 282.113281 263.886719 287.132812 C 259.042969 292.679688 252.527344 298.667969 246.804688 303.421875 C 241.785156 307.648438 237.292969 310.820312 231.835938 314.339844 C 225.582031 318.304688 217.304688 322.796875 211.140625 325.789062 C 206.300781 328.167969 202.160156 329.925781 198.109375 331.335938 C 194.765625 332.480469 191.332031 333.714844 188.777344 333.890625 C 187.105469 334.066406 185.605469 333.890625 184.550781 333.449219 C 183.847656 333.183594 183.316406 332.746094 182.964844 332.128906 C 182.4375 331.335938 181.996094 330.101562 182.171875 329.136719 C 182.261719 328.167969 182.789062 326.933594 183.492188 326.316406 C 184.199219 325.613281 186.398438 325.171875 186.398438 325.171875 "/></clipPath><clipPath id="b607c68d41"><path d="M 277 203 L 301.734375 203 L 301.734375 254.988281 L 277 254.988281 Z M 277 203 "/></clipPath><clipPath id="e2ceb556e9"><path d="M 281.496094 243.632812 C 296.554688 246.804688 293.824219 249.09375 292.769531 248.652344 C 290.304688 247.773438 289.511719 233.242188 287.484375 226.199219 C 285.722656 219.859375 282.027344 211.671875 281.671875 208.324219 C 281.585938 207.003906 281.671875 206.300781 282.027344 205.507812 C 282.464844 204.714844 283.171875 203.835938 284.050781 203.480469 C 285.109375 203.128906 287.132812 203.042969 288.191406 203.570312 C 289.246094 204.1875 290.304688 205.859375 290.390625 207.09375 C 290.480469 208.238281 289.773438 210.085938 288.804688 210.878906 C 287.835938 211.671875 285.898438 212.023438 284.753906 211.671875 C 283.609375 211.320312 282.203125 209.910156 281.851562 208.765625 C 281.496094 207.621094 281.851562 205.683594 282.554688 204.714844 C 283.347656 203.746094 285.109375 202.953125 286.339844 203.042969 C 287.574219 203.128906 288.804688 204.011719 289.863281 205.242188 C 291.359375 207.09375 292.0625 210.261719 293.386719 214.3125 C 295.675781 221.53125 300.695312 240.023438 301.398438 245.925781 C 301.660156 248.125 301.839844 249.183594 301.308594 250.589844 C 300.78125 252.085938 299.902344 253.847656 298.050781 254.554688 C 294.707031 255.875 283.609375 253.496094 280.441406 252.265625 C 279.03125 251.824219 278.414062 251.296875 277.800781 250.503906 C 277.269531 249.710938 277.007812 248.476562 277.09375 247.507812 C 277.183594 246.539062 277.800781 245.394531 278.503906 244.691406 C 279.296875 244.074219 281.496094 243.632812 281.496094 243.632812 "/></clipPath><clipPath id="a2bb3b0bfe"><path d="M 250.585938 203.390625 L 290.386719 203.390625 L 290.386719 247.539062 L 250.585938 247.539062 Z M 250.585938 203.390625 "/></clipPath><clipPath id="0ab8b43844"><path d="M 287.398438 211.933594 C 277.886719 216.160156 272.253906 221.269531 269.699219 223.644531 C 268.289062 224.96875 267.761719 225.40625 266.703125 226.902344 C 264.679688 229.632812 261.683594 238.703125 259.570312 239.054688 C 258.339844 239.230469 255.875 236.324219 256.136719 235.710938 C 256.492188 234.917969 262.566406 235.445312 265.472656 236.238281 C 268.203125 236.941406 271.546875 238.4375 272.957031 239.761719 C 273.835938 240.550781 274.277344 241.34375 274.453125 242.136719 C 274.628906 243.019531 274.628906 244.164062 274.101562 244.957031 C 273.574219 245.921875 272.074219 247.246094 270.84375 247.421875 C 269.609375 247.683594 267.761719 247.070312 266.96875 246.1875 C 266.089844 245.308594 265.558594 243.371094 265.824219 242.136719 C 266.089844 240.992188 267.410156 239.496094 268.464844 239.054688 C 269.609375 238.617188 271.546875 238.792969 272.605469 239.496094 C 273.574219 240.113281 274.453125 241.960938 274.542969 243.105469 C 274.628906 244.074219 274.1875 245.042969 273.660156 245.746094 C 273.132812 246.453125 272.164062 247.15625 271.285156 247.332031 C 270.492188 247.597656 269.523438 247.421875 268.464844 247.246094 C 267.234375 246.890625 266.089844 245.746094 264.414062 245.308594 C 261.949219 244.601562 257.546875 245.394531 255.167969 244.425781 C 253.410156 243.808594 251.648438 242.753906 251.03125 241.34375 C 250.414062 239.847656 250.765625 237.824219 251.558594 235.535156 C 252.878906 231.394531 257.195312 224.4375 261.15625 219.859375 C 265.03125 215.28125 270.667969 210.964844 274.980469 208.148438 C 278.238281 206.035156 281.9375 204.1875 284.316406 203.65625 C 285.546875 203.394531 286.605469 203.394531 287.398438 203.65625 C 288.101562 203.921875 288.71875 204.273438 289.160156 204.890625 C 289.6875 205.59375 290.214844 206.914062 290.214844 207.796875 C 290.304688 208.589844 290.125 209.207031 289.773438 209.820312 C 289.246094 210.613281 287.398438 211.933594 287.398438 211.933594 "/></clipPath><clipPath id="fd3b24a4bc"><path d="M 198.511719 238.574219 L 274.558594 238.574219 L 274.558594 289.726562 L 198.511719 289.726562 Z M 198.511719 238.574219 "/></clipPath><clipPath id="b2a3673d53"><path d="M 274.277344 244.601562 C 266.96875 258.78125 263.621094 262.742188 260.453125 266.265625 C 257.28125 269.699219 254.289062 272.78125 250.414062 275.863281 C 246.011719 279.472656 239.847656 284.226562 235.09375 286.429688 C 231.570312 288.101562 228.402344 288.804688 225.144531 289.246094 C 222.0625 289.773438 218.449219 289.773438 215.984375 289.597656 C 214.222656 289.421875 213.167969 289.421875 211.496094 288.71875 C 209.117188 287.660156 205.507812 285.195312 203.304688 282.730469 C 201.28125 280.351562 199.429688 276.300781 198.816406 274.1875 C 198.550781 273.042969 198.460938 272.253906 198.816406 271.371094 C 199.253906 270.316406 200.574219 268.90625 201.808594 268.554688 C 202.953125 268.203125 204.890625 268.554688 205.859375 269.347656 C 206.738281 270.140625 207.53125 271.988281 207.355469 273.21875 C 207.269531 274.367188 206.210938 276.039062 205.15625 276.65625 C 204.011719 277.183594 202.074219 277.183594 201.015625 276.65625 C 199.871094 276.125 198.902344 274.367188 198.640625 273.308594 C 198.460938 272.339844 198.726562 271.285156 199.167969 270.492188 C 199.695312 269.785156 200.398438 268.992188 201.367188 268.640625 C 202.425781 268.378906 204.097656 268.289062 205.417969 269.082031 C 207.53125 270.402344 209.382812 276.300781 211.320312 278.238281 C 212.550781 279.558594 213.519531 280.351562 215.105469 280.792969 C 217.480469 281.410156 221.796875 280.882812 224.351562 280.527344 C 226.113281 280.265625 227.082031 280.089844 228.929688 279.382812 C 232.011719 278.0625 236.855469 275.070312 240.640625 272.339844 C 244.515625 269.523438 248.390625 266.175781 251.734375 262.742188 C 254.992188 259.394531 257.988281 255.960938 260.539062 252.175781 C 263.183594 248.300781 265.03125 241.785156 267.144531 239.847656 C 268.113281 238.96875 269.082031 238.703125 270.050781 238.703125 C 271.019531 238.703125 272.253906 239.144531 272.957031 239.761719 C 273.75 240.375 274.277344 241.609375 274.453125 242.488281 C 274.628906 243.195312 274.277344 244.601562 274.277344 244.601562 "/></clipPath><clipPath id="eb7eabf46c"><path d="M 101.035156 240.566406 L 175.738281 240.566406 L 175.738281 288.316406 L 101.035156 288.316406 Z M 101.035156 240.566406 "/></clipPath><clipPath id="9f68ac9eb6"><path d="M 109.175781 242.753906 C 121.769531 259.484375 124.585938 262.832031 128.019531 266.089844 C 131.453125 269.433594 136.382812 273.308594 139.203125 275.246094 C 140.699219 276.390625 141.492188 277.09375 142.902344 277.710938 C 144.398438 278.328125 145.984375 278.769531 147.917969 279.03125 C 150.472656 279.382812 154.523438 279.824219 156.8125 279.296875 C 158.484375 278.855469 159.453125 278.414062 160.597656 277.007812 C 162.800781 274.628906 165.003906 268.203125 166.234375 264.152344 C 167.203125 260.71875 166.410156 256.226562 167.820312 254.464844 C 168.699219 253.320312 170.375 252.703125 171.605469 252.792969 C 172.75 252.878906 174.425781 253.9375 175.039062 254.992188 C 175.65625 256.050781 175.746094 257.988281 175.214844 259.132812 C 174.6875 260.1875 173.101562 261.332031 171.871094 261.507812 C 170.726562 261.6875 168.875 261.070312 167.996094 260.1875 C 167.203125 259.308594 166.675781 257.371094 166.9375 256.136719 C 167.292969 254.992188 168.699219 253.585938 169.667969 253.054688 C 170.550781 252.703125 171.695312 252.703125 172.488281 252.96875 C 173.367188 253.234375 174.246094 253.847656 174.777344 254.554688 C 175.304688 255.347656 175.570312 256.136719 175.65625 257.28125 C 175.832031 258.867188 175.65625 261.070312 175.214844 263.183594 C 174.777344 265.824219 173.984375 268.816406 172.664062 271.898438 C 171.164062 275.6875 168.4375 281.496094 166.324219 283.964844 C 165.089844 285.460938 163.945312 286.078125 162.535156 286.691406 C 160.953125 287.484375 159.453125 287.835938 157.253906 288.101562 C 153.820312 288.453125 147.566406 288.277344 143.691406 287.222656 C 140.347656 286.429688 137.707031 284.84375 135.0625 283.171875 C 132.335938 281.496094 129.867188 279.296875 127.402344 277.183594 C 125.027344 275.15625 123 273.398438 120.445312 270.84375 C 116.925781 267.144531 111.816406 261.246094 108.472656 257.019531 C 105.828125 253.585938 102.835938 249.972656 101.78125 247.597656 C 101.25 246.363281 100.988281 245.484375 101.164062 244.515625 C 101.25 243.546875 101.957031 242.402344 102.660156 241.785156 C 103.1875 241.257812 103.894531 240.992188 104.507812 240.90625 C 105.214844 240.730469 105.917969 240.640625 106.621094 240.90625 C 107.503906 241.167969 109.175781 242.753906 109.175781 242.753906 "/></clipPath><clipPath id="5190f1345e"><path d="M 166.835938 133.386719 L 181.101562 133.386719 L 181.101562 261.617188 L 166.835938 261.617188 Z M 166.835938 133.386719 "/></clipPath><clipPath id="a1cc13bc0a"><path d="M 166.851562 257.019531 C 169.84375 215.808594 169.40625 205.859375 169.667969 193.269531 C 170.109375 176.800781 168.964844 143.164062 172.046875 136.382812 C 172.925781 134.625 173.984375 134.007812 175.039062 133.566406 C 176.007812 133.304688 177.066406 133.390625 177.859375 133.742188 C 178.738281 134.09375 179.621094 134.710938 180.058594 135.59375 C 180.5 136.5625 180.675781 138.585938 180.234375 139.644531 C 179.972656 140.523438 179.089844 141.316406 178.296875 141.757812 C 177.507812 142.109375 176.449219 142.285156 175.570312 142.195312 C 174.6875 142.019531 173.632812 141.492188 173.101562 140.875 C 172.488281 140.171875 171.871094 139.203125 171.871094 138.320312 C 171.871094 137.175781 172.488281 135.238281 173.367188 134.449219 C 174.335938 133.65625 176.273438 133.390625 177.417969 133.566406 C 178.386719 133.742188 179.265625 134.449219 179.796875 135.152344 C 180.324219 135.855469 180.410156 136.296875 180.675781 137.792969 C 181.996094 146.511719 179.441406 203.921875 178.210938 226.113281 C 177.417969 239.585938 177.242188 253.847656 175.480469 258.425781 C 174.953125 259.835938 174.425781 260.453125 173.632812 260.894531 C 172.75 261.421875 171.519531 261.6875 170.550781 261.507812 C 169.582031 261.332031 168.4375 260.71875 167.820312 259.925781 C 167.203125 259.21875 166.851562 257.019531 166.851562 257.019531 "/></clipPath><clipPath id="ce37e0f5ac"><path d="M 140.59375 129.035156 L 180 129.035156 L 180 141.371094 L 140.59375 141.371094 Z M 140.59375 129.035156 "/></clipPath><clipPath id="1e48bb8215"><path d="M 175.570312 141.316406 C 158.484375 140.523438 146.863281 139.554688 143.429688 137.53125 C 141.84375 136.648438 141.050781 135.417969 140.789062 134.359375 C 140.523438 133.390625 140.699219 132.335938 141.140625 131.542969 C 141.492188 130.75 142.195312 129.867188 143.078125 129.515625 C 144.132812 129.074219 146.160156 129.164062 147.214844 129.605469 C 148.097656 129.957031 148.800781 130.835938 149.152344 131.71875 C 149.503906 132.511719 149.59375 133.65625 149.328125 134.449219 C 149.152344 135.328125 148.535156 136.296875 147.917969 136.824219 C 147.214844 137.441406 146.160156 137.882812 145.277344 137.882812 C 144.132812 137.792969 142.285156 137 141.578125 136.03125 C 140.789062 135.0625 140.609375 133.039062 140.964844 131.980469 C 141.226562 131.101562 141.933594 130.222656 142.722656 129.78125 C 143.429688 129.253906 144.046875 129.164062 145.367188 129.074219 C 148.800781 128.898438 158.398438 131.542969 164.121094 132.15625 C 168.964844 132.6875 175.214844 131.804688 177.59375 133.039062 C 178.828125 133.566406 179.355469 134.449219 179.707031 135.328125 C 180.058594 136.296875 180.058594 137.53125 179.707031 138.496094 C 179.355469 139.378906 178.386719 140.347656 177.59375 140.789062 C 176.976562 141.226562 175.570312 141.316406 175.570312 141.316406 "/></clipPath><clipPath id="63c71b1014"><path d="M 137.316406 113.417969 L 179.652344 113.417969 L 179.652344 138.445312 L 137.316406 138.445312 Z M 137.316406 113.417969 "/></clipPath><clipPath id="05c6605f7f"><path d="M 140.789062 136.824219 C 137.351562 129.429688 137.265625 128.019531 137.351562 126.523438 C 137.441406 124.9375 137.617188 123 138.320312 121.679688 C 138.9375 120.359375 139.730469 119.214844 141.226562 118.246094 C 143.871094 116.574219 149.503906 115.78125 154.4375 115.074219 C 160.511719 114.105469 171.519531 113.050781 175.214844 113.578125 C 176.539062 113.753906 177.152344 113.84375 177.859375 114.460938 C 178.652344 115.25 179.53125 117.011719 179.53125 118.15625 C 179.621094 119.125 179.089844 120.09375 178.5625 120.800781 C 177.945312 121.503906 177.066406 122.121094 176.097656 122.207031 C 174.953125 122.382812 173.015625 121.855469 172.132812 121.152344 C 171.429688 120.535156 170.988281 119.566406 170.8125 118.6875 C 170.726562 117.804688 170.8125 116.660156 171.253906 115.867188 C 171.871094 114.898438 173.457031 113.667969 174.6875 113.578125 C 175.921875 113.402344 177.769531 114.195312 178.5625 115.074219 C 179.355469 116.042969 179.707031 117.980469 179.441406 119.125 C 179.089844 120.269531 178.296875 121.328125 176.625 122.121094 C 171.957031 124.410156 148.710938 122.296875 146.160156 125.464844 C 145.191406 126.699219 146.070312 128.636719 146.511719 129.957031 C 146.949219 131.101562 148.273438 131.894531 148.449219 132.949219 C 148.710938 134.007812 148.535156 135.238281 148.007812 136.03125 C 147.390625 137.089844 145.804688 138.234375 144.574219 138.320312 C 143.429688 138.410156 140.789062 136.824219 140.789062 136.824219 "/></clipPath><clipPath id="8417249255"><path d="M 170.800781 98.136719 L 180.617188 98.136719 L 180.617188 122.386719 L 170.800781 122.386719 Z M 170.800781 98.136719 "/></clipPath><clipPath id="83eb98dedc"><path d="M 170.8125 117.1875 C 173.101562 98.960938 173.984375 98.609375 174.863281 98.34375 C 175.746094 98.167969 176.800781 98.082031 177.683594 98.519531 C 178.652344 99.050781 179.972656 100.546875 180.324219 101.691406 C 180.585938 102.570312 180.410156 103.628906 180.058594 104.507812 C 179.621094 105.300781 178.914062 106.09375 178.121094 106.535156 C 177.328125 106.976562 176.273438 107.238281 175.304688 106.976562 C 174.246094 106.710938 172.574219 105.566406 172.046875 104.507812 C 171.519531 103.363281 171.78125 101.339844 172.222656 100.371094 C 172.664062 99.488281 173.542969 98.875 174.425781 98.519531 C 175.214844 98.167969 176.359375 98.167969 177.242188 98.34375 C 178.035156 98.609375 179.003906 99.226562 179.53125 99.929688 C 180.058594 100.632812 180.234375 101.339844 180.410156 102.660156 C 180.851562 105.742188 180.410156 115.605469 179.53125 118.6875 C 179.089844 120.007812 178.652344 120.800781 177.945312 121.414062 C 177.152344 122.03125 175.921875 122.382812 174.953125 122.382812 C 173.984375 122.296875 172.75 121.855469 172.132812 121.0625 C 171.34375 120.269531 170.8125 117.1875 170.8125 117.1875 "/></clipPath><clipPath id="f3ee052b65"><path d="M 151.476562 40.066406 L 221 40.066406 L 221 107.074219 L 151.476562 107.074219 Z M 151.476562 40.066406 "/></clipPath><clipPath id="61bb09d6b1"><path d="M 175.039062 106.886719 C 167.820312 104.332031 166.9375 103.714844 165.53125 102.484375 C 163.066406 100.28125 158.75 96.144531 156.550781 92.269531 C 154.257812 88.308594 152.851562 83.289062 152.144531 78.710938 C 151.441406 74.128906 151.355469 69.199219 152.410156 64.886719 C 153.46875 60.480469 156.195312 55.816406 158.664062 52.558594 C 160.597656 49.914062 162.449219 48.066406 165.265625 46.394531 C 168.699219 44.191406 173.542969 42.253906 178.296875 41.375 C 183.847656 40.316406 191.242188 39.613281 196.613281 41.023438 C 201.28125 42.167969 206.125 45.953125 208.941406 47.976562 C 210.527344 49.125 211.320312 49.738281 212.464844 51.148438 C 214.3125 53.261719 216.691406 56.871094 218.011719 59.953125 C 219.332031 62.859375 220.125 65.675781 220.5625 69.023438 C 221.09375 73.074219 221.09375 79.324219 220.300781 82.582031 C 219.773438 84.433594 219.242188 85.226562 218.097656 86.898438 C 216.25 89.714844 212.550781 94.207031 209.027344 97.289062 C 205.417969 100.457031 199.871094 104.859375 196.703125 105.652344 C 195.117188 106.007812 193.621094 105.828125 192.652344 105.125 C 191.59375 104.507812 190.800781 102.660156 190.714844 101.515625 C 190.625 100.546875 191.066406 99.578125 191.59375 98.875 C 192.210938 98.167969 193.003906 97.464844 193.972656 97.289062 C 195.117188 97.113281 197.054688 97.554688 198.023438 98.167969 C 198.726562 98.785156 199.34375 99.667969 199.429688 100.632812 C 199.609375 101.78125 198.992188 103.714844 198.285156 104.597656 C 197.671875 105.300781 196.703125 105.828125 195.820312 105.917969 C 194.675781 106.007812 192.738281 105.300781 191.859375 104.507812 C 191.242188 103.894531 190.800781 102.835938 190.714844 101.957031 C 190.625 101.074219 190.714844 100.28125 191.332031 99.226562 C 192.914062 96.9375 199.609375 94.03125 203.042969 90.683594 C 206.476562 87.515625 210.613281 83.816406 211.933594 79.679688 C 213.253906 75.539062 212.199219 69.726562 211.054688 65.941406 C 210.175781 62.859375 208.238281 60.21875 206.738281 58.191406 C 205.683594 56.695312 204.800781 55.902344 203.304688 54.757812 C 201.28125 53.171875 198.550781 50.796875 195.378906 49.914062 C 191.417969 48.859375 185.34375 49.476562 181.203125 50.003906 C 177.945312 50.445312 174.777344 51.324219 172.488281 52.292969 C 170.902344 52.996094 170.019531 53.527344 168.699219 54.757812 C 166.851562 56.34375 164.472656 59.777344 163.152344 61.980469 C 162.183594 63.476562 161.566406 64.445312 161.128906 66.207031 C 160.597656 68.671875 160.6875 73.074219 160.777344 75.628906 C 160.863281 77.386719 160.777344 78.355469 161.214844 80.03125 C 161.832031 82.496094 163.152344 86.28125 164.824219 88.921875 C 166.410156 91.476562 168.699219 93.941406 170.988281 95.617188 C 173.101562 97.113281 176.359375 97.554688 177.945312 98.699219 C 179.003906 99.402344 179.796875 100.019531 180.148438 100.988281 C 180.5 102.042969 180.324219 104.070312 179.707031 105.039062 C 179.179688 105.917969 178.035156 106.621094 177.152344 106.886719 C 176.449219 107.152344 175.039062 106.886719 175.039062 106.886719 "/></clipPath><clipPath id="27ef2bedaf"><path d="M 190.453125 100.042969 L 232.4375 100.042969 L 232.4375 124.863281 L 190.453125 124.863281 Z M 190.453125 100.042969 "/></clipPath><clipPath id="e6eab2b827"><path d="M 199.605469 104.507812 C 200.488281 112.523438 201.542969 113.136719 203.394531 113.753906 C 207.707031 115.339844 222.238281 114.988281 226.726562 115.691406 C 228.578125 116.042969 229.632812 115.867188 230.601562 116.660156 C 231.570312 117.453125 232.363281 119.214844 232.363281 120.359375 C 232.453125 121.328125 231.921875 122.296875 231.394531 123 C 230.777344 123.703125 229.898438 124.320312 229.015625 124.496094 C 227.871094 124.671875 225.9375 124.144531 224.96875 123.441406 C 224.261719 122.824219 223.824219 121.855469 223.644531 120.976562 C 223.46875 120.09375 223.558594 118.949219 224.085938 118.15625 C 224.703125 117.1875 226.289062 116.042969 227.433594 115.867188 C 228.402344 115.605469 229.457031 115.867188 230.164062 116.394531 C 231.128906 117.011719 232.1875 118.773438 232.363281 119.917969 C 232.539062 120.800781 232.277344 121.855469 231.660156 122.648438 C 230.953125 123.527344 229.898438 124.234375 228.050781 124.585938 C 223.558594 125.554688 209.292969 123.617188 203.128906 122.648438 C 199.429688 122.03125 196.4375 121.769531 194.414062 120.535156 C 193.003906 119.65625 192.210938 118.863281 191.507812 117.1875 C 190.363281 114.28125 190.1875 106.09375 190.890625 103.453125 C 191.332031 102.132812 191.859375 101.425781 192.652344 100.898438 C 193.53125 100.28125 194.765625 100.019531 195.734375 100.105469 C 196.703125 100.195312 197.847656 100.8125 198.460938 101.601562 C 199.167969 102.308594 199.605469 104.507812 199.605469 104.507812 "/></clipPath><clipPath id="d041799e5a"><path d="M 193.214844 115.601562 L 234.53125 115.601562 L 234.53125 141.519531 L 193.214844 141.519531 Z M 193.214844 115.601562 "/></clipPath><clipPath id="ac37908ebf"><path d="M 234.476562 119.917969 C 233.421875 137.175781 233.066406 138.058594 231.308594 139.027344 C 226.375 141.578125 200.929688 142.109375 196.347656 140.609375 C 195.027344 140.257812 194.5 139.730469 194.058594 138.9375 C 193.53125 137.96875 193.265625 135.945312 193.621094 134.800781 C 193.882812 133.917969 194.675781 133.125 195.46875 132.6875 C 196.171875 132.246094 197.230469 131.894531 198.199219 132.070312 C 199.34375 132.335938 201.015625 133.480469 201.632812 134.359375 C 202.074219 135.152344 202.160156 136.296875 202.074219 137.175781 C 201.898438 138.058594 201.457031 139.027344 200.753906 139.640625 C 199.871094 140.347656 197.933594 140.875 196.789062 140.789062 C 195.820312 140.609375 194.941406 139.996094 194.324219 139.289062 C 193.796875 138.675781 193.355469 137.617188 193.355469 136.738281 C 193.265625 135.769531 193.53125 134.710938 194.058594 134.007812 C 194.589844 133.214844 195.027344 132.773438 196.347656 132.246094 C 200.488281 130.75 221.972656 134.625 225.671875 130.75 C 227.871094 128.371094 225.230469 122.382812 225.671875 119.917969 C 225.847656 118.597656 226.199219 117.71875 226.726562 117.011719 C 227.167969 116.484375 227.785156 116.042969 228.488281 115.867188 C 229.371094 115.605469 230.777344 115.605469 231.570312 115.867188 C 232.277344 116.042969 232.890625 116.484375 233.332031 117.011719 C 233.859375 117.71875 234.476562 119.917969 234.476562 119.917969 "/></clipPath><clipPath id="5df0c4bf26"><path d="M 192.320312 133.75 L 208.144531 133.75 L 208.144531 278.984375 L 192.320312 278.984375 Z M 192.320312 133.75 "/></clipPath><clipPath id="15a6dada03"><path d="M 201.808594 138.058594 C 204.625 232.890625 205.683594 259.835938 206.828125 268.816406 C 207.269531 271.636719 208.0625 272.867188 208.0625 274.363281 C 207.972656 275.421875 207.796875 276.300781 207.269531 277.09375 C 206.476562 277.976562 204.800781 278.945312 203.570312 278.945312 C 202.335938 278.945312 200.664062 277.886719 199.960938 276.917969 C 199.34375 276.214844 199.078125 275.15625 199.253906 274.277344 C 199.429688 273.132812 200.488281 271.371094 201.367188 270.753906 C 202.160156 270.226562 203.304688 270.050781 204.1875 270.136719 C 205.066406 270.316406 206.125 270.667969 206.738281 271.371094 C 207.445312 272.25 208.0625 274.1875 207.972656 275.332031 C 207.882812 276.214844 207.269531 277.183594 206.5625 277.800781 C 205.949219 278.414062 204.890625 278.855469 204.011719 278.945312 C 203.128906 279.03125 202.074219 278.769531 201.28125 278.238281 C 200.574219 277.800781 199.960938 277.09375 199.519531 276.125 C 198.726562 274.453125 198.460938 272.339844 198.023438 268.816406 C 196.878906 259.308594 195.910156 235.710938 195.117188 216.515625 C 194.148438 192.828125 190.890625 145.453125 193.089844 137.351562 C 193.53125 135.769531 193.972656 135.328125 194.765625 134.710938 C 195.558594 134.09375 196.789062 133.742188 197.757812 133.832031 C 198.726562 133.917969 199.871094 134.449219 200.574219 135.152344 C 201.28125 135.855469 201.808594 138.058594 201.808594 138.058594 "/></clipPath></defs><g id="8d89a497f5"><g clip-rule="nonzero" clip-path="url(#15ebefcf2c)"><g clip-rule="nonzero" clip-path="url(#dc7aa2829a)"><path style=" stroke:none;fill-rule:nonzero;fill:currentColor;fill-opacity:1;" d="M 70.078125 201.542969 L 99.402344 201.542969 L 99.402344 259.5 L 70.078125 259.5 Z M 70.078125 201.542969 "/></g></g><g clip-rule="nonzero" clip-path="url(#0e010b2270)"><g clip-rule="nonzero" clip-path="url(#06206c3c7e)"><path style=" stroke:none;fill-rule:nonzero;fill:currentColor;fill-opacity:1;" d="M 78.09375 201.984375 L 125.730469 201.984375 L 125.730469 250.925781 L 78.09375 250.925781 Z M 78.09375 201.984375 "/></g></g><g clip-rule="nonzero" clip-path="url(#fd5fb5acb9)"><g clip-rule="nonzero" clip-path="url(#d7d4af22ab)"><path style=" stroke:none;fill-rule:nonzero;fill:currentColor;fill-opacity:1;" d="M 86.105469 239.671875 L 194.25 239.671875 L 194.25 337.5 L 86.105469 337.5 Z M 86.105469 239.671875 "/></g></g><g clip-rule="nonzero" clip-path="url(#7a0b028a2a)"><g clip-rule="nonzero" clip-path="url(#c90ccbe74c)"><path style=" stroke:none;fill-rule:nonzero;fill:currentColor;fill-opacity:1;" d="M 178.652344 240.113281 L 289.351562 240.113281 L 289.351562 337.5 L 178.652344 337.5 Z M 178.652344 240.113281 "/></g></g><g clip-rule="nonzero" clip-path="url(#b607c68d41)"><g clip-rule="nonzero" clip-path="url(#e2ceb556e9)"><path style=" stroke:none;fill-rule:nonzero;fill:currentColor;fill-opacity:1;" d="M 273.574219 199.519531 L 304.921875 199.519531 L 304.921875 258.050781 L 273.574219 258.050781 Z M 273.574219 199.519531 "/></g></g><g clip-rule="nonzero" clip-path="url(#a2bb3b0bfe)"><g clip-rule="nonzero" clip-path="url(#0ab8b43844)"><path style=" stroke:none;fill-rule:nonzero;fill:currentColor;fill-opacity:1;" d="M 247.507812 200.136719 L 293.824219 200.136719 L 293.824219 250.976562 L 247.507812 250.976562 Z M 247.507812 200.136719 "/></g></g><g clip-rule="nonzero" clip-path="url(#fd3b24a4bc)"><g clip-rule="nonzero" clip-path="url(#b2a3673d53)"><path style=" stroke:none;fill-rule:nonzero;fill:currentColor;fill-opacity:1;" d="M 195.117188 235.179688 L 277.953125 235.179688 L 277.953125 293.121094 L 195.117188 293.121094 Z M 195.117188 235.179688 "/></g></g><g clip-rule="nonzero" clip-path="url(#eb7eabf46c)"><g clip-rule="nonzero" clip-path="url(#9f68ac9eb6)"><path style=" stroke:none;fill-rule:nonzero;fill:currentColor;fill-opacity:1;" d="M 97.640625 237.382812 L 179.347656 237.382812 L 179.347656 291.710938 L 97.640625 291.710938 Z M 97.640625 237.382812 "/></g></g><g clip-rule="nonzero" clip-path="url(#5190f1345e)"><g clip-rule="nonzero" clip-path="url(#a1cc13bc0a)"><path style=" stroke:none;fill-rule:nonzero;fill:currentColor;fill-opacity:1;" d="M 163.328125 130.042969 L 184.199219 130.042969 L 184.199219 265.121094 L 163.328125 265.121094 Z M 163.328125 130.042969 "/></g></g><g clip-rule="nonzero" clip-path="url(#ce37e0f5ac)"><g clip-rule="nonzero" clip-path="url(#1e48bb8215)"><path style=" stroke:none;fill-rule:nonzero;fill:currentColor;fill-opacity:1;" d="M 137.265625 125.554688 L 183.199219 125.554688 L 183.199219 144.925781 L 137.265625 144.925781 Z M 137.265625 125.554688 "/></g></g><g clip-rule="nonzero" clip-path="url(#63c71b1014)"><g clip-rule="nonzero" clip-path="url(#05c6605f7f)"><path style=" stroke:none;fill-rule:nonzero;fill:currentColor;fill-opacity:1;" d="M 133.832031 110.054688 L 183.136719 110.054688 L 183.136719 141.933594 L 133.832031 141.933594 Z M 133.832031 110.054688 "/></g></g><g clip-rule="nonzero" clip-path="url(#8417249255)"><g clip-rule="nonzero" clip-path="url(#83eb98dedc)"><path style=" stroke:none;fill-rule:nonzero;fill:currentColor;fill-opacity:1;" d="M 167.292969 94.824219 L 183.933594 94.824219 L 183.933594 125.898438 L 167.292969 125.898438 Z M 167.292969 94.824219 "/></g></g><g clip-rule="nonzero" clip-path="url(#f3ee052b65)"><g clip-rule="nonzero" clip-path="url(#61bb09d6b1)"><path style=" stroke:none;fill-rule:nonzero;fill:currentColor;fill-opacity:1;" d="M 148.625 37.5 L 224.1875 37.5 L 224.1875 110.496094 L 148.625 110.496094 Z M 148.625 37.5 "/></g></g><g clip-rule="nonzero" clip-path="url(#27ef2bedaf)"><g clip-rule="nonzero" clip-path="url(#e6eab2b827)"><path style=" stroke:none;fill-rule:nonzero;fill:currentColor;fill-opacity:1;" d="M 187.367188 96.585938 L 235.894531 96.585938 L 235.894531 128.195312 L 187.367188 128.195312 Z M 187.367188 96.585938 "/></g></g><g clip-rule="nonzero" clip-path="url(#d041799e5a)"><g clip-rule="nonzero" clip-path="url(#ac37908ebf)"><path style=" stroke:none;fill-rule:nonzero;fill:currentColor;fill-opacity:1;" d="M 189.832031 112.347656 L 238.035156 112.347656 L 238.035156 144.398438 L 189.832031 144.398438 Z M 189.832031 112.347656 "/></g></g><g clip-rule="nonzero" clip-path="url(#5df0c4bf26)"><g clip-rule="nonzero" clip-path="url(#15a6dada03)"><path style=" stroke:none;fill-rule:nonzero;fill:currentColor;fill-opacity:1;" d="M 189.570312 130.308594 L 211.582031 130.308594 L 211.582031 282.511719 L 189.570312 282.511719 Z M 189.570312 130.308594 "/></g></g></g></svg>