<svg xmlns="http://www.w3.org/2000/svg" xmlns:xlink="http://www.w3.org/1999/xlink" width="500" zoomAndPan="magnify" viewBox="0 0 375 374.999991" height="500" preserveAspectRatio="xMidYMid meet" version="1.2"><defs><clipPath id="16dd57a9d6"><path d="M 49.722656 168.367188 L 116.726562 168.367188 L 116.726562 228.617188 L 49.722656 228.617188 Z M 49.722656 168.367188 "/></clipPath><clipPath id="b3e3064f06"><path d="M 111.019531 228.421875 C 99.015625 223.867188 97.027344 222.707031 94.046875 220.96875 C 89.90625 218.484375 83.945312 214.757812 79.226562 211.117188 C 74.425781 207.472656 68.878906 202.589844 65.484375 199.027344 C 63.164062 196.546875 62.007812 195.054688 60.183594 192.324219 C 57.617188 188.347656 51.824219 178.660156 52.320312 177.253906 C 52.484375 176.839844 53.394531 177.007812 53.480469 176.757812 C 53.480469 176.34375 50.828125 175.515625 50.25 174.605469 C 49.835938 173.777344 49.753906 172.785156 49.917969 171.957031 C 50 171.128906 50.5 170.21875 51.160156 169.636719 C 51.988281 168.976562 53.808594 168.394531 54.886719 168.644531 C 56.046875 168.890625 57.453125 170.132812 57.867188 171.210938 C 58.28125 172.285156 58.03125 174.109375 57.371094 175.101562 C 56.707031 176.011719 55.050781 176.839844 53.894531 176.839844 C 52.734375 176.839844 51.160156 175.929688 50.5 174.9375 C 49.835938 174.027344 49.671875 172.121094 50.167969 171.128906 C 50.582031 170.050781 52.320312 168.976562 53.148438 168.644531 C 53.644531 168.476562 53.976562 168.394531 54.472656 168.5625 C 55.632812 168.976562 57.535156 170.464844 59.109375 172.371094 C 61.757812 175.679688 64.160156 183.546875 67.222656 187.933594 C 69.871094 191.660156 72.851562 194.476562 75.914062 197.457031 C 79.0625 200.4375 82.207031 203.085938 86.015625 205.816406 C 90.320312 209.046875 95.539062 212.605469 100.589844 215.339844 C 105.472656 217.90625 113.667969 219.976562 115.65625 221.796875 C 116.320312 222.460938 116.402344 222.875 116.566406 223.535156 C 116.734375 224.363281 116.648438 225.6875 116.152344 226.433594 C 115.738281 227.261719 114.828125 228.089844 114 228.421875 C 113.089844 228.75 111.019531 228.421875 111.019531 228.421875 "/></clipPath><clipPath id="cf847d73ad"><path d="M 40.304688 146.496094 L 58.15625 146.496094 L 58.15625 178.371094 L 40.304688 178.371094 Z M 40.304688 146.496094 "/></clipPath><clipPath id="3589666aa3"><path d="M 55.300781 176.675781 C 47.765625 178.746094 44.207031 178.660156 42.632812 177.585938 C 41.558594 176.757812 41.226562 175.515625 40.8125 173.859375 C 40.148438 170.878906 40.066406 165.167969 41.058594 161.027344 C 42.054688 156.554688 45.199219 150.265625 47.105469 148.109375 C 47.933594 147.117188 48.761719 146.785156 49.585938 146.621094 C 50.25 146.457031 50.914062 146.457031 51.574219 146.703125 C 52.402344 146.953125 53.394531 147.699219 53.894531 148.523438 C 54.390625 149.269531 54.390625 151.421875 54.472656 151.339844 C 54.472656 151.339844 54.472656 149.765625 54.390625 149.765625 C 54.390625 149.765625 54.554688 151.671875 54.140625 152.417969 C 53.5625 153.328125 52.15625 154.570312 50.996094 154.734375 C 49.835938 154.898438 48.097656 154.320312 47.351562 153.492188 C 46.523438 152.664062 46.109375 150.84375 46.359375 149.765625 C 46.605469 148.609375 47.847656 147.199219 48.84375 146.785156 C 49.917969 146.371094 51.824219 146.621094 52.734375 147.285156 C 53.644531 147.863281 54.472656 149.601562 54.472656 150.679688 C 54.554688 151.589844 54.222656 152.5 53.644531 153.160156 C 52.898438 153.988281 51.242188 154.816406 50.085938 154.816406 C 49.007812 154.734375 47.351562 153.742188 46.773438 152.746094 C 46.191406 151.753906 46.277344 149.933594 46.605469 148.9375 C 46.773438 148.277344 47.269531 147.78125 47.765625 147.449219 C 48.511719 146.953125 49.671875 146.457031 50.582031 146.539062 C 51.492188 146.539062 52.652344 147.035156 53.3125 147.699219 C 53.894531 148.359375 54.472656 149.1875 54.472656 150.347656 C 54.472656 152.832031 50.167969 158.707031 49.339844 161.605469 C 48.761719 163.34375 48.761719 164.339844 48.675781 166.078125 C 48.59375 168.394531 49.835938 174.355469 49.339844 174.523438 C 49.007812 174.605469 46.773438 171.542969 47.105469 170.546875 C 47.601562 169.390625 51.824219 168.644531 53.5625 168.644531 C 54.722656 168.644531 55.632812 168.808594 56.375 169.390625 C 57.203125 170.132812 58.03125 171.871094 58.117188 172.867188 C 58.199219 173.613281 57.949219 174.191406 57.617188 174.769531 C 57.121094 175.515625 55.300781 176.675781 55.300781 176.675781 "/></clipPath><clipPath id="a310747784"><path d="M 46.136719 146.777344 L 73.167969 146.777344 L 73.167969 173.292969 L 46.136719 173.292969 Z M 46.136719 146.777344 "/></clipPath><clipPath id="2810ae0b63"><path d="M 51.492188 146.871094 C 67.71875 157.21875 71.609375 161.027344 72.605469 164.007812 C 73.265625 165.996094 73.347656 168.3125 72.273438 169.71875 C 70.867188 171.625 65.566406 172.867188 63.496094 173.199219 C 62.335938 173.363281 61.59375 173.28125 60.847656 172.949219 C 60.101562 172.617188 59.273438 171.957031 58.859375 171.210938 C 58.445312 170.464844 58.28125 169.390625 58.445312 168.5625 C 58.53125 167.734375 58.941406 166.824219 59.605469 166.242188 C 60.433594 165.496094 62.253906 165 63.332031 165.082031 C 64.160156 165.25 65.070312 165.828125 65.648438 166.410156 C 66.144531 167.070312 66.644531 167.980469 66.644531 168.890625 C 66.644531 169.96875 65.980469 171.707031 65.070312 172.453125 C 64.160156 173.113281 62.335938 173.445312 61.261719 173.113281 C 60.183594 172.785156 58.859375 171.457031 58.53125 170.382812 C 58.199219 169.222656 58.613281 167.652344 59.273438 166.574219 C 60.183594 165.25 62.335938 163.84375 63.910156 163.34375 C 65.402344 162.847656 68.382812 162.847656 68.464844 163.179688 C 68.546875 163.511719 65.234375 165.828125 63.664062 165.582031 C 61.59375 165.25 60.019531 161.441406 57.617188 159.621094 C 54.804688 157.46875 49.007812 155.3125 47.351562 153.824219 C 46.773438 153.160156 46.523438 152.746094 46.359375 152.085938 C 46.109375 151.257812 46.109375 150.015625 46.523438 149.1875 C 46.855469 148.359375 47.683594 147.449219 48.511719 147.035156 C 49.339844 146.703125 51.492188 146.871094 51.492188 146.871094 "/></clipPath><clipPath id="1dde94d3bf"><path d="M 59.445312 166.660156 L 107.914062 166.660156 L 107.914062 199 L 59.445312 199 Z M 59.445312 166.660156 "/></clipPath><clipPath id="9ebec50f44"><path d="M 67.222656 168.726562 C 82.125 187.6875 82.871094 188.183594 84.03125 188.929688 C 85.1875 189.589844 86.597656 190.253906 87.921875 190.5 C 89.328125 190.75 90.734375 190.75 92.058594 190.5 C 93.46875 190.253906 95.042969 189.757812 96.035156 188.929688 C 97.027344 188.015625 97.609375 186.691406 98.1875 185.203125 C 98.933594 183.382812 98.933594 180.152344 99.675781 178.660156 C 100.175781 177.667969 100.503906 177.007812 101.332031 176.59375 C 102.242188 176.011719 104.148438 175.847656 105.140625 176.179688 C 105.96875 176.425781 106.796875 177.089844 107.128906 177.917969 C 107.625 178.910156 107.792969 180.730469 107.378906 181.808594 C 106.878906 182.800781 105.390625 183.960938 104.230469 184.125 C 103.070312 184.292969 101.332031 183.628906 100.589844 182.800781 C 99.761719 181.972656 99.429688 180.152344 99.59375 179.074219 C 99.675781 178.246094 100.339844 177.335938 100.917969 176.839844 C 101.582031 176.261719 102.574219 175.929688 103.402344 175.847656 C 104.230469 175.847656 105.222656 176.011719 105.96875 176.59375 C 106.796875 177.253906 107.542969 178.660156 107.707031 180.070312 C 108.039062 182.054688 107.210938 185.121094 106.300781 187.519531 C 105.308594 190.085938 103.898438 192.984375 101.914062 194.804688 C 99.84375 196.628906 96.945312 197.953125 94.214844 198.613281 C 91.398438 199.195312 88.167969 199.027344 85.355469 198.367188 C 82.621094 197.703125 79.476562 195.882812 77.488281 194.558594 C 76.164062 193.648438 75.75 193.152344 74.425781 191.660156 C 71.28125 188.183594 61.925781 176.757812 60.269531 173.199219 C 59.605469 171.871094 59.523438 171.210938 59.605469 170.300781 C 59.769531 169.390625 60.351562 168.3125 61.097656 167.734375 C 61.757812 167.152344 62.917969 166.738281 63.828125 166.824219 C 64.988281 166.90625 67.222656 168.726562 67.222656 168.726562 "/></clipPath><clipPath id="e5a75f84e4"><path d="M 98.8125 101.472656 L 110.890625 101.472656 L 110.890625 187.046875 L 98.8125 187.046875 Z M 98.8125 101.472656 "/></clipPath><clipPath id="4b35617e21"><path d="M 98.847656 182.882812 C 102.160156 145.628906 101.332031 112.097656 102.492188 105.722656 C 102.742188 104.3125 102.742188 103.898438 103.320312 103.238281 C 104.066406 102.410156 105.722656 101.5 106.878906 101.582031 C 107.957031 101.664062 109.53125 102.742188 110.191406 103.570312 C 110.6875 104.3125 110.9375 105.308594 110.773438 106.136719 C 110.523438 107.210938 109.445312 108.785156 108.535156 109.363281 C 107.792969 109.859375 106.796875 109.945312 105.96875 109.777344 C 105.140625 109.695312 104.148438 109.28125 103.570312 108.535156 C 102.90625 107.707031 102.328125 105.96875 102.574219 104.8125 C 102.824219 103.734375 104.148438 102.328125 105.058594 101.828125 C 105.886719 101.5 106.878906 101.417969 107.707031 101.746094 C 108.703125 102.078125 110.027344 103.320312 110.523438 104.398438 C 111.019531 105.472656 110.6875 106.21875 110.773438 108.207031 C 110.855469 115.65625 110.359375 146.457031 109.445312 160.363281 C 108.867188 169.804688 108.371094 180.152344 106.964844 183.878906 C 106.464844 185.203125 106.050781 185.78125 105.308594 186.277344 C 104.5625 186.859375 103.402344 187.105469 102.492188 187.023438 C 101.582031 186.859375 100.503906 186.363281 99.84375 185.617188 C 99.261719 184.953125 98.847656 182.882812 98.847656 182.882812 "/></clipPath><clipPath id="c78ed9ed2e"><path d="M 82.34375 95.34375 L 110.761719 95.34375 L 110.761719 112.695312 L 82.34375 112.695312 Z M 82.34375 95.34375 "/></clipPath><clipPath id="4a5040bb17"><path d="M 102.328125 108.703125 C 100.753906 105.140625 86.429688 104.480469 83.863281 102.65625 C 82.871094 101.996094 82.703125 101.25 82.457031 100.421875 C 82.289062 99.59375 82.457031 98.519531 82.789062 97.773438 C 83.117188 97.027344 83.78125 96.199219 84.609375 95.867188 C 85.601562 95.453125 87.507812 95.289062 88.5 95.867188 C 89.492188 96.367188 90.488281 98.023438 90.652344 99.015625 C 90.820312 99.925781 90.488281 100.917969 90.074219 101.664062 C 89.660156 102.328125 88.914062 103.070312 88.085938 103.320312 C 87.011719 103.652344 85.1875 103.570312 84.195312 102.90625 C 83.285156 102.328125 82.457031 100.589844 82.375 99.511719 C 82.289062 98.601562 82.621094 97.691406 83.203125 97.027344 C 83.945312 96.199219 85.105469 95.539062 86.761719 95.371094 C 90.320312 95.042969 100.175781 98.023438 103.984375 99.347656 C 105.96875 100.007812 107.292969 100.257812 108.453125 101.417969 C 109.613281 102.65625 110.273438 105.140625 110.523438 106.632812 C 110.773438 107.707031 110.773438 108.617188 110.523438 109.445312 C 110.273438 110.359375 109.695312 111.351562 108.949219 111.929688 C 108.207031 112.425781 107.046875 112.757812 106.136719 112.675781 C 105.222656 112.675781 104.066406 112.097656 103.484375 111.433594 C 102.824219 110.773438 102.328125 108.703125 102.328125 108.703125 "/></clipPath><clipPath id="728778bf00"><path d="M 80.253906 84.742188 L 109.648438 84.742188 L 109.648438 103.71875 L 80.253906 103.71875 Z M 80.253906 84.742188 "/></clipPath><clipPath id="25107fe566"><path d="M 83.863281 102.65625 C 79.808594 96.613281 80.136719 94.957031 80.636719 93.550781 C 81.050781 92.058594 81.710938 90.652344 82.953125 89.492188 C 84.691406 87.921875 87.753906 86.511719 90.984375 85.769531 C 95.207031 84.773438 103.570312 84.359375 106.382812 85.1875 C 107.625 85.601562 108.289062 86.265625 108.867188 86.925781 C 109.28125 87.425781 109.53125 88.085938 109.53125 88.75 C 109.613281 89.578125 109.363281 90.820312 108.867188 91.5625 C 108.289062 92.308594 107.378906 93.054688 106.382812 93.300781 C 105.390625 93.46875 103.734375 93.21875 102.90625 92.558594 C 101.996094 91.8125 101.332031 90.074219 101.332031 88.996094 C 101.25 88.167969 101.664062 87.175781 102.242188 86.597656 C 102.988281 85.769531 104.8125 85.105469 105.886719 85.105469 C 106.796875 85.1875 107.625 85.683594 108.289062 86.265625 C 108.867188 86.84375 109.445312 87.671875 109.53125 88.582031 C 109.613281 89.660156 108.949219 91.480469 108.289062 92.226562 C 107.707031 92.886719 106.796875 93.300781 105.886719 93.386719 C 104.8125 93.386719 102.988281 92.804688 102.242188 91.894531 C 101.5 91.066406 101.167969 89.246094 101.417969 88.167969 C 101.746094 87.011719 102.988281 85.683594 104.066406 85.355469 C 105.222656 84.941406 107.292969 85.355469 108.207031 86.183594 C 109.03125 86.84375 109.695312 88.582031 109.53125 89.742188 C 109.363281 90.902344 108.703125 92.144531 107.378906 92.886719 C 104.726562 94.460938 95.539062 93.21875 92.226562 93.964844 C 90.40625 94.378906 88.5 94.875 88.335938 95.621094 C 88.167969 96.199219 90.074219 96.945312 90.40625 97.9375 C 90.734375 99.015625 90.652344 100.835938 89.992188 101.746094 C 89.410156 102.742188 87.753906 103.570312 86.597656 103.652344 C 85.683594 103.734375 83.863281 102.65625 83.863281 102.65625 "/></clipPath><clipPath id="475b9a89cd"><path d="M 101.273438 77.035156 L 111.226562 77.035156 L 111.226562 93.390625 L 101.273438 93.390625 Z M 101.273438 77.035156 "/></clipPath><clipPath id="af5c9b5fba"><path d="M 101.746094 87.011719 C 103.652344 78.648438 104.726562 77.570312 105.804688 77.242188 C 106.632812 76.910156 107.625 77.074219 108.453125 77.324219 C 109.199219 77.65625 110.027344 78.316406 110.441406 79.0625 C 110.855469 79.808594 111.101562 80.800781 111.019531 81.628906 C 110.9375 82.457031 110.523438 83.449219 109.859375 84.03125 C 109.117188 84.773438 107.292969 85.355469 106.21875 85.273438 C 105.308594 85.1875 104.480469 84.609375 103.898438 84.03125 C 103.320312 83.449219 102.824219 82.457031 102.742188 81.628906 C 102.65625 80.800781 102.90625 79.808594 103.320312 79.0625 C 103.734375 78.316406 104.480469 77.570312 105.390625 77.324219 C 106.382812 76.992188 108.289062 77.15625 109.199219 77.738281 C 110.109375 78.398438 110.773438 79.890625 111.019531 81.214844 C 111.351562 82.703125 111.101562 84.773438 110.6875 86.429688 C 110.359375 88.167969 109.613281 90.320312 108.703125 91.480469 C 108.039062 92.390625 107.210938 92.972656 106.382812 93.21875 C 105.472656 93.46875 104.230469 93.386719 103.402344 92.972656 C 102.574219 92.558594 101.746094 91.730469 101.417969 90.820312 C 101.085938 89.742188 101.746094 87.011719 101.746094 87.011719 "/></clipPath><clipPath id="73472011a1"><path d="M 90.671875 40.496094 L 137 40.496094 L 137 85.46875 L 90.671875 85.46875 Z M 90.671875 40.496094 "/></clipPath><clipPath id="db6bc5dd6d"><path d="M 104.5625 84.609375 C 94.875 76.164062 93.054688 73.265625 92.144531 71.113281 C 91.398438 69.625 91.148438 68.628906 90.984375 66.972656 C 90.734375 64.65625 90.734375 61.011719 91.316406 58.199219 C 91.894531 55.464844 92.886719 52.652344 94.460938 50.414062 C 96.035156 48.015625 98.933594 45.695312 100.835938 44.207031 C 102.160156 43.210938 103.15625 42.632812 104.480469 42.136719 C 105.804688 41.640625 107.046875 41.558594 108.703125 41.308594 C 111.019531 41.058594 114.496094 40.316406 117.3125 40.8125 C 120.128906 41.390625 123.109375 42.882812 125.589844 44.539062 C 128.074219 46.191406 130.640625 49.007812 132.132812 50.996094 C 133.207031 52.320312 133.621094 53.230469 134.285156 54.804688 C 135.277344 57.039062 136.601562 60.597656 136.769531 63.496094 C 137.015625 66.3125 136.851562 69.539062 135.691406 71.941406 C 134.535156 74.425781 131.71875 76.742188 129.898438 78.234375 C 128.488281 79.308594 127.164062 79.808594 125.757812 80.550781 C 124.265625 81.296875 122.609375 82.539062 121.121094 82.703125 C 119.796875 82.871094 118.222656 82.539062 117.3125 81.878906 C 116.648438 81.378906 116.152344 80.46875 115.988281 79.640625 C 115.820312 78.8125 115.820312 77.738281 116.234375 76.992188 C 116.816406 76.082031 118.304688 74.921875 119.382812 74.675781 C 120.210938 74.425781 121.203125 74.675781 121.949219 75.089844 C 122.695312 75.5 123.523438 76.164062 123.769531 76.992188 C 124.183594 78.070312 124.183594 79.890625 123.523438 80.882812 C 122.941406 81.878906 121.285156 82.703125 120.210938 82.871094 C 119.382812 82.953125 118.386719 82.621094 117.726562 82.125 C 116.980469 81.710938 116.320312 80.882812 116.070312 80.054688 C 115.820312 79.226562 115.820312 78.234375 116.070312 77.40625 C 116.402344 76.578125 116.898438 76 117.726562 75.335938 C 119.132812 74.09375 123.023438 72.933594 124.765625 71.695312 C 126.003906 70.699219 127 69.871094 127.660156 68.714844 C 128.324219 67.554688 128.570312 65.980469 128.570312 64.65625 C 128.570312 63.25 128.074219 61.925781 127.660156 60.597656 C 127.246094 59.273438 126.832031 58.117188 125.921875 56.789062 C 124.679688 54.886719 122.03125 51.988281 120.128906 50.746094 C 118.800781 49.835938 117.808594 49.339844 116.152344 49.089844 C 113.917969 48.761719 109.945312 48.761719 107.460938 49.835938 C 104.976562 50.914062 102.492188 53.148438 101.085938 55.382812 C 99.675781 57.703125 99.261719 61.261719 99.097656 63.578125 C 99.015625 65.152344 99.261719 66.476562 99.675781 67.800781 C 100.175781 69.042969 100.753906 70.039062 101.828125 71.445312 C 103.652344 73.761719 110.027344 77.820312 110.855469 80.136719 C 111.269531 81.296875 110.9375 82.289062 110.605469 83.117188 C 110.273438 83.699219 109.859375 84.195312 109.28125 84.609375 C 108.535156 85.023438 107.292969 85.355469 106.464844 85.273438 C 105.722656 85.273438 104.5625 84.609375 104.5625 84.609375 "/></clipPath><clipPath id="2579fc5648"><path d="M 115.570312 74.574219 L 124.496094 74.574219 L 124.496094 93.082031 L 115.570312 93.082031 Z M 115.570312 74.574219 "/></clipPath><clipPath id="839c636eaa"><path d="M 124.183594 78.730469 C 124.183594 90.652344 123.769531 91.316406 123.191406 91.894531 C 122.609375 92.472656 121.699219 92.972656 120.789062 92.972656 C 119.714844 93.054688 117.976562 92.308594 117.230469 91.5625 C 116.566406 90.984375 116.234375 89.992188 116.234375 89.078125 C 116.152344 88.253906 116.402344 87.257812 116.898438 86.597656 C 117.5625 85.769531 119.300781 84.859375 120.375 84.773438 C 121.203125 84.691406 122.195312 85.105469 122.859375 85.601562 C 123.523438 86.097656 124.101562 87.011719 124.351562 87.753906 C 124.597656 88.582031 124.515625 89.660156 124.183594 90.40625 C 123.851562 91.234375 123.191406 91.976562 122.445312 92.472656 C 121.78125 92.886719 120.707031 93.136719 119.878906 92.972656 C 119.050781 92.886719 118.140625 92.472656 117.476562 91.894531 C 116.898438 91.316406 116.566406 90.652344 116.234375 89.578125 C 115.65625 87.339844 115.324219 81.296875 115.90625 78.730469 C 116.234375 77.242188 116.816406 76 117.644531 75.335938 C 118.386719 74.757812 119.628906 74.507812 120.542969 74.675781 C 121.453125 74.757812 122.527344 75.335938 123.109375 76 C 123.6875 76.660156 124.183594 78.730469 124.183594 78.730469 "/></clipPath><clipPath id="cb0f2b962f"><path d="M 118.175781 85.851562 L 145.3125 85.851562 L 145.3125 106.855469 L 118.175781 106.855469 Z M 118.175781 85.851562 "/></clipPath><clipPath id="f4c150036c"><path d="M 122.363281 85.933594 C 139.5 87.09375 140.410156 87.589844 141.488281 88.5 C 142.648438 89.492188 143.558594 90.902344 144.21875 92.226562 C 144.800781 93.550781 145.128906 94.875 145.214844 96.28125 C 145.296875 97.691406 145.214844 99.347656 144.550781 100.753906 C 143.890625 102.160156 142.8125 103.652344 141.074219 104.644531 C 138.507812 106.136719 132.050781 106.964844 129.648438 106.796875 C 128.488281 106.714844 127.828125 106.464844 127.164062 105.96875 C 126.503906 105.472656 125.839844 104.644531 125.675781 103.816406 C 125.507812 102.742188 125.757812 100.835938 126.503906 100.007812 C 127.246094 99.097656 128.984375 98.4375 130.144531 98.519531 C 131.222656 98.683594 132.792969 99.761719 133.375 100.753906 C 133.871094 101.746094 133.789062 103.652344 133.375 104.644531 C 132.960938 105.390625 132.214844 106.050781 131.386719 106.464844 C 130.640625 106.796875 129.648438 106.964844 128.820312 106.714844 C 127.746094 106.382812 126.253906 105.222656 125.839844 104.230469 C 125.425781 103.15625 125.757812 101.25 126.253906 100.339844 C 126.667969 99.59375 127.414062 99.097656 128.324219 98.765625 C 129.648438 98.1875 132.132812 98.765625 133.621094 98.1875 C 134.945312 97.609375 137.265625 96.28125 137.101562 95.621094 C 136.6875 94.296875 123.191406 95.125 120.457031 93.714844 C 119.300781 93.136719 118.800781 92.390625 118.472656 91.480469 C 118.140625 90.652344 118.140625 89.410156 118.472656 88.582031 C 118.800781 87.753906 119.714844 86.84375 120.457031 86.347656 C 121.039062 86.015625 122.363281 85.933594 122.363281 85.933594 "/></clipPath><clipPath id="a1f1a8a9df"><path d="M 118.417969 98.796875 L 134.488281 98.796875 L 134.488281 107.472656 L 118.417969 107.472656 Z M 118.417969 98.796875 "/></clipPath><clipPath id="2e30ee8936"><path d="M 122.609375 98.847656 C 131.71875 99.179688 133.042969 99.84375 133.707031 100.671875 C 134.285156 101.332031 134.449219 102.410156 134.449219 103.238281 C 134.367188 104.066406 133.953125 105.058594 133.457031 105.722656 C 132.878906 106.300781 131.964844 106.878906 131.140625 107.046875 C 130.394531 107.210938 129.316406 107.210938 128.570312 106.796875 C 127.578125 106.21875 126.417969 104.8125 126.171875 103.652344 C 126.003906 102.574219 126.585938 100.753906 127.414062 100.007812 C 128.242188 99.179688 130.144531 98.847656 131.140625 98.933594 C 132.050781 99.097656 132.878906 99.675781 133.457031 100.339844 C 133.953125 100.917969 134.367188 101.914062 134.449219 102.742188 C 134.449219 103.652344 134.203125 104.644531 133.707031 105.308594 C 133.207031 106.050781 132.628906 106.550781 131.636719 106.964844 C 129.730469 107.625 124.679688 107.460938 122.609375 107.128906 C 121.371094 106.964844 120.542969 106.714844 119.878906 106.136719 C 119.132812 105.472656 118.554688 104.398438 118.472656 103.484375 C 118.386719 102.574219 118.636719 101.417969 119.214844 100.671875 C 119.878906 99.761719 122.609375 98.847656 122.609375 98.847656 "/></clipPath><clipPath id="4d1f92822d"><path d="M 116.132812 99.054688 L 127.953125 99.054688 L 127.953125 179.363281 L 116.132812 179.363281 Z M 116.132812 99.054688 "/></clipPath><clipPath id="7b0ae7c0ce"><path d="M 125.011719 103.238281 C 126.503906 159.453125 128.324219 171.128906 127.828125 175.183594 C 127.660156 176.425781 127.578125 177.007812 127 177.667969 C 126.253906 178.496094 124.597656 179.324219 123.4375 179.324219 C 122.363281 179.242188 120.789062 178.164062 120.128906 177.335938 C 119.628906 176.59375 119.382812 175.597656 119.546875 174.6875 C 119.796875 173.695312 120.871094 172.121094 121.78125 171.542969 C 122.527344 171.042969 123.523438 170.960938 124.351562 171.042969 C 125.175781 171.210938 126.089844 171.707031 126.667969 172.285156 C 127.246094 172.949219 127.746094 173.859375 127.828125 174.6875 C 127.910156 175.515625 127.746094 176.59375 127.246094 177.335938 C 126.585938 178.164062 125.011719 179.160156 123.9375 179.324219 C 123.023438 179.40625 122.03125 179.160156 121.371094 178.578125 C 120.542969 177.917969 120.042969 176.921875 119.546875 175.183594 C 118.222656 170.632812 118.222656 159.289062 117.808594 149.4375 C 117.148438 136.273438 115.242188 109.695312 116.734375 103.238281 C 117.148438 101.332031 117.644531 100.503906 118.554688 99.761719 C 119.300781 99.179688 120.457031 99.015625 121.371094 99.097656 C 122.28125 99.179688 123.355469 99.761719 123.9375 100.421875 C 124.597656 101.167969 125.011719 103.238281 125.011719 103.238281 "/></clipPath><clipPath id="3cb137c1d3"><path d="M 119.042969 171.152344 L 167.328125 171.152344 L 167.328125 200.769531 L 119.042969 200.769531 Z M 119.042969 171.152344 "/></clipPath><clipPath id="bbda9c6060"><path d="M 127.828125 175.265625 C 128.324219 188.015625 129.070312 189.09375 129.980469 190.085938 C 130.972656 191.082031 132.296875 191.910156 133.621094 192.238281 C 134.945312 192.570312 136.355469 192.488281 138.011719 192.074219 C 140.246094 191.578125 143.226562 190.003906 145.542969 188.515625 C 147.863281 187.023438 149.683594 185.367188 151.917969 183.132812 C 154.816406 180.152344 158.292969 173.199219 160.945312 171.871094 C 162.351562 171.210938 163.84375 171.292969 164.835938 171.707031 C 165.746094 172.121094 166.492188 173.113281 166.824219 173.859375 C 167.152344 174.523438 167.238281 175.183594 167.152344 175.847656 C 167.070312 176.425781 166.988281 177.171875 166.492188 177.667969 C 165.828125 178.496094 164.089844 179.488281 163.015625 179.574219 C 162.101562 179.65625 161.109375 179.324219 160.449219 178.746094 C 159.703125 178 158.792969 176.34375 158.875 175.183594 C 158.957031 174.027344 159.949219 172.453125 160.945312 171.871094 C 161.9375 171.292969 163.757812 171.210938 164.835938 171.707031 C 165.828125 172.203125 166.90625 173.777344 167.152344 174.851562 C 167.320312 175.679688 167.070312 176.757812 166.65625 177.503906 C 166.242188 178.164062 165.582031 178.992188 164.753906 179.242188 C 163.675781 179.574219 161.855469 179.574219 160.863281 178.992188 C 159.867188 178.414062 158.875 176.757812 158.875 175.679688 C 158.875 174.4375 160.035156 172.535156 160.945312 171.871094 C 161.773438 171.292969 163.015625 171.292969 163.84375 171.457031 C 164.585938 171.542969 165.167969 171.789062 165.664062 172.285156 C 166.324219 173.03125 167.320312 174.355469 167.152344 175.847656 C 166.824219 178.828125 161.273438 185.035156 158.378906 188.347656 C 156.140625 190.832031 154.074219 192.570312 151.671875 194.308594 C 149.351562 196.046875 146.785156 197.703125 144.054688 198.699219 C 141.40625 199.773438 137.929688 200.519531 135.527344 200.683594 C 133.871094 200.765625 132.792969 200.851562 131.304688 200.269531 C 129.070312 199.441406 125.921875 197.375 123.9375 195.21875 C 121.949219 192.902344 120.375 189.671875 119.628906 186.445312 C 118.800781 183.050781 119.132812 177.667969 119.546875 175.265625 C 119.796875 174.027344 120.042969 173.199219 120.625 172.535156 C 121.039062 171.957031 121.535156 171.625 122.195312 171.375 C 123.023438 171.128906 124.351562 171.128906 125.175781 171.375 C 125.839844 171.625 126.335938 171.957031 126.75 172.535156 C 127.332031 173.199219 127.828125 175.265625 127.828125 175.265625 "/></clipPath><clipPath id="a0111b45fa"><path d="M 153.410156 162.519531 L 169.304688 162.519531 L 169.304688 180.507812 L 153.410156 180.507812 Z M 153.410156 162.519531 "/></clipPath><clipPath id="c88a029bad"><path d="M 158.542969 174.355469 C 162.433594 168.976562 164.089844 172.617188 163.59375 173.199219 C 162.929688 173.859375 157.300781 171.707031 155.644531 170.382812 C 154.488281 169.472656 153.660156 168.230469 153.492188 167.152344 C 153.328125 166.324219 153.492188 165.332031 154.074219 164.585938 C 154.652344 163.757812 156.226562 162.683594 157.382812 162.601562 C 158.542969 162.515625 160.199219 163.429688 160.863281 164.257812 C 161.441406 164.917969 161.6875 165.910156 161.6875 166.738281 C 161.6875 167.566406 161.441406 168.644531 160.863281 169.222656 C 160.117188 170.050781 158.378906 170.878906 157.300781 170.878906 C 156.472656 170.878906 155.480469 170.464844 154.898438 169.886719 C 154.238281 169.390625 153.742188 168.476562 153.492188 167.652344 C 153.328125 166.824219 153.492188 165.746094 153.824219 165 C 154.15625 164.257812 154.898438 163.511719 155.644531 163.097656 C 156.390625 162.683594 157.136719 162.515625 158.292969 162.683594 C 160.53125 162.929688 166.324219 164.667969 167.980469 166.738281 C 169.222656 168.230469 169.472656 170.382812 169.140625 172.285156 C 168.726562 174.6875 165.828125 178.746094 164.421875 179.820312 C 163.757812 180.402344 163.261719 180.484375 162.515625 180.484375 C 161.6875 180.566406 160.449219 180.316406 159.703125 179.738281 C 158.957031 179.242188 158.292969 178.164062 158.128906 177.253906 C 157.878906 176.425781 158.542969 174.355469 158.542969 174.355469 "/></clipPath><clipPath id="067f8ef0ce"><path d="M 152.671875 142.535156 L 181.292969 142.535156 L 181.292969 169.714844 L 152.671875 169.714844 Z M 152.671875 142.535156 "/></clipPath><clipPath id="8d78ce5ea0"><path d="M 153.078125 164.089844 C 163.84375 149.105469 167.980469 145.792969 171.292969 144.21875 C 173.695312 143.144531 176.675781 142.398438 178.246094 142.730469 C 179.242188 142.976562 179.988281 143.558594 180.402344 144.304688 C 180.980469 145.214844 181.3125 147.035156 180.898438 148.109375 C 180.566406 149.1875 179.160156 150.429688 178 150.761719 C 176.921875 151.007812 175.101562 150.429688 174.273438 149.765625 C 173.613281 149.269531 173.113281 148.359375 172.949219 147.449219 C 172.867188 146.371094 173.445312 144.550781 174.109375 143.804688 C 174.6875 143.0625 175.679688 142.730469 176.507812 142.5625 C 177.335938 142.480469 178.332031 142.648438 179.074219 143.144531 C 179.988281 143.722656 180.980469 145.296875 181.144531 146.371094 C 181.3125 147.285156 181.144531 148.109375 180.566406 148.9375 C 179.324219 150.511719 175.101562 151.671875 172.699219 153.328125 C 170.300781 154.898438 168.230469 156.472656 166.160156 158.707031 C 163.59375 161.523438 161.027344 167.898438 158.875 169.222656 C 157.796875 169.886719 156.722656 169.71875 155.894531 169.554688 C 155.230469 169.472656 154.652344 169.140625 154.15625 168.644531 C 153.574219 168.0625 152.996094 166.90625 152.832031 166.078125 C 152.664062 165.332031 153.078125 164.089844 153.078125 164.089844 "/></clipPath><clipPath id="b4f3dba7ef"><path d="M 172.75 142.53125 L 188.789062 142.53125 L 188.789062 178.597656 L 172.75 178.597656 Z M 172.75 142.53125 "/></clipPath><clipPath id="87b50aee97"><path d="M 180.648438 144.882812 C 187.105469 163.84375 189.011719 171.542969 188.761719 174.523438 C 188.679688 175.679688 188.347656 176.34375 187.851562 177.007812 C 187.355469 177.667969 186.445312 178.246094 185.617188 178.414062 C 184.871094 178.660156 183.796875 178.578125 183.050781 178.246094 C 182.222656 177.917969 181.476562 177.171875 181.0625 176.425781 C 180.648438 175.765625 180.316406 174.769531 180.566406 173.859375 C 180.730469 172.785156 181.890625 171.292969 182.800781 170.714844 C 183.546875 170.21875 184.539062 170.132812 185.367188 170.382812 C 186.445312 170.632812 187.933594 171.789062 188.429688 172.785156 C 188.84375 173.527344 188.84375 174.605469 188.679688 175.433594 C 188.429688 176.179688 187.933594 177.171875 187.273438 177.667969 C 186.363281 178.246094 184.457031 178.578125 183.464844 178.414062 C 182.554688 178.164062 181.972656 177.832031 181.3125 176.839844 C 179.488281 174.191406 178.496094 163.59375 176.921875 158.210938 C 175.597656 153.824219 172.699219 149.105469 172.785156 146.539062 C 172.785156 145.296875 173.28125 144.550781 173.859375 143.890625 C 174.523438 143.226562 175.679688 142.730469 176.507812 142.5625 C 177.253906 142.480469 177.917969 142.5625 178.496094 142.894531 C 179.242188 143.226562 180.648438 144.882812 180.648438 144.882812 "/></clipPath><clipPath id="9232b42a54"><path d="M 166.417969 169.480469 L 188.789062 169.480469 L 188.789062 186.839844 L 166.417969 186.839844 Z M 166.417969 169.480469 "/></clipPath><clipPath id="1264f7a9a3"><path d="M 185.121094 178.496094 C 177.832031 178.660156 175.351562 178.578125 175.101562 177.917969 C 174.769531 177.171875 177.335938 174.4375 177.585938 174.523438 C 177.917969 174.769531 174.605469 184.539062 172.867188 186.113281 C 172.039062 186.859375 171.128906 186.859375 170.300781 186.777344 C 169.472656 186.691406 168.476562 186.277344 167.898438 185.699219 C 167.238281 185.203125 166.65625 184.292969 166.574219 183.464844 C 166.410156 182.386719 166.988281 180.566406 167.652344 179.738281 C 168.230469 179.074219 169.222656 178.660156 170.050781 178.496094 C 170.878906 178.414062 171.871094 178.496094 172.617188 178.992188 C 173.527344 179.65625 174.605469 181.144531 174.769531 182.304688 C 174.851562 183.382812 174.027344 185.121094 173.199219 185.863281 C 172.617188 186.445312 171.542969 186.777344 170.714844 186.777344 C 169.886719 186.777344 168.890625 186.527344 168.230469 186.03125 C 167.566406 185.535156 166.90625 184.707031 166.65625 183.878906 C 166.410156 183.050781 166.492188 182.222656 166.738281 181.226562 C 167.070312 179.574219 168.148438 176.675781 169.304688 175.183594 C 170.21875 173.941406 172.699219 172.453125 172.699219 172.453125 C 172.699219 172.535156 169.636719 175.765625 169.222656 175.515625 C 168.808594 175.351562 169.390625 172.453125 170.132812 171.457031 C 170.960938 170.464844 172.285156 169.96875 174.027344 169.636719 C 177.007812 169.140625 184.953125 169.96875 186.941406 170.960938 C 187.769531 171.375 188.015625 171.871094 188.265625 172.453125 C 188.597656 173.28125 188.84375 174.523438 188.679688 175.351562 C 188.429688 176.261719 187.6875 177.253906 187.023438 177.832031 C 186.445312 178.246094 185.121094 178.496094 185.121094 178.496094 "/></clipPath><clipPath id="41f693ce4d"><path d="M 108.382812 176.109375 L 176.460938 176.109375 L 176.460938 229.367188 L 108.382812 229.367188 Z M 108.382812 176.109375 "/></clipPath><clipPath id="8fc994e39c"><path d="M 112.511719 220.636719 C 122.527344 219.3125 130.0625 215.339844 134.285156 213.019531 C 137.265625 211.363281 139.335938 209.875 141.820312 208.136719 C 144.21875 206.480469 146.539062 204.742188 148.691406 202.753906 C 150.925781 200.765625 152.664062 198.699219 154.816406 196.296875 C 157.46875 193.398438 160.777344 189.839844 163.261719 186.527344 C 165.582031 183.464844 167.566406 178.746094 169.390625 177.253906 C 170.21875 176.507812 170.878906 176.179688 171.789062 176.179688 C 172.867188 176.179688 174.605469 176.921875 175.351562 177.75 C 175.929688 178.332031 176.34375 179.324219 176.261719 180.234375 C 176.179688 181.3125 175.433594 182.96875 174.523438 183.628906 C 173.613281 184.375 171.707031 184.457031 170.714844 184.207031 C 169.804688 183.960938 169.058594 183.296875 168.644531 182.554688 C 168.148438 181.558594 167.980469 179.65625 168.3125 178.660156 C 168.5625 177.832031 169.390625 177.089844 170.050781 176.675781 C 170.796875 176.261719 171.871094 176.09375 172.699219 176.179688 C 173.527344 176.34375 174.4375 176.757812 175.019531 177.421875 C 175.597656 178 176.09375 178.910156 176.261719 179.738281 C 176.34375 180.566406 176.09375 181.3125 175.679688 182.386719 C 174.9375 184.207031 173.199219 186.941406 171.128906 189.839844 C 167.652344 194.476562 160.863281 202.339844 156.226562 206.894531 C 152.746094 210.289062 149.765625 212.691406 146.289062 215.171875 C 142.730469 217.738281 139.085938 219.976562 134.863281 222.046875 C 129.980469 224.527344 122.859375 227.921875 118.472656 228.835938 C 115.738281 229.332031 113.171875 229.332031 111.515625 228.835938 C 110.441406 228.503906 109.613281 227.839844 109.117188 227.179688 C 108.703125 226.597656 108.453125 226.019531 108.453125 225.273438 C 108.371094 224.445312 108.535156 223.203125 109.117188 222.460938 C 109.777344 221.632812 112.511719 220.636719 112.511719 220.636719 "/></clipPath><clipPath id="6e53abbb89"><path d="M 190.761719 273.71875 L 257.761719 273.71875 L 257.761719 333.96875 L 190.761719 333.96875 Z M 190.761719 273.71875 "/></clipPath><clipPath id="f3041395fa"><path d="M 252.058594 333.773438 C 240.054688 329.222656 238.066406 328.0625 235.085938 326.324219 C 230.945312 323.839844 224.984375 320.113281 220.265625 316.46875 C 215.464844 312.828125 209.917969 307.941406 206.523438 304.382812 C 204.203125 301.898438 203.042969 300.410156 201.222656 297.675781 C 198.65625 293.703125 192.859375 284.015625 193.359375 282.609375 C 193.523438 282.195312 194.433594 282.359375 194.515625 282.113281 C 194.515625 281.699219 191.867188 280.871094 191.289062 279.957031 C 190.875 279.132812 190.789062 278.136719 190.957031 277.308594 C 191.039062 276.480469 191.535156 275.570312 192.199219 274.992188 C 193.027344 274.328125 194.847656 273.75 195.925781 273.996094 C 197.082031 274.246094 198.492188 275.488281 198.90625 276.5625 C 199.320312 277.640625 199.070312 279.460938 198.40625 280.457031 C 197.746094 281.367188 196.089844 282.195312 194.929688 282.195312 C 193.773438 282.195312 192.199219 281.285156 191.535156 280.289062 C 190.875 279.378906 190.707031 277.476562 191.203125 276.480469 C 191.617188 275.40625 193.359375 274.328125 194.183594 273.996094 C 194.683594 273.832031 195.011719 273.75 195.511719 273.914062 C 196.667969 274.328125 198.574219 275.820312 200.148438 277.722656 C 202.796875 281.035156 205.195312 288.902344 208.261719 293.289062 C 210.910156 297.015625 213.890625 299.828125 216.953125 302.808594 C 220.101562 305.789062 223.246094 308.441406 227.054688 311.171875 C 231.359375 314.402344 236.574219 317.960938 241.625 320.691406 C 246.511719 323.257812 254.707031 325.328125 256.695312 327.152344 C 257.355469 327.8125 257.4375 328.226562 257.605469 328.890625 C 257.769531 329.71875 257.6875 331.042969 257.191406 331.789062 C 256.777344 332.613281 255.867188 333.441406 255.039062 333.773438 C 254.128906 334.105469 252.058594 333.773438 252.058594 333.773438 "/></clipPath><clipPath id="737c969342"><path d="M 181.339844 251.851562 L 199.195312 251.851562 L 199.195312 283.722656 L 181.339844 283.722656 Z M 181.339844 251.851562 "/></clipPath><clipPath id="954e72f477"><path d="M 196.339844 282.027344 C 188.804688 284.097656 185.242188 284.015625 183.671875 282.941406 C 182.59375 282.113281 182.261719 280.871094 181.847656 279.214844 C 181.1875 276.234375 181.105469 270.519531 182.097656 266.382812 C 183.089844 261.910156 186.238281 255.617188 188.140625 253.464844 C 188.96875 252.472656 189.796875 252.140625 190.625 251.976562 C 191.289062 251.808594 191.949219 251.808594 192.613281 252.058594 C 193.441406 252.304688 194.433594 253.050781 194.929688 253.878906 C 195.425781 254.625 195.425781 256.777344 195.511719 256.695312 C 195.511719 256.695312 195.511719 255.121094 195.425781 255.121094 C 195.425781 255.121094 195.59375 257.023438 195.179688 257.769531 C 194.597656 258.679688 193.191406 259.921875 192.03125 260.089844 C 190.875 260.253906 189.136719 259.675781 188.390625 258.847656 C 187.5625 258.019531 187.148438 256.199219 187.398438 255.121094 C 187.644531 253.960938 188.886719 252.554688 189.878906 252.140625 C 190.957031 251.726562 192.859375 251.976562 193.773438 252.636719 C 194.683594 253.21875 195.511719 254.957031 195.511719 256.03125 C 195.59375 256.941406 195.261719 257.851562 194.683594 258.515625 C 193.9375 259.34375 192.28125 260.171875 191.121094 260.171875 C 190.046875 260.089844 188.390625 259.09375 187.808594 258.101562 C 187.230469 257.109375 187.3125 255.285156 187.644531 254.292969 C 187.808594 253.628906 188.308594 253.132812 188.804688 252.804688 C 189.550781 252.304688 190.707031 251.808594 191.617188 251.890625 C 192.53125 251.890625 193.6875 252.390625 194.351562 253.050781 C 194.929688 253.714844 195.511719 254.542969 195.511719 255.699219 C 195.511719 258.183594 191.203125 264.0625 190.378906 266.960938 C 189.796875 268.699219 189.796875 269.691406 189.714844 271.429688 C 189.632812 273.75 190.875 279.710938 190.378906 279.875 C 190.046875 279.957031 187.808594 276.894531 188.140625 275.902344 C 188.636719 274.742188 192.859375 273.996094 194.597656 273.996094 C 195.757812 273.996094 196.667969 274.164062 197.414062 274.742188 C 198.242188 275.488281 199.070312 277.226562 199.152344 278.21875 C 199.234375 278.964844 198.988281 279.546875 198.65625 280.125 C 198.160156 280.871094 196.339844 282.027344 196.339844 282.027344 "/></clipPath><clipPath id="ab4e9aea53"><path d="M 187.175781 252.128906 L 214.203125 252.128906 L 214.203125 278.644531 L 187.175781 278.644531 Z M 187.175781 252.128906 "/></clipPath><clipPath id="846cd0a164"><path d="M 192.53125 252.222656 C 208.757812 262.574219 212.648438 266.382812 213.640625 269.363281 C 214.304688 271.347656 214.386719 273.667969 213.3125 275.074219 C 211.902344 276.976562 206.605469 278.21875 204.535156 278.550781 C 203.375 278.71875 202.628906 278.632812 201.886719 278.304688 C 201.140625 277.972656 200.3125 277.308594 199.898438 276.5625 C 199.484375 275.820312 199.320312 274.742188 199.484375 273.914062 C 199.566406 273.085938 199.980469 272.175781 200.644531 271.597656 C 201.472656 270.851562 203.292969 270.355469 204.367188 270.4375 C 205.195312 270.601562 206.109375 271.183594 206.6875 271.761719 C 207.183594 272.425781 207.679688 273.335938 207.679688 274.246094 C 207.679688 275.324219 207.019531 277.0625 206.109375 277.804688 C 205.195312 278.46875 203.375 278.800781 202.300781 278.46875 C 201.222656 278.136719 199.898438 276.8125 199.566406 275.738281 C 199.234375 274.578125 199.648438 273.003906 200.3125 271.929688 C 201.222656 270.601562 203.375 269.195312 204.949219 268.699219 C 206.4375 268.203125 209.417969 268.203125 209.503906 268.535156 C 209.585938 268.863281 206.273438 271.183594 204.699219 270.933594 C 202.628906 270.601562 201.058594 266.792969 198.65625 264.972656 C 195.839844 262.820312 190.046875 260.667969 188.390625 259.179688 C 187.808594 258.515625 187.5625 258.101562 187.398438 257.4375 C 187.148438 256.613281 187.148438 255.371094 187.5625 254.542969 C 187.894531 253.714844 188.722656 252.804688 189.550781 252.390625 C 190.378906 252.058594 192.53125 252.222656 192.53125 252.222656 "/></clipPath><clipPath id="8738c9873d"><path d="M 200.484375 272.015625 L 248.953125 272.015625 L 248.953125 304.429688 L 200.484375 304.429688 Z M 200.484375 272.015625 "/></clipPath><clipPath id="078333cb23"><path d="M 208.261719 274.082031 C 223.164062 293.039062 223.90625 293.535156 225.066406 294.28125 C 226.226562 294.945312 227.632812 295.605469 228.957031 295.855469 C 230.367188 296.105469 231.773438 296.105469 233.097656 295.855469 C 234.503906 295.605469 236.078125 295.109375 237.070312 294.28125 C 238.066406 293.371094 238.644531 292.046875 239.226562 290.554688 C 239.96875 288.734375 239.96875 285.507812 240.714844 284.015625 C 241.210938 283.023438 241.542969 282.359375 242.371094 281.945312 C 243.28125 281.367188 245.1875 281.199219 246.179688 281.53125 C 247.007812 281.78125 247.835938 282.441406 248.167969 283.269531 C 248.664062 284.265625 248.828125 286.085938 248.414062 287.160156 C 247.917969 288.15625 246.429688 289.316406 245.269531 289.480469 C 244.109375 289.644531 242.371094 288.984375 241.625 288.15625 C 240.796875 287.328125 240.464844 285.507812 240.632812 284.429688 C 240.714844 283.601562 241.378906 282.691406 241.957031 282.195312 C 242.621094 281.613281 243.613281 281.285156 244.441406 281.199219 C 245.269531 281.199219 246.261719 281.367188 247.007812 281.945312 C 247.835938 282.609375 248.582031 284.015625 248.746094 285.421875 C 249.078125 287.410156 248.25 290.472656 247.339844 292.875 C 246.34375 295.441406 244.9375 298.339844 242.949219 300.160156 C 240.878906 301.980469 237.984375 303.304688 235.25 303.96875 C 232.4375 304.546875 229.207031 304.382812 226.390625 303.71875 C 223.660156 303.058594 220.515625 301.238281 218.527344 299.910156 C 217.203125 299 216.789062 298.503906 215.464844 297.015625 C 212.316406 293.535156 202.960938 282.113281 201.304688 278.550781 C 200.644531 277.226562 200.5625 276.5625 200.644531 275.652344 C 200.808594 274.742188 201.386719 273.667969 202.132812 273.085938 C 202.796875 272.507812 203.957031 272.09375 204.867188 272.175781 C 206.023438 272.257812 208.261719 274.082031 208.261719 274.082031 "/></clipPath><clipPath id="09998ab183"><path d="M 239.851562 206.824219 L 251.929688 206.824219 L 251.929688 292.398438 L 239.851562 292.398438 Z M 239.851562 206.824219 "/></clipPath><clipPath id="f178ba632e"><path d="M 239.886719 288.238281 C 243.199219 250.980469 242.371094 217.449219 243.53125 211.074219 C 243.777344 209.667969 243.777344 209.253906 244.359375 208.589844 C 245.101562 207.761719 246.757812 206.851562 247.917969 206.9375 C 248.996094 207.019531 250.566406 208.09375 251.230469 208.921875 C 251.726562 209.667969 251.976562 210.660156 251.808594 211.488281 C 251.5625 212.566406 250.484375 214.136719 249.574219 214.71875 C 248.828125 215.214844 247.835938 215.296875 247.007812 215.132812 C 246.179688 215.050781 245.1875 214.636719 244.605469 213.890625 C 243.945312 213.0625 243.363281 211.324219 243.613281 210.164062 C 243.859375 209.089844 245.1875 207.679688 246.097656 207.183594 C 246.925781 206.851562 247.917969 206.769531 248.746094 207.101562 C 249.738281 207.433594 251.0625 208.675781 251.5625 209.75 C 252.058594 210.828125 251.726562 211.570312 251.808594 213.558594 C 251.890625 221.011719 251.394531 251.808594 250.484375 265.71875 C 249.90625 275.15625 249.410156 285.507812 248 289.230469 C 247.503906 290.554688 247.089844 291.136719 246.34375 291.632812 C 245.601562 292.210938 244.441406 292.460938 243.53125 292.378906 C 242.621094 292.210938 241.542969 291.714844 240.878906 290.96875 C 240.300781 290.308594 239.886719 288.238281 239.886719 288.238281 "/></clipPath><clipPath id="9860974c39"><path d="M 223.382812 200.695312 L 251.800781 200.695312 L 251.800781 218.046875 L 223.382812 218.046875 Z M 223.382812 200.695312 "/></clipPath><clipPath id="76cde74e5d"><path d="M 243.363281 214.054688 C 241.792969 210.496094 227.46875 209.832031 224.902344 208.011719 C 223.90625 207.347656 223.742188 206.605469 223.496094 205.777344 C 223.328125 204.949219 223.496094 203.871094 223.824219 203.128906 C 224.15625 202.382812 224.820312 201.554688 225.648438 201.222656 C 226.640625 200.808594 228.542969 200.644531 229.539062 201.222656 C 230.53125 201.71875 231.523438 203.375 231.691406 204.367188 C 231.855469 205.28125 231.523438 206.273438 231.109375 207.019531 C 230.695312 207.679688 229.953125 208.425781 229.125 208.675781 C 228.046875 209.003906 226.226562 208.921875 225.234375 208.261719 C 224.320312 207.679688 223.496094 205.941406 223.410156 204.867188 C 223.328125 203.957031 223.660156 203.042969 224.238281 202.382812 C 224.984375 201.554688 226.144531 200.890625 227.800781 200.726562 C 231.359375 200.394531 241.210938 203.375 245.019531 204.699219 C 247.007812 205.363281 248.332031 205.609375 249.492188 206.769531 C 250.648438 208.011719 251.3125 210.496094 251.5625 211.984375 C 251.808594 213.0625 251.808594 213.972656 251.5625 214.800781 C 251.3125 215.710938 250.734375 216.707031 249.988281 217.285156 C 249.242188 217.78125 248.082031 218.113281 247.171875 218.03125 C 246.261719 218.03125 245.101562 217.449219 244.523438 216.789062 C 243.859375 216.125 243.363281 214.054688 243.363281 214.054688 "/></clipPath><clipPath id="81388d28d5"><path d="M 221.289062 190.097656 L 250.6875 190.097656 L 250.6875 209.074219 L 221.289062 209.074219 Z M 221.289062 190.097656 "/></clipPath><clipPath id="500212bf90"><path d="M 224.902344 208.011719 C 220.84375 201.96875 221.175781 200.3125 221.671875 198.90625 C 222.085938 197.414062 222.75 196.007812 223.992188 194.847656 C 225.730469 193.273438 228.792969 191.867188 232.023438 191.121094 C 236.246094 190.128906 244.605469 189.714844 247.421875 190.542969 C 248.664062 190.957031 249.324219 191.617188 249.90625 192.28125 C 250.320312 192.777344 250.566406 193.441406 250.566406 194.101562 C 250.648438 194.929688 250.402344 196.171875 249.90625 196.917969 C 249.324219 197.664062 248.414062 198.40625 247.421875 198.65625 C 246.429688 198.820312 244.773438 198.574219 243.945312 197.910156 C 243.035156 197.167969 242.371094 195.425781 242.371094 194.351562 C 242.289062 193.523438 242.703125 192.53125 243.28125 191.949219 C 244.027344 191.121094 245.847656 190.460938 246.925781 190.460938 C 247.835938 190.542969 248.664062 191.039062 249.324219 191.617188 C 249.90625 192.199219 250.484375 193.027344 250.566406 193.9375 C 250.648438 195.011719 249.988281 196.835938 249.324219 197.578125 C 248.746094 198.242188 247.835938 198.65625 246.925781 198.738281 C 245.847656 198.738281 244.027344 198.160156 243.28125 197.25 C 242.535156 196.421875 242.207031 194.597656 242.453125 193.523438 C 242.785156 192.363281 244.027344 191.039062 245.101562 190.707031 C 246.261719 190.292969 248.332031 190.707031 249.242188 191.535156 C 250.070312 192.199219 250.734375 193.9375 250.566406 195.097656 C 250.402344 196.253906 249.738281 197.496094 248.414062 198.242188 C 245.765625 199.816406 236.574219 198.574219 233.265625 199.320312 C 231.441406 199.734375 229.539062 200.230469 229.371094 200.972656 C 229.207031 201.554688 231.109375 202.300781 231.441406 203.292969 C 231.773438 204.367188 231.691406 206.191406 231.027344 207.101562 C 230.449219 208.09375 228.792969 208.921875 227.632812 209.003906 C 226.722656 209.089844 224.902344 208.011719 224.902344 208.011719 "/></clipPath><clipPath id="c912b1fd19"><path d="M 242.3125 182.390625 L 252.261719 182.390625 L 252.261719 198.742188 L 242.3125 198.742188 Z M 242.3125 182.390625 "/></clipPath><clipPath id="f23337701d"><path d="M 242.785156 192.363281 C 244.6875 184.003906 245.765625 182.925781 246.839844 182.59375 C 247.667969 182.261719 248.664062 182.429688 249.492188 182.675781 C 250.234375 183.007812 251.0625 183.671875 251.476562 184.414062 C 251.890625 185.160156 252.140625 186.15625 252.058594 186.984375 C 251.976562 187.808594 251.5625 188.804688 250.898438 189.382812 C 250.152344 190.128906 248.332031 190.707031 247.253906 190.625 C 246.34375 190.542969 245.515625 189.964844 244.9375 189.382812 C 244.359375 188.804688 243.859375 187.808594 243.777344 186.984375 C 243.695312 186.15625 243.945312 185.160156 244.359375 184.414062 C 244.773438 183.671875 245.515625 182.925781 246.429688 182.675781 C 247.421875 182.347656 249.324219 182.511719 250.234375 183.089844 C 251.148438 183.753906 251.808594 185.242188 252.058594 186.570312 C 252.390625 188.058594 252.140625 190.128906 251.726562 191.785156 C 251.394531 193.523438 250.648438 195.675781 249.738281 196.835938 C 249.078125 197.746094 248.25 198.324219 247.421875 198.574219 C 246.511719 198.820312 245.269531 198.738281 244.441406 198.324219 C 243.613281 197.910156 242.785156 197.082031 242.453125 196.171875 C 242.121094 195.097656 242.785156 192.363281 242.785156 192.363281 "/></clipPath><clipPath id="d426b51bd7"><path d="M 231.707031 145.851562 L 278 145.851562 L 278 190.820312 L 231.707031 190.820312 Z M 231.707031 145.851562 "/></clipPath><clipPath id="4035f1e9c5"><path d="M 245.601562 189.964844 C 235.914062 181.519531 234.089844 178.621094 233.179688 176.46875 C 232.4375 174.976562 232.1875 173.984375 232.023438 172.328125 C 231.773438 170.011719 231.773438 166.367188 232.351562 163.550781 C 232.933594 160.820312 233.925781 158.003906 235.5 155.769531 C 237.070312 153.367188 239.96875 151.050781 241.875 149.558594 C 243.199219 148.566406 244.191406 147.988281 245.515625 147.492188 C 246.839844 146.992188 248.082031 146.910156 249.738281 146.664062 C 252.058594 146.414062 255.535156 145.667969 258.351562 146.164062 C 261.164062 146.746094 264.144531 148.234375 266.628906 149.890625 C 269.113281 151.546875 271.679688 154.363281 273.167969 156.347656 C 274.246094 157.675781 274.660156 158.585938 275.324219 160.15625 C 276.316406 162.394531 277.640625 165.953125 277.804688 168.851562 C 278.054688 171.664062 277.890625 174.894531 276.730469 177.296875 C 275.570312 179.78125 272.757812 182.097656 270.933594 183.589844 C 269.527344 184.664062 268.203125 185.160156 266.792969 185.90625 C 265.304688 186.652344 263.648438 187.894531 262.160156 188.058594 C 260.832031 188.222656 259.261719 187.894531 258.351562 187.230469 C 257.6875 186.734375 257.191406 185.824219 257.023438 184.996094 C 256.859375 184.167969 256.859375 183.089844 257.273438 182.347656 C 257.851562 181.433594 259.34375 180.277344 260.417969 180.027344 C 261.246094 179.78125 262.242188 180.027344 262.988281 180.441406 C 263.730469 180.855469 264.558594 181.519531 264.808594 182.347656 C 265.222656 183.421875 265.222656 185.242188 264.558594 186.238281 C 263.980469 187.230469 262.324219 188.058594 261.246094 188.222656 C 260.417969 188.308594 259.425781 187.976562 258.765625 187.480469 C 258.019531 187.066406 257.355469 186.238281 257.109375 185.410156 C 256.859375 184.582031 256.859375 183.589844 257.109375 182.761719 C 257.4375 181.933594 257.9375 181.351562 258.765625 180.691406 C 260.171875 179.449219 264.0625 178.289062 265.800781 177.046875 C 267.042969 176.054688 268.035156 175.226562 268.699219 174.066406 C 269.363281 172.90625 269.609375 171.335938 269.609375 170.011719 C 269.609375 168.601562 269.113281 167.277344 268.699219 165.953125 C 268.285156 164.628906 267.871094 163.46875 266.960938 162.144531 C 265.71875 160.242188 263.070312 157.34375 261.164062 156.101562 C 259.839844 155.191406 258.847656 154.691406 257.191406 154.445312 C 254.957031 154.113281 250.980469 154.113281 248.496094 155.191406 C 246.015625 156.265625 243.53125 158.5 242.121094 160.738281 C 240.714844 163.054688 240.300781 166.617188 240.136719 168.933594 C 240.054688 170.507812 240.300781 171.832031 240.714844 173.15625 C 241.210938 174.398438 241.792969 175.390625 242.867188 176.800781 C 244.6875 179.117188 251.0625 183.175781 251.890625 185.492188 C 252.304688 186.652344 251.976562 187.644531 251.644531 188.472656 C 251.3125 189.050781 250.898438 189.550781 250.320312 189.964844 C 249.574219 190.378906 248.332031 190.707031 247.503906 190.625 C 246.757812 190.625 245.601562 189.964844 245.601562 189.964844 "/></clipPath><clipPath id="2379b9fde1"><path d="M 256.605469 179.929688 L 265.53125 179.929688 L 265.53125 198.4375 L 256.605469 198.4375 Z M 256.605469 179.929688 "/></clipPath><clipPath id="d8562d1a3b"><path d="M 265.222656 184.085938 C 265.222656 196.007812 264.808594 196.667969 264.226562 197.25 C 263.648438 197.828125 262.738281 198.324219 261.828125 198.324219 C 260.75 198.40625 259.011719 197.664062 258.265625 196.917969 C 257.605469 196.339844 257.273438 195.34375 257.273438 194.433594 C 257.191406 193.605469 257.4375 192.613281 257.9375 191.949219 C 258.597656 191.121094 260.335938 190.210938 261.414062 190.128906 C 262.242188 190.046875 263.234375 190.460938 263.898438 190.957031 C 264.558594 191.453125 265.140625 192.363281 265.386719 193.109375 C 265.636719 193.9375 265.554688 195.011719 265.222656 195.757812 C 264.890625 196.585938 264.226562 197.332031 263.484375 197.828125 C 262.820312 198.242188 261.746094 198.492188 260.917969 198.324219 C 260.089844 198.242188 259.179688 197.828125 258.515625 197.25 C 257.9375 196.667969 257.605469 196.007812 257.273438 194.929688 C 256.695312 192.695312 256.363281 186.652344 256.941406 184.085938 C 257.273438 182.59375 257.851562 181.351562 258.679688 180.691406 C 259.425781 180.109375 260.667969 179.863281 261.578125 180.027344 C 262.488281 180.109375 263.566406 180.691406 264.144531 181.351562 C 264.726562 182.015625 265.222656 184.085938 265.222656 184.085938 "/></clipPath><clipPath id="68e6092584"><path d="M 259.210938 191.207031 L 286.351562 191.207031 L 286.351562 212.207031 L 259.210938 212.207031 Z M 259.210938 191.207031 "/></clipPath><clipPath id="952a5c8844"><path d="M 263.398438 191.289062 C 280.539062 192.445312 281.449219 192.945312 282.527344 193.855469 C 283.683594 194.847656 284.59375 196.253906 285.257812 197.578125 C 285.835938 198.90625 286.167969 200.230469 286.25 201.636719 C 286.335938 203.042969 286.25 204.699219 285.589844 206.109375 C 284.925781 207.515625 283.851562 209.003906 282.113281 210 C 279.546875 211.488281 273.085938 212.316406 270.6875 212.152344 C 269.527344 212.070312 268.863281 211.820312 268.203125 211.324219 C 267.539062 210.828125 266.878906 210 266.710938 209.171875 C 266.546875 208.09375 266.792969 206.191406 267.539062 205.363281 C 268.285156 204.453125 270.023438 203.789062 271.183594 203.871094 C 272.257812 204.039062 273.832031 205.113281 274.410156 206.109375 C 274.910156 207.101562 274.824219 209.003906 274.410156 210 C 273.996094 210.742188 273.253906 211.40625 272.425781 211.820312 C 271.679688 212.152344 270.6875 212.316406 269.859375 212.070312 C 268.78125 211.738281 267.292969 210.578125 266.878906 209.585938 C 266.464844 208.507812 266.792969 206.605469 267.292969 205.695312 C 267.707031 204.949219 268.449219 204.453125 269.363281 204.121094 C 270.6875 203.542969 273.167969 204.121094 274.660156 203.542969 C 275.984375 202.960938 278.304688 201.636719 278.136719 200.972656 C 277.722656 199.648438 264.226562 200.476562 261.496094 199.070312 C 260.335938 198.492188 259.839844 197.746094 259.507812 196.835938 C 259.179688 196.007812 259.179688 194.765625 259.507812 193.9375 C 259.839844 193.109375 260.75 192.199219 261.496094 191.703125 C 262.074219 191.371094 263.398438 191.289062 263.398438 191.289062 "/></clipPath><clipPath id="51ac19abde"><path d="M 259.457031 204.152344 L 275.523438 204.152344 L 275.523438 212.824219 L 259.457031 212.824219 Z M 259.457031 204.152344 "/></clipPath><clipPath id="dcb903cac6"><path d="M 263.648438 204.203125 C 272.757812 204.535156 274.082031 205.195312 274.742188 206.023438 C 275.324219 206.6875 275.488281 207.761719 275.488281 208.589844 C 275.40625 209.417969 274.992188 210.414062 274.496094 211.074219 C 273.914062 211.65625 273.003906 212.234375 272.175781 212.398438 C 271.429688 212.566406 270.355469 212.566406 269.609375 212.152344 C 268.617188 211.570312 267.457031 210.164062 267.207031 209.003906 C 267.042969 207.929688 267.621094 206.109375 268.449219 205.363281 C 269.277344 204.535156 271.183594 204.203125 272.175781 204.285156 C 273.085938 204.453125 273.914062 205.03125 274.496094 205.695312 C 274.992188 206.273438 275.40625 207.265625 275.488281 208.09375 C 275.488281 209.003906 275.238281 210 274.742188 210.660156 C 274.246094 211.40625 273.667969 211.902344 272.671875 212.316406 C 270.769531 212.980469 265.71875 212.8125 263.648438 212.484375 C 262.40625 212.316406 261.578125 212.070312 260.917969 211.488281 C 260.171875 210.828125 259.59375 209.75 259.507812 208.839844 C 259.425781 207.929688 259.675781 206.769531 260.253906 206.023438 C 260.917969 205.113281 263.648438 204.203125 263.648438 204.203125 "/></clipPath><clipPath id="ccda7f3b69"><path d="M 257.171875 204.40625 L 268.992188 204.40625 L 268.992188 284.71875 L 257.171875 284.71875 Z M 257.171875 204.40625 "/></clipPath><clipPath id="8536b1cc9e"><path d="M 266.050781 208.589844 C 267.539062 264.808594 269.363281 276.480469 268.863281 280.539062 C 268.699219 281.78125 268.617188 282.359375 268.035156 283.023438 C 267.292969 283.851562 265.636719 284.679688 264.476562 284.679688 C 263.398438 284.59375 261.828125 283.519531 261.164062 282.691406 C 260.667969 281.945312 260.417969 280.953125 260.585938 280.042969 C 260.832031 279.046875 261.910156 277.476562 262.820312 276.894531 C 263.566406 276.398438 264.558594 276.316406 265.386719 276.398438 C 266.214844 276.5625 267.125 277.0625 267.707031 277.640625 C 268.285156 278.304688 268.78125 279.214844 268.863281 280.042969 C 268.949219 280.871094 268.78125 281.945312 268.285156 282.691406 C 267.621094 283.519531 266.050781 284.511719 264.972656 284.679688 C 264.0625 284.761719 263.070312 284.511719 262.40625 283.933594 C 261.578125 283.269531 261.082031 282.277344 260.585938 280.539062 C 259.261719 275.984375 259.261719 264.640625 258.847656 254.789062 C 258.183594 241.625 256.28125 215.050781 257.769531 208.589844 C 258.183594 206.6875 258.679688 205.859375 259.59375 205.113281 C 260.335938 204.535156 261.496094 204.367188 262.40625 204.453125 C 263.316406 204.535156 264.394531 205.113281 264.972656 205.777344 C 265.636719 206.523438 266.050781 208.589844 266.050781 208.589844 "/></clipPath><clipPath id="02a8c17bfd"><path d="M 260.082031 276.507812 L 308.363281 276.507812 L 308.363281 306.121094 L 260.082031 306.121094 Z M 260.082031 276.507812 "/></clipPath><clipPath id="75e3cb4f0d"><path d="M 268.863281 280.621094 C 269.363281 293.371094 270.105469 294.449219 271.015625 295.441406 C 272.011719 296.433594 273.335938 297.261719 274.660156 297.59375 C 275.984375 297.925781 277.390625 297.84375 279.046875 297.429688 C 281.285156 296.929688 284.265625 295.359375 286.582031 293.867188 C 288.902344 292.378906 290.722656 290.722656 292.957031 288.488281 C 295.855469 285.507812 299.332031 278.550781 301.980469 277.226562 C 303.390625 276.5625 304.878906 276.648438 305.875 277.0625 C 306.785156 277.476562 307.527344 278.46875 307.859375 279.214844 C 308.191406 279.875 308.273438 280.539062 308.191406 281.199219 C 308.109375 281.78125 308.027344 282.527344 307.527344 283.023438 C 306.867188 283.851562 305.128906 284.84375 304.050781 284.925781 C 303.140625 285.007812 302.148438 284.679688 301.484375 284.097656 C 300.738281 283.351562 299.828125 281.699219 299.910156 280.539062 C 299.996094 279.378906 300.988281 277.804688 301.980469 277.226562 C 302.976562 276.648438 304.796875 276.5625 305.875 277.0625 C 306.867188 277.558594 307.941406 279.132812 308.191406 280.207031 C 308.355469 281.035156 308.109375 282.113281 307.695312 282.855469 C 307.28125 283.519531 306.617188 284.347656 305.789062 284.59375 C 304.714844 284.925781 302.890625 284.925781 301.898438 284.347656 C 300.90625 283.765625 299.910156 282.113281 299.910156 281.035156 C 299.910156 279.792969 301.070312 277.890625 301.980469 277.226562 C 302.808594 276.648438 304.050781 276.648438 304.878906 276.8125 C 305.625 276.894531 306.203125 277.144531 306.699219 277.640625 C 307.363281 278.386719 308.355469 279.710938 308.191406 281.199219 C 307.859375 284.179688 302.3125 290.390625 299.414062 293.703125 C 297.179688 296.1875 295.109375 297.925781 292.710938 299.664062 C 290.390625 301.402344 287.824219 303.058594 285.09375 304.050781 C 282.441406 305.128906 278.964844 305.875 276.5625 306.039062 C 274.910156 306.121094 273.832031 306.203125 272.34375 305.625 C 270.105469 304.796875 266.960938 302.726562 264.972656 300.574219 C 262.988281 298.257812 261.414062 295.027344 260.667969 291.796875 C 259.839844 288.402344 260.171875 283.023438 260.585938 280.621094 C 260.832031 279.378906 261.082031 278.550781 261.660156 277.890625 C 262.074219 277.308594 262.574219 276.976562 263.234375 276.730469 C 264.0625 276.480469 265.386719 276.480469 266.214844 276.730469 C 266.878906 276.976562 267.375 277.308594 267.789062 277.890625 C 268.367188 278.550781 268.863281 280.621094 268.863281 280.621094 "/></clipPath><clipPath id="9f29a5ad1c"><path d="M 294.449219 267.875 L 310.34375 267.875 L 310.34375 285.859375 L 294.449219 285.859375 Z M 294.449219 267.875 "/></clipPath><clipPath id="2e5beff2e3"><path d="M 299.582031 279.710938 C 303.472656 274.328125 305.128906 277.972656 304.632812 278.550781 C 303.96875 279.214844 298.339844 277.0625 296.683594 275.738281 C 295.523438 274.824219 294.695312 273.582031 294.53125 272.507812 C 294.363281 271.679688 294.53125 270.6875 295.109375 269.941406 C 295.691406 269.113281 297.261719 268.035156 298.421875 267.953125 C 299.582031 267.871094 301.238281 268.78125 301.898438 269.609375 C 302.480469 270.273438 302.726562 271.265625 302.726562 272.09375 C 302.726562 272.921875 302.480469 273.996094 301.898438 274.578125 C 301.152344 275.40625 299.414062 276.234375 298.339844 276.234375 C 297.511719 276.234375 296.515625 275.820312 295.9375 275.238281 C 295.277344 274.742188 294.777344 273.832031 294.53125 273.003906 C 294.363281 272.175781 294.53125 271.101562 294.863281 270.355469 C 295.191406 269.609375 295.9375 268.863281 296.683594 268.449219 C 297.429688 268.035156 298.171875 267.871094 299.332031 268.035156 C 301.566406 268.285156 307.363281 270.023438 309.019531 272.09375 C 310.261719 273.582031 310.507812 275.738281 310.179688 277.640625 C 309.765625 280.042969 306.867188 284.097656 305.460938 285.175781 C 304.796875 285.753906 304.300781 285.835938 303.554688 285.835938 C 302.726562 285.921875 301.484375 285.671875 300.738281 285.09375 C 299.996094 284.59375 299.332031 283.519531 299.167969 282.609375 C 298.917969 281.78125 299.582031 279.710938 299.582031 279.710938 "/></clipPath><clipPath id="11d2303084"><path d="M 293.707031 247.890625 L 322.332031 247.890625 L 322.332031 275.070312 L 293.707031 275.070312 Z M 293.707031 247.890625 "/></clipPath><clipPath id="c12f2bd884"><path d="M 294.117188 269.445312 C 304.878906 254.457031 309.019531 251.148438 312.332031 249.574219 C 314.730469 248.496094 317.710938 247.753906 319.285156 248.082031 C 320.277344 248.332031 321.023438 248.910156 321.4375 249.65625 C 322.019531 250.566406 322.347656 252.390625 321.933594 253.464844 C 321.605469 254.542969 320.195312 255.785156 319.039062 256.113281 C 317.960938 256.363281 316.140625 255.785156 315.3125 255.121094 C 314.648438 254.625 314.152344 253.714844 313.988281 252.804688 C 313.902344 251.726562 314.484375 249.90625 315.144531 249.160156 C 315.726562 248.414062 316.71875 248.082031 317.546875 247.917969 C 318.375 247.835938 319.367188 248 320.113281 248.496094 C 321.023438 249.078125 322.019531 250.648438 322.183594 251.726562 C 322.347656 252.636719 322.183594 253.464844 321.605469 254.292969 C 320.363281 255.867188 316.140625 257.023438 313.738281 258.679688 C 311.335938 260.253906 309.269531 261.828125 307.199219 264.0625 C 304.632812 266.878906 302.066406 273.253906 299.910156 274.578125 C 298.835938 275.238281 297.757812 275.074219 296.929688 274.910156 C 296.269531 274.824219 295.691406 274.496094 295.191406 273.996094 C 294.613281 273.417969 294.035156 272.257812 293.867188 271.429688 C 293.703125 270.6875 294.117188 269.445312 294.117188 269.445312 "/></clipPath><clipPath id="47697e01f6"><path d="M 313.789062 247.886719 L 329.828125 247.886719 L 329.828125 283.949219 L 313.789062 283.949219 Z M 313.789062 247.886719 "/></clipPath><clipPath id="4122281ba5"><path d="M 321.6875 250.234375 C 328.144531 269.195312 330.046875 276.894531 329.800781 279.875 C 329.71875 281.035156 329.386719 281.699219 328.890625 282.359375 C 328.394531 283.023438 327.480469 283.601562 326.652344 283.765625 C 325.910156 284.015625 324.832031 283.933594 324.085938 283.601562 C 323.257812 283.269531 322.515625 282.527344 322.101562 281.78125 C 321.6875 281.117188 321.355469 280.125 321.605469 279.214844 C 321.769531 278.136719 322.929688 276.648438 323.839844 276.066406 C 324.585938 275.570312 325.578125 275.488281 326.40625 275.738281 C 327.480469 275.984375 328.972656 277.144531 329.46875 278.136719 C 329.882812 278.882812 329.882812 279.957031 329.71875 280.785156 C 329.46875 281.53125 328.972656 282.527344 328.308594 283.023438 C 327.398438 283.601562 325.496094 283.933594 324.5 283.765625 C 323.589844 283.519531 323.011719 283.1875 322.347656 282.195312 C 320.527344 279.546875 319.535156 268.949219 317.960938 263.566406 C 316.636719 259.179688 313.738281 254.457031 313.820312 251.890625 C 313.820312 250.648438 314.316406 249.90625 314.898438 249.242188 C 315.558594 248.582031 316.71875 248.082031 317.546875 247.917969 C 318.292969 247.835938 318.953125 247.917969 319.535156 248.25 C 320.277344 248.582031 321.6875 250.234375 321.6875 250.234375 "/></clipPath><clipPath id="dd1a45db34"><path d="M 307.457031 274.835938 L 329.824219 274.835938 L 329.824219 292.191406 L 307.457031 292.191406 Z M 307.457031 274.835938 "/></clipPath><clipPath id="867b8aed04"><path d="M 326.15625 283.851562 C 318.871094 284.015625 316.386719 283.933594 316.140625 283.269531 C 315.808594 282.527344 318.375 279.792969 318.625 279.875 C 318.953125 280.125 315.644531 289.894531 313.902344 291.46875 C 313.074219 292.210938 312.164062 292.210938 311.335938 292.128906 C 310.507812 292.046875 309.515625 291.632812 308.9375 291.054688 C 308.273438 290.554688 307.695312 289.644531 307.613281 288.816406 C 307.445312 287.742188 308.027344 285.921875 308.6875 285.09375 C 309.269531 284.429688 310.261719 284.015625 311.089844 283.851562 C 311.917969 283.765625 312.910156 283.851562 313.65625 284.347656 C 314.566406 285.007812 315.644531 286.5 315.808594 287.660156 C 315.890625 288.734375 315.0625 290.472656 314.234375 291.21875 C 313.65625 291.796875 312.578125 292.128906 311.75 292.128906 C 310.921875 292.128906 309.929688 291.882812 309.269531 291.382812 C 308.605469 290.886719 307.941406 290.058594 307.695312 289.230469 C 307.445312 288.402344 307.527344 287.574219 307.777344 286.582031 C 308.109375 284.925781 309.183594 282.027344 310.34375 280.539062 C 311.253906 279.296875 313.738281 277.804688 313.738281 277.804688 C 313.738281 277.890625 310.675781 281.117188 310.261719 280.871094 C 309.847656 280.703125 310.425781 277.804688 311.171875 276.8125 C 312 275.820312 313.324219 275.324219 315.0625 274.992188 C 318.042969 274.496094 325.992188 275.324219 327.980469 276.316406 C 328.808594 276.730469 329.054688 277.226562 329.304688 277.804688 C 329.632812 278.632812 329.882812 279.875 329.71875 280.703125 C 329.46875 281.613281 328.722656 282.609375 328.0625 283.1875 C 327.480469 283.601562 326.15625 283.851562 326.15625 283.851562 "/></clipPath><clipPath id="73136ba494"><path d="M 249.421875 281.460938 L 317.5 281.460938 L 317.5 334.722656 L 249.421875 334.722656 Z M 249.421875 281.460938 "/></clipPath><clipPath id="16b1f5ddb0"><path d="M 253.546875 325.992188 C 263.566406 324.667969 271.101562 320.691406 275.324219 318.375 C 278.304688 316.71875 280.371094 315.230469 282.855469 313.488281 C 285.257812 311.835938 287.574219 310.09375 289.726562 308.109375 C 291.964844 306.121094 293.703125 304.050781 295.855469 301.652344 C 298.503906 298.753906 301.816406 295.191406 304.300781 291.882812 C 306.617188 288.816406 308.605469 284.097656 310.425781 282.609375 C 311.253906 281.863281 311.917969 281.53125 312.828125 281.53125 C 313.902344 281.53125 315.644531 282.277344 316.386719 283.105469 C 316.96875 283.683594 317.382812 284.679688 317.296875 285.589844 C 317.214844 286.664062 316.46875 288.320312 315.558594 288.984375 C 314.648438 289.726562 312.746094 289.8125 311.75 289.5625 C 310.839844 289.316406 310.09375 288.652344 309.679688 287.90625 C 309.183594 286.914062 309.019531 285.007812 309.351562 284.015625 C 309.597656 283.1875 310.425781 282.441406 311.089844 282.027344 C 311.835938 281.613281 312.910156 281.449219 313.738281 281.53125 C 314.566406 281.699219 315.476562 282.113281 316.054688 282.773438 C 316.636719 283.351562 317.132812 284.265625 317.296875 285.09375 C 317.382812 285.921875 317.132812 286.664062 316.71875 287.742188 C 315.972656 289.5625 314.234375 292.296875 312.164062 295.191406 C 308.6875 299.828125 301.898438 307.695312 297.261719 312.25 C 293.785156 315.644531 290.804688 318.042969 287.328125 320.527344 C 283.765625 323.09375 280.125 325.328125 275.902344 327.398438 C 271.015625 329.882812 263.898438 333.277344 259.507812 334.1875 C 256.777344 334.683594 254.210938 334.683594 252.554688 334.1875 C 251.476562 333.855469 250.648438 333.195312 250.152344 332.53125 C 249.738281 331.953125 249.492188 331.375 249.492188 330.628906 C 249.410156 329.800781 249.574219 328.558594 250.152344 327.8125 C 250.816406 326.984375 253.546875 325.992188 253.546875 325.992188 "/></clipPath></defs><g id="6a462ea44a"><g clip-rule="nonzero" clip-path="url(#16dd57a9d6)"><g clip-rule="nonzero" clip-path="url(#b3e3064f06)"><path style=" stroke:none;fill-rule:nonzero;fill:currentColor;fill-opacity:1;" d="M 46.605469 165.25 L 119.84375 165.25 L 119.84375 231.730469 L 46.605469 231.730469 Z M 46.605469 165.25 "/></g></g><g clip-rule="nonzero" clip-path="url(#cf847d73ad)"><g clip-rule="nonzero" clip-path="url(#3589666aa3)"><path style=" stroke:none;fill-rule:nonzero;fill:currentColor;fill-opacity:1;" d="M 37.5 143.226562 L 61.425781 143.226562 L 61.425781 181.921875 L 37.5 181.921875 Z M 37.5 143.226562 "/></g></g><g clip-rule="nonzero" clip-path="url(#a310747784)"><g clip-rule="nonzero" clip-path="url(#2810ae0b63)"><path style=" stroke:none;fill-rule:nonzero;fill:currentColor;fill-opacity:1;" d="M 43.046875 143.558594 L 76 143.558594 L 76 176.636719 L 43.046875 176.636719 Z M 43.046875 143.558594 "/></g></g><g clip-rule="nonzero" clip-path="url(#1dde94d3bf)"><g clip-rule="nonzero" clip-path="url(#9ebec50f44)"><path style=" stroke:none;fill-rule:nonzero;fill:currentColor;fill-opacity:1;" d="M 56.292969 163.511719 L 111.066406 163.511719 L 111.066406 201.925781 L 56.292969 201.925781 Z M 56.292969 163.511719 "/></g></g><g clip-rule="nonzero" clip-path="url(#e5a75f84e4)"><g clip-rule="nonzero" clip-path="url(#4b35617e21)"><path style=" stroke:none;fill-rule:nonzero;fill:currentColor;fill-opacity:1;" d="M 95.539062 98.269531 L 114.167969 98.269531 L 114.167969 190.320312 L 95.539062 190.320312 Z M 95.539062 98.269531 "/></g></g><g clip-rule="nonzero" clip-path="url(#c78ed9ed2e)"><g clip-rule="nonzero" clip-path="url(#4a5040bb17)"><path style=" stroke:none;fill-rule:nonzero;fill:currentColor;fill-opacity:1;" d="M 79.0625 92.058594 L 113.953125 92.058594 L 113.953125 116.070312 L 79.0625 116.070312 Z M 79.0625 92.058594 "/></g></g><g clip-rule="nonzero" clip-path="url(#728778bf00)"><g clip-rule="nonzero" clip-path="url(#25107fe566)"><path style=" stroke:none;fill-rule:nonzero;fill:currentColor;fill-opacity:1;" d="M 76.910156 81.792969 L 112.894531 81.792969 L 112.894531 106.964844 L 76.910156 106.964844 Z M 76.910156 81.792969 "/></g></g><g clip-rule="nonzero" clip-path="url(#475b9a89cd)"><g clip-rule="nonzero" clip-path="url(#af5c9b5fba)"><path style=" stroke:none;fill-rule:nonzero;fill:currentColor;fill-opacity:1;" d="M 98.105469 73.929688 L 114.332031 73.929688 L 114.332031 96.621094 L 98.105469 96.621094 Z M 98.105469 73.929688 "/></g></g><g clip-rule="nonzero" clip-path="url(#73472011a1)"><g clip-rule="nonzero" clip-path="url(#db6bc5dd6d)"><path style=" stroke:none;fill-rule:nonzero;fill:currentColor;fill-opacity:1;" d="M 87.671875 37.5 L 140.238281 37.5 L 140.238281 88.664062 L 87.671875 88.664062 Z M 87.671875 37.5 "/></g></g><g clip-rule="nonzero" clip-path="url(#2579fc5648)"><g clip-rule="nonzero" clip-path="url(#839c636eaa)"><path style=" stroke:none;fill-rule:nonzero;fill:currentColor;fill-opacity:1;" d="M 112.59375 71.363281 L 127.828125 71.363281 L 127.828125 96.355469 L 112.59375 96.355469 Z M 112.59375 71.363281 "/></g></g><g clip-rule="nonzero" clip-path="url(#cb0f2b962f)"><g clip-rule="nonzero" clip-path="url(#f4c150036c)"><path style=" stroke:none;fill-rule:nonzero;fill:currentColor;fill-opacity:1;" d="M 115.160156 82.621094 L 148.652344 82.621094 L 148.652344 110.191406 L 115.160156 110.191406 Z M 115.160156 82.621094 "/></g></g><g clip-rule="nonzero" clip-path="url(#a1f1a8a9df)"><g clip-rule="nonzero" clip-path="url(#2e30ee8936)"><path style=" stroke:none;fill-rule:nonzero;fill:currentColor;fill-opacity:1;" d="M 115.160156 95.539062 L 137.746094 95.539062 L 137.746094 110.441406 L 115.160156 110.441406 Z M 115.160156 95.539062 "/></g></g><g clip-rule="nonzero" clip-path="url(#4d1f92822d)"><g clip-rule="nonzero" clip-path="url(#7b0ae7c0ce)"><path style=" stroke:none;fill-rule:nonzero;fill:currentColor;fill-opacity:1;" d="M 113.421875 95.785156 L 131.222656 95.785156 L 131.222656 182.632812 L 113.421875 182.632812 Z M 113.421875 95.785156 "/></g></g><g clip-rule="nonzero" clip-path="url(#3cb137c1d3)"><g clip-rule="nonzero" clip-path="url(#bbda9c6060)"><path style=" stroke:none;fill-rule:nonzero;fill:currentColor;fill-opacity:1;" d="M 116.234375 168.0625 L 170.554688 168.0625 L 170.554688 203.996094 L 116.234375 203.996094 Z M 116.234375 168.0625 "/></g></g><g clip-rule="nonzero" clip-path="url(#a0111b45fa)"><g clip-rule="nonzero" clip-path="url(#c88a029bad)"><path style=" stroke:none;fill-rule:nonzero;fill:currentColor;fill-opacity:1;" d="M 150.179688 159.289062 L 172.535156 159.289062 L 172.535156 183.914062 L 150.179688 183.914062 Z M 150.179688 159.289062 "/></g></g><g clip-rule="nonzero" clip-path="url(#067f8ef0ce)"><g clip-rule="nonzero" clip-path="url(#8d78ce5ea0)"><path style=" stroke:none;fill-rule:nonzero;fill:currentColor;fill-opacity:1;" d="M 149.519531 139.253906 L 184.578125 139.253906 L 184.578125 172.867188 L 149.519531 172.867188 Z M 149.519531 139.253906 "/></g></g><g clip-rule="nonzero" clip-path="url(#b4f3dba7ef)"><g clip-rule="nonzero" clip-path="url(#87b50aee97)"><path style=" stroke:none;fill-rule:nonzero;fill:currentColor;fill-opacity:1;" d="M 169.472656 139.253906 L 192.15625 139.253906 L 192.15625 181.699219 L 169.472656 181.699219 Z M 169.472656 139.253906 "/></g></g><g clip-rule="nonzero" clip-path="url(#9232b42a54)"><g clip-rule="nonzero" clip-path="url(#1264f7a9a3)"><path style=" stroke:none;fill-rule:nonzero;fill:currentColor;fill-opacity:1;" d="M 163.261719 166.324219 L 192.035156 166.324219 L 192.035156 190.085938 L 163.261719 190.085938 Z M 163.261719 166.324219 "/></g></g><g clip-rule="nonzero" clip-path="url(#41f693ce4d)"><g clip-rule="nonzero" clip-path="url(#8fc994e39c)"><path style=" stroke:none;fill-rule:nonzero;fill:currentColor;fill-opacity:1;" d="M 105.140625 172.867188 L 179.703125 172.867188 L 179.703125 232.144531 L 105.140625 232.144531 Z M 105.140625 172.867188 "/></g></g><g clip-rule="nonzero" clip-path="url(#6e53abbb89)"><g clip-rule="nonzero" clip-path="url(#f3041395fa)"><path style=" stroke:none;fill-rule:nonzero;fill:currentColor;fill-opacity:1;" d="M 187.644531 270.601562 L 260.878906 270.601562 L 260.878906 337.085938 L 187.644531 337.085938 Z M 187.644531 270.601562 "/></g></g><g clip-rule="nonzero" clip-path="url(#737c969342)"><g clip-rule="nonzero" clip-path="url(#954e72f477)"><path style=" stroke:none;fill-rule:nonzero;fill:currentColor;fill-opacity:1;" d="M 178.539062 248.582031 L 202.464844 248.582031 L 202.464844 287.273438 L 178.539062 287.273438 Z M 178.539062 248.582031 "/></g></g><g clip-rule="nonzero" clip-path="url(#ab4e9aea53)"><g clip-rule="nonzero" clip-path="url(#846cd0a164)"><path style=" stroke:none;fill-rule:nonzero;fill:currentColor;fill-opacity:1;" d="M 184.085938 248.910156 L 217.035156 248.910156 L 217.035156 281.992188 L 184.085938 281.992188 Z M 184.085938 248.910156 "/></g></g><g clip-rule="nonzero" clip-path="url(#8738c9873d)"><g clip-rule="nonzero" clip-path="url(#078333cb23)"><path style=" stroke:none;fill-rule:nonzero;fill:currentColor;fill-opacity:1;" d="M 197.332031 268.863281 L 252.105469 268.863281 L 252.105469 307.28125 L 197.332031 307.28125 Z M 197.332031 268.863281 "/></g></g><g clip-rule="nonzero" clip-path="url(#09998ab183)"><g clip-rule="nonzero" clip-path="url(#f178ba632e)"><path style=" stroke:none;fill-rule:nonzero;fill:currentColor;fill-opacity:1;" d="M 236.574219 203.625 L 255.203125 203.625 L 255.203125 295.675781 L 236.574219 295.675781 Z M 236.574219 203.625 "/></g></g><g clip-rule="nonzero" clip-path="url(#9860974c39)"><g clip-rule="nonzero" clip-path="url(#76cde74e5d)"><path style=" stroke:none;fill-rule:nonzero;fill:currentColor;fill-opacity:1;" d="M 220.101562 197.414062 L 254.988281 197.414062 L 254.988281 221.425781 L 220.101562 221.425781 Z M 220.101562 197.414062 "/></g></g><g clip-rule="nonzero" clip-path="url(#81388d28d5)"><g clip-rule="nonzero" clip-path="url(#500212bf90)"><path style=" stroke:none;fill-rule:nonzero;fill:currentColor;fill-opacity:1;" d="M 217.945312 187.148438 L 253.929688 187.148438 L 253.929688 212.316406 L 217.945312 212.316406 Z M 217.945312 187.148438 "/></g></g><g clip-rule="nonzero" clip-path="url(#c912b1fd19)"><g clip-rule="nonzero" clip-path="url(#f23337701d)"><path style=" stroke:none;fill-rule:nonzero;fill:currentColor;fill-opacity:1;" d="M 239.140625 179.28125 L 255.371094 179.28125 L 255.371094 201.976562 L 239.140625 201.976562 Z M 239.140625 179.28125 "/></g></g><g clip-rule="nonzero" clip-path="url(#d426b51bd7)"><g clip-rule="nonzero" clip-path="url(#4035f1e9c5)"><path style=" stroke:none;fill-rule:nonzero;fill:currentColor;fill-opacity:1;" d="M 228.710938 142.855469 L 281.273438 142.855469 L 281.273438 194.019531 L 228.710938 194.019531 Z M 228.710938 142.855469 "/></g></g><g clip-rule="nonzero" clip-path="url(#2379b9fde1)"><g clip-rule="nonzero" clip-path="url(#d8562d1a3b)"><path style=" stroke:none;fill-rule:nonzero;fill:currentColor;fill-opacity:1;" d="M 253.628906 176.714844 L 268.863281 176.714844 L 268.863281 201.710938 L 253.628906 201.710938 Z M 253.628906 176.714844 "/></g></g><g clip-rule="nonzero" clip-path="url(#68e6092584)"><g clip-rule="nonzero" clip-path="url(#952a5c8844)"><path style=" stroke:none;fill-rule:nonzero;fill:currentColor;fill-opacity:1;" d="M 256.199219 187.976562 L 289.691406 187.976562 L 289.691406 215.546875 L 256.199219 215.546875 Z M 256.199219 187.976562 "/></g></g><g clip-rule="nonzero" clip-path="url(#51ac19abde)"><g clip-rule="nonzero" clip-path="url(#dcb903cac6)"><path style=" stroke:none;fill-rule:nonzero;fill:currentColor;fill-opacity:1;" d="M 256.199219 200.890625 L 278.785156 200.890625 L 278.785156 215.792969 L 256.199219 215.792969 Z M 256.199219 200.890625 "/></g></g><g clip-rule="nonzero" clip-path="url(#ccda7f3b69)"><g clip-rule="nonzero" clip-path="url(#8536b1cc9e)"><path style=" stroke:none;fill-rule:nonzero;fill:currentColor;fill-opacity:1;" d="M 254.457031 201.140625 L 272.257812 201.140625 L 272.257812 287.988281 L 254.457031 287.988281 Z M 254.457031 201.140625 "/></g></g><g clip-rule="nonzero" clip-path="url(#02a8c17bfd)"><g clip-rule="nonzero" clip-path="url(#75e3cb4f0d)"><path style=" stroke:none;fill-rule:nonzero;fill:currentColor;fill-opacity:1;" d="M 257.273438 273.417969 L 311.59375 273.417969 L 311.59375 309.351562 L 257.273438 309.351562 Z M 257.273438 273.417969 "/></g></g><g clip-rule="nonzero" clip-path="url(#9f29a5ad1c)"><g clip-rule="nonzero" clip-path="url(#2e5beff2e3)"><path style=" stroke:none;fill-rule:nonzero;fill:currentColor;fill-opacity:1;" d="M 291.21875 264.640625 L 313.574219 264.640625 L 313.574219 289.265625 L 291.21875 289.265625 Z M 291.21875 264.640625 "/></g></g><g clip-rule="nonzero" clip-path="url(#11d2303084)"><g clip-rule="nonzero" clip-path="url(#c12f2bd884)"><path style=" stroke:none;fill-rule:nonzero;fill:currentColor;fill-opacity:1;" d="M 290.554688 244.605469 L 325.613281 244.605469 L 325.613281 278.21875 L 290.554688 278.21875 Z M 290.554688 244.605469 "/></g></g><g clip-rule="nonzero" clip-path="url(#47697e01f6)"><g clip-rule="nonzero" clip-path="url(#4122281ba5)"><path style=" stroke:none;fill-rule:nonzero;fill:currentColor;fill-opacity:1;" d="M 310.507812 244.605469 L 333.195312 244.605469 L 333.195312 287.050781 L 310.507812 287.050781 Z M 310.507812 244.605469 "/></g></g><g clip-rule="nonzero" clip-path="url(#dd1a45db34)"><g clip-rule="nonzero" clip-path="url(#867b8aed04)"><path style=" stroke:none;fill-rule:nonzero;fill:currentColor;fill-opacity:1;" d="M 304.300781 271.679688 L 333.074219 271.679688 L 333.074219 295.441406 L 304.300781 295.441406 Z M 304.300781 271.679688 "/></g></g><g clip-rule="nonzero" clip-path="url(#73136ba494)"><g clip-rule="nonzero" clip-path="url(#16b1f5ddb0)"><path style=" stroke:none;fill-rule:nonzero;fill:currentColor;fill-opacity:1;" d="M 246.179688 278.21875 L 320.742188 278.21875 L 320.742188 337.5 L 246.179688 337.5 Z M 246.179688 278.21875 "/></g></g></g></svg>