<svg xmlns="http://www.w3.org/2000/svg" xmlns:xlink="http://www.w3.org/1999/xlink" width="500" zoomAndPan="magnify" viewBox="0 0 375 374.999991" height="500" preserveAspectRatio="xMidYMid meet" version="1.2"><defs><clipPath id="8db5c7947a"><path d="M 68 186.289062 L 181 186.289062 L 181 323.648438 L 68 323.648438 Z M 68 186.289062 "/></clipPath><clipPath id="db32e30071"><path d="M 170.023438 319.648438 C 160.589844 300.882812 156.300781 293.914062 151.152344 287.695312 C 145.363281 280.621094 137.535156 274.832031 130.246094 267.109375 C 121.667969 257.890625 111.695312 245.34375 103.226562 235.910156 C 95.933594 227.976562 88.429688 221.542969 82.425781 214.144531 C 76.957031 207.28125 69.453125 197.417969 68.378906 193.234375 C 68.058594 191.734375 68.273438 190.878906 68.808594 189.914062 C 69.238281 188.839844 70.203125 187.875 71.058594 187.339844 C 72.023438 186.910156 73.417969 186.589844 74.492188 186.804688 C 75.5625 187.015625 76.742188 187.660156 77.492188 188.410156 C 78.242188 189.160156 78.886719 190.339844 78.992188 191.519531 C 78.992188 192.914062 78.242188 195.167969 77.0625 196.132812 C 75.992188 197.097656 73.632812 197.523438 72.238281 197.3125 C 71.058594 197.097656 69.988281 196.238281 69.34375 195.378906 C 68.699219 194.523438 68.164062 193.234375 68.273438 192.164062 C 68.378906 190.769531 69.558594 188.519531 70.628906 187.660156 C 71.488281 186.910156 72.773438 186.695312 73.953125 186.804688 C 75.027344 186.804688 75.777344 187.015625 77.0625 187.984375 C 80.816406 190.878906 87.570312 203.316406 94.003906 211.035156 C 101.296875 219.828125 111.480469 229.046875 119.09375 237.625 C 125.847656 245.128906 131.101562 252.527344 137.644531 259.496094 C 144.183594 266.46875 152.332031 272.6875 158.121094 279.65625 C 163.484375 285.980469 167.984375 293.058594 171.738281 299.277344 C 174.957031 304.53125 178.601562 310.640625 179.78125 314.5 C 180.421875 316.539062 180.851562 318.253906 180.421875 319.648438 C 180.210938 320.933594 179.351562 322.113281 178.277344 322.757812 C 177.101562 323.507812 174.742188 323.9375 173.347656 323.402344 C 171.953125 322.863281 170.023438 319.648438 170.023438 319.648438 "/></clipPath><clipPath id="94312db39b"><path d="M 41.117188 51 L 190.582031 51 L 190.582031 197.875 L 41.117188 197.875 Z M 41.117188 51 "/></clipPath><clipPath id="96959cc473"><path d="M 68.914062 194.738281 C 49.832031 163.320312 48.652344 161.390625 47.257812 157.640625 C 45.542969 152.707031 43.933594 146.273438 42.96875 139.949219 C 41.894531 132.65625 41.46875 123.007812 41.789062 116.359375 C 42.003906 111.535156 42.21875 108.425781 43.613281 103.707031 C 45.648438 97.488281 50.796875 88.160156 54.226562 82.480469 C 56.691406 78.296875 58.835938 75.292969 61.515625 72.183594 C 64.199219 69.289062 67.09375 66.71875 70.308594 64.574219 C 73.632812 62.320312 77.171875 60.714844 81.351562 59.105469 C 86.285156 57.28125 92.503906 55.671875 98.1875 54.496094 C 103.761719 53.316406 109.765625 52.351562 115.019531 51.8125 C 119.628906 51.386719 123.167969 50.632812 127.886719 51.492188 C 134.105469 52.671875 142.039062 56.746094 148.792969 60.285156 C 155.546875 63.929688 162.410156 68.753906 168.308594 73.152344 C 173.347656 77.011719 178.386719 80.976562 182.03125 84.835938 C 185.035156 87.945312 188.144531 91.808594 189.324219 94.164062 C 189.859375 95.558594 190.179688 96.417969 190.074219 97.488281 C 189.859375 98.667969 189.324219 99.847656 188.570312 100.707031 C 187.820312 101.457031 186.640625 102.101562 185.570312 102.3125 C 184.496094 102.421875 183.105469 102.207031 182.246094 101.671875 C 181.28125 101.242188 180.210938 100.277344 179.886719 99.203125 C 179.351562 97.917969 179.457031 95.453125 180.101562 94.273438 C 180.636719 93.199219 181.601562 92.34375 182.675781 92.019531 C 184.070312 91.59375 186.429688 91.808594 187.714844 92.558594 C 188.679688 93.09375 189.429688 94.273438 189.75 95.238281 C 190.074219 96.308594 190.074219 97.597656 189.75 98.667969 C 189.429688 99.742188 188.679688 100.8125 187.714844 101.457031 C 186.535156 102.101562 184.605469 102.636719 182.675781 101.992188 C 179.136719 100.597656 173.992188 91.808594 169.914062 88.054688 C 166.59375 85.050781 164.125 83.335938 160.375 80.65625 C 155.011719 76.902344 146.863281 71.433594 140.539062 68.21875 C 135.070312 65.429688 129.601562 62.855469 124.777344 62.105469 C 120.917969 61.464844 118.34375 62 114.054688 62.535156 C 107.621094 63.285156 96.46875 65.429688 90.144531 67.46875 C 85.640625 68.753906 81.996094 70.363281 78.992188 71.972656 C 76.742188 73.257812 75.457031 74.328125 73.527344 75.9375 C 70.953125 78.082031 68.058594 80.761719 65.699219 84.085938 C 62.589844 88.054688 59.480469 94.273438 57.335938 98.992188 C 55.511719 102.742188 53.796875 106.710938 53.046875 109.820312 C 52.511719 111.964844 52.617188 112.929688 52.511719 115.503906 C 52.402344 120.648438 52.511719 131.585938 53.582031 138.769531 C 54.546875 144.988281 55.40625 149.382812 58.085938 155.925781 C 62.269531 165.679688 77.492188 184.765625 78.78125 190.664062 C 79.207031 192.484375 78.992188 193.34375 78.457031 194.414062 C 77.921875 195.488281 76.742188 196.558594 75.671875 197.097656 C 74.597656 197.523438 72.988281 197.523438 71.917969 197.203125 C 70.738281 196.773438 68.914062 194.738281 68.914062 194.738281 "/></clipPath><clipPath id="4d199e620c"><path d="M 178.242188 51 L 333.378906 51 L 333.378906 191 L 178.242188 191 Z M 178.242188 51 "/></clipPath><clipPath id="f645bf1767"><path d="M 179.03125 92.664062 C 189.429688 77.226562 191.46875 75.292969 194.898438 72.613281 C 199.722656 68.863281 207.765625 63.285156 214.089844 60.175781 C 219.558594 57.496094 225.347656 55.671875 230.386719 54.28125 C 234.570312 53.207031 237.25 52.777344 242.074219 52.242188 C 249.792969 51.492188 263.949219 50.632812 272.632812 51.707031 C 279.28125 52.457031 285.070312 54.386719 290 56.316406 C 293.96875 57.925781 296.972656 59.746094 300.082031 62 C 303.296875 64.25 306.085938 66.503906 309.085938 69.828125 C 313.269531 74.4375 318.414062 81.191406 321.847656 87.625 C 325.277344 94.058594 327.851562 102.742188 329.457031 108.53125 C 330.636719 112.714844 330.960938 114.859375 331.601562 119.363281 C 332.460938 126.4375 333.640625 139.304688 333.210938 147.453125 C 332.78125 153.886719 331.710938 158.496094 329.996094 164.5 C 327.851562 172.007812 323.347656 185.195312 320.558594 188.625 C 319.59375 189.914062 318.84375 190.339844 317.773438 190.554688 C 316.699219 190.878906 315.414062 190.878906 314.339844 190.449219 C 313.375 190.125 312.304688 189.160156 311.765625 188.304688 C 311.125 187.339844 310.695312 186.050781 310.910156 184.980469 C 311.230469 183.585938 312.410156 181.441406 313.699219 180.796875 C 314.984375 180.046875 317.449219 180.15625 318.738281 180.691406 C 319.808594 181.121094 320.667969 182.085938 321.09375 183.15625 C 321.632812 184.445312 321.523438 186.910156 320.882812 188.195312 C 320.453125 189.160156 319.378906 190.019531 318.308594 190.449219 C 317.34375 190.878906 315.949219 190.878906 314.875 190.664062 C 313.910156 190.339844 312.730469 189.589844 312.089844 188.734375 C 311.339844 187.875 310.910156 187.125 310.910156 185.515625 C 310.910156 180.90625 319.273438 164.074219 320.882812 158.175781 C 321.632812 155.496094 321.738281 154.851562 322.058594 152.171875 C 322.488281 146.917969 322.703125 136.195312 322.058594 129.011719 C 321.632812 122.792969 320.667969 117.324219 319.164062 111.535156 C 317.773438 105.746094 316.054688 99.742188 313.484375 94.488281 C 311.015625 89.449219 307.371094 84.621094 304.15625 80.761719 C 301.472656 77.4375 299.007812 74.542969 295.898438 72.078125 C 292.898438 69.71875 289.464844 67.898438 286.035156 66.394531 C 282.605469 64.789062 279.921875 63.714844 275.3125 62.964844 C 267.164062 61.679688 249.792969 62 240.574219 63.179688 C 234.140625 64.035156 229.957031 65 224.492188 67.253906 C 218.164062 69.828125 210.230469 74.972656 205.191406 78.511719 C 201.546875 80.976562 199.078125 82.585938 196.292969 85.589844 C 193.183594 89.125 189.859375 96.523438 187.820312 98.667969 C 186.964844 99.527344 186.535156 99.847656 185.785156 100.167969 C 184.925781 100.382812 184.070312 100.597656 183.210938 100.492188 C 182.140625 100.277344 180.636719 99.527344 179.78125 98.667969 C 179.03125 97.8125 178.492188 96.203125 178.492188 95.128906 C 178.386719 94.273438 179.03125 92.664062 179.03125 92.664062 "/></clipPath><clipPath id="daf578f894"><path d="M 170.535156 180 L 322.570312 180 L 322.570312 324 L 170.535156 324 Z M 170.535156 180 "/></clipPath><clipPath id="301490b2e7"><path d="M 172.703125 314.074219 C 221.382812 272.792969 225.347656 270.863281 232.210938 265.609375 C 242.289062 257.996094 258.371094 245.558594 268.34375 236.230469 C 276.277344 228.832031 282.816406 221.433594 288.394531 215 C 292.898438 209.960938 295.898438 206.101562 299.757812 200.957031 C 304.046875 195.167969 309.195312 184.445312 312.945312 181.65625 C 314.664062 180.371094 316.378906 180.046875 317.664062 180.15625 C 318.84375 180.261719 320.023438 180.90625 320.667969 181.871094 C 321.523438 182.941406 322.167969 185.300781 321.953125 186.695312 C 321.738281 187.875 321.09375 188.949219 320.128906 189.589844 C 318.949219 190.339844 316.484375 190.878906 315.199219 190.554688 C 314.019531 190.339844 313.054688 189.484375 312.410156 188.625 C 311.765625 187.660156 311.230469 186.480469 311.339844 185.300781 C 311.554688 183.90625 312.730469 181.765625 313.804688 180.90625 C 314.769531 180.261719 316.054688 180.046875 317.128906 180.046875 C 318.199219 180.15625 319.488281 180.691406 320.238281 181.441406 C 321.09375 182.191406 321.738281 183.371094 321.953125 184.445312 C 322.167969 185.410156 322.167969 186.160156 321.523438 187.769531 C 319.378906 193.234375 305.976562 210.714844 297.722656 220.578125 C 290.214844 229.691406 283.355469 236.980469 274.347656 245.238281 C 263.734375 254.996094 247.113281 267.859375 237.570312 275.042969 C 231.675781 279.441406 228.886719 280.40625 222.882812 285.125 C 212.054688 293.378906 186.855469 319.003906 179.242188 322.542969 C 176.992188 323.613281 175.707031 323.828125 174.417969 323.507812 C 173.132812 323.1875 171.953125 322.113281 171.417969 321.148438 C 170.773438 320.078125 170.453125 318.574219 170.667969 317.394531 C 170.882812 316.21875 172.703125 314.074219 172.703125 314.074219 "/></clipPath></defs><g id="0fa90ba74e"><g clip-rule="nonzero" clip-path="url(#8db5c7947a)"><g clip-rule="nonzero" clip-path="url(#db32e30071)"><path style=" stroke:none;fill-rule:nonzero;fill:currentColor;fill-opacity:1;" d="M 63.984375 182.515625 L 184.820312 182.515625 L 184.820312 327.894531 L 63.984375 327.894531 Z M 63.984375 182.515625 "/></g></g><g clip-rule="nonzero" clip-path="url(#94312db39b)"><g clip-rule="nonzero" clip-path="url(#96959cc473)"><path style=" stroke:none;fill-rule:nonzero;fill:currentColor;fill-opacity:1;" d="M 37.5 47.203125 L 194.199219 47.203125 L 194.199219 201.492188 L 37.5 201.492188 Z M 37.5 47.203125 "/></g></g><g clip-rule="nonzero" clip-path="url(#4d199e620c)"><g clip-rule="nonzero" clip-path="url(#f645bf1767)"><path style=" stroke:none;fill-rule:nonzero;fill:currentColor;fill-opacity:1;" d="M 174.203125 47.417969 L 337.417969 47.417969 L 337.417969 195.058594 L 174.203125 195.058594 Z M 174.203125 47.417969 "/></g></g><g clip-rule="nonzero" clip-path="url(#daf578f894)"><g clip-rule="nonzero" clip-path="url(#301490b2e7)"><path style=" stroke:none;fill-rule:nonzero;fill:currentColor;fill-opacity:1;" d="M 166.378906 175.757812 L 326.136719 175.757812 L 326.136719 327.796875 L 166.378906 327.796875 Z M 166.378906 175.757812 "/></g></g></g></svg>