<svg xmlns="http://www.w3.org/2000/svg" xmlns:xlink="http://www.w3.org/1999/xlink" width="500" zoomAndPan="magnify" viewBox="0 0 375 374.999991" height="500" preserveAspectRatio="xMidYMid meet" version="1.2"><defs><clipPath id="f44b22bab6"><path d="M 53.675781 112 L 114 112 L 114 185.285156 L 53.675781 185.285156 Z M 53.675781 112 "/></clipPath><clipPath id="efa69fe85e"><path d="M 108.347656 183.148438 C 103.300781 173.117188 101.007812 169.390625 98.257812 166.066406 C 95.164062 162.28125 90.976562 159.1875 87.082031 155.058594 C 82.496094 150.132812 77.164062 143.425781 72.636719 138.378906 C 68.738281 134.140625 64.726562 130.699219 61.515625 126.746094 C 58.59375 123.078125 54.582031 117.804688 54.007812 115.566406 C 53.835938 114.765625 53.949219 114.308594 54.238281 113.792969 C 54.464844 113.21875 54.980469 112.703125 55.441406 112.414062 C 55.957031 112.1875 56.703125 112.015625 57.273438 112.128906 C 57.847656 112.242188 58.480469 112.585938 58.878906 112.988281 C 59.28125 113.390625 59.625 114.019531 59.683594 114.652344 C 59.683594 115.394531 59.28125 116.601562 58.652344 117.117188 C 58.078125 117.632812 56.816406 117.859375 56.070312 117.746094 C 55.441406 117.632812 54.867188 117.171875 54.523438 116.714844 C 54.179688 116.253906 53.894531 115.566406 53.949219 114.996094 C 54.007812 114.25 54.636719 113.046875 55.210938 112.585938 C 55.671875 112.1875 56.359375 112.070312 56.988281 112.128906 C 57.5625 112.128906 57.960938 112.242188 58.652344 112.757812 C 60.65625 114.308594 64.269531 120.957031 67.707031 125.082031 C 71.605469 129.78125 77.050781 134.710938 81.121094 139.296875 C 84.730469 143.308594 87.539062 147.265625 91.035156 150.992188 C 94.53125 154.714844 98.886719 158.042969 101.984375 161.765625 C 104.847656 165.148438 107.257812 168.929688 109.261719 172.257812 C 110.984375 175.066406 112.929688 178.332031 113.5625 180.394531 C 113.90625 181.484375 114.136719 182.402344 113.90625 183.148438 C 113.792969 183.835938 113.332031 184.464844 112.757812 184.808594 C 112.128906 185.210938 110.867188 185.4375 110.121094 185.152344 C 109.378906 184.867188 108.347656 183.148438 108.347656 183.148438 "/></clipPath><clipPath id="9d8442b765"><path d="M 39.433594 39.433594 L 119.335938 39.433594 L 119.335938 118 L 39.433594 118 Z M 39.433594 39.433594 "/></clipPath><clipPath id="f55c50b8fe"><path d="M 54.292969 116.371094 C 44.089844 99.574219 43.460938 98.542969 42.714844 96.539062 C 41.800781 93.902344 40.9375 90.460938 40.421875 87.082031 C 39.851562 83.183594 39.621094 78.023438 39.792969 74.46875 C 39.90625 71.890625 40.023438 70.230469 40.765625 67.707031 C 41.855469 64.382812 44.609375 59.394531 46.441406 56.359375 C 47.761719 54.121094 48.90625 52.515625 50.339844 50.855469 C 51.773438 49.308594 53.320312 47.933594 55.039062 46.785156 C 56.816406 45.582031 58.707031 44.722656 60.941406 43.863281 C 63.578125 42.886719 66.90625 42.027344 69.941406 41.398438 C 72.921875 40.765625 76.132812 40.25 78.941406 39.964844 C 81.40625 39.734375 83.296875 39.335938 85.820312 39.792969 C 89.144531 40.421875 93.386719 42.601562 96.996094 44.492188 C 100.609375 46.441406 104.277344 49.019531 107.429688 51.371094 C 110.121094 53.433594 112.816406 55.554688 114.765625 57.617188 C 116.371094 59.28125 118.03125 61.34375 118.664062 62.605469 C 118.949219 63.351562 119.121094 63.808594 119.0625 64.382812 C 118.949219 65.011719 118.664062 65.644531 118.261719 66.101562 C 117.859375 66.503906 117.230469 66.847656 116.65625 66.960938 C 116.082031 67.019531 115.339844 66.90625 114.878906 66.617188 C 114.363281 66.386719 113.792969 65.871094 113.617188 65.300781 C 113.332031 64.613281 113.390625 63.292969 113.734375 62.664062 C 114.019531 62.089844 114.535156 61.632812 115.109375 61.460938 C 115.855469 61.230469 117.117188 61.34375 117.804688 61.746094 C 118.320312 62.03125 118.71875 62.664062 118.890625 63.179688 C 119.0625 63.75 119.0625 64.441406 118.890625 65.011719 C 118.71875 65.585938 118.320312 66.160156 117.804688 66.503906 C 117.171875 66.847656 116.140625 67.132812 115.109375 66.789062 C 113.21875 66.042969 110.464844 61.34375 108.289062 59.339844 C 106.511719 57.734375 105.191406 56.816406 103.1875 55.382812 C 100.320312 53.378906 95.964844 50.453125 92.582031 48.734375 C 89.660156 47.246094 86.738281 45.867188 84.15625 45.46875 C 82.09375 45.125 80.71875 45.410156 78.425781 45.695312 C 74.988281 46.097656 69.023438 47.246094 65.644531 48.332031 C 63.234375 49.019531 61.289062 49.878906 59.683594 50.742188 C 58.480469 51.429688 57.789062 52 56.757812 52.863281 C 55.382812 54.007812 53.835938 55.441406 52.574219 57.21875 C 50.914062 59.339844 49.25 62.664062 48.105469 65.183594 C 47.128906 67.191406 46.210938 69.3125 45.8125 70.972656 C 45.523438 72.121094 45.582031 72.636719 45.523438 74.011719 C 45.46875 76.761719 45.523438 82.609375 46.097656 86.449219 C 46.613281 89.773438 47.070312 92.125 48.503906 95.621094 C 50.742188 100.835938 58.878906 111.039062 59.566406 114.191406 C 59.796875 115.167969 59.683594 115.625 59.394531 116.199219 C 59.109375 116.773438 58.480469 117.34375 57.90625 117.632812 C 57.332031 117.859375 56.472656 117.859375 55.898438 117.6875 C 55.269531 117.460938 54.292969 116.371094 54.292969 116.371094 "/></clipPath><clipPath id="67d77666f2"><path d="M 112.738281 39.464844 L 195.675781 39.464844 L 195.675781 114.382812 L 112.738281 114.382812 Z M 112.738281 39.464844 "/></clipPath><clipPath id="d9e687f1fa"><path d="M 113.160156 61.804688 C 118.71875 53.550781 119.808594 52.515625 121.644531 51.085938 C 124.222656 49.078125 128.523438 46.097656 131.902344 44.433594 C 134.828125 43.003906 137.921875 42.027344 140.617188 41.28125 C 142.851562 40.710938 144.285156 40.480469 146.863281 40.195312 C 150.992188 39.792969 158.558594 39.335938 163.199219 39.90625 C 166.753906 40.308594 169.847656 41.339844 172.484375 42.371094 C 174.605469 43.230469 176.210938 44.207031 177.875 45.410156 C 179.59375 46.613281 181.082031 47.816406 182.6875 49.59375 C 184.921875 52.058594 187.675781 55.671875 189.507812 59.109375 C 191.34375 62.546875 192.71875 67.191406 193.578125 70.285156 C 194.210938 72.523438 194.382812 73.667969 194.726562 76.074219 C 195.183594 79.859375 195.8125 86.738281 195.585938 91.09375 C 195.355469 94.53125 194.78125 96.996094 193.863281 100.207031 C 192.71875 104.21875 190.3125 111.269531 188.820312 113.101562 C 188.304688 113.792969 187.902344 114.019531 187.332031 114.136719 C 186.757812 114.308594 186.070312 114.308594 185.496094 114.078125 C 184.980469 113.90625 184.40625 113.390625 184.121094 112.929688 C 183.777344 112.414062 183.546875 111.726562 183.664062 111.15625 C 183.835938 110.410156 184.464844 109.261719 185.152344 108.917969 C 185.839844 108.519531 187.160156 108.574219 187.847656 108.863281 C 188.417969 109.089844 188.878906 109.605469 189.109375 110.179688 C 189.394531 110.867188 189.335938 112.1875 188.992188 112.875 C 188.765625 113.390625 188.191406 113.847656 187.617188 114.078125 C 187.101562 114.308594 186.355469 114.308594 185.785156 114.191406 C 185.265625 114.019531 184.636719 113.617188 184.292969 113.160156 C 183.890625 112.703125 183.664062 112.300781 183.664062 111.441406 C 183.664062 108.976562 188.132812 99.976562 188.992188 96.824219 C 189.394531 95.390625 189.453125 95.046875 189.625 93.613281 C 189.851562 90.804688 189.96875 85.074219 189.625 81.234375 C 189.394531 77.910156 188.878906 74.988281 188.074219 71.890625 C 187.332031 68.796875 186.414062 65.585938 185.039062 62.777344 C 183.71875 60.082031 181.769531 57.503906 180.050781 55.441406 C 178.617188 53.664062 177.300781 52.117188 175.636719 50.796875 C 174.03125 49.535156 172.199219 48.5625 170.363281 47.761719 C 168.53125 46.898438 167.097656 46.328125 164.632812 45.925781 C 160.277344 45.238281 150.992188 45.410156 146.0625 46.039062 C 142.621094 46.5 140.386719 47.015625 137.464844 48.21875 C 134.082031 49.59375 129.839844 52.34375 127.144531 54.238281 C 125.199219 55.554688 123.878906 56.414062 122.390625 58.019531 C 120.726562 59.910156 118.949219 63.867188 117.859375 65.011719 C 117.402344 65.472656 117.171875 65.644531 116.773438 65.816406 C 116.3125 65.929688 115.855469 66.042969 115.394531 65.988281 C 114.824219 65.871094 114.019531 65.472656 113.5625 65.011719 C 113.160156 64.554688 112.875 63.695312 112.875 63.121094 C 112.816406 62.664062 113.160156 61.804688 113.160156 61.804688 "/></clipPath><clipPath id="d1b9d3cf9a"><path d="M 108.621094 108.449219 L 189.898438 108.449219 L 189.898438 185.597656 L 108.621094 185.597656 Z M 108.621094 108.449219 "/></clipPath><clipPath id="948532a3d1"><path d="M 109.777344 180.167969 C 135.800781 158.097656 137.921875 157.066406 141.589844 154.257812 C 146.980469 150.1875 155.578125 143.539062 160.90625 138.554688 C 165.148438 134.597656 168.644531 130.644531 171.625 127.203125 C 174.03125 124.507812 175.636719 122.445312 177.703125 119.695312 C 179.992188 116.601562 182.746094 110.867188 184.75 109.378906 C 185.667969 108.691406 186.585938 108.519531 187.273438 108.574219 C 187.902344 108.632812 188.535156 108.976562 188.878906 109.492188 C 189.335938 110.066406 189.679688 111.328125 189.566406 112.070312 C 189.453125 112.703125 189.109375 113.273438 188.59375 113.621094 C 187.960938 114.019531 186.644531 114.308594 185.957031 114.136719 C 185.324219 114.019531 184.808594 113.5625 184.464844 113.101562 C 184.121094 112.585938 183.835938 111.957031 183.890625 111.328125 C 184.007812 110.582031 184.636719 109.433594 185.210938 108.976562 C 185.726562 108.632812 186.414062 108.519531 186.988281 108.519531 C 187.558594 108.574219 188.246094 108.863281 188.648438 109.261719 C 189.109375 109.664062 189.453125 110.292969 189.566406 110.867188 C 189.679688 111.382812 189.679688 111.785156 189.335938 112.644531 C 188.191406 115.566406 181.027344 124.910156 176.613281 130.183594 C 172.601562 135.054688 168.929688 138.953125 164.117188 143.367188 C 158.441406 148.582031 149.558594 155.460938 144.457031 159.300781 C 141.304688 161.652344 139.8125 162.167969 136.605469 164.691406 C 130.816406 169.105469 117.34375 182.804688 113.273438 184.695312 C 112.070312 185.265625 111.382812 185.382812 110.695312 185.210938 C 110.007812 185.039062 109.378906 184.464844 109.089844 183.949219 C 108.746094 183.375 108.574219 182.574219 108.691406 181.941406 C 108.804688 181.3125 109.777344 180.167969 109.777344 180.167969 "/></clipPath><clipPath id="fedb62fbc8"><path d="M 193.300781 260 L 253.859375 260 L 253.859375 333.390625 L 193.300781 333.390625 Z M 193.300781 260 "/></clipPath><clipPath id="2066ab9616"><path d="M 247.96875 331.253906 C 242.925781 321.222656 240.632812 317.496094 237.878906 314.171875 C 234.785156 310.386719 230.601562 307.292969 226.703125 303.164062 C 222.117188 298.238281 216.785156 291.53125 212.257812 286.484375 C 208.359375 282.246094 204.347656 278.804688 201.140625 274.851562 C 198.214844 271.183594 194.203125 265.910156 193.628906 263.671875 C 193.457031 262.871094 193.574219 262.414062 193.859375 261.898438 C 194.089844 261.324219 194.605469 260.808594 195.0625 260.519531 C 195.578125 260.292969 196.324219 260.121094 196.898438 260.234375 C 197.46875 260.347656 198.101562 260.691406 198.503906 261.09375 C 198.902344 261.496094 199.246094 262.125 199.304688 262.757812 C 199.304688 263.5 198.902344 264.707031 198.273438 265.222656 C 197.699219 265.738281 196.4375 265.964844 195.695312 265.851562 C 195.0625 265.738281 194.488281 265.277344 194.144531 264.820312 C 193.800781 264.359375 193.515625 263.671875 193.574219 263.101562 C 193.628906 262.355469 194.261719 261.152344 194.832031 260.691406 C 195.292969 260.292969 195.980469 260.175781 196.609375 260.234375 C 197.183594 260.234375 197.585938 260.347656 198.273438 260.863281 C 200.277344 262.414062 203.890625 269.0625 207.328125 273.1875 C 211.226562 277.886719 216.671875 282.816406 220.742188 287.402344 C 224.351562 291.414062 227.160156 295.371094 230.65625 299.097656 C 234.15625 302.820312 238.511719 306.148438 241.605469 309.871094 C 244.472656 313.253906 246.878906 317.035156 248.886719 320.363281 C 250.605469 323.171875 252.554688 326.4375 253.183594 328.5 C 253.527344 329.589844 253.757812 330.507812 253.527344 331.253906 C 253.414062 331.941406 252.953125 332.570312 252.382812 332.914062 C 251.75 333.316406 250.492188 333.542969 249.746094 333.257812 C 249 332.972656 247.96875 331.253906 247.96875 331.253906 "/></clipPath><clipPath id="66e8a71e4d"><path d="M 179.054688 187.539062 L 258.960938 187.539062 L 258.960938 266 L 179.054688 266 Z M 179.054688 187.539062 "/></clipPath><clipPath id="b4a29a9b1b"><path d="M 193.917969 264.476562 C 183.714844 247.679688 183.082031 246.648438 182.339844 244.644531 C 181.421875 242.007812 180.5625 238.566406 180.046875 235.1875 C 179.472656 231.289062 179.242188 226.128906 179.414062 222.574219 C 179.53125 219.996094 179.644531 218.335938 180.390625 215.8125 C 181.480469 212.488281 184.230469 207.5 186.0625 204.464844 C 187.382812 202.226562 188.527344 200.621094 189.960938 198.960938 C 191.394531 197.414062 192.941406 196.039062 194.660156 194.890625 C 196.4375 193.6875 198.332031 192.828125 200.566406 191.96875 C 203.203125 190.992188 206.527344 190.132812 209.566406 189.503906 C 212.546875 188.871094 215.753906 188.355469 218.5625 188.070312 C 221.027344 187.839844 222.921875 187.441406 225.441406 187.898438 C 228.765625 188.527344 233.007812 190.707031 236.621094 192.597656 C 240.230469 194.546875 243.898438 197.125 247.050781 199.476562 C 249.746094 201.539062 252.4375 203.660156 254.386719 205.722656 C 255.992188 207.386719 257.65625 209.449219 258.285156 210.710938 C 258.570312 211.457031 258.746094 211.914062 258.6875 212.488281 C 258.570312 213.117188 258.285156 213.75 257.882812 214.207031 C 257.484375 214.609375 256.851562 214.953125 256.28125 215.066406 C 255.707031 215.125 254.960938 215.011719 254.503906 214.722656 C 253.988281 214.492188 253.414062 213.976562 253.242188 213.40625 C 252.953125 212.71875 253.011719 211.398438 253.355469 210.769531 C 253.644531 210.195312 254.160156 209.738281 254.730469 209.566406 C 255.476562 209.335938 256.738281 209.449219 257.425781 209.851562 C 257.941406 210.136719 258.34375 210.769531 258.515625 211.285156 C 258.6875 211.855469 258.6875 212.546875 258.515625 213.117188 C 258.34375 213.691406 257.941406 214.265625 257.425781 214.609375 C 256.796875 214.953125 255.761719 215.238281 254.730469 214.894531 C 252.839844 214.148438 250.089844 209.449219 247.910156 207.445312 C 246.132812 205.839844 244.816406 204.921875 242.808594 203.488281 C 239.945312 201.484375 235.585938 198.558594 232.207031 196.839844 C 229.28125 195.351562 226.359375 193.972656 223.78125 193.574219 C 221.714844 193.230469 220.339844 193.515625 218.046875 193.800781 C 214.609375 194.203125 208.648438 195.351562 205.265625 196.4375 C 202.859375 197.125 200.910156 197.984375 199.304688 198.847656 C 198.101562 199.535156 197.414062 200.105469 196.382812 200.96875 C 195.007812 202.113281 193.457031 203.546875 192.199219 205.324219 C 190.535156 207.445312 188.871094 210.769531 187.726562 213.289062 C 186.753906 215.296875 185.835938 217.417969 185.433594 219.078125 C 185.148438 220.226562 185.203125 220.742188 185.148438 222.117188 C 185.089844 224.867188 185.148438 230.714844 185.71875 234.554688 C 186.234375 237.878906 186.695312 240.230469 188.128906 243.726562 C 190.363281 248.941406 198.503906 259.144531 199.191406 262.296875 C 199.417969 263.273438 199.304688 263.730469 199.019531 264.304688 C 198.730469 264.878906 198.101562 265.449219 197.527344 265.738281 C 196.953125 265.964844 196.09375 265.964844 195.523438 265.792969 C 194.890625 265.566406 193.917969 264.476562 193.917969 264.476562 "/></clipPath><clipPath id="843935e8f8"><path d="M 252.363281 187.570312 L 335.296875 187.570312 L 335.296875 262.488281 L 252.363281 262.488281 Z M 252.363281 187.570312 "/></clipPath><clipPath id="61ba31b05b"><path d="M 252.78125 209.910156 C 258.34375 201.65625 259.433594 200.621094 261.265625 199.191406 C 263.84375 197.183594 268.144531 194.203125 271.527344 192.539062 C 274.449219 191.109375 277.542969 190.132812 280.238281 189.386719 C 282.472656 188.816406 283.90625 188.585938 286.488281 188.300781 C 290.613281 187.898438 298.179688 187.441406 302.820312 188.011719 C 306.375 188.414062 309.472656 189.445312 312.109375 190.476562 C 314.230469 191.335938 315.832031 192.3125 317.496094 193.515625 C 319.214844 194.71875 320.707031 195.921875 322.3125 197.699219 C 324.546875 200.164062 327.296875 203.777344 329.132812 207.214844 C 330.964844 210.652344 332.339844 215.296875 333.199219 218.390625 C 333.832031 220.628906 334.003906 221.773438 334.347656 224.179688 C 334.804688 227.964844 335.4375 234.84375 335.207031 239.199219 C 334.976562 242.636719 334.40625 245.101562 333.488281 248.3125 C 332.339844 252.324219 329.933594 259.375 328.445312 261.207031 C 327.929688 261.898438 327.527344 262.125 326.953125 262.242188 C 326.378906 262.414062 325.691406 262.414062 325.121094 262.183594 C 324.601562 262.011719 324.03125 261.496094 323.742188 261.035156 C 323.398438 260.519531 323.171875 259.832031 323.285156 259.261719 C 323.457031 258.515625 324.085938 257.367188 324.773438 257.023438 C 325.464844 256.625 326.78125 256.679688 327.46875 256.96875 C 328.042969 257.195312 328.5 257.710938 328.730469 258.285156 C 329.015625 258.972656 328.960938 260.292969 328.617188 260.980469 C 328.386719 261.496094 327.8125 261.953125 327.238281 262.183594 C 326.722656 262.414062 325.980469 262.414062 325.40625 262.296875 C 324.890625 262.125 324.257812 261.722656 323.914062 261.265625 C 323.515625 260.808594 323.285156 260.40625 323.285156 259.546875 C 323.285156 257.082031 327.753906 248.082031 328.617188 244.929688 C 329.015625 243.496094 329.074219 243.152344 329.246094 241.71875 C 329.476562 238.910156 329.589844 233.179688 329.246094 229.339844 C 329.015625 226.015625 328.5 223.09375 327.699219 219.996094 C 326.953125 216.902344 326.035156 213.691406 324.660156 210.882812 C 323.34375 208.1875 321.394531 205.609375 319.675781 203.546875 C 318.242188 201.769531 316.921875 200.222656 315.261719 198.902344 C 313.65625 197.640625 311.820312 196.667969 309.988281 195.867188 C 308.152344 195.003906 306.71875 194.433594 304.253906 194.03125 C 299.898438 193.34375 290.613281 193.515625 285.683594 194.144531 C 282.246094 194.605469 280.007812 195.121094 277.085938 196.324219 C 273.703125 197.699219 269.460938 200.449219 266.769531 202.34375 C 264.820312 203.660156 263.5 204.519531 262.011719 206.125 C 260.347656 208.015625 258.570312 211.972656 257.484375 213.117188 C 257.023438 213.578125 256.796875 213.75 256.394531 213.921875 C 255.9375 214.035156 255.476562 214.148438 255.019531 214.09375 C 254.445312 213.976562 253.644531 213.578125 253.183594 213.117188 C 252.78125 212.660156 252.496094 211.800781 252.496094 211.226562 C 252.4375 210.769531 252.78125 209.910156 252.78125 209.910156 "/></clipPath><clipPath id="35f90830aa"><path d="M 248.242188 256.554688 L 329.519531 256.554688 L 329.519531 333.703125 L 248.242188 333.703125 Z M 248.242188 256.554688 "/></clipPath><clipPath id="16e08990ad"><path d="M 249.402344 328.273438 C 275.425781 306.203125 277.542969 305.171875 281.214844 302.363281 C 286.601562 298.292969 295.199219 291.644531 300.53125 286.660156 C 304.769531 282.703125 308.265625 278.75 311.25 275.308594 C 313.65625 272.617188 315.261719 270.550781 317.324219 267.800781 C 319.617188 264.707031 322.367188 258.972656 324.375 257.484375 C 325.292969 256.796875 326.207031 256.625 326.894531 256.679688 C 327.527344 256.738281 328.15625 257.082031 328.5 257.597656 C 328.960938 258.171875 329.304688 259.433594 329.1875 260.175781 C 329.074219 260.808594 328.730469 261.378906 328.214844 261.726562 C 327.582031 262.125 326.265625 262.414062 325.578125 262.242188 C 324.945312 262.125 324.429688 261.667969 324.085938 261.207031 C 323.742188 260.691406 323.457031 260.0625 323.515625 259.433594 C 323.628906 258.6875 324.257812 257.539062 324.832031 257.082031 C 325.347656 256.738281 326.035156 256.625 326.609375 256.625 C 327.183594 256.679688 327.871094 256.96875 328.273438 257.367188 C 328.730469 257.769531 329.074219 258.398438 329.1875 258.972656 C 329.304688 259.488281 329.304688 259.890625 328.960938 260.75 C 327.8125 263.671875 320.648438 273.015625 316.234375 278.289062 C 312.222656 283.160156 308.554688 287.058594 303.738281 291.472656 C 298.066406 296.6875 289.179688 303.566406 284.078125 307.40625 C 280.925781 309.757812 279.4375 310.273438 276.226562 312.796875 C 270.4375 317.210938 256.96875 330.910156 252.898438 332.800781 C 251.695312 333.371094 251.007812 333.488281 250.320312 333.316406 C 249.628906 333.144531 249 332.570312 248.714844 332.054688 C 248.371094 331.480469 248.199219 330.679688 248.3125 330.046875 C 248.425781 329.417969 249.402344 328.273438 249.402344 328.273438 "/></clipPath></defs><g id="03f7d46737"><g clip-rule="nonzero" clip-path="url(#f44b22bab6)"><g clip-rule="nonzero" clip-path="url(#efa69fe85e)"><path style=" stroke:none;fill-rule:nonzero;fill:currentColor;fill-opacity:1;" d="M 51.65625 109.835938 L 116.253906 109.835938 L 116.253906 187.554688 L 51.65625 187.554688 Z M 51.65625 109.835938 "/></g></g><g clip-rule="nonzero" clip-path="url(#9d8442b765)"><g clip-rule="nonzero" clip-path="url(#f55c50b8fe)"><path style=" stroke:none;fill-rule:nonzero;fill:currentColor;fill-opacity:1;" d="M 37.5 37.5 L 121.269531 37.5 L 121.269531 119.980469 L 37.5 119.980469 Z M 37.5 37.5 "/></g></g><g clip-rule="nonzero" clip-path="url(#67d77666f2)"><g clip-rule="nonzero" clip-path="url(#d9e687f1fa)"><path style=" stroke:none;fill-rule:nonzero;fill:currentColor;fill-opacity:1;" d="M 110.582031 37.613281 L 197.832031 37.613281 L 197.832031 116.542969 L 110.582031 116.542969 Z M 110.582031 37.613281 "/></g></g><g clip-rule="nonzero" clip-path="url(#d1b9d3cf9a)"><g clip-rule="nonzero" clip-path="url(#948532a3d1)"><path style=" stroke:none;fill-rule:nonzero;fill:currentColor;fill-opacity:1;" d="M 106.398438 106.226562 L 191.800781 106.226562 L 191.800781 187.503906 L 106.398438 187.503906 Z M 106.398438 106.226562 "/></g></g><g clip-rule="nonzero" clip-path="url(#fedb62fbc8)"><g clip-rule="nonzero" clip-path="url(#2066ab9616)"><path style=" stroke:none;fill-rule:nonzero;fill:currentColor;fill-opacity:1;" d="M 191.28125 257.941406 L 255.878906 257.941406 L 255.878906 335.660156 L 191.28125 335.660156 Z M 191.28125 257.941406 "/></g></g><g clip-rule="nonzero" clip-path="url(#66e8a71e4d)"><g clip-rule="nonzero" clip-path="url(#b4a29a9b1b)"><path style=" stroke:none;fill-rule:nonzero;fill:currentColor;fill-opacity:1;" d="M 177.121094 185.605469 L 260.894531 185.605469 L 260.894531 268.085938 L 177.121094 268.085938 Z M 177.121094 185.605469 "/></g></g><g clip-rule="nonzero" clip-path="url(#843935e8f8)"><g clip-rule="nonzero" clip-path="url(#61ba31b05b)"><path style=" stroke:none;fill-rule:nonzero;fill:currentColor;fill-opacity:1;" d="M 250.203125 185.71875 L 337.457031 185.71875 L 337.457031 264.648438 L 250.203125 264.648438 Z M 250.203125 185.71875 "/></g></g><g clip-rule="nonzero" clip-path="url(#35f90830aa)"><g clip-rule="nonzero" clip-path="url(#16e08990ad)"><path style=" stroke:none;fill-rule:nonzero;fill:currentColor;fill-opacity:1;" d="M 246.019531 254.332031 L 331.425781 254.332031 L 331.425781 335.609375 L 246.019531 335.609375 Z M 246.019531 254.332031 "/></g></g></g></svg>