<svg xmlns="http://www.w3.org/2000/svg" xmlns:xlink="http://www.w3.org/1999/xlink" width="500" zoomAndPan="magnify" viewBox="0 0 375 374.999991" height="500" preserveAspectRatio="xMidYMid meet" version="1.2"><defs><clipPath id="760206a03d"><path d="M 129.734375 122.453125 L 182.464844 122.453125 L 182.464844 186.394531 L 129.734375 186.394531 Z M 129.734375 122.453125 "/></clipPath><clipPath id="3e66fa8438"><path d="M 177.335938 184.53125 C 172.945312 175.796875 170.949219 172.554688 168.550781 169.660156 C 165.859375 166.367188 162.214844 163.671875 158.820312 160.078125 C 154.828125 155.785156 150.183594 149.945312 146.242188 145.550781 C 142.847656 141.859375 139.355469 138.863281 136.558594 135.421875 C 134.015625 132.226562 130.519531 127.632812 130.023438 125.6875 C 129.871094 124.988281 129.972656 124.589844 130.222656 124.140625 C 130.421875 123.640625 130.871094 123.191406 131.269531 122.941406 C 131.71875 122.742188 132.367188 122.59375 132.867188 122.695312 C 133.367188 122.792969 133.914062 123.09375 134.265625 123.441406 C 134.613281 123.792969 134.914062 124.339844 134.960938 124.890625 C 134.960938 125.539062 134.613281 126.585938 134.0625 127.035156 C 133.566406 127.484375 132.46875 127.683594 131.820312 127.585938 C 131.269531 127.484375 130.769531 127.085938 130.472656 126.6875 C 130.171875 126.285156 129.921875 125.6875 129.972656 125.1875 C 130.023438 124.539062 130.570312 123.492188 131.070312 123.09375 C 131.46875 122.742188 132.066406 122.644531 132.617188 122.695312 C 133.117188 122.695312 133.464844 122.792969 134.0625 123.242188 C 135.8125 124.589844 138.957031 130.378906 141.949219 133.972656 C 145.34375 138.066406 150.085938 142.359375 153.628906 146.351562 C 156.773438 149.84375 159.21875 153.289062 162.265625 156.53125 C 165.308594 159.777344 169.101562 162.671875 171.796875 165.917969 C 174.292969 168.859375 176.386719 172.15625 178.136719 175.050781 C 179.632812 177.496094 181.328125 180.339844 181.878906 182.136719 C 182.179688 183.085938 182.378906 183.882812 182.179688 184.53125 C 182.078125 185.132812 181.679688 185.679688 181.179688 185.980469 C 180.632812 186.328125 179.53125 186.527344 178.882812 186.28125 C 178.234375 186.03125 177.335938 184.53125 177.335938 184.53125 "/></clipPath><clipPath id="a55ebaefd4"><path d="M 117.332031 59.394531 L 186.90625 59.394531 L 186.90625 127.847656 L 117.332031 127.847656 Z M 117.332031 59.394531 "/></clipPath><clipPath id="b65d616145"><path d="M 130.269531 126.386719 C 121.386719 111.761719 120.839844 110.863281 120.1875 109.117188 C 119.390625 106.820312 118.640625 103.828125 118.191406 100.882812 C 117.695312 97.488281 117.492188 92.996094 117.644531 89.902344 C 117.742188 87.65625 117.84375 86.207031 118.492188 84.011719 C 119.441406 81.117188 121.835938 76.777344 123.433594 74.128906 C 124.582031 72.183594 125.578125 70.785156 126.828125 69.339844 C 128.074219 67.992188 129.421875 66.792969 130.921875 65.796875 C 132.46875 64.746094 134.113281 64 136.0625 63.25 C 138.355469 62.402344 141.25 61.652344 143.898438 61.105469 C 146.492188 60.554688 149.289062 60.105469 151.734375 59.855469 C 153.878906 59.65625 155.527344 59.308594 157.722656 59.707031 C 160.617188 60.253906 164.308594 62.152344 167.453125 63.800781 C 170.597656 65.496094 173.792969 67.742188 176.539062 69.789062 C 178.882812 71.585938 181.230469 73.433594 182.925781 75.230469 C 184.324219 76.675781 185.773438 78.472656 186.320312 79.570312 C 186.570312 80.21875 186.71875 80.617188 186.671875 81.117188 C 186.570312 81.667969 186.320312 82.214844 185.972656 82.617188 C 185.621094 82.964844 185.074219 83.265625 184.574219 83.363281 C 184.074219 83.414062 183.425781 83.3125 183.027344 83.066406 C 182.578125 82.863281 182.078125 82.414062 181.929688 81.917969 C 181.679688 81.316406 181.730469 80.167969 182.027344 79.621094 C 182.277344 79.121094 182.726562 78.722656 183.226562 78.574219 C 183.875 78.371094 184.972656 78.472656 185.570312 78.820312 C 186.019531 79.070312 186.371094 79.621094 186.519531 80.070312 C 186.671875 80.570312 186.671875 81.167969 186.519531 81.667969 C 186.371094 82.167969 186.019531 82.664062 185.570312 82.964844 C 185.023438 83.265625 184.125 83.515625 183.226562 83.214844 C 181.578125 82.566406 179.183594 78.472656 177.285156 76.726562 C 175.738281 75.328125 174.59375 74.53125 172.84375 73.28125 C 170.347656 71.535156 166.554688 68.988281 163.613281 67.492188 C 161.066406 66.195312 158.519531 64.996094 156.273438 64.648438 C 154.476562 64.347656 153.28125 64.597656 151.285156 64.847656 C 148.289062 65.195312 143.097656 66.195312 140.152344 67.144531 C 138.058594 67.742188 136.359375 68.492188 134.960938 69.238281 C 133.914062 69.839844 133.316406 70.335938 132.417969 71.085938 C 131.21875 72.085938 129.871094 73.332031 128.773438 74.878906 C 127.328125 76.726562 125.878906 79.621094 124.878906 81.816406 C 124.03125 83.5625 123.234375 85.410156 122.882812 86.859375 C 122.636719 87.855469 122.683594 88.304688 122.636719 89.503906 C 122.585938 91.898438 122.636719 96.988281 123.132812 100.332031 C 123.582031 103.226562 123.984375 105.273438 125.230469 108.320312 C 127.175781 112.859375 134.265625 121.746094 134.863281 124.492188 C 135.0625 125.339844 134.960938 125.738281 134.714844 126.238281 C 134.464844 126.738281 133.914062 127.234375 133.414062 127.484375 C 132.917969 127.683594 132.167969 127.683594 131.667969 127.535156 C 131.121094 127.335938 130.269531 126.386719 130.269531 126.386719 "/></clipPath><clipPath id="c50b1d67d1"><path d="M 181.164062 59.421875 L 253.378906 59.421875 L 253.378906 124.65625 L 181.164062 124.65625 Z M 181.164062 59.421875 "/></clipPath><clipPath id="f47adb1f4f"><path d="M 181.53125 78.871094 C 186.371094 71.683594 187.320312 70.785156 188.917969 69.539062 C 191.164062 67.792969 194.90625 65.195312 197.851562 63.75 C 200.394531 62.5 203.089844 61.652344 205.4375 61.003906 C 207.382812 60.503906 208.632812 60.304688 210.875 60.054688 C 214.46875 59.707031 221.058594 59.308594 225.101562 59.804688 C 228.195312 60.15625 230.890625 61.054688 233.1875 61.953125 C 235.035156 62.699219 236.429688 63.550781 237.878906 64.597656 C 239.375 65.644531 240.671875 66.695312 242.070312 68.242188 C 244.015625 70.386719 246.414062 73.53125 248.011719 76.527344 C 249.609375 79.519531 250.804688 83.5625 251.554688 86.257812 C 252.101562 88.207031 252.253906 89.203125 252.550781 91.300781 C 252.953125 94.59375 253.5 100.582031 253.300781 104.375 C 253.101562 107.371094 252.601562 109.515625 251.804688 112.3125 C 250.804688 115.804688 248.710938 121.945312 247.410156 123.542969 C 246.960938 124.140625 246.613281 124.339844 246.113281 124.441406 C 245.613281 124.589844 245.015625 124.589844 244.515625 124.390625 C 244.066406 124.242188 243.566406 123.792969 243.320312 123.390625 C 243.019531 122.941406 242.820312 122.34375 242.917969 121.84375 C 243.070312 121.195312 243.617188 120.199219 244.21875 119.898438 C 244.816406 119.550781 245.964844 119.597656 246.5625 119.847656 C 247.0625 120.046875 247.460938 120.496094 247.660156 120.996094 C 247.910156 121.59375 247.859375 122.742188 247.5625 123.34375 C 247.363281 123.792969 246.863281 124.191406 246.363281 124.390625 C 245.914062 124.589844 245.265625 124.589844 244.765625 124.492188 C 244.316406 124.339844 243.769531 123.992188 243.46875 123.59375 C 243.121094 123.191406 242.917969 122.84375 242.917969 122.09375 C 242.917969 119.949219 246.8125 112.113281 247.5625 109.367188 C 247.910156 108.121094 247.960938 107.820312 248.109375 106.574219 C 248.308594 104.125 248.410156 99.136719 248.109375 95.792969 C 247.910156 92.898438 247.460938 90.351562 246.761719 87.65625 C 246.113281 84.960938 245.316406 82.167969 244.117188 79.71875 C 242.96875 77.375 241.273438 75.128906 239.773438 73.332031 C 238.527344 71.785156 237.378906 70.4375 235.933594 69.289062 C 234.535156 68.191406 232.9375 67.34375 231.339844 66.644531 C 229.742188 65.894531 228.496094 65.394531 226.347656 65.046875 C 222.554688 64.449219 214.46875 64.597656 210.179688 65.148438 C 207.183594 65.546875 205.238281 65.996094 202.691406 67.042969 C 199.746094 68.242188 196.054688 70.636719 193.707031 72.285156 C 192.011719 73.433594 190.863281 74.179688 189.566406 75.578125 C 188.117188 77.226562 186.570312 80.667969 185.621094 81.667969 C 185.222656 82.066406 185.023438 82.214844 184.671875 82.367188 C 184.273438 82.464844 183.875 82.566406 183.476562 82.515625 C 182.976562 82.414062 182.277344 82.066406 181.878906 81.667969 C 181.53125 81.269531 181.28125 80.519531 181.28125 80.019531 C 181.230469 79.621094 181.53125 78.871094 181.53125 78.871094 "/></clipPath><clipPath id="f715d935dd"><path d="M 177.574219 119.488281 L 248.347656 119.488281 L 248.347656 186.667969 L 177.574219 186.667969 Z M 177.574219 119.488281 "/></clipPath><clipPath id="8967e2606a"><path d="M 178.585938 181.9375 C 201.242188 162.722656 203.089844 161.824219 206.285156 159.378906 C 210.976562 155.835938 218.464844 150.042969 223.105469 145.703125 C 226.796875 142.257812 229.84375 138.816406 232.4375 135.820312 C 234.535156 133.472656 235.933594 131.675781 237.730469 129.28125 C 239.726562 126.585938 242.121094 121.59375 243.867188 120.296875 C 244.667969 119.699219 245.464844 119.550781 246.0625 119.597656 C 246.613281 119.648438 247.160156 119.949219 247.460938 120.398438 C 247.859375 120.898438 248.160156 121.996094 248.058594 122.644531 C 247.960938 123.191406 247.660156 123.691406 247.210938 123.992188 C 246.664062 124.339844 245.515625 124.589844 244.914062 124.441406 C 244.367188 124.339844 243.917969 123.941406 243.617188 123.542969 C 243.320312 123.09375 243.070312 122.542969 243.121094 121.996094 C 243.21875 121.347656 243.769531 120.347656 244.265625 119.949219 C 244.714844 119.648438 245.316406 119.550781 245.8125 119.550781 C 246.3125 119.597656 246.914062 119.847656 247.261719 120.199219 C 247.660156 120.546875 247.960938 121.097656 248.058594 121.59375 C 248.160156 122.042969 248.160156 122.394531 247.859375 123.144531 C 246.863281 125.6875 240.625 133.824219 236.78125 138.414062 C 233.285156 142.65625 230.09375 146.050781 225.898438 149.894531 C 220.957031 154.4375 213.222656 160.425781 208.78125 163.769531 C 206.035156 165.816406 204.738281 166.265625 201.941406 168.460938 C 196.902344 172.304688 185.171875 184.234375 181.628906 185.878906 C 180.582031 186.378906 179.980469 186.480469 179.382812 186.328125 C 178.785156 186.179688 178.234375 185.679688 177.984375 185.230469 C 177.6875 184.734375 177.535156 184.035156 177.636719 183.484375 C 177.734375 182.9375 178.585938 181.9375 178.585938 181.9375 "/></clipPath><clipPath id="9d89dc6fc3"><path d="M 51.585938 251.417969 L 104.320312 251.417969 L 104.320312 315.359375 L 51.585938 315.359375 Z M 51.585938 251.417969 "/></clipPath><clipPath id="fa97f21a39"><path d="M 99.191406 313.496094 C 94.796875 304.761719 92.800781 301.519531 90.40625 298.625 C 87.710938 295.328125 84.066406 292.632812 80.671875 289.039062 C 76.679688 284.75 72.039062 278.910156 68.09375 274.515625 C 64.703125 270.824219 61.207031 267.828125 58.414062 264.386719 C 55.867188 261.191406 52.375 256.597656 51.875 254.652344 C 51.722656 253.953125 51.824219 253.554688 52.074219 253.105469 C 52.273438 252.605469 52.722656 252.15625 53.121094 251.90625 C 53.570312 251.707031 54.21875 251.558594 54.71875 251.65625 C 55.21875 251.757812 55.765625 252.058594 56.117188 252.40625 C 56.464844 252.753906 56.765625 253.304688 56.816406 253.855469 C 56.816406 254.503906 56.464844 255.550781 55.917969 256 C 55.417969 256.449219 54.320312 256.648438 53.671875 256.546875 C 53.121094 256.449219 52.621094 256.050781 52.324219 255.652344 C 52.023438 255.25 51.773438 254.652344 51.824219 254.152344 C 51.875 253.503906 52.421875 252.457031 52.921875 252.058594 C 53.320312 251.707031 53.921875 251.609375 54.46875 251.65625 C 54.96875 251.65625 55.316406 251.757812 55.917969 252.207031 C 57.664062 253.554688 60.808594 259.34375 63.804688 262.9375 C 67.195312 267.03125 71.9375 271.324219 75.480469 275.316406 C 78.625 278.808594 81.070312 282.253906 84.117188 285.496094 C 87.160156 288.742188 90.953125 291.636719 93.648438 294.878906 C 96.144531 297.824219 98.242188 301.117188 99.988281 304.015625 C 101.484375 306.460938 103.183594 309.304688 103.730469 311.101562 C 104.03125 312.050781 104.230469 312.847656 104.03125 313.496094 C 103.929688 314.097656 103.53125 314.644531 103.03125 314.945312 C 102.484375 315.292969 101.386719 315.492188 100.738281 315.242188 C 100.089844 314.996094 99.191406 313.496094 99.191406 313.496094 "/></clipPath><clipPath id="7718fde172"><path d="M 39.183594 188.355469 L 108.761719 188.355469 L 108.761719 256.8125 L 39.183594 256.8125 Z M 39.183594 188.355469 "/></clipPath><clipPath id="42387568d7"><path d="M 52.125 255.351562 C 43.238281 240.726562 42.691406 239.828125 42.042969 238.082031 C 41.242188 235.785156 40.496094 232.792969 40.046875 229.847656 C 39.546875 226.453125 39.347656 221.960938 39.496094 218.867188 C 39.597656 216.621094 39.695312 215.171875 40.34375 212.976562 C 41.292969 210.082031 43.6875 205.738281 45.285156 203.09375 C 46.433594 201.148438 47.433594 199.75 48.679688 198.304688 C 49.929688 196.957031 51.273438 195.757812 52.773438 194.757812 C 54.320312 193.710938 55.96875 192.960938 57.914062 192.214844 C 60.210938 191.367188 63.105469 190.617188 65.75 190.066406 C 68.34375 189.519531 71.140625 189.070312 73.585938 188.820312 C 75.730469 188.621094 77.378906 188.269531 79.574219 188.671875 C 82.46875 189.21875 86.164062 191.117188 89.308594 192.761719 C 92.453125 194.460938 95.644531 196.707031 98.390625 198.753906 C 100.738281 200.550781 103.082031 202.394531 104.78125 204.191406 C 106.175781 205.640625 107.625 207.4375 108.171875 208.535156 C 108.421875 209.183594 108.574219 209.582031 108.523438 210.082031 C 108.421875 210.632812 108.171875 211.179688 107.824219 211.578125 C 107.476562 211.929688 106.925781 212.226562 106.425781 212.328125 C 105.925781 212.378906 105.277344 212.277344 104.878906 212.027344 C 104.429688 211.828125 103.929688 211.378906 103.78125 210.878906 C 103.53125 210.28125 103.582031 209.132812 103.882812 208.585938 C 104.128906 208.085938 104.578125 207.6875 105.078125 207.535156 C 105.726562 207.335938 106.824219 207.4375 107.425781 207.785156 C 107.875 208.035156 108.222656 208.585938 108.375 209.035156 C 108.523438 209.53125 108.523438 210.132812 108.375 210.632812 C 108.222656 211.128906 107.875 211.628906 107.425781 211.929688 C 106.875 212.226562 105.976562 212.476562 105.078125 212.179688 C 103.433594 211.53125 101.035156 207.4375 99.140625 205.691406 C 97.59375 204.292969 96.445312 203.492188 94.699219 202.246094 C 92.203125 200.5 88.410156 197.953125 85.464844 196.457031 C 82.917969 195.160156 80.375 193.960938 78.128906 193.613281 C 76.332031 193.3125 75.132812 193.5625 73.136719 193.8125 C 70.140625 194.160156 64.949219 195.160156 62.007812 196.105469 C 59.910156 196.707031 58.214844 197.453125 56.816406 198.203125 C 55.765625 198.800781 55.167969 199.300781 54.269531 200.050781 C 53.070312 201.046875 51.722656 202.296875 50.625 203.84375 C 49.179688 205.691406 47.730469 208.585938 46.734375 210.78125 C 45.886719 212.527344 45.085938 214.375 44.738281 215.820312 C 44.488281 216.820312 44.539062 217.269531 44.488281 218.46875 C 44.4375 220.863281 44.488281 225.953125 44.988281 229.296875 C 45.4375 232.191406 45.835938 234.238281 47.082031 237.285156 C 49.03125 241.824219 56.117188 250.710938 56.714844 253.453125 C 56.914062 254.304688 56.816406 254.703125 56.566406 255.203125 C 56.316406 255.699219 55.765625 256.199219 55.269531 256.449219 C 54.769531 256.648438 54.019531 256.648438 53.519531 256.5 C 52.972656 256.300781 52.125 255.351562 52.125 255.351562 "/></clipPath><clipPath id="bb08e64edd"><path d="M 103.015625 188.382812 L 175.230469 188.382812 L 175.230469 253.621094 L 103.015625 253.621094 Z M 103.015625 188.382812 "/></clipPath><clipPath id="2c6c09f75c"><path d="M 103.382812 207.835938 C 108.222656 200.648438 109.171875 199.75 110.769531 198.503906 C 113.015625 196.757812 116.757812 194.160156 119.703125 192.714844 C 122.25 191.464844 124.945312 190.617188 127.289062 189.96875 C 129.234375 189.46875 130.484375 189.269531 132.730469 189.019531 C 136.324219 188.671875 142.910156 188.269531 146.953125 188.769531 C 150.046875 189.121094 152.742188 190.019531 155.039062 190.917969 C 156.886719 191.664062 158.285156 192.511719 159.730469 193.5625 C 161.226562 194.609375 162.527344 195.65625 163.921875 197.207031 C 165.871094 199.351562 168.265625 202.496094 169.863281 205.492188 C 171.460938 208.484375 172.65625 212.527344 173.40625 215.222656 C 173.957031 217.167969 174.105469 218.167969 174.40625 220.265625 C 174.804688 223.558594 175.351562 229.546875 175.152344 233.339844 C 174.953125 236.335938 174.453125 238.480469 173.65625 241.277344 C 172.65625 244.769531 170.5625 250.910156 169.265625 252.507812 C 168.816406 253.105469 168.464844 253.304688 167.964844 253.40625 C 167.46875 253.554688 166.867188 253.554688 166.371094 253.355469 C 165.921875 253.203125 165.421875 252.753906 165.171875 252.355469 C 164.871094 251.90625 164.671875 251.308594 164.773438 250.808594 C 164.921875 250.160156 165.472656 249.160156 166.070312 248.863281 C 166.667969 248.511719 167.816406 248.5625 168.414062 248.8125 C 168.914062 249.011719 169.3125 249.460938 169.515625 249.960938 C 169.761719 250.558594 169.714844 251.707031 169.414062 252.304688 C 169.214844 252.753906 168.714844 253.15625 168.214844 253.355469 C 167.765625 253.554688 167.117188 253.554688 166.617188 253.453125 C 166.167969 253.304688 165.621094 252.957031 165.320312 252.554688 C 164.972656 252.15625 164.773438 251.808594 164.773438 251.058594 C 164.773438 248.914062 168.664062 241.078125 169.414062 238.332031 C 169.761719 237.082031 169.8125 236.785156 169.960938 235.535156 C 170.164062 233.089844 170.261719 228.101562 169.960938 224.753906 C 169.761719 221.859375 169.3125 219.316406 168.617188 216.621094 C 167.964844 213.925781 167.167969 211.128906 165.96875 208.683594 C 164.820312 206.339844 163.125 204.09375 161.628906 202.296875 C 160.378906 200.75 159.230469 199.402344 157.785156 198.253906 C 156.386719 197.15625 154.789062 196.308594 153.191406 195.609375 C 151.597656 194.859375 150.347656 194.359375 148.203125 194.011719 C 144.410156 193.410156 136.324219 193.5625 132.03125 194.109375 C 129.035156 194.511719 127.089844 194.960938 124.542969 196.007812 C 121.597656 197.207031 117.90625 199.601562 115.558594 201.246094 C 113.863281 202.394531 112.714844 203.144531 111.417969 204.542969 C 109.96875 206.1875 108.421875 209.632812 107.476562 210.632812 C 107.074219 211.03125 106.875 211.179688 106.527344 211.328125 C 106.128906 211.429688 105.726562 211.53125 105.328125 211.480469 C 104.828125 211.378906 104.128906 211.03125 103.730469 210.632812 C 103.382812 210.230469 103.132812 209.484375 103.132812 208.984375 C 103.082031 208.585938 103.382812 207.835938 103.382812 207.835938 "/></clipPath><clipPath id="38b1d06639"><path d="M 99.429688 248.453125 L 170 248.453125 L 170 315.632812 L 99.429688 315.632812 Z M 99.429688 248.453125 "/></clipPath><clipPath id="5b13cbffbf"><path d="M 100.4375 310.902344 C 123.097656 291.6875 124.945312 290.789062 128.136719 288.34375 C 132.828125 284.796875 140.316406 279.007812 144.957031 274.667969 C 148.652344 271.222656 151.695312 267.777344 154.289062 264.785156 C 156.386719 262.4375 157.785156 260.640625 159.582031 258.246094 C 161.578125 255.550781 163.972656 250.558594 165.71875 249.261719 C 166.519531 248.664062 167.316406 248.511719 167.917969 248.5625 C 168.464844 248.613281 169.015625 248.914062 169.3125 249.363281 C 169.714844 249.859375 170.011719 250.957031 169.914062 251.609375 C 169.8125 252.15625 169.515625 252.65625 169.066406 252.957031 C 168.515625 253.304688 167.367188 253.554688 166.769531 253.40625 C 166.21875 253.304688 165.769531 252.90625 165.472656 252.507812 C 165.171875 252.058594 164.921875 251.507812 164.972656 250.957031 C 165.070312 250.308594 165.621094 249.3125 166.121094 248.914062 C 166.570312 248.613281 167.167969 248.511719 167.667969 248.511719 C 168.167969 248.5625 168.765625 248.8125 169.113281 249.160156 C 169.515625 249.511719 169.8125 250.058594 169.914062 250.558594 C 170.011719 251.007812 170.011719 251.359375 169.714844 252.105469 C 168.714844 254.652344 162.476562 262.789062 158.632812 267.378906 C 155.140625 271.621094 151.945312 275.015625 147.753906 278.859375 C 142.8125 283.402344 135.074219 289.390625 130.632812 292.734375 C 127.886719 294.78125 126.589844 295.230469 123.796875 297.425781 C 118.753906 301.269531 107.027344 313.199219 103.480469 314.84375 C 102.433594 315.34375 101.835938 315.445312 101.234375 315.292969 C 100.636719 315.144531 100.089844 314.644531 99.839844 314.195312 C 99.539062 313.695312 99.390625 312.996094 99.488281 312.449219 C 99.589844 311.898438 100.4375 310.902344 100.4375 310.902344 "/></clipPath><clipPath id="2a00593731"><path d="M 210.265625 251.417969 L 263 251.417969 L 263 315.359375 L 210.265625 315.359375 Z M 210.265625 251.417969 "/></clipPath><clipPath id="b2daba6bfc"><path d="M 257.871094 313.496094 C 253.476562 304.761719 251.480469 301.519531 249.085938 298.625 C 246.390625 295.328125 242.746094 292.632812 239.351562 289.039062 C 235.359375 284.75 230.71875 278.910156 226.777344 274.515625 C 223.382812 270.824219 219.886719 267.828125 217.09375 264.386719 C 214.546875 261.191406 211.054688 256.597656 210.554688 254.652344 C 210.40625 253.953125 210.503906 253.554688 210.753906 253.105469 C 210.953125 252.605469 211.402344 252.15625 211.800781 251.90625 C 212.25 251.707031 212.902344 251.558594 213.398438 251.65625 C 213.898438 251.757812 214.449219 252.058594 214.796875 252.40625 C 215.144531 252.753906 215.445312 253.304688 215.496094 253.855469 C 215.496094 254.503906 215.144531 255.550781 214.597656 256 C 214.097656 256.449219 213 256.648438 212.351562 256.546875 C 211.800781 256.449219 211.304688 256.050781 211.003906 255.652344 C 210.703125 255.25 210.453125 254.652344 210.503906 254.152344 C 210.554688 253.503906 211.105469 252.457031 211.601562 252.058594 C 212.003906 251.707031 212.601562 251.609375 213.148438 251.65625 C 213.648438 251.65625 214 251.757812 214.597656 252.207031 C 216.34375 253.554688 219.488281 259.34375 222.484375 262.9375 C 225.878906 267.03125 230.617188 271.324219 234.164062 275.316406 C 237.308594 278.808594 239.753906 282.253906 242.796875 285.496094 C 245.839844 288.742188 249.632812 291.636719 252.328125 294.878906 C 254.824219 297.824219 256.921875 301.117188 258.667969 304.015625 C 260.164062 306.460938 261.863281 309.304688 262.410156 311.101562 C 262.710938 312.050781 262.910156 312.847656 262.710938 313.496094 C 262.613281 314.097656 262.210938 314.644531 261.714844 314.945312 C 261.164062 315.292969 260.066406 315.492188 259.417969 315.242188 C 258.769531 314.996094 257.871094 313.496094 257.871094 313.496094 "/></clipPath><clipPath id="8dfbcf9af6"><path d="M 198 188.355469 L 267.441406 188.355469 L 267.441406 256.8125 L 198 256.8125 Z M 198 188.355469 "/></clipPath><clipPath id="9226009f52"><path d="M 210.804688 255.351562 C 201.921875 240.726562 201.371094 239.828125 200.722656 238.082031 C 199.921875 235.785156 199.175781 232.792969 198.726562 229.847656 C 198.226562 226.453125 198.027344 221.960938 198.175781 218.867188 C 198.277344 216.621094 198.375 215.171875 199.023438 212.976562 C 199.972656 210.082031 202.371094 205.738281 203.964844 203.09375 C 205.113281 201.148438 206.113281 199.75 207.359375 198.304688 C 208.609375 196.957031 209.957031 195.757812 211.453125 194.757812 C 213 193.710938 214.648438 192.960938 216.59375 192.214844 C 218.890625 191.367188 221.785156 190.617188 224.429688 190.066406 C 227.023438 189.519531 229.820312 189.070312 232.265625 188.820312 C 234.410156 188.621094 236.058594 188.269531 238.253906 188.671875 C 241.148438 189.21875 244.84375 191.117188 247.988281 192.761719 C 251.132812 194.460938 254.328125 196.707031 257.070312 198.753906 C 259.417969 200.550781 261.761719 202.394531 263.460938 204.191406 C 264.855469 205.640625 266.304688 207.4375 266.855469 208.535156 C 267.101562 209.183594 267.253906 209.582031 267.203125 210.082031 C 267.101562 210.632812 266.855469 211.179688 266.503906 211.578125 C 266.15625 211.929688 265.605469 212.226562 265.105469 212.328125 C 264.609375 212.378906 263.960938 212.277344 263.558594 212.027344 C 263.109375 211.828125 262.613281 211.378906 262.460938 210.878906 C 262.210938 210.28125 262.261719 209.132812 262.5625 208.585938 C 262.8125 208.085938 263.261719 207.6875 263.757812 207.535156 C 264.410156 207.335938 265.507812 207.4375 266.105469 207.785156 C 266.554688 208.035156 266.902344 208.585938 267.054688 209.035156 C 267.203125 209.53125 267.203125 210.132812 267.054688 210.632812 C 266.902344 211.128906 266.554688 211.628906 266.105469 211.929688 C 265.554688 212.226562 264.65625 212.476562 263.757812 212.179688 C 262.113281 211.53125 259.714844 207.4375 257.820312 205.691406 C 256.273438 204.292969 255.125 203.492188 253.378906 202.246094 C 250.882812 200.5 247.089844 197.953125 244.144531 196.457031 C 241.597656 195.160156 239.054688 193.960938 236.808594 193.613281 C 235.011719 193.3125 233.8125 193.5625 231.816406 193.8125 C 228.820312 194.160156 223.632812 195.160156 220.6875 196.105469 C 218.589844 196.707031 216.894531 197.453125 215.496094 198.203125 C 214.449219 198.800781 213.847656 199.300781 212.949219 200.050781 C 211.753906 201.046875 210.40625 202.296875 209.308594 203.84375 C 207.859375 205.691406 206.410156 208.585938 205.414062 210.78125 C 204.566406 212.527344 203.765625 214.375 203.417969 215.820312 C 203.167969 216.820312 203.21875 217.269531 203.167969 218.46875 C 203.117188 220.863281 203.167969 225.953125 203.667969 229.296875 C 204.117188 232.191406 204.515625 234.238281 205.761719 237.285156 C 207.710938 241.824219 214.796875 250.710938 215.394531 253.453125 C 215.59375 254.304688 215.496094 254.703125 215.246094 255.203125 C 214.996094 255.699219 214.449219 256.199219 213.949219 256.449219 C 213.449219 256.648438 212.699219 256.648438 212.203125 256.5 C 211.652344 256.300781 210.804688 255.351562 210.804688 255.351562 "/></clipPath><clipPath id="9ca24234a9"><path d="M 261.695312 188.382812 L 333.914062 188.382812 L 333.914062 253.621094 L 261.695312 253.621094 Z M 261.695312 188.382812 "/></clipPath><clipPath id="6bd699cbc6"><path d="M 262.0625 207.835938 C 266.902344 200.648438 267.851562 199.75 269.449219 198.503906 C 271.695312 196.757812 275.4375 194.160156 278.382812 192.714844 C 280.929688 191.464844 283.625 190.617188 285.96875 189.96875 C 287.917969 189.46875 289.164062 189.269531 291.410156 189.019531 C 295.003906 188.671875 301.589844 188.269531 305.632812 188.769531 C 308.730469 189.121094 311.425781 190.019531 313.71875 190.917969 C 315.566406 191.664062 316.964844 192.511719 318.410156 193.5625 C 319.910156 194.609375 321.207031 195.65625 322.605469 197.207031 C 324.550781 199.351562 326.945312 202.496094 328.542969 205.492188 C 330.140625 208.484375 331.339844 212.527344 332.085938 215.222656 C 332.636719 217.167969 332.785156 218.167969 333.085938 220.265625 C 333.484375 223.558594 334.035156 229.546875 333.832031 233.339844 C 333.632812 236.335938 333.136719 238.480469 332.335938 241.277344 C 331.339844 244.769531 329.242188 250.910156 327.945312 252.507812 C 327.496094 253.105469 327.144531 253.304688 326.648438 253.40625 C 326.148438 253.554688 325.546875 253.554688 325.050781 253.355469 C 324.601562 253.203125 324.101562 252.753906 323.851562 252.355469 C 323.550781 251.90625 323.351562 251.308594 323.453125 250.808594 C 323.601562 250.160156 324.152344 249.160156 324.75 248.863281 C 325.347656 248.511719 326.496094 248.5625 327.097656 248.8125 C 327.59375 249.011719 327.996094 249.460938 328.195312 249.960938 C 328.445312 250.558594 328.394531 251.707031 328.09375 252.304688 C 327.894531 252.753906 327.394531 253.15625 326.894531 253.355469 C 326.445312 253.554688 325.796875 253.554688 325.300781 253.453125 C 324.851562 253.304688 324.300781 252.957031 324 252.554688 C 323.652344 252.15625 323.453125 251.808594 323.453125 251.058594 C 323.453125 248.914062 327.34375 241.078125 328.09375 238.332031 C 328.445312 237.082031 328.492188 236.785156 328.644531 235.535156 C 328.84375 233.089844 328.941406 228.101562 328.644531 224.753906 C 328.445312 221.859375 327.996094 219.316406 327.296875 216.621094 C 326.648438 213.925781 325.847656 211.128906 324.648438 208.683594 C 323.503906 206.339844 321.804688 204.09375 320.308594 202.296875 C 319.058594 200.75 317.914062 199.402344 316.464844 198.253906 C 315.066406 197.15625 313.46875 196.308594 311.875 195.609375 C 310.277344 194.859375 309.027344 194.359375 306.882812 194.011719 C 303.089844 193.410156 295.003906 193.5625 290.710938 194.109375 C 287.714844 194.511719 285.769531 194.960938 283.222656 196.007812 C 280.28125 197.207031 276.585938 199.601562 274.242188 201.246094 C 272.542969 202.394531 271.394531 203.144531 270.097656 204.542969 C 268.652344 206.1875 267.101562 209.632812 266.15625 210.632812 C 265.753906 211.03125 265.554688 211.179688 265.207031 211.328125 C 264.808594 211.429688 264.410156 211.53125 264.007812 211.480469 C 263.511719 211.378906 262.8125 211.03125 262.410156 210.632812 C 262.0625 210.230469 261.8125 209.484375 261.8125 208.984375 C 261.761719 208.585938 262.0625 207.835938 262.0625 207.835938 "/></clipPath><clipPath id="32b99e2261"><path d="M 258.109375 248.453125 L 328.882812 248.453125 L 328.882812 315.632812 L 258.109375 315.632812 Z M 258.109375 248.453125 "/></clipPath><clipPath id="ef19620075"><path d="M 259.117188 310.902344 C 281.777344 291.6875 283.625 290.789062 286.816406 288.34375 C 291.507812 284.796875 298.996094 279.007812 303.636719 274.667969 C 307.332031 271.222656 310.375 267.777344 312.972656 264.785156 C 315.066406 262.4375 316.464844 260.640625 318.261719 258.246094 C 320.257812 255.550781 322.652344 250.558594 324.402344 249.261719 C 325.199219 248.664062 325.996094 248.511719 326.597656 248.5625 C 327.144531 248.613281 327.695312 248.914062 327.996094 249.363281 C 328.394531 249.859375 328.691406 250.957031 328.59375 251.609375 C 328.492188 252.15625 328.195312 252.65625 327.746094 252.957031 C 327.195312 253.304688 326.046875 253.554688 325.449219 253.40625 C 324.898438 253.304688 324.449219 252.90625 324.152344 252.507812 C 323.851562 252.058594 323.601562 251.507812 323.652344 250.957031 C 323.753906 250.308594 324.300781 249.3125 324.800781 248.914062 C 325.25 248.613281 325.847656 248.511719 326.347656 248.511719 C 326.847656 248.5625 327.445312 248.8125 327.792969 249.160156 C 328.195312 249.511719 328.492188 250.058594 328.59375 250.558594 C 328.691406 251.007812 328.691406 251.359375 328.394531 252.105469 C 327.394531 254.652344 321.15625 262.789062 317.3125 267.378906 C 313.820312 271.621094 310.625 275.015625 306.433594 278.859375 C 301.492188 283.402344 293.753906 289.390625 289.3125 292.734375 C 286.570312 294.78125 285.269531 295.230469 282.476562 297.425781 C 277.433594 301.269531 265.707031 313.199219 262.164062 314.84375 C 261.113281 315.34375 260.515625 315.445312 259.917969 315.292969 C 259.316406 315.144531 258.769531 314.644531 258.519531 314.195312 C 258.21875 313.695312 258.070312 312.996094 258.167969 312.449219 C 258.269531 311.898438 259.117188 310.902344 259.117188 310.902344 "/></clipPath></defs><g id="e14d92294a"><g clip-rule="nonzero" clip-path="url(#760206a03d)"><g clip-rule="nonzero" clip-path="url(#3e66fa8438)"><path style=" stroke:none;fill-rule:nonzero;fill:currentColor;fill-opacity:1;" d="M 127.976562 120.695312 L 184.222656 120.695312 L 184.222656 188.371094 L 127.976562 188.371094 Z M 127.976562 120.695312 "/></g></g><g clip-rule="nonzero" clip-path="url(#a55ebaefd4)"><g clip-rule="nonzero" clip-path="url(#b65d616145)"><path style=" stroke:none;fill-rule:nonzero;fill:currentColor;fill-opacity:1;" d="M 115.648438 57.710938 L 188.589844 57.710938 L 188.589844 129.53125 L 115.648438 129.53125 Z M 115.648438 57.710938 "/></g></g><g clip-rule="nonzero" clip-path="url(#c50b1d67d1)"><g clip-rule="nonzero" clip-path="url(#f47adb1f4f)"><path style=" stroke:none;fill-rule:nonzero;fill:currentColor;fill-opacity:1;" d="M 179.285156 57.808594 L 255.257812 57.808594 L 255.257812 126.535156 L 179.285156 126.535156 Z M 179.285156 57.808594 "/></g></g><g clip-rule="nonzero" clip-path="url(#f715d935dd)"><g clip-rule="nonzero" clip-path="url(#8967e2606a)"><path style=" stroke:none;fill-rule:nonzero;fill:currentColor;fill-opacity:1;" d="M 175.640625 117.554688 L 250.007812 117.554688 L 250.007812 188.324219 L 175.640625 188.324219 Z M 175.640625 117.554688 "/></g></g><g clip-rule="nonzero" clip-path="url(#9d89dc6fc3)"><g clip-rule="nonzero" clip-path="url(#fa97f21a39)"><path style=" stroke:none;fill-rule:nonzero;fill:currentColor;fill-opacity:1;" d="M 49.828125 249.660156 L 106.078125 249.660156 L 106.078125 317.335938 L 49.828125 317.335938 Z M 49.828125 249.660156 "/></g></g><g clip-rule="nonzero" clip-path="url(#7718fde172)"><g clip-rule="nonzero" clip-path="url(#42387568d7)"><path style=" stroke:none;fill-rule:nonzero;fill:currentColor;fill-opacity:1;" d="M 37.5 186.675781 L 110.445312 186.675781 L 110.445312 258.496094 L 37.5 258.496094 Z M 37.5 186.675781 "/></g></g><g clip-rule="nonzero" clip-path="url(#bb08e64edd)"><g clip-rule="nonzero" clip-path="url(#2c6c09f75c)"><path style=" stroke:none;fill-rule:nonzero;fill:currentColor;fill-opacity:1;" d="M 101.136719 186.773438 L 177.113281 186.773438 L 177.113281 255.5 L 101.136719 255.5 Z M 101.136719 186.773438 "/></g></g><g clip-rule="nonzero" clip-path="url(#38b1d06639)"><g clip-rule="nonzero" clip-path="url(#5b13cbffbf)"><path style=" stroke:none;fill-rule:nonzero;fill:currentColor;fill-opacity:1;" d="M 97.492188 246.515625 L 171.859375 246.515625 L 171.859375 317.289062 L 97.492188 317.289062 Z M 97.492188 246.515625 "/></g></g><g clip-rule="nonzero" clip-path="url(#2a00593731)"><g clip-rule="nonzero" clip-path="url(#b2daba6bfc)"><path style=" stroke:none;fill-rule:nonzero;fill:currentColor;fill-opacity:1;" d="M 208.507812 249.660156 L 264.757812 249.660156 L 264.757812 317.335938 L 208.507812 317.335938 Z M 208.507812 249.660156 "/></g></g><g clip-rule="nonzero" clip-path="url(#8dfbcf9af6)"><g clip-rule="nonzero" clip-path="url(#9226009f52)"><path style=" stroke:none;fill-rule:nonzero;fill:currentColor;fill-opacity:1;" d="M 196.179688 186.675781 L 269.125 186.675781 L 269.125 258.496094 L 196.179688 258.496094 Z M 196.179688 186.675781 "/></g></g><g clip-rule="nonzero" clip-path="url(#9ca24234a9)"><g clip-rule="nonzero" clip-path="url(#6bd699cbc6)"><path style=" stroke:none;fill-rule:nonzero;fill:currentColor;fill-opacity:1;" d="M 259.816406 186.773438 L 335.792969 186.773438 L 335.792969 255.5 L 259.816406 255.5 Z M 259.816406 186.773438 "/></g></g><g clip-rule="nonzero" clip-path="url(#32b99e2261)"><g clip-rule="nonzero" clip-path="url(#ef19620075)"><path style=" stroke:none;fill-rule:nonzero;fill:currentColor;fill-opacity:1;" d="M 256.171875 246.515625 L 330.539062 246.515625 L 330.539062 317.289062 L 256.171875 317.289062 Z M 256.171875 246.515625 "/></g></g></g></svg>