<svg xmlns="http://www.w3.org/2000/svg" xmlns:xlink="http://www.w3.org/1999/xlink" width="500" zoomAndPan="magnify" viewBox="0 0 375 374.999991" height="500" preserveAspectRatio="xMidYMid meet" version="1.2"><defs><clipPath id="41ec99eae7"><path d="M 81.433594 283.75 L 121.261719 283.75 L 121.261719 325.910156 L 81.433594 325.910156 Z M 81.433594 283.75 "/></clipPath><clipPath id="b10506011f"><path d="M 81.488281 322.023438 C 82.03125 307.980469 83.425781 302.394531 84.359375 299.601562 C 84.902344 297.972656 85.132812 297.273438 85.988281 295.957031 C 87.152344 294.09375 89.246094 291.535156 91.261719 289.828125 C 93.355469 288.042969 96.226562 286.414062 98.398438 285.558594 C 100.027344 284.941406 100.960938 284.863281 102.898438 284.628906 C 106.546875 284.242188 115.855469 283.386719 118.570312 284.320312 C 119.578125 284.628906 120.042969 285.171875 120.511719 285.792969 C 120.976562 286.414062 121.285156 287.34375 121.207031 288.199219 C 121.054688 289.207031 120.121094 290.679688 119.269531 291.300781 C 118.648438 291.765625 117.71875 292 116.863281 291.84375 C 115.933594 291.613281 114.457031 290.601562 113.914062 289.75 C 113.449219 289.050781 113.371094 288.121094 113.449219 287.34375 C 113.605469 286.570312 113.992188 285.636719 114.613281 285.171875 C 115.390625 284.550781 117.175781 284.007812 118.105469 284.164062 C 118.957031 284.320312 119.734375 284.863281 120.277344 285.484375 C 120.742188 286.027344 121.128906 286.957031 121.207031 287.734375 C 121.207031 288.507812 120.976562 289.515625 120.511719 290.136719 C 120.042969 290.757812 119.578125 291.222656 118.570312 291.613281 C 115.855469 292.621094 106.15625 291.6875 102.667969 292.464844 C 100.804688 292.851562 99.796875 293.242188 98.554688 294.015625 C 97.3125 294.714844 96.226562 295.800781 95.21875 296.808594 C 94.210938 297.816406 93.28125 298.902344 92.582031 300.066406 C 91.960938 301.230469 91.652344 302.316406 91.261719 303.792969 C 90.5625 305.886719 89.789062 308.757812 89.402344 311.703125 C 88.859375 315.273438 89.632812 321.789062 88.78125 323.808594 C 88.46875 324.582031 88.082031 324.894531 87.539062 325.203125 C 86.917969 325.589844 85.753906 325.980469 84.902344 325.824219 C 84.046875 325.746094 83.039062 325.203125 82.417969 324.582031 C 81.875 323.960938 81.488281 322.023438 81.488281 322.023438 "/></clipPath><clipPath id="2481eac7b6"><path d="M 113.390625 282.351562 L 222.480469 282.351562 L 222.480469 292.042969 L 113.390625 292.042969 Z M 113.390625 282.351562 "/></clipPath><clipPath id="9412f24d66"><path d="M 117.328125 284.085938 C 180.089844 281.992188 204.683594 282.300781 213.371094 282.691406 C 216.554688 282.84375 218.335938 282.613281 219.8125 283.15625 C 220.664062 283.542969 221.285156 284.007812 221.75 284.628906 C 222.21875 285.328125 222.527344 286.257812 222.449219 287.035156 C 222.449219 287.808594 222.0625 288.742188 221.597656 289.363281 C 221.054688 289.984375 220.277344 290.527344 219.5 290.679688 C 218.492188 290.757812 216.707031 290.449219 215.933594 289.75 C 215.15625 288.972656 214.691406 287.265625 214.769531 286.257812 C 214.847656 285.484375 215.3125 284.628906 215.855469 284.085938 C 216.476562 283.542969 217.328125 283.078125 218.105469 283 C 219.113281 283 220.820312 283.621094 221.519531 284.320312 C 222.140625 284.941406 222.371094 285.871094 222.449219 286.648438 C 222.527344 287.421875 222.371094 288.351562 221.828125 288.972656 C 221.207031 289.828125 220.433594 290.292969 218.648438 290.757812 C 211.433594 292.542969 179.394531 289.671875 161.550781 289.984375 C 145.878906 290.136719 122.992188 292.773438 117.328125 291.84375 C 115.855469 291.613281 115.390625 291.535156 114.769531 290.835938 C 113.992188 290.136719 113.371094 288.507812 113.449219 287.5 C 113.527344 286.570312 114.070312 285.636719 114.769531 285.09375 C 115.390625 284.472656 117.328125 284.085938 117.328125 284.085938 "/></clipPath><clipPath id="02aa5e863b"><path d="M 209.140625 283 L 291.246094 283 L 291.246094 326.371094 L 209.140625 326.371094 Z M 209.140625 283 "/></clipPath><clipPath id="684c77cd16"><path d="M 213.21875 283 C 271.246094 285.328125 271.710938 285.25 273.339844 285.636719 C 275.667969 286.179688 279.316406 286.957031 281.71875 288.664062 C 284.203125 290.371094 286.609375 293.164062 288.003906 295.878906 C 289.402344 298.359375 289.945312 300.6875 290.410156 304.023438 C 291.105469 309.066406 291.804688 320.316406 290.410156 323.652344 C 289.789062 325.046875 288.703125 325.824219 287.773438 326.132812 C 286.996094 326.445312 286.066406 326.289062 285.289062 325.980469 C 284.589844 325.746094 283.816406 325.046875 283.425781 324.429688 C 283.039062 323.730469 282.730469 322.796875 282.882812 322.023438 C 283.039062 321.015625 284.046875 319.539062 284.902344 318.996094 C 285.597656 318.53125 286.609375 318.453125 287.382812 318.609375 C 288.160156 318.6875 289.011719 319.074219 289.554688 319.773438 C 290.175781 320.550781 290.640625 322.253906 290.488281 323.265625 C 290.410156 324.039062 289.867188 324.894531 289.246094 325.359375 C 288.625 325.902344 287.695312 326.210938 286.917969 326.289062 C 286.140625 326.289062 285.210938 326.058594 284.589844 325.589844 C 283.890625 325.203125 283.425781 324.738281 283.039062 323.652344 C 281.875 320.394531 284.046875 306.972656 282.261719 301.929688 C 281.101562 298.671875 278.773438 296.265625 276.910156 294.871094 C 275.667969 293.9375 274.582031 293.785156 273.03125 293.394531 C 270.859375 292.929688 268.84375 292.851562 264.964844 292.621094 C 255.109375 291.921875 218.261719 292.621094 212.285156 290.601562 C 210.890625 290.214844 210.503906 289.75 210.035156 289.050781 C 209.492188 288.351562 209.261719 287.265625 209.339844 286.414062 C 209.417969 285.558594 209.960938 284.550781 210.65625 283.929688 C 211.277344 283.386719 213.21875 283 213.21875 283 "/></clipPath><clipPath id="865a0d16b3"><path d="M 81.101562 318.050781 L 177.386719 318.050781 L 177.386719 327.554688 L 81.101562 327.554688 Z M 81.101562 318.050781 "/></clipPath><clipPath id="7b32288c8a"><path d="M 85.054688 318.066406 C 136.179688 319.386719 167.136719 318.066406 173.496094 319.230469 C 174.972656 319.539062 175.4375 319.617188 176.058594 320.238281 C 176.753906 320.9375 177.375 322.566406 177.375 323.574219 C 177.296875 324.503906 176.675781 325.4375 176.058594 325.980469 C 175.4375 326.601562 173.496094 326.910156 173.496094 326.988281 C 173.496094 327.066406 175.203125 326.675781 175.203125 326.601562 C 175.203125 326.445312 172.488281 326.910156 171.558594 326.445312 C 170.78125 326.132812 170.238281 325.359375 169.929688 324.582031 C 169.617188 323.886719 169.539062 322.875 169.773438 322.179688 C 169.929688 321.402344 170.472656 320.550781 171.09375 320.082031 C 171.710938 319.617188 172.644531 319.230469 173.417969 319.230469 C 174.195312 319.230469 175.125 319.460938 175.824219 320.003906 C 176.523438 320.625 177.375 322.179688 177.375 323.265625 C 177.296875 324.351562 176.367188 325.824219 175.515625 326.367188 C 174.894531 326.910156 173.886719 327.066406 173.109375 326.988281 C 172.332031 326.910156 171.480469 326.523438 170.859375 325.980469 C 170.316406 325.4375 169.851562 324.582031 169.695312 323.808594 C 169.539062 323.03125 169.539062 322.023438 170.003906 321.324219 C 170.625 320.472656 172.410156 319.308594 173.496094 319.230469 C 174.351562 319.152344 175.4375 319.617188 176.058594 320.238281 C 176.675781 320.78125 177.296875 321.789062 177.375 322.644531 C 177.375 323.652344 176.753906 325.28125 176.058594 325.980469 C 175.4375 326.675781 174.972656 326.753906 173.496094 326.988281 C 167.136719 328.152344 136.105469 327.144531 120.121094 326.910156 C 107.242188 326.675781 90.019531 326.753906 85.054688 325.824219 C 83.660156 325.515625 83.117188 325.359375 82.496094 324.816406 C 81.796875 324.273438 81.253906 323.265625 81.175781 322.410156 C 81.101562 321.558594 81.253906 320.394531 81.875 319.695312 C 82.496094 318.917969 85.054688 318.066406 85.054688 318.066406 "/></clipPath><clipPath id="56868f36f8"><path d="M 169.566406 319.078125 L 245.984375 319.078125 L 245.984375 328.171875 L 169.566406 328.171875 Z M 169.566406 319.078125 "/></clipPath><clipPath id="4abb8885ce"><path d="M 173.496094 319.230469 C 243.9375 319.539062 244.636719 319.929688 245.335938 320.78125 C 245.800781 321.402344 246.035156 322.332031 245.957031 323.109375 C 245.957031 323.886719 245.644531 324.816406 245.023438 325.4375 C 244.328125 326.132812 242.699219 326.832031 241.6875 326.753906 C 240.835938 326.753906 239.984375 326.289062 239.441406 325.746094 C 238.820312 325.203125 238.351562 324.351562 238.277344 323.574219 C 238.199219 322.566406 238.664062 320.859375 239.441406 320.082031 C 240.214844 319.386719 241.921875 318.996094 242.929688 319.152344 C 243.785156 319.230469 244.558594 319.851562 245.023438 320.394531 C 245.566406 321.015625 245.957031 321.945312 245.957031 322.722656 C 246.035156 323.496094 245.800781 324.429688 245.335938 325.125 C 244.636719 325.902344 243.9375 326.367188 242.078125 326.832031 C 234.007812 328.851562 180.867188 328.308594 173.496094 326.988281 C 172.023438 326.753906 171.558594 326.675781 170.9375 325.980469 C 170.160156 325.28125 169.539062 323.652344 169.617188 322.644531 C 169.695312 321.789062 170.238281 320.78125 170.9375 320.238281 C 171.558594 319.617188 173.496094 319.230469 173.496094 319.230469 "/></clipPath><clipPath id="d37bfc0085"><path d="M 235.152344 318.726562 L 291.824219 318.726562 L 291.824219 327.976562 L 235.152344 327.976562 Z M 235.152344 318.726562 "/></clipPath><clipPath id="594fd1d47a"><path d="M 239.050781 319.617188 C 289.710938 319.152344 290.488281 319.617188 291.105469 320.394531 C 291.652344 321.015625 291.882812 322.023438 291.804688 322.796875 C 291.726562 323.574219 291.496094 324.503906 290.875 325.125 C 290.175781 325.824219 288.546875 326.445312 287.539062 326.445312 C 286.683594 326.445312 285.832031 325.902344 285.289062 325.359375 C 284.667969 324.894531 284.203125 324.039062 284.125 323.1875 C 284.046875 322.179688 284.511719 320.472656 285.289062 319.773438 C 286.066406 318.996094 287.773438 318.6875 288.78125 318.765625 C 289.554688 318.917969 290.410156 319.460938 290.875 320.082031 C 291.417969 320.703125 291.726562 321.558594 291.804688 322.332031 C 291.882812 323.1875 291.652344 324.117188 291.105469 324.738281 C 290.488281 325.515625 289.710938 325.980469 287.925781 326.445312 C 281.332031 328.152344 245.101562 328.382812 239.050781 327.375 C 237.578125 327.066406 237.113281 326.988281 236.414062 326.367188 C 235.714844 325.667969 235.09375 324.039062 235.171875 323.03125 C 235.25 322.101562 235.792969 321.09375 236.414062 320.546875 C 237.113281 320.003906 239.050781 319.617188 239.050781 319.617188 "/></clipPath><clipPath id="bca9400a01"><path d="M 99.328125 180.277344 L 111.773438 180.277344 L 111.773438 287.210938 L 99.328125 287.210938 Z M 99.328125 180.277344 "/></clipPath><clipPath id="5ac7b5d90e"><path d="M 103.441406 283.3125 C 101.660156 223.496094 99.5625 197.351562 99.410156 190.058594 C 99.410156 187.964844 99.253906 187.34375 99.484375 186.027344 C 99.71875 184.628906 99.953125 182.921875 100.804688 181.914062 C 101.582031 181.0625 103.054688 180.363281 104.0625 180.285156 C 104.839844 180.207031 105.769531 180.671875 106.390625 181.136719 C 107.011719 181.605469 107.554688 182.378906 107.710938 183.234375 C 107.863281 184.164062 107.554688 185.949219 106.855469 186.722656 C 106.15625 187.5 104.449219 188.042969 103.441406 188.042969 C 102.667969 187.964844 101.8125 187.5 101.269531 186.957031 C 100.726562 186.414062 100.183594 185.5625 100.105469 184.707031 C 100.027344 183.699219 100.648438 182.070312 101.347656 181.292969 C 101.890625 180.671875 102.820312 180.285156 103.597656 180.285156 C 104.605469 180.285156 106.234375 180.984375 106.933594 181.679688 C 107.554688 182.300781 107.785156 183.234375 107.863281 184.007812 C 107.863281 184.785156 107.320312 185.328125 107.167969 186.414062 C 106.777344 188.820312 107.011719 192.929688 107.167969 197.972656 C 107.554688 207.515625 109.417969 225.4375 110.113281 239.476562 C 110.734375 253.90625 112.597656 277.183594 111.199219 283.3125 C 110.734375 285.09375 110.269531 285.871094 109.492188 286.492188 C 108.796875 287.035156 107.710938 287.265625 106.855469 287.191406 C 106.003906 287.035156 104.996094 286.492188 104.375 285.871094 C 103.832031 285.25 103.441406 283.3125 103.441406 283.3125 "/></clipPath><clipPath id="a07b1327cf"><path d="M 99.269531 114.4375 L 175.652344 114.4375 L 175.652344 192.421875 L 99.269531 192.421875 Z M 99.269531 114.4375 "/></clipPath><clipPath id="369f00cde9"><path d="M 99.484375 188.351562 C 99.953125 180.75 100.648438 178.421875 101.660156 175.476562 C 103.132812 171.207031 105.769531 164.769531 108.40625 159.804688 C 110.890625 154.996094 113.683594 150.339844 117.019531 146.074219 C 120.355469 141.804688 124.078125 138.082031 128.5 134.359375 C 133.464844 130.089844 140.136719 125.203125 145.492188 122.253906 C 149.757812 119.929688 153.402344 118.609375 157.671875 117.367188 C 162.015625 116.050781 168.765625 114.496094 171.480469 114.652344 C 172.644531 114.730469 173.265625 114.886719 173.886719 115.429688 C 174.582031 116.050781 175.4375 117.679688 175.4375 118.6875 C 175.515625 119.460938 175.046875 120.394531 174.582031 121.015625 C 174.117188 121.558594 173.339844 122.179688 172.488281 122.332031 C 171.480469 122.488281 169.773438 122.101562 168.996094 121.402344 C 168.144531 120.703125 167.601562 119.074219 167.757812 117.988281 C 167.910156 116.902344 168.996094 115.582031 169.851562 115.039062 C 170.550781 114.652344 171.558594 114.574219 172.332031 114.730469 C 173.109375 114.886719 173.960938 115.351562 174.503906 115.972656 C 174.972656 116.515625 175.4375 117.367188 175.4375 118.222656 C 175.4375 119.230469 175.125 120.625 173.960938 121.558594 C 171.710938 123.417969 163.722656 123.574219 159.609375 124.816406 C 156.429688 125.824219 154.488281 126.289062 151.308594 127.917969 C 146.34375 130.558594 138.664062 135.910156 133.542969 140.253906 C 129.042969 144.054688 125.164062 148.246094 121.984375 152.277344 C 119.269531 155.847656 117.484375 159.027344 115.46875 162.984375 C 113.0625 167.640625 110.269531 173.769531 108.71875 178.734375 C 107.398438 183 107.710938 189.050781 106.3125 190.914062 C 105.613281 191.84375 104.605469 192.078125 103.832031 192.230469 C 103.210938 192.308594 102.589844 192.230469 102.046875 192 C 101.425781 191.765625 100.882812 191.457031 100.496094 190.914062 C 100.027344 190.292969 99.484375 188.351562 99.484375 188.351562 "/></clipPath><clipPath id="ee8dd3dd2b"><path d="M 162.363281 111.277344 L 236.5 111.277344 L 236.5 132.503906 L 162.363281 132.503906 Z M 162.363281 111.277344 "/></clipPath><clipPath id="68defb3b8a"><path d="M 166.28125 114.652344 C 192.96875 111.085938 197.003906 111.160156 200.726562 111.550781 C 203.832031 111.9375 206.082031 112.324219 209.261719 113.335938 C 213.761719 114.652344 220.199219 117.289062 224.777344 119.539062 C 228.578125 121.402344 233.234375 123.496094 235.015625 125.515625 C 236.027344 126.601562 236.570312 127.765625 236.492188 128.851562 C 236.414062 129.9375 235.40625 131.332031 234.550781 131.953125 C 233.855469 132.417969 232.921875 132.496094 232.148438 132.417969 C 231.371094 132.339844 230.441406 131.953125 229.898438 131.332031 C 229.277344 130.554688 228.734375 128.851562 228.8125 127.917969 C 228.886719 127.066406 229.433594 126.210938 229.976562 125.746094 C 230.59375 125.203125 231.449219 124.738281 232.300781 124.738281 C 233.3125 124.738281 234.941406 125.28125 235.636719 126.132812 C 236.335938 126.910156 236.570312 128.695312 236.335938 129.703125 C 236.179688 130.480469 235.558594 131.253906 234.941406 131.71875 C 234.320312 132.1875 233.699219 132.574219 232.535156 132.417969 C 229.199219 132.1875 218.726562 125.046875 212.90625 122.796875 C 208.484375 121.167969 204.917969 120.003906 200.882812 119.386719 C 196.847656 118.765625 192.347656 118.996094 188.625 119.152344 C 185.523438 119.230469 182.882812 119.460938 180.089844 120.003906 C 177.375 120.472656 174.738281 121.710938 172.179688 122.101562 C 169.851562 122.410156 166.980469 122.796875 165.351562 122.332031 C 164.34375 122.023438 163.566406 121.402344 163.101562 120.703125 C 162.636719 120.003906 162.324219 118.917969 162.480469 118.066406 C 162.558594 117.214844 163.101562 116.203125 163.722656 115.660156 C 164.34375 115.039062 166.28125 114.652344 166.28125 114.652344 "/></clipPath><clipPath id="c556740d1f"><path d="M 224.875 122.351562 L 270.761719 122.351562 L 270.761719 200 L 224.875 200 Z M 224.875 122.351562 "/></clipPath><clipPath id="6f08c4cbe4"><path d="M 230.128906 122.644531 C 238.277344 126.367188 242.929688 129.546875 245.878906 131.953125 C 248.285156 133.96875 249.992188 135.523438 252.007812 137.847656 C 254.414062 140.71875 257.050781 144.132812 259.222656 148.246094 C 261.9375 153.519531 264.421875 160.734375 266.203125 167.328125 C 268.066406 174.078125 269.539062 183.855469 270.082031 188.199219 C 270.316406 190.136719 270.703125 191.6875 270.316406 192.464844 C 270.082031 192.851562 269.386719 192.777344 269.230469 193.085938 C 268.996094 193.785156 270.625 195.492188 270.625 196.5 C 270.625 197.273438 270.160156 198.128906 269.617188 198.75 C 269.152344 199.292969 268.300781 199.835938 267.445312 199.914062 C 266.515625 200.066406 264.808594 199.523438 264.03125 198.828125 C 263.410156 198.285156 263.023438 197.429688 262.945312 196.65625 C 262.789062 195.878906 263.023438 194.871094 263.410156 194.171875 C 263.800781 193.550781 264.574219 192.851562 265.273438 192.542969 C 265.972656 192.230469 266.980469 192.078125 267.757812 192.386719 C 268.6875 192.699219 270.003906 193.863281 270.394531 194.792969 C 270.78125 195.566406 270.703125 196.578125 270.472656 197.273438 C 270.238281 198.050781 269.695312 198.902344 268.996094 199.292969 C 268.144531 199.835938 266.28125 199.914062 265.429688 199.757812 C 264.964844 199.679688 264.652344 199.523438 264.34375 199.136719 C 263.566406 198.207031 263.179688 195.957031 262.636719 193.472656 C 261.550781 188.742188 261.316406 179.585938 259.6875 172.835938 C 258.058594 166.089844 255.1875 157.863281 252.859375 152.898438 C 251.386719 149.71875 249.992188 147.855469 248.285156 145.53125 C 246.578125 143.28125 244.792969 141.339844 242.464844 139.246094 C 239.671875 136.761719 235.484375 133.894531 232.457031 132.03125 C 230.128906 130.632812 227.105469 130.089844 225.941406 128.851562 C 225.164062 128.074219 224.933594 127.144531 224.933594 126.289062 C 224.933594 125.4375 225.320312 124.351562 225.863281 123.652344 C 226.484375 123.03125 227.570312 122.566406 228.34375 122.410156 C 228.964844 122.253906 230.128906 122.644531 230.128906 122.644531 "/></clipPath><clipPath id="a4bcf043d5"><path d="M 262.082031 186.214844 L 272.121094 186.214844 L 272.121094 288.445312 L 262.082031 288.445312 Z M 262.082031 186.214844 "/></clipPath><clipPath id="3c8357040b"><path d="M 270.003906 190.136719 C 271.480469 224.195312 272.875 276.949219 271.636719 284.550781 C 271.402344 285.949219 271.402344 286.257812 270.859375 286.878906 C 270.160156 287.65625 268.609375 288.507812 267.523438 288.429688 C 266.515625 288.351562 265.039062 287.34375 264.421875 286.570312 C 263.953125 285.871094 263.722656 284.941406 263.878906 284.164062 C 264.109375 283.15625 265.117188 281.679688 265.972656 281.136719 C 266.667969 280.671875 267.601562 280.59375 268.375 280.75 C 269.152344 280.828125 270.082031 281.214844 270.550781 281.914062 C 271.246094 282.691406 271.710938 284.398438 271.558594 285.40625 C 271.402344 286.179688 270.859375 287.035156 270.238281 287.5 C 269.695312 288.042969 268.765625 288.351562 267.988281 288.429688 C 267.214844 288.429688 266.203125 288.277344 265.582031 287.734375 C 264.808594 287.113281 264.34375 286.414062 263.878906 284.550781 C 261.703125 276.019531 263.644531 225.746094 263.179688 208.988281 C 262.945312 200.609375 261.703125 193.472656 262.246094 190.136719 C 262.402344 188.820312 262.558594 188.199219 263.179688 187.578125 C 263.953125 186.800781 265.582031 186.179688 266.59375 186.257812 C 267.445312 186.335938 268.453125 186.878906 268.996094 187.578125 C 269.539062 188.199219 270.003906 190.136719 270.003906 190.136719 "/></clipPath><clipPath id="3bd07fd052"><path d="M 117.441406 143.238281 L 150.5 143.238281 L 150.5 270.109375 L 117.441406 270.109375 Z M 117.441406 143.238281 "/></clipPath><clipPath id="ca450199d3"><path d="M 119.347656 266.164062 C 117.25 232.730469 117.484375 218.300781 117.484375 209.066406 C 117.5625 202.628906 117.25 197.273438 117.71875 192.777344 C 118.027344 189.515625 118.335938 187.65625 119.269531 184.320312 C 120.742188 179.199219 124.464844 169.96875 126.714844 165.15625 C 128.191406 162.054688 129.277344 160.191406 130.828125 157.863281 C 132.457031 155.382812 134.085938 152.976562 136.257812 150.726562 C 138.820312 148.167969 142.851562 144.210938 145.257812 143.589844 C 146.65625 143.203125 147.972656 143.433594 148.828125 144.132812 C 149.679688 144.753906 150.457031 146.304688 150.378906 147.390625 C 150.378906 148.476562 149.445312 149.953125 148.59375 150.496094 C 147.664062 151.113281 145.957031 151.191406 144.949219 150.726562 C 143.9375 150.339844 143.007812 148.867188 142.699219 147.855469 C 142.542969 147.082031 142.773438 146.148438 143.085938 145.453125 C 143.472656 144.753906 144.171875 144.054688 144.871094 143.746094 C 145.566406 143.355469 146.578125 143.28125 147.351562 143.433594 C 148.128906 143.589844 148.980469 143.976562 149.445312 144.675781 C 150.066406 145.53125 150.6875 146.925781 150.300781 148.246094 C 149.601562 150.570312 144.09375 153.675781 141.765625 156.3125 C 139.828125 158.40625 138.507812 160.269531 137.035156 162.519531 C 135.484375 164.925781 134.320312 166.941406 132.84375 170.121094 C 130.671875 175.007812 127.183594 184.164062 126.097656 189.207031 C 125.320312 192.464844 125.476562 193.628906 125.242188 197.429688 C 124.855469 206.042969 125.007812 227.375 125.398438 239.789062 C 125.785156 249.640625 128.113281 261.667969 127.105469 266.164062 C 126.792969 267.792969 126.25 268.726562 125.476562 269.347656 C 124.777344 269.890625 123.613281 270.121094 122.761719 269.96875 C 121.90625 269.890625 120.898438 269.347656 120.355469 268.726562 C 119.8125 268.105469 119.347656 266.164062 119.347656 266.164062 "/></clipPath><clipPath id="95730c3e40"><path d="M 141.347656 128.082031 L 180.824219 128.082031 L 180.824219 152.308594 L 141.347656 152.308594 Z M 141.347656 128.082031 "/></clipPath><clipPath id="769ccb2537"><path d="M 142.230469 145.917969 C 154.488281 135.597656 163.878906 132.03125 168.765625 130.246094 C 171.636719 129.238281 174.117188 128.382812 175.902344 128.230469 C 176.910156 128.152344 177.6875 128.074219 178.382812 128.460938 C 179.238281 128.925781 180.480469 130.246094 180.632812 131.332031 C 180.867188 132.339844 180.167969 134.046875 179.546875 134.824219 C 179.003906 135.445312 178.074219 135.753906 177.296875 135.910156 C 176.523438 135.988281 175.589844 135.832031 174.894531 135.367188 C 174.039062 134.824219 173.03125 133.347656 172.953125 132.339844 C 172.875 131.253906 173.574219 129.625 174.429688 129.003906 C 175.28125 128.308594 176.988281 127.996094 177.996094 128.308594 C 179.003906 128.617188 180.246094 129.859375 180.554688 130.945312 C 180.867188 131.953125 180.789062 133.347656 179.859375 134.511719 C 177.765625 136.839844 168.53125 138.316406 163.722656 140.410156 C 159.609375 142.269531 155.5 143.976562 152.472656 146.226562 C 150.066406 147.933594 148.207031 151.191406 146.730469 151.96875 C 146.035156 152.277344 145.566406 152.355469 144.871094 152.277344 C 144.09375 152.125 143.007812 151.65625 142.386719 151.039062 C 141.84375 150.417969 141.378906 149.410156 141.378906 148.554688 C 141.300781 147.703125 142.230469 145.917969 142.230469 145.917969 "/></clipPath><clipPath id="66cfcd3702"><path d="M 136.191406 128.007812 L 180.777344 128.007812 L 180.777344 224.28125 L 136.191406 224.28125 Z M 136.191406 128.007812 "/></clipPath><clipPath id="e5f4aa4719"><path d="M 178.230469 135.675781 C 170.160156 141.109375 164.265625 146.148438 161.238281 149.410156 C 158.988281 151.8125 157.75 153.363281 156.042969 156.15625 C 153.636719 159.960938 150.765625 165.234375 148.902344 170.664062 C 146.730469 176.871094 145.414062 183.929688 144.558594 191.613281 C 143.550781 200.6875 145.492188 217.601562 144.09375 221.636719 C 143.707031 222.722656 143.242188 223.109375 142.621094 223.574219 C 141.921875 224.039062 140.992188 224.273438 140.214844 224.273438 C 139.441406 224.195312 138.507812 223.886719 137.886719 223.339844 C 137.191406 222.644531 136.492188 221.015625 136.570312 219.929688 C 136.722656 218.917969 137.65625 217.445312 138.585938 216.902344 C 139.59375 216.4375 141.300781 216.515625 142.230469 216.902344 C 143.007812 217.289062 143.628906 217.988281 143.9375 218.765625 C 144.25 219.460938 144.480469 220.394531 144.25 221.167969 C 143.9375 222.179688 142.777344 223.496094 141.84375 223.960938 C 141.144531 224.351562 140.136719 224.351562 139.363281 224.117188 C 138.664062 223.886719 137.886719 223.574219 137.34375 222.722656 C 136.414062 221.167969 136.492188 217.832031 136.335938 214.1875 C 136.027344 207.980469 136.335938 195.492188 137.113281 188.351562 C 137.65625 183.15625 138.507812 178.964844 139.441406 175.164062 C 140.214844 172.21875 140.679688 170.277344 141.84375 167.328125 C 143.550781 163.0625 146.886719 156.390625 149.292969 152.355469 C 151.078125 149.410156 152.78125 147.3125 154.644531 145.140625 C 156.429688 143.046875 158.136719 141.496094 160.308594 139.476562 C 163.179688 136.839844 167.445312 133.039062 170.472656 131.101562 C 172.566406 129.703125 174.738281 128.382812 176.367188 128.152344 C 177.375 128.074219 178.308594 128.308594 179.003906 128.851562 C 179.703125 129.316406 180.402344 130.246094 180.554688 131.101562 C 180.789062 131.875 180.632812 133.039062 180.246094 133.816406 C 179.859375 134.589844 178.230469 135.675781 178.230469 135.675781 "/></clipPath><clipPath id="73664addfa"><path d="M 134.886719 212.859375 L 144.355469 212.859375 L 144.355469 269.847656 L 134.886719 269.847656 Z M 134.886719 212.859375 "/></clipPath><clipPath id="3a223c4352"><path d="M 144.328125 216.746094 C 142.308594 268.261719 141.921875 268.648438 141.144531 269.191406 C 140.449219 269.65625 139.363281 269.890625 138.507812 269.8125 C 137.65625 269.734375 136.648438 269.191406 136.105469 268.570312 C 135.484375 267.871094 135.015625 266.863281 135.09375 265.933594 C 135.171875 264.925781 136.027344 263.371094 136.800781 262.753906 C 137.421875 262.210938 138.351562 261.976562 139.207031 262.054688 C 140.214844 262.210938 141.765625 263.0625 142.308594 263.992188 C 142.851562 264.847656 142.929688 266.632812 142.464844 267.5625 C 142.078125 268.570312 140.679688 269.578125 139.59375 269.8125 C 138.585938 269.96875 136.878906 269.425781 136.179688 268.648438 C 135.40625 267.871094 134.941406 266.164062 135.171875 265.15625 C 135.40625 264.070312 136.570312 262.753906 137.578125 262.363281 C 138.507812 261.976562 140.292969 262.285156 141.144531 262.753906 C 141.84375 263.140625 142.386719 263.992188 142.621094 264.691406 C 142.929688 265.390625 142.929688 266.242188 142.777344 266.863281 C 142.621094 267.484375 142.308594 268.105469 141.921875 268.570312 C 141.300781 269.113281 140.371094 269.734375 139.441406 269.8125 C 138.429688 269.890625 136.800781 269.269531 136.105469 268.570312 C 135.484375 267.871094 135.328125 267.097656 135.09375 265.933594 C 134.707031 263.992188 135.015625 261.277344 135.09375 257.320312 C 135.25 248.710938 134.941406 221.015625 136.648438 215.816406 C 137.113281 214.496094 137.5 214.109375 138.199219 213.566406 C 138.894531 213.101562 140.058594 212.789062 140.914062 212.945312 C 141.765625 213.023438 142.777344 213.566406 143.320312 214.1875 C 143.9375 214.886719 144.328125 216.746094 144.328125 216.746094 "/></clipPath><clipPath id="4075faa41d"><path d="M 119.695312 261.882812 L 142.089844 261.882812 L 142.089844 271.03125 L 119.695312 271.03125 Z M 119.695312 261.882812 "/></clipPath><clipPath id="675a3d21df"><path d="M 123.769531 261.898438 C 134.628906 263.761719 134.085938 265.234375 134.398438 265.3125 C 134.785156 265.46875 135.792969 262.984375 136.800781 262.597656 C 137.808594 262.285156 139.59375 262.597656 140.449219 263.140625 C 141.144531 263.605469 141.613281 264.457031 141.84375 265.15625 C 142.078125 265.933594 142.078125 266.941406 141.765625 267.640625 C 141.535156 268.414062 140.835938 269.113281 140.214844 269.578125 C 139.515625 269.96875 138.585938 270.277344 137.808594 270.121094 C 136.800781 269.96875 135.25 269.113281 134.785156 268.183594 C 134.242188 267.25 134.164062 265.46875 134.707031 264.535156 C 135.171875 263.605469 136.570312 262.597656 137.65625 262.441406 C 138.742188 262.285156 140.371094 262.90625 141.070312 263.683594 C 141.765625 264.535156 142.386719 266.242188 141.921875 267.25 C 141.070312 268.882812 136.414062 270.511719 133.3125 270.898438 C 129.976562 271.363281 124.464844 270.199219 122.449219 269.5 C 121.671875 269.269531 121.285156 269.035156 120.898438 268.570312 C 120.433594 268.183594 120.042969 267.640625 119.890625 267.019531 C 119.65625 266.242188 119.734375 265 119.96875 264.304688 C 120.199219 263.683594 120.585938 263.140625 121.128906 262.828125 C 121.75 262.363281 123.769531 261.898438 123.769531 261.898438 "/></clipPath><clipPath id="b82fa5ed95"><path d="M 112 66.917969 L 140.9375 66.917969 L 140.9375 112.601562 L 112 112.601562 Z M 112 66.917969 "/></clipPath><clipPath id="d4a20e1922"><path d="M 119.269531 68.882812 C 128.65625 84.007812 139.207031 102.707031 140.527344 107.207031 C 140.835938 108.445312 140.914062 108.910156 140.679688 109.6875 C 140.292969 110.617188 139.207031 112.015625 138.121094 112.324219 C 137.113281 112.714844 135.40625 112.324219 134.550781 111.78125 C 133.855469 111.316406 133.3125 110.542969 133.15625 109.765625 C 133 108.757812 133.386719 106.972656 133.929688 106.195312 C 134.398438 105.5 135.328125 105.03125 136.027344 104.878906 C 136.800781 104.722656 137.808594 104.800781 138.507812 105.1875 C 139.207031 105.5 139.984375 106.121094 140.292969 106.816406 C 140.679688 107.515625 140.914062 108.445312 140.757812 109.300781 C 140.527344 110.230469 139.441406 111.703125 138.507812 112.171875 C 137.808594 112.636719 136.878906 112.636719 136.105469 112.480469 C 135.328125 112.324219 134.785156 112.09375 133.929688 111.160156 C 130.75 107.824219 122.292969 88.351562 118.183594 81.371094 C 115.933594 77.492188 113.296875 74.699219 112.441406 72.527344 C 112.054688 71.441406 111.898438 70.664062 112.132812 69.8125 C 112.285156 68.957031 112.90625 68.027344 113.605469 67.484375 C 114.535156 67.019531 116.242188 66.785156 117.25 67.019531 C 118.105469 67.328125 119.269531 68.882812 119.269531 68.882812 "/></clipPath><clipPath id="e98b41c395"><path d="M 181.957031 47.550781 L 191.835938 47.550781 L 191.835938 97.25 L 181.957031 97.25 Z M 181.957031 47.550781 "/></clipPath><clipPath id="770d2cb0d1"><path d="M 190.332031 51.503906 C 191.652344 94.636719 191.574219 95.101562 191.03125 95.722656 C 190.332031 96.421875 188.78125 97.199219 187.773438 97.199219 C 186.917969 97.273438 186.066406 96.886719 185.445312 96.34375 C 184.746094 95.566406 183.96875 94.015625 184.125 92.929688 C 184.203125 91.84375 185.289062 90.449219 186.140625 89.90625 C 186.839844 89.515625 187.773438 89.363281 188.546875 89.515625 C 189.324219 89.671875 190.253906 90.136719 190.796875 90.679688 C 191.339844 91.222656 191.726562 92.15625 191.804688 92.929688 C 191.882812 93.707031 191.726562 94.714844 191.261719 95.335938 C 190.71875 96.1875 189.167969 97.121094 188.160156 97.199219 C 187.304688 97.351562 186.453125 97.121094 185.753906 96.578125 C 184.980469 95.957031 184.511719 95.101562 184.046875 93.320312 C 182.496094 87.34375 181.175781 57.476562 182.574219 51.503906 C 182.960938 49.71875 183.425781 48.941406 184.203125 48.324219 C 184.902344 47.777344 186.066406 47.546875 186.917969 47.625 C 187.773438 47.703125 188.78125 48.246094 189.324219 48.941406 C 189.867188 49.5625 190.332031 51.503906 190.332031 51.503906 "/></clipPath><clipPath id="6373c24762"><path d="M 233.605469 65.21875 L 261.742188 65.21875 L 261.742188 111.753906 L 233.605469 111.753906 Z M 233.605469 65.21875 "/></clipPath><clipPath id="1aa18ae6bf"><path d="M 233.777344 106.429688 C 246.5 80.828125 249.292969 75.628906 251.929688 71.90625 C 253.792969 69.191406 255.652344 65.855469 257.359375 65.390625 C 258.523438 65.15625 260.074219 65.933594 260.773438 66.707031 C 261.472656 67.5625 261.78125 69.269531 261.550781 70.277344 C 261.472656 71.054688 260.929688 71.90625 260.230469 72.371094 C 259.378906 72.914062 257.671875 73.304688 256.664062 72.992188 C 255.652344 72.605469 254.488281 71.285156 254.101562 70.355469 C 253.792969 69.578125 253.871094 68.648438 254.257812 67.871094 C 254.644531 66.941406 256.042969 65.777344 256.972656 65.46875 C 257.75 65.234375 258.757812 65.390625 259.453125 65.699219 C 260.152344 66.089844 260.851562 66.707031 261.238281 67.40625 C 261.628906 68.105469 261.78125 69.113281 261.703125 69.890625 C 261.550781 70.664062 261.085938 71.519531 260.542969 72.0625 C 259.996094 72.605469 258.367188 72.683594 258.292969 73.148438 C 258.214844 73.457031 259.453125 73.613281 259.53125 74.234375 C 259.921875 76.640625 252.238281 86.648438 248.980469 92.699219 C 245.957031 98.515625 242.851562 107.359375 240.601562 109.996094 C 239.75 110.929688 239.207031 111.316406 238.351562 111.550781 C 237.578125 111.78125 236.414062 111.628906 235.636719 111.238281 C 234.863281 110.851562 234.085938 109.996094 233.777344 109.222656 C 233.464844 108.445312 233.777344 106.429688 233.777344 106.429688 "/></clipPath><clipPath id="077ae240de"><path d="M 269.722656 117.242188 L 313.722656 117.242188 L 313.722656 146.664062 L 269.722656 146.664062 Z M 269.722656 117.242188 "/></clipPath><clipPath id="3cd93d83e4"><path d="M 272.332031 139.089844 C 282.339844 133.96875 295.0625 124.429688 300.726562 121.167969 C 303.753906 119.460938 306.15625 118.300781 307.941406 117.679688 C 308.949219 117.367188 309.570312 117.210938 310.347656 117.289062 C 311.121094 117.445312 312.054688 117.832031 312.519531 118.453125 C 313.140625 119.308594 313.683594 121.015625 313.527344 122.023438 C 313.371094 122.796875 312.90625 123.652344 312.210938 124.117188 C 311.433594 124.660156 309.726562 125.125 308.640625 124.894531 C 307.632812 124.582031 306.390625 123.339844 306.082031 122.332031 C 305.691406 121.324219 306.082031 119.617188 306.625 118.765625 C 307.089844 118.066406 307.941406 117.601562 308.71875 117.367188 C 309.492188 117.210938 310.425781 117.210938 311.199219 117.523438 C 311.898438 117.832031 312.675781 118.453125 313.0625 119.152344 C 313.449219 119.851562 313.683594 120.78125 313.605469 121.558594 C 313.527344 122.332031 313.296875 123.03125 312.519531 123.808594 C 310.734375 125.667969 304.996094 127.6875 300.570312 130.402344 C 294.597656 133.96875 285.054688 141.417969 280.167969 144.054688 C 277.609375 145.453125 275.667969 146.460938 274.039062 146.617188 C 272.953125 146.691406 272.023438 146.460938 271.324219 145.839844 C 270.550781 145.21875 269.851562 143.589844 269.773438 142.660156 C 269.695312 141.960938 269.851562 141.417969 270.238281 140.875 C 270.625 140.175781 272.332031 139.089844 272.332031 139.089844 "/></clipPath><clipPath id="f513616bd9"><path d="M 284.277344 189.417969 L 334.363281 189.417969 L 334.363281 198.96875 L 284.277344 198.96875 Z M 284.277344 189.417969 "/></clipPath><clipPath id="0774521853"><path d="M 288.160156 190.136719 C 321.75 190.679688 323.691406 189.75 326.019531 189.59375 C 328.035156 189.441406 330.207031 189.363281 331.527344 189.75 C 332.457031 190.058594 333.078125 190.527344 333.542969 191.222656 C 334.007812 191.84375 334.398438 192.699219 334.320312 193.550781 C 334.242188 194.558594 333.386719 196.113281 332.613281 196.730469 C 331.992188 197.273438 331.0625 197.507812 330.207031 197.351562 C 329.199219 197.273438 327.648438 196.421875 327.105469 195.492188 C 326.5625 194.558594 326.484375 192.851562 326.949219 191.84375 C 327.414062 190.914062 328.886719 189.90625 329.898438 189.671875 C 330.671875 189.515625 331.605469 189.75 332.300781 190.136719 C 333 190.449219 333.699219 191.222656 334.007812 191.921875 C 334.320312 192.621094 334.472656 193.550781 334.242188 194.40625 C 333.929688 195.335938 333.078125 196.578125 331.835938 197.121094 C 330.128906 197.972656 326.25 196.964844 323.921875 197.273438 C 322.0625 197.585938 321.054688 198.359375 319.035156 198.671875 C 315.777344 199.136719 311.199219 198.828125 306.546875 198.671875 C 300.570312 198.515625 289.324219 198.902344 286.296875 197.429688 C 285.210938 196.886719 284.824219 196.1875 284.511719 195.335938 C 284.203125 194.558594 284.203125 193.394531 284.511719 192.621094 C 284.824219 191.765625 285.675781 190.992188 286.296875 190.527344 C 286.917969 190.214844 288.160156 190.136719 288.160156 190.136719 "/></clipPath><clipPath id="e51810b762"><path d="M 60.121094 120.03125 L 103.914062 120.03125 L 103.914062 148.683594 L 60.121094 148.683594 Z M 60.121094 120.03125 "/></clipPath><clipPath id="53e94f9bbb"><path d="M 65.273438 120.160156 C 78.074219 126.058594 99.332031 138.390625 102.667969 141.882812 C 103.519531 142.8125 103.675781 143.355469 103.832031 144.054688 C 103.90625 144.832031 103.753906 145.839844 103.441406 146.539062 C 103.054688 147.234375 102.355469 147.933594 101.582031 148.246094 C 100.882812 148.554688 99.953125 148.789062 99.175781 148.554688 C 98.167969 148.246094 96.847656 147.082031 96.382812 146.148438 C 95.996094 145.453125 95.917969 144.519531 96.226562 143.746094 C 96.617188 142.738281 97.703125 141.417969 98.710938 141.03125 C 99.71875 140.71875 101.425781 141.109375 102.277344 141.652344 C 102.976562 142.117188 103.519531 142.96875 103.675781 143.667969 C 103.90625 144.445312 103.90625 145.453125 103.597656 146.148438 C 103.289062 146.847656 102.746094 147.703125 101.96875 148.089844 C 101.113281 148.476562 100.027344 148.710938 98.324219 148.246094 C 93.125 146.925781 75.4375 133.660156 68.765625 130.089844 C 65.507812 128.308594 62.558594 127.765625 61.316406 126.601562 C 60.695312 126.058594 60.542969 125.667969 60.386719 125.046875 C 60.152344 124.273438 60.230469 123.03125 60.542969 122.253906 C 60.929688 121.480469 61.703125 120.703125 62.480469 120.316406 C 63.332031 120.007812 65.273438 120.160156 65.273438 120.160156 "/></clipPath><clipPath id="59d3950142"><path d="M 40.570312 187.542969 L 89.421875 187.542969 L 89.421875 197.773438 L 40.570312 197.773438 Z M 40.570312 187.542969 "/></clipPath><clipPath id="8ca16575fe"><path d="M 85.675781 197.742188 C 49.292969 195.257812 45.566406 196.578125 43.394531 195.722656 C 42.078125 195.257812 41.144531 194.25 40.757812 193.164062 C 40.449219 192.15625 40.757812 190.449219 41.457031 189.59375 C 42.078125 188.742188 43.707031 188.042969 44.714844 188.121094 C 45.800781 188.199219 47.273438 189.128906 47.816406 190.058594 C 48.359375 190.992188 48.4375 192.699219 47.972656 193.707031 C 47.507812 194.636719 46.109375 195.722656 45.023438 195.878906 C 44.015625 196.035156 42.386719 195.335938 41.613281 194.636719 C 40.992188 194.09375 40.679688 193.164062 40.601562 192.386719 C 40.527344 191.613281 40.757812 190.601562 41.222656 189.984375 C 41.613281 189.285156 42.15625 188.742188 43.085938 188.351562 C 44.636719 187.734375 46.886719 187.65625 50.144531 187.578125 C 57.59375 187.421875 81.488281 188.429688 86.296875 190.058594 C 87.617188 190.527344 88.160156 190.835938 88.625 191.535156 C 89.167969 192.230469 89.476562 193.320312 89.402344 194.171875 C 89.324219 195.023438 88.78125 196.109375 88.160156 196.65625 C 87.539062 197.273438 85.675781 197.742188 85.675781 197.742188 "/></clipPath></defs><g id="3ba752e7c6"><g clip-rule="nonzero" clip-path="url(#41ec99eae7)"><g clip-rule="nonzero" clip-path="url(#b10506011f)"><path style=" stroke:none;fill-rule:nonzero;fill:currentColor;fill-opacity:1;" d="M 78.382812 281.0625 L 124.3125 281.0625 L 124.3125 328.960938 L 78.382812 328.960938 Z M 78.382812 281.0625 "/></g></g><g clip-rule="nonzero" clip-path="url(#2481eac7b6)"><g clip-rule="nonzero" clip-path="url(#9412f24d66)"><path style=" stroke:none;fill-rule:nonzero;fill:currentColor;fill-opacity:1;" d="M 110.347656 279.121094 L 225.648438 279.121094 L 225.648438 295.023438 L 110.347656 295.023438 Z M 110.347656 279.121094 "/></g></g><g clip-rule="nonzero" clip-path="url(#02aa5e863b)"><g clip-rule="nonzero" clip-path="url(#684c77cd16)"><path style=" stroke:none;fill-rule:nonzero;fill:currentColor;fill-opacity:1;" d="M 206.234375 279.898438 L 293.761719 279.898438 L 293.761719 329.46875 L 206.234375 329.46875 Z M 206.234375 279.898438 "/></g></g><g clip-rule="nonzero" clip-path="url(#865a0d16b3)"><g clip-rule="nonzero" clip-path="url(#7b32288c8a)"><path style=" stroke:none;fill-rule:nonzero;fill:currentColor;fill-opacity:1;" d="M 78.074219 314.964844 L 180.472656 314.964844 L 180.472656 330.167969 L 78.074219 330.167969 Z M 78.074219 314.964844 "/></g></g><g clip-rule="nonzero" clip-path="url(#56868f36f8)"><g clip-rule="nonzero" clip-path="url(#4abb8885ce)"><path style=" stroke:none;fill-rule:nonzero;fill:currentColor;fill-opacity:1;" d="M 166.515625 315.972656 L 249.035156 315.972656 L 249.035156 330.167969 L 166.515625 330.167969 Z M 166.515625 315.972656 "/></g></g><g clip-rule="nonzero" clip-path="url(#d37bfc0085)"><g clip-rule="nonzero" clip-path="url(#594fd1d47a)"><path style=" stroke:none;fill-rule:nonzero;fill:currentColor;fill-opacity:1;" d="M 232.070312 315.582031 L 294.96875 315.582031 L 294.96875 330.480469 L 232.070312 330.480469 Z M 232.070312 315.582031 "/></g></g><g clip-rule="nonzero" clip-path="url(#bca9400a01)"><g clip-rule="nonzero" clip-path="url(#5ac7b5d90e)"><path style=" stroke:none;fill-rule:nonzero;fill:currentColor;fill-opacity:1;" d="M 96.304688 177.183594 L 114.304688 177.183594 L 114.304688 290.304688 L 96.304688 290.304688 Z M 96.304688 177.183594 "/></g></g><g clip-rule="nonzero" clip-path="url(#a07b1327cf)"><g clip-rule="nonzero" clip-path="url(#369f00cde9)"><path style=" stroke:none;fill-rule:nonzero;fill:currentColor;fill-opacity:1;" d="M 96.382812 111.550781 L 178.539062 111.550781 L 178.539062 195.3125 L 96.382812 195.3125 Z M 96.382812 111.550781 "/></g></g><g clip-rule="nonzero" clip-path="url(#ee8dd3dd2b)"><g clip-rule="nonzero" clip-path="url(#68defb3b8a)"><path style=" stroke:none;fill-rule:nonzero;fill:currentColor;fill-opacity:1;" d="M 159.378906 108.292969 L 239.703125 108.292969 L 239.703125 135.597656 L 159.378906 135.597656 Z M 159.378906 108.292969 "/></g></g><g clip-rule="nonzero" clip-path="url(#c556740d1f)"><g clip-rule="nonzero" clip-path="url(#6f08c4cbe4)"><path style=" stroke:none;fill-rule:nonzero;fill:currentColor;fill-opacity:1;" d="M 221.828125 119.308594 L 273.808594 119.308594 L 273.808594 203.164062 L 221.828125 203.164062 Z M 221.828125 119.308594 "/></g></g><g clip-rule="nonzero" clip-path="url(#a4bcf043d5)"><g clip-rule="nonzero" clip-path="url(#3c8357040b)"><path style=" stroke:none;fill-rule:nonzero;fill:currentColor;fill-opacity:1;" d="M 259.144531 183.15625 L 274.816406 183.15625 L 274.816406 291.507812 L 259.144531 291.507812 Z M 259.144531 183.15625 "/></g></g><g clip-rule="nonzero" clip-path="url(#3bd07fd052)"><g clip-rule="nonzero" clip-path="url(#ca450199d3)"><path style=" stroke:none;fill-rule:nonzero;fill:currentColor;fill-opacity:1;" d="M 114.382812 140.332031 L 153.558594 140.332031 L 153.558594 273.167969 L 114.382812 273.167969 Z M 114.382812 140.332031 "/></g></g><g clip-rule="nonzero" clip-path="url(#95730c3e40)"><g clip-rule="nonzero" clip-path="url(#769ccb2537)"><path style=" stroke:none;fill-rule:nonzero;fill:currentColor;fill-opacity:1;" d="M 138.277344 125.125 L 183.777344 125.125 L 183.777344 155.382812 L 138.277344 155.382812 Z M 138.277344 125.125 "/></g></g><g clip-rule="nonzero" clip-path="url(#66cfcd3702)"><g clip-rule="nonzero" clip-path="url(#e5f4aa4719)"><path style=" stroke:none;fill-rule:nonzero;fill:currentColor;fill-opacity:1;" d="M 133.234375 125.046875 L 183.738281 125.046875 L 183.738281 227.4375 L 133.234375 227.4375 Z M 133.234375 125.046875 "/></g></g><g clip-rule="nonzero" clip-path="url(#73664addfa)"><g clip-rule="nonzero" clip-path="url(#3a223c4352)"><path style=" stroke:none;fill-rule:nonzero;fill:currentColor;fill-opacity:1;" d="M 131.992188 209.84375 L 147.429688 209.84375 L 147.429688 272.984375 L 131.992188 272.984375 Z M 131.992188 209.84375 "/></g></g><g clip-rule="nonzero" clip-path="url(#4075faa41d)"><g clip-rule="nonzero" clip-path="url(#675a3d21df)"><path style=" stroke:none;fill-rule:nonzero;fill:currentColor;fill-opacity:1;" d="M 116.785156 258.796875 L 145 258.796875 L 145 274 L 116.785156 274 Z M 116.785156 258.796875 "/></g></g><g clip-rule="nonzero" clip-path="url(#b82fa5ed95)"><g clip-rule="nonzero" clip-path="url(#d4a20e1922)"><path style=" stroke:none;fill-rule:nonzero;fill:currentColor;fill-opacity:1;" d="M 109.027344 63.914062 L 143.9375 63.914062 L 143.9375 115.601562 L 109.027344 115.601562 Z M 109.027344 63.914062 "/></g></g><g clip-rule="nonzero" clip-path="url(#e98b41c395)"><g clip-rule="nonzero" clip-path="url(#770d2cb0d1)"><path style=" stroke:none;fill-rule:nonzero;fill:currentColor;fill-opacity:1;" d="M 179.46875 44.519531 L 194.988281 44.519531 L 194.988281 100.402344 L 179.46875 100.402344 Z M 179.46875 44.519531 "/></g></g><g clip-rule="nonzero" clip-path="url(#6373c24762)"><g clip-rule="nonzero" clip-path="url(#1aa18ae6bf)"><path style=" stroke:none;fill-rule:nonzero;fill:currentColor;fill-opacity:1;" d="M 230.671875 62.285156 L 264.808594 62.285156 L 264.808594 114.6875 L 230.671875 114.6875 Z M 230.671875 62.285156 "/></g></g><g clip-rule="nonzero" clip-path="url(#077ae240de)"><g clip-rule="nonzero" clip-path="url(#3cd93d83e4)"><path style=" stroke:none;fill-rule:nonzero;fill:currentColor;fill-opacity:1;" d="M 266.667969 114.1875 L 316.773438 114.1875 L 316.773438 149.71875 L 266.667969 149.71875 Z M 266.667969 114.1875 "/></g></g><g clip-rule="nonzero" clip-path="url(#f513616bd9)"><g clip-rule="nonzero" clip-path="url(#0774521853)"><path style=" stroke:none;fill-rule:nonzero;fill:currentColor;fill-opacity:1;" d="M 281.410156 186.492188 L 337.527344 186.492188 L 337.527344 201.773438 L 281.410156 201.773438 Z M 281.410156 186.492188 "/></g></g><g clip-rule="nonzero" clip-path="url(#e51810b762)"><g clip-rule="nonzero" clip-path="url(#53e94f9bbb)"><path style=" stroke:none;fill-rule:nonzero;fill:currentColor;fill-opacity:1;" d="M 57.28125 117.058594 L 106.886719 117.058594 L 106.886719 151.660156 L 57.28125 151.660156 Z M 57.28125 117.058594 "/></g></g><g clip-rule="nonzero" clip-path="url(#59d3950142)"><g clip-rule="nonzero" clip-path="url(#8ca16575fe)"><path style=" stroke:none;fill-rule:nonzero;fill:currentColor;fill-opacity:1;" d="M 37.5 184.472656 L 92.492188 184.472656 L 92.492188 200.84375 L 37.5 200.84375 Z M 37.5 184.472656 "/></g></g></g></svg>