<svg xmlns="http://www.w3.org/2000/svg" xmlns:xlink="http://www.w3.org/1999/xlink" width="500" zoomAndPan="magnify" viewBox="0 0 375 374.999991" height="500" preserveAspectRatio="xMidYMid meet" version="1.2"><defs><clipPath id="5b76803969"><path d="M 52.492188 81.0625 L 153.648438 81.0625 L 153.648438 194.757812 L 52.492188 194.757812 Z M 52.492188 81.0625 "/></clipPath><clipPath id="cc56441234"><path d="M 53.644531 188.179688 C 74.582031 164.605469 78.976562 157.890625 85.210938 150.621094 C 92.882812 141.589844 104.546875 130.320312 112.21875 121.449219 C 118.375 114.339844 123.167969 107.304688 128.125 101.632812 C 132.199219 96.996094 135.953125 93 139.632812 89.484375 C 142.746094 86.449219 146.183594 81.972656 148.660156 81.414062 C 150.019531 81.171875 151.457031 81.894531 152.175781 82.613281 C 152.816406 83.171875 153.214844 84.050781 153.296875 84.847656 C 153.375 85.648438 153.296875 86.6875 152.738281 87.40625 C 152.175781 88.207031 150.660156 89.246094 149.621094 89.324219 C 148.5 89.40625 146.902344 88.605469 146.183594 87.804688 C 145.625 87.167969 145.304688 86.207031 145.304688 85.410156 C 145.304688 84.609375 145.542969 83.652344 146.105469 83.011719 C 146.824219 82.210938 148.421875 81.332031 149.539062 81.332031 C 150.578125 81.414062 152.097656 82.453125 152.738281 83.25 C 153.214844 83.96875 153.375 84.929688 153.296875 85.730469 C 153.214844 86.527344 152.976562 87.007812 152.257812 88.046875 C 150.019531 91.402344 140.03125 100.191406 134.355469 106.667969 C 128.683594 113.140625 124.289062 119.691406 118.132812 126.804688 C 110.542969 135.59375 99.273438 146.382812 91.761719 155.253906 C 85.527344 162.527344 81.054688 169.320312 75.621094 175.871094 C 70.425781 182.027344 62.914062 190.816406 59.796875 193.292969 C 58.675781 194.171875 58.199219 194.574219 57.320312 194.652344 C 56.441406 194.8125 55.320312 194.574219 54.523438 194.09375 C 53.722656 193.453125 52.84375 191.855469 52.765625 190.816406 C 52.683594 189.9375 53.644531 188.179688 53.644531 188.179688 "/></clipPath><clipPath id="9223244460"><path d="M 40.394531 189.234375 L 56.972656 189.234375 L 56.972656 228.710938 L 40.394531 228.710938 Z M 40.394531 189.234375 "/></clipPath><clipPath id="c5373b2079"><path d="M 54.921875 196.648438 C 49.964844 201.285156 49.167969 202.324219 48.769531 203.921875 C 48.207031 206.082031 48.449219 209.757812 48.6875 211.992188 C 48.847656 213.59375 49.246094 214.789062 49.648438 216.148438 C 50.046875 217.507812 50.367188 218.945312 51.085938 220.226562 C 51.804688 221.503906 53.484375 222.542969 53.882812 223.660156 C 54.121094 224.539062 53.960938 225.5 53.644531 226.21875 C 53.402344 227.019531 52.765625 227.816406 51.964844 228.136719 C 51.085938 228.617188 49.246094 228.777344 48.289062 228.296875 C 47.25 227.816406 46.210938 226.378906 46.050781 225.257812 C 45.890625 224.222656 46.609375 222.542969 47.25 221.742188 C 47.890625 221.105469 48.847656 220.785156 49.648438 220.703125 C 50.445312 220.625 51.40625 220.863281 52.125 221.34375 C 52.765625 221.742188 53.402344 222.542969 53.722656 223.261719 C 54.042969 224.0625 54.121094 225.019531 53.800781 225.820312 C 53.484375 226.777344 52.285156 228.136719 51.164062 228.535156 C 50.125 228.855469 48.609375 228.457031 47.488281 227.816406 C 46.371094 227.257812 45.570312 226.140625 44.691406 224.78125 C 43.414062 222.78125 42.136719 219.664062 41.496094 216.628906 C 40.695312 212.953125 40.136719 208 40.695312 204.402344 C 41.175781 201.363281 42.773438 198.410156 43.8125 196.410156 C 44.613281 194.972656 45.171875 194.171875 46.210938 193.132812 C 47.488281 191.933594 49.40625 190.175781 51.003906 189.699219 C 52.285156 189.21875 53.722656 189.136719 54.683594 189.539062 C 55.5625 189.9375 56.359375 190.816406 56.679688 191.617188 C 57 192.414062 57 193.613281 56.757812 194.414062 C 56.441406 195.292969 54.921875 196.648438 54.921875 196.648438 "/></clipPath><clipPath id="74318f67e0"><path d="M 42.640625 221.644531 L 68.652344 221.644531 L 68.652344 245.21875 L 42.640625 245.21875 Z M 42.640625 221.644531 "/></clipPath><clipPath id="31fe3f42f3"><path d="M 55.878906 230.453125 C 50.046875 232.691406 50.6875 234.929688 51.40625 235.808594 C 52.203125 236.6875 53.882812 237.085938 55.242188 237.246094 C 56.601562 237.328125 58.757812 237.40625 59.476562 236.609375 C 60.195312 235.808594 60.117188 233.492188 59.554688 232.453125 C 58.996094 231.414062 57.558594 230.695312 56.121094 230.214844 C 54.28125 229.574219 50.6875 230.535156 49.246094 229.65625 C 48.128906 228.9375 47.328125 227.578125 47.25 226.457031 C 47.167969 225.339844 47.96875 223.742188 48.6875 223.023438 C 49.328125 222.460938 50.285156 222.144531 51.085938 222.144531 C 51.882812 222.144531 52.921875 222.382812 53.5625 222.941406 C 54.363281 223.582031 55.242188 225.179688 55.160156 226.296875 C 55.160156 227.417969 54.203125 228.9375 53.324219 229.496094 C 52.683594 230.054688 51.644531 230.214844 50.847656 230.132812 C 50.046875 230.054688 49.085938 229.65625 48.527344 229.09375 C 47.890625 228.535156 47.410156 227.65625 47.25 226.859375 C 47.167969 226.058594 47.25 225.101562 47.648438 224.378906 C 47.96875 223.660156 48.527344 223.023438 49.488281 222.542969 C 50.925781 221.902344 53.800781 221.503906 56.039062 221.824219 C 58.519531 222.222656 61.554688 223.339844 63.632812 225.019531 C 65.710938 226.777344 67.789062 229.574219 68.347656 232.132812 C 68.90625 234.609375 68.1875 238.367188 67.148438 240.285156 C 66.429688 241.640625 65.152344 242.441406 64.03125 243.160156 C 62.914062 243.960938 61.632812 244.597656 60.355469 244.917969 C 59.078125 245.238281 57.878906 245.238281 56.359375 245.160156 C 54.121094 244.917969 50.445312 244.28125 48.449219 243.320312 C 47.089844 242.679688 46.210938 241.800781 45.25 240.761719 C 44.292969 239.722656 43.332031 238.445312 42.933594 236.847656 C 42.375 234.53125 42.695312 230.214844 43.574219 228.058594 C 44.210938 226.617188 45.332031 225.738281 46.371094 224.859375 C 47.488281 223.980469 48.6875 223.101562 50.207031 222.703125 C 52.042969 222.222656 55.242188 222.144531 56.839844 222.621094 C 57.878906 222.941406 58.675781 223.5 59.15625 224.222656 C 59.636719 224.941406 59.875 226.140625 59.796875 227.019531 C 59.796875 227.65625 59.636719 228.214844 59.15625 228.777344 C 58.519531 229.496094 55.878906 230.453125 55.878906 230.453125 "/></clipPath><clipPath id="9328e81d6f"><path d="M 52.394531 203.554688 L 85.414062 203.554688 L 85.414062 234.816406 L 52.394531 234.816406 Z M 52.394531 203.554688 "/></clipPath><clipPath id="26c0b3337e"><path d="M 52.523438 222.222656 C 58.519531 210.234375 60.675781 207.839844 62.273438 206.238281 C 63.472656 205.121094 64.351562 203.921875 65.628906 203.683594 C 66.910156 203.441406 68.425781 204.320312 70.023438 204.960938 C 72.261719 205.839844 75.300781 207.359375 77.617188 209.035156 C 79.855469 210.714844 82.492188 213.113281 83.769531 215.03125 C 84.730469 216.390625 85.367188 217.667969 85.367188 219.027344 C 85.367188 220.464844 85.050781 221.742188 83.929688 223.261719 C 81.453125 226.539062 70.824219 233.730469 67.628906 234.53125 C 66.507812 234.847656 65.789062 234.691406 65.070312 234.371094 C 64.351562 234.050781 63.550781 233.332031 63.234375 232.613281 C 62.832031 231.894531 62.59375 230.933594 62.753906 230.132812 C 62.832031 229.335938 63.234375 228.375 63.871094 227.816406 C 64.671875 227.175781 66.347656 226.539062 67.46875 226.777344 C 68.507812 226.9375 69.945312 228.136719 70.34375 229.09375 C 70.824219 230.132812 70.664062 231.894531 70.023438 232.851562 C 69.464844 233.8125 67.867188 234.691406 66.75 234.691406 C 65.628906 234.691406 64.03125 233.890625 63.390625 233.011719 C 62.753906 232.132812 62.433594 230.613281 62.914062 229.253906 C 63.953125 226.777344 70.585938 222.222656 73.382812 220.785156 C 74.898438 219.984375 77.058594 220.386719 77.296875 219.664062 C 77.457031 219.027344 75.859375 217.746094 74.582031 216.707031 C 72.261719 214.789062 63.953125 210.234375 64.03125 210.234375 C 64.03125 210.15625 67.46875 211.195312 67.628906 212.234375 C 67.949219 213.671875 63.953125 216.390625 62.59375 218.707031 C 61.234375 220.945312 60.59375 224.621094 59.316406 225.898438 C 58.519531 226.777344 57.636719 227.097656 56.757812 227.175781 C 55.878906 227.257812 54.761719 227.019531 54.042969 226.457031 C 53.324219 225.980469 52.683594 224.859375 52.523438 224.140625 C 52.285156 223.5 52.523438 222.222656 52.523438 222.222656 "/></clipPath><clipPath id="b8c8d9eb9b"><path d="M 50.085938 188.503906 L 100.242188 188.503906 L 100.242188 228.335938 L 50.085938 228.335938 Z M 50.085938 188.503906 "/></clipPath><clipPath id="07c2c63b93"><path d="M 53.644531 189.21875 C 65.949219 188.257812 68.746094 188.417969 71.382812 189.21875 C 74.019531 189.9375 76.179688 191.136719 78.816406 192.65625 C 82.011719 194.492188 86.328125 197.289062 89.125 199.765625 C 91.363281 201.765625 92.960938 203.441406 94.558594 206 C 96.476562 209.117188 98.476562 214.152344 99.355469 217.507812 C 99.914062 219.984375 100.3125 222.222656 99.992188 224.0625 C 99.753906 225.417969 99.195312 226.699219 98.394531 227.417969 C 97.753906 227.976562 96.71875 228.214844 95.917969 228.214844 C 95.117188 228.136719 94.160156 227.816406 93.519531 227.335938 C 92.882812 226.859375 92.320312 225.980469 92.160156 225.179688 C 91.921875 224.378906 91.921875 223.421875 92.320312 222.621094 C 92.800781 221.742188 94.160156 220.464844 95.199219 220.304688 C 96.316406 220.066406 97.996094 220.703125 98.792969 221.34375 C 99.433594 221.902344 99.832031 222.78125 99.992188 223.582031 C 100.074219 224.378906 99.992188 225.417969 99.515625 226.140625 C 98.953125 227.019531 97.355469 227.976562 96.398438 228.136719 C 95.519531 228.296875 94.558594 227.976562 93.917969 227.578125 C 93.199219 227.175781 92.722656 226.617188 92.242188 225.578125 C 91.28125 223.582031 91.363281 218.226562 90.242188 215.109375 C 89.203125 212.472656 88.085938 210.234375 86.089844 208 C 83.609375 205.199219 79.136719 202.164062 75.859375 200.246094 C 73.300781 198.648438 71.542969 197.289062 68.585938 196.648438 C 64.589844 195.851562 56.199219 197.527344 53.644531 197.128906 C 52.765625 196.96875 52.363281 196.890625 51.882812 196.492188 C 51.246094 195.929688 50.527344 194.890625 50.207031 194.171875 C 50.046875 193.535156 50.125 192.8125 50.207031 192.253906 C 50.367188 191.617188 50.605469 190.976562 51.085938 190.496094 C 51.644531 189.9375 53.644531 189.21875 53.644531 189.21875 "/></clipPath><clipPath id="c3d80c0e46"><path d="M 64.496094 216 L 99.71875 216 L 99.71875 243.363281 L 64.496094 243.363281 Z M 64.496094 216 "/></clipPath><clipPath id="1d8f0a10d3"><path d="M 69.785156 232.210938 C 80.414062 235.410156 81.613281 235.25 82.890625 234.847656 C 84.089844 234.449219 85.289062 233.570312 86.328125 232.773438 C 87.445312 231.972656 88.644531 231.011719 89.445312 229.894531 C 90.242188 228.855469 90.882812 227.816406 91.28125 226.378906 C 91.84375 224.300781 90.882812 220.386719 91.523438 218.785156 C 91.84375 217.828125 92.402344 217.1875 93.039062 216.707031 C 93.679688 216.308594 94.71875 215.988281 95.519531 216.070312 C 96.316406 216.070312 97.277344 216.46875 97.914062 216.949219 C 98.476562 217.507812 99.035156 218.386719 99.195312 219.1875 C 99.355469 219.984375 99.273438 220.945312 98.953125 221.742188 C 98.554688 222.460938 97.914062 223.183594 97.195312 223.582031 C 96.476562 223.902344 95.4375 224.222656 94.640625 223.980469 C 93.679688 223.742188 92.160156 222.703125 91.683594 221.742188 C 91.203125 220.703125 91.441406 218.867188 91.84375 217.988281 C 92.242188 217.1875 93.039062 216.628906 93.839844 216.308594 C 94.558594 215.988281 95.597656 215.910156 96.398438 216.148438 C 97.355469 216.550781 98.554688 217.507812 99.113281 218.785156 C 99.914062 220.703125 99.753906 224.621094 99.195312 227.417969 C 98.636719 230.054688 97.277344 232.851562 95.597656 235.007812 C 93.917969 237.167969 91.203125 239.003906 89.363281 240.363281 C 88.007812 241.242188 86.886719 241.882812 85.609375 242.363281 C 84.171875 242.839844 82.8125 243.242188 81.132812 243.242188 C 78.816406 243.320312 75.300781 242.679688 72.824219 242.042969 C 70.746094 241.480469 68.667969 240.601562 67.308594 239.804688 C 66.347656 239.246094 65.550781 238.765625 65.152344 238.046875 C 64.671875 237.246094 64.429688 236.128906 64.671875 235.25 C 64.832031 234.371094 65.390625 233.332031 66.109375 232.851562 C 66.988281 232.210938 69.785156 232.210938 69.785156 232.210938 "/></clipPath><clipPath id="c02289edf6"><path d="M 91.316406 146.097656 L 161.894531 146.097656 L 161.894531 231.628906 L 91.316406 231.628906 Z M 91.316406 146.097656 "/></clipPath><clipPath id="1451fdfed7"><path d="M 92.320312 225.179688 C 137.074219 172.355469 150.417969 151.179688 154.816406 147.503906 C 155.855469 146.625 156.253906 146.464844 157.050781 146.304688 C 157.851562 146.144531 158.890625 146.222656 159.609375 146.703125 C 160.488281 147.261719 161.527344 148.78125 161.6875 149.820312 C 161.765625 150.9375 160.96875 152.617188 160.25 153.335938 C 159.691406 153.894531 158.730469 154.214844 157.851562 154.214844 C 157.050781 154.296875 156.09375 154.054688 155.453125 153.578125 C 154.65625 152.855469 153.777344 151.257812 153.695312 150.21875 C 153.617188 149.339844 154.015625 148.460938 154.496094 147.824219 C 155.054688 147.183594 155.773438 146.542969 156.652344 146.382812 C 157.691406 146.222656 159.449219 146.625 160.328125 147.183594 C 160.96875 147.742188 161.449219 148.621094 161.609375 149.421875 C 161.765625 150.21875 161.765625 150.699219 161.289062 151.976562 C 159.128906 157.410156 142.429688 178.589844 132.039062 191.535156 C 121.332031 204.800781 103.269531 227.175781 97.996094 230.695312 C 96.796875 231.574219 96.238281 231.652344 95.359375 231.574219 C 94.480469 231.574219 93.359375 231.09375 92.722656 230.453125 C 92.082031 229.894531 91.601562 228.777344 91.523438 227.898438 C 91.441406 227.019531 92.320312 225.179688 92.320312 225.179688 "/></clipPath><clipPath id="0e11bd468d"><path d="M 151.609375 111 L 193.792969 111 L 193.792969 157.429688 L 151.609375 157.429688 Z M 151.609375 111 "/></clipPath><clipPath id="ce8dd8e9ac"><path d="M 152.175781 151.417969 C 163.925781 136.554688 182.625 115.296875 187.019531 112.101562 C 188.140625 111.382812 188.617188 111.140625 189.417969 111.0625 C 190.21875 111.0625 191.175781 111.222656 191.894531 111.699219 C 192.695312 112.339844 193.734375 113.859375 193.734375 114.976562 C 193.8125 116.015625 192.855469 117.613281 192.136719 118.332031 C 191.414062 118.894531 190.457031 119.054688 189.65625 119.054688 C 188.859375 119.054688 187.898438 118.734375 187.261719 118.175781 C 186.621094 117.695312 186.0625 116.816406 185.902344 116.097656 C 185.660156 115.296875 185.660156 114.257812 186.0625 113.539062 C 186.539062 112.578125 187.980469 111.460938 188.9375 111.140625 C 189.816406 110.902344 190.777344 111.140625 191.496094 111.460938 C 192.214844 111.859375 193.015625 112.5 193.332031 113.300781 C 193.734375 114.257812 193.894531 115.375 193.253906 117.054688 C 190.855469 122.890625 167.601562 143.988281 162.328125 150.539062 C 160.328125 153.097656 159.847656 155.015625 158.570312 156.132812 C 157.691406 156.851562 156.894531 157.253906 156.011719 157.332031 C 155.132812 157.410156 154.015625 157.09375 153.296875 156.613281 C 152.578125 156.054688 151.9375 155.09375 151.777344 154.214844 C 151.539062 153.335938 152.175781 151.417969 152.175781 151.417969 "/></clipPath><clipPath id="d4f7e614f0"><path d="M 147.566406 79.058594 L 195.289062 79.058594 L 195.289062 117.652344 L 147.566406 117.652344 Z M 147.566406 79.058594 "/></clipPath><clipPath id="f2aa6213e8"><path d="M 151.539062 79.09375 C 161.289062 80.535156 165.523438 82.292969 169.4375 84.289062 C 173.914062 86.609375 180.066406 90.285156 183.425781 93.320312 C 185.742188 95.476562 186.78125 97.15625 188.457031 99.792969 C 190.695312 103.308594 194.613281 110.101562 195.09375 112.820312 C 195.332031 113.9375 195.09375 114.65625 194.773438 115.375 C 194.453125 116.097656 193.734375 116.816406 193.015625 117.136719 C 192.292969 117.535156 191.257812 117.773438 190.457031 117.535156 C 189.417969 117.214844 187.980469 116.175781 187.5 115.21875 C 187.101562 114.179688 187.339844 112.339844 187.820312 111.460938 C 188.21875 110.660156 189.019531 110.101562 189.816406 109.863281 C 190.535156 109.542969 191.574219 109.464844 192.375 109.78125 C 193.332031 110.183594 194.691406 111.382812 195.011719 112.421875 C 195.332031 113.457031 195.011719 115.21875 194.292969 116.097656 C 193.652344 116.976562 191.894531 117.535156 190.855469 117.613281 C 190.058594 117.613281 189.417969 117.375 188.539062 116.574219 C 186.222656 114.496094 182.226562 103.949219 179.828125 100.914062 C 178.628906 99.472656 178.070312 99.152344 176.632812 98.117188 C 174.152344 96.277344 169.199219 93.160156 165.84375 91.480469 C 163.125 90.042969 160.886719 89.085938 158.171875 88.207031 C 155.214844 87.328125 150.339844 87.085938 148.820312 86.046875 C 148.101562 85.648438 147.941406 85.167969 147.78125 84.53125 C 147.542969 83.730469 147.542969 82.453125 147.78125 81.652344 C 148.023438 81.011719 148.339844 80.535156 148.902344 80.132812 C 149.539062 79.574219 151.539062 79.09375 151.539062 79.09375 "/></clipPath><clipPath id="8e81d5eee4"><path d="M 163.898438 75.835938 L 190.660156 75.835938 L 190.660156 99.660156 L 163.898438 99.660156 Z M 163.898438 75.835938 "/></clipPath><clipPath id="503dca0c24"><path d="M 167.28125 79.574219 C 182.625 75.738281 183.664062 75.660156 184.941406 76.140625 C 186.300781 76.539062 187.738281 77.496094 188.617188 78.617188 C 189.417969 79.65625 189.738281 80.773438 190.058594 82.613281 C 190.617188 85.808594 191.097656 94.121094 189.976562 96.835938 C 189.339844 98.195312 188.21875 99.074219 187.261719 99.394531 C 186.460938 99.714844 185.421875 99.554688 184.703125 99.234375 C 183.902344 98.996094 183.183594 98.273438 182.707031 97.636719 C 182.304688 96.917969 181.984375 95.957031 182.144531 95.160156 C 182.386719 94.121094 183.425781 92.601562 184.304688 92.042969 C 185.023438 91.5625 185.980469 91.480469 186.78125 91.640625 C 187.578125 91.722656 188.539062 92.203125 189.097656 92.839844 C 189.578125 93.398438 190.058594 94.359375 190.136719 95.160156 C 190.21875 95.957031 190.058594 96.917969 189.578125 97.636719 C 188.9375 98.433594 187.421875 99.394531 186.382812 99.554688 C 185.503906 99.632812 184.542969 99.3125 183.902344 98.835938 C 183.265625 98.433594 182.707031 97.875 182.386719 96.835938 C 181.585938 94.4375 183.742188 85.328125 182.226562 83.96875 C 181.347656 83.171875 179.589844 84.050781 178.070312 84.371094 C 175.832031 84.847656 172.554688 86.765625 170.398438 87.167969 C 168.960938 87.488281 167.679688 87.648438 166.640625 87.328125 C 165.761719 87.007812 164.964844 86.207031 164.484375 85.488281 C 164.085938 84.929688 163.925781 84.371094 163.925781 83.652344 C 164.003906 82.851562 164.324219 81.652344 164.882812 81.011719 C 165.445312 80.292969 167.28125 79.574219 167.28125 79.574219 "/></clipPath><clipPath id="78ee3dce7c"><path d="M 177.921875 61.816406 L 201.503906 61.816406 L 201.503906 84.277344 L 177.921875 84.277344 Z M 177.921875 61.816406 "/></clipPath><clipPath id="a7d7f61e2b"><path d="M 177.988281 74.78125 C 178.308594 68.867188 179.027344 67.667969 179.75 66.628906 C 180.546875 65.511719 181.425781 64.472656 182.546875 63.753906 C 183.742188 62.953125 185.34375 62.472656 186.78125 62.234375 C 188.140625 61.914062 189.496094 61.835938 190.777344 61.992188 C 192.136719 62.152344 193.492188 62.472656 194.691406 63.113281 C 195.890625 63.753906 197.011719 64.710938 197.96875 65.75 C 198.929688 66.867188 200.046875 68.226562 200.605469 69.503906 C 201.164062 70.785156 201.246094 72.144531 201.40625 73.582031 C 201.484375 75.019531 201.644531 76.777344 201.164062 78.136719 C 200.765625 79.414062 199.886719 80.535156 198.929688 81.492188 C 197.96875 82.371094 196.691406 83.089844 195.410156 83.492188 C 194.210938 83.96875 192.773438 84.050781 191.414062 84.128906 C 190.058594 84.289062 188.617188 84.371094 187.261719 84.050781 C 185.902344 83.730469 184.625 82.851562 183.503906 82.050781 C 182.386719 81.332031 180.945312 80.214844 180.46875 79.496094 C 180.148438 79.015625 180.308594 78.695312 180.066406 78.214844 C 179.667969 77.335938 177.988281 74.78125 177.988281 74.78125 M 186.300781 71.902344 C 186.382812 72.0625 186.382812 72.144531 186.382812 72.222656 C 186.382812 72.304688 186.460938 72.304688 186.460938 72.382812 C 186.460938 72.542969 186.460938 72.703125 186.460938 72.863281 C 186.460938 72.941406 186.542969 73.183594 186.542969 73.261719 C 186.542969 73.261719 186.460938 73.339844 186.460938 73.339844 C 186.460938 73.421875 186.460938 73.421875 186.460938 73.5 C 186.542969 73.582031 186.78125 73.742188 186.941406 73.902344 C 187.101562 74.140625 187.101562 74.378906 187.339844 74.699219 C 187.820312 75.179688 188.617188 76.058594 189.496094 76.21875 C 190.617188 76.457031 193.015625 76.21875 193.492188 75.417969 C 193.972656 74.621094 193.175781 72.382812 192.375 71.503906 C 191.574219 70.542969 189.578125 69.824219 188.457031 69.984375 C 187.578125 70.144531 186.300781 71.902344 186.300781 71.902344 "/></clipPath><clipPath id="55aee82057"><path d="M 185.6875 115.71875 L 241.429688 115.71875 L 241.429688 149.792969 L 185.6875 149.792969 Z M 185.6875 115.71875 "/></clipPath><clipPath id="453b2d7626"><path d="M 189.816406 115.777344 C 199.726562 117.613281 209.078125 120.8125 214.589844 123.128906 C 218.988281 124.886719 222.34375 126.164062 225.9375 128.800781 C 230.015625 131.679688 234.730469 137.195312 237.527344 140.308594 C 239.203125 142.226562 241.121094 143.746094 241.363281 145.265625 C 241.523438 146.542969 240.644531 147.980469 239.84375 148.703125 C 239.203125 149.339844 238.324219 149.660156 237.445312 149.582031 C 236.40625 149.5 234.730469 148.78125 234.089844 147.902344 C 233.449219 147.023438 233.210938 145.265625 233.609375 144.226562 C 234.011719 143.1875 235.449219 142.070312 236.40625 141.75 C 237.207031 141.429688 238.246094 141.507812 238.964844 141.910156 C 239.84375 142.46875 241.042969 143.90625 241.28125 144.867188 C 241.523438 145.664062 241.28125 146.703125 240.964844 147.421875 C 240.5625 148.140625 239.84375 148.859375 239.125 149.179688 C 238.40625 149.582031 237.6875 149.898438 236.566406 149.5 C 233.132812 148.460938 225.058594 137.351562 218.507812 133.4375 C 212.433594 129.683594 204.683594 127.84375 198.929688 126.003906 C 194.453125 124.566406 188.9375 124.328125 187.101562 122.730469 C 186.140625 122.011719 185.902344 121.050781 185.742188 120.25 C 185.660156 119.613281 185.742188 118.972656 186.0625 118.332031 C 186.382812 117.613281 187.261719 116.65625 187.898438 116.257812 C 188.457031 115.9375 189.816406 115.777344 189.816406 115.777344 "/></clipPath><clipPath id="6c1ed0ab75"><path d="M 233.273438 141.585938 L 276 141.585938 L 276 159.441406 L 233.273438 159.441406 Z M 233.273438 141.585938 "/></clipPath><clipPath id="ff9e232ada"><path d="M 239.925781 142.546875 C 246.15625 146.703125 248.476562 147.824219 251.832031 148.703125 C 257.34375 150.21875 271.492188 149.820312 274.527344 152.21875 C 275.726562 153.175781 275.964844 154.613281 275.964844 155.652344 C 275.964844 156.53125 275.484375 157.410156 274.925781 157.972656 C 274.445312 158.609375 273.488281 159.089844 272.6875 159.25 C 271.96875 159.410156 270.929688 159.328125 270.210938 158.851562 C 269.332031 158.371094 268.132812 156.933594 268.054688 155.8125 C 267.894531 154.773438 268.535156 153.097656 269.332031 152.296875 C 270.132812 151.578125 271.96875 151.257812 272.929688 151.417969 C 273.808594 151.578125 274.605469 152.21875 275.085938 152.777344 C 275.644531 153.417969 275.964844 154.375 275.964844 155.175781 C 275.964844 156.054688 275.726562 157.011719 275.246094 157.652344 C 274.765625 158.292969 274.289062 158.851562 273.167969 159.171875 C 269.652344 160.050781 256.464844 158.210938 250.3125 156.613281 C 245.757812 155.414062 241.761719 153.496094 238.886719 151.816406 C 236.886719 150.621094 234.96875 149.261719 234.171875 147.980469 C 233.53125 147.101562 233.292969 146.144531 233.371094 145.265625 C 233.449219 144.386719 234.011719 143.265625 234.648438 142.707031 C 235.289062 142.070312 236.40625 141.667969 237.285156 141.589844 C 238.164062 141.589844 239.925781 142.546875 239.925781 142.546875 "/></clipPath><clipPath id="b14dbc80d3"><path d="M 97.457031 220.429688 L 171.691406 220.429688 L 171.691406 261.734375 L 97.457031 261.734375 Z M 97.457031 220.429688 "/></clipPath><clipPath id="7cf0f3961b"><path d="M 101.589844 220.464844 C 125.40625 225.5 132.4375 228.375 135.875 230.054688 C 137.554688 230.855469 138.03125 231.253906 139.550781 232.210938 C 142.027344 233.96875 146.183594 237.085938 149.378906 239.804688 C 152.65625 242.519531 155.214844 245.957031 158.652344 248.59375 C 162.40625 251.390625 170.078125 253.628906 171.355469 256.105469 C 171.996094 257.386719 171.597656 258.902344 170.957031 259.863281 C 170.398438 260.742188 168.71875 261.539062 167.679688 261.699219 C 166.882812 261.78125 165.921875 261.460938 165.285156 260.902344 C 164.484375 260.183594 163.605469 258.664062 163.605469 257.546875 C 163.683594 256.425781 164.566406 254.90625 165.523438 254.269531 C 166.480469 253.710938 168.242188 253.710938 169.28125 254.027344 C 170.078125 254.269531 170.71875 254.988281 171.117188 255.707031 C 171.515625 256.425781 171.757812 257.386719 171.597656 258.265625 C 171.355469 259.222656 170.238281 260.742188 169.359375 261.300781 C 168.640625 261.699219 167.679688 261.859375 166.882812 261.621094 C 165.84375 261.300781 165.042969 259.621094 163.925781 259.222656 C 162.886719 258.824219 161.765625 259.621094 160.488281 259.304688 C 158.570312 258.742188 156.332031 256.824219 153.695312 254.828125 C 149.539062 251.632812 142.746094 244.519531 138.511719 241.324219 C 135.714844 239.246094 134.035156 238.285156 131.238281 236.847656 C 127.804688 235.089844 123.726562 233.410156 119.171875 232.050781 C 113.5 230.375 102.46875 229.734375 99.515625 227.976562 C 98.394531 227.335938 97.914062 226.617188 97.675781 225.820312 C 97.355469 224.941406 97.4375 223.742188 97.753906 222.941406 C 98.074219 222.144531 98.953125 221.265625 99.671875 220.863281 C 100.234375 220.542969 101.589844 220.464844 101.589844 220.464844 "/></clipPath><clipPath id="bb231100c3"><path d="M 155.851562 250.738281 L 207.25 250.738281 L 207.25 268.589844 L 155.851562 268.589844 Z M 155.851562 250.738281 "/></clipPath><clipPath id="2a20ea2a58"><path d="M 161.128906 250.992188 C 181.507812 258.265625 193.734375 257.464844 199.488281 259.304688 C 202.921875 260.34375 206.28125 261.78125 207.078125 263.460938 C 207.558594 264.578125 206.917969 266.257812 206.199219 267.136719 C 205.480469 267.933594 203.800781 268.574219 202.765625 268.492188 C 201.644531 268.332031 200.207031 267.292969 199.648438 266.335938 C 199.167969 265.375 199.167969 263.539062 199.648438 262.578125 C 200.207031 261.621094 201.804688 260.660156 202.765625 260.503906 C 203.644531 260.34375 204.601562 260.660156 205.320312 261.0625 C 205.960938 261.460938 206.679688 262.179688 206.917969 263.058594 C 207.238281 264.019531 207.078125 265.855469 206.519531 266.734375 C 205.878906 267.695312 204.203125 268.414062 203.164062 268.492188 C 202.285156 268.574219 201.40625 268.175781 200.765625 267.613281 C 200.125 267.136719 199.40625 265.457031 199.328125 265.535156 C 199.246094 265.535156 200.605469 267.375 200.285156 267.773438 C 199.648438 268.492188 194.933594 266.414062 191.894531 266.015625 C 188.21875 265.617188 183.664062 265.9375 179.667969 265.375 C 175.511719 264.898438 171.277344 264.179688 167.363281 262.738281 C 163.527344 261.300781 157.773438 258.503906 156.414062 256.746094 C 155.855469 256.105469 155.855469 255.628906 155.855469 254.90625 C 155.855469 254.109375 156.253906 252.910156 156.8125 252.269531 C 157.371094 251.550781 158.410156 250.992188 159.210938 250.832031 C 159.847656 250.671875 161.128906 250.992188 161.128906 250.992188 "/></clipPath><clipPath id="4a72cb2376"><path d="M 195.070312 259.125 L 213.652344 259.125 L 213.652344 297 L 195.070312 297 Z M 195.070312 259.125 "/></clipPath><clipPath id="23b2c39b2f"><path d="M 210.996094 266.894531 C 204.523438 271.050781 203.5625 274.808594 203.164062 276.964844 C 202.84375 278.5625 202.765625 279.839844 203.082031 281.199219 C 203.324219 282.480469 203.882812 283.597656 204.839844 284.875 C 206.039062 286.632812 209.398438 288.953125 210.355469 290.550781 C 210.914062 291.429688 211.15625 292.148438 211.15625 292.949219 C 211.15625 293.746094 210.914062 294.707031 210.355469 295.34375 C 209.714844 296.144531 208.039062 296.941406 207 296.941406 C 206.121094 296.941406 205.242188 296.542969 204.601562 295.984375 C 203.960938 295.503906 203.402344 294.707031 203.324219 293.828125 C 203.164062 292.789062 203.644531 291.03125 204.28125 290.230469 C 204.839844 289.589844 205.71875 289.191406 206.519531 289.03125 C 207.320312 288.871094 208.359375 289.03125 209.078125 289.429688 C 209.796875 289.832031 210.515625 290.550781 210.835938 291.269531 C 211.15625 291.988281 211.316406 293.027344 211.074219 293.828125 C 210.753906 294.785156 209.636719 296.222656 208.675781 296.703125 C 207.878906 297.023438 207.078125 297.101562 206.121094 296.785156 C 204.441406 296.222656 201.484375 293.1875 199.886719 291.589844 C 198.847656 290.390625 198.207031 289.429688 197.488281 288.3125 C 196.769531 287.113281 195.972656 286.15625 195.570312 284.636719 C 195.011719 282.480469 195.011719 278.644531 195.171875 276.40625 C 195.332031 274.726562 195.570312 273.6875 196.128906 272.089844 C 196.851562 269.933594 198.128906 266.414062 199.566406 264.578125 C 200.527344 263.300781 201.566406 262.738281 202.921875 261.941406 C 204.601562 260.902344 207.398438 259.382812 208.996094 259.222656 C 210.117188 259.144531 211.074219 259.304688 211.792969 259.863281 C 212.59375 260.503906 213.390625 262.179688 213.550781 263.140625 C 213.632812 263.859375 213.390625 264.417969 213.074219 265.058594 C 212.671875 265.695312 210.996094 266.894531 210.996094 266.894531 "/></clipPath><clipPath id="8c268ea040"><path d="M 203.125 257.351562 L 255.25 257.351562 L 255.25 291.785156 L 203.125 291.785156 Z M 203.125 257.351562 "/></clipPath><clipPath id="7f365fb77c"><path d="M 205.640625 260.101562 C 213.871094 257.703125 218.667969 257.144531 222.980469 257.703125 C 228.097656 258.34375 234.808594 260.261719 239.285156 262.738281 C 243.039062 264.816406 245.996094 267.933594 248.394531 270.8125 C 250.472656 273.289062 252.152344 275.847656 253.269531 278.644531 C 254.386719 281.359375 255.1875 285.277344 255.1875 287.351562 C 255.1875 288.390625 255.027344 289.113281 254.628906 289.832031 C 254.148438 290.46875 253.429688 291.1875 252.628906 291.429688 C 251.671875 291.75 249.832031 291.507812 248.953125 291.03125 C 248.15625 290.628906 247.675781 289.75 247.355469 288.953125 C 247.117188 288.234375 247.035156 287.195312 247.4375 286.472656 C 247.835938 285.515625 249.195312 284.238281 250.152344 283.917969 C 250.953125 283.597656 251.910156 283.757812 252.710938 283.996094 C 253.429688 284.316406 254.230469 285.035156 254.628906 285.675781 C 255.027344 286.394531 255.269531 287.351562 255.1875 288.152344 C 255.027344 288.953125 254.628906 289.910156 254.070312 290.46875 C 253.507812 291.109375 252.628906 291.589844 251.832031 291.667969 C 250.792969 291.75 249.195312 291.429688 248.234375 290.46875 C 246.714844 288.792969 247.195312 283.835938 245.597656 280.800781 C 243.761719 277.363281 239.925781 273.046875 237.527344 271.128906 C 236.167969 270.011719 235.449219 269.851562 233.769531 269.132812 C 230.972656 268.015625 226.179688 266.015625 221.941406 265.695312 C 216.988281 265.21875 208.675781 268.414062 205.878906 267.535156 C 204.683594 267.214844 204.121094 266.414062 203.722656 265.777344 C 203.324219 265.21875 203.164062 264.496094 203.164062 263.9375 C 203.164062 263.300781 203.242188 262.660156 203.5625 262.019531 C 203.960938 261.300781 205.640625 260.101562 205.640625 260.101562 "/></clipPath><clipPath id="bb07757383"><path d="M 221.023438 283.84375 L 255.238281 283.84375 L 255.238281 309.441406 L 221.023438 309.441406 Z M 221.023438 283.84375 "/></clipPath><clipPath id="26d067c6db"><path d="M 225.460938 299.660156 C 236.566406 301.5 237.6875 301.339844 238.964844 300.9375 C 240.242188 300.539062 241.601562 299.898438 242.640625 299.019531 C 243.679688 298.140625 244.558594 297.261719 245.277344 295.824219 C 246.398438 293.585938 246.476562 288.3125 247.4375 286.394531 C 247.914062 285.433594 248.394531 284.875 249.035156 284.476562 C 249.753906 283.996094 250.710938 283.757812 251.589844 283.917969 C 252.550781 284.078125 254.148438 285.035156 254.628906 285.996094 C 255.1875 286.953125 255.109375 288.792969 254.707031 289.75 C 254.308594 290.550781 253.589844 291.1875 252.789062 291.507812 C 252.070312 291.828125 251.113281 291.988281 250.3125 291.75 C 249.273438 291.507812 247.914062 290.308594 247.4375 289.351562 C 247.035156 288.632812 247.035156 287.59375 247.277344 286.792969 C 247.515625 285.996094 247.996094 285.195312 248.714844 284.714844 C 249.59375 284.15625 251.351562 283.757812 252.390625 284.078125 C 253.429688 284.398438 254.546875 285.59375 254.949219 286.792969 C 255.507812 288.234375 254.867188 290.230469 254.46875 292.226562 C 254.070312 294.546875 253.429688 297.582031 252.152344 299.898438 C 250.871094 302.136719 248.554688 304.535156 246.796875 305.972656 C 245.4375 306.933594 244.480469 307.492188 242.882812 308.050781 C 240.722656 308.769531 237.6875 309.488281 234.730469 309.410156 C 231.375 309.410156 226.019531 308.449219 223.859375 307.492188 C 222.742188 306.933594 222.101562 306.453125 221.625 305.652344 C 221.222656 304.855469 220.984375 303.734375 221.222656 302.855469 C 221.382812 301.976562 222.023438 301.019531 222.742188 300.460938 C 223.460938 299.898438 225.460938 299.660156 225.460938 299.660156 "/></clipPath><clipPath id="4f23b3eeea"><path d="M 200.507812 290.722656 L 224.3125 290.722656 L 224.3125 313.074219 L 200.507812 313.074219 Z M 200.507812 290.722656 "/></clipPath><clipPath id="ad943e8bb4"><path d="M 214.671875 299.339844 C 208.359375 299.421875 208.199219 301.660156 208.675781 302.777344 C 209.15625 303.816406 210.675781 304.695312 211.875 305.09375 C 213.152344 305.492188 215.46875 305.8125 215.949219 305.09375 C 216.667969 304.054688 214.910156 298.941406 213.550781 298.140625 C 212.59375 297.582031 210.835938 299.019531 209.875 298.78125 C 208.996094 298.542969 208.277344 297.902344 207.796875 297.183594 C 207.398438 296.542969 207.078125 295.585938 207.160156 294.785156 C 207.160156 293.988281 207.558594 293.027344 208.039062 292.386719 C 208.597656 291.75 209.476562 291.269531 210.195312 291.03125 C 210.996094 290.871094 212.035156 290.871094 212.753906 291.347656 C 213.710938 291.828125 214.832031 293.1875 215.070312 294.304688 C 215.230469 295.34375 214.671875 297.101562 213.871094 297.824219 C 213.074219 298.621094 211.316406 299.019531 210.277344 298.859375 C 209.398438 298.78125 208.597656 298.140625 208.117188 297.582031 C 207.558594 296.941406 207.078125 296.0625 207.160156 295.183594 C 207.160156 294.144531 207.636719 292.46875 208.675781 291.828125 C 210.035156 290.871094 213.390625 291.03125 215.230469 291.429688 C 216.75 291.75 217.867188 292.386719 218.988281 293.507812 C 220.664062 295.105469 222.824219 298.460938 223.621094 300.621094 C 224.179688 302.21875 224.261719 303.734375 224.179688 305.175781 C 224.101562 306.53125 223.703125 307.972656 222.980469 309.089844 C 222.183594 310.289062 221.0625 311.40625 219.464844 312.046875 C 217.386719 313.007812 213.390625 313.164062 211.074219 313.007812 C 209.476562 312.847656 208.277344 312.527344 207 311.96875 C 205.800781 311.328125 204.601562 310.527344 203.644531 309.570312 C 202.683594 308.609375 201.882812 307.652344 201.40625 306.132812 C 200.6875 304.136719 200.367188 300.300781 200.6875 298.140625 C 201.003906 296.542969 201.644531 295.183594 202.523438 294.144531 C 203.402344 293.105469 204.683594 292.308594 205.960938 291.75 C 207.238281 291.1875 208.515625 290.871094 210.117188 290.789062 C 212.035156 290.710938 215.070312 290.949219 216.589844 291.589844 C 217.546875 292.070312 218.265625 292.628906 218.667969 293.507812 C 219.144531 294.464844 219.144531 296.222656 218.667969 297.183594 C 218.265625 298.0625 217.308594 298.78125 216.589844 299.101562 C 215.949219 299.339844 214.671875 299.339844 214.671875 299.339844 "/></clipPath><clipPath id="ff8fe2d02c"><path d="M 207.371094 272.164062 L 238.289062 272.164062 L 238.289062 294 L 207.371094 294 Z M 207.371094 272.164062 "/></clipPath><clipPath id="3e08065312"><path d="M 207.398438 289.113281 C 213.074219 273.929688 213.871094 272.96875 215.308594 272.410156 C 217.308594 271.769531 221.304688 272.648438 223.460938 273.207031 C 225.058594 273.527344 225.859375 273.929688 227.296875 274.726562 C 229.296875 275.847656 232.253906 278.003906 234.171875 279.761719 C 235.6875 281.28125 237.527344 283.199219 238.007812 284.636719 C 238.324219 285.515625 238.40625 286.394531 238.085938 287.195312 C 237.6875 288.152344 236.40625 289.511719 235.367188 289.832031 C 234.328125 290.152344 232.570312 289.671875 231.691406 289.03125 C 230.972656 288.550781 230.574219 287.671875 230.335938 286.875 C 230.175781 286.15625 230.175781 285.117188 230.574219 284.398438 C 231.054688 283.4375 232.410156 282.238281 233.53125 282 C 234.570312 281.839844 236.328125 282.398438 237.128906 283.199219 C 237.847656 283.917969 238.40625 285.675781 238.164062 286.714844 C 237.925781 287.832031 236.726562 289.191406 235.769531 289.671875 C 235.050781 290.070312 234.328125 290.152344 233.210938 289.832031 C 230.8125 289.113281 225.621094 282.558594 222.742188 281.359375 C 221.144531 280.71875 219.625 280.242188 218.425781 280.960938 C 216.589844 282.238281 215.949219 289.910156 214.910156 291.828125 C 214.429688 292.628906 214.113281 292.949219 213.632812 293.265625 C 213.152344 293.667969 212.511719 293.90625 211.875 293.988281 C 211.074219 294.066406 209.796875 293.746094 209.078125 293.347656 C 208.519531 293.027344 208.117188 292.546875 207.796875 291.910156 C 207.480469 291.1875 207.398438 289.113281 207.398438 289.113281 "/></clipPath><clipPath id="2f0c6ab2be"><path d="M 219.378906 281.929688 L 238.234375 281.929688 L 238.234375 303 L 219.378906 303 Z M 219.378906 281.929688 "/></clipPath><clipPath id="7f8f884f60"><path d="M 237.207031 288.710938 C 224.261719 303.015625 223.542969 303.015625 222.824219 302.855469 C 222.023438 302.695312 221.0625 302.296875 220.503906 301.65625 C 219.867188 300.859375 219.386719 299.019531 219.546875 298.0625 C 219.707031 297.183594 220.265625 296.382812 220.90625 295.824219 C 221.542969 295.34375 222.503906 294.945312 223.300781 294.945312 C 224.101562 294.867188 225.058594 295.105469 225.777344 295.664062 C 226.578125 296.304688 227.457031 297.824219 227.457031 298.941406 C 227.457031 300.058594 226.5 301.578125 225.699219 302.21875 C 224.980469 302.777344 224.019531 302.9375 223.222656 302.9375 C 222.421875 302.855469 221.464844 302.457031 220.824219 301.976562 C 220.265625 301.417969 219.707031 300.539062 219.546875 299.738281 C 219.386719 298.941406 219.386719 298.300781 219.867188 297.183594 C 221.0625 294.304688 228.734375 285.355469 231.292969 283.277344 C 232.332031 282.398438 232.972656 282.078125 233.851562 282 C 234.730469 281.917969 235.847656 282.238281 236.566406 282.71875 C 237.285156 283.277344 238.007812 284.15625 238.164062 285.117188 C 238.324219 286.15625 237.207031 288.710938 237.207031 288.710938 "/></clipPath><clipPath id="f6a2af1763"><path d="M 248.089844 215.203125 L 300.644531 215.203125 L 300.644531 294.953125 L 248.089844 294.953125 Z M 248.089844 215.203125 "/></clipPath><clipPath id="cb8639563b"><path d="M 248.316406 289.511719 C 263.660156 261.699219 278.28125 238.765625 285.074219 228.695312 C 288.671875 223.339844 291.550781 218.308594 293.707031 216.550781 C 294.585938 215.75 295.144531 215.511719 295.945312 215.429688 C 296.742188 215.269531 297.78125 215.511719 298.5 215.910156 C 299.140625 216.308594 299.859375 217.109375 300.179688 217.828125 C 300.5 218.546875 300.578125 219.585938 300.339844 220.386719 C 300.019531 221.34375 298.742188 222.703125 297.78125 223.101562 C 297.0625 223.5 296.023438 223.5 295.226562 223.183594 C 294.265625 222.78125 292.988281 221.582031 292.667969 220.542969 C 292.347656 219.425781 292.828125 217.667969 293.386719 216.867188 C 293.867188 216.148438 294.746094 215.671875 295.542969 215.511719 C 296.34375 215.269531 297.382812 215.429688 298.101562 215.75 C 298.820312 216.070312 299.621094 216.628906 299.941406 217.429688 C 300.417969 218.386719 300.578125 219.347656 300.019531 221.183594 C 297.78125 228.9375 272.449219 262.820312 264.617188 276.003906 C 260.382812 283.117188 257.746094 290.308594 255.425781 292.949219 C 254.546875 293.90625 253.988281 294.386719 253.191406 294.625 C 252.3125 294.867188 251.113281 294.785156 250.3125 294.386719 C 249.515625 293.988281 248.714844 293.1875 248.394531 292.308594 C 248.074219 291.507812 248.316406 289.511719 248.316406 289.511719 "/></clipPath><clipPath id="55c7bc5f0a"><path d="M 291 163.914062 L 332.460938 163.914062 L 332.460938 226.113281 L 291 226.113281 Z M 291 163.914062 "/></clipPath><clipPath id="46dbdb324d"><path d="M 291.308594 220.945312 C 306.171875 193.613281 321.039062 170.117188 324.792969 165.804688 C 325.753906 164.84375 325.992188 164.445312 326.792969 164.203125 C 327.75 163.886719 329.589844 164.046875 330.46875 164.605469 C 331.265625 165.003906 331.746094 165.882812 332.066406 166.601562 C 332.304688 167.402344 332.386719 168.359375 332.066406 169.160156 C 331.585938 170.117188 330.386719 171.476562 329.269531 171.71875 C 328.230469 172.035156 326.472656 171.558594 325.671875 170.917969 C 324.953125 170.4375 324.472656 169.558594 324.3125 168.761719 C 324.234375 167.722656 324.554688 165.964844 325.351562 165.164062 C 326.152344 164.363281 327.910156 163.886719 328.871094 163.964844 C 329.75 164.046875 330.628906 164.605469 331.1875 165.164062 C 331.746094 165.722656 332.144531 166.601562 332.226562 167.480469 C 332.304688 168.601562 331.824219 169.558594 330.945312 171.476562 C 328.070312 177.550781 313.605469 196.96875 307.691406 206.878906 C 303.617188 213.832031 300.578125 222.460938 298.023438 224.941406 C 297.0625 225.820312 296.34375 226.058594 295.464844 226.058594 C 294.585938 226.140625 293.386719 225.820312 292.746094 225.257812 C 292.027344 224.699219 291.46875 223.660156 291.230469 222.863281 C 291.070312 222.222656 291.308594 220.945312 291.308594 220.945312 "/></clipPath><clipPath id="4616207d22"><path d="M 271.433594 134.734375 L 332.964844 134.734375 L 332.964844 170.335938 L 271.433594 170.335938 Z M 271.433594 134.734375 "/></clipPath><clipPath id="4515eb9c8a"><path d="M 271.730469 152.695312 C 276.285156 144.386719 279.960938 139.429688 282.199219 137.511719 C 283.476562 136.394531 284.035156 135.914062 285.636719 135.515625 C 288.433594 134.714844 293.785156 134.554688 298.023438 135.355469 C 302.898438 136.316406 308.730469 139.191406 313.285156 141.589844 C 317.203125 143.667969 321.117188 146.144531 323.753906 148.703125 C 325.992188 150.777344 327.269531 152.695312 328.710938 155.253906 C 330.386719 158.292969 332.785156 163.726562 332.863281 166.042969 C 332.945312 167.160156 332.625 167.882812 332.144531 168.519531 C 331.667969 169.160156 330.867188 169.800781 330.066406 170.039062 C 329.347656 170.277344 328.308594 170.277344 327.511719 169.957031 C 326.792969 169.71875 325.914062 169.160156 325.511719 168.359375 C 325.035156 167.480469 324.875 165.644531 325.191406 164.683594 C 325.433594 163.886719 326.152344 163.164062 326.871094 162.765625 C 327.589844 162.367188 328.550781 162.046875 329.429688 162.285156 C 330.386719 162.445312 331.984375 163.40625 332.464844 164.445312 C 332.945312 165.402344 332.945312 167.160156 332.386719 168.199219 C 331.824219 169.160156 330.226562 170.039062 329.269531 170.199219 C 328.390625 170.359375 327.589844 170.277344 326.792969 169.640625 C 324.714844 167.960938 322.234375 159.25 320.238281 156.53125 C 319.199219 155.09375 318.480469 154.613281 317.203125 153.578125 C 315.363281 152.136719 313.125 150.539062 310.25 149.019531 C 306.253906 146.941406 299.539062 143.507812 295.144531 142.949219 C 292.027344 142.546875 289.390625 142.386719 286.753906 143.90625 C 283.15625 146.144531 279.640625 156.375 277.085938 157.890625 C 276.046875 158.449219 275.085938 158.292969 274.289062 158.050781 C 273.648438 157.972656 273.089844 157.570312 272.609375 157.09375 C 272.128906 156.691406 271.730469 156.132812 271.570312 155.492188 C 271.410156 154.695312 271.730469 152.695312 271.730469 152.695312 "/></clipPath><clipPath id="d69642ecec"><path d="M 201 196.460938 L 249.863281 196.460938 L 249.863281 267.550781 L 201 267.550781 Z M 201 196.460938 "/></clipPath><clipPath id="e5efda9c83"><path d="M 201.40625 261.539062 C 243.28125 197.449219 243.519531 197.128906 244.320312 196.890625 C 245.359375 196.570312 247.117188 196.808594 248.074219 197.289062 C 248.792969 197.6875 249.355469 198.488281 249.59375 199.367188 C 249.832031 200.328125 249.671875 202.164062 248.953125 203.042969 C 248.316406 203.921875 246.636719 204.5625 245.597656 204.5625 C 244.71875 204.640625 243.839844 204.242188 243.199219 203.683594 C 242.480469 202.882812 241.761719 201.207031 241.84375 200.167969 C 241.84375 199.289062 242.320312 198.410156 242.882812 197.847656 C 243.441406 197.289062 244.398438 196.808594 245.199219 196.648438 C 245.996094 196.570312 246.957031 196.730469 247.675781 197.050781 C 248.394531 197.449219 249.113281 198.167969 249.433594 198.96875 C 249.753906 199.925781 249.753906 201.046875 249.195312 202.644531 C 247.914062 206.558594 240.882812 214.390625 236.808594 220.863281 C 232.410156 227.816406 228.417969 235.648438 223.703125 243 C 218.746094 250.671875 211.15625 263.140625 207.957031 266.015625 C 206.917969 266.976562 206.28125 267.214844 205.402344 267.375 C 204.523438 267.453125 203.402344 267.136719 202.683594 266.65625 C 201.964844 266.175781 201.246094 265.21875 201.085938 264.339844 C 200.847656 263.457031 201.40625 261.539062 201.40625 261.539062 "/></clipPath><clipPath id="bb62e3f705"><path d="M 239.777344 151 L 279.804688 151 L 279.804688 208 L 239.777344 208 Z M 239.777344 151 "/></clipPath><clipPath id="545730eb07"><path d="M 240.324219 202.085938 C 262.621094 165.082031 265.65625 160.449219 268.375 157.09375 C 270.210938 154.773438 271.890625 152.617188 273.410156 151.738281 C 274.289062 151.179688 275.007812 150.9375 275.886719 151.019531 C 276.925781 151.179688 278.523438 152.058594 279.082031 152.9375 C 279.640625 153.894531 279.640625 155.734375 279.242188 156.691406 C 279.003906 157.492188 278.28125 158.210938 277.484375 158.53125 C 276.523438 158.929688 274.765625 159.089844 273.726562 158.53125 C 272.769531 158.050781 271.890625 156.453125 271.648438 155.414062 C 271.492188 154.613281 271.808594 153.65625 272.210938 152.9375 C 272.609375 152.296875 273.328125 151.578125 274.207031 151.339844 C 275.167969 151.019531 277.003906 151.179688 277.882812 151.738281 C 278.601562 152.136719 279.164062 153.015625 279.402344 153.734375 C 279.722656 154.535156 279.800781 155.175781 279.402344 156.292969 C 278.363281 159.410156 271.96875 165.644531 267.65625 172.035156 C 261.421875 181.226562 250.710938 202.964844 246.71875 206.640625 C 245.679688 207.679688 245.117188 207.839844 244.238281 207.917969 C 243.359375 208.078125 242.160156 207.757812 241.441406 207.199219 C 240.722656 206.71875 240.082031 205.761719 239.925781 204.882812 C 239.683594 204.003906 240.324219 202.085938 240.324219 202.085938 "/></clipPath><clipPath id="066f72ea81"><path d="M 301.007812 127.675781 L 325.691406 127.675781 L 325.691406 151.3125 L 301.007812 151.3125 Z M 301.007812 127.675781 "/></clipPath><clipPath id="36dfe35c69"><path d="M 301.058594 136.792969 C 305.214844 130.878906 306.332031 130.242188 307.53125 129.601562 C 308.730469 128.960938 310.167969 128.402344 311.527344 128.082031 C 312.804688 127.84375 314.246094 127.683594 315.601562 127.84375 C 316.960938 128.082031 318.480469 128.644531 319.679688 129.363281 C 320.957031 130.082031 322.15625 131.121094 323.035156 132.238281 C 323.753906 133.359375 324.152344 134.636719 324.554688 135.914062 C 325.035156 137.195312 325.433594 138.3125 325.511719 139.910156 C 325.671875 142.308594 325.59375 147.023438 324.792969 148.78125 C 324.394531 149.742188 323.835938 150.300781 323.117188 150.699219 C 322.394531 151.097656 321.4375 151.417969 320.636719 151.257812 C 319.597656 151.019531 318.082031 150.058594 317.519531 149.101562 C 317.042969 148.140625 317.042969 146.304688 317.601562 145.34375 C 318.160156 144.386719 319.679688 143.425781 320.71875 143.265625 C 321.835938 143.1875 323.515625 143.90625 324.234375 144.707031 C 324.875 145.585938 325.273438 147.34375 324.953125 148.382812 C 324.632812 149.421875 323.273438 150.699219 322.316406 151.097656 C 321.515625 151.417969 320.558594 151.339844 319.757812 151.019531 C 319.039062 150.777344 318.242188 150.378906 317.761719 149.5 C 316.960938 147.824219 317.839844 143.1875 317.519531 140.871094 C 317.28125 139.269531 317.363281 137.59375 316.480469 136.792969 C 315.601562 135.996094 313.683594 135.835938 312.40625 136.15625 C 311.207031 136.394531 309.847656 137.59375 309.050781 138.472656 C 308.25 139.351562 308.171875 140.710938 307.371094 141.347656 C 306.652344 141.988281 305.613281 142.386719 304.734375 142.308594 C 303.695312 142.226562 302.019531 141.429688 301.457031 140.550781 C 300.820312 139.589844 301.058594 136.792969 301.058594 136.792969 "/></clipPath><clipPath id="3cb22236f1"><path d="M 311.140625 115.15625 L 334.480469 115.15625 L 334.480469 139.195312 L 311.140625 139.195312 Z M 311.140625 115.15625 "/></clipPath><clipPath id="33b0cceaaa"><path d="M 311.367188 130.480469 C 311.046875 124.085938 311.289062 122.648438 311.847656 121.371094 C 312.328125 120.171875 313.046875 118.972656 314.003906 118.015625 C 314.964844 117.054688 316.480469 116.175781 317.761719 115.695312 C 319.121094 115.296875 320.558594 115.21875 321.917969 115.21875 C 323.195312 115.296875 324.472656 115.296875 325.914062 115.9375 C 327.988281 116.894531 331.425781 119.371094 332.785156 121.210938 C 333.742188 122.488281 333.984375 123.929688 334.222656 125.285156 C 334.464844 126.566406 334.464844 127.921875 334.222656 129.28125 C 333.984375 130.71875 333.742188 132.238281 332.707031 133.515625 C 331.347656 135.277344 327.910156 137.351562 325.914062 138.234375 C 324.554688 138.871094 323.355469 139.191406 322.15625 139.113281 C 320.957031 139.113281 319.359375 138.710938 318.558594 137.992188 C 317.921875 137.433594 317.601562 136.554688 317.441406 135.753906 C 317.363281 134.957031 317.441406 133.917969 318 133.199219 C 318.558594 132.398438 320 131.28125 321.117188 131.199219 C 322.234375 131.121094 323.835938 131.839844 324.554688 132.71875 C 325.273438 133.597656 325.59375 135.355469 325.273438 136.394531 C 324.875 137.433594 323.59375 138.710938 322.554688 139.03125 C 321.515625 139.351562 319.757812 139.03125 318.878906 138.3125 C 318.082031 137.59375 317.441406 135.914062 317.441406 134.875 C 317.441406 133.996094 317.761719 133.199219 318.480469 132.558594 C 319.519531 131.519531 322.394531 131.441406 323.753906 130.402344 C 324.875 129.523438 326.230469 128.164062 326.230469 127.042969 C 326.230469 126.003906 324.875 124.40625 323.753906 123.929688 C 322.636719 123.367188 320.316406 123.207031 319.519531 124.007812 C 318.480469 124.964844 319.679688 129.203125 319.121094 130.800781 C 318.71875 131.839844 318.242188 132.636719 317.363281 133.039062 C 316.480469 133.597656 314.722656 133.757812 313.683594 133.359375 C 312.726562 132.957031 311.367188 130.480469 311.367188 130.480469 "/></clipPath></defs><g id="bf29043d55"><g clip-rule="nonzero" clip-path="url(#5b76803969)"><g clip-rule="nonzero" clip-path="url(#cc56441234)"><path style=" stroke:none;fill-rule:nonzero;fill:currentColor;fill-opacity:1;" d="M 49.566406 78.136719 L 156.574219 78.136719 L 156.574219 197.683594 L 49.566406 197.683594 Z M 49.566406 78.136719 "/></g></g><g clip-rule="nonzero" clip-path="url(#9223244460)"><g clip-rule="nonzero" clip-path="url(#c5373b2079)"><path style=" stroke:none;fill-rule:nonzero;fill:currentColor;fill-opacity:1;" d="M 37.5 186.339844 L 59.957031 186.339844 L 59.957031 231.691406 L 37.5 231.691406 Z M 37.5 186.339844 "/></g></g><g clip-rule="nonzero" clip-path="url(#74318f67e0)"><g clip-rule="nonzero" clip-path="url(#31fe3f42f3)"><path style=" stroke:none;fill-rule:nonzero;fill:currentColor;fill-opacity:1;" d="M 39.738281 218.625 L 71.671875 218.625 L 71.671875 248.355469 L 39.738281 248.355469 Z M 39.738281 218.625 "/></g></g><g clip-rule="nonzero" clip-path="url(#9328e81d6f)"><g clip-rule="nonzero" clip-path="url(#26c0b3337e)"><path style=" stroke:none;fill-rule:nonzero;fill:currentColor;fill-opacity:1;" d="M 49.328125 200.484375 L 88.625 200.484375 L 88.625 237.886719 L 49.328125 237.886719 Z M 49.328125 200.484375 "/></g></g><g clip-rule="nonzero" clip-path="url(#b8c8d9eb9b)"><g clip-rule="nonzero" clip-path="url(#07c2c63b93)"><path style=" stroke:none;fill-rule:nonzero;fill:currentColor;fill-opacity:1;" d="M 47.011719 185.0625 L 103.136719 185.0625 L 103.136719 231.414062 L 47.011719 231.414062 Z M 47.011719 185.0625 "/></g></g><g clip-rule="nonzero" clip-path="url(#c3d80c0e46)"><g clip-rule="nonzero" clip-path="url(#1d8f0a10d3)"><path style=" stroke:none;fill-rule:nonzero;fill:currentColor;fill-opacity:1;" d="M 61.472656 212.871094 L 102.476562 212.871094 L 102.476562 246.515625 L 61.472656 246.515625 Z M 61.472656 212.871094 "/></g></g><g clip-rule="nonzero" clip-path="url(#c02289edf6)"><g clip-rule="nonzero" clip-path="url(#1451fdfed7)"><path style=" stroke:none;fill-rule:nonzero;fill:currentColor;fill-opacity:1;" d="M 88.324219 143.105469 L 164.882812 143.105469 L 164.882812 234.917969 L 88.324219 234.917969 Z M 88.324219 143.105469 "/></g></g><g clip-rule="nonzero" clip-path="url(#0e11bd468d)"><g clip-rule="nonzero" clip-path="url(#ce8dd8e9ac)"><path style=" stroke:none;fill-rule:nonzero;fill:currentColor;fill-opacity:1;" d="M 148.582031 107.863281 L 197.011719 107.863281 L 197.011719 160.453125 L 148.582031 160.453125 Z M 148.582031 107.863281 "/></g></g><g clip-rule="nonzero" clip-path="url(#d4f7e614f0)"><g clip-rule="nonzero" clip-path="url(#f2aa6213e8)"><path style=" stroke:none;fill-rule:nonzero;fill:currentColor;fill-opacity:1;" d="M 144.585938 75.898438 L 198.445312 75.898438 L 198.445312 120.8125 L 144.585938 120.8125 Z M 144.585938 75.898438 "/></g></g><g clip-rule="nonzero" clip-path="url(#8e81d5eee4)"><g clip-rule="nonzero" clip-path="url(#503dca0c24)"><path style=" stroke:none;fill-rule:nonzero;fill:currentColor;fill-opacity:1;" d="M 160.730469 72.78125 L 193.359375 72.78125 L 193.359375 102.832031 L 160.730469 102.832031 Z M 160.730469 72.78125 "/></g></g><g clip-rule="nonzero" clip-path="url(#78ee3dce7c)"><g clip-rule="nonzero" clip-path="url(#a7d7f61e2b)"><path style=" stroke:none;fill-rule:nonzero;fill:currentColor;fill-opacity:1;" d="M 174.792969 58.796875 L 204.632812 58.796875 L 204.632812 87.40625 L 174.792969 87.40625 Z M 174.792969 58.796875 "/></g></g><g clip-rule="nonzero" clip-path="url(#55aee82057)"><g clip-rule="nonzero" clip-path="url(#453b2d7626)"><path style=" stroke:none;fill-rule:nonzero;fill:currentColor;fill-opacity:1;" d="M 182.546875 112.578125 L 244.566406 112.578125 L 244.566406 152.777344 L 182.546875 152.777344 Z M 182.546875 112.578125 "/></g></g><g clip-rule="nonzero" clip-path="url(#6c1ed0ab75)"><g clip-rule="nonzero" clip-path="url(#ff9e232ada)"><path style=" stroke:none;fill-rule:nonzero;fill:currentColor;fill-opacity:1;" d="M 230.175781 138.390625 L 279.128906 138.390625 L 279.128906 162.445312 L 230.175781 162.445312 Z M 230.175781 138.390625 "/></g></g><g clip-rule="nonzero" clip-path="url(#b14dbc80d3)"><g clip-rule="nonzero" clip-path="url(#7cf0f3961b)"><path style=" stroke:none;fill-rule:nonzero;fill:currentColor;fill-opacity:1;" d="M 94.480469 217.269531 L 174.851562 217.269531 L 174.851562 264.898438 L 94.480469 264.898438 Z M 94.480469 217.269531 "/></g></g><g clip-rule="nonzero" clip-path="url(#bb231100c3)"><g clip-rule="nonzero" clip-path="url(#2a20ea2a58)"><path style=" stroke:none;fill-rule:nonzero;fill:currentColor;fill-opacity:1;" d="M 152.65625 247.636719 L 210.257812 247.636719 L 210.257812 271.691406 L 152.65625 271.691406 Z M 152.65625 247.636719 "/></g></g><g clip-rule="nonzero" clip-path="url(#4a72cb2376)"><g clip-rule="nonzero" clip-path="url(#23b2c39b2f)"><path style=" stroke:none;fill-rule:nonzero;fill:currentColor;fill-opacity:1;" d="M 191.976562 256.027344 L 216.75 256.027344 L 216.75 300.25 L 191.976562 300.25 Z M 191.976562 256.027344 "/></g></g><g clip-rule="nonzero" clip-path="url(#8c268ea040)"><g clip-rule="nonzero" clip-path="url(#7f365fb77c)"><path style=" stroke:none;fill-rule:nonzero;fill:currentColor;fill-opacity:1;" d="M 199.964844 254.507812 L 258.410156 254.507812 L 258.410156 294.945312 L 199.964844 294.945312 Z M 199.964844 254.507812 "/></g></g><g clip-rule="nonzero" clip-path="url(#bb07757383)"><g clip-rule="nonzero" clip-path="url(#26d067c6db)"><path style=" stroke:none;fill-rule:nonzero;fill:currentColor;fill-opacity:1;" d="M 218.027344 280.71875 L 258.234375 280.71875 L 258.234375 312.6875 L 218.027344 312.6875 Z M 218.027344 280.71875 "/></g></g><g clip-rule="nonzero" clip-path="url(#4f23b3eeea)"><g clip-rule="nonzero" clip-path="url(#ad943e8bb4)"><path style=" stroke:none;fill-rule:nonzero;fill:currentColor;fill-opacity:1;" d="M 197.488281 287.59375 L 227.328125 287.59375 L 227.328125 316.203125 L 197.488281 316.203125 Z M 197.488281 287.59375 "/></g></g><g clip-rule="nonzero" clip-path="url(#ff8fe2d02c)"><g clip-rule="nonzero" clip-path="url(#3e08065312)"><path style=" stroke:none;fill-rule:nonzero;fill:currentColor;fill-opacity:1;" d="M 204.203125 269.210938 L 241.351562 269.210938 L 241.351562 297.183594 L 204.203125 297.183594 Z M 204.203125 269.210938 "/></g></g><g clip-rule="nonzero" clip-path="url(#2f0c6ab2be)"><g clip-rule="nonzero" clip-path="url(#7f8f884f60)"><path style=" stroke:none;fill-rule:nonzero;fill:currentColor;fill-opacity:1;" d="M 216.347656 278.800781 L 241.363281 278.800781 L 241.363281 306.160156 L 216.347656 306.160156 Z M 216.347656 278.800781 "/></g></g><g clip-rule="nonzero" clip-path="url(#f6a2af1763)"><g clip-rule="nonzero" clip-path="url(#cb8639563b)"><path style=" stroke:none;fill-rule:nonzero;fill:currentColor;fill-opacity:1;" d="M 245.117188 212.234375 L 303.617188 212.234375 L 303.617188 297.921875 L 245.117188 297.921875 Z M 245.117188 212.234375 "/></g></g><g clip-rule="nonzero" clip-path="url(#55c7bc5f0a)"><g clip-rule="nonzero" clip-path="url(#46dbdb324d)"><path style=" stroke:none;fill-rule:nonzero;fill:currentColor;fill-opacity:1;" d="M 288.03125 160.769531 L 335.421875 160.769531 L 335.421875 229.261719 L 288.03125 229.261719 Z M 288.03125 160.769531 "/></g></g><g clip-rule="nonzero" clip-path="url(#4616207d22)"><g clip-rule="nonzero" clip-path="url(#4515eb9c8a)"><path style=" stroke:none;fill-rule:nonzero;fill:currentColor;fill-opacity:1;" d="M 268.375 132.160156 L 336.027344 132.160156 L 336.027344 173.394531 L 268.375 173.394531 Z M 268.375 132.160156 "/></g></g><g clip-rule="nonzero" clip-path="url(#d69642ecec)"><g clip-rule="nonzero" clip-path="url(#e5efda9c83)"><path style=" stroke:none;fill-rule:nonzero;fill:currentColor;fill-opacity:1;" d="M 197.890625 193.453125 L 252.871094 193.453125 L 252.871094 270.554688 L 197.890625 270.554688 Z M 197.890625 193.453125 "/></g></g><g clip-rule="nonzero" clip-path="url(#bb62e3f705)"><g clip-rule="nonzero" clip-path="url(#545730eb07)"><path style=" stroke:none;fill-rule:nonzero;fill:currentColor;fill-opacity:1;" d="M 236.726562 147.824219 L 282.679688 147.824219 L 282.679688 211.183594 L 236.726562 211.183594 Z M 236.726562 147.824219 "/></g></g><g clip-rule="nonzero" clip-path="url(#066f72ea81)"><g clip-rule="nonzero" clip-path="url(#36dfe35c69)"><path style=" stroke:none;fill-rule:nonzero;fill:currentColor;fill-opacity:1;" d="M 297.863281 124.648438 L 328.71875 124.648438 L 328.71875 154.457031 L 297.863281 154.457031 Z M 297.863281 124.648438 "/></g></g><g clip-rule="nonzero" clip-path="url(#3cb22236f1)"><g clip-rule="nonzero" clip-path="url(#33b0cceaaa)"><path style=" stroke:none;fill-rule:nonzero;fill:currentColor;fill-opacity:1;" d="M 307.773438 112.019531 L 337.5 112.019531 L 337.5 142.445312 L 307.773438 142.445312 Z M 307.773438 112.019531 "/></g></g></g></svg>