<svg xmlns="http://www.w3.org/2000/svg" xmlns:xlink="http://www.w3.org/1999/xlink" width="500" zoomAndPan="magnify" viewBox="0 0 375 374.999991" height="500" preserveAspectRatio="xMidYMid meet" version="1.2"><defs><clipPath id="aeef7bdaff"><path d="M 41.777344 273.34375 L 105.398438 273.34375 L 105.398438 333.222656 L 41.777344 333.222656 Z M 41.777344 273.34375 "/></clipPath><clipPath id="9bb8916ee7"><path d="M 94.488281 328.507812 C 82.691406 332.828125 78.136719 333.644531 73.816406 332.710938 C 68.679688 331.542969 62.375 327.222656 57.9375 324.070312 C 54.199219 321.5 51.046875 319.050781 48.59375 315.894531 C 46.023438 312.625 43.804688 308.65625 42.753906 304.800781 C 41.703125 300.949219 41.820312 295.925781 42.171875 292.65625 C 42.519531 290.207031 42.871094 288.6875 44.15625 286.585938 C 45.792969 283.664062 48.945312 279.929688 52.214844 277.710938 C 55.601562 275.609375 59.921875 274.207031 63.890625 273.738281 C 67.980469 273.273438 72.417969 273.972656 76.503906 275.023438 C 80.589844 276.191406 84.445312 277.828125 88.179688 280.511719 C 92.734375 283.78125 98.339844 289.621094 101.144531 294.292969 C 103.363281 298.03125 104.296875 301.765625 104.878906 305.738281 C 105.464844 309.707031 105.464844 314.726562 104.648438 318 C 104.0625 320.332031 103.363281 321.96875 101.84375 323.71875 C 99.859375 325.824219 95.65625 329.09375 93.203125 329.324219 C 91.335938 329.441406 89.117188 328.273438 88.179688 327.105469 C 87.246094 326.289062 86.898438 324.886719 86.898438 323.605469 C 86.78125 322.4375 87.128906 321.035156 87.949219 320.101562 C 89 318.933594 91.21875 317.648438 92.851562 317.648438 C 94.488281 317.765625 96.707031 319.050781 97.640625 320.332031 C 98.457031 321.734375 98.574219 324.421875 97.992188 325.824219 C 97.640625 326.988281 96.589844 328.042969 95.539062 328.625 C 94.488281 329.207031 93.085938 329.441406 91.917969 329.324219 C 90.75 329.09375 89.347656 328.507812 88.53125 327.574219 C 87.714844 326.757812 87.011719 325.472656 86.898438 324.304688 C 86.78125 323.136719 86.898438 321.851562 87.597656 320.683594 C 88.53125 318.933594 92.152344 318 93.203125 315.664062 C 94.488281 312.742188 94.371094 307.488281 92.851562 303.519531 C 90.984375 298.847656 84.5625 292.65625 81.175781 289.738281 C 79.074219 287.988281 77.4375 287.285156 75.453125 286.585938 C 73.351562 285.769531 71.367188 285.183594 68.914062 285.300781 C 65.644531 285.535156 59.921875 287.050781 57.46875 288.921875 C 55.601562 290.320312 54.433594 292.191406 53.847656 294.058594 C 53.382812 295.925781 53.5 298.144531 53.847656 300.132812 C 54.316406 302.234375 55.132812 304.453125 56.183594 306.320312 C 57.234375 308.1875 58.285156 309.472656 60.273438 311.226562 C 63.65625 314.261719 71.832031 319.632812 75.917969 321.035156 C 78.371094 321.851562 79.890625 321.96875 82.109375 321.617188 C 84.910156 321.035156 88.765625 317.648438 91.21875 317.296875 C 92.851562 317.179688 94.253906 317.414062 95.304688 318.230469 C 96.589844 319.050781 97.757812 321.5 97.992188 322.902344 C 98.222656 323.835938 97.875 324.769531 97.40625 325.589844 C 96.824219 326.640625 94.488281 328.507812 94.488281 328.507812 "/></clipPath><clipPath id="9bb9faf1d6"><path d="M 64.121094 231.230469 L 118 231.230469 L 118 283.4375 L 64.121094 283.4375 Z M 64.121094 231.230469 "/></clipPath><clipPath id="83dc0f504a"><path d="M 65.875 273.390625 C 97.875 244.078125 105.113281 234.269531 108.96875 232.167969 C 110.484375 231.234375 111.417969 231.234375 112.585938 231.351562 C 113.753906 231.464844 115.15625 231.933594 115.972656 232.867188 C 117.023438 234.035156 118.074219 236.488281 117.726562 238.007812 C 117.492188 239.640625 115.972656 241.742188 114.457031 242.445312 C 113.054688 243.144531 110.367188 242.910156 108.96875 242.09375 C 107.683594 241.277344 106.398438 238.941406 106.164062 237.421875 C 106.046875 236.253906 106.515625 234.851562 107.214844 233.800781 C 107.800781 232.867188 108.96875 231.933594 110.136719 231.582031 C 111.1875 231.234375 112.703125 231.234375 113.871094 231.582031 C 114.921875 231.933594 116.207031 232.867188 116.792969 233.800781 C 117.492188 234.851562 117.960938 236.253906 117.84375 237.421875 C 117.726562 238.589844 117.375 239.40625 116.441406 240.925781 C 114.457031 244.078125 109.199219 249.101562 103.945312 254.238281 C 96.121094 262.0625 78.839844 279.578125 73.117188 282.496094 C 71.367188 283.433594 70.3125 283.433594 69.03125 283.316406 C 67.863281 283.082031 66.34375 282.148438 65.527344 281.097656 C 64.710938 280.164062 64.242188 278.527344 64.242188 277.242188 C 64.359375 275.957031 65.875 273.390625 65.875 273.390625 "/></clipPath><clipPath id="c67393df9d"><path d="M 94 254.777344 L 144.855469 254.777344 L 144.855469 304.730469 L 94 304.730469 Z M 94 254.777344 "/></clipPath><clipPath id="238b403927"><path d="M 95.65625 294.875 C 113.636719 275.957031 130.921875 257.976562 136.410156 255.40625 C 138.160156 254.707031 138.980469 254.707031 140.148438 254.9375 C 141.316406 255.171875 142.597656 255.757812 143.417969 256.808594 C 144.351562 257.976562 144.933594 260.542969 144.703125 262.0625 C 144.46875 263.347656 143.648438 264.515625 142.714844 265.214844 C 141.78125 265.914062 140.496094 266.617188 139.210938 266.5 C 137.695312 266.382812 135.242188 265.214844 134.308594 264.046875 C 133.492188 263.113281 133.023438 261.710938 133.257812 260.542969 C 133.375 259.027344 134.660156 256.691406 135.941406 255.757812 C 136.878906 254.9375 138.394531 254.707031 139.5625 254.820312 C 140.730469 254.9375 142.015625 255.523438 142.949219 256.339844 C 143.882812 257.15625 144.703125 258.324219 144.816406 259.609375 C 144.933594 261.011719 144.585938 262.644531 143.183594 264.746094 C 139.5625 270.585938 122.046875 283.664062 114.691406 290.90625 C 109.902344 295.8125 106.164062 302 103.128906 303.75 C 101.609375 304.6875 100.324219 304.800781 99.042969 304.6875 C 97.757812 304.453125 96.238281 303.632812 95.421875 302.699219 C 94.605469 301.648438 94.019531 300.015625 94.019531 298.730469 C 94.136719 297.445312 95.65625 294.875 95.65625 294.875 "/></clipPath><clipPath id="110e347263"><path d="M 86 198 L 179.777344 198 L 179.777344 289.796875 L 86 289.796875 Z M 86 198 "/></clipPath><clipPath id="4a45854ac6"><path d="M 169.925781 288.453125 C 146.6875 268.132812 137.8125 257.625 128.9375 248.867188 C 119.828125 239.992188 108.148438 230.183594 100.558594 222.476562 C 95.1875 216.871094 89.117188 211.382812 87.363281 207.410156 C 86.429688 205.308594 86.195312 203.441406 86.664062 202.039062 C 87.011719 200.753906 88.0625 199.703125 89 199.121094 C 90.050781 198.535156 91.449219 198.183594 92.734375 198.300781 C 93.902344 198.417969 95.1875 198.886719 96.121094 199.820312 C 97.054688 200.871094 97.992188 203.441406 97.875 204.957031 C 97.757812 206.242188 97.054688 207.410156 96.121094 208.226562 C 95.304688 209.046875 94.019531 209.863281 92.851562 209.863281 C 91.335938 209.980469 88.765625 208.929688 87.714844 207.878906 C 86.78125 207.058594 86.3125 205.660156 86.3125 204.492188 C 86.3125 202.972656 87.363281 200.519531 88.53125 199.46875 C 89.464844 198.652344 90.867188 198.300781 92.035156 198.300781 C 93.203125 198.183594 94.136719 198.417969 95.539062 199.351562 C 99.390625 201.921875 105.816406 211.148438 112.9375 218.386719 C 123.449219 229.015625 145.167969 247.699219 153.34375 256.339844 C 157.3125 260.425781 158.246094 262.414062 161.515625 265.800781 C 166.070312 270.351562 175.996094 276.777344 178.332031 280.394531 C 179.265625 281.914062 179.617188 283.082031 179.5 284.367188 C 179.382812 285.652344 178.683594 287.167969 177.75 288.101562 C 176.816406 289.039062 175.179688 289.738281 173.894531 289.738281 C 172.609375 289.855469 169.925781 288.453125 169.925781 288.453125 "/></clipPath><clipPath id="80f68b3d5a"><path d="M 86.320312 177.753906 L 113.257812 177.753906 L 113.257812 210 L 86.320312 210 Z M 86.320312 177.753906 "/></clipPath><clipPath id="40693fb744"><path d="M 86.664062 201.921875 C 93.4375 189.894531 101.378906 179.382812 105.464844 178.097656 C 107.566406 177.398438 109.667969 178.214844 110.953125 179.035156 C 112.003906 179.734375 112.703125 181.019531 112.9375 182.1875 C 113.289062 183.238281 113.289062 184.753906 112.703125 185.808594 C 112.003906 187.207031 110.019531 188.960938 108.5 189.308594 C 106.867188 189.660156 104.414062 188.960938 103.246094 187.792969 C 102.078125 186.625 101.261719 184.171875 101.492188 182.535156 C 101.84375 181.019531 103.480469 178.917969 104.878906 178.332031 C 106.398438 177.632812 109.085938 177.984375 110.367188 178.683594 C 111.535156 179.265625 112.355469 180.433594 112.703125 181.484375 C 113.171875 182.652344 113.40625 183.820312 112.9375 185.222656 C 111.769531 188.375 104.0625 193.746094 101.261719 197.953125 C 99.160156 201.105469 98.574219 205.542969 96.824219 207.527344 C 95.773438 208.695312 94.605469 209.511719 93.4375 209.746094 C 92.152344 210.097656 90.398438 209.863281 89.347656 209.164062 C 88.179688 208.578125 87.011719 207.292969 86.664062 206.007812 C 86.195312 204.839844 86.664062 201.921875 86.664062 201.921875 "/></clipPath><clipPath id="ebe2de8ebd"><path d="M 101.203125 177.457031 L 197.574219 177.457031 L 197.574219 270.644531 L 101.203125 270.644531 Z M 101.203125 177.457031 "/></clipPath><clipPath id="74ef3361d8"><path d="M 111.070312 179.152344 C 141.429688 205.777344 143.535156 209.046875 149.140625 214.765625 C 158.714844 224.460938 181.953125 244.894531 189.542969 253.1875 C 192.929688 256.808594 195.148438 259.144531 196.199219 261.476562 C 196.902344 262.878906 197.367188 263.8125 197.25 265.097656 C 197.015625 266.617188 195.734375 268.953125 194.332031 269.769531 C 192.929688 270.585938 190.246094 270.46875 188.84375 270.003906 C 187.675781 269.535156 186.742188 268.484375 186.15625 267.433594 C 185.691406 266.382812 185.339844 264.863281 185.691406 263.695312 C 186.039062 262.296875 187.558594 260.078125 188.960938 259.375 C 190.476562 258.675781 193.046875 258.910156 194.449219 259.726562 C 195.847656 260.542969 197.015625 262.996094 197.25 264.515625 C 197.367188 265.683594 196.902344 267.082031 196.199219 268.019531 C 195.5 269.070312 194.449219 270.003906 193.164062 270.238281 C 191.761719 270.585938 189.425781 270.351562 187.792969 269.300781 C 185.574219 268.019531 184.753906 265.097656 181.835938 261.828125 C 174.945312 254.355469 155.5625 237.65625 146.101562 228.078125 C 139.328125 221.308594 135.828125 216.402344 129.519531 210.214844 C 121.8125 202.738281 105.582031 191.878906 102.542969 186.972656 C 101.492188 185.339844 101.378906 184.289062 101.492188 183.003906 C 101.609375 181.71875 102.429688 180.203125 103.363281 179.265625 C 104.296875 178.449219 105.929688 177.75 107.214844 177.75 C 108.5 177.75 111.070312 179.152344 111.070312 179.152344 "/></clipPath><clipPath id="e2a62acd28"><path d="M 168.332031 259 L 197.242188 259 L 197.242188 289.363281 L 168.332031 289.363281 Z M 168.332031 259 "/></clipPath><clipPath id="358efb7409"><path d="M 194.214844 269.769531 C 174.714844 289.621094 173.660156 289.386719 172.496094 289.039062 C 171.441406 288.6875 170.160156 287.871094 169.457031 286.933594 C 168.757812 286 168.289062 284.484375 168.40625 283.316406 C 168.40625 282.148438 168.757812 280.746094 169.574219 279.8125 C 170.625 278.761719 173.078125 277.476562 174.597656 277.59375 C 176.230469 277.710938 178.449219 279.113281 179.265625 280.511719 C 180.085938 281.914062 179.96875 284.601562 179.5 286 C 179.035156 287.167969 177.867188 288.101562 176.816406 288.6875 C 175.765625 289.15625 174.363281 289.503906 173.195312 289.15625 C 171.675781 288.804688 169.457031 287.285156 168.875 285.769531 C 168.171875 284.367188 168.40625 282.496094 169.222656 280.394531 C 170.859375 276.308594 177.632812 268.367188 181.371094 264.746094 C 183.9375 262.296875 186.15625 260.425781 188.492188 259.609375 C 190.359375 259.027344 192.578125 258.910156 193.980469 259.492188 C 195.148438 259.960938 196.316406 261.246094 196.785156 262.527344 C 197.25 263.695312 197.367188 265.449219 196.902344 266.617188 C 196.433594 267.785156 194.214844 269.769531 194.214844 269.769531 "/></clipPath><clipPath id="2c7b7183a5"><path d="M 149.578125 94.109375 L 281 94.109375 L 281 222.855469 L 149.578125 222.855469 Z M 149.578125 94.109375 "/></clipPath><clipPath id="c42eeb5e88"><path d="M 150.421875 213.949219 C 161.050781 200.988281 172.609375 193.28125 182.769531 184.171875 C 196.902344 171.558594 219.320312 150.421875 231.933594 137.109375 C 240.339844 128.234375 245.128906 120.878906 251.902344 113.753906 C 258.089844 107.214844 266.851562 98.691406 270.703125 96.121094 C 272.222656 95.070312 272.921875 94.605469 274.089844 94.488281 C 275.257812 94.371094 276.777344 94.605469 277.710938 95.304688 C 278.996094 96.121094 280.511719 98.339844 280.628906 99.976562 C 280.746094 101.609375 279.460938 103.945312 278.292969 104.878906 C 277.359375 105.816406 275.957031 106.164062 274.789062 106.164062 C 273.621094 106.164062 272.222656 105.699219 271.289062 104.996094 C 270.351562 104.296875 269.417969 103.011719 269.183594 101.84375 C 268.835938 100.792969 268.835938 99.273438 269.300781 98.222656 C 270.003906 96.824219 271.871094 94.953125 273.507812 94.605469 C 275.023438 94.253906 277.59375 95.070312 278.761719 96.003906 C 279.695312 96.824219 280.277344 98.105469 280.511719 99.273438 C 280.746094 100.441406 280.511719 101.726562 279.929688 103.011719 C 279.226562 104.648438 277.828125 106.164062 275.839844 108.265625 C 271.988281 112.585938 262.644531 119.59375 256.808594 125.667969 C 251.203125 131.621094 248.28125 136.878906 241.390625 144.234375 C 229.597656 156.730469 204.722656 179.96875 190.828125 192.347656 C 181.484375 200.519531 172.496094 206.476562 166.890625 212.082031 C 163.269531 215.585938 161.050781 219.90625 158.949219 221.421875 C 157.898438 222.125 157.3125 222.359375 156.261719 222.476562 C 155.09375 222.589844 153.34375 222.242188 152.292969 221.539062 C 151.242188 220.722656 150.191406 219.320312 149.957031 218.152344 C 149.605469 216.871094 150.421875 213.949219 150.421875 213.949219 "/></clipPath><clipPath id="6c8b4c86ac"><path d="M 127.339844 55.519531 L 273.9375 55.519531 L 273.9375 202 L 127.339844 202 Z M 127.339844 55.519531 "/></clipPath><clipPath id="1da7fe1c8a"><path d="M 129.054688 192.113281 C 188.140625 133.957031 190.476562 129.636719 197.25 122.511719 C 206.941406 112.355469 225.394531 97.054688 234.269531 87.832031 C 239.757812 82.226562 242.328125 78.136719 246.648438 73.585938 C 251.203125 68.914062 257.390625 63.074219 260.777344 60.15625 C 262.644531 58.402344 263.695312 57 265.332031 56.417969 C 266.964844 55.949219 269.417969 56.066406 270.820312 56.769531 C 271.988281 57.351562 272.921875 58.402344 273.273438 59.570312 C 273.738281 61.089844 273.390625 63.65625 272.6875 65.058594 C 271.988281 66.109375 270.9375 67.042969 269.652344 67.277344 C 268.25 67.628906 265.566406 67.277344 264.28125 66.460938 C 263.230469 65.761719 262.414062 64.59375 262.179688 63.308594 C 261.945312 61.789062 262.296875 59.21875 263.347656 57.9375 C 264.398438 56.769531 266.964844 55.949219 268.484375 55.949219 C 269.652344 55.949219 270.9375 56.652344 271.871094 57.46875 C 272.6875 58.285156 273.507812 59.570312 273.621094 60.855469 C 273.738281 62.375 273.15625 64.007812 271.871094 65.992188 C 269.183594 70.082031 259.960938 76.621094 254.9375 81.875 C 250.382812 86.546875 247.933594 90.515625 242.558594 96.003906 C 233.917969 104.996094 216.636719 119.128906 207.175781 129.054688 C 200.054688 136.292969 197.367188 141.082031 189.894531 149.140625 C 177.28125 162.566406 144.933594 195.964844 137.109375 200.519531 C 135.242188 201.570312 134.425781 201.804688 133.140625 201.6875 C 131.855469 201.570312 130.222656 200.753906 129.402344 199.820312 C 128.46875 199.003906 127.769531 197.367188 127.769531 196.082031 C 127.652344 194.796875 129.054688 192.113281 129.054688 192.113281 "/></clipPath><clipPath id="c337a3e4ee"><path d="M 261.894531 42.121094 L 331.632812 42.121094 L 331.632812 67.542969 L 261.894531 67.542969 Z M 261.894531 42.121094 "/></clipPath><clipPath id="43cb77a2fa"><path d="M 267.082031 55.949219 C 278.996094 53.03125 282.847656 50.460938 287.753906 48.828125 C 294.410156 46.726562 305.035156 44.738281 311.925781 43.574219 C 316.945312 42.753906 322.203125 41.9375 325.238281 42.171875 C 326.757812 42.289062 327.808594 42.40625 328.859375 42.988281 C 329.792969 43.6875 330.726562 44.855469 331.195312 45.90625 C 331.542969 47.074219 331.660156 48.476562 331.3125 49.644531 C 330.960938 50.8125 330.144531 51.980469 329.207031 52.679688 C 328.15625 53.382812 326.875 53.964844 325.589844 53.847656 C 324.070312 53.613281 321.734375 52.332031 320.800781 51.164062 C 320.101562 50.230469 319.867188 48.710938 319.867188 47.542969 C 319.984375 46.375 320.566406 44.972656 321.386719 44.15625 C 322.085938 43.222656 323.371094 42.519531 324.539062 42.289062 C 325.707031 42.054688 327.222656 42.054688 328.273438 42.753906 C 329.558594 43.457031 331.195312 45.675781 331.542969 47.191406 C 331.777344 48.359375 331.425781 49.761719 330.84375 50.8125 C 330.261719 51.863281 329.675781 52.5625 328.042969 53.382812 C 323.136719 55.71875 304.800781 56.300781 294.410156 58.871094 C 285.183594 61.207031 273.507812 67.394531 268.601562 67.511719 C 266.617188 67.628906 265.566406 67.394531 264.515625 66.578125 C 263.347656 65.644531 262.0625 63.308594 261.945312 61.789062 C 261.945312 60.503906 262.527344 58.871094 263.464844 57.9375 C 264.28125 57 267.082031 55.949219 267.082031 55.949219 "/></clipPath><clipPath id="51b3641f84"><path d="M 308.742188 42.140625 L 331.574219 42.140625 L 331.574219 108.753906 L 308.742188 108.753906 Z M 308.742188 42.140625 "/></clipPath><clipPath id="cb3672ed04"><path d="M 331.542969 48.242188 C 328.273438 73.46875 323.835938 99.273438 319.867188 105.230469 C 318.464844 107.449219 317.0625 108.265625 315.546875 108.617188 C 314.378906 108.851562 312.859375 108.5 311.925781 108.035156 C 310.875 107.449219 309.824219 106.398438 309.355469 105.230469 C 308.773438 104.179688 308.65625 102.660156 308.890625 101.609375 C 309.125 100.441406 309.824219 99.160156 310.875 98.339844 C 312.042969 97.523438 314.726562 96.941406 316.128906 97.171875 C 317.414062 97.40625 318.582031 98.339844 319.28125 99.273438 C 319.984375 100.210938 320.566406 101.609375 320.449219 102.777344 C 320.332031 104.296875 319.050781 106.75 317.882812 107.683594 C 316.945312 108.382812 315.429688 108.734375 314.261719 108.617188 C 313.09375 108.617188 311.691406 108.148438 310.875 107.214844 C 309.707031 106.164062 309.007812 104.761719 308.773438 102.195312 C 308.304688 95.304688 316.597656 73.117188 318.347656 62.722656 C 319.515625 56.183594 318.816406 49.644531 320.101562 46.375 C 320.800781 44.738281 321.5 43.6875 322.550781 42.988281 C 323.71875 42.40625 325.355469 42.054688 326.640625 42.171875 C 327.925781 42.40625 329.441406 43.339844 330.261719 44.273438 C 331.078125 45.324219 331.542969 48.242188 331.542969 48.242188 "/></clipPath><clipPath id="d7e9f76052"><path d="M 169.203125 99.605469 L 320.386719 99.605469 L 320.386719 244 L 169.203125 244 Z M 169.203125 99.605469 "/></clipPath><clipPath id="58930435af"><path d="M 171.328125 233.800781 C 202.039062 202.855469 207.058594 199.351562 214.652344 192.464844 C 226.09375 181.953125 245.714844 161.867188 257.273438 151.472656 C 264.863281 144.585938 269.535156 141.546875 276.660156 135.125 C 286.117188 126.601562 304.570312 109.667969 308.65625 104.53125 C 309.941406 103.128906 309.589844 102.078125 310.640625 101.378906 C 311.808594 100.558594 314.378906 99.742188 316.011719 100.210938 C 317.53125 100.675781 319.398438 102.429688 319.984375 104.0625 C 320.449219 105.582031 319.984375 108.148438 319.050781 109.433594 C 318 110.71875 315.664062 111.769531 314.027344 111.652344 C 312.394531 111.535156 310.175781 110.253906 309.355469 108.851562 C 308.539062 107.449219 308.421875 104.878906 309.125 103.363281 C 309.824219 101.960938 312.042969 100.441406 313.445312 100.09375 C 314.726562 99.742188 316.128906 100.09375 317.179688 100.675781 C 318.230469 101.261719 319.164062 102.3125 319.75 103.480469 C 320.21875 104.53125 320.449219 105.699219 320.101562 107.097656 C 319.515625 109.433594 317.882812 111.535156 314.261719 115.507812 C 300.832031 131.039062 227.261719 194.214844 203.90625 216.871094 C 192.695312 227.847656 185.105469 238.589844 179.617188 241.976562 C 177.515625 243.378906 175.996094 243.84375 174.480469 243.609375 C 173.078125 243.496094 171.675781 242.558594 170.859375 241.507812 C 170.160156 240.457031 169.574219 238.824219 169.691406 237.539062 C 169.691406 236.253906 171.328125 233.800781 171.328125 233.800781 "/></clipPath></defs><g id="314e26ee04"><g clip-rule="nonzero" clip-path="url(#aeef7bdaff)"><g clip-rule="nonzero" clip-path="url(#9bb8916ee7)"><path style=" stroke:none;fill-rule:nonzero;fill:currentColor;fill-opacity:1;" d="M 37.5 269.070312 L 109.671875 269.070312 L 109.671875 337.5 L 37.5 337.5 Z M 37.5 269.070312 "/></g></g><g clip-rule="nonzero" clip-path="url(#9bb9faf1d6)"><g clip-rule="nonzero" clip-path="url(#83dc0f504a)"><path style=" stroke:none;fill-rule:nonzero;fill:currentColor;fill-opacity:1;" d="M 59.570312 226.679688 L 122.554688 226.679688 L 122.554688 287.988281 L 59.570312 287.988281 Z M 59.570312 226.679688 "/></g></g><g clip-rule="nonzero" clip-path="url(#c67393df9d)"><g clip-rule="nonzero" clip-path="url(#238b403927)"><path style=" stroke:none;fill-rule:nonzero;fill:currentColor;fill-opacity:1;" d="M 89.347656 250.152344 L 149.480469 250.152344 L 149.480469 309.355469 L 89.347656 309.355469 Z M 89.347656 250.152344 "/></g></g><g clip-rule="nonzero" clip-path="url(#110e347263)"><g clip-rule="nonzero" clip-path="url(#4a45854ac6)"><path style=" stroke:none;fill-rule:nonzero;fill:currentColor;fill-opacity:1;" d="M 81.640625 193.628906 L 184.113281 193.628906 L 184.113281 294.527344 L 81.640625 294.527344 Z M 81.640625 193.628906 "/></g></g><g clip-rule="nonzero" clip-path="url(#80f68b3d5a)"><g clip-rule="nonzero" clip-path="url(#40693fb744)"><path style=" stroke:none;fill-rule:nonzero;fill:currentColor;fill-opacity:1;" d="M 81.992188 173.429688 L 117.726562 173.429688 L 117.726562 214.464844 L 81.992188 214.464844 Z M 81.992188 173.429688 "/></g></g><g clip-rule="nonzero" clip-path="url(#ebe2de8ebd)"><g clip-rule="nonzero" clip-path="url(#74ef3361d8)"><path style=" stroke:none;fill-rule:nonzero;fill:currentColor;fill-opacity:1;" d="M 96.824219 173.078125 L 201.953125 173.078125 L 201.953125 275.023438 L 96.824219 275.023438 Z M 96.824219 173.078125 "/></g></g><g clip-rule="nonzero" clip-path="url(#e2a62acd28)"><g clip-rule="nonzero" clip-path="url(#358efb7409)"><path style=" stroke:none;fill-rule:nonzero;fill:currentColor;fill-opacity:1;" d="M 163.734375 254.820312 L 201.6875 254.820312 L 201.6875 293.960938 L 163.734375 293.960938 Z M 163.734375 254.820312 "/></g></g><g clip-rule="nonzero" clip-path="url(#2c7b7183a5)"><g clip-rule="nonzero" clip-path="url(#c42eeb5e88)"><path style=" stroke:none;fill-rule:nonzero;fill:currentColor;fill-opacity:1;" d="M 145.285156 89.816406 L 285.296875 89.816406 L 285.296875 227.144531 L 145.285156 227.144531 Z M 145.285156 89.816406 "/></g></g><g clip-rule="nonzero" clip-path="url(#6c8b4c86ac)"><g clip-rule="nonzero" clip-path="url(#1da7fe1c8a)"><path style=" stroke:none;fill-rule:nonzero;fill:currentColor;fill-opacity:1;" d="M 123.097656 51.28125 L 278.175781 51.28125 L 278.175781 206.359375 L 123.097656 206.359375 Z M 123.097656 51.28125 "/></g></g><g clip-rule="nonzero" clip-path="url(#c337a3e4ee)"><g clip-rule="nonzero" clip-path="url(#43cb77a2fa)"><path style=" stroke:none;fill-rule:nonzero;fill:currentColor;fill-opacity:1;" d="M 257.273438 37.5 L 336.253906 37.5 L 336.253906 72.300781 L 257.273438 72.300781 Z M 257.273438 37.5 "/></g></g><g clip-rule="nonzero" clip-path="url(#51b3641f84)"><g clip-rule="nonzero" clip-path="url(#cb3672ed04)"><path style=" stroke:none;fill-rule:nonzero;fill:currentColor;fill-opacity:1;" d="M 304.101562 37.5 L 336.214844 37.5 L 336.214844 113.269531 L 304.101562 113.269531 Z M 304.101562 37.5 "/></g></g><g clip-rule="nonzero" clip-path="url(#d7e9f76052)"><g clip-rule="nonzero" clip-path="url(#58930435af)"><path style=" stroke:none;fill-rule:nonzero;fill:currentColor;fill-opacity:1;" d="M 165.019531 95.421875 L 325.167969 95.421875 L 325.167969 248.398438 L 165.019531 248.398438 Z M 165.019531 95.421875 "/></g></g></g></svg>