<svg xmlns="http://www.w3.org/2000/svg" xmlns:xlink="http://www.w3.org/1999/xlink" width="500" zoomAndPan="magnify" viewBox="0 0 375 374.999991" height="500" preserveAspectRatio="xMidYMid meet" version="1.2"><defs><clipPath id="20dc987fca"><path d="M 84.574219 138.066406 L 136.058594 138.066406 L 136.058594 185.136719 L 84.574219 185.136719 Z M 84.574219 138.066406 "/></clipPath><clipPath id="8bc7420b4f"><path d="M 129.707031 184.5 C 115.890625 177.722656 110.5 173.203125 105.722656 168.597656 C 100.421875 163.558594 93.640625 155.648438 89.992188 151.128906 C 87.90625 148.523438 85.992188 146.351562 85.210938 144.613281 C 84.777344 143.570312 84.515625 142.785156 84.691406 141.832031 C 84.949219 140.789062 85.992188 139.050781 87.035156 138.527344 C 88.167969 138.007812 90.078125 138.007812 91.121094 138.617188 C 92.164062 139.222656 93.207031 140.875 93.378906 142.089844 C 93.46875 143.222656 92.683594 145.046875 91.730469 145.828125 C 90.773438 146.523438 88.863281 146.785156 87.730469 146.609375 C 86.863281 146.351562 85.992188 145.65625 85.472656 144.960938 C 84.949219 144.265625 84.601562 143.222656 84.691406 142.351562 C 84.691406 141.484375 85.039062 140.441406 85.644531 139.746094 C 86.167969 139.050781 87.035156 138.355469 87.90625 138.179688 C 89.035156 138.007812 90.339844 138.179688 91.902344 139.136719 C 95.988281 141.742188 103.722656 154.257812 109.546875 160.167969 C 114.5 165.121094 119.625 169.46875 124.40625 172.59375 C 128.144531 175.117188 133.707031 176.246094 135.269531 178.15625 C 136.050781 179.199219 136.136719 180.242188 135.964844 181.199219 C 135.878906 182.15625 135.269531 183.285156 134.574219 183.894531 C 133.878906 184.589844 132.574219 184.9375 131.707031 185.023438 C 130.925781 185.023438 129.707031 184.5 129.707031 184.5 "/></clipPath><clipPath id="9d7a602c1c"><path d="M 84.488281 58.636719 L 161.800781 58.636719 L 161.800781 147 L 84.488281 147 Z M 84.488281 58.636719 "/></clipPath><clipPath id="18f599e961"><path d="M 84.863281 141.046875 C 89.730469 131.488281 93.292969 127.144531 98.335938 121.058594 C 108.328125 108.980469 134.488281 79.34375 144.914062 68.917969 C 149.78125 64.136719 153.519531 59.792969 156.300781 59.007812 C 157.515625 58.574219 158.558594 59.007812 159.34375 59.355469 C 159.949219 59.703125 160.472656 60.140625 160.90625 60.746094 C 161.339844 61.53125 161.6875 62.832031 161.601562 63.789062 C 161.515625 64.484375 161.429688 65.179688 160.820312 65.699219 C 159.863281 66.570312 156.734375 67.4375 155.429688 67.089844 C 154.476562 66.917969 153.78125 66.046875 153.433594 65.179688 C 153 64.136719 152.910156 62.136719 153.433594 61.09375 C 154.042969 60.050781 155.777344 59.097656 156.910156 58.835938 C 157.777344 58.75 158.820312 59.007812 159.601562 59.53125 C 160.296875 59.964844 160.992188 60.835938 161.339844 61.617188 C 161.6875 62.484375 161.6875 63.617188 161.429688 64.398438 C 161.167969 65.265625 160.558594 66.136719 159.863281 66.65625 C 159.167969 67.179688 158.125 67.613281 157.257812 67.527344 C 156.125 67.4375 154.300781 66.570312 153.605469 65.613281 C 153 64.570312 152.910156 62.574219 153.257812 61.53125 C 153.519531 60.660156 154.300781 59.878906 155.085938 59.445312 C 155.867188 59.007812 157.777344 58.75 157.777344 58.921875 C 157.863281 59.007812 153.78125 60.835938 153.695312 60.660156 C 153.695312 60.574219 155.34375 59.183594 156.300781 59.007812 C 157.167969 58.75 158.558594 59.007812 159.34375 59.355469 C 159.949219 59.703125 160.558594 60.050781 160.90625 60.746094 C 161.339844 61.703125 161.949219 62.921875 161.339844 64.746094 C 158.90625 72.304688 128.664062 99.074219 116.757812 112.71875 C 108.328125 122.449219 99.898438 132.269531 95.902344 138.355469 C 93.902344 141.308594 93.46875 144.265625 91.988281 145.566406 C 91.121094 146.351562 90.078125 146.699219 89.121094 146.785156 C 88.167969 146.785156 86.949219 146.351562 86.253906 145.742188 C 85.472656 145.132812 84.863281 143.917969 84.691406 143.132812 C 84.601562 142.351562 84.863281 141.046875 84.863281 141.046875 "/></clipPath><clipPath id="15f0f3ad8c"><path d="M 152.480469 58.78125 L 207.640625 58.78125 L 207.640625 103.472656 L 152.480469 103.472656 Z M 152.480469 58.78125 "/></clipPath><clipPath id="310eb31af6"><path d="M 156.820312 58.835938 C 165.859375 59.792969 166.382812 60.398438 168.207031 61.789062 C 173.074219 65.351562 187.152344 76.824219 194.105469 83.429688 C 199.40625 88.382812 205.925781 93.859375 207.140625 97.335938 C 207.664062 98.984375 207.402344 100.375 206.792969 101.417969 C 206.183594 102.375 204.445312 103.417969 203.230469 103.417969 C 202.101562 103.417969 200.273438 102.550781 199.578125 101.59375 C 198.882812 100.636719 198.625 98.726562 199.058594 97.59375 C 199.492188 96.464844 200.882812 95.164062 202.101562 94.816406 C 203.230469 94.554688 205.140625 95.164062 206.011719 95.859375 C 206.792969 96.378906 207.226562 97.421875 207.402344 98.289062 C 207.574219 99.074219 207.402344 100.203125 207.054688 100.984375 C 206.621094 101.765625 205.925781 102.636719 205.054688 102.984375 C 204.011719 103.417969 202.535156 103.503906 200.96875 102.808594 C 197.667969 101.417969 192.714844 93.773438 188.109375 89.6875 C 183.414062 85.515625 177.15625 81.34375 173.246094 77.867188 C 170.378906 75.347656 168.207031 72.652344 166.207031 71.003906 C 164.816406 69.871094 164.121094 69.089844 162.558594 68.394531 C 160.386719 67.4375 155.429688 67.4375 153.953125 66.484375 C 153.171875 65.960938 153 65.441406 152.738281 64.746094 C 152.476562 63.875 152.390625 62.574219 152.738281 61.617188 C 153.085938 60.746094 154.042969 59.792969 154.824219 59.355469 C 155.429688 59.007812 156.820312 58.835938 156.820312 58.835938 "/></clipPath><clipPath id="86f86914f3"><path d="M 303.90625 259.144531 L 334 259.144531 L 334 287.945312 L 303.90625 287.945312 Z M 303.90625 259.144531 "/></clipPath><clipPath id="6ad38f540c"><path d="M 308.210938 278.882812 C 319.074219 275.230469 324.726562 261.5 327.765625 259.761719 C 328.894531 259.066406 329.679688 259.242188 330.546875 259.414062 C 331.417969 259.589844 332.371094 260.109375 332.894531 260.804688 C 333.589844 261.761719 334.023438 263.671875 333.851562 264.804688 C 333.675781 265.671875 333.066406 266.628906 332.285156 267.0625 C 331.328125 267.671875 329.417969 268.191406 328.289062 267.757812 C 327.15625 267.410156 325.769531 266.019531 325.421875 264.804688 C 325.160156 263.671875 325.507812 261.761719 326.289062 260.890625 C 327.070312 259.9375 328.984375 259.328125 330.113281 259.328125 C 330.980469 259.328125 331.9375 259.761719 332.632812 260.457031 C 333.328125 261.328125 334.109375 262.628906 333.9375 264.367188 C 333.503906 268.191406 326.636719 278.707031 322.8125 282.617188 C 320.378906 285.050781 317.945312 286.441406 315.253906 287.226562 C 312.730469 288.007812 309.082031 288.007812 307.167969 287.484375 C 306.039062 287.136719 305.257812 286.53125 304.648438 285.746094 C 304.128906 284.878906 303.78125 283.660156 303.953125 282.707031 C 304.042969 281.75 304.648438 280.621094 305.34375 280.011719 C 306.125 279.316406 308.210938 278.882812 308.210938 278.882812 "/></clipPath><clipPath id="31614374fe"><path d="M 179.320312 123.050781 L 333.636719 123.050781 L 333.636719 267.941406 L 179.320312 267.941406 Z M 179.320312 123.050781 "/></clipPath><clipPath id="4e94633c20"><path d="M 326.027344 266.453125 C 312.992188 253.070312 304.824219 245.769531 297.609375 239.511719 C 289.875 232.734375 282.402344 227.347656 273.101562 219.003906 C 259.804688 207.097656 236.429688 182.9375 226.171875 174.074219 C 221.566406 170.074219 219.65625 169.46875 215.65625 165.816406 C 209.398438 160.253906 199.753906 148.609375 193.582031 142.699219 C 189.5 138.789062 185.242188 135.746094 182.808594 133.3125 C 181.503906 131.921875 180.375 131.054688 179.851562 129.75 C 179.503906 128.535156 179.417969 126.710938 180.027344 125.667969 C 180.632812 124.625 182.371094 123.753906 183.503906 123.582031 C 184.457031 123.40625 185.414062 123.753906 186.195312 124.277344 C 186.890625 124.710938 187.671875 125.492188 187.933594 126.449219 C 188.195312 127.492188 188.019531 129.488281 187.328125 130.445312 C 186.632812 131.402344 184.804688 132.269531 183.675781 132.183594 C 182.460938 132.183594 180.722656 131.226562 180.113281 130.183594 C 179.503906 129.140625 179.332031 127.230469 179.851562 126.101562 C 180.285156 125.058594 181.851562 123.839844 183.066406 123.582031 C 184.199219 123.40625 185.152344 123.753906 186.890625 124.796875 C 192.886719 128.449219 212.441406 151.128906 220.785156 158.605469 C 225.304688 162.601562 226.867188 163.121094 231.648438 167.382812 C 242.425781 176.855469 268.324219 203.1875 281.707031 215.09375 C 290.222656 222.652344 295.609375 226.128906 303.171875 232.820312 C 312.125 240.730469 328.199219 255.332031 331.675781 259.847656 C 332.632812 261.152344 332.980469 261.585938 333.15625 262.542969 C 333.242188 263.5 332.980469 264.804688 332.460938 265.585938 C 331.9375 266.367188 330.894531 267.148438 329.9375 267.324219 C 328.808594 267.585938 326.027344 266.453125 326.027344 266.453125 "/></clipPath><clipPath id="c4c72f4b77"><path d="M 56.765625 235.191406 L 168 235.191406 L 168 270 L 56.765625 270 Z M 56.765625 235.191406 "/></clipPath><clipPath id="4a52f5fb21"><path d="M 56.792969 265.0625 C 56.792969 251.941406 57.316406 250.550781 58.011719 248.984375 C 58.617188 247.59375 59.3125 246.292969 60.269531 245.074219 C 61.398438 243.773438 63.050781 242.46875 64.527344 241.511719 C 66.003906 240.554688 66.960938 240.035156 68.960938 239.339844 C 72.871094 238.121094 79.910156 236.820312 87.210938 236.125 C 97.988281 235.082031 115.800781 235.253906 127.621094 235.601562 C 136.746094 235.863281 146.046875 236.035156 152.042969 237.253906 C 155.691406 237.949219 158.558594 238.90625 160.644531 240.207031 C 162.125 241.078125 163.078125 242.121094 163.863281 243.335938 C 164.558594 244.554688 164.816406 245.597656 165.253906 247.507812 C 166.207031 251.332031 168.378906 261.847656 167.773438 265.585938 C 167.425781 267.238281 166.730469 268.453125 165.859375 269.148438 C 165.078125 269.757812 164.035156 269.929688 163.167969 269.84375 C 162.296875 269.84375 161.253906 269.496094 160.558594 268.886719 C 159.777344 268.019531 158.996094 266.195312 159.082031 265.0625 C 159.082031 264.109375 159.601562 263.152344 160.210938 262.542969 C 160.820312 261.933594 161.777344 261.328125 162.644531 261.238281 C 163.773438 261.152344 165.6875 261.675781 166.554688 262.542969 C 167.335938 263.414062 167.773438 265.324219 167.597656 266.453125 C 167.511719 267.410156 166.902344 268.277344 166.207031 268.886719 C 165.511719 269.410156 164.558594 269.929688 163.601562 269.84375 C 162.472656 269.84375 160.90625 269.496094 159.949219 268.191406 C 157.953125 265.5 158.996094 254.199219 157.34375 250.550781 C 156.472656 248.550781 155.953125 247.59375 154.042969 246.640625 C 149.957031 244.554688 139.703125 244.726562 131.273438 244.292969 C 120.757812 243.773438 106.242188 243.773438 95.554688 244.46875 C 86.6875 244.988281 76.171875 245.769531 71.566406 247.421875 C 69.480469 248.203125 68.4375 248.984375 67.394531 250.117188 C 66.351562 251.160156 65.65625 252.289062 65.222656 254.027344 C 64.527344 256.722656 65.917969 262.628906 65.484375 265.0625 C 65.222656 266.367188 64.960938 267.238281 64.355469 268.019531 C 63.746094 268.714844 62.527344 269.234375 61.660156 269.410156 C 60.878906 269.496094 60.183594 269.410156 59.574219 269.148438 C 58.964844 268.886719 58.269531 268.539062 57.835938 268.019531 C 57.316406 267.238281 56.792969 265.0625 56.792969 265.0625 "/></clipPath><clipPath id="bad62c1df9"><path d="M 40.273438 266.496094 L 68 266.496094 L 68 316.28125 L 40.273438 316.28125 Z M 40.273438 266.496094 "/></clipPath><clipPath id="73523e2861"><path d="M 63.660156 275.492188 C 54.707031 276.015625 53.492188 277.230469 52.535156 278.359375 C 51.578125 279.578125 51.144531 280.53125 50.621094 282.617188 C 49.578125 287.136719 51.839844 302.695312 49.667969 305.824219 C 48.710938 307.214844 45.757812 306.867188 45.757812 307.472656 C 45.667969 307.996094 48.625 308.429688 49.230469 309.472656 C 49.925781 310.429688 50.015625 312.425781 49.578125 313.46875 C 49.058594 314.601562 47.496094 315.730469 46.363281 316.078125 C 45.496094 316.25 44.453125 316.078125 43.671875 315.644531 C 42.886719 315.296875 42.105469 314.511719 41.671875 313.730469 C 41.324219 312.863281 41.0625 311.820312 41.324219 310.949219 C 41.671875 309.820312 42.886719 308.34375 43.929688 307.734375 C 44.714844 307.386719 45.84375 307.386719 46.625 307.5625 C 47.496094 307.820312 48.449219 308.257812 48.972656 309.039062 C 49.578125 309.996094 50.015625 311.992188 49.753906 313.035156 C 49.492188 313.992188 48.796875 314.773438 48.101562 315.296875 C 47.40625 315.816406 46.363281 316.425781 45.496094 316.078125 C 43.929688 315.554688 41.84375 312.339844 40.976562 309.039062 C 39.324219 303.128906 41.324219 287.3125 42.105469 282.183594 C 42.453125 280.097656 42.800781 279.316406 43.324219 277.925781 C 43.84375 276.449219 44.367188 274.972656 45.234375 273.753906 C 46.105469 272.449219 47.234375 271.320312 48.363281 270.363281 C 49.40625 269.320312 50.535156 268.191406 51.839844 267.585938 C 53.144531 266.976562 54.621094 266.976562 56.359375 266.800781 C 58.707031 266.628906 62.789062 266.28125 64.703125 266.976562 C 65.917969 267.324219 66.789062 267.84375 67.308594 268.714844 C 67.832031 269.667969 68.089844 271.582031 67.742188 272.710938 C 67.484375 273.667969 66.441406 274.535156 65.746094 274.972656 C 65.050781 275.40625 63.660156 275.492188 63.660156 275.492188 "/></clipPath><clipPath id="41ddd4bf52"><path d="M 41.46875 305.03125 L 186.460938 305.03125 L 186.460938 316.609375 L 41.46875 316.609375 Z M 41.46875 305.03125 "/></clipPath><clipPath id="6b55891162"><path d="M 45.84375 306.953125 C 150.652344 307.125 175.074219 303.910156 182.113281 305.476562 C 184.109375 305.910156 184.980469 306.519531 185.675781 307.386719 C 186.285156 308.082031 186.457031 309.210938 186.457031 310.082031 C 186.371094 310.949219 186.109375 311.992188 185.414062 312.601562 C 184.632812 313.46875 182.808594 314.164062 181.675781 314.164062 C 180.722656 314.164062 179.765625 313.644531 179.15625 312.949219 C 178.375 312.167969 177.765625 310.253906 177.851562 309.125 C 177.941406 308.167969 178.375 307.300781 179.15625 306.691406 C 180.027344 305.996094 181.9375 305.476562 183.066406 305.5625 C 183.9375 305.734375 184.894531 306.34375 185.414062 307.039062 C 186.023438 307.648438 186.371094 308.691406 186.457031 309.558594 C 186.457031 310.429688 186.285156 311.558594 185.675781 312.253906 C 184.980469 313.121094 184.023438 313.644531 182.113281 314.164062 C 176.375 315.730469 158.648438 315.554688 145.785156 315.816406 C 131.183594 316.25 115.28125 316.164062 99.203125 316.078125 C 81.734375 316.078125 51.144531 317.554688 44.800781 315.554688 C 43.234375 315.035156 42.800781 314.601562 42.28125 313.816406 C 41.671875 312.949219 41.410156 311.730469 41.496094 310.777344 C 41.585938 309.820312 42.191406 308.691406 42.976562 308.082031 C 43.671875 307.386719 45.84375 306.953125 45.84375 306.953125 "/></clipPath><clipPath id="65e7085175"><path d="M 159 266.851562 L 186.582031 266.851562 L 186.582031 314.1875 L 159 314.1875 Z M 159 266.851562 "/></clipPath><clipPath id="f6df99f084"><path d="M 177.765625 309.820312 C 175.941406 286.878906 175.246094 283.921875 173.507812 281.402344 C 171.769531 278.96875 168.46875 276.535156 166.292969 275.667969 C 164.816406 275.058594 163.167969 275.839844 162.035156 275.40625 C 161.167969 275.058594 160.386719 274.449219 159.863281 273.753906 C 159.34375 272.972656 158.996094 271.929688 159.082031 271.058594 C 159.253906 269.929688 160.296875 268.191406 161.167969 267.582031 C 161.949219 266.976562 163.078125 266.890625 163.949219 266.976562 C 164.816406 267.0625 165.773438 267.410156 166.46875 268.105469 C 167.164062 268.972656 167.945312 270.800781 167.773438 272.015625 C 167.511719 273.144531 166.382812 274.710938 165.253906 275.230469 C 164.210938 275.753906 162.210938 275.578125 161.167969 274.972656 C 160.210938 274.363281 159.253906 272.625 159.082031 271.496094 C 158.996094 270.625 159.34375 269.582031 159.863281 268.800781 C 160.386719 268.105469 160.992188 267.410156 162.035156 267.148438 C 163.863281 266.628906 167.773438 267.234375 169.945312 268.019531 C 171.683594 268.539062 172.8125 269.410156 174.289062 270.539062 C 176.375 272.101562 179.070312 274.101562 180.894531 276.882812 C 183.15625 280.359375 184.980469 285.921875 185.675781 290.527344 C 186.371094 294.871094 185.152344 300.347656 185.414062 303.910156 C 185.589844 306.257812 186.71875 308.167969 186.457031 309.820312 C 186.285156 311.210938 185.5 312.6875 184.546875 313.382812 C 183.761719 313.992188 182.546875 314.253906 181.589844 314.164062 C 180.632812 313.992188 179.503906 313.46875 178.894531 312.6875 C 178.199219 311.992188 177.765625 309.820312 177.765625 309.820312 "/></clipPath><clipPath id="365e473ff8"><path d="M 60.773438 265.175781 L 168.234375 265.175781 L 168.234375 275.820312 L 60.773438 275.820312 Z M 60.773438 265.175781 "/></clipPath><clipPath id="42ead6fc65"><path d="M 65.136719 266.453125 C 101.027344 265.152344 107.546875 264.976562 112.5 265.410156 C 115.976562 265.757812 117.28125 266.542969 121.277344 266.800781 C 130.054688 267.496094 158.210938 265.238281 163.773438 266.105469 C 165.253906 266.28125 165.773438 266.28125 166.46875 266.890625 C 167.335938 267.671875 168.207031 269.410156 168.207031 270.539062 C 168.292969 271.496094 167.945312 272.539062 167.25 273.144531 C 166.46875 274.015625 164.644531 274.796875 163.515625 274.710938 C 162.558594 274.710938 161.601562 274.277344 160.992188 273.667969 C 160.210938 272.796875 159.429688 270.972656 159.601562 269.84375 C 159.777344 268.625 160.992188 267.0625 162.035156 266.542969 C 162.820312 266.019531 163.863281 266.019531 164.730469 266.195312 C 165.601562 266.367188 166.554688 266.890625 167.164062 267.585938 C 167.773438 268.191406 168.207031 269.234375 168.207031 270.105469 C 168.292969 270.972656 168.03125 272.015625 167.511719 272.796875 C 167.078125 273.492188 166.640625 274.015625 165.339844 274.535156 C 160.296875 276.363281 133.792969 275.753906 123.625 275.320312 C 117.800781 275.144531 115.800781 274.1875 109.894531 274.015625 C 99.117188 273.582031 69.828125 276.710938 64.09375 275.058594 C 62.617188 274.625 62.09375 274.101562 61.574219 273.320312 C 60.964844 272.539062 60.703125 271.234375 60.789062 270.277344 C 60.964844 269.320312 61.484375 268.191406 62.269531 267.585938 C 62.964844 266.890625 65.136719 266.453125 65.136719 266.453125 "/></clipPath><clipPath id="b168d88b37"><path d="M 226.777344 208.789062 L 313.421875 208.789062 L 313.421875 288.664062 L 226.777344 288.664062 Z M 226.777344 208.789062 "/></clipPath><clipPath id="575a0c5eeb"><path d="M 306.734375 288.136719 C 295.351562 280.578125 294.222656 279.535156 290.65625 276.230469 C 279.96875 266.496094 232.34375 224.523438 227.738281 215.917969 C 226.78125 214.007812 226.78125 212.964844 227.042969 211.921875 C 227.304688 210.964844 228 210.183594 228.695312 209.660156 C 229.476562 209.140625 230.519531 208.878906 231.386719 208.878906 C 232.257812 208.964844 233.300781 209.3125 233.996094 209.921875 C 234.691406 210.441406 235.296875 211.398438 235.472656 212.269531 C 235.558594 213.398438 235.210938 215.308594 234.34375 216.179688 C 233.558594 217.046875 231.648438 217.65625 230.519531 217.570312 C 229.5625 217.484375 228.695312 216.875 228.085938 216.265625 C 227.476562 215.65625 226.957031 214.613281 226.867188 213.746094 C 226.78125 212.875 227.042969 211.746094 227.476562 211.050781 C 227.910156 210.269531 228.695312 209.488281 229.5625 209.226562 C 230.605469 208.878906 231.734375 208.707031 233.648438 209.660156 C 242.335938 213.660156 282.574219 257.371094 294.742188 268.324219 C 299.78125 272.753906 302.390625 275.101562 305.605469 277.359375 C 307.863281 279.011719 310.472656 279.707031 311.6875 281.097656 C 312.472656 281.96875 312.992188 282.835938 313.078125 283.792969 C 313.253906 284.746094 312.90625 285.964844 312.382812 286.832031 C 311.777344 287.617188 310.734375 288.3125 309.777344 288.570312 C 308.90625 288.746094 306.734375 288.136719 306.734375 288.136719 "/></clipPath><clipPath id="c0ea75ba96"><path d="M 127 94 L 209.570312 94 L 209.570312 184 L 127 184 Z M 127 94 "/></clipPath><clipPath id="c740c7fa0a"><path d="M 129.882812 175.679688 C 198.015625 105.027344 200.015625 103.289062 200.449219 101.203125 C 200.796875 99.898438 199.492188 98.769531 199.753906 97.640625 C 200.015625 96.507812 201.230469 95.03125 202.359375 94.597656 C 203.402344 94.074219 205.402344 94.421875 206.359375 94.945312 C 207.226562 95.464844 207.921875 96.597656 208.183594 97.464844 C 208.445312 98.160156 208.617188 98.855469 208.183594 99.550781 C 207.488281 100.679688 203.316406 102.59375 202.101562 102.503906 C 201.578125 102.503906 201.316406 102.15625 200.96875 101.722656 C 200.363281 100.941406 199.492188 99.03125 199.667969 97.8125 C 199.925781 96.683594 201.144531 95.117188 202.1875 94.597656 C 203.316406 94.164062 205.230469 94.335938 206.273438 94.859375 C 207.054688 95.292969 207.75 96.25 208.011719 97.03125 C 208.359375 97.8125 208.359375 98.941406 208.183594 99.8125 C 207.921875 100.679688 207.226562 101.550781 206.53125 102.070312 C 205.835938 102.59375 204.882812 103.027344 203.925781 102.941406 C 202.796875 102.851562 201.058594 101.898438 200.363281 101.027344 C 199.753906 100.246094 199.578125 99.203125 199.667969 98.335938 C 199.667969 97.464844 200.015625 96.421875 200.710938 95.726562 C 201.492188 94.945312 204.445312 94.074219 204.535156 94.25 C 204.621094 94.511719 200.015625 97.898438 199.753906 97.640625 C 199.578125 97.550781 199.839844 97.03125 200.101562 96.683594 C 200.449219 96.074219 201.578125 94.945312 202.359375 94.597656 C 202.96875 94.25 203.664062 94.074219 204.359375 94.25 C 205.402344 94.511719 206.96875 95.378906 207.75 96.507812 C 208.703125 97.8125 209.398438 99.898438 209.226562 101.8125 C 208.964844 104.417969 206.445312 108.066406 205.054688 110.328125 C 203.925781 111.890625 203.230469 112.414062 201.664062 114.152344 C 198.363281 117.800781 191.757812 125.101562 186.023438 131.011719 C 179.242188 137.875 171.074219 145.089844 163.425781 152.910156 C 155.085938 161.515625 143.527344 176.027344 138.136719 180.546875 C 135.964844 182.371094 134.746094 183.328125 133.097656 183.761719 C 131.792969 184.109375 130.054688 184.023438 129.097656 183.328125 C 128.144531 182.71875 127.273438 180.894531 127.101562 179.851562 C 127.011719 179.070312 127.1875 178.460938 127.621094 177.765625 C 128.054688 177.070312 129.882812 175.679688 129.882812 175.679688 "/></clipPath><clipPath id="321fc7219e"><path d="M 163.277344 139.292969 L 241.792969 139.292969 L 241.792969 224 L 163.277344 224 Z M 163.277344 139.292969 "/></clipPath><clipPath id="d5d836987b"><path d="M 234.253906 222.695312 C 188.890625 174.984375 170.726562 154.910156 165.945312 148.566406 C 164.558594 146.652344 163.773438 145.871094 163.515625 144.65625 C 163.253906 143.699219 163.339844 142.742188 163.773438 141.875 C 164.296875 140.917969 165.859375 139.613281 166.988281 139.441406 C 168.207031 139.179688 170.03125 139.960938 170.902344 140.65625 C 171.597656 141.265625 172.03125 142.222656 172.03125 143.179688 C 172.117188 144.308594 171.507812 146.21875 170.554688 147 C 169.683594 147.785156 167.683594 148.042969 166.640625 147.871094 C 165.6875 147.695312 164.816406 147 164.296875 146.304688 C 163.773438 145.609375 163.425781 144.566406 163.425781 143.699219 C 163.425781 142.832031 163.773438 141.789062 164.296875 141.09375 C 164.816406 140.398438 165.601562 139.703125 166.554688 139.527344 C 167.683594 139.265625 168.816406 139.355469 170.554688 140.308594 C 176.898438 144.132812 194.714844 168.378906 206.621094 181.417969 C 217.917969 193.671875 236.6875 211.136719 240.253906 216.527344 C 241.207031 217.832031 241.554688 218.265625 241.554688 219.308594 C 241.640625 220.4375 240.859375 222.175781 239.992188 222.957031 C 239.210938 223.652344 237.992188 224 237.035156 223.914062 C 236.082031 223.914062 234.253906 222.695312 234.253906 222.695312 "/></clipPath><clipPath id="cb21c2dd76"><path d="M 41.972656 297.933594 L 51.367188 297.933594 L 51.367188 311 L 41.972656 311 Z M 41.972656 297.933594 "/></clipPath><clipPath id="03b6105bc9"><path d="M 51.316406 302.652344 C 49.667969 309.601562 48.363281 310.734375 47.148438 310.90625 C 46.015625 311.167969 44.105469 310.472656 43.324219 309.691406 C 42.628906 309.082031 42.191406 308.039062 42.105469 307.167969 C 41.933594 306.300781 42.105469 305.257812 42.628906 304.476562 C 43.234375 303.519531 44.886719 302.390625 46.015625 302.304688 C 47.234375 302.214844 49.058594 303 49.753906 303.953125 C 50.535156 304.910156 50.882812 306.820312 50.535156 307.953125 C 50.1875 309.082031 48.796875 310.472656 47.667969 310.820312 C 46.453125 311.167969 44.539062 310.734375 43.671875 310.039062 C 42.714844 309.253906 42.191406 307.691406 42.019531 306.300781 C 41.84375 304.648438 42.191406 302.304688 42.886719 300.914062 C 43.496094 299.695312 44.625 298.390625 45.84375 298.042969 C 46.972656 297.785156 48.882812 298.132812 49.753906 298.914062 C 50.710938 299.695312 51.316406 302.652344 51.316406 302.652344 "/></clipPath></defs><g id="51b9fb7f30"><g clip-rule="nonzero" clip-path="url(#20dc987fca)"><g clip-rule="nonzero" clip-path="url(#8bc7420b4f)"><path style=" stroke:none;fill-rule:nonzero;fill:currentColor;fill-opacity:1;" d="M 81.214844 134.703125 L 139.632812 134.703125 L 139.632812 188.5 L 81.214844 188.5 Z M 81.214844 134.703125 "/></g></g><g clip-rule="nonzero" clip-path="url(#9d7a602c1c)"><g clip-rule="nonzero" clip-path="url(#18f599e961)"><path style=" stroke:none;fill-rule:nonzero;fill:currentColor;fill-opacity:1;" d="M 81.214844 55.359375 L 165.078125 55.359375 L 165.078125 150.363281 L 81.214844 150.363281 Z M 81.214844 55.359375 "/></g></g><g clip-rule="nonzero" clip-path="url(#15f0f3ad8c)"><g clip-rule="nonzero" clip-path="url(#310eb31af6)"><path style=" stroke:none;fill-rule:nonzero;fill:currentColor;fill-opacity:1;" d="M 149.261719 55.359375 L 210.863281 55.359375 L 210.863281 106.894531 L 149.261719 106.894531 Z M 149.261719 55.359375 "/></g></g><g clip-rule="nonzero" clip-path="url(#86f86914f3)"><g clip-rule="nonzero" clip-path="url(#6ad38f540c)"><path style=" stroke:none;fill-rule:nonzero;fill:currentColor;fill-opacity:1;" d="M 300.476562 255.851562 L 337.507812 255.851562 L 337.507812 290.960938 L 300.476562 290.960938 Z M 300.476562 255.851562 "/></g></g><g clip-rule="nonzero" clip-path="url(#31614374fe)"><g clip-rule="nonzero" clip-path="url(#4e94633c20)"><path style=" stroke:none;fill-rule:nonzero;fill:currentColor;fill-opacity:1;" d="M 176.375 120.105469 L 336.582031 120.105469 L 336.582031 270.886719 L 176.375 270.886719 Z M 176.375 120.105469 "/></g></g><g clip-rule="nonzero" clip-path="url(#c4c72f4b77)"><g clip-rule="nonzero" clip-path="url(#4a52f5fb21)"><path style=" stroke:none;fill-rule:nonzero;fill:currentColor;fill-opacity:1;" d="M 53.054688 232.125 L 171.253906 232.125 L 171.253906 273.40625 L 53.054688 273.40625 Z M 53.054688 232.125 "/></g></g><g clip-rule="nonzero" clip-path="url(#bad62c1df9)"><g clip-rule="nonzero" clip-path="url(#73523e2861)"><path style=" stroke:none;fill-rule:nonzero;fill:currentColor;fill-opacity:1;" d="M 37.5 263.324219 L 71.304688 263.324219 L 71.304688 319.582031 L 37.5 319.582031 Z M 37.5 263.324219 "/></g></g><g clip-rule="nonzero" clip-path="url(#41ddd4bf52)"><g clip-rule="nonzero" clip-path="url(#6b55891162)"><path style=" stroke:none;fill-rule:nonzero;fill:currentColor;fill-opacity:1;" d="M 38.019531 302 L 189.90625 302 L 189.90625 319.640625 L 38.019531 319.640625 Z M 38.019531 302 "/></g></g><g clip-rule="nonzero" clip-path="url(#65e7085175)"><g clip-rule="nonzero" clip-path="url(#f6df99f084)"><path style=" stroke:none;fill-rule:nonzero;fill:currentColor;fill-opacity:1;" d="M 155.605469 263.5 L 189.933594 263.5 L 189.933594 317.671875 L 155.605469 317.671875 Z M 155.605469 263.5 "/></g></g><g clip-rule="nonzero" clip-path="url(#365e473ff8)"><g clip-rule="nonzero" clip-path="url(#42ead6fc65)"><path style=" stroke:none;fill-rule:nonzero;fill:currentColor;fill-opacity:1;" d="M 57.316406 261.847656 L 171.757812 261.847656 L 171.757812 278.882812 L 57.316406 278.882812 Z M 57.316406 261.847656 "/></g></g><g clip-rule="nonzero" clip-path="url(#b168d88b37)"><g clip-rule="nonzero" clip-path="url(#575a0c5eeb)"><path style=" stroke:none;fill-rule:nonzero;fill:currentColor;fill-opacity:1;" d="M 223.390625 205.402344 L 316.808594 205.402344 L 316.808594 292.046875 L 223.390625 292.046875 Z M 223.390625 205.402344 "/></g></g><g clip-rule="nonzero" clip-path="url(#c0ea75ba96)"><g clip-rule="nonzero" clip-path="url(#c740c7fa0a)"><path style=" stroke:none;fill-rule:nonzero;fill:currentColor;fill-opacity:1;" d="M 123.625 90.773438 L 212.703125 90.773438 L 212.703125 187.160156 L 123.625 187.160156 Z M 123.625 90.773438 "/></g></g><g clip-rule="nonzero" clip-path="url(#321fc7219e)"><g clip-rule="nonzero" clip-path="url(#d5d836987b)"><path style=" stroke:none;fill-rule:nonzero;fill:currentColor;fill-opacity:1;" d="M 159.949219 135.964844 L 245.117188 135.964844 L 245.117188 227.453125 L 159.949219 227.453125 Z M 159.949219 135.964844 "/></g></g><g clip-rule="nonzero" clip-path="url(#cb21c2dd76)"><g clip-rule="nonzero" clip-path="url(#03b6105bc9)"><path style=" stroke:none;fill-rule:nonzero;fill:currentColor;fill-opacity:1;" d="M 38.542969 294.566406 L 54.792969 294.566406 L 54.792969 314.375 L 38.542969 314.375 Z M 38.542969 294.566406 "/></g></g></g></svg>