<svg xmlns="http://www.w3.org/2000/svg" xmlns:xlink="http://www.w3.org/1999/xlink" width="500" zoomAndPan="magnify" viewBox="0 0 375 374.999991" height="500" preserveAspectRatio="xMidYMid meet" version="1.2"><defs><clipPath id="19fbebd418"><path d="M 179.316406 200.824219 L 190.246094 200.824219 L 190.246094 333.636719 L 179.316406 333.636719 Z M 179.316406 200.824219 "/></clipPath><clipPath id="5b593f8ce6"><path d="M 188.511719 205.164062 C 190.320312 237.210938 190.320312 256.941406 190.0625 273.828125 C 189.804688 291.835938 190.148438 321.90625 188.167969 329.230469 C 187.652344 331.296875 187.21875 332.160156 186.273438 332.847656 C 185.238281 333.535156 183.34375 333.710938 182.222656 333.277344 C 181.101562 332.847656 179.984375 331.296875 179.636719 330.175781 C 179.378906 329.316406 179.550781 328.28125 179.898438 327.417969 C 180.328125 326.644531 180.929688 325.78125 181.792969 325.4375 C 182.824219 325.007812 184.808594 325.007812 185.839844 325.4375 C 186.703125 325.78125 187.390625 326.644531 187.738281 327.417969 C 188.082031 328.28125 188.339844 329.316406 188.082031 330.175781 C 187.738281 331.296875 186.445312 332.761719 185.410156 333.277344 C 184.636719 333.710938 183.515625 333.621094 182.652344 333.449219 C 181.878906 333.191406 180.929688 332.589844 180.414062 331.898438 C 179.898438 331.210938 179.722656 330.433594 179.550781 329.230469 C 179.207031 327.160156 179.464844 324.230469 179.550781 320.011719 C 179.722656 310.703125 181.101562 289.855469 181.449219 275.378906 C 181.707031 261.679688 181.792969 247.722656 181.449219 235.316406 C 181.1875 224.546875 178.777344 210.246094 179.898438 205.164062 C 180.328125 203.351562 180.84375 202.320312 181.792969 201.628906 C 182.566406 201.027344 183.773438 200.769531 184.722656 200.855469 C 185.667969 201.027344 186.789062 201.628906 187.476562 202.320312 C 188.082031 203.007812 188.511719 205.164062 188.511719 205.164062 "/></clipPath><clipPath id="c904a015bc"><path d="M 182.699219 191.121094 L 240.929688 191.121094 L 240.929688 308.589844 L 182.699219 308.589844 Z M 182.699219 191.121094 "/></clipPath><clipPath id="4bfa755ce6"><path d="M 183.214844 245.742188 C 203.203125 217.222656 213.628906 206.109375 219.140625 200.941406 C 222.070312 198.183594 223.792969 196.804688 226.378906 195.167969 C 229.050781 193.617188 232.410156 191.203125 234.996094 191.289062 C 236.976562 191.378906 239.734375 192.667969 240.421875 194.132812 C 241.113281 195.339844 240.679688 196.976562 239.992188 198.871094 C 238.699219 202.75 233.703125 207.574219 229.824219 214.382812 C 223.191406 226.355469 211.816406 250.652344 205.527344 265.558594 C 200.789062 276.929688 196.308594 288.5625 194.328125 295.886719 C 193.292969 299.933594 193.8125 303.296875 192.691406 305.449219 C 192 306.828125 190.796875 307.863281 189.761719 308.207031 C 188.898438 308.550781 187.867188 308.464844 187.003906 308.035156 C 186.058594 307.601562 184.765625 306.050781 184.417969 305.019531 C 184.160156 304.070312 184.246094 303.035156 184.765625 302.261719 C 185.28125 301.3125 186.832031 300.109375 187.953125 299.847656 C 188.8125 299.589844 189.847656 299.761719 190.625 300.28125 C 191.570312 300.882812 192.691406 302.519531 192.949219 303.640625 C 193.121094 304.5 192.777344 305.535156 192.347656 306.3125 C 191.828125 307.085938 191.054688 307.777344 190.191406 308.121094 C 189.417969 308.378906 188.296875 308.464844 187.433594 308.207031 C 186.660156 307.949219 185.710938 307.34375 185.195312 306.65625 C 184.679688 305.964844 184.417969 305.191406 184.332031 304.070312 C 184.160156 302.089844 184.679688 299.074219 185.539062 295.542969 C 187.003906 289.25 190.191406 280.378906 194.414062 270.125 C 201.046875 253.753906 217.675781 218 223.878906 207.402344 C 226.121094 203.523438 227.585938 201.714844 229.222656 199.90625 C 230.429688 198.613281 231.71875 196.890625 232.667969 197.0625 C 233.617188 197.148438 235.253906 199.5625 234.90625 200.769531 C 234.476562 202.40625 230.082031 202.835938 227.152344 205.164062 C 221.984375 209.210938 212.851562 220.152344 208.285156 225.324219 C 205.527344 228.339844 204.320312 229.71875 201.910156 232.820312 C 198.464844 237.558594 192.777344 248.84375 189.761719 250.996094 C 188.640625 251.859375 187.78125 251.945312 186.832031 251.859375 C 185.882812 251.859375 184.679688 251.257812 184.074219 250.566406 C 183.386719 249.878906 182.957031 248.671875 182.867188 247.808594 C 182.78125 247.035156 183.214844 245.742188 183.214844 245.742188 "/></clipPath><clipPath id="67928bf63c"><path d="M 134 152.441406 L 183.765625 152.441406 L 183.765625 202.320312 L 134 202.320312 Z M 134 152.441406 "/></clipPath><clipPath id="6712a7333e"><path d="M 172.402344 202.148438 C 163.007812 200.597656 158.011719 197.234375 154.738281 194.824219 C 151.980469 192.839844 150 191.464844 147.671875 188.707031 C 144.570312 184.828125 141.039062 178.023438 138.800781 172.9375 C 136.816406 168.632812 135.007812 163.546875 134.492188 160.273438 C 134.148438 158.207031 133.800781 156.484375 134.492188 155.191406 C 135.09375 153.984375 136.300781 152.777344 138.28125 152.605469 C 143.367188 152.175781 162.234375 162.429688 167.488281 165.011719 C 169.558594 166.046875 170.160156 166.304688 171.625 167.425781 C 173.605469 168.890625 176.191406 170.957031 178 173.371094 C 179.984375 175.78125 181.878906 178.96875 182.824219 181.984375 C 183.6875 184.828125 183.773438 188.449219 183.515625 190.945312 C 183.34375 192.753906 182.824219 194.304688 182.050781 195.597656 C 181.273438 196.890625 180.070312 197.753906 178.777344 198.699219 C 177.398438 199.734375 175.589844 201.285156 173.691406 201.457031 C 171.539062 201.628906 167.664062 200.511719 166.628906 199.132812 C 165.851562 198.097656 166.199219 196.117188 166.628906 195.082031 C 167.058594 194.21875 167.75 193.53125 168.695312 193.1875 C 169.730469 192.839844 171.710938 192.839844 172.660156 193.445312 C 173.691406 194.046875 174.726562 195.769531 174.726562 196.890625 C 174.8125 198.097656 173.953125 199.820312 173.003906 200.597656 C 172.054688 201.285156 170.160156 201.457031 169.039062 201.199219 C 168.179688 200.941406 167.316406 200.335938 166.886719 199.5625 C 166.285156 198.527344 166.023438 196.632812 166.457031 195.511719 C 166.886719 194.394531 168.4375 193.273438 169.558594 192.929688 C 170.417969 192.667969 171.453125 192.839844 172.316406 193.273438 C 173.089844 193.617188 173.78125 195.339844 174.296875 195.167969 C 175.15625 194.824219 175.332031 188.707031 175.070312 186.378906 C 174.898438 184.65625 174.554688 183.535156 173.691406 182.070312 C 172.488281 179.917969 169.558594 176.988281 167.664062 175.265625 C 166.371094 174.058594 165.679688 173.542969 163.785156 172.59375 C 159.648438 170.355469 146.121094 167.339844 142.761719 164.496094 C 141.210938 163.289062 140.609375 162.082031 140.4375 160.707031 C 140.265625 159.152344 141.296875 155.792969 141.988281 155.792969 C 143.105469 155.792969 144.398438 164.496094 146.382812 168.976562 C 148.707031 174.058594 151.894531 180.519531 155.601562 184.484375 C 158.789062 187.929688 163.183594 190.601562 166.457031 192.066406 C 168.953125 193.101562 171.710938 192.929688 173.433594 193.703125 C 174.46875 194.132812 175.417969 194.566406 175.933594 195.425781 C 176.535156 196.375 176.707031 198.269531 176.363281 199.390625 C 176.105469 200.335938 175.15625 201.199219 174.382812 201.628906 C 173.78125 202.0625 172.402344 202.148438 172.402344 202.148438 "/></clipPath><clipPath id="dd8d94b006"><path d="M 142 124 L 185.640625 124 L 185.640625 165.75 L 142 165.75 Z M 142 124 "/></clipPath><clipPath id="7d5deb974e"><path d="M 175.070312 165.703125 C 162.40625 163.71875 161.457031 162.859375 159.90625 161.566406 C 157.839844 159.929688 155.253906 157.429688 153.359375 155.019531 C 151.378906 152.605469 149.914062 150.023438 148.363281 147.007812 C 146.46875 143.214844 143.882812 137.183594 142.933594 133.910156 C 142.332031 132.101562 141.816406 130.980469 142.074219 129.515625 C 142.246094 127.878906 143.28125 125.464844 144.570312 124.605469 C 145.691406 123.828125 147.761719 123.914062 149.136719 124.261719 C 150.515625 124.691406 151.121094 125.984375 152.929688 126.929688 C 156.546875 128.742188 165.679688 130.808594 170.246094 132.875 C 173.519531 134.425781 176.363281 136.0625 178.347656 137.613281 C 179.722656 138.734375 180.5 139.511719 181.449219 140.976562 C 182.824219 143.128906 184.550781 146.660156 185.066406 149.675781 C 185.582031 152.519531 185.925781 156.050781 184.636719 158.378906 C 183.171875 160.792969 178.257812 163.808594 176.449219 163.71875 C 175.417969 163.71875 174.726562 162.773438 174.210938 162.082031 C 173.78125 161.394531 173.347656 160.359375 173.519531 159.414062 C 173.691406 158.292969 174.554688 156.570312 175.589844 155.964844 C 176.621094 155.363281 178.519531 155.277344 179.636719 155.792969 C 180.671875 156.3125 181.878906 157.777344 182.050781 158.980469 C 182.222656 160.1875 181.621094 161.996094 180.757812 162.773438 C 179.898438 163.632812 178 164.152344 176.882812 163.894531 C 175.675781 163.632812 174.296875 162.253906 173.78125 161.222656 C 173.347656 160.445312 173.347656 159.414062 173.691406 158.550781 C 174.039062 157.429688 175.417969 156.050781 176.449219 155.621094 C 177.3125 155.191406 179.121094 155.363281 179.207031 155.621094 C 179.207031 155.792969 176.363281 157.429688 175.847656 157 C 175.242188 156.570312 176.535156 153.640625 176.449219 152.089844 C 176.363281 150.625 175.933594 149.160156 175.332031 147.867188 C 174.726562 146.488281 173.953125 145.109375 172.574219 143.992188 C 170.679688 142.351562 167.574219 141.148438 164.472656 139.855469 C 160.597656 138.21875 153.789062 136.925781 150.777344 135.375 C 149.136719 134.511719 147.242188 133.652344 147.242188 132.703125 C 147.15625 131.757812 149.3125 129.429688 150.429688 129.6875 C 152.414062 130.03125 153.964844 139.25 156.375 143.472656 C 158.703125 147.523438 162.148438 152.261719 164.5625 154.414062 C 165.851562 155.707031 166.714844 156.226562 168.179688 156.742188 C 170.246094 157.34375 174.296875 156.570312 176.105469 157.257812 C 177.226562 157.601562 178.085938 158.121094 178.605469 158.980469 C 179.207031 159.929688 179.464844 161.824219 179.121094 162.945312 C 178.777344 163.894531 177.828125 164.753906 177.054688 165.269531 C 176.449219 165.617188 175.070312 165.703125 175.070312 165.703125 "/></clipPath><clipPath id="003ce988ca"><path d="M 145.132812 96 L 183.734375 96 L 183.734375 134.207031 L 145.132812 134.207031 Z M 145.132812 96 "/></clipPath><clipPath id="c17fc1d250"><path d="M 174.898438 134.167969 C 166.800781 133.566406 165.25 133.308594 163.527344 132.1875 C 160.769531 130.378906 157.238281 126.070312 154.738281 122.449219 C 152.152344 118.746094 150.085938 113.835938 148.449219 109.957031 C 147.070312 106.855469 145.175781 103.667969 145.261719 101.257812 C 145.347656 99.359375 146.121094 97.207031 147.414062 96.429688 C 148.707031 95.65625 151.550781 96.519531 153.273438 97.121094 C 154.738281 97.636719 155.429688 98.929688 157.152344 99.792969 C 160.082031 101.257812 166.285156 102.375 169.816406 104.101562 C 172.746094 105.476562 175.417969 107.203125 177.226562 108.925781 C 178.691406 110.304688 179.550781 111.769531 180.5 113.144531 C 181.273438 114.523438 181.964844 115.730469 182.480469 117.367188 C 183.085938 119.695312 184.203125 123.398438 183.515625 126.070312 C 182.824219 128.742188 179.292969 132.875 177.914062 133.480469 C 177.398438 133.738281 177.054688 133.652344 176.535156 133.480469 C 175.675781 133.132812 173.867188 131.929688 173.433594 130.808594 C 173.003906 129.773438 173.347656 127.792969 173.867188 126.84375 C 174.296875 125.984375 175.242188 125.464844 176.105469 125.121094 C 176.882812 124.863281 178 124.777344 178.777344 125.121094 C 179.808594 125.554688 181.1875 127.015625 181.621094 128.050781 C 181.878906 128.914062 181.792969 130.03125 181.449219 130.808594 C 181.101562 131.671875 180.414062 132.445312 179.636719 132.960938 C 178.949219 133.394531 177.828125 133.652344 176.96875 133.480469 C 176.105469 133.394531 175.15625 132.960938 174.46875 132.359375 C 173.867188 131.757812 173.347656 130.808594 173.175781 129.945312 C 173.089844 129.085938 173.175781 127.964844 173.605469 127.191406 C 174.210938 126.242188 176.882812 124.863281 176.96875 124.949219 C 177.054688 125.035156 175.417969 127.449219 174.898438 127.277344 C 174.039062 127.015625 174.640625 120.726562 173.605469 118.488281 C 172.832031 116.765625 171.367188 115.558594 170.074219 114.4375 C 168.953125 113.40625 168.179688 112.714844 166.457031 111.941406 C 163.613281 110.476562 156.460938 109.183594 153.703125 107.460938 C 152.238281 106.511719 150.6875 105.304688 150.6875 104.1875 C 150.6875 103.152344 153.015625 100.738281 154.050781 100.996094 C 156.03125 101.34375 157.667969 110.476562 159.734375 114.179688 C 161.457031 117.195312 163.355469 119.78125 165.078125 121.761719 C 166.285156 123.226562 167.058594 124.519531 168.609375 125.207031 C 170.503906 125.984375 174.210938 125.121094 175.933594 125.726562 C 177.054688 126.070312 177.914062 126.585938 178.433594 127.449219 C 179.035156 128.394531 179.207031 130.292969 178.863281 131.410156 C 178.605469 132.359375 177.65625 133.222656 176.882812 133.738281 C 176.277344 134.082031 174.898438 134.167969 174.898438 134.167969 "/></clipPath><clipPath id="f780cb908a"><path d="M 158.867188 40.734375 L 182.832031 40.734375 L 182.832031 99.203125 L 158.867188 99.203125 Z M 158.867188 40.734375 "/></clipPath><clipPath id="80b832393f"><path d="M 177.828125 46.804688 C 169.125 67.914062 168.609375 70.324219 168.179688 73.253906 C 167.75 76.183594 167.488281 79.71875 167.488281 82.128906 C 167.488281 83.851562 167.316406 85.230469 168.007812 86.523438 C 168.695312 87.816406 170.160156 88.9375 171.882812 89.710938 C 174.125 90.746094 179.035156 90.140625 180.757812 91.175781 C 181.707031 91.777344 182.222656 92.554688 182.480469 93.328125 C 182.738281 94.191406 182.910156 95.226562 182.480469 96.085938 C 182.050781 97.121094 180.671875 98.5 179.636719 98.929688 C 178.777344 99.273438 177.65625 99.101562 176.882812 98.84375 C 176.105469 98.5 175.242188 97.808594 174.726562 97.035156 C 174.296875 96.34375 174.039062 95.226562 174.125 94.363281 C 174.210938 93.503906 174.554688 92.46875 175.242188 91.867188 C 176.105469 91.089844 177.914062 90.488281 179.035156 90.488281 C 179.984375 90.574219 180.929688 91.175781 181.535156 91.777344 C 182.136719 92.382812 182.566406 93.417969 182.738281 94.277344 C 182.824219 95.140625 182.566406 96.171875 182.136719 96.949219 C 181.707031 97.722656 181.101562 98.414062 180.070312 98.757812 C 178.085938 99.445312 172.660156 98.84375 170.160156 98.15625 C 168.4375 97.722656 167.402344 97.035156 166.113281 96.257812 C 164.90625 95.570312 163.527344 94.792969 162.492188 93.761719 C 161.371094 92.554688 160.511719 90.917969 159.90625 89.453125 C 159.304688 87.988281 159.046875 86.867188 158.960938 84.800781 C 158.703125 80.578125 159.304688 72.222656 160.855469 65.757812 C 162.664062 58.523438 167.144531 47.234375 169.816406 43.617188 C 170.851562 42.066406 171.710938 41.289062 172.832031 40.945312 C 173.78125 40.6875 174.984375 40.945312 175.847656 41.378906 C 176.707031 41.808594 177.484375 42.839844 177.828125 43.703125 C 178.171875 44.566406 177.828125 46.804688 177.828125 46.804688 "/></clipPath><clipPath id="5e4a9feb38"><path d="M 170.152344 41.53125 L 188.691406 41.53125 L 188.691406 99.117188 L 170.152344 99.117188 Z M 170.152344 41.53125 "/></clipPath><clipPath id="ee4f1ad071"><path d="M 177.226562 90.660156 C 178.949219 89.710938 179.464844 87.816406 179.722656 86.09375 C 180.15625 83.679688 180.328125 80.835938 179.722656 76.960938 C 178.605469 69.636719 170.332031 50.855469 170.246094 46.203125 C 170.246094 44.824219 170.503906 44.21875 170.9375 43.53125 C 171.453125 42.839844 172.230469 42.066406 173.175781 41.808594 C 174.210938 41.550781 176.191406 41.894531 177.140625 42.496094 C 177.914062 42.929688 178.433594 43.875 178.691406 44.738281 C 178.949219 45.597656 178.863281 46.632812 178.605469 47.496094 C 178.257812 48.269531 177.570312 49.132812 176.796875 49.5625 C 176.019531 50.078125 174.984375 50.335938 174.125 50.164062 C 173.003906 49.992188 171.367188 48.871094 170.765625 48.011719 C 170.246094 47.234375 170.074219 46.117188 170.332031 45.253906 C 170.589844 44.132812 171.710938 42.582031 172.746094 42.066406 C 173.519531 41.550781 174.554688 41.464844 175.417969 41.722656 C 176.535156 41.980469 177.484375 42.753906 178.519531 44.304688 C 181.273438 48.269531 185.324219 63.261719 186.960938 69.722656 C 187.910156 73.601562 188.425781 75.753906 188.597656 79.285156 C 188.769531 83.335938 188.597656 89.796875 187.476562 92.8125 C 186.875 94.707031 186.015625 95.828125 184.722656 96.777344 C 183.171875 97.984375 180.242188 99.015625 178.605469 99.101562 C 177.484375 99.101562 176.449219 98.671875 175.675781 98.15625 C 175.070312 97.722656 174.726562 97.121094 174.46875 96.433594 C 174.125 95.65625 173.953125 94.363281 174.296875 93.417969 C 174.726562 92.382812 177.226562 90.660156 177.226562 90.660156 "/></clipPath><clipPath id="5c2b3910bd"><path d="M 179.667969 80.097656 L 218.804688 80.097656 L 218.804688 119.234375 L 179.667969 119.234375 Z M 179.667969 80.097656 "/></clipPath><clipPath id="81a2ee74ec"><path d="M 190.925781 119.175781 C 183.515625 116.679688 181.792969 115.816406 180.929688 114.179688 C 179.722656 112.113281 179.636719 107.804688 179.898438 105.476562 C 180.070312 103.753906 180.242188 102.722656 181.1875 101.171875 C 182.824219 98.328125 187.132812 94.019531 190.925781 91.003906 C 195.234375 87.644531 201.78125 84.023438 206.175781 82.214844 C 209.105469 81.007812 212.207031 80.148438 214.1875 80.148438 C 215.308594 80.234375 216.082031 80.40625 216.859375 80.921875 C 217.71875 81.699219 218.667969 83.335938 218.667969 84.542969 C 218.667969 85.75 217.71875 87.472656 216.773438 88.074219 C 215.738281 88.761719 213.84375 88.9375 212.722656 88.503906 C 211.601562 87.988281 210.394531 86.523438 210.136719 85.402344 C 209.878906 84.199219 210.484375 82.386719 211.257812 81.527344 C 212.121094 80.664062 214.015625 80.148438 215.136719 80.234375 C 215.996094 80.320312 216.945312 80.921875 217.546875 81.527344 C 218.152344 82.214844 218.667969 83.164062 218.667969 84.109375 C 218.667969 85.230469 218.238281 86.695312 217.117188 87.816406 C 215.136719 89.710938 208.929688 90.574219 205.484375 92.210938 C 202.640625 93.589844 200.316406 94.96875 197.816406 96.691406 C 195.40625 98.414062 192.476562 100.566406 190.925781 102.460938 C 189.71875 103.839844 188.511719 105.21875 188.511719 106.511719 C 188.511719 107.804688 189.546875 109.527344 190.582031 110.476562 C 191.699219 111.335938 193.941406 111.25 194.800781 112.113281 C 195.492188 112.886719 195.921875 114.007812 195.835938 114.957031 C 195.75 116.074219 194.800781 117.796875 193.941406 118.488281 C 193.164062 119.089844 190.925781 119.175781 190.925781 119.175781 "/></clipPath><clipPath id="cb2fd1297d"><path d="M 187.359375 80.226562 L 218.675781 80.226562 L 218.675781 117.777344 L 187.359375 117.777344 Z M 187.359375 80.226562 "/></clipPath><clipPath id="d2aca8035e"><path d="M 218.496094 85.835938 C 207.640625 107.890625 203.847656 112.027344 201.261719 114.09375 C 199.800781 115.300781 198.851562 115.816406 197.386719 116.335938 C 195.664062 117.023438 192.820312 117.886719 191.269531 117.710938 C 190.234375 117.539062 189.375 117.109375 188.769531 116.59375 C 188.082031 115.988281 187.476562 115.042969 187.390625 114.179688 C 187.304688 113.058594 187.824219 111.164062 188.683594 110.304688 C 189.546875 109.441406 191.355469 108.925781 192.5625 109.183594 C 193.683594 109.441406 195.234375 110.648438 195.664062 111.769531 C 196.09375 112.800781 195.921875 114.78125 195.234375 115.730469 C 194.628906 116.765625 192.90625 117.710938 191.699219 117.710938 C 190.582031 117.710938 188.855469 116.851562 188.167969 115.816406 C 187.476562 114.871094 187.304688 112.886719 187.652344 111.855469 C 187.910156 110.992188 188.511719 110.304688 189.375 109.699219 C 190.667969 108.925781 193.25 109.183594 195.058594 108.148438 C 197.214844 106.855469 199.28125 104.273438 201.089844 101.945312 C 202.816406 99.621094 204.191406 97.121094 205.65625 94.191406 C 207.554688 90.488281 209.707031 83.25 211.34375 81.441406 C 211.945312 80.75 212.378906 80.578125 213.152344 80.40625 C 213.929688 80.148438 215.308594 80.148438 216.167969 80.578125 C 217.03125 81.007812 217.890625 81.871094 218.324219 82.734375 C 218.667969 83.59375 218.496094 85.835938 218.496094 85.835938 "/></clipPath><clipPath id="8ddcc5314d"><path d="M 181.128906 108.1875 L 221.816406 108.1875 L 221.816406 149.976562 L 181.128906 149.976562 Z M 181.128906 108.1875 "/></clipPath><clipPath id="2766741738"><path d="M 192.042969 149.847656 C 184.808594 147.09375 183.515625 145.714844 182.738281 144.335938 C 181.964844 143.042969 181.621094 141.40625 181.449219 139.855469 C 181.273438 138.390625 181.101562 136.925781 181.535156 135.203125 C 182.136719 132.875 184.375 129.429688 185.753906 127.363281 C 186.789062 125.8125 187.476562 125.035156 188.855469 123.742188 C 191.269531 121.417969 195.75 117.625 199.539062 115.300781 C 203.332031 112.972656 208.414062 110.992188 211.601562 109.871094 C 213.757812 109.097656 215.480469 108.40625 216.945312 108.320312 C 217.976562 108.320312 218.925781 108.40625 219.613281 109.011719 C 220.5625 109.699219 221.597656 111.335938 221.597656 112.542969 C 221.683594 113.664062 220.820312 115.472656 219.875 116.160156 C 218.925781 116.851562 216.945312 117.109375 215.910156 116.679688 C 214.789062 116.335938 213.410156 114.871094 213.152344 113.75 C 212.894531 112.542969 213.324219 110.648438 214.101562 109.785156 C 214.875 108.925781 216.6875 108.234375 217.890625 108.40625 C 219.097656 108.492188 220.5625 109.785156 221.164062 110.734375 C 221.683594 111.507812 221.683594 112.542969 221.597656 113.40625 C 221.425781 114.265625 221.164062 115.042969 220.21875 115.816406 C 218.0625 117.710938 209.707031 119.523438 205.742188 121.675781 C 202.726562 123.3125 200.402344 125.035156 198.074219 127.015625 C 195.921875 129 193.421875 131.410156 192.042969 133.394531 C 191.097656 134.6875 190.0625 135.890625 190.0625 137.183594 C 189.976562 138.476562 190.925781 140.199219 191.957031 141.148438 C 192.90625 142.09375 195.144531 141.921875 196.007812 142.871094 C 196.699219 143.558594 197.042969 144.765625 196.957031 145.714844 C 196.871094 146.832031 195.921875 148.558594 194.972656 149.246094 C 194.199219 149.847656 192.042969 149.847656 192.042969 149.847656 "/></clipPath><clipPath id="3c3b0cf938"><path d="M 188.503906 108.3125 L 221.621094 108.3125 L 221.621094 149.359375 L 188.503906 149.359375 Z M 188.503906 108.3125 "/></clipPath><clipPath id="78c20afdcd"><path d="M 221.597656 113.144531 C 219.355469 121.933594 218.238281 124.777344 216.511719 127.964844 C 214.015625 132.445312 208.757812 140.113281 206.089844 143.042969 C 204.796875 144.507812 204.191406 145.023438 202.726562 145.886719 C 200.316406 147.179688 194.972656 149.332031 192.820312 149.246094 C 191.613281 149.246094 190.925781 148.902344 190.234375 148.296875 C 189.460938 147.523438 188.597656 145.714844 188.683594 144.507812 C 188.855469 143.386719 189.890625 141.75 190.925781 141.148438 C 191.957031 140.628906 193.941406 140.628906 194.972656 141.148438 C 196.007812 141.664062 197.042969 143.386719 197.300781 144.421875 C 197.472656 145.367188 197.128906 146.402344 196.699219 147.179688 C 196.265625 147.867188 195.40625 148.644531 194.628906 148.988281 C 193.855469 149.246094 192.734375 149.417969 191.871094 149.160156 C 190.839844 148.730469 189.375 147.4375 188.941406 146.402344 C 188.511719 145.542969 188.597656 144.421875 188.855469 143.644531 C 189.203125 142.785156 189.632812 142.179688 190.582031 141.40625 C 192.304688 140.027344 197.558594 138.820312 199.625 137.269531 C 201.003906 136.238281 201.351562 135.375 202.46875 133.910156 C 204.367188 131.152344 207.898438 126.242188 209.878906 122.105469 C 211.859375 118.058594 212.894531 111.25 214.445312 109.441406 C 215.046875 108.753906 215.566406 108.578125 216.253906 108.492188 C 217.117188 108.320312 218.496094 108.40625 219.355469 108.839844 C 220.132812 109.269531 220.992188 110.304688 221.339844 111.078125 C 221.683594 111.769531 221.597656 113.144531 221.597656 113.144531 "/></clipPath><clipPath id="dddd736b5a"><path d="M 182 136.320312 L 229.832031 136.320312 L 229.832031 186.652344 L 182 186.652344 Z M 182 136.320312 "/></clipPath><clipPath id="8fb9788ba5"><path d="M 190.925781 186.292969 C 184.464844 181.726562 183.515625 180.695312 182.914062 178.96875 C 182.050781 176.558594 181.707031 172.335938 182.308594 169.234375 C 182.824219 166.132812 184.375 163.289062 186.273438 160.445312 C 188.511719 157 191.957031 153.46875 195.40625 150.453125 C 198.9375 147.4375 202.726562 144.59375 207.207031 142.265625 C 212.207031 139.769531 221.078125 136.925781 224.355469 136.582031 C 225.644531 136.410156 226.25 136.324219 227.109375 136.753906 C 228.058594 137.269531 229.4375 138.734375 229.609375 139.941406 C 229.867188 141.0625 229.265625 142.957031 228.402344 143.816406 C 227.628906 144.59375 225.644531 145.109375 224.613281 144.9375 C 223.664062 144.851562 222.804688 144.25 222.199219 143.644531 C 221.597656 142.957031 221.078125 142.007812 221.078125 141.0625 C 221.078125 139.941406 221.769531 138.132812 222.71875 137.355469 C 223.664062 136.667969 225.558594 136.410156 226.679688 136.582031 C 227.542969 136.839844 228.402344 137.527344 228.921875 138.21875 C 229.4375 138.90625 229.695312 140.027344 229.695312 140.890625 C 229.695312 141.75 229.609375 142.527344 228.746094 143.472656 C 226.335938 145.886719 214.617188 147.953125 209.277344 150.96875 C 204.96875 153.382812 201.523438 156.3125 198.679688 159.066406 C 196.351562 161.308594 194.371094 163.894531 193.078125 165.875 C 192.132812 167.339844 191.527344 168.375 191.097656 169.75 C 190.753906 171.128906 190.40625 172.765625 190.753906 174.058594 C 191.097656 175.4375 192.21875 176.902344 193.25 177.851562 C 194.113281 178.796875 195.664062 179.054688 196.265625 179.917969 C 196.871094 180.78125 197.300781 181.898438 197.128906 182.847656 C 196.957031 183.96875 195.921875 185.691406 194.886719 186.207031 C 193.855469 186.8125 190.925781 186.292969 190.925781 186.292969 "/></clipPath><clipPath id="14b8088db5"><path d="M 186.648438 136.355469 L 229.835938 136.355469 L 229.835938 188 L 186.648438 188 Z M 186.648438 136.355469 "/></clipPath><clipPath id="9380aaa4ac"><path d="M 229.523438 142.179688 C 214.960938 174.835938 214.703125 175.179688 213.410156 176.558594 C 211.257812 178.96875 205.828125 183.535156 203.160156 185.433594 C 201.523438 186.464844 200.488281 187.15625 199.109375 187.5 C 197.730469 187.929688 196.265625 188.015625 194.714844 187.929688 C 192.820312 187.757812 190.0625 187.414062 188.769531 186.636719 C 187.910156 186.035156 187.304688 185.261719 187.046875 184.484375 C 186.703125 183.621094 186.617188 182.589844 186.960938 181.726562 C 187.390625 180.695312 188.683594 179.230469 189.804688 178.882812 C 191.011719 178.539062 192.90625 178.882812 193.769531 179.660156 C 194.714844 180.433594 195.492188 182.160156 195.40625 183.363281 C 195.234375 184.570312 194.113281 186.121094 193.164062 186.722656 C 192.390625 187.242188 191.355469 187.414062 190.492188 187.242188 C 189.632812 187.15625 188.597656 186.636719 187.996094 186.035156 C 187.390625 185.433594 186.875 184.484375 186.789062 183.535156 C 186.789062 182.417969 187.476562 180.605469 188.253906 179.746094 C 188.855469 179.144531 189.71875 178.882812 190.753906 178.710938 C 192.390625 178.367188 195.058594 179.746094 197.300781 178.96875 C 200.574219 177.765625 204.367188 174.402344 207.640625 170.011719 C 212.980469 162.945312 218.839844 141.234375 222.371094 137.789062 C 223.40625 136.753906 224.269531 136.582031 225.214844 136.496094 C 226.164062 136.496094 227.371094 136.839844 228.058594 137.441406 C 228.835938 138.046875 229.4375 139.25 229.609375 140.113281 C 229.78125 140.800781 229.523438 142.179688 229.523438 142.179688 "/></clipPath><clipPath id="58d46e1a9f"><path d="M 181.359375 293.375 L 193.191406 293.375 L 193.191406 334.125 L 181.359375 334.125 Z M 181.359375 293.375 "/></clipPath><clipPath id="a1fce97c5d"><path d="M 193.164062 297.695312 C 192.648438 314.066406 191.355469 328.195312 189.632812 331.640625 C 189.027344 332.847656 188.511719 333.277344 187.738281 333.621094 C 186.960938 334.054688 185.839844 334.226562 184.980469 334.054688 C 184.117188 333.882812 183.171875 333.363281 182.566406 332.675781 C 181.964844 332.070312 181.535156 331.039062 181.449219 330.175781 C 181.359375 329.316406 181.535156 328.28125 182.136719 327.503906 C 182.824219 326.644531 184.464844 325.523438 185.582031 325.523438 C 186.789062 325.4375 188.511719 326.386719 189.203125 327.246094 C 189.804688 327.9375 190.0625 328.96875 190.0625 329.917969 C 190.0625 330.78125 189.71875 331.8125 189.117188 332.503906 C 188.597656 333.191406 187.738281 333.796875 186.875 333.96875 C 185.753906 334.140625 183.859375 333.710938 182.914062 333.019531 C 182.222656 332.503906 181.792969 331.898438 181.535156 330.695312 C 180.84375 326.988281 183.945312 313.980469 184.464844 307.691406 C 184.722656 303.382812 183.945312 298.988281 184.722656 296.660156 C 185.066406 295.457031 185.667969 294.679688 186.445312 294.164062 C 187.21875 293.644531 188.425781 293.300781 189.375 293.386719 C 190.320312 293.558594 191.441406 294.164062 192.132812 294.851562 C 192.734375 295.542969 193.164062 297.695312 193.164062 297.695312 "/></clipPath><clipPath id="78bcb4bd04"><path d="M 161.042969 149.433594 L 184.484375 149.433594 L 184.484375 166.214844 L 161.042969 166.214844 Z M 161.042969 149.433594 "/></clipPath><clipPath id="7f772cd2e7"><path d="M 184.464844 154.328125 C 182.222656 160.964844 181.273438 162.082031 180.15625 163.117188 C 179.121094 164.066406 178.085938 164.839844 176.449219 165.359375 C 174.210938 166.132812 169.816406 166.304688 167.402344 165.960938 C 165.59375 165.617188 163.957031 165.183594 162.835938 164.152344 C 161.890625 163.289062 161.113281 161.738281 161.113281 160.53125 C 161.199219 159.328125 162.148438 157.691406 163.183594 157.085938 C 164.214844 156.398438 166.113281 156.398438 167.230469 156.742188 C 168.09375 157.085938 168.78125 157.863281 169.214844 158.636719 C 169.644531 159.414062 169.902344 160.445312 169.730469 161.308594 C 169.472656 162.429688 168.265625 164.066406 167.316406 164.582031 C 166.457031 165.097656 165.421875 165.097656 164.5625 164.925781 C 163.699219 164.753906 162.75 164.152344 162.148438 163.546875 C 161.632812 162.859375 161.199219 161.824219 161.113281 160.964844 C 161.113281 160.101562 161.285156 159.066406 161.804688 158.378906 C 162.492188 157.429688 163.957031 156.65625 165.335938 156.398438 C 167.316406 156.050781 171.023438 158.035156 172.832031 157.34375 C 174.210938 156.828125 175.15625 155.277344 175.761719 154.242188 C 176.363281 153.210938 176.105469 152.003906 176.707031 151.140625 C 177.3125 150.367188 178.347656 149.675781 179.292969 149.503906 C 180.414062 149.332031 182.308594 149.761719 183.171875 150.539062 C 184.03125 151.3125 184.464844 154.328125 184.464844 154.328125 "/></clipPath><clipPath id="3ea7f4fbb7"><path d="M 180.371094 106.199219 L 204.191406 106.199219 L 204.191406 118.714844 L 180.371094 118.714844 Z M 180.371094 106.199219 "/></clipPath><clipPath id="012e74257c"><path d="M 186.445312 107.632812 C 193.59375 109.957031 196.265625 106.855469 198.25 106.511719 C 199.710938 106.253906 201.351562 106.511719 202.296875 107.027344 C 203.074219 107.546875 203.675781 108.40625 203.933594 109.269531 C 204.191406 110.128906 204.105469 111.25 203.847656 112.027344 C 203.503906 112.800781 202.816406 113.75 202.125 114.179688 C 201.351562 114.609375 200.402344 115.042969 199.453125 114.871094 C 198.335938 114.695312 196.699219 113.664062 196.007812 112.714844 C 195.492188 111.941406 195.40625 110.820312 195.492188 109.957031 C 195.664062 109.097656 196.09375 108.148438 196.699219 107.546875 C 197.300781 106.941406 198.335938 106.425781 199.195312 106.253906 C 200.058594 106.167969 201.089844 106.253906 201.867188 106.769531 C 202.816406 107.460938 203.847656 109.097656 204.105469 110.21875 C 204.191406 111.078125 204.019531 111.941406 203.417969 112.886719 C 202.382812 114.523438 198.851562 117.195312 196.785156 118.058594 C 195.234375 118.746094 193.769531 118.660156 192.304688 118.660156 C 190.839844 118.574219 189.460938 118.402344 187.996094 117.886719 C 186.101562 117.28125 183.34375 116.160156 182.050781 114.957031 C 181.1875 114.179688 180.671875 113.320312 180.5 112.371094 C 180.328125 111.421875 180.585938 110.128906 181.015625 109.355469 C 181.359375 108.753906 181.792969 108.234375 182.480469 107.890625 C 183.429688 107.460938 186.53125 107.632812 186.53125 107.632812 "/></clipPath><clipPath id="d38a20997a"><path d="M 166.050781 176.066406 L 182.894531 176.066406 L 182.894531 200.417969 L 166.050781 200.417969 Z M 166.050781 176.066406 "/></clipPath><clipPath id="e3d23572a9"><path d="M 169.816406 191.808594 C 172.832031 190.773438 176.105469 186.292969 175.933594 184.570312 C 175.847656 183.277344 173.519531 182.675781 173.175781 181.640625 C 172.832031 180.78125 173.003906 179.660156 173.261719 178.882812 C 173.605469 178.023438 174.296875 177.246094 175.070312 176.730469 C 175.847656 176.300781 176.882812 176.042969 177.742188 176.128906 C 178.605469 176.300781 179.636719 176.730469 180.242188 177.332031 C 180.929688 177.9375 181.449219 178.882812 181.535156 179.746094 C 181.707031 180.605469 181.621094 181.640625 181.101562 182.417969 C 180.5 183.363281 178.863281 184.484375 177.828125 184.742188 C 176.882812 184.914062 175.847656 184.570312 175.070312 184.140625 C 174.382812 183.710938 173.605469 182.933594 173.347656 182.070312 C 173.003906 180.953125 173.089844 179.054688 173.691406 178.023438 C 174.382812 177.074219 176.363281 176.300781 177.3125 176.128906 C 177.828125 176.042969 178.171875 176.042969 178.691406 176.386719 C 179.808594 177.160156 181.964844 180.605469 182.566406 183.019531 C 183.171875 185.691406 182.914062 189.050781 181.878906 191.636719 C 180.84375 194.21875 178.519531 197.0625 176.449219 198.527344 C 174.726562 199.734375 172.316406 200.335938 170.765625 200.335938 C 169.644531 200.335938 168.609375 200.078125 167.835938 199.5625 C 167.058594 199.046875 166.285156 198.011719 166.113281 196.976562 C 165.9375 195.855469 166.457031 194.046875 167.144531 193.101562 C 167.75 192.410156 169.816406 191.808594 169.816406 191.808594 "/></clipPath><clipPath id="6fc7ff6f83"><path d="M 163.113281 143.859375 L 187.582031 143.859375 L 187.582031 165.582031 L 163.113281 165.582031 Z M 163.113281 143.859375 "/></clipPath><clipPath id="8fa807447f"><path d="M 167.574219 156.570312 C 179.292969 154.328125 176.796875 148.902344 177.398438 147.007812 C 177.65625 145.886719 178.257812 145.195312 178.949219 144.679688 C 179.636719 144.164062 180.671875 143.90625 181.535156 143.90625 C 182.480469 143.90625 183.515625 144.25 184.203125 144.851562 C 184.808594 145.367188 185.496094 146.230469 185.667969 147.09375 C 185.839844 148.210938 185.410156 150.109375 184.722656 151.054688 C 184.203125 151.746094 183.171875 152.261719 182.308594 152.433594 C 181.449219 152.605469 180.414062 152.519531 179.636719 152.089844 C 178.691406 151.484375 177.484375 149.933594 177.226562 148.816406 C 177.054688 147.867188 177.3125 146.832031 177.742188 146.144531 C 178.171875 145.367188 178.949219 144.59375 179.722656 144.25 C 180.585938 143.90625 181.621094 143.816406 182.480469 143.992188 C 183.34375 144.164062 184.203125 144.59375 184.808594 145.457031 C 185.925781 146.832031 186.789062 150.367188 187.21875 152.433594 C 187.476562 154.070312 187.652344 155.449219 187.390625 156.828125 C 187.132812 158.207031 186.445312 159.84375 185.582031 160.964844 C 184.636719 162.082031 183.171875 162.945312 181.792969 163.632812 C 180.5 164.324219 179.464844 164.753906 177.742188 165.011719 C 174.898438 165.445312 168.695312 165.789062 166.371094 165.097656 C 165.164062 164.667969 164.472656 164.066406 163.871094 163.289062 C 163.355469 162.515625 163.097656 161.222656 163.269531 160.273438 C 163.355469 159.328125 163.957031 158.207031 164.734375 157.601562 C 165.421875 157 167.574219 156.570312 167.574219 156.570312 "/></clipPath><clipPath id="6edf06965f"><path d="M 164.460938 113.132812 L 187.277344 113.132812 L 187.277344 135.5 L 164.460938 135.5 Z M 164.460938 113.132812 "/></clipPath><clipPath id="fe81783012"><path d="M 169.214844 125.378906 C 179.808594 126.328125 177.140625 123.914062 177.3125 123.054688 C 177.398438 122.453125 178.777344 122.191406 178.777344 121.847656 C 178.777344 121.417969 176.96875 121.160156 176.363281 120.46875 C 175.847656 119.78125 175.332031 118.832031 175.332031 117.972656 C 175.332031 116.851562 176.105469 115.042969 176.96875 114.265625 C 177.65625 113.578125 178.605469 113.230469 179.550781 113.320312 C 180.671875 113.40625 182.394531 114.265625 183.171875 115.128906 C 183.773438 115.816406 183.945312 116.9375 183.945312 117.796875 C 183.859375 118.660156 183.515625 119.695312 183 120.382812 C 182.394531 120.988281 181.449219 121.589844 180.585938 121.847656 C 179.808594 122.019531 178.691406 122.019531 177.914062 121.589844 C 176.882812 120.988281 175.675781 119.4375 175.417969 118.402344 C 175.15625 117.539062 175.332031 116.421875 175.761719 115.644531 C 176.363281 114.695312 178.171875 113.578125 179.121094 113.320312 C 179.636719 113.144531 179.984375 113.144531 180.5 113.40625 C 181.621094 113.921875 183.601562 116.335938 184.722656 118.316406 C 186.015625 120.726562 187.046875 124.605469 187.132812 127.015625 C 187.304688 128.65625 187.046875 130.03125 186.445312 131.324219 C 185.925781 132.617188 185.066406 134.082031 183.6875 134.773438 C 181.621094 135.804688 177.3125 135.460938 174.382812 135.203125 C 171.625 134.945312 168.265625 134.339844 166.628906 133.308594 C 165.679688 132.703125 165.078125 131.757812 164.734375 130.894531 C 164.5625 130.207031 164.472656 129.515625 164.648438 128.828125 C 164.90625 127.964844 165.507812 126.84375 166.285156 126.242188 C 166.972656 125.640625 169.214844 125.378906 169.214844 125.378906 "/></clipPath></defs><g id="5737b79370"><g clip-rule="nonzero" clip-path="url(#19fbebd418)"><g clip-rule="nonzero" clip-path="url(#5b593f8ce6)"><path style=" stroke:none;fill-rule:nonzero;fill:currentColor;fill-opacity:1;" d="M 176.105469 197.40625 L 193.59375 197.40625 L 193.59375 336.917969 L 176.105469 336.917969 Z M 176.105469 197.40625 "/></g></g><g clip-rule="nonzero" clip-path="url(#c904a015bc)"><g clip-rule="nonzero" clip-path="url(#4bfa755ce6)"><path style=" stroke:none;fill-rule:nonzero;fill:currentColor;fill-opacity:1;" d="M 179.421875 187.84375 L 243.953125 187.84375 L 243.953125 311.613281 L 179.421875 311.613281 Z M 179.421875 187.84375 "/></g></g><g clip-rule="nonzero" clip-path="url(#67928bf63c)"><g clip-rule="nonzero" clip-path="url(#6712a7333e)"><path style=" stroke:none;fill-rule:nonzero;fill:currentColor;fill-opacity:1;" d="M 131.046875 149.160156 L 187.046875 149.160156 L 187.046875 205.601562 L 131.046875 205.601562 Z M 131.046875 149.160156 "/></g></g><g clip-rule="nonzero" clip-path="url(#dd8d94b006)"><g clip-rule="nonzero" clip-path="url(#7d5deb974e)"><path style=" stroke:none;fill-rule:nonzero;fill:currentColor;fill-opacity:1;" d="M 138.628906 120.8125 L 188.660156 120.8125 L 188.660156 169.148438 L 138.628906 169.148438 Z M 138.628906 120.8125 "/></g></g><g clip-rule="nonzero" clip-path="url(#003ce988ca)"><g clip-rule="nonzero" clip-path="url(#c17fc1d250)"><path style=" stroke:none;fill-rule:nonzero;fill:currentColor;fill-opacity:1;" d="M 141.816406 92.984375 L 187.054688 92.984375 L 187.054688 137.699219 L 141.816406 137.699219 Z M 141.816406 92.984375 "/></g></g><g clip-rule="nonzero" clip-path="url(#f780cb908a)"><g clip-rule="nonzero" clip-path="url(#80b832393f)"><path style=" stroke:none;fill-rule:nonzero;fill:currentColor;fill-opacity:1;" d="M 155.515625 37.5 L 186.1875 37.5 L 186.1875 102.320312 L 155.515625 102.320312 Z M 155.515625 37.5 "/></g></g><g clip-rule="nonzero" clip-path="url(#5e4a9feb38)"><g clip-rule="nonzero" clip-path="url(#ee4f1ad071)"><path style=" stroke:none;fill-rule:nonzero;fill:currentColor;fill-opacity:1;" d="M 166.800781 38.277344 L 192.042969 38.277344 L 192.042969 102.667969 L 166.800781 102.667969 Z M 166.800781 38.277344 "/></g></g><g clip-rule="nonzero" clip-path="url(#5c2b3910bd)"><g clip-rule="nonzero" clip-path="url(#81a2ee74ec)"><path style=" stroke:none;fill-rule:nonzero;fill:currentColor;fill-opacity:1;" d="M 176.449219 76.703125 L 222.199219 76.703125 L 222.199219 122.628906 L 176.449219 122.628906 Z M 176.449219 76.703125 "/></g></g><g clip-rule="nonzero" clip-path="url(#cb2fd1297d)"><g clip-rule="nonzero" clip-path="url(#d2aca8035e)"><path style=" stroke:none;fill-rule:nonzero;fill:currentColor;fill-opacity:1;" d="M 183.945312 76.960938 L 221.941406 76.960938 L 221.941406 121.1875 L 183.945312 121.1875 Z M 183.945312 76.960938 "/></g></g><g clip-rule="nonzero" clip-path="url(#8ddcc5314d)"><g clip-rule="nonzero" clip-path="url(#2766741738)"><path style=" stroke:none;fill-rule:nonzero;fill:currentColor;fill-opacity:1;" d="M 178 104.875 L 225.128906 104.875 L 225.128906 153.292969 L 178 153.292969 Z M 178 104.875 "/></g></g><g clip-rule="nonzero" clip-path="url(#3c3b0cf938)"><g clip-rule="nonzero" clip-path="url(#78c20afdcd)"><path style=" stroke:none;fill-rule:nonzero;fill:currentColor;fill-opacity:1;" d="M 185.238281 105.046875 L 225.042969 105.046875 L 225.042969 152.78125 L 185.238281 152.78125 Z M 185.238281 105.046875 "/></g></g><g clip-rule="nonzero" clip-path="url(#dddd736b5a)"><g clip-rule="nonzero" clip-path="url(#8fb9788ba5)"><path style=" stroke:none;fill-rule:nonzero;fill:currentColor;fill-opacity:1;" d="M 178.863281 133.132812 L 233.226562 133.132812 L 233.226562 189.835938 L 178.863281 189.835938 Z M 178.863281 133.132812 "/></g></g><g clip-rule="nonzero" clip-path="url(#14b8088db5)"><g clip-rule="nonzero" clip-path="url(#9380aaa4ac)"><path style=" stroke:none;fill-rule:nonzero;fill:currentColor;fill-opacity:1;" d="M 183.34375 133.046875 L 233.140625 133.046875 L 233.140625 191.40625 L 183.34375 191.40625 Z M 183.34375 133.046875 "/></g></g><g clip-rule="nonzero" clip-path="url(#58d46e1a9f)"><g clip-rule="nonzero" clip-path="url(#a1fce97c5d)"><path style=" stroke:none;fill-rule:nonzero;fill:currentColor;fill-opacity:1;" d="M 178 289.941406 L 196.699219 289.941406 L 196.699219 337.484375 L 178 337.484375 Z M 178 289.941406 "/></g></g><g clip-rule="nonzero" clip-path="url(#78bcb4bd04)"><g clip-rule="nonzero" clip-path="url(#7f772cd2e7)"><path style=" stroke:none;fill-rule:nonzero;fill:currentColor;fill-opacity:1;" d="M 157.667969 146.058594 L 188.039062 146.058594 L 188.039062 169.40625 L 157.667969 169.40625 Z M 157.667969 146.058594 "/></g></g><g clip-rule="nonzero" clip-path="url(#3ea7f4fbb7)"><g clip-rule="nonzero" clip-path="url(#012e74257c)"><path style=" stroke:none;fill-rule:nonzero;fill:currentColor;fill-opacity:1;" d="M 177.054688 102.808594 L 207.585938 102.808594 L 207.585938 122.105469 L 177.054688 122.105469 Z M 177.054688 102.808594 "/></g></g><g clip-rule="nonzero" clip-path="url(#d38a20997a)"><g clip-rule="nonzero" clip-path="url(#e3d23572a9)"><path style=" stroke:none;fill-rule:nonzero;fill:currentColor;fill-opacity:1;" d="M 162.664062 172.679688 L 186.101562 172.679688 L 186.101562 203.804688 L 162.664062 203.804688 Z M 162.664062 172.679688 "/></g></g><g clip-rule="nonzero" clip-path="url(#6fc7ff6f83)"><g clip-rule="nonzero" clip-path="url(#8fa807447f)"><path style=" stroke:none;fill-rule:nonzero;fill:currentColor;fill-opacity:1;" d="M 159.820312 140.457031 L 190.871094 140.457031 L 190.871094 168.546875 L 159.820312 168.546875 Z M 159.820312 140.457031 "/></g></g><g clip-rule="nonzero" clip-path="url(#6edf06965f)"><g clip-rule="nonzero" clip-path="url(#fe81783012)"><path style=" stroke:none;fill-rule:nonzero;fill:currentColor;fill-opacity:1;" d="M 161.199219 109.871094 L 190.652344 109.871094 L 190.652344 138.648438 L 161.199219 138.648438 Z M 161.199219 109.871094 "/></g></g></g></svg>