<svg xmlns="http://www.w3.org/2000/svg" xmlns:xlink="http://www.w3.org/1999/xlink" width="500" zoomAndPan="magnify" viewBox="0 0 375 374.999991" height="500" preserveAspectRatio="xMidYMid meet" version="1.2"><defs><clipPath id="a763a07cf5"><path d="M 106 80.765625 L 171.554688 80.765625 L 171.554688 194.960938 L 106 194.960938 Z M 106 80.765625 "/></clipPath><clipPath id="08c0b78a28"><path d="M 106.003906 164.171875 C 116.648438 133.011719 118.371094 129.097656 121.191406 123.695312 C 124.714844 117.039062 130.507812 107.566406 134.5 101.851562 C 137.316406 97.859375 139.746094 94.964844 142.328125 92.222656 C 144.441406 89.953125 146.164062 88.230469 148.667969 86.429688 C 151.644531 84.394531 156.417969 81.734375 159.160156 81.105469 C 160.804688 80.714844 162.054688 80.792969 163.386719 81.261719 C 164.640625 81.734375 165.8125 82.90625 166.832031 83.925781 C 167.769531 84.863281 168.632812 85.726562 169.257812 87.054688 C 170.199219 89.011719 170.902344 92.300781 171.214844 94.964844 C 171.449219 97.703125 171.214844 100.523438 170.980469 103.339844 C 170.667969 106.316406 170.121094 109.054688 169.335938 112.265625 C 168.476562 116.023438 167.144531 120.171875 165.65625 124.320312 C 164.011719 129.097656 162.371094 133.792969 159.628906 139.351562 C 155.949219 146.789062 149.058594 157.984375 144.675781 164.484375 C 141.703125 168.867188 139.429688 170.980469 136.535156 175.050781 C 132.777344 180.296875 126.90625 191.257812 124.164062 193.605469 C 123.304688 194.390625 122.753906 194.625 121.972656 194.703125 C 121.191406 194.859375 120.171875 194.703125 119.546875 194.234375 C 118.683594 193.683594 117.589844 192.277344 117.511719 191.179688 C 117.433594 190.082031 118.214844 188.519531 118.996094 187.8125 C 119.546875 187.265625 120.484375 186.953125 121.347656 186.953125 C 122.128906 186.953125 123.070312 187.1875 123.695312 187.65625 C 124.320312 188.125 124.949219 188.910156 125.183594 189.691406 C 125.417969 190.476562 125.417969 191.414062 125.105469 192.195312 C 124.714844 193.136719 123.460938 194.390625 122.363281 194.625 C 121.347656 194.9375 119.625 194.390625 118.839844 193.761719 C 118.136719 193.292969 117.746094 192.355469 117.589844 191.570312 C 117.433594 190.867188 117.511719 190.316406 117.902344 189.144531 C 119.3125 185.386719 128 173.171875 132.148438 167.457031 C 134.96875 163.464844 137.003906 161.820312 139.746094 157.671875 C 144.128906 151.175781 150.78125 140.292969 154.617188 131.679688 C 158.0625 123.929688 160.804688 115.003906 162.214844 108.351562 C 163.230469 103.652344 163.699219 99.035156 163.542969 95.902344 C 163.464844 94.023438 163.386719 92.535156 162.683594 91.441406 C 161.898438 90.34375 160.492188 89.328125 159.316406 89.25 C 158.140625 89.171875 156.96875 90.03125 155.636719 90.890625 C 153.679688 92.144531 151.332031 94.257812 149.140625 96.449219 C 146.554688 99.035156 144.128906 102.007812 141.542969 105.609375 C 138.101562 110.308594 133.792969 117.117188 130.664062 122.675781 C 127.84375 127.6875 125.730469 131.445312 123.304688 137.316406 C 119.9375 145.300781 115.867188 162.917969 113.359375 166.832031 C 112.578125 167.929688 112.109375 168.320312 111.246094 168.632812 C 110.464844 168.945312 109.289062 169.023438 108.507812 168.710938 C 107.722656 168.398438 106.785156 167.613281 106.394531 166.910156 C 106.003906 166.128906 106.003906 164.09375 106.003906 164.09375 "/></clipPath><clipPath id="a621d44a9d"><path d="M 89.734375 186.734375 L 125.390625 186.734375 L 125.390625 315.75 L 89.734375 315.75 Z M 89.734375 186.734375 "/></clipPath><clipPath id="9aaa4cdc7e"><path d="M 124.476562 193.292969 C 116.335938 205.898438 113.675781 210.910156 111.402344 216.546875 C 108.664062 223.355469 105.6875 232.75 103.808594 239.875 C 102.324219 245.746094 101.539062 250.207031 100.601562 256.238281 C 99.503906 263.597656 98.25 272.285156 97.9375 281.054688 C 97.546875 290.683594 99.347656 307.28125 98.722656 311.742188 C 98.488281 312.996094 98.40625 313.464844 97.9375 314.09375 C 97.46875 314.71875 96.6875 315.34375 95.824219 315.5 C 94.886719 315.734375 93.085938 315.421875 92.300781 314.71875 C 91.441406 314.011719 90.8125 312.371094 90.890625 311.351562 C 91.050781 310.253906 91.988281 308.769531 92.929688 308.296875 C 93.945312 307.75 95.667969 307.75 96.609375 308.296875 C 97.546875 308.769531 98.566406 310.253906 98.722656 311.273438 C 98.800781 312.371094 98.09375 314.011719 97.3125 314.71875 C 96.765625 315.265625 95.824219 315.578125 95.042969 315.65625 C 94.257812 315.65625 93.242188 315.421875 92.613281 314.953125 C 91.988281 314.5625 91.441406 313.933594 91.128906 312.996094 C 90.5 311.429688 90.5 309.160156 90.265625 306.183594 C 89.953125 300.546875 89.640625 290.527344 90.109375 281.757812 C 90.65625 271.347656 92.613281 256.316406 94.023438 247.9375 C 94.886719 242.929688 95.589844 240.421875 96.84375 235.960938 C 98.40625 230.089844 100.679688 222.417969 103.261719 215.996094 C 105.84375 209.65625 109.054688 202.6875 112.109375 197.597656 C 114.613281 193.527344 117.667969 188.441406 119.859375 187.265625 C 120.875 186.71875 121.816406 186.875 122.597656 187.109375 C 123.460938 187.421875 124.320312 188.125 124.792969 188.832031 C 125.261719 189.613281 125.339844 190.789062 125.261719 191.570312 C 125.183594 192.199219 124.476562 193.292969 124.476562 193.292969 "/></clipPath><clipPath id="58881171c5"><path d="M 105.046875 144.898438 L 152 144.898438 L 152 172.507812 L 105.046875 172.507812 Z M 105.046875 144.898438 "/></clipPath><clipPath id="592178fa55"><path d="M 148.121094 152.820312 C 137.628906 155.089844 129.019531 158.769531 123.617188 162.132812 C 118.683594 165.03125 113.441406 171.058594 110.621094 172.15625 C 109.445312 172.546875 108.664062 172.546875 107.882812 172.3125 C 107.019531 172 106.160156 171.292969 105.6875 170.589844 C 105.21875 169.808594 105.0625 168.632812 105.21875 167.851562 C 105.296875 167.222656 105.375 166.597656 105.921875 166.128906 C 106.863281 165.421875 109.917969 164.796875 111.089844 165.265625 C 111.875 165.5 112.421875 166.363281 112.65625 167.144531 C 112.96875 168.164062 112.890625 169.964844 112.265625 170.824219 C 111.640625 171.6875 110.074219 172.46875 108.976562 172.46875 C 107.882812 172.46875 106.394531 171.527344 105.765625 170.667969 C 105.21875 170.042969 105.0625 169.101562 105.140625 168.320312 C 105.21875 167.457031 105.453125 166.597656 106.082031 165.972656 C 106.785156 165.265625 108.429688 164.5625 109.523438 164.640625 C 110.621094 164.796875 112.03125 165.8125 112.5 166.753906 C 113.046875 167.769531 112.890625 169.492188 112.421875 170.433594 C 112.109375 171.214844 111.324219 171.84375 110.621094 172.15625 C 109.917969 172.46875 108.117188 172.46875 108.117188 172.390625 C 108.117188 172.234375 112.03125 170.824219 112.109375 170.980469 C 112.1875 171.058594 111.167969 171.921875 110.621094 172.15625 C 110.074219 172.390625 109.367188 172.46875 108.820312 172.46875 C 108.195312 172.390625 107.566406 172.3125 107.019531 171.921875 C 106.316406 171.449219 105.53125 170.589844 105.296875 169.730469 C 105.0625 168.710938 105.21875 167.457031 105.921875 166.128906 C 107.410156 163.621094 113.125 159.628906 116.335938 157.4375 C 118.761719 155.714844 120.328125 154.933594 123.226562 153.445312 C 127.921875 151.175781 137.945312 146.632812 142.015625 145.539062 C 143.816406 145.066406 144.832031 144.988281 146.164062 144.988281 C 147.417969 144.988281 148.824219 144.832031 149.765625 145.382812 C 150.703125 145.929688 151.722656 147.339844 151.878906 148.355469 C 152.113281 149.21875 151.800781 150.3125 151.253906 151.019531 C 150.625 151.878906 148.121094 152.820312 148.121094 152.820312 "/></clipPath><clipPath id="1ff4cdbb7c"><path d="M 40.261719 164.507812 L 113.339844 164.507812 L 113.339844 295.304688 L 40.261719 295.304688 Z M 40.261719 164.507812 "/></clipPath><clipPath id="be1e9c326b"><path d="M 111.402344 171.84375 C 103.964844 177.558594 99.269531 182.332031 95.589844 186.796875 C 91.441406 191.726562 87.214844 197.597656 83.613281 203.390625 C 79.933594 209.265625 77.191406 214.746094 73.746094 221.867188 C 69.050781 231.496094 61.847656 247.703125 58.558594 256.160156 C 56.757812 260.933594 55.898438 263.28125 54.722656 267.667969 C 53.15625 273.460938 52.21875 283.324219 50.417969 288.101562 C 49.320312 290.917969 48.304688 293.503906 46.816406 294.519531 C 45.796875 295.300781 44.234375 295.460938 43.214844 295.144531 C 42.199219 294.832031 41.023438 293.425781 40.632812 292.484375 C 40.398438 291.703125 40.476562 290.761719 40.789062 289.980469 C 41.101562 289.273438 41.648438 288.492188 42.355469 288.101562 C 43.292969 287.628906 45.09375 287.550781 46.035156 287.867188 C 46.816406 288.179688 47.519531 288.882812 47.914062 289.585938 C 48.226562 290.292969 48.460938 291.230469 48.304688 292.015625 C 48.070312 293.03125 47.050781 294.519531 46.113281 294.988281 C 45.09375 295.460938 43.371094 295.222656 42.433594 294.832031 C 41.648438 294.441406 41.101562 293.660156 40.789062 292.875 C 40.476562 292.171875 40.476562 291.386719 40.632812 290.449219 C 40.945312 288.804688 42.433594 287.003906 43.214844 284.421875 C 44.546875 280.429688 45.09375 273.539062 46.503906 268.214844 C 47.835938 262.96875 49.164062 258.742188 51.511719 252.636719 C 55.113281 243.320312 61.925781 228.132812 66.9375 218.03125 C 70.929688 209.890625 74.296875 203.15625 78.835938 196.269531 C 83.296875 189.457031 89.328125 182.019531 93.789062 177.007812 C 97 173.488281 99.972656 170.589844 102.558594 168.476562 C 104.515625 166.910156 106.316406 165.34375 107.800781 164.875 C 108.820312 164.5625 109.761719 164.5625 110.621094 164.953125 C 111.402344 165.265625 112.265625 165.972656 112.65625 166.753906 C 113.046875 167.535156 113.203125 168.710938 112.96875 169.570312 C 112.734375 170.355469 111.402344 171.84375 111.402344 171.84375 "/></clipPath><clipPath id="fece09cea8"><path d="M 116.683594 182.839844 L 188.953125 182.839844 L 188.953125 220.957031 L 116.683594 220.957031 Z M 116.683594 182.839844 "/></clipPath><clipPath id="8d35975142"><path d="M 118.449219 191.335938 C 125.652344 186.167969 127.84375 184.601562 130.976562 183.820312 C 135.203125 182.722656 142.5625 182.882812 147.023438 183.039062 C 150.234375 183.117188 152.660156 183.195312 155.324219 183.976562 C 157.984375 184.839844 160.175781 186.167969 162.839844 188.125 C 166.597656 190.789062 171.058594 195.09375 175.128906 199.398438 C 179.75 204.332031 187.8125 213.023438 188.753906 216.230469 C 189.066406 217.328125 188.753906 218.03125 188.359375 218.738281 C 188.046875 219.441406 187.34375 220.144531 186.640625 220.460938 C 185.933594 220.851562 184.917969 221.007812 184.132812 220.851562 C 183.195312 220.539062 181.785156 219.441406 181.316406 218.503906 C 180.921875 217.796875 180.921875 216.78125 181.082031 215.996094 C 181.238281 215.292969 181.707031 214.429688 182.410156 213.960938 C 183.273438 213.335938 184.996094 212.945312 186.011719 213.257812 C 187.03125 213.570312 188.28125 214.902344 188.597656 215.839844 C 188.910156 216.625 188.832031 217.5625 188.519531 218.34375 C 188.28125 219.050781 187.65625 219.832031 187.03125 220.300781 C 186.324219 220.695312 185.386719 220.929688 184.601562 220.851562 C 183.742188 220.851562 183.273438 220.617188 182.253906 219.910156 C 179.4375 217.796875 172.703125 208.089844 168.476562 203.707031 C 165.34375 200.417969 162.683594 197.597656 159.785156 195.484375 C 157.28125 193.605469 155.246094 192.117188 152.347656 191.257812 C 148.980469 190.316406 144.050781 190.710938 140.371094 190.867188 C 137.238281 190.945312 134.5 190.867188 131.679688 191.882812 C 128.628906 192.980469 125.105469 196.660156 122.992188 197.597656 C 121.894531 198.148438 121.113281 198.382812 120.328125 198.382812 C 119.703125 198.304688 119.078125 198.148438 118.527344 197.753906 C 117.902344 197.285156 117.199219 196.269531 116.960938 195.484375 C 116.726562 194.859375 116.726562 194.234375 116.882812 193.605469 C 117.117188 192.824219 118.449219 191.335938 118.449219 191.335938 "/></clipPath><clipPath id="f51f64cd12"><path d="M 180.882812 213.039062 L 296.316406 213.039062 L 296.316406 262.417969 L 180.882812 262.417969 Z M 180.882812 213.039062 "/></clipPath><clipPath id="d25098bf51"><path d="M 188.125 214.746094 C 196.503906 224.21875 209.8125 237.132812 216.464844 242.066406 C 220.539062 245.042969 223.355469 246.527344 227.035156 248.25 C 230.949219 249.972656 235.570312 251.460938 239.328125 252.480469 C 242.300781 253.183594 244.179688 253.574219 247.546875 253.886719 C 252.871094 254.359375 261.953125 254.671875 268.292969 253.808594 C 273.929688 253.027344 279.488281 250.914062 283.871094 249.425781 C 287.238281 248.328125 290.527344 245.980469 292.484375 245.980469 C 293.503906 245.980469 294.207031 246.449219 294.832031 246.921875 C 295.460938 247.46875 296.007812 248.25 296.085938 249.113281 C 296.242188 250.128906 295.773438 251.851562 295.144531 252.636719 C 294.597656 253.261719 293.738281 253.730469 292.875 253.808594 C 291.9375 253.886719 290.214844 253.261719 289.429688 252.636719 C 288.804688 252.007812 288.492188 251.148438 288.414062 250.367188 C 288.335938 249.582031 288.492188 248.566406 288.960938 247.859375 C 289.507812 247.078125 290.996094 246.058594 292.09375 245.980469 C 293.1875 245.980469 294.753906 246.6875 295.382812 247.546875 C 296.085938 248.40625 296.242188 250.207031 296.007812 251.148438 C 295.773438 252.007812 295.222656 252.558594 294.441406 253.183594 C 293.34375 254.125 291.542969 254.828125 289.195312 255.765625 C 284.65625 257.488281 276.355469 260.542969 269.234375 261.5625 C 261.402344 262.65625 250.285156 262.265625 244.179688 261.5625 C 240.578125 261.167969 238.777344 260.464844 235.804688 259.601562 C 232.125 258.507812 227.347656 256.863281 223.980469 255.453125 C 221.242188 254.28125 219.128906 253.183594 216.78125 251.773438 C 214.351562 250.285156 212.160156 248.722656 209.734375 246.765625 C 206.679688 244.335938 203.628906 241.363281 200.183594 238.152344 C 195.71875 234.003906 188.597656 227.582031 185.308594 223.824219 C 183.429688 221.710938 181.785156 219.988281 181.238281 218.34375 C 180.84375 217.328125 180.921875 216.386719 181.238281 215.605469 C 181.550781 214.746094 182.332031 213.882812 183.039062 213.492188 C 183.820312 213.101562 184.996094 212.945312 185.855469 213.179688 C 186.640625 213.414062 188.125 214.746094 188.125 214.746094 "/></clipPath><clipPath id="044f001ac3"><path d="M 287.738281 164.414062 L 334.386719 164.414062 L 334.386719 254.222656 L 287.738281 254.222656 Z M 287.738281 164.414062 "/></clipPath><clipPath id="416aed233e"><path d="M 289.117188 247.234375 C 298.355469 237.449219 300.625 234.238281 303.210938 230.324219 C 306.578125 225.15625 310.882812 218.582031 314.011719 211.925781 C 317.457031 204.644531 320.746094 194.078125 322.625 188.28125 C 323.722656 184.917969 324.425781 182.882812 324.972656 180.21875 C 325.445312 177.636719 325.207031 174.972656 325.835938 172.390625 C 326.460938 169.886719 327.085938 165.890625 328.574219 164.953125 C 329.515625 164.25 331.316406 164.640625 332.175781 165.03125 C 332.960938 165.421875 333.585938 166.207031 333.898438 166.910156 C 334.210938 167.691406 334.367188 168.632812 334.054688 169.414062 C 333.742188 170.355469 332.644531 171.765625 331.628906 172.15625 C 330.609375 172.546875 328.808594 172.234375 327.949219 171.609375 C 327.085938 170.980469 326.304688 169.414062 326.382812 168.320312 C 326.382812 167.222656 327.246094 165.734375 328.183594 165.1875 C 329.042969 164.5625 330.84375 164.40625 331.863281 164.875 C 332.800781 165.265625 333.820312 166.753906 334.132812 167.769531 C 334.367188 168.554688 334.132812 169.492188 333.742188 170.199219 C 333.429688 170.902344 331.941406 171.84375 332.019531 172 C 332.097656 172.078125 333.429688 170.902344 333.820312 171.214844 C 334.523438 171.765625 333.585938 175.914062 332.960938 179.28125 C 331.785156 185.152344 328.339844 196.660156 325.992188 203.15625 C 324.425781 207.855469 323.25 210.75 321.214844 214.980469 C 318.554688 220.460938 314.796875 227.347656 310.960938 233.0625 C 307.203125 238.777344 301.722656 245.824219 298.355469 249.425781 C 296.476562 251.460938 294.910156 253.027344 293.421875 253.730469 C 292.484375 254.125 291.464844 254.125 290.683594 254.042969 C 290.058594 253.886719 289.507812 253.574219 289.039062 253.105469 C 288.492188 252.558594 287.785156 251.539062 287.785156 250.679688 C 287.707031 249.582031 289.117188 247.234375 289.117188 247.234375 "/></clipPath><clipPath id="5802337891"><path d="M 295.371094 122.6875 L 334.515625 122.6875 L 334.515625 173.769531 L 295.371094 173.769531 Z M 295.371094 122.6875 "/></clipPath><clipPath id="07457cbb47"><path d="M 327.007812 171.527344 C 306.96875 139.585938 305.949219 138.179688 303.914062 136.066406 C 301.722656 133.636719 297.417969 131.210938 296.320312 129.019531 C 295.617188 127.765625 295.539062 126.433594 295.773438 125.417969 C 296.007812 124.632812 296.710938 123.929688 297.339844 123.460938 C 298.042969 123.070312 298.902344 122.753906 299.765625 122.832031 C 300.78125 122.992188 302.269531 124.007812 302.898438 124.792969 C 303.367188 125.496094 303.523438 126.433594 303.367188 127.296875 C 303.132812 128.234375 302.113281 129.722656 301.253906 130.269531 C 300.546875 130.664062 299.53125 130.820312 298.746094 130.585938 C 297.808594 130.351562 296.398438 129.175781 295.851562 128.3125 C 295.460938 127.609375 295.460938 126.59375 295.695312 125.808594 C 295.851562 125.027344 296.398438 124.242188 297.023438 123.695312 C 297.652344 123.226562 298.589844 122.832031 299.375 122.832031 C 300.15625 122.832031 300.78125 122.992188 301.722656 123.539062 C 303.992188 124.871094 308.613281 129.566406 311.195312 132.464844 C 313.230469 134.8125 314.171875 136.144531 316.363281 139.273438 C 320.589844 145.539062 332.644531 163.621094 334.132812 168.320312 C 334.523438 169.648438 334.601562 170.199219 334.289062 171.058594 C 334.054688 171.84375 333.429688 172.859375 332.644531 173.25 C 331.707031 173.722656 329.984375 173.878906 328.964844 173.488281 C 328.105469 173.171875 327.007812 171.527344 327.007812 171.527344 "/></clipPath><clipPath id="a74766893e"><path d="M 162.007812 84.863281 L 194.265625 84.863281 L 194.265625 107.210938 L 162.007812 107.210938 Z M 162.007812 84.863281 "/></clipPath><clipPath id="db88dca3b5"><path d="M 167.378906 85.097656 C 184.601562 93.867188 191.492188 98.328125 193.292969 100.679688 C 193.996094 101.539062 194.15625 102.164062 194.15625 103.027344 C 194.234375 103.808594 193.917969 104.75 193.449219 105.375 C 193.058594 106.003906 192.199219 106.628906 191.492188 106.863281 C 190.710938 107.097656 189.769531 107.175781 188.988281 106.863281 C 188.046875 106.472656 186.796875 105.140625 186.480469 104.125 C 186.167969 103.339844 186.324219 102.402344 186.640625 101.695312 C 186.953125 100.914062 187.5 100.128906 188.28125 99.738281 C 189.222656 99.347656 191.023438 99.269531 191.960938 99.660156 C 192.746094 99.894531 193.371094 100.679688 193.761719 101.382812 C 194.078125 102.085938 194.3125 103.027344 194.15625 103.808594 C 193.839844 104.828125 192.746094 106.238281 191.882812 106.707031 C 191.101562 107.097656 190.476562 107.253906 189.378906 106.941406 C 186.324219 106.160156 178.652344 99.347656 173.878906 96.527344 C 170.042969 94.335938 164.640625 93.085938 163.074219 91.285156 C 162.292969 90.421875 162.054688 89.5625 162.054688 88.699219 C 162.054688 87.839844 162.605469 86.742188 163.074219 86.117188 C 163.464844 85.570312 164.011719 85.253906 164.640625 85.019531 C 165.421875 84.785156 167.378906 85.097656 167.378906 85.097656 "/></clipPath><clipPath id="cfb267c6ae"><path d="M 186.410156 59 L 303.589844 59 L 303.589844 129.558594 L 186.410156 129.558594 Z M 186.410156 59 "/></clipPath><clipPath id="7dccc63299"><path d="M 186.558594 101.851562 C 197.835938 77.660156 200.886719 74.765625 203.472656 72.101562 C 205.507812 70.066406 207.699219 68.1875 209.5 66.859375 C 210.75 65.996094 211.378906 65.527344 212.945312 64.824219 C 215.683594 63.570312 221.320312 61.535156 225 60.59375 C 228.132812 59.890625 230.792969 59.578125 233.691406 59.34375 C 236.429688 59.1875 238.933594 58.949219 241.832031 59.421875 C 245.355469 60.046875 249.582031 61.691406 253.261719 63.257812 C 256.941406 64.824219 260.464844 66.703125 263.832031 68.894531 C 267.355469 71.164062 270.796875 73.746094 273.929688 76.488281 C 276.984375 79.226562 280.035156 82.359375 282.386719 85.175781 C 284.421875 87.527344 285.828125 89.484375 287.472656 92.144531 C 289.585938 95.433594 291.78125 99.425781 293.738281 103.652344 C 296.085938 108.429688 298.433594 115.945312 300.3125 119.625 C 301.410156 121.660156 302.816406 122.992188 303.210938 124.242188 C 303.445312 124.949219 303.523438 125.417969 303.367188 126.121094 C 303.210938 126.90625 302.582031 127.921875 301.957031 128.472656 C 301.488281 128.941406 300.9375 129.175781 300.3125 129.253906 C 299.53125 129.410156 298.277344 129.332031 297.574219 128.863281 C 296.632812 128.234375 295.695312 126.433594 295.617188 125.417969 C 295.539062 124.554688 295.929688 123.695312 296.398438 123.070312 C 296.945312 122.441406 297.652344 121.816406 298.511719 121.660156 C 299.53125 121.503906 301.253906 121.894531 302.113281 122.519531 C 302.738281 122.992188 303.210938 123.851562 303.367188 124.632812 C 303.523438 125.417969 303.445312 126.433594 303.054688 127.140625 C 302.582031 128 301.097656 129.097656 300.15625 129.332031 C 299.296875 129.488281 298.355469 129.253906 297.652344 128.863281 C 296.945312 128.550781 296.242188 127.84375 295.929688 127.0625 C 295.617188 126.121094 295.617188 124.320312 296.164062 123.382812 C 296.789062 122.441406 298.277344 121.582031 299.375 121.503906 C 300.46875 121.503906 302.191406 122.441406 302.816406 123.382812 C 303.445312 124.242188 303.367188 126.121094 303.132812 126.984375 C 302.898438 127.609375 302.503906 128.078125 301.957031 128.472656 C 301.332031 128.941406 300.15625 129.332031 299.375 129.332031 C 298.667969 129.410156 298.199219 129.253906 297.574219 128.863281 C 296.554688 128.234375 295.382812 127.21875 294.363281 125.574219 C 292.328125 122.441406 290.605469 114.925781 288.257812 109.917969 C 285.90625 104.828125 283.402344 99.738281 280.113281 95.121094 C 276.90625 90.578125 272.753906 86.117188 268.917969 82.59375 C 265.476562 79.460938 262.34375 77.035156 258.273438 74.6875 C 253.730469 71.945312 247.625 68.660156 242.613281 67.5625 C 238.230469 66.703125 233.613281 67.171875 229.933594 67.640625 C 226.957031 68.03125 224.53125 68.894531 221.945312 69.753906 C 219.441406 70.617188 216.78125 71.476562 214.507812 72.964844 C 212.238281 74.375 210.4375 76.175781 208.402344 78.289062 C 205.898438 80.871094 203.15625 83.769531 200.886719 87.605469 C 197.914062 92.535156 194.9375 103.808594 192.980469 106.003906 C 192.355469 106.707031 191.960938 106.785156 191.335938 106.941406 C 190.554688 107.097656 189.300781 107.019531 188.519531 106.707031 C 187.734375 106.316406 186.953125 105.453125 186.640625 104.671875 C 186.324219 103.886719 186.558594 101.851562 186.558594 101.851562 "/></clipPath><clipPath id="6554aa373b"><path d="M 200.125 75.542969 L 280.914062 75.542969 L 280.914062 115.847656 L 200.125 115.847656 Z M 200.125 75.542969 "/></clipPath><clipPath id="7e1024c944"><path d="M 200.183594 105.53125 C 203.707031 97 206.757812 92.300781 209.109375 89.328125 C 211.066406 86.820312 212.867188 84.785156 215.058594 82.90625 C 217.171875 81.105469 220.066406 79.148438 222.101562 78.054688 C 223.433594 77.347656 224.140625 77.035156 225.78125 76.644531 C 228.601562 76.019531 234.082031 75.46875 237.683594 75.78125 C 240.578125 76.019531 242.851562 76.488281 245.667969 77.582031 C 248.957031 78.992188 253.105469 81.8125 256.082031 83.847656 C 258.507812 85.492188 259.996094 86.585938 262.421875 88.777344 C 266.414062 92.378906 273.695312 100.050781 276.828125 104.203125 C 278.628906 106.550781 280.035156 108.664062 280.585938 110.308594 C 280.898438 111.324219 281.054688 112.03125 280.742188 112.8125 C 280.429688 113.753906 279.332031 115.160156 278.234375 115.554688 C 277.21875 115.867188 275.496094 115.632812 274.632812 115.003906 C 273.773438 114.300781 273.070312 112.65625 273.070312 111.640625 C 273.070312 110.855469 273.382812 109.917969 273.929688 109.367188 C 274.632812 108.585938 276.355469 107.882812 277.375 107.960938 C 278.15625 107.960938 279.097656 108.351562 279.644531 108.976562 C 280.351562 109.683594 280.898438 111.402344 280.820312 112.421875 C 280.820312 113.28125 280.269531 114.066406 279.722656 114.613281 C 279.175781 115.160156 278.234375 115.632812 277.453125 115.710938 C 276.671875 115.789062 275.808594 115.710938 275.027344 115.238281 C 273.617188 114.300781 272.597656 111.402344 270.796875 109.132812 C 268.136719 105.6875 263.753906 100.601562 260.074219 97.15625 C 256.863281 94.101562 253.730469 91.675781 250.285156 89.40625 C 246.921875 87.214844 243.476562 84.707031 239.71875 83.847656 C 235.960938 82.90625 231.105469 83.140625 227.660156 84.160156 C 224.84375 85.019531 222.652344 86.898438 220.539062 88.699219 C 218.421875 90.421875 216.9375 92.222656 215.058594 94.808594 C 212.238281 98.566406 208.324219 107.960938 206.289062 109.683594 C 205.585938 110.308594 205.191406 110.308594 204.488281 110.386719 C 203.707031 110.386719 202.53125 110.230469 201.828125 109.683594 C 201.121094 109.210938 200.496094 108.195312 200.261719 107.410156 C 200.027344 106.785156 200.183594 105.53125 200.183594 105.53125 "/></clipPath><clipPath id="3d086f8ea1"><path d="M 202.046875 99.941406 L 280.964844 99.941406 L 280.964844 115.640625 L 202.046875 115.640625 Z M 202.046875 99.941406 "/></clipPath><clipPath id="e5eaf8103e"><path d="M 275.964844 115.632812 C 257.722656 109.996094 252.714844 109.054688 246.371094 108.429688 C 238.074219 107.722656 223.824219 108.039062 217.25 108.273438 C 213.960938 108.429688 211.222656 108.039062 209.890625 108.898438 C 209.027344 109.367188 209.265625 110.542969 208.558594 111.011719 C 207.777344 111.640625 205.976562 112.03125 205.035156 111.875 C 204.175781 111.71875 203.390625 111.089844 202.921875 110.464844 C 202.453125 109.839844 202.0625 108.898438 202.140625 108.039062 C 202.21875 107.097656 202.921875 105.453125 203.863281 104.828125 C 204.722656 104.203125 206.523438 104.125 207.464844 104.4375 C 208.246094 104.671875 208.949219 105.375 209.421875 106.003906 C 209.8125 106.707031 210.046875 107.722656 209.96875 108.507812 C 209.8125 109.289062 209.421875 110.152344 208.871094 110.777344 C 208.324219 111.324219 207.464844 111.796875 206.679688 111.953125 C 205.898438 112.03125 204.878906 111.875 204.175781 111.5625 C 203.550781 111.167969 202.84375 110.464844 202.453125 109.683594 C 202.140625 108.976562 201.90625 108.117188 202.21875 107.253906 C 202.765625 105.6875 205.113281 103.339844 207.542969 102.167969 C 210.59375 100.601562 214.902344 100.679688 219.910156 100.285156 C 227.425781 99.816406 240.34375 99.816406 248.488281 100.679688 C 254.75 101.226562 259.601562 102.324219 264.769531 103.652344 C 269.625 104.984375 276.433594 106.785156 278.863281 108.351562 C 279.878906 109.054688 280.351562 109.683594 280.664062 110.464844 C 280.976562 111.324219 280.976562 112.421875 280.585938 113.28125 C 280.269531 114.066406 279.488281 114.925781 278.785156 115.320312 C 278 115.710938 275.964844 115.632812 275.964844 115.632812 "/></clipPath></defs><g id="96d6df67ca"><g clip-rule="nonzero" clip-path="url(#a763a07cf5)"><g clip-rule="nonzero" clip-path="url(#08c0b78a28)"><path style=" stroke:none;fill-rule:nonzero;fill:currentColor;fill-opacity:1;" d="M 102.871094 77.976562 L 174.347656 77.976562 L 174.347656 198.035156 L 102.871094 198.035156 Z M 102.871094 77.976562 "/></g></g><g clip-rule="nonzero" clip-path="url(#a621d44a9d)"><g clip-rule="nonzero" clip-path="url(#9aaa4cdc7e)"><path style=" stroke:none;fill-rule:nonzero;fill:currentColor;fill-opacity:1;" d="M 86.976562 183.976562 L 128.472656 183.976562 L 128.472656 318.828125 L 86.976562 318.828125 Z M 86.976562 183.976562 "/></g></g><g clip-rule="nonzero" clip-path="url(#58881171c5)"><g clip-rule="nonzero" clip-path="url(#592178fa55)"><path style=" stroke:none;fill-rule:nonzero;fill:currentColor;fill-opacity:1;" d="M 102.007812 141.859375 L 155.117188 141.859375 L 155.117188 175.679688 L 102.007812 175.679688 Z M 102.007812 141.859375 "/></g></g><g clip-rule="nonzero" clip-path="url(#1ff4cdbb7c)"><g clip-rule="nonzero" clip-path="url(#be1e9c326b)"><path style=" stroke:none;fill-rule:nonzero;fill:currentColor;fill-opacity:1;" d="M 37.5 161.742188 L 116.101562 161.742188 L 116.101562 298.375 L 37.5 298.375 Z M 37.5 161.742188 "/></g></g><g clip-rule="nonzero" clip-path="url(#fece09cea8)"><g clip-rule="nonzero" clip-path="url(#8d35975142)"><path style=" stroke:none;fill-rule:nonzero;fill:currentColor;fill-opacity:1;" d="M 113.753906 179.90625 L 191.886719 179.90625 L 191.886719 224.058594 L 113.753906 224.058594 Z M 113.753906 179.90625 "/></g></g><g clip-rule="nonzero" clip-path="url(#f51f64cd12)"><g clip-rule="nonzero" clip-path="url(#d25098bf51)"><path style=" stroke:none;fill-rule:nonzero;fill:currentColor;fill-opacity:1;" d="M 178.105469 210.046875 L 299.308594 210.046875 L 299.308594 264.769531 L 178.105469 264.769531 Z M 178.105469 210.046875 "/></g></g><g clip-rule="nonzero" clip-path="url(#044f001ac3)"><g clip-rule="nonzero" clip-path="url(#416aed233e)"><path style=" stroke:none;fill-rule:nonzero;fill:currentColor;fill-opacity:1;" d="M 284.65625 161.742188 L 337.265625 161.742188 L 337.265625 257.097656 L 284.65625 257.097656 Z M 284.65625 161.742188 "/></g></g><g clip-rule="nonzero" clip-path="url(#5802337891)"><g clip-rule="nonzero" clip-path="url(#07457cbb47)"><path style=" stroke:none;fill-rule:nonzero;fill:currentColor;fill-opacity:1;" d="M 292.5625 119.703125 L 337.5 119.703125 L 337.5 176.578125 L 292.5625 176.578125 Z M 292.5625 119.703125 "/></g></g><g clip-rule="nonzero" clip-path="url(#a74766893e)"><g clip-rule="nonzero" clip-path="url(#db88dca3b5)"><path style=" stroke:none;fill-rule:nonzero;fill:currentColor;fill-opacity:1;" d="M 158.925781 81.890625 L 197.238281 81.890625 L 197.238281 110.074219 L 158.925781 110.074219 Z M 158.925781 81.890625 "/></g></g><g clip-rule="nonzero" clip-path="url(#cfb267c6ae)"><g clip-rule="nonzero" clip-path="url(#7dccc63299)"><path style=" stroke:none;fill-rule:nonzero;fill:currentColor;fill-opacity:1;" d="M 183.429688 56.210938 L 306.570312 56.210938 L 306.570312 132.542969 L 183.429688 132.542969 Z M 183.429688 56.210938 "/></g></g><g clip-rule="nonzero" clip-path="url(#6554aa373b)"><g clip-rule="nonzero" clip-path="url(#7e1024c944)"><path style=" stroke:none;fill-rule:nonzero;fill:currentColor;fill-opacity:1;" d="M 197.050781 72.652344 L 283.984375 72.652344 L 283.984375 118.917969 L 197.050781 118.917969 Z M 197.050781 72.652344 "/></g></g><g clip-rule="nonzero" clip-path="url(#3d086f8ea1)"><g clip-rule="nonzero" clip-path="url(#e5eaf8103e)"><path style=" stroke:none;fill-rule:nonzero;fill:currentColor;fill-opacity:1;" d="M 199.007812 97.15625 L 283.835938 97.15625 L 283.835938 118.761719 L 199.007812 118.761719 Z M 199.007812 97.15625 "/></g></g></g></svg>