<svg width="1024" height="1024" viewBox="0 0 1024 1024" fill="none" xmlns="http://www.w3.org/2000/svg">
<style>
  :root {
    --icon-stroke-color: #2A2A4B;
    --icon-fill-color: #2A2A4B;
  }
  @media (prefers-color-scheme: dark) {
    :root {
      --icon-stroke-color: white;
      --icon-fill-color: white;
    }
  }
  .icon-light-stroke {
    stroke: var(--icon-stroke-color);
  }
  .icon-light-fill {
    fill: var(--icon-fill-color);
  }
</style>
<path d="M651.39 687.01C647.9 697.87 644.07 708.35 639.94 718.44C639.76 718.86 639.6 719.29 639.42 719.7C639.09 720.5 638.76 721.29 638.43 722.07C637.03 725.42 635.59 728.73 634.09 731.98C632.79 734.88 631.45 737.73 630.07 740.55C629.37 742.03 628.64 743.5 627.91 744.96C627.27 746.25 626.59 747.54 625.93 748.82C633.4 750.78 640.63 752.36 647.64 753.55C649.75 749.31 651.81 744.97 653.82 740.55C655.1 737.72 656.35 734.87 657.58 731.98C658.05 730.87 658.51 729.76 658.98 728.63C663.84 716.94 668.29 704.73 672.32 692.08C673.45 688.57 674.53 685.02 675.59 681.46C668.07 683.37 660.42 685.12 652.67 686.73C652.24 686.83 651.81 686.92 651.38 687L651.39 687.01Z" fill="#6D55CE"/>
<path d="M423.94 789.93C450.31 824.15 480.65 842.49 512.03 842.49C514.08 842.49 516.126 842.41 518.166 842.254C519.995 849.635 522.891 856.595 526.679 862.962C521.837 863.659 516.955 864.01 512.04 864.01C471.54 864.01 433.35 840.19 401.64 795.97C408.94 794.28 416.38 792.25 423.94 789.93Z" fill="#6D55CE"/>
<path d="M664.91 363.9C665.4 366.12 665.87 368.36 666.3 370.58C675.66 380.39 684.66 390.39 693.27 400.52C691.82 390.31 690.11 380.29 688.19 370.41C680.59 368.06 672.83 365.91 664.91 363.9Z" fill="#6D55CE"/>
<path d="M359.12 363.91C351.2 365.9 343.43 368.07 335.84 370.4C333.92 380.28 332.22 390.3 330.76 400.51C339.37 390.39 348.36 380.42 357.72 370.62C358.17 368.37 358.61 366.15 359.12 363.91Z" fill="#6D55CE"/>
<path d="M688.19 629.63C690.11 619.75 691.81 609.7 693.27 599.5C684.66 609.63 675.66 619.62 666.3 629.44C665.87 631.68 665.41 633.91 664.91 636.14C672.83 634.14 680.58 631.98 688.19 629.65V629.63Z" fill="#6D55CE"/>
<path d="M700.13 513.71C700.24 509.15 700.28 504.58 700.28 500.01C700.28 495.44 700.24 490.84 700.13 486.28C692.99 475.7 685.37 465.16 677.29 454.72C678.28 469.6 678.76 484.72 678.76 500C678.76 515.28 678.28 530.4 677.29 545.28C685.37 534.82 692.99 524.29 700.13 513.7V513.71Z" fill="#6D55CE"/>
<path d="M396.12 255.07C396.76 253.78 397.42 252.49 398.08 251.21C390.64 249.23 383.39 247.66 376.37 246.46C365.43 268.39 356.07 292.61 348.42 318.56C356.37 316.54 364.44 314.7 372.63 313.01C379.3 292.3 387.17 272.88 396.11 255.06L396.12 255.07Z" fill="#6D55CE"/>
<path d="M323.9 486.33C323.79 490.89 323.75 495.44 323.75 500.01C323.75 504.58 323.79 509.14 323.9 513.68C331.02 524.28 338.64 534.82 346.74 545.28C345.77 530.39 345.27 515.28 345.27 500.01C345.27 484.74 345.76 469.63 346.74 454.74C338.64 465.17 331.02 475.74 323.9 486.32V486.33Z" fill="#6D55CE"/>
<path d="M348.43 681.47C356.07 707.41 365.44 731.62 376.38 753.56C383.39 752.35 390.64 750.77 398.09 748.83C397.43 747.55 396.77 746.26 396.13 744.97C387.18 727.15 379.32 707.73 372.65 687.02C364.46 685.33 356.39 683.49 348.44 681.47H348.43Z" fill="#6D55CE"/>
<path d="M474.49 166.44C486.7 160.55 499.28 157.52 512.02 157.52C543.41 157.52 573.76 175.87 600.11 210.1C601.46 211.84 602.79 213.61 604.12 215.43C605.41 217.21 606.69 219.03 607.92 220.87C612.01 226.81 615.95 233.15 619.78 239.88C620.85 241.73 621.89 243.61 622.92 245.54C623.95 247.41 624.95 249.3 625.94 251.22C626.6 252.5 627.27 253.79 627.92 255.08C636.87 272.9 644.72 292.32 651.39 313.03C659.58 314.72 667.67 316.56 675.6 318.57C667.96 292.62 658.59 268.41 647.66 246.47C647.51 246.11 647.32 245.76 647.14 245.41C646.34 243.79 645.52 242.2 644.68 240.62C643.66 238.64 642.63 236.71 641.61 234.81C637.86 227.93 633.98 221.41 629.98 215.22C628.76 213.31 627.52 211.45 626.29 209.61C625 207.73 623.71 205.88 622.42 204.07C590.73 159.85 552.5 136 512.02 136C494.31 136 477.03 140.56 460.55 149.4C439.36 160.76 419.47 179.19 401.63 204.06C408.93 205.75 416.37 207.77 423.93 210.1C439.59 189.78 456.64 175.05 474.49 166.44Z" fill="#6D55CE"/>
<path d="M852.83 432.95C845.21 422.42 835.77 412.29 824.58 402.66C822.3 400.68 819.93 398.73 817.5 396.81C814.44 394.38 811.27 391.99 807.97 389.63C807.3 392.55 806.56 395.5 805.79 398.48C805.06 401.2 804.31 403.93 803.5 406.69C802.99 408.42 802.47 410.16 801.94 411.92C814.72 421.78 825.29 432.17 833.51 442.97C847.3 461.09 854.51 480.34 854.51 500.01C854.51 531.4 836.17 561.73 801.94 588.1C804.27 595.66 806.29 603.09 807.98 610.39C852.2 578.7 876.03 540.49 876.03 500.01C876.03 476.63 868.08 454 852.83 432.95Z" fill="#6D55CE"/>
<path d="M524.68 256.01C531.68 260.21 538.72 264.62 545.71 269.21C565.08 259.29 584.36 251.09 603.28 244.83C604.66 244.39 606.05 243.94 607.41 243.51C603.51 236.84 599.52 230.59 595.41 224.78C572.16 232.55 548.44 243.06 524.69 256L524.68 256.01Z" fill="#6D55CE"/>
<path d="M355.78 423.69C358.18 420.83 360.64 417.98 363.14 415.15C372.98 403.94 383.32 392.91 394.11 382.11C404.91 371.32 415.96 360.97 427.16 351.14C414.05 352.8 401.19 354.86 388.66 357.32C385.39 360.46 382.13 363.66 378.9 366.89C375.66 370.13 372.46 373.4 369.31 376.68C366.65 379.44 364 382.24 361.39 385.04C358.75 387.85 356.15 390.71 353.58 393.56C344.6 403.47 336.01 413.56 327.83 423.74C325.39 426.77 322.99 429.81 320.62 432.85C318.19 435.97 315.8 439.08 313.5 442.21C307.31 450.46 301.41 458.74 295.78 467.08C299.51 474.09 303.48 481.11 307.65 488.12C308.89 486.21 310.15 484.32 311.41 482.4C313.55 479.17 315.73 475.94 317.98 472.74C320.16 469.58 322.39 466.43 324.68 463.28C332.2 452.88 340.16 442.53 348.55 432.3C350.92 429.42 353.33 426.55 355.78 423.68V423.69Z" fill="#6D55CE"/>
<path d="M500.14 295.64C493.13 291.45 486.11 287.49 479.1 283.77C470.77 289.4 462.44 295.31 454.19 301.5C467.44 300.42 480.86 299.74 494.41 299.41C496.33 298.12 498.25 296.87 500.15 295.64H500.14Z" fill="#6D55CE"/>
<path d="M466.73 665.27C477.19 673.37 487.72 680.99 498.31 688.12C502.87 688.23 507.44 688.27 512.02 688.27C516.6 688.27 521.17 688.23 525.73 688.12C536.33 680.98 546.85 673.36 557.31 665.27C542.42 666.26 527.31 666.75 512.02 666.75C496.73 666.75 481.63 666.26 466.73 665.27Z" fill="#6D55CE"/>
<path d="M733.09 373.18C741.34 376.63 749.31 380.28 756.97 384.13C758.29 384.79 759.58 385.43 760.84 386.12C762.23 380.82 763.43 375.63 764.44 370.57C764.85 368.48 765.24 366.41 765.58 364.37C765.2 364.18 764.83 364 764.44 363.81C755.29 359.29 745.75 355.04 735.85 351.07C722.36 345.66 708.21 340.78 693.49 336.44C691.17 335.74 688.84 335.08 686.5 334.45C684.19 333.78 681.86 333.15 679.51 332.53C671.67 330.44 663.71 328.52 655.6 326.74C653.29 326.22 650.97 325.74 648.63 325.26C646.31 324.78 643.98 324.31 641.66 323.86H641.63C631.77 321.94 621.73 320.24 611.54 318.78C621.66 327.39 631.65 336.39 641.45 345.75C643.7 346.19 645.94 346.66 648.15 347.14C650.44 347.62 652.72 348.13 654.97 348.65C657.28 349.14 659.55 349.69 661.81 350.24C669.8 352.15 677.64 354.22 685.31 356.46C687.6 357.13 689.89 357.81 692.17 358.51C694.48 359.21 696.77 359.94 699.02 360.66C710.81 364.46 722.19 368.63 733.09 373.19V373.18Z" fill="#6D55CE"/>
<path d="M686.5 665.59C688.83 664.96 691.17 664.3 693.49 663.6C719.43 655.96 743.64 646.61 765.58 635.65C764.4 628.64 762.81 621.39 760.84 613.91C759.58 614.6 758.29 615.24 756.97 615.9C739.17 624.85 719.75 632.71 699.02 639.38C696.77 640.11 694.48 640.83 692.17 641.53C689.89 642.22 687.6 642.9 685.31 643.56C677.64 645.81 669.8 647.88 661.81 649.79C659.56 650.34 657.28 650.89 654.97 651.38C652.72 651.9 650.44 652.41 648.15 652.89C645.93 653.37 643.68 653.84 641.44 654.28C631.63 663.64 621.66 672.64 611.52 681.25C621.72 679.8 631.75 678.09 641.63 676.17H641.66C643.98 675.72 646.31 675.25 648.63 674.77C650.96 674.29 653.3 673.79 655.59 673.29C663.69 671.51 671.68 669.58 679.51 667.5C681.86 666.88 684.19 666.25 686.5 665.58V665.59Z" fill="#6D55CE"/>
<path d="M222.835 311.908C229.056 316.436 235.984 320.051 243.421 322.556C242.701 333.378 243.137 344.977 244.736 357.28C244.996 359.45 245.305 361.66 245.665 363.9C246.005 366.05 246.396 368.22 246.816 370.43C248.116 377.48 249.806 384.771 251.866 392.25C252.436 394.31 253.026 396.4 253.626 398.47C254.246 400.52 254.876 402.56 255.536 404.62C255.956 405.99 256.416 407.36 256.866 408.75C263.126 427.67 271.316 446.95 281.226 466.33C282.316 468.46 283.416 470.59 284.556 472.7C285.656 474.8 286.776 476.89 287.946 478.99C291.796 485.99 295.885 493 300.165 500C301.385 501.99 302.606 503.98 303.886 505.97C305.126 507.94 306.366 509.9 307.646 511.88C308.886 513.79 310.146 515.68 311.406 517.6V517.62C313.546 520.84 315.726 524.06 317.976 527.27C320.156 530.43 322.386 533.59 324.676 536.73C332.196 547.14 340.156 557.49 348.546 567.7C350.916 570.59 353.316 573.46 355.776 576.33C358.186 579.19 360.636 582.03 363.136 584.87C372.986 596.09 383.316 607.11 394.106 617.91C404.906 628.7 415.956 639.05 427.156 648.88C429.996 651.39 432.856 653.851 435.696 656.25C438.556 658.69 441.436 661.1 444.316 663.47C454.556 671.86 464.876 679.82 475.296 687.34C478.446 689.63 481.596 691.86 484.756 694.04C487.966 696.289 491.186 698.47 494.415 700.61C496.335 701.87 498.266 703.13 500.156 704.37C493.136 708.57 486.135 712.51 479.125 716.24C470.786 710.63 462.466 704.71 454.216 698.52C451.076 696.2 447.956 693.83 444.856 691.4C441.776 689.03 438.746 686.63 435.726 684.19C425.526 676.01 415.456 667.4 405.516 658.44C402.686 655.88 399.866 653.3 397.056 650.66C394.226 648.06 391.446 645.41 388.656 642.69C385.386 639.56 382.116 636.37 378.896 633.14C375.656 629.9 372.466 626.63 369.306 623.35C366.646 620.58 363.996 617.79 361.386 614.99C358.746 612.18 356.146 609.33 353.576 606.47C344.596 596.54 336.006 586.45 327.826 576.27C325.366 573.25 322.966 570.21 320.616 567.16C318.186 564.05 315.805 560.94 313.495 557.81V557.8C307.316 549.55 301.415 541.25 295.786 532.92C294.446 530.94 293.146 528.97 291.856 526.99C290.536 525 289.245 523.01 287.955 521.01C283.495 514.04 279.216 507.02 275.136 500.01C273.946 497.91 272.736 495.81 271.556 493.74C270.376 491.6 269.186 489.48 268.046 487.37C255.116 463.61 244.596 439.88 236.816 416.63C236.696 416.26 236.576 415.9 236.436 415.52C235.866 413.8 235.306 412.09 234.786 410.37C234.116 408.29 233.486 406.19 232.866 404.1C230.666 396.6 228.776 389.23 227.236 382.04C226.726 379.83 226.286 377.63 225.886 375.45L225.896 375.39C225.446 373.15 225.056 370.93 224.716 368.72C221.335 348.267 220.724 329.227 222.835 311.908Z" fill="#6D55CE"/>
<path d="M344.886 209.52C356.296 209.52 368.266 210.55 380.806 212.62C382.986 212.99 385.206 213.37 387.446 213.81C389.636 214.23 391.826 214.67 394.046 215.16C401.236 216.7 408.606 218.58 416.126 220.8C418.196 221.39 420.296 222.041 422.396 222.71C424.096 223.23 425.796 223.78 427.526 224.36C427.896 224.48 428.256 224.61 428.636 224.73C451.866 232.5 475.596 243.02 499.346 255.96C501.466 257.11 503.586 258.29 505.726 259.47C507.826 260.67 509.896 261.86 511.995 263.07C519.005 267.13 526.026 271.43 532.995 275.89C534.985 277.18 537.006 278.47 538.995 279.77C540.975 281.07 542.935 282.38 544.915 283.71C553.255 289.33 561.576 295.25 569.826 301.44C572.966 303.77 576.066 306.13 579.186 308.56C582.236 310.92 585.286 313.33 588.316 315.77C598.496 323.96 608.576 332.56 618.495 341.52C621.345 344.08 624.166 346.66 626.976 349.3C629.786 351.92 632.576 354.561 635.346 357.25C638.626 360.39 641.896 363.6 645.116 366.83C648.365 370.069 651.546 373.34 654.705 376.62C657.375 379.38 660.016 382.18 662.636 384.98C665.266 387.79 667.866 390.64 670.415 393.49C679.405 403.4 687.995 413.47 696.165 423.67C698.615 426.69 701.026 429.75 703.396 432.8C705.806 435.9 708.166 439 710.495 442.12C716.685 450.37 722.586 458.67 728.216 467.02C724.496 474.04 720.526 481.05 716.346 488.08C715.106 486.17 713.866 484.26 712.586 482.34C710.446 479.11 708.246 475.88 706.026 472.68C703.826 469.53 701.606 466.37 699.316 463.23C691.806 452.82 683.836 442.48 675.446 432.25C673.076 429.37 670.675 426.5 668.245 423.65C665.846 420.8 663.396 417.96 660.896 415.12C651.056 403.93 640.706 392.88 629.906 382.08C619.106 371.29 608.085 360.94 596.875 351.11C594.045 348.61 591.205 346.16 588.366 343.74C585.506 341.29 582.626 338.89 579.726 336.52C569.516 328.13 559.186 320.17 548.786 312.65C545.626 310.37 542.476 308.13 539.316 305.95C536.106 303.7 532.876 301.52 529.656 299.38C527.736 298.09 525.805 296.85 523.915 295.61C521.936 294.34 519.966 293.08 517.986 291.84C515.996 290.59 514.006 289.35 512.016 288.13C505.036 283.83 498.016 279.77 491.006 275.91C488.906 274.76 486.836 273.64 484.736 272.51C482.596 271.4 480.476 270.29 478.336 269.19C458.966 259.26 439.696 251.07 420.766 244.81C419.386 244.34 418.006 243.92 416.616 243.49C414.556 242.82 412.506 242.2 410.466 241.6C408.386 240.98 406.305 240.39 404.245 239.83C396.776 237.79 389.506 236.1 382.436 234.78C380.236 234.37 378.046 233.97 375.896 233.63C373.676 233.28 371.466 232.97 369.296 232.7C360.816 231.59 352.666 231.03 344.856 231.03C343.98 231.03 343.104 231.037 342.232 231.051C340.321 223.49 337.287 216.375 333.317 209.896C337.1 209.646 340.951 209.52 344.886 209.52Z" fill="#6D55CE"/>
<path d="M525.73 311.91C521.17 311.8 516.6 311.76 512.02 311.76C507.44 311.76 502.87 311.8 498.31 311.91C494.45 311.96 490.6 312.07 486.75 312.21C482.92 312.33 479.08 312.5 475.26 312.69C461.89 313.38 448.67 314.42 435.69 315.83C431.83 316.24 428 316.69 424.17 317.18H424.16C420.25 317.67 416.38 318.2 412.51 318.77C402.33 320.22 392.28 321.93 382.41 323.85H382.4C380.07 324.3 377.73 324.77 375.43 325.25C373.08 325.73 370.75 326.21 368.43 326.76C360.33 328.52 352.36 330.45 344.52 332.52C342.2 333.14 339.87 333.78 337.55 334.44C335.2 335.07 332.87 335.76 330.56 336.46C304.62 344.08 280.41 353.42 258.47 364.36C259.66 371.37 261.23 378.61 263.21 386.09C264.49 385.43 265.78 384.77 267.07 384.13C284.89 375.18 304.31 367.34 325.02 360.65C327.3 359.92 329.58 359.2 331.88 358.5C334.14 357.8 336.44 357.13 338.73 356.45C346.42 354.21 354.25 352.14 362.23 350.23C364.51 349.68 366.79 349.13 369.08 348.64C371.34 348.1 373.62 347.6 375.92 347.13C378.14 346.62 380.37 346.18 382.6 345.74C386.43 344.96 390.26 344.22 394.14 343.52C397.9 342.85 401.7 342.2 405.52 341.58C418.2 339.52 431.15 337.85 444.32 336.56C448.04 336.19 451.77 335.86 455.52 335.56C459.25 335.26 462.99 334.98 466.73 334.75C481.64 333.78 496.75 333.28 512.02 333.28C527.29 333.28 542.42 333.77 557.31 334.75C546.85 326.67 536.32 319.05 525.73 311.91Z" fill="#6D55CE"/>
<path d="M756.021 512.65C768.951 536.41 779.471 560.16 787.221 583.41C787.371 583.76 787.481 584.13 787.601 584.49C788.181 586.22 788.73 587.941 789.25 589.641C789.93 591.74 790.55 593.841 791.17 595.931C793.38 603.42 795.26 610.781 796.8 617.971C797.29 620.2 797.741 622.39 798.151 624.59L798.111 624.6C798.561 626.84 798.96 629.051 799.29 631.261C808.17 684.93 798 728.801 769.38 757.431C754.72 772.08 736.07 781.89 714.151 786.79C709.951 787.72 705.631 788.49 701.181 789.07C694.131 789.99 686.771 790.46 679.141 790.46H679.13C674.95 790.46 670.69 790.32 666.34 790.03H666.33C664.838 789.937 663.338 789.827 661.829 789.7C657.248 780.417 650.85 772.19 643.097 765.487C644.791 765.802 646.466 766.097 648.141 766.36C649.511 766.58 650.861 766.77 652.191 766.95C652.341 766.97 652.491 766.99 652.641 767C653.351 767.11 654.05 767.19 654.75 767.29C656.98 767.58 659.211 767.84 661.391 768.03C661.771 768.08 662.16 768.11 662.54 768.15C668.26 768.69 673.8 768.95 679.17 768.95C684.98 768.95 690.581 768.65 695.971 768.03C703.921 767.14 711.411 765.59 718.401 763.38C732.461 758.96 744.501 751.87 754.2 742.17C776.39 719.99 784.87 685.58 779.3 642.73C779.06 640.54 778.73 638.33 778.37 636.11C778.03 633.96 777.661 631.78 777.221 629.58C775.901 622.5 774.22 615.23 772.17 607.761C771.6 605.711 771.01 603.65 770.41 601.56C769.79 599.51 769.17 597.47 768.5 595.41C768.09 594.02 767.651 592.65 767.181 591.261C760.921 572.351 752.71 553.07 742.8 533.69C747.41 526.69 751.811 519.68 756.021 512.65Z" fill="#6D55CE"/>
<path d="M545.71 730.81C553.72 734.91 561.71 738.71 569.67 742.2C570.55 742.6 571.441 742.99 572.321 743.37C575.644 744.8 578.962 746.176 582.272 747.498C571.513 748.973 561.464 752.673 552.604 758.119C543.32 753.823 534.003 749.116 524.68 744.03C531.71 739.81 538.72 735.41 545.71 730.81Z" fill="#6D55CE"/>
<path d="M780.951 340.612C787.631 343.232 794.767 344.941 802.207 345.588C802.114 347.134 801.997 348.695 801.865 350.25V350.28C801.605 353.2 801.285 356.14 800.905 359.13V359.18C800.515 362.349 800.056 365.55 799.516 368.79C799.306 370.14 799.085 371.47 798.825 372.83C798.675 373.69 798.516 374.57 798.336 375.45C797.936 377.64 797.465 379.83 796.985 382.05C795.895 387.21 794.596 392.46 793.146 397.79C792.586 399.89 791.985 401.99 791.365 404.099C791.215 404.619 791.065 405.13 790.915 405.65C790.435 407.21 789.965 408.81 789.445 410.37C788.925 412.09 788.376 413.8 787.796 415.519C787.676 415.889 787.555 416.26 787.415 416.62C784.755 424.61 781.765 432.67 778.455 440.75C772.155 456.2 764.696 471.79 756.216 487.38C755.046 489.5 753.876 491.61 752.686 493.75C751.516 495.82 750.306 497.92 749.086 500.019C745.026 507.029 740.756 514.049 736.266 521.019C734.986 523.019 733.696 525 732.396 526.99C731.106 528.98 729.775 530.95 728.445 532.93C722.815 541.289 716.916 549.58 710.726 557.84C708.386 560.95 706.025 564.07 703.625 567.17C701.255 570.22 698.855 573.28 696.396 576.3C688.206 586.48 679.605 596.59 670.646 606.51C668.086 609.34 665.485 612.18 662.865 614.97C660.275 617.77 657.626 620.56 654.936 623.32C651.806 626.62 648.575 629.91 645.325 633.15C642.105 636.38 638.835 639.59 635.556 642.729C632.776 645.419 629.995 648.06 627.186 650.68C624.376 653.309 621.535 655.91 618.705 658.46C608.765 667.44 598.695 676.03 588.495 684.21C585.475 686.67 582.445 689.07 579.396 691.42C576.296 693.85 573.165 696.22 570.035 698.54C561.775 704.73 553.455 710.65 545.125 716.26C543.145 717.61 541.175 718.91 539.195 720.2C537.205 721.53 535.216 722.82 533.226 724.08C526.256 728.55 519.236 732.82 512.226 736.9C510.126 738.12 508.035 739.31 505.936 740.48C503.806 741.69 501.675 742.87 499.565 744.02C475.806 756.96 452.075 767.48 428.825 775.22C428.475 775.369 428.105 775.459 427.745 775.599C426.015 776.159 424.315 776.73 422.615 777.26H422.575C420.465 777.92 418.365 778.55 416.275 779.17C408.766 781.37 401.406 783.249 394.216 784.809C391.996 785.299 389.815 785.75 387.615 786.16C385.395 786.58 383.175 786.98 380.976 787.34C368.436 789.42 356.436 790.44 345.056 790.44C307.636 790.44 276.736 779.35 254.806 757.42C238.23 740.844 227.839 719.174 223.761 693.428C231.279 701.937 240.657 708.764 251.261 713.271C255.685 724.421 261.933 734.117 270.025 742.19C287.825 759.98 313.495 768.969 345.035 768.97C352.845 768.97 360.985 768.419 369.485 767.309C371.655 767.039 373.866 766.74 376.086 766.38C378.236 766.04 380.406 765.66 382.615 765.23C389.665 763.9 396.956 762.239 404.436 760.18C406.495 759.62 408.555 759.03 410.655 758.41C412.685 757.81 414.746 757.18 416.806 756.52C418.195 756.11 419.585 755.66 420.955 755.19C439.885 748.93 459.136 740.75 478.506 730.83C480.646 729.75 482.756 728.64 484.886 727.51C486.986 726.4 489.086 725.28 491.186 724.11C498.196 720.26 505.205 716.169 512.195 711.889C514.185 710.67 516.175 709.45 518.165 708.2C520.135 706.96 522.105 705.689 524.065 704.43C525.975 703.19 527.896 701.92 529.806 700.66C533.046 698.52 536.275 696.34 539.485 694.09C542.635 691.91 545.796 689.679 548.926 687.389C559.346 679.87 569.675 671.909 579.905 663.519C582.785 661.139 585.655 658.74 588.525 656.3C591.385 653.9 594.235 651.429 597.065 648.93C608.285 639.1 619.306 628.75 630.105 617.96C640.905 607.16 651.256 596.11 661.096 584.91C663.596 582.07 666.055 579.21 668.455 576.37C670.885 573.52 673.295 570.65 675.665 567.75C684.055 557.53 692.025 547.18 699.535 536.78C701.825 533.63 704.045 530.48 706.245 527.32C708.465 524.11 710.666 520.88 712.806 517.66C714.086 515.74 715.336 513.81 716.596 511.92C717.846 509.95 719.106 507.999 720.355 506.019C721.585 504.029 722.826 502.04 724.046 500.05C728.336 493.04 732.426 486.019 736.266 479.01C737.426 476.91 738.555 474.84 739.665 472.74C740.805 470.63 741.885 468.48 742.985 466.37C749.355 453.9 755.026 441.48 759.926 429.17C762.646 422.33 765.125 415.55 767.365 408.8C767.835 407.41 768.276 406.04 768.686 404.65C769.356 402.59 769.976 400.54 770.596 398.5C770.906 397.44 771.206 396.4 771.506 395.34C771.796 394.32 772.085 393.31 772.355 392.29C773.095 389.6 773.776 386.94 774.426 384.3C775.566 379.61 776.565 374.999 777.405 370.47C777.845 368.28 778.216 366.09 778.556 363.94C778.906 361.71 779.235 359.5 779.485 357.32C780.238 351.602 780.721 346.015 780.951 340.612Z" fill="#6D55CE"/>
<path d="M357.658 648.683C359.175 649.069 360.701 649.438 362.221 649.8C364.501 650.35 366.78 650.9 369.07 651.39C371.34 651.92 373.62 652.43 375.91 652.9C378.13 653.38 380.351 653.85 382.591 654.29C392.401 663.65 402.391 672.651 412.511 681.261C402.331 679.801 392.28 678.1 382.41 676.18H382.4C380.07 675.731 377.741 675.26 375.431 674.78C373.081 674.3 370.76 673.8 368.44 673.27C363.237 672.153 358.095 670.945 353.006 669.676C355.492 663.064 357.091 656.019 357.658 648.683Z" fill="#6D55CE"/>
<path d="M216.051 389.67C217.741 396.94 219.751 404.37 222.101 411.93C187.861 438.3 169.521 468.66 169.521 500.05C169.521 507.16 170.47 514.22 172.32 521.19C175.68 533.86 182.061 546.23 191.301 558.1C192.301 559.42 193.361 560.73 194.44 562.03C202.02 571.07 211.271 579.81 222.101 588.16C221.511 590.06 220.95 591.94 220.4 593.82C220.069 595.003 219.729 596.187 219.403 597.355C216.927 600.727 214.721 604.309 212.814 608.069C210.114 606.066 207.482 604.032 204.94 601.98C196.83 595.43 189.521 588.62 183.101 581.62C181.261 579.62 179.491 577.6 177.801 575.57C165.461 560.82 156.84 545.2 152.15 529C149.4 519.53 148 509.85 148 500.05C148 459.57 171.831 421.35 216.051 389.67Z" fill="#6D55CE"/>
<path d="M223.021 588.85C223.72 589.384 224.416 589.918 225.124 590.448C223.092 592.63 221.186 594.93 219.417 597.338C220.263 594.309 221.15 591.255 222.11 588.17C222.41 588.4 222.721 588.62 223.021 588.85Z" fill="#6D55CE"/>
<path d="M268.03 512.66C272.22 519.68 276.621 526.7 281.221 533.67C275.404 545.043 270.187 556.378 265.614 567.622C255.647 569.684 246.388 573.68 238.247 579.202C241.649 569.401 245.545 559.513 249.891 549.58C255.241 537.32 261.3 525 268.03 512.66Z" fill="#6D55CE"/>
<path d="M679.355 209.59C704.967 209.59 727.505 214.787 746.225 225.104C742.107 230.945 738.787 237.387 736.418 244.272C720.755 235.493 701.51 231.059 679.355 231.059C671.576 231.059 663.406 231.619 654.926 232.729C651.226 225.73 647.376 219.06 643.426 212.69C655.956 210.62 667.946 209.59 679.355 209.59Z" fill="#6D55CE"/>
<path d="M512.015 610.46C571.728 610.46 620.135 562.053 620.135 502.34C620.135 442.627 571.728 394.22 512.015 394.22C452.302 394.22 403.895 442.627 403.895 502.34C403.895 562.053 452.302 610.46 512.015 610.46Z" class="icon-light-stroke" stroke-width="13.73" stroke-miterlimit="133.33" stroke-linecap="square"/>
<path d="M514.745 607.91C541.755 581.93 555.265 546.74 555.265 502.34C555.265 457.94 541.735 422.69 514.675 396.7C513.805 395.86 510.505 395.62 509.755 396.33C482.435 422.35 468.775 457.69 468.775 502.34C468.775 546.99 481.915 580.96 508.195 606.84C509.445 608.07 513.855 608.77 514.745 607.91Z" class="icon-light-stroke" stroke-width="13.73" stroke-miterlimit="133.33" stroke-linecap="round"/>
<path d="M614.725 534.78H409.305M614.725 469.91H409.305" class="icon-light-stroke" stroke-width="13.73" stroke-miterlimit="133.33" stroke-linecap="round"/>
<path fill-rule="evenodd" clip-rule="evenodd" d="M592.82 758.89C628.55 758.89 657.62 787.961 657.62 823.69C657.62 859.42 628.55 888.49 592.82 888.49C557.09 888.49 528.02 859.42 528.02 823.69C528.02 787.961 557.09 758.89 592.82 758.89ZM589.47 780.38V793.93H558.09V802.49H607.28C607.24 811.97 606.28 829.31 594.69 840.97C594.63 841.03 594.55 841.07 594.49 841.12C586.94 834.76 582.24 827.06 580.44 820.8L572.2 823.15C574.24 830.32 579.5 839.02 587.7 846.41C580.06 851.02 570.13 853.35 558.08 853.35V861.91C573.17 861.91 585.36 858.39 594.72 851.77C603.7 857.69 615.151 861.91 629.39 861.91V853.35C618.16 853.35 608.9 850.41 601.5 846.1C614.69 832.06 615.8 812.88 615.82 802.48H629.39V793.92H598.01V780.38H589.47ZM598.01 780.38H598.03L598.01 780.37V780.38Z" class="icon-light-fill"/>
<path d="M267.91 184.83C303.778 184.83 332.96 214.013 332.96 249.88C332.96 285.748 303.778 314.93 267.91 314.93C232.043 314.93 202.861 285.748 202.86 249.88C202.86 214.013 232.042 184.83 267.91 184.83ZM256.01 206.49C254.12 206.49 252.58 208.01 252.58 209.91V228.93C252.58 231.39 252.5 233.79 252.35 236.11C252.1 239.78 251.69 243.22 251.11 246.35C249.23 256.63 245.73 263.55 241.74 263.55H238.32V281.26H245.17V270.42H290.64V281.26H297.49V263.57H291.4V209.9C291.4 208.23 290.21 206.84 288.61 206.54H288.6C288.41 206.5 288.19 206.49 287.98 206.49H256.01ZM284.53 263.54H252.2C256.07 257.47 258.211 248.13 259.021 238.49C259.27 235.65 259.4 232.79 259.42 229.98C259.43 229.62 259.43 229.28 259.43 228.92V213.33H284.53V263.54ZM212.28 214.306C212.137 214.529 211.995 214.754 211.854 214.979L211.437 215.657C211.713 215.203 211.994 214.752 212.28 214.305V214.306Z" class="icon-light-fill"/>
<path d="M285.1 624.33L285.108 624.348L285.091 624.341L296.915 649.71H265.545L266.97 646.67L269.33 641.6L269.62 640.97H269.63L272.18 635.49L278.73 621.47L281.24 616.08L285.1 624.33Z" class="icon-light-fill"/>
<path fill-rule="evenodd" clip-rule="evenodd" d="M281.23 577.64C317.098 577.64 346.28 606.823 346.28 642.69C346.28 678.558 317.098 707.74 281.23 707.74C245.363 707.74 216.181 678.558 216.18 642.69C216.18 606.822 245.363 577.64 281.23 577.64ZM277.36 606.98L272.051 618.35L269.74 623.31L263.9 635.78L257.63 649.22L256.301 652.06L246.14 673.83H254.27L262.09 657.07H291.705C291.713 657.073 291.722 657.077 291.73 657.08H300.345L302.15 660.94L302.69 662.08L305.74 668.63L305.88 668.92L307.99 673.45H307.995L308 673.46H308.004L308.16 673.83H308.165L308.17 673.841H316.28L315.46 672.08H315.47L314.66 670.32L312.68 666.091L311.841 664.28L309.48 659.23H309.47L308.33 656.77L308.15 656.4L291.26 620.18L287.25 611.591L286.4 609.76L284.57 605.83H277.9L277.36 606.98Z" class="icon-light-fill"/>
<path d="M808.72 204.16C844.588 204.16 873.77 233.343 873.77 269.21C873.77 305.078 844.588 334.26 808.72 334.26C772.853 334.26 743.671 305.078 743.67 269.21C743.67 233.343 772.853 204.16 808.72 204.16ZM814.96 228.11C812.72 228.11 810.64 228.45 808.7 229.1C806.38 229.86 804.28 231.02 802.41 232.52C796.95 236.88 793.53 243.95 792.69 251.3C792.54 252.51 792.47 253.73 792.47 254.94C792.47 258.12 792.91 260.84 793.69 263.13C794.79 266.34 796.53 268.76 798.63 270.57C800.36 272.08 802.34 273.16 804.4 273.96C804.45 273.99 804.521 274 804.581 274.03C806.53 274.76 808.55 275.24 810.48 275.53C811.5 275.69 812.5 275.8 813.44 275.87C815.72 276.06 817.75 276.06 819.27 276.06H831.51C830.77 280.52 829.49 284.01 827.78 286.72C826.6 288.64 825.19 290.18 823.61 291.4C821.78 292.83 819.73 293.84 817.49 294.56C815.51 295.2 813.4 295.62 811.2 295.86C809.44 296.08 807.63 296.18 805.78 296.23C805.46 296.24 805.15 296.24 804.831 296.24C804.091 296.27 803.35 296.27 802.61 296.27C801.47 296.27 800.36 296.24 799.291 296.19C798.991 296.18 798.69 296.16 798.38 296.14C796.46 296.04 794.65 295.84 792.94 295.54C783.13 293.89 776.94 289.42 774.22 282.03C773.15 279.13 772.61 275.77 772.61 271.97V254.94H764.42V271.97C764.42 277.09 765.23 281.66 766.82 285.63C767.07 286.26 767.34 286.89 767.64 287.5C768.63 289.53 769.841 291.4 771.291 293.07C772.81 294.88 774.6 296.47 776.62 297.86C780.45 300.48 785.17 302.35 790.7 303.41C791.83 303.63 792.98 303.82 794.17 303.97C795.09 304.08 796.041 304.18 797 304.24C798 304.32 799.02 304.38 800.06 304.42C800.88 304.45 801.72 304.46 802.59 304.46C802.89 304.46 803.18 304.46 803.48 304.45C804.47 304.44 805.44 304.42 806.43 304.38C808.54 304.3 810.66 304.15 812.72 303.86C816.92 303.3 820.94 302.25 824.57 300.41C826.49 299.45 828.32 298.26 829.98 296.79C831.5 295.46 832.89 293.89 834.13 292.08C836.85 288.1 838.82 282.88 839.76 276.06H853.73V267.88H840.39V267.87C840.4 267.35 840.42 266.81 840.42 266.28C840.42 240.23 832.32 228.11 814.99 228.11H814.96ZM873.737 280.887C873.722 280.969 873.706 281.051 873.691 281.132C873.711 281.023 873.732 280.914 873.751 280.804L873.737 280.887ZM814.97 236.28C820.58 236.28 832.21 236.28 832.22 266.27C832.22 266.81 832.22 267.34 832.21 267.86V267.87H819.27C816.44 267.87 814 267.73 811.9 267.45C809.42 267.11 807.43 266.53 805.831 265.69C802.591 264 801.051 261.2 800.71 256.92V256.87C800.67 256.25 800.64 255.61 800.64 254.93C800.64 252.6 801 250.22 801.67 248.01V247.98C802.93 243.85 805.29 240.23 808.57 238.15C810.41 236.98 812.52 236.3 814.9 236.28H814.97ZM753.09 233.636C752.947 233.859 752.805 234.084 752.665 234.309L752.247 234.987C752.523 234.533 752.804 234.082 753.09 233.635V233.636Z" class="icon-light-fill"/>
</svg>
